*
%LPD*%
%LNNECK.TOP*%
%FSLAX24Y24*%
%MOIN*%
%AD*%
%ADD10R,0.022000X0.022000*%
%ADD12C,0.058000*%
%ADD13R,0.058000X0.058000*%
%ADD26R,0.086600X0.070800*%
%ADD27R,0.051200X0.011800*%
%ADD32C,0.001000*%
%ADD33C,0.066000*%
%ADD34R,0.066000X0.066000*%
%ADD36C,0.008000*%
%ADD40C,0.010000*%
%ADD45C,0.012000*%
%ADD50C,0.025000*%
%ADD52O,0.030200X0.078700*%
%ADD53O,0.078700X0.030200*%
%ADD54R,0.078700X0.030200*%
%ADD55C,0.077000*%
%ADD56C,0.030000*%
%ADD65C,0.025000*%
G54D32*
%SRX1Y1I0.0J0.0*%
G1X7232Y10636D2*
G1X7232Y10417D1*
G1X7223Y10636D2*
G1X7223Y10417D1*
G1X7214Y10636D2*
G1X7214Y10417D1*
G1X7205Y10636D2*
G1X7205Y10417D1*
G1X7196Y10636D2*
G1X7196Y10417D1*
G1X7187Y10636D2*
G1X7187Y10417D1*
G1X7178Y10636D2*
G1X7178Y10417D1*
G1X7169Y10636D2*
G1X7169Y10417D1*
G1X7160Y10636D2*
G1X7160Y10417D1*
G1X7151Y10636D2*
G1X7151Y10417D1*
G1X7142Y10636D2*
G1X7142Y10417D1*
G1X7133Y10636D2*
G1X7133Y10417D1*
G1X7124Y10636D2*
G1X7124Y10417D1*
G1X7115Y10636D2*
G1X7115Y10417D1*
G1X7106Y10636D2*
G1X7106Y10417D1*
G1X7097Y10636D2*
G1X7097Y10417D1*
G1X7088Y10636D2*
G1X7088Y10417D1*
G1X7079Y10636D2*
G1X7079Y10417D1*
G1X7070Y10636D2*
G1X7070Y10417D1*
G1X7061Y10636D2*
G1X7061Y10417D1*
G1X7052Y10636D2*
G1X7052Y10417D1*
G1X7043Y10636D2*
G1X7043Y10417D1*
G1X7034Y10636D2*
G1X7034Y10417D1*
G1X7025Y10636D2*
G1X7025Y10417D1*
G1X7016Y10636D2*
G1X7016Y10417D1*
G1X7007Y10636D2*
G1X7007Y10417D1*
G1X6998Y10636D2*
G1X6998Y10417D1*
G1X6989Y10636D2*
G1X6989Y10417D1*
G1X6980Y10636D2*
G1X6980Y10417D1*
G1X6971Y10636D2*
G1X6971Y10417D1*
G1X6593Y10061D2*
G1X6593Y7934D1*
G1X6953Y10636D2*
G1X6953Y10417D1*
G1X6944Y10636D2*
G1X6944Y10417D1*
G1X6935Y10636D2*
G1X6935Y10417D1*
G1X6926Y10636D2*
G1X6926Y10417D1*
G1X6903Y10135D2*
G1X6903Y10047D1*
G1X4040Y9311D2*
G1X3254Y9311D1*
G1X4204Y8591D2*
G1X3254Y8591D1*
G1X4838Y8599D2*
G1X4838Y7934D1*
G1X4694Y8582D2*
G1X4694Y7934D1*
G1X5459Y8263D2*
G1X5459Y7934D1*
G1X6863Y10636D2*
G1X6863Y10385D1*
G1X7391Y10238D2*
G1X7273Y10238D1*
G1X6845Y10636D2*
G1X6845Y10385D1*
G1X6836Y10636D2*
G1X6836Y10385D1*
G1X6827Y10636D2*
G1X6827Y10385D1*
G1X6818Y10636D2*
G1X6818Y10385D1*
G1X6809Y10636D2*
G1X6809Y10385D1*
G1X6800Y10636D2*
G1X6800Y10385D1*
G1X6791Y10636D2*
G1X6791Y10385D1*
G1X6449Y10100D2*
G1X6449Y7934D1*
G1X4595Y10636D2*
G1X4595Y10446D1*
G1X4577Y10636D2*
G1X4577Y10459D1*
G1X4559Y10636D2*
G1X4559Y10469D1*
G1X4541Y10636D2*
G1X4541Y10477D1*
G1X4523Y10636D2*
G1X4523Y10482D1*
G1X5423Y8194D2*
G1X5423Y7934D1*
G1X5387Y8156D2*
G1X5387Y7934D1*
G1X5351Y8132D2*
G1X5351Y7934D1*
G1X5315Y8117D2*
G1X5315Y7934D1*
G1X5279Y8108D2*
G1X5279Y7934D1*
G1X5243Y8105D2*
G1X5243Y7934D1*
G1X6665Y10636D2*
G1X6665Y10435D1*
G1X6656Y10636D2*
G1X6656Y10440D1*
G1X6647Y10636D2*
G1X6647Y10444D1*
G1X6638Y10636D2*
G1X6638Y10448D1*
G1X6629Y10636D2*
G1X6629Y10451D1*
G1X3965Y10174D2*
G1X3965Y7934D1*
G1X3956Y10636D2*
G1X3956Y10404D1*
G1X6602Y10636D2*
G1X6602Y10457D1*
G1X3956Y10174D2*
G1X3956Y7934D1*
G1X6584Y10636D2*
G1X6584Y10459D1*
G1X7391Y10391D2*
G1X7273Y10391D1*
G1X7391Y10355D2*
G1X7273Y10355D1*
G1X7391Y10319D2*
G1X7273Y10319D1*
G1X6548Y10636D2*
G1X6548Y10459D1*
G1X6539Y10636D2*
G1X6539Y10458D1*
G1X6530Y10636D2*
G1X6530Y10456D1*
G1X6521Y10636D2*
G1X6521Y10454D1*
G1X6512Y10636D2*
G1X6512Y10452D1*
G1X6503Y10636D2*
G1X6503Y10449D1*
G1X6494Y10636D2*
G1X6494Y10445D1*
G1X6485Y10636D2*
G1X6485Y10442D1*
G1X6476Y10636D2*
G1X6476Y10437D1*
G1X6467Y10636D2*
G1X6467Y10432D1*
G1X6458Y10636D2*
G1X6458Y10427D1*
G1X7391Y9104D2*
G1X6316Y9104D1*
G1X4144Y8618D2*
G1X3254Y8618D1*
G1X7391Y8114D2*
G1X5305Y8114D1*
G1X5216Y9041D2*
G1X3254Y9041D1*
G1X6440Y8755D2*
G1X6440Y7934D1*
G1X6431Y8726D2*
G1X6431Y7934D1*
G1X6422Y8706D2*
G1X6422Y7934D1*
G1X6413Y8690D2*
G1X6413Y7934D1*
G1X6404Y8676D2*
G1X6404Y7934D1*
G1X6395Y8665D2*
G1X6395Y7934D1*
G1X6386Y8654D2*
G1X6386Y7934D1*
G1X6377Y8645D2*
G1X6377Y7934D1*
G1X6368Y8637D2*
G1X6368Y7934D1*
G1X6359Y8629D2*
G1X6359Y7934D1*
G1X6350Y8623D2*
G1X6350Y7934D1*
G1X5017Y10094D2*
G1X4624Y10094D1*
G1X6332Y8611D2*
G1X6332Y7951D1*
G1X6323Y8607D2*
G1X6323Y7978D1*
G1X6314Y8602D2*
G1X6314Y7997D1*
G1X6305Y8598D2*
G1X6305Y8012D1*
G1X6296Y8595D2*
G1X6296Y8025D1*
G1X6287Y8592D2*
G1X6287Y8036D1*
G1X6278Y8589D2*
G1X6278Y8045D1*
G1X6269Y8587D2*
G1X6269Y8053D1*
G1X6260Y8585D2*
G1X6260Y8061D1*
G1X6251Y8584D2*
G1X6251Y8067D1*
G1X6242Y8583D2*
G1X6242Y8073D1*
G1X6233Y8582D2*
G1X6233Y8078D1*
G1X6224Y8582D2*
G1X6224Y8083D1*
G1X6215Y8582D2*
G1X6215Y8087D1*
G1X6206Y8582D2*
G1X6206Y8090D1*
G1X6197Y8582D2*
G1X6197Y8093D1*
G1X6188Y8582D2*
G1X6188Y8096D1*
G1X6179Y8582D2*
G1X6179Y8098D1*
G1X6170Y8582D2*
G1X6170Y8100D1*
G1X6161Y8582D2*
G1X6161Y8101D1*
G1X6152Y8582D2*
G1X6152Y8102D1*
G1X6143Y8582D2*
G1X6143Y8102D1*
G1X6134Y8582D2*
G1X6134Y8102D1*
G1X6125Y8582D2*
G1X6125Y8102D1*
G1X6116Y8582D2*
G1X6116Y8101D1*
G1X6107Y8582D2*
G1X6107Y8100D1*
G1X6098Y8582D2*
G1X6098Y8098D1*
G1X6089Y8582D2*
G1X6089Y8096D1*
G1X6080Y8582D2*
G1X6080Y8094D1*
G1X6071Y8582D2*
G1X6071Y8091D1*
G1X6062Y8582D2*
G1X6062Y8087D1*
G1X6053Y8582D2*
G1X6053Y8083D1*
G1X6044Y8582D2*
G1X6044Y8079D1*
G1X6035Y8582D2*
G1X6035Y8074D1*
G1X6026Y8582D2*
G1X6026Y8068D1*
G1X6017Y8582D2*
G1X6017Y8061D1*
G1X6008Y8582D2*
G1X6008Y8054D1*
G1X5999Y8582D2*
G1X5999Y8046D1*
G1X5990Y8582D2*
G1X5990Y8037D1*
G1X5981Y8582D2*
G1X5981Y8026D1*
G1X5972Y8582D2*
G1X5972Y8014D1*
G1X5963Y8582D2*
G1X5963Y7999D1*
G1X5954Y8582D2*
G1X5954Y7981D1*
G1X7391Y8024D2*
G1X6297Y8024D1*
G1X5936Y8582D2*
G1X5936Y7934D1*
G1X5927Y8582D2*
G1X5927Y7934D1*
G1X5918Y8582D2*
G1X5918Y7934D1*
G1X5909Y8582D2*
G1X5909Y7934D1*
G1X5900Y8582D2*
G1X5900Y7934D1*
G1X5891Y8582D2*
G1X5891Y7934D1*
G1X5882Y8582D2*
G1X5882Y7934D1*
G1X5873Y8582D2*
G1X5873Y7934D1*
G1X5864Y8582D2*
G1X5864Y7934D1*
G1X5855Y8582D2*
G1X5855Y7934D1*
G1X5846Y8582D2*
G1X5846Y7934D1*
G1X5837Y8582D2*
G1X5837Y7934D1*
G1X5828Y8582D2*
G1X5828Y7934D1*
G1X5819Y8582D2*
G1X5819Y7934D1*
G1X5810Y8582D2*
G1X5810Y7934D1*
G1X5801Y8582D2*
G1X5801Y7934D1*
G1X5792Y8582D2*
G1X5792Y7934D1*
G1X5783Y8582D2*
G1X5783Y7934D1*
G1X5774Y8582D2*
G1X5774Y7934D1*
G1X5765Y8582D2*
G1X5765Y7934D1*
G1X5756Y8582D2*
G1X5756Y7934D1*
G1X5747Y8582D2*
G1X5747Y7934D1*
G1X5738Y8582D2*
G1X5738Y7934D1*
G1X5729Y8582D2*
G1X5729Y7934D1*
G1X5720Y8582D2*
G1X5720Y7934D1*
G1X5711Y8583D2*
G1X5711Y7934D1*
G1X5702Y8584D2*
G1X5702Y7934D1*
G1X5693Y8586D2*
G1X5693Y7934D1*
G1X5684Y8588D2*
G1X5684Y7934D1*
G1X5675Y8590D2*
G1X5675Y7934D1*
G1X5666Y8593D2*
G1X5666Y7934D1*
G1X5657Y8596D2*
G1X5657Y7934D1*
G1X5648Y8599D2*
G1X5648Y7934D1*
G1X5639Y8603D2*
G1X5639Y7934D1*
G1X5630Y8608D2*
G1X5630Y7934D1*
G1X5621Y8613D2*
G1X5621Y7934D1*
G1X5612Y8618D2*
G1X5612Y7934D1*
G1X5603Y8624D2*
G1X5603Y7934D1*
G1X5594Y8631D2*
G1X5594Y7934D1*
G1X5585Y8639D2*
G1X5585Y7934D1*
G1X5576Y8647D2*
G1X5576Y7934D1*
G1X5567Y8657D2*
G1X5567Y7934D1*
G1X5558Y8667D2*
G1X5558Y7934D1*
G1X5540Y8694D2*
G1X5540Y7934D1*
G1X5522Y10135D2*
G1X5522Y10034D1*
G1X3902Y10636D2*
G1X3902Y10404D1*
G1X5495Y10636D2*
G1X5495Y10385D1*
G1X5486Y10636D2*
G1X5486Y10385D1*
G1X4042Y8834D2*
G1X3254Y8834D1*
G1X6872Y10636D2*
G1X6872Y10385D1*
G1X5468Y8306D2*
G1X5468Y7934D1*
G1X6872Y10135D2*
G1X6872Y7934D1*
G1X3992Y10174D2*
G1X3992Y7934D1*
G1X6719Y10636D2*
G1X6719Y10392D1*
G1X5432Y8206D2*
G1X5432Y7934D1*
G1X6719Y10128D2*
G1X6719Y7934D1*
G1X5414Y8183D2*
G1X5414Y7934D1*
G1X6710Y10636D2*
G1X6710Y10401D1*
G1X5396Y8164D2*
G1X5396Y7934D1*
G1X6710Y10118D2*
G1X6710Y7934D1*
G1X5378Y8149D2*
G1X5378Y7934D1*
G1X6701Y10636D2*
G1X6701Y10410D1*
G1X5360Y8137D2*
G1X5360Y7934D1*
G1X6701Y10110D2*
G1X6701Y7934D1*
G1X5342Y8128D2*
G1X5342Y7934D1*
G1X6692Y10636D2*
G1X6692Y10417D1*
G1X5324Y8120D2*
G1X5324Y7934D1*
G1X6692Y10102D2*
G1X6692Y7934D1*
G1X5306Y8114D2*
G1X5306Y7934D1*
G1X6683Y10636D2*
G1X6683Y10424D1*
G1X5288Y8109D2*
G1X5288Y7934D1*
G1X6683Y10096D2*
G1X6683Y7934D1*
G1X5270Y8106D2*
G1X5270Y7934D1*
G1X6674Y10636D2*
G1X6674Y10430D1*
G1X5252Y8105D2*
G1X5252Y7934D1*
G1X6674Y10090D2*
G1X6674Y7934D1*
G1X5234Y8105D2*
G1X5234Y7934D1*
G1X7391Y10031D2*
G1X5469Y10031D1*
G1X5216Y8107D2*
G1X5216Y7934D1*
G1X5207Y8108D2*
G1X5207Y7934D1*
G1X5198Y8110D2*
G1X5198Y7934D1*
G1X5189Y8112D2*
G1X5189Y7934D1*
G1X5180Y8114D2*
G1X5180Y7934D1*
G1X5171Y8117D2*
G1X5171Y7934D1*
G1X5162Y8120D2*
G1X5162Y7934D1*
G1X5153Y8124D2*
G1X5153Y7934D1*
G1X5144Y8128D2*
G1X5144Y7934D1*
G1X5135Y8133D2*
G1X5135Y7934D1*
G1X5126Y8138D2*
G1X5126Y7934D1*
G1X5117Y8144D2*
G1X5117Y7934D1*
G1X5108Y8150D2*
G1X5108Y7934D1*
G1X5099Y8157D2*
G1X5099Y7934D1*
G1X5090Y8165D2*
G1X5090Y7934D1*
G1X5081Y8174D2*
G1X5081Y7934D1*
G1X5072Y8184D2*
G1X5072Y7934D1*
G1X5063Y8195D2*
G1X5063Y7934D1*
G1X5054Y8208D2*
G1X5054Y7934D1*
G1X5045Y8223D2*
G1X5045Y7934D1*
G1X5036Y8241D2*
G1X5036Y7934D1*
G1X7391Y8465D2*
G1X5469Y8465D1*
G1X5009Y10636D2*
G1X5009Y7934D1*
G1X5000Y10636D2*
G1X5000Y7934D1*
G1X4991Y10636D2*
G1X4991Y7934D1*
G1X4179Y8600D2*
G1X3254Y8600D1*
G1X6899Y10135D2*
G1X6899Y7934D1*
G1X4973Y8761D2*
G1X4973Y7934D1*
G1X4058Y9896D2*
G1X3254Y9896D1*
G1X4955Y8709D2*
G1X4955Y7934D1*
G1X4001Y10636D2*
G1X4001Y10404D1*
G1X4937Y8678D2*
G1X4937Y7934D1*
G1X4054Y9887D2*
G1X3254Y9887D1*
G1X4919Y8656D2*
G1X4919Y7934D1*
G1X6890Y10636D2*
G1X6890Y10385D1*
G1X4901Y8638D2*
G1X4901Y7934D1*
G1X4051Y9878D2*
G1X3254Y9878D1*
G1X4883Y8624D2*
G1X4883Y7934D1*
G1X4874Y8618D2*
G1X4874Y7934D1*
G1X4865Y8612D2*
G1X4865Y7934D1*
G1X4049Y9869D2*
G1X3254Y9869D1*
G1X4847Y8603D2*
G1X4847Y7934D1*
G1X6890Y10135D2*
G1X6890Y7934D1*
G1X4829Y8595D2*
G1X4829Y7934D1*
G1X4046Y9860D2*
G1X3254Y9860D1*
G1X4811Y8590D2*
G1X4811Y7934D1*
G1X4001Y10174D2*
G1X4001Y7934D1*
G1X4793Y8586D2*
G1X4793Y7934D1*
G1X4044Y9851D2*
G1X3254Y9851D1*
G1X4775Y8583D2*
G1X4775Y7934D1*
G1X6881Y10636D2*
G1X6881Y10385D1*
G1X4757Y8582D2*
G1X4757Y7934D1*
G1X4043Y9842D2*
G1X3254Y9842D1*
G1X4739Y8582D2*
G1X4739Y7934D1*
G1X4730Y8582D2*
G1X4730Y7934D1*
G1X4721Y8582D2*
G1X4721Y7934D1*
G1X4042Y9833D2*
G1X3254Y9833D1*
G1X4703Y8582D2*
G1X4703Y7934D1*
G1X6881Y10135D2*
G1X6881Y7934D1*
G1X4685Y8582D2*
G1X4685Y7934D1*
G1X4041Y9824D2*
G1X3254Y9824D1*
G1X4667Y8582D2*
G1X4667Y7934D1*
G1X3992Y10636D2*
G1X3992Y10404D1*
G1X4649Y8582D2*
G1X4649Y7934D1*
G1X4040Y9815D2*
G1X3254Y9815D1*
G1X7391Y9032D2*
G1X6252Y9032D1*
G1X7391Y8996D2*
G1X6346Y8996D1*
G1X7391Y8960D2*
G1X6387Y8960D1*
G1X6647Y10076D2*
G1X6647Y7934D1*
G1X5891Y10636D2*
G1X5891Y10385D1*
G1X5819Y10636D2*
G1X5819Y10385D1*
G1X5756Y10636D2*
G1X5756Y10385D1*
G1X5477Y10135D2*
G1X5477Y7934D1*
G1X4559Y8582D2*
G1X4559Y7934D1*
G1X4550Y8582D2*
G1X4550Y7934D1*
G1X4044Y9770D2*
G1X3254Y9770D1*
G1X4532Y8582D2*
G1X4532Y7934D1*
G1X4523Y8582D2*
G1X4523Y7934D1*
G1X4982Y10636D2*
G1X4982Y7934D1*
G1X4045Y9761D2*
G1X3254Y9761D1*
G1X4496Y8582D2*
G1X4496Y7934D1*
G1X4487Y8582D2*
G1X4487Y7934D1*
G1X4478Y8582D2*
G1X4478Y7934D1*
G1X4047Y9752D2*
G1X3254Y9752D1*
G1X4460Y8582D2*
G1X4460Y7934D1*
G1X4451Y8582D2*
G1X4451Y7934D1*
G1X4442Y8582D2*
G1X4442Y7934D1*
G1X4050Y9743D2*
G1X3254Y9743D1*
G1X4424Y8582D2*
G1X4424Y7934D1*
G1X4394Y10085D2*
G1X3254Y10085D1*
G1X4406Y8582D2*
G1X4406Y7934D1*
G1X4053Y9734D2*
G1X3254Y9734D1*
G1X4388Y8582D2*
G1X4388Y7934D1*
G1X4379Y8582D2*
G1X4379Y7934D1*
G1X4370Y8582D2*
G1X4370Y7934D1*
G1X4056Y9725D2*
G1X3254Y9725D1*
G1X4352Y8582D2*
G1X4352Y7934D1*
G1X4343Y8582D2*
G1X4343Y7934D1*
G1X4334Y8582D2*
G1X4334Y7934D1*
G1X4060Y9716D2*
G1X3254Y9716D1*
G1X4316Y8582D2*
G1X4316Y7934D1*
G1X4307Y8582D2*
G1X4307Y7934D1*
G1X4298Y8582D2*
G1X4298Y7934D1*
G1X4064Y9707D2*
G1X3254Y9707D1*
G1X4280Y8582D2*
G1X4280Y7934D1*
G1X4271Y8582D2*
G1X4271Y7934D1*
G1X4040Y9302D2*
G1X3254Y9302D1*
G1X4253Y8582D2*
G1X4253Y7934D1*
G1X4041Y9293D2*
G1X3254Y9293D1*
G1X4235Y8584D2*
G1X4235Y7934D1*
G1X4042Y9284D2*
G1X3254Y9284D1*
G1X4217Y8587D2*
G1X4217Y7934D1*
G1X4043Y9275D2*
G1X3254Y9275D1*
G1X4199Y8592D2*
G1X4199Y7934D1*
G1X4044Y9266D2*
G1X3254Y9266D1*
G1X4181Y8599D2*
G1X4181Y7934D1*
G1X4046Y9257D2*
G1X3254Y9257D1*
G1X4163Y8607D2*
G1X4163Y7934D1*
G1X4048Y9248D2*
G1X3254Y9248D1*
G1X4145Y8617D2*
G1X4145Y7934D1*
G1X4051Y9239D2*
G1X3254Y9239D1*
G1X4127Y8630D2*
G1X4127Y7934D1*
G1X4054Y9230D2*
G1X3254Y9230D1*
G1X4109Y8646D2*
G1X4109Y7934D1*
G1X4058Y9221D2*
G1X3254Y9221D1*
G1X4091Y8666D2*
G1X4091Y7934D1*
G1X4062Y9212D2*
G1X3254Y9212D1*
G1X4073Y8691D2*
G1X4073Y7934D1*
G1X4066Y9203D2*
G1X3254Y9203D1*
G1X4046Y10174D2*
G1X4046Y9857D1*
G1X4037Y10636D2*
G1X4037Y10404D1*
G1X4028Y10636D2*
G1X4028Y10404D1*
G1X4019Y10636D2*
G1X4019Y10404D1*
G1X4010Y10636D2*
G1X4010Y10404D1*
G1X4802Y8588D2*
G1X4802Y7934D1*
G1X5450Y8239D2*
G1X5450Y7934D1*
G1X5855Y10636D2*
G1X5855Y10385D1*
G1X5693Y10636D2*
G1X5693Y10385D1*
G1X6620Y10636D2*
G1X6620Y10453D1*
G1X6593Y10636D2*
G1X6593Y10458D1*
G1X3947Y10636D2*
G1X3947Y10404D1*
G1X3938Y10636D2*
G1X3938Y10404D1*
G1X6863Y10135D2*
G1X6863Y7934D1*
G1X6854Y10636D2*
G1X6854Y10385D1*
G1X5549Y10636D2*
G1X5549Y10385D1*
G1X7391Y10013D2*
G1X6446Y10013D1*
G1X7391Y9977D2*
G1X6446Y9977D1*
G1X7391Y9941D2*
G1X6446Y9941D1*
G1X7391Y9905D2*
G1X6446Y9905D1*
G1X3866Y10636D2*
G1X3866Y10404D1*
G1X3857Y10636D2*
G1X3857Y10404D1*
G1X3848Y10636D2*
G1X3848Y10404D1*
G1X3839Y10636D2*
G1X3839Y10404D1*
G1X3830Y10636D2*
G1X3830Y10404D1*
G1X3821Y10636D2*
G1X3821Y10404D1*
G1X3812Y10636D2*
G1X3812Y10404D1*
G1X3803Y10636D2*
G1X3803Y10404D1*
G1X3794Y10636D2*
G1X3794Y10404D1*
G1X3785Y10636D2*
G1X3785Y10404D1*
G1X3776Y10636D2*
G1X3776Y10404D1*
G1X3767Y10636D2*
G1X3767Y10404D1*
G1X3758Y10636D2*
G1X3758Y10404D1*
G1X3749Y10636D2*
G1X3749Y10404D1*
G1X3740Y10636D2*
G1X3740Y10404D1*
G1X3731Y10636D2*
G1X3731Y10404D1*
G1X3722Y10636D2*
G1X3722Y10404D1*
G1X3713Y10636D2*
G1X3713Y10404D1*
G1X4307Y10174D2*
G1X3700Y10174D1*
G1X3695Y10636D2*
G1X3695Y10474D1*
G1X3686Y10636D2*
G1X3686Y10474D1*
G1X3677Y10636D2*
G1X3677Y10474D1*
G1X3668Y10636D2*
G1X3668Y10474D1*
G1X3659Y10636D2*
G1X3659Y10474D1*
G1X3650Y10636D2*
G1X3650Y10474D1*
G1X3641Y10636D2*
G1X3641Y10474D1*
G1X3632Y10636D2*
G1X3632Y10474D1*
G1X3623Y10636D2*
G1X3623Y10474D1*
G1X3614Y10636D2*
G1X3614Y10474D1*
G1X3605Y10636D2*
G1X3605Y10474D1*
G1X3596Y10636D2*
G1X3596Y10474D1*
G1X3587Y10636D2*
G1X3587Y10474D1*
G1X3578Y10636D2*
G1X3578Y10474D1*
G1X3569Y10636D2*
G1X3569Y10474D1*
G1X3560Y10636D2*
G1X3560Y10474D1*
G1X3551Y10636D2*
G1X3551Y10474D1*
G1X3542Y10636D2*
G1X3542Y10474D1*
G1X3533Y10636D2*
G1X3533Y10474D1*
G1X3524Y10636D2*
G1X3524Y10474D1*
G1X3515Y10636D2*
G1X3515Y10474D1*
G1X3506Y10636D2*
G1X3506Y10474D1*
G1X3497Y10636D2*
G1X3497Y10474D1*
G1X3488Y10636D2*
G1X3488Y10474D1*
G1X3479Y10636D2*
G1X3479Y10474D1*
G1X3470Y10636D2*
G1X3470Y10474D1*
G1X3461Y10636D2*
G1X3461Y10474D1*
G1X3452Y10636D2*
G1X3452Y10474D1*
G1X3443Y10636D2*
G1X3443Y10474D1*
G1X3434Y10636D2*
G1X3434Y10474D1*
G1X3425Y10636D2*
G1X3425Y10474D1*
G1X3416Y10636D2*
G1X3416Y10474D1*
G1X3407Y10636D2*
G1X3407Y10474D1*
G1X3398Y10636D2*
G1X3398Y10474D1*
G1X3389Y10636D2*
G1X3389Y10474D1*
G1X3380Y10636D2*
G1X3380Y10474D1*
G1X3371Y10636D2*
G1X3371Y10474D1*
G1X3362Y10636D2*
G1X3362Y10474D1*
G1X3353Y10636D2*
G1X3353Y10474D1*
G1X3330Y10292D2*
G1X3254Y10292D1*
G1X3335Y10636D2*
G1X3335Y7934D1*
G1X3326Y10636D2*
G1X3326Y7934D1*
G1X3317Y10636D2*
G1X3317Y7934D1*
G1X3308Y10636D2*
G1X3308Y7934D1*
G1X3299Y10636D2*
G1X3299Y7934D1*
G1X3290Y10636D2*
G1X3290Y7934D1*
G1X3281Y10636D2*
G1X3281Y7934D1*
G1X3272Y10636D2*
G1X3272Y7934D1*
G1X7391Y10625D2*
G1X3254Y10625D1*
G1X7391Y10616D2*
G1X3254Y10616D1*
G1X7391Y10607D2*
G1X3254Y10607D1*
G1X7391Y10598D2*
G1X3254Y10598D1*
G1X7391Y10589D2*
G1X3254Y10589D1*
G1X7391Y10580D2*
G1X3254Y10580D1*
G1X7391Y10571D2*
G1X3254Y10571D1*
G1X7391Y10562D2*
G1X3254Y10562D1*
G1X7391Y10553D2*
G1X3254Y10553D1*
G1X7391Y10544D2*
G1X3254Y10544D1*
G1X7391Y10535D2*
G1X3254Y10535D1*
G1X7391Y10526D2*
G1X3254Y10526D1*
G1X4199Y10636D2*
G1X4199Y10404D1*
G1X7391Y10292D2*
G1X7273Y10292D1*
G1X7391Y10274D2*
G1X7273Y10274D1*
G1X7391Y10256D2*
G1X7273Y10256D1*
G1X4307Y10175D2*
G1X3700Y10175D1*
G1X4388Y10472D2*
G1X3254Y10472D1*
G1X3704Y10174D2*
G1X3704Y7934D1*
G1X3330Y10463D2*
G1X3254Y10463D1*
G1X4394Y10076D2*
G1X3254Y10076D1*
G1X3330Y10445D2*
G1X3254Y10445D1*
G1X3330Y10436D2*
G1X3254Y10436D1*
G1X3330Y10427D2*
G1X3254Y10427D1*
G1X7391Y10229D2*
G1X7273Y10229D1*
G1X4394Y10067D2*
G1X3254Y10067D1*
G1X7391Y10220D2*
G1X7273Y10220D1*
G1X3330Y10391D2*
G1X3254Y10391D1*
G1X7391Y10211D2*
G1X7273Y10211D1*
G1X3330Y10373D2*
G1X3254Y10373D1*
G1X7391Y10202D2*
G1X7273Y10202D1*
G1X3330Y10355D2*
G1X3254Y10355D1*
G1X7391Y10193D2*
G1X7273Y10193D1*
G1X4394Y10058D2*
G1X3254Y10058D1*
G1X7391Y10184D2*
G1X7273Y10184D1*
G1X3330Y10319D2*
G1X3254Y10319D1*
G1X7391Y10175D2*
G1X7273Y10175D1*
G1X3330Y10301D2*
G1X3254Y10301D1*
G1X7391Y10166D2*
G1X7273Y10166D1*
G1X4394Y10040D2*
G1X3254Y10040D1*
G1X7391Y10157D2*
G1X7273Y10157D1*
G1X3330Y10265D2*
G1X3254Y10265D1*
G1X7391Y10148D2*
G1X7273Y10148D1*
G1X3330Y10247D2*
G1X3254Y10247D1*
G1X7391Y10139D2*
G1X7273Y10139D1*
G1X3330Y10229D2*
G1X3254Y10229D1*
G1X7391Y10130D2*
G1X7273Y10130D1*
G1X3330Y10211D2*
G1X3254Y10211D1*
G1X7391Y10121D2*
G1X7273Y10121D1*
G1X3330Y10193D2*
G1X3254Y10193D1*
G1X7391Y10112D2*
G1X7273Y10112D1*
G1X3330Y10175D2*
G1X3254Y10175D1*
G1X7391Y10103D2*
G1X7273Y10103D1*
G1X3330Y10157D2*
G1X3254Y10157D1*
G1X7391Y10094D2*
G1X7273Y10094D1*
G1X3330Y10139D2*
G1X3254Y10139D1*
G1X7391Y10085D2*
G1X7273Y10085D1*
G1X4350Y10130D2*
G1X3700Y10130D1*
G1X4363Y10121D2*
G1X3700Y10121D1*
G1X4379Y10112D2*
G1X3700Y10112D1*
G1X5017Y10103D2*
G1X4624Y10103D1*
G1X7391Y9869D2*
G1X6446Y9869D1*
G1X4415Y8582D2*
G1X4415Y7934D1*
G1X3330Y10409D2*
G1X3254Y10409D1*
G1X3330Y10337D2*
G1X3254Y10337D1*
G1X4046Y9759D2*
G1X4046Y9357D1*
G1X5549Y8680D2*
G1X5549Y7934D1*
G1X4199Y9592D2*
G1X4199Y9524D1*
G1X5045Y10636D2*
G1X5045Y10393D1*
G1X4193Y10022D2*
G1X3254Y10022D1*
G1X5036Y10636D2*
G1X5036Y10375D1*
G1X4153Y10004D2*
G1X3254Y10004D1*
G1X5027Y10636D2*
G1X5027Y10350D1*
G1X4127Y9986D2*
G1X3254Y9986D1*
G1X5018Y10636D2*
G1X5018Y10302D1*
G1X4106Y9968D2*
G1X3254Y9968D1*
G1X5954Y10636D2*
G1X5954Y10385D1*
G1X4090Y9950D2*
G1X3254Y9950D1*
G1X6908Y10636D2*
G1X6908Y10385D1*
G1X6908Y10135D2*
G1X6908Y7934D1*
G1X6899Y10636D2*
G1X6899Y10385D1*
G1X4066Y9914D2*
G1X3254Y9914D1*
G1X4964Y8730D2*
G1X4964Y7934D1*
G1X4928Y8666D2*
G1X4928Y7934D1*
G1X4892Y8631D2*
G1X4892Y7934D1*
G1X4856Y8607D2*
G1X4856Y7934D1*
G1X4820Y8592D2*
G1X4820Y7934D1*
G1X4784Y8584D2*
G1X4784Y7934D1*
G1X4748Y8582D2*
G1X4748Y7934D1*
G1X4712Y8582D2*
G1X4712Y7934D1*
G1X4676Y8582D2*
G1X4676Y7934D1*
G1X7391Y9878D2*
G1X6446Y9878D1*
G1X7391Y9860D2*
G1X6446Y9860D1*
G1X7391Y9842D2*
G1X6446Y9842D1*
G1X7391Y9824D2*
G1X6446Y9824D1*
G1X7391Y9806D2*
G1X6446Y9806D1*
G1X4541Y8582D2*
G1X4541Y7934D1*
G1X4505Y8582D2*
G1X4505Y7934D1*
G1X4469Y8582D2*
G1X4469Y7934D1*
G1X4433Y8582D2*
G1X4433Y7934D1*
G1X4397Y8582D2*
G1X4397Y7934D1*
G1X4361Y8582D2*
G1X4361Y7934D1*
G1X4325Y8582D2*
G1X4325Y7934D1*
G1X4289Y8582D2*
G1X4289Y7934D1*
G1X7391Y10058D2*
G1X7273Y10058D1*
G1X7391Y9788D2*
G1X6446Y9788D1*
G1X7391Y9770D2*
G1X6446Y9770D1*
G1X7391Y9752D2*
G1X6446Y9752D1*
G1X7391Y9734D2*
G1X6446Y9734D1*
G1X7391Y9716D2*
G1X6446Y9716D1*
G1X7391Y9698D2*
G1X6446Y9698D1*
G1X7391Y9680D2*
G1X6446Y9680D1*
G1X7391Y9662D2*
G1X6446Y9662D1*
G1X7391Y9644D2*
G1X6446Y9644D1*
G1X7391Y9626D2*
G1X6446Y9626D1*
G1X5159Y9590D2*
G1X4810Y9590D1*
G1X5187Y9581D2*
G1X3254Y9581D1*
G1X7391Y9572D2*
G1X3254Y9572D1*
G1X7391Y9563D2*
G1X3254Y9563D1*
G1X7391Y9554D2*
G1X3254Y9554D1*
G1X7391Y9545D2*
G1X3254Y9545D1*
G1X5531Y8711D2*
G1X5531Y7934D1*
G1X4568Y9082D2*
G1X4568Y9034D1*
G1X4077Y9932D2*
G1X3254Y9932D1*
G1X4209Y9527D2*
G1X3254Y9527D1*
G1X4182Y9518D2*
G1X3254Y9518D1*
G1X4162Y9509D2*
G1X3254Y9509D1*
G1X4147Y9500D2*
G1X3254Y9500D1*
G1X4133Y9491D2*
G1X3254Y9491D1*
G1X4122Y9482D2*
G1X3254Y9482D1*
G1X4111Y9473D2*
G1X3254Y9473D1*
G1X4102Y9464D2*
G1X3254Y9464D1*
G1X4094Y9455D2*
G1X3254Y9455D1*
G1X4087Y9446D2*
G1X3254Y9446D1*
G1X4080Y9437D2*
G1X3254Y9437D1*
G1X4075Y9428D2*
G1X3254Y9428D1*
G1X4069Y9419D2*
G1X3254Y9419D1*
G1X4064Y9410D2*
G1X3254Y9410D1*
G1X4060Y9401D2*
G1X3254Y9401D1*
G1X4056Y9392D2*
G1X3254Y9392D1*
G1X4053Y9383D2*
G1X3254Y9383D1*
G1X4050Y9374D2*
G1X3254Y9374D1*
G1X4047Y9365D2*
G1X3254Y9365D1*
G1X4045Y9356D2*
G1X3254Y9356D1*
G1X4044Y9347D2*
G1X3254Y9347D1*
G1X4042Y9338D2*
G1X3254Y9338D1*
G1X4041Y9329D2*
G1X3254Y9329D1*
G1X4046Y9259D2*
G1X4046Y8857D1*
G1X4262Y8582D2*
G1X4262Y7934D1*
G1X4244Y8583D2*
G1X4244Y7934D1*
G1X4226Y8586D2*
G1X4226Y7934D1*
G1X4208Y8590D2*
G1X4208Y7934D1*
G1X4190Y8595D2*
G1X4190Y7934D1*
G1X4172Y8603D2*
G1X4172Y7934D1*
G1X4154Y8612D2*
G1X4154Y7934D1*
G1X4136Y8624D2*
G1X4136Y7934D1*
G1X4118Y8638D2*
G1X4118Y7934D1*
G1X4100Y8655D2*
G1X4100Y7934D1*
G1X4082Y8678D2*
G1X4082Y7934D1*
G1X4064Y8708D2*
G1X4064Y7934D1*
G1X7391Y9302D2*
G1X6446Y9302D1*
G1X7391Y9284D2*
G1X6445Y9284D1*
G1X7391Y9266D2*
G1X6442Y9266D1*
G1X7391Y9248D2*
G1X6438Y9248D1*
G1X7391Y9230D2*
G1X6432Y9230D1*
G1X7391Y9212D2*
G1X6424Y9212D1*
G1X7391Y9194D2*
G1X6415Y9194D1*
G1X7391Y9176D2*
G1X6403Y9176D1*
G1X7391Y9158D2*
G1X6389Y9158D1*
G1X7391Y9140D2*
G1X6371Y9140D1*
G1X7391Y9122D2*
G1X6348Y9122D1*
G1X4226Y9086D2*
G1X3254Y9086D1*
G1X7391Y9077D2*
G1X3254Y9077D1*
G1X7391Y9068D2*
G1X3254Y9068D1*
G1X7391Y9059D2*
G1X3254Y9059D1*
G1X5027Y8266D2*
G1X5027Y7934D1*
G1X5522Y8732D2*
G1X5522Y7934D1*
G1X4055Y8729D2*
G1X4055Y7934D1*
G1X7391Y9086D2*
G1X6260Y9086D1*
G1X4062Y9905D2*
G1X3254Y9905D1*
G1X4234Y9032D2*
G1X3254Y9032D1*
G1X4196Y9023D2*
G1X3254Y9023D1*
G1X4173Y9014D2*
G1X3254Y9014D1*
G1X4155Y9005D2*
G1X3254Y9005D1*
G1X4140Y8996D2*
G1X3254Y8996D1*
G1X4128Y8987D2*
G1X3254Y8987D1*
G1X4117Y8978D2*
G1X3254Y8978D1*
G1X4107Y8969D2*
G1X3254Y8969D1*
G1X4099Y8960D2*
G1X3254Y8960D1*
G1X4091Y8951D2*
G1X3254Y8951D1*
G1X4084Y8942D2*
G1X3254Y8942D1*
G1X4078Y8933D2*
G1X3254Y8933D1*
G1X4072Y8924D2*
G1X3254Y8924D1*
G1X4067Y8915D2*
G1X3254Y8915D1*
G1X4062Y8906D2*
G1X3254Y8906D1*
G1X4058Y8897D2*
G1X3254Y8897D1*
G1X4055Y8888D2*
G1X3254Y8888D1*
G1X4052Y8879D2*
G1X3254Y8879D1*
G1X4049Y8870D2*
G1X3254Y8870D1*
G1X4046Y8861D2*
G1X3254Y8861D1*
G1X4045Y8852D2*
G1X3254Y8852D1*
G1X4043Y8843D2*
G1X3254Y8843D1*
G1X7391Y9041D2*
G1X5270Y9041D1*
G1X4041Y8825D2*
G1X3254Y8825D1*
G1X4040Y8816D2*
G1X3254Y8816D1*
G1X4040Y8807D2*
G1X3254Y8807D1*
G1X4040Y8798D2*
G1X3254Y8798D1*
G1X4041Y8789D2*
G1X3254Y8789D1*
G1X4042Y8780D2*
G1X3254Y8780D1*
G1X4043Y8771D2*
G1X3254Y8771D1*
G1X4045Y8762D2*
G1X3254Y8762D1*
G1X4047Y8753D2*
G1X3254Y8753D1*
G1X4050Y8744D2*
G1X3254Y8744D1*
G1X4052Y8735D2*
G1X3254Y8735D1*
G1X4056Y8726D2*
G1X3254Y8726D1*
G1X4060Y8717D2*
G1X3254Y8717D1*
G1X4064Y8708D2*
G1X3254Y8708D1*
G1X4068Y8699D2*
G1X3254Y8699D1*
G1X4074Y8690D2*
G1X3254Y8690D1*
G1X4080Y8681D2*
G1X3254Y8681D1*
G1X4086Y8672D2*
G1X3254Y8672D1*
G1X4093Y8663D2*
G1X3254Y8663D1*
G1X4101Y8654D2*
G1X3254Y8654D1*
G1X4110Y8645D2*
G1X3254Y8645D1*
G1X4120Y8636D2*
G1X3254Y8636D1*
G1X4131Y8627D2*
G1X3254Y8627D1*
G1X4160Y8609D2*
G1X3254Y8609D1*
G1X7391Y8582D2*
G1X5469Y8582D1*
G1X7391Y8573D2*
G1X5469Y8573D1*
G1X7391Y8564D2*
G1X5469Y8564D1*
G1X7391Y8555D2*
G1X5469Y8555D1*
G1X7391Y8546D2*
G1X5469Y8546D1*
G1X7391Y8537D2*
G1X5469Y8537D1*
G1X7391Y8528D2*
G1X5469Y8528D1*
G1X7391Y8519D2*
G1X5469Y8519D1*
G1X7391Y8510D2*
G1X5469Y8510D1*
G1X7391Y8501D2*
G1X5469Y8501D1*
G1X7391Y8492D2*
G1X5469Y8492D1*
G1X7391Y8483D2*
G1X5469Y8483D1*
G1X7391Y8474D2*
G1X5469Y8474D1*
G1X7391Y9050D2*
G1X3254Y9050D1*
G1X7391Y8798D2*
G1X6446Y8798D1*
G1X7391Y8780D2*
G1X6444Y8780D1*
G1X7391Y8762D2*
G1X6441Y8762D1*
G1X7391Y8744D2*
G1X6437Y8744D1*
G1X7391Y8726D2*
G1X6430Y8726D1*
G1X7391Y8708D2*
G1X6422Y8708D1*
G1X7391Y8690D2*
G1X6412Y8690D1*
G1X7391Y8672D2*
G1X6400Y8672D1*
G1X7391Y8654D2*
G1X6385Y8654D1*
G1X7391Y8636D2*
G1X6366Y8636D1*
G1X7391Y8618D2*
G1X6342Y8618D1*
G1X7391Y8600D2*
G1X6308Y8600D1*
G1X7391Y8348D2*
G1X5469Y8348D1*
G1X7391Y8339D2*
G1X5469Y8339D1*
G1X7391Y8330D2*
G1X5469Y8330D1*
G1X7391Y8321D2*
G1X5469Y8321D1*
G1X7391Y8312D2*
G1X5468Y8312D1*
G1X7391Y8303D2*
G1X5467Y8303D1*
G1X7391Y8294D2*
G1X5466Y8294D1*
G1X7391Y8285D2*
G1X5464Y8285D1*
G1X7391Y8276D2*
G1X5462Y8276D1*
G1X7391Y8267D2*
G1X5460Y8267D1*
G1X7391Y8258D2*
G1X5457Y8258D1*
G1X7391Y8249D2*
G1X5453Y8249D1*
G1X7391Y8240D2*
G1X5450Y8240D1*
G1X7391Y8231D2*
G1X5445Y8231D1*
G1X7391Y8222D2*
G1X5441Y8222D1*
G1X7391Y8213D2*
G1X5435Y8213D1*
G1X7391Y8204D2*
G1X5430Y8204D1*
G1X7391Y8195D2*
G1X5423Y8195D1*
G1X7391Y8186D2*
G1X5416Y8186D1*
G1X7391Y8177D2*
G1X5408Y8177D1*
G1X7391Y8168D2*
G1X5399Y8168D1*
G1X7391Y8159D2*
G1X5389Y8159D1*
G1X7391Y8150D2*
G1X5378Y8150D1*
G1X7391Y8141D2*
G1X5365Y8141D1*
G1X7391Y8132D2*
G1X5349Y8132D1*
G1X7391Y8123D2*
G1X5331Y8123D1*
G1X5181Y8114D2*
G1X3254Y8114D1*
G1X5940Y7934D2*
G1X3254Y7934D1*
G1X7391Y8096D2*
G1X6189Y8096D1*
G1X7391Y8087D2*
G1X6215Y8087D1*
G1X7391Y8078D2*
G1X6234Y8078D1*
G1X7391Y8069D2*
G1X6249Y8069D1*
G1X7391Y8060D2*
G1X6261Y8060D1*
G1X7391Y8051D2*
G1X6272Y8051D1*
G1X7391Y8042D2*
G1X6281Y8042D1*
G1X7391Y8033D2*
G1X6289Y8033D1*
G1X3920Y10174D2*
G1X3920Y7934D1*
G1X7391Y8015D2*
G1X6303Y8015D1*
G1X7391Y8006D2*
G1X6309Y8006D1*
G1X7391Y7997D2*
G1X6314Y7997D1*
G1X7391Y7988D2*
G1X6318Y7988D1*
G1X7391Y7979D2*
G1X6322Y7979D1*
G1X7391Y7970D2*
G1X6326Y7970D1*
G1X7391Y7961D2*
G1X6329Y7961D1*
G1X7391Y7952D2*
G1X6331Y7952D1*
G1X3263Y10636D2*
G1X3263Y7934D1*
G1X6323Y9107D2*
G1X6323Y9009D1*
G1X6314Y9102D2*
G1X6314Y9014D1*
G1X6305Y9098D2*
G1X6305Y9017D1*
G1X6296Y9095D2*
G1X6296Y9021D1*
G1X6287Y9092D2*
G1X6287Y9024D1*
G1X6278Y9089D2*
G1X6278Y9026D1*
G1X6269Y9087D2*
G1X6269Y9029D1*
G1X6260Y9085D2*
G1X6260Y9030D1*
G1X6251Y9084D2*
G1X6251Y9032D1*
G1X6242Y9083D2*
G1X6242Y9033D1*
G1X6233Y9082D2*
G1X6233Y9034D1*
G1X6224Y9082D2*
G1X6224Y9034D1*
G1X6215Y9082D2*
G1X6215Y9034D1*
G1X6206Y9082D2*
G1X6206Y9034D1*
G1X6197Y9082D2*
G1X6197Y9034D1*
G1X6188Y9082D2*
G1X6188Y9034D1*
G1X6179Y9082D2*
G1X6179Y9034D1*
G1X6170Y9082D2*
G1X6170Y9034D1*
G1X6161Y9082D2*
G1X6161Y9034D1*
G1X6152Y9082D2*
G1X6152Y9034D1*
G1X6143Y9082D2*
G1X6143Y9034D1*
G1X6134Y9082D2*
G1X6134Y9034D1*
G1X6125Y9082D2*
G1X6125Y9034D1*
G1X6116Y9082D2*
G1X6116Y9034D1*
G1X6107Y9082D2*
G1X6107Y9034D1*
G1X6098Y9082D2*
G1X6098Y9034D1*
G1X6089Y9082D2*
G1X6089Y9034D1*
G1X6080Y9082D2*
G1X6080Y9034D1*
G1X6071Y9082D2*
G1X6071Y9034D1*
G1X6062Y9082D2*
G1X6062Y9034D1*
G1X6053Y9082D2*
G1X6053Y9034D1*
G1X6044Y9082D2*
G1X6044Y9034D1*
G1X6035Y9082D2*
G1X6035Y9034D1*
G1X6026Y9082D2*
G1X6026Y9034D1*
G1X6017Y9082D2*
G1X6017Y9034D1*
G1X6008Y9082D2*
G1X6008Y9034D1*
G1X5999Y9082D2*
G1X5999Y9034D1*
G1X5990Y9082D2*
G1X5990Y9034D1*
G1X5981Y9082D2*
G1X5981Y9034D1*
G1X5972Y9082D2*
G1X5972Y9034D1*
G1X5963Y9082D2*
G1X5963Y9034D1*
G1X5954Y9082D2*
G1X5954Y9034D1*
G1X5945Y9082D2*
G1X5945Y9034D1*
G1X5936Y9082D2*
G1X5936Y9034D1*
G1X5927Y9082D2*
G1X5927Y9034D1*
G1X5918Y9082D2*
G1X5918Y9034D1*
G1X5909Y9082D2*
G1X5909Y9034D1*
G1X5900Y9082D2*
G1X5900Y9034D1*
G1X5891Y9082D2*
G1X5891Y9034D1*
G1X5882Y9082D2*
G1X5882Y9034D1*
G1X5873Y9082D2*
G1X5873Y9034D1*
G1X5864Y9082D2*
G1X5864Y9034D1*
G1X5855Y9082D2*
G1X5855Y9034D1*
G1X5846Y9082D2*
G1X5846Y9034D1*
G1X5837Y9082D2*
G1X5837Y9034D1*
G1X5828Y9082D2*
G1X5828Y9034D1*
G1X5819Y9082D2*
G1X5819Y9034D1*
G1X5810Y9082D2*
G1X5810Y9034D1*
G1X5801Y9082D2*
G1X5801Y9034D1*
G1X5792Y9082D2*
G1X5792Y9034D1*
G1X5783Y9082D2*
G1X5783Y9034D1*
G1X5774Y9082D2*
G1X5774Y9034D1*
G1X5765Y9082D2*
G1X5765Y9034D1*
G1X5756Y9082D2*
G1X5756Y9034D1*
G1X5747Y9082D2*
G1X5747Y9034D1*
G1X5738Y9082D2*
G1X5738Y9034D1*
G1X5729Y9082D2*
G1X5729Y9034D1*
G1X5720Y9082D2*
G1X5720Y9033D1*
G1X5711Y9083D2*
G1X5711Y9033D1*
G1X5702Y9084D2*
G1X5702Y9031D1*
G1X5693Y9086D2*
G1X5693Y9030D1*
G1X5684Y9088D2*
G1X5684Y9028D1*
G1X5675Y9090D2*
G1X5675Y9026D1*
G1X5666Y9093D2*
G1X5666Y9023D1*
G1X5657Y9096D2*
G1X5657Y9020D1*
G1X5648Y9099D2*
G1X5648Y9016D1*
G1X5639Y9103D2*
G1X5639Y9013D1*
G1X5630Y9108D2*
G1X5630Y9008D1*
G1X5621Y9113D2*
G1X5621Y9003D1*
G1X5612Y9118D2*
G1X5612Y8998D1*
G1X5603Y9124D2*
G1X5603Y8991D1*
G1X5594Y9131D2*
G1X5594Y8985D1*
G1X5585Y9139D2*
G1X5585Y8977D1*
G1X5576Y9147D2*
G1X5576Y8969D1*
G1X5567Y9157D2*
G1X5567Y8959D1*
G1X5558Y9167D2*
G1X5558Y8948D1*
G1X5549Y9180D2*
G1X5549Y8936D1*
G1X5540Y9194D2*
G1X5540Y8922D1*
G1X5531Y9211D2*
G1X5531Y8905D1*
G1X5522Y9232D2*
G1X5522Y8883D1*
G1X5513Y9266D2*
G1X5513Y8850D1*
G1X5513Y8766D2*
G1X5513Y7934D1*
G1X4622Y8582D2*
G1X4622Y7934D1*
G1X7391Y9023D2*
G1X6291Y9023D1*
G1X3983Y10636D2*
G1X3983Y10404D1*
G1X7391Y9005D2*
G1X6331Y9005D1*
G1X4613Y8582D2*
G1X4613Y7934D1*
G1X7391Y8987D2*
G1X6358Y8987D1*
G1X7391Y8978D2*
G1X6369Y8978D1*
G1X7391Y8969D2*
G1X6379Y8969D1*
G1X4604Y8582D2*
G1X4604Y7934D1*
G1X7391Y8951D2*
G1X6395Y8951D1*
G1X7391Y8942D2*
G1X6402Y8942D1*
G1X6656Y10080D2*
G1X6656Y7934D1*
G1X6638Y10072D2*
G1X6638Y7934D1*
G1X5936Y10636D2*
G1X5936Y10385D1*
G1X5918Y10636D2*
G1X5918Y10385D1*
G1X5900Y10636D2*
G1X5900Y10385D1*
G1X5882Y10636D2*
G1X5882Y10385D1*
G1X5864Y10636D2*
G1X5864Y10385D1*
G1X5846Y10636D2*
G1X5846Y10385D1*
G1X5828Y10636D2*
G1X5828Y10385D1*
G1X5810Y10636D2*
G1X5810Y10385D1*
G1X5792Y10636D2*
G1X5792Y10385D1*
G1X5774Y10636D2*
G1X5774Y10385D1*
G1X5765Y10636D2*
G1X5765Y10385D1*
G1X5017Y8465D2*
G1X3254Y8465D1*
G1X7391Y8456D2*
G1X5469Y8456D1*
G1X5017Y8456D2*
G1X3254Y8456D1*
G1X7391Y8447D2*
G1X5469Y8447D1*
G1X5017Y8447D2*
G1X3254Y8447D1*
G1X7391Y8438D2*
G1X5469Y8438D1*
G1X5017Y8438D2*
G1X3254Y8438D1*
G1X7391Y8429D2*
G1X5469Y8429D1*
G1X5017Y8429D2*
G1X3254Y8429D1*
G1X7391Y8420D2*
G1X5469Y8420D1*
G1X5017Y8420D2*
G1X3254Y8420D1*
G1X7391Y8411D2*
G1X5469Y8411D1*
G1X5017Y8411D2*
G1X3254Y8411D1*
G1X7391Y8402D2*
G1X5469Y8402D1*
G1X5017Y8402D2*
G1X3254Y8402D1*
G1X7391Y8393D2*
G1X5469Y8393D1*
G1X5017Y8393D2*
G1X3254Y8393D1*
G1X7391Y8384D2*
G1X5469Y8384D1*
G1X5017Y8384D2*
G1X3254Y8384D1*
G1X7391Y8375D2*
G1X5469Y8375D1*
G1X5017Y8375D2*
G1X3254Y8375D1*
G1X7391Y8366D2*
G1X5469Y8366D1*
G1X5017Y8366D2*
G1X3254Y8366D1*
G1X7391Y8357D2*
G1X5469Y8357D1*
G1X5017Y8357D2*
G1X3254Y8357D1*
G1X6440Y9582D2*
G1X6440Y9361D1*
G1X6431Y9582D2*
G1X6431Y9390D1*
G1X6422Y9582D2*
G1X6422Y9410D1*
G1X6413Y9582D2*
G1X6413Y9426D1*
G1X6404Y9582D2*
G1X6404Y9440D1*
G1X6395Y9582D2*
G1X6395Y9451D1*
G1X6386Y9582D2*
G1X6386Y9462D1*
G1X6377Y9582D2*
G1X6377Y9471D1*
G1X6368Y9582D2*
G1X6368Y9479D1*
G1X6359Y9582D2*
G1X6359Y9486D1*
G1X6350Y9582D2*
G1X6350Y9493D1*
G1X6341Y9582D2*
G1X6341Y9499D1*
G1X6332Y9582D2*
G1X6332Y9504D1*
G1X6323Y9582D2*
G1X6323Y9509D1*
G1X6314Y9582D2*
G1X6314Y9514D1*
G1X6305Y9582D2*
G1X6305Y9517D1*
G1X6296Y9582D2*
G1X6296Y9521D1*
G1X6287Y9582D2*
G1X6287Y9524D1*
G1X6278Y9582D2*
G1X6278Y9526D1*
G1X6269Y9582D2*
G1X6269Y9529D1*
G1X6260Y9582D2*
G1X6260Y9530D1*
G1X6251Y9582D2*
G1X6251Y9532D1*
G1X6242Y9582D2*
G1X6242Y9533D1*
G1X6233Y9582D2*
G1X6233Y9534D1*
G1X6224Y9582D2*
G1X6224Y9534D1*
G1X6215Y9582D2*
G1X6215Y9534D1*
G1X6206Y9582D2*
G1X6206Y9534D1*
G1X6197Y9582D2*
G1X6197Y9534D1*
G1X6188Y9582D2*
G1X6188Y9534D1*
G1X6179Y9582D2*
G1X6179Y9534D1*
G1X6170Y9582D2*
G1X6170Y9534D1*
G1X6161Y9582D2*
G1X6161Y9534D1*
G1X6152Y9582D2*
G1X6152Y9534D1*
G1X6143Y9582D2*
G1X6143Y9534D1*
G1X6134Y9582D2*
G1X6134Y9534D1*
G1X6125Y9582D2*
G1X6125Y9534D1*
G1X6116Y9582D2*
G1X6116Y9534D1*
G1X6107Y9582D2*
G1X6107Y9534D1*
G1X6098Y9582D2*
G1X6098Y9534D1*
G1X6089Y9582D2*
G1X6089Y9534D1*
G1X6080Y9582D2*
G1X6080Y9534D1*
G1X6071Y9582D2*
G1X6071Y9534D1*
G1X6062Y9582D2*
G1X6062Y9534D1*
G1X6053Y9582D2*
G1X6053Y9534D1*
G1X6044Y9582D2*
G1X6044Y9534D1*
G1X6035Y9582D2*
G1X6035Y9534D1*
G1X6026Y9582D2*
G1X6026Y9534D1*
G1X6017Y9582D2*
G1X6017Y9534D1*
G1X6008Y9582D2*
G1X6008Y9534D1*
G1X5999Y9582D2*
G1X5999Y9534D1*
G1X5990Y9582D2*
G1X5990Y9534D1*
G1X5981Y9582D2*
G1X5981Y9534D1*
G1X5972Y9582D2*
G1X5972Y9534D1*
G1X5963Y9582D2*
G1X5963Y9534D1*
G1X5954Y9582D2*
G1X5954Y9534D1*
G1X5945Y9582D2*
G1X5945Y9534D1*
G1X5936Y9582D2*
G1X5936Y9534D1*
G1X5927Y9582D2*
G1X5927Y9534D1*
G1X5918Y9582D2*
G1X5918Y9534D1*
G1X5909Y9582D2*
G1X5909Y9534D1*
G1X5900Y9582D2*
G1X5900Y9534D1*
G1X5891Y9582D2*
G1X5891Y9534D1*
G1X5882Y9582D2*
G1X5882Y9534D1*
G1X5873Y9582D2*
G1X5873Y9534D1*
G1X5864Y9582D2*
G1X5864Y9534D1*
G1X5855Y9582D2*
G1X5855Y9534D1*
G1X5846Y9582D2*
G1X5846Y9534D1*
G1X5837Y9582D2*
G1X5837Y9534D1*
G1X5828Y9582D2*
G1X5828Y9534D1*
G1X5819Y9582D2*
G1X5819Y9534D1*
G1X5810Y9582D2*
G1X5810Y9534D1*
G1X5801Y9582D2*
G1X5801Y9534D1*
G1X5792Y9582D2*
G1X5792Y9534D1*
G1X5783Y9582D2*
G1X5783Y9534D1*
G1X5774Y9582D2*
G1X5774Y9534D1*
G1X5765Y9582D2*
G1X5765Y9534D1*
G1X5756Y9582D2*
G1X5756Y9534D1*
G1X5747Y9582D2*
G1X5747Y9534D1*
G1X5738Y9582D2*
G1X5738Y9534D1*
G1X5729Y9582D2*
G1X5729Y9534D1*
G1X5720Y9582D2*
G1X5720Y9533D1*
G1X5711Y9582D2*
G1X5711Y9533D1*
G1X5702Y9582D2*
G1X5702Y9531D1*
G1X5693Y9582D2*
G1X5693Y9530D1*
G1X5684Y9582D2*
G1X5684Y9528D1*
G1X5675Y9582D2*
G1X5675Y9526D1*
G1X5666Y9582D2*
G1X5666Y9523D1*
G1X5657Y9582D2*
G1X5657Y9520D1*
G1X5648Y9582D2*
G1X5648Y9516D1*
G1X5639Y9582D2*
G1X5639Y9513D1*
G1X5630Y9582D2*
G1X5630Y9508D1*
G1X5621Y9582D2*
G1X5621Y9503D1*
G1X5612Y9582D2*
G1X5612Y9498D1*
G1X5603Y9582D2*
G1X5603Y9491D1*
G1X5594Y9582D2*
G1X5594Y9485D1*
G1X5585Y9582D2*
G1X5585Y9477D1*
G1X5576Y9582D2*
G1X5576Y9469D1*
G1X5567Y9582D2*
G1X5567Y9459D1*
G1X5558Y9582D2*
G1X5558Y9448D1*
G1X5549Y9582D2*
G1X5549Y9436D1*
G1X5540Y9582D2*
G1X5540Y9422D1*
G1X5531Y9582D2*
G1X5531Y9405D1*
G1X5522Y9582D2*
G1X5522Y9383D1*
G1X5972Y10135D2*
G1X5972Y10034D1*
G1X4568Y8582D2*
G1X4568Y7934D1*
G1X5747Y10636D2*
G1X5747Y10385D1*
G1X5738Y10636D2*
G1X5738Y10385D1*
G1X3974Y10636D2*
G1X3974Y10404D1*
G1X5720Y10636D2*
G1X5720Y10385D1*
G1X5711Y10636D2*
G1X5711Y10385D1*
G1X5702Y10636D2*
G1X5702Y10385D1*
G1X3974Y10174D2*
G1X3974Y7934D1*
G1X5684Y10636D2*
G1X5684Y10385D1*
G1X5675Y10636D2*
G1X5675Y10385D1*
G1X5666Y10636D2*
G1X5666Y10385D1*
G1X5621Y10636D2*
G1X5621Y10385D1*
G1X5612Y10636D2*
G1X5612Y10385D1*
G1X5603Y10636D2*
G1X5603Y10385D1*
G1X5594Y10636D2*
G1X5594Y10385D1*
G1X3911Y10636D2*
G1X3911Y10404D1*
G1X5576Y10636D2*
G1X5576Y10385D1*
G1X5567Y10636D2*
G1X5567Y10385D1*
G1X5558Y10636D2*
G1X5558Y10385D1*
G1X3911Y10174D2*
G1X3911Y7934D1*
G1X5540Y10636D2*
G1X5540Y10385D1*
G1X5531Y10636D2*
G1X5531Y10385D1*
G1X5522Y10636D2*
G1X5522Y10385D1*
G1X5504Y10135D2*
G1X5504Y7934D1*
G1X5495Y10135D2*
G1X5495Y7934D1*
G1X7391Y9536D2*
G1X3254Y9536D1*
G1X4071Y9194D2*
G1X3254Y9194D1*
G1X7391Y9293D2*
G1X6445Y9293D1*
G1X4077Y9185D2*
G1X3254Y9185D1*
G1X7391Y9275D2*
G1X6443Y9275D1*
G1X4083Y9176D2*
G1X3254Y9176D1*
G1X7391Y9257D2*
G1X6440Y9257D1*
G1X4090Y9167D2*
G1X3254Y9167D1*
G1X7391Y9239D2*
G1X6435Y9239D1*
G1X4098Y9158D2*
G1X3254Y9158D1*
G1X7391Y9221D2*
G1X6428Y9221D1*
G1X4106Y9149D2*
G1X3254Y9149D1*
G1X7391Y9203D2*
G1X6420Y9203D1*
G1X4115Y9140D2*
G1X3254Y9140D1*
G1X7391Y9185D2*
G1X6409Y9185D1*
G1X4126Y9131D2*
G1X3254Y9131D1*
G1X7391Y9167D2*
G1X6396Y9167D1*
G1X4138Y9122D2*
G1X3254Y9122D1*
G1X7391Y9149D2*
G1X6380Y9149D1*
G1X4153Y9113D2*
G1X3254Y9113D1*
G1X7391Y9131D2*
G1X6360Y9131D1*
G1X4170Y9104D2*
G1X3254Y9104D1*
G1X7391Y9113D2*
G1X6334Y9113D1*
G1X4192Y9095D2*
G1X3254Y9095D1*
G1X7391Y9095D2*
G1X6295Y9095D1*
G1X6440Y10107D2*
G1X6440Y10034D1*
G1X6431Y10115D2*
G1X6431Y10034D1*
G1X6422Y10124D2*
G1X6422Y10034D1*
G1X6413Y10134D2*
G1X6413Y10034D1*
G1X6404Y10636D2*
G1X6404Y10385D1*
G1X6395Y10636D2*
G1X6395Y10385D1*
G1X6368Y10135D2*
G1X6368Y10034D1*
G1X6359Y10135D2*
G1X6359Y10034D1*
G1X6350Y10135D2*
G1X6350Y10034D1*
G1X6341Y10135D2*
G1X6341Y10034D1*
G1X6332Y10135D2*
G1X6332Y10034D1*
G1X6323Y10135D2*
G1X6323Y10034D1*
G1X6314Y10135D2*
G1X6314Y10034D1*
G1X6305Y10135D2*
G1X6305Y10034D1*
G1X6296Y10135D2*
G1X6296Y10034D1*
G1X6287Y10135D2*
G1X6287Y10034D1*
G1X6278Y10135D2*
G1X6278Y10034D1*
G1X6269Y10135D2*
G1X6269Y10034D1*
G1X6260Y10135D2*
G1X6260Y10034D1*
G1X6251Y10135D2*
G1X6251Y10034D1*
G1X6242Y10135D2*
G1X6242Y10034D1*
G1X6233Y10135D2*
G1X6233Y10034D1*
G1X6224Y10135D2*
G1X6224Y10034D1*
G1X6215Y10135D2*
G1X6215Y10034D1*
G1X6206Y10135D2*
G1X6206Y10034D1*
G1X6197Y10135D2*
G1X6197Y10034D1*
G1X6188Y10135D2*
G1X6188Y10034D1*
G1X6179Y10135D2*
G1X6179Y10034D1*
G1X6170Y10135D2*
G1X6170Y10034D1*
G1X6161Y10135D2*
G1X6161Y10034D1*
G1X6152Y10135D2*
G1X6152Y10034D1*
G1X6143Y10135D2*
G1X6143Y10034D1*
G1X6134Y10135D2*
G1X6134Y10034D1*
G1X6125Y10135D2*
G1X6125Y10034D1*
G1X6116Y10135D2*
G1X6116Y10034D1*
G1X6107Y10135D2*
G1X6107Y10034D1*
G1X6098Y10135D2*
G1X6098Y10034D1*
G1X6089Y10135D2*
G1X6089Y10034D1*
G1X6080Y10135D2*
G1X6080Y10034D1*
G1X6071Y10135D2*
G1X6071Y10034D1*
G1X6062Y10135D2*
G1X6062Y10034D1*
G1X6053Y10135D2*
G1X6053Y10034D1*
G1X6044Y10135D2*
G1X6044Y10034D1*
G1X6035Y10135D2*
G1X6035Y10034D1*
G1X6026Y10135D2*
G1X6026Y10034D1*
G1X6017Y10135D2*
G1X6017Y10034D1*
G1X6008Y10135D2*
G1X6008Y10034D1*
G1X5999Y10135D2*
G1X5999Y10034D1*
G1X5990Y10135D2*
G1X5990Y10034D1*
G1X5981Y10135D2*
G1X5981Y10034D1*
G1X5513Y10135D2*
G1X5513Y9350D1*
G1X5963Y10135D2*
G1X5963Y10034D1*
G1X5954Y10135D2*
G1X5954Y10034D1*
G1X5945Y10135D2*
G1X5945Y10034D1*
G1X5936Y10135D2*
G1X5936Y10034D1*
G1X5927Y10135D2*
G1X5927Y10034D1*
G1X5918Y10135D2*
G1X5918Y10034D1*
G1X5909Y10135D2*
G1X5909Y10034D1*
G1X5900Y10135D2*
G1X5900Y10034D1*
G1X5891Y10135D2*
G1X5891Y10034D1*
G1X5882Y10135D2*
G1X5882Y10034D1*
G1X5873Y10135D2*
G1X5873Y10034D1*
G1X5864Y10135D2*
G1X5864Y10034D1*
G1X5855Y10135D2*
G1X5855Y10034D1*
G1X5846Y10135D2*
G1X5846Y10034D1*
G1X5837Y10135D2*
G1X5837Y10034D1*
G1X5828Y10135D2*
G1X5828Y10034D1*
G1X5819Y10135D2*
G1X5819Y10034D1*
G1X5810Y10135D2*
G1X5810Y10034D1*
G1X5801Y10135D2*
G1X5801Y10034D1*
G1X5792Y10135D2*
G1X5792Y10034D1*
G1X5783Y10135D2*
G1X5783Y10034D1*
G1X5774Y10135D2*
G1X5774Y10034D1*
G1X5801Y10636D2*
G1X5801Y10385D1*
G1X5756Y10135D2*
G1X5756Y10034D1*
G1X5747Y10135D2*
G1X5747Y10034D1*
G1X5738Y10135D2*
G1X5738Y10034D1*
G1X5729Y10135D2*
G1X5729Y10034D1*
G1X5720Y10135D2*
G1X5720Y10034D1*
G1X5711Y10135D2*
G1X5711Y10034D1*
G1X5702Y10135D2*
G1X5702Y10034D1*
G1X5693Y10135D2*
G1X5693Y10034D1*
G1X5684Y10135D2*
G1X5684Y10034D1*
G1X5675Y10135D2*
G1X5675Y10034D1*
G1X5666Y10135D2*
G1X5666Y10034D1*
G1X5657Y10135D2*
G1X5657Y10034D1*
G1X5648Y10135D2*
G1X5648Y10034D1*
G1X5639Y10135D2*
G1X5639Y10034D1*
G1X5630Y10135D2*
G1X5630Y10034D1*
G1X5621Y10135D2*
G1X5621Y10034D1*
G1X5612Y10135D2*
G1X5612Y10034D1*
G1X5603Y10135D2*
G1X5603Y10034D1*
G1X5594Y10135D2*
G1X5594Y10034D1*
G1X5585Y10135D2*
G1X5585Y10034D1*
G1X5576Y10135D2*
G1X5576Y10034D1*
G1X5567Y10135D2*
G1X5567Y10034D1*
G1X5558Y10135D2*
G1X5558Y10034D1*
G1X5549Y10135D2*
G1X5549Y10034D1*
G1X5540Y10135D2*
G1X5540Y10034D1*
G1X5531Y10135D2*
G1X5531Y10034D1*
G1X7391Y9311D2*
G1X6446Y9311D1*
G1X7391Y10022D2*
G1X6446Y10022D1*
G1X3902Y10174D2*
G1X3902Y7934D1*
G1X7391Y10004D2*
G1X6446Y10004D1*
G1X3893Y10636D2*
G1X3893Y10404D1*
G1X7391Y9986D2*
G1X6446Y9986D1*
G1X3893Y10174D2*
G1X3893Y7934D1*
G1X7391Y9968D2*
G1X6446Y9968D1*
G1X3884Y10636D2*
G1X3884Y10404D1*
G1X7391Y9950D2*
G1X6446Y9950D1*
G1X3884Y10174D2*
G1X3884Y7934D1*
G1X7391Y9932D2*
G1X6446Y9932D1*
G1X3875Y10636D2*
G1X3875Y10404D1*
G1X7391Y9914D2*
G1X6446Y9914D1*
G1X3875Y10174D2*
G1X3875Y7934D1*
G1X7391Y9896D2*
G1X6446Y9896D1*
G1X7391Y10472D2*
G1X5370Y10472D1*
G1X4228Y10031D2*
G1X3254Y10031D1*
G1X4394Y10094D2*
G1X3254Y10094D1*
G1X4040Y9806D2*
G1X3254Y9806D1*
G1X7391Y9851D2*
G1X6446Y9851D1*
G1X4041Y9797D2*
G1X3254Y9797D1*
G1X7391Y9833D2*
G1X6446Y9833D1*
G1X4041Y9788D2*
G1X3254Y9788D1*
G1X7391Y9815D2*
G1X6446Y9815D1*
G1X4069Y9698D2*
G1X3254Y9698D1*
G1X7391Y9797D2*
G1X6446Y9797D1*
G1X4074Y9689D2*
G1X3254Y9689D1*
G1X7391Y9779D2*
G1X6446Y9779D1*
G1X4080Y9680D2*
G1X3254Y9680D1*
G1X7391Y9761D2*
G1X6446Y9761D1*
G1X4087Y9671D2*
G1X3254Y9671D1*
G1X7391Y9743D2*
G1X6446Y9743D1*
G1X4094Y9662D2*
G1X3254Y9662D1*
G1X7391Y9725D2*
G1X6446Y9725D1*
G1X4102Y9653D2*
G1X3254Y9653D1*
G1X7391Y9707D2*
G1X6446Y9707D1*
G1X4111Y9644D2*
G1X3254Y9644D1*
G1X7391Y9689D2*
G1X6446Y9689D1*
G1X6629Y10069D2*
G1X6629Y7934D1*
G1X7259Y10047D2*
G1X7259Y7934D1*
G1X7250Y10047D2*
G1X7250Y7934D1*
G1X7241Y10047D2*
G1X7241Y7934D1*
G1X7232Y10047D2*
G1X7232Y7934D1*
G1X7223Y10047D2*
G1X7223Y7934D1*
G1X7214Y10047D2*
G1X7214Y7934D1*
G1X7205Y10047D2*
G1X7205Y7934D1*
G1X7196Y10047D2*
G1X7196Y7934D1*
G1X7187Y10047D2*
G1X7187Y7934D1*
G1X7178Y10047D2*
G1X7178Y7934D1*
G1X7169Y10047D2*
G1X7169Y7934D1*
G1X7160Y10047D2*
G1X7160Y7934D1*
G1X7151Y10047D2*
G1X7151Y7934D1*
G1X7142Y10047D2*
G1X7142Y7934D1*
G1X7133Y10047D2*
G1X7133Y7934D1*
G1X7124Y10047D2*
G1X7124Y7934D1*
G1X7115Y10047D2*
G1X7115Y7934D1*
G1X7106Y10047D2*
G1X7106Y7934D1*
G1X7097Y10047D2*
G1X7097Y7934D1*
G1X7088Y10047D2*
G1X7088Y7934D1*
G1X7079Y10047D2*
G1X7079Y7934D1*
G1X7070Y10047D2*
G1X7070Y7934D1*
G1X7061Y10047D2*
G1X7061Y7934D1*
G1X7052Y10047D2*
G1X7052Y7934D1*
G1X7043Y10047D2*
G1X7043Y7934D1*
G1X7034Y10047D2*
G1X7034Y7934D1*
G1X7025Y10047D2*
G1X7025Y7934D1*
G1X7016Y10047D2*
G1X7016Y7934D1*
G1X7007Y10047D2*
G1X7007Y7934D1*
G1X6998Y10047D2*
G1X6998Y7934D1*
G1X6989Y10047D2*
G1X6989Y7934D1*
G1X6980Y10047D2*
G1X6980Y7934D1*
G1X6971Y10047D2*
G1X6971Y7934D1*
G1X6962Y10047D2*
G1X6962Y7934D1*
G1X6584Y10061D2*
G1X6584Y7934D1*
G1X6944Y10047D2*
G1X6944Y7934D1*
G1X6935Y10047D2*
G1X6935Y7934D1*
G1X6926Y10047D2*
G1X6926Y7934D1*
G1X6917Y10047D2*
G1X6917Y7934D1*
G1X6575Y10636D2*
G1X6575Y10460D1*
G1X7391Y10400D2*
G1X7273Y10400D1*
G1X6575Y10060D2*
G1X6575Y7934D1*
G1X7391Y10382D2*
G1X7273Y10382D1*
G1X6566Y10636D2*
G1X6566Y10460D1*
G1X7391Y10364D2*
G1X7273Y10364D1*
G1X6566Y10060D2*
G1X6566Y7934D1*
G1X4394Y10103D2*
G1X3254Y10103D1*
G1X6557Y10636D2*
G1X6557Y10460D1*
G1X7391Y10328D2*
G1X7273Y10328D1*
G1X6557Y10060D2*
G1X6557Y7934D1*
G1X7391Y10310D2*
G1X7273Y10310D1*
G1X7391Y10508D2*
G1X5282Y10508D1*
G1X5204Y10508D2*
G1X3254Y10508D1*
G1X7391Y10499D2*
G1X5317Y10499D1*
G1X5169Y10499D2*
G1X3254Y10499D1*
G1X7391Y10490D2*
G1X5339Y10490D1*
G1X5147Y10490D2*
G1X3254Y10490D1*
G1X7391Y10481D2*
G1X5356Y10481D1*
G1X3330Y10418D2*
G1X3254Y10418D1*
G1X3330Y10400D2*
G1X3254Y10400D1*
G1X3330Y10382D2*
G1X3254Y10382D1*
G1X3330Y10364D2*
G1X3254Y10364D1*
G1X3330Y10346D2*
G1X3254Y10346D1*
G1X3330Y10328D2*
G1X3254Y10328D1*
G1X3330Y10310D2*
G1X3254Y10310D1*
G1X7391Y10040D2*
G1X5469Y10040D1*
G1X3330Y10274D2*
G1X3254Y10274D1*
G1X3330Y10256D2*
G1X3254Y10256D1*
G1X3330Y10238D2*
G1X3254Y10238D1*
G1X3330Y10220D2*
G1X3254Y10220D1*
G1X3330Y10202D2*
G1X3254Y10202D1*
G1X3330Y10184D2*
G1X3254Y10184D1*
G1X3330Y10166D2*
G1X3254Y10166D1*
G1X3330Y10148D2*
G1X3254Y10148D1*
G1X3330Y10130D2*
G1X3254Y10130D1*
G1X3330Y10112D2*
G1X3254Y10112D1*
G1X6962Y10636D2*
G1X6962Y10417D1*
G1X3695Y10104D2*
G1X3695Y7934D1*
G1X3686Y10104D2*
G1X3686Y7934D1*
G1X3677Y10104D2*
G1X3677Y7934D1*
G1X3668Y10104D2*
G1X3668Y7934D1*
G1X3659Y10104D2*
G1X3659Y7934D1*
G1X3650Y10104D2*
G1X3650Y7934D1*
G1X3641Y10104D2*
G1X3641Y7934D1*
G1X3632Y10104D2*
G1X3632Y7934D1*
G1X3623Y10104D2*
G1X3623Y7934D1*
G1X3614Y10104D2*
G1X3614Y7934D1*
G1X3605Y10104D2*
G1X3605Y7934D1*
G1X3596Y10104D2*
G1X3596Y7934D1*
G1X3587Y10104D2*
G1X3587Y7934D1*
G1X3578Y10104D2*
G1X3578Y7934D1*
G1X3569Y10104D2*
G1X3569Y7934D1*
G1X3560Y10104D2*
G1X3560Y7934D1*
G1X3551Y10104D2*
G1X3551Y7934D1*
G1X3542Y10104D2*
G1X3542Y7934D1*
G1X3533Y10104D2*
G1X3533Y7934D1*
G1X3524Y10104D2*
G1X3524Y7934D1*
G1X3515Y10104D2*
G1X3515Y7934D1*
G1X3506Y10104D2*
G1X3506Y7934D1*
G1X3497Y10104D2*
G1X3497Y7934D1*
G1X3488Y10104D2*
G1X3488Y7934D1*
G1X3479Y10104D2*
G1X3479Y7934D1*
G1X3470Y10104D2*
G1X3470Y7934D1*
G1X3461Y10104D2*
G1X3461Y7934D1*
G1X3452Y10104D2*
G1X3452Y7934D1*
G1X3443Y10104D2*
G1X3443Y7934D1*
G1X3434Y10104D2*
G1X3434Y7934D1*
G1X3425Y10104D2*
G1X3425Y7934D1*
G1X3416Y10104D2*
G1X3416Y7934D1*
G1X3407Y10104D2*
G1X3407Y7934D1*
G1X3398Y10104D2*
G1X3398Y7934D1*
G1X3389Y10104D2*
G1X3389Y7934D1*
G1X3380Y10104D2*
G1X3380Y7934D1*
G1X3371Y10104D2*
G1X3371Y7934D1*
G1X3929Y10636D2*
G1X3929Y10404D1*
G1X3353Y10104D2*
G1X3353Y7934D1*
G1X5037Y9707D2*
G1X4954Y9707D1*
G1X4307Y10404D2*
G1X3700Y10404D1*
G1X4371Y10463D2*
G1X3700Y10463D1*
G1X4357Y10454D2*
G1X3700Y10454D1*
G1X4345Y10445D2*
G1X3700Y10445D1*
G1X4334Y10436D2*
G1X3700Y10436D1*
G1X6917Y10636D2*
G1X6917Y10417D1*
G1X6412Y10385D2*
G1X5446Y10385D1*
G1X4394Y10105D2*
G1X4394Y10034D1*
G1X4310Y10409D2*
G1X3700Y10409D1*
G1X4304Y10400D2*
G1X3700Y10400D1*
G1X4280Y10174D2*
G1X4280Y10034D1*
G1X5017Y10040D2*
G1X4624Y10040D1*
G1X5017Y10049D2*
G1X4624Y10049D1*
G1X5017Y10058D2*
G1X4624Y10058D1*
G1X5017Y10067D2*
G1X4624Y10067D1*
G1X5017Y10076D2*
G1X4624Y10076D1*
G1X5017Y10085D2*
G1X4624Y10085D1*
G1X4752Y10034D2*
G1X4624Y10034D1*
G1X7391Y8852D2*
G1X6442Y8852D1*
G1X5837Y10636D2*
G1X5837Y10385D1*
G1X7391Y8861D2*
G1X6440Y8861D1*
G1X3983Y10174D2*
G1X3983Y7934D1*
G1X7391Y8870D2*
G1X6437Y8870D1*
G1X4253Y10174D2*
G1X4253Y10034D1*
G1X4199Y10174D2*
G1X4199Y10024D1*
G1X4208Y10636D2*
G1X4208Y10404D1*
G1X4325Y10427D2*
G1X3700Y10427D1*
G1X4317Y10418D2*
G1X3700Y10418D1*
G1X5017Y10274D2*
G1X4670Y10274D1*
G1X4163Y10636D2*
G1X4163Y10404D1*
G1X4172Y10636D2*
G1X4172Y10404D1*
G1X4181Y10636D2*
G1X4181Y10404D1*
G1X4190Y10636D2*
G1X4190Y10404D1*
G1X3938Y10174D2*
G1X3938Y7934D1*
G1X3344Y10636D2*
G1X3344Y10474D1*
G1X4313Y10166D2*
G1X3700Y10166D1*
G1X4321Y10157D2*
G1X3700Y10157D1*
G1X4329Y10148D2*
G1X3700Y10148D1*
G1X4339Y10139D2*
G1X3700Y10139D1*
G1X3330Y10121D2*
G1X3254Y10121D1*
G1X5942Y7943D2*
G1X3254Y7943D1*
G1X5018Y9782D2*
G1X5018Y8834D1*
G1X4116Y9977D2*
G1X3254Y9977D1*
G1X4139Y9995D2*
G1X3254Y9995D1*
G1X4170Y10013D2*
G1X3254Y10013D1*
G1X4010Y10174D2*
G1X4010Y7934D1*
G1X5063Y10636D2*
G1X5063Y10421D1*
G1X5765Y10135D2*
G1X5765Y10034D1*
G1X5072Y10636D2*
G1X5072Y10432D1*
G1X5459Y10636D2*
G1X5459Y10385D1*
G1X5081Y10636D2*
G1X5081Y10442D1*
G1X5090Y10636D2*
G1X5090Y10451D1*
G1X5099Y10636D2*
G1X5099Y10459D1*
G1X5108Y10636D2*
G1X5108Y10466D1*
G1X5117Y10636D2*
G1X5117Y10472D1*
G1X6458Y10427D2*
G1X5419Y10427D1*
G1X7391Y10436D2*
G1X6664Y10436D1*
G1X3704Y10636D2*
G1X3704Y10404D1*
G1X5126Y10636D2*
G1X5126Y10478D1*
G1X5135Y10636D2*
G1X5135Y10483D1*
G1X7391Y9608D2*
G1X6446Y9608D1*
G1X7391Y9581D2*
G1X5299Y9581D1*
G1X4181Y9599D2*
G1X3254Y9599D1*
G1X6377Y10135D2*
G1X6377Y10034D1*
G1X6773Y10135D2*
G1X6773Y7934D1*
G1X6386Y10636D2*
G1X6386Y10385D1*
G1X6903Y10385D2*
G1X6724Y10385D1*
G1X7391Y9617D2*
G1X6446Y9617D1*
G1X4162Y9608D2*
G1X3254Y9608D1*
G1X7391Y9635D2*
G1X6446Y9635D1*
G1X4146Y9617D2*
G1X3254Y9617D1*
G1X7391Y9653D2*
G1X6446Y9653D1*
G1X4133Y9626D2*
G1X3254Y9626D1*
G1X7391Y9671D2*
G1X6446Y9671D1*
G1X4154Y10174D2*
G1X4154Y10004D1*
G1X5017Y10229D2*
G1X4661Y10229D1*
G1X5060Y10418D2*
G1X4624Y10418D1*
G1X5067Y10427D2*
G1X4616Y10427D1*
G1X5074Y10436D2*
G1X4607Y10436D1*
G1X5083Y10445D2*
G1X4597Y10445D1*
G1X5092Y10454D2*
G1X4585Y10454D1*
G1X5103Y10463D2*
G1X4570Y10463D1*
G1X4253Y9582D2*
G1X4253Y9534D1*
G1X4262Y10174D2*
G1X4262Y10034D1*
G1X4271Y10174D2*
G1X4271Y10034D1*
G1X5017Y10238D2*
G1X4664Y10238D1*
G1X5017Y10247D2*
G1X4666Y10247D1*
G1X4289Y10636D2*
G1X4289Y10404D1*
G1X3330Y10454D2*
G1X3254Y10454D1*
G1X7391Y10067D2*
G1X7273Y10067D1*
G1X7391Y10076D2*
G1X7273Y10076D1*
G1X5017Y10256D2*
G1X4668Y10256D1*
G1X5017Y10265D2*
G1X4669Y10265D1*
G1X4226Y10636D2*
G1X4226Y10404D1*
G1X7391Y8825D2*
G1X6445Y8825D1*
G1X4514Y10636D2*
G1X4514Y10485D1*
G1X4136Y10174D2*
G1X4136Y9992D1*
G1X4577Y8582D2*
G1X4577Y7934D1*
G1X6800Y10135D2*
G1X6800Y7934D1*
G1X3920Y10636D2*
G1X3920Y10404D1*
G1X5017Y10285D2*
G1X5017Y9800D1*
G1X4752Y9582D2*
G1X4266Y9582D1*
G1X4752Y9534D2*
G1X4266Y9534D1*
G1X4752Y9082D2*
G1X4266Y9082D1*
G1X4752Y9034D2*
G1X4266Y9034D1*
G1X4752Y8582D2*
G1X4266Y8582D1*
G1X5017Y8816D2*
G1X5017Y8331D1*
G1X5469Y8816D2*
G1X5469Y8331D1*
G1X6220Y9034D2*
G1X5735Y9034D1*
G1X6220Y8582D2*
G1X5735Y8582D1*
G1X6220Y9534D2*
G1X5735Y9534D1*
G1X6220Y9082D2*
G1X5735Y9082D1*
G1X6446Y10034D2*
G1X5509Y10034D1*
G1X5509Y9582D1*
G1X6446Y9582D2*
G1X5509Y9582D1*
G1X6446Y10034D2*
G1X6446Y9582D1*
G1X7273Y10417D2*
G1X6903Y10417D1*
G1X7273Y10047D2*
G1X6903Y10047D1*
G1X7273Y10417D2*
G1X7273Y10047D1*
G1X3700Y10474D2*
G1X3330Y10474D1*
G1X3330Y10104D1*
G1X3700Y10104D2*
G1X3330Y10104D1*
G1X3254Y10636D2*
G1X3254Y7934D1*
G1X5945Y8582D2*
G1X5945Y7955D1*
G1X7391Y10636D2*
G1X7391Y7934D1*
G1X7391Y10636D2*
G1X3254Y10636D1*
G1X5979Y8024D2*
G1X3254Y8024D1*
G1X7376Y10636D2*
G1X7376Y7934D1*
G1X7367Y10636D2*
G1X7367Y7934D1*
G1X7358Y10636D2*
G1X7358Y7934D1*
G1X7349Y10636D2*
G1X7349Y7934D1*
G1X7340Y10636D2*
G1X7340Y7934D1*
G1X7331Y10636D2*
G1X7331Y7934D1*
G1X7322Y10636D2*
G1X7322Y7934D1*
G1X7313Y10636D2*
G1X7313Y7934D1*
G1X7304Y10636D2*
G1X7304Y7934D1*
G1X7295Y10636D2*
G1X7295Y7934D1*
G1X7286Y10636D2*
G1X7286Y7934D1*
G1X7277Y10636D2*
G1X7277Y7934D1*
G1X4121Y9635D2*
G1X3254Y9635D1*
G1X7259Y10636D2*
G1X7259Y10417D1*
G1X7250Y10636D2*
G1X7250Y10417D1*
G1X7241Y10636D2*
G1X7241Y10417D1*
G1X5468Y10636D2*
G1X5468Y10385D1*
G1X5963Y10636D2*
G1X5963Y10385D1*
G1X5441Y10636D2*
G1X5441Y10394D1*
G1X5432Y10636D2*
G1X5432Y10409D1*
G1X5423Y10636D2*
G1X5423Y10422D1*
G1X5414Y10636D2*
G1X5414Y10433D1*
G1X5405Y10636D2*
G1X5405Y10443D1*
G1X5396Y10636D2*
G1X5396Y10452D1*
G1X5387Y10636D2*
G1X5387Y10459D1*
G1X5378Y10636D2*
G1X5378Y10466D1*
G1X5369Y10636D2*
G1X5369Y10473D1*
G1X5360Y10636D2*
G1X5360Y10478D1*
G1X5351Y10636D2*
G1X5351Y10484D1*
G1X5342Y10636D2*
G1X5342Y10488D1*
G1X5333Y10636D2*
G1X5333Y10492D1*
G1X5324Y10636D2*
G1X5324Y10496D1*
G1X5315Y10636D2*
G1X5315Y10499D1*
G1X5306Y10636D2*
G1X5306Y10502D1*
G1X5297Y10636D2*
G1X5297Y10504D1*
G1X5288Y10636D2*
G1X5288Y10506D1*
G1X5279Y10636D2*
G1X5279Y10508D1*
G1X5270Y10636D2*
G1X5270Y10509D1*
G1X5261Y10636D2*
G1X5261Y10510D1*
G1X5252Y10636D2*
G1X5252Y10511D1*
G1X5243Y10636D2*
G1X5243Y10511D1*
G1X5234Y10636D2*
G1X5234Y10511D1*
G1X5225Y10636D2*
G1X5225Y10510D1*
G1X5216Y10636D2*
G1X5216Y10509D1*
G1X5207Y10636D2*
G1X5207Y10508D1*
G1X5198Y10636D2*
G1X5198Y10506D1*
G1X5189Y10636D2*
G1X5189Y10504D1*
G1X5180Y10636D2*
G1X5180Y10502D1*
G1X5171Y10636D2*
G1X5171Y10499D1*
G1X5162Y10636D2*
G1X5162Y10496D1*
G1X5153Y10636D2*
G1X5153Y10492D1*
G1X5144Y10636D2*
G1X5144Y10488D1*
G1X6412Y10135D2*
G1X5469Y10135D1*
G1X6434Y10409D2*
G1X5432Y10409D1*
G1X6425Y10400D2*
G1X5438Y10400D1*
G1X6417Y10391D2*
G1X5443Y10391D1*
G1X6410Y10382D2*
G1X5447Y10382D1*
G1X5225Y8106D2*
G1X5225Y7934D1*
G1X5509Y9806D2*
G1X5469Y9806D1*
G1X5509Y9797D2*
G1X5469Y9797D1*
G1X5509Y9788D2*
G1X5469Y9788D1*
G1X5509Y9779D2*
G1X5468Y9779D1*
G1X5509Y9770D2*
G1X5467Y9770D1*
G1X5509Y9761D2*
G1X5466Y9761D1*
G1X5509Y9752D2*
G1X5464Y9752D1*
G1X5509Y9743D2*
G1X5462Y9743D1*
G1X5509Y9734D2*
G1X5459Y9734D1*
G1X5509Y9725D2*
G1X5456Y9725D1*
G1X5509Y9716D2*
G1X5453Y9716D1*
G1X5509Y9707D2*
G1X5449Y9707D1*
G1X3362Y10104D2*
G1X3362Y7934D1*
G1X6903Y10135D2*
G1X6724Y10135D1*
G1X6518Y10454D2*
G1X5393Y10454D1*
G1X6491Y10445D2*
G1X5403Y10445D1*
G1X6473Y10436D2*
G1X5411Y10436D1*
G1X7391Y10445D2*
G1X6645Y10445D1*
G1X6445Y10418D2*
G1X5426Y10418D1*
G1X7391Y10427D2*
G1X6679Y10427D1*
G1X7391Y10301D2*
G1X7273Y10301D1*
G1X7391Y10283D2*
G1X7273Y10283D1*
G1X7391Y10265D2*
G1X7273Y10265D1*
G1X7391Y10247D2*
G1X7273Y10247D1*
G1X7391Y9887D2*
G1X6446Y9887D1*
G1X6449Y10636D2*
G1X6449Y10420D1*
G1X5469Y10135D2*
G1X5469Y9800D1*
G1X5783Y10636D2*
G1X5783Y10385D1*
G1X7391Y8834D2*
G1X6444Y8834D1*
G1X6409Y10139D2*
G1X5469Y10139D1*
G1X6417Y10130D2*
G1X5469Y10130D1*
G1X6425Y10121D2*
G1X5469Y10121D1*
G1X6434Y10112D2*
G1X5469Y10112D1*
G1X6445Y10103D2*
G1X5469Y10103D1*
G1X6457Y10094D2*
G1X5469Y10094D1*
G1X6472Y10085D2*
G1X5469Y10085D1*
G1X6491Y10076D2*
G1X5469Y10076D1*
G1X6903Y10058D2*
G1X5469Y10058D1*
G1X4394Y10049D2*
G1X3254Y10049D1*
G1X7391Y10049D2*
G1X5469Y10049D1*
G1X5509Y9698D2*
G1X5445Y9698D1*
G1X5509Y9689D2*
G1X5440Y9689D1*
G1X5509Y9680D2*
G1X5434Y9680D1*
G1X5509Y9671D2*
G1X5428Y9671D1*
G1X5509Y9662D2*
G1X5422Y9662D1*
G1X5509Y9653D2*
G1X5415Y9653D1*
G1X5509Y9644D2*
G1X5406Y9644D1*
G1X5509Y9635D2*
G1X5397Y9635D1*
G1X5509Y9626D2*
G1X5387Y9626D1*
G1X5509Y9617D2*
G1X5376Y9617D1*
G1X5509Y9608D2*
G1X5362Y9608D1*
G1X5509Y9599D2*
G1X5346Y9599D1*
G1X5509Y9590D2*
G1X5326Y9590D1*
G1X7391Y9599D2*
G1X6446Y9599D1*
G1X5054Y10636D2*
G1X5054Y10408D1*
G1X4973Y10636D2*
G1X4973Y9855D1*
G1X4964Y10636D2*
G1X4964Y9886D1*
G1X4955Y10636D2*
G1X4955Y9907D1*
G1X4946Y10636D2*
G1X4946Y9924D1*
G1X4937Y10636D2*
G1X4937Y9938D1*
G1X4928Y10636D2*
G1X4928Y9950D1*
G1X4919Y10636D2*
G1X4919Y9960D1*
G1X4910Y10636D2*
G1X4910Y9970D1*
G1X4901Y10636D2*
G1X4901Y9978D1*
G1X4892Y10636D2*
G1X4892Y9985D1*
G1X4883Y10636D2*
G1X4883Y9992D1*
G1X4874Y10636D2*
G1X4874Y9998D1*
G1X4865Y10636D2*
G1X4865Y10004D1*
G1X4856Y10636D2*
G1X4856Y10009D1*
G1X4847Y10636D2*
G1X4847Y10013D1*
G1X4838Y10636D2*
G1X4838Y10017D1*
G1X4829Y10636D2*
G1X4829Y10020D1*
G1X4820Y10636D2*
G1X4820Y10023D1*
G1X4811Y10636D2*
G1X4811Y10026D1*
G1X4802Y10636D2*
G1X4802Y10028D1*
G1X4793Y10636D2*
G1X4793Y10030D1*
G1X4784Y10636D2*
G1X4784Y10032D1*
G1X4775Y10636D2*
G1X4775Y10033D1*
G1X4766Y10636D2*
G1X4766Y10033D1*
G1X4757Y10636D2*
G1X4757Y10034D1*
G1X4748Y10636D2*
G1X4748Y10034D1*
G1X4739Y10636D2*
G1X4739Y10034D1*
G1X4730Y10636D2*
G1X4730Y10034D1*
G1X4721Y10636D2*
G1X4721Y10034D1*
G1X4712Y10636D2*
G1X4712Y10034D1*
G1X4703Y10636D2*
G1X4703Y10034D1*
G1X4694Y10636D2*
G1X4694Y10034D1*
G1X4685Y10636D2*
G1X4685Y10034D1*
G1X6517Y10067D2*
G1X5469Y10067D1*
G1X4667Y10249D2*
G1X4667Y10034D1*
G1X4658Y10218D2*
G1X4658Y10034D1*
G1X4649Y10198D2*
G1X4649Y10034D1*
G1X4640Y10182D2*
G1X4640Y10034D1*
G1X4631Y10169D2*
G1X4631Y10034D1*
G1X4622Y10158D2*
G1X4622Y10034D1*
G1X6809Y10135D2*
G1X6809Y7934D1*
G1X6818Y10135D2*
G1X6818Y7934D1*
G1X6827Y10135D2*
G1X6827Y7934D1*
G1X6836Y10135D2*
G1X6836Y7934D1*
G1X6845Y10135D2*
G1X6845Y7934D1*
G1X6854Y10135D2*
G1X6854Y7934D1*
G1X5639Y10636D2*
G1X5639Y10385D1*
G1X5648Y10636D2*
G1X5648Y10385D1*
G1X4631Y8582D2*
G1X4631Y7934D1*
G1X4766Y8582D2*
G1X4766Y7934D1*
G1X4910Y8646D2*
G1X4910Y7934D1*
G1X4072Y9923D2*
G1X3254Y9923D1*
G1X4083Y9941D2*
G1X3254Y9941D1*
G1X6903Y10417D2*
G1X6903Y10385D1*
G1X7391Y9473D2*
G1X6375Y9473D1*
G1X7391Y9482D2*
G1X6365Y9482D1*
G1X7391Y9491D2*
G1X6353Y9491D1*
G1X7391Y9500D2*
G1X6340Y9500D1*
G1X7391Y9509D2*
G1X6324Y9509D1*
G1X7391Y9518D2*
G1X6304Y9518D1*
G1X7391Y9527D2*
G1X6277Y9527D1*
G1X7391Y8816D2*
G1X6446Y8816D1*
G1X7391Y8843D2*
G1X6443Y8843D1*
G1X4397Y10103D2*
G1X4397Y10034D1*
G1X4388Y10107D2*
G1X4388Y10034D1*
G1X4379Y10112D2*
G1X4379Y10034D1*
G1X4370Y10117D2*
G1X4370Y10034D1*
G1X4361Y10122D2*
G1X4361Y10034D1*
G1X4352Y10129D2*
G1X4352Y10034D1*
G1X4343Y10136D2*
G1X4343Y10034D1*
G1X4334Y10144D2*
G1X4334Y10034D1*
G1X4325Y10153D2*
G1X4325Y10034D1*
G1X4316Y10163D2*
G1X4316Y10034D1*
G1X6224Y10636D2*
G1X6224Y10385D1*
G1X4307Y10636D2*
G1X4307Y10404D1*
G1X4298Y10636D2*
G1X4298Y10404D1*
G1X5873Y10636D2*
G1X5873Y10385D1*
G1X4262Y10636D2*
G1X4262Y10404D1*
G1X4244Y10174D2*
G1X4244Y10033D1*
G1X4235Y10174D2*
G1X4235Y10032D1*
G1X4226Y10174D2*
G1X4226Y10030D1*
G1X4217Y10174D2*
G1X4217Y10028D1*
G1X4208Y10174D2*
G1X4208Y10026D1*
G1X7391Y7943D2*
G1X6333Y7943D1*
G1X5017Y10022D2*
G1X4825Y10022D1*
G1X5017Y10013D2*
G1X4847Y10013D1*
G1X5017Y10004D2*
G1X4865Y10004D1*
G1X5017Y9995D2*
G1X4879Y9995D1*
G1X5017Y9986D2*
G1X4891Y9986D1*
G1X5017Y9977D2*
G1X4902Y9977D1*
G1X5017Y9968D2*
G1X4912Y9968D1*
G1X5017Y9959D2*
G1X4920Y9959D1*
G1X5017Y9950D2*
G1X4928Y9950D1*
G1X5017Y9941D2*
G1X4935Y9941D1*
G1X5017Y9932D2*
G1X4941Y9932D1*
G1X5017Y9923D2*
G1X4946Y9923D1*
G1X5017Y9914D2*
G1X4951Y9914D1*
G1X5017Y9905D2*
G1X4956Y9905D1*
G1X5017Y9896D2*
G1X4960Y9896D1*
G1X5017Y9887D2*
G1X4963Y9887D1*
G1X5017Y9878D2*
G1X4967Y9878D1*
G1X5017Y9869D2*
G1X4969Y9869D1*
G1X5017Y9860D2*
G1X4972Y9860D1*
G1X5017Y9851D2*
G1X4974Y9851D1*
G1X5017Y9842D2*
G1X4975Y9842D1*
G1X5017Y9833D2*
G1X4976Y9833D1*
G1X5017Y9824D2*
G1X4977Y9824D1*
G1X4235Y10636D2*
G1X4235Y10404D1*
G1X4190Y10174D2*
G1X4190Y10021D1*
G1X4181Y10174D2*
G1X4181Y10017D1*
G1X4172Y10174D2*
G1X4172Y10013D1*
G1X4163Y10174D2*
G1X4163Y10009D1*
G1X4244Y10636D2*
G1X4244Y10404D1*
G1X4145Y10174D2*
G1X4145Y9998D1*
G1X3700Y10174D2*
G1X3700Y10104D1*
G1X4127Y10174D2*
G1X4127Y9986D1*
G1X4118Y10174D2*
G1X4118Y9978D1*
G1X4109Y10174D2*
G1X4109Y9970D1*
G1X4100Y10174D2*
G1X4100Y9961D1*
G1X4091Y10174D2*
G1X4091Y9950D1*
G1X4082Y10174D2*
G1X4082Y9938D1*
G1X4073Y10174D2*
G1X4073Y9924D1*
G1X4064Y10174D2*
G1X4064Y9908D1*
G1X4055Y10174D2*
G1X4055Y9887D1*
G1X4217Y10636D2*
G1X4217Y10404D1*
G1X5017Y10031D2*
G1X4790Y10031D1*
G1X5017Y9806D2*
G1X4978Y9806D1*
G1X5017Y9797D2*
G1X4977Y9797D1*
G1X5017Y9788D2*
G1X4977Y9788D1*
G1X5018Y9779D2*
G1X4976Y9779D1*
G1X5019Y9770D2*
G1X4974Y9770D1*
G1X5020Y9761D2*
G1X4973Y9761D1*
G1X5022Y9752D2*
G1X4970Y9752D1*
G1X5024Y9743D2*
G1X4968Y9743D1*
G1X5027Y9734D2*
G1X4965Y9734D1*
G1X5030Y9725D2*
G1X4962Y9725D1*
G1X5033Y9716D2*
G1X4958Y9716D1*
G1X7391Y10517D2*
G1X3254Y10517D1*
G1X5041Y9698D2*
G1X4949Y9698D1*
G1X5046Y9689D2*
G1X4944Y9689D1*
G1X5051Y9680D2*
G1X4938Y9680D1*
G1X5057Y9671D2*
G1X4931Y9671D1*
G1X5064Y9662D2*
G1X4924Y9662D1*
G1X5071Y9653D2*
G1X4916Y9653D1*
G1X5079Y9644D2*
G1X4907Y9644D1*
G1X5088Y9635D2*
G1X4897Y9635D1*
G1X5099Y9626D2*
G1X4885Y9626D1*
G1X5110Y9617D2*
G1X4872Y9617D1*
G1X5124Y9608D2*
G1X4856Y9608D1*
G1X5140Y9599D2*
G1X4837Y9599D1*
G1X4208Y9590D2*
G1X3254Y9590D1*
G1X4973Y9761D2*
G1X4973Y9355D1*
G1X4964Y9730D2*
G1X4964Y9386D1*
G1X4955Y9709D2*
G1X4955Y9407D1*
G1X4946Y9692D2*
G1X4946Y9424D1*
G1X4937Y9678D2*
G1X4937Y9438D1*
G1X4928Y9666D2*
G1X4928Y9450D1*
G1X4919Y9656D2*
G1X4919Y9460D1*
G1X4910Y9646D2*
G1X4910Y9470D1*
G1X4901Y9638D2*
G1X4901Y9478D1*
G1X4892Y9631D2*
G1X4892Y9485D1*
G1X4883Y9624D2*
G1X4883Y9492D1*
G1X4874Y9618D2*
G1X4874Y9498D1*
G1X4865Y9612D2*
G1X4865Y9504D1*
G1X4856Y9607D2*
G1X4856Y9509D1*
G1X4847Y9603D2*
G1X4847Y9513D1*
G1X4838Y9599D2*
G1X4838Y9517D1*
G1X4829Y9595D2*
G1X4829Y9520D1*
G1X4820Y9592D2*
G1X4820Y9523D1*
G1X4811Y9590D2*
G1X4811Y9526D1*
G1X4802Y9588D2*
G1X4802Y9528D1*
G1X4793Y9586D2*
G1X4793Y9530D1*
G1X4784Y9584D2*
G1X4784Y9532D1*
G1X4775Y9583D2*
G1X4775Y9533D1*
G1X4766Y9582D2*
G1X4766Y9533D1*
G1X4757Y9582D2*
G1X4757Y9534D1*
G1X4748Y9582D2*
G1X4748Y9534D1*
G1X4739Y9582D2*
G1X4739Y9534D1*
G1X4730Y9582D2*
G1X4730Y9534D1*
G1X4721Y9582D2*
G1X4721Y9534D1*
G1X4712Y9582D2*
G1X4712Y9534D1*
G1X4703Y9582D2*
G1X4703Y9534D1*
G1X4694Y9582D2*
G1X4694Y9534D1*
G1X4685Y9582D2*
G1X4685Y9534D1*
G1X4676Y9582D2*
G1X4676Y9534D1*
G1X4667Y9582D2*
G1X4667Y9534D1*
G1X4658Y9582D2*
G1X4658Y9534D1*
G1X4649Y9582D2*
G1X4649Y9534D1*
G1X4640Y9582D2*
G1X4640Y9534D1*
G1X4631Y9582D2*
G1X4631Y9534D1*
G1X4622Y9582D2*
G1X4622Y9534D1*
G1X4613Y9582D2*
G1X4613Y9534D1*
G1X4604Y9582D2*
G1X4604Y9534D1*
G1X4595Y9582D2*
G1X4595Y9534D1*
G1X4586Y9582D2*
G1X4586Y9534D1*
G1X4577Y9582D2*
G1X4577Y9534D1*
G1X5677Y9527D2*
G1X4809Y9527D1*
G1X5650Y9518D2*
G1X4836Y9518D1*
G1X5631Y9509D2*
G1X4856Y9509D1*
G1X5615Y9500D2*
G1X4871Y9500D1*
G1X5602Y9491D2*
G1X4885Y9491D1*
G1X5590Y9482D2*
G1X4896Y9482D1*
G1X5580Y9473D2*
G1X4906Y9473D1*
G1X5571Y9464D2*
G1X4915Y9464D1*
G1X5563Y9455D2*
G1X4924Y9455D1*
G1X5555Y9446D2*
G1X4931Y9446D1*
G1X5549Y9437D2*
G1X4937Y9437D1*
G1X5543Y9428D2*
G1X4943Y9428D1*
G1X5538Y9419D2*
G1X4949Y9419D1*
G1X5533Y9410D2*
G1X4953Y9410D1*
G1X5528Y9401D2*
G1X4958Y9401D1*
G1X5525Y9392D2*
G1X4962Y9392D1*
G1X5521Y9383D2*
G1X4965Y9383D1*
G1X5518Y9374D2*
G1X4968Y9374D1*
G1X5516Y9365D2*
G1X4970Y9365D1*
G1X5514Y9356D2*
G1X4972Y9356D1*
G1X5512Y9347D2*
G1X4974Y9347D1*
G1X5511Y9338D2*
G1X4976Y9338D1*
G1X5510Y9329D2*
G1X4977Y9329D1*
G1X5509Y9320D2*
G1X4977Y9320D1*
G1X5509Y9311D2*
G1X4978Y9311D1*
G1X4568Y9582D2*
G1X4568Y9534D1*
G1X4559Y9582D2*
G1X4559Y9534D1*
G1X4550Y9582D2*
G1X4550Y9534D1*
G1X4541Y9582D2*
G1X4541Y9534D1*
G1X4532Y9582D2*
G1X4532Y9534D1*
G1X4523Y9582D2*
G1X4523Y9534D1*
G1X4514Y9582D2*
G1X4514Y9534D1*
G1X4505Y9582D2*
G1X4505Y9534D1*
G1X4496Y9582D2*
G1X4496Y9534D1*
G1X4487Y9582D2*
G1X4487Y9534D1*
G1X4478Y9582D2*
G1X4478Y9534D1*
G1X4469Y9582D2*
G1X4469Y9534D1*
G1X4460Y9582D2*
G1X4460Y9534D1*
G1X4451Y9582D2*
G1X4451Y9534D1*
G1X4442Y9582D2*
G1X4442Y9534D1*
G1X4433Y9582D2*
G1X4433Y9534D1*
G1X4424Y9582D2*
G1X4424Y9534D1*
G1X4415Y9582D2*
G1X4415Y9534D1*
G1X4406Y9582D2*
G1X4406Y9534D1*
G1X4397Y9582D2*
G1X4397Y9534D1*
G1X4388Y9582D2*
G1X4388Y9534D1*
G1X4379Y9582D2*
G1X4379Y9534D1*
G1X4370Y9582D2*
G1X4370Y9534D1*
G1X4361Y9582D2*
G1X4361Y9534D1*
G1X4352Y9582D2*
G1X4352Y9534D1*
G1X4343Y9582D2*
G1X4343Y9534D1*
G1X4334Y9582D2*
G1X4334Y9534D1*
G1X4325Y9582D2*
G1X4325Y9534D1*
G1X4316Y9582D2*
G1X4316Y9534D1*
G1X4307Y9582D2*
G1X4307Y9534D1*
G1X4298Y9582D2*
G1X4298Y9534D1*
G1X4289Y9582D2*
G1X4289Y9534D1*
G1X4280Y9582D2*
G1X4280Y9534D1*
G1X4271Y9582D2*
G1X4271Y9534D1*
G1X4262Y9582D2*
G1X4262Y9534D1*
G1X4624Y10161D2*
G1X4624Y10034D1*
G1X4244Y9583D2*
G1X4244Y9533D1*
G1X4235Y9584D2*
G1X4235Y9532D1*
G1X4226Y9586D2*
G1X4226Y9530D1*
G1X4217Y9587D2*
G1X4217Y9528D1*
G1X4208Y9590D2*
G1X4208Y9526D1*
G1X4640Y8582D2*
G1X4640Y7934D1*
G1X4190Y9595D2*
G1X4190Y9521D1*
G1X4181Y9599D2*
G1X4181Y9517D1*
G1X4172Y9603D2*
G1X4172Y9513D1*
G1X4163Y9607D2*
G1X4163Y9509D1*
G1X4154Y9612D2*
G1X4154Y9504D1*
G1X4145Y9617D2*
G1X4145Y9498D1*
G1X4136Y9624D2*
G1X4136Y9492D1*
G1X4127Y9630D2*
G1X4127Y9486D1*
G1X4118Y9638D2*
G1X4118Y9478D1*
G1X4109Y9646D2*
G1X4109Y9470D1*
G1X4100Y9655D2*
G1X4100Y9461D1*
G1X4091Y9666D2*
G1X4091Y9450D1*
G1X4082Y9678D2*
G1X4082Y9438D1*
G1X4073Y9691D2*
G1X4073Y9424D1*
G1X4064Y9708D2*
G1X4064Y9408D1*
G1X4055Y9729D2*
G1X4055Y9387D1*
G1X5509Y9302D2*
G1X4977Y9302D1*
G1X5509Y9293D2*
G1X4977Y9293D1*
G1X5510Y9284D2*
G1X4976Y9284D1*
G1X5511Y9275D2*
G1X4975Y9275D1*
G1X5513Y9266D2*
G1X4974Y9266D1*
G1X5514Y9257D2*
G1X4972Y9257D1*
G1X5517Y9248D2*
G1X4969Y9248D1*
G1X5519Y9239D2*
G1X4967Y9239D1*
G1X5523Y9230D2*
G1X4964Y9230D1*
G1X5526Y9221D2*
G1X4960Y9221D1*
G1X5530Y9212D2*
G1X4956Y9212D1*
G1X5535Y9203D2*
G1X4952Y9203D1*
G1X5540Y9194D2*
G1X4947Y9194D1*
G1X5545Y9185D2*
G1X4941Y9185D1*
G1X5551Y9176D2*
G1X4935Y9176D1*
G1X5558Y9167D2*
G1X4928Y9167D1*
G1X5566Y9158D2*
G1X4920Y9158D1*
G1X5574Y9149D2*
G1X4912Y9149D1*
G1X5584Y9140D2*
G1X4902Y9140D1*
G1X5594Y9131D2*
G1X4892Y9131D1*
G1X5607Y9122D2*
G1X4879Y9122D1*
G1X5621Y9113D2*
G1X4865Y9113D1*
G1X5638Y9104D2*
G1X4848Y9104D1*
G1X5660Y9095D2*
G1X4826Y9095D1*
G1X5694Y9086D2*
G1X4792Y9086D1*
G1X5174Y9032D2*
G1X4784Y9032D1*
G1X5151Y9023D2*
G1X4822Y9023D1*
G1X5133Y9014D2*
G1X4845Y9014D1*
G1X5118Y9005D2*
G1X4863Y9005D1*
G1X5105Y8996D2*
G1X4878Y8996D1*
G1X5094Y8987D2*
G1X4890Y8987D1*
G1X5085Y8978D2*
G1X4901Y8978D1*
G1X5076Y8969D2*
G1X4911Y8969D1*
G1X5068Y8960D2*
G1X4919Y8960D1*
G1X5061Y8951D2*
G1X4927Y8951D1*
G1X5055Y8942D2*
G1X4934Y8942D1*
G1X5049Y8933D2*
G1X4940Y8933D1*
G1X5044Y8924D2*
G1X4946Y8924D1*
G1X5039Y8915D2*
G1X4951Y8915D1*
G1X5035Y8906D2*
G1X4955Y8906D1*
G1X5032Y8897D2*
G1X4959Y8897D1*
G1X5028Y8888D2*
G1X4963Y8888D1*
G1X5026Y8879D2*
G1X4966Y8879D1*
G1X5023Y8870D2*
G1X4969Y8870D1*
G1X5021Y8861D2*
G1X4971Y8861D1*
G1X5020Y8852D2*
G1X4973Y8852D1*
G1X5018Y8843D2*
G1X4975Y8843D1*
G1X5018Y8834D2*
G1X4976Y8834D1*
G1X5017Y8825D2*
G1X4977Y8825D1*
G1X5017Y8816D2*
G1X4977Y8816D1*
G1X5017Y8807D2*
G1X4978Y8807D1*
G1X5017Y8798D2*
G1X4977Y8798D1*
G1X5017Y8789D2*
G1X4977Y8789D1*
G1X5017Y8780D2*
G1X4976Y8780D1*
G1X5017Y8771D2*
G1X4974Y8771D1*
G1X5017Y8762D2*
G1X4973Y8762D1*
G1X5017Y8753D2*
G1X4971Y8753D1*
G1X5017Y8744D2*
G1X4968Y8744D1*
G1X5017Y8735D2*
G1X4965Y8735D1*
G1X5017Y8726D2*
G1X4962Y8726D1*
G1X5017Y8717D2*
G1X4958Y8717D1*
G1X5017Y8708D2*
G1X4954Y8708D1*
G1X5017Y8699D2*
G1X4949Y8699D1*
G1X5017Y8690D2*
G1X4944Y8690D1*
G1X5017Y8681D2*
G1X4938Y8681D1*
G1X5017Y8672D2*
G1X4932Y8672D1*
G1X5017Y8663D2*
G1X4925Y8663D1*
G1X5017Y8654D2*
G1X4917Y8654D1*
G1X5017Y8645D2*
G1X4908Y8645D1*
G1X5017Y8636D2*
G1X4898Y8636D1*
G1X5017Y8627D2*
G1X4886Y8627D1*
G1X5017Y8618D2*
G1X4873Y8618D1*
G1X5017Y8609D2*
G1X4858Y8609D1*
G1X5017Y8600D2*
G1X4839Y8600D1*
G1X5017Y8591D2*
G1X4814Y8591D1*
G1X7391Y9590D2*
G1X6446Y9590D1*
G1X4973Y9261D2*
G1X4973Y8855D1*
G1X4964Y9230D2*
G1X4964Y8886D1*
G1X4955Y9209D2*
G1X4955Y8907D1*
G1X4946Y9192D2*
G1X4946Y8924D1*
G1X4937Y9178D2*
G1X4937Y8938D1*
G1X4928Y9166D2*
G1X4928Y8950D1*
G1X4919Y9156D2*
G1X4919Y8960D1*
G1X4910Y9146D2*
G1X4910Y8970D1*
G1X4901Y9138D2*
G1X4901Y8978D1*
G1X4892Y9131D2*
G1X4892Y8985D1*
G1X4883Y9124D2*
G1X4883Y8992D1*
G1X4874Y9118D2*
G1X4874Y8998D1*
G1X4865Y9112D2*
G1X4865Y9004D1*
G1X4856Y9107D2*
G1X4856Y9009D1*
G1X4847Y9103D2*
G1X4847Y9013D1*
G1X4838Y9099D2*
G1X4838Y9017D1*
G1X4829Y9095D2*
G1X4829Y9020D1*
G1X4820Y9092D2*
G1X4820Y9023D1*
G1X4811Y9090D2*
G1X4811Y9026D1*
G1X4802Y9088D2*
G1X4802Y9028D1*
G1X4793Y9086D2*
G1X4793Y9030D1*
G1X4784Y9084D2*
G1X4784Y9032D1*
G1X4775Y9083D2*
G1X4775Y9033D1*
G1X4766Y9082D2*
G1X4766Y9033D1*
G1X4757Y9082D2*
G1X4757Y9034D1*
G1X4748Y9082D2*
G1X4748Y9034D1*
G1X4739Y9082D2*
G1X4739Y9034D1*
G1X4730Y9082D2*
G1X4730Y9034D1*
G1X4721Y9082D2*
G1X4721Y9034D1*
G1X4712Y9082D2*
G1X4712Y9034D1*
G1X4703Y9082D2*
G1X4703Y9034D1*
G1X4694Y9082D2*
G1X4694Y9034D1*
G1X4685Y9082D2*
G1X4685Y9034D1*
G1X4676Y9082D2*
G1X4676Y9034D1*
G1X4667Y9082D2*
G1X4667Y9034D1*
G1X4658Y9082D2*
G1X4658Y9034D1*
G1X4649Y9082D2*
G1X4649Y9034D1*
G1X4640Y9082D2*
G1X4640Y9034D1*
G1X4631Y9082D2*
G1X4631Y9034D1*
G1X4622Y9082D2*
G1X4622Y9034D1*
G1X4613Y9082D2*
G1X4613Y9034D1*
G1X4604Y9082D2*
G1X4604Y9034D1*
G1X4595Y9082D2*
G1X4595Y9034D1*
G1X4586Y9082D2*
G1X4586Y9034D1*
G1X4577Y9082D2*
G1X4577Y9034D1*
G1X4041Y9320D2*
G1X3254Y9320D1*
G1X4559Y9082D2*
G1X4559Y9034D1*
G1X4550Y9082D2*
G1X4550Y9034D1*
G1X4541Y9082D2*
G1X4541Y9034D1*
G1X4532Y9082D2*
G1X4532Y9034D1*
G1X4523Y9082D2*
G1X4523Y9034D1*
G1X4514Y9082D2*
G1X4514Y9034D1*
G1X4505Y9082D2*
G1X4505Y9034D1*
G1X4496Y9082D2*
G1X4496Y9034D1*
G1X4487Y9082D2*
G1X4487Y9034D1*
G1X4478Y9082D2*
G1X4478Y9034D1*
G1X4469Y9082D2*
G1X4469Y9034D1*
G1X4460Y9082D2*
G1X4460Y9034D1*
G1X4451Y9082D2*
G1X4451Y9034D1*
G1X4442Y9082D2*
G1X4442Y9034D1*
G1X4433Y9082D2*
G1X4433Y9034D1*
G1X4424Y9082D2*
G1X4424Y9034D1*
G1X4415Y9082D2*
G1X4415Y9034D1*
G1X4406Y9082D2*
G1X4406Y9034D1*
G1X4397Y9082D2*
G1X4397Y9034D1*
G1X4388Y9082D2*
G1X4388Y9034D1*
G1X4379Y9082D2*
G1X4379Y9034D1*
G1X4370Y9082D2*
G1X4370Y9034D1*
G1X4361Y9082D2*
G1X4361Y9034D1*
G1X4352Y9082D2*
G1X4352Y9034D1*
G1X4343Y9082D2*
G1X4343Y9034D1*
G1X4334Y9082D2*
G1X4334Y9034D1*
G1X4325Y9082D2*
G1X4325Y9034D1*
G1X4316Y9082D2*
G1X4316Y9034D1*
G1X4307Y9082D2*
G1X4307Y9034D1*
G1X4298Y9082D2*
G1X4298Y9034D1*
G1X4289Y9082D2*
G1X4289Y9034D1*
G1X4280Y9082D2*
G1X4280Y9034D1*
G1X4271Y9082D2*
G1X4271Y9034D1*
G1X4262Y9082D2*
G1X4262Y9034D1*
G1X4253Y9082D2*
G1X4253Y9034D1*
G1X4244Y9083D2*
G1X4244Y9033D1*
G1X4235Y9084D2*
G1X4235Y9032D1*
G1X4226Y9086D2*
G1X4226Y9030D1*
G1X4217Y9087D2*
G1X4217Y9028D1*
G1X4208Y9090D2*
G1X4208Y9026D1*
G1X4199Y9092D2*
G1X4199Y9024D1*
G1X4190Y9095D2*
G1X4190Y9021D1*
G1X4181Y9099D2*
G1X4181Y9017D1*
G1X4172Y9103D2*
G1X4172Y9013D1*
G1X4163Y9107D2*
G1X4163Y9009D1*
G1X4154Y9112D2*
G1X4154Y9004D1*
G1X4145Y9117D2*
G1X4145Y8998D1*
G1X4136Y9124D2*
G1X4136Y8992D1*
G1X4127Y9130D2*
G1X4127Y8986D1*
G1X4118Y9138D2*
G1X4118Y8978D1*
G1X4109Y9146D2*
G1X4109Y8970D1*
G1X4100Y9155D2*
G1X4100Y8961D1*
G1X4091Y9166D2*
G1X4091Y8950D1*
G1X4082Y9178D2*
G1X4082Y8938D1*
G1X4073Y9191D2*
G1X4073Y8924D1*
G1X4064Y9208D2*
G1X4064Y8908D1*
G1X4055Y9229D2*
G1X4055Y8887D1*
G1X5702Y9032D2*
G1X5312Y9032D1*
G1X5664Y9023D2*
G1X5335Y9023D1*
G1X5641Y9014D2*
G1X5353Y9014D1*
G1X5623Y9005D2*
G1X5368Y9005D1*
G1X5609Y8996D2*
G1X5380Y8996D1*
G1X5596Y8987D2*
G1X5391Y8987D1*
G1X5585Y8978D2*
G1X5401Y8978D1*
G1X5576Y8969D2*
G1X5410Y8969D1*
G1X5567Y8960D2*
G1X5418Y8960D1*
G1X5559Y8951D2*
G1X5425Y8951D1*
G1X5552Y8942D2*
G1X5431Y8942D1*
G1X5546Y8933D2*
G1X5437Y8933D1*
G1X5540Y8924D2*
G1X5442Y8924D1*
G1X5535Y8915D2*
G1X5446Y8915D1*
G1X5531Y8906D2*
G1X5451Y8906D1*
G1X5527Y8897D2*
G1X5454Y8897D1*
G1X5523Y8888D2*
G1X5457Y8888D1*
G1X5520Y8879D2*
G1X5460Y8879D1*
G1X5517Y8870D2*
G1X5463Y8870D1*
G1X5515Y8861D2*
G1X5465Y8861D1*
G1X5513Y8852D2*
G1X5466Y8852D1*
G1X5511Y8843D2*
G1X5467Y8843D1*
G1X5510Y8834D2*
G1X5468Y8834D1*
G1X5509Y8825D2*
G1X5469Y8825D1*
G1X5509Y8816D2*
G1X5469Y8816D1*
G1X5017Y9815D2*
G1X4977Y9815D1*
G1X5468Y9775D2*
G1X5468Y8841D1*
G1X5459Y9732D2*
G1X5459Y8884D1*
G1X5450Y9708D2*
G1X5450Y8908D1*
G1X5441Y9690D2*
G1X5441Y8926D1*
G1X5432Y9675D2*
G1X5432Y8941D1*
G1X5423Y9662D2*
G1X5423Y8953D1*
G1X5414Y9651D2*
G1X5414Y8964D1*
G1X5405Y9642D2*
G1X5405Y8974D1*
G1X5396Y9633D2*
G1X5396Y8983D1*
G1X5387Y9625D2*
G1X5387Y8991D1*
G1X5378Y9618D2*
G1X5378Y8998D1*
G1X5369Y9612D2*
G1X5369Y9004D1*
G1X5360Y9606D2*
G1X5360Y9010D1*
G1X5351Y9601D2*
G1X5351Y9015D1*
G1X5342Y9596D2*
G1X5342Y9020D1*
G1X5333Y9592D2*
G1X5333Y9024D1*
G1X5324Y9588D2*
G1X5324Y9027D1*
G1X5315Y9585D2*
G1X5315Y9031D1*
G1X5306Y9582D2*
G1X5306Y9033D1*
G1X5297Y9580D2*
G1X5297Y9036D1*
G1X5288Y9578D2*
G1X5288Y9038D1*
G1X5279Y9576D2*
G1X5279Y9039D1*
G1X5270Y9575D2*
G1X5270Y9041D1*
G1X5261Y9574D2*
G1X5261Y9042D1*
G1X5252Y9574D2*
G1X5252Y9042D1*
G1X5243Y9574D2*
G1X5243Y9042D1*
G1X5234Y9574D2*
G1X5234Y9042D1*
G1X5225Y9574D2*
G1X5225Y9042D1*
G1X5216Y9575D2*
G1X5216Y9041D1*
G1X5207Y9577D2*
G1X5207Y9039D1*
G1X5198Y9578D2*
G1X5198Y9038D1*
G1X5189Y9580D2*
G1X5189Y9036D1*
G1X5180Y9583D2*
G1X5180Y9033D1*
G1X5171Y9585D2*
G1X5171Y9030D1*
G1X5162Y9589D2*
G1X5162Y9027D1*
G1X5153Y9592D2*
G1X5153Y9023D1*
G1X5144Y9597D2*
G1X5144Y9019D1*
G1X5135Y9601D2*
G1X5135Y9015D1*
G1X5126Y9606D2*
G1X5126Y9009D1*
G1X5117Y9612D2*
G1X5117Y9004D1*
G1X5108Y9619D2*
G1X5108Y8997D1*
G1X5099Y9626D2*
G1X5099Y8990D1*
G1X5090Y9634D2*
G1X5090Y8982D1*
G1X5081Y9642D2*
G1X5081Y8973D1*
G1X5072Y9652D2*
G1X5072Y8964D1*
G1X5063Y9663D2*
G1X5063Y8952D1*
G1X5054Y9676D2*
G1X5054Y8940D1*
G1X5045Y9691D2*
G1X5045Y8925D1*
G1X5036Y9710D2*
G1X5036Y8906D1*
G1X5027Y9734D2*
G1X5027Y8882D1*
G1X5018Y8314D2*
G1X5018Y7934D1*
G1X5509Y8807D2*
G1X5469Y8807D1*
G1X5509Y8798D2*
G1X5469Y8798D1*
G1X5509Y8789D2*
G1X5469Y8789D1*
G1X5510Y8780D2*
G1X5469Y8780D1*
G1X5512Y8771D2*
G1X5469Y8771D1*
G1X5513Y8762D2*
G1X5469Y8762D1*
G1X5515Y8753D2*
G1X5469Y8753D1*
G1X5518Y8744D2*
G1X5469Y8744D1*
G1X5521Y8735D2*
G1X5469Y8735D1*
G1X5524Y8726D2*
G1X5469Y8726D1*
G1X5528Y8717D2*
G1X5469Y8717D1*
G1X5532Y8708D2*
G1X5469Y8708D1*
G1X5537Y8699D2*
G1X5469Y8699D1*
G1X5542Y8690D2*
G1X5469Y8690D1*
G1X5548Y8681D2*
G1X5469Y8681D1*
G1X5554Y8672D2*
G1X5469Y8672D1*
G1X5562Y8663D2*
G1X5469Y8663D1*
G1X5569Y8654D2*
G1X5469Y8654D1*
G1X5578Y8645D2*
G1X5469Y8645D1*
G1X5588Y8636D2*
G1X5469Y8636D1*
G1X5600Y8627D2*
G1X5469Y8627D1*
G1X5613Y8618D2*
G1X5469Y8618D1*
G1X5628Y8609D2*
G1X5469Y8609D1*
G1X5647Y8600D2*
G1X5469Y8600D1*
G1X5673Y8591D2*
G1X5469Y8591D1*
G1X4514Y8582D2*
G1X4514Y7934D1*
G1X5017Y8582D2*
G1X3254Y8582D1*
G1X5017Y8573D2*
G1X3254Y8573D1*
G1X5017Y8564D2*
G1X3254Y8564D1*
G1X5017Y8555D2*
G1X3254Y8555D1*
G1X5017Y8546D2*
G1X3254Y8546D1*
G1X5017Y8537D2*
G1X3254Y8537D1*
G1X5017Y8528D2*
G1X3254Y8528D1*
G1X5017Y8519D2*
G1X3254Y8519D1*
G1X5017Y8510D2*
G1X3254Y8510D1*
G1X5017Y8501D2*
G1X3254Y8501D1*
G1X5017Y8492D2*
G1X3254Y8492D1*
G1X5017Y8483D2*
G1X3254Y8483D1*
G1X5017Y8474D2*
G1X3254Y8474D1*
G1X7391Y8807D2*
G1X6446Y8807D1*
G1X7391Y8789D2*
G1X6445Y8789D1*
G1X7391Y8771D2*
G1X6443Y8771D1*
G1X7391Y8753D2*
G1X6439Y8753D1*
G1X7391Y8735D2*
G1X6434Y8735D1*
G1X7391Y8717D2*
G1X6427Y8717D1*
G1X7391Y8699D2*
G1X6418Y8699D1*
G1X7391Y8681D2*
G1X6407Y8681D1*
G1X7391Y8663D2*
G1X6393Y8663D1*
G1X7391Y8645D2*
G1X6376Y8645D1*
G1X7391Y8627D2*
G1X6355Y8627D1*
G1X7391Y8609D2*
G1X6326Y8609D1*
G1X7391Y8591D2*
G1X6282Y8591D1*
G1X5017Y8348D2*
G1X3254Y8348D1*
G1X5017Y8339D2*
G1X3254Y8339D1*
G1X5017Y8330D2*
G1X3254Y8330D1*
G1X5017Y8321D2*
G1X3254Y8321D1*
G1X5018Y8312D2*
G1X3254Y8312D1*
G1X5019Y8303D2*
G1X3254Y8303D1*
G1X5020Y8294D2*
G1X3254Y8294D1*
G1X5022Y8285D2*
G1X3254Y8285D1*
G1X5024Y8276D2*
G1X3254Y8276D1*
G1X5026Y8267D2*
G1X3254Y8267D1*
G1X5029Y8258D2*
G1X3254Y8258D1*
G1X5032Y8249D2*
G1X3254Y8249D1*
G1X5036Y8240D2*
G1X3254Y8240D1*
G1X5040Y8231D2*
G1X3254Y8231D1*
G1X5045Y8222D2*
G1X3254Y8222D1*
G1X5050Y8213D2*
G1X3254Y8213D1*
G1X5056Y8204D2*
G1X3254Y8204D1*
G1X5063Y8195D2*
G1X3254Y8195D1*
G1X5070Y8186D2*
G1X3254Y8186D1*
G1X5078Y8177D2*
G1X3254Y8177D1*
G1X5087Y8168D2*
G1X3254Y8168D1*
G1X5097Y8159D2*
G1X3254Y8159D1*
G1X5108Y8150D2*
G1X3254Y8150D1*
G1X5121Y8141D2*
G1X3254Y8141D1*
G1X5136Y8132D2*
G1X3254Y8132D1*
G1X5155Y8123D2*
G1X3254Y8123D1*
G1X6440Y9255D2*
G1X6440Y8861D1*
G1X6431Y9226D2*
G1X6431Y8890D1*
G1X6422Y9206D2*
G1X6422Y8910D1*
G1X6413Y9190D2*
G1X6413Y8926D1*
G1X6404Y9176D2*
G1X6404Y8940D1*
G1X6395Y9165D2*
G1X6395Y8951D1*
G1X6386Y9154D2*
G1X6386Y8962D1*
G1X6377Y9145D2*
G1X6377Y8971D1*
G1X6368Y9137D2*
G1X6368Y8979D1*
G1X6359Y9129D2*
G1X6359Y8986D1*
G1X6350Y9123D2*
G1X6350Y8993D1*
G1X6341Y9117D2*
G1X6341Y8999D1*
G1X6332Y9111D2*
G1X6332Y9004D1*
G1X5450Y10636D2*
G1X5450Y10385D1*
G1X6368Y10636D2*
G1X6368Y10385D1*
G1X6359Y10636D2*
G1X6359Y10385D1*
G1X6350Y10636D2*
G1X6350Y10385D1*
G1X6341Y10636D2*
G1X6341Y10385D1*
G1X6332Y10636D2*
G1X6332Y10385D1*
G1X6323Y10636D2*
G1X6323Y10385D1*
G1X6314Y10636D2*
G1X6314Y10385D1*
G1X6305Y10636D2*
G1X6305Y10385D1*
G1X6296Y10636D2*
G1X6296Y10385D1*
G1X6287Y10636D2*
G1X6287Y10385D1*
G1X6278Y10636D2*
G1X6278Y10385D1*
G1X6269Y10636D2*
G1X6269Y10385D1*
G1X6260Y10636D2*
G1X6260Y10385D1*
G1X6251Y10636D2*
G1X6251Y10385D1*
G1X6242Y10636D2*
G1X6242Y10385D1*
G1X6233Y10636D2*
G1X6233Y10385D1*
G1X4136Y10636D2*
G1X4136Y10404D1*
G1X6215Y10636D2*
G1X6215Y10385D1*
G1X6206Y10636D2*
G1X6206Y10385D1*
G1X6197Y10636D2*
G1X6197Y10385D1*
G1X6188Y10636D2*
G1X6188Y10385D1*
G1X6179Y10636D2*
G1X6179Y10385D1*
G1X6170Y10636D2*
G1X6170Y10385D1*
G1X6161Y10636D2*
G1X6161Y10385D1*
G1X6152Y10636D2*
G1X6152Y10385D1*
G1X6143Y10636D2*
G1X6143Y10385D1*
G1X6134Y10636D2*
G1X6134Y10385D1*
G1X6125Y10636D2*
G1X6125Y10385D1*
G1X6116Y10636D2*
G1X6116Y10385D1*
G1X6107Y10636D2*
G1X6107Y10385D1*
G1X6098Y10636D2*
G1X6098Y10385D1*
G1X6089Y10636D2*
G1X6089Y10385D1*
G1X6080Y10636D2*
G1X6080Y10385D1*
G1X6413Y10636D2*
G1X6413Y10385D1*
G1X6062Y10636D2*
G1X6062Y10385D1*
G1X6053Y10636D2*
G1X6053Y10385D1*
G1X6044Y10636D2*
G1X6044Y10385D1*
G1X7391Y10418D2*
G1X6691Y10418D1*
G1X6026Y10636D2*
G1X6026Y10385D1*
G1X6017Y10636D2*
G1X6017Y10385D1*
G1X6008Y10636D2*
G1X6008Y10385D1*
G1X5999Y10636D2*
G1X5999Y10385D1*
G1X5990Y10636D2*
G1X5990Y10385D1*
G1X5981Y10636D2*
G1X5981Y10385D1*
G1X4604Y10636D2*
G1X4604Y10439D1*
G1X4334Y10636D2*
G1X4334Y10435D1*
G1X4098Y9959D2*
G1X3254Y9959D1*
G1X7391Y8915D2*
G1X6419Y8915D1*
G1X5945Y10636D2*
G1X5945Y10385D1*
G1X7391Y8906D2*
G1X6424Y8906D1*
G1X5927Y10636D2*
G1X5927Y10385D1*
G1X7391Y8897D2*
G1X6428Y8897D1*
G1X5909Y10636D2*
G1X5909Y10385D1*
G1X7391Y8888D2*
G1X6431Y8888D1*
G1X4586Y8582D2*
G1X4586Y7934D1*
G1X7391Y8879D2*
G1X6435Y8879D1*
G1X4280Y10636D2*
G1X4280Y10404D1*
G1X4271Y10636D2*
G1X4271Y10404D1*
G1X4253Y10636D2*
G1X4253Y10404D1*
G1X4154Y10636D2*
G1X4154Y10404D1*
G1X4145Y10636D2*
G1X4145Y10404D1*
G1X3700Y10474D2*
G1X3700Y10404D1*
G1X4316Y10636D2*
G1X4316Y10416D1*
G1X4127Y10636D2*
G1X4127Y10404D1*
G1X4118Y10636D2*
G1X4118Y10404D1*
G1X4109Y10636D2*
G1X4109Y10404D1*
G1X4100Y10636D2*
G1X4100Y10404D1*
G1X4091Y10636D2*
G1X4091Y10404D1*
G1X4082Y10636D2*
G1X4082Y10404D1*
G1X4073Y10636D2*
G1X4073Y10404D1*
G1X4064Y10636D2*
G1X4064Y10404D1*
G1X4055Y10636D2*
G1X4055Y10404D1*
G1X4046Y10636D2*
G1X4046Y10404D1*
G1X4037Y10174D2*
G1X4037Y7934D1*
G1X4028Y10174D2*
G1X4028Y7934D1*
G1X4019Y10174D2*
G1X4019Y7934D1*
G1X4946Y8692D2*
G1X4946Y7934D1*
G1X4658Y8582D2*
G1X4658Y7934D1*
G1X7391Y9014D2*
G1X6314Y9014D1*
G1X5729Y10636D2*
G1X5729Y10385D1*
G1X5657Y10636D2*
G1X5657Y10385D1*
G1X6611Y10636D2*
G1X6611Y10455D1*
G1X7391Y10409D2*
G1X7273Y10409D1*
G1X3947Y10174D2*
G1X3947Y7934D1*
G1X4412Y10481D2*
G1X3254Y10481D1*
G1X3929Y10174D2*
G1X3929Y7934D1*
G1X5585Y10636D2*
G1X5585Y10385D1*
G1X5504Y10636D2*
G1X5504Y10385D1*
G1X7391Y9995D2*
G1X6446Y9995D1*
G1X7391Y9959D2*
G1X6446Y9959D1*
G1X7391Y9923D2*
G1X6446Y9923D1*
G1X4046Y8759D2*
G1X4046Y7934D1*
G1X3866Y10174D2*
G1X3866Y7934D1*
G1X3857Y10174D2*
G1X3857Y7934D1*
G1X3848Y10174D2*
G1X3848Y7934D1*
G1X3839Y10174D2*
G1X3839Y7934D1*
G1X3830Y10174D2*
G1X3830Y7934D1*
G1X3821Y10174D2*
G1X3821Y7934D1*
G1X3812Y10174D2*
G1X3812Y7934D1*
G1X3803Y10174D2*
G1X3803Y7934D1*
G1X3794Y10174D2*
G1X3794Y7934D1*
G1X3785Y10174D2*
G1X3785Y7934D1*
G1X3776Y10174D2*
G1X3776Y7934D1*
G1X3767Y10174D2*
G1X3767Y7934D1*
G1X3758Y10174D2*
G1X3758Y7934D1*
G1X3749Y10174D2*
G1X3749Y7934D1*
G1X3740Y10174D2*
G1X3740Y7934D1*
G1X3731Y10174D2*
G1X3731Y7934D1*
G1X3722Y10174D2*
G1X3722Y7934D1*
G1X3713Y10174D2*
G1X3713Y7934D1*
G1X6903Y10409D2*
G1X6702Y10409D1*
G1X6903Y10400D2*
G1X6711Y10400D1*
G1X6903Y10391D2*
G1X6720Y10391D1*
G1X6903Y10382D2*
G1X6727Y10382D1*
G1X5477Y10636D2*
G1X5477Y10385D1*
G1X5486Y10135D2*
G1X5486Y7934D1*
G1X4042Y9779D2*
G1X3254Y9779D1*
G1X7391Y9320D2*
G1X6446Y9320D1*
G1X7391Y9329D2*
G1X6445Y9329D1*
G1X7391Y9338D2*
G1X6444Y9338D1*
G1X7391Y9347D2*
G1X6443Y9347D1*
G1X7391Y9356D2*
G1X6441Y9356D1*
G1X7391Y9365D2*
G1X6439Y9365D1*
G1X7391Y9374D2*
G1X6436Y9374D1*
G1X7391Y9383D2*
G1X6433Y9383D1*
G1X7391Y9392D2*
G1X6430Y9392D1*
G1X7391Y9401D2*
G1X6426Y9401D1*
G1X7391Y9410D2*
G1X6422Y9410D1*
G1X7391Y9419D2*
G1X6417Y9419D1*
G1X7391Y9428D2*
G1X6412Y9428D1*
G1X6071Y10636D2*
G1X6071Y10385D1*
G1X6440Y10636D2*
G1X6440Y10413D1*
G1X6431Y10636D2*
G1X6431Y10405D1*
G1X6422Y10636D2*
G1X6422Y10396D1*
G1X6404Y10135D2*
G1X6404Y10034D1*
G1X6395Y10135D2*
G1X6395Y10034D1*
G1X6386Y10135D2*
G1X6386Y10034D1*
G1X6035Y10636D2*
G1X6035Y10385D1*
G1X7391Y10454D2*
G1X6618Y10454D1*
G1X6782Y10135D2*
G1X6782Y7934D1*
G1X3344Y10104D2*
G1X3344Y7934D1*
G1X7391Y9437D2*
G1X6406Y9437D1*
G1X7391Y9446D2*
G1X6399Y9446D1*
G1X7391Y9455D2*
G1X6392Y9455D1*
G1X7391Y9464D2*
G1X6384Y9464D1*
G1X4586Y10636D2*
G1X4586Y10453D1*
G1X4568Y10636D2*
G1X4568Y10464D1*
G1X4550Y10636D2*
G1X4550Y10473D1*
G1X4532Y10636D2*
G1X4532Y10480D1*
G1X5441Y8221D2*
G1X5441Y7934D1*
G1X5405Y8173D2*
G1X5405Y7934D1*
G1X5369Y8143D2*
G1X5369Y7934D1*
G1X5333Y8123D2*
G1X5333Y7934D1*
G1X5297Y8111D2*
G1X5297Y7934D1*
G1X5261Y8106D2*
G1X5261Y7934D1*
G1X7391Y8933D2*
G1X6408Y8933D1*
G1X6665Y10085D2*
G1X6665Y7934D1*
G1X7391Y8924D2*
G1X6414Y8924D1*
G1X4595Y8582D2*
G1X4595Y7934D1*
G1X3965Y10636D2*
G1X3965Y10404D1*
G1X7391Y10463D2*
G1X5383Y10463D1*
G1X6620Y10067D2*
G1X6620Y7934D1*
G1X6611Y10064D2*
G1X6611Y7934D1*
G1X6602Y10063D2*
G1X6602Y7934D1*
G1X6953Y10047D2*
G1X6953Y7934D1*
G1X7268Y10636D2*
G1X7268Y7934D1*
G1X7391Y10373D2*
G1X7273Y10373D1*
G1X7391Y10337D2*
G1X7273Y10337D1*
G1X6782Y10636D2*
G1X6782Y10385D1*
G1X6548Y10061D2*
G1X6548Y7934D1*
G1X6539Y10062D2*
G1X6539Y7934D1*
G1X6530Y10064D2*
G1X6530Y7934D1*
G1X6521Y10066D2*
G1X6521Y7934D1*
G1X6512Y10068D2*
G1X6512Y7934D1*
G1X6503Y10071D2*
G1X6503Y7934D1*
G1X6494Y10074D2*
G1X6494Y7934D1*
G1X6485Y10078D2*
G1X6485Y7934D1*
G1X6476Y10083D2*
G1X6476Y7934D1*
G1X6467Y10088D2*
G1X6467Y7934D1*
G1X6458Y10093D2*
G1X6458Y7934D1*
G1X6773Y10636D2*
G1X6773Y10385D1*
G1X5630Y10636D2*
G1X5630Y10385D1*
G1X6791Y10135D2*
G1X6791Y7934D1*
G1X6903Y10139D2*
G1X6727Y10139D1*
G1X6903Y10130D2*
G1X6720Y10130D1*
G1X6903Y10121D2*
G1X6712Y10121D1*
G1X6903Y10112D2*
G1X6702Y10112D1*
G1X6903Y10103D2*
G1X6692Y10103D1*
G1X6903Y10094D2*
G1X6679Y10094D1*
G1X6903Y10085D2*
G1X6664Y10085D1*
G1X6903Y10076D2*
G1X6646Y10076D1*
G1X6903Y10067D2*
G1X6619Y10067D1*
G1X5972Y10636D2*
G1X5972Y10385D1*
G1X4667Y10636D2*
G1X4667Y10329D1*
G1X4658Y10636D2*
G1X4658Y10360D1*
G1X4649Y10636D2*
G1X4649Y10380D1*
G1X4640Y10636D2*
G1X4640Y10396D1*
G1X4631Y10636D2*
G1X4631Y10409D1*
G1X4622Y10636D2*
G1X4622Y10420D1*
G1X4613Y10636D2*
G1X4613Y10430D1*
G1X5513Y10636D2*
G1X5513Y10385D1*
G1X6764Y10636D2*
G1X6764Y10385D1*
G1X6764Y10135D2*
G1X6764Y7934D1*
G1X6755Y10636D2*
G1X6755Y10385D1*
G1X6755Y10135D2*
G1X6755Y7934D1*
G1X6746Y10636D2*
G1X6746Y10385D1*
G1X6746Y10135D2*
G1X6746Y7934D1*
G1X6737Y10636D2*
G1X6737Y10385D1*
G1X6737Y10135D2*
G1X6737Y7934D1*
G1X6728Y10636D2*
G1X6728Y10385D1*
G1X6728Y10135D2*
G1X6728Y7934D1*
G1X4505Y10636D2*
G1X4505Y10486D1*
G1X4496Y10636D2*
G1X4496Y10488D1*
G1X4487Y10636D2*
G1X4487Y10489D1*
G1X4478Y10636D2*
G1X4478Y10489D1*
G1X4469Y10636D2*
G1X4469Y10489D1*
G1X4460Y10636D2*
G1X4460Y10489D1*
G1X4451Y10636D2*
G1X4451Y10488D1*
G1X4442Y10636D2*
G1X4442Y10487D1*
G1X4433Y10636D2*
G1X4433Y10486D1*
G1X4424Y10636D2*
G1X4424Y10484D1*
G1X4415Y10636D2*
G1X4415Y10481D1*
G1X4406Y10636D2*
G1X4406Y10478D1*
G1X4397Y10636D2*
G1X4397Y10475D1*
G1X4388Y10636D2*
G1X4388Y10471D1*
G1X4379Y10636D2*
G1X4379Y10467D1*
G1X4370Y10636D2*
G1X4370Y10462D1*
G1X4361Y10636D2*
G1X4361Y10456D1*
G1X4352Y10636D2*
G1X4352Y10450D1*
G1X4343Y10636D2*
G1X4343Y10443D1*
G1X4676Y10636D2*
G1X4676Y10034D1*
G1X4325Y10636D2*
G1X4325Y10426D1*
G1X3330Y10283D2*
G1X3254Y10283D1*
G1X4307Y10174D2*
G1X4307Y10034D1*
G1X4298Y10174D2*
G1X4298Y10034D1*
G1X4289Y10174D2*
G1X4289Y10034D1*
G1X5054Y10409D2*
G1X4631Y10409D1*
G1X5048Y10400D2*
G1X4637Y10400D1*
G1X5043Y10391D2*
G1X4643Y10391D1*
G1X5039Y10382D2*
G1X4648Y10382D1*
G1X5035Y10373D2*
G1X4652Y10373D1*
G1X5031Y10364D2*
G1X4656Y10364D1*
G1X5028Y10355D2*
G1X4660Y10355D1*
G1X5025Y10346D2*
G1X4662Y10346D1*
G1X5023Y10337D2*
G1X4665Y10337D1*
G1X5021Y10328D2*
G1X4667Y10328D1*
G1X5019Y10319D2*
G1X4668Y10319D1*
G1X5018Y10310D2*
G1X4670Y10310D1*
G1X5017Y10301D2*
G1X4670Y10301D1*
G1X5017Y10292D2*
G1X4671Y10292D1*
G1X5017Y10283D2*
G1X4670Y10283D1*
G1X5017Y10220D2*
G1X4658Y10220D1*
G1X5017Y10211D2*
G1X4654Y10211D1*
G1X5017Y10202D2*
G1X4650Y10202D1*
G1X5017Y10193D2*
G1X4646Y10193D1*
G1X5017Y10184D2*
G1X4640Y10184D1*
G1X5017Y10175D2*
G1X4634Y10175D1*
G1X5130Y10481D2*
G1X4529Y10481D1*
G1X5116Y10472D2*
G1X4553Y10472D1*
G1X5017Y10166D2*
G1X4628Y10166D1*
G1X4394Y10034D2*
G1X4266Y10034D1*
G1X5017Y10157D2*
G1X4624Y10157D1*
G1X5017Y10148D2*
G1X4624Y10148D1*
G1X5017Y10139D2*
G1X4624Y10139D1*
G1X5017Y10130D2*
G1X4624Y10130D1*
G1X5017Y10121D2*
G1X4624Y10121D1*
G1X5017Y10112D2*
G1X4624Y10112D1*
G1X7391Y10346D2*
G1X7273Y10346D1*
G1X7391Y7934D2*
G1X6335Y7934D1*
G1X6341Y8617D2*
G1X6341Y7934D1*
G1X6086Y8096D2*
G1X3254Y8096D1*
G1X6060Y8087D2*
G1X3254Y8087D1*
G1X6041Y8078D2*
G1X3254Y8078D1*
G1X6027Y8069D2*
G1X3254Y8069D1*
G1X6014Y8060D2*
G1X3254Y8060D1*
G1X6003Y8051D2*
G1X3254Y8051D1*
G1X5994Y8042D2*
G1X3254Y8042D1*
G1X5986Y8033D2*
G1X3254Y8033D1*
G1X7391Y8105D2*
G1X3254Y8105D1*
G1X5972Y8015D2*
G1X3254Y8015D1*
G1X5966Y8006D2*
G1X3254Y8006D1*
G1X5961Y7997D2*
G1X3254Y7997D1*
G1X5957Y7988D2*
G1X3254Y7988D1*
G1X5953Y7979D2*
G1X3254Y7979D1*
G1X5949Y7970D2*
G1X3254Y7970D1*
G1X5946Y7961D2*
G1X3254Y7961D1*
G1X5944Y7952D2*
G1X3254Y7952D1*
G1X5509Y10022D2*
G1X5469Y10022D1*
G1X5509Y10013D2*
G1X5469Y10013D1*
G1X5509Y10004D2*
G1X5469Y10004D1*
G1X5509Y9995D2*
G1X5469Y9995D1*
G1X5509Y9986D2*
G1X5469Y9986D1*
G1X5509Y9977D2*
G1X5469Y9977D1*
G1X5509Y9968D2*
G1X5469Y9968D1*
G1X5509Y9959D2*
G1X5469Y9959D1*
G1X5509Y9950D2*
G1X5469Y9950D1*
G1X5509Y9941D2*
G1X5469Y9941D1*
G1X5509Y9932D2*
G1X5469Y9932D1*
G1X5509Y9923D2*
G1X5469Y9923D1*
G1X5509Y9914D2*
G1X5469Y9914D1*
G1X5509Y9905D2*
G1X5469Y9905D1*
G1X5509Y9896D2*
G1X5469Y9896D1*
G1X5509Y9887D2*
G1X5469Y9887D1*
G1X5509Y9878D2*
G1X5469Y9878D1*
G1X5509Y9869D2*
G1X5469Y9869D1*
G1X5509Y9860D2*
G1X5469Y9860D1*
G1X5509Y9851D2*
G1X5469Y9851D1*
G1X5509Y9842D2*
G1X5469Y9842D1*
G1X5509Y9833D2*
G1X5469Y9833D1*
G1X5509Y9824D2*
G1X5469Y9824D1*
G1X5509Y9815D2*
G1X5469Y9815D1*
G1X6377Y10636D2*
G1X6377Y10385D1*
G1X6568Y10060D2*
G75*
G3X6724Y10135I0J200D1*
G1X6412Y10135D2*
G3X6568Y10060I156J125D1*
G1X4671Y10289D2*
G3X4471Y10489I-200J0D1*
G1X6335Y7934D2*
G3X6138Y8102I-197J-32D1*
G1X6568Y10460D2*
G3X6412Y10385I0J-200D1*
G1X5243Y10511D2*
G3X5017Y10285I0J-226D1*
G1X5017Y9800D2*
G3X5243Y9574I226J0D1*
G3X5469Y9800I0J226D1*
G1X5446Y10385D2*
G3X5243Y10511I-203J-100D1*
G1X4752Y9582D2*
G3X4978Y9808I0J226D1*
G3X4752Y10034I-226J0D1*
G1X4624Y10161D2*
G3X4670Y10289I-153J127D1*
G1X4266Y10034D2*
G3X4040Y9808I0J-226D1*
G3X4266Y9582I226J0D1*
G1X4752Y9082D2*
G3X4978Y9308I0J226D1*
G3X4752Y9534I-226J0D1*
G1X4266Y9534D2*
G3X4040Y9308I0J-226D1*
G3X4266Y9082I226J0D1*
G1X4752Y8582D2*
G3X4978Y8808I0J226D1*
G3X4752Y9034I-226J0D1*
G1X4266Y9034D2*
G3X4040Y8808I0J-226D1*
G3X4266Y8582I226J0D1*
G1X5469Y8816D2*
G3X5243Y9042I-226J0D1*
G3X5017Y8816I0J-226D1*
G1X5017Y8331D2*
G3X5243Y8105I226J0D1*
G3X5469Y8331I0J226D1*
G1X6220Y8582D2*
G3X6446Y8808I0J226D1*
G3X6220Y9034I-226J0D1*
G1X5735Y9034D2*
G3X5509Y8808I0J-226D1*
G3X5735Y8582I226J0D1*
G1X6220Y9082D2*
G3X6446Y9308I0J226D1*
G3X6220Y9534I-226J0D1*
G1X5735Y9534D2*
G3X5509Y9308I0J-226D1*
G3X5735Y9082I226J0D1*
G1X6724Y10385D2*
G3X6568Y10460I-156J-125D1*
G1X4471Y10489D2*
G3X4307Y10404I0J-200D1*
G1X4307Y10174D2*
G3X4394Y10105I163J116D1*
G1X6138Y8102D2*
G3X5940Y7934I0J-200D1*
G74*
G1X6530Y3780D2*
G54D36*
G1X6880Y3430D1*
G1X6880Y2040D1*
G1X6620Y1780D1*
G1X6180Y1780D1*
G1X6080Y1880D1*
G1X6080Y2780D1*
G1X5830Y3030D1*
G1X1772Y3030D1*
G1X1771Y3030D1*
G1X580Y3880D2*
G1X580Y4080D1*
G1X880Y4380D1*
G1X880Y4780D1*
G1X1080Y4980D1*
G1X1641Y4980D1*
G1X1660Y4999D1*
G1X1771Y4999D1*
G1X11680Y3780D2*
G1X11680Y1980D1*
G1X11480Y1780D1*
G1X11080Y1780D1*
G1X10880Y1980D1*
G1X10880Y3340D1*
G1X11120Y3580D1*
G1X11120Y5340D1*
G1X10040Y6420D1*
G1X5870Y6420D1*
G1X5530Y6080D1*
G1X3780Y6080D1*
G1X3680Y5980D1*
G1X2450Y5980D1*
G1X2250Y6180D1*
G1X2250Y6197D1*
G1X1771Y5589D2*
G1X1969Y5589D1*
G1X1970Y5590D1*
G1X2090Y5590D1*
G1X2250Y5430D1*
G1X2250Y5370D1*
G1X10280Y7080D2*
G1X9780Y6580D1*
G1X4080Y6580D1*
G1X4040Y6620D1*
G1X3480Y6620D1*
G1X3040Y6180D1*
G1X2680Y6180D1*
G1X2252Y6607D1*
G1X4471Y10289D2*
G1X4509Y10251D1*
G1X4509Y9808D1*
G1X6000Y7400D2*
G1X6020Y7380D1*
G1X6280Y7380D1*
G1X6280Y6980D1*
G1X6040Y6740D1*
G1X4320Y6740D1*
G1X4280Y6780D1*
G1X3960Y6780D1*
G1X3760Y6980D1*
G1X1771Y3621D2*
G1X1880Y3621D1*
G1X1881Y3620D1*
G1X2480Y3620D1*
G1X6000Y7400D2*
G1X6020Y7380D1*
G1X6280Y7380D1*
G1X10320Y7380D1*
G1X11280Y6420D1*
G1X11280Y2180D1*
G1X1771Y2440D2*
G1X1575Y2440D1*
G1X1080Y2440D1*
G1X2280Y4020D2*
G1X1885Y4020D1*
G1X1880Y4015D1*
G1X1771Y4015D1*
G1X1771Y4802D2*
G1X1878Y4802D1*
G1X1880Y4800D1*
G1X6500Y4800D1*
G1X8580Y2720D1*
G1X8580Y2210D1*
G1X210Y6595D2*
G1X231Y6574D1*
G1X1771Y6574D1*
G1X4471Y10289D2*
G1X3515Y10289D1*
G1X1771Y4211D2*
G1X1580Y4211D1*
G1X1571Y4220D1*
G1X1320Y4220D1*
G1X500Y3400D1*
G1X2250Y5370D2*
G1X2280Y5370D1*
G1X2410Y5240D1*
G1X2440Y5240D1*
G1X2500Y5180D1*
G1X6710Y5180D1*
G1X7510Y4380D1*
G1X9480Y4380D1*
G1X9575Y4285D1*
G1X9575Y4035D1*
G1X1771Y6770D2*
G1X2089Y6770D1*
G1X2252Y6607D1*
G1X1771Y3227D2*
G1X1880Y3227D1*
G1X1883Y3230D1*
G1X5880Y3230D1*
G1X6280Y2830D1*
G1X6280Y2280D1*
G1X6380Y2180D1*
G1X1771Y3424D2*
G1X1880Y3424D1*
G1X1886Y3430D1*
G1X2230Y3430D1*
G1X2280Y3380D1*
G1X5500Y3380D1*
G1X6200Y4080D1*
G1X6830Y4080D1*
G1X1771Y1849D2*
G1X1770Y1850D1*
G1X1160Y1850D1*
G1X1030Y1980D1*
G1X1771Y4605D2*
G1X1680Y4605D1*
G1X1705Y4580D1*
G1X2080Y4580D1*
G1X2150Y4650D1*
G1X2610Y4650D1*
G1X3120Y4140D1*
G1X3120Y3710D1*
G1X2250Y6197D2*
G1X2067Y6380D1*
G1X1970Y6380D1*
G1X1967Y6377D1*
G1X1771Y6377D1*
G1X212Y5397D2*
G1X217Y5393D1*
G1X1771Y5393D1*
G1X2310Y4410D2*
G1X1773Y4410D1*
G1X1771Y4408D1*
G1X1771Y3818D2*
G1X1577Y3818D1*
G1X1575Y3820D1*
G1X1280Y3820D1*
G1X1771Y4999D2*
G1X1772Y5000D1*
G1X6630Y5000D1*
G1X7850Y3780D1*
G1X8830Y3780D1*
G1X680Y2580D2*
G1X220Y2580D1*
G1X120Y2680D1*
G1X120Y4530D1*
G1X786Y5196D1*
G1X1771Y5196D1*
G1X327Y1687D2*
G54D40*
G1X362Y1652D1*
G1X1771Y1652D1*
G1X1771Y6967D2*
G1X503Y6967D1*
G1X450Y7020D1*
G1X450Y7380D1*
G1X7088Y9812D2*
G1X7084Y9808D1*
G1X5977Y9808D1*
G1X5322Y2145D2*
G1X5327Y2150D1*
G1X5327Y2221D1*
G1X5306Y2243D1*
G1X1771Y2243D1*
G1X5830Y610D2*
G1X5835Y615D1*
G1X5835Y2627D1*
G1X5826Y2637D1*
G1X1771Y2637D1*
G1X5243Y10042D2*
G1X5243Y10103D1*
G1X5400Y10260D1*
G1X6568Y10260D1*
G1X360Y2865D2*
G1X391Y2833D1*
G1X1771Y2833D1*
G1X6568Y10260D2*
G1X7060Y10260D1*
G1X7088Y10232D1*
G1X6085Y270D2*
G1X2257Y270D1*
G1X1771Y756D1*
G1X1771Y1259D1*
G1X5080Y638D2*
G1X5080Y653D1*
G1X3687Y2046D1*
G1X1771Y2046D1*
G1X6080Y6180D2*
G1X6480Y5780D1*
G1X8030Y5780D1*
G1X8430Y5380D1*
G1X10080Y5380D1*
G1X10880Y4580D1*
G1X10880Y3780D1*
G1X3480Y1660D2*
G1X3276Y1456D1*
G1X1771Y1456D1*
G1X1771Y7361D2*
G1X2269Y7361D1*
G1X2558Y7650D1*
G1X11210Y7650D1*
G1X12480Y6380D1*
G1X12480Y4150D1*
G1X12840Y3790D1*
G1X2250Y5770D2*
G1X2640Y5380D1*
G1X4090Y5380D1*
G1X4290Y5580D1*
G1X6550Y5580D1*
G1X7050Y5080D1*
G1X9080Y5080D1*
G1X10330Y3830D1*
G1X1771Y5983D2*
G1X1880Y5983D1*
G1X1883Y5980D1*
G1X2110Y5980D1*
G1X2250Y5840D1*
G1X2250Y5770D1*
G1X2250Y6970D2*
G1X2250Y7027D1*
G1X2113Y7164D1*
G1X1771Y7164D1*
G1X3760Y7380D2*
G1X5520Y7380D1*
G1X5920Y6980D1*
G1X210Y5787D2*
G1X211Y5786D1*
G1X1771Y5786D1*
G1X1771Y7361D2*
G1X1777Y7361D1*
G1X1777Y7367D1*
G1X2252Y7367D1*
G1X1771Y1456D2*
G1X3276Y1456D1*
G1X3480Y1660D1*
G1X1771Y6180D2*
G1X210Y6180D1*
G1X13659Y2216D2*
G54D45*
G1X13680Y2237D1*
G1X13680Y3453D1*
G1X12750Y4383D1*
G1X12749Y4383D1*
G1X13169Y5452D2*
G1X13770Y6052D1*
G1X13770Y6660D1*
G1X15083Y7973D1*
G1X15083Y9117D1*
G1X13169Y5452D2*
G1X13169Y4383D1*
G1X15083Y10117D2*
G1X14602Y9637D1*
G1X14602Y7852D1*
G1X13480Y6730D1*
G1X13480Y6182D1*
G1X12749Y5452D1*
G1X12749Y4383D1*
G1X13169Y4383D2*
G1X13169Y4355D1*
G1X14459Y3066D1*
G1X6301Y9808D2*
G54D56*
G1X5977Y9808D1*
G1X5977Y8889D2*
G1X5977Y8808D1*
G1X5977Y8727D2*
G1X5977Y8808D1*
G1X5654Y8808D2*
G1X5977Y8808D1*
G1X6301Y8808D2*
G1X5977Y8808D1*
G1X5977Y9889D2*
G1X5977Y9808D1*
G1X5977Y9727D2*
G1X5977Y9808D1*
G1X5654Y9808D2*
G1X5977Y9808D1*
G54D10*
G1X13169Y4383D3*
G1X12749Y4383D3*
G1X7088Y10232D3*
G1X7088Y9812D3*
G1X3515Y10289D3*
G1X3515Y9869D3*
G1X13169Y5452D3*
G1X12749Y5452D3*
G54D12*
G1X15083Y9117D3*
G54D13*
G1X15083Y10117D3*
G54D26*
G1X491Y511D3*
G1X491Y8306D3*
G54D27*
G1X1771Y1259D3*
G1X1771Y1456D3*
G1X1771Y1652D3*
G1X1771Y1849D3*
G1X1771Y2046D3*
G1X1771Y2243D3*
G1X1771Y2440D3*
G1X1771Y2637D3*
G1X1771Y2833D3*
G1X1771Y3030D3*
G1X1771Y3227D3*
G1X1771Y3424D3*
G1X1771Y3621D3*
G1X1771Y3818D3*
G1X1771Y4015D3*
G1X1771Y4211D3*
G1X1771Y4408D3*
G1X1771Y4605D3*
G1X1771Y4802D3*
G1X1771Y4999D3*
G1X1771Y5196D3*
G1X1771Y5393D3*
G1X1771Y5589D3*
G1X1771Y5786D3*
G1X1771Y5983D3*
G1X1771Y6180D3*
G1X1771Y6377D3*
G1X1771Y6574D3*
G1X1771Y6770D3*
G1X1771Y6967D3*
G1X1771Y7164D3*
G1X1771Y7361D3*
G1X1771Y7558D3*
G54D33*
G1X14459Y3066D3*
G1X14959Y6566D3*
G1X14109Y8116D3*
G1X13009Y9116D3*
G1X11959Y9566D3*
G1X10759Y9666D3*
G1X9559Y9566D3*
G1X8509Y9116D3*
G1X9759Y1166D3*
G1X10759Y1066D3*
G1X11759Y1166D3*
G1X12609Y1466D3*
G54D34*
G1X13659Y2216D3*
G54D50*
G1X5322Y2145D3*
G1X6785Y9365D3*
G1X6568Y10260D3*
G1X5585Y4042D3*
G1X4471Y10289D3*
G1X5080Y638D3*
G1X5830Y610D3*
G1X6085Y270D3*
G1X3602Y9400D3*
G1X4832Y3867D3*
G1X3777Y6380D3*
G1X2250Y5370D3*
G1X2250Y5770D3*
G1X210Y5005D3*
G1X212Y5397D3*
G1X210Y5787D3*
G1X210Y6180D3*
G1X2250Y6197D3*
G1X210Y6595D3*
G1X2252Y6607D3*
G1X2250Y6970D3*
G1X2252Y7367D3*
G1X7602Y9630D3*
G1X6138Y7902D3*
G1X360Y2865D3*
G1X327Y1687D3*
G1X6218Y4402D3*
G1X12330Y3870D3*
G1X3840Y4380D3*
G1X2340Y7920D3*
G1X450Y7380D3*
G1X570Y4637D3*
G54D52*
G1X5243Y8574D3*
G1X5243Y10042D3*
G54D53*
G1X5977Y9308D3*
G1X5977Y8808D3*
G1X4509Y8808D3*
G1X4509Y9308D3*
G1X4509Y9808D3*
G54D54*
G1X5977Y9808D3*
G54D55*
G1X2758Y929D3*
G1X13939Y929D3*
G54D65*
G1X6530Y3780D3*
G1X580Y3880D3*
G1X8680Y4780D3*
G1X8210Y9910D3*
G1X4080Y3910D3*
G1X6080Y6180D3*
G1X10880Y3780D3*
G1X3880Y5780D3*
G1X1880Y8380D3*
G1X11680Y3780D3*
G1X9680Y2180D3*
G1X12080Y2180D3*
G1X10580Y2210D3*
G1X12080Y4380D3*
G1X10280Y7080D3*
G1X12840Y3790D3*
G1X10330Y3830D3*
G1X3760Y6980D3*
G1X2480Y3620D3*
G1X6860Y1580D3*
G1X6000Y7400D3*
G1X11280Y2180D3*
G1X1080Y2440D3*
G1X5580Y1190D3*
G1X7480Y880D3*
G1X2280Y4020D3*
G1X8580Y2210D3*
G1X500Y3400D3*
G1X9570Y4000D3*
G1X3760Y7380D3*
G1X5920Y6980D3*
G1X6380Y2180D3*
G1X7990Y5380D3*
G1X11500Y8380D3*
G1X6830Y4080D3*
G1X1030Y1980D3*
G1X10100Y8580D3*
G1X8480Y5700D3*
G1X3120Y3710D3*
G1X9380Y1780D3*
G1X4330Y4130D3*
G1X8070Y1980D3*
G1X2310Y4410D3*
G1X1280Y3820D3*
G1X8830Y3780D3*
G1X9080Y2180D3*
G1X680Y2580D3*
G1X3480Y1660D3*
G1X7590Y4780D3*
G1X12900Y7180D3*
M2*
