%
T1C0.0250F200S100
X001190Y008050
X001230Y004220
X003700Y008050
X003990Y003400
X005240Y005900
X005300Y004830
X005240Y010900
X006700Y003080
X007140Y007950
X007740Y005900
X009600Y005330
X009890Y004080
X010240Y009220
X010240Y010900
X010970Y004390
X011090Y005320
X013100Y010930
X013140Y004870
X013140Y012620
X013500Y003400
X014950Y003450
X015010Y011640
X015180Y009490
X016010Y005080
X016220Y008130
X018190Y008120
X018400Y012280
X018900Y003500
T2C0.0400F200S100
X001720Y006890
X002220Y010390
X002570Y005340
X003020Y011240
X003670Y004340
X004070Y011990
X004720Y003890
X004920Y012290
X005920Y003790
X006920Y012290
X005920Y012390
X007120Y003890
X008170Y004340
M30
