*
%LPD*%
%LNNECKC.TOP*%
%FSLAX24Y24*%
%MOIN*%
%AD*%
%ADD10R,0.095700X0.095700*%
%ADD11O,0.013800X0.061000*%
%ADD12O,0.061000X0.013800*%
%ADD13R,0.061000X0.013800*%
%ADD14R,0.022000X0.022000*%
%ADD15R,0.038000X0.032000*%
%ADD16R,0.021600X0.141700*%
%ADD17R,0.021600X0.122000*%
%ADD18R,0.021600X0.102300*%
%ADD19R,0.039400X0.086600*%
%ADD20R,0.039400X0.041300*%
%ADD21O,0.025000X0.086000*%
%ADD22R,0.025000X0.086000*%
%ADD23R,0.050000X0.050000*%
%ADD24C,0.076000*%
%ADD25R,0.076000X0.076000*%
%ADD26C,0.050000*%
%ADD27C,0.020000*%
%ADD28C,0.012000*%
%ADD29C,0.032000*%
%ADD30C,0.050000*%
%ADD72C,0.021000*%
G54D27*
%SRX1Y1I0.0J0.0*%
G1X4634Y12760D2*
G1X4230Y12760D1*
G1X6830Y9270D2*
G1X6830Y8710D1*
G1X6830Y9930D2*
G1X6830Y9370D1*
G1X11540Y9880D2*
G1X7550Y9880D1*
G1X11540Y10600D2*
G1X10534Y10600D1*
G1X11540Y3040D2*
G1X11405Y3040D1*
G1X6830Y9370D2*
G1X6830Y9270D1*
G1X4620Y6270D2*
G1X4620Y5570D1*
G1X11540Y13120D2*
G1X4230Y13120D1*
G1X7370Y8710D2*
G1X7370Y8301D1*
G1X7930Y11040D2*
G1X7930Y10480D1*
G1X7510Y10480D1*
G1X9837Y10780D2*
G1X7930Y10780D1*
G1X7510Y10480D2*
G1X7370Y10480D1*
G1X11540Y13390D2*
G1X4230Y13390D1*
G1X11540Y7900D2*
G1X7557Y7900D1*
G1X11280Y4945D2*
G1X11280Y4673D1*
G1X3260Y3680D2*
G1X3260Y2860D1*
G1X3260Y3680D2*
G1X300Y3680D1*
G1X300Y8540D2*
G1X300Y3680D1*
G1X4230Y8540D2*
G1X300Y8540D1*
G1X10754Y3040D2*
G1X9589Y3040D1*
G1X10020Y3680D2*
G1X10020Y2860D1*
G1X11540Y5050D2*
G1X11540Y2905D1*
G1X10380Y3415D2*
G1X10380Y2860D1*
G1X10200Y3595D2*
G1X10200Y2860D1*
G1X9183Y5380D2*
G1X9005Y5380D1*
G1X9837Y9340D2*
G1X7550Y9340D1*
G1X3570Y3400D2*
G1X3260Y3400D1*
G1X8760Y13390D2*
G1X8760Y6730D1*
G1X11540Y5510D2*
G1X11464Y5510D1*
G1X8760Y4974D2*
G1X8760Y2860D1*
G1X11540Y5560D2*
G1X11435Y5560D1*
G1X9120Y13390D2*
G1X9120Y6730D1*
G1X6960Y6270D2*
G1X6960Y5570D1*
G1X7792Y3940D2*
G1X7668Y3940D1*
G1X8580Y13390D2*
G1X8580Y6730D1*
G1X8220Y13390D2*
G1X8220Y6730D1*
G1X8400Y3840D2*
G1X8400Y2860D1*
G1X10740Y3054D2*
G1X10740Y2860D1*
G1X7510Y11040D2*
G1X7370Y11040D1*
G1X8040Y3805D2*
G1X8040Y2860D1*
G1X8814Y3040D2*
G1X7118Y3040D1*
G1X8040Y13390D2*
G1X8040Y6730D1*
G1X6430Y4020D2*
G1X6419Y4020D1*
G1X1560Y5560D2*
G1X300Y5560D1*
G1X1583Y5920D2*
G1X300Y5920D1*
G1X4260Y3078D2*
G1X4260Y2860D1*
G1X5160Y3560D2*
G1X5160Y2860D1*
G1X2820Y8540D2*
G1X2820Y6730D1*
G1X4800Y3346D2*
G1X4800Y2860D1*
G1X4620Y3349D2*
G1X4620Y2860D1*
G1X5520Y3412D2*
G1X5520Y2860D1*
G1X2280Y8540D2*
G1X2280Y6635D1*
G1X4080Y2990D2*
G1X4080Y2860D1*
G1X3774Y3760D2*
G1X300Y3760D1*
G1X1635Y4660D2*
G1X300Y4660D1*
G1X7320Y10480D2*
G1X7320Y10405D1*
G1X3000Y4997D2*
G1X3000Y4570D1*
G1X3180Y4090D2*
G1X3180Y3680D1*
G1X7550Y9930D2*
G1X7550Y9370D1*
G1X1920Y8540D2*
G1X1920Y7402D1*
G1X1377Y6460D2*
G1X300Y6460D1*
G1X3180Y8540D2*
G1X3180Y6730D1*
G1X1560Y3960D2*
G1X1560Y3680D1*
G1X7680Y10480D2*
G1X7680Y6730D1*
G1X7650Y11040D2*
G1X7650Y10760D1*
G1X6910Y8440D2*
G1X3856Y8440D1*
G1X4453Y12580D2*
G1X4230Y12580D1*
G1X11540Y13300D2*
G1X4230Y13300D1*
G1X6830Y9700D2*
G1X4230Y9700D1*
G1X7500Y3492D2*
G1X7500Y2860D1*
G1X2820Y4110D2*
G1X2820Y3680D1*
G1X771Y8080D2*
G1X300Y8080D1*
G1X1560Y8540D2*
G1X1560Y8249D1*
G1X6698Y10420D2*
G1X4230Y10420D1*
G1X11540Y3220D2*
G1X11225Y3220D1*
G1X6835Y10240D2*
G1X4230Y10240D1*
G1X6830Y9160D2*
G1X4230Y9160D1*
G1X11540Y3400D2*
G1X11045Y3400D1*
G1X3440Y7720D2*
G1X1450Y7720D1*
G1X3360Y8540D2*
G1X3360Y8296D1*
G1X1020Y3856D2*
G1X1020Y3680D1*
G1X1181Y7000D2*
G1X300Y7000D1*
G1X6856Y8260D2*
G1X4064Y8260D1*
G1X840Y4064D2*
G1X840Y3680D1*
G1X11540Y7360D2*
G1X2005Y7360D1*
G1X11540Y7180D2*
G1X2187Y7180D1*
G1X11540Y7000D2*
G1X2259Y7000D1*
G1X11540Y6820D2*
G1X2265Y6820D1*
G1X1174Y6820D2*
G1X300Y6820D1*
G1X3180Y5110D2*
G1X3180Y4590D1*
G1X9660Y4914D2*
G1X9660Y4431D1*
G1X2285Y6640D2*
G1X2210Y6640D1*
G1X3223Y4660D2*
G1X2285Y4660D1*
G1X2460Y4110D2*
G1X2460Y3680D1*
G1X1560Y5380D2*
G1X300Y5380D1*
G1X1745Y6100D2*
G1X300Y6100D1*
G1X3441Y4840D2*
G1X2799Y4840D1*
G1X1925Y6280D2*
G1X300Y6280D1*
G1X1200Y3801D2*
G1X1200Y3680D1*
G1X1740Y4555D2*
G1X1740Y3680D1*
G1X4172Y3940D2*
G1X4047Y3940D1*
G1X2640Y8540D2*
G1X2640Y6730D1*
G1X822Y4120D2*
G1X300Y4120D1*
G1X917Y3940D2*
G1X300Y3940D1*
G1X480Y8540D2*
G1X480Y3680D1*
G1X9509Y5740D2*
G1X8128Y5740D1*
G1X10920Y3973D2*
G1X10920Y3525D1*
G1X10560Y8948D2*
G1X10560Y5759D1*
G1X10115Y5560D2*
G1X9951Y5560D1*
G1X10140Y5200D2*
G1X9999Y5200D1*
G1X8814Y3940D2*
G1X8547Y3940D1*
G1X10140Y4840D2*
G1X9589Y4840D1*
G1X11100Y4900D2*
G1X11100Y4789D1*
G1X11460Y5050D2*
G1X11460Y2985D1*
G1X11540Y4120D2*
G1X11292Y4120D1*
G1X7140Y3340D2*
G1X7140Y2860D1*
G1X7320Y3377D2*
G1X7320Y2860D1*
G1X10674Y5380D2*
G1X10600Y5380D1*
G1X10745Y5560D2*
G1X10600Y5560D1*
G1X10920Y4936D2*
G1X10920Y4807D1*
G1X10796Y5020D2*
G1X10600Y5020D1*
G1X10600Y5630D2*
G1X10600Y4589D1*
G1X10740Y4038D2*
G1X10740Y3705D1*
G1X10740Y5088D2*
G1X10740Y4741D1*
G1X11540Y3940D2*
G1X10600Y3940D1*
G1X5700Y11886D2*
G1X5700Y6730D1*
G1X4620Y11829D2*
G1X4620Y6730D1*
G1X2460Y6165D2*
G1X2460Y5879D1*
G1X2100Y5805D2*
G1X2100Y5625D1*
G1X1920Y4375D2*
G1X1920Y3680D1*
G1X4980Y3405D2*
G1X4980Y2860D1*
G1X7049Y7540D2*
G1X300Y7540D1*
G1X2460Y8540D2*
G1X2460Y6730D1*
G1X4260Y11474D2*
G1X4260Y6730D1*
G1X4440Y11583D2*
G1X4440Y6730D1*
G1X4800Y11753D2*
G1X4800Y6730D1*
G1X5520Y10587D2*
G1X5520Y6730D1*
G1X4980Y10570D2*
G1X4980Y6730D1*
G1X3540Y7662D2*
G1X3540Y6730D1*
G1X4080Y7871D2*
G1X4080Y6730D1*
G1X6420Y12061D2*
G1X6420Y6730D1*
G1X11540Y5050D2*
G1X11412Y5050D1*
G1X9480Y13390D2*
G1X9480Y6730D1*
G1X11540Y7720D2*
G1X7491Y7720D1*
G1X8625Y5110D2*
G1X8814Y4920D1*
G1X9660Y3728D2*
G1X9660Y2860D1*
G1X10380Y8824D2*
G1X10380Y5945D1*
G1X10140Y5380D2*
G1X10017Y5380D1*
G1X9935Y5740D2*
G1X9691Y5740D1*
G1X10140Y4480D2*
G1X10018Y4480D1*
G1X9248Y5560D2*
G1X8787Y5560D1*
G1X8814Y4920D2*
G1X8814Y2860D1*
G1X9660Y6015D2*
G1X9660Y5746D1*
G1X11460Y13390D2*
G1X11460Y5519D1*
G1X10395Y3400D2*
G1X9589Y3400D1*
G1X9840Y5835D2*
G1X9840Y5675D1*
G1X8883Y5502D2*
G1X9164Y5221D1*
G1X6600Y5110D2*
G1X6600Y4069D1*
G1X11540Y8080D2*
G1X7539Y8080D1*
G1X10740Y13390D2*
G1X10740Y5552D1*
G1X9480Y6195D2*
G1X9480Y5732D1*
G1X10575Y3220D2*
G1X9589Y3220D1*
G1X6060Y6270D2*
G1X6060Y5570D1*
G1X7320Y6270D2*
G1X7320Y5570D1*
G1X9618Y3760D2*
G1X9589Y3760D1*
G1X10140Y4660D2*
G1X9589Y4660D1*
G1X11540Y5920D2*
G1X10405Y5920D1*
G1X10648Y4120D2*
G1X10600Y4120D1*
G1X3170Y4570D2*
G1X2375Y4570D1*
G1X5041Y6270D2*
G1X2565Y6270D1*
G1X4220Y4120D2*
G1X4174Y4120D1*
G1X8940Y13390D2*
G1X8940Y6730D1*
G1X8814Y3400D2*
G1X7370Y3400D1*
G1X6830Y8800D2*
G1X4230Y8800D1*
G1X818Y4300D2*
G1X300Y4300D1*
G1X1020Y8540D2*
G1X1020Y8434D1*
G1X9120Y6270D2*
G1X9120Y5265D1*
G1X8625Y5110D2*
G1X5613Y5110D1*
G1X5700Y6270D2*
G1X5700Y5570D1*
G1X2280Y4110D2*
G1X2280Y3680D1*
G1X3610Y3220D2*
G1X3260Y3220D1*
G1X4440Y13390D2*
G1X4440Y12558D1*
G1X4852Y5740D2*
G1X2947Y5740D1*
G1X7680Y5110D2*
G1X7680Y4590D1*
G1X6060Y13390D2*
G1X6060Y12922D1*
G1X6690Y10780D2*
G1X5642Y10780D1*
G1X11540Y8800D2*
G1X7550Y8800D1*
G1X6690Y11140D2*
G1X5585Y11140D1*
G1X6428Y3400D2*
G1X6308Y3400D1*
G1X3720Y3078D2*
G1X3720Y2860D1*
G1X2213Y4120D2*
G1X1638Y4120D1*
G1X9589Y4910D2*
G1X9589Y4373D1*
G1X3720Y5110D2*
G1X3720Y4888D1*
G1X11540Y4840D2*
G1X10600Y4840D1*
G1X1995Y4300D2*
G1X1642Y4300D1*
G1X1560Y5740D2*
G1X300Y5740D1*
G1X1740Y8540D2*
G1X1740Y7439D1*
G1X3170Y4110D2*
G1X2280Y4110D1*
G1X5412Y3580D2*
G1X5174Y3580D1*
G1X5371Y3760D2*
G1X5254Y3760D1*
G1X3540Y3805D2*
G1X3540Y2860D1*
G1X2341Y4840D2*
G1X2105Y4840D1*
G1X5880Y3241D2*
G1X5880Y2860D1*
G1X2280Y4873D2*
G1X2280Y4665D1*
G1X2020Y4925D2*
G1X2375Y4570D1*
G1X2820Y4850D2*
G1X2820Y4570D1*
G1X1629Y4665D2*
G1X2117Y4177D1*
G1X5340Y4412D2*
G1X5340Y2860D1*
G1X1560Y5820D2*
G1X1560Y4830D1*
G1X900Y4480D2*
G1X300Y4480D1*
G1X1740Y6340D2*
G1X1740Y6095D1*
G1X3720Y6270D2*
G1X3720Y5570D1*
G1X3720Y7630D2*
G1X3720Y6730D1*
G1X3360Y7803D2*
G1X3360Y6730D1*
G1X2565Y6270D2*
G1X2020Y5725D1*
G1X2307Y6662D2*
G1X1629Y5984D1*
G1X2640Y4794D2*
G1X2640Y4570D1*
G1X9840Y4985D2*
G1X9840Y4497D1*
G1X3900Y7681D2*
G1X3900Y6730D1*
G1X9755Y5920D2*
G1X8159Y5920D1*
G1X9500Y6730D2*
G1X2470Y6730D1*
G1X4440Y3416D2*
G1X4440Y2860D1*
G1X4980Y5570D2*
G1X3069Y5570D1*
G1X8940Y6270D2*
G1X8940Y5445D1*
G1X10020Y8862D2*
G1X10020Y6305D1*
G1X6600Y11843D2*
G1X6600Y6730D1*
G1X9664Y6661D2*
G1X10532Y5792D1*
G1X6060Y11858D2*
G1X6060Y6730D1*
G1X8220Y3792D2*
G1X8220Y2860D1*
G1X9405Y6270D2*
G1X10140Y5535D1*
G1X11540Y3580D2*
G1X10865Y3580D1*
G1X9660Y13390D2*
G1X9660Y6665D1*
G1X11540Y6640D2*
G1X9685Y6640D1*
G1X10200Y8802D2*
G1X10200Y6125D1*
G1X11540Y6100D2*
G1X10225Y6100D1*
G1X11540Y6280D2*
G1X10045Y6280D1*
G1X6240Y11943D2*
G1X6240Y6730D1*
G1X11540Y5740D2*
G1X10572Y5740D1*
G1X9840Y9092D2*
G1X9840Y6485D1*
G1X11540Y6460D2*
G1X9865Y6460D1*
G1X10600Y3845D2*
G1X11540Y2905D1*
G1X7550Y8710D2*
G1X7370Y8710D1*
G1X11540Y9340D2*
G1X10642Y9340D1*
G1X9824Y9160D2*
G1X7550Y9160D1*
G1X9946Y9520D2*
G1X7550Y9520D1*
G1X6759Y10315D2*
G1X6960Y10115D1*
G1X6960Y9930D1*
G1X7500Y10480D2*
G1X7500Y9930D1*
G1X7140Y6270D2*
G1X7140Y5570D1*
G1X11540Y8260D2*
G1X7423Y8260D1*
G1X7550Y9370D2*
G1X7550Y9270D1*
G1X7420Y10210D2*
G1X7420Y9930D1*
G1X7550Y9270D2*
G1X7550Y8710D1*
G1X11540Y8620D2*
G1X7370Y8620D1*
G1X6910Y8710D2*
G1X6830Y8710D1*
G1X1230Y6640D2*
G1X300Y6640D1*
G1X7500Y8710D2*
G1X7500Y8166D1*
G1X2280Y5985D2*
G1X2280Y5807D1*
G1X1380Y8540D2*
G1X1380Y8424D1*
G1X1200Y7630D2*
G1X1200Y7069D1*
G1X6960Y10060D2*
G1X4230Y10060D1*
G1X4980Y6270D2*
G1X4980Y6230D1*
G1X6690Y11320D2*
G1X4230Y11320D1*
G1X4946Y10600D2*
G1X4230Y10600D1*
G1X7860Y3886D2*
G1X7860Y2860D1*
G1X10215Y3580D2*
G1X9589Y3580D1*
G1X8814Y3220D2*
G1X7096Y3220D1*
G1X8814Y2860D2*
G1X7058Y2860D1*
G1X9589Y3787D2*
G1X9589Y2860D1*
G1X6282Y3040D2*
G1X4206Y3040D1*
G1X8814Y3580D2*
G1X7574Y3580D1*
G1X6390Y3504D2*
G1X6466Y3429D1*
G1X7666Y4120D2*
G1X7619Y4120D1*
G1X6240Y3343D2*
G1X6240Y2860D1*
G1X6780Y5110D2*
G1X6780Y4322D1*
G1X4230Y11464D2*
G1X4230Y8540D1*
G1X7621Y4300D2*
G1X7486Y4300D1*
G1X6304Y3220D2*
G1X4369Y3220D1*
G1X4800Y5110D2*
G1X4800Y4434D1*
G1X5700Y3286D2*
G1X5700Y2860D1*
G1X5714Y4300D2*
G1X5086Y4300D1*
G1X5480Y4120D2*
G1X5219Y4120D1*
G1X5391Y3940D2*
G1X5268Y3940D1*
G1X4440Y5110D2*
G1X4440Y4363D1*
G1X3336Y8260D2*
G1X1554Y8260D1*
G1X3281Y8080D2*
G1X1609Y8080D1*
G1X6420Y3475D2*
G1X6420Y3393D1*
G1X4260Y5110D2*
G1X4260Y4191D1*
G1X7150Y11790D2*
G1X7150Y11040D1*
G1X5700Y5110D2*
G1X5700Y4958D1*
G1X7941Y4840D2*
G1X5720Y4840D1*
G1X3900Y2990D2*
G1X3900Y2860D1*
G1X4353Y4300D2*
G1X4218Y4300D1*
G1X6910Y8710D2*
G1X6910Y8301D1*
G1X3180Y6270D2*
G1X3180Y5570D1*
G1X3000Y6270D2*
G1X3000Y5683D1*
G1X2820Y6270D2*
G1X2820Y5830D1*
G1X2640Y6270D2*
G1X2640Y5885D1*
G1X1560Y5020D2*
G1X300Y5020D1*
G1X7680Y4090D2*
G1X7680Y2860D1*
G1X11540Y7540D2*
G1X7231Y7540D1*
G1X4980Y4558D2*
G1X4980Y4374D1*
G1X3360Y3886D2*
G1X3360Y2860D1*
G1X6830Y9340D2*
G1X4230Y9340D1*
G1X2100Y4195D2*
G1X2100Y3680D1*
G1X3000Y4110D2*
G1X3000Y3680D1*
G1X3720Y8540D2*
G1X3720Y8469D1*
G1X1560Y7851D2*
G1X1560Y7416D1*
G1X1380Y7675D2*
G1X1380Y7322D1*
G1X1560Y5200D2*
G1X300Y5200D1*
G1X1434Y7360D2*
G1X300Y7360D1*
G1X1253Y7180D2*
G1X300Y7180D1*
G1X930Y7720D2*
G1X300Y7720D1*
G1X2460Y4801D2*
G1X2460Y4570D1*
G1X1920Y6377D2*
G1X1920Y6275D1*
G1X826Y8260D2*
G1X300Y8260D1*
G1X6690Y11500D2*
G1X4320Y11500D1*
G1X4260Y6270D2*
G1X4260Y5570D1*
G1X3000Y8540D2*
G1X3000Y6730D1*
G1X1560Y4840D2*
G1X300Y4840D1*
G1X5520Y13390D2*
G1X5520Y12767D1*
G1X11540Y11860D2*
G1X7263Y11860D1*
G1X7860Y13390D2*
G1X7860Y11040D1*
G1X7930Y11040D2*
G1X7510Y11040D1*
G1X3360Y5110D2*
G1X3360Y4794D1*
G1X5597Y4533D2*
G1X5300Y4830D1*
G1X5003Y4533D2*
G1X5300Y4830D1*
G1X3900Y6270D2*
G1X3900Y5570D1*
G1X4440Y6270D2*
G1X4440Y5570D1*
G1X5597Y4533D2*
G1X5300Y4830D1*
G1X5003Y4533D2*
G1X5300Y4830D1*
G1X4800Y6270D2*
G1X4800Y5570D1*
G1X10673Y4687D2*
G1X10970Y4390D1*
G1X11267Y4093D2*
G1X10970Y4390D1*
G1X10673Y4093D2*
G1X10970Y4390D1*
G1X11267Y4687D2*
G1X10970Y4390D1*
G1X10673Y4687D2*
G1X10970Y4390D1*
G1X11267Y4093D2*
G1X10970Y4390D1*
G1X10673Y4093D2*
G1X10970Y4390D1*
G1X11267Y4687D2*
G1X10970Y4390D1*
G1X10140Y5020D2*
G1X9883Y5020D1*
G1X9300Y13390D2*
G1X9300Y6730D1*
G1X6830Y9520D2*
G1X4230Y9520D1*
G1X11280Y13390D2*
G1X11280Y5694D1*
G1X933Y4517D2*
G1X1230Y4220D1*
G1X1527Y3923D2*
G1X1230Y4220D1*
G1X933Y3923D2*
G1X1230Y4220D1*
G1X1527Y4517D2*
G1X1230Y4220D1*
G1X9943Y9517D2*
G1X10240Y9220D1*
G1X10537Y8923D2*
G1X10240Y9220D1*
G1X9943Y8923D2*
G1X10240Y9220D1*
G1X10537Y9517D2*
G1X10240Y9220D1*
G1X9943Y11197D2*
G1X10240Y10900D1*
G1X10537Y10603D2*
G1X10240Y10900D1*
G1X9943Y10603D2*
G1X10240Y10900D1*
G1X10537Y11197D2*
G1X10240Y10900D1*
G1X4943Y11197D2*
G1X5240Y10900D1*
G1X5537Y10603D2*
G1X5240Y10900D1*
G1X4943Y10603D2*
G1X5240Y10900D1*
G1X5537Y11197D2*
G1X5240Y10900D1*
G1X3403Y8347D2*
G1X3700Y8050D1*
G1X3997Y7753D2*
G1X3700Y8050D1*
G1X3403Y7753D2*
G1X3700Y8050D1*
G1X3997Y8347D2*
G1X3700Y8050D1*
G1X893Y8347D2*
G1X1190Y8050D1*
G1X1487Y7753D2*
G1X1190Y8050D1*
G1X893Y7753D2*
G1X1190Y8050D1*
G1X1487Y8347D2*
G1X1190Y8050D1*
G1X7443Y6197D2*
G1X7740Y5900D1*
G1X6060Y5110D2*
G1X6060Y4322D1*
G1X8040Y6270D2*
G1X8040Y6194D1*
G1X8037Y6197D2*
G1X7740Y5900D1*
G1X4943Y6197D2*
G1X5240Y5900D1*
G1X5520Y6270D2*
G1X5520Y6213D1*
G1X5520Y5587D2*
G1X5520Y5570D1*
G1X5537Y6197D2*
G1X5240Y5900D1*
G1X3693Y3697D2*
G1X3990Y3400D1*
G1X4287Y3103D2*
G1X3990Y3400D1*
G1X3693Y3103D2*
G1X3990Y3400D1*
G1X5532Y3400D2*
G1X4970Y3400D1*
G1X5531Y12779D2*
G1X5920Y12390D1*
G1X6309Y12001D2*
G1X5920Y12390D1*
G1X5531Y12001D2*
G1X5920Y12390D1*
G1X6309Y12779D2*
G1X5920Y12390D1*
G1X5880Y11841D2*
G1X5880Y6730D1*
G1X7930Y10760D2*
G1X7650Y10760D1*
G1X7650Y10480D2*
G1X7650Y10760D1*
G1X10687Y5200D2*
G1X10600Y5200D1*
G1X3774Y3040D2*
G1X3260Y3040D1*
G1X7370Y11040D2*
G1X7150Y11040D1*
G1X9824Y10960D2*
G1X7930Y10960D1*
G1X7320Y13390D2*
G1X7320Y12667D1*
G1X7500Y13390D2*
G1X7500Y11040D1*
G1X9895Y11140D2*
G1X7150Y11140D1*
G1X7680Y13390D2*
G1X7680Y11040D1*
G1X11540Y11320D2*
G1X7150Y11320D1*
G1X11540Y8980D2*
G1X10585Y8980D1*
G1X11540Y11500D2*
G1X7150Y11500D1*
G1X6830Y9880D2*
G1X4230Y9880D1*
G1X6830Y8980D2*
G1X4230Y8980D1*
G1X9895Y8980D2*
G1X7550Y8980D1*
G1X4837Y10780D2*
G1X4230Y10780D1*
G1X7370Y10480D2*
G1X7245Y10480D1*
G1X11540Y11680D2*
G1X7150Y11680D1*
G1X7245Y10480D2*
G1X7352Y10372D1*
G1X11540Y10420D2*
G1X7305Y10420D1*
G1X7550Y9930D2*
G1X7420Y9930D1*
G1X6780Y10295D2*
G1X6780Y8166D1*
G1X7320Y11912D2*
G1X7320Y11040D1*
G1X6690Y11790D2*
G1X6690Y10760D1*
G1X11540Y10240D2*
G1X7418Y10240D1*
G1X6690Y10760D2*
G1X6690Y10480D1*
G1X6788Y7720D2*
G1X3960Y7720D1*
G1X6780Y6270D2*
G1X6780Y5570D1*
G1X7500Y6270D2*
G1X7500Y6245D1*
G1X9840Y3663D2*
G1X9840Y2860D1*
G1X9300Y6270D2*
G1X9300Y5624D1*
G1X1200Y8540D2*
G1X1200Y8470D1*
G1X11540Y12940D2*
G1X4230Y12940D1*
G1X3360Y6270D2*
G1X3360Y5570D1*
G1X1020Y7666D2*
G1X1020Y4584D1*
G1X1560Y6364D2*
G1X1560Y4480D1*
G1X840Y7818D2*
G1X840Y4376D1*
G1X1380Y6458D2*
G1X1380Y4612D1*
G1X1200Y6711D2*
G1X1200Y4639D1*
G1X2020Y5725D2*
G1X2020Y4925D1*
G1X1815Y4480D2*
G1X1560Y4480D1*
G1X2640Y4110D2*
G1X2640Y3680D1*
G1X3292Y3940D2*
G1X1543Y3940D1*
G1X10560Y10628D2*
G1X10560Y9492D1*
G1X10380Y10504D2*
G1X10380Y9616D1*
G1X10200Y10482D2*
G1X10200Y9638D1*
G1X10020Y10542D2*
G1X10020Y9578D1*
G1X9840Y10772D2*
G1X9840Y9348D1*
G1X11540Y8440D2*
G1X7370Y8440D1*
G1X11540Y9520D2*
G1X10534Y9520D1*
G1X11540Y9700D2*
G1X7550Y9700D1*
G1X11540Y10060D2*
G1X7420Y10060D1*
G1X11540Y9160D2*
G1X10656Y9160D1*
G1X10560Y13390D2*
G1X10560Y11172D1*
G1X10380Y13390D2*
G1X10380Y11296D1*
G1X10200Y13390D2*
G1X10200Y11318D1*
G1X10020Y13390D2*
G1X10020Y11258D1*
G1X9840Y13390D2*
G1X9840Y11028D1*
G1X11540Y11140D2*
G1X10585Y11140D1*
G1X11540Y10960D2*
G1X10656Y10960D1*
G1X6960Y13390D2*
G1X6960Y12838D1*
G1X5340Y11935D2*
G1X5340Y11308D1*
G1X5160Y11795D2*
G1X5160Y11312D1*
G1X4980Y11743D2*
G1X4980Y11230D1*
G1X5520Y12012D2*
G1X5520Y11213D1*
G1X6960Y10115D2*
G1X6960Y9930D1*
G1X6830Y9930D1*
G1X6690Y10600D2*
G1X5534Y10600D1*
G1X4895Y11140D2*
G1X4230Y11140D1*
G1X6910Y8620D2*
G1X4230Y8620D1*
G1X4080Y8540D2*
G1X4080Y8229D1*
G1X1380Y3828D2*
G1X1380Y3680D1*
G1X3540Y8540D2*
G1X3540Y8438D1*
G1X3900Y8540D2*
G1X3900Y8419D1*
G1X1034Y8440D2*
G1X300Y8440D1*
G1X6740Y8080D2*
G1X4119Y8080D1*
G1X6723Y7900D2*
G1X4092Y7900D1*
G1X3544Y8440D2*
G1X1346Y8440D1*
G1X660Y8540D2*
G1X660Y3680D1*
G1X4824Y10960D2*
G1X4230Y10960D1*
G1X4080Y5110D2*
G1X4080Y4706D1*
G1X4080Y6270D2*
G1X4080Y5570D1*
G1X3308Y7900D2*
G1X1582Y7900D1*
G1X8720Y5570D2*
G1X8000Y5570D1*
G1X2100Y8540D2*
G1X2100Y7287D1*
G1X10920Y13390D2*
G1X10920Y5704D1*
G1X9405Y6270D2*
G1X7939Y6270D1*
G1X6600Y6270D2*
G1X6600Y5570D1*
G1X9575Y6100D2*
G1X8109Y6100D1*
G1X7860Y10480D2*
G1X7860Y6730D1*
G1X6240Y6270D2*
G1X6240Y5570D1*
G1X6060Y3258D2*
G1X6060Y2860D1*
G1X6420Y6270D2*
G1X6420Y5570D1*
G1X9946Y10600D2*
G1X7930Y10600D1*
G1X3540Y6270D2*
G1X3540Y5570D1*
G1X5340Y10492D2*
G1X5340Y6730D1*
G1X798Y7900D2*
G1X300Y7900D1*
G1X7480Y5570D2*
G1X5500Y5570D1*
G1X7541Y6270D2*
G1X5439Y6270D1*
G1X5160Y10488D2*
G1X5160Y6730D1*
G1X7352Y5740D2*
G1X5628Y5740D1*
G1X3900Y5110D2*
G1X3900Y4839D1*
G1X5880Y6270D2*
G1X5880Y5570D1*
G1X7371Y6100D2*
G1X5609Y6100D1*
G1X4080Y3973D2*
G1X4080Y3810D1*
G1X3900Y3840D2*
G1X3900Y3810D1*
G1X3720Y3792D2*
G1X3720Y3722D1*
G1X4470Y3400D2*
G1X4410Y3400D1*
G1X6342Y2860D2*
G1X3260Y2860D1*
G1X840Y8540D2*
G1X840Y8282D1*
G1X4260Y13390D2*
G1X4260Y12506D1*
G1X6690Y11680D2*
G1X4524Y11680D1*
G1X4230Y13390D2*
G1X4230Y12516D1*
G1X5340Y13390D2*
G1X5340Y12645D1*
G1X5160Y13390D2*
G1X5160Y12785D1*
G1X4980Y13390D2*
G1X4980Y12837D1*
G1X4800Y13390D2*
G1X4800Y12827D1*
G1X4620Y13390D2*
G1X4620Y12751D1*
G1X5496Y12040D2*
G1X5410Y12040D1*
G1X5513Y12760D2*
G1X5205Y12760D1*
G1X5404Y12580D2*
G1X5387Y12580D1*
G1X5773Y11860D2*
G1X5263Y11860D1*
G1X11540Y10780D2*
G1X10642Y10780D1*
G1X6240Y13390D2*
G1X6240Y12837D1*
G1X5880Y13390D2*
G1X5880Y12938D1*
G1X5700Y13390D2*
G1X5700Y12894D1*
G1X6430Y12040D2*
G1X6344Y12040D1*
G1X6634Y12760D2*
G1X6327Y12760D1*
G1X6453Y12580D2*
G1X6436Y12580D1*
G1X6577Y11860D2*
G1X6067Y11860D1*
G1X6420Y13390D2*
G1X6420Y12619D1*
G1X6780Y13390D2*
G1X6780Y12822D1*
G1X6240Y5110D2*
G1X6240Y4237D1*
G1X6600Y13390D2*
G1X6600Y12737D1*
G1X11540Y12220D2*
G1X7465Y12220D1*
G1X11540Y12040D2*
G1X7410Y12040D1*
G1X11540Y12760D2*
G1X7205Y12760D1*
G1X11540Y12580D2*
G1X7387Y12580D1*
G1X11540Y12400D2*
G1X7459Y12400D1*
G1X7140Y13390D2*
G1X7140Y12794D1*
G1X6960Y7570D2*
G1X6960Y6730D1*
G1X8814Y4840D2*
G1X8399Y4840D1*
G1X8814Y4660D2*
G1X8617Y4660D1*
G1X8814Y4480D2*
G1X8702Y4480D1*
G1X8814Y4300D2*
G1X8718Y4300D1*
G1X8814Y4120D2*
G1X8674Y4120D1*
G1X8040Y5110D2*
G1X8040Y4874D1*
G1X8580Y5110D2*
G1X8580Y4706D1*
G1X8400Y5110D2*
G1X8400Y4839D1*
G1X7638Y4480D2*
G1X5532Y4480D1*
G1X7500Y5110D2*
G1X7500Y4287D1*
G1X7723Y4660D2*
G1X5684Y4660D1*
G1X7320Y5920D2*
G1X5659Y5920D1*
G1X8220Y6270D2*
G1X8220Y5570D1*
G1X7320Y5110D2*
G1X7320Y4402D1*
G1X7140Y5110D2*
G1X7140Y4439D1*
G1X8220Y5110D2*
G1X8220Y4888D1*
G1X10934Y2860D2*
G1X9589Y2860D1*
G1X8814Y3760D2*
G1X7654Y3760D1*
G1X6960Y5110D2*
G1X6960Y4416D1*
G1X4620Y5110D2*
G1X4620Y4431D1*
G1X5880Y5110D2*
G1X5880Y4338D1*
G1X6753Y4300D2*
G1X6126Y4300D1*
G1X6620Y4120D2*
G1X6360Y4120D1*
G1X6420Y5110D2*
G1X6420Y4020D1*
G1X7860Y5110D2*
G1X7860Y4794D1*
G1X3540Y5110D2*
G1X3540Y4874D1*
G1X4925Y5020D2*
G1X3017Y5020D1*
G1X4980Y5110D2*
G1X4980Y5102D1*
G1X6690Y10960D2*
G1X5656Y10960D1*
G1X5160Y4434D2*
G1X5160Y4220D1*
G1X5520Y4472D2*
G1X5520Y4167D1*
G1X4987Y5110D2*
G1X3069Y5110D1*
G1X5700Y4702D2*
G1X5700Y4294D1*
G1X4880Y4840D2*
G1X3899Y4840D1*
G1X4916Y4660D2*
G1X4117Y4660D1*
G1X5068Y4480D2*
G1X4202Y4480D1*
G1X8714Y5020D2*
G1X5674Y5020D1*
G1X11540Y4660D2*
G1X11292Y4660D1*
G1X11540Y4480D2*
G1X11380Y4480D1*
G1X11280Y4106D2*
G1X11280Y3165D1*
G1X11100Y3990D2*
G1X11100Y3345D1*
G1X2100Y5054D2*
G1X2100Y4845D1*
G1X2066Y5560D2*
G1X2020Y5560D1*
G1X2038Y5200D2*
G1X2020Y5200D1*
G1X2123Y5020D2*
G1X2020Y5020D1*
G1X10020Y5655D2*
G1X10020Y4479D1*
G1X2100Y6492D2*
G1X2100Y6455D1*
G1X2192Y5740D2*
G1X2035Y5740D1*
G1X2105Y6460D2*
G1X2063Y6460D1*
G1X4871Y6100D2*
G1X2395Y6100D1*
G1X4820Y5920D2*
G1X2215Y5920D1*
G1X11540Y4300D2*
G1X11380Y4300D1*
G1X8580Y3973D2*
G1X8580Y2860D1*
G1X8400Y13390D2*
G1X8400Y6730D1*
G1X6780Y7734D2*
G1X6780Y6730D1*
G1X7500Y7734D2*
G1X7500Y6730D1*
G1X7320Y7570D2*
G1X7320Y6730D1*
G1X7140Y7530D2*
G1X7140Y6730D1*
G1X9762Y4480D2*
G1X9589Y4480D1*
G1X11540Y13390D2*
G1X11540Y5510D1*
G1X11540Y5020D2*
G1X11384Y5020D1*
G1X10920Y2874D2*
G1X10920Y2860D1*
G1X10560Y3235D2*
G1X10560Y2860D1*
G1X10140Y5535D2*
G1X10140Y4417D1*
G1X10600Y4191D2*
G1X10600Y3845D1*
G1X10648Y4660D2*
G1X10600Y4660D1*
G1X11540Y3760D2*
G1X10685Y3760D1*
G1X10207Y3587D2*
G1X10934Y2860D1*
G1X8760Y6270D2*
G1X8760Y5566D1*
G1X11100Y13390D2*
G1X11100Y5740D1*
G1X8040Y5606D2*
G1X8040Y5570D1*
G1X3610Y3580D2*
G1X3260Y3580D1*
G1X8580Y6270D2*
G1X8580Y5570D1*
G1X8400Y6270D2*
G1X8400Y5570D1*
G1X14916Y11149D2*
G1X14916Y10671D1*
G1X15670Y9340D2*
G1X15572Y9340D1*
G1X13335Y6860D2*
G1X13335Y6777D1*
G1X15664Y11176D2*
G1X15640Y11176D1*
G1X18780Y6460D2*
G1X15430Y6460D1*
G1X19700Y13390D2*
G1X19700Y2860D1*
G1X12420Y3740D2*
G1X12420Y2860D1*
G1X12420Y3740D2*
G1X11980Y3740D1*
G1X12880Y5660D2*
G1X12880Y5510D1*
G1X19700Y7900D2*
G1X19240Y7900D1*
G1X19540Y13390D2*
G1X19540Y2860D1*
G1X12984Y4480D2*
G1X11980Y4480D1*
G1X19700Y4840D2*
G1X18445Y4840D1*
G1X19180Y3187D2*
G1X19180Y2860D1*
G1X18660Y11260D2*
G1X18660Y11140D1*
G1X13910Y9520D2*
G1X11980Y9520D1*
G1X19360Y13390D2*
G1X19360Y2860D1*
G1X17794Y8260D2*
G1X16619Y8260D1*
G1X18460Y4855D2*
G1X18460Y2860D1*
G1X19700Y6280D2*
G1X19240Y6280D1*
G1X16937Y11176D2*
G1X16909Y11176D1*
G1X17740Y4135D2*
G1X17740Y2860D1*
G1X19172Y5567D2*
G1X17524Y3919D1*
G1X17975Y5020D2*
G1X16426Y5020D1*
G1X18640Y3170D2*
G1X18640Y2860D1*
G1X19700Y5380D2*
G1X18985Y5380D1*
G1X13420Y10658D2*
G1X13420Y8954D1*
G1X19000Y3092D2*
G1X19000Y2860D1*
G1X13910Y10420D2*
G1X11980Y10420D1*
G1X17200Y9904D2*
G1X17200Y4310D1*
G1X18280Y4675D2*
G1X18280Y2860D1*
G1X14920Y9160D2*
G1X14607Y9160D1*
G1X14822Y3850D2*
G1X13255Y3850D1*
G1X16300Y3850D2*
G1X16300Y2860D1*
G1X14040Y11140D2*
G1X13464Y11140D1*
G1X13910Y10060D2*
G1X11980Y10060D1*
G1X16300Y9190D2*
G1X16300Y8542D1*
G1X18780Y8800D2*
G1X14811Y8800D1*
G1X14680Y5695D2*
G1X14680Y5310D1*
G1X13054Y3649D2*
G1X13054Y2860D1*
G1X12745Y5920D2*
G1X11980Y5920D1*
G1X13060Y3655D2*
G1X13060Y2860D1*
G1X13255Y3850D2*
G1X13054Y3649D1*
G1X12745Y6460D2*
G1X11980Y6460D1*
G1X12340Y13390D2*
G1X12340Y5510D1*
G1X19180Y13390D2*
G1X19180Y10855D1*
G1X14515Y13390D2*
G1X11980Y13390D1*
G1X13420Y12307D2*
G1X13420Y11202D1*
G1X15870Y12850D2*
G1X15450Y12850D1*
G1X15760Y12290D2*
G1X15760Y11849D1*
G1X12700Y13390D2*
G1X12700Y11058D1*
G1X12782Y12400D2*
G1X11980Y12400D1*
G1X14040Y11500D2*
G1X11980Y11500D1*
G1X12840Y10600D2*
G1X11980Y10600D1*
G1X15580Y12290D2*
G1X15580Y11149D1*
G1X18780Y7720D2*
G1X18318Y7720D1*
G1X16840Y13390D2*
G1X16840Y11826D1*
G1X12745Y8260D2*
G1X11980Y8260D1*
G1X13600Y13390D2*
G1X13600Y8974D1*
G1X18155Y5200D2*
G1X16412Y5200D1*
G1X16937Y11176D2*
G1X16937Y11148D1*
G1X15640Y9904D2*
G1X15640Y9880D1*
G1X13910Y9700D2*
G1X11980Y9700D1*
G1X14630Y9880D2*
G1X14630Y9780D1*
G1X14630Y10440D2*
G1X14630Y9880D1*
G1X14040Y11680D2*
G1X11980Y11680D1*
G1X13910Y9880D2*
G1X11980Y9880D1*
G1X14040Y9220D2*
G1X13910Y9220D1*
G1X14970Y10671D2*
G1X14916Y10671D1*
G1X14916Y10780D2*
G1X14500Y10780D1*
G1X14310Y7180D2*
G1X11980Y7180D1*
G1X15920Y12935D2*
G1X15920Y12850D1*
G1X15868Y7900D2*
G1X14777Y7900D1*
G1X18780Y9880D2*
G1X16937Y9880D1*
G1X13350Y4480D2*
G1X13296Y4480D1*
G1X15716Y5380D2*
G1X15430Y5380D1*
G1X19700Y6820D2*
G1X19240Y6820D1*
G1X12748Y5020D2*
G1X11980Y5020D1*
G1X12745Y6820D2*
G1X11980Y6820D1*
G1X12721Y4840D2*
G1X11980Y4840D1*
G1X12833Y7720D2*
G1X11980Y7720D1*
G1X12745Y6280D2*
G1X11980Y6280D1*
G1X12745Y6100D2*
G1X11980Y6100D1*
G1X14310Y7405D2*
G1X14310Y6820D1*
G1X13780Y3850D2*
G1X13780Y3713D1*
G1X17265Y4310D2*
G1X13160Y4310D1*
G1X14916Y11140D2*
G1X14500Y11140D1*
G1X13350Y4506D2*
G1X13350Y4470D1*
G1X12745Y8080D2*
G1X11980Y8080D1*
G1X17435Y4480D2*
G1X15030Y4480D1*
G1X12520Y13390D2*
G1X12520Y5510D1*
G1X13420Y7590D2*
G1X13420Y6834D1*
G1X16430Y12850D2*
G1X16430Y12615D1*
G1X12594Y2860D2*
G1X12420Y2860D1*
G1X14310Y7000D2*
G1X11980Y7000D1*
G1X19700Y3040D2*
G1X15041Y3040D1*
G1X12160Y13390D2*
G1X12160Y5510D1*
G1X15936Y8440D2*
G1X14835Y8440D1*
G1X15594Y5020D2*
G1X15430Y5020D1*
G1X19700Y8980D2*
G1X19240Y8980D1*
G1X18640Y5035D2*
G1X18640Y3830D1*
G1X16120Y9190D2*
G1X16120Y8538D1*
G1X14835Y8685D2*
G1X14835Y8075D1*
G1X14860Y3040D2*
G1X14860Y2860D1*
G1X14860Y6515D2*
G1X14860Y5310D1*
G1X18780Y8980D2*
G1X14766Y8980D1*
G1X12776Y4660D2*
G1X11980Y4660D1*
G1X14310Y6820D2*
G1X14188Y6820D1*
G1X12340Y5050D2*
G1X12340Y3740D1*
G1X14859Y3040D2*
G1X13716Y3040D1*
G1X19700Y5020D2*
G1X18625Y5020D1*
G1X12745Y6860D2*
G1X12745Y5660D1*
G1X18640Y13390D2*
G1X18640Y12625D1*
G1X14310Y6820D2*
G1X14310Y6750D1*
G1X13335Y6860D2*
G1X12745Y6860D1*
G1X14040Y10960D2*
G1X13519Y10960D1*
G1X13600Y2992D2*
G1X13600Y2860D1*
G1X13910Y10440D2*
G1X13910Y9880D1*
G1X15628Y9904D2*
G1X15252Y9904D1*
G1X14970Y5380D2*
G1X14205Y5380D1*
G1X12594Y3760D2*
G1X11980Y3760D1*
G1X17920Y7798D2*
G1X17920Y4965D1*
G1X13910Y9880D2*
G1X13910Y9780D1*
G1X14140Y3850D2*
G1X14140Y2860D1*
G1X13284Y3760D2*
G1X13165Y3760D1*
G1X18660Y10040D2*
G1X17940Y10040D1*
G1X17940Y10600D2*
G1X17940Y10040D1*
G1X18660Y11260D2*
G1X17940Y11260D1*
G1X19700Y9880D2*
G1X19240Y9880D1*
G1X17940Y11260D2*
G1X17940Y11140D1*
G1X17680Y11140D2*
G1X17482Y11140D1*
G1X15450Y12850D2*
G1X15450Y12290D1*
G1X15580Y13010D2*
G1X15580Y12850D1*
G1X15870Y12290D2*
G1X15450Y12290D1*
G1X18660Y10600D2*
G1X18660Y10040D1*
G1X14680Y3128D2*
G1X14680Y2860D1*
G1X16104Y12290D2*
G1X16010Y12290D1*
G1X15870Y12290D1*
G1X16115Y13390D2*
G1X16312Y13192D1*
G1X15220Y11276D2*
G1X15220Y11149D1*
G1X16547Y9190D2*
G1X15670Y9190D1*
G1X17940Y10600D2*
G1X17651Y10600D1*
G1X16300Y7718D2*
G1X16300Y5384D1*
G1X15664Y11658D2*
G1X15664Y11185D1*
G1X19700Y5560D2*
G1X19165Y5560D1*
G1X16480Y9190D2*
G1X16480Y8460D1*
G1X19700Y3580D2*
G1X19312Y3580D1*
G1X16129Y7720D2*
G1X14645Y7720D1*
G1X18460Y7798D2*
G1X18460Y5505D1*
G1X18100Y4495D2*
G1X18100Y2860D1*
G1X18280Y7710D2*
G1X18280Y5325D1*
G1X13910Y9340D2*
G1X11980Y9340D1*
G1X16174Y12220D2*
G1X14500Y12220D1*
G1X19700Y3760D2*
G1X19230Y3760D1*
G1X15940Y12290D2*
G1X15940Y11931D1*
G1X19700Y5740D2*
G1X19240Y5740D1*
G1X16015Y12040D2*
G1X15138Y12040D1*
G1X17918Y8440D2*
G1X16503Y8440D1*
G1X19700Y12220D2*
G1X18816Y12220D1*
G1X19700Y4660D2*
G1X18265Y4660D1*
G1X19700Y8620D2*
G1X19240Y8620D1*
G1X17940Y11140D2*
G1X17680Y11140D1*
G1X16909Y11658D2*
G1X16909Y11185D1*
G1X16480Y13390D2*
G1X16480Y12565D1*
G1X17940Y10680D2*
G1X17680Y10680D1*
G1X19000Y5395D2*
G1X19000Y3908D1*
G1X17940Y10680D2*
G1X17940Y10600D1*
G1X17419Y11149D2*
G1X16946Y11149D1*
G1X17020Y3850D2*
G1X17020Y2860D1*
G1X18280Y10040D2*
G1X18280Y8530D1*
G1X18100Y10040D2*
G1X18100Y8530D1*
G1X15640Y11149D2*
G1X14916Y11149D1*
G1X19700Y11860D2*
G1X16798Y11860D1*
G1X19700Y6460D2*
G1X19240Y6460D1*
G1X16937Y9904D2*
G1X16937Y9880D1*
G1X18460Y10040D2*
G1X18460Y8442D1*
G1X17200Y3850D2*
G1X17200Y2860D1*
G1X18962Y11073D2*
G1X19171Y10864D1*
G1X16645Y12305D2*
G1X16645Y11895D1*
G1X17419Y9904D2*
G1X16946Y9904D1*
G1X15940Y9190D2*
G1X15940Y8443D1*
G1X16909Y9867D2*
G1X16909Y9394D1*
G1X15670Y9880D2*
G1X15640Y9880D1*
G1X14761Y9520D2*
G1X14630Y9520D1*
G1X19700Y6640D2*
G1X19240Y6640D1*
G1X14970Y6100D2*
G1X14835Y6100D1*
G1X19700Y10240D2*
G1X19240Y10240D1*
G1X12880Y4540D2*
G1X12880Y4125D1*
G1X12594Y3580D2*
G1X12420Y3580D1*
G1X18640Y10040D2*
G1X18640Y5685D1*
G1X14738Y11320D2*
G1X14500Y11320D1*
G1X19700Y7540D2*
G1X19240Y7540D1*
G1X17615Y4660D2*
G1X15070Y4660D1*
G1X13392Y6820D2*
G1X13335Y6820D1*
G1X14500Y9220D2*
G1X14500Y9170D1*
G1X17560Y9950D2*
G1X17560Y4605D1*
G1X14680Y11380D2*
G1X14680Y9122D1*
G1X14970Y10600D2*
G1X14500Y10600D1*
G1X14040Y9220D2*
G1X14040Y9170D1*
G1X13960Y9220D2*
G1X13960Y9155D1*
G1X13960Y3850D2*
G1X13960Y2860D1*
G1X14770Y8940D2*
G1X14770Y8870D1*
G1X13973Y9160D2*
G1X11980Y9160D1*
G1X14540Y9170D2*
G1X14500Y9170D1*
G1X12745Y6640D2*
G1X11980Y6640D1*
G1X17740Y10680D2*
G1X17740Y4785D1*
G1X14040Y12580D2*
G1X13558Y12580D1*
G1X12160Y5050D2*
G1X12160Y3740D1*
G1X14500Y9220D2*
G1X14500Y9170D1*
G1X14680Y12905D2*
G1X14680Y11900D1*
G1X12745Y5740D2*
G1X11980Y5740D1*
G1X17920Y13390D2*
G1X17920Y11140D1*
G1X14916Y10960D2*
G1X14500Y10960D1*
G1X13780Y3087D2*
G1X13780Y2860D1*
G1X15400Y3850D2*
G1X15400Y2860D1*
G1X17832Y7900D2*
G1X16571Y7900D1*
G1X17772Y8080D2*
G1X16637Y8080D1*
G1X19700Y10780D2*
G1X19225Y10780D1*
G1X18820Y3088D2*
G1X18820Y2860D1*
G1X19700Y4480D2*
G1X18085Y4480D1*
G1X17997Y12400D2*
G1X16624Y12400D1*
G1X16120Y7722D2*
G1X16120Y5485D1*
G1X19700Y11320D2*
G1X16909Y11320D1*
G1X19700Y4300D2*
G1X17905Y4300D1*
G1X18106Y12580D2*
G1X16465Y12580D1*
G1X18780Y6280D2*
G1X15430Y6280D1*
G1X19700Y3940D2*
G1X17545Y3940D1*
G1X14074Y12940D2*
G1X13412Y12940D1*
G1X14614Y11500D2*
G1X14500Y11500D1*
G1X19700Y9340D2*
G1X19240Y9340D1*
G1X19700Y11500D2*
G1X16909Y11500D1*
G1X19700Y3400D2*
G1X19308Y3400D1*
G1X19700Y12040D2*
G1X18745Y12040D1*
G1X19700Y7180D2*
G1X19240Y7180D1*
G1X15030Y4470D2*
G1X14190Y4470D1*
G1X18695Y5740D2*
G1X15430Y5740D1*
G1X15760Y3850D2*
G1X15760Y2860D1*
G1X13060Y5660D2*
G1X13060Y5510D1*
G1X12708Y10780D2*
G1X11980Y10780D1*
G1X13275Y5660D2*
G1X12745Y5660D1*
G1X12745Y8620D2*
G1X11980Y8620D1*
G1X12745Y8685D2*
G1X12745Y8075D1*
G1X14125Y7590D2*
G1X13540Y7590D1*
G1X12880Y7655D2*
G1X12880Y6860D1*
G1X15040Y4660D2*
G1X15040Y4310D1*
G1X12745Y8440D2*
G1X11980Y8440D1*
G1X13540Y7590D2*
G1X13040Y7590D1*
G1X13060Y10512D2*
G1X13060Y8979D1*
G1X12695Y3940D2*
G1X11980Y3940D1*
G1X13060Y7590D2*
G1X13060Y6860D1*
G1X12944Y11320D2*
G1X11980Y11320D1*
G1X13240Y5660D2*
G1X13240Y5625D1*
G1X15040Y13010D2*
G1X15040Y12059D1*
G1X15220Y4715D2*
G1X15220Y4310D1*
G1X19700Y13390D2*
G1X16115Y13390D1*
G1X14582Y7783D2*
G1X14702Y7662D1*
G1X15400Y4906D2*
G1X15400Y4310D1*
G1X14500Y5663D2*
G1X14500Y5310D1*
G1X14880Y7050D2*
G1X14770Y7050D1*
G1X14770Y7500D2*
G1X14770Y7050D1*
G1X13125Y5510D2*
G1X11980Y5510D1*
G1X18587Y3220D2*
G1X15301Y3220D1*
G1X12736Y11140D2*
G1X11980Y11140D1*
G1X14915Y6460D2*
G1X14835Y6460D1*
G1X18780Y7360D2*
G1X14770Y7360D1*
G1X13240Y7590D2*
G1X13240Y6860D1*
G1X14550Y3580D2*
G1X13879Y3580D1*
G1X13600Y3850D2*
G1X13600Y3808D1*
G1X14515Y13390D2*
G1X14109Y12984D1*
G1X12810Y7890D2*
G1X12810Y7820D1*
G1X13175Y5560D2*
G1X11980Y5560D1*
G1X14125Y7590D2*
G1X14310Y7405D1*
G1X14140Y5320D2*
G1X14140Y5310D1*
G1X14970Y5310D2*
G1X14190Y5310D1*
G1X16660Y3850D2*
G1X16660Y2860D1*
G1X15220Y3128D2*
G1X15220Y2860D1*
G1X13420Y3850D2*
G1X13420Y3812D1*
G1X16185Y12210D2*
G1X16185Y12090D1*
G1X13284Y3040D2*
G1X13054Y3040D1*
G1X13060Y4458D2*
G1X13060Y4287D1*
G1X12997Y4242D2*
G1X12663Y3908D1*
G1X14320Y4470D2*
G1X14320Y4310D1*
G1X17795Y4840D2*
G1X16355Y4840D1*
G1X13093Y4300D2*
G1X11980Y4300D1*
G1X14320Y3850D2*
G1X14320Y2860D1*
G1X19700Y2860D2*
G1X13054Y2860D1*
G1X18780Y10604D2*
G1X18780Y5825D1*
G1X15580Y3850D2*
G1X15580Y2860D1*
G1X19700Y5920D2*
G1X19240Y5920D1*
G1X19700Y6100D2*
G1X19240Y6100D1*
G1X18780Y5825D2*
G1X17265Y4310D1*
G1X16480Y7800D2*
G1X16480Y4310D1*
G1X15940Y4666D2*
G1X15940Y4310D1*
G1X16120Y4674D2*
G1X16120Y4310D1*
G1X15940Y3850D2*
G1X15940Y2860D1*
G1X18820Y5215D2*
G1X18820Y3912D1*
G1X19240Y10700D2*
G1X19240Y5730D1*
G1X19700Y12580D2*
G1X18694Y12580D1*
G1X19700Y10420D2*
G1X19240Y10420D1*
G1X18780Y10600D2*
G1X18660Y10600D1*
G1X19700Y10960D2*
G1X19075Y10960D1*
G1X18780Y9160D2*
G1X16716Y9160D1*
G1X18280Y13390D2*
G1X18280Y12682D1*
G1X19700Y9520D2*
G1X19240Y9520D1*
G1X19700Y9700D2*
G1X19240Y9700D1*
G1X17740Y13390D2*
G1X17740Y11140D1*
G1X19000Y13390D2*
G1X19000Y11035D1*
G1X18280Y11877D2*
G1X18280Y11260D1*
G1X19700Y3220D2*
G1X19213Y3220D1*
G1X17940Y10060D2*
G1X17643Y10060D1*
G1X18800Y11140D2*
G1X18660Y11140D1*
G1X18460Y11864D2*
G1X18460Y11260D1*
G1X18640Y11935D2*
G1X18640Y11260D1*
G1X19700Y10060D2*
G1X19240Y10060D1*
G1X18780Y10240D2*
G1X18660Y10240D1*
G1X17020Y13390D2*
G1X17020Y11149D1*
G1X18780Y8260D2*
G1X18586Y8260D1*
G1X17920Y10680D2*
G1X17920Y8442D1*
G1X19700Y11140D2*
G1X18800Y11140D1*
G1X18460Y13390D2*
G1X18460Y12696D1*
G1X18820Y13390D2*
G1X18820Y11139D1*
G1X18704Y10680D2*
G1X18660Y10680D1*
G1X19700Y11680D2*
G1X16908Y11680D1*
G1X18780Y10420D2*
G1X18660Y10420D1*
G1X15024Y9880D2*
G1X14630Y9880D1*
G1X14816Y9700D2*
G1X14630Y9700D1*
G1X18780Y8080D2*
G1X18608Y8080D1*
G1X18660Y10680D2*
G1X18660Y10600D1*
G1X18780Y10060D2*
G1X18660Y10060D1*
G1X14310Y7360D2*
G1X11980Y7360D1*
G1X14931Y10060D2*
G1X14630Y10060D1*
G1X14937Y10240D2*
G1X14630Y10240D1*
G1X14630Y9780D2*
G1X14630Y9220D1*
G1X13910Y9780D2*
G1X13910Y9220D1*
G1X13240Y3835D2*
G1X13240Y3730D1*
G1X13275Y5660D2*
G1X13125Y5510D1*
G1X19700Y7360D2*
G1X19240Y7360D1*
G1X18100Y7710D2*
G1X18100Y5145D1*
G1X12594Y3400D2*
G1X12420Y3400D1*
G1X19700Y8440D2*
G1X19240Y8440D1*
G1X12722Y12580D2*
G1X11980Y12580D1*
G1X19700Y10600D2*
G1X19240Y10600D1*
G1X14338Y5740D2*
G1X14270Y5740D1*
G1X19700Y9160D2*
G1X19240Y9160D1*
G1X14040Y10780D2*
G1X13492Y10780D1*
G1X18062Y7720D2*
G1X16311Y7720D1*
G1X19700Y8260D2*
G1X19240Y8260D1*
G1X15220Y3850D2*
G1X15220Y3772D1*
G1X14190Y5310D2*
G1X14190Y4470D1*
G1X13350Y4470D1*
G1X12520Y5050D2*
G1X12520Y2860D1*
G1X17360Y3850D2*
G1X15078Y3850D1*
G1X13120Y3220D2*
G1X13054Y3220D1*
G1X15845Y13010D2*
G1X14785Y13010D1*
G1X18780Y6100D2*
G1X15430Y6100D1*
G1X14500Y13390D2*
G1X14500Y13375D1*
G1X14040Y12400D2*
G1X13498Y12400D1*
G1X18100Y11986D2*
G1X18100Y11260D1*
G1X18780Y5920D2*
G1X15430Y5920D1*
G1X15760Y13010D2*
G1X15760Y12850D1*
G1X14040Y11860D2*
G1X11980Y11860D1*
G1X16380Y13030D2*
G1X16380Y12850D1*
G1X17380Y13390D2*
G1X17380Y11149D1*
G1X15845Y13010D2*
G1X15920Y12935D1*
G1X15920Y12850D2*
G1X15870Y12850D1*
G1X13012Y12220D2*
G1X11980Y12220D1*
G1X14320Y13390D2*
G1X14320Y13195D1*
G1X15400Y9132D2*
G1X15400Y6613D1*
G1X19700Y12940D2*
G1X16380Y12940D1*
G1X14425Y13300D2*
G1X11980Y13300D1*
G1X14040Y12040D2*
G1X11980Y12040D1*
G1X14652Y11860D2*
G1X14500Y11860D1*
G1X14882Y12040D2*
G1X14500Y12040D1*
G1X15450Y12580D2*
G1X14500Y12580D1*
G1X19700Y12760D2*
G1X16430Y12760D1*
G1X13960Y13390D2*
G1X13960Y10440D1*
G1X15040Y9094D2*
G1X15040Y6985D1*
G1X14040Y12820D2*
G1X14040Y10440D1*
G1X14140Y13390D2*
G1X14140Y13015D1*
G1X15915Y12940D2*
G1X14715Y12940D1*
G1X12868Y12940D2*
G1X11980Y12940D1*
G1X18335Y5380D2*
G1X16304Y5380D1*
G1X19700Y7720D2*
G1X19240Y7720D1*
G1X13960Y7590D2*
G1X13960Y6849D1*
G1X12768Y8800D2*
G1X11980Y8800D1*
G1X14040Y9220D2*
G1X14040Y9170D1*
G1X12760Y5050D2*
G1X11980Y5050D1*
G1X14140Y7575D2*
G1X14140Y6842D1*
G1X19700Y8080D2*
G1X19240Y8080D1*
G1X17380Y9904D2*
G1X17380Y4425D1*
G1X12880Y10572D2*
G1X12880Y8933D1*
G1X14500Y9220D2*
G1X14500Y9170D1*
G1X18780Y6640D2*
G1X15382Y6640D1*
G1X14500Y12725D2*
G1X14500Y10440D1*
G1X15450Y12760D2*
G1X14535Y12760D1*
G1X13810Y8940D2*
G1X13810Y8870D1*
G1X14040Y10600D2*
G1X13360Y10600D1*
G1X14040Y12220D2*
G1X13268Y12220D1*
G1X18055Y12040D2*
G1X16645Y12040D1*
G1X14680Y3850D2*
G1X14680Y3772D1*
G1X14500Y3850D2*
G1X14500Y2860D1*
G1X15940Y7817D2*
G1X15940Y5494D1*
G1X18515Y5560D2*
G1X15430Y5560D1*
G1X16120Y12274D2*
G1X16120Y12087D1*
G1X19700Y4120D2*
G1X17725Y4120D1*
G1X16104Y12290D2*
G1X16185Y12210D1*
G1X18100Y13390D2*
G1X18100Y12574D1*
G1X19700Y13300D2*
G1X16205Y13300D1*
G1X16430Y12850D2*
G1X16380Y12850D1*
G1X16185Y12090D2*
G1X16159Y12090D1*
G1X14592Y11680D2*
G1X14500Y11680D1*
G1X17984Y12220D2*
G1X16645Y12220D1*
G1X14630Y10440D2*
G1X14500Y10440D1*
G1X14666Y3760D2*
G1X13716Y3760D1*
G1X11980Y13390D2*
G1X11980Y5510D1*
G1X13120Y3580D2*
G1X13054Y3580D1*
G1X12700Y10802D2*
G1X12700Y5510D1*
G1X14630Y9220D2*
G1X14500Y9220D1*
G1X13420Y13390D2*
G1X13420Y12933D1*
G1X19700Y7000D2*
G1X19240Y7000D1*
G1X18488Y3580D2*
G1X15349Y3580D1*
G1X13780Y13390D2*
G1X13780Y8856D1*
G1X11980Y5050D2*
G1X11980Y3740D1*
G1X19700Y8800D2*
G1X19240Y8800D1*
G1X18780Y7540D2*
G1X14766Y7540D1*
G1X13240Y3070D2*
G1X13240Y2860D1*
G1X14680Y7815D2*
G1X14680Y7685D1*
G1X18103Y11983D2*
G1X18400Y12280D1*
G1X18697Y12577D2*
G1X18400Y12280D1*
G1X18603Y3797D2*
G1X18900Y3500D1*
G1X19197Y3203D2*
G1X18900Y3500D1*
G1X18603Y3203D2*
G1X18900Y3500D1*
G1X19197Y3797D2*
G1X18900Y3500D1*
G1X15713Y5377D2*
G1X16010Y5080D1*
G1X16307Y4783D2*
G1X16010Y5080D1*
G1X15713Y4783D2*
G1X16010Y5080D1*
G1X16307Y5377D2*
G1X16010Y5080D1*
G1X17893Y8417D2*
G1X18190Y8120D1*
G1X18487Y7823D2*
G1X18190Y8120D1*
G1X17893Y7823D2*
G1X18190Y8120D1*
G1X18487Y8417D2*
G1X18190Y8120D1*
G1X15923Y8427D2*
G1X16220Y8130D1*
G1X16517Y7833D2*
G1X16220Y8130D1*
G1X15923Y7833D2*
G1X16220Y8130D1*
G1X16517Y8427D2*
G1X16220Y8130D1*
G1X12803Y11227D2*
G1X13100Y10930D1*
G1X13397Y10633D2*
G1X13100Y10930D1*
G1X12803Y10633D2*
G1X13100Y10930D1*
G1X13397Y11227D2*
G1X13100Y10930D1*
G1X12745Y6260D2*
G1X13040Y6260D1*
G1X14970Y6280D2*
G1X14835Y6280D1*
G1X13040Y5660D2*
G1X13040Y6260D1*
G1X13040Y6860D2*
G1X13040Y6260D1*
G1X17560Y3955D2*
G1X17560Y2860D1*
G1X18300Y10040D2*
G1X18300Y10370D1*
G1X17940Y10370D2*
G1X18300Y10370D1*
G1X18660Y10370D2*
G1X18300Y10370D1*
G1X15450Y12570D2*
G1X15730Y12570D1*
G1X15730Y12850D2*
G1X15730Y12570D1*
G1X15730Y12290D2*
G1X15730Y12570D1*
G1X17920Y4315D2*
G1X17920Y2860D1*
G1X12594Y3040D2*
G1X12420Y3040D1*
G1X14175Y7540D2*
G1X11980Y7540D1*
G1X14970Y10671D2*
G1X14970Y10293D1*
G1X15820Y8260D2*
G1X14835Y8260D1*
G1X18704Y10680D2*
G1X18780Y10604D1*
G1X17940Y10240D2*
G1X17636Y10240D1*
G1X17940Y10420D2*
G1X17656Y10420D1*
G1X17200Y13390D2*
G1X17200Y11149D1*
G1X17680Y10680D2*
G1X17656Y10680D1*
G1X18780Y7900D2*
G1X18548Y7900D1*
G1X14835Y6540D2*
G1X14835Y5955D1*
G1X14970Y5920D2*
G1X14833Y5920D1*
G1X13780Y7590D2*
G1X13780Y6736D1*
G1X18780Y7180D2*
G1X14770Y7180D1*
G1X14190Y5310D2*
G1X14123Y5310D1*
G1X14785Y13010D2*
G1X14500Y12725D1*
G1X15803Y8080D2*
G1X14835Y8080D1*
G1X13813Y8980D2*
G1X11980Y8980D1*
G1X18780Y7000D2*
G1X15023Y7000D1*
G1X14970Y6405D2*
G1X14970Y5310D1*
G1X15044Y6981D2*
G1X15362Y6662D1*
G1X14860Y9218D2*
G1X14860Y7050D1*
G1X14245Y13120D2*
G1X11980Y13120D1*
G1X15430Y6500D2*
G1X15430Y5020D1*
G1X18780Y6820D2*
G1X15205Y6820D1*
G1X15362Y4857D2*
G1X15234Y4729D1*
G1X15040Y11221D2*
G1X15040Y11149D1*
G1X15665Y4840D2*
G1X15345Y4840D1*
G1X14835Y6540D2*
G1X14970Y6405D1*
G1X15220Y9072D2*
G1X15220Y6805D1*
G1X12880Y12290D2*
G1X12880Y11288D1*
G1X13060Y12208D2*
G1X13060Y11348D1*
G1X13240Y12212D2*
G1X13240Y11326D1*
G1X15607Y5200D2*
G1X15430Y5200D1*
G1X15070Y4660D2*
G1X15030Y4660D1*
G1X16840Y3850D2*
G1X16840Y2860D1*
G1X14320Y5758D2*
G1X14320Y5310D1*
G1X18492Y3400D2*
G1X15367Y3400D1*
G1X14270Y5770D2*
G1X14270Y5540D1*
G1X13600Y7590D2*
G1X13600Y6854D1*
G1X14970Y5740D2*
G1X14742Y5740D1*
G1X13080Y3400D2*
G1X13054Y3400D1*
G1X18570Y3760D2*
G1X15233Y3760D1*
G1X14202Y5377D2*
G1X14172Y5347D1*
G1X14598Y3220D2*
G1X13879Y3220D1*
G1X13892Y6820D2*
G1X13688Y6820D1*
G1X13240Y4462D2*
G1X13240Y4310D1*
G1X12700Y5050D2*
G1X12700Y3945D1*
G1X12875Y4120D2*
G1X11980Y4120D1*
G1X12594Y3744D2*
G1X12594Y2860D1*
G1X15040Y3040D2*
G1X15040Y2860D1*
G1X16300Y4776D2*
G1X16300Y4310D1*
G1X17020Y9904D2*
G1X17020Y4310D1*
G1X16840Y9226D2*
G1X16840Y4310D1*
G1X16660Y9156D2*
G1X16660Y4310D1*
G1X13780Y4470D2*
G1X13780Y4310D1*
G1X14140Y4470D2*
G1X14140Y4310D1*
G1X13960Y4470D2*
G1X13960Y4310D1*
G1X13600Y4470D2*
G1X13600Y4310D1*
G1X13420Y4470D2*
G1X13420Y4310D1*
G1X14680Y4470D2*
G1X14680Y4310D1*
G1X15580Y9362D2*
G1X15580Y4310D1*
G1X14860Y4470D2*
G1X14860Y4310D1*
G1X15760Y4742D2*
G1X15760Y4310D1*
G1X15030Y4660D2*
G1X15030Y4470D1*
G1X14500Y4470D2*
G1X14500Y4310D1*
G1X16120Y3850D2*
G1X16120Y2860D1*
G1X13910Y10240D2*
G1X11980Y10240D1*
G1X14860Y13010D2*
G1X14860Y12032D1*
G1X15400Y13010D2*
G1X15400Y11796D1*
G1X15220Y13010D2*
G1X15220Y12004D1*
G1X15664Y11320D2*
G1X15282Y11320D1*
G1X19700Y12400D2*
G1X18802Y12400D1*
G1X15776Y11860D2*
G1X15368Y11860D1*
G1X15665Y11680D2*
G1X15428Y11680D1*
G1X15664Y11500D2*
G1X15406Y11500D1*
G1X15580Y9904D2*
G1X15580Y9618D1*
G1X15400Y9904D2*
G1X15400Y9848D1*
G1X15450Y12400D2*
G1X14500Y12400D1*
G1X15040Y9933D2*
G1X15040Y9886D1*
G1X15760Y9190D2*
G1X15760Y5417D1*
G1X15670Y9700D2*
G1X15544Y9700D1*
G1X15640Y9880D2*
G1X15336Y9880D1*
G1X16625Y9160D2*
G1X15440Y9160D1*
G1X13240Y13390D2*
G1X13240Y13028D1*
G1X13060Y13390D2*
G1X13060Y13032D1*
G1X12880Y13390D2*
G1X12880Y12950D1*
G1X14040Y11320D2*
G1X13256Y11320D1*
G1X19700Y13120D2*
G1X16361Y13120D1*
G1X14040Y12760D2*
G1X13536Y12760D1*
G1X14040Y10440D2*
G1X13910Y10440D1*
G1X16430Y12615D2*
G1X16575Y12469D1*
G1X12681Y10960D2*
G1X11980Y10960D1*
G1X19700Y5200D2*
G1X18805Y5200D1*
G1X17560Y13390D2*
G1X17560Y11140D1*
G1X18780Y8440D2*
G1X18462Y8440D1*
G1X15670Y9880D2*
G1X15670Y9190D1*
G1X12744Y12760D2*
G1X11980Y12760D1*
G1X12802Y7900D2*
G1X11980Y7900D1*
G1X16937Y9880D2*
G1X16909Y9880D1*
G1X13420Y2988D2*
G1X13420Y2860D1*
G1X18780Y8620D2*
G1X14835Y8620D1*
G1X18780Y9700D2*
G1X16909Y9700D1*
G1X18780Y9520D2*
G1X16909Y9520D1*
G1X18780Y9340D2*
G1X16903Y9340D1*
G1X13240Y10534D2*
G1X13240Y8902D1*
G1X14970Y5560D2*
G1X14270Y5560D1*
G1X15670Y9520D2*
G1X15599Y9520D1*
G1X14970Y10420D2*
G1X14630Y10420D1*
G1X17380Y3851D2*
G1X17380Y2860D1*
G1X14788Y9340D2*
G1X14630Y9340D1*
G1X14860Y11248D2*
G1X14860Y9762D1*
G1X15400Y11484D2*
G1X15400Y11149D1*
G1X15640Y11176D2*
G1X15640Y11149D1*
G1X19180Y5575D2*
G1X19180Y3813D1*
G1X16660Y13390D2*
G1X16660Y11896D1*
G1X16300Y13390D2*
G1X16300Y13205D1*
G1X16480Y3850D2*
G1X16480Y2860D1*
G1X12594Y3220D2*
G1X12420Y3220D1*
G1X13797Y3103D2*
G1X13500Y3400D1*
G1X13203Y3103D2*
G1X13500Y3400D1*
G1X13797Y3697D2*
G1X13500Y3400D1*
G1X14533Y3400D2*
G1X13920Y3400D1*
G1X13797Y3103D2*
G1X13500Y3400D1*
G1X13203Y3103D2*
G1X13500Y3400D1*
G1X13797Y3697D2*
G1X13500Y3400D1*
G1X14653Y3747D2*
G1X14950Y3450D1*
G1X15247Y3153D2*
G1X14950Y3450D1*
G1X14653Y3153D2*
G1X14950Y3450D1*
G1X15247Y3747D2*
G1X14950Y3450D1*
G1X14713Y11937D2*
G1X15010Y11640D1*
G1X15307Y11343D2*
G1X15010Y11640D1*
G1X14713Y11343D2*
G1X15010Y11640D1*
G1X15307Y11937D2*
G1X15010Y11640D1*
G1X14883Y9787D2*
G1X15180Y9490D1*
G1X15477Y9193D2*
G1X15180Y9490D1*
G1X14883Y9193D2*
G1X15180Y9490D1*
G1X15477Y9787D2*
G1X15180Y9490D1*
G1X12843Y12917D2*
G1X13140Y12620D1*
G1X13437Y12323D2*
G1X13140Y12620D1*
G1X12843Y12323D2*
G1X13140Y12620D1*
G1X13437Y12917D2*
G1X13140Y12620D1*
G1X18103Y12577D2*
G1X18400Y12280D1*
G1X18697Y11983D2*
G1X18400Y12280D1*
G1X1720Y6340D2*
G75*
G3X2270Y6890I0J550D1*
G3X1720Y7440I-550J0D1*
G3X1170Y6890I0J-550D1*
G1X4920Y12840D2*
G3X4390Y12437I0J-550D1*
G1X6690Y10480D2*
G3X6757Y10317I230J0D1*
G1X9589Y4910D2*
G3X9600Y4910I11J420D1*
G1X8000Y5570D2*
G3X8160Y5900I-260J330D1*
G1X6575Y3968D2*
G3X6430Y4020I-145J-178D1*
G1X7058Y2860D2*
G3X7120Y3080I-358J220D1*
G1X7120Y4440D2*
G3X6575Y3968I0J-550D1*
G1X4410Y3400D2*
G3X4408Y3437I-420J0D1*
G1X3670Y4890D2*
G3X3170Y4570I0J-550D1*
G1X10140Y3742D2*
G3X10207Y3587I230J8D1*
G1X1560Y4830D2*
G3X1627Y4667I230J0D1*
G1X5041Y6270D2*
G3X4820Y5900I199J-370D1*
G1X2470Y6730D2*
G3X2307Y6662I0J-230D1*
G1X2570Y5890D2*
G3X2020Y5340I0J-550D1*
G1X4408Y3437D2*
G3X4720Y3340I312J453D1*
G1X9187Y5252D2*
G3X9164Y5221I172J-153D1*
G1X9890Y3660D2*
G3X10140Y3742I0J420D1*
G1X9600Y4910D2*
G3X10020Y5330I0J420D1*
G3X9600Y5750I-420J0D1*
G3X9180Y5330I0J-420D1*
G1X10670Y5320D2*
G3X11090Y4900I420J0D1*
G3X11412Y5050I0J420D1*
G1X11090Y5740D2*
G3X10670Y5320I0J-420D1*
G1X8883Y5502D2*
G3X8720Y5570I-163J-162D1*
G1X810Y4220D2*
G3X1230Y3800I420J0D1*
G3X1650Y4220I0J420D1*
G3X1230Y4640I-420J0D1*
G3X810Y4220I0J-420D1*
G1X9820Y9220D2*
G3X10240Y8800I420J0D1*
G3X10660Y9220I0J420D1*
G3X10240Y9640I-420J0D1*
G3X9820Y9220I0J-420D1*
G1X9820Y10900D2*
G3X10240Y10480I420J0D1*
G3X10660Y10900I0J420D1*
G3X10240Y11320I-420J0D1*
G3X9820Y10900I0J-420D1*
G1X4820Y10900D2*
G3X5240Y10480I420J0D1*
G3X5660Y10900I0J420D1*
G3X5240Y11320I-420J0D1*
G3X4820Y10900I0J-420D1*
G1X3280Y8050D2*
G3X3700Y7630I420J0D1*
G3X4120Y8050I0J420D1*
G3X3700Y8470I-420J0D1*
G3X3280Y8050I0J-420D1*
G1X770Y8050D2*
G3X1190Y7630I420J0D1*
G3X1610Y8050I0J420D1*
G3X1190Y8470I-420J0D1*
G3X770Y8050I0J-420D1*
G1X9890Y4500D2*
G3X9589Y4373I0J-420D1*
G1X7320Y5900D2*
G3X7480Y5570I420J0D1*
G1X8160Y5900D2*
G3X7939Y6270I-420J0D1*
G1X4820Y5900D2*
G3X4980Y5570I420J0D1*
G1X5660Y5900D2*
G3X5439Y6270I-420J0D1*
G1X3570Y3400D2*
G3X3990Y2980I420J0D1*
G3X4410Y3400I0J420D1*
G1X3990Y3820D2*
G3X3570Y3400I0J-420D1*
G1X4920Y11740D2*
G3X5442Y12117I0J550D1*
G1X4600Y11843D2*
G3X4920Y11740I320J447D1*
G1X4230Y11464D2*
G3X4600Y11843I-160J526D1*
G1X5920Y11840D2*
G3X6398Y12117I0J550D1*
G1X7470Y12290D2*
G3X6920Y12840I-550J0D1*
G1X7620Y4340D2*
G3X8170Y3790I550J0D1*
G3X8720Y4340I0J550D1*
G3X8170Y4890I-550J0D1*
G3X7620Y4340I0J-550D1*
G1X7120Y3340D2*
G3X7670Y3890I0J550D1*
G3X7120Y4440I-550J0D1*
G1X5370Y3790D2*
G3X5920Y3240I550J0D1*
G1X5920Y4340D2*
G3X5370Y3790I0J-550D1*
G1X4720Y3340D2*
G3X5270Y3890I0J550D1*
G3X4720Y4440I-550J0D1*
G3X4170Y3890I0J-550D1*
G1X3670Y3790D2*
G3X4220Y4340I0J550D1*
G3X3670Y4890I-550J0D1*
G1X3170Y4110D2*
G3X3670Y3790I500J230D1*
G1X5500Y5570D2*
G3X5660Y5900I-260J330D1*
G1X2570Y4790D2*
G3X3069Y5110I0J550D1*
G1X2020Y5340D2*
G3X2570Y4790I550J0D1*
G1X1170Y6890D2*
G3X1720Y6340I550J0D1*
G1X4880Y4830D2*
G3X5300Y4410I420J0D1*
G3X5720Y4830I0J420D1*
G3X5613Y5110I-420J0D1*
G1X4880Y4830D2*
G3X5300Y4410I420J0D1*
G3X5720Y4830I0J420D1*
G1X4987Y5110D2*
G3X4880Y4830I313J-280D1*
G1X5720Y4830D2*
G3X5613Y5110I-420J0D1*
G1X7541Y6270D2*
G3X7320Y5900I199J-370D1*
G1X10970Y3970D2*
G3X11390Y4390I0J420D1*
G3X10970Y4810I-420J0D1*
G1X10600Y4191D2*
G3X10970Y3970I370J199D1*
G1X10970Y4810D2*
G3X10600Y4589I0J-420D1*
G1X10970Y3970D2*
G3X11390Y4390I0J420D1*
G3X10970Y4810I-420J0D1*
G1X10600Y4191D2*
G3X10970Y3970I370J199D1*
G1X10970Y4810D2*
G3X10600Y4589I0J-420D1*
G1X9589Y3787D2*
G3X9890Y3660I301J293D1*
G1X2117Y4177D2*
G3X2280Y4109I163J163D1*
G1X1627Y5982D2*
G3X1560Y5820I163J-162D1*
G1X1560Y4830D2*
G3X1627Y4667I230J0D1*
G1X9662Y6662D2*
G3X9500Y6729I-162J-162D1*
G1X2470Y6730D2*
G3X2307Y6662I0J-230D1*
G1X10140Y4417D2*
G3X9890Y4500I-250J-337D1*
G1X7420Y10210D2*
G3X7352Y10372I-230J0D1*
G1X6720Y7950D2*
G3X7140Y7530I420J0D1*
G3X7560Y7950I0J420D1*
G3X7370Y8301I-420J0D1*
G1X6280Y3080D2*
G3X6342Y2860I420J0D1*
G1X6575Y3968D2*
G3X6430Y4020I-145J-178D1*
G1X7120Y3080D2*
G3X7023Y3348I-420J0D1*
G1X9187Y5252D2*
G3X9164Y5221I172J-153D1*
G1X4987Y5110D2*
G3X4880Y4830I313J-280D1*
G1X3069Y5570D2*
G3X2570Y5889I-499J-230D1*
G1X4390Y12437D2*
G3X4230Y12516I-320J-447D1*
G1X5442Y12117D2*
G3X5920Y11840I478J273D1*
G1X5920Y12940D2*
G3X5398Y12562I0J-550D1*
G3X4920Y12840I-478J-272D1*
G1X6442Y12562D2*
G3X5920Y12940I-522J-172D1*
G1X7150Y11790D2*
G3X7470Y12290I-230J500D1*
G1X6398Y12117D2*
G3X6690Y11790I522J173D1*
G1X6690Y10480D2*
G3X6757Y10317I230J0D1*
G1X9180Y5330D2*
G3X9187Y5252I420J0D1*
G1X11464Y5510D2*
G3X11090Y5739I-374J-190D1*
G1X10600Y5630D2*
G3X10532Y5792I-230J0D1*
G1X6910Y8301D2*
G3X6720Y7950I230J-351D1*
G1X8883Y5502D2*
G3X8720Y5570I-163J-162D1*
G1X4170Y3890D2*
G3X4182Y3773I550J0D1*
G1X6419Y4020D2*
G3X5920Y4339I-499J-230D1*
G1X6920Y12840D2*
G3X6442Y12562I0J-550D1*
G1X6466Y3429D2*
G3X6280Y3080I234J-349D1*
G1X7023Y3348D2*
G3X7120Y3339I97J542D1*
G1X4182Y3773D2*
G3X3990Y3820I-192J-373D1*
G1X5920Y3240D2*
G3X6390Y3504I0J550D1*
G1X15628Y9904D2*
G3X15640Y9904I0J238D1*
G1X14822Y3850D2*
G3X14530Y3450I128J-400D1*
G1X14835Y8685D2*
G3X14770Y8870I-295J0D1*
G1X14770Y7500D2*
G3X14702Y7662I-230J0D1*
G1X13160Y4310D2*
G3X12997Y4242I0J-230D1*
G1X13790Y8841D2*
G3X13540Y8980I-250J-156D1*
G1X14540Y5660D2*
G3X14835Y5955I0J295D1*
G1X14270Y5770D2*
G3X14290Y5798I-230J185D1*
G1X14040Y6860D2*
G3X13790Y6721I0J-295D1*
G1X14290Y6721D2*
G3X14040Y6860I-250J-156D1*
G1X14290Y5798D2*
G3X14540Y5660I250J157D1*
G1X13540Y6860D2*
G3X13335Y6777I0J-295D1*
G1X13790Y6721D2*
G3X13540Y6860I-250J-156D1*
G1X15931Y11895D2*
G3X15903Y11897I-28J-237D1*
G3X15664Y11658I0J-239D1*
G1X15122Y9906D2*
G3X14760Y9490I58J-416D1*
G1X16909Y11658D2*
G3X16671Y11896I-238J0D1*
G74*
G1X16909Y11176D2*
G1X16909Y11185D1*
G1X17657Y10398D2*
G75*
G3X17620Y10526I-238J0D1*
G3X17657Y10654I-201J128D1*
G1X17419Y9904D2*
G3X17657Y10142I0J238D1*
G74*
G1X16937Y9904D2*
G1X16946Y9904D1*
G1X17657Y10142D2*
G75*
G3X17620Y10270I-238J0D1*
G3X17657Y10398I-201J128D1*
G1X16909Y9867D2*
G3X16909Y9880I-238J0D1*
G1X16671Y9156D2*
G3X16909Y9394I0J238D1*
G1X14916Y10142D2*
G3X15122Y9906I239J0D1*
G74*
G1X15664Y11185D2*
G1X15664Y11176D1*
G1X12760Y5050D2*
G75*
G3X12720Y4870I380J-180D1*
G1X17482Y11140D2*
G3X17419Y11148I-63J-230D1*
G1X13810Y8870D2*
G3X13790Y8841I230J-185D1*
G1X16159Y12090D2*
G3X15931Y11895I0J-230D1*
G1X14590Y11640D2*
G3X15010Y11220I420J0D1*
G3X15430Y11640I0J420D1*
G3X15010Y12060I-420J0D1*
G3X14590Y11640I0J-420D1*
G1X14760Y9490D2*
G3X15180Y9070I420J0D1*
G3X15600Y9490I0J420D1*
G3X15252Y9904I-420J0D1*
G1X12720Y12620D2*
G3X13140Y12200I420J0D1*
G3X13560Y12620I0J420D1*
G3X13140Y13040I-420J0D1*
G3X12720Y12620I0J-420D1*
G1X17980Y12280D2*
G3X18400Y11860I420J0D1*
G3X18820Y12280I0J420D1*
G3X18400Y12700I-420J0D1*
G3X17980Y12280I0J-420D1*
G1X18480Y3500D2*
G3X18900Y3080I420J0D1*
G3X19320Y3500I0J420D1*
G3X18900Y3920I-420J0D1*
G3X18480Y3500I0J-420D1*
G1X15590Y5080D2*
G3X16010Y4660I420J0D1*
G3X16430Y5080I0J420D1*
G3X16010Y5500I-420J0D1*
G3X15590Y5080I0J-420D1*
G1X17770Y8120D2*
G3X18190Y7700I420J0D1*
G3X18610Y8120I0J420D1*
G3X18190Y8540I-420J0D1*
G3X17770Y8120I0J-420D1*
G1X15800Y8130D2*
G3X16220Y7710I420J0D1*
G3X16640Y8130I0J420D1*
G3X16220Y8550I-420J0D1*
G3X15800Y8130I0J-420D1*
G1X12680Y10930D2*
G3X13100Y10510I420J0D1*
G3X13520Y10930I0J420D1*
G3X13100Y11350I-420J0D1*
G3X12680Y10930I0J-420D1*
G1X13040Y8980D2*
G3X12745Y8685I0J-295D1*
G1X13290Y8841D2*
G3X13040Y8980I-250J-156D1*
G1X14582Y7783D2*
G3X14835Y8075I-42J292D1*
G1X14310Y6750D2*
G3X14290Y6721I230J-185D1*
G1X12810Y7820D2*
G3X13040Y7590I230J0D1*
G1X12661Y3906D2*
G3X12594Y3744I163J-162D1*
G1X17360Y3850D2*
G3X17522Y3917I0J230D1*
G1X13160Y4310D2*
G3X12997Y4242I0J-230D1*
G1X19240Y10700D2*
G3X19172Y10863I-230J0D1*
G1X18962Y11073D2*
G3X18800Y11140I-162J-163D1*
G1X19172Y5567D2*
G3X19240Y5730I-162J163D1*
G1X18962Y11073D2*
G3X18800Y11140I-162J-163D1*
G1X14107Y12982D2*
G3X14040Y12820I163J-162D1*
G1X17657Y10654D2*
G3X17656Y10680I-238J0D1*
G1X14040Y9170D2*
G3X13810Y8940I0J-230D1*
G1X14123Y5310D2*
G3X14172Y5347I-113J200D1*
G1X14123Y5310D2*
G3X14172Y5347I-113J200D1*
G1X14202Y5377D2*
G3X14270Y5540I-162J163D1*
G1X15430Y6500D2*
G3X15362Y6662I-230J0D1*
G1X14107Y12982D2*
G3X14040Y12820I163J-162D1*
G1X13540Y8980D2*
G3X13290Y8841I0J-295D1*
G1X16645Y12305D2*
G3X16577Y12467I-230J0D1*
G1X16380Y13030D2*
G3X16312Y13192I-230J0D1*
G1X16159Y12090D2*
G3X15931Y11895I0J-230D1*
G1X12720Y4870D2*
G3X13140Y4450I420J0D1*
G1X14770Y8940D2*
G3X14540Y9170I-230J0D1*
G1X13140Y4450D2*
G3X13350Y4506I0J420D1*
G1X12745Y8075D2*
G3X12810Y7890I295J0D1*
G1X15042Y6982D2*
G3X14880Y7049I-162J-162D1*
G1X19172Y5567D2*
G3X19240Y5730I-162J163D1*
G1X15070Y4660D2*
G3X15232Y4727I0J230D1*
G1X15362Y4857D2*
G3X15430Y5020I-162J163D1*
G1X15070Y4660D2*
G3X15232Y4727I0J230D1*
G1X13080Y3400D2*
G3X13500Y2980I420J0D1*
G3X13920Y3400I0J420D1*
G3X13500Y3820I-420J0D1*
G3X13080Y3400I0J-420D1*
G3X13500Y2980I420J0D1*
G3X13920Y3400I0J420D1*
G3X13500Y3820I-420J0D1*
G3X13080Y3400I0J-420D1*
G1X14530Y3450D2*
G3X14950Y3030I420J0D1*
G3X15370Y3450I0J420D1*
G3X15078Y3850I-420J0D1*
G1X14970Y10293D2*
G3X14916Y10142I185J-151D1*
G74*
G1X16946Y11149D2*
G1X16937Y11148D1*
G1X16547Y9190D2*
G75*
G3X16671Y9155I124J204D1*
G1X16671Y11897D2*
G3X16645Y11895I0J-239D1*
G74*
G1X6920Y12290D2*
G54D28*
G1X6920Y10760D1*
G1X7230Y10760D1*
G1X7190Y9600D2*
G1X7190Y10210D1*
G1X6920Y10480D1*
G1X6920Y10760D1*
G1X7230Y10760D1*
G1X14540Y6260D2*
G1X14540Y6820D1*
G1X14880Y6820D1*
G1X15200Y6500D1*
G1X15200Y5020D1*
G1X15070Y4890D1*
G1X14610Y4890D1*
G1X5300Y4830D2*
G1X5300Y3370D1*
G1X5580Y3090D1*
G1X5580Y920D1*
G1X5580Y3090D1*
G1X5300Y3370D1*
G1X5300Y4830D1*
G1X18300Y10370D2*
G1X18300Y9930D1*
G1X18300Y10370D2*
G1X18300Y9930D1*
G1X9890Y4080D2*
G1X9830Y4080D1*
G1X9890Y4020D1*
G1X9890Y3557D1*
G1X9878Y3548D1*
G1X10090Y3548D1*
G1X11879Y1759D1*
G1X11879Y920D1*
G1X14399Y920D2*
G1X14399Y2789D1*
G1X15120Y3510D1*
G1X15010Y3510D1*
G1X14950Y3450D1*
G1X10970Y4390D2*
G1X10970Y4540D1*
G1X10990Y4520D1*
G1X10990Y3660D1*
G1X12509Y2141D1*
G1X12509Y920D1*
G1X12509Y2141D1*
G1X10990Y3660D1*
G1X10990Y4520D1*
G1X10970Y4540D1*
G1X10970Y4390D1*
G1X12509Y920D2*
G1X12509Y2141D1*
G1X10990Y3660D1*
G1X10990Y4520D1*
G1X10970Y4540D1*
G1X10970Y4390D1*
G1X9890Y4080D2*
G1X9830Y4080D1*
G1X9890Y4020D1*
G1X9890Y3557D1*
G1X9878Y3548D1*
G1X10090Y3548D1*
G1X11879Y1759D1*
G1X11879Y920D1*
G1X18300Y9930D2*
G1X18300Y10370D1*
G1X16159Y9709D2*
G1X16159Y8980D1*
G1X16140Y8980D1*
G1X14399Y920D2*
G1X14399Y2789D1*
G1X15120Y3510D1*
G1X15010Y3510D1*
G1X14950Y3450D1*
G1X16289Y10528D2*
G1X16415Y10402D1*
G1X16415Y9709D1*
G1X15903Y9709D2*
G1X15903Y10387D1*
G1X15892Y10398D1*
G1X15470Y10398D1*
G1X16159Y9709D2*
G1X16159Y8980D1*
G1X16310Y8980D1*
G1X16415Y9085D1*
G1X16415Y9709D1*
G1X16159Y9709D2*
G1X16159Y8980D1*
G1X16159Y8970D1*
G1X16000Y8970D1*
G1X15903Y9067D1*
G1X15903Y9709D1*
G1X15470Y10654D2*
G1X14854Y10654D1*
G1X14780Y10580D1*
G1X14780Y10430D1*
G1X14830Y10380D1*
G1X15452Y10380D1*
G1X15470Y10398D1*
G1X14040Y6260D2*
G1X14040Y5540D1*
G1X14010Y5510D1*
G1X13880Y5510D1*
G1X13770Y5400D1*
G1X13770Y4890D1*
G1X3670Y4340D2*
G1X2280Y4340D1*
G1X1790Y4830D1*
G1X1790Y5820D1*
G1X2470Y6500D1*
G1X9500Y6500D1*
G1X10370Y5630D1*
G1X10370Y3750D1*
G1X12194Y1926D1*
G1X12194Y920D1*
G1X16150Y12570D2*
G1X16150Y13030D1*
G1X15940Y13240D1*
G1X14690Y13240D1*
G1X14270Y12820D1*
G1X14270Y10110D1*
G1X14040Y8380D2*
G1X14040Y8940D1*
G1X14270Y8940D1*
G1X14270Y9550D1*
G1X16415Y11343D2*
G1X16415Y11860D1*
G1X16415Y12305D1*
G1X16150Y12570D1*
G1X13770Y4890D2*
G1X13110Y4890D1*
G1X7190Y9040D2*
G1X7140Y8990D1*
G1X7140Y7950D1*
G1X13540Y8380D2*
G1X13540Y7820D1*
G1X14220Y7820D1*
G1X14540Y7500D1*
G1X14540Y6820D1*
G1X14540Y6260D1*
G1X13040Y8380D2*
G1X13040Y7820D1*
G1X13540Y7820D1*
G1X13540Y8380D1*
G1X12824Y920D2*
G1X12824Y3744D1*
G1X13160Y4080D1*
G1X17360Y4080D1*
G1X19010Y5730D1*
G1X19010Y10700D1*
G1X18800Y10910D1*
G1X18320Y10910D1*
G1X18300Y10930D1*
G1X6700Y3080D2*
G1X6700Y3520D1*
G1X6430Y3790D1*
G1X5920Y3790D1*
G1X17104Y10910D2*
G1X17680Y10910D1*
G1X18280Y10910D1*
G1X18300Y10930D1*
G1X9359Y920D2*
G1X9359Y5099D1*
G1X9540Y5280D1*
G1X9580Y5280D1*
G1X9580Y5270D1*
G1X9590Y5270D1*
G1X9600Y5280D1*
G1X9600Y5330D1*
G1X11090Y5320D2*
G1X11130Y5280D1*
G1X13220Y5280D1*
G1X13540Y5600D1*
G1X13540Y6260D1*
G1X14540Y8380D2*
G1X14540Y8940D1*
G1X14270Y8940D1*
G1X14270Y9550D1*
G1X13770Y4890D2*
G1X13110Y4890D1*
G1X9044Y920D2*
G1X9044Y5015D1*
G1X8720Y5340D1*
G1X2570Y5340D1*
G1X16159Y11343D2*
G1X16159Y11860D1*
G1X16415Y11860D1*
G1X16415Y11343D1*
G1X16054Y10654D2*
G1X15470Y10654D1*
G1X3020Y11240D2*
G54D29*
G1X2990Y11270D1*
G1X3020Y11240D2*
G54D72*
G1X3020Y9580D1*
G1X1850Y9580D1*
G1X679Y10751D1*
G1X679Y12610D1*
G1X2990Y11270D2*
G1X2430Y11270D1*
G1X1821Y11879D1*
G1X1821Y12610D1*
G1X1250Y12010D2*
G1X1250Y11360D1*
G1X2220Y10390D1*
G54D10*
G1X16289Y10528D3*
G54D11*
G1X15903Y9630D3*
G1X16159Y9630D3*
G1X16415Y9630D3*
G1X16671Y9630D3*
G1X16671Y11422D3*
G1X16415Y11422D3*
G1X16159Y11422D3*
G1X15903Y11422D3*
G54D12*
G1X15391Y10654D3*
G1X15391Y10398D3*
G1X15391Y10142D3*
G1X17182Y10142D3*
G1X17182Y10398D3*
G1X17182Y10654D3*
G1X17182Y10910D3*
G54D13*
G1X15391Y10910D3*
G54D14*
G1X16150Y12570D3*
G1X15730Y12570D3*
G1X7230Y10760D3*
G1X7650Y10760D3*
G54D15*
G1X7190Y9040D3*
G1X7190Y9600D3*
G1X14270Y9550D3*
G1X14270Y10110D3*
G1X18300Y10930D3*
G1X18300Y10370D3*
G54D16*
G1X5580Y723D3*
G1X11879Y723D3*
G1X12509Y723D3*
G1X13139Y723D3*
G1X13769Y723D3*
G1X14399Y723D3*
G54D17*
G1X5895Y821D3*
G1X14084Y821D3*
G54D18*
G1X6210Y920D3*
G1X6525Y920D3*
G1X6840Y920D3*
G1X7155Y920D3*
G1X8729Y920D3*
G1X9044Y920D3*
G1X9359Y920D3*
G1X9674Y920D3*
G1X9989Y920D3*
G1X10304Y920D3*
G1X10619Y920D3*
G1X10934Y920D3*
G1X11249Y920D3*
G1X11564Y920D3*
G1X12194Y920D3*
G1X12824Y920D3*
G1X13454Y920D3*
G54D19*
G1X679Y12610D3*
G1X1821Y12610D3*
G54D20*
G1X1250Y12010D3*
G54D21*
G1X13540Y6260D3*
G1X14040Y6260D3*
G1X14540Y6260D3*
G1X14540Y8380D3*
G1X14040Y8380D3*
G1X13540Y8380D3*
G1X13040Y8380D3*
G54D22*
G1X13040Y6260D3*
G54D23*
G1X13770Y4890D3*
G1X14610Y4890D3*
G54D24*
G1X2220Y10390D3*
G1X1720Y6890D3*
G1X2570Y5340D3*
G1X3670Y4340D3*
G1X4720Y3890D3*
G1X5920Y3790D3*
G1X7120Y3890D3*
G1X8170Y4340D3*
G1X6920Y12290D3*
G1X5920Y12390D3*
G1X4920Y12290D3*
G1X4070Y11990D3*
G54D25*
G1X3020Y11240D3*
G54D26*
G1X15010Y11640D3*
G1X15180Y9490D3*
G1X1230Y4220D3*
G1X10240Y9220D3*
G1X13140Y12620D3*
G1X18400Y12280D3*
G1X18900Y3500D3*
G1X16010Y5080D3*
G1X18190Y8120D3*
G1X16220Y8130D3*
G1X13100Y10930D3*
G1X10240Y10900D3*
G1X5240Y10900D3*
G1X3700Y8050D3*
G1X1190Y8050D3*
G1X7740Y5900D3*
G1X5240Y5900D3*
G1X3990Y3400D3*
G54D30*
G1X5300Y4830D3*
G1X13500Y3400D3*
G1X10970Y4390D3*
G1X9890Y4080D3*
G1X14950Y3450D3*
G1X13140Y4870D3*
G1X7140Y7950D3*
G1X6700Y3080D3*
G1X9600Y5330D3*
G1X11090Y5320D3*
M2*
