*
%LPD*%
%LNNECKC*%
%FSLAX24Y24*%
%MOIN*%
%AD*%
%ADD27C,0.020000*%
%ADD28C,0.012000*%
%ADD30C,0.050000*%
%ADD31R,0.021600X0.141700*%
%ADD32R,0.021600X0.122000*%
%ADD33R,0.021600X0.102300*%
%ADD34C,0.076000*%
%ADD35R,0.076000X0.076000*%
%ADD36C,0.050000*%
G54D27*
%SRX1Y1I0.0J0.0*%
G1X19700Y13390D2*
G1X12675Y13390D1*
G1X19700Y13390D2*
G1X19700Y2860D1*
G1X19700Y3040D2*
G1X15041Y3040D1*
G1X11960Y13390D2*
G1X11957Y2860D1*
G1X12675Y13390D2*
G1X11960Y13390D1*
G1X19517Y13390D2*
G1X19517Y2860D1*
G1X13757Y13390D2*
G1X13757Y4710D1*
G1X19157Y13390D2*
G1X19157Y3832D1*
G1X18977Y13390D2*
G1X18977Y3913D1*
G1X19337Y13390D2*
G1X19337Y2860D1*
G1X17794Y8260D2*
G1X16619Y8260D1*
G1X19700Y5380D2*
G1X16304Y5380D1*
G1X18437Y7780D2*
G1X18437Y2860D1*
G1X18257Y7705D2*
G1X18257Y2860D1*
G1X19700Y7900D2*
G1X18548Y7900D1*
G1X17717Y13390D2*
G1X17717Y2860D1*
G1X17537Y13390D2*
G1X17537Y2860D1*
G1X17357Y13390D2*
G1X17357Y2860D1*
G1X17177Y13390D2*
G1X17177Y2860D1*
G1X16997Y13390D2*
G1X16997Y2860D1*
G1X15936Y8440D2*
G1X11959Y8440D1*
G1X18077Y7715D2*
G1X18077Y2860D1*
G1X16637Y8083D2*
G1X16637Y2860D1*
G1X18797Y3093D2*
G1X18797Y2860D1*
G1X18977Y3087D2*
G1X18977Y2860D1*
G1X16097Y4669D2*
G1X16097Y2860D1*
G1X19700Y11500D2*
G1X15406Y11500D1*
G1X15737Y4760D2*
G1X15737Y2860D1*
G1X15557Y9305D2*
G1X15557Y2860D1*
G1X13854Y3040D2*
G1X13716Y3040D1*
G1X15737Y13390D2*
G1X15737Y5399D1*
G1X13854Y3940D2*
G1X11957Y3940D1*
G1X15377Y9119D2*
G1X15377Y2860D1*
G1X13854Y2860D2*
G1X11957Y2860D1*
G1X13397Y10633D2*
G1X13397Y5202D1*
G1X13757Y3068D2*
G1X13757Y2860D1*
G1X12776Y4660D2*
G1X11958Y4660D1*
G1X13217Y4292D2*
G1X13217Y3710D1*
G1X15868Y7900D2*
G1X11958Y7900D1*
G1X13757Y4250D2*
G1X13757Y3732D1*
G1X13854Y3760D2*
G1X13716Y3760D1*
G1X12857Y4559D2*
G1X12857Y2860D1*
G1X12677Y13390D2*
G1X12677Y2860D1*
G1X12497Y13390D2*
G1X12497Y2860D1*
G1X12317Y13390D2*
G1X12317Y2860D1*
G1X12137Y13390D2*
G1X12137Y2860D1*
G1X19700Y10960D2*
G1X13519Y10960D1*
G1X19700Y13300D2*
G1X11960Y13300D1*
G1X12857Y12309D2*
G1X12857Y11273D1*
G1X19700Y12940D2*
G1X13412Y12940D1*
G1X18617Y11920D2*
G1X18617Y3810D1*
G1X19700Y12760D2*
G1X13536Y12760D1*
G1X19700Y13120D2*
G1X11960Y13120D1*
G1X12722Y12580D2*
G1X11960Y12580D1*
G1X15557Y13390D2*
G1X15557Y9674D1*
G1X12744Y12760D2*
G1X11960Y12760D1*
G1X19700Y11680D2*
G1X15428Y11680D1*
G1X13120Y3220D2*
G1X11957Y3220D1*
G1X14652Y11860D2*
G1X11959Y11860D1*
G1X19700Y11140D2*
G1X13464Y11140D1*
G1X14614Y11500D2*
G1X11959Y11500D1*
G1X19700Y10780D2*
G1X13492Y10780D1*
G1X12840Y10600D2*
G1X11959Y10600D1*
G1X19700Y10420D2*
G1X11959Y10420D1*
G1X19700Y10240D2*
G1X11959Y10240D1*
G1X15197Y3110D2*
G1X15197Y2860D1*
G1X19700Y9880D2*
G1X15336Y9880D1*
G1X19700Y9700D2*
G1X15544Y9700D1*
G1X19700Y10060D2*
G1X11959Y10060D1*
G1X19700Y9340D2*
G1X15572Y9340D1*
G1X14920Y9160D2*
G1X11959Y9160D1*
G1X19700Y8980D2*
G1X11959Y8980D1*
G1X19700Y8800D2*
G1X11959Y8800D1*
G1X18062Y7720D2*
G1X16311Y7720D1*
G1X19700Y8620D2*
G1X11959Y8620D1*
G1X16277Y4756D2*
G1X16277Y2860D1*
G1X15803Y8080D2*
G1X11958Y8080D1*
G1X16129Y7720D2*
G1X11958Y7720D1*
G1X19700Y7540D2*
G1X11958Y7540D1*
G1X19700Y7360D2*
G1X11958Y7360D1*
G1X19700Y7180D2*
G1X11958Y7180D1*
G1X19700Y7000D2*
G1X11958Y7000D1*
G1X19700Y6820D2*
G1X11958Y6820D1*
G1X19700Y6640D2*
G1X11958Y6640D1*
G1X19700Y6460D2*
G1X11958Y6460D1*
G1X19700Y6280D2*
G1X11958Y6280D1*
G1X19700Y6100D2*
G1X11958Y6100D1*
G1X19700Y5920D2*
G1X11958Y5920D1*
G1X19700Y5740D2*
G1X11958Y5740D1*
G1X19700Y3940D2*
G1X14314Y3940D1*
G1X19700Y5560D2*
G1X11958Y5560D1*
G1X12721Y4840D2*
G1X11958Y4840D1*
G1X15716Y5380D2*
G1X11958Y5380D1*
G1X15665Y4840D2*
G1X13559Y4840D1*
G1X13207Y4300D2*
G1X11958Y4300D1*
G1X13284Y3760D2*
G1X11957Y3760D1*
G1X14314Y4406D2*
G1X14314Y2860D1*
G1X18077Y12011D2*
G1X18077Y8524D1*
G1X14477Y13390D2*
G1X14477Y2860D1*
G1X13577Y4250D2*
G1X13577Y3813D1*
G1X13397Y4250D2*
G1X13397Y3807D1*
G1X13577Y13390D2*
G1X13577Y4710D1*
G1X13397Y11227D2*
G1X13100Y10930D1*
G1X13203Y3697D2*
G1X13500Y3400D1*
G1X12748Y5020D2*
G1X11958Y5020D1*
G1X13203Y3103D2*
G1X13500Y3400D1*
G1X13043Y4461D2*
G1X13187Y4317D1*
G1X14653Y3747D2*
G1X14950Y3450D1*
G1X15247Y3153D2*
G1X14950Y3450D1*
G1X14653Y3153D2*
G1X14950Y3450D1*
G1X15247Y3747D2*
G1X14950Y3450D1*
G1X14713Y11937D2*
G1X15010Y11640D1*
G1X15307Y11343D2*
G1X15010Y11640D1*
G1X14713Y11343D2*
G1X15010Y11640D1*
G1X15307Y11937D2*
G1X15010Y11640D1*
G1X14883Y9787D2*
G1X15180Y9490D1*
G1X15477Y9193D2*
G1X15180Y9490D1*
G1X14883Y9193D2*
G1X15180Y9490D1*
G1X15477Y9787D2*
G1X15180Y9490D1*
G1X12843Y12917D2*
G1X13140Y12620D1*
G1X13437Y12323D2*
G1X13140Y12620D1*
G1X12843Y12323D2*
G1X13140Y12620D1*
G1X13437Y12917D2*
G1X13140Y12620D1*
G1X18103Y12577D2*
G1X18400Y12280D1*
G1X18697Y11983D2*
G1X18400Y12280D1*
G1X18103Y11983D2*
G1X18400Y12280D1*
G1X18697Y12577D2*
G1X18400Y12280D1*
G1X18603Y3797D2*
G1X18900Y3500D1*
G1X19197Y3203D2*
G1X18900Y3500D1*
G1X18603Y3203D2*
G1X18900Y3500D1*
G1X19197Y3797D2*
G1X18900Y3500D1*
G1X15713Y5377D2*
G1X16010Y5080D1*
G1X16307Y4783D2*
G1X16010Y5080D1*
G1X15713Y4783D2*
G1X16010Y5080D1*
G1X16307Y5377D2*
G1X16010Y5080D1*
G1X17893Y8417D2*
G1X18190Y8120D1*
G1X18487Y7823D2*
G1X18190Y8120D1*
G1X17893Y7823D2*
G1X18190Y8120D1*
G1X18487Y8417D2*
G1X18190Y8120D1*
G1X15923Y8427D2*
G1X16220Y8130D1*
G1X16517Y7833D2*
G1X16220Y8130D1*
G1X15923Y7833D2*
G1X16220Y8130D1*
G1X16517Y8427D2*
G1X16220Y8130D1*
G1X12803Y11227D2*
G1X13100Y10930D1*
G1X13397Y10633D2*
G1X13100Y10930D1*
G1X12803Y10633D2*
G1X13100Y10930D1*
G1X19700Y5200D2*
G1X16412Y5200D1*
G1X13397Y2993D2*
G1X13397Y2860D1*
G1X15017Y3035D2*
G1X15017Y2860D1*
G1X12880Y5200D2*
G1X11958Y5200D1*
G1X19700Y4660D2*
G1X14153Y4660D1*
G1X13284Y3040D2*
G1X11957Y3040D1*
G1X18587Y3220D2*
G1X15301Y3220D1*
G1X18492Y3400D2*
G1X15367Y3400D1*
G1X15594Y5020D2*
G1X13532Y5020D1*
G1X14859Y3040D2*
G1X14314Y3040D1*
G1X13217Y10527D2*
G1X13217Y5283D1*
G1X12857Y10587D2*
G1X12857Y5180D1*
G1X15197Y9070D2*
G1X15197Y3789D1*
G1X18570Y3760D2*
G1X15233Y3760D1*
G1X14657Y11412D2*
G1X14657Y3751D1*
G1X14837Y9247D2*
G1X14837Y3854D1*
G1X15017Y9103D2*
G1X15017Y3864D1*
G1X19700Y4300D2*
G1X14314Y4300D1*
G1X18488Y3580D2*
G1X15349Y3580D1*
G1X14657Y3149D2*
G1X14657Y2860D1*
G1X13854Y4250D2*
G1X13854Y3626D1*
G1X13854Y4250D2*
G1X13350Y4250D1*
G1X13217Y3089D2*
G1X13217Y2860D1*
G1X13854Y3173D2*
G1X13854Y2860D1*
G1X19700Y7720D2*
G1X18318Y7720D1*
G1X15607Y5200D2*
G1X13400Y5200D1*
G1X13080Y3400D2*
G1X11957Y3400D1*
G1X19700Y4480D2*
G1X14301Y4480D1*
G1X14173Y4642D2*
G1X14245Y4570D1*
G1X19700Y4120D2*
G1X14314Y4120D1*
G1X12984Y4480D2*
G1X11958Y4480D1*
G1X13937Y13390D2*
G1X13937Y4710D1*
G1X19700Y2860D2*
G1X14314Y2860D1*
G1X14010Y4710D2*
G1X13528Y4710D1*
G1X13037Y4463D2*
G1X13037Y2860D1*
G1X13120Y3580D2*
G1X11957Y3580D1*
G1X13854Y4120D2*
G1X11957Y4120D1*
G1X14837Y3045D2*
G1X14837Y2860D1*
G1X14666Y3760D2*
G1X14314Y3760D1*
G1X14550Y3580D2*
G1X14314Y3580D1*
G1X14533Y3400D2*
G1X14314Y3400D1*
G1X14598Y3220D2*
G1X14314Y3220D1*
G1X15917Y13390D2*
G1X15917Y8421D1*
G1X14657Y13390D2*
G1X14657Y11868D1*
G1X15377Y13390D2*
G1X15377Y11843D1*
G1X15197Y13390D2*
G1X15197Y12016D1*
G1X15017Y13390D2*
G1X15017Y12060D1*
G1X14837Y13390D2*
G1X14837Y12023D1*
G1X18055Y12040D2*
G1X15138Y12040D1*
G1X14882Y12040D2*
G1X11959Y12040D1*
G1X13012Y12220D2*
G1X11960Y12220D1*
G1X14592Y11680D2*
G1X11959Y11680D1*
G1X19700Y11320D2*
G1X15282Y11320D1*
G1X14117Y13390D2*
G1X14117Y4683D1*
G1X15377Y11436D2*
G1X15377Y9861D1*
G1X15197Y11264D2*
G1X15197Y9909D1*
G1X15017Y11220D2*
G1X15017Y9877D1*
G1X19700Y11860D2*
G1X15368Y11860D1*
G1X15024Y9880D2*
G1X11959Y9880D1*
G1X14816Y9700D2*
G1X11959Y9700D1*
G1X14761Y9520D2*
G1X11959Y9520D1*
G1X14788Y9340D2*
G1X11959Y9340D1*
G1X19700Y9520D2*
G1X15599Y9520D1*
G1X13397Y13390D2*
G1X13397Y12952D1*
G1X13217Y13390D2*
G1X13217Y13033D1*
G1X13037Y13390D2*
G1X13037Y13027D1*
G1X12857Y13390D2*
G1X12857Y12930D1*
G1X12868Y12940D2*
G1X11960Y12940D1*
G1X18106Y12580D2*
G1X13558Y12580D1*
G1X17997Y12400D2*
G1X13498Y12400D1*
G1X17984Y12220D2*
G1X13268Y12220D1*
G1X18797Y13390D2*
G1X18797Y12416D1*
G1X18617Y13390D2*
G1X18617Y12639D1*
G1X19700Y12580D2*
G1X18694Y12580D1*
G1X19700Y12400D2*
G1X18802Y12400D1*
G1X19700Y12220D2*
G1X18816Y12220D1*
G1X19700Y12040D2*
G1X18745Y12040D1*
G1X18437Y13390D2*
G1X18437Y12698D1*
G1X19700Y8260D2*
G1X18586Y8260D1*
G1X15820Y8260D2*
G1X11959Y8260D1*
G1X19700Y3760D2*
G1X19230Y3760D1*
G1X19700Y3580D2*
G1X19312Y3580D1*
G1X19700Y3400D2*
G1X19308Y3400D1*
G1X19700Y3220D2*
G1X19213Y3220D1*
G1X19157Y3168D2*
G1X19157Y2860D1*
G1X12782Y12400D2*
G1X11960Y12400D1*
G1X18797Y12144D2*
G1X18797Y3907D1*
G1X16277Y7714D2*
G1X16277Y5404D1*
G1X16097Y7728D2*
G1X16097Y5491D1*
G1X15917Y7839D2*
G1X15917Y5489D1*
G1X13577Y2987D2*
G1X13577Y2860D1*
G1X15917Y4670D2*
G1X15917Y2860D1*
G1X16457Y7783D2*
G1X16457Y2860D1*
G1X16817Y13390D2*
G1X16817Y2860D1*
G1X19700Y5020D2*
G1X16426Y5020D1*
G1X18257Y13390D2*
G1X18257Y12675D1*
G1X19700Y8440D2*
G1X18462Y8440D1*
G1X14738Y11320D2*
G1X13256Y11320D1*
G1X18437Y11861D2*
G1X18437Y8459D1*
G1X18257Y11885D2*
G1X18257Y8534D1*
G1X18077Y13390D2*
G1X18077Y12549D1*
G1X17897Y7819D2*
G1X17897Y2860D1*
G1X19700Y8080D2*
G1X18608Y8080D1*
G1X19700Y4840D2*
G1X16355Y4840D1*
G1X13037Y10515D2*
G1X13037Y5277D1*
G1X17918Y8440D2*
G1X16503Y8440D1*
G1X17897Y13390D2*
G1X17897Y8421D1*
G1X16637Y13390D2*
G1X16637Y8177D1*
G1X16457Y13390D2*
G1X16457Y8476D1*
G1X16277Y13390D2*
G1X16277Y8546D1*
G1X16097Y13390D2*
G1X16097Y8532D1*
G1X18617Y3189D2*
G1X18617Y2860D1*
G1X17772Y8080D2*
G1X16637Y8080D1*
G1X17832Y7900D2*
G1X16571Y7900D1*
G1X19700Y9160D2*
G1X15440Y9160D1*
G1X13397Y12288D2*
G1X13397Y11226D1*
G1X13217Y12207D2*
G1X13217Y11333D1*
G1X13037Y12213D2*
G1X13037Y11345D1*
G1X14837Y11257D2*
G1X14837Y9733D1*
G1X12944Y11320D2*
G1X11959Y11320D1*
G1X12736Y11140D2*
G1X11959Y11140D1*
G1X12681Y10960D2*
G1X11959Y10960D1*
G1X12708Y10780D2*
G1X11959Y10780D1*
G1X19700Y10600D2*
G1X13360Y10600D1*
G1X13203Y3697D2*
G1X13500Y3400D1*
G1X13203Y3103D2*
G1X13500Y3400D1*
G1X14297Y13390D2*
G1X14297Y4491D1*
G1X6060Y13390D2*
G1X6060Y12922D1*
G1X10920Y3310D2*
G1X7051Y3310D1*
G1X11280Y8172D2*
G1X11280Y5694D1*
G1X9200Y5200D2*
G1X7370Y5200D1*
G1X6910Y6640D2*
G1X4860Y6640D1*
G1X6910Y5380D2*
G1X4860Y5380D1*
G1X6910Y7540D2*
G1X4860Y7540D1*
G1X3720Y3078D2*
G1X3720Y2860D1*
G1X4400Y4660D2*
G1X4117Y4660D1*
G1X2280Y4873D2*
G1X2280Y3680D1*
G1X2470Y11790D2*
G1X2470Y10880D1*
G1X3557Y11790D2*
G1X2470Y11790D1*
G1X11540Y13390D2*
G1X300Y13390D1*
G1X10560Y4480D2*
G1X10018Y4480D1*
G1X7680Y4090D2*
G1X7680Y3310D1*
G1X3260Y3680D2*
G1X3260Y2860D1*
G1X3260Y3680D2*
G1X300Y3680D1*
G1X300Y13390D2*
G1X300Y3680D1*
G1X9509Y5740D2*
G1X8128Y5740D1*
G1X11370Y5740D2*
G1X9691Y5740D1*
G1X840Y13390D2*
G1X840Y8282D1*
G1X10200Y3796D2*
G1X10200Y3310D1*
G1X10560Y5090D2*
G1X10560Y4481D1*
G1X9824Y9160D2*
G1X300Y9160D1*
G1X3570Y3400D2*
G1X3260Y3400D1*
G1X6910Y6820D2*
G1X4860Y6820D1*
G1X11280Y4945D2*
G1X11280Y4673D1*
G1X10020Y8310D2*
G1X10020Y5550D1*
G1X9840Y8310D2*
G1X9840Y5675D1*
G1X4993Y5560D2*
G1X4860Y5560D1*
G1X9300Y5036D2*
G1X9300Y3310D1*
G1X9300Y8310D2*
G1X9300Y5624D1*
G1X9120Y8310D2*
G1X9120Y3310D1*
G1X7792Y3940D2*
G1X7668Y3940D1*
G1X8580Y3973D2*
G1X8580Y3310D1*
G1X6910Y4840D2*
G1X5720Y4840D1*
G1X8940Y8310D2*
G1X8940Y3310D1*
G1X8040Y3805D2*
G1X8040Y3310D1*
G1X8220Y3792D2*
G1X8220Y3310D1*
G1X7500Y3492D2*
G1X7500Y3310D1*
G1X7320Y3377D2*
G1X7320Y3310D1*
G1X11144Y8310D2*
G1X7356Y8310D1*
G1X10020Y5090D2*
G1X10020Y4479D1*
G1X11370Y7360D2*
G1X7370Y7360D1*
G1X6525Y4660D2*
G1X5684Y4660D1*
G1X5665Y2860D2*
G1X3260Y2860D1*
G1X3522Y12040D2*
G1X300Y12040D1*
G1X818Y4300D2*
G1X300Y4300D1*
G1X4400Y6280D2*
G1X300Y6280D1*
G1X4980Y3405D2*
G1X4980Y2860D1*
G1X4800Y3346D2*
G1X4800Y2860D1*
G1X4620Y3349D2*
G1X4620Y2860D1*
G1X5665Y3015D2*
G1X5665Y2860D1*
G1X1434Y7360D2*
G1X300Y7360D1*
G1X1380Y3828D2*
G1X1380Y3680D1*
G1X11540Y9880D2*
G1X2426Y9880D1*
G1X4080Y2990D2*
G1X4080Y2860D1*
G1X3774Y3760D2*
G1X300Y3760D1*
G1X3540Y3805D2*
G1X3540Y2860D1*
G1X3180Y4090D2*
G1X3180Y3680D1*
G1X2100Y5054D2*
G1X2100Y3680D1*
G1X3000Y4997D2*
G1X3000Y3680D1*
G1X2820Y4850D2*
G1X2820Y3680D1*
G1X2640Y4794D2*
G1X2640Y3680D1*
G1X2123Y5020D2*
G1X300Y5020D1*
G1X2341Y4840D2*
G1X300Y4840D1*
G1X1920Y6377D2*
G1X1920Y3680D1*
G1X5340Y4412D2*
G1X5340Y2860D1*
G1X1560Y3960D2*
G1X1560Y3680D1*
G1X1200Y7630D2*
G1X1200Y7069D1*
G1X4400Y5920D2*
G1X300Y5920D1*
G1X660Y13390D2*
G1X660Y3680D1*
G1X6309Y12779D2*
G1X5920Y12390D1*
G1X1671Y10420D2*
G1X300Y10420D1*
G1X11540Y13300D2*
G1X300Y13300D1*
G1X11540Y13120D2*
G1X300Y13120D1*
G1X11540Y11320D2*
G1X3570Y11320D1*
G1X4634Y12760D2*
G1X300Y12760D1*
G1X3570Y11761D2*
G1X3570Y10690D1*
G1X11540Y11500D2*
G1X4320Y11500D1*
G1X2470Y11680D2*
G1X300Y11680D1*
G1X4453Y12580D2*
G1X300Y12580D1*
G1X3535Y11860D2*
G1X300Y11860D1*
G1X2470Y11140D2*
G1X300Y11140D1*
G1X1740Y13390D2*
G1X1740Y10658D1*
G1X1832Y10780D2*
G1X300Y10780D1*
G1X11540Y10420D2*
G1X2769Y10420D1*
G1X11540Y10240D2*
G1X2749Y10240D1*
G1X11540Y10060D2*
G1X2660Y10060D1*
G1X2014Y9880D2*
G1X300Y9880D1*
G1X9494Y3940D2*
G1X8547Y3940D1*
G1X11540Y9700D2*
G1X300Y9700D1*
G1X9946Y9520D2*
G1X300Y9520D1*
G1X9837Y9340D2*
G1X300Y9340D1*
G1X9895Y8980D2*
G1X300Y8980D1*
G1X4620Y11829D2*
G1X4620Y8445D1*
G1X3440Y7720D2*
G1X1450Y7720D1*
G1X1020Y3856D2*
G1X1020Y3680D1*
G1X1181Y7000D2*
G1X300Y7000D1*
G1X840Y4064D2*
G1X840Y3680D1*
G1X2021Y5380D2*
G1X300Y5380D1*
G1X4400Y6100D2*
G1X300Y6100D1*
G1X1253Y7180D2*
G1X300Y7180D1*
G1X930Y7720D2*
G1X300Y7720D1*
G1X1174Y6820D2*
G1X300Y6820D1*
G1X4400Y7180D2*
G1X2187Y7180D1*
G1X4400Y7720D2*
G1X3960Y7720D1*
G1X2460Y4801D2*
G1X2460Y3680D1*
G1X3223Y4660D2*
G1X300Y4660D1*
G1X2192Y5740D2*
G1X300Y5740D1*
G1X2066Y5560D2*
G1X300Y5560D1*
G1X1377Y6460D2*
G1X300Y6460D1*
G1X2038Y5200D2*
G1X300Y5200D1*
G1X3441Y4840D2*
G1X2799Y4840D1*
G1X5520Y3412D2*
G1X5520Y2860D1*
G1X1740Y6340D2*
G1X1740Y3680D1*
G1X1200Y3801D2*
G1X1200Y3680D1*
G1X900Y4480D2*
G1X300Y4480D1*
G1X4172Y3940D2*
G1X4047Y3940D1*
G1X4260Y3078D2*
G1X4260Y2860D1*
G1X822Y4120D2*
G1X300Y4120D1*
G1X917Y3940D2*
G1X300Y3940D1*
G1X480Y13390D2*
G1X480Y3680D1*
G1X11193Y8260D2*
G1X7423Y8260D1*
G1X11370Y4262D2*
G1X11370Y2955D1*
G1X10796Y5020D2*
G1X9883Y5020D1*
G1X6960Y11741D2*
G1X6960Y8770D1*
G1X6060Y11858D2*
G1X6060Y8770D1*
G1X6240Y11943D2*
G1X6240Y8770D1*
G1X11100Y3990D2*
G1X11100Y3225D1*
G1X11370Y3940D2*
G1X10286Y3940D1*
G1X11540Y8620D2*
G1X11484Y8620D1*
G1X6924Y8310D2*
G1X5135Y8310D1*
G1X9316Y5020D2*
G1X7370Y5020D1*
G1X11540Y11860D2*
G1X7263Y11860D1*
G1X11240Y8770D2*
G1X5040Y8770D1*
G1X4400Y7360D2*
G1X2005Y7360D1*
G1X6910Y7360D2*
G1X4860Y7360D1*
G1X4980Y10570D2*
G1X4980Y8762D1*
G1X5700Y11886D2*
G1X5700Y8770D1*
G1X5160Y10488D2*
G1X5160Y8770D1*
G1X5520Y10587D2*
G1X5520Y8770D1*
G1X5340Y10492D2*
G1X5340Y8770D1*
G1X6856Y8260D2*
G1X5085Y8260D1*
G1X6788Y7720D2*
G1X4860Y7720D1*
G1X7561Y6280D2*
G1X7370Y6280D1*
G1X4871Y6100D2*
G1X4860Y6100D1*
G1X6740Y8080D2*
G1X4905Y8080D1*
G1X7680Y5484D2*
G1X7680Y4590D1*
G1X4400Y8130D2*
G1X4400Y4337D1*
G1X6600Y8310D2*
G1X6600Y4735D1*
G1X7941Y4840D2*
G1X7370Y4840D1*
G1X6780Y7734D2*
G1X6780Y4839D1*
G1X5880Y8310D2*
G1X5880Y4338D1*
G1X6420Y12061D2*
G1X6420Y8770D1*
G1X6910Y5200D2*
G1X5499Y5200D1*
G1X7860Y3886D2*
G1X7860Y3310D1*
G1X4400Y6640D2*
G1X2210Y6640D1*
G1X6910Y6100D2*
G1X5609Y6100D1*
G1X7500Y7734D2*
G1X7500Y6245D1*
G1X7680Y8310D2*
G1X7680Y6316D1*
G1X4400Y4840D2*
G1X3899Y4840D1*
G1X11370Y6460D2*
G1X7370Y6460D1*
G1X9472Y4120D2*
G1X8674Y4120D1*
G1X9183Y5380D2*
G1X7370Y5380D1*
G1X7320Y4467D2*
G1X7320Y4402D1*
G1X11370Y7720D2*
G1X7491Y7720D1*
G1X11370Y8080D2*
G1X7539Y8080D1*
G1X11370Y6820D2*
G1X7370Y6820D1*
G1X11370Y7900D2*
G1X7557Y7900D1*
G1X7140Y11786D2*
G1X7140Y8770D1*
G1X7320Y11912D2*
G1X7320Y8770D1*
G1X11370Y7000D2*
G1X7370Y7000D1*
G1X11370Y7180D2*
G1X7370Y7180D1*
G1X6060Y8310D2*
G1X6060Y4322D1*
G1X5700Y3286D2*
G1X5700Y3137D1*
G1X6910Y7598D2*
G1X6910Y4840D1*
G1X5806Y3252D2*
G1X5734Y3179D1*
G1X5666Y3040D2*
G1X4206Y3040D1*
G1X6280Y4300D2*
G1X6126Y4300D1*
G1X6280Y4320D2*
G1X6280Y4206D1*
G1X6910Y6460D2*
G1X4860Y6460D1*
G1X6345Y4480D2*
G1X5532Y4480D1*
G1X4400Y7540D2*
G1X300Y7540D1*
G1X10560Y4299D2*
G1X10560Y3310D1*
G1X11370Y3220D2*
G1X11105Y3220D1*
G1X7140Y3340D2*
G1X7140Y3310D1*
G1X11100Y4900D2*
G1X11100Y4789D1*
G1X5061Y6280D2*
G1X4860Y6280D1*
G1X5520Y5587D2*
G1X5520Y5188D1*
G1X11370Y3040D2*
G1X11285Y3040D1*
G1X11370Y7540D2*
G1X7370Y7540D1*
G1X5775Y3220D2*
G1X4369Y3220D1*
G1X11370Y4660D2*
G1X11292Y4660D1*
G1X6910Y5020D2*
G1X5674Y5020D1*
G1X8400Y3840D2*
G1X8400Y3310D1*
G1X4980Y8155D2*
G1X4980Y6230D1*
G1X7493Y5560D2*
G1X7370Y5560D1*
G1X4400Y4480D2*
G1X4202Y4480D1*
G1X9480Y8310D2*
G1X9480Y5732D1*
G1X6910Y7180D2*
G1X4860Y7180D1*
G1X10648Y4120D2*
G1X10308Y4120D1*
G1X10648Y4660D2*
G1X8617Y4660D1*
G1X10738Y5090D2*
G1X9945Y5090D1*
G1X11083Y3242D2*
G1X11370Y2955D1*
G1X10745Y5560D2*
G1X9951Y5560D1*
G1X4400Y5380D2*
G1X3118Y5380D1*
G1X10740Y4038D2*
G1X10740Y3310D1*
G1X9660Y4914D2*
G1X9660Y4431D1*
G1X11370Y5007D2*
G1X11370Y4518D1*
G1X9840Y3663D2*
G1X9840Y3310D1*
G1X9248Y5560D2*
G1X7986Y5560D1*
G1X10920Y3973D2*
G1X10920Y3310D1*
G1X4400Y8080D2*
G1X4119Y8080D1*
G1X6420Y8310D2*
G1X6420Y4555D1*
G1X1230Y6640D2*
G1X300Y6640D1*
G1X3610Y3220D2*
G1X3260Y3220D1*
G1X3820Y11500D2*
G1X3570Y11500D1*
G1X5160Y5488D2*
G1X5160Y5226D1*
G1X6780Y8310D2*
G1X6780Y8166D1*
G1X8760Y8310D2*
G1X8760Y3310D1*
G1X8580Y8310D2*
G1X8580Y4706D1*
G1X8400Y8310D2*
G1X8400Y4839D1*
G1X7500Y5555D2*
G1X7500Y4287D1*
G1X8040Y5606D2*
G1X8040Y4874D1*
G1X7860Y5497D2*
G1X7860Y4794D1*
G1X7621Y4300D2*
G1X7486Y4300D1*
G1X7666Y4120D2*
G1X7619Y4120D1*
G1X7370Y5701D2*
G1X7370Y4610D1*
G1X3703Y12400D2*
G1X300Y12400D1*
G1X7500Y8310D2*
G1X7500Y8166D1*
G1X6910Y4840D2*
G1X6800Y4840D1*
G1X7500Y13390D2*
G1X7500Y8770D1*
G1X7723Y4660D2*
G1X7370Y4660D1*
G1X11280Y4106D2*
G1X11280Y3045D1*
G1X9480Y3989D2*
G1X9480Y3310D1*
G1X11370Y3580D2*
G1X7574Y3580D1*
G1X6637Y4772D2*
G1X6349Y4484D1*
G1X3570Y12220D2*
G1X300Y12220D1*
G1X4877Y8702D2*
G1X4469Y8294D1*
G1X5700Y8310D2*
G1X5700Y4958D1*
G1X5340Y5492D2*
G1X5340Y5248D1*
G1X4400Y7000D2*
G1X2259Y7000D1*
G1X5520Y8310D2*
G1X5520Y6213D1*
G1X4400Y5740D2*
G1X2947Y5740D1*
G1X3610Y3580D2*
G1X3260Y3580D1*
G1X5714Y4300D2*
G1X5086Y4300D1*
G1X5480Y4120D2*
G1X5219Y4120D1*
G1X5391Y3940D2*
G1X5268Y3940D1*
G1X5371Y3760D2*
G1X5254Y3760D1*
G1X5412Y3580D2*
G1X5174Y3580D1*
G1X4260Y11474D2*
G1X4260Y4191D1*
G1X3336Y8260D2*
G1X1554Y8260D1*
G1X3281Y8080D2*
G1X1609Y8080D1*
G1X4080Y7871D2*
G1X4080Y4706D1*
G1X3540Y7662D2*
G1X3540Y4874D1*
G1X3180Y10690D2*
G1X3180Y4590D1*
G1X11540Y12940D2*
G1X300Y12940D1*
G1X6910Y5920D2*
G1X5659Y5920D1*
G1X7638Y4480D2*
G1X7330Y4480D1*
G1X3900Y2990D2*
G1X3900Y2860D1*
G1X4353Y4300D2*
G1X4218Y4300D1*
G1X4220Y4120D2*
G1X4174Y4120D1*
G1X2100Y6492D2*
G1X2100Y5625D1*
G1X3000Y10690D2*
G1X3000Y5683D1*
G1X2820Y10690D2*
G1X2820Y5830D1*
G1X2640Y10035D2*
G1X2640Y5885D1*
G1X2460Y9895D2*
G1X2460Y5879D1*
G1X2280Y9843D2*
G1X2280Y5807D1*
G1X4860Y5721D2*
G1X4860Y4422D1*
G1X4980Y5570D2*
G1X4980Y5102D1*
G1X9660Y8310D2*
G1X9660Y5746D1*
G1X9660Y3728D2*
G1X9660Y3310D1*
G1X6723Y7900D2*
G1X4860Y7900D1*
G1X3360Y3886D2*
G1X3360Y2860D1*
G1X2100Y9853D2*
G1X2100Y7287D1*
G1X1920Y9929D2*
G1X1920Y7402D1*
G1X1740Y10121D2*
G1X1740Y7439D1*
G1X1034Y8440D2*
G1X300Y8440D1*
G1X1560Y7851D2*
G1X1560Y7416D1*
G1X1380Y7675D2*
G1X1380Y7322D1*
G1X4400Y6460D2*
G1X2063Y6460D1*
G1X4440Y8260D2*
G1X4064Y8260D1*
G1X4880Y4840D2*
G1X4860Y4840D1*
G1X4400Y5560D2*
G1X3074Y5560D1*
G1X4800Y11753D2*
G1X4800Y8625D1*
G1X771Y8080D2*
G1X300Y8080D1*
G1X5520Y13390D2*
G1X5520Y12767D1*
G1X2460Y13390D2*
G1X2460Y10885D1*
G1X2280Y13390D2*
G1X2280Y10937D1*
G1X2100Y13390D2*
G1X2100Y10927D1*
G1X1920Y13390D2*
G1X1920Y10851D1*
G1X5160Y8310D2*
G1X5160Y6312D1*
G1X2470Y11320D2*
G1X300Y11320D1*
G1X2470Y10960D2*
G1X300Y10960D1*
G1X1691Y10240D2*
G1X300Y10240D1*
G1X1780Y10060D2*
G1X300Y10060D1*
G1X3900Y7681D2*
G1X3900Y4839D1*
G1X1712Y10600D2*
G1X300Y10600D1*
G1X3360Y13390D2*
G1X3360Y11790D1*
G1X3180Y13390D2*
G1X3180Y11790D1*
G1X3000Y13390D2*
G1X3000Y11790D1*
G1X2820Y13390D2*
G1X2820Y11790D1*
G1X3540Y11843D2*
G1X3540Y11790D1*
G1X3616Y11680D2*
G1X3570Y11680D1*
G1X4795Y8620D2*
G1X300Y8620D1*
G1X4946Y10600D2*
G1X2728Y10600D1*
G1X4895Y11140D2*
G1X3570Y11140D1*
G1X4824Y10960D2*
G1X3570Y10960D1*
G1X3570Y10690D2*
G1X2681Y10690D1*
G1X5003Y5127D2*
G1X5300Y4830D1*
G1X5597Y4533D2*
G1X5300Y4830D1*
G1X5003Y4533D2*
G1X5300Y4830D1*
G1X5597Y5127D2*
G1X5300Y4830D1*
G1X5003Y5127D2*
G1X5300Y4830D1*
G1X5597Y4533D2*
G1X5300Y4830D1*
G1X5003Y4533D2*
G1X5300Y4830D1*
G1X5597Y5127D2*
G1X5300Y4830D1*
G1X10673Y4687D2*
G1X10970Y4390D1*
G1X11267Y4093D2*
G1X10970Y4390D1*
G1X10673Y4093D2*
G1X10970Y4390D1*
G1X11267Y4687D2*
G1X10970Y4390D1*
G1X10673Y4687D2*
G1X10970Y4390D1*
G1X11267Y4093D2*
G1X10970Y4390D1*
G1X10673Y4093D2*
G1X10970Y4390D1*
G1X11267Y4687D2*
G1X10970Y4390D1*
G1X9593Y4377D2*
G1X9890Y4080D1*
G1X10187Y3783D2*
G1X9890Y4080D1*
G1X9593Y3783D2*
G1X9890Y4080D1*
G1X10187Y4377D2*
G1X9890Y4080D1*
G1X933Y4517D2*
G1X1230Y4220D1*
G1X1527Y3923D2*
G1X1230Y4220D1*
G1X933Y3923D2*
G1X1230Y4220D1*
G1X1527Y4517D2*
G1X1230Y4220D1*
G1X9943Y9517D2*
G1X10240Y9220D1*
G1X10537Y8923D2*
G1X10240Y9220D1*
G1X9943Y8923D2*
G1X10240Y9220D1*
G1X10537Y9517D2*
G1X10240Y9220D1*
G1X9943Y11197D2*
G1X10240Y10900D1*
G1X10537Y10603D2*
G1X10240Y10900D1*
G1X9943Y10603D2*
G1X10240Y10900D1*
G1X10537Y11197D2*
G1X10240Y10900D1*
G1X4943Y11197D2*
G1X5240Y10900D1*
G1X5537Y10603D2*
G1X5240Y10900D1*
G1X4943Y10603D2*
G1X5240Y10900D1*
G1X5537Y11197D2*
G1X5240Y10900D1*
G1X3403Y8347D2*
G1X3700Y8050D1*
G1X3997Y7753D2*
G1X3700Y8050D1*
G1X3403Y7753D2*
G1X3700Y8050D1*
G1X3997Y8347D2*
G1X3700Y8050D1*
G1X893Y8347D2*
G1X1190Y8050D1*
G1X1487Y7753D2*
G1X1190Y8050D1*
G1X893Y7753D2*
G1X1190Y8050D1*
G1X1487Y8347D2*
G1X1190Y8050D1*
G1X7443Y6197D2*
G1X7740Y5900D1*
G1X8037Y5603D2*
G1X7740Y5900D1*
G1X7443Y5603D2*
G1X7740Y5900D1*
G1X8037Y6197D2*
G1X7740Y5900D1*
G1X4943Y6197D2*
G1X5240Y5900D1*
G1X5537Y5603D2*
G1X5240Y5900D1*
G1X4943Y5603D2*
G1X5240Y5900D1*
G1X5537Y6197D2*
G1X5240Y5900D1*
G1X3693Y3697D2*
G1X3990Y3400D1*
G1X4287Y3103D2*
G1X3990Y3400D1*
G1X3693Y3103D2*
G1X3990Y3400D1*
G1X5532Y3400D2*
G1X4970Y3400D1*
G1X5531Y12779D2*
G1X5920Y12390D1*
G1X6309Y12001D2*
G1X5920Y12390D1*
G1X5531Y12001D2*
G1X5920Y12390D1*
G1X2470Y11500D2*
G1X300Y11500D1*
G1X11370Y6640D2*
G1X7370Y6640D1*
G1X3774Y3040D2*
G1X3260Y3040D1*
G1X10200Y5090D2*
G1X10200Y4363D1*
G1X4925Y5020D2*
G1X4860Y5020D1*
G1X10560Y4300D2*
G1X10248Y4300D1*
G1X11540Y13390D2*
G1X11540Y8563D1*
G1X11403Y8701D2*
G1X11540Y8563D1*
G1X11370Y3400D2*
G1X7370Y3400D1*
G1X11460Y13390D2*
G1X11460Y8644D1*
G1X11100Y13390D2*
G1X11100Y8770D1*
G1X10920Y13390D2*
G1X10920Y8770D1*
G1X10560Y8948D2*
G1X10560Y8770D1*
G1X10380Y8824D2*
G1X10380Y8770D1*
G1X10200Y8802D2*
G1X10200Y8770D1*
G1X10020Y8862D2*
G1X10020Y8770D1*
G1X9840Y9092D2*
G1X9840Y8770D1*
G1X10740Y13390D2*
G1X10740Y8770D1*
G1X9660Y13390D2*
G1X9660Y8770D1*
G1X9480Y13390D2*
G1X9480Y8770D1*
G1X9300Y13390D2*
G1X9300Y8770D1*
G1X9120Y13390D2*
G1X9120Y8770D1*
G1X8940Y13390D2*
G1X8940Y8770D1*
G1X8760Y13390D2*
G1X8760Y8770D1*
G1X8580Y13390D2*
G1X8580Y8770D1*
G1X8400Y13390D2*
G1X8400Y8770D1*
G1X8220Y13390D2*
G1X8220Y8770D1*
G1X8040Y13390D2*
G1X8040Y8770D1*
G1X7860Y13390D2*
G1X7860Y8770D1*
G1X7680Y13390D2*
G1X7680Y8770D1*
G1X6780Y11758D2*
G1X6780Y8770D1*
G1X6600Y11843D2*
G1X6600Y8770D1*
G1X5880Y11841D2*
G1X5880Y8770D1*
G1X10740Y8310D2*
G1X10740Y5552D1*
G1X10560Y8310D2*
G1X10560Y5550D1*
G1X10380Y8310D2*
G1X10380Y5550D1*
G1X10200Y8310D2*
G1X10200Y5550D1*
G1X6910Y7000D2*
G1X4860Y7000D1*
G1X10920Y4936D2*
G1X10920Y4807D1*
G1X10020Y3680D2*
G1X10020Y3310D1*
G1X9618Y3760D2*
G1X7654Y3760D1*
G1X11370Y3760D2*
G1X10162Y3760D1*
G1X9480Y4927D2*
G1X9480Y4171D1*
G1X11370Y8081D2*
G1X11370Y5633D1*
G1X11144Y8310D2*
G1X11370Y8081D1*
G1X11100Y8310D2*
G1X11100Y5740D1*
G1X10920Y8310D2*
G1X10920Y5704D1*
G1X1020Y7666D2*
G1X1020Y4584D1*
G1X1560Y6364D2*
G1X1560Y4480D1*
G1X840Y7818D2*
G1X840Y4376D1*
G1X1380Y6458D2*
G1X1380Y4612D1*
G1X1200Y6711D2*
G1X1200Y4639D1*
G1X3138Y4480D2*
G1X1560Y4480D1*
G1X3121Y4300D2*
G1X1642Y4300D1*
G1X3166Y4120D2*
G1X1638Y4120D1*
G1X3292Y3940D2*
G1X1543Y3940D1*
G1X10560Y10628D2*
G1X10560Y9492D1*
G1X10380Y10504D2*
G1X10380Y9616D1*
G1X10200Y10482D2*
G1X10200Y9638D1*
G1X10020Y10542D2*
G1X10020Y9578D1*
G1X9840Y10772D2*
G1X9840Y9348D1*
G1X11280Y13390D2*
G1X11280Y8766D1*
G1X11540Y9520D2*
G1X10534Y9520D1*
G1X11540Y9340D2*
G1X10642Y9340D1*
G1X11540Y9160D2*
G1X10656Y9160D1*
G1X11540Y8980D2*
G1X10585Y8980D1*
G1X10560Y13390D2*
G1X10560Y11172D1*
G1X10380Y13390D2*
G1X10380Y11296D1*
G1X10200Y13390D2*
G1X10200Y11318D1*
G1X10020Y13390D2*
G1X10020Y11258D1*
G1X9840Y13390D2*
G1X9840Y11028D1*
G1X11540Y10600D2*
G1X10534Y10600D1*
G1X11540Y11140D2*
G1X10585Y11140D1*
G1X11540Y10960D2*
G1X10656Y10960D1*
G1X5340Y11935D2*
G1X5340Y11308D1*
G1X5160Y11795D2*
G1X5160Y11312D1*
G1X4980Y11743D2*
G1X4980Y11230D1*
G1X5520Y12012D2*
G1X5520Y11213D1*
G1X10380Y5090D2*
G1X10380Y3310D1*
G1X9946Y10600D2*
G1X5534Y10600D1*
G1X9895Y11140D2*
G1X5585Y11140D1*
G1X9824Y10960D2*
G1X5656Y10960D1*
G1X4440Y11583D2*
G1X4440Y8259D1*
G1X4615Y8440D2*
G1X3856Y8440D1*
G1X4080Y11440D2*
G1X4080Y8229D1*
G1X3540Y10690D2*
G1X3540Y8438D1*
G1X3360Y10690D2*
G1X3360Y8296D1*
G1X5160Y3560D2*
G1X5160Y2860D1*
G1X3900Y11467D2*
G1X3900Y8419D1*
G1X3720Y11566D2*
G1X3720Y8469D1*
G1X4400Y6820D2*
G1X2265Y6820D1*
G1X4400Y5020D2*
G1X3017Y5020D1*
G1X4837Y10780D2*
G1X3570Y10780D1*
G1X3544Y8440D2*
G1X1346Y8440D1*
G1X826Y8260D2*
G1X300Y8260D1*
G1X1560Y13390D2*
G1X1560Y8249D1*
G1X1380Y13390D2*
G1X1380Y8424D1*
G1X11540Y8800D2*
G1X300Y8800D1*
G1X1020Y13390D2*
G1X1020Y8434D1*
G1X3360Y7803D2*
G1X3360Y4794D1*
G1X3720Y7630D2*
G1X3720Y4888D1*
G1X3308Y7900D2*
G1X1582Y7900D1*
G1X10738Y5550D2*
G1X9958Y5550D1*
G1X4440Y3416D2*
G1X4440Y2860D1*
G1X9840Y4985D2*
G1X9840Y4497D1*
G1X11370Y6280D2*
G1X7919Y6280D1*
G1X11370Y6100D2*
G1X8109Y6100D1*
G1X4400Y7900D2*
G1X4092Y7900D1*
G1X7370Y7598D2*
G1X7370Y6099D1*
G1X8220Y8310D2*
G1X8220Y4888D1*
G1X8040Y8310D2*
G1X8040Y6194D1*
G1X7860Y8310D2*
G1X7860Y6302D1*
G1X798Y7900D2*
G1X300Y7900D1*
G1X9837Y10780D2*
G1X5642Y10780D1*
G1X5135Y8310D2*
G1X4860Y8035D1*
G1X4860Y6079D1*
G1X5340Y8310D2*
G1X5340Y6308D1*
G1X4400Y5200D2*
G1X3102Y5200D1*
G1X6910Y5740D2*
G1X5628Y5740D1*
G1X6910Y5560D2*
G1X5486Y5560D1*
G1X6910Y6280D2*
G1X5419Y6280D1*
G1X4080Y3973D2*
G1X4080Y3810D1*
G1X3900Y3840D2*
G1X3900Y3810D1*
G1X3720Y3792D2*
G1X3720Y3722D1*
G1X4470Y3400D2*
G1X4410Y3400D1*
G1X1200Y13390D2*
G1X1200Y8470D1*
G1X4260Y13390D2*
G1X4260Y12506D1*
G1X4080Y13390D2*
G1X4080Y12540D1*
G1X3900Y13390D2*
G1X3900Y12513D1*
G1X3720Y13390D2*
G1X3720Y12414D1*
G1X3540Y13390D2*
G1X3540Y12137D1*
G1X2640Y13390D2*
G1X2640Y11790D1*
G1X11540Y11680D2*
G1X4524Y11680D1*
G1X5340Y13390D2*
G1X5340Y12645D1*
G1X5160Y13390D2*
G1X5160Y12785D1*
G1X4980Y13390D2*
G1X4980Y12837D1*
G1X4800Y13390D2*
G1X4800Y12827D1*
G1X4620Y13390D2*
G1X4620Y12751D1*
G1X5513Y12760D2*
G1X5205Y12760D1*
G1X5404Y12580D2*
G1X5387Y12580D1*
G1X5496Y12040D2*
G1X5410Y12040D1*
G1X5773Y11860D2*
G1X5263Y11860D1*
G1X11540Y10780D2*
G1X10642Y10780D1*
G1X6240Y13390D2*
G1X6240Y12837D1*
G1X4440Y13390D2*
G1X4440Y12558D1*
G1X5880Y13390D2*
G1X5880Y12938D1*
G1X5700Y13390D2*
G1X5700Y12894D1*
G1X6634Y12760D2*
G1X6327Y12760D1*
G1X6453Y12580D2*
G1X6436Y12580D1*
G1X6430Y12040D2*
G1X6344Y12040D1*
G1X6577Y11860D2*
G1X6067Y11860D1*
G1X6420Y13390D2*
G1X6420Y12619D1*
G1X7320Y13390D2*
G1X7320Y12667D1*
G1X7140Y13390D2*
G1X7140Y12794D1*
G1X6960Y13390D2*
G1X6960Y12838D1*
G1X6780Y13390D2*
G1X6780Y12822D1*
G1X6240Y8310D2*
G1X6240Y4237D1*
G1X6600Y13390D2*
G1X6600Y12737D1*
G1X11540Y12760D2*
G1X7205Y12760D1*
G1X11540Y12580D2*
G1X7387Y12580D1*
G1X11540Y12400D2*
G1X7459Y12400D1*
G1X11540Y12220D2*
G1X7465Y12220D1*
G1X11540Y12040D2*
G1X7410Y12040D1*
G1X11370Y5920D2*
G1X8159Y5920D1*
G1X11370Y4840D2*
G1X8399Y4840D1*
G1X11370Y4120D2*
G1X11292Y4120D1*
G1X10740Y5088D2*
G1X10740Y4741D1*
G1X9762Y4480D2*
G1X8702Y4480D1*
G1X9532Y4300D2*
G1X8718Y4300D1*
G1X5700Y4702D2*
G1X5700Y4294D1*
G1X5160Y4434D2*
G1X5160Y4220D1*
G1X4980Y4558D2*
G1X4980Y4374D1*
G1X5520Y4472D2*
G1X5520Y4167D1*
G1X4916Y4660D2*
G1X4860Y4660D1*
G1X5068Y4480D2*
G1X4860Y4480D1*
G1X5101Y5200D2*
G1X4860Y5200D1*
G1X18190Y8540D2*
G75*
G3X17770Y8120I0J-420D1*
G1X15800Y8130D2*
G3X16220Y7710I420J0D1*
G3X16640Y8130I0J420D1*
G3X16220Y8550I-420J0D1*
G3X15800Y8130I0J-420D1*
G1X12680Y10930D2*
G3X13100Y10510I420J0D1*
G3X13520Y10930I0J420D1*
G3X13100Y11350I-420J0D1*
G3X12680Y10930I0J-420D1*
G1X13187Y4317D2*
G3X13350Y4249I163J163D1*
G1X12720Y4870D2*
G3X13043Y4461I420J0D1*
G1X13080Y3400D2*
G3X13500Y2980I420J0D1*
G3X13853Y3173I0J420D1*
G1X13500Y3820D2*
G3X13080Y3400I0J-420D1*
G3X13500Y2980I420J0D1*
G1X13854Y3626D2*
G3X13500Y3820I-354J-226D1*
G1X13500Y2980D2*
G3X13853Y3173I0J420D1*
G1X13500Y3820D2*
G3X13080Y3400I0J-420D1*
G1X14530Y3450D2*
G3X14950Y3030I420J0D1*
G3X15370Y3450I0J420D1*
G3X14950Y3870I-420J0D1*
G3X14530Y3450I0J-420D1*
G1X13560Y4870D2*
G3X13140Y5290I-420J0D1*
G3X12720Y4870I0J-420D1*
G1X13528Y4710D2*
G3X13560Y4870I-388J160D1*
G1X13854Y3626D2*
G3X13500Y3820I-354J-226D1*
G1X14173Y4642D2*
G3X14010Y4710I-163J-162D1*
G1X14314Y4406D2*
G3X14247Y4568I-230J0D1*
G1X14590Y11640D2*
G3X15010Y11220I420J0D1*
G3X15430Y11640I0J420D1*
G3X15010Y12060I-420J0D1*
G3X14590Y11640I0J-420D1*
G1X14760Y9490D2*
G3X15180Y9070I420J0D1*
G3X15600Y9490I0J420D1*
G3X15180Y9910I-420J0D1*
G3X14760Y9490I0J-420D1*
G1X12720Y12620D2*
G3X13140Y12200I420J0D1*
G3X13560Y12620I0J420D1*
G3X13140Y13040I-420J0D1*
G3X12720Y12620I0J-420D1*
G1X17980Y12280D2*
G3X18400Y11860I420J0D1*
G3X18820Y12280I0J420D1*
G3X18400Y12700I-420J0D1*
G3X17980Y12280I0J-420D1*
G1X18480Y3500D2*
G3X18900Y3080I420J0D1*
G3X19320Y3500I0J420D1*
G3X18900Y3920I-420J0D1*
G3X18480Y3500I0J-420D1*
G1X15590Y5080D2*
G3X16010Y4660I420J0D1*
G3X16430Y5080I0J420D1*
G3X16010Y5500I-420J0D1*
G3X15590Y5080I0J-420D1*
G1X17770Y8120D2*
G3X18190Y7700I420J0D1*
G3X18610Y8120I0J420D1*
G3X18190Y8540I-420J0D1*
G1X14314Y4406D2*
G3X14247Y4568I-230J0D1*
G1X5442Y12117D2*
G3X5920Y11840I478J273D1*
G1X6920Y11740D2*
G3X7470Y12290I0J550D1*
G3X6920Y12840I-550J0D1*
G1X6398Y12117D2*
G3X6920Y11740I522J173D1*
G1X7620Y4340D2*
G3X8170Y3790I550J0D1*
G3X8720Y4340I0J550D1*
G3X8170Y4890I-550J0D1*
G3X7620Y4340I0J-550D1*
G1X7120Y3340D2*
G3X7670Y3890I0J550D1*
G1X5920Y4340D2*
G3X5370Y3790I0J-550D1*
G1X4720Y3340D2*
G3X5270Y3890I0J550D1*
G3X4860Y4422I-550J0D1*
G1X3120Y4340D2*
G3X3670Y3790I550J0D1*
G3X4220Y4340I0J550D1*
G3X3670Y4890I-550J0D1*
G3X3120Y4340I0J-550D1*
G1X2020Y5340D2*
G3X2570Y4790I550J0D1*
G3X3120Y5340I0J550D1*
G3X2570Y5890I-550J0D1*
G3X2020Y5340I0J-550D1*
G1X1170Y6890D2*
G3X1720Y6340I550J0D1*
G3X2270Y6890I0J550D1*
G3X1720Y7440I-550J0D1*
G3X1170Y6890I0J-550D1*
G1X1670Y10390D2*
G3X2220Y9840I550J0D1*
G3X2770Y10390I0J550D1*
G1X3570Y11761D2*
G3X4070Y11440I500J229D1*
G1X2220Y10940D2*
G3X1670Y10390I0J-550D1*
G1X4920Y12840D2*
G3X4390Y12437I0J-550D1*
G1X11370Y5633D2*
G3X11090Y5740I-280J-313D1*
G3X10738Y5550I0J-420D1*
G1X11083Y3242D2*
G3X10920Y3310I-163J-162D1*
G1X7051Y3310D2*
G3X7023Y3348I-351J-230D1*
G3X7120Y3339I97J542D1*
G1X5732Y3177D2*
G3X5665Y3015I163J-162D1*
G1X4410Y3400D2*
G3X4408Y3437I-420J0D1*
G1X6442Y12562D2*
G3X5920Y12940I-522J-172D1*
G1X5398Y12562D2*
G3X4920Y12840I-478J-272D1*
G1X5920Y12940D2*
G3X5398Y12562I0J-550D1*
G1X2770Y10390D2*
G3X2681Y10690I-550J0D1*
G1X4467Y8292D2*
G3X4400Y8130I163J-162D1*
G1X4400Y4337D2*
G3X4170Y3890I320J-447D1*
G1X4408Y3437D2*
G3X4720Y3340I312J453D1*
G1X10970Y3970D2*
G3X11370Y4262I0J420D1*
G1X10970Y4810D2*
G3X10550Y4390I0J-420D1*
G1X9470Y4080D2*
G3X9890Y3660I420J0D1*
G3X10310Y4080I0J420D1*
G3X9890Y4500I-420J0D1*
G3X9470Y4080I0J-420D1*
G1X11370Y4518D2*
G3X10970Y4810I-400J-128D1*
G1X5040Y8770D2*
G3X4877Y8702I0J-230D1*
G1X11403Y8701D2*
G3X11240Y8769I-163J-161D1*
G1X4467Y8292D2*
G3X4400Y8130I163J-162D1*
G1X6920Y12840D2*
G3X6442Y12562I0J-550D1*
G1X6720Y7950D2*
G3X6910Y7598I420J0D1*
G1X7560Y7950D2*
G3X7356Y8310I-420J0D1*
G1X6800Y4840D2*
G3X6637Y4772I0J-230D1*
G1X7269Y4419D2*
G3X7370Y4610I-129J191D1*
G1X7370Y7598D2*
G3X7560Y7950I-230J352D1*
G1X7740Y6320D2*
G3X7370Y6099I0J-420D1*
G1X6280Y4206D2*
G3X5920Y4340I-360J-416D1*
G1X6347Y4482D2*
G3X6280Y4320I163J-162D1*
G1X5732Y3177D2*
G3X5665Y3015I163J-162D1*
G1X11083Y3242D2*
G3X10920Y3310I-163J-162D1*
G1X9180Y5330D2*
G3X9600Y4910I420J0D1*
G3X9945Y5090I0J420D1*
G1X9600Y5750D2*
G3X9180Y5330I0J-420D1*
G1X11403Y8701D2*
G3X11240Y8769I-163J-161D1*
G1X9958Y5550D2*
G3X9600Y5750I-358J-220D1*
G1X11090Y4900D2*
G3X11370Y5007I0J420D1*
G1X10738Y5090D2*
G3X11090Y4900I352J230D1*
G1X810Y4220D2*
G3X1230Y3800I420J0D1*
G3X1650Y4220I0J420D1*
G3X1230Y4640I-420J0D1*
G3X810Y4220I0J-420D1*
G1X9820Y9220D2*
G3X10240Y8800I420J0D1*
G3X10660Y9220I0J420D1*
G3X10240Y9640I-420J0D1*
G3X9820Y9220I0J-420D1*
G1X9820Y10900D2*
G3X10240Y10480I420J0D1*
G3X10660Y10900I0J420D1*
G3X10240Y11320I-420J0D1*
G3X9820Y10900I0J-420D1*
G1X4820Y10900D2*
G3X5240Y10480I420J0D1*
G3X5660Y10900I0J420D1*
G3X5240Y11320I-420J0D1*
G3X4820Y10900I0J-420D1*
G1X3280Y8050D2*
G3X3700Y7630I420J0D1*
G3X4120Y8050I0J420D1*
G3X3700Y8470I-420J0D1*
G3X3280Y8050I0J-420D1*
G1X770Y8050D2*
G3X1190Y7630I420J0D1*
G3X1610Y8050I0J420D1*
G3X1190Y8470I-420J0D1*
G3X770Y8050I0J-420D1*
G1X7670Y3890D2*
G3X7269Y4419I-550J0D1*
G1X7740Y5480D2*
G3X8160Y5900I0J420D1*
G3X7740Y6320I-420J0D1*
G1X7370Y5701D2*
G3X7740Y5480I370J199D1*
G1X5240Y5480D2*
G3X5660Y5900I0J420D1*
G3X5240Y6320I-420J0D1*
G1X4860Y5721D2*
G3X5240Y5480I380J179D1*
G1X3570Y3400D2*
G3X3990Y2980I420J0D1*
G3X4410Y3400I0J420D1*
G1X3990Y3820D2*
G3X3570Y3400I0J-420D1*
G1X4070Y11440D2*
G3X4600Y11843I0J550D1*
G1X4070Y12540D2*
G3X3520Y11990I0J-550D1*
G1X4920Y11740D2*
G3X5442Y12117I0J550D1*
G1X4600Y11843D2*
G3X4920Y11740I320J447D1*
G1X4390Y12437D2*
G3X4070Y12540I-320J-447D1*
G1X5920Y11840D2*
G3X6398Y12117I0J550D1*
G1X6347Y4482D2*
G3X6280Y4320I163J-162D1*
G1X4182Y3773D2*
G3X3990Y3820I-192J-373D1*
G1X3520Y11990D2*
G3X3557Y11790I550J0D1*
G1X2470Y10880D2*
G3X2220Y10940I-250J-490D1*
G1X4880Y4830D2*
G3X5300Y4410I420J0D1*
G3X5720Y4830I0J420D1*
G3X5300Y5250I-420J0D1*
G3X4880Y4830I0J-420D1*
G3X5300Y4410I420J0D1*
G3X5720Y4830I0J420D1*
G3X5300Y5250I-420J0D1*
G3X4880Y4830I0J-420D1*
G1X10550Y4390D2*
G3X10970Y3970I420J0D1*
G3X11370Y4262I0J420D1*
G1X10970Y4810D2*
G3X10550Y4390I0J-420D1*
G3X10970Y3970I420J0D1*
G1X11370Y4518D2*
G3X10970Y4810I-400J-128D1*
G1X6924Y8310D2*
G3X6720Y7950I216J-360D1*
G1X4170Y3890D2*
G3X4182Y3773I550J0D1*
G1X5370Y3790D2*
G3X5806Y3252I550J0D1*
G1X5240Y6320D2*
G3X4860Y6079I0J-420D1*
G74*
G1X5300Y4800D2*
G54D28*
G1X5300Y3370D1*
G1X5580Y3090D1*
G1X5580Y920D1*
G1X13500Y3400D2*
G1X13560Y3460D1*
G1X13480Y3460D1*
G1X13480Y3450D1*
G1X13139Y3109D1*
G1X13139Y920D1*
G1X13500Y3400D2*
G1X13560Y3460D1*
G1X13480Y3460D1*
G1X13480Y3450D1*
G1X13139Y3109D1*
G1X13139Y920D1*
G1X13139Y3109D1*
G1X13480Y3450D1*
G1X13480Y3460D1*
G1X13560Y3460D1*
G1X13500Y3400D1*
G1X5580Y920D2*
G1X5580Y3090D1*
G1X5300Y3370D1*
G1X5300Y4800D1*
G1X11564Y920D2*
G1X11600Y960D1*
G1X11600Y8176D1*
G1X11240Y8540D1*
G1X5040Y8540D1*
G1X4630Y8130D1*
G1X4630Y3980D1*
G1X4720Y3890D1*
G1X13140Y4870D2*
G1X13140Y4690D1*
G1X13350Y4480D1*
G1X14010Y4480D1*
G1X14084Y4406D1*
G1X14084Y920D1*
G1X7140Y7950D2*
G1X7140Y4610D1*
G1X6800Y4610D1*
G1X6510Y4320D1*
G1X6510Y3630D1*
G1X5895Y3015D1*
G1X5895Y920D1*
G1X11249Y920D2*
G1X11249Y2751D1*
G1X10920Y3080D1*
G1X6700Y3080D1*
G1X9600Y5330D2*
G1X9610Y5320D1*
G1X11090Y5320D1*
G54D30*
G1X5300Y4830D3*
G1X13500Y3400D3*
G1X10970Y4390D3*
G1X9890Y4080D3*
G1X14950Y3450D3*
G1X13140Y4870D3*
G1X7140Y7950D3*
G1X6700Y3080D3*
G54D31*
G1X5580Y723D3*
G1X13139Y723D3*
G1X14399Y723D3*
G54D32*
G1X5895Y821D3*
G1X14084Y821D3*
G54D33*
G1X6210Y920D3*
G1X6525Y920D3*
G1X6840Y920D3*
G1X7155Y920D3*
G1X8729Y920D3*
G1X9044Y920D3*
G1X9359Y920D3*
G1X9674Y920D3*
G1X9989Y920D3*
G1X10304Y920D3*
G1X10619Y920D3*
G1X10934Y920D3*
G1X11249Y920D3*
G1X11564Y920D3*
G1X11879Y920D3*
G1X12194Y920D3*
G1X12509Y920D3*
G1X12824Y920D3*
G1X13454Y920D3*
G1X13769Y920D3*
G54D34*
G1X2220Y10390D3*
G1X1720Y6890D3*
G1X2570Y5340D3*
G1X3670Y4340D3*
G1X4720Y3890D3*
G1X5920Y3790D3*
G1X7120Y3890D3*
G1X8170Y4340D3*
G1X6920Y12290D3*
G1X5920Y12390D3*
G1X4920Y12290D3*
G1X4070Y11990D3*
G54D35*
G1X3020Y11240D3*
G54D36*
G1X9600Y5330D3*
G1X11090Y5320D3*
G1X15010Y11640D3*
G1X15180Y9490D3*
G1X1230Y4220D3*
G1X10240Y9220D3*
G1X13140Y12620D3*
G1X18400Y12280D3*
G1X18900Y3500D3*
G1X16010Y5080D3*
G1X18190Y8120D3*
G1X16220Y8130D3*
G1X13100Y10930D3*
G1X10240Y10900D3*
G1X5240Y10900D3*
G1X3700Y8050D3*
G1X1190Y8050D3*
G1X7740Y5900D3*
G1X5240Y5900D3*
G1X3990Y3400D3*
M2*
