*
G04 Mass Parameters ***
*
G04 Image ***
*
%INC:\DAVIDLEE\RAGOBOTS_HW\ROBOT\HW\NECK\DESIGN\NECKC.GND*%
%ICAS*%
%MOIN*%
%IPPOS*%
%ASAXBY*%
G74*%FSLAN2X34Y34*%
*
G04 Aperture Definitions ***
*
%AMTHERMAL38*
1,1,0.1199,0,0,*
1,0,0.0900,0,0,*
21,0,0.1200,0.0200,0,0,45.0*
21,0,0.1200,0.0200,0,0,135.0*%
%AMTHERMAL41*
1,1,0.1049,0,0,*
1,0,0.0750,0,0,*
21,0,0.1050,0.0200,0,0,45.0*
21,0,0.1050,0.0200,0,0,135.0*%
%AMTHERMAL44*
1,1,0.1049,0,0,*
1,0,0.0750,0,0,*
21,0,0.1050,0.0200,0,0,45.3*
21,0,0.1050,0.0200,0,0,135.3*%
%ADD10R,0.0957X0.0957*%
%ADD11O,0.0138X0.0610*%
%ADD12O,0.0610X0.0138*%
%ADD13R,0.0610X0.0138*%
%ADD14R,0.0220X0.0220*%
%ADD15R,0.0380X0.0320*%
%ADD16R,0.0216X0.1417*%
%ADD17R,0.0216X0.1220*%
%ADD18R,0.0216X0.1023*%
%ADD19R,0.0394X0.0866*%
%ADD20R,0.0394X0.0413*%
%ADD21O,0.0250X0.0860*%
%ADD22R,0.0250X0.0860*%
%ADD23R,0.0500X0.0500*%
%ADD24C,0.0760*%
%ADD25R,0.0760X0.0760*%
%ADD26C,0.0500*%
%ADD27C,0.0200*%
%ADD28C,0.0120*%
%ADD29C,0.0320*%
%ADD30C,0.0500*%
%ADD31R,0.0216X0.1417*%
%ADD32R,0.0216X0.1220*%
%ADD33R,0.0216X0.1023*%
%ADD34C,0.0760*%
%ADD35R,0.0760X0.0760*%
%ADD36C,0.0500*%
%ADD37C,0.0960*%
%ADD38THERMAL38*%
%ADD39C,0.0960*%
%ADD40R,0.0960X0.0960*%
%ADD41THERMAL41*%
%ADD42C,0.0400*%
%ADD43C,0.0600*%
%ADD44THERMAL44*%
%ADD45C,0.0960*%
%ADD46R,0.0960X0.0960*%
%ADD47R,0.0957X0.0957*%
%ADD48O,0.0138X0.0610*%
%ADD49O,0.0610X0.0138*%
%ADD50R,0.0610X0.0138*%
%ADD51R,0.0220X0.0220*%
%ADD52R,0.0380X0.0320*%
%ADD53R,0.0295X0.1417*%
%ADD54R,0.0295X0.1220*%
%ADD55R,0.0295X0.1102*%
%ADD56R,0.0472X0.0945*%
%ADD57R,0.0472X0.0492*%
%ADD58O,0.0250X0.0860*%
%ADD59R,0.0250X0.0860*%
%ADD60R,0.0500X0.0500*%
%ADD61C,0.0800*%
%ADD62R,0.0800X0.0800*%
%ADD63C,0.0010*%
%ADD64C,0.0100*%
%ADD65C,0.0080*%
%ADD66C,0.0060*%
%ADD67C,0.0079*%
%ADD68R,0.0394X0.0866*%
%ADD69R,0.0394X0.0413*%
%ADD70C,0.0098*%
%ADD71C,0.0250*%
%ADD72C,0.0210*%
%ADD73R,0.0472X0.0472*%
%ADD74C,0.0070*%
*
G04 Plot Data ***
*
G54D38*
X0005920Y0012390D03*
G54D41*
X0015010Y0011640D03*
X0015180Y0009490D03*
X0001230Y0004220D03*
X0010240Y0009220D03*
X0013140Y0012620D03*
X0018400Y0012280D03*
X0018900Y0003500D03*
X0016010Y0005080D03*
X0018190Y0008120D03*
X0016220Y0008130D03*
X0013100Y0010930D03*
X0010240Y0010900D03*
X0005240D03*
X0003700Y0008050D03*
X0001190D03*
X0007740Y0005900D03*
X0005240D03*
X0003990Y0003400D03*
G54D44*
X0005300Y0004830D03*
X0013500Y0003400D03*
X0010970Y0004390D03*
X0009890Y0004080D03*
X0014950Y0003450D03*
G54D27*
G01X0011830Y0013600D02*
Y0000120D01*
X0014790D02*
X0011830D01*
X0014790Y0002580D02*
Y0000120D01*
X0015730Y0002580D02*
X0014790D01*
X0015730D02*
Y0000120D01*
X0019900D02*
X0015730D01*
X0019900Y0013600D02*
Y0000120D01*
Y0013600D02*
X0011830D01*
X0011640D02*
X0000090D01*
X0011640D02*
Y0000130D01*
X0008440D01*
Y0002600D02*
Y0000130D01*
Y0002600D02*
X0007410D01*
Y0000140D01*
X0005200D01*
Y0002580D02*
Y0000140D01*
Y0002580D02*
X0004180D01*
Y0000130D01*
X0003060D01*
Y0003480D02*
Y0000130D01*
Y0003480D02*
X0000090D01*
Y0013600D02*
Y0003480D01*
G54D42*
G01X0000000Y0003380D02*
Y0013690D01*
X0020000D01*
Y0000000D01*
X0015710D01*
Y0002560D01*
X0014810D01*
Y0000000D01*
X0008420D01*
Y0002560D01*
X0007470D01*
Y0000000D01*
X0005170D01*
Y0002560D01*
X0004260D01*
Y0000000D01*
X0002960D01*
Y0003380D01*
X0000000D01*
G54D37*
X0004920Y0012290D03*
X0004070Y0011990D03*
G54D39*
X0002220Y0010390D03*
X0001720Y0006890D03*
X0002570Y0005340D03*
X0003670Y0004340D03*
X0004720Y0003890D03*
X0005920Y0003790D03*
X0007120Y0003890D03*
X0008170Y0004340D03*
X0006920Y0012290D03*
G54D40*
X0003020Y0011240D03*
G54D43*
X0007140Y0007950D03*
X0013140Y0004870D03*
X0009600Y0005330D03*
X0011090Y0005320D03*
X0006700Y0003080D03*
M02*
