*
%LPD*%
%LNNECK.L2*%
%FSLAX24Y24*%
%MOIN*%
%AD*%
%AMTHERMAL59*
1,1,0.175900,0.000000,0.000000*
1,0,0.146000,0.000000,0.000000*
20,0,0.030000,0.062226,0.062226,-0.062226,-0.062226,0.000000*
20,0,0.030000,-0.062226,0.062226,0.062226,-0.062226,0.000000*
%
%AMTHERMAL62*
1,1,0.082900,0.000000,0.000000*
1,0,0.063000,0.000000,0.000000*
20,0,0.083000,0.035356,-0.035356,-0.035356,0.035356,0.000000*
20,0,0.083000,0.035356,0.035356,-0.035356,-0.035356,0.000000*
%
%ADD36C,0.008000*%
%ADD40C,0.010000*%
%ADD51C,0.050000*%
%ADD59THERMAL59*%
%ADD62THERMAL62*%
%ADD63C,0.009000*%
%ADD82C,0.078000*%
%ADD83R,0.078000X0.078000*%
%ADD84C,0.086000*%
%ADD85C,0.086000*%
%ADD86R,0.086000X0.086000*%
%ADD87C,0.097000*%
%ADD88C,0.050000*%
G54D59*
%SRX1Y1I0.0J0.0*%
G1X10759Y1066D3*
G54D62*
G1X6785Y9365D3*
G1X3602Y9400D3*
G1X4832Y3867D3*
G1X3777Y6380D3*
G1X7602Y9630D3*
G1X6138Y7902D3*
G1X327Y1687D3*
G1X6218Y4402D3*
G1X12330Y3870D3*
G1X3840Y4380D3*
G1X2340Y7920D3*
G1X450Y7380D3*
G1X570Y4637D3*
G1X14474Y6049D2*
G54D36*
G1X14474Y5949D1*
G1X14608Y6066D2*
G1X14608Y5999D1*
G1X14574Y5982D1*
G1X14408Y5982D1*
G1X14608Y5656D2*
G1X14574Y5639D1*
G1X14508Y5639D1*
G1X14474Y5656D1*
G1X14474Y5756D1*
G1X14508Y5772D1*
G1X14574Y5772D1*
G1X14608Y5756D1*
G1X14608Y5656D1*
G1X14474Y5346D2*
G1X14474Y5446D1*
G1X14508Y5462D1*
G1X14574Y5462D1*
G1X14608Y5446D1*
G1X14608Y5346D1*
G1X14408Y5346D1*
G1X14608Y5052D2*
G1X14574Y5036D1*
G1X14508Y5036D1*
G1X14474Y5052D1*
G1X14474Y5152D1*
G1X14508Y5169D1*
G1X14574Y5169D1*
G1X14608Y5152D1*
G1X14608Y5052D1*
G1X14674Y4776D2*
G1X14674Y4842D1*
G1X14641Y4859D1*
G1X14474Y4859D1*
G1X14474Y4759D1*
G1X14508Y4742D1*
G1X14574Y4742D1*
G1X14608Y4759D1*
G1X14608Y4859D1*
G1X14474Y4466D2*
G1X14474Y4532D1*
G1X14508Y4549D1*
G1X14574Y4549D1*
G1X14608Y4566D1*
G1X14608Y4449D1*
G1X14574Y4432D1*
G1X14541Y4449D1*
G1X14541Y4549D1*
G1X14508Y4206D2*
G1X14608Y4256D1*
G1X14508Y4122D2*
G1X14508Y4222D1*
G1X14474Y4256D1*
G1X14441Y4256D1*
G1X14408Y4222D1*
G1X14408Y4122D1*
G1X14608Y4122D1*
G1X9561Y10533D2*
G1X9461Y10533D1*
G1X9577Y10400D2*
G1X9511Y10400D1*
G1X9494Y10433D1*
G1X9494Y10600D1*
G1X9167Y10400D2*
G1X9151Y10433D1*
G1X9151Y10500D1*
G1X9167Y10533D1*
G1X9267Y10533D1*
G1X9284Y10500D1*
G1X9284Y10433D1*
G1X9267Y10400D1*
G1X9167Y10400D1*
G1X8857Y10533D2*
G1X8957Y10533D1*
G1X8974Y10500D1*
G1X8974Y10433D1*
G1X8957Y10400D1*
G1X8857Y10400D1*
G1X8857Y10600D1*
G1X8564Y10400D2*
G1X8547Y10433D1*
G1X8547Y10500D1*
G1X8564Y10533D1*
G1X8664Y10533D1*
G1X8681Y10500D1*
G1X8681Y10433D1*
G1X8664Y10400D1*
G1X8564Y10400D1*
G1X8287Y10333D2*
G1X8354Y10333D1*
G1X8371Y10366D1*
G1X8371Y10533D1*
G1X8271Y10533D1*
G1X8254Y10500D1*
G1X8254Y10433D1*
G1X8271Y10400D1*
G1X8371Y10400D1*
G1X7977Y10533D2*
G1X8044Y10533D1*
G1X8061Y10500D1*
G1X8061Y10433D1*
G1X8077Y10400D1*
G1X7961Y10400D1*
G1X7944Y10433D1*
G1X7961Y10466D1*
G1X8061Y10466D1*
G1X7717Y10500D2*
G1X7767Y10400D1*
G1X7634Y10500D2*
G1X7734Y10500D1*
G1X7767Y10533D1*
G1X7767Y10566D1*
G1X7734Y10600D1*
G1X7634Y10600D1*
G1X7634Y10400D1*
G1X8787Y354D2*
G1X8687Y354D1*
G1X8803Y221D2*
G1X8737Y221D1*
G1X8720Y254D1*
G1X8720Y421D1*
G1X8393Y221D2*
G1X8377Y254D1*
G1X8377Y321D1*
G1X8393Y354D1*
G1X8493Y354D1*
G1X8510Y321D1*
G1X8510Y254D1*
G1X8493Y221D1*
G1X8393Y221D1*
G1X8083Y354D2*
G1X8183Y354D1*
G1X8200Y321D1*
G1X8200Y254D1*
G1X8183Y221D1*
G1X8083Y221D1*
G1X8083Y421D1*
G1X7790Y221D2*
G1X7773Y254D1*
G1X7773Y321D1*
G1X7790Y354D1*
G1X7890Y354D1*
G1X7907Y321D1*
G1X7907Y254D1*
G1X7890Y221D1*
G1X7790Y221D1*
G1X7513Y154D2*
G1X7580Y154D1*
G1X7597Y187D1*
G1X7597Y354D1*
G1X7497Y354D1*
G1X7480Y321D1*
G1X7480Y254D1*
G1X7497Y221D1*
G1X7597Y221D1*
G1X7203Y354D2*
G1X7270Y354D1*
G1X7287Y321D1*
G1X7287Y254D1*
G1X7303Y221D1*
G1X7187Y221D1*
G1X7170Y254D1*
G1X7187Y287D1*
G1X7287Y287D1*
G1X6943Y321D2*
G1X6993Y221D1*
G1X6860Y321D2*
G1X6960Y321D1*
G1X6993Y354D1*
G1X6993Y387D1*
G1X6960Y421D1*
G1X6860Y421D1*
G1X6860Y221D1*
G1X4551Y3153D2*
G54D40*
G1X4231Y3153D1*
G1X4231Y8661D2*
G1X4231Y3153D1*
G1X4231Y8661D2*
G1X2987Y8661D1*
G1X2987Y10052D2*
G1X2987Y8661D1*
G1X7249Y10052D2*
G1X2987Y10052D1*
G1X7249Y10052D2*
G1X7249Y8714D1*
G1X5480Y8714D1*
G1X5475Y3153D1*
G1X4551Y3153D1*
G1X15118Y2689D2*
G54D63*
G1X15018Y2589D1*
G1X14918Y2689D1*
G1X14918Y2555D2*
G1X15118Y2555D1*
G1X15085Y2359D2*
G1X15118Y2342D1*
G1X15118Y2242D1*
G1X15085Y2225D1*
G1X14951Y2225D1*
G1X14918Y2242D1*
G1X14918Y2342D1*
G1X14951Y2359D1*
G1X15018Y1995D2*
G1X15018Y1895D1*
G1X15118Y2029D2*
G1X15118Y1895D1*
G1X14918Y1895D1*
G1X14918Y2029D1*
G1X14918Y1699D2*
G1X15118Y1699D1*
G1X15085Y1665D1*
G1X14951Y1599D1*
G1X14918Y1565D1*
G1X15118Y1565D1*
G1X15440Y2930D2*
G1X15440Y2796D1*
G1X15507Y2930D2*
G1X15407Y2930D1*
G1X15307Y2880D1*
G1X15307Y2846D1*
G1X15407Y2796D1*
G1X15507Y2796D1*
G1X15507Y2566D2*
G1X15507Y2600D1*
G1X15473Y2600D1*
G1X15473Y2566D1*
G1X15507Y2566D1*
G1X15373Y2336D2*
G1X15507Y2270D1*
G1X15373Y2203D1*
G1X15507Y1990D2*
G1X15507Y1890D1*
G1X15473Y1873D1*
G1X15407Y1873D1*
G1X15373Y1890D1*
G1X15373Y1990D1*
G1X15407Y2006D1*
G1X15440Y2006D1*
G1X15440Y1873D1*
G1X15407Y1626D2*
G1X15507Y1676D1*
G1X15407Y1543D2*
G1X15407Y1643D1*
G1X15373Y1676D1*
G1X15340Y1676D1*
G1X15307Y1643D1*
G1X15307Y1543D1*
G1X15507Y1543D1*
G1X4347Y210D2*
G1X4247Y210D1*
G1X4231Y244D1*
G1X4231Y310D1*
G1X4247Y344D1*
G1X4347Y344D1*
G1X4364Y310D1*
G1X4364Y277D1*
G1X4231Y277D1*
G1X4017Y210D2*
G1X3917Y210D1*
G1X3901Y244D1*
G1X3901Y310D1*
G1X3917Y344D1*
G1X4017Y344D1*
G1X4034Y310D1*
G1X4034Y277D1*
G1X3901Y277D1*
G1X3704Y210D2*
G1X3587Y210D1*
G1X3587Y410D1*
G1X2986Y410D2*
G1X2986Y210D1*
G1X2886Y210D1*
G1X2869Y244D1*
G1X2869Y310D1*
G1X2886Y344D1*
G1X2986Y344D1*
G1X2639Y410D2*
G1X2639Y411D1*
G1X2639Y410D1*
G1X2672Y210D2*
G1X2606Y210D1*
G1X2639Y210D2*
G1X2639Y344D1*
G1X2606Y344D1*
G1X2392Y344D2*
G1X2326Y210D1*
G1X2259Y344D1*
G1X1962Y344D2*
G1X2029Y344D1*
G1X2046Y310D1*
G1X2046Y244D1*
G1X2062Y210D1*
G1X1946Y210D1*
G1X1929Y244D1*
G1X1946Y277D1*
G1X2046Y277D1*
G1X1616Y210D2*
G1X1616Y410D1*
G1X1599Y210D2*
G1X1699Y210D1*
G1X1732Y277D1*
G1X1732Y344D1*
G1X1699Y410D1*
G1X1599Y410D1*
G54D51*
G1X5322Y2145D3*
G1X6568Y10260D3*
G1X5585Y4042D3*
G1X4471Y10289D3*
G1X5080Y638D3*
G1X5830Y610D3*
G1X6085Y270D3*
G1X2250Y5370D3*
G1X2250Y5770D3*
G1X210Y5005D3*
G1X212Y5397D3*
G1X210Y5787D3*
G1X210Y6180D3*
G1X2250Y6197D3*
G1X210Y6595D3*
G1X2252Y6607D3*
G1X2250Y6970D3*
G1X2252Y7367D3*
G1X360Y2865D3*
G54D82*
G1X15083Y9117D3*
G54D83*
G1X15083Y10117D3*
G54D84*
G1X11759Y1166D3*
G1X12609Y1466D3*
G54D85*
G1X14459Y3066D3*
G1X14959Y6566D3*
G1X14109Y8116D3*
G1X13009Y9116D3*
G1X11959Y9566D3*
G1X10759Y9666D3*
G1X9559Y9566D3*
G1X8509Y9116D3*
G1X9759Y1166D3*
G54D86*
G1X13659Y2216D3*
G54D87*
G1X2758Y929D3*
G1X13939Y929D3*
G54D88*
G1X6530Y3780D3*
G1X580Y3880D3*
G1X8680Y4780D3*
G1X8210Y9910D3*
G1X4080Y3910D3*
G1X6080Y6180D3*
G1X10880Y3780D3*
G1X3880Y5780D3*
G1X1880Y8380D3*
G1X11680Y3780D3*
G1X9680Y2180D3*
G1X12080Y2180D3*
G1X10580Y2210D3*
G1X12080Y4380D3*
G1X10280Y7080D3*
G1X12840Y3790D3*
G1X10330Y3830D3*
G1X3760Y6980D3*
G1X2480Y3620D3*
G1X6860Y1580D3*
G1X6000Y7400D3*
G1X11280Y2180D3*
G1X1080Y2440D3*
G1X5580Y1190D3*
G1X7480Y880D3*
G1X2280Y4020D3*
G1X8580Y2210D3*
G1X500Y3400D3*
G1X9570Y4000D3*
G1X3760Y7380D3*
G1X5920Y6980D3*
G1X6380Y2180D3*
G1X7990Y5380D3*
G1X11500Y8380D3*
G1X6830Y4080D3*
G1X1030Y1980D3*
G1X10100Y8580D3*
G1X8480Y5700D3*
G1X3120Y3710D3*
G1X9380Y1780D3*
G1X4330Y4130D3*
G1X8070Y1980D3*
G1X2310Y4410D3*
G1X1280Y3820D3*
G1X8830Y3780D3*
G1X9080Y2180D3*
G1X680Y2580D3*
G1X3480Y1660D3*
G1X7590Y4780D3*
G1X12900Y7180D3*
M2*
