*
%LPD*%
%LNNECK.SSB*%
%FSLAX24Y24*%
%MOIN*%
%AD*%
%ADD36C,0.008000*%
%ADD37C,0.006000*%
%ADD38C,0.003900*%
%ADD63C,0.009000*%
G54D36*
%SRX1Y1I0.0J0.0*%
G1X2483Y8005D2*
G1X2483Y4255D1*
G1X1733Y4255D1*
G1X1733Y8005D1*
G1X2483Y8005D1*
G1X2483Y7755D2*
G1X1733Y7755D1*
G1X6311Y8027D2*
G1X6311Y4277D1*
G1X5561Y4277D1*
G1X5561Y8027D1*
G1X6311Y8027D1*
G1X6311Y7777D2*
G1X5561Y7777D1*
G1X6169Y8872D2*
G54D37*
G1X4644Y8872D1*
G1X4644Y10572D1*
G1X6244Y10572D1*
G1X6244Y8947D1*
G1X6169Y8872D1*
G1X12960Y8205D2*
G1X13550Y8205D1*
G1X13550Y6175D1*
G1X12275Y6175D1*
G1X12275Y8205D1*
G1X12790Y8205D1*
G1X12875Y8290D1*
G1X12960Y8205D1*
G1X11560Y8205D2*
G1X12150Y8205D1*
G1X12150Y6175D1*
G1X10875Y6175D1*
G1X10875Y8205D1*
G1X11390Y8205D1*
G1X11475Y8290D1*
G1X11560Y8205D1*
G1X8760Y8205D2*
G1X9350Y8205D1*
G1X9350Y6175D1*
G1X8075Y6175D1*
G1X8075Y8205D1*
G1X8590Y8205D1*
G1X8675Y8290D1*
G1X8760Y8205D1*
G1X6856Y9395D2*
G1X7338Y9395D1*
G1X7338Y10305D1*
G1X6856Y10305D1*
G1X6856Y9395D1*
G1X10160Y8205D2*
G1X10750Y8205D1*
G1X10750Y6175D1*
G1X9475Y6175D1*
G1X9475Y8205D1*
G1X9990Y8205D1*
G1X10075Y8290D1*
G1X10160Y8205D1*
G1X1588Y10645D2*
G54D38*
G1X2690Y10645D1*
G1X2690Y8597D1*
G1X1588Y8597D1*
G1X1588Y10645D1*
G1X2139Y9148D2*
G75*
G3X2612Y9621I0J473D1*
G1X1666Y9621D2*
G3X2139Y9148I473J0D1*
G1X2139Y10094D2*
G3X1666Y9621I0J-473D1*
G1X2612Y9621D2*
G3X2139Y10094I-473J0D1*
G74*
G1X179Y8244D2*
G54D63*
G1X246Y8244D1*
G1X213Y8244D2*
G1X213Y8444D1*
G1X246Y8410D1*
G1X476Y8444D2*
G1X476Y8277D1*
G1X493Y8244D1*
G1X543Y8344D1*
G1X543Y8377D2*
G1X543Y8344D1*
G1X593Y8244D1*
G1X609Y8277D1*
G1X609Y8444D1*
G1X806Y8410D2*
G1X823Y8444D1*
G1X923Y8444D1*
G1X939Y8410D1*
G1X939Y8377D1*
G1X923Y8344D1*
G1X823Y8344D1*
G1X806Y8310D1*
G1X806Y8277D1*
G1X823Y8244D1*
G1X923Y8244D1*
G1X939Y8277D1*
G1X4527Y8562D2*
G1X4594Y8562D1*
G1X4560Y8562D2*
G1X4560Y8762D1*
G1X4594Y8728D1*
G1X4857Y8662D2*
G1X4957Y8662D1*
G1X4824Y8562D2*
G1X4957Y8562D1*
G1X4957Y8762D1*
G1X4824Y8762D1*
G1X5154Y8595D2*
G1X5170Y8562D1*
G1X5270Y8562D1*
G1X5287Y8595D1*
G1X5287Y8728D1*
G1X5270Y8762D1*
G1X5170Y8762D1*
G1X5154Y8728D1*
G1X5484Y8762D2*
G1X5484Y8562D1*
G1X5517Y8595D1*
G1X5584Y8728D1*
G1X5617Y8762D1*
G1X5617Y8562D1*
G1X5930Y8562D2*
G1X5930Y8762D1*
G1X5947Y8562D2*
G1X5847Y8562D1*
G1X5814Y8595D1*
G1X5814Y8628D1*
G1X5830Y8662D1*
G1X5930Y8662D2*
G1X5830Y8662D1*
G1X5814Y8695D1*
G1X5814Y8728D1*
G1X5847Y8762D1*
G1X5947Y8762D1*
G1X6260Y8562D2*
G1X6260Y8762D1*
G1X6277Y8562D2*
G1X6177Y8562D1*
G1X6144Y8628D1*
G1X6144Y8695D1*
G1X6177Y8762D1*
G1X6277Y8762D1*
G1X12460Y8452D2*
G1X12527Y8452D1*
G1X12494Y8452D2*
G1X12494Y8652D1*
G1X12527Y8618D1*
G1X12757Y8452D2*
G1X12824Y8452D1*
G1X12790Y8452D2*
G1X12790Y8652D1*
G1X12824Y8618D1*
G1X13170Y8452D2*
G1X13170Y8652D1*
G1X13187Y8452D2*
G1X13087Y8452D1*
G1X13054Y8518D1*
G1X13054Y8585D1*
G1X13087Y8652D1*
G1X13187Y8652D1*
G1X1928Y8130D2*
G1X1828Y8330D1*
G1X1961Y8330D1*
G1X2158Y8330D2*
G1X2158Y8163D1*
G1X2174Y8130D1*
G1X2274Y8130D1*
G1X2291Y8163D1*
G1X2291Y8330D1*
G1X11127Y8427D2*
G1X11160Y8460D1*
G1X11177Y8493D1*
G1X11177Y8560D1*
G1X11160Y8593D1*
G1X11127Y8627D1*
G1X11094Y8627D1*
G1X11060Y8593D1*
G1X11044Y8560D1*
G1X11044Y8493D1*
G1X11060Y8460D1*
G1X11094Y8427D1*
G1X11127Y8427D1*
G1X11374Y8427D2*
G1X11440Y8427D1*
G1X11407Y8427D2*
G1X11407Y8627D1*
G1X11440Y8593D1*
G1X11787Y8427D2*
G1X11787Y8627D1*
G1X11804Y8427D2*
G1X11704Y8427D1*
G1X11670Y8493D1*
G1X11670Y8560D1*
G1X11704Y8627D1*
G1X11804Y8627D1*
G1X8499Y8509D2*
G1X8482Y8542D1*
G1X8482Y8576D1*
G1X8499Y8609D1*
G1X8599Y8609D1*
G1X8615Y8576D1*
G1X8615Y8542D1*
G1X8599Y8509D1*
G1X8499Y8509D1*
G1X8482Y8476D1*
G1X8482Y8442D1*
G1X8499Y8409D1*
G1X8599Y8409D1*
G1X8615Y8442D1*
G1X8615Y8476D1*
G1X8599Y8509D1*
G1X8929Y8409D2*
G1X8929Y8609D1*
G1X8945Y8409D2*
G1X8845Y8409D1*
G1X8812Y8476D1*
G1X8812Y8542D1*
G1X8845Y8609D1*
G1X8945Y8609D1*
G1X5673Y8251D2*
G1X5656Y8284D1*
G1X5656Y8318D1*
G1X5673Y8351D1*
G1X5773Y8351D1*
G1X5789Y8318D1*
G1X5789Y8284D1*
G1X5773Y8251D1*
G1X5673Y8251D1*
G1X5656Y8218D1*
G1X5656Y8184D1*
G1X5673Y8151D1*
G1X5773Y8151D1*
G1X5789Y8184D1*
G1X5789Y8218D1*
G1X5773Y8251D1*
G1X5986Y8351D2*
G1X5986Y8184D1*
G1X6003Y8151D1*
G1X6103Y8151D1*
G1X6119Y8184D1*
G1X6119Y8351D1*
G1X7009Y9099D2*
G1X6992Y9066D1*
G1X6892Y9066D1*
G1X6875Y9099D1*
G1X6875Y9166D1*
G1X6909Y9199D1*
G1X7009Y9199D1*
G1X7009Y9266D1*
G1X6875Y9266D1*
G1X7205Y9099D2*
G1X7222Y9066D1*
G1X7322Y9066D1*
G1X7339Y9099D1*
G1X7339Y9233D1*
G1X7322Y9266D1*
G1X7222Y9266D1*
G1X7205Y9233D1*
G1X9863Y8496D2*
G1X9963Y8496D1*
G1X9979Y8530D1*
G1X9979Y8563D1*
G1X9963Y8596D1*
G1X9863Y8596D1*
G1X9846Y8563D1*
G1X9846Y8530D1*
G1X9913Y8396D1*
G1X10293Y8396D2*
G1X10293Y8596D1*
G1X10309Y8396D2*
G1X10209Y8396D1*
G1X10176Y8463D1*
G1X10176Y8530D1*
G1X10209Y8596D1*
G1X10309Y8596D1*
G1X11622Y4725D2*
G1X11722Y4725D1*
G1X11739Y4759D1*
G1X11739Y4792D1*
G1X11722Y4825D1*
G1X11622Y4825D1*
G1X11605Y4792D1*
G1X11605Y4759D1*
G1X11672Y4625D1*
G1X11935Y4825D2*
G1X11935Y4659D1*
G1X11952Y4625D1*
G1X12052Y4625D1*
G1X12069Y4659D1*
G1X12069Y4825D1*
G1X536Y3686D2*
G1X569Y3719D1*
G1X586Y3753D1*
G1X586Y3819D1*
G1X569Y3853D1*
G1X536Y3886D1*
G1X503Y3886D1*
G1X469Y3853D1*
G1X453Y3819D1*
G1X453Y3753D1*
G1X469Y3719D1*
G1X503Y3686D1*
G1X536Y3686D1*
G1X783Y3686D2*
G1X849Y3686D1*
G1X816Y3686D2*
G1X816Y3886D1*
G1X849Y3853D1*
G1X1079Y3886D2*
G1X1079Y3719D1*
G1X1096Y3686D1*
G1X1196Y3686D1*
G1X1213Y3719D1*
G1X1213Y3886D1*
M2*
