*
G04 Mass Parameters ***
*
G04 Image ***
*
%INC:\DAVIDLEE\RAGOBOTS\ROBOT\HW\NECK\DESIGN\NECK.SST*%
%ICAS*%
%MOIN*%
%IPPOS*%
%ASAXBY*%
G74*%FSLAN2X34Y34*%
*
G04 Aperture Definitions ***
*
%AMTHERMAL49*
1,1,0.0839,0,0,*
1,0,0.0640,0,0,*
21,0,0.0840,0.1000,0,0,46.2*
21,0,0.0840,0.1000,0,0,136.2*%
%AMTHERMAL59*
1,1,0.1759,0,0,*
1,0,0.1460,0,0,*
21,0,0.1760,0.0300,0,0,225.0*
21,0,0.1760,0.0300,0,0,315.0*%
%AMTHERMAL62*
1,1,0.0829,0,0,*
1,0,0.0630,0,0,*
21,0,0.0830,0.1000,0,0,45.0*
21,0,0.0830,0.1000,0,0,135.0*%
%ADD10R,0.0220X0.0220*%
%ADD11R,0.0560X0.0920*%
%ADD12C,0.0580*%
%ADD13R,0.0580X0.0580*%
%ADD14C,0.0560*%
%ADD15R,0.0560X0.0560*%
%ADD16C,0.0787*%
%ADD17O,0.0302X0.0894*%
%ADD18O,0.0894X0.0302*%
%ADD19R,0.0894X0.0302*%
%ADD20O,0.0940X0.0250*%
%ADD21R,0.0940X0.0250*%
%ADD22C,0.0630*%
%ADD23R,0.0472X0.0315*%
%ADD24R,0.0400X0.0560*%
%ADD25R,0.0480X0.0560*%
%ADD26R,0.0866X0.0708*%
%ADD27R,0.0512X0.0118*%
%ADD28R,0.1220X0.1299*%
%ADD29R,0.0157X0.1102*%
%ADD30C,0.0780*%
%ADD31R,0.0780X0.0780*%
%ADD32C,0.0010*%
%ADD33C,0.0660*%
%ADD34R,0.0660X0.0660*%
%ADD35R,0.0512X0.0098*%
%ADD36C,0.0080*%
%ADD37C,0.0060*%
%ADD38C,0.0039*%
%ADD39C,0.0070*%
%ADD40C,0.0100*%
%ADD41C,0.0098*%
%ADD42R,0.0472X0.1260*%
%ADD43C,0.0315*%
%ADD44C,0.0250*%
%ADD45C,0.0120*%
%ADD46R,0.0920X0.0560*%
%ADD47R,0.1260X0.0472*%
%ADD48C,0.0500*%
%ADD49THERMAL49*%
%ADD50C,0.0250*%
%ADD51C,0.0500*%
%ADD52O,0.0302X0.0787*%
%ADD53O,0.0787X0.0302*%
%ADD54R,0.0787X0.0302*%
%ADD55C,0.0770*%
%ADD56C,0.0300*%
%ADD57R,0.0315X0.0472*%
%ADD58C,0.0860*%
%ADD59THERMAL59*%
%ADD60R,0.0860X0.0860*%
%ADD61C,0.0970*%
%ADD62THERMAL62*%
%ADD63C,0.0090*%
%ADD64C,0.0197*%
%ADD65C,0.0250*%
%ADD66R,0.0220X0.0220*%
%ADD67R,0.0920X0.0560*%
%ADD68R,0.0400X0.0560*%
%ADD69R,0.0480X0.0560*%
%ADD70C,0.0580*%
%ADD71R,0.0580X0.0580*%
%ADD72C,0.0660*%
%ADD73R,0.0660X0.0660*%
%ADD74R,0.1260X0.0472*%
%ADD75O,0.0940X0.0250*%
%ADD76R,0.0940X0.0250*%
%ADD77R,0.0315X0.0472*%
%ADD78C,0.0770*%
%ADD79R,0.1220X0.1299*%
%ADD80R,0.0157X0.1102*%
%ADD81C,0.0250*%
%ADD82C,0.0780*%
%ADD83R,0.0780X0.0780*%
%ADD84C,0.0860*%
%ADD85C,0.0860*%
%ADD86R,0.0860X0.0860*%
%ADD87C,0.0970*%
%ADD88C,0.0500*%
%ADD89R,0.0512X0.0098*%
%ADD90R,0.0866X0.0708*%
%ADD91O,0.0302X0.0787*%
%ADD92O,0.0787X0.0302*%
%ADD93R,0.0787X0.0302*%
*
G04 Plot Data ***
*
G54D36*
G01X0014437Y0010584D02*
X0014326D01*
X0014381Y0010695D01*
X0014409D01*
Y0010529D01*
X0014055Y0010584D02*
Y0010556D01*
X0014069Y0010529D01*
X0014124D01*
X0014138Y0010556D01*
Y0010695D01*
X0014152D02*
X0014096D01*
X0014417Y0010189D02*
X0014362D01*
X0014390D02*
Y0010355D01*
X0014362Y0010328D01*
X0012938Y0001943D02*
Y0002109D01*
X0012994D02*
X0012882D01*
X0012709D02*
Y0001943D01*
X0012681Y0001970D01*
X0012625Y0002082D01*
X0012597Y0002109D01*
Y0001943D01*
X0012424Y0001998D02*
X0012312D01*
X0012424Y0001943D02*
Y0002026D01*
X0012382Y0002109D01*
X0012354D01*
X0012312Y0002026D01*
Y0001943D01*
X0011736D02*
Y0002109D01*
X0011791D02*
X0011680D01*
X0011506D02*
Y0001943D01*
X0011478Y0001970D01*
X0011423Y0002082D01*
X0011395Y0002109D01*
Y0001943D01*
X0011221D02*
X0011166D01*
X0011193D02*
Y0002109D01*
X0011221D02*
X0011166D01*
X0013742Y0002743D02*
Y0002910D01*
X0013728Y0002743D02*
X0013811D01*
X0013839Y0002799D01*
Y0002854D01*
X0013811Y0002910D01*
X0013728D01*
X0013554D02*
Y0002743D01*
X0013526Y0002771D01*
X0013471Y0002882D01*
X0013443Y0002910D01*
Y0002743D01*
X0013214Y0002827D02*
X0013269D01*
Y0002771D01*
X0013255Y0002743D01*
X0013172D01*
X0013158Y0002771D01*
Y0002882D01*
X0013172Y0002910D01*
X0013255D01*
X0013269Y0002882D01*
X0012581Y0002743D02*
Y0002910D01*
X0012637D02*
X0012526D01*
X0012352D02*
Y0002743D01*
X0012324Y0002771D01*
X0012268Y0002882D01*
X0012241Y0002910D01*
Y0002743D01*
X0012067Y0002799D02*
X0011956D01*
X0012067Y0002743D02*
Y0002827D01*
X0012025Y0002910D01*
X0011997D01*
X0011956Y0002827D01*
Y0002743D01*
X0014972Y0003567D02*
Y0003734D01*
X0015028D02*
X0014916D01*
X0014743D02*
Y0003567D01*
X0014715Y0003595D01*
X0014659Y0003706D01*
X0014631Y0003734D01*
Y0003567D01*
X0014458Y0003623D02*
X0014346D01*
X0014458Y0003567D02*
Y0003651D01*
X0014416Y0003734D01*
X0014388D01*
X0014346Y0003651D01*
Y0003567D01*
X0013769D02*
Y0003734D01*
X0013825D02*
X0013714D01*
X0013540Y0003567D02*
X0013457Y0003734D01*
X0013540D02*
X0013457Y0003567D01*
X0013241Y0003651D02*
X0013158D01*
X0013269Y0003567D02*
X0013158D01*
Y0003734D01*
X0013269D01*
X0015437Y0008194D02*
Y0008360D01*
X0015492D02*
X0015381D01*
X0015207Y0008333D02*
X0015193Y0008360D01*
X0015110D01*
X0015096Y0008333D01*
Y0008305D01*
X0015110Y0008277D01*
X0015193D01*
X0015207Y0008249D01*
Y0008221D01*
X0015193Y0008194D01*
X0015110D01*
X0015096Y0008221D01*
X0014880Y0008277D02*
X0014922Y0008194D01*
X0014811Y0008277D02*
X0014894D01*
X0014922Y0008305D01*
Y0008333D01*
X0014894Y0008360D01*
X0014811D01*
Y0008194D01*
X0014378Y0009532D02*
X0014323D01*
X0014350D02*
Y0009698D01*
X0014378D02*
X0014323D01*
X0014121Y0009670D02*
X0014107Y0009698D01*
X0014024D01*
X0014010Y0009670D01*
Y0009643D01*
X0014024Y0009615D01*
X0014107D01*
X0014121Y0009587D01*
Y0009559D01*
X0014107Y0009532D01*
X0014024D01*
X0014010Y0009559D01*
X0013836Y0009670D02*
X0013822Y0009698D01*
X0013739D01*
X0013725Y0009670D01*
Y0009643D01*
X0013739Y0009615D01*
X0013822D01*
X0013836Y0009587D01*
Y0009559D01*
X0013822Y0009532D01*
X0013739D01*
X0013725Y0009559D01*
X0013509Y0009615D02*
X0013551Y0009532D01*
X0013440Y0009615D02*
X0013523D01*
X0013551Y0009643D01*
Y0009670D01*
X0013523Y0009698D01*
X0013440D01*
Y0009532D01*
X0013542Y0010185D02*
X0013458Y0010352D01*
X0013542D02*
X0013458Y0010185D01*
X0013215D02*
Y0010352D01*
X0013271D02*
X0013159D01*
X0012986Y0010185D02*
X0012902Y0010352D01*
X0012715Y0010185D02*
X0012617D01*
Y0010352D01*
X0012443Y0010213D02*
X0012430Y0010185D01*
X0012346D01*
X0012332Y0010213D01*
Y0010324D01*
X0012346Y0010352D01*
X0012430D01*
X0012443Y0010324D01*
X0012158D02*
X0012145Y0010352D01*
X0012061D01*
X0012047Y0010324D01*
Y0010296D01*
X0012061Y0010269D01*
X0012145D01*
X0012158Y0010241D01*
Y0010213D01*
X0012145Y0010185D01*
X0012061D01*
X0012047Y0010213D01*
X0011459Y0010350D02*
X0011376Y0010517D01*
X0011459D02*
X0011376Y0010350D01*
X0011146Y0010433D02*
X0011188Y0010350D01*
X0011077Y0010433D02*
X0011160D01*
X0011188Y0010461D01*
Y0010489D01*
X0011160Y0010517D01*
X0011077D01*
Y0010350D01*
X0010903D02*
X0010820Y0010517D01*
X0010632Y0010406D02*
X0010521D01*
X0010632Y0010350D02*
Y0010433D01*
X0010590Y0010517D01*
X0010562D01*
X0010521Y0010433D01*
Y0010350D01*
X0010250D02*
Y0010517D01*
X0010236Y0010350D02*
X0010319D01*
X0010347Y0010406D01*
Y0010461D01*
X0010319Y0010517D01*
X0010236D01*
X0010062Y0010489D02*
X0010048Y0010517D01*
X0009965D01*
X0009951Y0010489D01*
Y0010461D01*
X0009965Y0010433D01*
X0010048D01*
X0010062Y0010406D01*
Y0010378D01*
X0010048Y0010350D01*
X0009965D01*
X0009951Y0010378D01*
X0009343Y0010156D02*
X0009329Y0010184D01*
Y0010295D01*
X0009343Y0010323D01*
X0009426D01*
X0009440Y0010295D01*
Y0010184D01*
X0009426Y0010156D01*
X0009343D01*
X0009058D02*
Y0010323D01*
X0009044Y0010156D02*
X0009127D01*
X0009155Y0010212D01*
Y0010267D01*
X0009127Y0010323D01*
X0009044D01*
X0008870Y0010295D02*
X0008856Y0010323D01*
X0008773D01*
X0008759Y0010295D01*
Y0010267D01*
X0008773Y0010240D01*
X0008856D01*
X0008870Y0010212D01*
Y0010184D01*
X0008856Y0010156D01*
X0008773D01*
X0008759Y0010184D01*
X0008416Y0009873D02*
X0008499D01*
X0008513Y0009845D01*
Y0009818D01*
X0008499Y0009790D01*
X0008416D01*
X0008402Y0009818D01*
Y0009845D01*
X0008457Y0009957D01*
X0008131Y0009790D02*
Y0009957D01*
X0008117Y0009790D02*
X0008200D01*
X0008228Y0009818D01*
Y0009845D01*
X0008214Y0009873D01*
X0008131D02*
X0008214D01*
X0008228Y0009901D01*
Y0009929D01*
X0008200Y0009957D01*
X0008117D01*
X0007901Y0009873D02*
X0007943Y0009790D01*
X0007832Y0009873D02*
X0007915D01*
X0007943Y0009901D01*
Y0009929D01*
X0007915Y0009957D01*
X0007832D01*
Y0009790D01*
X0009850Y0000403D02*
X0009836Y0000375D01*
X0009753D01*
X0009739Y0000403D01*
Y0000514D01*
X0009753Y0000542D01*
X0009836D01*
X0009850Y0000514D01*
X0009565Y0000403D02*
X0009551Y0000375D01*
X0009468D01*
X0009454Y0000403D01*
Y0000514D01*
X0009468Y0000542D01*
X0009551D01*
X0009565Y0000514D01*
X0009280Y0000542D02*
Y0000486D01*
X0009225Y0000375D01*
X0009169Y0000486D01*
Y0000542D01*
X0011095Y0000269D02*
Y0000436D01*
X0011081Y0000269D02*
X0011164D01*
X0011192Y0000324D01*
Y0000380D01*
X0011164Y0000436D01*
X0011081D01*
X0010907D02*
Y0000269D01*
X0010879Y0000297D01*
X0010824Y0000408D01*
X0010796Y0000436D01*
Y0000269D01*
X0010567Y0000352D02*
X0010622D01*
Y0000297D01*
X0010608Y0000269D01*
X0010525D01*
X0010511Y0000297D01*
Y0000408D01*
X0010525Y0000436D01*
X0010608D01*
X0010622Y0000408D01*
X0012971Y0000370D02*
Y0000537D01*
X0013027D02*
X0012915D01*
X0012742D02*
Y0000398D01*
X0012728Y0000370D01*
X0012644D01*
X0012630Y0000398D01*
Y0000537D01*
X0012359Y0000370D02*
X0012345Y0000398D01*
Y0000509D01*
X0012359Y0000537D01*
X0012443D01*
X0012457Y0000509D01*
Y0000398D01*
X0012443Y0000370D01*
X0012359D01*
X0012172Y0000537D02*
Y0000481D01*
X0012116Y0000370D01*
X0012060Y0000481D01*
Y0000537D01*
X0011775Y0000398D02*
X0011803Y0000370D01*
X0011859D01*
X0011887Y0000398D01*
Y0000426D01*
X0011831Y0000481D01*
X0011887Y0000537D01*
X0011775D01*
X0015583Y0008617D02*
X0014583D01*
Y0010617D01*
X0015583D01*
Y0008617D01*
G01X0010759Y0000551D02*
G03X0015574Y0005366I0000000J0004815D01*
G01X0005944D02*
G03X0010759Y0000551I0004815J0000000D01*
Y0010180D02*
G03X0005945Y0005366I0000000J0004814D01*
G01X0015573D02*
G03X0010759Y0010180I0004814J0000000D01*
G54D37*
G01X0007330Y0009562D02*
X0006848D01*
Y0010472D01*
X0007330D01*
Y0009562D01*
X0012499Y0005210D02*
Y0005692D01*
X0013409D01*
Y0005210D01*
X0012499D01*
X0003757Y0009619D02*
X0003275D01*
Y0010529D01*
X0003757D01*
Y0009619D01*
X0012499Y0004141D02*
Y0004623D01*
X0013409D01*
Y0004141D01*
X0012499D01*
G54D38*
G01X0004456Y0010292D02*
X0004259D01*
Y0010095D01*
X0006227D02*
Y0010292D01*
X0006030D01*
Y0008324D02*
X0006227D01*
Y0008521D01*
X0004259D02*
Y0008324D01*
X0004456D01*
G54D39*
G01X0006657Y0009711D02*
X0006591D01*
X0006624D02*
Y0009911D01*
X0006591Y0009877D01*
G54D40*
G01X0011557Y0005231D02*
X0011613Y0005175D01*
X0011724D01*
X0011779Y0005231D01*
Y0005286D01*
X0011668Y0005397D01*
X0011779Y0005508D01*
X0011557D01*
X0011135Y0005175D02*
Y0005508D01*
X0011107Y0005175D02*
X0011274D01*
X0011329Y0005286D01*
Y0005397D01*
X0011274Y0005508D01*
X0011107D01*
X0010879Y0005175D02*
X0010768D01*
X0010824D02*
Y0005508D01*
X0010879D02*
X0010768D01*
X0010429Y0005342D02*
X0010263D01*
Y0005175D02*
Y0005508D01*
X0010485D01*
X0009951Y0005342D02*
X0010035Y0005175D01*
X0009813Y0005342D02*
X0009979D01*
X0010035Y0005397D01*
Y0005453D01*
X0009979Y0005508D01*
X0009813D01*
Y0005175D01*
G54D63*
G01X0004017Y0008258D02*
X0004034Y0008224D01*
X0004134D01*
X0004151Y0008258D01*
Y0008324D01*
X0004117Y0008358D01*
X0004017D01*
Y0008424D01*
X0004151D01*
X0003821D02*
Y0008258D01*
X0003804Y0008224D01*
X0003704D01*
X0003687Y0008258D01*
Y0008424D01*
X0007237Y0009223D02*
X0007337Y0009423D01*
X0007203D01*
X0007007Y0009256D02*
X0006990Y0009223D01*
X0006890D01*
X0006873Y0009256D01*
Y0009389D01*
X0006890Y0009423D01*
X0006990D01*
X0007007Y0009389D01*
X0013024Y0005838D02*
X0013057Y0005804D01*
X0013124D01*
X0013157Y0005838D01*
Y0005871D01*
X0013091Y0005938D01*
X0013157Y0006004D01*
X0013024D01*
X0012827Y0005838D02*
X0012811Y0005804D01*
X0012711D01*
X0012694Y0005838D01*
Y0005971D01*
X0012711Y0006004D01*
X0012811D01*
X0012827Y0005971D01*
X0015118Y0002689D02*
X0015018Y0002589D01*
X0014918Y0002689D01*
Y0002556D02*
X0015118D01*
X0015085Y0002359D02*
X0015118Y0002342D01*
Y0002242D01*
X0015085Y0002226D01*
X0014951D01*
X0014918Y0002242D01*
Y0002342D01*
X0014951Y0002359D01*
X0015018Y0001996D02*
Y0001896D01*
X0015118Y0002029D02*
Y0001896D01*
X0014918D01*
Y0002029D01*
Y0001699D02*
X0015118D01*
X0015085Y0001666D01*
X0014951Y0001599D01*
X0014918Y0001566D01*
X0015118D01*
X0015434Y0002930D02*
Y0002796D01*
X0015501Y0002930D02*
X0015401D01*
X0015301Y0002880D01*
Y0002846D01*
X0015401Y0002796D01*
X0015501D01*
Y0002566D02*
Y0002600D01*
X0015467D01*
Y0002566D01*
X0015501D01*
X0015367Y0002336D02*
X0015501Y0002270D01*
X0015367Y0002203D01*
X0015501Y0001990D02*
Y0001890D01*
X0015467Y0001873D01*
X0015401D01*
X0015367Y0001890D01*
Y0001990D01*
X0015401Y0002006D01*
X0015434D01*
Y0001873D01*
X0015401Y0001626D02*
X0015501Y0001676D01*
X0015401Y0001543D02*
Y0001643D01*
X0015367Y0001676D01*
X0015334D01*
X0015301Y0001643D01*
Y0001543D01*
X0015501D01*
X0003628Y0009417D02*
X0003728D01*
X0003745Y0009383D01*
Y0009350D01*
X0003728Y0009317D01*
X0003628D01*
X0003611Y0009350D01*
Y0009383D01*
X0003678Y0009517D01*
X0003415Y0009350D02*
X0003398Y0009317D01*
X0003298D01*
X0003281Y0009350D01*
Y0009483D01*
X0003298Y0009517D01*
X0003398D01*
X0003415Y0009483D01*
X0013173Y0004740D02*
X0013040D01*
X0013173Y0004873D01*
Y0004906D01*
X0013157Y0004940D01*
X0013057D01*
X0013040Y0004906D01*
X0012793Y0004840D02*
X0012843Y0004740D01*
X0012710Y0004840D02*
X0012810D01*
X0012843Y0004873D01*
Y0004906D01*
X0012810Y0004940D01*
X0012710D01*
Y0004740D01*
X0002486Y0008632D02*
Y0008499D01*
X0002352Y0008632D01*
X0002319D01*
X0002286Y0008615D01*
Y0008515D01*
X0002319Y0008499D01*
X0002419Y0008185D02*
X0002452D01*
X0002486Y0008202D01*
Y0008269D01*
X0002452Y0008285D01*
X0002286D01*
Y0008302D02*
Y0008235D01*
G54D64*
G01X0005229Y0009448D02*
X0005251D01*
Y0009469D01*
X0005229D01*
Y0009448D01*
M02*
