*
%LPD*%
%LNNECK.SPT*%
%FSLAX24Y24*%
%MOIN*%
%AD*%
%ADD66R,0.022000X0.022000*%
%ADD89R,0.051200X0.009800*%
%ADD90R,0.086600X0.070800*%
%ADD91O,0.030200X0.078700*%
%ADD92O,0.078700X0.030200*%
%ADD93R,0.078700X0.030200*%
G54D66*
%SRX1Y1I0.0J0.0*%
G1X13169Y4383D3*
G1X12749Y4383D3*
G1X7088Y10232D3*
G1X7088Y9812D3*
G1X3515Y10289D3*
G1X3515Y9869D3*
G1X13169Y5452D3*
G1X12749Y5452D3*
G54D89*
G1X1771Y1259D3*
G1X1771Y1456D3*
G1X1771Y1652D3*
G1X1771Y1849D3*
G1X1771Y2046D3*
G1X1771Y2243D3*
G1X1771Y2440D3*
G1X1771Y2637D3*
G1X1771Y2833D3*
G1X1771Y3030D3*
G1X1771Y3227D3*
G1X1771Y3424D3*
G1X1771Y3621D3*
G1X1771Y3818D3*
G1X1771Y4015D3*
G1X1771Y4211D3*
G1X1771Y4408D3*
G1X1771Y4605D3*
G1X1771Y4802D3*
G1X1771Y4999D3*
G1X1771Y5196D3*
G1X1771Y5393D3*
G1X1771Y5589D3*
G1X1771Y5786D3*
G1X1771Y5983D3*
G1X1771Y6180D3*
G1X1771Y6377D3*
G1X1771Y6574D3*
G1X1771Y6770D3*
G1X1771Y6967D3*
G1X1771Y7164D3*
G1X1771Y7361D3*
G1X1771Y7558D3*
G54D90*
G1X491Y511D3*
G1X491Y8306D3*
G54D91*
G1X5243Y8574D3*
G1X5243Y10042D3*
G54D92*
G1X5977Y9308D3*
G1X5977Y8808D3*
G1X4509Y8808D3*
G1X4509Y9308D3*
G1X4509Y9808D3*
G54D93*
G1X5977Y9808D3*
M2*
