*
%LPD*%
%LNRAGOBOT.IN1*%
%FSLAX24Y24*%
%MOIN*%
%AD*%
%ADD52C,0.010000*%
%ADD58C,0.008000*%
%ADD196C,0.040000*%
%ADD211C,0.025000*%
%ADD226C,0.175000*%
%ADD227C,0.047200*%
%ADD230C,0.062000*%
%ADD232C,0.058000*%
%ADD233R,0.058000X0.058000*%
%ADD241C,0.086600*%
%ADD244C,0.083000*%
%ADD245C,0.055000*%
%ADD249C,0.100000*%
%ADD250R,0.062000X0.062000*%
%ADD251C,0.177100*%
%ADD256C,0.065000*%
%ADD257C,0.080000*%
%ADD260C,0.040000*%
%ADD261R,0.040000X0.040000*%
%ADD262C,0.042000*%
%ADD263R,0.042000X0.042000*%
%ADD264C,0.025000*%
%ADD382C,0.025000*%
G54D52*
%SRX1Y1I0.0J0.0*%
G1X2327Y20203D2*
G1X3050Y20925D1*
G1X7542Y20925D1*
G1X8257Y21640D1*
G1X12690Y19130D2*
G1X12690Y18740D1*
G1X12600Y19130D2*
G1X12600Y18740D1*
G1X12510Y19130D2*
G1X12510Y18740D1*
G1X12420Y19130D2*
G1X12420Y18740D1*
G1X13100Y19100D2*
G1X12240Y19100D1*
G1X13100Y19010D2*
G1X12240Y19010D1*
G1X13100Y18920D2*
G1X12240Y18920D1*
G1X12330Y19130D2*
G1X12330Y18740D1*
G1X13100Y18830D2*
G1X12240Y18830D1*
G1X12240Y19130D2*
G1X12240Y18740D1*
G1X13100Y18740D2*
G1X12240Y18740D1*
G1X13100Y19130D2*
G1X13100Y18740D1*
G1X13100Y19130D2*
G1X12240Y19130D1*
G1X13050Y19130D2*
G1X13050Y18740D1*
G1X12960Y19130D2*
G1X12960Y18740D1*
G1X12870Y19130D2*
G1X12870Y18740D1*
G1X12780Y19130D2*
G1X12780Y18740D1*
G1X7980Y10665D2*
G54D58*
G1X7980Y9420D1*
G1X13792Y11750D2*
G1X14630Y10912D1*
G1X14630Y6755D1*
G1X26650Y9035D2*
G1X26915Y9035D1*
G1X27085Y9205D1*
G1X27085Y13100D1*
G1X35525Y8285D2*
G1X35815Y8575D1*
G1X35815Y8835D1*
G1X35695Y8955D1*
G1X34925Y8955D1*
G1X34755Y9125D1*
G1X34755Y9765D1*
G1X27420Y13805D2*
G1X26765Y13150D1*
G1X26765Y13116D1*
G1X23005Y1480D2*
G1X23645Y840D1*
G1X24198Y840D1*
G1X24620Y418D1*
G1X18210Y22040D2*
G1X19405Y22040D1*
G1X19560Y22195D1*
G1X22280Y22195D1*
G1X-3580Y24350D2*
G1X-3155Y23925D1*
G1X-3155Y-890D1*
G1X-2995Y-1050D1*
G1X-2190Y-1050D1*
G1X40665Y11560D2*
G1X41445Y11560D1*
G1X41445Y10160D1*
G1X10005Y820D2*
G1X10265Y1080D1*
G1X11960Y1080D1*
G1X12330Y1450D1*
G1X12330Y2950D1*
G1X22820Y12530D2*
G1X23205Y12145D1*
G1X24585Y12145D1*
G1X24905Y11825D1*
G1X24905Y10600D1*
G1X19780Y16765D2*
G1X19780Y15515D1*
G1X19400Y15140D1*
G1X19400Y14515D1*
G1X19039Y14160D1*
G1X40665Y11560D2*
G1X41445Y11560D1*
G1X41445Y10160D1*
G1X22245Y200D2*
G1X22245Y1520D1*
G1X21640Y2125D1*
G1X21640Y8680D1*
G1X21320Y9000D1*
G1X20165Y9000D1*
G1X18215Y10950D1*
G1X38865Y11685D2*
G1X39250Y11300D1*
G1X39250Y9470D1*
G1X39790Y9470D1*
G1X28682Y8107D2*
G1X28682Y8345D1*
G1X28915Y8578D1*
G1X28915Y13542D1*
G1X28682Y13775D1*
G1X24185Y11910D2*
G1X24185Y11055D1*
G1X23715Y10585D1*
G1X23715Y9275D1*
G1X27890Y6055D2*
G1X28360Y5585D1*
G1X29795Y5585D1*
G1X27840Y11638D2*
G1X28045Y11638D1*
G1X28340Y11343D1*
G1X28340Y8685D1*
G1X27655Y8000D1*
G1X27655Y5615D1*
G1X27975Y5295D1*
G1X29165Y5295D1*
G1X29390Y5070D1*
G1X31170Y5070D1*
G1X31420Y5320D1*
G1X31420Y5982D1*
G1X32830Y13720D2*
G1X32595Y13485D1*
G1X32595Y11900D1*
G1X28465Y15900D2*
G1X28700Y15665D1*
G1X28700Y14880D1*
G1X28385Y14565D1*
G1X28385Y14075D1*
G1X27320Y13010D1*
G1X27320Y9120D1*
G1X27000Y8800D1*
G1X24440Y8800D1*
G1X24435Y8805D1*
G1X24200Y8805D1*
G1X27840Y11638D2*
G1X28045Y11638D1*
G1X28340Y11343D1*
G1X28340Y8685D1*
G1X27655Y8000D1*
G1X27655Y5615D1*
G1X27975Y5295D1*
G1X29165Y5295D1*
G1X29390Y5070D1*
G1X31170Y5070D1*
G1X31170Y1500D1*
G1X43030Y12130D2*
G1X42825Y12130D1*
G1X42255Y11560D1*
G1X41445Y11560D1*
G1X40665Y11560D1*
G1X36915Y20015D2*
G1X36915Y17220D1*
G1X37625Y16510D1*
G1X37625Y15560D1*
G1X36190Y14125D1*
G1X36190Y7965D1*
G1X35870Y7645D1*
G1X32538Y7645D1*
G1X32293Y7400D1*
G1X17495Y20065D2*
G1X17730Y20065D1*
G1X17825Y20160D1*
G1X21540Y20160D1*
G1X22595Y19105D1*
G1X32650Y8370D2*
G1X34250Y9970D1*
G1X34250Y18295D1*
G1X34570Y18615D1*
G1X35212Y18615D1*
G1X35212Y18575D1*
G1X36890Y16835D2*
G1X36385Y17340D1*
G1X36385Y19212D1*
G1X36287Y19310D1*
G1X27405Y19310D1*
G1X25735Y17640D1*
G1X21880Y17640D1*
G1X21580Y17340D1*
G1X21580Y14513D1*
G1X37390Y16265D2*
G1X36095Y16265D1*
G1X36075Y16285D1*
G1X36075Y18825D1*
G1X35915Y18985D1*
G1X27620Y18985D1*
G1X25940Y17305D1*
G1X23280Y17305D1*
G1X22510Y16535D1*
G1X22510Y14100D1*
G1X25180Y1270D2*
G1X25610Y840D1*
G1X26930Y840D1*
G1X27545Y225D1*
G1X42750Y225D1*
G1X45535Y-2560D1*
G1X47210Y-2560D1*
G1X30335Y9270D2*
G1X30335Y10390D1*
G1X30165Y10560D1*
G1X30165Y10940D1*
G1X902Y2430D2*
G1X-395Y3727D1*
G1X-395Y8322D1*
G1X-150Y8567D1*
G1X12020Y4670D2*
G1X12570Y4120D1*
G1X12570Y855D1*
G1X12890Y535D1*
G1X20035Y535D1*
G1X20355Y855D1*
G1X20355Y2590D1*
G1X23175Y3700D2*
G1X24340Y2535D1*
G1X30330Y2535D1*
G1X30650Y2215D1*
G1X30650Y1050D1*
G1X30970Y730D1*
G1X31495Y730D1*
G1X32050Y1285D1*
G1X32050Y1585D1*
G1X32050Y6465D1*
G1X31730Y6785D1*
G1X30315Y6785D1*
G1X29995Y7105D1*
G1X29995Y7970D1*
G1X30570Y8545D1*
G1X30570Y11665D1*
G1X30335Y11900D1*
G1X26735Y9925D2*
G1X26735Y10160D1*
G1X26845Y10270D1*
G1X26845Y12413D1*
G1X26849Y12417D1*
G1X26849Y12622D1*
G1X24415Y21495D2*
G1X24155Y21235D1*
G1X14835Y21235D1*
G1X14040Y22030D1*
G1X11007Y22030D1*
G1X7355Y18377D1*
G1X7355Y10790D1*
G1X6950Y10385D1*
G1X6950Y7799D1*
G1X24270Y12380D2*
G1X24900Y12380D1*
G1X25220Y12060D1*
G1X25220Y9185D1*
G1X32345Y7900D2*
G1X32095Y7900D1*
G1X32055Y7940D1*
G1X32055Y9490D1*
G1X33360Y10795D1*
G1X33360Y17650D1*
G1X38010Y15580D2*
G1X38010Y13225D1*
G1X36490Y11705D1*
G1X36490Y1905D1*
G1X36170Y1585D1*
G1X32050Y1585D1*
G1X32050Y6465D1*
G1X31730Y6785D1*
G1X30315Y6785D1*
G1X29995Y7105D1*
G1X29995Y7970D1*
G1X30570Y8545D1*
G1X30570Y11665D1*
G1X30335Y11900D1*
G1X6510Y910D2*
G1X8525Y2925D1*
G1X8525Y16962D1*
G1X10482Y18920D1*
G1X12320Y18920D1*
G1X12400Y19000D1*
G1X12400Y19980D1*
G1X12700Y20280D1*
G1X12700Y20715D1*
G1X12908Y20923D1*
G1X12908Y21551D1*
G1X28465Y15900D2*
G1X28185Y16180D1*
G1X25915Y16180D1*
G1X25210Y16885D1*
G1X24390Y16885D1*
G1X23705Y16200D1*
G1X23335Y16200D1*
G1X38665Y12605D2*
G1X38665Y18825D1*
G1X13320Y21790D2*
G1X14045Y21790D1*
G1X14365Y21470D1*
G1X14365Y18690D1*
G1X14445Y18610D1*
G1X14860Y18610D1*
G1X11020Y4670D2*
G1X9820Y5870D1*
G1X9820Y8090D1*
G1X9640Y8270D1*
G1X9640Y15672D1*
G1X37130Y16515D2*
G1X36395Y16515D1*
G1X36235Y16675D1*
G1X36235Y19050D1*
G1X36135Y19150D1*
G1X27530Y19150D1*
G1X25850Y17470D1*
G1X22540Y17470D1*
G1X22025Y16955D1*
G1X22025Y16685D1*
G1X22128Y16582D1*
G1X22128Y14202D1*
G1X30100Y9665D2*
G1X30100Y10090D1*
G1X29930Y10260D1*
G1X29930Y11965D1*
G1X30250Y12285D1*
G1X30490Y12285D1*
G1X30810Y12605D1*
G1X30810Y17800D1*
G1X30945Y17935D1*
G1X30945Y18170D1*
G1X31835Y17885D2*
G1X31835Y7460D1*
G1X32155Y7140D1*
G1X33045Y7140D1*
G1X33365Y6820D1*
G1X33365Y6216D1*
G1X29510Y18490D2*
G1X30980Y18490D1*
G1X31300Y18170D1*
G1X31300Y8354D1*
G1X30426Y7480D1*
G1X36430Y19965D2*
G1X24790Y19965D1*
G1X24705Y20050D1*
G1X23375Y20050D1*
G1X19870Y21790D2*
G1X17940Y21790D1*
G1X16915Y22815D1*
G1X4710Y22815D1*
G1X3885Y21990D1*
G1X3170Y21990D1*
G1X2350Y21170D1*
G1X1845Y21170D1*
G1X865Y20190D1*
G1X865Y19525D1*
G1X1120Y19270D1*
G1X24360Y13150D2*
G1X22810Y13150D1*
G1X22340Y12680D1*
G1X14180Y8675D2*
G1X14180Y9805D1*
G1X19150Y14845D2*
G1X19150Y18390D1*
G1X18930Y18610D1*
G1X18930Y18845D1*
G1X18740Y980D2*
G1X18600Y840D1*
G1X16220Y840D1*
G1X15120Y1940D1*
G1X15120Y2960D1*
G1X14900Y3180D1*
G1X14900Y5850D1*
G1X15135Y6085D1*
G1X15135Y6925D1*
G1X15615Y7405D1*
G1X15615Y8020D1*
G1X15015Y8620D1*
G1X15015Y12420D1*
G1X15335Y12740D1*
G1X17585Y12740D1*
G1X17910Y12415D1*
G1X19035Y12415D1*
G1X38155Y3350D2*
G1X38865Y3350D1*
G1X38865Y7170D1*
G1X20640Y4700D2*
G1X18820Y4700D1*
G1X18340Y4220D1*
G1X18340Y3520D1*
G1X18200Y3380D1*
G1X15480Y3380D1*
G1X15320Y3540D1*
G1X15320Y4480D1*
G1X15520Y4680D1*
G1X39720Y3960D2*
G1X39720Y3475D1*
G1X39370Y3475D1*
G1X39250Y3595D1*
G1X39250Y6200D1*
G1X39402Y6352D1*
G1X39402Y6670D1*
G1X39720Y6670D1*
G1X33865Y18585D2*
G1X33865Y10860D1*
G1X32765Y9760D1*
G1X12715Y12840D2*
G1X12605Y12840D1*
G1X12480Y12965D1*
G1X12480Y15740D1*
G1X13345Y16605D1*
G1X14600Y19095D2*
G1X14835Y19095D1*
G1X14940Y19200D1*
G1X18980Y19200D1*
G1X19300Y18880D1*
G1X19300Y18480D1*
G1X19620Y18160D1*
G1X22660Y18160D1*
G1X23755Y19255D1*
G1X25780Y19255D1*
G1X26070Y19545D1*
G1X35835Y19545D1*
G1X17160Y6030D2*
G1X17450Y6320D1*
G1X17450Y11075D1*
G1X17610Y11235D1*
G1X17855Y11235D1*
G1X37590Y10295D2*
G1X38545Y10295D1*
G1X38865Y9975D1*
G1X38865Y7170D1*
G1X-160Y7532D2*
G1X1595Y5777D1*
G1X1595Y2677D1*
G1X22875Y16530D2*
G1X23485Y17140D1*
G1X26010Y17140D1*
G1X27665Y18795D1*
G1X31800Y18795D1*
G1X32070Y18525D1*
G1X32070Y12635D1*
G1X32335Y12370D1*
G1X22206Y18720D2*
G1X22560Y18720D1*
G1X23395Y19555D1*
G1X24615Y19555D1*
G1X24870Y19810D1*
G1X36030Y19810D1*
G1X36110Y19730D1*
G1X36545Y19730D1*
G1X36665Y19850D1*
G1X36665Y20090D1*
G1X36495Y20260D1*
G1X35545Y20260D1*
G1X35310Y20495D1*
G1X35115Y20495D1*
G1X34955Y20335D1*
G1X34485Y20335D1*
G1X34385Y20435D1*
G1X34240Y20435D1*
G1X34240Y20605D1*
G1X27850Y2040D2*
G1X27507Y2382D1*
G1X26500Y2382D1*
G1X26417Y2300D1*
G1X24035Y2300D1*
G1X23715Y1980D1*
G1X23715Y1700D1*
G1X23475Y1460D1*
G1X26650Y4824D2*
G1X26650Y8065D1*
G1X26330Y8385D1*
G1X23565Y8385D1*
G1X23245Y8705D1*
G1X23245Y11220D1*
G1X23220Y15525D2*
G1X23830Y14915D1*
G1X25210Y14915D1*
G1X26195Y15900D1*
G1X26760Y15900D1*
G1X27545Y15115D1*
G1X28465Y15115D1*
G1X40660Y10800D2*
G1X39950Y11510D1*
G1X39950Y11610D1*
G1X39595Y11965D1*
G1X30165Y18255D2*
G1X30660Y17760D1*
G1X30660Y12905D1*
G1X30340Y12585D1*
G1X30100Y12585D1*
G1X29780Y12265D1*
G1X29780Y9640D1*
G1X25565Y13167D2*
G1X25565Y14255D1*
G1X26695Y15385D1*
G1X26695Y15585D1*
G1X32350Y18115D2*
G1X32805Y18115D1*
G1X33125Y17795D1*
G1X33125Y11815D1*
G1X32445Y11135D1*
G1X32445Y10587D1*
G1X35955Y14060D2*
G1X35955Y10496D1*
G1X35429Y9970D1*
G1X39490Y9705D2*
G1X39890Y9705D1*
G1X40050Y9545D1*
G1X40050Y3210D1*
G1X25870Y7000D2*
G1X25870Y6835D1*
G1X26020Y6685D1*
G1X26020Y5995D1*
G1X25827Y5802D1*
G1X25827Y3510D1*
G1X26088Y3249D1*
G1X27914Y3249D1*
G1X40920Y4710D2*
G1X43075Y4710D1*
G1X43395Y5030D1*
G1X43395Y11435D1*
G1X43455Y11495D1*
G1X43455Y13895D1*
G1X44710Y15150D1*
G1X20645Y3070D2*
G1X20645Y705D1*
G1X20325Y385D1*
G1X5987Y385D1*
G1X3997Y2375D1*
G1X3997Y14960D1*
G1X2257Y16700D1*
G1X-1000Y16700D1*
G1X44710Y14150D2*
G1X43945Y13385D1*
G1X43945Y7466D1*
G1X43649Y7170D1*
G1X44710Y11150D2*
G1X44110Y10550D1*
G1X44110Y6740D1*
G1X44025Y6655D1*
G1X44025Y6420D1*
G1X31170Y5415D2*
G1X30765Y5820D1*
G1X28510Y5820D1*
G1X28190Y6140D1*
G1X28190Y8085D1*
G1X47210Y26860D2*
G1X47610Y26460D1*
G1X47610Y17735D1*
G1X46440Y16565D1*
G1X46440Y-1840D1*
G1X46760Y-2160D1*
G1X47390Y-2160D1*
G1X47610Y-2380D1*
G1X47610Y-3160D1*
G1X47210Y-3560D1*
G1X44260Y5670D2*
G1X44260Y7700D1*
G1X44710Y8150D1*
G1X22800Y8335D2*
G1X22800Y6270D1*
G1X23120Y5950D1*
G1X25400Y5950D1*
G1X25627Y5722D1*
G1X25627Y3337D1*
G1X26040Y2925D1*
G1X28195Y2925D1*
G1X28235Y2965D1*
G1X28235Y3715D1*
G1X27914Y4036D1*
G1X15575Y3665D2*
G1X16005Y3665D1*
G1X18100Y5760D1*
G1X18300Y5760D1*
G1X20685Y8145D1*
G1X20685Y8437D1*
G1X21035Y10735D2*
G1X20330Y10735D1*
G1X20010Y10415D1*
G1X20010Y9880D1*
G1X20180Y9710D1*
G1X21880Y9710D1*
G1X22200Y9390D1*
G1X22200Y5820D1*
G1X22520Y5500D1*
G1X25105Y5500D1*
G1X25425Y5180D1*
G1X25425Y3095D1*
G1X25745Y2775D1*
G1X29350Y2775D1*
G1X30700Y4125D1*
G1X36665Y21332D2*
G1X36460Y21332D1*
G1X36458Y21330D1*
G1X30695Y21330D1*
G1X29630Y20265D1*
G1X23875Y20265D1*
G1X23830Y20310D1*
G1X15535Y20310D1*
G1X15270Y20575D1*
G1X21060Y12036D2*
G1X21491Y11605D1*
G1X23210Y11605D1*
G1X23480Y11335D1*
G1X23480Y8855D1*
G1X23800Y8535D1*
G1X26930Y8535D1*
G1X27250Y8215D1*
G1X27250Y4680D1*
G1X27570Y4360D1*
G1X28377Y4360D1*
G1X28701Y4036D1*
G1X27330Y14425D2*
G1X26270Y14425D1*
G1X25950Y14105D1*
G1X25950Y13200D1*
G1X25680Y12930D1*
G1X25445Y12930D1*
G1X25225Y13150D1*
G1X25225Y14140D1*
G1X24905Y14460D1*
G1X23630Y14460D1*
G1X35655Y4210D2*
G1X36340Y4895D1*
G1X36340Y12090D1*
G1X37775Y13525D1*
G1X37775Y17055D1*
G1X37150Y17680D1*
G1X37150Y20600D1*
G1X36830Y20920D1*
G1X33865Y20920D1*
G1X18550Y17795D2*
G1X18200Y18145D1*
G1X15517Y18145D1*
G1X15455Y18207D1*
G1X14610Y18207D1*
G1X14410Y18407D1*
G1X14250Y18407D1*
G1X14050Y18207D1*
G1X12285Y18207D1*
G1X12157Y18080D1*
G1X11992Y18080D1*
G1X11695Y17782D1*
G1X9917Y17782D1*
G1X8945Y16810D1*
G1X8945Y3660D1*
G1X10372Y2232D1*
G1X11557Y2232D1*
G1X12050Y1740D1*
G1X24000Y9615D2*
G1X24250Y9615D1*
G1X24915Y8950D1*
G1X26010Y8950D1*
G1X26330Y9270D1*
G1X26330Y9710D1*
G1X26475Y9855D1*
G1X26475Y14190D1*
G1X16910Y12205D2*
G1X16640Y11935D1*
G1X16640Y6980D1*
G1X16320Y6660D1*
G1X16040Y6660D1*
G1X22875Y13489D2*
G1X22754Y13610D1*
G1X18970Y13610D1*
G1X18650Y13930D1*
G1X18650Y16585D1*
G1X18765Y16700D1*
G1X18765Y16937D1*
G1X11215Y15635D2*
G1X11215Y9880D1*
G1X10610Y9275D1*
G1X10610Y6195D1*
G1X10287Y5873D1*
G1X12955Y15390D2*
G1X12955Y7815D1*
G1X12915Y7775D1*
G1X12915Y7540D1*
G1X18650Y3965D2*
G1X19220Y3395D1*
G1X19220Y993D1*
G1X18912Y685D1*
G1X13890Y685D1*
G1X13570Y1005D1*
G1X13570Y5550D1*
G1X13335Y5785D1*
G1X13335Y12415D1*
G1X13980Y13060D1*
G1X17640Y13060D1*
G1X17890Y13310D1*
G1X20950Y13310D1*
G1X21270Y12990D1*
G1X21270Y12640D1*
G1X21060Y12430D1*
G1X44645Y2815D2*
G1X44645Y4800D1*
G1X45110Y5265D1*
G1X45110Y13980D1*
G1X45490Y14360D1*
G1X45490Y18700D1*
G1X36990Y10220D2*
G1X39075Y12305D1*
G1X39985Y12305D1*
G1X40580Y12900D1*
G1X41000Y12900D1*
G1X41460Y13360D1*
G1X42110Y13360D1*
G1X42650Y13900D1*
G1X30375Y13868D2*
G1X30073Y14170D1*
G1X29535Y14170D1*
G1X29215Y13850D1*
G1X29215Y6594D1*
G1X28680Y6059D1*
G1X15875Y14425D2*
G1X18625Y17175D1*
G1X18880Y17175D1*
G1X19000Y17055D1*
G1X19000Y15930D1*
G1X18800Y15730D1*
G1X18800Y14065D1*
G1X19020Y13845D1*
G1X22871Y13845D1*
G1X22010Y840D2*
G1X21405Y235D1*
G1X-260Y235D1*
G1X-580Y555D1*
G1X-580Y4180D1*
G1X-1000Y4600D1*
G1X20245Y9980D2*
G1X20445Y10180D1*
G1X22715Y10180D1*
G1X23035Y9860D1*
G1X23035Y6735D1*
G1X23355Y6415D1*
G1X25435Y6415D1*
G1X25550Y6530D1*
G1X25785Y6530D1*
G1X14685Y12350D2*
G1X13605Y12350D1*
G1X13485Y12230D1*
G1X13485Y6555D1*
G1X14655Y5385D1*
G1X14655Y3913D1*
G1X27635Y10935D2*
G1X27635Y11170D1*
G1X27605Y11200D1*
G1X27605Y11850D1*
G1X28360Y12605D1*
G1X13185Y1070D2*
G1X13420Y1305D1*
G1X13420Y5050D1*
G1X13100Y5370D1*
G1X12390Y5370D1*
G1X12057Y5702D1*
G1X12057Y7825D1*
G1X11992Y7890D1*
G1X11992Y15617D1*
G1X11310Y16300D1*
G1X11310Y16570D1*
G1X11000Y16880D1*
G1X19985Y12170D2*
G1X19455Y11640D1*
G1X17470Y11640D1*
G1X17150Y11320D1*
G1X17150Y7030D1*
G1X16460Y6340D1*
G1X16020Y6340D1*
G1X17829Y22275D2*
G1X18495Y22275D1*
G1X18670Y22450D1*
G1X34100Y22450D1*
G1X34930Y18340D2*
G1X35465Y17805D1*
G1X35465Y11527D1*
G1X34753Y10815D1*
G1X23630Y13990D2*
G1X24275Y13990D1*
G1X24595Y13670D1*
G1X24595Y13035D1*
G1X24475Y12915D1*
G1X22845Y12915D1*
G1X22575Y12645D1*
G1X22575Y12565D1*
G1X22455Y12445D1*
G1X22115Y12445D1*
G1X21100Y13460D1*
G1X17700Y13460D1*
G1X17480Y13240D1*
G1X15995Y13240D1*
G1X15455Y13780D1*
G1X15455Y17137D1*
G1X14340Y18252D1*
G1X14315Y18252D1*
G1X14120Y18057D1*
G1X12405Y18057D1*
G1X11715Y17367D1*
G1X10927Y17367D1*
G1X10657Y17097D1*
G1X10657Y11083D1*
G1X10287Y10712D1*
G1X10287Y6660D1*
G1X39485Y1210D2*
G1X39720Y1445D1*
G1X39720Y3475D1*
G1X39720Y3960D1*
G1X34245Y6366D2*
G1X34245Y2085D1*
G1X29780Y15114D2*
G1X29780Y17910D1*
G1X29460Y18230D1*
G1X27750Y18230D1*
G1X42465Y4945D2*
G1X42465Y11145D1*
G1X43300Y11980D1*
G1X43300Y15260D1*
G1X43120Y15440D1*
G1X43120Y15720D1*
G1X43305Y15905D1*
G1X43305Y18515D1*
G1X45490Y20700D1*
G1X15575Y9240D2*
G1X16045Y8770D1*
G1X16045Y7770D1*
G1X16150Y7665D1*
G1X16150Y7460D1*
G1X37610Y8720D2*
G1X37610Y9240D1*
G1X36755Y10095D1*
G1X36755Y11305D1*
G1X38375Y12925D1*
G1X38375Y21895D1*
G1X38055Y22215D1*
G1X33690Y22215D1*
G1X33605Y22300D1*
G1X27570Y22300D1*
G1X27250Y21980D1*
G1X27250Y20885D1*
G1X26930Y20565D1*
G1X24420Y20565D1*
G1X24175Y20810D1*
G1X16686Y20810D1*
G1X16451Y20575D1*
G1X41145Y7420D2*
G1X40555Y6830D1*
G1X40555Y4460D1*
G1X39720Y6670D2*
G1X39402Y6670D1*
G1X39250Y6822D1*
G1X39250Y9470D1*
G1X39790Y9470D1*
G1X30426Y7135D2*
G1X31600Y8309D1*
G1X31600Y18300D1*
G1X31654Y18355D1*
G1X31654Y18560D1*
G1X35225Y10580D2*
G1X35615Y10970D1*
G1X35615Y18725D1*
G1X20305Y12179D2*
G1X20305Y12340D1*
G1X20145Y12500D1*
G1X19570Y12500D1*
G1X19250Y12180D1*
G1X17580Y12180D1*
G1X17320Y12440D1*
G1X15485Y12440D1*
G1X15165Y12120D1*
G1X15165Y9070D1*
G1X15765Y8470D1*
G1X15765Y6905D1*
G1X15285Y6425D1*
G1X15285Y5905D1*
G1X15140Y5760D1*
G1X15140Y3280D1*
G1X15500Y2920D1*
G1X15500Y2520D1*
G1X15800Y2220D1*
G1X39485Y710D2*
G1X38865Y1330D1*
G1X38865Y3350D1*
G1X38865Y7170D1*
G1X27460Y16580D2*
G1X28430Y17550D1*
G1X14330Y17930D2*
G1X12290Y15890D1*
G1X12290Y8075D1*
G1X29780Y13935D2*
G1X29545Y13700D1*
G1X29545Y6955D1*
G1X29865Y6635D1*
G1X31485Y6635D1*
G1X31805Y6315D1*
G1X31805Y1490D1*
G1X11000Y16420D2*
G1X11000Y16250D1*
G1X11840Y15410D1*
G1X11840Y7425D1*
G1X11075Y6660D1*
G1X34540Y2975D2*
G1X34540Y6035D1*
G1X34755Y6250D1*
G1X34755Y6485D1*
G1X34755Y8670D2*
G1X34515Y8910D1*
G1X34515Y17465D1*
G1X34520Y17470D1*
G1X34520Y17705D1*
G1X34147Y20200D2*
G1X30475Y20200D1*
G1X21340Y15285D2*
G1X21080Y15545D1*
G1X21080Y17610D1*
G1X21400Y17930D1*
G1X25645Y17930D1*
G1X22865Y11220D2*
G1X21500Y11220D1*
G1X20785Y11935D1*
G1X20785Y12600D1*
G1X20660Y12725D1*
G1X20548Y12725D1*
G1X23620Y418D2*
G1X22620Y1418D1*
G1X22620Y4465D1*
G1X9180Y15910D2*
G1X9180Y5650D1*
G1X9265Y5565D1*
G1X9265Y5330D1*
G1X5330Y10360D2*
G1X4390Y11300D1*
G1X4390Y16000D1*
G1X1120Y19270D1*
G1X7980Y15180D2*
G54D196*
G1X7980Y10665D1*
G1X-2250Y9767D2*
G1X-2005Y9767D1*
G1X-560Y11212D1*
G1X-560Y13230D1*
G1X300Y14090D1*
G54D211*
G1X32293Y8225D3*
G1X7980Y15180D3*
G1X7980Y10665D3*
G1X7980Y9420D3*
G1X20565Y9945D3*
G1X25480Y9420D3*
G1X26650Y9035D3*
G1X27085Y13100D3*
G1X28075Y11875D3*
G1X10025Y9655D3*
G1X25676Y362D3*
G1X35525Y8285D3*
G1X34755Y9765D3*
G1X41592Y12883D3*
G1X27420Y13805D3*
G1X26765Y13116D3*
G1X44955Y23390D3*
G1X17070Y1810D3*
G1X23005Y1480D3*
G1X18210Y22040D3*
G1X45140Y-2745D3*
G1X10980Y11040D3*
G1X34830Y13868D3*
G1X30300Y14400D3*
G1X39922Y10742D3*
G1X20546Y12405D3*
G1X22820Y12530D3*
G1X24905Y10600D3*
G1X19780Y16765D3*
G1X19039Y14160D3*
G1X1855Y16222D3*
G1X41445Y10160D3*
G1X24420Y10600D3*
G1X28105Y11125D3*
G1X17042Y21555D3*
G1X25175Y21175D3*
G1X2540Y23330D3*
G1X-2845Y11850D3*
G1X18215Y10950D3*
G1X16648Y22260D3*
G1X23215Y18165D3*
G1X27855Y16515D3*
G1X32887Y15925D3*
G1X39380Y15717D3*
G1X38865Y11685D3*
G1X26695Y16615D3*
G1X28682Y13775D3*
G1X23877Y13755D3*
G1X24185Y11910D3*
G1X23715Y9275D3*
G1X27890Y6055D3*
G1X8215Y9185D3*
G1X31420Y5982D3*
G1X37300Y11490D3*
G1X35955Y14380D3*
G1X32830Y13720D3*
G1X32595Y11900D3*
G1X5132Y13005D3*
G1X24200Y8805D3*
G1X27840Y11638D3*
G1X31170Y1500D3*
G1X43030Y12130D3*
G1X36915Y20015D3*
G1X17495Y20065D3*
G1X22595Y19105D3*
G1X32650Y8370D3*
G1X35212Y18575D3*
G1X21580Y14513D3*
G1X22245Y200D3*
G1X-780Y9950D3*
G1X22510Y14100D3*
G1X3267Y20110D3*
G1X30335Y9270D3*
G1X245Y6460D3*
G1X3230Y21545D3*
G1X3708Y19575D3*
G1X20355Y2590D3*
G1X23175Y3700D3*
G1X14705Y2942D3*
G1X26530Y3780D3*
G1X37836Y8485D3*
G1X32293Y7400D3*
G1X22500Y8805D3*
G1X26735Y9925D3*
G1X26849Y12622D3*
G1X24830Y14130D3*
G1X24415Y21495D3*
G1X6950Y7799D3*
G1X24270Y12380D3*
G1X25220Y9185D3*
G1X36830Y13460D3*
G1X32830Y14895D3*
G1X32765Y10580D3*
G1X3940Y17725D3*
G1X23610Y19815D3*
G1X32345Y7900D3*
G1X33360Y17650D3*
G1X11550Y6195D3*
G1X23580Y6995D3*
G1X35225Y12370D3*
G1X38010Y15580D3*
G1X30335Y11900D3*
G1X40900Y13240D3*
G1X28465Y15900D3*
G1X23335Y16200D3*
G1X19875Y18610D3*
G1X36725Y7900D3*
G1X38665Y12605D3*
G1X38665Y18825D3*
G1X24740Y12627D3*
G1X23160Y12680D3*
G1X12908Y21551D3*
G1X13320Y21790D3*
G1X39485Y8485D3*
G1X9640Y15672D3*
G1X22128Y14202D3*
G1X30100Y9665D3*
G1X30945Y18170D3*
G1X29565Y21440D3*
G1X14925Y20649D3*
G1X13696Y21551D3*
G1X18455Y6405D3*
G1X15467Y21555D3*
G1X30475Y20735D3*
G1X31835Y17885D3*
G1X33365Y6216D3*
G1X29510Y18490D3*
G1X30426Y7480D3*
G1X37640Y18590D3*
G1X20300Y14800D3*
G1X20358Y14202D3*
G1X37890Y18345D3*
G1X36510Y13460D3*
G1X40130Y19470D3*
G1X20720Y14100D3*
G1X38140Y18030D3*
G1X22280Y22195D3*
G1X31064Y16752D3*
G1X26865Y21205D3*
G1X25690Y19575D3*
G1X16845Y20575D3*
G1X36430Y19965D3*
G1X23375Y20050D3*
G1X19870Y21790D3*
G1X24360Y13150D3*
G1X22340Y12680D3*
G1X19335Y8350D3*
G1X14180Y8675D3*
G1X14180Y9805D3*
G1X19150Y14845D3*
G1X18930Y18845D3*
G1X19035Y12415D3*
G1X38155Y3350D3*
G1X34755Y11360D3*
G1X22200Y12195D3*
G1X35655Y9720D3*
G1X22871Y16210D3*
G1X16260Y17410D3*
G1X30935Y3320D3*
G1X15520Y4680D3*
G1X15664Y20575D3*
G1X33865Y20435D3*
G1X33865Y18585D3*
G1X32765Y9760D3*
G1X17050Y1440D3*
G1X27240Y1830D3*
G1X12715Y12840D3*
G1X13345Y16605D3*
G1X14600Y19095D3*
G1X35835Y19545D3*
G1X30425Y13485D3*
G1X17855Y11235D3*
G1X37590Y10295D3*
G1X28682Y8107D3*
G1X17239Y20575D3*
G1X19165Y19745D3*
G1X22875Y16530D3*
G1X32335Y12370D3*
G1X29795Y5585D3*
G1X19490Y17000D3*
G1X22206Y18720D3*
G1X34240Y20605D3*
G1X35225Y13940D3*
G1X27850Y2040D3*
G1X23475Y1460D3*
G1X39720Y960D3*
G1X4745Y18555D3*
G1X44955Y26350D3*
G1X26650Y4824D3*
G1X23245Y11220D3*
G1X23130Y11910D3*
G1X40660Y10800D3*
G1X15074Y21555D3*
G1X29360Y20500D3*
G1X30165Y18255D3*
G1X29780Y9640D3*
G1X26695Y15585D3*
G1X30260Y15585D3*
G1X16058Y20575D3*
G1X32350Y21095D3*
G1X32350Y18115D3*
G1X32445Y10587D3*
G1X35955Y14060D3*
G1X35429Y9970D3*
G1X22855Y4700D3*
G1X26620Y4125D3*
G1X29095Y16970D3*
G1X29125Y20970D3*
G1X40665Y11560D3*
G1X43710Y10930D3*
G1X30425Y15115D3*
G1X23865Y14225D3*
G1X1350Y19985D3*
G1X39490Y9705D3*
G1X40050Y3210D3*
G1X8645Y2690D3*
G1X33735Y3960D3*
G1X25870Y7000D3*
G1X24615Y18870D3*
G1X18915Y17560D3*
G1X32830Y10940D3*
G1X30165Y10940D3*
G1X40920Y4710D3*
G1X34920Y960D3*
G1X20645Y3070D3*
G1X43649Y7170D3*
G1X18028Y6078D3*
G1X18030Y5290D3*
G1X44025Y6420D3*
G1X34990Y9245D3*
G1X31170Y5415D3*
G1X28190Y8085D3*
G1X18030Y6870D3*
G1X44260Y5670D3*
G1X28660Y6890D3*
G1X26415Y6890D3*
G1X24875Y20800D3*
G1X40320Y9510D3*
G1X37135Y1710D3*
G1X34690Y710D3*
G1X-3570Y18700D3*
G1X23950Y11155D3*
G1X22800Y8335D3*
G1X15575Y3665D3*
G1X20685Y8437D3*
G1X21035Y10735D3*
G1X30700Y4125D3*
G1X37605Y7645D3*
G1X29780Y12840D3*
G1X42910Y10530D3*
G1X33835Y6130D3*
G1X37370Y6130D3*
G1X36665Y21332D3*
G1X15270Y20575D3*
G1X21060Y12036D3*
G1X4090Y20255D3*
G1X43649Y6670D3*
G1X27900Y9405D3*
G1X27330Y14425D3*
G1X23630Y14460D3*
G1X43307Y115D3*
G1X35420Y4710D3*
G1X35655Y4210D3*
G1X33865Y20920D3*
G1X18550Y17795D3*
G1X12050Y1740D3*
G1X39970Y10070D3*
G1X22500Y9475D3*
G1X22831Y15290D3*
G1X19385Y15585D3*
G1X13720Y12115D3*
G1X21035Y12775D3*
G1X32765Y9390D3*
G1X23950Y10450D3*
G1X16050Y13760D3*
G1X870Y18432D3*
G1X24000Y9615D3*
G1X26475Y14190D3*
G1X29905Y13295D3*
G1X16910Y12205D3*
G1X16040Y6660D3*
G1X21160Y2990D3*
G1X13070Y2325D3*
G1X13105Y20545D3*
G1X43050Y11370D3*
G1X18910Y3160D3*
G1X22875Y13489D3*
G1X18765Y16937D3*
G1X11215Y15635D3*
G1X2035Y21780D3*
G1X43700Y12530D3*
G1X15820Y3920D3*
G1X34990Y11830D3*
G1X22090Y2800D3*
G1X12955Y15390D3*
G1X12915Y7540D3*
G1X36890Y16835D3*
G1X41820Y18580D3*
G1X26110Y3800D3*
G1X22855Y3965D3*
G1X18650Y3965D3*
G1X21060Y12430D3*
G1X27165Y15890D3*
G1X23100Y15970D3*
G1X8934Y17870D3*
G1X44645Y2815D3*
G1X18208Y2928D3*
G1X30100Y17315D3*
G1X23450Y18400D3*
G1X36990Y10220D3*
G1X42650Y13900D3*
G1X30375Y13868D3*
G1X28680Y6059D3*
G1X18030Y4970D3*
G1X15875Y14425D3*
G1X22871Y13845D3*
G1X22010Y840D3*
G1X28680Y12370D3*
G1X35225Y9470D3*
G1X32295Y9010D3*
G1X14900Y6390D3*
G1X26710Y2140D3*
G1X28280Y1245D3*
G1X39485Y10220D3*
G1X41155Y6170D3*
G1X41155Y460D3*
G1X43875Y6920D3*
G1X20245Y9980D3*
G1X25785Y6530D3*
G1X30328Y7800D3*
G1X24285Y9185D3*
G1X35910Y7410D3*
G1X34755Y12135D3*
G1X27890Y7620D3*
G1X26180Y7620D3*
G1X17855Y11930D3*
G1X14685Y12350D3*
G1X14655Y3913D3*
G1X27635Y10935D3*
G1X28360Y12605D3*
G1X30412Y13165D3*
G1X32830Y13165D3*
G1X35155Y1210D3*
G1X35655Y2210D3*
G1X32885Y8135D3*
G1X30180Y6250D3*
G1X21255Y6295D3*
G1X15400Y10680D3*
G1X20785Y11479D3*
G1X13185Y1070D3*
G1X11000Y16880D3*
G1X41930Y13965D3*
G1X1360Y14430D3*
G1X12715Y13160D3*
G1X34985Y16385D3*
G1X18030Y4110D3*
G1X19985Y12170D3*
G1X16020Y6340D3*
G1X42900Y14595D3*
G1X17829Y22275D3*
G1X34100Y22450D3*
G1X34930Y18340D3*
G1X34753Y10815D3*
G1X41930Y9500D3*
G1X18030Y4500D3*
G1X23630Y13990D3*
G1X29905Y13615D3*
G1X25870Y16557D3*
G1X25725Y18635D3*
G1X23681Y18635D3*
G1X18030Y3710D3*
G1X39485Y1210D3*
G1X39720Y3960D3*
G1X40890Y12570D3*
G1X3493Y20345D3*
G1X34245Y6366D3*
G1X34245Y2085D3*
G1X24105Y1905D3*
G1X10980Y1745D3*
G1X15861Y22025D3*
G1X18880Y2621D3*
G1X29780Y15114D3*
G1X27750Y18230D3*
G1X23690Y18165D3*
G1X650Y18720D3*
G1X42465Y4945D3*
G1X18020Y6470D3*
G1X5830Y16325D3*
G1X20920Y8765D3*
G1X15575Y9240D3*
G1X16150Y7460D3*
G1X28680Y8950D3*
G1X30257Y8950D3*
G1X37610Y8720D3*
G1X16451Y20575D3*
G1X6320Y19830D3*
G1X41145Y7420D3*
G1X40555Y4460D3*
G1X39720Y6670D3*
G1X39790Y9470D3*
G1X15575Y11215D3*
G1X17615Y14440D3*
G1X39485Y6920D3*
G1X39485Y3710D3*
G1X21965Y8335D3*
G1X30426Y7135D3*
G1X31654Y18560D3*
G1X41700Y-945D3*
G1X28655Y14327D3*
G1X35225Y10580D3*
G1X35615Y18725D3*
G1X26630Y21554D3*
G1X17652Y20565D3*
G1X20305Y12179D3*
G1X15800Y2220D3*
G1X36990Y9290D3*
G1X37065Y13740D3*
G1X27305Y14845D3*
G1X39485Y710D3*
G1X38865Y7170D3*
G1X27460Y16580D3*
G1X28430Y17550D3*
G1X34990Y16905D3*
G1X36985Y8970D3*
G1X14365Y22265D3*
G1X14330Y17930D3*
G1X12290Y8075D3*
G1X21155Y4435D3*
G1X28660Y6530D3*
G1X29780Y13935D3*
G1X31805Y1490D3*
G1X21170Y21725D3*
G1X11000Y16420D3*
G1X34540Y2975D3*
G1X34755Y6485D3*
G1X34755Y8670D3*
G1X34520Y17705D3*
G1X34147Y20200D3*
G1X30475Y20200D3*
G1X29780Y14610D3*
G1X13724Y11430D3*
G1X17935Y14395D3*
G1X20000Y12770D3*
G1X17855Y10915D3*
G1X21340Y15285D3*
G1X25645Y17930D3*
G1X23495Y11910D3*
G1X16050Y7070D3*
G1X23270Y7465D3*
G1X26325Y4910D3*
G1X36985Y5185D3*
G1X22865Y11220D3*
G1X20548Y12725D3*
G1X15540Y920D3*
G1X21105Y2090D3*
G1X32970Y1137D3*
G1X34775Y4970D3*
G1X26325Y5380D3*
G1X23580Y6650D3*
G1X47616Y5420D3*
G1X20625Y5670D3*
G1X23090Y4946D3*
G1X22620Y4465D3*
G1X20680Y5200D3*
G1X40330Y13950D3*
G1X13724Y10930D3*
G1X18800Y13055D3*
G1X20525Y9310D3*
G1X12717Y13682D3*
G1X165Y17804D3*
G1X41210Y19500D3*
G1X9180Y15910D3*
G1X9265Y5330D3*
G1X20851Y6170D3*
G1X41315Y12540D3*
G54D226*
G1X6370Y11650D3*
G1X24800Y7400D3*
G1X24800Y15900D3*
G1X39737Y21492D3*
G1X29510Y1402D3*
G54D227*
G1X30254Y5469D3*
G1X30254Y16492D3*
G54D230*
G1X31930Y21880D3*
G1X30930Y21880D3*
G1X29930Y21880D3*
G1X28930Y21880D3*
G1X27930Y21880D3*
G1X23620Y418D3*
G1X24620Y418D3*
G1X25620Y418D3*
G1X25630Y22881D3*
G1X24630Y22881D3*
G1X23630Y22881D3*
G1X48090Y-4050D3*
G1X48090Y-3050D3*
G1X48090Y-2050D3*
G1X48090Y25350D3*
G1X48090Y26350D3*
G1X48090Y27350D3*
G1X-3580Y-50D3*
G1X-3580Y-1050D3*
G1X-3580Y-2050D3*
G1X-3580Y25350D3*
G1X-3580Y24350D3*
G1X-3580Y23350D3*
G1X-1000Y16700D3*
G1X-1000Y17700D3*
G1X-1000Y18700D3*
G1X-1000Y4600D3*
G1X-1000Y5600D3*
G1X-1000Y6600D3*
G1X45490Y20700D3*
G1X45490Y19700D3*
G1X45490Y18700D3*
G1X45500Y4600D3*
G1X45500Y3600D3*
G1X45500Y2600D3*
G1X14210Y7600D3*
G1X15194Y7600D3*
G54D232*
G1X27940Y8890D3*
G1X14020Y3670D3*
G1X13020Y4670D3*
G1X13020Y3670D3*
G1X12020Y4670D3*
G1X12020Y3670D3*
G1X11020Y4670D3*
G1X11020Y3670D3*
G1X10020Y4670D3*
G1X10020Y3670D3*
G1X12860Y19610D3*
G1X13860Y18610D3*
G1X13860Y19610D3*
G1X14860Y18610D3*
G1X14860Y19610D3*
G1X15860Y18610D3*
G1X15860Y19610D3*
G1X16860Y18610D3*
G1X16860Y19610D3*
G1X12530Y6990D3*
G1X47710Y8150D3*
G1X47710Y9150D3*
G1X47710Y10150D3*
G1X47710Y11150D3*
G1X47710Y12150D3*
G1X47710Y13150D3*
G1X47710Y14150D3*
G1X47710Y15150D3*
G1X47710Y16150D3*
G1X44710Y16150D3*
G1X44710Y15150D3*
G1X44710Y14150D3*
G1X44710Y13150D3*
G1X44710Y12150D3*
G1X44710Y11150D3*
G1X44710Y10150D3*
G1X44710Y9150D3*
G1X44710Y8150D3*
G1X44710Y7150D3*
G1X5740Y13880D3*
G1X18240Y12910D3*
G1X6510Y2910D3*
G1X6510Y1910D3*
G1X6510Y910D3*
G1X25180Y1270D3*
G1X47210Y-2560D3*
G1X-2740Y-1560D3*
G1X24180Y22030D3*
G1X47210Y26860D3*
G1X-2740Y23860D3*
G54D233*
G1X27940Y9890D3*
G1X14020Y4670D3*
G1X12860Y18610D3*
G1X12530Y5990D3*
G1X47710Y7150D3*
G1X6740Y13880D3*
G1X18240Y13910D3*
G1X6510Y3910D3*
G1X24180Y1270D3*
G1X47210Y-3560D3*
G1X-2740Y-560D3*
G1X25180Y22030D3*
G1X47210Y25860D3*
G1X-2740Y24860D3*
G54D241*
G1X300Y14090D3*
G1X-448Y15822D3*
G1X733Y15232D3*
G1X23167Y2190D3*
G1X26073Y1521D3*
G1X26083Y21110D3*
G1X23177Y21779D3*
G1X46318Y-4503D3*
G1X46988Y-1597D3*
G1X46318Y24897D3*
G1X46988Y27803D3*
G1X-1808Y403D3*
G1X-2478Y-2503D3*
G1X-1808Y25803D3*
G1X-2478Y22897D3*
G54D244*
G1X-2416Y13696D3*
G1X-2416Y15271D3*
G54D245*
G1X8257Y21640D3*
G1X9045Y21640D3*
G1X7470Y22427D3*
G1X9045Y22427D3*
G1X8257Y22427D3*
G1X7470Y21640D3*
G1X19795Y8198D3*
G1X19795Y14891D3*
G54D249*
G1X-1250Y20770D3*
G1X-1250Y2530D3*
G1X45740Y22770D3*
G1X45750Y530D3*
G54D250*
G1X32930Y21880D3*
G54D251*
G1X24275Y4200D3*
G1X21126Y19160D3*
G54D256*
G1X6368Y22034D3*
G1X10147Y22034D3*
G54D257*
G1X32590Y5900D3*
G1X32590Y17400D3*
G54D260*
G1X-2250Y12228D3*
G1X-2250Y11736D3*
G1X-2250Y11244D3*
G1X-2250Y10751D3*
G1X-2250Y10259D3*
G1X-2250Y9767D3*
G1X-2250Y9275D3*
G1X-2250Y8783D3*
G1X-2250Y8291D3*
G1X-2250Y7799D3*
G1X-2250Y7307D3*
G54D261*
G1X-2250Y12720D3*
G54D262*
G1X10287Y6660D3*
G1X10287Y5873D3*
G1X11075Y6660D3*
G1X11075Y5873D3*
G1X9500Y5873D3*
G1X27914Y4036D3*
G1X28701Y4036D3*
G1X27914Y4824D3*
G1X28701Y4824D3*
G1X28701Y3249D3*
G54D263*
G1X9500Y6660D3*
G1X27914Y3249D3*
G54D264*
G1X5330Y10360D3*
G1X1120Y19270D3*
G1X25760Y11640D3*
G1X12860Y19050D3*
G1X20640Y4700D3*
G1X21152Y8390D3*
G1X17160Y6030D3*
G1X17210Y5690D3*
G1X15522Y5098D3*
G1X10005Y820D3*
G1X12330Y2950D3*
G1X18740Y980D3*
G1X18931Y1751D3*
G1X18280Y1080D3*
G1X19140Y4460D3*
G1X33660Y990D3*
G1X39595Y11965D3*
G1X6820Y18335D3*
G1X1465Y23217D3*
G1X1470Y22370D3*
G1X3355Y14025D3*
G1X3360Y13590D3*
G1X37585Y710D3*
G1X17260Y13610D3*
G1X17240Y13970D3*
G1X37542Y3457D3*
G1X35132Y22535D3*
G1X5830Y19832D3*
G1X2327Y20203D3*
G1X2347Y16255D3*
G1X6417Y14797D3*
G1X41792Y7420D3*
G1X20757Y6552D3*
G1X27430Y18020D3*
G1X7507Y9440D3*
G1X14917Y16700D3*
G1X3367Y3660D3*
G1X-1305Y11885D3*
G1X1850Y14872D3*
G1X20400Y21825D3*
G1X45520Y12525D3*
G1X36332Y20622D3*
G1X35240Y20215D3*
G1X22340Y16835D3*
G1X6852Y6460D3*
G1X6812Y6960D3*
G1X18140Y18962D3*
G1X17607Y15212D3*
G1X17110Y15220D3*
G1X21316Y16819D3*
G1X18070Y15210D3*
G1X42437Y-1022D3*
G1X27620Y15945D3*
G1X23787Y12545D3*
G1X25975Y9390D3*
G1X21147Y7230D3*
G1X41780Y5670D3*
G1X37570Y4680D3*
G1X37592Y1977D3*
G1X33690Y612D3*
G1X32832Y16395D3*
G1X34560Y20685D3*
G1X35595Y20645D3*
G1X11602Y9805D3*
G1X11602Y10302D3*
G1X39660Y15975D3*
G1X40515Y15072D3*
G1X39660Y15062D3*
G1X13710Y14610D3*
G1X10797Y10257D3*
G1X10792Y9817D3*
G1X37390Y16265D3*
G1X31427Y1115D3*
G1X37167Y11010D3*
G1X33092Y6442D3*
G1X32610Y1820D3*
G1X37130Y16515D3*
G1X5525Y2352D3*
G1X5515Y1810D3*
G1X5517Y1275D3*
G1X3892Y1087D3*
G1X37890Y19855D3*
G1X15820Y1790D3*
G1X11215Y2950D3*
G1X2862Y1100D3*
G1X3362Y1090D3*
G1X36275Y15560D3*
G1X36275Y14560D3*
G1X43380Y15550D3*
G1X42100Y15485D3*
G1X35227Y14657D3*
G1X39530Y11570D3*
G1X980Y10107D3*
G1X42060Y19765D3*
G1X37865Y21450D3*
G1X1597Y15920D3*
G1X5512Y12667D3*
G1X1205Y3272D3*
G1X14062Y12112D3*
G1X42285Y17760D3*
G1X13265Y14170D3*
G1X9887Y11147D3*
G1X12525Y10917D3*
G1X1537Y17140D3*
G1X25565Y13167D3*
G1X3115Y16905D3*
G1X18360Y11251D3*
G1X30222Y8630D3*
G1X34930Y20655D3*
G1X4620Y18040D3*
G1X2200Y14880D3*
G1X21075Y11252D3*
G1X13590Y15400D3*
G1X13590Y15930D3*
G1X35957Y20642D3*
G1X38080Y9720D3*
G1X30024Y15902D3*
G1X27740Y13800D3*
G1X16915Y9905D3*
G1X12320Y20575D3*
G1X46420Y17997D3*
G1X13950Y11180D3*
G1X20055Y8690D3*
G1X20055Y9475D3*
G1X12505Y21795D3*
G1X270Y8530D3*
G1X45520Y10615D3*
G1X35580Y8720D3*
G1X1595Y2677D3*
G1X-160Y7532D3*
G1X32855Y7407D3*
G1X20880Y3722D3*
G1X902Y2430D3*
G1X25945Y9850D3*
G1X-150Y8567D3*
G1X39457Y13695D3*
G1X26710Y9360D3*
G1X39865Y14485D3*
G1X30682Y6247D3*
G1X40650Y14495D3*
G1X32872Y3320D3*
G1X7507Y8982D3*
G1X25810Y14857D3*
G1X47210Y25177D3*
G1X45455Y13635D3*
G1X21832Y15055D3*
G1X13604Y16839D3*
G1X4010Y18840D3*
G1X11735Y18290D3*
G1X11720Y16780D3*
G1X11675Y16285D3*
G1X11715Y18647D3*
G54D382*
G1X14130Y20535D3*
G1X13792Y11750D3*
G1X21230Y7820D3*
G1X14630Y6755D3*
G1X-2190Y-1050D3*
G1X41742Y10797D3*
G1X16255Y21790D3*
G1X15375Y19775D3*
G1X23220Y15525D3*
G1X28465Y15115D3*
M2*
