*
%LPD*%
%LNRAGOBOT.IN2*%
%FSLAX24Y24*%
%MOIN*%
%AD*%
%ADD53C,0.025000*%
%ADD58C,0.008000*%
%ADD59C,0.015000*%
%ADD196C,0.040000*%
%ADD211C,0.025000*%
%ADD226C,0.175000*%
%ADD227C,0.047200*%
%ADD230C,0.062000*%
%ADD232C,0.058000*%
%ADD233R,0.058000X0.058000*%
%ADD241C,0.086600*%
%ADD244C,0.083000*%
%ADD245C,0.055000*%
%ADD249C,0.100000*%
%ADD250R,0.062000X0.062000*%
%ADD251C,0.177100*%
%ADD256C,0.065000*%
%ADD257C,0.080000*%
%ADD260C,0.040000*%
%ADD261R,0.040000X0.040000*%
%ADD262C,0.042000*%
%ADD263R,0.042000X0.042000*%
%ADD264C,0.025000*%
%ADD382C,0.025000*%
G54D53*
%SRX1Y1I0.0J0.0*%
G1X11515Y18647D2*
G1X11715Y18647D1*
G1X20565Y9945D2*
G54D58*
G1X20835Y10215D1*
G1X25330Y10215D1*
G1X25555Y10440D1*
G1X31350Y10440D1*
G1X31670Y10120D1*
G1X31670Y8847D1*
G1X32293Y8225D1*
G1X3206Y10665D2*
G1X3120Y10751D1*
G1X3206Y10665D1*
G1X7980Y9420D2*
G1X15020Y9420D1*
G1X15815Y10215D1*
G1X20405Y10215D1*
G1X20565Y10055D1*
G1X20565Y9945D1*
G1X41742Y10797D2*
G1X41187Y10797D1*
G1X40887Y10497D1*
G1X40167Y10497D1*
G1X39922Y10742D1*
G1X21230Y7820D2*
G1X21025Y7820D1*
G1X20845Y7640D1*
G1X19040Y7640D1*
G1X18480Y8200D1*
G1X16520Y8200D1*
G1X15075Y6755D1*
G1X14630Y6755D1*
G1X21152Y8390D2*
G1X21331Y8570D1*
G1X26185Y8570D1*
G1X26650Y9035D1*
G1X28075Y11875D2*
G1X28015Y11935D1*
G1X24580Y11935D1*
G1X24320Y11675D1*
G1X22755Y11675D1*
G1X22435Y11995D1*
G1X22435Y12310D1*
G1X22315Y12430D1*
G1X22065Y12430D1*
G1X21745Y12110D1*
G1X21745Y11290D1*
G1X21425Y10970D1*
G1X20475Y10970D1*
G1X19870Y10365D1*
G1X15115Y10365D1*
G1X14320Y9570D1*
G1X10345Y9570D1*
G1X10260Y9655D1*
G1X10025Y9655D1*
G1X48090Y26350D2*
G1X44955Y26350D1*
G1X48090Y26350D2*
G1X44955Y26350D1*
G1X44955Y23390D2*
G1X41945Y20380D1*
G1X39120Y20380D1*
G1X38600Y20900D1*
G1X38600Y21760D1*
G1X37440Y22920D1*
G1X30180Y22920D1*
G1X29720Y22460D1*
G1X25051Y22460D1*
G1X24630Y22881D1*
G1X17070Y1810D2*
G1X17400Y1480D1*
G1X23005Y1480D1*
G1X45140Y-2745D2*
G1X45445Y-3050D1*
G1X48090Y-3050D1*
G1X20546Y12405D2*
G1X20546Y12120D1*
G1X20866Y11800D1*
G1X21175Y11800D1*
G1X21295Y11920D1*
G1X21295Y12595D1*
G1X21615Y12915D1*
G1X22700Y12915D1*
G1X22820Y12795D1*
G1X22820Y12530D1*
G1X1350Y19985D2*
G1X1345Y19990D1*
G1X1345Y20000D1*
G1X1540Y19805D1*
G1X1540Y18387D1*
G1X1082Y17930D1*
G1X1082Y16432D1*
G1X1292Y16222D1*
G1X1855Y16222D1*
G1X24420Y10600D2*
G1X24990Y11170D1*
G1X27825Y11170D1*
G1X27870Y11125D1*
G1X28105Y11125D1*
G1X16648Y22260D2*
G1X15010Y22260D1*
G1X14690Y21940D1*
G1X14690Y20330D1*
G1X15010Y20010D1*
G1X16090Y20010D1*
G1X16410Y19690D1*
G1X16410Y18480D1*
G1X16730Y18160D1*
G1X22975Y18160D1*
G1X22980Y18165D1*
G1X23215Y18165D1*
G1X27855Y16515D2*
G1X28230Y16140D1*
G1X30300Y16140D1*
G1X30515Y15925D1*
G1X32887Y15925D1*
G1X31064Y16752D2*
G1X31300Y16752D1*
G1X31422Y16630D1*
G1X35220Y16630D1*
G1X35835Y16015D1*
G1X39082Y16015D1*
G1X39380Y15717D1*
G1X19385Y15585D2*
G1X18655Y16315D1*
G1X13180Y16315D1*
G1X12860Y16635D1*
G1X12860Y18610D1*
G1X28682Y13775D2*
G1X28260Y13775D1*
G1X27995Y14040D1*
G1X27155Y14040D1*
G1X26870Y13755D1*
G1X23877Y13755D1*
G1X22500Y9475D2*
G1X22265Y9710D1*
G1X18615Y9710D1*
G1X18380Y9475D1*
G1X15390Y9475D1*
G1X15100Y9185D1*
G1X8215Y9185D1*
G1X31420Y5982D2*
G1X32527Y7090D1*
G1X37995Y7090D1*
G1X38315Y7410D1*
G1X38315Y10475D1*
G1X37300Y11490D1*
G1X35955Y14380D2*
G1X36040Y14295D1*
G1X36115Y14295D1*
G1X36190Y14220D1*
G1X36190Y13875D1*
G1X35870Y13555D1*
G1X34200Y13555D1*
G1X34035Y13720D1*
G1X32830Y13720D1*
G1X31170Y1500D2*
G1X30280Y2390D1*
G1X28295Y2390D1*
G1X28067Y2617D1*
G1X27047Y2617D1*
G1X27045Y2620D1*
G1X23800Y2620D1*
G1X23685Y2735D1*
G1X22820Y2735D1*
G1X21940Y1855D1*
G1X19345Y1855D1*
G1X19085Y2115D1*
G1X16875Y2115D1*
G1X16140Y1380D1*
G1X10680Y1380D1*
G1X10550Y1510D1*
G1X2762Y1510D1*
G1X1595Y2677D1*
G1X22595Y19105D2*
G1X26500Y19105D1*
G1X26855Y19460D1*
G1X35280Y19460D1*
G1X36332Y20512D1*
G1X36332Y20622D1*
G1X22245Y200D2*
G1X22245Y300D1*
G1X22225Y320D1*
G1X1085Y320D1*
G1X-795Y-1560D1*
G1X-2740Y-1560D1*
G1X270Y8530D2*
G1X270Y8572D1*
G1X265Y8577D1*
G1X9707Y8577D1*
G1X11695Y6590D1*
G1X13360Y6590D1*
G1X13680Y6910D1*
G1X13680Y7700D1*
G1X14380Y8400D1*
G1X18600Y8400D1*
G1X19200Y7800D1*
G1X20240Y7800D1*
G1X20540Y8100D1*
G1X23035Y8100D1*
G1X23320Y8385D1*
G1X28020Y8385D1*
G1X28340Y8705D1*
G1X28340Y8950D1*
G1X28660Y9270D1*
G1X30335Y9270D1*
G1X32293Y7400D2*
G1X30713Y5820D1*
G1X24350Y5820D1*
G1X24265Y5905D1*
G1X20070Y5905D1*
G1X19925Y5760D1*
G1X17780Y5760D1*
G1X17510Y6030D1*
G1X17160Y6030D1*
G1X22500Y8805D2*
G1X22765Y8805D1*
G1X23810Y9850D1*
G1X25610Y9850D1*
G1X25845Y10085D1*
G1X26045Y10085D1*
G1X26205Y9925D1*
G1X26735Y9925D1*
G1X6950Y7799D2*
G1X-2250Y7799D1*
G1X-2250Y8291D2*
G1X-1149Y8291D1*
G1X-540Y8900D1*
G1X380Y8900D1*
G1X500Y8780D1*
G1X6480Y8780D1*
G1X7400Y9700D1*
G1X9120Y9700D1*
G1X9560Y10145D1*
G1X9560Y14825D1*
G1X9880Y15145D1*
G1X13670Y15145D1*
G1X13980Y15455D1*
G1X18420Y15455D1*
G1X18795Y15080D1*
G1X19265Y15080D1*
G1X19385Y14960D1*
G1X19385Y14185D1*
G1X19705Y13865D1*
G1X20835Y13865D1*
G1X20955Y13985D1*
G1X20955Y16800D1*
G1X21225Y17070D1*
G1X28490Y17070D1*
G1X28590Y16970D1*
G1X29095Y16970D1*
G1X36830Y13460D2*
G1X36830Y14575D1*
G1X36510Y14895D1*
G1X32830Y14895D1*
G1X32765Y10580D2*
G1X34870Y10580D1*
G1X34990Y10700D1*
G1X34990Y11475D1*
G1X34870Y11595D1*
G1X28860Y11595D1*
G1X28310Y12145D1*
G1X22855Y12145D1*
G1X22585Y12415D1*
G1X22585Y12435D1*
G1X22340Y12680D1*
G1X35240Y20215D2*
G1X34840Y19815D1*
G1X23610Y19815D1*
G1X11550Y6195D2*
G1X12155Y5590D1*
G1X13255Y5590D1*
G1X13705Y6040D1*
G1X16300Y6040D1*
G1X17720Y7460D1*
G1X18660Y7460D1*
G1X19120Y6995D1*
G1X23580Y6995D1*
G1X24740Y12627D2*
G1X24977Y12865D1*
G1X28700Y12865D1*
G1X29430Y12135D1*
G1X33505Y12135D1*
G1X33740Y12370D1*
G1X35225Y12370D1*
G1X30425Y15115D2*
G1X30660Y15350D1*
G1X35435Y15350D1*
G1X35880Y15795D1*
G1X37560Y15795D1*
G1X37775Y15580D1*
G1X38010Y15580D1*
G1X36725Y7900D2*
G1X36725Y12285D1*
G1X37045Y12605D1*
G1X38665Y12605D1*
G1X24740Y12627D2*
G1X24502Y12865D1*
G1X23580Y12865D1*
G1X23395Y12680D1*
G1X23160Y12680D1*
G1X29565Y21440D2*
G1X30175Y21440D1*
G1X30747Y20868D1*
G1X30747Y20642D1*
G1X30540Y20435D1*
G1X30055Y20435D1*
G1X29735Y20115D1*
G1X24145Y20115D1*
G1X23500Y20760D1*
G1X19190Y20760D1*
G1X18990Y20960D1*
G1X15236Y20960D1*
G1X14925Y20649D1*
G1X11020Y4670D2*
G1X11420Y5070D1*
G1X14130Y5070D1*
G1X14680Y5620D1*
G1X16340Y5620D1*
G1X17860Y7140D1*
G1X18200Y7140D1*
G1X18455Y6885D1*
G1X18455Y6405D1*
G1X15467Y21555D2*
G1X15925Y21555D1*
G1X16220Y21260D1*
G1X20190Y21260D1*
G1X20390Y21060D1*
G1X23950Y21060D1*
G1X24595Y20415D1*
G1X28885Y20415D1*
G1X29205Y20735D1*
G1X30475Y20735D1*
G1X37640Y18590D2*
G1X36460Y18590D1*
G1X36460Y19305D1*
G1X27470Y19305D1*
G1X25855Y17690D1*
G1X25695Y17690D1*
G1X25690Y17695D1*
G1X20815Y17695D1*
G1X20300Y17180D1*
G1X20300Y14800D1*
G1X20358Y14202D2*
G1X20557Y14400D1*
G1X20557Y17057D1*
G1X21010Y17510D1*
G1X25955Y17510D1*
G1X27595Y19150D1*
G1X36260Y19150D1*
G1X36260Y18345D1*
G1X37890Y18345D1*
G1X20720Y14100D2*
G1X20720Y16860D1*
G1X21175Y17315D1*
G1X26025Y17315D1*
G1X27675Y18965D1*
G1X36045Y18965D1*
G1X36075Y18935D1*
G1X36075Y18190D1*
G1X36235Y18030D1*
G1X38140Y18030D1*
G1X24630Y22881D2*
G1X24208Y22460D1*
G1X22545Y22460D1*
G1X22280Y22195D1*
G1X25690Y19575D2*
G1X23330Y19575D1*
G1X22595Y20310D1*
G1X17110Y20310D1*
G1X16845Y20575D1*
G1X19335Y8350D2*
G1X19010Y8675D1*
G1X14180Y8675D1*
G1X14180Y9805D2*
G1X12140Y11845D1*
G1X12140Y14525D1*
G1X12460Y14845D1*
G1X19150Y14845D1*
G1X34755Y11360D2*
G1X25360Y11360D1*
G1X25265Y11455D1*
G1X22520Y11455D1*
G1X22200Y11775D1*
G1X22200Y12195D1*
G1X35655Y9720D2*
G1X35815Y9880D1*
G1X35815Y12285D1*
G1X35495Y12605D1*
G1X29365Y12605D1*
G1X28470Y13500D1*
G1X23580Y13500D1*
G1X22595Y14485D1*
G1X22595Y15934D1*
G1X22871Y16210D1*
G1X16260Y17410D2*
G1X13690Y17410D1*
G1X13280Y17820D1*
G1X13280Y19840D1*
G1X13100Y20020D1*
G1X12600Y20020D1*
G1X12430Y19850D1*
G1X12430Y16510D1*
G1X11840Y15920D1*
G1X10900Y15920D1*
G1X10637Y16182D1*
G1X8232Y16182D1*
G1X7275Y17140D1*
G1X1537Y17140D1*
G1X15664Y20575D2*
G1X15899Y20810D1*
G1X18390Y20810D1*
G1X18590Y20610D1*
G1X23350Y20610D1*
G1X23995Y19965D1*
G1X33395Y19965D1*
G1X33865Y20435D1*
G1X17050Y1440D2*
G1X17170Y1320D1*
G1X22660Y1320D1*
G1X22755Y1225D1*
G1X23605Y1225D1*
G1X23725Y1345D1*
G1X23725Y1895D1*
G1X24212Y2382D1*
G1X26837Y2382D1*
G1X27240Y1980D1*
G1X27240Y1830D1*
G1X35835Y19545D2*
G1X39575Y19545D1*
G1X39895Y19225D1*
G1X39895Y15815D1*
G1X37305Y13225D1*
G1X33645Y13225D1*
G1X33385Y13485D1*
G1X30425Y13485D1*
G1X8934Y17870D2*
G1X8249Y18555D1*
G1X7225Y18555D1*
G1X7055Y18725D1*
G1X6612Y18725D1*
G1X6442Y18555D1*
G1X4745Y18555D1*
G1X44955Y26350D2*
G1X48090Y26350D1*
G1X15074Y21555D2*
G1X15519Y21110D1*
G1X19440Y21110D1*
G1X19640Y20910D1*
G1X23650Y20910D1*
G1X24295Y20265D1*
G1X29125Y20265D1*
G1X29360Y20500D1*
G1X26695Y15585D2*
G1X30260Y15585D1*
G1X16058Y20575D2*
G1X16473Y20160D1*
G1X16935Y20160D1*
G1X17585Y19510D1*
G1X19375Y19510D1*
G1X20025Y20160D1*
G1X21845Y20160D1*
G1X22665Y19340D1*
G1X26090Y19340D1*
G1X26360Y19610D1*
G1X35130Y19610D1*
G1X35560Y20040D1*
G1X35560Y20345D1*
G1X35360Y20545D1*
G1X35360Y20835D1*
G1X35040Y21155D1*
G1X32645Y21155D1*
G1X32585Y21095D1*
G1X32350Y21095D1*
G1X22855Y4700D2*
G1X22855Y5080D1*
G1X22975Y5200D1*
G1X24820Y5200D1*
G1X25895Y4125D1*
G1X26620Y4125D1*
G1X30425Y15115D2*
G1X30190Y15350D1*
G1X27295Y15350D1*
G1X26560Y14615D1*
G1X24255Y14615D1*
G1X23865Y14225D1*
G1X8645Y2690D2*
G1X18325Y2690D1*
G1X18645Y3010D1*
G1X18645Y3235D1*
G1X18805Y3395D1*
G1X22400Y3395D1*
G1X22595Y3200D1*
G1X26290Y3200D1*
G1X26660Y3570D1*
G1X33345Y3570D1*
G1X33735Y3960D1*
G1X24615Y18870D2*
G1X24615Y18165D1*
G1X24295Y17845D1*
G1X19200Y17845D1*
G1X18915Y17560D1*
G1X32830Y10940D2*
G1X30165Y10940D1*
G1X34920Y960D2*
G1X32952Y2927D1*
G1X24257Y2927D1*
G1X24150Y3035D1*
G1X22365Y3035D1*
G1X22330Y3070D1*
G1X22285Y3070D1*
G1X22112Y3242D1*
G1X20817Y3242D1*
G1X20645Y3070D1*
G1X24875Y20800D2*
G1X25110Y20565D1*
G1X26615Y20565D1*
G1X27930Y21880D1*
G1X2347Y16255D2*
G1X4960Y16255D1*
G1X6417Y14797D1*
G1X34690Y710D2*
G1X34355Y375D1*
G1X26570Y375D1*
G1X26105Y840D1*
G1X22560Y840D1*
G1X22230Y510D1*
G1X-320Y510D1*
G1X-640Y830D1*
G1X-640Y3795D1*
G1X-960Y4115D1*
G1X-3250Y4115D1*
G1X-3570Y4435D1*
G1X-3570Y18700D1*
G1X37605Y7645D2*
G1X36630Y7645D1*
G1X36360Y7915D1*
G1X36360Y12435D1*
G1X36040Y12755D1*
G1X30100Y12755D1*
G1X30015Y12840D1*
G1X29780Y12840D1*
G1X43307Y115D2*
G1X40115Y115D1*
G1X39830Y400D1*
G1X35700Y400D1*
G1X35400Y700D1*
G1X35400Y4690D1*
G1X35420Y4710D1*
G1X19385Y15585D2*
G1X18655Y16315D1*
G1X13180Y16315D1*
G1X12860Y16635D1*
G1X12860Y18610D1*
G1X13720Y12115D2*
G1X14665Y13060D1*
G1X17720Y13060D1*
G1X17970Y13310D1*
G1X20500Y13310D1*
G1X21035Y12775D1*
G1X32765Y9390D2*
G1X31565Y10590D1*
G1X25290Y10590D1*
G1X25065Y10365D1*
G1X24270Y10365D1*
G1X24185Y10450D1*
G1X23950Y10450D1*
G1X26475Y14190D2*
G1X28185Y14190D1*
G1X28365Y14010D1*
G1X28800Y14010D1*
G1X29515Y13295D1*
G1X29905Y13295D1*
G1X21160Y2990D2*
G1X20495Y2325D1*
G1X16725Y2325D1*
G1X16570Y2480D1*
G1X13225Y2480D1*
G1X13070Y2325D1*
G1X18765Y16937D2*
G1X19620Y16082D1*
G1X19620Y15470D1*
G1X19500Y15350D1*
G1X19150Y15350D1*
G1X18865Y15635D1*
G1X11215Y15635D1*
G1X22855Y3965D2*
G1X18650Y3965D1*
G1X27165Y15890D2*
G1X26185Y15890D1*
G1X25210Y14915D1*
G1X24390Y14915D1*
G1X23480Y15825D1*
G1X23245Y15825D1*
G1X23100Y15970D1*
G1X35225Y9470D2*
G1X35225Y9130D1*
G1X35105Y9010D1*
G1X32295Y9010D1*
G1X25785Y6530D2*
G1X27640Y6530D1*
G1X28910Y7800D1*
G1X30328Y7800D1*
G1X24285Y9185D2*
G1X24620Y9185D1*
G1X24855Y8950D1*
G1X25925Y8950D1*
G1X26615Y9640D1*
G1X26945Y9640D1*
G1X27595Y10290D1*
G1X30900Y10290D1*
G1X31220Y9970D1*
G1X31220Y7965D1*
G1X31540Y7645D1*
G1X35675Y7645D1*
G1X35910Y7410D1*
G1X17855Y11930D2*
G1X15105Y11930D1*
G1X14685Y12350D1*
G1X30412Y13165D2*
G1X32830Y13165D1*
G1X-1000Y6600D2*
G1X-570Y6170D1*
G1X7110Y6170D1*
G1X9010Y4270D1*
G1X15530Y4270D1*
G1X15995Y4735D1*
G1X19745Y4735D1*
G1X20445Y5435D1*
G1X25120Y5435D1*
G1X26195Y4360D1*
G1X34835Y4360D1*
G1X35155Y4040D1*
G1X35155Y1210D1*
G1X45500Y2600D2*
G1X45080Y2600D1*
G1X45040Y2560D1*
G1X36005Y2560D1*
G1X35655Y2210D1*
G1X30180Y6250D2*
G1X29945Y6250D1*
G1X29900Y6295D1*
G1X21255Y6295D1*
G1X15400Y10680D2*
G1X19510Y10680D1*
G1X20305Y11475D1*
G1X20576Y11475D1*
G1X20580Y11479D1*
G1X20785Y11479D1*
G1X24180Y1270D2*
G1X23985Y1075D1*
G1X20625Y1075D1*
G1X20235Y685D1*
G1X13570Y685D1*
G1X13185Y1070D1*
G1X11000Y16880D2*
G1X11330Y17210D1*
G1X11765Y17210D1*
G1X12277Y17722D1*
G1X12277Y20285D1*
G1X12007Y20555D1*
G1X12007Y22152D1*
G1X12365Y22510D1*
G1X20465Y22510D1*
G1X20785Y22190D1*
G1X20785Y21555D1*
G1X21105Y21235D1*
G1X23860Y21235D1*
G1X24180Y21555D1*
G1X24180Y22030D1*
G1X12715Y13160D2*
G1X13860Y13160D1*
G1X14000Y13300D1*
G1X17520Y13300D1*
G1X17680Y13460D1*
G1X20785Y13460D1*
G1X21105Y13780D1*
G1X21105Y16190D1*
G1X21425Y16510D1*
G1X22385Y16510D1*
G1X22760Y16885D1*
G1X28165Y16885D1*
G1X28315Y16735D1*
G1X29575Y16735D1*
G1X29680Y16840D1*
G1X30415Y16840D1*
G1X31095Y16160D1*
G1X34525Y16160D1*
G1X34750Y16385D1*
G1X34985Y16385D1*
G1X20920Y8765D2*
G1X20920Y9275D1*
G1X20650Y9545D1*
G1X20410Y9545D1*
G1X20290Y9425D1*
G1X20290Y9360D1*
G1X20170Y9240D1*
G1X15575Y9240D1*
G1X28680Y8950D2*
G1X30257Y8950D1*
G1X41700Y-945D2*
G1X42160Y-485D1*
G1X47790Y-485D1*
G1X48110Y-165D1*
G1X48110Y16380D1*
G1X47790Y16700D1*
G1X41605Y16700D1*
G1X41285Y16380D1*
G1X41285Y13250D1*
G1X40965Y12930D1*
G1X30310Y12930D1*
G1X30140Y13100D1*
G1X30140Y13950D1*
G1X29920Y14170D1*
G1X28812Y14170D1*
G1X28655Y14327D1*
G1X37065Y13740D2*
G1X37065Y14810D1*
G1X36745Y15130D1*
G1X31705Y15130D1*
G1X31420Y14845D1*
G1X27305Y14845D1*
G1X28430Y17550D2*
G1X30980Y17550D1*
G1X31730Y16800D1*
G1X34885Y16800D1*
G1X34990Y16905D1*
G1X14365Y22265D2*
G1X14365Y19435D1*
G1X14010Y19080D1*
G1X13700Y19080D1*
G1X13440Y18820D1*
G1X13440Y18395D1*
G1X13680Y18155D1*
G1X13905Y18155D1*
G1X14130Y17930D1*
G1X14330Y17930D1*
G1X21170Y21725D2*
G1X21170Y22340D1*
G1X20850Y22660D1*
G1X12130Y22660D1*
G1X11810Y22340D1*
G1X11810Y20367D1*
G1X12107Y20070D1*
G1X12107Y17980D1*
G1X11807Y17680D1*
G1X11265Y17680D1*
G1X10616Y17031D1*
G1X10616Y16804D1*
G1X11000Y16420D1*
G1X13724Y11430D2*
G1X12480Y12674D1*
G1X12480Y13800D1*
G1X12600Y13920D1*
G1X14470Y13920D1*
G1X15225Y14675D1*
G1X17915Y14675D1*
G1X17935Y14655D1*
G1X17935Y14395D1*
G1X20000Y12770D2*
G1X18720Y11490D1*
G1X17690Y11490D1*
G1X17590Y11390D1*
G1X17590Y11075D1*
G1X17750Y10915D1*
G1X17855Y10915D1*
G1X16050Y7070D2*
G1X16390Y7070D1*
G1X17300Y7980D1*
G1X18420Y7980D1*
G1X18920Y7480D1*
G1X23050Y7480D1*
G1X23065Y7465D1*
G1X23270Y7465D1*
G1X26325Y4910D2*
G1X26560Y5145D1*
G1X28845Y5145D1*
G1X29255Y4735D1*
G1X34935Y4735D1*
G1X35385Y5185D1*
G1X36985Y5185D1*
G1X21105Y2090D2*
G1X21875Y2090D1*
G1X22670Y2885D1*
G1X23865Y2885D1*
G1X23975Y2775D1*
G1X32465Y2775D1*
G1X32970Y2270D1*
G1X32970Y1137D1*
G1X34775Y4970D2*
G1X29645Y4970D1*
G1X29235Y5380D1*
G1X26325Y5380D1*
G1X47616Y5420D2*
G1X34675Y5420D1*
G1X34375Y5120D1*
G1X29795Y5120D1*
G1X29245Y5670D1*
G1X20625Y5670D1*
G1X23090Y4946D2*
G1X23090Y4520D1*
G1X22770Y4200D1*
G1X18535Y4200D1*
G1X18415Y4080D1*
G1X18415Y3590D1*
G1X18095Y3270D1*
G1X8860Y3270D1*
G1X6110Y6020D1*
G1X-2835Y6020D1*
G1X-3155Y6340D1*
G1X-3155Y24925D1*
G1X-3580Y25350D1*
G1X22620Y4465D2*
G1X21885Y5200D1*
G1X20680Y5200D1*
G1X13724Y10930D2*
G1X14700Y10930D1*
G1X15410Y11640D1*
G1X18480Y11640D1*
G1X18800Y11960D1*
G1X18800Y13055D1*
G1X12530Y6990D2*
G1X12530Y8605D1*
G1X12850Y8925D1*
G1X20140Y8925D1*
G1X20525Y9310D1*
G1X9265Y5330D2*
G1X13800Y5330D1*
G1X14310Y5840D1*
G1X16320Y5840D1*
G1X17780Y7300D1*
G1X18540Y7300D1*
G1X19670Y6170D1*
G1X20851Y6170D1*
G1X11740Y18880D2*
G54D59*
G1X11740Y18080D1*
G1X11880Y18350D2*
G1X11470Y18350D1*
G1X11880Y18755D2*
G1X11470Y18755D1*
G1X11880Y18620D2*
G1X11470Y18620D1*
G1X11880Y18485D2*
G1X11470Y18485D1*
G1X11605Y18880D2*
G1X11605Y18080D1*
G1X11470Y18880D2*
G1X11470Y18080D1*
G1X11880Y18080D2*
G1X11470Y18080D1*
G1X11880Y18880D2*
G1X11880Y18080D1*
G1X11880Y18880D2*
G1X11470Y18880D1*
G1X11880Y18215D2*
G1X11470Y18215D1*
G1X7980Y10665D2*
G54D196*
G1X7505Y10665D1*
G1X6420Y9580D1*
G1X4291Y9580D1*
G1X3206Y10665D1*
G1X3120Y10751D2*
G1X-2250Y10751D1*
G1X3120Y10751D1*
G1X3206Y10665D2*
G1X4291Y9580D1*
G1X6420Y9580D1*
G1X7505Y10665D1*
G1X7980Y10665D1*
G1X7470Y21640D2*
G1X7470Y19832D1*
G1X7790Y19512D1*
G1X11295Y19512D1*
G1X11515Y19292D1*
G1X11515Y18647D1*
G1X34830Y13868D2*
G1X34830Y14275D1*
G1X34705Y14400D1*
G1X30300Y14400D1*
G1X7470Y22427D2*
G1X7470Y21640D1*
G1X8257Y22427D2*
G1X8257Y22788D1*
G1X8065Y22980D1*
G1X3285Y22980D1*
G1X2935Y23330D1*
G1X2540Y23330D1*
G1X7470Y22450D2*
G1X7470Y22427D1*
G54D211*
G1X32293Y8225D3*
G1X7980Y15180D3*
G1X7980Y10665D3*
G1X7980Y9420D3*
G1X20565Y9945D3*
G1X25480Y9420D3*
G1X14130Y20535D3*
G1X13792Y11750D3*
G1X26650Y9035D3*
G1X27085Y13100D3*
G1X28075Y11875D3*
G1X10025Y9655D3*
G1X25676Y362D3*
G1X35525Y8285D3*
G1X34755Y9765D3*
G1X41592Y12883D3*
G1X27420Y13805D3*
G1X26765Y13116D3*
G1X44955Y23390D3*
G1X34830Y13868D3*
G1X30300Y14400D3*
G1X39922Y10742D3*
G1X20546Y12405D3*
G1X22820Y12530D3*
G1X24905Y10600D3*
G1X19780Y16765D3*
G1X19039Y14160D3*
G1X1855Y16222D3*
G1X41445Y10160D3*
G1X24420Y10600D3*
G1X28105Y11125D3*
G1X17042Y21555D3*
G1X25175Y21175D3*
G1X2540Y23330D3*
G1X-2845Y11850D3*
G1X18215Y10950D3*
G1X16648Y22260D3*
G1X23215Y18165D3*
G1X27855Y16515D3*
G1X32887Y15925D3*
G1X39380Y15717D3*
G1X38865Y11685D3*
G1X26695Y16615D3*
G1X28682Y13775D3*
G1X23877Y13755D3*
G1X24185Y11910D3*
G1X23715Y9275D3*
G1X27890Y6055D3*
G1X8215Y9185D3*
G1X31420Y5982D3*
G1X37300Y11490D3*
G1X35955Y14380D3*
G1X32830Y13720D3*
G1X32595Y11900D3*
G1X5132Y13005D3*
G1X24200Y8805D3*
G1X27840Y11638D3*
G1X31170Y1500D3*
G1X43030Y12130D3*
G1X36915Y20015D3*
G1X17495Y20065D3*
G1X22595Y19105D3*
G1X32650Y8370D3*
G1X35212Y18575D3*
G1X21580Y14513D3*
G1X22245Y200D3*
G1X-780Y9950D3*
G1X22510Y14100D3*
G1X3267Y20110D3*
G1X30335Y9270D3*
G1X245Y6460D3*
G1X3230Y21545D3*
G1X3708Y19575D3*
G1X20355Y2590D3*
G1X23175Y3700D3*
G1X14705Y2942D3*
G1X26530Y3780D3*
G1X37836Y8485D3*
G1X32293Y7400D3*
G1X22500Y8805D3*
G1X26735Y9925D3*
G1X26849Y12622D3*
G1X24830Y14130D3*
G1X24415Y21495D3*
G1X6950Y7799D3*
G1X24270Y12380D3*
G1X25220Y9185D3*
G1X36830Y13460D3*
G1X32830Y14895D3*
G1X32765Y10580D3*
G1X3940Y17725D3*
G1X23610Y19815D3*
G1X32345Y7900D3*
G1X33360Y17650D3*
G1X11550Y6195D3*
G1X23580Y6995D3*
G1X35225Y12370D3*
G1X38010Y15580D3*
G1X30335Y11900D3*
G1X40900Y13240D3*
G1X28465Y15900D3*
G1X23335Y16200D3*
G1X19875Y18610D3*
G1X36725Y7900D3*
G1X38665Y12605D3*
G1X38665Y18825D3*
G1X24740Y12627D3*
G1X23160Y12680D3*
G1X12908Y21551D3*
G1X13320Y21790D3*
G1X39485Y8485D3*
G1X9640Y15672D3*
G1X22128Y14202D3*
G1X30100Y9665D3*
G1X30945Y18170D3*
G1X29565Y21440D3*
G1X14925Y20649D3*
G1X13696Y21551D3*
G1X18455Y6405D3*
G1X15467Y21555D3*
G1X30475Y20735D3*
G1X31835Y17885D3*
G1X33365Y6216D3*
G1X29510Y18490D3*
G1X30426Y7480D3*
G1X37640Y18590D3*
G1X20300Y14800D3*
G1X20358Y14202D3*
G1X37890Y18345D3*
G1X36510Y13460D3*
G1X40130Y19470D3*
G1X20720Y14100D3*
G1X38140Y18030D3*
G1X31064Y16752D3*
G1X26865Y21205D3*
G1X25690Y19575D3*
G1X16845Y20575D3*
G1X36430Y19965D3*
G1X23375Y20050D3*
G1X19870Y21790D3*
G1X24360Y13150D3*
G1X22340Y12680D3*
G1X19335Y8350D3*
G1X14180Y8675D3*
G1X14180Y9805D3*
G1X19150Y14845D3*
G1X18930Y18845D3*
G1X19035Y12415D3*
G1X38155Y3350D3*
G1X34755Y11360D3*
G1X22200Y12195D3*
G1X35655Y9720D3*
G1X22871Y16210D3*
G1X16260Y17410D3*
G1X30935Y3320D3*
G1X15520Y4680D3*
G1X15664Y20575D3*
G1X33865Y20435D3*
G1X33865Y18585D3*
G1X32765Y9760D3*
G1X17050Y1440D3*
G1X27240Y1830D3*
G1X12715Y12840D3*
G1X13345Y16605D3*
G1X14600Y19095D3*
G1X35835Y19545D3*
G1X30425Y13485D3*
G1X17855Y11235D3*
G1X37590Y10295D3*
G1X28682Y8107D3*
G1X17239Y20575D3*
G1X19165Y19745D3*
G1X22875Y16530D3*
G1X32335Y12370D3*
G1X29795Y5585D3*
G1X19490Y17000D3*
G1X22206Y18720D3*
G1X34240Y20605D3*
G1X35225Y13940D3*
G1X27850Y2040D3*
G1X23475Y1460D3*
G1X39720Y960D3*
G1X4745Y18555D3*
G1X40660Y10800D3*
G1X15074Y21555D3*
G1X29360Y20500D3*
G1X30165Y18255D3*
G1X29780Y9640D3*
G1X26695Y15585D3*
G1X30260Y15585D3*
G1X16058Y20575D3*
G1X32350Y21095D3*
G1X32350Y18115D3*
G1X32445Y10587D3*
G1X35955Y14060D3*
G1X35429Y9970D3*
G1X22855Y4700D3*
G1X26620Y4125D3*
G1X29095Y16970D3*
G1X29125Y20970D3*
G1X40665Y11560D3*
G1X43710Y10930D3*
G1X30425Y15115D3*
G1X23865Y14225D3*
G1X1350Y19985D3*
G1X39490Y9705D3*
G1X40050Y3210D3*
G1X8645Y2690D3*
G1X33735Y3960D3*
G1X25870Y7000D3*
G1X24615Y18870D3*
G1X18915Y17560D3*
G1X32830Y10940D3*
G1X30165Y10940D3*
G1X40920Y4710D3*
G1X34920Y960D3*
G1X20645Y3070D3*
G1X43649Y7170D3*
G1X18028Y6078D3*
G1X18030Y5290D3*
G1X44025Y6420D3*
G1X34990Y9245D3*
G1X31170Y5415D3*
G1X28190Y8085D3*
G1X18030Y6870D3*
G1X44260Y5670D3*
G1X28660Y6890D3*
G1X26415Y6890D3*
G1X24875Y20800D3*
G1X40320Y9510D3*
G1X37135Y1710D3*
G1X34690Y710D3*
G1X-3570Y18700D3*
G1X23950Y11155D3*
G1X22800Y8335D3*
G1X15575Y3665D3*
G1X20685Y8437D3*
G1X21035Y10735D3*
G1X30700Y4125D3*
G1X37605Y7645D3*
G1X29780Y12840D3*
G1X42910Y10530D3*
G1X33835Y6130D3*
G1X37370Y6130D3*
G1X36665Y21332D3*
G1X15270Y20575D3*
G1X21060Y12036D3*
G1X4090Y20255D3*
G1X43649Y6670D3*
G1X27900Y9405D3*
G1X27330Y14425D3*
G1X23630Y14460D3*
G1X43307Y115D3*
G1X35420Y4710D3*
G1X35655Y4210D3*
G1X33865Y20920D3*
G1X18550Y17795D3*
G1X12050Y1740D3*
G1X39970Y10070D3*
G1X22500Y9475D3*
G1X22831Y15290D3*
G1X19385Y15585D3*
G1X13720Y12115D3*
G1X21035Y12775D3*
G1X32765Y9390D3*
G1X23950Y10450D3*
G1X16050Y13760D3*
G1X870Y18432D3*
G1X24000Y9615D3*
G1X26475Y14190D3*
G1X29905Y13295D3*
G1X16910Y12205D3*
G1X16040Y6660D3*
G1X21160Y2990D3*
G1X13070Y2325D3*
G1X13105Y20545D3*
G1X43050Y11370D3*
G1X18910Y3160D3*
G1X22875Y13489D3*
G1X18765Y16937D3*
G1X11215Y15635D3*
G1X2035Y21780D3*
G1X43700Y12530D3*
G1X15820Y3920D3*
G1X34990Y11830D3*
G1X22090Y2800D3*
G1X12955Y15390D3*
G1X12915Y7540D3*
G1X36890Y16835D3*
G1X41820Y18580D3*
G1X26110Y3800D3*
G1X22855Y3965D3*
G1X18650Y3965D3*
G1X21060Y12430D3*
G1X27165Y15890D3*
G1X23100Y15970D3*
G1X8934Y17870D3*
G1X44645Y2815D3*
G1X18208Y2928D3*
G1X30100Y17315D3*
G1X23450Y18400D3*
G1X36990Y10220D3*
G1X42650Y13900D3*
G1X30375Y13868D3*
G1X28680Y6059D3*
G1X18030Y4970D3*
G1X15875Y14425D3*
G1X22871Y13845D3*
G1X22010Y840D3*
G1X28680Y12370D3*
G1X35225Y9470D3*
G1X32295Y9010D3*
G1X14900Y6390D3*
G1X26710Y2140D3*
G1X28280Y1245D3*
G1X39485Y10220D3*
G1X41155Y6170D3*
G1X41155Y460D3*
G1X43875Y6920D3*
G1X20245Y9980D3*
G1X25785Y6530D3*
G1X30328Y7800D3*
G1X24285Y9185D3*
G1X35910Y7410D3*
G1X34755Y12135D3*
G1X27890Y7620D3*
G1X26180Y7620D3*
G1X17855Y11930D3*
G1X14685Y12350D3*
G1X14655Y3913D3*
G1X27635Y10935D3*
G1X28360Y12605D3*
G1X30412Y13165D3*
G1X32830Y13165D3*
G1X35155Y1210D3*
G1X35655Y2210D3*
G1X32885Y8135D3*
G1X30180Y6250D3*
G1X21255Y6295D3*
G1X15400Y10680D3*
G1X20785Y11479D3*
G1X13185Y1070D3*
G1X11000Y16880D3*
G1X41930Y13965D3*
G1X1360Y14430D3*
G1X12715Y13160D3*
G1X34985Y16385D3*
G1X18030Y4110D3*
G1X19985Y12170D3*
G1X16020Y6340D3*
G1X42900Y14595D3*
G1X17829Y22275D3*
G1X34100Y22450D3*
G1X34930Y18340D3*
G1X34753Y10815D3*
G1X41930Y9500D3*
G1X18030Y4500D3*
G1X23630Y13990D3*
G1X29905Y13615D3*
G1X25870Y16557D3*
G1X25725Y18635D3*
G1X23681Y18635D3*
G1X18030Y3710D3*
G1X39485Y1210D3*
G1X39720Y3960D3*
G1X40890Y12570D3*
G1X3493Y20345D3*
G1X34245Y6366D3*
G1X34245Y2085D3*
G1X24105Y1905D3*
G1X10980Y1745D3*
G1X15861Y22025D3*
G1X18880Y2621D3*
G1X29780Y15114D3*
G1X27750Y18230D3*
G1X23690Y18165D3*
G1X650Y18720D3*
G1X42465Y4945D3*
G1X18020Y6470D3*
G1X5830Y16325D3*
G1X20920Y8765D3*
G1X15575Y9240D3*
G1X16150Y7460D3*
G1X28680Y8950D3*
G1X30257Y8950D3*
G1X37610Y8720D3*
G1X16451Y20575D3*
G1X6320Y19830D3*
G1X41145Y7420D3*
G1X40555Y4460D3*
G1X39720Y6670D3*
G1X39790Y9470D3*
G1X15575Y11215D3*
G1X17615Y14440D3*
G1X39485Y6920D3*
G1X39485Y3710D3*
G1X21965Y8335D3*
G1X30426Y7135D3*
G1X31654Y18560D3*
G1X41700Y-945D3*
G1X28655Y14327D3*
G1X35225Y10580D3*
G1X35615Y18725D3*
G1X26630Y21554D3*
G1X17652Y20565D3*
G1X20305Y12179D3*
G1X15800Y2220D3*
G1X36990Y9290D3*
G1X37065Y13740D3*
G1X27305Y14845D3*
G1X39485Y710D3*
G1X38865Y7170D3*
G1X27460Y16580D3*
G1X28430Y17550D3*
G1X34990Y16905D3*
G1X36985Y8970D3*
G1X14365Y22265D3*
G1X14330Y17930D3*
G1X12290Y8075D3*
G1X21155Y4435D3*
G1X28660Y6530D3*
G1X29780Y13935D3*
G1X31805Y1490D3*
G1X21170Y21725D3*
G1X11000Y16420D3*
G1X34540Y2975D3*
G1X34755Y6485D3*
G1X34755Y8670D3*
G1X34520Y17705D3*
G1X34147Y20200D3*
G1X30475Y20200D3*
G1X29780Y14610D3*
G1X13724Y11430D3*
G1X17935Y14395D3*
G1X20000Y12770D3*
G1X17855Y10915D3*
G1X21340Y15285D3*
G1X25645Y17930D3*
G1X23495Y11910D3*
G1X16050Y7070D3*
G1X23270Y7465D3*
G1X26325Y4910D3*
G1X36985Y5185D3*
G1X22865Y11220D3*
G1X20548Y12725D3*
G1X15540Y920D3*
G1X21105Y2090D3*
G1X32970Y1137D3*
G1X34775Y4970D3*
G1X26325Y5380D3*
G1X23580Y6650D3*
G1X47616Y5420D3*
G1X20625Y5670D3*
G1X23090Y4946D3*
G1X22620Y4465D3*
G1X20680Y5200D3*
G1X40330Y13950D3*
G1X13724Y10930D3*
G1X18800Y13055D3*
G1X20525Y9310D3*
G1X12717Y13682D3*
G1X165Y17804D3*
G1X41210Y19500D3*
G54D226*
G1X6370Y11650D3*
G1X24800Y7400D3*
G1X24800Y15900D3*
G1X39737Y21492D3*
G1X29510Y1402D3*
G54D227*
G1X30254Y5469D3*
G1X30254Y16492D3*
G54D230*
G1X31930Y21880D3*
G1X30930Y21880D3*
G1X29930Y21880D3*
G1X28930Y21880D3*
G1X27930Y21880D3*
G1X23620Y418D3*
G1X24620Y418D3*
G1X25620Y418D3*
G1X25630Y22881D3*
G1X24630Y22881D3*
G1X23630Y22881D3*
G1X48090Y-4050D3*
G1X48090Y-3050D3*
G1X48090Y-2050D3*
G1X48090Y25350D3*
G1X48090Y26350D3*
G1X48090Y27350D3*
G1X-3580Y-50D3*
G1X-3580Y-1050D3*
G1X-3580Y-2050D3*
G1X-3580Y25350D3*
G1X-3580Y24350D3*
G1X-3580Y23350D3*
G1X-1000Y16700D3*
G1X-1000Y17700D3*
G1X-1000Y18700D3*
G1X-1000Y4600D3*
G1X-1000Y5600D3*
G1X-1000Y6600D3*
G1X45490Y20700D3*
G1X45490Y19700D3*
G1X45490Y18700D3*
G1X45500Y4600D3*
G1X45500Y3600D3*
G1X45500Y2600D3*
G1X14210Y7600D3*
G1X15194Y7600D3*
G54D232*
G1X27940Y8890D3*
G1X14020Y3670D3*
G1X13020Y4670D3*
G1X13020Y3670D3*
G1X12020Y4670D3*
G1X12020Y3670D3*
G1X11020Y4670D3*
G1X11020Y3670D3*
G1X10020Y4670D3*
G1X10020Y3670D3*
G1X12860Y19610D3*
G1X13860Y18610D3*
G1X13860Y19610D3*
G1X14860Y18610D3*
G1X14860Y19610D3*
G1X15860Y18610D3*
G1X15860Y19610D3*
G1X16860Y18610D3*
G1X16860Y19610D3*
G1X12530Y6990D3*
G1X47710Y8150D3*
G1X47710Y9150D3*
G1X47710Y10150D3*
G1X47710Y11150D3*
G1X47710Y12150D3*
G1X47710Y13150D3*
G1X47710Y14150D3*
G1X47710Y15150D3*
G1X47710Y16150D3*
G1X44710Y16150D3*
G1X44710Y15150D3*
G1X44710Y14150D3*
G1X44710Y13150D3*
G1X44710Y12150D3*
G1X44710Y11150D3*
G1X44710Y10150D3*
G1X44710Y9150D3*
G1X44710Y8150D3*
G1X44710Y7150D3*
G1X5740Y13880D3*
G1X18240Y12910D3*
G1X6510Y2910D3*
G1X6510Y1910D3*
G1X6510Y910D3*
G1X25180Y1270D3*
G1X47210Y-2560D3*
G1X-2740Y-1560D3*
G1X24180Y22030D3*
G1X47210Y26860D3*
G1X-2740Y23860D3*
G54D233*
G1X27940Y9890D3*
G1X14020Y4670D3*
G1X12860Y18610D3*
G1X12530Y5990D3*
G1X47710Y7150D3*
G1X6740Y13880D3*
G1X18240Y13910D3*
G1X6510Y3910D3*
G1X24180Y1270D3*
G1X47210Y-3560D3*
G1X-2740Y-560D3*
G1X25180Y22030D3*
G1X47210Y25860D3*
G1X-2740Y24860D3*
G54D241*
G1X300Y14090D3*
G1X-448Y15822D3*
G1X733Y15232D3*
G1X23167Y2190D3*
G1X26073Y1521D3*
G1X26083Y21110D3*
G1X23177Y21779D3*
G1X46318Y-4503D3*
G1X46988Y-1597D3*
G1X46318Y24897D3*
G1X46988Y27803D3*
G1X-1808Y403D3*
G1X-2478Y-2503D3*
G1X-1808Y25803D3*
G1X-2478Y22897D3*
G54D244*
G1X-2416Y13696D3*
G1X-2416Y15271D3*
G54D245*
G1X8257Y21640D3*
G1X9045Y21640D3*
G1X7470Y22427D3*
G1X9045Y22427D3*
G1X8257Y22427D3*
G1X7470Y21640D3*
G1X19795Y8198D3*
G1X19795Y14891D3*
G54D249*
G1X-1250Y20770D3*
G1X-1250Y2530D3*
G1X45740Y22770D3*
G1X45750Y530D3*
G54D250*
G1X32930Y21880D3*
G54D251*
G1X24275Y4200D3*
G1X21126Y19160D3*
G54D256*
G1X6368Y22034D3*
G1X10147Y22034D3*
G54D257*
G1X32590Y5900D3*
G1X32590Y17400D3*
G54D260*
G1X-2250Y12228D3*
G1X-2250Y11736D3*
G1X-2250Y11244D3*
G1X-2250Y10751D3*
G1X-2250Y10259D3*
G1X-2250Y9767D3*
G1X-2250Y9275D3*
G1X-2250Y8783D3*
G1X-2250Y8291D3*
G1X-2250Y7799D3*
G1X-2250Y7307D3*
G54D261*
G1X-2250Y12720D3*
G54D262*
G1X10287Y6660D3*
G1X10287Y5873D3*
G1X11075Y6660D3*
G1X11075Y5873D3*
G1X9500Y5873D3*
G1X27914Y4036D3*
G1X28701Y4036D3*
G1X27914Y4824D3*
G1X28701Y4824D3*
G1X28701Y3249D3*
G54D263*
G1X9500Y6660D3*
G1X27914Y3249D3*
G54D264*
G1X9180Y15910D3*
G1X9265Y5330D3*
G1X20851Y6170D3*
G1X41315Y12540D3*
G1X5330Y10360D3*
G1X1120Y19270D3*
G1X25760Y11640D3*
G1X12860Y19050D3*
G1X20640Y4700D3*
G1X21152Y8390D3*
G1X17160Y6030D3*
G1X17210Y5690D3*
G1X15522Y5098D3*
G1X10005Y820D3*
G1X12330Y2950D3*
G1X18740Y980D3*
G1X18931Y1751D3*
G1X18280Y1080D3*
G1X19140Y4460D3*
G1X33660Y990D3*
G1X39595Y11965D3*
G1X6820Y18335D3*
G1X1465Y23217D3*
G1X1470Y22370D3*
G1X3355Y14025D3*
G1X3360Y13590D3*
G1X37585Y710D3*
G1X17260Y13610D3*
G1X17240Y13970D3*
G1X37542Y3457D3*
G1X35132Y22535D3*
G1X5830Y19832D3*
G1X2327Y20203D3*
G1X2347Y16255D3*
G1X6417Y14797D3*
G1X41792Y7420D3*
G1X20757Y6552D3*
G1X27430Y18020D3*
G1X7507Y9440D3*
G1X14917Y16700D3*
G1X3367Y3660D3*
G1X-1305Y11885D3*
G1X1850Y14872D3*
G1X20400Y21825D3*
G1X45520Y12525D3*
G1X36332Y20622D3*
G1X35240Y20215D3*
G1X22340Y16835D3*
G1X6852Y6460D3*
G1X6812Y6960D3*
G1X18140Y18962D3*
G1X17607Y15212D3*
G1X17110Y15220D3*
G1X21316Y16819D3*
G1X18070Y15210D3*
G1X42437Y-1022D3*
G1X27620Y15945D3*
G1X23787Y12545D3*
G1X25975Y9390D3*
G1X21147Y7230D3*
G1X41780Y5670D3*
G1X37570Y4680D3*
G1X37592Y1977D3*
G1X33690Y612D3*
G1X32832Y16395D3*
G1X34560Y20685D3*
G1X35595Y20645D3*
G1X11602Y9805D3*
G1X11602Y10302D3*
G1X39660Y15975D3*
G1X40515Y15072D3*
G1X39660Y15062D3*
G1X13710Y14610D3*
G1X10797Y10257D3*
G1X10792Y9817D3*
G1X37390Y16265D3*
G1X31427Y1115D3*
G1X37167Y11010D3*
G1X33092Y6442D3*
G1X32610Y1820D3*
G1X37130Y16515D3*
G1X5525Y2352D3*
G1X5515Y1810D3*
G1X5517Y1275D3*
G1X3892Y1087D3*
G1X37890Y19855D3*
G1X15820Y1790D3*
G1X11215Y2950D3*
G1X2862Y1100D3*
G1X3362Y1090D3*
G1X36275Y15560D3*
G1X36275Y14560D3*
G1X43380Y15550D3*
G1X42100Y15485D3*
G1X35227Y14657D3*
G1X39530Y11570D3*
G1X980Y10107D3*
G1X42060Y19765D3*
G1X37865Y21450D3*
G1X1597Y15920D3*
G1X5512Y12667D3*
G1X1205Y3272D3*
G1X14062Y12112D3*
G1X42285Y17760D3*
G1X13265Y14170D3*
G1X9887Y11147D3*
G1X12525Y10917D3*
G1X1537Y17140D3*
G1X25565Y13167D3*
G1X3115Y16905D3*
G1X18360Y11251D3*
G1X30222Y8630D3*
G1X34930Y20655D3*
G1X4620Y18040D3*
G1X2200Y14880D3*
G1X21075Y11252D3*
G1X13590Y15400D3*
G1X13590Y15930D3*
G1X35957Y20642D3*
G1X38080Y9720D3*
G1X30024Y15902D3*
G1X27740Y13800D3*
G1X16915Y9905D3*
G1X12320Y20575D3*
G1X46420Y17997D3*
G1X13950Y11180D3*
G1X20055Y8690D3*
G1X20055Y9475D3*
G1X12505Y21795D3*
G1X270Y8530D3*
G1X45520Y10615D3*
G1X35580Y8720D3*
G1X1595Y2677D3*
G1X-160Y7532D3*
G1X32855Y7407D3*
G1X20880Y3722D3*
G1X902Y2430D3*
G1X25945Y9850D3*
G1X-150Y8567D3*
G1X39457Y13695D3*
G1X26710Y9360D3*
G1X39865Y14485D3*
G1X30682Y6247D3*
G1X40650Y14495D3*
G1X32872Y3320D3*
G1X7507Y8982D3*
G1X25810Y14857D3*
G1X47210Y25177D3*
G1X45455Y13635D3*
G1X21832Y15055D3*
G1X13604Y16839D3*
G1X4010Y18840D3*
G1X11735Y18290D3*
G1X11720Y16780D3*
G1X11675Y16285D3*
G1X11715Y18647D3*
G54D382*
G1X21230Y7820D3*
G1X14630Y6755D3*
G1X17070Y1810D3*
G1X23005Y1480D3*
G1X45140Y-2745D3*
G1X18210Y22040D3*
G1X22280Y22195D3*
G1X10980Y11040D3*
G1X-2190Y-1050D3*
G1X41742Y10797D3*
G1X44955Y26350D3*
G1X26650Y4824D3*
G1X23245Y11220D3*
G1X23130Y11910D3*
G1X16255Y21790D3*
G1X15375Y19775D3*
G1X23220Y15525D3*
G1X28465Y15115D3*
M2*
