*
%LPD*%
%LNRAGOBOT.SST*%
%FSLAX24Y24*%
%MOIN*%
%AD*%
%ADD52C,0.010000*%
%ADD55C,0.012000*%
%ADD58C,0.008000*%
%ADD59C,0.015000*%
%ADD62C,0.001000*%
%ADD89C,0.006000*%
%ADD90C,0.003900*%
%ADD91C,0.007000*%
%ADD184C,0.007900*%
%ADD201C,0.011000*%
G54D52*
%SRX1Y1I0.0J0.0*%
G1X18673Y6007D2*
G1X19173Y6007D1*
G1X18673Y6049D2*
G1X18673Y5799D1*
G1X18840Y5716D1*
G1X19007Y5716D1*
G1X19173Y5799D1*
G1X19173Y6049D1*
G1X18840Y6291D2*
G1X18840Y6624D1*
G1X18673Y6291D2*
G1X18923Y6291D1*
G1X19173Y6416D1*
G1X19173Y6499D1*
G1X18923Y6624D1*
G1X18673Y6624D1*
G1X18923Y6949D2*
G1X18923Y7199D1*
G1X18673Y6866D2*
G1X18673Y7199D1*
G1X19173Y7199D1*
G1X19173Y6866D1*
G1X18923Y7441D2*
G1X18923Y7774D1*
G1X18673Y7441D2*
G1X19173Y7441D1*
G1X18673Y7774D2*
G1X19173Y7774D1*
G1X35453Y14486D2*
G1X35703Y14736D1*
G1X35953Y14486D1*
G1X35953Y14819D2*
G1X35453Y14819D1*
G1X35537Y15061D2*
G1X35453Y15102D1*
G1X35453Y15352D1*
G1X35537Y15394D1*
G1X35870Y15394D1*
G1X35953Y15352D1*
G1X35953Y15102D1*
G1X35870Y15061D1*
G1X35703Y15719D2*
G1X35703Y15969D1*
G1X35453Y15636D2*
G1X35453Y15969D1*
G1X35953Y15969D1*
G1X35953Y15636D1*
G1X35953Y16211D2*
G1X35453Y16211D1*
G1X35537Y16294D1*
G1X35870Y16461D1*
G1X35953Y16544D1*
G1X35453Y16544D1*
G1X-3192Y19688D2*
G1X-3275Y19730D1*
G1X-3275Y19980D1*
G1X-3192Y20022D1*
G1X-2858Y20022D1*
G1X-2775Y19980D1*
G1X-2775Y19730D1*
G1X-2858Y19688D1*
G1X-3275Y20555D2*
G1X-2775Y20555D1*
G1X-3275Y20597D2*
G1X-3275Y20347D1*
G1X-3108Y20263D1*
G1X-2942Y20263D1*
G1X-2775Y20347D1*
G1X-2775Y20597D1*
G1X-2775Y20838D2*
G1X-2942Y20838D1*
G1X-3275Y21005D1*
G1X-2942Y21172D1*
G1X-2775Y21172D1*
G1X-3275Y21413D2*
G1X-3275Y21747D1*
G1X-2942Y21413D1*
G1X-2858Y21413D1*
G1X-2775Y21455D1*
G1X-2775Y21705D1*
G1X-2858Y21747D1*
G1X-3275Y21988D2*
G1X-3275Y22155D1*
G1X-3275Y22072D2*
G1X-2775Y22072D1*
G1X-2858Y22155D1*
G1X-2168Y19528D2*
G1X-2168Y19862D1*
G1X-2335Y20103D2*
G1X-2418Y20145D1*
G1X-2418Y20395D1*
G1X-2335Y20437D1*
G1X-2002Y20437D1*
G1X-1918Y20395D1*
G1X-1918Y20145D1*
G1X-2002Y20103D1*
G1X-2418Y20970D2*
G1X-1918Y20970D1*
G1X-2418Y21012D2*
G1X-2418Y20762D1*
G1X-2252Y20678D1*
G1X-2085Y20678D1*
G1X-1918Y20762D1*
G1X-1918Y21012D1*
G1X-1918Y21253D2*
G1X-2085Y21253D1*
G1X-2418Y21420D1*
G1X-2085Y21587D1*
G1X-1918Y21587D1*
G1X-2168Y21870D2*
G1X-2168Y22120D1*
G1X-2085Y22162D1*
G1X-2002Y22162D1*
G1X-1918Y22120D1*
G1X-1918Y21870D1*
G1X-2002Y21828D1*
G1X-2085Y21828D1*
G1X-2418Y21995D1*
G1X-3408Y7533D2*
G1X-3658Y7408D1*
G1X-3408Y7742D2*
G1X-3408Y7492D1*
G1X-3325Y7408D1*
G1X-3242Y7408D1*
G1X-3158Y7492D1*
G1X-3158Y7742D1*
G1X-3658Y7742D1*
G1X-3658Y8275D2*
G1X-3575Y8317D1*
G1X-3242Y8317D1*
G1X-3158Y8275D1*
G1X-3158Y8025D1*
G1X-3242Y7983D1*
G1X-3575Y7983D1*
G1X-3658Y8025D1*
G1X-3658Y8275D1*
G1X-3658Y8725D2*
G1X-3158Y8725D1*
G1X-3158Y8558D2*
G1X-3158Y8892D1*
G1X-3658Y9425D2*
G1X-3575Y9467D1*
G1X-3242Y9467D1*
G1X-3158Y9425D1*
G1X-3158Y9175D1*
G1X-3242Y9133D1*
G1X-3575Y9133D1*
G1X-3658Y9175D1*
G1X-3658Y9425D1*
G1X-3658Y9708D2*
G1X-3158Y9708D1*
G1X-3242Y9792D1*
G1X-3408Y9875D1*
G1X-3242Y9958D1*
G1X-3158Y10042D1*
G1X-3658Y10042D1*
G1X27520Y2777D2*
G1X27520Y5296D1*
G1X29095Y5296D1*
G1X29095Y2777D1*
G1X27520Y2777D1*
G1X9028Y7054D2*
G1X11547Y7054D1*
G1X11547Y5479D1*
G1X9028Y5479D1*
G1X9028Y7054D1*
G1X24972Y12539D2*
G1X24909Y12539D1*
G1X24909Y12477D1*
G1X26909Y12477D2*
G1X26909Y12539D1*
G1X26847Y12539D1*
G1X26847Y10539D2*
G1X26909Y10539D1*
G1X26909Y10602D1*
G1X24972Y9977D2*
G1X24972Y10539D1*
G1X24909Y10602D1*
G1X5789Y23215D2*
G1X10720Y23215D1*
G1X10720Y20853D1*
G1X5789Y20853D1*
G1X5789Y23215D1*
G1X36560Y18890D2*
G1X36560Y17860D1*
G1X38460Y17860D1*
G1X38460Y18890D1*
G1X36560Y18890D1*
G1X36890Y18880D2*
G1X36890Y17860D1*
G1X6931Y6158D2*
G54D55*
G1X6931Y6824D1*
G1X6875Y6158D2*
G1X7209Y6158D1*
G1X7320Y6269D1*
G1X7320Y6380D1*
G1X7264Y6491D1*
G1X6931Y6491D2*
G1X7264Y6491D1*
G1X7320Y6602D1*
G1X7320Y6713D1*
G1X7209Y6824D1*
G1X6875Y6824D1*
G1X6580Y5935D2*
G1X6135Y5935D1*
G1X5618Y6158D2*
G1X5618Y6824D1*
G1X5840Y6824D2*
G1X5395Y6824D1*
G1X4711Y6158D2*
G1X4655Y6269D1*
G1X4655Y6713D1*
G1X4711Y6824D1*
G1X5044Y6824D1*
G1X5100Y6713D1*
G1X5100Y6269D1*
G1X5044Y6158D1*
G1X4711Y6158D1*
G1X3971Y6158D2*
G1X3971Y6824D1*
G1X3915Y6158D2*
G1X4249Y6158D1*
G1X4360Y6269D1*
G1X4360Y6380D1*
G1X4304Y6491D1*
G1X3971Y6491D2*
G1X4304Y6491D1*
G1X4360Y6602D1*
G1X4360Y6713D1*
G1X4249Y6824D1*
G1X3915Y6824D1*
G1X3231Y6158D2*
G1X3175Y6269D1*
G1X3175Y6713D1*
G1X3231Y6824D1*
G1X3564Y6824D1*
G1X3620Y6713D1*
G1X3620Y6269D1*
G1X3564Y6158D1*
G1X3231Y6158D1*
G1X2658Y6491D2*
G1X2880Y6491D1*
G1X2880Y6269D1*
G1X2824Y6158D1*
G1X2491Y6158D1*
G1X2435Y6269D1*
G1X2435Y6713D1*
G1X2491Y6824D1*
G1X2824Y6824D1*
G1X2880Y6713D1*
G1X2140Y6380D2*
G1X1695Y6380D1*
G1X2140Y6158D2*
G1X2140Y6491D1*
G1X1973Y6824D1*
G1X1862Y6824D1*
G1X1695Y6491D1*
G1X1695Y6158D1*
G1X1233Y6491D2*
G1X1400Y6158D1*
G1X955Y6491D2*
G1X1289Y6491D1*
G1X1400Y6602D1*
G1X1400Y6713D1*
G1X1289Y6824D1*
G1X955Y6824D1*
G1X955Y6158D1*
G1X4388Y4709D2*
G54D58*
G1X4221Y4709D1*
G1X4194Y4764D1*
G1X4194Y4875D1*
G1X4221Y4931D1*
G1X4388Y4931D1*
G1X4416Y4875D1*
G1X4416Y4820D1*
G1X4194Y4820D1*
G1X3978Y4709D2*
G1X3811Y4709D1*
G1X3784Y4764D1*
G1X3784Y4875D1*
G1X3811Y4931D1*
G1X3978Y4931D1*
G1X4006Y4875D1*
G1X4006Y4820D1*
G1X3784Y4820D1*
G1X3596Y4709D2*
G1X3402Y4709D1*
G1X3402Y5042D1*
G1X2679Y5042D2*
G1X2679Y4709D1*
G1X2512Y4709D1*
G1X2484Y4764D1*
G1X2484Y4875D1*
G1X2512Y4931D1*
G1X2679Y4931D1*
G1X2297Y4709D2*
G1X2185Y4709D1*
G1X2241Y4709D2*
G1X2241Y4931D1*
G1X2185Y4931D1*
G1X1970Y4931D2*
G1X1859Y4709D1*
G1X1748Y4931D1*
G1X1393Y4931D2*
G1X1504Y4931D1*
G1X1532Y4875D1*
G1X1532Y4764D1*
G1X1560Y4709D1*
G1X1365Y4709D1*
G1X1338Y4764D1*
G1X1365Y4820D1*
G1X1532Y4820D1*
G1X955Y4709D2*
G1X955Y5042D1*
G1X928Y4709D2*
G1X1094Y4709D1*
G1X1150Y4820D1*
G1X1150Y4931D1*
G1X1094Y5042D1*
G1X928Y5042D1*
G1X7529Y5289D2*
G1X7529Y5455D1*
G1X7501Y5511D1*
G1X7335Y5511D1*
G1X7335Y5289D1*
G1X6980Y5511D2*
G1X7091Y5511D1*
G1X7119Y5455D1*
G1X7119Y5344D1*
G1X7147Y5289D1*
G1X6952Y5289D1*
G1X6925Y5344D1*
G1X6952Y5400D1*
G1X7119Y5400D1*
G1X6626Y5289D2*
G1X6626Y5455D1*
G1X6737Y5289D2*
G1X6737Y5455D1*
G1X6709Y5511D1*
G1X6653Y5511D1*
G1X6626Y5455D1*
G1X6598Y5511D1*
G1X6542Y5511D1*
G1X6515Y5455D1*
G1X6515Y5289D1*
G1X6327Y5622D2*
G1X6327Y5289D1*
G1X6160Y5289D1*
G1X6132Y5344D1*
G1X6132Y5455D1*
G1X6160Y5511D1*
G1X6327Y5511D1*
G1X5917Y5289D2*
G1X5750Y5289D1*
G1X5722Y5344D1*
G1X5722Y5455D1*
G1X5750Y5511D1*
G1X5917Y5511D1*
G1X5945Y5455D1*
G1X5945Y5400D1*
G1X5722Y5400D1*
G1X5535Y5289D2*
G1X5423Y5289D1*
G1X5479Y5289D2*
G1X5479Y5511D1*
G1X5423Y5511D1*
G1X5208Y5511D2*
G1X5097Y5511D1*
G1X5069Y5455D1*
G1X5014Y5455D1*
G1X5014Y5511D2*
G1X5014Y5289D1*
G1X4770Y5455D2*
G1X4604Y5455D1*
G1X4604Y5289D2*
G1X4604Y5622D1*
G1X4826Y5622D1*
G1X3881Y5289D2*
G1X3881Y5455D1*
G1X3853Y5511D1*
G1X3686Y5511D1*
G1X3686Y5289D1*
G1X3332Y5511D2*
G1X3443Y5511D1*
G1X3471Y5455D1*
G1X3471Y5344D1*
G1X3499Y5289D1*
G1X3304Y5289D1*
G1X3276Y5344D1*
G1X3304Y5400D1*
G1X3471Y5400D1*
G1X3089Y5289D2*
G1X3089Y5455D1*
G1X3061Y5511D1*
G1X2894Y5511D1*
G1X2894Y5289D2*
G1X2894Y5622D1*
G1X2679Y5511D2*
G1X2512Y5511D1*
G1X2706Y5289D2*
G1X2595Y5289D1*
G1X2568Y5344D1*
G1X2568Y5622D1*
G1X2158Y5511D2*
G1X2269Y5511D1*
G1X2296Y5455D1*
G1X2296Y5344D1*
G1X2324Y5289D1*
G1X2130Y5289D1*
G1X2102Y5344D1*
G1X2130Y5400D1*
G1X2296Y5400D1*
G1X1914Y5289D2*
G1X1914Y5455D1*
G1X1887Y5511D1*
G1X1720Y5511D1*
G1X1720Y5289D1*
G1X1338Y5289D2*
G1X1310Y5344D1*
G1X1310Y5455D1*
G1X1338Y5511D1*
G1X1504Y5511D1*
G1X1532Y5455D1*
G1X1532Y5344D1*
G1X1504Y5289D1*
G1X1338Y5289D1*
G1X928Y5400D2*
G1X928Y5344D1*
G1X955Y5289D1*
G1X1067Y5289D1*
G1X1094Y5344D1*
G1X1094Y5622D1*
G1X1122Y5622D2*
G1X1011Y5622D1*
G1X5690Y1425D2*
G1X5690Y1591D1*
G1X5524Y1369D2*
G1X5524Y1591D1*
G1X5857Y1591D1*
G1X5857Y1369D1*
G1X5690Y1890D2*
G1X5690Y1779D1*
G1X5579Y1779D1*
G1X5524Y1807D1*
G1X5524Y1974D1*
G1X5579Y2001D1*
G1X5802Y2001D1*
G1X5857Y1974D1*
G1X5857Y1807D1*
G1X5802Y1779D1*
G1X5524Y2384D2*
G1X5857Y2384D1*
G1X5524Y2411D2*
G1X5524Y2245D1*
G1X5635Y2189D1*
G1X5746Y2189D1*
G1X5857Y2245D1*
G1X5857Y2411D1*
G1X5635Y2599D2*
G1X5635Y2821D1*
G1X5524Y2599D2*
G1X5690Y2599D1*
G1X5857Y2682D1*
G1X5857Y2738D1*
G1X5690Y2821D1*
G1X5524Y2821D1*
G1X5524Y3204D2*
G1X5857Y3204D1*
G1X5524Y3231D2*
G1X5524Y3065D1*
G1X5579Y3009D1*
G1X5635Y3009D1*
G1X5690Y3037D1*
G1X5690Y3204D2*
G1X5690Y3037D1*
G1X5746Y3009D1*
G1X5802Y3009D1*
G1X5857Y3065D1*
G1X5857Y3231D1*
G1X5857Y3475D2*
G1X5857Y3474D1*
G1X5857Y3475D1*
G1X5524Y3419D2*
G1X5524Y3530D1*
G1X5524Y3475D2*
G1X5746Y3475D1*
G1X5746Y3530D1*
G1X7791Y369D2*
G1X7458Y369D1*
G1X7513Y424D1*
G1X7735Y535D1*
G1X7791Y591D1*
G1X7458Y591D1*
G1X7569Y779D2*
G1X7569Y1001D1*
G1X7458Y779D2*
G1X7624Y779D1*
G1X7791Y862D1*
G1X7791Y918D1*
G1X7624Y1001D1*
G1X7458Y1001D1*
G1X7458Y1189D2*
G1X7791Y1189D1*
G1X7735Y1244D1*
G1X7624Y1300D1*
G1X7735Y1355D1*
G1X7791Y1411D1*
G1X7458Y1411D1*
G1X7624Y1682D2*
G1X7458Y1599D1*
G1X7624Y1821D2*
G1X7624Y1654D1*
G1X7680Y1599D1*
G1X7735Y1599D1*
G1X7791Y1654D1*
G1X7791Y1821D1*
G1X7458Y1821D1*
G1X7458Y2009D2*
G1X7458Y2120D1*
G1X7458Y2064D2*
G1X7791Y2064D1*
G1X7791Y2009D2*
G1X7791Y2120D1*
G1X7458Y2419D2*
G1X7458Y2363D1*
G1X7513Y2363D1*
G1X7513Y2419D1*
G1X7458Y2419D1*
G1X7458Y2801D2*
G1X7513Y2856D1*
G1X7569Y2884D1*
G1X7680Y2884D1*
G1X7735Y2856D1*
G1X7791Y2801D1*
G1X7791Y2745D1*
G1X7735Y2690D1*
G1X7680Y2662D1*
G1X7569Y2662D1*
G1X7513Y2690D1*
G1X7458Y2745D1*
G1X7458Y2801D1*
G1X7458Y3211D2*
G1X7513Y3266D1*
G1X7569Y3294D1*
G1X7680Y3294D1*
G1X7735Y3266D1*
G1X7791Y3211D1*
G1X7791Y3155D1*
G1X7735Y3100D1*
G1X7680Y3072D1*
G1X7569Y3072D1*
G1X7513Y3100D1*
G1X7458Y3155D1*
G1X7458Y3211D1*
G1X7458Y3482D2*
G1X7458Y3704D1*
G1X7680Y3482D1*
G1X7735Y3482D1*
G1X7791Y3510D1*
G1X7791Y3676D1*
G1X7735Y3704D1*
G1X7458Y3892D2*
G1X7624Y4059D1*
G1X7791Y3892D1*
G1X7791Y4114D2*
G1X7458Y4114D1*
G1X7458Y4413D2*
G1X7791Y4413D1*
G1X7791Y4302D2*
G1X7791Y4524D1*
G1X7735Y4712D2*
G1X7791Y4740D1*
G1X7791Y4906D1*
G1X7735Y4934D1*
G1X7680Y4934D1*
G1X7624Y4906D1*
G1X7624Y4740D1*
G1X7569Y4712D1*
G1X7513Y4712D1*
G1X7458Y4740D1*
G1X7458Y4906D1*
G1X7513Y4934D1*
G1X19341Y18449D2*
G1X19008Y18449D1*
G1X19063Y18504D1*
G1X19285Y18615D1*
G1X19341Y18671D1*
G1X19008Y18671D1*
G1X19008Y18859D2*
G1X19008Y18970D1*
G1X19008Y18914D2*
G1X19341Y18914D1*
G1X19341Y18859D2*
G1X19341Y18970D1*
G1X19119Y19213D2*
G1X19119Y19435D1*
G1X19008Y19213D2*
G1X19174Y19213D1*
G1X19341Y19296D1*
G1X19341Y19352D1*
G1X19174Y19435D1*
G1X19008Y19435D1*
G1X19174Y19706D2*
G1X19008Y19623D1*
G1X19174Y19845D2*
G1X19174Y19679D1*
G1X19230Y19623D1*
G1X19285Y19623D1*
G1X19341Y19679D1*
G1X19341Y19845D1*
G1X19008Y19845D1*
G1X19008Y20228D2*
G1X19341Y20228D1*
G1X19008Y20255D2*
G1X19008Y20089D1*
G1X19063Y20033D1*
G1X19119Y20033D1*
G1X19174Y20061D1*
G1X19174Y20228D2*
G1X19174Y20061D1*
G1X19230Y20033D1*
G1X19285Y20033D1*
G1X19341Y20089D1*
G1X19341Y20255D1*
G1X19008Y20499D2*
G1X19008Y20443D1*
G1X19063Y20443D1*
G1X19063Y20499D1*
G1X19008Y20499D1*
G1X19008Y20881D2*
G1X19063Y20936D1*
G1X19119Y20964D1*
G1X19230Y20964D1*
G1X19285Y20936D1*
G1X19341Y20881D1*
G1X19341Y20825D1*
G1X19285Y20770D1*
G1X19230Y20742D1*
G1X19119Y20742D1*
G1X19063Y20770D1*
G1X19008Y20825D1*
G1X19008Y20881D1*
G1X19008Y21291D2*
G1X19063Y21346D1*
G1X19119Y21374D1*
G1X19230Y21374D1*
G1X19285Y21346D1*
G1X19341Y21291D1*
G1X19341Y21235D1*
G1X19285Y21180D1*
G1X19230Y21152D1*
G1X19119Y21152D1*
G1X19063Y21180D1*
G1X19008Y21235D1*
G1X19008Y21291D1*
G1X19008Y21562D2*
G1X19008Y21784D1*
G1X19230Y21562D1*
G1X19285Y21562D1*
G1X19341Y21590D1*
G1X19341Y21756D1*
G1X19285Y21784D1*
G1X19008Y21972D2*
G1X19174Y22139D1*
G1X19341Y21972D1*
G1X19341Y22194D2*
G1X19008Y22194D1*
G1X19008Y22493D2*
G1X19341Y22493D1*
G1X19341Y22382D2*
G1X19341Y22604D1*
G1X19285Y22792D2*
G1X19341Y22820D1*
G1X19341Y22986D1*
G1X19285Y23014D1*
G1X19230Y23014D1*
G1X19174Y22986D1*
G1X19174Y22820D1*
G1X19119Y22792D1*
G1X19063Y22792D1*
G1X19008Y22820D1*
G1X19008Y22986D1*
G1X19063Y23014D1*
G1X-3857Y20180D2*
G1X-3523Y20180D1*
G1X-3523Y20069D2*
G1X-3523Y20291D1*
G1X-3523Y20479D2*
G1X-3801Y20479D1*
G1X-3857Y20507D1*
G1X-3857Y20673D1*
G1X-3801Y20701D1*
G1X-3523Y20701D1*
G1X-3690Y21111D2*
G1X-3690Y20944D1*
G1X-3634Y20889D1*
G1X-3579Y20889D1*
G1X-3523Y20944D1*
G1X-3523Y21111D1*
G1X-3857Y21111D1*
G1X-3523Y21299D2*
G1X-3857Y21299D1*
G1X-3801Y21354D1*
G1X-3579Y21465D1*
G1X-3523Y21521D1*
G1X-3857Y21521D1*
G1X-3857Y21709D2*
G1X-3857Y21820D1*
G1X-3857Y21764D2*
G1X-3523Y21764D1*
G1X-3523Y21709D2*
G1X-3523Y21820D1*
G1X6362Y4574D2*
G1X6362Y4685D1*
G1X6362Y4630D2*
G1X6696Y4630D1*
G1X6640Y4685D1*
G1X6454Y99D2*
G1X6454Y321D1*
G1X6676Y210D1*
G1X6676Y154D1*
G1X6342Y154D1*
G1X27290Y5148D2*
G1X27290Y5036D1*
G1X27290Y5092D2*
G1X26956Y5092D1*
G1X27012Y5036D1*
G1X27012Y4793D2*
G1X26956Y4765D1*
G1X26956Y4599D1*
G1X27012Y4571D1*
G1X27068Y4571D1*
G1X27123Y4599D1*
G1X27123Y4765D1*
G1X27179Y4793D1*
G1X27234Y4793D1*
G1X27290Y4765D1*
G1X27290Y4599D1*
G1X27234Y4571D1*
G1X26956Y4383D2*
G1X27234Y4383D1*
G1X27290Y4355D1*
G1X27290Y4189D1*
G1X27234Y4161D1*
G1X26956Y4161D1*
G1X10009Y7398D2*
G1X9717Y7398D1*
G1X9717Y7898D1*
G1X9516Y7815D2*
G1X9474Y7898D1*
G1X9224Y7898D1*
G1X9182Y7815D1*
G1X9182Y7732D1*
G1X9224Y7648D1*
G1X9474Y7648D1*
G1X9516Y7565D1*
G1X9516Y7482D1*
G1X9474Y7398D1*
G1X9224Y7398D1*
G1X9182Y7482D1*
G1X8897Y7648D2*
G1X8647Y7648D1*
G1X8981Y7398D2*
G1X8647Y7398D1*
G1X8647Y7898D1*
G1X8981Y7898D1*
G1X8446Y7898D2*
G1X8446Y7398D1*
G1X8362Y7482D1*
G1X8196Y7815D1*
G1X8112Y7898D1*
G1X8112Y7398D1*
G1X7188Y7565D2*
G1X6855Y7565D1*
G1X7188Y7398D2*
G1X7188Y7648D1*
G1X7063Y7898D1*
G1X6980Y7898D1*
G1X6855Y7648D1*
G1X6855Y7398D1*
G1X6653Y7398D2*
G1X6362Y7398D1*
G1X6362Y7898D1*
G1X6160Y7482D2*
G1X6118Y7398D1*
G1X5868Y7398D1*
G1X5827Y7482D1*
G1X5827Y7815D1*
G1X5868Y7898D1*
G1X6118Y7898D1*
G1X6160Y7815D1*
G1X5625Y7898D2*
G1X5625Y7482D1*
G1X5583Y7398D1*
G1X5333Y7398D1*
G1X5292Y7482D1*
G1X5292Y7898D1*
G1X30290Y12265D2*
G1X30422Y12527D1*
G1X30247Y12527D1*
G1X30065Y12265D2*
G1X29977Y12265D1*
G1X30021Y12265D2*
G1X30021Y12527D1*
G1X29977Y12484D1*
G1X30280Y8299D2*
G1X30324Y8256D1*
G1X30412Y8256D1*
G1X30455Y8299D1*
G1X30455Y8343D1*
G1X30368Y8431D1*
G1X30455Y8518D1*
G1X30280Y8518D1*
G1X29923Y8299D2*
G1X29967Y8256D1*
G1X30055Y8256D1*
G1X30098Y8299D1*
G1X30098Y8343D1*
G1X30011Y8431D1*
G1X30098Y8518D1*
G1X29923Y8518D1*
G1X35239Y8340D2*
G1X35064Y8340D1*
G1X35152Y8515D1*
G1X35195Y8515D1*
G1X35195Y8253D1*
G1X34707Y8297D2*
G1X34751Y8253D1*
G1X34839Y8253D1*
G1X34882Y8297D1*
G1X34882Y8340D1*
G1X34795Y8428D1*
G1X34882Y8515D1*
G1X34707Y8515D1*
G1X30775Y16742D2*
G1X30687Y16742D1*
G1X30731Y16742D2*
G1X30731Y17005D1*
G1X30687Y16961D1*
G1X30377Y14415D2*
G1X30245Y14415D1*
G1X30223Y14459D1*
G1X30223Y14502D1*
G1X30245Y14546D1*
G1X30377Y14546D1*
G1X30398Y14502D1*
G1X30398Y14459D1*
G1X30311Y14284D1*
G1X34452Y16780D2*
G1X34277Y16780D1*
G1X34452Y16955D1*
G1X34452Y16999D1*
G1X34430Y17042D1*
G1X34299Y17042D1*
G1X34277Y16999D1*
G1X35056Y14279D2*
G1X35012Y14323D1*
G1X34990Y14367D1*
G1X34990Y14454D1*
G1X35012Y14498D1*
G1X35056Y14542D1*
G1X35100Y14542D1*
G1X35143Y14498D1*
G1X35165Y14454D1*
G1X35165Y14367D1*
G1X35143Y14323D1*
G1X35100Y14279D1*
G1X35056Y14279D1*
G1X34809Y14279D2*
G1X34721Y14279D1*
G1X34765Y14279D2*
G1X34765Y14542D1*
G1X34721Y14498D1*
G1X35153Y12427D2*
G1X35175Y12471D1*
G1X35175Y12515D1*
G1X35153Y12559D1*
G1X35022Y12559D1*
G1X35000Y12515D1*
G1X35000Y12471D1*
G1X35022Y12427D1*
G1X35153Y12427D1*
G1X35175Y12384D1*
G1X35175Y12340D1*
G1X35153Y12296D1*
G1X35022Y12296D1*
G1X35000Y12340D1*
G1X35000Y12384D1*
G1X35022Y12427D1*
G1X34819Y12296D2*
G1X34731Y12296D1*
G1X34775Y12296D2*
G1X34775Y12559D1*
G1X34731Y12515D1*
G1X30260Y10316D2*
G1X30282Y10272D1*
G1X30413Y10272D1*
G1X30435Y10316D1*
G1X30435Y10403D1*
G1X30392Y10447D1*
G1X30260Y10447D1*
G1X30260Y10535D1*
G1X30435Y10535D1*
G1X30078Y10272D2*
G1X29903Y10272D1*
G1X30078Y10447D1*
G1X30078Y10491D1*
G1X30057Y10535D1*
G1X29925Y10535D1*
G1X29903Y10491D1*
G1X35096Y10402D2*
G1X35227Y10402D1*
G1X35249Y10358D1*
G1X35249Y10315D1*
G1X35227Y10271D1*
G1X35096Y10271D1*
G1X35074Y10315D1*
G1X35074Y10358D1*
G1X35162Y10533D1*
G1X34892Y10271D2*
G1X34717Y10271D1*
G1X34892Y10446D1*
G1X34892Y10489D1*
G1X34870Y10533D1*
G1X34739Y10533D1*
G1X34717Y10489D1*
G1X7010Y410D2*
G1X6010Y410D1*
G1X6010Y4410D1*
G1X7010Y4410D1*
G1X7010Y410D1*
G1X5240Y13380D2*
G1X5240Y14380D1*
G1X7240Y14380D1*
G1X7240Y13380D1*
G1X5240Y13380D1*
G1X10860Y18110D2*
G1X10860Y23240D1*
G1X18860Y23240D1*
G1X18860Y18110D1*
G1X10860Y18110D1*
G1X27035Y19870D2*
G1X27035Y17370D1*
G1X27785Y17370D1*
G1X27785Y19870D1*
G1X27035Y19870D1*
G1X27035Y19620D2*
G1X27785Y19620D1*
G1X28440Y8390D2*
G1X27440Y8390D1*
G1X27440Y10390D1*
G1X28440Y10390D1*
G1X28440Y8390D1*
G1X19563Y15520D2*
G1X22813Y15520D1*
G1X22813Y14020D1*
G1X19563Y14020D1*
G1X19563Y15520D1*
G1X22563Y14020D2*
G1X22563Y15520D1*
G1X20565Y7450D2*
G1X20565Y3450D1*
G1X21315Y3450D1*
G1X21315Y7450D1*
G1X20565Y7450D1*
G1X20565Y7200D2*
G1X21315Y7200D1*
G1X21555Y9850D2*
G1X21555Y12350D1*
G1X20805Y12350D1*
G1X20805Y9850D1*
G1X21555Y9850D1*
G1X21555Y10100D2*
G1X20805Y10100D1*
G1X16020Y5170D2*
G1X16020Y40D1*
G1X8020Y40D1*
G1X8020Y5170D1*
G1X16020Y5170D1*
G1X12030Y7490D2*
G1X13030Y7490D1*
G1X13030Y5490D1*
G1X12030Y5490D1*
G1X12030Y7490D1*
G1X45210Y6650D2*
G1X45210Y16650D1*
G1X47210Y16650D1*
G1X47210Y6650D1*
G1X45210Y6650D1*
G1X45710Y6650D2*
G1X45710Y6900D1*
G1X46710Y6900D1*
G1X46710Y6650D1*
G1X36840Y2090D2*
G1X38280Y2090D1*
G1X38280Y2330D2*
G1X36840Y2330D1*
G1X36840Y330D1*
G1X38280Y330D1*
G1X38280Y2330D1*
G1X42460Y5790D2*
G1X41020Y5790D1*
G1X41020Y5550D2*
G1X42460Y5550D1*
G1X42460Y7550D1*
G1X41020Y7550D1*
G1X41020Y5550D1*
G1X36840Y4840D2*
G1X38280Y4840D1*
G1X38280Y5080D2*
G1X36840Y5080D1*
G1X36840Y3080D1*
G1X38280Y3080D1*
G1X38280Y5080D1*
G1X32225Y1570D2*
G1X32225Y3570D1*
G1X32975Y3570D1*
G1X32975Y1570D1*
G1X32225Y1570D1*
G1X32975Y1820D2*
G1X32225Y1820D1*
G1X26930Y23250D2*
G1X26930Y20120D1*
G1X33880Y20120D1*
G1X33880Y23250D1*
G1X26930Y23250D1*
G1X14840Y11275D2*
G1X16840Y11275D1*
G1X16840Y10525D1*
G1X14840Y10525D1*
G1X14840Y11275D1*
G1X15090Y10525D2*
G1X15090Y11275D1*
G1X18740Y12410D2*
G1X17740Y12410D1*
G1X17740Y14410D1*
G1X18740Y14410D1*
G1X18740Y12410D1*
G1X37265Y16060D2*
G1X37265Y13560D1*
G1X38015Y13560D1*
G1X38015Y16060D1*
G1X37265Y16060D1*
G1X37265Y15810D2*
G1X38015Y15810D1*
G1X36840Y10350D2*
G1X38280Y10350D1*
G1X38280Y10590D2*
G1X36840Y10590D1*
G1X36840Y8590D1*
G1X38280Y8590D1*
G1X38280Y10590D1*
G1X39090Y11830D2*
G54D59*
G1X39230Y11830D1*
G1X39230Y11630D1*
G1X39090Y11630D1*
G1X39090Y11830D1*
G1X1282Y3856D2*
G54D62*
G1X652Y3856D1*
G1X652Y2321D1*
G1X1282Y2321D2*
G1X652Y2321D1*
G1X1282Y3856D2*
G1X1282Y2321D1*
G1X1268Y3856D2*
G1X1268Y2321D1*
G1X1259Y3856D2*
G1X1259Y2321D1*
G1X1250Y3856D2*
G1X1250Y2321D1*
G1X1241Y3856D2*
G1X1241Y2321D1*
G1X1232Y3856D2*
G1X1232Y2321D1*
G1X1223Y3856D2*
G1X1223Y2321D1*
G1X1214Y3856D2*
G1X1214Y2321D1*
G1X1205Y3856D2*
G1X1205Y2321D1*
G1X1196Y3856D2*
G1X1196Y2321D1*
G1X1187Y3856D2*
G1X1187Y2321D1*
G1X1178Y3856D2*
G1X1178Y2321D1*
G1X1169Y3856D2*
G1X1169Y2321D1*
G1X1160Y3856D2*
G1X1160Y2321D1*
G1X1151Y3856D2*
G1X1151Y2321D1*
G1X1142Y3856D2*
G1X1142Y2321D1*
G1X1133Y3856D2*
G1X1133Y2321D1*
G1X1124Y3856D2*
G1X1124Y2321D1*
G1X1115Y3856D2*
G1X1115Y2321D1*
G1X1106Y3856D2*
G1X1106Y2321D1*
G1X1097Y3856D2*
G1X1097Y2321D1*
G1X1088Y3856D2*
G1X1088Y2321D1*
G1X1079Y3856D2*
G1X1079Y2321D1*
G1X1070Y3856D2*
G1X1070Y2321D1*
G1X1061Y3856D2*
G1X1061Y2321D1*
G1X1052Y3856D2*
G1X1052Y2321D1*
G1X1043Y3856D2*
G1X1043Y2321D1*
G1X1034Y3856D2*
G1X1034Y2321D1*
G1X1025Y3856D2*
G1X1025Y2321D1*
G1X1016Y3856D2*
G1X1016Y2321D1*
G1X1007Y3856D2*
G1X1007Y2321D1*
G1X998Y3856D2*
G1X998Y2321D1*
G1X989Y3856D2*
G1X989Y2321D1*
G1X980Y3856D2*
G1X980Y2321D1*
G1X971Y3856D2*
G1X971Y2321D1*
G1X962Y3856D2*
G1X962Y2321D1*
G1X953Y3856D2*
G1X953Y2321D1*
G1X944Y3856D2*
G1X944Y2321D1*
G1X935Y3856D2*
G1X935Y2321D1*
G1X926Y3856D2*
G1X926Y2321D1*
G1X917Y3856D2*
G1X917Y2321D1*
G1X908Y3856D2*
G1X908Y2321D1*
G1X899Y3856D2*
G1X899Y2321D1*
G1X890Y3856D2*
G1X890Y2321D1*
G1X881Y3856D2*
G1X881Y2321D1*
G1X872Y3856D2*
G1X872Y2321D1*
G1X863Y3856D2*
G1X863Y2321D1*
G1X854Y3856D2*
G1X854Y2321D1*
G1X845Y3856D2*
G1X845Y2321D1*
G1X836Y3856D2*
G1X836Y2321D1*
G1X827Y3856D2*
G1X827Y2321D1*
G1X818Y3856D2*
G1X818Y2321D1*
G1X809Y3856D2*
G1X809Y2321D1*
G1X800Y3856D2*
G1X800Y2321D1*
G1X791Y3856D2*
G1X791Y2321D1*
G1X782Y3856D2*
G1X782Y2321D1*
G1X773Y3856D2*
G1X773Y2321D1*
G1X764Y3856D2*
G1X764Y2321D1*
G1X755Y3856D2*
G1X755Y2321D1*
G1X746Y3856D2*
G1X746Y2321D1*
G1X737Y3856D2*
G1X737Y2321D1*
G1X728Y3856D2*
G1X728Y2321D1*
G1X719Y3856D2*
G1X719Y2321D1*
G1X710Y3856D2*
G1X710Y2321D1*
G1X701Y3856D2*
G1X701Y2321D1*
G1X692Y3856D2*
G1X692Y2321D1*
G1X683Y3856D2*
G1X683Y2321D1*
G1X674Y3856D2*
G1X674Y2321D1*
G1X665Y3856D2*
G1X665Y2321D1*
G1X1282Y3846D2*
G1X652Y3846D1*
G1X1282Y3837D2*
G1X652Y3837D1*
G1X1282Y3828D2*
G1X652Y3828D1*
G1X1282Y3819D2*
G1X652Y3819D1*
G1X1282Y3810D2*
G1X652Y3810D1*
G1X1282Y3801D2*
G1X652Y3801D1*
G1X1282Y3792D2*
G1X652Y3792D1*
G1X1282Y3783D2*
G1X652Y3783D1*
G1X1282Y3774D2*
G1X652Y3774D1*
G1X1282Y3765D2*
G1X652Y3765D1*
G1X1282Y3756D2*
G1X652Y3756D1*
G1X1282Y3747D2*
G1X652Y3747D1*
G1X1282Y3738D2*
G1X652Y3738D1*
G1X1282Y3729D2*
G1X652Y3729D1*
G1X1282Y3720D2*
G1X652Y3720D1*
G1X1282Y3711D2*
G1X652Y3711D1*
G1X1282Y3702D2*
G1X652Y3702D1*
G1X1282Y3693D2*
G1X652Y3693D1*
G1X1282Y3684D2*
G1X652Y3684D1*
G1X1282Y3675D2*
G1X652Y3675D1*
G1X1282Y3666D2*
G1X652Y3666D1*
G1X1282Y3657D2*
G1X652Y3657D1*
G1X1282Y3648D2*
G1X652Y3648D1*
G1X1282Y3639D2*
G1X652Y3639D1*
G1X1282Y3630D2*
G1X652Y3630D1*
G1X1282Y3621D2*
G1X652Y3621D1*
G1X1282Y3612D2*
G1X652Y3612D1*
G1X1282Y3603D2*
G1X652Y3603D1*
G1X1282Y3594D2*
G1X652Y3594D1*
G1X1282Y3585D2*
G1X652Y3585D1*
G1X1282Y3576D2*
G1X652Y3576D1*
G1X1282Y3567D2*
G1X652Y3567D1*
G1X1282Y3558D2*
G1X652Y3558D1*
G1X1282Y3549D2*
G1X652Y3549D1*
G1X1282Y3540D2*
G1X652Y3540D1*
G1X1282Y3531D2*
G1X652Y3531D1*
G1X1282Y3522D2*
G1X652Y3522D1*
G1X1282Y3513D2*
G1X652Y3513D1*
G1X1282Y3504D2*
G1X652Y3504D1*
G1X1282Y3495D2*
G1X652Y3495D1*
G1X1282Y3486D2*
G1X652Y3486D1*
G1X1282Y3477D2*
G1X652Y3477D1*
G1X1282Y3468D2*
G1X652Y3468D1*
G1X1282Y3459D2*
G1X652Y3459D1*
G1X1282Y3450D2*
G1X652Y3450D1*
G1X1282Y3441D2*
G1X652Y3441D1*
G1X1282Y3432D2*
G1X652Y3432D1*
G1X1282Y3423D2*
G1X652Y3423D1*
G1X1282Y3414D2*
G1X652Y3414D1*
G1X1282Y3405D2*
G1X652Y3405D1*
G1X1282Y3396D2*
G1X652Y3396D1*
G1X1282Y3387D2*
G1X652Y3387D1*
G1X1282Y3378D2*
G1X652Y3378D1*
G1X1282Y3369D2*
G1X652Y3369D1*
G1X1282Y3360D2*
G1X652Y3360D1*
G1X1282Y3351D2*
G1X652Y3351D1*
G1X1282Y3342D2*
G1X652Y3342D1*
G1X1282Y3333D2*
G1X652Y3333D1*
G1X1282Y3324D2*
G1X652Y3324D1*
G1X1282Y3315D2*
G1X652Y3315D1*
G1X1282Y3306D2*
G1X652Y3306D1*
G1X1282Y3297D2*
G1X652Y3297D1*
G1X1282Y3288D2*
G1X652Y3288D1*
G1X1282Y3279D2*
G1X652Y3279D1*
G1X1282Y3270D2*
G1X652Y3270D1*
G1X1282Y3261D2*
G1X652Y3261D1*
G1X1282Y3252D2*
G1X652Y3252D1*
G1X1282Y3243D2*
G1X652Y3243D1*
G1X1282Y3234D2*
G1X652Y3234D1*
G1X1282Y3225D2*
G1X652Y3225D1*
G1X1282Y3216D2*
G1X652Y3216D1*
G1X1282Y3207D2*
G1X652Y3207D1*
G1X1282Y3198D2*
G1X652Y3198D1*
G1X1282Y3189D2*
G1X652Y3189D1*
G1X1282Y3180D2*
G1X652Y3180D1*
G1X1282Y3171D2*
G1X652Y3171D1*
G1X1282Y3162D2*
G1X652Y3162D1*
G1X1282Y3153D2*
G1X652Y3153D1*
G1X1282Y3144D2*
G1X652Y3144D1*
G1X1282Y3135D2*
G1X652Y3135D1*
G1X1282Y3126D2*
G1X652Y3126D1*
G1X1282Y3117D2*
G1X652Y3117D1*
G1X1282Y3108D2*
G1X652Y3108D1*
G1X1282Y3099D2*
G1X652Y3099D1*
G1X1282Y3090D2*
G1X652Y3090D1*
G1X1282Y3081D2*
G1X652Y3081D1*
G1X1282Y3072D2*
G1X652Y3072D1*
G1X1282Y3063D2*
G1X652Y3063D1*
G1X1282Y3054D2*
G1X652Y3054D1*
G1X1282Y3045D2*
G1X652Y3045D1*
G1X1282Y3036D2*
G1X652Y3036D1*
G1X1282Y3027D2*
G1X652Y3027D1*
G1X1282Y3018D2*
G1X652Y3018D1*
G1X1282Y3009D2*
G1X652Y3009D1*
G1X1282Y3000D2*
G1X652Y3000D1*
G1X1282Y2991D2*
G1X652Y2991D1*
G1X1282Y2982D2*
G1X652Y2982D1*
G1X1282Y2973D2*
G1X652Y2973D1*
G1X1282Y2964D2*
G1X652Y2964D1*
G1X1282Y2955D2*
G1X652Y2955D1*
G1X1282Y2946D2*
G1X652Y2946D1*
G1X1282Y2937D2*
G1X652Y2937D1*
G1X1282Y2928D2*
G1X652Y2928D1*
G1X1282Y2919D2*
G1X652Y2919D1*
G1X1282Y2910D2*
G1X652Y2910D1*
G1X1282Y2901D2*
G1X652Y2901D1*
G1X1282Y2892D2*
G1X652Y2892D1*
G1X1282Y2883D2*
G1X652Y2883D1*
G1X1282Y2874D2*
G1X652Y2874D1*
G1X1282Y2865D2*
G1X652Y2865D1*
G1X1282Y2856D2*
G1X652Y2856D1*
G1X1282Y2847D2*
G1X652Y2847D1*
G1X1282Y2838D2*
G1X652Y2838D1*
G1X1282Y2829D2*
G1X652Y2829D1*
G1X1282Y2820D2*
G1X652Y2820D1*
G1X1282Y2811D2*
G1X652Y2811D1*
G1X1282Y2802D2*
G1X652Y2802D1*
G1X1282Y2793D2*
G1X652Y2793D1*
G1X1282Y2784D2*
G1X652Y2784D1*
G1X1282Y2775D2*
G1X652Y2775D1*
G1X1282Y2766D2*
G1X652Y2766D1*
G1X1282Y2757D2*
G1X652Y2757D1*
G1X1282Y2748D2*
G1X652Y2748D1*
G1X1282Y2739D2*
G1X652Y2739D1*
G1X1282Y2730D2*
G1X652Y2730D1*
G1X1282Y2721D2*
G1X652Y2721D1*
G1X1282Y2712D2*
G1X652Y2712D1*
G1X1282Y2703D2*
G1X652Y2703D1*
G1X1282Y2694D2*
G1X652Y2694D1*
G1X1282Y2685D2*
G1X652Y2685D1*
G1X1282Y2676D2*
G1X652Y2676D1*
G1X1282Y2667D2*
G1X652Y2667D1*
G1X1282Y2658D2*
G1X652Y2658D1*
G1X1282Y2649D2*
G1X652Y2649D1*
G1X1282Y2640D2*
G1X652Y2640D1*
G1X1282Y2631D2*
G1X652Y2631D1*
G1X1282Y2622D2*
G1X652Y2622D1*
G1X1282Y2613D2*
G1X652Y2613D1*
G1X1282Y2604D2*
G1X652Y2604D1*
G1X1282Y2595D2*
G1X652Y2595D1*
G1X1282Y2586D2*
G1X652Y2586D1*
G1X1282Y2577D2*
G1X652Y2577D1*
G1X1282Y2568D2*
G1X652Y2568D1*
G1X1282Y2559D2*
G1X652Y2559D1*
G1X1282Y2550D2*
G1X652Y2550D1*
G1X1282Y2541D2*
G1X652Y2541D1*
G1X1282Y2532D2*
G1X652Y2532D1*
G1X1282Y2523D2*
G1X652Y2523D1*
G1X1282Y2514D2*
G1X652Y2514D1*
G1X1282Y2505D2*
G1X652Y2505D1*
G1X1282Y2496D2*
G1X652Y2496D1*
G1X1282Y2487D2*
G1X652Y2487D1*
G1X1282Y2478D2*
G1X652Y2478D1*
G1X1282Y2469D2*
G1X652Y2469D1*
G1X1282Y2460D2*
G1X652Y2460D1*
G1X1282Y2451D2*
G1X652Y2451D1*
G1X1282Y2442D2*
G1X652Y2442D1*
G1X1282Y2433D2*
G1X652Y2433D1*
G1X1282Y2424D2*
G1X652Y2424D1*
G1X1282Y2415D2*
G1X652Y2415D1*
G1X1282Y2406D2*
G1X652Y2406D1*
G1X1282Y2397D2*
G1X652Y2397D1*
G1X1282Y2388D2*
G1X652Y2388D1*
G1X1282Y2379D2*
G1X652Y2379D1*
G1X1282Y2370D2*
G1X652Y2370D1*
G1X1282Y2361D2*
G1X652Y2361D1*
G1X1282Y2352D2*
G1X652Y2352D1*
G1X1282Y2343D2*
G1X652Y2343D1*
G1X1282Y2334D2*
G1X652Y2334D1*
G1X1282Y1258D2*
G1X652Y1258D1*
G1X652Y-277D1*
G1X1282Y-277D2*
G1X652Y-277D1*
G1X1282Y1258D2*
G1X1282Y-277D1*
G1X1268Y1258D2*
G1X1268Y-277D1*
G1X1259Y1258D2*
G1X1259Y-277D1*
G1X1250Y1258D2*
G1X1250Y-277D1*
G1X1241Y1258D2*
G1X1241Y-277D1*
G1X1232Y1258D2*
G1X1232Y-277D1*
G1X1223Y1258D2*
G1X1223Y-277D1*
G1X1214Y1258D2*
G1X1214Y-277D1*
G1X1205Y1258D2*
G1X1205Y-277D1*
G1X1196Y1258D2*
G1X1196Y-277D1*
G1X1187Y1258D2*
G1X1187Y-277D1*
G1X1178Y1258D2*
G1X1178Y-277D1*
G1X1169Y1258D2*
G1X1169Y-277D1*
G1X1160Y1258D2*
G1X1160Y-277D1*
G1X1151Y1258D2*
G1X1151Y-277D1*
G1X1142Y1258D2*
G1X1142Y-277D1*
G1X1133Y1258D2*
G1X1133Y-277D1*
G1X1124Y1258D2*
G1X1124Y-277D1*
G1X1115Y1258D2*
G1X1115Y-277D1*
G1X1106Y1258D2*
G1X1106Y-277D1*
G1X1097Y1258D2*
G1X1097Y-277D1*
G1X1088Y1258D2*
G1X1088Y-277D1*
G1X1079Y1258D2*
G1X1079Y-277D1*
G1X1070Y1258D2*
G1X1070Y-277D1*
G1X1061Y1258D2*
G1X1061Y-277D1*
G1X1052Y1258D2*
G1X1052Y-277D1*
G1X1043Y1258D2*
G1X1043Y-277D1*
G1X1034Y1258D2*
G1X1034Y-277D1*
G1X1025Y1258D2*
G1X1025Y-277D1*
G1X1016Y1258D2*
G1X1016Y-277D1*
G1X1007Y1258D2*
G1X1007Y-277D1*
G1X998Y1258D2*
G1X998Y-277D1*
G1X989Y1258D2*
G1X989Y-277D1*
G1X980Y1258D2*
G1X980Y-277D1*
G1X971Y1258D2*
G1X971Y-277D1*
G1X962Y1258D2*
G1X962Y-277D1*
G1X953Y1258D2*
G1X953Y-277D1*
G1X944Y1258D2*
G1X944Y-277D1*
G1X935Y1258D2*
G1X935Y-277D1*
G1X926Y1258D2*
G1X926Y-277D1*
G1X917Y1258D2*
G1X917Y-277D1*
G1X908Y1258D2*
G1X908Y-277D1*
G1X899Y1258D2*
G1X899Y-277D1*
G1X890Y1258D2*
G1X890Y-277D1*
G1X881Y1258D2*
G1X881Y-277D1*
G1X872Y1258D2*
G1X872Y-277D1*
G1X863Y1258D2*
G1X863Y-277D1*
G1X854Y1258D2*
G1X854Y-277D1*
G1X845Y1258D2*
G1X845Y-277D1*
G1X836Y1258D2*
G1X836Y-277D1*
G1X827Y1258D2*
G1X827Y-277D1*
G1X818Y1258D2*
G1X818Y-277D1*
G1X809Y1258D2*
G1X809Y-277D1*
G1X800Y1258D2*
G1X800Y-277D1*
G1X791Y1258D2*
G1X791Y-277D1*
G1X782Y1258D2*
G1X782Y-277D1*
G1X773Y1258D2*
G1X773Y-277D1*
G1X764Y1258D2*
G1X764Y-277D1*
G1X755Y1258D2*
G1X755Y-277D1*
G1X746Y1258D2*
G1X746Y-277D1*
G1X737Y1258D2*
G1X737Y-277D1*
G1X728Y1258D2*
G1X728Y-277D1*
G1X719Y1258D2*
G1X719Y-277D1*
G1X710Y1258D2*
G1X710Y-277D1*
G1X701Y1258D2*
G1X701Y-277D1*
G1X692Y1258D2*
G1X692Y-277D1*
G1X683Y1258D2*
G1X683Y-277D1*
G1X674Y1258D2*
G1X674Y-277D1*
G1X665Y1258D2*
G1X665Y-277D1*
G1X1282Y1248D2*
G1X652Y1248D1*
G1X1282Y1239D2*
G1X652Y1239D1*
G1X1282Y1230D2*
G1X652Y1230D1*
G1X1282Y1221D2*
G1X652Y1221D1*
G1X1282Y1212D2*
G1X652Y1212D1*
G1X1282Y1203D2*
G1X652Y1203D1*
G1X1282Y1194D2*
G1X652Y1194D1*
G1X1282Y1185D2*
G1X652Y1185D1*
G1X1282Y1176D2*
G1X652Y1176D1*
G1X1282Y1167D2*
G1X652Y1167D1*
G1X1282Y1158D2*
G1X652Y1158D1*
G1X1282Y1149D2*
G1X652Y1149D1*
G1X1282Y1140D2*
G1X652Y1140D1*
G1X1282Y1131D2*
G1X652Y1131D1*
G1X1282Y1122D2*
G1X652Y1122D1*
G1X1282Y1113D2*
G1X652Y1113D1*
G1X1282Y1104D2*
G1X652Y1104D1*
G1X1282Y1095D2*
G1X652Y1095D1*
G1X1282Y1086D2*
G1X652Y1086D1*
G1X1282Y1077D2*
G1X652Y1077D1*
G1X1282Y1068D2*
G1X652Y1068D1*
G1X1282Y1059D2*
G1X652Y1059D1*
G1X1282Y1050D2*
G1X652Y1050D1*
G1X1282Y1041D2*
G1X652Y1041D1*
G1X1282Y1032D2*
G1X652Y1032D1*
G1X1282Y1023D2*
G1X652Y1023D1*
G1X1282Y1014D2*
G1X652Y1014D1*
G1X1282Y1005D2*
G1X652Y1005D1*
G1X1282Y996D2*
G1X652Y996D1*
G1X1282Y987D2*
G1X652Y987D1*
G1X1282Y978D2*
G1X652Y978D1*
G1X1282Y969D2*
G1X652Y969D1*
G1X1282Y960D2*
G1X652Y960D1*
G1X1282Y951D2*
G1X652Y951D1*
G1X1282Y942D2*
G1X652Y942D1*
G1X1282Y933D2*
G1X652Y933D1*
G1X1282Y924D2*
G1X652Y924D1*
G1X1282Y915D2*
G1X652Y915D1*
G1X1282Y906D2*
G1X652Y906D1*
G1X1282Y897D2*
G1X652Y897D1*
G1X1282Y888D2*
G1X652Y888D1*
G1X1282Y879D2*
G1X652Y879D1*
G1X1282Y870D2*
G1X652Y870D1*
G1X1282Y861D2*
G1X652Y861D1*
G1X1282Y852D2*
G1X652Y852D1*
G1X1282Y843D2*
G1X652Y843D1*
G1X1282Y834D2*
G1X652Y834D1*
G1X1282Y825D2*
G1X652Y825D1*
G1X1282Y816D2*
G1X652Y816D1*
G1X1282Y807D2*
G1X652Y807D1*
G1X1282Y798D2*
G1X652Y798D1*
G1X1282Y789D2*
G1X652Y789D1*
G1X1282Y780D2*
G1X652Y780D1*
G1X1282Y771D2*
G1X652Y771D1*
G1X1282Y762D2*
G1X652Y762D1*
G1X1282Y753D2*
G1X652Y753D1*
G1X1282Y744D2*
G1X652Y744D1*
G1X1282Y735D2*
G1X652Y735D1*
G1X1282Y726D2*
G1X652Y726D1*
G1X1282Y717D2*
G1X652Y717D1*
G1X1282Y708D2*
G1X652Y708D1*
G1X1282Y699D2*
G1X652Y699D1*
G1X1282Y690D2*
G1X652Y690D1*
G1X1282Y681D2*
G1X652Y681D1*
G1X1282Y672D2*
G1X652Y672D1*
G1X1282Y663D2*
G1X652Y663D1*
G1X1282Y654D2*
G1X652Y654D1*
G1X1282Y645D2*
G1X652Y645D1*
G1X1282Y636D2*
G1X652Y636D1*
G1X1282Y627D2*
G1X652Y627D1*
G1X1282Y618D2*
G1X652Y618D1*
G1X1282Y609D2*
G1X652Y609D1*
G1X1282Y600D2*
G1X652Y600D1*
G1X1282Y591D2*
G1X652Y591D1*
G1X1282Y582D2*
G1X652Y582D1*
G1X1282Y573D2*
G1X652Y573D1*
G1X1282Y564D2*
G1X652Y564D1*
G1X1282Y555D2*
G1X652Y555D1*
G1X1282Y546D2*
G1X652Y546D1*
G1X1282Y537D2*
G1X652Y537D1*
G1X1282Y528D2*
G1X652Y528D1*
G1X1282Y519D2*
G1X652Y519D1*
G1X1282Y510D2*
G1X652Y510D1*
G1X1282Y501D2*
G1X652Y501D1*
G1X1282Y492D2*
G1X652Y492D1*
G1X1282Y483D2*
G1X652Y483D1*
G1X1282Y474D2*
G1X652Y474D1*
G1X1282Y465D2*
G1X652Y465D1*
G1X1282Y456D2*
G1X652Y456D1*
G1X1282Y447D2*
G1X652Y447D1*
G1X1282Y438D2*
G1X652Y438D1*
G1X1282Y429D2*
G1X652Y429D1*
G1X1282Y420D2*
G1X652Y420D1*
G1X1282Y411D2*
G1X652Y411D1*
G1X1282Y402D2*
G1X652Y402D1*
G1X1282Y393D2*
G1X652Y393D1*
G1X1282Y384D2*
G1X652Y384D1*
G1X1282Y375D2*
G1X652Y375D1*
G1X1282Y366D2*
G1X652Y366D1*
G1X1282Y357D2*
G1X652Y357D1*
G1X1282Y348D2*
G1X652Y348D1*
G1X1282Y339D2*
G1X652Y339D1*
G1X1282Y330D2*
G1X652Y330D1*
G1X1282Y321D2*
G1X652Y321D1*
G1X1282Y312D2*
G1X652Y312D1*
G1X1282Y303D2*
G1X652Y303D1*
G1X1282Y294D2*
G1X652Y294D1*
G1X1282Y285D2*
G1X652Y285D1*
G1X1282Y276D2*
G1X652Y276D1*
G1X1282Y267D2*
G1X652Y267D1*
G1X1282Y258D2*
G1X652Y258D1*
G1X1282Y249D2*
G1X652Y249D1*
G1X1282Y240D2*
G1X652Y240D1*
G1X1282Y231D2*
G1X652Y231D1*
G1X1282Y222D2*
G1X652Y222D1*
G1X1282Y213D2*
G1X652Y213D1*
G1X1282Y204D2*
G1X652Y204D1*
G1X1282Y195D2*
G1X652Y195D1*
G1X1282Y186D2*
G1X652Y186D1*
G1X1282Y177D2*
G1X652Y177D1*
G1X1282Y168D2*
G1X652Y168D1*
G1X1282Y159D2*
G1X652Y159D1*
G1X1282Y150D2*
G1X652Y150D1*
G1X1282Y141D2*
G1X652Y141D1*
G1X1282Y132D2*
G1X652Y132D1*
G1X1282Y123D2*
G1X652Y123D1*
G1X1282Y114D2*
G1X652Y114D1*
G1X1282Y105D2*
G1X652Y105D1*
G1X1282Y96D2*
G1X652Y96D1*
G1X1282Y87D2*
G1X652Y87D1*
G1X1282Y78D2*
G1X652Y78D1*
G1X1282Y69D2*
G1X652Y69D1*
G1X1282Y60D2*
G1X652Y60D1*
G1X1282Y51D2*
G1X652Y51D1*
G1X1282Y42D2*
G1X652Y42D1*
G1X1282Y33D2*
G1X652Y33D1*
G1X1282Y24D2*
G1X652Y24D1*
G1X1282Y15D2*
G1X652Y15D1*
G1X1282Y6D2*
G1X652Y6D1*
G1X1282Y-3D2*
G1X652Y-3D1*
G1X1282Y-12D2*
G1X652Y-12D1*
G1X1282Y-21D2*
G1X652Y-21D1*
G1X1282Y-30D2*
G1X652Y-30D1*
G1X1282Y-39D2*
G1X652Y-39D1*
G1X1282Y-48D2*
G1X652Y-48D1*
G1X1282Y-57D2*
G1X652Y-57D1*
G1X1282Y-66D2*
G1X652Y-66D1*
G1X1282Y-75D2*
G1X652Y-75D1*
G1X1282Y-84D2*
G1X652Y-84D1*
G1X1282Y-93D2*
G1X652Y-93D1*
G1X1282Y-102D2*
G1X652Y-102D1*
G1X1282Y-111D2*
G1X652Y-111D1*
G1X1282Y-120D2*
G1X652Y-120D1*
G1X1282Y-129D2*
G1X652Y-129D1*
G1X1282Y-138D2*
G1X652Y-138D1*
G1X1282Y-147D2*
G1X652Y-147D1*
G1X1282Y-156D2*
G1X652Y-156D1*
G1X1282Y-165D2*
G1X652Y-165D1*
G1X1282Y-174D2*
G1X652Y-174D1*
G1X1282Y-183D2*
G1X652Y-183D1*
G1X1282Y-192D2*
G1X652Y-192D1*
G1X1282Y-201D2*
G1X652Y-201D1*
G1X1282Y-210D2*
G1X652Y-210D1*
G1X1282Y-219D2*
G1X652Y-219D1*
G1X1282Y-228D2*
G1X652Y-228D1*
G1X1282Y-237D2*
G1X652Y-237D1*
G1X1282Y-246D2*
G1X652Y-246D1*
G1X1282Y-255D2*
G1X652Y-255D1*
G1X1282Y-264D2*
G1X652Y-264D1*
G1X44700Y3600D2*
G1X44700Y5100D1*
G1X48500Y5100D1*
G1X48500Y2100D1*
G1X44700Y2100D1*
G1X44700Y3600D1*
G1X-200Y17700D2*
G1X-200Y16200D1*
G1X-4000Y16200D1*
G1X-4000Y19200D1*
G1X-200Y19200D1*
G1X-200Y17700D1*
G1X-200Y5600D2*
G1X-200Y4100D1*
G1X-4000Y4100D1*
G1X-4000Y7100D1*
G1X-200Y7100D1*
G1X-200Y5600D1*
G1X44690Y19700D2*
G1X44690Y21200D1*
G1X48490Y21200D1*
G1X48490Y18200D1*
G1X44690Y18200D1*
G1X44690Y19700D1*
G1X12411Y12129D2*
G1X12411Y9373D1*
G1X12402Y12129D2*
G1X12402Y9373D1*
G1X12393Y12129D2*
G1X12393Y9373D1*
G1X12384Y12129D2*
G1X12384Y9373D1*
G1X12375Y12129D2*
G1X12375Y9373D1*
G1X12366Y12129D2*
G1X12366Y9373D1*
G1X12357Y12129D2*
G1X12357Y9373D1*
G1X12348Y12129D2*
G1X12348Y9373D1*
G1X12339Y12129D2*
G1X12339Y9373D1*
G1X12330Y12129D2*
G1X12330Y9373D1*
G1X12321Y12129D2*
G1X12321Y9373D1*
G1X12312Y12129D2*
G1X12312Y9373D1*
G1X12303Y12129D2*
G1X12303Y9373D1*
G1X12294Y12129D2*
G1X12294Y9373D1*
G1X12285Y12129D2*
G1X12285Y9373D1*
G1X12276Y12129D2*
G1X12276Y9373D1*
G1X12267Y12129D2*
G1X12267Y9373D1*
G1X12258Y12129D2*
G1X12258Y9373D1*
G1X12249Y12129D2*
G1X12249Y9373D1*
G1X12240Y12129D2*
G1X12240Y9373D1*
G1X12231Y12129D2*
G1X12231Y9373D1*
G1X12222Y12129D2*
G1X12222Y9373D1*
G1X12213Y12129D2*
G1X12213Y9373D1*
G1X12204Y12129D2*
G1X12204Y9373D1*
G1X12195Y12129D2*
G1X12195Y9373D1*
G1X12186Y12129D2*
G1X12186Y9373D1*
G1X12177Y12129D2*
G1X12177Y9373D1*
G1X12168Y12129D2*
G1X12168Y9373D1*
G1X12159Y12129D2*
G1X12159Y9373D1*
G1X12150Y12129D2*
G1X12150Y9373D1*
G1X12141Y12129D2*
G1X12141Y9373D1*
G1X12132Y12129D2*
G1X12132Y9373D1*
G1X12123Y12129D2*
G1X12123Y9373D1*
G1X12114Y12129D2*
G1X12114Y9373D1*
G1X12105Y12129D2*
G1X12105Y9373D1*
G1X12096Y12129D2*
G1X12096Y9373D1*
G1X12087Y12129D2*
G1X12087Y9373D1*
G1X12078Y12129D2*
G1X12078Y9373D1*
G1X12069Y12129D2*
G1X12069Y9373D1*
G1X12060Y12129D2*
G1X12060Y9373D1*
G1X12051Y12129D2*
G1X12051Y9373D1*
G1X12042Y12129D2*
G1X12042Y9373D1*
G1X12033Y12129D2*
G1X12033Y9373D1*
G1X12024Y12129D2*
G1X12024Y9373D1*
G1X12015Y12129D2*
G1X12015Y9373D1*
G1X12006Y12129D2*
G1X12006Y9373D1*
G1X11997Y12129D2*
G1X11997Y9373D1*
G1X11988Y12129D2*
G1X11988Y9373D1*
G1X11979Y12129D2*
G1X11979Y9373D1*
G1X11970Y12129D2*
G1X11970Y9373D1*
G1X11961Y12129D2*
G1X11961Y9373D1*
G1X11952Y12129D2*
G1X11952Y9373D1*
G1X11943Y12129D2*
G1X11943Y9373D1*
G1X11934Y12129D2*
G1X11934Y9373D1*
G1X11925Y12129D2*
G1X11925Y9373D1*
G1X11916Y12129D2*
G1X11916Y9373D1*
G1X11907Y12129D2*
G1X11907Y9373D1*
G1X11898Y12129D2*
G1X11898Y9373D1*
G1X11889Y12129D2*
G1X11889Y9373D1*
G1X11880Y12129D2*
G1X11880Y9373D1*
G1X11871Y12129D2*
G1X11871Y9373D1*
G1X11862Y12129D2*
G1X11862Y9373D1*
G1X11853Y12129D2*
G1X11853Y9373D1*
G1X11844Y12129D2*
G1X11844Y9373D1*
G1X11835Y12129D2*
G1X11835Y9373D1*
G1X11826Y12129D2*
G1X11826Y9373D1*
G1X11817Y12129D2*
G1X11817Y9373D1*
G1X11808Y12129D2*
G1X11808Y9373D1*
G1X11799Y12129D2*
G1X11799Y9373D1*
G1X11790Y12129D2*
G1X11790Y9373D1*
G1X11781Y12129D2*
G1X11781Y9373D1*
G1X11772Y12129D2*
G1X11772Y9373D1*
G1X11763Y12129D2*
G1X11763Y9373D1*
G1X11754Y12129D2*
G1X11754Y9373D1*
G1X11745Y12129D2*
G1X11745Y9373D1*
G1X11736Y12129D2*
G1X11736Y9373D1*
G1X11727Y12129D2*
G1X11727Y9373D1*
G1X11718Y12129D2*
G1X11718Y9373D1*
G1X11709Y12129D2*
G1X11709Y9373D1*
G1X11700Y12129D2*
G1X11700Y9373D1*
G1X11691Y12129D2*
G1X11691Y9373D1*
G1X11682Y12129D2*
G1X11682Y9373D1*
G1X11673Y12129D2*
G1X11673Y9373D1*
G1X11664Y12129D2*
G1X11664Y9373D1*
G1X11655Y12129D2*
G1X11655Y9373D1*
G1X11646Y12129D2*
G1X11646Y9373D1*
G1X11637Y12129D2*
G1X11637Y9373D1*
G1X11628Y12129D2*
G1X11628Y9373D1*
G1X11619Y12129D2*
G1X11619Y9373D1*
G1X11610Y12129D2*
G1X11610Y9373D1*
G1X11601Y12129D2*
G1X11601Y9373D1*
G1X11592Y12129D2*
G1X11592Y9373D1*
G1X11583Y12129D2*
G1X11583Y9373D1*
G1X11574Y12129D2*
G1X11574Y9373D1*
G1X11565Y12129D2*
G1X11565Y9373D1*
G1X11556Y12129D2*
G1X11556Y9373D1*
G1X11547Y12129D2*
G1X11547Y9373D1*
G1X11538Y12129D2*
G1X11538Y9373D1*
G1X11529Y12129D2*
G1X11529Y9373D1*
G1X11520Y12129D2*
G1X11520Y9373D1*
G1X11511Y12129D2*
G1X11511Y9373D1*
G1X11502Y12129D2*
G1X11502Y9373D1*
G1X11493Y12129D2*
G1X11493Y9373D1*
G1X11484Y12129D2*
G1X11484Y9373D1*
G1X11475Y12129D2*
G1X11475Y9373D1*
G1X11466Y12129D2*
G1X11466Y9373D1*
G1X11457Y12129D2*
G1X11457Y9373D1*
G1X11448Y12129D2*
G1X11448Y9373D1*
G1X11439Y12129D2*
G1X11439Y9373D1*
G1X11430Y12129D2*
G1X11430Y9373D1*
G1X11421Y12129D2*
G1X11421Y9373D1*
G1X11412Y12129D2*
G1X11412Y9373D1*
G1X11403Y12129D2*
G1X11403Y9373D1*
G1X11394Y12129D2*
G1X11394Y9373D1*
G1X11385Y12129D2*
G1X11385Y9373D1*
G1X11376Y12129D2*
G1X11376Y9373D1*
G1X11367Y12129D2*
G1X11367Y9373D1*
G1X11358Y12129D2*
G1X11358Y9373D1*
G1X11349Y12129D2*
G1X11349Y9373D1*
G1X11340Y12129D2*
G1X11340Y9373D1*
G1X11331Y12129D2*
G1X11331Y9373D1*
G1X11322Y12129D2*
G1X11322Y9373D1*
G1X11313Y12129D2*
G1X11313Y9373D1*
G1X11304Y12129D2*
G1X11304Y9373D1*
G1X11295Y12129D2*
G1X11295Y9373D1*
G1X11286Y12129D2*
G1X11286Y9373D1*
G1X11277Y12129D2*
G1X11277Y9373D1*
G1X11268Y12129D2*
G1X11268Y9373D1*
G1X11259Y12129D2*
G1X11259Y9373D1*
G1X11250Y12129D2*
G1X11250Y9373D1*
G1X11241Y12129D2*
G1X11241Y9373D1*
G1X11232Y12129D2*
G1X11232Y9373D1*
G1X11223Y12129D2*
G1X11223Y9373D1*
G1X11214Y12129D2*
G1X11214Y9373D1*
G1X11205Y12129D2*
G1X11205Y9373D1*
G1X11196Y12129D2*
G1X11196Y9373D1*
G1X11187Y12129D2*
G1X11187Y9373D1*
G1X11178Y12129D2*
G1X11178Y9373D1*
G1X11169Y12129D2*
G1X11169Y9373D1*
G1X11160Y12129D2*
G1X11160Y9373D1*
G1X11151Y12129D2*
G1X11151Y9373D1*
G1X11142Y12129D2*
G1X11142Y9373D1*
G1X11133Y12129D2*
G1X11133Y9373D1*
G1X11124Y12129D2*
G1X11124Y9373D1*
G1X11115Y12129D2*
G1X11115Y9373D1*
G1X11106Y12129D2*
G1X11106Y9373D1*
G1X11097Y12129D2*
G1X11097Y9373D1*
G1X11088Y12129D2*
G1X11088Y9373D1*
G1X11079Y12129D2*
G1X11079Y9373D1*
G1X11070Y12129D2*
G1X11070Y9373D1*
G1X11061Y12129D2*
G1X11061Y9373D1*
G1X11052Y12129D2*
G1X11052Y9373D1*
G1X11043Y12129D2*
G1X11043Y9373D1*
G1X11034Y12129D2*
G1X11034Y9373D1*
G1X11025Y12129D2*
G1X11025Y9373D1*
G1X11016Y12129D2*
G1X11016Y9373D1*
G1X11007Y12129D2*
G1X11007Y9373D1*
G1X10998Y12129D2*
G1X10998Y9373D1*
G1X10989Y12129D2*
G1X10989Y9373D1*
G1X10980Y12129D2*
G1X10980Y9373D1*
G1X10971Y12129D2*
G1X10971Y9373D1*
G1X10962Y12129D2*
G1X10962Y9373D1*
G1X10953Y12129D2*
G1X10953Y9373D1*
G1X10944Y12129D2*
G1X10944Y9373D1*
G1X10935Y12129D2*
G1X10935Y9373D1*
G1X10926Y12129D2*
G1X10926Y9373D1*
G1X10917Y12129D2*
G1X10917Y9373D1*
G1X10908Y12129D2*
G1X10908Y9373D1*
G1X10899Y12129D2*
G1X10899Y9373D1*
G1X10890Y12129D2*
G1X10890Y9373D1*
G1X10881Y12129D2*
G1X10881Y9373D1*
G1X10872Y12129D2*
G1X10872Y9373D1*
G1X10863Y12129D2*
G1X10863Y9373D1*
G1X10854Y12129D2*
G1X10854Y9373D1*
G1X10845Y12129D2*
G1X10845Y9373D1*
G1X10836Y12129D2*
G1X10836Y9373D1*
G1X10827Y12129D2*
G1X10827Y9373D1*
G1X10818Y12129D2*
G1X10818Y9373D1*
G1X10809Y12129D2*
G1X10809Y9373D1*
G1X10800Y12129D2*
G1X10800Y9373D1*
G1X10791Y12129D2*
G1X10791Y9373D1*
G1X10782Y12129D2*
G1X10782Y9373D1*
G1X10773Y12129D2*
G1X10773Y9373D1*
G1X10764Y12129D2*
G1X10764Y9373D1*
G1X10755Y12129D2*
G1X10755Y9373D1*
G1X10746Y12129D2*
G1X10746Y9373D1*
G1X10737Y12129D2*
G1X10737Y9373D1*
G1X10728Y12129D2*
G1X10728Y9373D1*
G1X10719Y12129D2*
G1X10719Y9373D1*
G1X10710Y12129D2*
G1X10710Y9373D1*
G1X10701Y12129D2*
G1X10701Y9373D1*
G1X10692Y12129D2*
G1X10692Y9373D1*
G1X10683Y12129D2*
G1X10683Y9373D1*
G1X10674Y12129D2*
G1X10674Y9373D1*
G1X10665Y12129D2*
G1X10665Y9373D1*
G1X10656Y12129D2*
G1X10656Y9373D1*
G1X10647Y12129D2*
G1X10647Y9373D1*
G1X10638Y12129D2*
G1X10638Y9373D1*
G1X10629Y12129D2*
G1X10629Y9373D1*
G1X10620Y12129D2*
G1X10620Y9373D1*
G1X10611Y12129D2*
G1X10611Y9373D1*
G1X10602Y12129D2*
G1X10602Y9373D1*
G1X10593Y12129D2*
G1X10593Y9373D1*
G1X10584Y12129D2*
G1X10584Y9373D1*
G1X10575Y12129D2*
G1X10575Y9373D1*
G1X10566Y12129D2*
G1X10566Y9373D1*
G1X10557Y12129D2*
G1X10557Y9373D1*
G1X10548Y12129D2*
G1X10548Y9373D1*
G1X10539Y12129D2*
G1X10539Y9373D1*
G1X10530Y12129D2*
G1X10530Y9373D1*
G1X10521Y12129D2*
G1X10521Y9373D1*
G1X10512Y12129D2*
G1X10512Y9373D1*
G1X10503Y12129D2*
G1X10503Y9373D1*
G1X10494Y12129D2*
G1X10494Y9373D1*
G1X10485Y12129D2*
G1X10485Y9373D1*
G1X10476Y12129D2*
G1X10476Y9373D1*
G1X10467Y12129D2*
G1X10467Y9373D1*
G1X10458Y12129D2*
G1X10458Y9373D1*
G1X10449Y12129D2*
G1X10449Y9373D1*
G1X10440Y12129D2*
G1X10440Y9373D1*
G1X10431Y12129D2*
G1X10431Y9373D1*
G1X10422Y12129D2*
G1X10422Y9373D1*
G1X10413Y12129D2*
G1X10413Y9373D1*
G1X10404Y12129D2*
G1X10404Y9373D1*
G1X10395Y12129D2*
G1X10395Y9373D1*
G1X10386Y12129D2*
G1X10386Y9373D1*
G1X10377Y12129D2*
G1X10377Y9373D1*
G1X10368Y12129D2*
G1X10368Y9373D1*
G1X10359Y12129D2*
G1X10359Y9373D1*
G1X10350Y12129D2*
G1X10350Y9373D1*
G1X10341Y12129D2*
G1X10341Y9373D1*
G1X10332Y12129D2*
G1X10332Y9373D1*
G1X10323Y12129D2*
G1X10323Y9373D1*
G1X10314Y12129D2*
G1X10314Y9373D1*
G1X10305Y12129D2*
G1X10305Y9373D1*
G1X10296Y12129D2*
G1X10296Y9373D1*
G1X10287Y12129D2*
G1X10287Y9373D1*
G1X10278Y12129D2*
G1X10278Y9373D1*
G1X10269Y12129D2*
G1X10269Y9373D1*
G1X10260Y12129D2*
G1X10260Y9373D1*
G1X10251Y12129D2*
G1X10251Y9373D1*
G1X10242Y12129D2*
G1X10242Y9373D1*
G1X10233Y12129D2*
G1X10233Y9373D1*
G1X10224Y12129D2*
G1X10224Y9373D1*
G1X10215Y12129D2*
G1X10215Y9373D1*
G1X10206Y12129D2*
G1X10206Y9373D1*
G1X10197Y12129D2*
G1X10197Y9373D1*
G1X10188Y12129D2*
G1X10188Y9373D1*
G1X10179Y12129D2*
G1X10179Y9373D1*
G1X10170Y12129D2*
G1X10170Y9373D1*
G1X10161Y12129D2*
G1X10161Y9373D1*
G1X10152Y12129D2*
G1X10152Y9373D1*
G1X10143Y12129D2*
G1X10143Y9373D1*
G1X10134Y12129D2*
G1X10134Y9373D1*
G1X10125Y12129D2*
G1X10125Y9373D1*
G1X10116Y12129D2*
G1X10116Y9373D1*
G1X10107Y12129D2*
G1X10107Y9373D1*
G1X10098Y12129D2*
G1X10098Y9373D1*
G1X10089Y12129D2*
G1X10089Y9373D1*
G1X10080Y12129D2*
G1X10080Y9373D1*
G1X10071Y12129D2*
G1X10071Y9373D1*
G1X10062Y12129D2*
G1X10062Y9373D1*
G1X10053Y12129D2*
G1X10053Y9373D1*
G1X10044Y12129D2*
G1X10044Y9373D1*
G1X10035Y12129D2*
G1X10035Y9373D1*
G1X10026Y12129D2*
G1X10026Y9373D1*
G1X10017Y12129D2*
G1X10017Y9373D1*
G1X10008Y12129D2*
G1X10008Y9373D1*
G1X9999Y12129D2*
G1X9999Y9373D1*
G1X9990Y12129D2*
G1X9990Y9373D1*
G1X9981Y12129D2*
G1X9981Y9373D1*
G1X9972Y12129D2*
G1X9972Y9373D1*
G1X9963Y12129D2*
G1X9963Y9373D1*
G1X9954Y12129D2*
G1X9954Y9373D1*
G1X9945Y12129D2*
G1X9945Y9373D1*
G1X9936Y12129D2*
G1X9936Y9373D1*
G1X9927Y12129D2*
G1X9927Y9373D1*
G1X9918Y12129D2*
G1X9918Y9373D1*
G1X9909Y12129D2*
G1X9909Y9373D1*
G1X9900Y12129D2*
G1X9900Y9373D1*
G1X9891Y12129D2*
G1X9891Y9373D1*
G1X9882Y12129D2*
G1X9882Y9373D1*
G1X9873Y12129D2*
G1X9873Y9373D1*
G1X9864Y12129D2*
G1X9864Y9373D1*
G1X9855Y12129D2*
G1X9855Y9373D1*
G1X9846Y12129D2*
G1X9846Y9373D1*
G1X9837Y12129D2*
G1X9837Y9373D1*
G1X9828Y12129D2*
G1X9828Y9373D1*
G1X9819Y12129D2*
G1X9819Y9373D1*
G1X9810Y12129D2*
G1X9810Y9373D1*
G1X9801Y12129D2*
G1X9801Y9373D1*
G1X9792Y12129D2*
G1X9792Y9373D1*
G1X9783Y12129D2*
G1X9783Y9373D1*
G1X9774Y12129D2*
G1X9774Y9373D1*
G1X9765Y12129D2*
G1X9765Y9373D1*
G1X9756Y12129D2*
G1X9756Y9373D1*
G1X9747Y12129D2*
G1X9747Y9373D1*
G1X9738Y12129D2*
G1X9738Y9373D1*
G1X9729Y12129D2*
G1X9729Y9373D1*
G1X9720Y12129D2*
G1X9720Y9373D1*
G1X9711Y12129D2*
G1X9711Y9373D1*
G1X9702Y12129D2*
G1X9702Y9373D1*
G1X9693Y12129D2*
G1X9693Y9373D1*
G1X9684Y12129D2*
G1X9684Y9373D1*
G1X9675Y12129D2*
G1X9675Y9373D1*
G1X9666Y12129D2*
G1X9666Y9373D1*
G1X9657Y12129D2*
G1X9657Y9373D1*
G1X9648Y12129D2*
G1X9648Y9373D1*
G1X9639Y12129D2*
G1X9639Y9373D1*
G1X9630Y12129D2*
G1X9630Y9373D1*
G1X9621Y12129D2*
G1X9621Y9373D1*
G1X9612Y12129D2*
G1X9612Y9373D1*
G1X9603Y12129D2*
G1X9603Y9373D1*
G1X9594Y12129D2*
G1X9594Y9373D1*
G1X9585Y12129D2*
G1X9585Y9373D1*
G1X9576Y12129D2*
G1X9576Y9373D1*
G1X9567Y12129D2*
G1X9567Y9373D1*
G1X9558Y12129D2*
G1X9558Y9373D1*
G1X9549Y12129D2*
G1X9549Y9373D1*
G1X9540Y12129D2*
G1X9540Y9373D1*
G1X9531Y12129D2*
G1X9531Y9373D1*
G1X9522Y12129D2*
G1X9522Y9373D1*
G1X9513Y12129D2*
G1X9513Y9373D1*
G1X9504Y12129D2*
G1X9504Y9373D1*
G1X9495Y12129D2*
G1X9495Y9373D1*
G1X9486Y12129D2*
G1X9486Y9373D1*
G1X9477Y12129D2*
G1X9477Y9373D1*
G1X9468Y12129D2*
G1X9468Y9373D1*
G1X9459Y12129D2*
G1X9459Y9373D1*
G1X9450Y12129D2*
G1X9450Y9373D1*
G1X9441Y12129D2*
G1X9441Y9373D1*
G1X9432Y12129D2*
G1X9432Y9373D1*
G1X9423Y12129D2*
G1X9423Y9373D1*
G1X9414Y12129D2*
G1X9414Y9373D1*
G1X9405Y12129D2*
G1X9405Y9373D1*
G1X9396Y12129D2*
G1X9396Y9373D1*
G1X9387Y12129D2*
G1X9387Y9373D1*
G1X9378Y12129D2*
G1X9378Y9373D1*
G1X9369Y12129D2*
G1X9369Y9373D1*
G1X9360Y12129D2*
G1X9360Y9373D1*
G1X9351Y12129D2*
G1X9351Y9373D1*
G1X9342Y12129D2*
G1X9342Y9373D1*
G1X9333Y12129D2*
G1X9333Y9373D1*
G1X9324Y12129D2*
G1X9324Y9373D1*
G1X9315Y12129D2*
G1X9315Y9373D1*
G1X9306Y12129D2*
G1X9306Y9373D1*
G1X9297Y12129D2*
G1X9297Y9373D1*
G1X9288Y12129D2*
G1X9288Y9373D1*
G1X9279Y12129D2*
G1X9279Y9373D1*
G1X9270Y12129D2*
G1X9270Y9373D1*
G1X9261Y12129D2*
G1X9261Y9373D1*
G1X9252Y12129D2*
G1X9252Y9373D1*
G1X9243Y12129D2*
G1X9243Y9373D1*
G1X9234Y12129D2*
G1X9234Y9373D1*
G1X9225Y12129D2*
G1X9225Y9373D1*
G1X9216Y12129D2*
G1X9216Y9373D1*
G1X9207Y12129D2*
G1X9207Y9373D1*
G1X9198Y12129D2*
G1X9198Y9373D1*
G1X9189Y12129D2*
G1X9189Y9373D1*
G1X9180Y12129D2*
G1X9180Y9373D1*
G1X9171Y12129D2*
G1X9171Y9373D1*
G1X9162Y12129D2*
G1X9162Y9373D1*
G1X9153Y12129D2*
G1X9153Y9373D1*
G1X9144Y12129D2*
G1X9144Y9373D1*
G1X9135Y12129D2*
G1X9135Y9373D1*
G1X9126Y12129D2*
G1X9126Y9373D1*
G1X9117Y12129D2*
G1X9117Y9373D1*
G1X9108Y12129D2*
G1X9108Y9373D1*
G1X9099Y12129D2*
G1X9099Y9373D1*
G1X9090Y12129D2*
G1X9090Y9373D1*
G1X9081Y12129D2*
G1X9081Y9373D1*
G1X9072Y12129D2*
G1X9072Y9373D1*
G1X9063Y12129D2*
G1X9063Y9373D1*
G1X9054Y12129D2*
G1X9054Y9373D1*
G1X9045Y12129D2*
G1X9045Y9373D1*
G1X9036Y12129D2*
G1X9036Y9373D1*
G1X9027Y12129D2*
G1X9027Y9373D1*
G1X9018Y12129D2*
G1X9018Y9373D1*
G1X9009Y12129D2*
G1X9009Y9373D1*
G1X9000Y12129D2*
G1X9000Y9373D1*
G1X8991Y12129D2*
G1X8991Y9373D1*
G1X8982Y12129D2*
G1X8982Y9373D1*
G1X8973Y12129D2*
G1X8973Y9373D1*
G1X8964Y12129D2*
G1X8964Y9373D1*
G1X8955Y12129D2*
G1X8955Y9373D1*
G1X8946Y12129D2*
G1X8946Y9373D1*
G1X8937Y12129D2*
G1X8937Y9373D1*
G1X8928Y12129D2*
G1X8928Y9373D1*
G1X8919Y12129D2*
G1X8919Y9373D1*
G1X8910Y12129D2*
G1X8910Y9373D1*
G1X8901Y12129D2*
G1X8901Y9373D1*
G1X8892Y12129D2*
G1X8892Y9373D1*
G1X8883Y12129D2*
G1X8883Y9373D1*
G1X8874Y12129D2*
G1X8874Y9373D1*
G1X8865Y12129D2*
G1X8865Y9373D1*
G1X8856Y12129D2*
G1X8856Y9373D1*
G1X8847Y12129D2*
G1X8847Y9373D1*
G1X8838Y12129D2*
G1X8838Y9373D1*
G1X8829Y12129D2*
G1X8829Y9373D1*
G1X8820Y12129D2*
G1X8820Y9373D1*
G1X8811Y12129D2*
G1X8811Y9373D1*
G1X8802Y12129D2*
G1X8802Y9373D1*
G1X8793Y12129D2*
G1X8793Y9373D1*
G1X8784Y12129D2*
G1X8784Y9373D1*
G1X8775Y12129D2*
G1X8775Y9373D1*
G1X8766Y12129D2*
G1X8766Y9373D1*
G1X8757Y12129D2*
G1X8757Y9373D1*
G1X8748Y12129D2*
G1X8748Y9373D1*
G1X8739Y12129D2*
G1X8739Y9373D1*
G1X8730Y12129D2*
G1X8730Y9373D1*
G1X8721Y12129D2*
G1X8721Y9373D1*
G1X8712Y12129D2*
G1X8712Y9373D1*
G1X8703Y12129D2*
G1X8703Y9373D1*
G1X8694Y12129D2*
G1X8694Y9373D1*
G1X8685Y12129D2*
G1X8685Y9373D1*
G1X8676Y12129D2*
G1X8676Y9373D1*
G1X8667Y12129D2*
G1X8667Y9373D1*
G1X8658Y12129D2*
G1X8658Y9373D1*
G1X8649Y12129D2*
G1X8649Y9373D1*
G1X8640Y12129D2*
G1X8640Y9373D1*
G1X8631Y12129D2*
G1X8631Y9373D1*
G1X8622Y12129D2*
G1X8622Y9373D1*
G1X8613Y12129D2*
G1X8613Y9373D1*
G1X8604Y12129D2*
G1X8604Y9373D1*
G1X8595Y12129D2*
G1X8595Y9373D1*
G1X8586Y12129D2*
G1X8586Y9373D1*
G1X8577Y12129D2*
G1X8577Y9373D1*
G1X8568Y12129D2*
G1X8568Y9373D1*
G1X8559Y12129D2*
G1X8559Y9373D1*
G1X8550Y12129D2*
G1X8550Y9373D1*
G1X8541Y12129D2*
G1X8541Y9373D1*
G1X8532Y12129D2*
G1X8532Y9373D1*
G1X8523Y12129D2*
G1X8523Y9373D1*
G1X8514Y12129D2*
G1X8514Y9373D1*
G1X8505Y12129D2*
G1X8505Y9373D1*
G1X8496Y12129D2*
G1X8496Y9373D1*
G1X8487Y12129D2*
G1X8487Y9373D1*
G1X13985Y12113D2*
G1X8474Y12113D1*
G1X13985Y12104D2*
G1X8474Y12104D1*
G1X13985Y12095D2*
G1X8474Y12095D1*
G1X13985Y12086D2*
G1X8474Y12086D1*
G1X13985Y12077D2*
G1X8474Y12077D1*
G1X13985Y12068D2*
G1X8474Y12068D1*
G1X13985Y12059D2*
G1X8474Y12059D1*
G1X13985Y12050D2*
G1X8474Y12050D1*
G1X13985Y12041D2*
G1X8474Y12041D1*
G1X13985Y12032D2*
G1X8474Y12032D1*
G1X13985Y12023D2*
G1X8474Y12023D1*
G1X13985Y12014D2*
G1X8474Y12014D1*
G1X13985Y12005D2*
G1X8474Y12005D1*
G1X13985Y11996D2*
G1X8474Y11996D1*
G1X13985Y11987D2*
G1X8474Y11987D1*
G1X13985Y11978D2*
G1X8474Y11978D1*
G1X13985Y11969D2*
G1X8474Y11969D1*
G1X13985Y11960D2*
G1X8474Y11960D1*
G1X13985Y11951D2*
G1X8474Y11951D1*
G1X13985Y11942D2*
G1X8474Y11942D1*
G1X13985Y11933D2*
G1X8474Y11933D1*
G1X13985Y11924D2*
G1X8474Y11924D1*
G1X13985Y11915D2*
G1X8474Y11915D1*
G1X13985Y11906D2*
G1X8474Y11906D1*
G1X13985Y11897D2*
G1X8474Y11897D1*
G1X13985Y11888D2*
G1X8474Y11888D1*
G1X13985Y11879D2*
G1X8474Y11879D1*
G1X13985Y11870D2*
G1X8474Y11870D1*
G1X13985Y11861D2*
G1X8474Y11861D1*
G1X13985Y11852D2*
G1X8474Y11852D1*
G1X13985Y11843D2*
G1X8474Y11843D1*
G1X13985Y11834D2*
G1X8474Y11834D1*
G1X13985Y11825D2*
G1X8474Y11825D1*
G1X13985Y11816D2*
G1X8474Y11816D1*
G1X13985Y11807D2*
G1X8474Y11807D1*
G1X13985Y11798D2*
G1X8474Y11798D1*
G1X13985Y11789D2*
G1X8474Y11789D1*
G1X13985Y11780D2*
G1X8474Y11780D1*
G1X13985Y11771D2*
G1X8474Y11771D1*
G1X13985Y11762D2*
G1X8474Y11762D1*
G1X13985Y11753D2*
G1X8474Y11753D1*
G1X13985Y11744D2*
G1X8474Y11744D1*
G1X13985Y11735D2*
G1X8474Y11735D1*
G1X13985Y11726D2*
G1X8474Y11726D1*
G1X13985Y11717D2*
G1X8474Y11717D1*
G1X13985Y11708D2*
G1X8474Y11708D1*
G1X13985Y11699D2*
G1X8474Y11699D1*
G1X13985Y11690D2*
G1X8474Y11690D1*
G1X13985Y11681D2*
G1X8474Y11681D1*
G1X13985Y11672D2*
G1X8474Y11672D1*
G1X13985Y11663D2*
G1X8474Y11663D1*
G1X13985Y11654D2*
G1X8474Y11654D1*
G1X13985Y11645D2*
G1X8474Y11645D1*
G1X13985Y11636D2*
G1X8474Y11636D1*
G1X13985Y11627D2*
G1X8474Y11627D1*
G1X13985Y11618D2*
G1X8474Y11618D1*
G1X13985Y11609D2*
G1X8474Y11609D1*
G1X13985Y11600D2*
G1X8474Y11600D1*
G1X13985Y11591D2*
G1X8474Y11591D1*
G1X13985Y11582D2*
G1X8474Y11582D1*
G1X13985Y11573D2*
G1X8474Y11573D1*
G1X13985Y11564D2*
G1X8474Y11564D1*
G1X13985Y11555D2*
G1X8474Y11555D1*
G1X13985Y11546D2*
G1X8474Y11546D1*
G1X13985Y11537D2*
G1X8474Y11537D1*
G1X13985Y11528D2*
G1X8474Y11528D1*
G1X13985Y11519D2*
G1X8474Y11519D1*
G1X13985Y11510D2*
G1X8474Y11510D1*
G1X13985Y11501D2*
G1X8474Y11501D1*
G1X13985Y11492D2*
G1X8474Y11492D1*
G1X13985Y11483D2*
G1X8474Y11483D1*
G1X13985Y11474D2*
G1X8474Y11474D1*
G1X13985Y11465D2*
G1X8474Y11465D1*
G1X13985Y11456D2*
G1X8474Y11456D1*
G1X13985Y11447D2*
G1X8474Y11447D1*
G1X13985Y11438D2*
G1X8474Y11438D1*
G1X13985Y11429D2*
G1X8474Y11429D1*
G1X13985Y11420D2*
G1X8474Y11420D1*
G1X13985Y11411D2*
G1X8474Y11411D1*
G1X13985Y11402D2*
G1X8474Y11402D1*
G1X13985Y11393D2*
G1X8474Y11393D1*
G1X13985Y11384D2*
G1X8474Y11384D1*
G1X13985Y11375D2*
G1X8474Y11375D1*
G1X13985Y11366D2*
G1X8474Y11366D1*
G1X13985Y11357D2*
G1X8474Y11357D1*
G1X13985Y11348D2*
G1X8474Y11348D1*
G1X13985Y11339D2*
G1X8474Y11339D1*
G1X13985Y11330D2*
G1X8474Y11330D1*
G1X13985Y11321D2*
G1X8474Y11321D1*
G1X13985Y11312D2*
G1X8474Y11312D1*
G1X13985Y11303D2*
G1X8474Y11303D1*
G1X13985Y11294D2*
G1X8474Y11294D1*
G1X13985Y11285D2*
G1X8474Y11285D1*
G1X13985Y11276D2*
G1X8474Y11276D1*
G1X13985Y11267D2*
G1X8474Y11267D1*
G1X13985Y11258D2*
G1X8474Y11258D1*
G1X13985Y11249D2*
G1X8474Y11249D1*
G1X13985Y11240D2*
G1X8474Y11240D1*
G1X13985Y11231D2*
G1X8474Y11231D1*
G1X13985Y11222D2*
G1X8474Y11222D1*
G1X13985Y11213D2*
G1X8474Y11213D1*
G1X13985Y11204D2*
G1X8474Y11204D1*
G1X13985Y11195D2*
G1X8474Y11195D1*
G1X13985Y11186D2*
G1X8474Y11186D1*
G1X13985Y11177D2*
G1X8474Y11177D1*
G1X13985Y11168D2*
G1X8474Y11168D1*
G1X13985Y11159D2*
G1X8474Y11159D1*
G1X13985Y11150D2*
G1X8474Y11150D1*
G1X13985Y11141D2*
G1X8474Y11141D1*
G1X13985Y11132D2*
G1X8474Y11132D1*
G1X13985Y11123D2*
G1X8474Y11123D1*
G1X13985Y11114D2*
G1X8474Y11114D1*
G1X13985Y11105D2*
G1X8474Y11105D1*
G1X13985Y11096D2*
G1X8474Y11096D1*
G1X13985Y11087D2*
G1X8474Y11087D1*
G1X13985Y11078D2*
G1X8474Y11078D1*
G1X13985Y11069D2*
G1X8474Y11069D1*
G1X13985Y11060D2*
G1X8474Y11060D1*
G1X13985Y11051D2*
G1X8474Y11051D1*
G1X13985Y11042D2*
G1X8474Y11042D1*
G1X13985Y11033D2*
G1X8474Y11033D1*
G1X13985Y11024D2*
G1X8474Y11024D1*
G1X13985Y11015D2*
G1X8474Y11015D1*
G1X13985Y11006D2*
G1X8474Y11006D1*
G1X13985Y10997D2*
G1X8474Y10997D1*
G1X13985Y10988D2*
G1X8474Y10988D1*
G1X13985Y10979D2*
G1X8474Y10979D1*
G1X13985Y10970D2*
G1X8474Y10970D1*
G1X13985Y10961D2*
G1X8474Y10961D1*
G1X13985Y10952D2*
G1X8474Y10952D1*
G1X13985Y10943D2*
G1X8474Y10943D1*
G1X13985Y10934D2*
G1X8474Y10934D1*
G1X13985Y10925D2*
G1X8474Y10925D1*
G1X13985Y10916D2*
G1X8474Y10916D1*
G1X13985Y10907D2*
G1X8474Y10907D1*
G1X13985Y10898D2*
G1X8474Y10898D1*
G1X13985Y10889D2*
G1X8474Y10889D1*
G1X13985Y10880D2*
G1X8474Y10880D1*
G1X13985Y10871D2*
G1X8474Y10871D1*
G1X13985Y10862D2*
G1X8474Y10862D1*
G1X13985Y10853D2*
G1X8474Y10853D1*
G1X13985Y10844D2*
G1X8474Y10844D1*
G1X13985Y10835D2*
G1X8474Y10835D1*
G1X13985Y10826D2*
G1X8474Y10826D1*
G1X13985Y10817D2*
G1X8474Y10817D1*
G1X13985Y10808D2*
G1X8474Y10808D1*
G1X13985Y10799D2*
G1X8474Y10799D1*
G1X13985Y10790D2*
G1X8474Y10790D1*
G1X13985Y10781D2*
G1X8474Y10781D1*
G1X13985Y10772D2*
G1X8474Y10772D1*
G1X13985Y10763D2*
G1X8474Y10763D1*
G1X13985Y10754D2*
G1X8474Y10754D1*
G1X13985Y10745D2*
G1X8474Y10745D1*
G1X13985Y10736D2*
G1X8474Y10736D1*
G1X13985Y10727D2*
G1X8474Y10727D1*
G1X13985Y10718D2*
G1X8474Y10718D1*
G1X13985Y10709D2*
G1X8474Y10709D1*
G1X13985Y10700D2*
G1X8474Y10700D1*
G1X13985Y10691D2*
G1X8474Y10691D1*
G1X13985Y10682D2*
G1X8474Y10682D1*
G1X13985Y10673D2*
G1X8474Y10673D1*
G1X13985Y10664D2*
G1X8474Y10664D1*
G1X13985Y10655D2*
G1X8474Y10655D1*
G1X13985Y10646D2*
G1X8474Y10646D1*
G1X13985Y10637D2*
G1X8474Y10637D1*
G1X13985Y10628D2*
G1X8474Y10628D1*
G1X13985Y10619D2*
G1X8474Y10619D1*
G1X13985Y10610D2*
G1X8474Y10610D1*
G1X13985Y10601D2*
G1X8474Y10601D1*
G1X13985Y10592D2*
G1X8474Y10592D1*
G1X13985Y10583D2*
G1X8474Y10583D1*
G1X13985Y10574D2*
G1X8474Y10574D1*
G1X13985Y10565D2*
G1X8474Y10565D1*
G1X13985Y10556D2*
G1X8474Y10556D1*
G1X13985Y10547D2*
G1X8474Y10547D1*
G1X13985Y10538D2*
G1X8474Y10538D1*
G1X13985Y10529D2*
G1X8474Y10529D1*
G1X13985Y10520D2*
G1X8474Y10520D1*
G1X13985Y10511D2*
G1X8474Y10511D1*
G1X13985Y10502D2*
G1X8474Y10502D1*
G1X13985Y10493D2*
G1X8474Y10493D1*
G1X13985Y10484D2*
G1X8474Y10484D1*
G1X13985Y10475D2*
G1X8474Y10475D1*
G1X13985Y10466D2*
G1X8474Y10466D1*
G1X13985Y10457D2*
G1X8474Y10457D1*
G1X13985Y10448D2*
G1X8474Y10448D1*
G1X13985Y10439D2*
G1X8474Y10439D1*
G1X13985Y10430D2*
G1X8474Y10430D1*
G1X13985Y10421D2*
G1X8474Y10421D1*
G1X13985Y10412D2*
G1X8474Y10412D1*
G1X13985Y10403D2*
G1X8474Y10403D1*
G1X13985Y10394D2*
G1X8474Y10394D1*
G1X13985Y10385D2*
G1X8474Y10385D1*
G1X13985Y10376D2*
G1X8474Y10376D1*
G1X13985Y10367D2*
G1X8474Y10367D1*
G1X13985Y10358D2*
G1X8474Y10358D1*
G1X13985Y10349D2*
G1X8474Y10349D1*
G1X13985Y10340D2*
G1X8474Y10340D1*
G1X13985Y10331D2*
G1X8474Y10331D1*
G1X13985Y10322D2*
G1X8474Y10322D1*
G1X13985Y10313D2*
G1X8474Y10313D1*
G1X13985Y10304D2*
G1X8474Y10304D1*
G1X13985Y10295D2*
G1X8474Y10295D1*
G1X13985Y10286D2*
G1X8474Y10286D1*
G1X13985Y10277D2*
G1X8474Y10277D1*
G1X13985Y10268D2*
G1X8474Y10268D1*
G1X13985Y10259D2*
G1X8474Y10259D1*
G1X13985Y10250D2*
G1X8474Y10250D1*
G1X13985Y10241D2*
G1X8474Y10241D1*
G1X13985Y10232D2*
G1X8474Y10232D1*
G1X13985Y10223D2*
G1X8474Y10223D1*
G1X13985Y10214D2*
G1X8474Y10214D1*
G1X13985Y10205D2*
G1X8474Y10205D1*
G1X13985Y10196D2*
G1X8474Y10196D1*
G1X13985Y10187D2*
G1X8474Y10187D1*
G1X13985Y10178D2*
G1X8474Y10178D1*
G1X13985Y10169D2*
G1X8474Y10169D1*
G1X13985Y10160D2*
G1X8474Y10160D1*
G1X13985Y10151D2*
G1X8474Y10151D1*
G1X13985Y10142D2*
G1X8474Y10142D1*
G1X13985Y10133D2*
G1X8474Y10133D1*
G1X13985Y10124D2*
G1X8474Y10124D1*
G1X13985Y10115D2*
G1X8474Y10115D1*
G1X13985Y10106D2*
G1X8474Y10106D1*
G1X13985Y10097D2*
G1X8474Y10097D1*
G1X13985Y10088D2*
G1X8474Y10088D1*
G1X13985Y10079D2*
G1X8474Y10079D1*
G1X13985Y10070D2*
G1X8474Y10070D1*
G1X13985Y10061D2*
G1X8474Y10061D1*
G1X13985Y10052D2*
G1X8474Y10052D1*
G1X13985Y10043D2*
G1X8474Y10043D1*
G1X13985Y10034D2*
G1X8474Y10034D1*
G1X13985Y10025D2*
G1X8474Y10025D1*
G1X13985Y10016D2*
G1X8474Y10016D1*
G1X13985Y10007D2*
G1X8474Y10007D1*
G1X13985Y9998D2*
G1X8474Y9998D1*
G1X13985Y9989D2*
G1X8474Y9989D1*
G1X13985Y9980D2*
G1X8474Y9980D1*
G1X13985Y9971D2*
G1X8474Y9971D1*
G1X13985Y9962D2*
G1X8474Y9962D1*
G1X13985Y9953D2*
G1X8474Y9953D1*
G1X13985Y9944D2*
G1X8474Y9944D1*
G1X13985Y9935D2*
G1X8474Y9935D1*
G1X13985Y9926D2*
G1X8474Y9926D1*
G1X13985Y9917D2*
G1X8474Y9917D1*
G1X13985Y9908D2*
G1X8474Y9908D1*
G1X13985Y9899D2*
G1X8474Y9899D1*
G1X13985Y9890D2*
G1X8474Y9890D1*
G1X13985Y9881D2*
G1X8474Y9881D1*
G1X13985Y9872D2*
G1X8474Y9872D1*
G1X13985Y9863D2*
G1X8474Y9863D1*
G1X13985Y9854D2*
G1X8474Y9854D1*
G1X13985Y9845D2*
G1X8474Y9845D1*
G1X13985Y9836D2*
G1X8474Y9836D1*
G1X13985Y9827D2*
G1X8474Y9827D1*
G1X13985Y9818D2*
G1X8474Y9818D1*
G1X13985Y9809D2*
G1X8474Y9809D1*
G1X13985Y9800D2*
G1X8474Y9800D1*
G1X13985Y9791D2*
G1X8474Y9791D1*
G1X13985Y9782D2*
G1X8474Y9782D1*
G1X13985Y9773D2*
G1X8474Y9773D1*
G1X13985Y9764D2*
G1X8474Y9764D1*
G1X13985Y9755D2*
G1X8474Y9755D1*
G1X13985Y9746D2*
G1X8474Y9746D1*
G1X13985Y9737D2*
G1X8474Y9737D1*
G1X13985Y9728D2*
G1X8474Y9728D1*
G1X13985Y9719D2*
G1X8474Y9719D1*
G1X13985Y9710D2*
G1X8474Y9710D1*
G1X13985Y9701D2*
G1X8474Y9701D1*
G1X13985Y9692D2*
G1X8474Y9692D1*
G1X13985Y9683D2*
G1X8474Y9683D1*
G1X13985Y9674D2*
G1X8474Y9674D1*
G1X13985Y9665D2*
G1X8474Y9665D1*
G1X13985Y9656D2*
G1X8474Y9656D1*
G1X13985Y9647D2*
G1X8474Y9647D1*
G1X13985Y9638D2*
G1X8474Y9638D1*
G1X13985Y9629D2*
G1X8474Y9629D1*
G1X13985Y9620D2*
G1X8474Y9620D1*
G1X13985Y9611D2*
G1X8474Y9611D1*
G1X13985Y9602D2*
G1X8474Y9602D1*
G1X13985Y9593D2*
G1X8474Y9593D1*
G1X13985Y9584D2*
G1X8474Y9584D1*
G1X13985Y9575D2*
G1X8474Y9575D1*
G1X13985Y9566D2*
G1X8474Y9566D1*
G1X13985Y9557D2*
G1X8474Y9557D1*
G1X13985Y9548D2*
G1X8474Y9548D1*
G1X13985Y9539D2*
G1X8474Y9539D1*
G1X13985Y9530D2*
G1X8474Y9530D1*
G1X13985Y9521D2*
G1X8474Y9521D1*
G1X13985Y9512D2*
G1X8474Y9512D1*
G1X13985Y9503D2*
G1X8474Y9503D1*
G1X13985Y9494D2*
G1X8474Y9494D1*
G1X13985Y9485D2*
G1X8474Y9485D1*
G1X13985Y9476D2*
G1X8474Y9476D1*
G1X13985Y9467D2*
G1X8474Y9467D1*
G1X13985Y9458D2*
G1X8474Y9458D1*
G1X13985Y9449D2*
G1X8474Y9449D1*
G1X13985Y9440D2*
G1X8474Y9440D1*
G1X13985Y9431D2*
G1X8474Y9431D1*
G1X13985Y9422D2*
G1X8474Y9422D1*
G1X13985Y9413D2*
G1X8474Y9413D1*
G1X13985Y9404D2*
G1X8474Y9404D1*
G1X13985Y9395D2*
G1X8474Y9395D1*
G1X13985Y9386D2*
G1X8474Y9386D1*
G1X13985Y12129D2*
G1X13985Y9373D1*
G1X13985Y12129D2*
G1X8474Y12129D1*
G1X8474Y9373D1*
G1X13985Y9373D2*
G1X8474Y9373D1*
G1X13977Y12129D2*
G1X13977Y9373D1*
G1X13968Y12129D2*
G1X13968Y9373D1*
G1X13959Y12129D2*
G1X13959Y9373D1*
G1X13950Y12129D2*
G1X13950Y9373D1*
G1X13941Y12129D2*
G1X13941Y9373D1*
G1X13932Y12129D2*
G1X13932Y9373D1*
G1X13923Y12129D2*
G1X13923Y9373D1*
G1X13914Y12129D2*
G1X13914Y9373D1*
G1X13905Y12129D2*
G1X13905Y9373D1*
G1X13896Y12129D2*
G1X13896Y9373D1*
G1X13887Y12129D2*
G1X13887Y9373D1*
G1X13878Y12129D2*
G1X13878Y9373D1*
G1X13869Y12129D2*
G1X13869Y9373D1*
G1X13860Y12129D2*
G1X13860Y9373D1*
G1X13851Y12129D2*
G1X13851Y9373D1*
G1X13842Y12129D2*
G1X13842Y9373D1*
G1X13833Y12129D2*
G1X13833Y9373D1*
G1X13824Y12129D2*
G1X13824Y9373D1*
G1X13815Y12129D2*
G1X13815Y9373D1*
G1X13806Y12129D2*
G1X13806Y9373D1*
G1X13797Y12129D2*
G1X13797Y9373D1*
G1X13788Y12129D2*
G1X13788Y9373D1*
G1X13779Y12129D2*
G1X13779Y9373D1*
G1X13770Y12129D2*
G1X13770Y9373D1*
G1X13761Y12129D2*
G1X13761Y9373D1*
G1X13752Y12129D2*
G1X13752Y9373D1*
G1X13743Y12129D2*
G1X13743Y9373D1*
G1X13734Y12129D2*
G1X13734Y9373D1*
G1X13725Y12129D2*
G1X13725Y9373D1*
G1X13716Y12129D2*
G1X13716Y9373D1*
G1X13707Y12129D2*
G1X13707Y9373D1*
G1X13698Y12129D2*
G1X13698Y9373D1*
G1X13689Y12129D2*
G1X13689Y9373D1*
G1X13680Y12129D2*
G1X13680Y9373D1*
G1X13671Y12129D2*
G1X13671Y9373D1*
G1X13662Y12129D2*
G1X13662Y9373D1*
G1X13653Y12129D2*
G1X13653Y9373D1*
G1X13644Y12129D2*
G1X13644Y9373D1*
G1X13635Y12129D2*
G1X13635Y9373D1*
G1X13626Y12129D2*
G1X13626Y9373D1*
G1X13617Y12129D2*
G1X13617Y9373D1*
G1X13608Y12129D2*
G1X13608Y9373D1*
G1X13599Y12129D2*
G1X13599Y9373D1*
G1X13590Y12129D2*
G1X13590Y9373D1*
G1X13581Y12129D2*
G1X13581Y9373D1*
G1X13572Y12129D2*
G1X13572Y9373D1*
G1X13563Y12129D2*
G1X13563Y9373D1*
G1X13554Y12129D2*
G1X13554Y9373D1*
G1X13545Y12129D2*
G1X13545Y9373D1*
G1X13536Y12129D2*
G1X13536Y9373D1*
G1X13527Y12129D2*
G1X13527Y9373D1*
G1X13518Y12129D2*
G1X13518Y9373D1*
G1X13509Y12129D2*
G1X13509Y9373D1*
G1X13500Y12129D2*
G1X13500Y9373D1*
G1X13491Y12129D2*
G1X13491Y9373D1*
G1X13482Y12129D2*
G1X13482Y9373D1*
G1X13473Y12129D2*
G1X13473Y9373D1*
G1X13464Y12129D2*
G1X13464Y9373D1*
G1X13455Y12129D2*
G1X13455Y9373D1*
G1X13446Y12129D2*
G1X13446Y9373D1*
G1X13437Y12129D2*
G1X13437Y9373D1*
G1X13428Y12129D2*
G1X13428Y9373D1*
G1X13419Y12129D2*
G1X13419Y9373D1*
G1X13410Y12129D2*
G1X13410Y9373D1*
G1X13401Y12129D2*
G1X13401Y9373D1*
G1X13392Y12129D2*
G1X13392Y9373D1*
G1X13383Y12129D2*
G1X13383Y9373D1*
G1X13374Y12129D2*
G1X13374Y9373D1*
G1X13365Y12129D2*
G1X13365Y9373D1*
G1X13356Y12129D2*
G1X13356Y9373D1*
G1X13347Y12129D2*
G1X13347Y9373D1*
G1X13338Y12129D2*
G1X13338Y9373D1*
G1X13329Y12129D2*
G1X13329Y9373D1*
G1X13320Y12129D2*
G1X13320Y9373D1*
G1X13311Y12129D2*
G1X13311Y9373D1*
G1X13302Y12129D2*
G1X13302Y9373D1*
G1X13293Y12129D2*
G1X13293Y9373D1*
G1X13284Y12129D2*
G1X13284Y9373D1*
G1X13275Y12129D2*
G1X13275Y9373D1*
G1X13266Y12129D2*
G1X13266Y9373D1*
G1X13257Y12129D2*
G1X13257Y9373D1*
G1X13248Y12129D2*
G1X13248Y9373D1*
G1X13239Y12129D2*
G1X13239Y9373D1*
G1X13230Y12129D2*
G1X13230Y9373D1*
G1X13221Y12129D2*
G1X13221Y9373D1*
G1X13212Y12129D2*
G1X13212Y9373D1*
G1X13203Y12129D2*
G1X13203Y9373D1*
G1X13194Y12129D2*
G1X13194Y9373D1*
G1X13185Y12129D2*
G1X13185Y9373D1*
G1X13176Y12129D2*
G1X13176Y9373D1*
G1X13167Y12129D2*
G1X13167Y9373D1*
G1X13158Y12129D2*
G1X13158Y9373D1*
G1X13149Y12129D2*
G1X13149Y9373D1*
G1X13140Y12129D2*
G1X13140Y9373D1*
G1X13131Y12129D2*
G1X13131Y9373D1*
G1X13122Y12129D2*
G1X13122Y9373D1*
G1X13113Y12129D2*
G1X13113Y9373D1*
G1X13104Y12129D2*
G1X13104Y9373D1*
G1X13095Y12129D2*
G1X13095Y9373D1*
G1X13086Y12129D2*
G1X13086Y9373D1*
G1X13077Y12129D2*
G1X13077Y9373D1*
G1X13068Y12129D2*
G1X13068Y9373D1*
G1X13059Y12129D2*
G1X13059Y9373D1*
G1X13050Y12129D2*
G1X13050Y9373D1*
G1X13041Y12129D2*
G1X13041Y9373D1*
G1X13032Y12129D2*
G1X13032Y9373D1*
G1X13023Y12129D2*
G1X13023Y9373D1*
G1X13014Y12129D2*
G1X13014Y9373D1*
G1X13005Y12129D2*
G1X13005Y9373D1*
G1X12996Y12129D2*
G1X12996Y9373D1*
G1X12987Y12129D2*
G1X12987Y9373D1*
G1X12978Y12129D2*
G1X12978Y9373D1*
G1X12969Y12129D2*
G1X12969Y9373D1*
G1X12960Y12129D2*
G1X12960Y9373D1*
G1X12951Y12129D2*
G1X12951Y9373D1*
G1X12942Y12129D2*
G1X12942Y9373D1*
G1X12933Y12129D2*
G1X12933Y9373D1*
G1X12924Y12129D2*
G1X12924Y9373D1*
G1X12915Y12129D2*
G1X12915Y9373D1*
G1X12906Y12129D2*
G1X12906Y9373D1*
G1X12897Y12129D2*
G1X12897Y9373D1*
G1X12888Y12129D2*
G1X12888Y9373D1*
G1X12879Y12129D2*
G1X12879Y9373D1*
G1X12870Y12129D2*
G1X12870Y9373D1*
G1X12861Y12129D2*
G1X12861Y9373D1*
G1X12852Y12129D2*
G1X12852Y9373D1*
G1X12843Y12129D2*
G1X12843Y9373D1*
G1X12834Y12129D2*
G1X12834Y9373D1*
G1X12825Y12129D2*
G1X12825Y9373D1*
G1X12816Y12129D2*
G1X12816Y9373D1*
G1X12807Y12129D2*
G1X12807Y9373D1*
G1X12798Y12129D2*
G1X12798Y9373D1*
G1X12789Y12129D2*
G1X12789Y9373D1*
G1X12780Y12129D2*
G1X12780Y9373D1*
G1X12771Y12129D2*
G1X12771Y9373D1*
G1X12762Y12129D2*
G1X12762Y9373D1*
G1X12753Y12129D2*
G1X12753Y9373D1*
G1X12744Y12129D2*
G1X12744Y9373D1*
G1X12735Y12129D2*
G1X12735Y9373D1*
G1X12726Y12129D2*
G1X12726Y9373D1*
G1X12717Y12129D2*
G1X12717Y9373D1*
G1X12708Y12129D2*
G1X12708Y9373D1*
G1X12699Y12129D2*
G1X12699Y9373D1*
G1X12690Y12129D2*
G1X12690Y9373D1*
G1X12681Y12129D2*
G1X12681Y9373D1*
G1X12672Y12129D2*
G1X12672Y9373D1*
G1X12663Y12129D2*
G1X12663Y9373D1*
G1X12654Y12129D2*
G1X12654Y9373D1*
G1X12645Y12129D2*
G1X12645Y9373D1*
G1X12636Y12129D2*
G1X12636Y9373D1*
G1X12627Y12129D2*
G1X12627Y9373D1*
G1X12618Y12129D2*
G1X12618Y9373D1*
G1X12609Y12129D2*
G1X12609Y9373D1*
G1X12600Y12129D2*
G1X12600Y9373D1*
G1X12591Y12129D2*
G1X12591Y9373D1*
G1X12582Y12129D2*
G1X12582Y9373D1*
G1X12573Y12129D2*
G1X12573Y9373D1*
G1X12564Y12129D2*
G1X12564Y9373D1*
G1X12555Y12129D2*
G1X12555Y9373D1*
G1X12546Y12129D2*
G1X12546Y9373D1*
G1X12537Y12129D2*
G1X12537Y9373D1*
G1X12528Y12129D2*
G1X12528Y9373D1*
G1X12519Y12129D2*
G1X12519Y9373D1*
G1X12510Y12129D2*
G1X12510Y9373D1*
G1X12501Y12129D2*
G1X12501Y9373D1*
G1X12492Y12129D2*
G1X12492Y9373D1*
G1X12483Y12129D2*
G1X12483Y9373D1*
G1X12474Y12129D2*
G1X12474Y9373D1*
G1X12465Y12129D2*
G1X12465Y9373D1*
G1X12456Y12129D2*
G1X12456Y9373D1*
G1X12447Y12129D2*
G1X12447Y9373D1*
G1X12438Y12129D2*
G1X12438Y9373D1*
G1X12429Y12129D2*
G1X12429Y9373D1*
G1X12420Y12129D2*
G1X12420Y9373D1*
G1X2620Y12855D2*
G54D89*
G1X2695Y12780D1*
G1X3120Y12780D1*
G1X3120Y10380D1*
G1X2120Y10380D1*
G1X2120Y12780D1*
G1X2545Y12780D1*
G1X2620Y12855D1*
G1X580Y9915D2*
G1X655Y9840D1*
G1X1080Y9840D1*
G1X1080Y7440D1*
G1X80Y7440D1*
G1X80Y9840D1*
G1X505Y9840D1*
G1X580Y9915D1*
G1X4000Y12855D2*
G1X4075Y12780D1*
G1X4500Y12780D1*
G1X4500Y10380D1*
G1X3500Y10380D1*
G1X3500Y12780D1*
G1X3925Y12780D1*
G1X4000Y12855D1*
G1X2620Y9915D2*
G1X2695Y9840D1*
G1X3120Y9840D1*
G1X3120Y7440D1*
G1X2120Y7440D1*
G1X2120Y9840D1*
G1X2545Y9840D1*
G1X2620Y9915D1*
G1X4000Y9915D2*
G1X4075Y9840D1*
G1X4500Y9840D1*
G1X4500Y7440D1*
G1X3500Y7440D1*
G1X3500Y9840D1*
G1X3925Y9840D1*
G1X4000Y9915D1*
G1X-750Y12855D2*
G1X-675Y12780D1*
G1X-250Y12780D1*
G1X-250Y10380D1*
G1X-1250Y10380D1*
G1X-1250Y12780D1*
G1X-825Y12780D1*
G1X-750Y12855D1*
G1X1530Y14660D2*
G1X4430Y14660D1*
G1X4430Y13160D1*
G1X1530Y13160D1*
G1X1530Y14660D1*
G1X-750Y9915D2*
G1X-675Y9840D1*
G1X-250Y9840D1*
G1X-250Y7440D1*
G1X-1250Y7440D1*
G1X-1250Y9840D1*
G1X-825Y9840D1*
G1X-750Y9915D1*
G1X2213Y25762D2*
G1X1795Y25345D1*
G1X3231Y23910D1*
G1X4132Y24811D1*
G1X2697Y26247D1*
G1X2333Y25883D1*
G1X2213Y25883D1*
G1X2213Y25762D1*
G1X19545Y22580D2*
G1X19545Y21990D1*
G1X21575Y21990D1*
G1X21575Y23265D1*
G1X19545Y23265D1*
G1X19545Y22750D1*
G1X19460Y22665D1*
G1X19545Y22580D1*
G1X44292Y27007D2*
G1X43875Y27424D1*
G1X42440Y25989D1*
G1X43341Y25088D1*
G1X44777Y26523D1*
G1X44413Y26887D1*
G1X44413Y27007D1*
G1X44292Y27007D1*
G1X44357Y-3632D2*
G1X44774Y-3215D1*
G1X43339Y-1780D1*
G1X42438Y-2681D1*
G1X43873Y-4117D1*
G1X44237Y-3753D1*
G1X44357Y-3753D1*
G1X44357Y-3632D1*
G1X580Y12855D2*
G1X655Y12780D1*
G1X1080Y12780D1*
G1X1080Y10380D1*
G1X80Y10380D1*
G1X80Y12780D1*
G1X505Y12780D1*
G1X580Y12855D1*
G1X4270Y22785D2*
G1X4345Y22710D1*
G1X4770Y22710D1*
G1X4770Y20310D1*
G1X3770Y20310D1*
G1X3770Y22710D1*
G1X4195Y22710D1*
G1X4270Y22785D1*
G1X-3350Y10645D2*
G1X-3425Y10720D1*
G1X-3850Y10720D1*
G1X-3850Y13120D1*
G1X-2850Y13120D1*
G1X-2850Y10720D1*
G1X-3275Y10720D1*
G1X-3350Y10645D1*
G1X19450Y12262D2*
G1X19450Y11780D1*
G1X18540Y11780D1*
G1X18540Y12262D1*
G1X19450Y12262D1*
G1X45502Y25660D2*
G1X45020Y25660D1*
G1X45020Y26570D1*
G1X45502Y26570D1*
G1X45502Y25660D1*
G1X25400Y8838D2*
G1X25400Y9320D1*
G1X26310Y9320D1*
G1X26310Y8838D1*
G1X25400Y8838D1*
G1X45382Y-3720D2*
G1X44900Y-3720D1*
G1X44900Y-2810D1*
G1X45382Y-2810D1*
G1X45382Y-3720D1*
G1X22490Y18162D2*
G1X22490Y17680D1*
G1X21580Y17680D1*
G1X21580Y18162D1*
G1X22490Y18162D1*
G1X25095Y14695D2*
G1X25095Y13545D1*
G1X25740Y13545D1*
G1X25740Y14695D1*
G1X25095Y14695D1*
G1X26968Y9140D2*
G1X27450Y9140D1*
G1X27450Y8230D1*
G1X26968Y8230D1*
G1X26968Y9140D1*
G1X25918Y15150D2*
G1X26400Y15150D1*
G1X26400Y14240D1*
G1X25918Y14240D1*
G1X25918Y15150D1*
G1X26758Y15120D2*
G1X27240Y15120D1*
G1X27240Y14210D1*
G1X26758Y14210D1*
G1X26758Y15120D1*
G1X19450Y11722D2*
G1X19450Y11240D1*
G1X18540Y11240D1*
G1X18540Y11722D1*
G1X19450Y11722D1*
G1X19450Y11182D2*
G1X19450Y10700D1*
G1X18540Y10700D1*
G1X18540Y11182D1*
G1X19450Y11182D1*
G1X27442Y9290D2*
G1X26960Y9290D1*
G1X26960Y10200D1*
G1X27442Y10200D1*
G1X27442Y9290D1*
G1X28120Y16728D2*
G1X28120Y17210D1*
G1X29030Y17210D1*
G1X29030Y16728D1*
G1X28120Y16728D1*
G1X20918Y18170D2*
G1X21400Y18170D1*
G1X21400Y17260D1*
G1X20918Y17260D1*
G1X20918Y18170D1*
G1X29842Y18800D2*
G1X29360Y18800D1*
G1X29360Y19710D1*
G1X29842Y19710D1*
G1X29842Y18800D1*
G1X-842Y25120D2*
G1X-360Y25120D1*
G1X-360Y24210D1*
G1X-842Y24210D1*
G1X-842Y25120D1*
G1X-932Y-360D2*
G1X-450Y-360D1*
G1X-450Y-1270D1*
G1X-932Y-1270D1*
G1X-932Y-360D1*
G1X27415Y15125D2*
G1X27415Y13975D1*
G1X28060Y13975D1*
G1X28060Y15125D1*
G1X27415Y15125D1*
G1X28515Y13405D2*
G1X27365Y13405D1*
G1X27365Y12760D1*
G1X28515Y12760D1*
G1X28515Y13405D1*
G1X31743Y1435D2*
G1X32225Y1435D1*
G1X32225Y525D1*
G1X31743Y525D1*
G1X31743Y1435D1*
G1X33693Y1435D2*
G1X34175Y1435D1*
G1X34175Y525D1*
G1X33693Y525D1*
G1X33693Y1435D1*
G1X44280Y-2372D2*
G1X44280Y-1890D1*
G1X45190Y-1890D1*
G1X45190Y-2372D1*
G1X44280Y-2372D1*
G1X19545Y630D2*
G1X19545Y40D1*
G1X21575Y40D1*
G1X21575Y1315D1*
G1X19545Y1315D1*
G1X19545Y800D1*
G1X19460Y715D1*
G1X19545Y630D1*
G1X2278Y-2537D2*
G1X2695Y-2954D1*
G1X4130Y-1519D1*
G1X3229Y-618D1*
G1X1793Y-2053D1*
G1X2157Y-2417D1*
G1X2157Y-2537D1*
G1X2278Y-2537D1*
G1X19730Y1718D2*
G1X19730Y2200D1*
G1X20640Y2200D1*
G1X20640Y1718D1*
G1X19730Y1718D1*
G1X1610Y-2318D2*
G1X1610Y-2800D1*
G1X700Y-2800D1*
G1X700Y-2318D1*
G1X1610Y-2318D1*
G1X1680Y26192D2*
G1X1680Y25710D1*
G1X770Y25710D1*
G1X770Y26192D1*
G1X1680Y26192D1*
G1X19730Y21238D2*
G1X19730Y21720D1*
G1X20640Y21720D1*
G1X20640Y21238D1*
G1X19730Y21238D1*
G1X46662Y16910D2*
G1X46180Y16910D1*
G1X46180Y17820D1*
G1X46662Y17820D1*
G1X46662Y16910D1*
G1X44318Y25740D2*
G1X44800Y25740D1*
G1X44800Y24830D1*
G1X44318Y24830D1*
G1X44318Y25740D1*
G1X47892Y16910D2*
G1X47410Y16910D1*
G1X47410Y17820D1*
G1X47892Y17820D1*
G1X47892Y16910D1*
G1X41760Y-1672D2*
G1X41760Y-1190D1*
G1X42670Y-1190D1*
G1X42670Y-1672D1*
G1X41760Y-1672D1*
G1X42805Y810D2*
G1X41280Y810D1*
G1X41280Y-890D1*
G1X42880Y-890D1*
G1X42880Y735D1*
G1X42805Y810D1*
G1X3568Y16160D2*
G1X4050Y16160D1*
G1X4050Y15250D1*
G1X3568Y15250D1*
G1X3568Y16160D1*
G1X17120Y12170D2*
G1X17120Y11020D1*
G1X17765Y11020D1*
G1X17765Y12170D1*
G1X17120Y12170D1*
G1X12410Y15490D2*
G1X12410Y17690D1*
G1X13310Y17690D1*
G1X13310Y15490D1*
G1X12410Y15490D1*
G1X13845Y15990D2*
G1X13845Y14690D1*
G1X16095Y14690D1*
G1X16095Y15990D1*
G1X16120Y15990D1*
G1X13845Y15990D1*
G1X2312Y15250D2*
G1X1830Y15250D1*
G1X1830Y16160D1*
G1X2312Y16160D1*
G1X2312Y15250D1*
G1X17128Y10370D2*
G1X17610Y10370D1*
G1X17610Y9460D1*
G1X17128Y9460D1*
G1X17128Y10370D1*
G1X3162Y15250D2*
G1X2680Y15250D1*
G1X2680Y16160D1*
G1X3162Y16160D1*
G1X3162Y15250D1*
G1X1790Y20310D2*
G1X1790Y23210D1*
G1X3290Y23210D1*
G1X3290Y20310D1*
G1X1790Y20310D1*
G1X17420Y12980D2*
G1X14520Y12980D1*
G1X14520Y14480D1*
G1X17420Y14480D1*
G1X17420Y12980D1*
G1X41570Y13162D2*
G1X41570Y12680D1*
G1X40660Y12680D1*
G1X40660Y13162D1*
G1X41570Y13162D1*
G1X38200Y20402D2*
G1X38200Y19920D1*
G1X37290Y19920D1*
G1X37290Y20402D1*
G1X38200Y20402D1*
G1X41606Y10092D2*
G1X41606Y9610D1*
G1X40696Y9610D1*
G1X40696Y10092D1*
G1X41606Y10092D1*
G1X36490Y22482D2*
G1X36490Y22000D1*
G1X35580Y22000D1*
G1X35580Y22482D1*
G1X36490Y22482D1*
G1X43128Y12210D2*
G1X43610Y12210D1*
G1X43610Y11300D1*
G1X43128Y11300D1*
G1X43128Y12210D1*
G1X41765Y13835D2*
G1X41765Y12685D1*
G1X42410Y12685D1*
G1X42410Y13835D1*
G1X41765Y13835D1*
G1X36230Y20542D2*
G1X36230Y20060D1*
G1X35320Y20060D1*
G1X35320Y20542D1*
G1X36230Y20542D1*
G1X42395Y15505D2*
G1X41245Y15505D1*
G1X41245Y14860D1*
G1X42395Y14860D1*
G1X42395Y15505D1*
G1X35170Y20542D2*
G1X35170Y20060D1*
G1X34260Y20060D1*
G1X34260Y20542D1*
G1X35170Y20542D1*
G1X35370Y22482D2*
G1X35370Y22000D1*
G1X34460Y22000D1*
G1X34460Y22482D1*
G1X35370Y22482D1*
G1X40670Y10278D2*
G1X40670Y10760D1*
G1X41580Y10760D1*
G1X41580Y10278D1*
G1X40670Y10278D1*
G1X37225Y21745D2*
G1X37225Y20595D1*
G1X37870Y20595D1*
G1X37870Y21745D1*
G1X37225Y21745D1*
G1X42922Y11310D2*
G1X42440Y11310D1*
G1X42440Y12220D1*
G1X42922Y12220D1*
G1X42922Y11310D1*
G1X40660Y13368D2*
G1X40660Y13850D1*
G1X41570Y13850D1*
G1X41570Y13368D1*
G1X40660Y13368D1*
G1X41474Y3651D2*
G54D90*
G1X41474Y2548D1*
G1X43521Y2548D1*
G1X43521Y3651D1*
G1X41474Y3651D1*
G1X-1218Y698D2*
G1X-3974Y698D1*
G1X-3974Y-2806D1*
G1X-1218Y-2806D1*
G1X-1218Y698D1*
G1X45728Y-4798D2*
G1X48484Y-4798D1*
G1X48484Y-1294D1*
G1X45728Y-1294D1*
G1X45728Y-4798D1*
G1X45728Y24602D2*
G1X48484Y24602D1*
G1X48484Y28106D1*
G1X45728Y28106D1*
G1X45728Y24602D1*
G1X26378Y20519D2*
G1X26378Y23275D1*
G1X22874Y23275D1*
G1X22874Y20519D1*
G1X26378Y20519D1*
G1X22872Y2781D2*
G1X22872Y25D1*
G1X26376Y25D1*
G1X26376Y2781D1*
G1X22872Y2781D1*
G1X-1218Y26098D2*
G1X-3974Y26098D1*
G1X-3974Y22594D1*
G1X-1218Y22594D1*
G1X-1218Y26098D1*
G1X32813Y507D2*
G1X33128Y507D1*
G1X33128Y1255D1*
G1X32813Y1255D1*
G1X32813Y507D1*
G1X15942Y7496D2*
G1X15627Y7496D1*
G1X15942Y7461D2*
G1X15627Y7461D1*
G1X15942Y7426D2*
G1X15627Y7426D1*
G1X15942Y7390D2*
G1X15627Y7390D1*
G1X15942Y7355D2*
G1X15627Y7355D1*
G1X15942Y7319D2*
G1X15627Y7319D1*
G1X15942Y7284D2*
G1X15627Y7284D1*
G1X15942Y7249D2*
G1X15627Y7249D1*
G1X15942Y7213D2*
G1X15627Y7213D1*
G1X15942Y7178D2*
G1X15627Y7178D1*
G1X15942Y7142D2*
G1X15627Y7142D1*
G1X15942Y7107D2*
G1X15627Y7107D1*
G1X15942Y7072D2*
G1X15627Y7072D1*
G1X15942Y7036D2*
G1X15627Y7036D1*
G1X15942Y7992D2*
G1X15627Y7992D1*
G1X15942Y7957D2*
G1X15627Y7957D1*
G1X15942Y7921D2*
G1X15627Y7921D1*
G1X15942Y7886D2*
G1X15627Y7886D1*
G1X15942Y7850D2*
G1X15627Y7850D1*
G1X15942Y7815D2*
G1X15627Y7815D1*
G1X15942Y7780D2*
G1X15627Y7780D1*
G1X15942Y7744D2*
G1X15627Y7744D1*
G1X15942Y7709D2*
G1X15627Y7709D1*
G1X15942Y7673D2*
G1X15627Y7673D1*
G1X15942Y7638D2*
G1X15627Y7638D1*
G1X15942Y7603D2*
G1X15627Y7603D1*
G1X15942Y7567D2*
G1X15627Y7567D1*
G1X15942Y7532D2*
G1X15627Y7532D1*
G1X15870Y8230D2*
G1X15870Y6970D1*
G1X15835Y8230D2*
G1X15835Y6970D1*
G1X15799Y8230D2*
G1X15799Y6970D1*
G1X15764Y8230D2*
G1X15764Y6970D1*
G1X15729Y8230D2*
G1X15729Y6970D1*
G1X15693Y8230D2*
G1X15693Y6970D1*
G1X15658Y8230D2*
G1X15658Y6970D1*
G1X15942Y8204D2*
G1X15627Y8204D1*
G1X15942Y8169D2*
G1X15627Y8169D1*
G1X15942Y8134D2*
G1X15627Y8134D1*
G1X15942Y8098D2*
G1X15627Y8098D1*
G1X15942Y8063D2*
G1X15627Y8063D1*
G1X15942Y8027D2*
G1X15627Y8027D1*
G1X15942Y7001D2*
G1X15627Y7001D1*
G1X15942Y8230D2*
G1X15942Y6970D1*
G1X15942Y8230D2*
G1X15627Y8230D1*
G1X15627Y6970D1*
G1X15942Y6970D2*
G1X15627Y6970D1*
G1X15906Y8230D2*
G1X15906Y6970D1*
G1X34562Y21492D2*
G1X34562Y21177D1*
G1X35310Y21177D1*
G1X35310Y21492D1*
G1X34562Y21492D1*
G1X35482Y21492D2*
G1X35482Y21177D1*
G1X36230Y21177D1*
G1X36230Y21492D1*
G1X35482Y21492D1*
G1X43774Y13682D2*
G1X42613Y13682D1*
G1X42613Y14796D1*
G1X43774Y14796D1*
G1X43774Y13682D1*
G1X43425Y14788D2*
G1X43425Y13689D1*
G1X40037Y19180D2*
G1X39840Y19180D1*
G1X39840Y18983D1*
G1X41808Y18983D2*
G1X41808Y19180D1*
G1X41611Y19180D1*
G1X41611Y17211D2*
G1X41808Y17211D1*
G1X41808Y17408D1*
G1X39840Y17408D2*
G1X39840Y17211D1*
G1X40037Y17211D1*
G1X18511Y8011D2*
G1X18511Y610D1*
G1X16167Y610D1*
G1X16167Y8011D1*
G1X18511Y8011D1*
G1X3508Y19181D2*
G1X3508Y19378D1*
G1X3311Y19378D1*
G1X3311Y17410D2*
G1X3508Y17410D1*
G1X3508Y17607D1*
G1X1540Y17607D2*
G1X1540Y17410D1*
G1X1737Y17410D1*
G1X1737Y19378D2*
G1X1540Y19378D1*
G1X1540Y19181D1*
G1X42497Y2628D2*
G75*
G3X42969Y3100I0J472D1*
G1X42025Y3100D2*
G3X42497Y2628I472J0D1*
G1X42497Y3573D2*
G3X42024Y3100I0J-473D1*
G1X42970Y3100D2*
G3X42497Y3573I-473J0D1*
G1X14702Y6202D2*
G3X16100Y7600I0J1398D1*
G1X13304Y7600D2*
G3X14702Y6202I1398J0D1*
G1X14702Y8998D2*
G3X13304Y7600I0J-1398D1*
G1X16100Y7600D2*
G3X14702Y8998I-1398J0D1*
G74*
G1X507Y12950D2*
G54D91*
G1X473Y12967D1*
G1X473Y13067D1*
G1X507Y13083D1*
G1X640Y13083D1*
G1X673Y13067D1*
G1X673Y12967D1*
G1X640Y12950D1*
G1X2547Y12950D2*
G1X2513Y12967D1*
G1X2513Y13067D1*
G1X2547Y13083D1*
G1X2680Y13083D1*
G1X2713Y13067D1*
G1X2713Y12967D1*
G1X2680Y12950D1*
G1X4232Y14727D2*
G1X4165Y14727D1*
G1X4199Y14727D2*
G1X4199Y14927D1*
G1X4165Y14894D1*
G1X3975Y14894D2*
G1X3959Y14927D1*
G1X3859Y14927D1*
G1X3842Y14894D1*
G1X3842Y14860D1*
G1X3859Y14827D1*
G1X3959Y14827D1*
G1X3975Y14794D1*
G1X3975Y14760D1*
G1X3959Y14727D1*
G1X3859Y14727D1*
G1X3842Y14760D1*
G1X3685Y14927D2*
G1X3685Y14727D1*
G1X3652Y14760D1*
G1X3585Y14894D1*
G1X3552Y14927D1*
G1X3552Y14727D1*
G1X3362Y14827D2*
G1X3262Y14827D1*
G1X3395Y14727D2*
G1X3262Y14727D1*
G1X3262Y14927D1*
G1X3395Y14927D1*
G1X3105Y14894D2*
G1X3089Y14927D1*
G1X2989Y14927D1*
G1X2972Y14894D1*
G1X2972Y14860D1*
G1X2989Y14827D1*
G1X3089Y14827D1*
G1X3105Y14794D1*
G1X3105Y14760D1*
G1X3089Y14727D1*
G1X2989Y14727D1*
G1X2972Y14760D1*
G1X2765Y14827D2*
G1X2815Y14727D1*
G1X2682Y14827D2*
G1X2782Y14827D1*
G1X2815Y14860D1*
G1X2815Y14894D1*
G1X2782Y14927D1*
G1X2682Y14927D1*
G1X2682Y14727D1*
G1X2525Y14660D2*
G1X2392Y14660D1*
G1X2235Y14727D2*
G1X2235Y14927D1*
G1X2202Y14894D1*
G1X2169Y14827D1*
G1X2135Y14894D1*
G1X2102Y14927D1*
G1X2102Y14727D1*
G1X1829Y14727D2*
G1X1829Y14927D1*
G1X1812Y14727D2*
G1X1912Y14727D1*
G1X1945Y14760D1*
G1X1945Y14794D1*
G1X1929Y14827D1*
G1X1829Y14827D2*
G1X1929Y14827D1*
G1X1945Y14860D1*
G1X1945Y14894D1*
G1X1912Y14927D1*
G1X1812Y14927D1*
G1X7583Y14269D2*
G1X7383Y14369D1*
G1X7383Y14235D1*
G1X7516Y13962D2*
G1X7550Y13962D1*
G1X7583Y13979D1*
G1X7583Y14045D1*
G1X7550Y14062D1*
G1X7383Y14062D1*
G1X7383Y14079D2*
G1X7383Y14012D1*
G1X1212Y11279D2*
G1X1245Y11312D1*
G1X1279Y11329D1*
G1X1345Y11329D1*
G1X1379Y11312D1*
G1X1412Y11279D1*
G1X1412Y11245D1*
G1X1379Y11212D1*
G1X1345Y11195D1*
G1X1279Y11195D1*
G1X1245Y11212D1*
G1X1212Y11245D1*
G1X1212Y11279D1*
G1X1212Y11485D2*
G1X1212Y11619D1*
G1X1345Y11485D1*
G1X1379Y11485D1*
G1X1412Y11502D1*
G1X1412Y11602D1*
G1X1379Y11619D1*
G1X1212Y11892D2*
G1X1412Y11892D1*
G1X1212Y11909D2*
G1X1212Y11809D1*
G1X1279Y11775D1*
G1X1345Y11775D1*
G1X1412Y11809D1*
G1X1412Y11909D1*
G1X4227Y22850D2*
G1X4193Y22867D1*
G1X4193Y22967D1*
G1X4227Y22983D1*
G1X4360Y22983D1*
G1X4393Y22967D1*
G1X4393Y22867D1*
G1X4360Y22850D1*
G1X4260Y20090D2*
G1X4260Y20223D1*
G1X4193Y20090D2*
G1X4293Y20090D1*
G1X4393Y20140D1*
G1X4393Y20173D1*
G1X4293Y20223D1*
G1X4193Y20223D1*
G1X4892Y21265D2*
G1X5092Y21165D1*
G1X5092Y21299D1*
G1X4892Y21455D2*
G1X4892Y21589D1*
G1X5025Y21455D1*
G1X5059Y21455D1*
G1X5092Y21472D1*
G1X5092Y21572D1*
G1X5059Y21589D1*
G1X4892Y21862D2*
G1X5092Y21862D1*
G1X4892Y21879D2*
G1X4892Y21779D1*
G1X4959Y21745D1*
G1X5025Y21745D1*
G1X5092Y21779D1*
G1X5092Y21879D1*
G1X1905Y11875D2*
G1X1905Y11775D1*
G1X1872Y11759D1*
G1X1839Y11759D1*
G1X1805Y11775D1*
G1X1805Y11875D1*
G1X1839Y11892D1*
G1X1872Y11892D1*
G1X2005Y11825D1*
G1X2005Y11602D2*
G1X2005Y11535D1*
G1X2005Y11569D2*
G1X1805Y11569D1*
G1X1839Y11535D1*
G1X2005Y11229D2*
G1X1805Y11229D1*
G1X2005Y11212D2*
G1X2005Y11312D1*
G1X1939Y11345D1*
G1X1872Y11345D1*
G1X1805Y11312D1*
G1X1805Y11212D1*
G1X570Y7210D2*
G1X570Y7343D1*
G1X503Y7210D2*
G1X603Y7210D1*
G1X703Y7260D1*
G1X703Y7293D1*
G1X603Y7343D1*
G1X503Y7343D1*
G1X1893Y24860D2*
G1X1798Y24955D1*
G1X1940Y25002D1*
G1X1963Y24978D1*
G1X1822Y24837D1*
G1X1558Y25101D2*
G1X1699Y25242D1*
G1X1546Y25113D2*
G1X1617Y25042D1*
G1X1687Y25065D1*
G1X1735Y25113D1*
G1X1758Y25183D1*
G1X1687Y25254D1*
G1X21869Y22670D2*
G1X21902Y22704D1*
G1X21902Y22770D1*
G1X21869Y22804D1*
G1X21835Y22804D1*
G1X21769Y22737D1*
G1X21702Y22804D1*
G1X21702Y22670D1*
G1X21902Y22397D2*
G1X21702Y22397D1*
G1X21902Y22380D2*
G1X21902Y22480D1*
G1X21835Y22514D1*
G1X21769Y22514D1*
G1X21702Y22480D1*
G1X21702Y22380D1*
G1X44635Y26942D2*
G1X44541Y27037D1*
G1X44729Y27037D1*
G1X44753Y27060D1*
G1X44765Y27096D1*
G1X44694Y27166D1*
G1X44659Y27155D1*
G1X44347Y27230D2*
G1X44489Y27371D1*
G1X44336Y27242D2*
G1X44406Y27171D1*
G1X44477Y27195D1*
G1X44524Y27242D1*
G1X44548Y27312D1*
G1X44477Y27383D1*
G1X19842Y12454D2*
G1X19709Y12454D1*
G1X19775Y12587D1*
G1X19809Y12587D1*
G1X19809Y12387D1*
G1X19552Y12387D2*
G1X19485Y12387D1*
G1X19519Y12387D2*
G1X19519Y12587D1*
G1X19485Y12554D1*
G1X19245Y12487D2*
G1X19295Y12387D1*
G1X19162Y12487D2*
G1X19262Y12487D1*
G1X19295Y12520D1*
G1X19295Y12554D1*
G1X19262Y12587D1*
G1X19162Y12587D1*
G1X19162Y12387D1*
G1X43648Y-1627D2*
G1X43695Y-1674D1*
G1X43671Y-1651D2*
G1X43530Y-1792D1*
G1X43577Y-1792D1*
G1X43912Y-1891D2*
G1X43770Y-2033D1*
G1X43924Y-1903D2*
G1X43853Y-1832D1*
G1X43782Y-1856D1*
G1X43735Y-1903D1*
G1X43711Y-1974D1*
G1X43782Y-2044D1*
G1X41356Y3462D2*
G1X41356Y3396D1*
G1X41356Y3429D2*
G1X41156Y3429D1*
G1X41190Y3396D1*
G1X41156Y3206D2*
G1X41323Y3206D1*
G1X41356Y3189D1*
G1X41256Y3139D1*
G1X41223Y3139D2*
G1X41256Y3139D1*
G1X41356Y3089D1*
G1X41323Y3072D1*
G1X41156Y3072D1*
G1X41190Y2916D2*
G1X41156Y2899D1*
G1X41156Y2799D1*
G1X41190Y2782D1*
G1X41223Y2782D1*
G1X41256Y2799D1*
G1X41256Y2899D1*
G1X41290Y2916D1*
G1X41323Y2916D1*
G1X41356Y2899D1*
G1X41356Y2799D1*
G1X41323Y2782D1*
G1X-3307Y10580D2*
G1X-3273Y10563D1*
G1X-3273Y10463D1*
G1X-3307Y10447D1*
G1X-3440Y10447D1*
G1X-3473Y10463D1*
G1X-3473Y10563D1*
G1X-3440Y10580D1*
G1X-3340Y13340D2*
G1X-3340Y13207D1*
G1X-3273Y13340D2*
G1X-3373Y13340D1*
G1X-3473Y13290D1*
G1X-3473Y13257D1*
G1X-3373Y13207D1*
G1X-3273Y13207D1*
G1X-3732Y13848D2*
G1X-3732Y13948D1*
G1X-3699Y13964D1*
G1X-3665Y13964D1*
G1X-3632Y13948D1*
G1X-3632Y13848D1*
G1X-3665Y13831D1*
G1X-3699Y13831D1*
G1X-3832Y13898D1*
G1X-3632Y13674D2*
G1X-3632Y13541D1*
G1X-3765Y13674D1*
G1X-3799Y13674D1*
G1X-3832Y13658D1*
G1X-3832Y13558D1*
G1X-3799Y13541D1*
G1X-3632Y13268D2*
G1X-3832Y13268D1*
G1X-3632Y13251D2*
G1X-3632Y13351D1*
G1X-3699Y13384D1*
G1X-3765Y13384D1*
G1X-3832Y13351D1*
G1X-3832Y13251D1*
G1X3166Y4047D2*
G1X3200Y4013D1*
G1X3266Y4013D1*
G1X3300Y4047D1*
G1X3300Y4080D1*
G1X3233Y4147D1*
G1X3300Y4213D1*
G1X3166Y4213D1*
G1X3010Y4013D2*
G1X2943Y4013D1*
G1X2976Y4013D2*
G1X2976Y4213D1*
G1X2943Y4180D1*
G1X2753Y4047D2*
G1X2736Y4013D1*
G1X2636Y4013D1*
G1X2620Y4047D1*
G1X2620Y4180D1*
G1X2636Y4213D1*
G1X2736Y4213D1*
G1X2753Y4180D1*
G1X27525Y17060D2*
G1X27559Y17027D1*
G1X27625Y17027D1*
G1X27659Y17060D1*
G1X27659Y17093D1*
G1X27592Y17160D1*
G1X27659Y17227D1*
G1X27525Y17227D1*
G1X27302Y17093D2*
G1X27369Y17027D1*
G1X27235Y17060D2*
G1X27252Y17027D1*
G1X27319Y17027D1*
G1X27335Y17060D1*
G1X27369Y17093D1*
G1X27369Y17193D1*
G1X27352Y17227D1*
G1X27252Y17227D1*
G1X27235Y17193D1*
G1X27235Y17060D1*
G1X45250Y25408D2*
G1X45250Y25508D1*
G1X45284Y25524D1*
G1X45317Y25524D1*
G1X45350Y25508D1*
G1X45350Y25408D1*
G1X45317Y25391D1*
G1X45284Y25391D1*
G1X45150Y25458D1*
G1X45317Y25234D2*
G1X45350Y25218D1*
G1X45350Y25118D1*
G1X45317Y25101D1*
G1X45184Y25101D1*
G1X45150Y25118D1*
G1X45150Y25218D1*
G1X45184Y25234D1*
G1X24370Y11901D2*
G1X24370Y11835D1*
G1X24370Y11868D2*
G1X24170Y11868D1*
G1X24204Y11835D1*
G1X24370Y11645D2*
G1X24370Y11578D1*
G1X24370Y11611D2*
G1X24170Y11611D1*
G1X24204Y11578D1*
G1X24170Y11388D2*
G1X24337Y11388D1*
G1X24370Y11371D1*
G1X24370Y11271D1*
G1X24337Y11255D1*
G1X24170Y11255D1*
G1X28568Y8773D2*
G1X28568Y8840D1*
G1X28568Y8806D2*
G1X28768Y8806D1*
G1X28734Y8840D1*
G1X28568Y9030D2*
G1X28568Y9146D1*
G1X28768Y9146D1*
G1X28634Y9303D2*
G1X28634Y9436D1*
G1X28568Y9303D2*
G1X28668Y9303D1*
G1X28768Y9353D1*
G1X28768Y9386D1*
G1X28668Y9436D1*
G1X28568Y9436D1*
G1X28568Y9660D2*
G1X28768Y9660D1*
G1X28768Y9593D2*
G1X28768Y9726D1*
G1X28568Y9883D2*
G1X28768Y9983D1*
G1X28768Y9883D2*
G1X28568Y9983D1*
G1X-1351Y-800D2*
G1X-1351Y-933D1*
G1X-1484Y-800D1*
G1X-1518Y-800D1*
G1X-1551Y-816D1*
G1X-1551Y-916D1*
G1X-1518Y-933D1*
G1X-1451Y-1140D2*
G1X-1351Y-1090D1*
G1X-1451Y-1223D2*
G1X-1451Y-1123D1*
G1X-1484Y-1090D1*
G1X-1518Y-1090D1*
G1X-1551Y-1123D1*
G1X-1551Y-1223D1*
G1X-1351Y-1223D1*
G1X-1351Y-1380D2*
G1X-1351Y-1446D1*
G1X-1351Y-1413D2*
G1X-1551Y-1413D1*
G1X-1551Y-1380D2*
G1X-1551Y-1446D1*
G1X23065Y14838D2*
G1X23098Y14871D1*
G1X23131Y14888D1*
G1X23198Y14888D1*
G1X23231Y14871D1*
G1X23265Y14838D1*
G1X23265Y14804D1*
G1X23231Y14771D1*
G1X23198Y14754D1*
G1X23131Y14754D1*
G1X23098Y14771D1*
G1X23065Y14804D1*
G1X23065Y14838D1*
G1X23065Y15044D2*
G1X23065Y15111D1*
G1X23065Y15078D2*
G1X23265Y15078D1*
G1X23231Y15111D1*
G1X23265Y15301D2*
G1X23098Y15301D1*
G1X23065Y15318D1*
G1X23065Y15418D1*
G1X23098Y15434D1*
G1X23265Y15434D1*
G1X45908Y-3320D2*
G1X45908Y-3187D1*
G1X46041Y-3254D1*
G1X46041Y-3287D1*
G1X45841Y-3287D1*
G1X45941Y-2980D2*
G1X45841Y-3030D1*
G1X45941Y-2897D2*
G1X45941Y-2997D1*
G1X45974Y-3030D1*
G1X46008Y-3030D1*
G1X46041Y-2997D1*
G1X46041Y-2897D1*
G1X45841Y-2897D1*
G1X45841Y-2740D2*
G1X45841Y-2674D1*
G1X45841Y-2707D2*
G1X46041Y-2707D1*
G1X46041Y-2740D2*
G1X46041Y-2674D1*
G1X25748Y8783D2*
G1X25648Y8583D1*
G1X25781Y8583D1*
G1X25938Y8783D2*
G1X26004Y8783D1*
G1X25971Y8783D2*
G1X25971Y8583D1*
G1X26004Y8616D1*
G1X26194Y8749D2*
G1X26211Y8783D1*
G1X26311Y8783D1*
G1X26328Y8749D1*
G1X26328Y8616D1*
G1X26311Y8583D1*
G1X26211Y8583D1*
G1X26194Y8616D1*
G1X45244Y-4072D2*
G1X45344Y-3872D1*
G1X45210Y-3872D1*
G1X45054Y-4039D2*
G1X45037Y-4072D1*
G1X44937Y-4072D1*
G1X44920Y-4039D1*
G1X44920Y-3905D1*
G1X44937Y-3872D1*
G1X45037Y-3872D1*
G1X45054Y-3905D1*
G1X23205Y17917D2*
G1X23305Y17917D1*
G1X23322Y17884D1*
G1X23322Y17850D1*
G1X23305Y17817D1*
G1X23205Y17817D1*
G1X23189Y17850D1*
G1X23189Y17884D1*
G1X23255Y18017D1*
G1X23032Y17817D2*
G1X22965Y17817D1*
G1X22999Y17817D2*
G1X22999Y18017D1*
G1X22965Y17984D1*
G1X22775Y17850D2*
G1X22759Y17817D1*
G1X22659Y17817D1*
G1X22642Y17850D1*
G1X22642Y17984D1*
G1X22659Y18017D1*
G1X22759Y18017D1*
G1X22775Y17984D1*
G1X24904Y14358D2*
G1X24904Y14224D1*
G1X24770Y14291D1*
G1X24770Y14324D1*
G1X24970Y14324D1*
G1X24970Y14068D2*
G1X24970Y13951D1*
G1X24770Y13951D1*
G1X45874Y26183D2*
G1X45841Y26150D1*
G1X45841Y26083D1*
G1X45874Y26050D1*
G1X45908Y26050D1*
G1X45974Y26116D1*
G1X46041Y26050D1*
G1X46041Y26183D1*
G1X45941Y26390D2*
G1X45841Y26340D1*
G1X45941Y26473D2*
G1X45941Y26373D1*
G1X45974Y26340D1*
G1X46008Y26340D1*
G1X46041Y26373D1*
G1X46041Y26473D1*
G1X45841Y26473D1*
G1X45841Y26630D2*
G1X45841Y26696D1*
G1X45841Y26663D2*
G1X46041Y26663D1*
G1X46041Y26630D2*
G1X46041Y26696D1*
G1X21162Y7737D2*
G1X21062Y7737D1*
G1X21045Y7770D1*
G1X21045Y7803D1*
G1X21062Y7837D1*
G1X21162Y7837D1*
G1X21179Y7803D1*
G1X21179Y7770D1*
G1X21112Y7637D1*
G1X20889Y7837D2*
G1X20889Y7670D1*
G1X20872Y7637D1*
G1X20772Y7637D1*
G1X20755Y7670D1*
G1X20755Y7837D1*
G1X26893Y8952D2*
G1X26859Y8919D1*
G1X26826Y8902D1*
G1X26759Y8902D1*
G1X26726Y8919D1*
G1X26693Y8952D1*
G1X26693Y8985D1*
G1X26726Y9019D1*
G1X26759Y9035D1*
G1X26826Y9035D1*
G1X26859Y9019D1*
G1X26893Y8985D1*
G1X26893Y8952D1*
G1X26893Y8745D2*
G1X26893Y8612D1*
G1X26759Y8745D1*
G1X26726Y8745D1*
G1X26693Y8729D1*
G1X26693Y8629D1*
G1X26726Y8612D1*
G1X26859Y8455D2*
G1X26893Y8439D1*
G1X26893Y8339D1*
G1X26859Y8322D1*
G1X26726Y8322D1*
G1X26693Y8339D1*
G1X26693Y8439D1*
G1X26726Y8455D1*
G1X24827Y20656D2*
G1X24844Y20623D1*
G1X24944Y20623D1*
G1X24960Y20656D1*
G1X24960Y20723D1*
G1X24927Y20756D1*
G1X24827Y20756D1*
G1X24827Y20823D1*
G1X24960Y20823D1*
G1X24620Y20723D2*
G1X24670Y20623D1*
G1X24537Y20723D2*
G1X24637Y20723D1*
G1X24670Y20756D1*
G1X24670Y20789D1*
G1X24637Y20823D1*
G1X24537Y20823D1*
G1X24537Y20623D1*
G1X24380Y20623D2*
G1X24314Y20623D1*
G1X24347Y20623D2*
G1X24347Y20823D1*
G1X24380Y20823D2*
G1X24314Y20823D1*
G1X26153Y15965D2*
G1X26119Y15982D1*
G1X26086Y15982D1*
G1X26053Y15965D1*
G1X26053Y15865D1*
G1X26086Y15849D1*
G1X26119Y15849D1*
G1X26153Y15865D1*
G1X26153Y15965D1*
G1X26186Y15982D1*
G1X26219Y15982D1*
G1X26253Y15965D1*
G1X26253Y15865D1*
G1X26219Y15849D1*
G1X26186Y15849D1*
G1X26153Y15865D1*
G1X26253Y15692D2*
G1X26253Y15625D1*
G1X26253Y15659D2*
G1X26053Y15659D1*
G1X26086Y15625D1*
G1X26219Y15435D2*
G1X26253Y15419D1*
G1X26253Y15319D1*
G1X26219Y15302D1*
G1X26086Y15302D1*
G1X26053Y15319D1*
G1X26053Y15419D1*
G1X26086Y15435D1*
G1X27073Y15842D2*
G1X26873Y15942D1*
G1X26873Y15809D1*
G1X27073Y15652D2*
G1X27073Y15585D1*
G1X27073Y15619D2*
G1X26873Y15619D1*
G1X26906Y15585D1*
G1X26973Y15345D2*
G1X27073Y15395D1*
G1X26973Y15262D2*
G1X26973Y15362D1*
G1X26939Y15395D1*
G1X26906Y15395D1*
G1X26873Y15362D1*
G1X26873Y15262D1*
G1X27073Y15262D1*
G1X20981Y9683D2*
G1X21114Y9683D1*
G1X20981Y9550D1*
G1X20981Y9516D1*
G1X20998Y9483D1*
G1X21098Y9483D1*
G1X21114Y9516D1*
G1X21338Y9616D2*
G1X21271Y9683D1*
G1X21404Y9650D2*
G1X21388Y9683D1*
G1X21321Y9683D1*
G1X21304Y9650D1*
G1X21271Y9616D1*
G1X21271Y9516D1*
G1X21288Y9483D1*
G1X21388Y9483D1*
G1X21404Y9516D1*
G1X21404Y9650D1*
G1X18242Y11250D2*
G1X18209Y11234D1*
G1X18209Y11134D1*
G1X18242Y11117D1*
G1X18309Y11117D1*
G1X18342Y11150D1*
G1X18342Y11250D1*
G1X18409Y11250D1*
G1X18409Y11117D1*
G1X18209Y11407D2*
G1X18209Y11474D1*
G1X18209Y11440D2*
G1X18409Y11440D1*
G1X18375Y11474D1*
G1X18309Y11714D2*
G1X18209Y11664D1*
G1X18309Y11797D2*
G1X18309Y11697D1*
G1X18342Y11664D1*
G1X18375Y11664D1*
G1X18409Y11697D1*
G1X18409Y11797D1*
G1X18209Y11797D1*
G1X18785Y10470D2*
G1X18685Y10470D1*
G1X18669Y10504D1*
G1X18669Y10537D1*
G1X18685Y10570D1*
G1X18785Y10570D1*
G1X18802Y10537D1*
G1X18802Y10504D1*
G1X18735Y10370D1*
G1X18959Y10570D2*
G1X19025Y10570D1*
G1X18992Y10570D2*
G1X18992Y10370D1*
G1X19025Y10404D1*
G1X19265Y10470D2*
G1X19215Y10570D1*
G1X19349Y10470D2*
G1X19249Y10470D1*
G1X19215Y10437D1*
G1X19215Y10404D1*
G1X19249Y10370D1*
G1X19349Y10370D1*
G1X19349Y10570D1*
G1X26790Y10104D2*
G1X26790Y10004D1*
G1X26757Y9988D1*
G1X26724Y9988D1*
G1X26690Y10004D1*
G1X26690Y10104D1*
G1X26724Y10121D1*
G1X26757Y10121D1*
G1X26890Y10054D1*
G1X26890Y9831D2*
G1X26890Y9764D1*
G1X26890Y9798D2*
G1X26690Y9798D1*
G1X26724Y9764D1*
G1X26857Y9574D2*
G1X26890Y9558D1*
G1X26890Y9458D1*
G1X26857Y9441D1*
G1X26724Y9441D1*
G1X26690Y9458D1*
G1X26690Y9558D1*
G1X26724Y9574D1*
G1X23806Y2964D2*
G1X23906Y2964D1*
G1X23923Y2931D1*
G1X23923Y2897D1*
G1X23906Y2864D1*
G1X23806Y2864D1*
G1X23790Y2897D1*
G1X23790Y2931D1*
G1X23856Y3064D1*
G1X23583Y2964D2*
G1X23633Y2864D1*
G1X23500Y2964D2*
G1X23600Y2964D1*
G1X23633Y2997D1*
G1X23633Y3031D1*
G1X23600Y3064D1*
G1X23500Y3064D1*
G1X23500Y2864D1*
G1X23343Y2864D2*
G1X23276Y2864D1*
G1X23310Y2864D2*
G1X23310Y3064D1*
G1X23343Y3064D2*
G1X23276Y3064D1*
G1X-1321Y24607D2*
G1X-1321Y24540D1*
G1X-1321Y24574D2*
G1X-1521Y24574D1*
G1X-1488Y24540D1*
G1X-1421Y24300D2*
G1X-1321Y24350D1*
G1X-1421Y24217D2*
G1X-1421Y24317D1*
G1X-1454Y24350D1*
G1X-1488Y24350D1*
G1X-1521Y24317D1*
G1X-1521Y24217D1*
G1X-1321Y24217D1*
G1X-1321Y24060D2*
G1X-1321Y23994D1*
G1X-1321Y24027D2*
G1X-1521Y24027D1*
G1X-1521Y24060D2*
G1X-1521Y23994D1*
G1X28284Y16483D2*
G1X28268Y16449D1*
G1X28268Y16416D1*
G1X28284Y16383D1*
G1X28384Y16383D1*
G1X28401Y16416D1*
G1X28401Y16449D1*
G1X28384Y16483D1*
G1X28284Y16483D1*
G1X28268Y16516D1*
G1X28268Y16549D1*
G1X28284Y16583D1*
G1X28384Y16583D1*
G1X28401Y16549D1*
G1X28401Y16516D1*
G1X28384Y16483D1*
G1X28558Y16583D2*
G1X28624Y16583D1*
G1X28591Y16583D2*
G1X28591Y16383D1*
G1X28624Y16416D1*
G1X28864Y16483D2*
G1X28814Y16583D1*
G1X28948Y16483D2*
G1X28848Y16483D1*
G1X28814Y16449D1*
G1X28814Y16416D1*
G1X28848Y16383D1*
G1X28948Y16383D1*
G1X28948Y16583D1*
G1X20803Y17972D2*
G1X20769Y17939D1*
G1X20736Y17922D1*
G1X20669Y17922D1*
G1X20636Y17939D1*
G1X20603Y17972D1*
G1X20603Y18005D1*
G1X20636Y18039D1*
G1X20669Y18055D1*
G1X20736Y18055D1*
G1X20769Y18039D1*
G1X20803Y18005D1*
G1X20803Y17972D1*
G1X20803Y17765D2*
G1X20803Y17632D1*
G1X20669Y17765D1*
G1X20636Y17765D1*
G1X20603Y17749D1*
G1X20603Y17649D1*
G1X20636Y17632D1*
G1X20703Y17425D2*
G1X20803Y17475D1*
G1X20703Y17342D2*
G1X20703Y17442D1*
G1X20669Y17475D1*
G1X20636Y17475D1*
G1X20603Y17442D1*
G1X20603Y17342D1*
G1X20803Y17342D1*
G1X30077Y18914D2*
G1X30077Y19014D1*
G1X30110Y19031D1*
G1X30144Y19031D1*
G1X30177Y19014D1*
G1X30177Y18914D1*
G1X30144Y18898D1*
G1X30110Y18898D1*
G1X29977Y18964D1*
G1X29977Y19188D2*
G1X29977Y19254D1*
G1X29977Y19221D2*
G1X30177Y19221D1*
G1X30144Y19254D1*
G1X30077Y19494D2*
G1X29977Y19444D1*
G1X30077Y19578D2*
G1X30077Y19478D1*
G1X30110Y19444D1*
G1X30144Y19444D1*
G1X30177Y19478D1*
G1X30177Y19578D1*
G1X29977Y19578D1*
G1X-394Y25315D2*
G1X-527Y25315D1*
G1X-460Y25449D1*
G1X-427Y25449D1*
G1X-427Y25249D1*
G1X-684Y25282D2*
G1X-700Y25249D1*
G1X-800Y25249D1*
G1X-817Y25282D1*
G1X-817Y25415D1*
G1X-800Y25449D1*
G1X-700Y25449D1*
G1X-684Y25415D1*
G1X-627Y-188D2*
G1X-610Y-221D1*
G1X-510Y-221D1*
G1X-494Y-188D1*
G1X-494Y-121D1*
G1X-527Y-88D1*
G1X-627Y-88D1*
G1X-627Y-21D1*
G1X-494Y-21D1*
G1X-784Y-188D2*
G1X-800Y-221D1*
G1X-900Y-221D1*
G1X-917Y-188D1*
G1X-917Y-54D1*
G1X-900Y-21D1*
G1X-800Y-21D1*
G1X-784Y-54D1*
G1X27850Y15961D2*
G1X27850Y15828D1*
G1X27717Y15961D1*
G1X27684Y15961D1*
G1X27650Y15944D1*
G1X27650Y15844D1*
G1X27684Y15828D1*
G1X27850Y15671D2*
G1X27850Y15604D1*
G1X27850Y15638D2*
G1X27650Y15638D1*
G1X27684Y15604D1*
G1X27817Y15414D2*
G1X27850Y15398D1*
G1X27850Y15298D1*
G1X27817Y15281D1*
G1X27684Y15281D1*
G1X27650Y15298D1*
G1X27650Y15398D1*
G1X27684Y15414D1*
G1X28924Y13033D2*
G1X28958Y12999D1*
G1X29024Y12999D1*
G1X29058Y13033D1*
G1X29058Y13066D1*
G1X28991Y13133D1*
G1X29058Y13199D1*
G1X28924Y13199D1*
G1X28768Y12999D2*
G1X28651Y12999D1*
G1X28651Y13199D1*
G1X31764Y347D2*
G1X31831Y347D1*
G1X31798Y347D2*
G1X31798Y147D1*
G1X31831Y180D1*
G1X32021Y314D2*
G1X32038Y347D1*
G1X32138Y347D1*
G1X32154Y314D1*
G1X32154Y180D1*
G1X32138Y147D1*
G1X32038Y147D1*
G1X32021Y180D1*
G1X32642Y408D2*
G1X32709Y408D1*
G1X32676Y408D2*
G1X32676Y208D1*
G1X32709Y242D1*
G1X32899Y208D2*
G1X32899Y275D1*
G1X32966Y408D1*
G1X33032Y275D1*
G1X33032Y208D1*
G1X33189Y408D2*
G1X33306Y408D1*
G1X33306Y208D1*
G1X32958Y663D2*
G1X32958Y697D1*
G1X32925Y697D1*
G1X32925Y663D1*
G1X32958Y663D1*
G1X13179Y5544D2*
G1X13179Y5610D1*
G1X13179Y5577D2*
G1X13379Y5577D1*
G1X13345Y5610D1*
G1X13345Y5800D2*
G1X13379Y5817D1*
G1X13379Y5917D1*
G1X13345Y5934D1*
G1X13312Y5934D1*
G1X13279Y5917D1*
G1X13279Y5817D1*
G1X13245Y5800D1*
G1X13212Y5800D1*
G1X13179Y5817D1*
G1X13179Y5917D1*
G1X13212Y5934D1*
G1X13179Y6090D2*
G1X13179Y6207D1*
G1X13379Y6207D1*
G1X33741Y367D2*
G1X33874Y367D1*
G1X33741Y234D1*
G1X33741Y200D1*
G1X33758Y167D1*
G1X33858Y167D1*
G1X33874Y200D1*
G1X34031Y334D2*
G1X34048Y367D1*
G1X34148Y367D1*
G1X34164Y334D1*
G1X34164Y200D1*
G1X34148Y167D1*
G1X34048Y167D1*
G1X34031Y200D1*
G1X46358Y14280D2*
G1X46358Y14214D1*
G1X46358Y14247D2*
G1X46158Y14247D1*
G1X46191Y14214D1*
G1X46258Y13659D2*
G1X46258Y13525D1*
G1X46358Y13659D2*
G1X46158Y13659D1*
G1X46358Y13525D2*
G1X46158Y13525D1*
G1X46258Y13235D2*
G1X46258Y13335D1*
G1X46224Y13369D1*
G1X46191Y13369D1*
G1X46158Y13335D1*
G1X46158Y13235D1*
G1X46358Y13235D1*
G1X46291Y13079D2*
G1X46291Y12945D1*
G1X46358Y13079D2*
G1X46258Y13079D1*
G1X46158Y13029D1*
G1X46158Y12995D1*
G1X46258Y12945D1*
G1X46358Y12945D1*
G1X46258Y12739D2*
G1X46358Y12789D1*
G1X46258Y12655D2*
G1X46258Y12755D1*
G1X46224Y12789D1*
G1X46191Y12789D1*
G1X46158Y12755D1*
G1X46158Y12655D1*
G1X46358Y12655D1*
G1X46258Y12432D2*
G1X46258Y12499D1*
G1X46324Y12499D1*
G1X46358Y12482D1*
G1X46358Y12382D1*
G1X46324Y12365D1*
G1X46191Y12365D1*
G1X46158Y12382D1*
G1X46158Y12482D1*
G1X46191Y12499D1*
G1X46258Y11794D2*
G1X46358Y11844D1*
G1X46258Y11710D2*
G1X46258Y11810D1*
G1X46224Y11844D1*
G1X46191Y11844D1*
G1X46158Y11810D1*
G1X46158Y11710D1*
G1X46358Y11710D1*
G1X46291Y11554D2*
G1X46291Y11420D1*
G1X46358Y11554D2*
G1X46258Y11554D1*
G1X46158Y11504D1*
G1X46158Y11470D1*
G1X46258Y11420D1*
G1X46358Y11420D1*
G1X46358Y11147D2*
G1X46158Y11147D1*
G1X46358Y11130D2*
G1X46358Y11230D1*
G1X46324Y11264D1*
G1X46291Y11264D1*
G1X46258Y11247D1*
G1X46258Y11147D2*
G1X46258Y11247D1*
G1X46224Y11264D1*
G1X46191Y11264D1*
G1X46158Y11230D1*
G1X46158Y11130D1*
G1X46358Y10492D2*
G1X46158Y10492D1*
G1X46358Y10475D2*
G1X46358Y10575D1*
G1X46291Y10609D1*
G1X46224Y10609D1*
G1X46158Y10575D1*
G1X46158Y10475D1*
G1X46258Y10285D2*
G1X46258Y10185D1*
G1X46358Y10319D2*
G1X46358Y10185D1*
G1X46158Y10185D1*
G1X46158Y10319D1*
G1X46358Y10029D2*
G1X46358Y9912D1*
G1X46158Y9912D1*
G1X44418Y4680D2*
G1X44618Y4580D1*
G1X44618Y4713D1*
G1X44418Y4987D2*
G1X44618Y4987D1*
G1X44418Y5003D2*
G1X44418Y4903D1*
G1X44485Y4870D1*
G1X44552Y4870D1*
G1X44618Y4903D1*
G1X44618Y5003D1*
G1X8Y17577D2*
G1X42Y17610D1*
G1X75Y17627D1*
G1X142Y17627D1*
G1X175Y17610D1*
G1X208Y17577D1*
G1X208Y17543D1*
G1X175Y17510D1*
G1X142Y17493D1*
G1X75Y17493D1*
G1X42Y17510D1*
G1X8Y17543D1*
G1X8Y17577D1*
G1X8Y17783D2*
G1X8Y17850D1*
G1X8Y17817D2*
G1X208Y17817D1*
G1X175Y17850D1*
G1X8Y18157D2*
G1X208Y18157D1*
G1X8Y18173D2*
G1X8Y18073D1*
G1X75Y18040D1*
G1X142Y18040D1*
G1X208Y18073D1*
G1X208Y18173D1*
G1X37272Y2542D2*
G1X37289Y2575D1*
G1X37289Y2609D1*
G1X37272Y2642D1*
G1X37172Y2642D1*
G1X37155Y2609D1*
G1X37155Y2575D1*
G1X37172Y2542D1*
G1X37272Y2542D1*
G1X37289Y2509D1*
G1X37289Y2475D1*
G1X37272Y2442D1*
G1X37172Y2442D1*
G1X37155Y2475D1*
G1X37155Y2509D1*
G1X37172Y2542D1*
G1X36999Y2642D2*
G1X36999Y2475D1*
G1X36982Y2442D1*
G1X36882Y2442D1*
G1X36865Y2475D1*
G1X36865Y2642D1*
G1X44931Y-1760D2*
G1X44864Y-1760D1*
G1X44898Y-1760D2*
G1X44898Y-1560D1*
G1X44864Y-1594D1*
G1X44624Y-1660D2*
G1X44674Y-1760D1*
G1X44541Y-1660D2*
G1X44641Y-1660D1*
G1X44674Y-1627D1*
G1X44674Y-1594D1*
G1X44641Y-1560D1*
G1X44541Y-1560D1*
G1X44541Y-1760D1*
G1X19939Y1567D2*
G1X20039Y1567D1*
G1X20055Y1534D1*
G1X20055Y1500D1*
G1X20039Y1467D1*
G1X19939Y1467D1*
G1X19922Y1500D1*
G1X19922Y1534D1*
G1X19989Y1667D1*
G1X19649Y1467D2*
G1X19649Y1667D1*
G1X19632Y1467D2*
G1X19732Y1467D1*
G1X19765Y1534D1*
G1X19765Y1600D1*
G1X19732Y1667D1*
G1X19632Y1667D1*
G1X48Y5397D2*
G1X48Y5497D1*
G1X82Y5513D1*
G1X115Y5513D1*
G1X148Y5497D1*
G1X148Y5397D1*
G1X115Y5380D1*
G1X82Y5380D1*
G1X-52Y5447D1*
G1X-52Y5787D2*
G1X148Y5787D1*
G1X-52Y5803D2*
G1X-52Y5703D1*
G1X15Y5670D1*
G1X82Y5670D1*
G1X148Y5703D1*
G1X148Y5803D1*
G1X1929Y-1655D2*
G1X1964Y-1667D1*
G1X2035Y-1596D1*
G1X2023Y-1561D1*
G1X1976Y-1514D1*
G1X1929Y-1514D1*
G1X1858Y-1584D1*
G1X1811Y-1537D1*
G1X1905Y-1443D1*
G1X1759Y-1872D2*
G1X1618Y-1731D1*
G1X1747Y-1884D2*
G1X1818Y-1813D1*
G1X1794Y-1742D1*
G1X1747Y-1695D1*
G1X1677Y-1672D1*
G1X1606Y-1742D1*
G1X20838Y1843D2*
G1X20838Y1743D1*
G1X20804Y1726D1*
G1X20771Y1726D1*
G1X20738Y1743D1*
G1X20738Y1843D1*
G1X20771Y1859D1*
G1X20804Y1859D1*
G1X20938Y1793D1*
G1X20838Y2066D2*
G1X20738Y2016D1*
G1X20838Y2149D2*
G1X20838Y2049D1*
G1X20871Y2016D1*
G1X20904Y2016D1*
G1X20938Y2049D1*
G1X20938Y2149D1*
G1X20738Y2149D1*
G1X519Y-2469D2*
G1X552Y-2453D1*
G1X552Y-2353D1*
G1X519Y-2336D1*
G1X452Y-2336D1*
G1X419Y-2369D1*
G1X419Y-2469D1*
G1X352Y-2469D1*
G1X352Y-2336D1*
G1X452Y-2676D2*
G1X552Y-2626D1*
G1X452Y-2759D2*
G1X452Y-2659D1*
G1X419Y-2626D1*
G1X385Y-2626D1*
G1X352Y-2659D1*
G1X352Y-2759D1*
G1X552Y-2759D1*
G1X44448Y20707D2*
G1X44482Y20690D1*
G1X44515Y20690D1*
G1X44548Y20707D1*
G1X44548Y20807D1*
G1X44515Y20823D1*
G1X44482Y20823D1*
G1X44448Y20807D1*
G1X44448Y20707D1*
G1X44415Y20690D1*
G1X44382Y20690D1*
G1X44348Y20707D1*
G1X44348Y20807D1*
G1X44382Y20823D1*
G1X44415Y20823D1*
G1X44448Y20807D1*
G1X44348Y21097D2*
G1X44548Y21097D1*
G1X44348Y21113D2*
G1X44348Y21013D1*
G1X44415Y20980D1*
G1X44482Y20980D1*
G1X44548Y21013D1*
G1X44548Y21113D1*
G1X42111Y5438D2*
G1X42011Y5238D1*
G1X42144Y5238D1*
G1X42301Y5238D2*
G1X42301Y5405D1*
G1X42318Y5438D1*
G1X42418Y5438D1*
G1X42434Y5405D1*
G1X42434Y5238D1*
G1X655Y25974D2*
G1X522Y25974D1*
G1X589Y26107D1*
G1X622Y26107D1*
G1X622Y25907D1*
G1X315Y26007D2*
G1X365Y25907D1*
G1X232Y26007D2*
G1X332Y26007D1*
G1X365Y26040D1*
G1X365Y26074D1*
G1X332Y26107D1*
G1X232Y26107D1*
G1X232Y25907D1*
G1X20311Y20943D2*
G1X20344Y20909D1*
G1X20411Y20909D1*
G1X20444Y20943D1*
G1X20444Y20976D1*
G1X20378Y21043D1*
G1X20444Y21109D1*
G1X20311Y21109D1*
G1X20104Y21009D2*
G1X20154Y20909D1*
G1X20021Y21009D2*
G1X20121Y21009D1*
G1X20154Y21043D1*
G1X20154Y21076D1*
G1X20121Y21109D1*
G1X20021Y21109D1*
G1X20021Y20909D1*
G1X46747Y17324D2*
G1X46947Y17224D1*
G1X46947Y17358D1*
G1X46847Y17564D2*
G1X46747Y17514D1*
G1X46847Y17648D2*
G1X46847Y17548D1*
G1X46880Y17514D1*
G1X46914Y17514D1*
G1X46947Y17548D1*
G1X46947Y17648D1*
G1X46747Y17648D1*
G1X44663Y24655D2*
G1X44663Y24522D1*
G1X44529Y24655D1*
G1X44496Y24655D1*
G1X44463Y24639D1*
G1X44463Y24539D1*
G1X44496Y24522D1*
G1X44563Y24315D2*
G1X44663Y24365D1*
G1X44563Y24232D2*
G1X44563Y24332D1*
G1X44529Y24365D1*
G1X44496Y24365D1*
G1X44463Y24332D1*
G1X44463Y24232D1*
G1X44663Y24232D1*
G1X37172Y5292D2*
G1X37272Y5292D1*
G1X37289Y5259D1*
G1X37289Y5225D1*
G1X37272Y5192D1*
G1X37172Y5192D1*
G1X37155Y5225D1*
G1X37155Y5259D1*
G1X37222Y5392D1*
G1X36999Y5392D2*
G1X36999Y5225D1*
G1X36982Y5192D1*
G1X36882Y5192D1*
G1X36865Y5225D1*
G1X36865Y5392D1*
G1X48047Y17241D2*
G1X48080Y17224D1*
G1X48114Y17224D1*
G1X48147Y17241D1*
G1X48147Y17341D1*
G1X48114Y17358D1*
G1X48080Y17358D1*
G1X48047Y17341D1*
G1X48047Y17241D1*
G1X48014Y17224D1*
G1X47980Y17224D1*
G1X47947Y17241D1*
G1X47947Y17341D1*
G1X47980Y17358D1*
G1X48014Y17358D1*
G1X48047Y17341D1*
G1X48047Y17564D2*
G1X47947Y17514D1*
G1X48047Y17648D2*
G1X48047Y17548D1*
G1X48080Y17514D1*
G1X48114Y17514D1*
G1X48147Y17548D1*
G1X48147Y17648D1*
G1X47947Y17648D1*
G1X42138Y-1820D2*
G1X42104Y-1787D1*
G1X42038Y-1787D1*
G1X42004Y-1820D1*
G1X42004Y-1854D1*
G1X42071Y-1920D1*
G1X42004Y-1987D1*
G1X42138Y-1987D1*
G1X42294Y-1820D2*
G1X42311Y-1787D1*
G1X42411Y-1787D1*
G1X42428Y-1820D1*
G1X42428Y-1954D1*
G1X42411Y-1987D1*
G1X42311Y-1987D1*
G1X42294Y-1954D1*
G1X30908Y3566D2*
G1X30908Y3433D1*
G1X30774Y3566D1*
G1X30741Y3566D1*
G1X30708Y3550D1*
G1X30708Y3450D1*
G1X30741Y3433D1*
G1X30708Y3276D2*
G1X30874Y3276D1*
G1X30908Y3260D1*
G1X30908Y3160D1*
G1X30874Y3143D1*
G1X30708Y3143D1*
G1X34022Y21973D2*
G1X34089Y21973D1*
G1X34055Y21973D2*
G1X34055Y21773D1*
G1X34089Y21806D1*
G1X26735Y22003D2*
G1X26635Y22003D1*
G1X26619Y22036D1*
G1X26619Y22070D1*
G1X26635Y22103D1*
G1X26735Y22103D1*
G1X26752Y22070D1*
G1X26752Y22036D1*
G1X26685Y21903D1*
G1X31454Y19953D2*
G1X31521Y19953D1*
G1X31488Y19953D2*
G1X31488Y19753D1*
G1X31521Y19786D1*
G1X31778Y19953D2*
G1X31778Y19753D1*
G1X31711Y19753D2*
G1X31844Y19753D1*
G1X32001Y19953D2*
G1X32118Y19953D1*
G1X32118Y19753D1*
G1X32274Y19953D2*
G1X32341Y19953D1*
G1X32308Y19953D2*
G1X32308Y19753D1*
G1X32274Y19753D2*
G1X32341Y19753D1*
G1X32598Y19953D2*
G1X32598Y19753D1*
G1X32531Y19753D2*
G1X32664Y19753D1*
G1X32821Y19753D2*
G1X32921Y19953D1*
G1X33094Y19753D2*
G1X33094Y19953D1*
G1X33128Y19919D1*
G1X33194Y19786D1*
G1X33228Y19753D1*
G1X33228Y19953D1*
G1X33384Y19886D2*
G1X33518Y19886D1*
G1X33384Y19953D2*
G1X33384Y19853D1*
G1X33434Y19753D1*
G1X33468Y19753D1*
G1X33518Y19853D1*
G1X33518Y19953D1*
G1X33808Y19853D2*
G1X33708Y19853D1*
G1X33674Y19819D1*
G1X33674Y19786D1*
G1X33708Y19753D1*
G1X33808Y19753D1*
G1X33808Y19953D1*
G1X41106Y748D2*
G1X41106Y681D1*
G1X41106Y715D2*
G1X40906Y715D1*
G1X40939Y681D1*
G1X41006Y458D2*
G1X41006Y358D1*
G1X41106Y491D2*
G1X41106Y358D1*
G1X40906Y358D1*
G1X40906Y491D1*
G1X41073Y201D2*
G1X41106Y185D1*
G1X41106Y85D1*
G1X41073Y68D1*
G1X40939Y68D1*
G1X40906Y85D1*
G1X40906Y185D1*
G1X40939Y201D1*
G1X40906Y-89D2*
G1X41106Y-89D1*
G1X41073Y-122D1*
G1X40939Y-189D1*
G1X40906Y-222D1*
G1X41106Y-222D1*
G1X41106Y-495D2*
G1X40906Y-495D1*
G1X41106Y-512D2*
G1X41106Y-412D1*
G1X41073Y-379D1*
G1X41039Y-379D1*
G1X41006Y-395D1*
G1X41006Y-495D2*
G1X41006Y-395D1*
G1X40973Y-379D1*
G1X40939Y-379D1*
G1X40906Y-412D1*
G1X40906Y-512D1*
G1X41106Y-785D2*
G1X40906Y-785D1*
G1X41106Y-802D2*
G1X41106Y-702D1*
G1X41039Y-669D1*
G1X40973Y-669D1*
G1X40906Y-702D1*
G1X40906Y-802D1*
G1X13548Y7497D2*
G1X13548Y7719D1*
G1X13436Y7608D2*
G1X13659Y7608D1*
G1X15380Y7610D2*
G1X15513Y7610D1*
G1X4979Y18468D2*
G1X4979Y18401D1*
G1X4979Y18434D2*
G1X4779Y18434D1*
G1X4813Y18401D1*
G1X4979Y18211D2*
G1X4979Y18094D1*
G1X4779Y18094D1*
G1X5046Y17938D2*
G1X5046Y17804D1*
G1X4946Y17648D2*
G1X4979Y17631D1*
G1X4979Y17531D1*
G1X4946Y17514D1*
G1X4813Y17514D1*
G1X4779Y17531D1*
G1X4779Y17631D1*
G1X4813Y17648D1*
G1X4979Y17241D2*
G1X4779Y17241D1*
G1X4979Y17224D2*
G1X4979Y17324D1*
G1X4946Y17358D1*
G1X4913Y17358D1*
G1X4879Y17341D1*
G1X4879Y17241D2*
G1X4879Y17341D1*
G1X4846Y17358D1*
G1X4813Y17358D1*
G1X4779Y17324D1*
G1X4779Y17224D1*
G1X3443Y16362D2*
G1X3476Y16329D1*
G1X3543Y16329D1*
G1X3576Y16362D1*
G1X3576Y16395D1*
G1X3509Y16462D1*
G1X3576Y16529D1*
G1X3443Y16529D1*
G1X3236Y16429D2*
G1X3286Y16329D1*
G1X3153Y16429D2*
G1X3253Y16429D1*
G1X3286Y16462D1*
G1X3286Y16495D1*
G1X3253Y16529D1*
G1X3153Y16529D1*
G1X3153Y16329D1*
G1X2996Y16262D2*
G1X2863Y16262D1*
G1X2706Y16362D2*
G1X2689Y16329D1*
G1X2589Y16329D1*
G1X2573Y16362D1*
G1X2573Y16495D1*
G1X2589Y16529D1*
G1X2689Y16529D1*
G1X2706Y16495D1*
G1X2299Y16329D2*
G1X2299Y16529D1*
G1X2283Y16329D2*
G1X2383Y16329D1*
G1X2416Y16362D1*
G1X2416Y16395D1*
G1X2399Y16429D1*
G1X2299Y16429D2*
G1X2399Y16429D1*
G1X2416Y16462D1*
G1X2416Y16495D1*
G1X2383Y16529D1*
G1X2283Y16529D1*
G1X17832Y10633D2*
G1X17832Y10699D1*
G1X17832Y10666D2*
G1X18032Y10666D1*
G1X17999Y10699D1*
G1X17999Y10889D2*
G1X18032Y10906D1*
G1X18032Y11006D1*
G1X17999Y11023D1*
G1X17965Y11023D1*
G1X17932Y11006D1*
G1X17932Y10906D1*
G1X17899Y10889D1*
G1X17865Y10889D1*
G1X17832Y10906D1*
G1X17832Y11006D1*
G1X17865Y11023D1*
G1X17865Y11179D2*
G1X17832Y11196D1*
G1X17832Y11296D1*
G1X17865Y11313D1*
G1X17999Y11313D1*
G1X18032Y11296D1*
G1X18032Y11196D1*
G1X17999Y11179D1*
G1X17765Y11469D2*
G1X17765Y11603D1*
G1X17932Y11809D2*
G1X17832Y11759D1*
G1X17932Y11893D2*
G1X17932Y11793D1*
G1X17965Y11759D1*
G1X17999Y11759D1*
G1X18032Y11793D1*
G1X18032Y11893D1*
G1X17832Y11893D1*
G1X18032Y12049D2*
G1X17965Y12049D1*
G1X17832Y12116D1*
G1X17965Y12183D1*
G1X18032Y12183D1*
G1X12240Y17668D2*
G1X12240Y17601D1*
G1X12240Y17634D2*
G1X12040Y17634D1*
G1X12074Y17601D1*
G1X12240Y17411D2*
G1X12240Y17344D1*
G1X12240Y17378D2*
G1X12040Y17378D1*
G1X12040Y17411D2*
G1X12040Y17344D1*
G1X12207Y17154D2*
G1X12240Y17138D1*
G1X12240Y17038D1*
G1X12207Y17021D1*
G1X12074Y17021D1*
G1X12040Y17038D1*
G1X12040Y17138D1*
G1X12074Y17154D1*
G1X12307Y16864D2*
G1X12307Y16731D1*
G1X12140Y16524D2*
G1X12240Y16574D1*
G1X12140Y16441D2*
G1X12140Y16541D1*
G1X12107Y16574D1*
G1X12074Y16574D1*
G1X12040Y16541D1*
G1X12040Y16441D1*
G1X12240Y16441D1*
G1X12040Y16284D2*
G1X12107Y16284D1*
G1X12240Y16218D1*
G1X12107Y16151D1*
G1X12040Y16151D1*
G1X15781Y16139D2*
G1X15714Y16139D1*
G1X15748Y16139D2*
G1X15748Y16339D1*
G1X15714Y16306D1*
G1X15408Y16139D2*
G1X15391Y16173D1*
G1X15391Y16306D1*
G1X15408Y16339D1*
G1X15508Y16339D1*
G1X15524Y16306D1*
G1X15524Y16173D1*
G1X15508Y16139D1*
G1X15408Y16139D1*
G1X15234Y16173D2*
G1X15218Y16139D1*
G1X15118Y16139D1*
G1X15101Y16173D1*
G1X15101Y16306D1*
G1X15118Y16339D1*
G1X15218Y16339D1*
G1X15234Y16306D1*
G1X14944Y16073D2*
G1X14811Y16073D1*
G1X14604Y16239D2*
G1X14654Y16139D1*
G1X14521Y16239D2*
G1X14621Y16239D1*
G1X14654Y16273D1*
G1X14654Y16306D1*
G1X14621Y16339D1*
G1X14521Y16339D1*
G1X14521Y16139D1*
G1X14364Y16339D2*
G1X14364Y16273D1*
G1X14298Y16139D1*
G1X14231Y16273D1*
G1X14231Y16339D1*
G1X1584Y16544D2*
G1X1584Y16411D1*
G1X1450Y16478D1*
G1X1450Y16511D1*
G1X1650Y16511D1*
G1X1550Y16204D2*
G1X1650Y16254D1*
G1X1550Y16121D2*
G1X1550Y16221D1*
G1X1517Y16254D1*
G1X1484Y16254D1*
G1X1450Y16221D1*
G1X1450Y16121D1*
G1X1650Y16121D1*
G1X1717Y15964D2*
G1X1717Y15831D1*
G1X1617Y15674D2*
G1X1650Y15658D1*
G1X1650Y15558D1*
G1X1617Y15541D1*
G1X1484Y15541D1*
G1X1450Y15558D1*
G1X1450Y15658D1*
G1X1484Y15674D1*
G1X1650Y15268D2*
G1X1450Y15268D1*
G1X1650Y15251D2*
G1X1650Y15351D1*
G1X1617Y15384D1*
G1X1584Y15384D1*
G1X1550Y15368D1*
G1X1550Y15268D2*
G1X1550Y15368D1*
G1X1517Y15384D1*
G1X1484Y15384D1*
G1X1450Y15351D1*
G1X1450Y15251D1*
G1X17063Y10292D2*
G1X17063Y10225D1*
G1X17063Y10259D2*
G1X16863Y10259D1*
G1X16896Y10225D1*
G1X17029Y10035D2*
G1X17063Y10019D1*
G1X17063Y9919D1*
G1X17029Y9902D1*
G1X16896Y9902D1*
G1X16863Y9919D1*
G1X16863Y10019D1*
G1X16896Y10035D1*
G1X17129Y9745D2*
G1X17129Y9612D1*
G1X16963Y9405D2*
G1X17063Y9455D1*
G1X16963Y9322D2*
G1X16963Y9422D1*
G1X16929Y9455D1*
G1X16896Y9455D1*
G1X16863Y9422D1*
G1X16863Y9322D1*
G1X17063Y9322D1*
G1X16863Y9165D2*
G1X16929Y9165D1*
G1X17063Y9099D1*
G1X16929Y9032D1*
G1X16863Y9032D1*
G1X17962Y17754D2*
G1X17896Y17754D1*
G1X17929Y17754D2*
G1X17929Y17954D1*
G1X17896Y17921D1*
G1X17706Y17754D2*
G1X17589Y17754D1*
G1X17589Y17954D1*
G1X17432Y17687D2*
G1X17299Y17687D1*
G1X17092Y17854D2*
G1X17142Y17754D1*
G1X17009Y17854D2*
G1X17109Y17854D1*
G1X17142Y17887D1*
G1X17142Y17921D1*
G1X17109Y17954D1*
G1X17009Y17954D1*
G1X17009Y17754D1*
G1X16852Y17954D2*
G1X16852Y17887D1*
G1X16786Y17754D1*
G1X16719Y17887D1*
G1X16719Y17954D1*
G1X4237Y15254D2*
G1X4237Y15388D1*
G1X4370Y15254D1*
G1X4404Y15254D1*
G1X4437Y15271D1*
G1X4437Y15371D1*
G1X4404Y15388D1*
G1X4337Y15594D2*
G1X4237Y15544D1*
G1X4337Y15678D2*
G1X4337Y15578D1*
G1X4370Y15544D1*
G1X4404Y15544D1*
G1X4437Y15578D1*
G1X4437Y15678D1*
G1X4237Y15678D1*
G1X4170Y15834D2*
G1X4170Y15968D1*
G1X4270Y16124D2*
G1X4237Y16141D1*
G1X4237Y16241D1*
G1X4270Y16258D1*
G1X4404Y16258D1*
G1X4437Y16241D1*
G1X4437Y16141D1*
G1X4404Y16124D1*
G1X4237Y16531D2*
G1X4437Y16531D1*
G1X4237Y16548D2*
G1X4237Y16448D1*
G1X4270Y16414D1*
G1X4304Y16414D1*
G1X4337Y16431D1*
G1X4337Y16531D2*
G1X4337Y16431D1*
G1X4370Y16414D1*
G1X4404Y16414D1*
G1X4437Y16448D1*
G1X4437Y16548D1*
G1X14663Y11575D2*
G1X14630Y11542D1*
G1X14596Y11525D1*
G1X14530Y11525D1*
G1X14496Y11542D1*
G1X14463Y11575D1*
G1X14463Y11609D1*
G1X14496Y11642D1*
G1X14530Y11659D1*
G1X14596Y11659D1*
G1X14630Y11642D1*
G1X14663Y11609D1*
G1X14663Y11575D1*
G1X14630Y11235D2*
G1X14663Y11252D1*
G1X14663Y11352D1*
G1X14630Y11369D1*
G1X14563Y11369D1*
G1X14530Y11335D1*
G1X14530Y11235D1*
G1X14463Y11235D1*
G1X14463Y11369D1*
G1X14563Y11012D2*
G1X14563Y11079D1*
G1X14630Y11079D1*
G1X14663Y11062D1*
G1X14663Y10962D1*
G1X14630Y10945D1*
G1X14496Y10945D1*
G1X14463Y10962D1*
G1X14463Y11062D1*
G1X14496Y11079D1*
G1X14563Y10755D2*
G1X14563Y10655D1*
G1X14663Y10789D2*
G1X14663Y10655D1*
G1X14463Y10655D1*
G1X14463Y10789D1*
G1X14563Y10449D2*
G1X14663Y10499D1*
G1X14563Y10365D2*
G1X14563Y10465D1*
G1X14530Y10499D1*
G1X14496Y10499D1*
G1X14463Y10465D1*
G1X14463Y10365D1*
G1X14663Y10365D1*
G1X14463Y10209D2*
G1X14530Y10209D1*
G1X14663Y10142D1*
G1X14530Y10075D1*
G1X14463Y10075D1*
G1X8278Y9663D2*
G1X8311Y9680D1*
G1X8311Y9780D1*
G1X8278Y9796D1*
G1X8211Y9796D1*
G1X8178Y9763D1*
G1X8178Y9663D1*
G1X8111Y9663D1*
G1X8111Y9796D1*
G1X8311Y9506D2*
G1X8311Y9390D1*
G1X8111Y9390D1*
G1X18348Y14583D2*
G1X18248Y14583D1*
G1X18231Y14616D1*
G1X18231Y14650D1*
G1X18248Y14683D1*
G1X18348Y14683D1*
G1X18364Y14650D1*
G1X18364Y14616D1*
G1X18298Y14483D1*
G1X18638Y14616D2*
G1X18638Y14650D1*
G1X18621Y14683D1*
G1X18554Y14683D1*
G1X18538Y14650D1*
G1X18538Y14483D1*
G1X18521Y14483D2*
G1X18588Y14483D1*
G1X3453Y23439D2*
G1X3386Y23439D1*
G1X3419Y23439D2*
G1X3419Y23639D1*
G1X3386Y23605D1*
G1X3196Y23605D2*
G1X3179Y23639D1*
G1X3079Y23639D1*
G1X3063Y23605D1*
G1X3063Y23572D1*
G1X3079Y23539D1*
G1X3179Y23539D1*
G1X3196Y23505D1*
G1X3196Y23472D1*
G1X3179Y23439D1*
G1X3079Y23439D1*
G1X3063Y23472D1*
G1X2856Y23539D2*
G1X2906Y23439D1*
G1X2773Y23539D2*
G1X2873Y23539D1*
G1X2906Y23572D1*
G1X2906Y23605D1*
G1X2873Y23639D1*
G1X2773Y23639D1*
G1X2773Y23439D1*
G1X2616Y23372D2*
G1X2483Y23372D1*
G1X2326Y23472D2*
G1X2309Y23439D1*
G1X2209Y23439D1*
G1X2193Y23472D1*
G1X2193Y23605D1*
G1X2209Y23639D1*
G1X2309Y23639D1*
G1X2326Y23605D1*
G1X1919Y23439D2*
G1X1919Y23639D1*
G1X1903Y23439D2*
G1X2003Y23439D1*
G1X2036Y23472D1*
G1X2036Y23505D1*
G1X2019Y23539D1*
G1X1919Y23539D2*
G1X2019Y23539D1*
G1X2036Y23572D1*
G1X2036Y23605D1*
G1X2003Y23639D1*
G1X1903Y23639D1*
G1X4667Y9700D2*
G1X4633Y9717D1*
G1X4633Y9817D1*
G1X4667Y9833D1*
G1X4800Y9833D1*
G1X4833Y9817D1*
G1X4833Y9717D1*
G1X4800Y9700D1*
G1X1847Y9700D2*
G1X1813Y9717D1*
G1X1813Y9817D1*
G1X1847Y9833D1*
G1X1980Y9833D1*
G1X2013Y9817D1*
G1X2013Y9717D1*
G1X1980Y9700D1*
G1X1217Y9690D2*
G1X1183Y9707D1*
G1X1183Y9807D1*
G1X1217Y9823D1*
G1X1350Y9823D1*
G1X1383Y9807D1*
G1X1383Y9707D1*
G1X1350Y9690D1*
G1X-1533Y9690D2*
G1X-1567Y9707D1*
G1X-1567Y9807D1*
G1X-1533Y9823D1*
G1X-1400Y9823D1*
G1X-1367Y9807D1*
G1X-1367Y9707D1*
G1X-1400Y9690D1*
G1X1870Y10380D2*
G1X1870Y10513D1*
G1X1803Y10380D2*
G1X1903Y10380D1*
G1X2003Y10430D1*
G1X2003Y10463D1*
G1X1903Y10513D1*
G1X1803Y10513D1*
G1X4690Y10380D2*
G1X4690Y10513D1*
G1X4623Y10380D2*
G1X4723Y10380D1*
G1X4823Y10430D1*
G1X4823Y10463D1*
G1X4723Y10513D1*
G1X4623Y10513D1*
G1X1260Y10390D2*
G1X1260Y10523D1*
G1X1193Y10390D2*
G1X1293Y10390D1*
G1X1393Y10440D1*
G1X1393Y10473D1*
G1X1293Y10523D1*
G1X1193Y10523D1*
G1X-1490Y10390D2*
G1X-1490Y10523D1*
G1X-1557Y10390D2*
G1X-1457Y10390D1*
G1X-1357Y10440D1*
G1X-1357Y10473D1*
G1X-1457Y10523D1*
G1X-1557Y10523D1*
G1X14868Y12923D2*
G1X14934Y12923D1*
G1X14901Y12923D2*
G1X14901Y12723D1*
G1X14934Y12756D1*
G1X15124Y12723D2*
G1X15124Y12923D1*
G1X15158Y12889D1*
G1X15224Y12756D1*
G1X15258Y12723D1*
G1X15258Y12923D1*
G1X15448Y12823D2*
G1X15548Y12823D1*
G1X15414Y12923D2*
G1X15548Y12923D1*
G1X15548Y12723D1*
G1X15414Y12723D1*
G1X15704Y12756D2*
G1X15721Y12723D1*
G1X15821Y12723D1*
G1X15838Y12756D1*
G1X15838Y12789D1*
G1X15821Y12823D1*
G1X15721Y12823D1*
G1X15704Y12856D1*
G1X15704Y12889D1*
G1X15721Y12923D1*
G1X15821Y12923D1*
G1X15838Y12889D1*
G1X16044Y12823D2*
G1X15994Y12923D1*
G1X16128Y12823D2*
G1X16028Y12823D1*
G1X15994Y12789D1*
G1X15994Y12756D1*
G1X16028Y12723D1*
G1X16128Y12723D1*
G1X16128Y12923D1*
G1X16284Y12989D2*
G1X16418Y12989D1*
G1X16624Y12823D2*
G1X16574Y12923D1*
G1X16708Y12823D2*
G1X16608Y12823D1*
G1X16574Y12789D1*
G1X16574Y12756D1*
G1X16608Y12723D1*
G1X16708Y12723D1*
G1X16708Y12923D1*
G1X16864Y12723D2*
G1X16864Y12789D1*
G1X16931Y12923D1*
G1X16998Y12789D1*
G1X16998Y12723D1*
G1X6467Y20501D2*
G1X6333Y20501D1*
G1X6467Y20634D1*
G1X6467Y20667D1*
G1X6450Y20701D1*
G1X6350Y20701D1*
G1X6333Y20667D1*
G1X6177Y20701D2*
G1X6177Y20534D1*
G1X6160Y20501D1*
G1X6110Y20601D1*
G1X6110Y20634D2*
G1X6110Y20601D1*
G1X6060Y20501D1*
G1X6043Y20534D1*
G1X6043Y20701D1*
G1X5887Y20667D2*
G1X5870Y20701D1*
G1X5770Y20701D1*
G1X5753Y20667D1*
G1X5753Y20634D1*
G1X5770Y20601D1*
G1X5870Y20601D1*
G1X5887Y20567D1*
G1X5887Y20534D1*
G1X5870Y20501D1*
G1X5770Y20501D1*
G1X5753Y20534D1*
G1X-939Y14580D2*
G1X-994Y14552D1*
G1X-994Y14386D1*
G1X-939Y14358D1*
G1X-828Y14358D1*
G1X-772Y14413D1*
G1X-772Y14580D1*
G1X-661Y14580D1*
G1X-661Y14358D1*
G1X-883Y14942D2*
G1X-939Y14942D1*
G1X-994Y14914D1*
G1X-994Y14803D1*
G1X-939Y14776D1*
G1X-661Y14776D1*
G1X-661Y14748D2*
G1X-661Y14859D1*
G1X34397Y21636D2*
G1X34397Y21502D1*
G1X34263Y21569D1*
G1X34263Y21602D1*
G1X34463Y21602D1*
G1X34263Y21346D2*
G1X34330Y21346D1*
G1X34463Y21279D1*
G1X34330Y21212D1*
G1X34263Y21212D1*
G1X34463Y21056D2*
G1X34463Y20939D1*
G1X34263Y20939D1*
G1X34648Y21267D2*
G1X34682Y21267D1*
G1X34682Y21300D1*
G1X34648Y21300D1*
G1X34648Y21267D1*
G1X40469Y12957D2*
G1X40485Y12990D1*
G1X40485Y13024D1*
G1X40469Y13057D1*
G1X40369Y13057D1*
G1X40352Y13024D1*
G1X40352Y12990D1*
G1X40369Y12957D1*
G1X40469Y12957D1*
G1X40485Y12924D1*
G1X40485Y12890D1*
G1X40469Y12857D1*
G1X40369Y12857D1*
G1X40352Y12890D1*
G1X40352Y12924D1*
G1X40369Y12957D1*
G1X40195Y12857D2*
G1X40062Y12857D1*
G1X40195Y12990D1*
G1X40195Y13024D1*
G1X40179Y13057D1*
G1X40079Y13057D1*
G1X40062Y13024D1*
G1X39905Y12890D2*
G1X39889Y12857D1*
G1X39789Y12857D1*
G1X39772Y12890D1*
G1X39772Y13024D1*
G1X39789Y13057D1*
G1X39889Y13057D1*
G1X39905Y13024D1*
G1X39045Y20067D2*
G1X38912Y20067D1*
G1X39045Y20200D1*
G1X39045Y20234D1*
G1X39029Y20267D1*
G1X38929Y20267D1*
G1X38912Y20234D1*
G1X38622Y20100D2*
G1X38655Y20067D1*
G1X38722Y20067D1*
G1X38755Y20100D1*
G1X38755Y20134D1*
G1X38689Y20200D1*
G1X38755Y20267D1*
G1X38622Y20267D1*
G1X38465Y20100D2*
G1X38449Y20067D1*
G1X38349Y20067D1*
G1X38332Y20100D1*
G1X38332Y20234D1*
G1X38349Y20267D1*
G1X38449Y20267D1*
G1X38465Y20234D1*
G1X43184Y9790D2*
G1X43218Y9757D1*
G1X43284Y9757D1*
G1X43318Y9790D1*
G1X43318Y9824D1*
G1X43251Y9890D1*
G1X43318Y9957D1*
G1X43184Y9957D1*
G1X43028Y9957D2*
G1X43028Y9757D1*
G1X42994Y9790D1*
G1X42928Y9924D1*
G1X42894Y9957D1*
G1X42894Y9757D1*
G1X42738Y9757D2*
G1X42671Y9757D1*
G1X42704Y9757D2*
G1X42704Y9957D1*
G1X42738Y9957D2*
G1X42671Y9957D1*
G1X42481Y9824D2*
G1X42348Y9824D1*
G1X42481Y9757D2*
G1X42481Y9857D1*
G1X42431Y9957D1*
G1X42398Y9957D1*
G1X42348Y9857D1*
G1X42348Y9757D1*
G1X42124Y9857D2*
G1X42191Y9857D1*
G1X42191Y9790D1*
G1X42174Y9757D1*
G1X42074Y9757D1*
G1X42058Y9790D1*
G1X42058Y9924D1*
G1X42074Y9957D1*
G1X42174Y9957D1*
G1X42191Y9924D1*
G1X41851Y9857D2*
G1X41901Y9757D1*
G1X41768Y9857D2*
G1X41868Y9857D1*
G1X41901Y9890D1*
G1X41901Y9924D1*
G1X41868Y9957D1*
G1X41768Y9957D1*
G1X41768Y9757D1*
G1X36242Y22650D2*
G1X36275Y22617D1*
G1X36342Y22617D1*
G1X36375Y22650D1*
G1X36375Y22684D1*
G1X36309Y22750D1*
G1X36375Y22817D1*
G1X36242Y22817D1*
G1X35952Y22650D2*
G1X35985Y22617D1*
G1X36052Y22617D1*
G1X36085Y22650D1*
G1X36085Y22684D1*
G1X36019Y22750D1*
G1X36085Y22817D1*
G1X35952Y22817D1*
G1X35795Y22650D2*
G1X35779Y22617D1*
G1X35679Y22617D1*
G1X35662Y22650D1*
G1X35662Y22784D1*
G1X35679Y22817D1*
G1X35779Y22817D1*
G1X35795Y22784D1*
G1X36363Y21072D2*
G1X36330Y21039D1*
G1X36330Y20972D1*
G1X36363Y20939D1*
G1X36397Y20939D1*
G1X36463Y21006D1*
G1X36530Y20939D1*
G1X36530Y21072D1*
G1X36530Y21229D2*
G1X36463Y21229D1*
G1X36330Y21296D1*
G1X36463Y21362D1*
G1X36530Y21362D1*
G1X36330Y21519D2*
G1X36330Y21636D1*
G1X36530Y21636D1*
G1X35578Y21267D2*
G1X35612Y21267D1*
G1X35612Y21300D1*
G1X35578Y21300D1*
G1X35578Y21267D1*
G1X43893Y12552D2*
G1X43893Y12419D1*
G1X43759Y12552D1*
G1X43726Y12552D1*
G1X43693Y12535D1*
G1X43693Y12435D1*
G1X43726Y12419D1*
G1X43693Y12262D2*
G1X43893Y12262D1*
G1X43859Y12229D1*
G1X43726Y12162D1*
G1X43693Y12129D1*
G1X43893Y12129D1*
G1X43893Y11972D2*
G1X43893Y11905D1*
G1X43893Y11939D2*
G1X43693Y11939D1*
G1X43693Y11972D2*
G1X43693Y11905D1*
G1X43826Y11715D2*
G1X43826Y11582D1*
G1X43893Y11715D2*
G1X43793Y11715D1*
G1X43693Y11665D1*
G1X43693Y11632D1*
G1X43793Y11582D1*
G1X43893Y11582D1*
G1X43793Y11359D2*
G1X43793Y11425D1*
G1X43859Y11425D1*
G1X43893Y11409D1*
G1X43893Y11309D1*
G1X43859Y11292D1*
G1X43726Y11292D1*
G1X43693Y11309D1*
G1X43693Y11409D1*
G1X43726Y11425D1*
G1X43793Y11085D2*
G1X43893Y11135D1*
G1X43793Y11002D2*
G1X43793Y11102D1*
G1X43759Y11135D1*
G1X43726Y11135D1*
G1X43693Y11102D1*
G1X43693Y11002D1*
G1X43893Y11002D1*
G1X42080Y14568D2*
G1X42080Y14668D1*
G1X42114Y14684D1*
G1X42147Y14684D1*
G1X42180Y14668D1*
G1X42180Y14568D1*
G1X42147Y14551D1*
G1X42114Y14551D1*
G1X41980Y14618D1*
G1X42180Y14394D2*
G1X42180Y14261D1*
G1X42047Y14394D1*
G1X42014Y14394D1*
G1X41980Y14378D1*
G1X41980Y14278D1*
G1X42014Y14261D1*
G1X42147Y14104D2*
G1X42180Y14088D1*
G1X42180Y13988D1*
G1X42147Y13971D1*
G1X42014Y13971D1*
G1X41980Y13988D1*
G1X41980Y14088D1*
G1X42014Y14104D1*
G1X35562Y19820D2*
G1X35462Y19820D1*
G1X35445Y19854D1*
G1X35445Y19887D1*
G1X35462Y19920D1*
G1X35562Y19920D1*
G1X35579Y19887D1*
G1X35579Y19854D1*
G1X35512Y19720D1*
G1X35869Y19887D2*
G1X35835Y19920D1*
G1X35769Y19920D1*
G1X35735Y19887D1*
G1X35735Y19854D1*
G1X35802Y19787D1*
G1X35735Y19720D1*
G1X35869Y19720D1*
G1X36025Y19887D2*
G1X36042Y19920D1*
G1X36142Y19920D1*
G1X36159Y19887D1*
G1X36159Y19754D1*
G1X36142Y19720D1*
G1X36042Y19720D1*
G1X36025Y19754D1*
G1X42004Y15619D2*
G1X41871Y15619D1*
G1X42004Y15753D1*
G1X42004Y15786D1*
G1X41988Y15819D1*
G1X41888Y15819D1*
G1X41871Y15786D1*
G1X41714Y15619D2*
G1X41581Y15619D1*
G1X41714Y15753D1*
G1X41714Y15786D1*
G1X41698Y15819D1*
G1X41598Y15819D1*
G1X41581Y15786D1*
G1X41424Y15653D2*
G1X41408Y15619D1*
G1X41308Y15619D1*
G1X41291Y15653D1*
G1X41291Y15786D1*
G1X41308Y15819D1*
G1X41408Y15819D1*
G1X41424Y15786D1*
G1X43947Y13588D2*
G1X43947Y13655D1*
G1X43947Y13621D2*
G1X44147Y13621D1*
G1X44114Y13655D1*
G1X43947Y13911D2*
G1X44147Y13911D1*
G1X44147Y13845D2*
G1X44147Y13978D1*
G1X44047Y14168D2*
G1X44047Y14268D1*
G1X43947Y14268D2*
G1X44147Y14268D1*
G1X44147Y14135D1*
G1X43947Y14425D2*
G1X44147Y14525D1*
G1X44147Y14425D2*
G1X43947Y14525D1*
G1X44047Y14698D2*
G1X44047Y14831D1*
G1X43947Y14698D2*
G1X44147Y14698D1*
G1X43947Y14831D2*
G1X44147Y14831D1*
G1X43570Y14602D2*
G1X43537Y14602D1*
G1X43537Y14569D1*
G1X43570Y14569D1*
G1X43570Y14602D1*
G1X43425Y15428D2*
G1X43425Y15495D1*
G1X43425Y15461D2*
G1X43625Y15461D1*
G1X43592Y15495D1*
G1X37705Y16260D2*
G1X37722Y16227D1*
G1X37822Y16227D1*
G1X37839Y16260D1*
G1X37839Y16327D1*
G1X37805Y16360D1*
G1X37705Y16360D1*
G1X37705Y16427D1*
G1X37839Y16427D1*
G1X37482Y16293D2*
G1X37549Y16227D1*
G1X37415Y16260D2*
G1X37432Y16227D1*
G1X37499Y16227D1*
G1X37515Y16260D1*
G1X37549Y16293D1*
G1X37549Y16393D1*
G1X37532Y16427D1*
G1X37432Y16427D1*
G1X37415Y16393D1*
G1X37415Y16260D1*
G1X38817Y12192D2*
G1X38817Y12125D1*
G1X38817Y12158D2*
G1X38617Y12158D1*
G1X38650Y12125D1*
G1X38717Y11868D2*
G1X38717Y11935D1*
G1X38783Y11935D1*
G1X38817Y11918D1*
G1X38817Y11818D1*
G1X38783Y11802D1*
G1X38650Y11802D1*
G1X38617Y11818D1*
G1X38617Y11918D1*
G1X38650Y11935D1*
G1X38750Y11645D2*
G1X38750Y11512D1*
G1X38817Y11645D2*
G1X38717Y11645D1*
G1X38617Y11595D1*
G1X38617Y11562D1*
G1X38717Y11512D1*
G1X38817Y11512D1*
G1X38817Y11355D2*
G1X38617Y11355D1*
G1X38650Y11322D1*
G1X38717Y11288D1*
G1X38650Y11255D1*
G1X38617Y11222D1*
G1X38817Y11222D1*
G1X39252Y10862D2*
G1X39252Y10795D1*
G1X39252Y10829D2*
G1X39052Y10829D1*
G1X39085Y10795D1*
G1X42218Y17421D2*
G1X42218Y17488D1*
G1X42218Y17455D2*
G1X42418Y17455D1*
G1X42385Y17488D1*
G1X42218Y17678D2*
G1X42218Y17795D1*
G1X42418Y17795D1*
G1X42318Y17985D2*
G1X42318Y18085D1*
G1X42218Y17951D2*
G1X42218Y18085D1*
G1X42418Y18085D1*
G1X42418Y17951D1*
G1X42252Y18241D2*
G1X42218Y18258D1*
G1X42218Y18358D1*
G1X42252Y18375D1*
G1X42385Y18375D1*
G1X42418Y18358D1*
G1X42418Y18258D1*
G1X42385Y18241D1*
G1X42252Y18531D2*
G1X42218Y18548D1*
G1X42218Y18648D1*
G1X42252Y18665D1*
G1X42385Y18665D1*
G1X42418Y18648D1*
G1X42418Y18548D1*
G1X42385Y18531D1*
G1X42285Y18821D2*
G1X42285Y18955D1*
G1X42218Y18821D2*
G1X42318Y18821D1*
G1X42418Y18871D1*
G1X42418Y18905D1*
G1X42318Y18955D1*
G1X42218Y18955D1*
G1X41238Y16874D2*
G1X41238Y16941D1*
G1X41238Y16908D2*
G1X41438Y16908D1*
G1X41405Y16941D1*
G1X41004Y18187D2*
G1X41004Y18154D1*
G1X41037Y18154D1*
G1X41037Y18187D1*
G1X41004Y18187D1*
G1X34335Y19864D2*
G1X34469Y19864D1*
G1X34402Y19730D1*
G1X34369Y19730D1*
G1X34369Y19930D1*
G1X34759Y19897D2*
G1X34725Y19930D1*
G1X34659Y19930D1*
G1X34625Y19897D1*
G1X34625Y19864D1*
G1X34692Y19797D1*
G1X34625Y19730D1*
G1X34759Y19730D1*
G1X34915Y19897D2*
G1X34932Y19930D1*
G1X35032Y19930D1*
G1X35049Y19897D1*
G1X35049Y19764D1*
G1X35032Y19730D1*
G1X34932Y19730D1*
G1X34915Y19764D1*
G1X38797Y18882D2*
G1X38797Y18815D1*
G1X38797Y18848D2*
G1X38597Y18848D1*
G1X38630Y18815D1*
G1X38763Y18625D2*
G1X38797Y18608D1*
G1X38797Y18508D1*
G1X38763Y18492D1*
G1X38630Y18492D1*
G1X38597Y18508D1*
G1X38597Y18608D1*
G1X38630Y18625D1*
G1X38797Y18218D2*
G1X38597Y18218D1*
G1X38797Y18202D2*
G1X38797Y18302D1*
G1X38730Y18335D1*
G1X38663Y18335D1*
G1X38597Y18302D1*
G1X38597Y18202D1*
G1X38730Y18045D2*
G1X38730Y17912D1*
G1X38797Y18045D2*
G1X38697Y18045D1*
G1X38597Y17995D1*
G1X38597Y17962D1*
G1X38697Y17912D1*
G1X38797Y17912D1*
G1X36720Y18093D2*
G1X36753Y18093D1*
G1X36753Y18127D1*
G1X36720Y18127D1*
G1X36720Y18093D1*
G1X36442Y17382D2*
G1X36442Y17315D1*
G1X36442Y17349D2*
G1X36242Y17349D1*
G1X36275Y17315D1*
G1X35112Y22650D2*
G1X35129Y22617D1*
G1X35229Y22617D1*
G1X35245Y22650D1*
G1X35245Y22717D1*
G1X35212Y22750D1*
G1X35112Y22750D1*
G1X35112Y22817D1*
G1X35245Y22817D1*
G1X34822Y22650D2*
G1X34855Y22617D1*
G1X34922Y22617D1*
G1X34955Y22650D1*
G1X34955Y22684D1*
G1X34889Y22750D1*
G1X34955Y22817D1*
G1X34822Y22817D1*
G1X34665Y22650D2*
G1X34649Y22617D1*
G1X34549Y22617D1*
G1X34532Y22650D1*
G1X34532Y22784D1*
G1X34549Y22817D1*
G1X34649Y22817D1*
G1X34665Y22784D1*
G1X42334Y10429D2*
G1X42434Y10629D1*
G1X42301Y10629D1*
G1X42144Y10429D2*
G1X42011Y10429D1*
G1X42144Y10563D1*
G1X42144Y10596D1*
G1X42128Y10629D1*
G1X42028Y10629D1*
G1X42011Y10596D1*
G1X41854Y10463D2*
G1X41838Y10429D1*
G1X41738Y10429D1*
G1X41721Y10463D1*
G1X41721Y10596D1*
G1X41738Y10629D1*
G1X41838Y10629D1*
G1X41854Y10596D1*
G1X38087Y20988D2*
G1X38120Y20971D1*
G1X38154Y20971D1*
G1X38187Y20988D1*
G1X38187Y21088D1*
G1X38154Y21104D1*
G1X38120Y21104D1*
G1X38087Y21088D1*
G1X38087Y20988D1*
G1X38054Y20971D1*
G1X38020Y20971D1*
G1X37987Y20988D1*
G1X37987Y21088D1*
G1X38020Y21104D1*
G1X38054Y21104D1*
G1X38087Y21088D1*
G1X37987Y21261D2*
G1X37987Y21378D1*
G1X38187Y21378D1*
G1X42747Y12951D2*
G1X42780Y12984D1*
G1X42780Y13051D1*
G1X42747Y13084D1*
G1X42714Y13084D1*
G1X42647Y13018D1*
G1X42580Y13084D1*
G1X42580Y12951D1*
G1X42780Y12794D2*
G1X42780Y12661D1*
G1X42647Y12794D1*
G1X42614Y12794D1*
G1X42580Y12778D1*
G1X42580Y12678D1*
G1X42614Y12661D1*
G1X42747Y12504D2*
G1X42780Y12488D1*
G1X42780Y12388D1*
G1X42747Y12371D1*
G1X42614Y12371D1*
G1X42580Y12388D1*
G1X42580Y12488D1*
G1X42614Y12504D1*
G1X40471Y13576D2*
G1X40338Y13576D1*
G1X40404Y13709D1*
G1X40438Y13709D1*
G1X40438Y13509D1*
G1X40181Y13709D2*
G1X40181Y13509D1*
G1X40148Y13543D1*
G1X40081Y13676D1*
G1X40048Y13709D1*
G1X40048Y13509D1*
G1X39891Y13509D2*
G1X39824Y13509D1*
G1X39858Y13509D2*
G1X39858Y13709D1*
G1X39891Y13709D2*
G1X39824Y13709D1*
G1X39634Y13576D2*
G1X39501Y13576D1*
G1X39634Y13509D2*
G1X39634Y13609D1*
G1X39584Y13709D1*
G1X39551Y13709D1*
G1X39501Y13609D1*
G1X39501Y13509D1*
G1X39278Y13609D2*
G1X39344Y13609D1*
G1X39344Y13543D1*
G1X39328Y13509D1*
G1X39228Y13509D1*
G1X39211Y13543D1*
G1X39211Y13676D1*
G1X39228Y13709D1*
G1X39328Y13709D1*
G1X39344Y13676D1*
G1X39004Y13609D2*
G1X39054Y13509D1*
G1X38921Y13609D2*
G1X39021Y13609D1*
G1X39054Y13643D1*
G1X39054Y13676D1*
G1X39021Y13709D1*
G1X38921Y13709D1*
G1X38921Y13509D1*
G1X37155Y10735D2*
G1X37189Y10702D1*
G1X37255Y10702D1*
G1X37289Y10735D1*
G1X37289Y10769D1*
G1X37222Y10835D1*
G1X37289Y10902D1*
G1X37155Y10902D1*
G1X36999Y10902D2*
G1X36999Y10735D1*
G1X36982Y10702D1*
G1X36882Y10702D1*
G1X36865Y10735D1*
G1X36865Y10902D1*
G1X1269Y8335D2*
G1X1269Y8469D1*
G1X1402Y8402D1*
G1X1402Y8369D1*
G1X1202Y8369D1*
G1X1202Y8625D2*
G1X1202Y8759D1*
G1X1335Y8625D1*
G1X1369Y8625D1*
G1X1402Y8642D1*
G1X1402Y8742D1*
G1X1369Y8759D1*
G1X1202Y9032D2*
G1X1402Y9032D1*
G1X1202Y9049D2*
G1X1202Y8949D1*
G1X1269Y8915D1*
G1X1335Y8915D1*
G1X1402Y8949D1*
G1X1402Y9049D1*
G1X3927Y12950D2*
G1X3893Y12967D1*
G1X3893Y13067D1*
G1X3927Y13083D1*
G1X4060Y13083D1*
G1X4093Y13067D1*
G1X4093Y12967D1*
G1X4060Y12950D1*
G1X4732Y11235D2*
G1X4765Y11219D1*
G1X4799Y11219D1*
G1X4832Y11235D1*
G1X4832Y11335D1*
G1X4799Y11352D1*
G1X4765Y11352D1*
G1X4732Y11335D1*
G1X4732Y11235D1*
G1X4699Y11219D1*
G1X4665Y11219D1*
G1X4632Y11235D1*
G1X4632Y11335D1*
G1X4665Y11352D1*
G1X4699Y11352D1*
G1X4732Y11335D1*
G1X4632Y11509D2*
G1X4632Y11575D1*
G1X4632Y11542D2*
G1X4832Y11542D1*
G1X4799Y11575D1*
G1X4632Y11882D2*
G1X4832Y11882D1*
G1X4632Y11899D2*
G1X4632Y11799D1*
G1X4699Y11765D1*
G1X4765Y11765D1*
G1X4832Y11799D1*
G1X4832Y11899D1*
G1X2610Y7210D2*
G1X2610Y7343D1*
G1X2543Y7210D2*
G1X2643Y7210D1*
G1X2743Y7260D1*
G1X2743Y7293D1*
G1X2643Y7343D1*
G1X2543Y7343D1*
G1X1972Y8912D2*
G1X2005Y8945D1*
G1X2005Y9012D1*
G1X1972Y9045D1*
G1X1939Y9045D1*
G1X1872Y8979D1*
G1X1805Y9045D1*
G1X1805Y8912D1*
G1X2005Y8755D2*
G1X2005Y8622D1*
G1X1872Y8755D1*
G1X1839Y8755D1*
G1X1805Y8739D1*
G1X1805Y8639D1*
G1X1839Y8622D1*
G1X2005Y8349D2*
G1X1805Y8349D1*
G1X2005Y8332D2*
G1X2005Y8432D1*
G1X1939Y8465D1*
G1X1872Y8465D1*
G1X1805Y8432D1*
G1X1805Y8332D1*
G1X3990Y7200D2*
G1X3990Y7333D1*
G1X3923Y7200D2*
G1X4023Y7200D1*
G1X4123Y7250D1*
G1X4123Y7283D1*
G1X4023Y7333D1*
G1X3923Y7333D1*
G1X4632Y8305D2*
G1X4632Y8439D1*
G1X4765Y8305D1*
G1X4799Y8305D1*
G1X4832Y8322D1*
G1X4832Y8422D1*
G1X4799Y8439D1*
G1X4632Y8595D2*
G1X4632Y8729D1*
G1X4765Y8595D1*
G1X4799Y8595D1*
G1X4832Y8612D1*
G1X4832Y8712D1*
G1X4799Y8729D1*
G1X4632Y9002D2*
G1X4832Y9002D1*
G1X4632Y9019D2*
G1X4632Y8919D1*
G1X4699Y8885D1*
G1X4765Y8885D1*
G1X4832Y8919D1*
G1X4832Y9019D1*
G1X-823Y12950D2*
G1X-857Y12967D1*
G1X-857Y13067D1*
G1X-823Y13083D1*
G1X-690Y13083D1*
G1X-657Y13067D1*
G1X-657Y12967D1*
G1X-690Y12950D1*
G1X-1365Y11852D2*
G1X-1365Y11785D1*
G1X-1365Y11819D2*
G1X-1565Y11819D1*
G1X-1531Y11785D1*
G1X-1365Y11595D2*
G1X-1365Y11462D1*
G1X-1498Y11595D1*
G1X-1531Y11595D1*
G1X-1565Y11579D1*
G1X-1565Y11479D1*
G1X-1531Y11462D1*
G1X-1365Y11189D2*
G1X-1565Y11189D1*
G1X-1365Y11172D2*
G1X-1365Y11272D1*
G1X-1431Y11305D1*
G1X-1498Y11305D1*
G1X-1565Y11272D1*
G1X-1565Y11172D1*
G1X11324Y7178D2*
G1X11191Y7178D1*
G1X11324Y7312D1*
G1X11324Y7345D1*
G1X11307Y7378D1*
G1X11207Y7378D1*
G1X11191Y7345D1*
G1X11034Y7345D2*
G1X11017Y7378D1*
G1X10917Y7378D1*
G1X10901Y7345D1*
G1X10901Y7312D1*
G1X10917Y7278D1*
G1X11017Y7278D1*
G1X11034Y7245D1*
G1X11034Y7212D1*
G1X11017Y7178D1*
G1X10917Y7178D1*
G1X10901Y7212D1*
G1X10744Y7378D2*
G1X10744Y7212D1*
G1X10727Y7178D1*
G1X10627Y7178D1*
G1X10611Y7212D1*
G1X10611Y7378D1*
G1X5857Y4128D2*
G1X5790Y4128D1*
G1X5824Y4128D2*
G1X5824Y4328D1*
G1X5790Y4294D1*
G1X5484Y4128D2*
G1X5484Y4328D1*
G1X5467Y4128D2*
G1X5567Y4128D1*
G1X5600Y4161D1*
G1X5600Y4194D1*
G1X5584Y4228D1*
G1X5484Y4228D2*
G1X5584Y4228D1*
G1X5600Y4261D1*
G1X5600Y4294D1*
G1X5567Y4328D1*
G1X5467Y4328D1*
G1X5310Y4128D2*
G1X5244Y4128D1*
G1X5277Y4128D2*
G1X5277Y4328D1*
G1X5310Y4328D2*
G1X5244Y4328D1*
G1X18328Y8229D2*
G1X18428Y8229D1*
G1X18445Y8196D1*
G1X18445Y8163D1*
G1X18428Y8129D1*
G1X18328Y8129D1*
G1X18312Y8163D1*
G1X18312Y8196D1*
G1X18378Y8329D1*
G1X18155Y8129D2*
G1X18088Y8129D1*
G1X18122Y8129D2*
G1X18122Y8329D1*
G1X18088Y8296D1*
G1X17782Y8196D2*
G1X17782Y8163D1*
G1X17798Y8129D1*
G1X17865Y8129D1*
G1X17882Y8163D1*
G1X17882Y8329D1*
G1X17898Y8329D2*
G1X17832Y8329D1*
G1X-760Y7210D2*
G1X-760Y7343D1*
G1X-827Y7210D2*
G1X-727Y7210D1*
G1X-627Y7260D1*
G1X-627Y7293D1*
G1X-727Y7343D1*
G1X-827Y7343D1*
G1X-1398Y8852D2*
G1X-1365Y8869D1*
G1X-1365Y8969D1*
G1X-1398Y8985D1*
G1X-1465Y8985D1*
G1X-1498Y8952D1*
G1X-1498Y8852D1*
G1X-1565Y8852D1*
G1X-1565Y8985D1*
G1X-1365Y8695D2*
G1X-1365Y8562D1*
G1X-1498Y8695D1*
G1X-1531Y8695D1*
G1X-1565Y8679D1*
G1X-1565Y8579D1*
G1X-1531Y8562D1*
G1X-1365Y8289D2*
G1X-1565Y8289D1*
G1X-1365Y8272D2*
G1X-1365Y8372D1*
G1X-1431Y8405D1*
G1X-1498Y8405D1*
G1X-1565Y8372D1*
G1X-1565Y8272D1*
G1X30330Y17101D2*
G1X30264Y17101D1*
G1X30297Y17101D2*
G1X30297Y17301D1*
G1X30264Y17268D1*
G1X30074Y17301D2*
G1X30074Y17135D1*
G1X30057Y17101D1*
G1X29957Y17101D1*
G1X29940Y17135D1*
G1X29940Y17301D1*
G1X15595Y17795D2*
G1X15628Y17762D1*
G1X15695Y17762D1*
G1X15728Y17795D1*
G1X15728Y17828D1*
G1X15662Y17895D1*
G1X15728Y17962D1*
G1X15595Y17962D1*
G1X15305Y17795D2*
G1X15338Y17762D1*
G1X15405Y17762D1*
G1X15438Y17795D1*
G1X15438Y17828D1*
G1X15372Y17895D1*
G1X15438Y17962D1*
G1X15305Y17962D1*
G1X15082Y17862D2*
G1X15148Y17862D1*
G1X15148Y17795D1*
G1X15132Y17762D1*
G1X15032Y17762D1*
G1X15015Y17795D1*
G1X15015Y17928D1*
G1X15032Y17962D1*
G1X15132Y17962D1*
G1X15148Y17928D1*
G1X14825Y17862D2*
G1X14725Y17862D1*
G1X14858Y17762D2*
G1X14725Y17762D1*
G1X14725Y17962D1*
G1X14858Y17962D1*
G1X14518Y17862D2*
G1X14568Y17762D1*
G1X14435Y17862D2*
G1X14535Y17862D1*
G1X14568Y17895D1*
G1X14568Y17928D1*
G1X14535Y17962D1*
G1X14435Y17962D1*
G1X14435Y17762D1*
G1X14278Y17962D2*
G1X14278Y17895D1*
G1X14212Y17762D1*
G1X14145Y17895D1*
G1X14145Y17962D1*
G1X1185Y18622D2*
G1X1185Y18555D1*
G1X1185Y18588D2*
G1X985Y18588D1*
G1X1019Y18555D1*
G1X1152Y18365D2*
G1X1185Y18348D1*
G1X1185Y18248D1*
G1X1152Y18232D1*
G1X1019Y18232D1*
G1X985Y18248D1*
G1X985Y18348D1*
G1X1019Y18365D1*
G1X1185Y17958D2*
G1X985Y17958D1*
G1X1185Y17942D2*
G1X1185Y18042D1*
G1X1152Y18075D1*
G1X1119Y18075D1*
G1X1085Y18058D1*
G1X1085Y17958D2*
G1X1085Y18058D1*
G1X1052Y18075D1*
G1X1019Y18075D1*
G1X985Y18042D1*
G1X985Y17942D1*
G1X1433Y19193D2*
G1X1366Y19193D1*
G1X1400Y19193D2*
G1X1400Y19393D1*
G1X1366Y19360D1*
G1X27376Y3294D2*
G54D184*
G1X27376Y3189D1*
G1X27376Y3241D2*
G1X27061Y3241D1*
G1X27114Y3189D1*
G1X8849Y5680D2*
G1X8639Y5680D1*
G1X8849Y5890D1*
G1X8849Y5942D1*
G1X8823Y5995D1*
G1X8665Y5995D1*
G1X8639Y5942D1*
G1X8795Y6517D2*
G1X8690Y6517D1*
G1X8742Y6517D2*
G1X8742Y6832D1*
G1X8690Y6780D1*
G1X29554Y3328D2*
G1X29554Y3118D1*
G1X29344Y3328D1*
G1X29292Y3328D1*
G1X29239Y3302D1*
G1X29239Y3144D1*
G1X29292Y3118D1*
G1X4589Y3856D2*
G1X613Y3856D1*
G1X613Y-277D1*
G1X4589Y-277D1*
G1X5258Y392D1*
G1X5258Y3187D1*
G1X4589Y3856D1*
G1X33797Y16744D2*
G1X33969Y16867D1*
G1X33796Y16972D1*
G1X33796Y16744D1*
G1X15279Y17607D2*
G1X14649Y17607D1*
G1X14649Y16465D1*
G1X15279Y16465D1*
G1X15279Y17607D1*
G1X14653Y17375D2*
G1X15275Y17375D1*
G1X3036Y11950D2*
G54D201*
G1X3036Y12600D1*
G1X2890Y11390D2*
G1X2640Y11640D1*
G1X2380Y11380D1*
G1X2880Y11380D1*
G1X2360Y11700D2*
G1X2910Y11700D1*
G1X2205Y12600D2*
G1X2205Y11950D1*
G1X996Y9010D2*
G1X996Y9660D1*
G1X850Y8450D2*
G1X600Y8700D1*
G1X340Y8440D1*
G1X840Y8440D1*
G1X320Y8760D2*
G1X870Y8760D1*
G1X165Y9660D2*
G1X165Y9010D1*
G1X4416Y11950D2*
G1X4416Y12600D1*
G1X4270Y11390D2*
G1X4020Y11640D1*
G1X3760Y11380D1*
G1X4260Y11380D1*
G1X3740Y11700D2*
G1X4290Y11700D1*
G1X3585Y12600D2*
G1X3585Y11950D1*
G1X3036Y9010D2*
G1X3036Y9660D1*
G1X2890Y8450D2*
G1X2640Y8700D1*
G1X2380Y8440D1*
G1X2880Y8440D1*
G1X2360Y8760D2*
G1X2910Y8760D1*
G1X2205Y9660D2*
G1X2205Y9010D1*
G1X4416Y9010D2*
G1X4416Y9660D1*
G1X4270Y8450D2*
G1X4020Y8700D1*
G1X3760Y8440D1*
G1X4260Y8440D1*
G1X3740Y8760D2*
G1X4290Y8760D1*
G1X3585Y9660D2*
G1X3585Y9010D1*
G1X-334Y11950D2*
G1X-334Y12600D1*
G1X-480Y11390D2*
G1X-730Y11640D1*
G1X-990Y11380D1*
G1X-490Y11380D1*
G1X-1010Y11700D2*
G1X-460Y11700D1*
G1X-1165Y12600D2*
G1X-1165Y11950D1*
G1X-334Y9010D2*
G1X-334Y9660D1*
G1X-480Y8450D2*
G1X-730Y8700D1*
G1X-990Y8440D1*
G1X-490Y8440D1*
G1X-1010Y8760D2*
G1X-460Y8760D1*
G1X-1165Y9660D2*
G1X-1165Y9010D1*
G1X996Y11950D2*
G1X996Y12600D1*
G1X850Y11390D2*
G1X600Y11640D1*
G1X340Y11380D1*
G1X840Y11380D1*
G1X320Y11700D2*
G1X870Y11700D1*
G1X165Y12600D2*
G1X165Y11950D1*
G1X4686Y21880D2*
G1X4686Y22530D1*
G1X4540Y21320D2*
G1X4290Y21570D1*
G1X4030Y21310D1*
G1X4530Y21310D1*
G1X4010Y21630D2*
G1X4560Y21630D1*
G1X3855Y22530D2*
G1X3855Y21880D1*
G1X-3766Y11550D2*
G1X-3766Y10900D1*
G1X-3620Y12110D2*
G1X-3370Y11860D1*
G1X-3110Y12120D1*
G1X-3610Y12120D1*
G1X-3090Y11800D2*
G1X-3640Y11800D1*
G1X-2935Y10900D2*
G1X-2935Y11550D1*
M2*
