*
%LPD*%
%LNRAGOBOT.SSB*%
%FSLAX24Y24*%
%MOIN*%
%AD*%
%ADD52C,0.010000*%
%ADD58C,0.008000*%
%ADD89C,0.006000*%
%ADD90C,0.003900*%
%ADD91C,0.007000*%
%ADD201C,0.011000*%
G54D52*
%SRX1Y1I0.0J0.0*%
G1X22333Y14357D2*
G1X22333Y14107D1*
G1X22083Y14441D2*
G1X22083Y14107D1*
G1X22583Y14107D1*
G1X22583Y14441D1*
G1X22583Y13866D2*
G1X22417Y13866D1*
G1X22083Y13699D1*
G1X22417Y13532D1*
G1X22583Y13532D1*
G1X22333Y13166D2*
G1X22083Y13291D1*
G1X22333Y12957D2*
G1X22333Y13207D1*
G1X22417Y13291D1*
G1X22500Y13291D1*
G1X22583Y13207D1*
G1X22583Y12957D1*
G1X22083Y12957D1*
G1X22333Y12632D2*
G1X22333Y12382D1*
G1X22083Y12716D2*
G1X22083Y12382D1*
G1X22583Y12382D1*
G1X22583Y12716D1*
G1X22583Y12141D2*
G1X22083Y12141D1*
G1X22167Y12057D1*
G1X22500Y11891D1*
G1X22583Y11807D1*
G1X22083Y11807D1*
G1X32503Y15707D2*
G1X32003Y15707D1*
G1X32087Y15624D1*
G1X32420Y15457D1*
G1X32503Y15374D1*
G1X32003Y15374D1*
G1X32003Y15132D2*
G1X32003Y14966D1*
G1X32003Y15049D2*
G1X32503Y15049D1*
G1X32503Y15132D2*
G1X32503Y14966D1*
G1X32170Y14641D2*
G1X32170Y14307D1*
G1X32003Y14641D2*
G1X32253Y14641D1*
G1X32503Y14516D1*
G1X32503Y14432D1*
G1X32253Y14307D1*
G1X32003Y14307D1*
G1X32253Y13941D2*
G1X32003Y14066D1*
G1X32253Y13732D2*
G1X32253Y13982D1*
G1X32337Y14066D1*
G1X32420Y14066D1*
G1X32503Y13982D1*
G1X32503Y13732D1*
G1X32003Y13732D1*
G1X32003Y13199D2*
G1X32503Y13199D1*
G1X32003Y13157D2*
G1X32003Y13407D1*
G1X32087Y13491D1*
G1X32170Y13491D1*
G1X32253Y13449D1*
G1X32253Y13199D2*
G1X32253Y13449D1*
G1X32337Y13491D1*
G1X32420Y13491D1*
G1X32503Y13407D1*
G1X32503Y13157D1*
G1X18859Y8734D2*
G54D58*
G1X18859Y8668D1*
G1X18859Y8701D2*
G1X19059Y8701D1*
G1X19026Y8668D1*
G1X2425Y10600D2*
G1X2425Y12600D1*
G1X1675Y12600D1*
G1X1675Y10600D1*
G1X2425Y10600D1*
G1X1675Y10850D2*
G1X2425Y10850D1*
G1X23680Y22530D2*
G1X25680Y22530D1*
G1X25680Y21530D1*
G1X23680Y21530D1*
G1X23680Y22530D1*
G1X25230Y22530D2*
G1X24130Y22530D1*
G1X24480Y22880D1*
G1X24880Y22880D1*
G1X25230Y22530D1*
G1X24880Y22880D1*
G1X24680Y22880D1*
G1X25680Y770D2*
G1X23680Y770D1*
G1X23680Y1770D1*
G1X25680Y1770D1*
G1X25680Y770D1*
G1X24130Y770D2*
G1X25230Y770D1*
G1X24880Y420D1*
G1X24480Y420D1*
G1X24130Y770D1*
G1X24480Y420D1*
G1X24680Y420D1*
G1X47710Y27360D2*
G1X47710Y25360D1*
G1X46710Y25360D1*
G1X46710Y27360D1*
G1X47710Y27360D1*
G1X47710Y25810D2*
G1X47710Y26910D1*
G1X48060Y26560D1*
G1X48060Y26160D1*
G1X47710Y25810D1*
G1X48060Y26160D1*
G1X48060Y26360D1*
G1X-3240Y23360D2*
G1X-3240Y25360D1*
G1X-2240Y25360D1*
G1X-2240Y23360D1*
G1X-3240Y23360D1*
G1X-3240Y24910D2*
G1X-3240Y23810D1*
G1X-3590Y24160D1*
G1X-3590Y24560D1*
G1X-3240Y24910D1*
G1X-3590Y24560D1*
G1X-3590Y24360D1*
G1X47710Y-2060D2*
G1X47710Y-4060D1*
G1X46710Y-4060D1*
G1X46710Y-2060D1*
G1X47710Y-2060D1*
G1X47710Y-3610D2*
G1X47710Y-2510D1*
G1X48060Y-2860D1*
G1X48060Y-3260D1*
G1X47710Y-3610D1*
G1X48060Y-3260D1*
G1X48060Y-3060D1*
G1X-3240Y-2060D2*
G1X-3240Y-60D1*
G1X-2240Y-60D1*
G1X-2240Y-2060D1*
G1X-3240Y-2060D1*
G1X-3240Y-510D2*
G1X-3240Y-1610D1*
G1X-3590Y-1260D1*
G1X-3590Y-860D1*
G1X-3240Y-510D1*
G1X-3590Y-860D1*
G1X-3590Y-1060D1*
G1X16670Y11810D2*
G1X15230Y11810D1*
G1X15230Y12050D2*
G1X16670Y12050D1*
G1X16670Y10050D1*
G1X15230Y10050D1*
G1X15230Y12050D1*
G1X28460Y17925D2*
G1X25960Y17925D1*
G1X25960Y18675D1*
G1X28460Y18675D1*
G1X28460Y17925D1*
G1X28210Y17925D2*
G1X28210Y18675D1*
G1X10230Y12385D2*
G1X12230Y12385D1*
G1X12230Y13135D1*
G1X10230Y13135D1*
G1X10230Y12385D1*
G1X10480Y13135D2*
G1X10480Y12385D1*
G1X6830Y17785D2*
G1X4330Y17785D1*
G1X4330Y18535D1*
G1X6830Y18535D1*
G1X6830Y17785D1*
G1X6580Y17785D2*
G1X6580Y18535D1*
G1X5415Y4460D2*
G1X5415Y9960D1*
G1X1665Y9960D1*
G1X1665Y4460D1*
G1X5415Y4460D1*
G1X5415Y4710D2*
G1X1665Y4710D1*
G1X7890Y1375D2*
G54D89*
G1X7965Y1450D1*
G1X8390Y1450D1*
G1X8390Y3850D1*
G1X7390Y3850D1*
G1X7390Y1450D1*
G1X7815Y1450D1*
G1X7890Y1375D1*
G1X-990Y11162D2*
G1X-990Y10680D1*
G1X-80Y10680D1*
G1X-80Y11162D1*
G1X-990Y11162D1*
G1X-90Y11638D2*
G1X-90Y12120D1*
G1X-1000Y12120D1*
G1X-1000Y11638D1*
G1X-90Y11638D1*
G1X4348Y10660D2*
G1X4830Y10660D1*
G1X4830Y11570D1*
G1X4348Y11570D1*
G1X4348Y10660D1*
G1X9520Y11615D2*
G1X9595Y11690D1*
G1X10020Y11690D1*
G1X10020Y14090D1*
G1X9020Y14090D1*
G1X9020Y11690D1*
G1X9445Y11690D1*
G1X9520Y11615D1*
G1X28475Y15185D2*
G1X27325Y15185D1*
G1X27325Y15830D1*
G1X28475Y15830D1*
G1X28475Y15185D1*
G1X17470Y18862D2*
G1X17470Y18380D1*
G1X18380Y18380D1*
G1X18380Y18862D1*
G1X17470Y18862D1*
G1X32235Y7235D2*
G1X33385Y7235D1*
G1X33385Y6590D1*
G1X32235Y6590D1*
G1X32235Y7235D1*
G1X26628Y120D2*
G1X27110Y120D1*
G1X27110Y1030D1*
G1X26628Y1030D1*
G1X26628Y120D1*
G1X10090Y3182D2*
G1X10090Y2700D1*
G1X11000Y2700D1*
G1X11000Y3182D1*
G1X10090Y3182D1*
G1X7362Y9670D2*
G1X6880Y9670D1*
G1X6880Y8760D1*
G1X7362Y8760D1*
G1X7362Y9670D1*
G1X23558Y11530D2*
G1X24040Y11530D1*
G1X24040Y12440D1*
G1X23558Y12440D1*
G1X23558Y11530D1*
G1X102Y10290D2*
G1X-380Y10290D1*
G1X-380Y9380D1*
G1X102Y9380D1*
G1X102Y10290D1*
G1X22522Y23170D2*
G1X22040Y23170D1*
G1X22040Y22260D1*
G1X22522Y22260D1*
G1X22522Y23170D1*
G1X20490Y7132D2*
G1X20490Y6650D1*
G1X21400Y6650D1*
G1X21400Y7132D1*
G1X20490Y7132D1*
G1X30415Y21250D2*
G1X30415Y19950D1*
G1X28165Y19950D1*
G1X28165Y21250D1*
G1X28140Y21250D1*
G1X30415Y21250D1*
G1X37308Y9160D2*
G1X37790Y9160D1*
G1X37790Y10070D1*
G1X37308Y10070D1*
G1X37308Y9160D1*
G1X37338Y920D2*
G1X37820Y920D1*
G1X37820Y1830D1*
G1X37338Y1830D1*
G1X37338Y920D1*
G1X-1790Y17498D2*
G1X-1790Y17980D1*
G1X-2700Y17980D1*
G1X-2700Y17498D1*
G1X-1790Y17498D1*
G1X-1770Y5368D2*
G1X-1770Y5850D1*
G1X-2680Y5850D1*
G1X-2680Y5368D1*
G1X-1770Y5368D1*
G1X46310Y19962D2*
G1X46310Y19480D1*
G1X47220Y19480D1*
G1X47220Y19962D1*
G1X46310Y19962D1*
G1X46430Y3852D2*
G1X46430Y3370D1*
G1X47340Y3370D1*
G1X47340Y3852D1*
G1X46430Y3852D1*
G1X42022Y7190D2*
G1X41540Y7190D1*
G1X41540Y6280D1*
G1X42022Y6280D1*
G1X42022Y7190D1*
G1X37328Y3620D2*
G1X37810Y3620D1*
G1X37810Y4530D1*
G1X37328Y4530D1*
G1X37328Y3620D1*
G1X33335Y21290D2*
G1X33335Y19990D1*
G1X31085Y19990D1*
G1X31085Y21290D1*
G1X31060Y21290D1*
G1X33335Y21290D1*
G1X16410Y12158D2*
G1X16410Y12640D1*
G1X15500Y12640D1*
G1X15500Y12158D1*
G1X16410Y12158D1*
G1X3485Y16205D2*
G1X3485Y15055D1*
G1X2840Y15055D1*
G1X2840Y16205D1*
G1X3485Y16205D1*
G1X14905Y13170D2*
G1X14905Y14470D1*
G1X17155Y14470D1*
G1X17155Y13170D1*
G1X17180Y13170D1*
G1X14905Y13170D1*
G1X3472Y21490D2*
G1X2990Y21490D1*
G1X2990Y20580D1*
G1X3472Y20580D1*
G1X3472Y21490D1*
G1X2582Y22700D2*
G1X2100Y22700D1*
G1X2100Y21790D1*
G1X2582Y21790D1*
G1X2582Y22700D1*
G1X10675Y19750D2*
G1X7225Y19750D1*
G1X7225Y18250D1*
G1X10675Y18250D1*
G1X10675Y19750D1*
G1X1652Y22660D2*
G1X1170Y22660D1*
G1X1170Y21750D1*
G1X1652Y21750D1*
G1X1652Y22660D1*
G1X3848Y20530D2*
G1X4330Y20530D1*
G1X4330Y21440D1*
G1X3848Y21440D1*
G1X3848Y20530D1*
G1X1652Y21470D2*
G1X1170Y21470D1*
G1X1170Y20560D1*
G1X1652Y20560D1*
G1X1652Y21470D1*
G1X4585Y16195D2*
G1X4585Y15045D1*
G1X3940Y15045D1*
G1X3940Y16195D1*
G1X4585Y16195D1*
G1X8345Y16420D2*
G1X8345Y17720D1*
G1X10595Y17720D1*
G1X10595Y16420D1*
G1X10620Y16420D1*
G1X8345Y16420D1*
G1X4475Y22915D2*
G1X4475Y21765D1*
G1X3830Y21765D1*
G1X3830Y22915D1*
G1X4475Y22915D1*
G1X2582Y21480D2*
G1X2100Y21480D1*
G1X2100Y20570D1*
G1X2582Y20570D1*
G1X2582Y21480D1*
G1X3472Y22680D2*
G1X2990Y22680D1*
G1X2990Y21770D1*
G1X3472Y21770D1*
G1X3472Y22680D1*
G1X1868Y15220D2*
G1X2350Y15220D1*
G1X2350Y16130D1*
G1X1868Y16130D1*
G1X1868Y15220D1*
G1X42710Y13472D2*
G1X42710Y12990D1*
G1X43620Y12990D1*
G1X43620Y13472D1*
G1X42710Y13472D1*
G1X39485Y11885D2*
G1X40635Y11885D1*
G1X40635Y11240D1*
G1X39485Y11240D1*
G1X39485Y11885D1*
G1X42710Y15502D2*
G1X42710Y15020D1*
G1X43620Y15020D1*
G1X43620Y15502D1*
G1X42710Y15502D1*
G1X40502Y18918D2*
G1X40502Y20068D1*
G1X41147Y20068D1*
G1X41147Y18918D1*
G1X40502Y18918D1*
G1X41538Y17510D2*
G1X42020Y17510D1*
G1X42020Y18420D1*
G1X41538Y18420D1*
G1X41538Y17510D1*
G1X42692Y20068D2*
G1X42692Y18918D1*
G1X42047Y18918D1*
G1X42047Y20068D1*
G1X42692Y20068D1*
G1X41272Y18918D2*
G1X41272Y20068D1*
G1X41917Y20068D1*
G1X41917Y18918D1*
G1X41272Y18918D1*
G1X21242Y8611D2*
G54D90*
G1X19864Y8611D1*
G1X19864Y14477D1*
G1X21242Y14477D1*
G1X21242Y8611D1*
G1X7959Y8253D2*
G1X7959Y7938D1*
G1X7211Y7938D1*
G1X7211Y8253D1*
G1X7959Y8253D1*
G1X1468Y3058D2*
G1X1783Y3058D1*
G1X1783Y2310D1*
G1X1468Y2310D1*
G1X1468Y3058D1*
G1X41654Y9597D2*
G1X41654Y10788D1*
G1X40639Y10788D1*
G1X40639Y9597D1*
G1X41654Y9597D1*
G1X40643Y9984D2*
G1X41652Y9984D1*
G1X43623Y12259D2*
G1X42432Y12259D1*
G1X42432Y11243D1*
G1X43623Y11243D1*
G1X43623Y12259D1*
G1X43235Y11248D2*
G1X43235Y12256D1*
G1X40611Y13867D2*
G1X40611Y12676D1*
G1X41626Y12676D1*
G1X41626Y13867D1*
G1X40611Y13867D1*
G1X41622Y13480D2*
G1X40613Y13480D1*
G1X43540Y14412D2*
G1X43540Y14097D1*
G1X42792Y14097D1*
G1X42792Y14412D1*
G1X43540Y14412D1*
G1X-4002Y6716D2*
G1X-4002Y13310D1*
G1X-1837Y13310D1*
G1X-1837Y6716D1*
G1X-4002Y6716D1*
G1X7847Y1310D2*
G54D91*
G1X7813Y1293D1*
G1X7813Y1193D1*
G1X7847Y1177D1*
G1X7980Y1177D1*
G1X8013Y1193D1*
G1X8013Y1293D1*
G1X7980Y1310D1*
G1X7880Y4070D2*
G1X7880Y3937D1*
G1X7813Y4070D2*
G1X7913Y4070D1*
G1X8013Y4020D1*
G1X8013Y3987D1*
G1X7913Y3937D1*
G1X7813Y3937D1*
G1X8522Y3058D2*
G1X8522Y2991D1*
G1X8522Y3024D2*
G1X8722Y3024D1*
G1X8689Y2991D1*
G1X8522Y2801D2*
G1X8522Y2734D1*
G1X8522Y2768D2*
G1X8722Y2768D1*
G1X8689Y2734D1*
G1X8522Y2428D2*
G1X8722Y2428D1*
G1X8522Y2411D2*
G1X8522Y2511D1*
G1X8589Y2544D1*
G1X8655Y2544D1*
G1X8722Y2511D1*
G1X8722Y2411D1*
G1X28054Y15947D2*
G1X28121Y15947D1*
G1X28088Y15947D2*
G1X28088Y16147D1*
G1X28121Y16114D1*
G1X28311Y15947D2*
G1X28428Y15947D1*
G1X28428Y16147D1*
G1X-1079Y11307D2*
G1X-1012Y11307D1*
G1X-1045Y11307D2*
G1X-1045Y11507D1*
G1X-1012Y11474D1*
G1X-822Y11307D2*
G1X-755Y11307D1*
G1X-789Y11307D2*
G1X-789Y11507D1*
G1X-755Y11474D1*
G1X-449Y11307D2*
G1X-449Y11507D1*
G1X-432Y11307D2*
G1X-532Y11307D1*
G1X-565Y11340D1*
G1X-565Y11374D1*
G1X-549Y11407D1*
G1X-449Y11407D2*
G1X-549Y11407D1*
G1X-565Y11440D1*
G1X-565Y11474D1*
G1X-532Y11507D1*
G1X-432Y11507D1*
G1X-275Y11340D2*
G1X-259Y11307D1*
G1X-159Y11307D1*
G1X-142Y11340D1*
G1X-142Y11474D1*
G1X-159Y11507D1*
G1X-259Y11507D1*
G1X-275Y11474D1*
G1X9477Y11550D2*
G1X9443Y11533D1*
G1X9443Y11433D1*
G1X9477Y11417D1*
G1X9610Y11417D1*
G1X9643Y11433D1*
G1X9643Y11533D1*
G1X9610Y11550D1*
G1X9510Y14310D2*
G1X9510Y14177D1*
G1X9443Y14310D2*
G1X9543Y14310D1*
G1X9643Y14260D1*
G1X9643Y14227D1*
G1X9543Y14177D1*
G1X9443Y14177D1*
G1X-1781Y12299D2*
G1X-1714Y12299D1*
G1X-1748Y12299D2*
G1X-1748Y12499D1*
G1X-1714Y12466D1*
G1X-1458Y12299D2*
G1X-1458Y12499D1*
G1X-1524Y12499D2*
G1X-1391Y12499D1*
G1X-1234Y12299D2*
G1X-1118Y12299D1*
G1X-1118Y12499D1*
G1X-961Y12299D2*
G1X-894Y12299D1*
G1X-928Y12299D2*
G1X-928Y12499D1*
G1X-961Y12499D2*
G1X-894Y12499D1*
G1X-671Y12399D2*
G1X-571Y12399D1*
G1X-571Y12299D2*
G1X-571Y12499D1*
G1X-704Y12499D1*
G1X-364Y12399D2*
G1X-414Y12299D1*
G1X-281Y12399D2*
G1X-381Y12399D1*
G1X-414Y12433D1*
G1X-414Y12466D1*
G1X-381Y12499D1*
G1X-281Y12499D1*
G1X-281Y12299D1*
G1X-124Y12233D2*
G1X9Y12233D1*
G1X165Y12299D2*
G1X165Y12499D1*
G1X199Y12466D1*
G1X232Y12399D1*
G1X265Y12466D1*
G1X299Y12499D1*
G1X299Y12299D1*
G1X572Y12299D2*
G1X572Y12499D1*
G1X589Y12299D2*
G1X489Y12299D1*
G1X455Y12333D1*
G1X455Y12366D1*
G1X472Y12399D1*
G1X572Y12399D2*
G1X472Y12399D1*
G1X455Y12433D1*
G1X455Y12466D1*
G1X489Y12499D1*
G1X589Y12499D1*
G1X8782Y13108D2*
G1X8815Y13124D1*
G1X8849Y13124D1*
G1X8882Y13108D1*
G1X8882Y13008D1*
G1X8849Y12991D1*
G1X8815Y12991D1*
G1X8782Y13008D1*
G1X8782Y13108D1*
G1X8749Y13124D1*
G1X8715Y13124D1*
G1X8682Y13108D1*
G1X8682Y13008D1*
G1X8715Y12991D1*
G1X8749Y12991D1*
G1X8782Y13008D1*
G1X8682Y12834D2*
G1X8682Y12701D1*
G1X8815Y12834D1*
G1X8849Y12834D1*
G1X8882Y12818D1*
G1X8882Y12718D1*
G1X8849Y12701D1*
G1X8682Y12428D2*
G1X8882Y12428D1*
G1X8682Y12411D2*
G1X8682Y12511D1*
G1X8749Y12544D1*
G1X8815Y12544D1*
G1X8882Y12511D1*
G1X8882Y12411D1*
G1X4153Y10448D2*
G1X4153Y10514D1*
G1X4153Y10481D2*
G1X3953Y10481D1*
G1X3986Y10514D1*
G1X4053Y10754D2*
G1X4153Y10704D1*
G1X4053Y10838D2*
G1X4053Y10738D1*
G1X4019Y10704D1*
G1X3986Y10704D1*
G1X3953Y10738D1*
G1X3953Y10838D1*
G1X4153Y10838D1*
G1X4219Y10994D2*
G1X4219Y11128D1*
G1X4153Y11284D2*
G1X3953Y11284D1*
G1X3986Y11318D1*
G1X4053Y11351D1*
G1X3986Y11384D1*
G1X3953Y11418D1*
G1X4153Y11418D1*
G1X4153Y11691D2*
G1X3953Y11691D1*
G1X4153Y11708D2*
G1X4153Y11608D1*
G1X4119Y11574D1*
G1X4086Y11574D1*
G1X4053Y11591D1*
G1X4053Y11691D2*
G1X4053Y11591D1*
G1X4019Y11574D1*
G1X3986Y11574D1*
G1X3953Y11608D1*
G1X3953Y11708D1*
G1X17691Y19020D2*
G1X17658Y18987D1*
G1X17591Y18987D1*
G1X17558Y19020D1*
G1X17558Y19054D1*
G1X17624Y19120D1*
G1X17558Y19187D1*
G1X17691Y19187D1*
G1X17848Y18987D2*
G1X17914Y18987D1*
G1X17881Y18987D2*
G1X17881Y19187D1*
G1X17914Y19154D1*
G1X18154Y19087D2*
G1X18104Y18987D1*
G1X18238Y19087D2*
G1X18138Y19087D1*
G1X18104Y19120D1*
G1X18104Y19154D1*
G1X18138Y19187D1*
G1X18238Y19187D1*
G1X18238Y18987D1*
G1X1722Y10200D2*
G1X1789Y10200D1*
G1X1755Y10200D2*
G1X1755Y10400D1*
G1X1789Y10366D1*
G1X1979Y10200D2*
G1X1979Y10400D1*
G1X2012Y10366D1*
G1X2045Y10300D1*
G1X2079Y10366D1*
G1X2112Y10400D1*
G1X2112Y10200D1*
G1X2385Y10200D2*
G1X2385Y10400D1*
G1X2402Y10200D2*
G1X2302Y10200D1*
G1X2269Y10233D1*
G1X2269Y10266D1*
G1X2285Y10300D1*
G1X2385Y10300D2*
G1X2285Y10300D1*
G1X2269Y10333D1*
G1X2269Y10366D1*
G1X2302Y10400D1*
G1X2402Y10400D1*
G1X33339Y6453D2*
G1X33205Y6453D1*
G1X33339Y6319D1*
G1X33339Y6286D1*
G1X33322Y6253D1*
G1X33222Y6253D1*
G1X33205Y6286D1*
G1X33049Y6453D2*
G1X32932Y6453D1*
G1X32932Y6253D1*
G1X8108Y8567D2*
G1X8108Y8501D1*
G1X8108Y8534D2*
G1X8308Y8534D1*
G1X8274Y8501D1*
G1X8308Y8311D2*
G1X8241Y8311D1*
G1X8108Y8244D1*
G1X8241Y8177D1*
G1X8308Y8177D1*
G1X8308Y8021D2*
G1X8108Y8021D1*
G1X8141Y7987D1*
G1X8274Y7921D1*
G1X8308Y7887D1*
G1X8108Y7887D1*
G1X8108Y7731D2*
G1X8108Y7664D1*
G1X8108Y7697D2*
G1X8308Y7697D1*
G1X8308Y7731D2*
G1X8308Y7664D1*
G1X7803Y8108D2*
G1X7770Y8108D1*
G1X7770Y8141D1*
G1X7803Y8141D1*
G1X7803Y8108D1*
G1X27353Y391D2*
G1X27353Y491D1*
G1X27319Y508D1*
G1X27286Y508D1*
G1X27253Y491D1*
G1X27253Y391D1*
G1X27286Y374D1*
G1X27319Y374D1*
G1X27453Y441D1*
G1X27419Y664D2*
G1X27453Y681D1*
G1X27453Y781D1*
G1X27419Y798D1*
G1X27286Y798D1*
G1X27253Y781D1*
G1X27253Y681D1*
G1X27286Y664D1*
G1X24288Y21214D2*
G1X24421Y21214D1*
G1X24354Y21347D1*
G1X24321Y21347D1*
G1X24321Y21147D1*
G1X24578Y21147D2*
G1X24644Y21147D1*
G1X24611Y21147D2*
G1X24611Y21347D1*
G1X24644Y21314D1*
G1X24951Y21147D2*
G1X24951Y21347D1*
G1X24968Y21147D2*
G1X24868Y21147D1*
G1X24834Y21214D1*
G1X24834Y21280D1*
G1X24868Y21347D1*
G1X24968Y21347D1*
G1X25812Y21907D2*
G1X25879Y21907D1*
G1X25845Y21907D2*
G1X25845Y22107D1*
G1X25879Y22074D1*
G1X10208Y2387D2*
G1X10274Y2387D1*
G1X10241Y2387D2*
G1X10241Y2587D1*
G1X10274Y2554D1*
G1X10464Y2387D2*
G1X10598Y2387D1*
G1X10464Y2520D1*
G1X10464Y2554D1*
G1X10481Y2587D1*
G1X10581Y2587D1*
G1X10598Y2554D1*
G1X10804Y2487D2*
G1X10754Y2387D1*
G1X10888Y2487D2*
G1X10788Y2487D1*
G1X10754Y2520D1*
G1X10754Y2554D1*
G1X10788Y2587D1*
G1X10888Y2587D1*
G1X10888Y2387D1*
G1X24962Y2133D2*
G1X25062Y1933D1*
G1X24929Y1933D1*
G1X24772Y2133D2*
G1X24705Y2133D1*
G1X24739Y2133D2*
G1X24739Y1933D1*
G1X24705Y1966D1*
G1X24399Y2133D2*
G1X24399Y1933D1*
G1X24382Y2133D2*
G1X24482Y2133D1*
G1X24515Y2066D1*
G1X24515Y1999D1*
G1X24482Y1933D1*
G1X24382Y1933D1*
G1X23538Y1293D2*
G1X23471Y1293D1*
G1X23504Y1293D2*
G1X23504Y1093D1*
G1X23471Y1126D1*
G1X7337Y9979D2*
G1X7354Y10012D1*
G1X7454Y10012D1*
G1X7470Y9979D1*
G1X7470Y9912D1*
G1X7437Y9879D1*
G1X7337Y9879D1*
G1X7337Y9812D1*
G1X7470Y9812D1*
G1X7180Y10012D2*
G1X7114Y10012D1*
G1X7147Y10012D2*
G1X7147Y9812D1*
G1X7114Y9845D1*
G1X6924Y9979D2*
G1X6907Y10012D1*
G1X6807Y10012D1*
G1X6790Y9979D1*
G1X6790Y9845D1*
G1X6807Y9812D1*
G1X6907Y9812D1*
G1X6924Y9845D1*
G1X23413Y11684D2*
G1X23413Y11818D1*
G1X23279Y11684D1*
G1X23246Y11684D1*
G1X23213Y11701D1*
G1X23213Y11801D1*
G1X23246Y11818D1*
G1X23413Y11974D2*
G1X23413Y12108D1*
G1X23279Y11974D1*
G1X23246Y11974D1*
G1X23213Y11991D1*
G1X23213Y12091D1*
G1X23246Y12108D1*
G1X23313Y12314D2*
G1X23413Y12264D1*
G1X23313Y12398D2*
G1X23313Y12298D1*
G1X23279Y12264D1*
G1X23246Y12264D1*
G1X23213Y12298D1*
G1X23213Y12398D1*
G1X23413Y12398D1*
G1X46410Y26579D2*
G1X46377Y26612D1*
G1X46377Y26679D1*
G1X46410Y26712D1*
G1X46444Y26712D1*
G1X46510Y26645D1*
G1X46577Y26712D1*
G1X46577Y26579D1*
G1X46377Y26422D2*
G1X46377Y26355D1*
G1X46377Y26389D2*
G1X46577Y26389D1*
G1X46544Y26355D1*
G1X46377Y26049D2*
G1X46577Y26049D1*
G1X46377Y26032D2*
G1X46377Y26132D1*
G1X46444Y26165D1*
G1X46510Y26165D1*
G1X46577Y26132D1*
G1X46577Y26032D1*
G1X-2070Y24671D2*
G1X-2070Y24538D1*
G1X-1937Y24671D1*
G1X-1904Y24671D1*
G1X-1870Y24654D1*
G1X-1870Y24554D1*
G1X-1904Y24538D1*
G1X-2070Y24381D2*
G1X-2070Y24314D1*
G1X-2070Y24348D2*
G1X-1870Y24348D1*
G1X-1904Y24314D1*
G1X-2070Y24008D2*
G1X-1870Y24008D1*
G1X-2070Y23991D2*
G1X-2070Y24091D1*
G1X-2004Y24124D1*
G1X-1937Y24124D1*
G1X-1870Y24091D1*
G1X-1870Y23991D1*
G1X284Y10162D2*
G1X284Y10029D1*
G1X417Y10095D1*
G1X417Y10129D1*
G1X217Y10129D1*
G1X217Y9872D2*
G1X217Y9805D1*
G1X217Y9839D2*
G1X417Y9839D1*
G1X384Y9805D1*
G1X250Y9615D2*
G1X217Y9599D1*
G1X217Y9499D1*
G1X250Y9482D1*
G1X384Y9482D1*
G1X417Y9499D1*
G1X417Y9599D1*
G1X384Y9615D1*
G1X46477Y-2584D2*
G1X46477Y-2484D1*
G1X46444Y-2468D1*
G1X46410Y-2468D1*
G1X46377Y-2484D1*
G1X46377Y-2584D1*
G1X46410Y-2601D1*
G1X46444Y-2601D1*
G1X46577Y-2534D1*
G1X46377Y-2758D2*
G1X46377Y-2824D1*
G1X46377Y-2791D2*
G1X46577Y-2791D1*
G1X46544Y-2824D1*
G1X46377Y-3131D2*
G1X46577Y-3131D1*
G1X46377Y-3148D2*
G1X46377Y-3048D1*
G1X46444Y-3014D1*
G1X46510Y-3014D1*
G1X46577Y-3048D1*
G1X46577Y-3148D1*
G1X21817Y22909D2*
G1X21850Y22925D1*
G1X21884Y22925D1*
G1X21917Y22909D1*
G1X21917Y22809D1*
G1X21884Y22792D1*
G1X21850Y22792D1*
G1X21817Y22809D1*
G1X21817Y22909D1*
G1X21784Y22925D1*
G1X21750Y22925D1*
G1X21717Y22909D1*
G1X21717Y22809D1*
G1X21750Y22792D1*
G1X21784Y22792D1*
G1X21817Y22809D1*
G1X21750Y22635D2*
G1X21717Y22619D1*
G1X21717Y22519D1*
G1X21750Y22502D1*
G1X21884Y22502D1*
G1X21917Y22519D1*
G1X21917Y22619D1*
G1X21884Y22635D1*
G1X-2017Y-802D2*
G1X-2050Y-785D1*
G1X-2050Y-685D1*
G1X-2017Y-669D1*
G1X-1950Y-669D1*
G1X-1917Y-702D1*
G1X-1917Y-802D1*
G1X-1850Y-802D1*
G1X-1850Y-669D1*
G1X-2050Y-959D2*
G1X-2050Y-1025D1*
G1X-2050Y-992D2*
G1X-1850Y-992D1*
G1X-1884Y-1025D1*
G1X-2050Y-1332D2*
G1X-1850Y-1332D1*
G1X-2050Y-1349D2*
G1X-2050Y-1249D1*
G1X-1984Y-1215D1*
G1X-1917Y-1215D1*
G1X-1850Y-1249D1*
G1X-1850Y-1349D1*
G1X1151Y3156D2*
G1X1284Y3156D1*
G1X1151Y3290D1*
G1X1151Y3323D1*
G1X1167Y3356D1*
G1X1267Y3356D1*
G1X1284Y3323D1*
G1X1441Y3356D2*
G1X1441Y3290D1*
G1X1507Y3156D1*
G1X1574Y3290D1*
G1X1574Y3356D1*
G1X1731Y3356D2*
G1X1731Y3156D1*
G1X1764Y3190D1*
G1X1831Y3323D1*
G1X1864Y3356D1*
G1X1864Y3156D1*
G1X2021Y3156D2*
G1X2087Y3156D1*
G1X2054Y3156D2*
G1X2054Y3356D1*
G1X2021Y3356D2*
G1X2087Y3356D1*
G1X1613Y2902D2*
G1X1613Y2868D1*
G1X1580Y2868D1*
G1X1580Y2902D1*
G1X1613Y2902D1*
G1X20601Y7227D2*
G1X20668Y7227D1*
G1X20634Y7227D2*
G1X20634Y7427D1*
G1X20668Y7394D1*
G1X20858Y7227D2*
G1X20924Y7227D1*
G1X20891Y7227D2*
G1X20891Y7427D1*
G1X20924Y7394D1*
G1X21114Y7260D2*
G1X21131Y7227D1*
G1X21231Y7227D1*
G1X21248Y7260D1*
G1X21248Y7394D1*
G1X21231Y7427D1*
G1X21131Y7427D1*
G1X21114Y7394D1*
G1X15384Y9715D2*
G1X15368Y9682D1*
G1X15268Y9682D1*
G1X15251Y9715D1*
G1X15251Y9782D1*
G1X15284Y9815D1*
G1X15384Y9815D1*
G1X15384Y9882D1*
G1X15251Y9882D1*
G1X15541Y9882D2*
G1X15541Y9715D1*
G1X15558Y9682D1*
G1X15658Y9682D1*
G1X15674Y9715D1*
G1X15674Y9882D1*
G1X28587Y18485D2*
G1X28587Y18419D1*
G1X28587Y18452D2*
G1X28787Y18452D1*
G1X28753Y18419D1*
G1X28653Y18162D2*
G1X28587Y18229D1*
G1X28620Y18095D2*
G1X28587Y18112D1*
G1X28587Y18179D1*
G1X28620Y18195D1*
G1X28653Y18229D1*
G1X28753Y18229D1*
G1X28787Y18212D1*
G1X28787Y18112D1*
G1X28753Y18095D1*
G1X28620Y18095D1*
G1X28815Y19676D2*
G1X28949Y19676D1*
G1X28882Y19809D1*
G1X28849Y19809D1*
G1X28849Y19609D1*
G1X29222Y19609D2*
G1X29222Y19809D1*
G1X29239Y19609D2*
G1X29139Y19609D1*
G1X29105Y19643D1*
G1X29105Y19676D1*
G1X29122Y19709D1*
G1X29222Y19709D2*
G1X29122Y19709D1*
G1X29105Y19743D1*
G1X29105Y19776D1*
G1X29139Y19809D1*
G1X29239Y19809D1*
G1X29395Y19643D2*
G1X29412Y19609D1*
G1X29512Y19609D1*
G1X29529Y19643D1*
G1X29529Y19776D1*
G1X29512Y19809D1*
G1X29412Y19809D1*
G1X29395Y19776D1*
G1X37213Y9278D2*
G1X37213Y9344D1*
G1X37213Y9311D2*
G1X37013Y9311D1*
G1X37046Y9344D1*
G1X37213Y9651D2*
G1X37013Y9651D1*
G1X37213Y9668D2*
G1X37213Y9568D1*
G1X37179Y9534D1*
G1X37146Y9534D1*
G1X37113Y9551D1*
G1X37113Y9651D2*
G1X37113Y9551D1*
G1X37079Y9534D1*
G1X37046Y9534D1*
G1X37013Y9568D1*
G1X37013Y9668D1*
G1X37179Y9824D2*
G1X37213Y9841D1*
G1X37213Y9941D1*
G1X37179Y9958D1*
G1X37046Y9958D1*
G1X37013Y9941D1*
G1X37013Y9841D1*
G1X37046Y9824D1*
G1X37123Y1081D2*
G1X37089Y1064D1*
G1X37056Y1064D1*
G1X37023Y1081D1*
G1X37023Y1181D1*
G1X37056Y1198D1*
G1X37089Y1198D1*
G1X37123Y1181D1*
G1X37123Y1081D1*
G1X37156Y1064D1*
G1X37189Y1064D1*
G1X37223Y1081D1*
G1X37223Y1181D1*
G1X37189Y1198D1*
G1X37156Y1198D1*
G1X37123Y1181D1*
G1X37223Y1471D2*
G1X37023Y1471D1*
G1X37223Y1488D2*
G1X37223Y1388D1*
G1X37189Y1354D1*
G1X37156Y1354D1*
G1X37123Y1371D1*
G1X37123Y1471D2*
G1X37123Y1371D1*
G1X37089Y1354D1*
G1X37056Y1354D1*
G1X37023Y1388D1*
G1X37023Y1488D1*
G1X37189Y1644D2*
G1X37223Y1661D1*
G1X37223Y1761D1*
G1X37189Y1778D1*
G1X37056Y1778D1*
G1X37023Y1761D1*
G1X37023Y1661D1*
G1X37056Y1644D1*
G1X-1888Y17323D2*
G1X-2021Y17323D1*
G1X-1888Y17189D1*
G1X-1888Y17156D1*
G1X-1904Y17123D1*
G1X-2004Y17123D1*
G1X-2021Y17156D1*
G1X-2178Y17323D2*
G1X-2244Y17323D1*
G1X-2211Y17323D2*
G1X-2211Y17123D1*
G1X-2244Y17156D1*
G1X-2484Y17223D2*
G1X-2434Y17323D1*
G1X-2568Y17223D2*
G1X-2468Y17223D1*
G1X-2434Y17189D1*
G1X-2434Y17156D1*
G1X-2468Y17123D1*
G1X-2568Y17123D1*
G1X-2568Y17323D1*
G1X-1941Y5253D2*
G1X-2008Y5253D1*
G1X-1974Y5253D2*
G1X-1974Y5053D1*
G1X-2008Y5086D1*
G1X-2198Y5253D2*
G1X-2264Y5253D1*
G1X-2231Y5253D2*
G1X-2231Y5053D1*
G1X-2264Y5086D1*
G1X-2504Y5153D2*
G1X-2454Y5253D1*
G1X-2588Y5153D2*
G1X-2488Y5153D1*
G1X-2454Y5119D1*
G1X-2454Y5086D1*
G1X-2488Y5053D1*
G1X-2588Y5053D1*
G1X-2588Y5253D1*
G1X46511Y20097D2*
G1X46544Y20130D1*
G1X46561Y20164D1*
G1X46561Y20230D1*
G1X46544Y20264D1*
G1X46511Y20297D1*
G1X46478Y20297D1*
G1X46444Y20264D1*
G1X46428Y20230D1*
G1X46428Y20164D1*
G1X46444Y20130D1*
G1X46478Y20097D1*
G1X46511Y20097D1*
G1X46718Y20097D2*
G1X46784Y20097D1*
G1X46751Y20097D2*
G1X46751Y20297D1*
G1X46784Y20264D1*
G1X47024Y20197D2*
G1X46974Y20097D1*
G1X47108Y20197D2*
G1X47008Y20197D1*
G1X46974Y20230D1*
G1X46974Y20264D1*
G1X47008Y20297D1*
G1X47108Y20297D1*
G1X47108Y20097D1*
G1X46721Y4097D2*
G1X46821Y4097D1*
G1X46838Y4130D1*
G1X46838Y4164D1*
G1X46821Y4197D1*
G1X46721Y4197D1*
G1X46704Y4164D1*
G1X46704Y4130D1*
G1X46771Y3997D1*
G1X47044Y4097D2*
G1X46994Y3997D1*
G1X47128Y4097D2*
G1X47028Y4097D1*
G1X46994Y4130D1*
G1X46994Y4164D1*
G1X47028Y4197D1*
G1X47128Y4197D1*
G1X47128Y3997D1*
G1X42137Y7005D2*
G1X42337Y7105D1*
G1X42337Y6972D1*
G1X42137Y6699D2*
G1X42337Y6699D1*
G1X42137Y6682D2*
G1X42137Y6782D1*
G1X42170Y6815D1*
G1X42204Y6815D1*
G1X42237Y6799D1*
G1X42237Y6699D2*
G1X42237Y6799D1*
G1X42270Y6815D1*
G1X42304Y6815D1*
G1X42337Y6782D1*
G1X42337Y6682D1*
G1X42170Y6525D2*
G1X42137Y6509D1*
G1X42137Y6409D1*
G1X42170Y6392D1*
G1X42304Y6392D1*
G1X42337Y6409D1*
G1X42337Y6509D1*
G1X42304Y6525D1*
G1X37113Y3871D2*
G1X37113Y3771D1*
G1X37146Y3754D1*
G1X37179Y3754D1*
G1X37213Y3771D1*
G1X37213Y3871D1*
G1X37179Y3888D1*
G1X37146Y3888D1*
G1X37013Y3821D1*
G1X37213Y4161D2*
G1X37013Y4161D1*
G1X37213Y4178D2*
G1X37213Y4078D1*
G1X37179Y4044D1*
G1X37146Y4044D1*
G1X37113Y4061D1*
G1X37113Y4161D2*
G1X37113Y4061D1*
G1X37079Y4044D1*
G1X37046Y4044D1*
G1X37013Y4078D1*
G1X37013Y4178D1*
G1X37179Y4334D2*
G1X37213Y4351D1*
G1X37213Y4451D1*
G1X37179Y4468D1*
G1X37046Y4468D1*
G1X37013Y4451D1*
G1X37013Y4351D1*
G1X37046Y4334D1*
G1X31979Y19683D2*
G1X31962Y19649D1*
G1X31862Y19649D1*
G1X31845Y19683D1*
G1X31845Y19749D1*
G1X31879Y19783D1*
G1X31979Y19783D1*
G1X31979Y19849D1*
G1X31845Y19849D1*
G1X32252Y19649D2*
G1X32252Y19849D1*
G1X32269Y19649D2*
G1X32169Y19649D1*
G1X32135Y19683D1*
G1X32135Y19716D1*
G1X32152Y19749D1*
G1X32252Y19749D2*
G1X32152Y19749D1*
G1X32135Y19783D1*
G1X32135Y19816D1*
G1X32169Y19849D1*
G1X32269Y19849D1*
G1X32425Y19683D2*
G1X32442Y19649D1*
G1X32542Y19649D1*
G1X32559Y19683D1*
G1X32559Y19816D1*
G1X32542Y19849D1*
G1X32442Y19849D1*
G1X32425Y19816D1*
G1X16162Y12909D2*
G1X16195Y12943D1*
G1X16262Y12943D1*
G1X16295Y12909D1*
G1X16295Y12876D1*
G1X16229Y12809D1*
G1X16295Y12743D1*
G1X16162Y12743D1*
G1X15889Y12943D2*
G1X15889Y12743D1*
G1X15872Y12943D2*
G1X15972Y12943D1*
G1X16005Y12909D1*
G1X16005Y12876D1*
G1X15989Y12843D1*
G1X15889Y12843D2*
G1X15989Y12843D1*
G1X16005Y12809D1*
G1X16005Y12776D1*
G1X15972Y12743D1*
G1X15872Y12743D1*
G1X15715Y12909D2*
G1X15699Y12943D1*
G1X15599Y12943D1*
G1X15582Y12909D1*
G1X15582Y12776D1*
G1X15599Y12743D1*
G1X15699Y12743D1*
G1X15715Y12776D1*
G1X2713Y14854D2*
G1X2713Y14988D1*
G1X2579Y14854D1*
G1X2546Y14854D1*
G1X2513Y14871D1*
G1X2513Y14971D1*
G1X2546Y14988D1*
G1X2679Y15144D2*
G1X2713Y15161D1*
G1X2713Y15261D1*
G1X2679Y15278D1*
G1X2546Y15278D1*
G1X2513Y15261D1*
G1X2513Y15161D1*
G1X2546Y15144D1*
G1X2779Y15434D2*
G1X2779Y15568D1*
G1X2679Y15724D2*
G1X2713Y15741D1*
G1X2713Y15841D1*
G1X2679Y15858D1*
G1X2546Y15858D1*
G1X2513Y15841D1*
G1X2513Y15741D1*
G1X2546Y15724D1*
G1X2713Y16131D2*
G1X2513Y16131D1*
G1X2713Y16148D2*
G1X2713Y16048D1*
G1X2679Y16014D1*
G1X2646Y16014D1*
G1X2613Y16031D1*
G1X2613Y16131D2*
G1X2613Y16031D1*
G1X2579Y16014D1*
G1X2546Y16014D1*
G1X2513Y16048D1*
G1X2513Y16148D1*
G1X15131Y14657D2*
G1X15198Y14657D1*
G1X15164Y14657D2*
G1X15164Y14857D1*
G1X15198Y14824D1*
G1X15388Y14857D2*
G1X15388Y14657D1*
G1X15421Y14690D1*
G1X15488Y14824D1*
G1X15521Y14857D1*
G1X15521Y14657D1*
G1X15678Y14657D2*
G1X15744Y14657D1*
G1X15711Y14657D2*
G1X15711Y14857D1*
G1X15678Y14857D2*
G1X15744Y14857D1*
G1X15934Y14690D2*
G1X15951Y14657D1*
G1X16051Y14657D1*
G1X16068Y14690D1*
G1X16068Y14824D1*
G1X16051Y14857D1*
G1X15951Y14857D1*
G1X15934Y14824D1*
G1X16224Y14590D2*
G1X16358Y14590D1*
G1X16564Y14757D2*
G1X16514Y14657D1*
G1X16648Y14757D2*
G1X16548Y14757D1*
G1X16514Y14790D1*
G1X16514Y14824D1*
G1X16548Y14857D1*
G1X16648Y14857D1*
G1X16648Y14657D1*
G1X16804Y14857D2*
G1X16804Y14790D1*
G1X16871Y14657D1*
G1X16938Y14790D1*
G1X16938Y14857D1*
G1X12623Y12284D2*
G1X12623Y12351D1*
G1X12623Y12318D2*
G1X12423Y12318D1*
G1X12456Y12351D1*
G1X12623Y12608D2*
G1X12423Y12608D1*
G1X12423Y12541D2*
G1X12423Y12674D1*
G1X12523Y12864D2*
G1X12523Y12964D1*
G1X12623Y12831D2*
G1X12623Y12964D1*
G1X12423Y12964D1*
G1X12423Y12831D1*
G1X12523Y13154D2*
G1X12523Y13254D1*
G1X12623Y13254D2*
G1X12423Y13254D1*
G1X12423Y13121D1*
G1X2760Y20212D2*
G1X2760Y20112D1*
G1X2794Y20095D1*
G1X2827Y20095D1*
G1X2860Y20112D1*
G1X2860Y20212D1*
G1X2827Y20229D1*
G1X2794Y20229D1*
G1X2660Y20162D1*
G1X2760Y20435D2*
G1X2860Y20385D1*
G1X2760Y20519D2*
G1X2760Y20419D1*
G1X2727Y20385D1*
G1X2694Y20385D1*
G1X2660Y20419D1*
G1X2660Y20519D1*
G1X2860Y20519D1*
G1X2927Y20675D2*
G1X2927Y20809D1*
G1X2827Y20965D2*
G1X2860Y20982D1*
G1X2860Y21082D1*
G1X2827Y21099D1*
G1X2694Y21099D1*
G1X2660Y21082D1*
G1X2660Y20982D1*
G1X2694Y20965D1*
G1X2860Y21372D2*
G1X2660Y21372D1*
G1X2860Y21389D2*
G1X2860Y21289D1*
G1X2827Y21255D1*
G1X2794Y21255D1*
G1X2760Y21272D1*
G1X2760Y21372D2*
G1X2760Y21272D1*
G1X2727Y21255D1*
G1X2694Y21255D1*
G1X2660Y21289D1*
G1X2660Y21389D1*
G1X1947Y21749D2*
G1X1980Y21732D1*
G1X1980Y21632D1*
G1X1947Y21615D1*
G1X1880Y21615D1*
G1X1847Y21649D1*
G1X1847Y21749D1*
G1X1780Y21749D1*
G1X1780Y21615D1*
G1X1947Y21905D2*
G1X1980Y21922D1*
G1X1980Y22022D1*
G1X1947Y22039D1*
G1X1814Y22039D1*
G1X1780Y22022D1*
G1X1780Y21922D1*
G1X1814Y21905D1*
G1X2047Y22195D2*
G1X2047Y22329D1*
G1X1947Y22485D2*
G1X1980Y22502D1*
G1X1980Y22602D1*
G1X1947Y22619D1*
G1X1814Y22619D1*
G1X1780Y22602D1*
G1X1780Y22502D1*
G1X1814Y22485D1*
G1X1980Y22892D2*
G1X1780Y22892D1*
G1X1980Y22909D2*
G1X1980Y22809D1*
G1X1947Y22775D1*
G1X1914Y22775D1*
G1X1880Y22792D1*
G1X1880Y22892D2*
G1X1880Y22792D1*
G1X1847Y22775D1*
G1X1814Y22775D1*
G1X1780Y22809D1*
G1X1780Y22909D1*
G1X4043Y18419D2*
G1X4043Y18285D1*
G1X4177Y18352D1*
G1X4177Y18385D1*
G1X3977Y18385D1*
G1X4043Y18062D2*
G1X3977Y18129D1*
G1X4010Y17995D2*
G1X3977Y18012D1*
G1X3977Y18079D1*
G1X4010Y18095D1*
G1X4043Y18129D1*
G1X4143Y18129D1*
G1X4177Y18112D1*
G1X4177Y18012D1*
G1X4143Y17995D1*
G1X4010Y17995D1*
G1X8245Y19889D2*
G1X8379Y19889D1*
G1X8245Y20023D1*
G1X8245Y20056D1*
G1X8262Y20089D1*
G1X8362Y20089D1*
G1X8379Y20056D1*
G1X8535Y20056D2*
G1X8552Y20089D1*
G1X8652Y20089D1*
G1X8669Y20056D1*
G1X8669Y20023D1*
G1X8652Y19989D1*
G1X8552Y19989D1*
G1X8535Y19956D1*
G1X8535Y19923D1*
G1X8552Y19889D1*
G1X8652Y19889D1*
G1X8669Y19923D1*
G1X8875Y19989D2*
G1X8825Y19889D1*
G1X8959Y19989D2*
G1X8859Y19989D1*
G1X8825Y20023D1*
G1X8825Y20056D1*
G1X8859Y20089D1*
G1X8959Y20089D1*
G1X8959Y19889D1*
G1X9115Y19823D2*
G1X9249Y19823D1*
G1X9405Y19923D2*
G1X9422Y19889D1*
G1X9522Y19889D1*
G1X9539Y19923D1*
G1X9539Y20056D1*
G1X9522Y20089D1*
G1X9422Y20089D1*
G1X9405Y20056D1*
G1X9812Y19889D2*
G1X9812Y20089D1*
G1X9829Y19889D2*
G1X9729Y19889D1*
G1X9695Y19923D1*
G1X9695Y19956D1*
G1X9712Y19989D1*
G1X9812Y19989D2*
G1X9712Y19989D1*
G1X9695Y20023D1*
G1X9695Y20056D1*
G1X9729Y20089D1*
G1X9829Y20089D1*
G1X1040Y21932D2*
G1X1007Y21965D1*
G1X974Y21982D1*
G1X907Y21982D1*
G1X874Y21965D1*
G1X840Y21932D1*
G1X840Y21899D1*
G1X874Y21865D1*
G1X907Y21849D1*
G1X974Y21849D1*
G1X1007Y21865D1*
G1X1040Y21899D1*
G1X1040Y21932D1*
G1X1040Y22139D2*
G1X1040Y22205D1*
G1X1040Y22172D2*
G1X840Y22172D1*
G1X874Y22205D1*
G1X1040Y22512D2*
G1X840Y22512D1*
G1X1040Y22529D2*
G1X1040Y22429D1*
G1X1007Y22395D1*
G1X974Y22395D1*
G1X940Y22412D1*
G1X940Y22512D2*
G1X940Y22412D1*
G1X907Y22395D1*
G1X874Y22395D1*
G1X840Y22429D1*
G1X840Y22529D1*
G1X1007Y22685D2*
G1X1040Y22702D1*
G1X1040Y22802D1*
G1X1007Y22819D1*
G1X874Y22819D1*
G1X840Y22802D1*
G1X840Y22702D1*
G1X874Y22685D1*
G1X3743Y20138D2*
G1X3743Y20204D1*
G1X3743Y20171D2*
G1X3543Y20171D1*
G1X3576Y20204D1*
G1X3643Y20444D2*
G1X3743Y20394D1*
G1X3643Y20528D2*
G1X3643Y20428D1*
G1X3609Y20394D1*
G1X3576Y20394D1*
G1X3543Y20428D1*
G1X3543Y20528D1*
G1X3743Y20528D1*
G1X3809Y20684D2*
G1X3809Y20818D1*
G1X3709Y20974D2*
G1X3743Y20991D1*
G1X3743Y21091D1*
G1X3709Y21108D1*
G1X3576Y21108D1*
G1X3543Y21091D1*
G1X3543Y20991D1*
G1X3576Y20974D1*
G1X3743Y21381D2*
G1X3543Y21381D1*
G1X3743Y21398D2*
G1X3743Y21298D1*
G1X3709Y21264D1*
G1X3676Y21264D1*
G1X3643Y21281D1*
G1X3643Y21381D2*
G1X3643Y21281D1*
G1X3609Y21264D1*
G1X3576Y21264D1*
G1X3543Y21298D1*
G1X3543Y21398D1*
G1X997Y20289D2*
G1X1030Y20272D1*
G1X1030Y20172D1*
G1X997Y20155D1*
G1X930Y20155D1*
G1X897Y20189D1*
G1X897Y20289D1*
G1X830Y20289D1*
G1X830Y20155D1*
G1X930Y20495D2*
G1X1030Y20445D1*
G1X930Y20579D2*
G1X930Y20479D1*
G1X897Y20445D1*
G1X864Y20445D1*
G1X830Y20479D1*
G1X830Y20579D1*
G1X1030Y20579D1*
G1X1097Y20735D2*
G1X1097Y20869D1*
G1X997Y21025D2*
G1X1030Y21042D1*
G1X1030Y21142D1*
G1X997Y21159D1*
G1X864Y21159D1*
G1X830Y21142D1*
G1X830Y21042D1*
G1X864Y21025D1*
G1X1030Y21432D2*
G1X830Y21432D1*
G1X1030Y21449D2*
G1X1030Y21349D1*
G1X997Y21315D1*
G1X964Y21315D1*
G1X930Y21332D1*
G1X930Y21432D2*
G1X930Y21332D1*
G1X897Y21315D1*
G1X864Y21315D1*
G1X830Y21349D1*
G1X830Y21449D1*
G1X3813Y14878D2*
G1X3813Y14944D1*
G1X3813Y14911D2*
G1X3613Y14911D1*
G1X3646Y14944D1*
G1X3779Y15134D2*
G1X3813Y15151D1*
G1X3813Y15251D1*
G1X3779Y15268D1*
G1X3646Y15268D1*
G1X3613Y15251D1*
G1X3613Y15151D1*
G1X3646Y15134D1*
G1X3879Y15424D2*
G1X3879Y15558D1*
G1X3779Y15714D2*
G1X3813Y15731D1*
G1X3813Y15831D1*
G1X3779Y15848D1*
G1X3646Y15848D1*
G1X3613Y15831D1*
G1X3613Y15731D1*
G1X3646Y15714D1*
G1X3813Y16121D2*
G1X3613Y16121D1*
G1X3813Y16138D2*
G1X3813Y16038D1*
G1X3779Y16004D1*
G1X3746Y16004D1*
G1X3713Y16021D1*
G1X3713Y16121D2*
G1X3713Y16021D1*
G1X3679Y16004D1*
G1X3646Y16004D1*
G1X3613Y16038D1*
G1X3613Y16138D1*
G1X8774Y16164D2*
G1X8908Y16164D1*
G1X8841Y16297D1*
G1X8808Y16297D1*
G1X8808Y16097D1*
G1X9064Y16130D2*
G1X9081Y16097D1*
G1X9181Y16097D1*
G1X9198Y16130D1*
G1X9198Y16264D1*
G1X9181Y16297D1*
G1X9081Y16297D1*
G1X9064Y16264D1*
G1X9354Y16030D2*
G1X9488Y16030D1*
G1X9644Y16130D2*
G1X9661Y16097D1*
G1X9761Y16097D1*
G1X9778Y16130D1*
G1X9778Y16264D1*
G1X9761Y16297D1*
G1X9661Y16297D1*
G1X9644Y16264D1*
G1X10051Y16097D2*
G1X10051Y16297D1*
G1X10068Y16097D2*
G1X9968Y16097D1*
G1X9934Y16130D1*
G1X9934Y16164D1*
G1X9951Y16197D1*
G1X10051Y16197D2*
G1X9951Y16197D1*
G1X9934Y16230D1*
G1X9934Y16264D1*
G1X9968Y16297D1*
G1X10068Y16297D1*
G1X3679Y21928D2*
G1X3713Y21894D1*
G1X3713Y21828D1*
G1X3679Y21794D1*
G1X3646Y21794D1*
G1X3579Y21861D1*
G1X3513Y21794D1*
G1X3513Y21928D1*
G1X3679Y22084D2*
G1X3713Y22101D1*
G1X3713Y22201D1*
G1X3679Y22218D1*
G1X3546Y22218D1*
G1X3513Y22201D1*
G1X3513Y22101D1*
G1X3546Y22084D1*
G1X3779Y22374D2*
G1X3779Y22508D1*
G1X3679Y22664D2*
G1X3713Y22681D1*
G1X3713Y22781D1*
G1X3679Y22798D1*
G1X3546Y22798D1*
G1X3513Y22781D1*
G1X3513Y22681D1*
G1X3546Y22664D1*
G1X3713Y23071D2*
G1X3513Y23071D1*
G1X3713Y23088D2*
G1X3713Y22988D1*
G1X3679Y22954D1*
G1X3646Y22954D1*
G1X3613Y22971D1*
G1X3613Y23071D2*
G1X3613Y22971D1*
G1X3579Y22954D1*
G1X3546Y22954D1*
G1X3513Y22988D1*
G1X3513Y23088D1*
G1X1870Y20232D2*
G1X1870Y20132D1*
G1X1904Y20115D1*
G1X1937Y20115D1*
G1X1970Y20132D1*
G1X1970Y20232D1*
G1X1937Y20249D1*
G1X1904Y20249D1*
G1X1770Y20182D1*
G1X1937Y20405D2*
G1X1970Y20422D1*
G1X1970Y20522D1*
G1X1937Y20539D1*
G1X1804Y20539D1*
G1X1770Y20522D1*
G1X1770Y20422D1*
G1X1804Y20405D1*
G1X2037Y20695D2*
G1X2037Y20829D1*
G1X1937Y20985D2*
G1X1970Y21002D1*
G1X1970Y21102D1*
G1X1937Y21119D1*
G1X1804Y21119D1*
G1X1770Y21102D1*
G1X1770Y21002D1*
G1X1804Y20985D1*
G1X1970Y21392D2*
G1X1770Y21392D1*
G1X1970Y21409D2*
G1X1970Y21309D1*
G1X1937Y21275D1*
G1X1904Y21275D1*
G1X1870Y21292D1*
G1X1870Y21392D2*
G1X1870Y21292D1*
G1X1837Y21275D1*
G1X1804Y21275D1*
G1X1770Y21309D1*
G1X1770Y21409D1*
G1X29150Y16063D2*
G1X29150Y16130D1*
G1X29150Y16097D2*
G1X29350Y16097D1*
G1X29317Y16130D1*
G1X47140Y25123D2*
G1X47140Y25190D1*
G1X47140Y25157D2*
G1X47340Y25157D1*
G1X47307Y25190D1*
G1X2750Y21672D2*
G1X2717Y21655D1*
G1X2684Y21655D1*
G1X2650Y21672D1*
G1X2650Y21772D1*
G1X2684Y21789D1*
G1X2717Y21789D1*
G1X2750Y21772D1*
G1X2750Y21672D1*
G1X2784Y21655D1*
G1X2817Y21655D1*
G1X2850Y21672D1*
G1X2850Y21772D1*
G1X2817Y21789D1*
G1X2784Y21789D1*
G1X2750Y21772D1*
G1X2750Y21995D2*
G1X2850Y21945D1*
G1X2750Y22079D2*
G1X2750Y21979D1*
G1X2717Y21945D1*
G1X2684Y21945D1*
G1X2650Y21979D1*
G1X2650Y22079D1*
G1X2850Y22079D1*
G1X2917Y22235D2*
G1X2917Y22369D1*
G1X2817Y22525D2*
G1X2850Y22542D1*
G1X2850Y22642D1*
G1X2817Y22659D1*
G1X2684Y22659D1*
G1X2650Y22642D1*
G1X2650Y22542D1*
G1X2684Y22525D1*
G1X2850Y22932D2*
G1X2650Y22932D1*
G1X2850Y22949D2*
G1X2850Y22849D1*
G1X2817Y22815D1*
G1X2784Y22815D1*
G1X2750Y22832D1*
G1X2750Y22932D2*
G1X2750Y22832D1*
G1X2717Y22815D1*
G1X2684Y22815D1*
G1X2650Y22849D1*
G1X2650Y22949D1*
G1X47090Y-4297D2*
G1X47090Y-4230D1*
G1X47090Y-4263D2*
G1X47290Y-4263D1*
G1X47257Y-4230D1*
G1X45020Y10973D2*
G1X45087Y10973D1*
G1X45053Y10973D2*
G1X45053Y10773D1*
G1X45087Y10807D1*
G1X1583Y15271D2*
G1X1583Y15371D1*
G1X1549Y15388D1*
G1X1516Y15388D1*
G1X1483Y15371D1*
G1X1483Y15271D1*
G1X1516Y15254D1*
G1X1549Y15254D1*
G1X1683Y15321D1*
G1X1683Y15661D2*
G1X1483Y15661D1*
G1X1683Y15678D2*
G1X1683Y15578D1*
G1X1649Y15544D1*
G1X1616Y15544D1*
G1X1583Y15561D1*
G1X1583Y15661D2*
G1X1583Y15561D1*
G1X1549Y15544D1*
G1X1516Y15544D1*
G1X1483Y15578D1*
G1X1483Y15678D1*
G1X1649Y15834D2*
G1X1683Y15851D1*
G1X1683Y15951D1*
G1X1649Y15968D1*
G1X1516Y15968D1*
G1X1483Y15951D1*
G1X1483Y15851D1*
G1X1516Y15834D1*
G1X18457Y20483D2*
G1X18390Y20483D1*
G1X18423Y20483D2*
G1X18423Y20683D1*
G1X18390Y20650D1*
G1X2337Y2863D2*
G1X2270Y2863D1*
G1X2303Y2863D2*
G1X2303Y3063D1*
G1X2270Y3030D1*
G1X17857Y11843D2*
G1X17790Y11843D1*
G1X17823Y11843D2*
G1X17823Y12043D1*
G1X17790Y12010D1*
G1X6260Y16503D2*
G1X6260Y16570D1*
G1X6260Y16537D2*
G1X6460Y16537D1*
G1X6427Y16570D1*
G1X10570Y14550D2*
G1X10570Y14483D1*
G1X10570Y14517D2*
G1X10370Y14517D1*
G1X10403Y14483D1*
G1X7750Y7403D2*
G1X7750Y7470D1*
G1X7750Y7437D2*
G1X7950Y7437D1*
G1X7917Y7470D1*
G1X407Y10733D2*
G1X340Y10733D1*
G1X373Y10733D2*
G1X373Y10933D1*
G1X340Y10900D1*
G1X250Y5043D2*
G1X317Y5043D1*
G1X283Y5043D2*
G1X283Y4843D1*
G1X317Y4877D1*
G1X27882Y16600D2*
G1X27882Y16534D1*
G1X27882Y16567D2*
G1X28082Y16567D1*
G1X28049Y16534D1*
G1X43804Y13614D2*
G1X43804Y13480D1*
G1X43938Y13547D1*
G1X43938Y13580D1*
G1X43738Y13580D1*
G1X43738Y13324D2*
G1X43738Y13190D1*
G1X43871Y13324D1*
G1X43904Y13324D1*
G1X43938Y13307D1*
G1X43938Y13207D1*
G1X43904Y13190D1*
G1X43771Y13034D2*
G1X43738Y13017D1*
G1X43738Y12917D1*
G1X43771Y12900D1*
G1X43904Y12900D1*
G1X43938Y12917D1*
G1X43938Y13017D1*
G1X43904Y13034D1*
G1X40746Y9317D2*
G1X40712Y9283D1*
G1X40646Y9283D1*
G1X40612Y9317D1*
G1X40612Y9350D1*
G1X40679Y9417D1*
G1X40612Y9483D1*
G1X40746Y9483D1*
G1X41036Y9383D2*
G1X40936Y9383D1*
G1X40902Y9417D1*
G1X40902Y9450D1*
G1X40936Y9483D1*
G1X41036Y9483D1*
G1X41036Y9283D1*
G1X41192Y9283D2*
G1X41192Y9483D1*
G1X41226Y9450D1*
G1X41259Y9383D1*
G1X41292Y9450D1*
G1X41326Y9483D1*
G1X41326Y9283D1*
G1X41482Y9350D2*
G1X41616Y9350D1*
G1X41482Y9283D2*
G1X41482Y9383D1*
G1X41532Y9483D1*
G1X41566Y9483D1*
G1X41616Y9383D1*
G1X41616Y9283D1*
G1X40019Y9885D2*
G1X39953Y9885D1*
G1X39986Y9885D2*
G1X39986Y9685D1*
G1X39953Y9718D1*
G1X40822Y9814D2*
G1X40822Y9847D1*
G1X40855Y9847D1*
G1X40855Y9814D1*
G1X40822Y9814D1*
G1X43743Y12267D2*
G1X43743Y12133D1*
G1X43877Y12267D1*
G1X43910Y12267D1*
G1X43943Y12250D1*
G1X43943Y12150D1*
G1X43910Y12133D1*
G1X43843Y11843D2*
G1X43843Y11943D1*
G1X43877Y11977D1*
G1X43910Y11977D1*
G1X43943Y11943D1*
G1X43943Y11843D1*
G1X43743Y11843D1*
G1X43743Y11687D2*
G1X43943Y11687D1*
G1X43910Y11653D1*
G1X43843Y11620D1*
G1X43910Y11587D1*
G1X43943Y11553D1*
G1X43743Y11553D1*
G1X43810Y11397D2*
G1X43810Y11263D1*
G1X43743Y11397D2*
G1X43843Y11397D1*
G1X43943Y11347D1*
G1X43943Y11313D1*
G1X43843Y11263D1*
G1X43743Y11263D1*
G1X43325Y10634D2*
G1X43325Y10567D1*
G1X43325Y10600D2*
G1X43525Y10600D1*
G1X43492Y10567D1*
G1X43406Y11426D2*
G1X43372Y11426D1*
G1X43372Y11460D1*
G1X43406Y11460D1*
G1X43406Y11426D1*
G1X39569Y11039D2*
G1X39469Y11039D1*
G1X39452Y11006D1*
G1X39452Y10973D1*
G1X39469Y10939D1*
G1X39569Y10939D1*
G1X39585Y10973D1*
G1X39585Y11006D1*
G1X39519Y11139D1*
G1X39742Y10939D2*
G1X39859Y10939D1*
G1X39859Y11139D1*
G1X42978Y15640D2*
G1X42961Y15607D1*
G1X42861Y15607D1*
G1X42844Y15640D1*
G1X42844Y15707D1*
G1X42878Y15740D1*
G1X42978Y15740D1*
G1X42978Y15807D1*
G1X42844Y15807D1*
G1X43134Y15607D2*
G1X43268Y15607D1*
G1X43134Y15740D1*
G1X43134Y15774D1*
G1X43151Y15807D1*
G1X43251Y15807D1*
G1X43268Y15774D1*
G1X43424Y15640D2*
G1X43441Y15607D1*
G1X43541Y15607D1*
G1X43558Y15640D1*
G1X43558Y15774D1*
G1X43541Y15807D1*
G1X43441Y15807D1*
G1X43424Y15774D1*
G1X40494Y20202D2*
G1X40528Y20235D1*
G1X40544Y20268D1*
G1X40544Y20335D1*
G1X40528Y20368D1*
G1X40494Y20402D1*
G1X40461Y20402D1*
G1X40428Y20368D1*
G1X40411Y20335D1*
G1X40411Y20268D1*
G1X40428Y20235D1*
G1X40461Y20202D1*
G1X40494Y20202D1*
G1X40834Y20235D2*
G1X40801Y20202D1*
G1X40734Y20202D1*
G1X40701Y20235D1*
G1X40701Y20268D1*
G1X40768Y20335D1*
G1X40701Y20402D1*
G1X40834Y20402D1*
G1X40991Y20235D2*
G1X41008Y20202D1*
G1X41108Y20202D1*
G1X41124Y20235D1*
G1X41124Y20368D1*
G1X41108Y20402D1*
G1X41008Y20402D1*
G1X40991Y20368D1*
G1X41423Y17308D2*
G1X41523Y17308D1*
G1X41539Y17341D1*
G1X41539Y17374D1*
G1X41523Y17408D1*
G1X41423Y17408D1*
G1X41406Y17374D1*
G1X41406Y17341D1*
G1X41473Y17208D1*
G1X41696Y17208D2*
G1X41829Y17208D1*
G1X41696Y17341D1*
G1X41696Y17374D1*
G1X41713Y17408D1*
G1X41813Y17408D1*
G1X41829Y17374D1*
G1X41986Y17241D2*
G1X42003Y17208D1*
G1X42103Y17208D1*
G1X42119Y17241D1*
G1X42119Y17374D1*
G1X42103Y17408D1*
G1X42003Y17408D1*
G1X41986Y17374D1*
G1X41053Y14704D2*
G1X40920Y14704D1*
G1X40986Y14571D1*
G1X41020Y14571D1*
G1X41020Y14771D1*
G1X40630Y14671D2*
G1X40730Y14671D1*
G1X40763Y14638D1*
G1X40763Y14604D1*
G1X40730Y14571D1*
G1X40630Y14571D1*
G1X40630Y14771D1*
G1X40473Y14771D2*
G1X40473Y14571D1*
G1X40440Y14604D1*
G1X40406Y14671D1*
G1X40373Y14604D1*
G1X40340Y14571D1*
G1X40340Y14771D1*
G1X40183Y14704D2*
G1X40050Y14704D1*
G1X40183Y14771D2*
G1X40183Y14671D1*
G1X40133Y14571D1*
G1X40100Y14571D1*
G1X40050Y14671D1*
G1X40050Y14771D1*
G1X42216Y13569D2*
G1X42283Y13569D1*
G1X42250Y13569D2*
G1X42250Y13769D1*
G1X42283Y13736D1*
G1X41444Y13650D2*
G1X41444Y13617D1*
G1X41410Y13617D1*
G1X41410Y13650D1*
G1X41444Y13650D1*
G1X42478Y14596D2*
G1X42478Y14462D1*
G1X42612Y14596D1*
G1X42645Y14596D1*
G1X42678Y14579D1*
G1X42678Y14479D1*
G1X42645Y14462D1*
G1X42678Y14306D2*
G1X42612Y14306D1*
G1X42478Y14239D1*
G1X42612Y14172D1*
G1X42678Y14172D1*
G1X42478Y14016D2*
G1X42478Y13899D1*
G1X42678Y13899D1*
G1X43384Y14267D2*
G1X43350Y14267D1*
G1X43350Y14300D1*
G1X43384Y14300D1*
G1X43384Y14267D1*
G1X42280Y20171D2*
G1X42180Y20371D1*
G1X42313Y20371D1*
G1X42470Y20171D2*
G1X42587Y20171D1*
G1X42587Y20371D1*
G1X41224Y18612D2*
G1X41291Y18612D1*
G1X41258Y18612D2*
G1X41258Y18812D1*
G1X41291Y18778D1*
G1X41614Y18645D2*
G1X41581Y18612D1*
G1X41514Y18612D1*
G1X41481Y18645D1*
G1X41481Y18678D1*
G1X41548Y18745D1*
G1X41481Y18812D1*
G1X41614Y18812D1*
G1X41771Y18645D2*
G1X41788Y18612D1*
G1X41888Y18612D1*
G1X41904Y18645D1*
G1X41904Y18778D1*
G1X41888Y18812D1*
G1X41788Y18812D1*
G1X41771Y18778D1*
G1X19211Y20526D2*
G1X19178Y20492D1*
G1X19111Y20492D1*
G1X19078Y20526D1*
G1X19078Y20559D1*
G1X19144Y20626D1*
G1X19078Y20692D1*
G1X19211Y20692D1*
G1X19484Y20559D2*
G1X19484Y20526D1*
G1X19468Y20492D1*
G1X19401Y20492D1*
G1X19384Y20526D1*
G1X19384Y20692D1*
G1X19368Y20692D2*
G1X19434Y20692D1*
G1X22280Y9252D2*
G1X22247Y9269D1*
G1X22247Y9369D1*
G1X22280Y9386D1*
G1X22347Y9386D1*
G1X22380Y9352D1*
G1X22380Y9252D1*
G1X22447Y9252D1*
G1X22447Y9386D1*
G1X22247Y9096D2*
G1X22247Y9029D1*
G1X22247Y9062D2*
G1X22447Y9062D1*
G1X22414Y9029D1*
G1X22314Y8722D2*
G1X22280Y8722D1*
G1X22247Y8739D1*
G1X22247Y8806D1*
G1X22280Y8822D1*
G1X22447Y8822D1*
G1X22447Y8839D2*
G1X22447Y8772D1*
G1X32273Y10345D2*
G1X32273Y10412D1*
G1X32273Y10378D2*
G1X32073Y10378D1*
G1X32106Y10412D1*
G1X32073Y10602D2*
G1X32273Y10602D1*
G1X32239Y10635D1*
G1X32106Y10702D1*
G1X32073Y10735D1*
G1X32273Y10735D1*
G1X32273Y10892D2*
G1X32273Y10958D1*
G1X32273Y10925D2*
G1X32073Y10925D1*
G1X32073Y10892D2*
G1X32073Y10958D1*
G1X32206Y11148D2*
G1X32206Y11282D1*
G1X32273Y11148D2*
G1X32173Y11148D1*
G1X32073Y11198D1*
G1X32073Y11232D1*
G1X32173Y11282D1*
G1X32273Y11282D1*
G1X32173Y11488D2*
G1X32273Y11438D1*
G1X32173Y11572D2*
G1X32173Y11472D1*
G1X32139Y11438D1*
G1X32106Y11438D1*
G1X32073Y11472D1*
G1X32073Y11572D1*
G1X32273Y11572D1*
G1X32273Y11845D2*
G1X32073Y11845D1*
G1X32273Y11862D2*
G1X32273Y11762D1*
G1X32239Y11728D1*
G1X32206Y11728D1*
G1X32173Y11745D1*
G1X32173Y11845D2*
G1X32173Y11745D1*
G1X32139Y11728D1*
G1X32106Y11728D1*
G1X32073Y11762D1*
G1X32073Y11862D1*
G1X-1489Y9189D2*
G1X-1489Y9256D1*
G1X-1489Y9223D2*
G1X-1689Y9223D1*
G1X-1656Y9256D1*
G1X-1589Y9513D2*
G1X-1589Y9446D1*
G1X-1523Y9446D1*
G1X-1489Y9463D1*
G1X-1489Y9563D1*
G1X-1523Y9579D1*
G1X-1656Y9579D1*
G1X-1689Y9563D1*
G1X-1689Y9463D1*
G1X-1656Y9446D1*
G1X-1523Y9736D2*
G1X-1489Y9753D1*
G1X-1489Y9853D1*
G1X-1523Y9869D1*
G1X-1656Y9869D1*
G1X-1689Y9853D1*
G1X-1689Y9753D1*
G1X-1656Y9736D1*
G1X-1689Y10026D2*
G1X-1523Y10026D1*
G1X-1489Y10043D1*
G1X-1489Y10143D1*
G1X-1523Y10159D1*
G1X-1689Y10159D1*
G1X-1557Y12812D2*
G1X-1557Y12879D1*
G1X-1557Y12845D2*
G1X-1757Y12845D1*
G1X-1724Y12879D1*
G1X-1577Y7027D2*
G1X-1577Y7160D1*
G1X-1710Y7027D1*
G1X-1744Y7027D1*
G1X-1777Y7043D1*
G1X-1777Y7143D1*
G1X-1744Y7160D1*
G1X-1577Y7317D2*
G1X-1577Y7383D1*
G1X-1577Y7350D2*
G1X-1777Y7350D1*
G1X-1744Y7383D1*
G1X45633Y10338D2*
G1X45700Y10338D1*
G1X45667Y10338D2*
G1X45667Y10538D1*
G1X45700Y10505D1*
G1X45890Y10538D2*
G1X45890Y10338D1*
G1X45923Y10372D1*
G1X45990Y10505D1*
G1X46023Y10538D1*
G1X46023Y10338D1*
G1X46230Y10438D2*
G1X46180Y10338D1*
G1X46313Y10438D2*
G1X46213Y10438D1*
G1X46180Y10472D1*
G1X46180Y10505D1*
G1X46213Y10538D1*
G1X46313Y10538D1*
G1X46313Y10338D1*
G1X5125Y4283D2*
G1X5059Y4283D1*
G1X5092Y4283D2*
G1X5092Y4083D1*
G1X5059Y4116D1*
G1X4869Y4183D2*
G1X4735Y4183D1*
G1X4869Y4283D2*
G1X4869Y4083D1*
G1X4735Y4283D2*
G1X4735Y4083D1*
G1X8306Y2280D2*
G54D201*
G1X8306Y1630D1*
G1X8160Y2840D2*
G1X7910Y2590D1*
G1X7650Y2850D1*
G1X8150Y2850D1*
G1X7630Y2530D2*
G1X8180Y2530D1*
G1X7475Y1630D2*
G1X7475Y2280D1*
G1X9936Y12520D2*
G1X9936Y11870D1*
G1X9790Y13080D2*
G1X9540Y12830D1*
G1X9280Y13090D1*
G1X9780Y13090D1*
G1X9260Y12770D2*
G1X9810Y12770D1*
G1X9105Y11870D2*
G1X9105Y12520D1*
M2*
