*
%LPD*%
%LNNECKC.SSB*%
%FSLAX24Y24*%
%MOIN*%
%AD*%
%ADD10R,0.095700X0.095700*%
G54D10*
%SRX1Y1I0.0J0.0*%
G36*
G1X18825Y6110D2*
G1X18995Y5147D1*
G1X18999Y5122D1*
G1X19004Y5097D1*
G1X19008Y5071D1*
G1X19011Y5055D1*
G1X19007Y5029D1*
G1X19012Y5004D1*
G1X19015Y4987D1*
G1X19017Y4970D1*
G1X19014Y4945D1*
G1X19016Y4928D1*
G1X19011Y4911D1*
G1X19014Y4894D1*
G1X19009Y4877D1*
G1X19012Y4860D1*
G1X19006Y4843D1*
G1X19001Y4826D1*
G1X18994Y4818D1*
G1X18997Y4801D1*
G1X18991Y4784D1*
G1X18984Y4776D1*
G1X18977Y4767D1*
G1X18970Y4759D1*
G1X18965Y4742D1*
G1X18958Y4734D1*
G1X18942Y4725D1*
G1X18935Y4717D1*
G1X18929Y4708D1*
G1X18912Y4708D1*
G1X18905Y4700D1*
G1X18889Y4691D1*
G1X18881Y4691D1*
G1X18865Y4683D1*
G1X18849Y4683D1*
G1X18842Y4674D1*
G1X18825Y4674D1*
G1X18808Y4674D1*
G1X18792Y4666D1*
G1X18775Y4666D1*
G1X18759Y4666D1*
G1X18742Y4666D1*
G1X18725Y4666D1*
G1X18708Y4666D1*
G1X18691Y4666D1*
G1X18673Y4674D1*
G1X18656Y4674D1*
G1X18639Y4674D1*
G1X18620Y4683D1*
G1X18604Y4683D1*
G1X18594Y4691D1*
G1X18577Y4691D1*
G1X18558Y4700D1*
G1X18548Y4708D1*
G1X18532Y4708D1*
G1X18522Y4717D1*
G1X18512Y4725D1*
G1X18493Y4734D1*
G1X18483Y4742D1*
G1X18472Y4759D1*
G1X18462Y4767D1*
G1X18452Y4776D1*
G1X18442Y4784D1*
G1X18431Y4801D1*
G1X18419Y4818D1*
G1X18409Y4826D1*
G1X18406Y4843D1*
G1X18395Y4860D1*
G1X18384Y4877D1*
G1X18381Y4894D1*
G1X18369Y4911D1*
G1X18366Y4928D1*
G1X18355Y4945D1*
G1X18350Y4970D1*
G1X18339Y4987D1*
G1X18336Y5004D1*
G1X18331Y5029D1*
G1X18318Y5055D1*
G1X18315Y5071D1*
G1X18311Y5097D1*
G1X18307Y5122D1*
G1X18302Y5147D1*
G1X18132Y6110D1*
G1X17921Y6110D1*
G1X18084Y5190D1*
G1X18089Y5156D1*
G1X18094Y5131D1*
G1X18098Y5105D1*
G1X18104Y5071D1*
G1X18109Y5046D1*
G1X18122Y5021D1*
G1X18126Y4995D1*
G1X18129Y4978D1*
G1X18142Y4953D1*
G1X18147Y4928D1*
G1X18150Y4911D1*
G1X18162Y4886D1*
G1X18165Y4869D1*
G1X18177Y4852D1*
G1X18180Y4835D1*
G1X18191Y4818D1*
G1X18203Y4801D1*
G1X18206Y4784D1*
G1X18216Y4776D1*
G1X18227Y4759D1*
G1X18248Y4734D1*
G1X18270Y4708D1*
G1X18291Y4683D1*
G1X18312Y4658D1*
G1X18332Y4641D1*
G1X18362Y4615D1*
G1X18382Y4598D1*
G1X18410Y4582D1*
G1X18439Y4565D1*
G1X18467Y4548D1*
G1X18494Y4539D1*
G1X18522Y4522D1*
G1X18547Y4522D1*
G1X18574Y4514D1*
G1X18610Y4506D1*
G1X18645Y4497D1*
G1X18670Y4497D1*
G1X18705Y4489D1*
G1X18739Y4489D1*
G1X18773Y4489D1*
G1X18798Y4489D1*
G1X18832Y4489D1*
G1X18857Y4489D1*
G1X18881Y4497D1*
G1X18907Y4497D1*
G1X18930Y4506D1*
G1X18956Y4506D1*
G1X18980Y4514D1*
G1X19004Y4522D1*
G1X19020Y4522D1*
G1X19044Y4531D1*
G1X19068Y4539D1*
G1X19084Y4548D1*
G1X19099Y4556D1*
G1X19113Y4573D1*
G1X19128Y4582D1*
G1X19142Y4598D1*
G1X19158Y4607D1*
G1X19171Y4624D1*
G1X19185Y4641D1*
G1X19199Y4658D1*
G1X19205Y4674D1*
G1X19219Y4691D1*
G1X19223Y4717D1*
G1X19228Y4734D1*
G1X19241Y4759D1*
G1X19246Y4776D1*
G1X19250Y4801D1*
G1X19254Y4826D1*
G1X19258Y4852D1*
G1X19262Y4877D1*
G1X19257Y4902D1*
G1X19261Y4928D1*
G1X19255Y4962D1*
G1X19259Y4987D1*
G1X19253Y5021D1*
G1X19257Y5046D1*
G1X19252Y5080D1*
G1X19246Y5114D1*
G1X19240Y5147D1*
G1X19070Y6110D1*
G1X18825Y6110D1*
G37*
G36*
G1X16597Y4565D2*
G1X16624Y4556D1*
G1X16651Y4548D1*
G1X16669Y4539D1*
G1X16696Y4531D1*
G1X16723Y4522D1*
G1X16748Y4522D1*
G1X16774Y4522D1*
G1X16792Y4514D1*
G1X16818Y4514D1*
G1X16844Y4506D1*
G1X16870Y4506D1*
G1X16888Y4497D1*
G1X16913Y4497D1*
G1X16939Y4497D1*
G1X16957Y4489D1*
G1X16982Y4489D1*
G1X17008Y4489D1*
G1X17025Y4489D1*
G1X17050Y4489D1*
G1X17084Y4489D1*
G1X17126Y4489D1*
G1X17158Y4497D1*
G1X17192Y4497D1*
G1X17224Y4506D1*
G1X17258Y4506D1*
G1X17290Y4514D1*
G1X17323Y4522D1*
G1X17348Y4522D1*
G1X17379Y4539D1*
G1X17411Y4548D1*
G1X17434Y4565D1*
G1X17457Y4573D1*
G1X17488Y4590D1*
G1X17511Y4607D1*
G1X17533Y4624D1*
G1X17554Y4649D1*
G1X17576Y4666D1*
G1X17599Y4683D1*
G1X17619Y4708D1*
G1X17640Y4734D1*
G1X17653Y4759D1*
G1X17667Y4776D1*
G1X17687Y4801D1*
G1X17698Y4835D1*
G1X17711Y4860D1*
G1X17723Y4886D1*
G1X17727Y4911D1*
G1X17738Y4945D1*
G1X17742Y4970D1*
G1X17753Y5004D1*
G1X17756Y5038D1*
G1X17760Y5063D1*
G1X17762Y5097D1*
G1X17756Y5131D1*
G1X17759Y5164D1*
G1X17753Y5198D1*
G1X17755Y5232D1*
G1X17748Y5274D1*
G1X17742Y5308D1*
G1X17736Y5342D1*
G1X17728Y5384D1*
G1X17714Y5418D1*
G1X17708Y5451D1*
G1X17694Y5485D1*
G1X17688Y5519D1*
G1X17673Y5553D1*
G1X17660Y5578D1*
G1X17646Y5612D1*
G1X17623Y5646D1*
G1X17610Y5671D1*
G1X17587Y5705D1*
G1X17574Y5730D1*
G1X17553Y5756D1*
G1X17532Y5781D1*
G1X17509Y5815D1*
G1X17479Y5840D1*
G1X17459Y5857D1*
G1X17438Y5882D1*
G1X17408Y5908D1*
G1X17378Y5933D1*
G1X17350Y5950D1*
G1X17320Y5975D1*
G1X17292Y5992D1*
G1X17263Y6009D1*
G1X17235Y6026D1*
G1X17198Y6043D1*
G1X17170Y6060D1*
G1X17142Y6076D1*
G1X17106Y6085D1*
G1X17071Y6093D1*
G1X17043Y6110D1*
G1X17008Y6119D1*
G1X16974Y6119D1*
G1X16938Y6127D1*
G1X16903Y6136D1*
G1X16869Y6136D1*
G1X16834Y6144D1*
G1X16792Y6144D1*
G1X16758Y6144D1*
G1X16733Y6144D1*
G1X16716Y6144D1*
G1X16691Y6144D1*
G1X16674Y6144D1*
G1X16650Y6136D1*
G1X16633Y6136D1*
G1X16608Y6136D1*
G1X16591Y6136D1*
G1X16567Y6127D1*
G1X16542Y6127D1*
G1X16526Y6119D1*
G1X16501Y6119D1*
G1X16477Y6110D1*
G1X16460Y6110D1*
G1X16436Y6102D1*
G1X16412Y6093D1*
G1X16388Y6085D1*
G1X16372Y6085D1*
G1X16348Y6076D1*
G1X16324Y6068D1*
G1X16363Y5848D1*
G1X16386Y5857D1*
G1X16410Y5865D1*
G1X16433Y5882D1*
G1X16448Y5891D1*
G1X16472Y5899D1*
G1X16496Y5908D1*
G1X16520Y5916D1*
G1X16545Y5916D1*
G1X16560Y5924D1*
G1X16584Y5933D1*
G1X16610Y5933D1*
G1X16625Y5941D1*
G1X16650Y5941D1*
G1X16674Y5950D1*
G1X16691Y5950D1*
G1X16716Y5950D1*
G1X16732Y5958D1*
G1X16757Y5958D1*
G1X16774Y5958D1*
G1X16799Y5958D1*
G1X16825Y5958D1*
G1X16850Y5958D1*
G1X16867Y5958D1*
G1X16894Y5950D1*
G1X16919Y5950D1*
G1X16946Y5941D1*
G1X16964Y5933D1*
G1X16990Y5933D1*
G1X17008Y5924D1*
G1X17026Y5916D1*
G1X17053Y5908D1*
G1X17073Y5891D1*
G1X17091Y5882D1*
G1X17118Y5874D1*
G1X17138Y5857D1*
G1X17157Y5848D1*
G1X17176Y5832D1*
G1X17196Y5815D1*
G1X17216Y5798D1*
G1X17236Y5781D1*
G1X17256Y5764D1*
G1X17276Y5747D1*
G1X17289Y5722D1*
G1X17309Y5705D1*
G1X17321Y5680D1*
G1X17341Y5663D1*
G1X17354Y5637D1*
G1X17366Y5620D1*
G1X17379Y5595D1*
G1X17390Y5578D1*
G1X17403Y5553D1*
G1X17416Y5527D1*
G1X17429Y5502D1*
G1X17433Y5477D1*
G1X17446Y5451D1*
G1X17451Y5426D1*
G1X17464Y5401D1*
G1X17468Y5375D1*
G1X17472Y5350D1*
G1X17477Y5325D1*
G1X17481Y5299D1*
G1X17487Y5266D1*
G1X17492Y5240D1*
G1X17488Y5215D1*
G1X17492Y5190D1*
G1X17488Y5164D1*
G1X17484Y5139D1*
G1X17489Y5114D1*
G1X17485Y5088D1*
G1X17481Y5063D1*
G1X17475Y5046D1*
G1X17463Y5021D1*
G1X17459Y4995D1*
G1X17454Y4978D1*
G1X17441Y4953D1*
G1X17436Y4936D1*
G1X17422Y4919D1*
G1X17409Y4894D1*
G1X17395Y4877D1*
G1X17381Y4860D1*
G1X17368Y4843D1*
G1X17354Y4826D1*
G1X17331Y4810D1*
G1X17317Y4793D1*
G1X17302Y4784D1*
G1X17280Y4767D1*
G1X17264Y4759D1*
G1X17240Y4750D1*
G1X17218Y4734D1*
G1X17203Y4725D1*
G1X17179Y4717D1*
G1X17155Y4708D1*
G1X17130Y4708D1*
G1X17106Y4700D1*
G1X17082Y4691D1*
G1X17057Y4691D1*
G1X17033Y4683D1*
G1X17007Y4683D1*
G1X16974Y4683D1*
G1X16948Y4683D1*
G1X16931Y4683D1*
G1X16914Y4683D1*
G1X16898Y4683D1*
G1X16881Y4683D1*
G1X16862Y4691D1*
G1X16837Y4691D1*
G1X16820Y4691D1*
G1X16802Y4700D1*
G1X16785Y4700D1*
G1X16758Y4708D1*
G1X16741Y4708D1*
G1X16714Y4717D1*
G1X16696Y4725D1*
G1X16679Y4725D1*
G1X16652Y4734D1*
G1X16634Y4742D1*
G1X16607Y4750D1*
G1X16580Y4759D1*
G1X16562Y4767D1*
G1X16535Y4776D1*
G1X16572Y4565D1*
G1X16597Y4565D1*
G37*
G36*
G1X15919Y6110D2*
G1X15675Y6110D1*
G1X15922Y4708D1*
G1X15069Y4708D1*
G1X15101Y4522D1*
G1X16199Y4522D1*
G1X15919Y6110D1*
G37*
G36*
G1X14028Y6110D2*
G1X13783Y6110D1*
G1X13438Y4522D1*
G1X13699Y4522D1*
G1X13781Y4919D1*
G1X14499Y4919D1*
G1X14721Y4522D1*
G1X14933Y4522D1*
G1X14028Y6110D1*
G37*
%LPC*%
G36*
G1X13816Y5105D2*
G1X13969Y5865D1*
G1X14399Y5105D1*
G1X13816Y5105D1*
G37*
%LPD*%
G36*
G1X2562Y8639D2*
G75*
G3X2566Y8635I4J0D1*
G1X2592Y8635D1*
G2X2597Y8630I0J-5D1*
G1X2597Y8604D1*
G3X2601Y8600I4J0D1*
G1X2628Y8600D1*
G2X2633Y8595I0J-5D1*
G1X2633Y8568D1*
G3X2637Y8564I4J0D1*
G1X2664Y8564D1*
G2X2669Y8559I0J-5D1*
G1X2669Y8532D1*
G3X2673Y8528I4J0D1*
G1X2699Y8528D1*
G2X2704Y8523I0J-5D1*
G1X2704Y8497D1*
G3X2708Y8493I4J0D1*
G1X2735Y8493D1*
G2X2740Y8488I0J-5D1*
G1X2740Y8461D1*
G3X2744Y8457I4J0D1*
G1X2771Y8457D1*
G2X2776Y8452I0J-5D1*
G1X2776Y8425D1*
G3X2780Y8421I4J0D1*
G1X3548Y8421D1*
G3X3552Y8425I0J4D1*
G1X3552Y8452D1*
G2X3557Y8457I5J0D1*
G1X3619Y8457D1*
G3X3623Y8461I0J4D1*
G1X3623Y8488D1*
G2X3628Y8493I5J0D1*
G1X3655Y8493D1*
G3X3659Y8497I0J4D1*
G1X3659Y8523D1*
G2X3664Y8528I5J0D1*
G1X3726Y8528D1*
G3X3730Y8532I0J4D1*
G1X3730Y8595D1*
G2X3735Y8600I5J0D1*
G1X3762Y8600D1*
G3X3766Y8604I0J4D1*
G1X3766Y8666D1*
G2X3771Y8671I5J0D1*
G1X3798Y8671D1*
G3X3802Y8675I0J4D1*
G1X3802Y9845D1*
G2X3807Y9850I5J0D1*
G1X4226Y9850D1*
G3X4230Y9854I0J4D1*
G1X4230Y10157D1*
G3X4226Y10161I-4J0D1*
G1X3807Y10161D1*
G2X3802Y10166I0J5D1*
G1X3802Y10550D1*
G3X3798Y10554I-4J0D1*
G1X3173Y10554D1*
G3X3169Y10550I0J-4D1*
G1X3169Y10166D1*
G2X3164Y10161I-5J0D1*
G1X2673Y10161D1*
G3X2669Y10157I0J-4D1*
G1X2669Y9854D1*
G3X2673Y9850I4J0D1*
G1X3164Y9850D1*
G2X3169Y9845I0J-5D1*
G1X3169Y8988D1*
G2X3164Y8983I-5J0D1*
G1X3137Y8983D1*
G3X3133Y8979I0J-4D1*
G1X3133Y8880D1*
G2X3128Y8875I-5J0D1*
G1X3101Y8875D1*
G3X3097Y8871I0J-4D1*
G1X3097Y8809D1*
G2X3092Y8804I-5J0D1*
G1X3066Y8804D1*
G3X3062Y8800I0J-4D1*
G1X3062Y8773D1*
G2X3057Y8768I-5J0D1*
G1X3030Y8768D1*
G3X3026Y8764I0J-4D1*
G1X3026Y8738D1*
G2X3021Y8733I-5J0D1*
G1X2958Y8733D1*
G3X2954Y8729I0J-4D1*
G1X2954Y8702D1*
G2X2949Y8697I-5J0D1*
G1X2566Y8697D1*
G3X2562Y8693I0J-4D1*
G1X2562Y8639D1*
G37*
G36*
G1X4347Y8782D2*
G3X4351Y8778I4J0D1*
G1X4378Y8778D1*
G2X4383Y8773I0J-5D1*
G1X4383Y8711D1*
G3X4387Y8707I4J0D1*
G1X4414Y8707D1*
G2X4419Y8702I0J-5D1*
G1X4419Y8639D1*
G3X4423Y8635I4J0D1*
G1X4449Y8635D1*
G2X4454Y8630I0J-5D1*
G1X4454Y8604D1*
G3X4458Y8600I4J0D1*
G1X4485Y8600D1*
G2X4490Y8595I0J-5D1*
G1X4490Y8568D1*
G3X4494Y8564I4J0D1*
G1X4521Y8564D1*
G2X4526Y8559I0J-5D1*
G1X4526Y8532D1*
G3X4530Y8528I4J0D1*
G1X4557Y8528D1*
G2X4562Y8523I0J-5D1*
G1X4562Y8497D1*
G3X4566Y8493I4J0D1*
G1X4628Y8493D1*
G2X4633Y8488I0J-5D1*
G1X4633Y8461D1*
G3X4637Y8457I4J0D1*
G1X4735Y8457D1*
G2X4740Y8452I0J-5D1*
G1X4740Y8425D1*
G3X4744Y8421I4J0D1*
G1X5869Y8421D1*
G3X5873Y8425I0J4D1*
G1X5873Y8452D1*
G2X5878Y8457I5J0D1*
G1X5976Y8457D1*
G3X5980Y8461I0J4D1*
G1X5980Y8488D1*
G2X5985Y8493I5J0D1*
G1X6012Y8493D1*
G3X6016Y8497I0J4D1*
G1X6016Y8523D1*
G2X6021Y8528I5J0D1*
G1X6083Y8528D1*
G3X6087Y8532I0J4D1*
G1X6087Y8559D1*
G2X6092Y8564I5J0D1*
G1X6119Y8564D1*
G3X6123Y8568I0J4D1*
G1X6123Y8595D1*
G2X6128Y8600I5J0D1*
G1X6155Y8600D1*
G3X6159Y8604I0J4D1*
G1X6159Y8666D1*
G2X6164Y8671I5J0D1*
G1X6190Y8671D1*
G3X6194Y8675I0J4D1*
G1X6194Y8738D1*
G2X6199Y8743I5J0D1*
G1X6226Y8743D1*
G3X6230Y8747I0J4D1*
G1X6230Y8845D1*
G2X6235Y8850I5J0D1*
G1X6262Y8850D1*
G3X6266Y8854I0J4D1*
G1X6266Y9309D1*
G1X5740Y9309D1*
G1X5740Y8916D1*
G2X5735Y8911I-5J0D1*
G1X5021Y8911D1*
G2X5016Y8916I0J5D1*
G1X5016Y8943D1*
G3X5012Y8947I-4J0D1*
G1X4949Y8947D1*
G2X4944Y8952I0J5D1*
G1X4944Y8979D1*
G3X4940Y8983I-4J0D1*
G1X4914Y8983D1*
G2X4909Y8988I0J5D1*
G1X4909Y9086D1*
G3X4905Y9090I-4J0D1*
G1X4878Y9090D1*
G2X4873Y9095I0J5D1*
G1X4873Y9309D1*
G1X4347Y9309D1*
G1X4347Y8782D1*
G37*
G36*
G1X4347Y9309D2*
G1X4873Y9309D1*
G1X4873Y9523D1*
G2X4878Y9528I5J0D1*
G1X4905Y9528D1*
G3X4909Y9532I0J4D1*
G1X4909Y9630D1*
G2X4914Y9635I5J0D1*
G1X4940Y9635D1*
G3X4944Y9639I0J4D1*
G1X4944Y9666D1*
G2X4949Y9671I5J0D1*
G1X5012Y9671D1*
G3X5016Y9675I0J4D1*
G1X5016Y9702D1*
G2X5021Y9707I5J0D1*
G1X5664Y9707D1*
G2X5669Y9702I0J-5D1*
G1X5669Y9675D1*
G3X5673Y9671I4J0D1*
G1X5699Y9671D1*
G2X5704Y9666I0J-5D1*
G1X5704Y9639D1*
G3X5708Y9635I4J0D1*
G1X5735Y9635D1*
G2X5740Y9630I0J-5D1*
G1X5740Y9309D1*
G1X6266Y9309D1*
G1X6266Y9693D1*
G3X6262Y9697I-4J0D1*
G1X6235Y9697D1*
G2X6230Y9702I0J5D1*
G1X6230Y9800D1*
G3X6226Y9804I-4J0D1*
G1X6199Y9804D1*
G2X6194Y9809I0J5D1*
G1X6194Y9871D1*
G3X6190Y9875I-4J0D1*
G1X6164Y9875D1*
G2X6159Y9880I0J5D1*
G1X6159Y9943D1*
G3X6155Y9947I-4J0D1*
G1X6128Y9947D1*
G2X6123Y9952I0J5D1*
G1X6123Y9979D1*
G3X6119Y9983I-4J0D1*
G1X6092Y9983D1*
G2X6087Y9988I0J5D1*
G1X6087Y10014D1*
G3X6083Y10018I-4J0D1*
G1X6021Y10018D1*
G2X6016Y10023I0J5D1*
G1X6016Y10050D1*
G3X6012Y10054I-4J0D1*
G1X5985Y10054D1*
G2X5980Y10059I0J5D1*
G1X5980Y10086D1*
G3X5976Y10090I-4J0D1*
G1X5878Y10090D1*
G2X5873Y10095I0J5D1*
G1X5873Y10121D1*
G3X5869Y10125I-4J0D1*
G1X4744Y10125D1*
G3X4740Y10121I0J-4D1*
G1X4740Y10095D1*
G2X4735Y10090I-5J0D1*
G1X4637Y10090D1*
G3X4633Y10086I0J-4D1*
G1X4633Y10059D1*
G2X4628Y10054I-5J0D1*
G1X4566Y10054D1*
G3X4562Y10050I0J-4D1*
G1X4562Y10023D1*
G2X4557Y10018I-5J0D1*
G1X4530Y10018D1*
G3X4526Y10014I0J-4D1*
G1X4526Y9988D1*
G2X4521Y9983I-5J0D1*
G1X4494Y9983D1*
G3X4490Y9979I0J-4D1*
G1X4490Y9952D1*
G2X4485Y9947I-5J0D1*
G1X4458Y9947D1*
G3X4454Y9943I0J-4D1*
G1X4454Y9916D1*
G2X4449Y9911I-5J0D1*
G1X4423Y9911D1*
G3X4419Y9907I0J-4D1*
G1X4419Y9845D1*
G2X4414Y9840I-5J0D1*
G1X4387Y9840D1*
G3X4383Y9836I0J-4D1*
G1X4383Y9773D1*
G2X4378Y9768I-5J0D1*
G1X4351Y9768D1*
G3X4347Y9764I0J-4D1*
G1X4347Y9309D1*
G37*
G36*
G1X6633Y8782D2*
G3X6637Y8778I4J0D1*
G1X6664Y8778D1*
G2X6669Y8773I0J-5D1*
G1X6669Y8711D1*
G3X6673Y8707I4J0D1*
G1X6699Y8707D1*
G2X6704Y8702I0J-5D1*
G1X6704Y8639D1*
G3X6708Y8635I4J0D1*
G1X6735Y8635D1*
G2X6740Y8630I0J-5D1*
G1X6740Y8604D1*
G3X6744Y8600I4J0D1*
G1X6771Y8600D1*
G2X6776Y8595I0J-5D1*
G1X6776Y8568D1*
G3X6780Y8564I4J0D1*
G1X6807Y8564D1*
G2X6812Y8559I0J-5D1*
G1X6812Y8532D1*
G3X6816Y8528I4J0D1*
G1X6842Y8528D1*
G2X6847Y8523I0J-5D1*
G1X6847Y8497D1*
G3X6851Y8493I4J0D1*
G1X6914Y8493D1*
G2X6919Y8488I0J-5D1*
G1X6919Y8461D1*
G3X6923Y8457I4J0D1*
G1X6985Y8457D1*
G2X6990Y8452I0J-5D1*
G1X6990Y8425D1*
G3X6994Y8421I4J0D1*
G1X8833Y8421D1*
G3X8837Y8425I0J4D1*
G1X8837Y9291D1*
G1X8169Y9291D1*
G1X8169Y8845D1*
G2X8164Y8840I-5J0D1*
G1X7414Y8840D1*
G2X7409Y8845I0J5D1*
G1X7409Y8871D1*
G3X7405Y8875I-4J0D1*
G1X7271Y8875D1*
G2X7266Y8880I0J5D1*
G1X7266Y8907D1*
G3X7262Y8911I-4J0D1*
G1X7199Y8911D1*
G2X7194Y8916I0J5D1*
G1X7194Y8943D1*
G3X7190Y8947I-4J0D1*
G1X7164Y8947D1*
G2X7159Y8952I0J5D1*
G1X7159Y9014D1*
G3X7155Y9018I-4J0D1*
G1X7128Y9018D1*
G2X7123Y9023I0J5D1*
G1X7123Y9291D1*
G1X6633Y9291D1*
G1X6633Y8782D1*
G37*
G36*
G1X6633Y9291D2*
G1X7123Y9291D1*
G1X7123Y9559D1*
G2X7128Y9564I5J0D1*
G1X7155Y9564D1*
G3X7159Y9568I0J4D1*
G1X7159Y9630D1*
G2X7164Y9635I5J0D1*
G1X7190Y9635D1*
G3X7194Y9639I0J4D1*
G1X7194Y9666D1*
G2X7199Y9671I5J0D1*
G1X7226Y9671D1*
G3X7230Y9675I0J4D1*
G1X7230Y9702D1*
G2X7235Y9707I5J0D1*
G1X7298Y9707D1*
G3X7302Y9711I0J4D1*
G1X7302Y9738D1*
G2X7307Y9743I5J0D1*
G1X7985Y9743D1*
G2X7990Y9738I0J-5D1*
G1X7990Y9711D1*
G3X7994Y9707I4J0D1*
G1X8057Y9707D1*
G2X8062Y9702I0J-5D1*
G1X8062Y9675D1*
G3X8066Y9671I4J0D1*
G1X8092Y9671D1*
G2X8097Y9666I0J-5D1*
G1X8097Y9639D1*
G3X8101Y9635I4J0D1*
G1X8128Y9635D1*
G2X8133Y9630I0J-5D1*
G1X8133Y9568D1*
G3X8137Y9564I4J0D1*
G1X8164Y9564D1*
G2X8169Y9559I0J-5D1*
G1X8169Y9291D1*
G1X8837Y9291D1*
G1X8837Y10764D1*
G3X8833Y10768I-4J0D1*
G1X8208Y10768D1*
G3X8204Y10764I0J-4D1*
G1X8204Y10738D1*
G2X8199Y10733I-5J0D1*
G1X8173Y10733D1*
G3X8169Y10729I0J-4D1*
G1X8169Y10095D1*
G2X8164Y10090I-5J0D1*
G1X8057Y10090D1*
G2X8052Y10095I0J5D1*
G1X8052Y10121D1*
G3X8048Y10125I-4J0D1*
G1X6958Y10125D1*
G3X6954Y10121I0J-4D1*
G1X6954Y10095D1*
G2X6949Y10090I-5J0D1*
G1X6887Y10090D1*
G3X6883Y10086I0J-4D1*
G1X6883Y10059D1*
G2X6878Y10054I-5J0D1*
G1X6816Y10054D1*
G3X6812Y10050I0J-4D1*
G1X6812Y10023D1*
G2X6807Y10018I-5J0D1*
G1X6780Y10018D1*
G3X6776Y10014I0J-4D1*
G1X6776Y9988D1*
G2X6771Y9983I-5J0D1*
G1X6744Y9983D1*
G3X6740Y9979I0J-4D1*
G1X6740Y9916D1*
G2X6735Y9911I-5J0D1*
G1X6708Y9911D1*
G3X6704Y9907I0J-4D1*
G1X6704Y9880D1*
G2X6699Y9875I-5J0D1*
G1X6673Y9875D1*
G3X6669Y9871I0J-4D1*
G1X6669Y9773D1*
G2X6664Y9768I-5J0D1*
G1X6637Y9768D1*
G3X6633Y9764I0J-4D1*
G1X6633Y9291D1*
G37*
G36*
G1X9169Y8854D2*
G3X9173Y8850I4J0D1*
G1X9199Y8850D1*
G2X9204Y8845I0J-5D1*
G1X9204Y8711D1*
G3X9208Y8707I4J0D1*
G1X9235Y8707D1*
G2X9240Y8702I0J-5D1*
G1X9240Y8675D1*
G3X9244Y8671I4J0D1*
G1X9271Y8671D1*
G2X9276Y8666I0J-5D1*
G1X9276Y8604D1*
G3X9280Y8600I4J0D1*
G1X9307Y8600D1*
G2X9312Y8595I0J-5D1*
G1X9312Y8568D1*
G3X9316Y8564I4J0D1*
G1X9342Y8564D1*
G2X9347Y8559I0J-5D1*
G1X9347Y8532D1*
G3X9351Y8528I4J0D1*
G1X9378Y8528D1*
G2X9383Y8523I0J-5D1*
G1X9383Y8497D1*
G3X9387Y8493I4J0D1*
G1X9449Y8493D1*
G2X9454Y8488I0J-5D1*
G1X9454Y8461D1*
G3X9458Y8457I4J0D1*
G1X9521Y8457D1*
G2X9526Y8452I0J-5D1*
G1X9526Y8425D1*
G3X9530Y8421I4J0D1*
G1X10726Y8421D1*
G3X10730Y8425I0J4D1*
G1X10730Y8452D1*
G2X10735Y8457I5J0D1*
G1X10833Y8457D1*
G3X10837Y8461I0J4D1*
G1X10837Y8488D1*
G2X10842Y8493I5J0D1*
G1X10869Y8493D1*
G3X10873Y8497I0J4D1*
G1X10873Y8523D1*
G2X10878Y8528I5J0D1*
G1X10940Y8528D1*
G3X10944Y8532I0J4D1*
G1X10944Y8559D1*
G2X10949Y8564I5J0D1*
G1X10976Y8564D1*
G3X10980Y8568I0J4D1*
G1X10980Y8630D1*
G2X10985Y8635I5J0D1*
G1X11012Y8635D1*
G3X11016Y8639I0J4D1*
G1X11016Y8666D1*
G2X11021Y8671I5J0D1*
G1X11048Y8671D1*
G3X11052Y8675I0J4D1*
G1X11052Y8773D1*
G2X11057Y8778I5J0D1*
G1X11083Y8778D1*
G3X11087Y8782I0J4D1*
G1X11087Y9291D1*
G1X10597Y9291D1*
G1X10597Y8916D1*
G2X10592Y8911I-5J0D1*
G1X10566Y8911D1*
G3X10562Y8907I0J-4D1*
G1X10562Y8880D1*
G2X10557Y8875I-5J0D1*
G1X9985Y8875D1*
G2X9980Y8880I0J5D1*
G1X9980Y8907D1*
G3X9976Y8911I-4J0D1*
G1X9842Y8911D1*
G2X9837Y8916I0J5D1*
G1X9837Y8943D1*
G3X9833Y8947I-4J0D1*
G1X9771Y8947D1*
G2X9766Y8952I0J5D1*
G1X9766Y9014D1*
G3X9762Y9018I-4J0D1*
G1X9735Y9018D1*
G2X9730Y9023I0J5D1*
G1X9730Y9291D1*
G1X9169Y9291D1*
G1X9169Y8854D1*
G37*
G36*
G1X9169Y9693D2*
G1X9169Y9291D1*
G1X9730Y9291D1*
G1X9730Y9559D1*
G2X9735Y9564I5J0D1*
G1X9762Y9564D1*
G3X9766Y9568I0J4D1*
G1X9766Y9630D1*
G2X9771Y9635I5J0D1*
G1X9798Y9635D1*
G3X9802Y9639I0J4D1*
G1X9802Y9666D1*
G2X9807Y9671I5J0D1*
G1X9869Y9671D1*
G3X9873Y9675I0J4D1*
G1X9873Y9702D1*
G2X9878Y9707I5J0D1*
G1X10485Y9707D1*
G2X10490Y9702I0J-5D1*
G1X10490Y9675D1*
G3X10494Y9671I4J0D1*
G1X10521Y9671D1*
G2X10526Y9666I0J-5D1*
G1X10526Y9639D1*
G3X10530Y9635I4J0D1*
G1X10557Y9635D1*
G2X10562Y9630I0J-5D1*
G1X10562Y9568D1*
G3X10566Y9564I4J0D1*
G1X10592Y9564D1*
G2X10597Y9559I0J-5D1*
G1X10597Y9291D1*
G1X11087Y9291D1*
G1X11087Y9764D1*
G3X11083Y9768I-4J0D1*
G1X11057Y9768D1*
G2X11052Y9773I0J5D1*
G1X11052Y9836D1*
G3X11048Y9840I-4J0D1*
G1X11021Y9840D1*
G2X11016Y9845I0J5D1*
G1X11016Y9907D1*
G3X11012Y9911I-4J0D1*
G1X10985Y9911D1*
G2X10980Y9916I0J5D1*
G1X10980Y9943D1*
G3X10976Y9947I-4J0D1*
G1X10949Y9947D1*
G2X10944Y9952I0J5D1*
G1X10944Y9979D1*
G3X10940Y9983I-4J0D1*
G1X10914Y9983D1*
G2X10909Y9988I0J5D1*
G1X10909Y10014D1*
G3X10905Y10018I-4J0D1*
G1X10842Y10018D1*
G2X10837Y10023I0J5D1*
G1X10837Y10050D1*
G3X10833Y10054I-4J0D1*
G1X10807Y10054D1*
G2X10802Y10059I0J5D1*
G1X10802Y10086D1*
G3X10798Y10090I-4J0D1*
G1X10664Y10090D1*
G2X10659Y10095I0J5D1*
G1X10659Y10121D1*
G3X10655Y10125I-4J0D1*
G1X9601Y10125D1*
G3X9597Y10121I0J-4D1*
G1X9597Y10095D1*
G2X9592Y10090I-5J0D1*
G1X9494Y10090D1*
G3X9490Y10086I0J-4D1*
G1X9490Y10059D1*
G2X9485Y10054I-5J0D1*
G1X9423Y10054D1*
G3X9419Y10050I0J-4D1*
G1X9419Y10023D1*
G2X9414Y10018I-5J0D1*
G1X9387Y10018D1*
G3X9383Y10014I0J-4D1*
G1X9383Y9988D1*
G2X9378Y9983I-5J0D1*
G1X9316Y9983D1*
G3X9312Y9979I0J-4D1*
G1X9312Y9916D1*
G2X9307Y9911I-5J0D1*
G1X9280Y9911D1*
G3X9276Y9907I0J-4D1*
G1X9276Y9880D1*
G2X9271Y9875I-5J0D1*
G1X9244Y9875D1*
G3X9240Y9871I0J-4D1*
G1X9240Y9809D1*
G2X9235Y9804I-5J0D1*
G1X9208Y9804D1*
G3X9204Y9800I0J-4D1*
G1X9204Y9702D1*
G2X9199Y9697I-5J0D1*
G1X9173Y9697D1*
G3X9169Y9693I0J-4D1*
G37*
G36*
G1X11276Y10068D2*
G3X11280Y10064I4J0D1*
G1X11307Y10064D1*
G2X11312Y10059I0J-5D1*
G1X11312Y9997D1*
G3X11316Y9993I4J0D1*
G1X11342Y9993D1*
G2X11347Y9988I0J-5D1*
G1X11347Y9925D1*
G3X11351Y9921I4J0D1*
G1X11378Y9921D1*
G2X11383Y9916I0J-5D1*
G1X11383Y9854D1*
G3X11387Y9850I4J0D1*
G1X11414Y9850D1*
G2X11419Y9845I0J-5D1*
G1X11419Y9782D1*
G3X11423Y9778I4J0D1*
G1X11449Y9778D1*
G2X11454Y9773I0J-5D1*
G1X11454Y9747D1*
G3X11458Y9743I4J0D1*
G1X11807Y9743D1*
G2X11812Y9738I0J-5D1*
G1X11812Y9702D1*
G2X11807Y9697I-5J0D1*
G1X11780Y9697D1*
G3X11776Y9693I0J-4D1*
G1X11776Y9630D1*
G2X11771Y9625I-5J0D1*
G1X11744Y9625D1*
G3X11740Y9621I0J-4D1*
G1X11740Y9595D1*
G2X11735Y9590I-5J0D1*
G1X11708Y9590D1*
G3X11704Y9586I0J-4D1*
G1X11704Y9488D1*
G2X11699Y9483I-5J0D1*
G1X11673Y9483D1*
G3X11669Y9479I0J-4D1*
G1X11669Y9345D1*
G2X11664Y9340I-5J0D1*
G1X11637Y9340D1*
G3X11633Y9336I0J-4D1*
G1X11633Y9139D1*
G3X11637Y9135I4J0D1*
G1X11664Y9135D1*
G2X11669Y9130I0J-5D1*
G1X11669Y9032D1*
G3X11673Y9028I4J0D1*
G1X11699Y9028D1*
G2X11704Y9023I0J-5D1*
G1X11704Y8961D1*
G3X11708Y8957I4J0D1*
G1X11735Y8957D1*
G2X11740Y8952I0J-5D1*
G1X11740Y8889D1*
G3X11744Y8885I4J0D1*
G1X11771Y8885D1*
G2X11776Y8880I0J-5D1*
G1X11776Y8854D1*
G3X11780Y8850I4J0D1*
G1X11807Y8850D1*
G2X11812Y8845I0J-5D1*
G1X11812Y8818D1*
G3X11816Y8814I4J0D1*
G1X11842Y8814D1*
G2X11847Y8809I0J-5D1*
G1X11847Y8782D1*
G3X11851Y8778I4J0D1*
G1X11878Y8778D1*
G2X11883Y8773I0J-5D1*
G1X11883Y8747D1*
G3X11887Y8743I4J0D1*
G1X11914Y8743D1*
G2X11919Y8738I0J-5D1*
G1X11919Y8711D1*
G3X11923Y8707I4J0D1*
G1X11949Y8707D1*
G2X11954Y8702I0J-5D1*
G1X11954Y8675D1*
G3X11958Y8671I4J0D1*
G1X12021Y8671D1*
G2X12026Y8666I0J-5D1*
G1X12026Y8639D1*
G3X12030Y8635I4J0D1*
G1X12057Y8635D1*
G2X12062Y8630I0J-5D1*
G1X12062Y8604D1*
G3X12066Y8600I4J0D1*
G1X12128Y8600D1*
G2X12133Y8595I0J-5D1*
G1X12133Y8568D1*
G3X12137Y8564I4J0D1*
G1X12199Y8564D1*
G2X12204Y8559I0J-5D1*
G1X12204Y8532D1*
G3X12208Y8528I4J0D1*
G1X12235Y8528D1*
G2X12240Y8523I0J-5D1*
G1X12240Y8488D1*
G2X12235Y8483I-5J0D1*
G1X12208Y8483D1*
G3X12204Y8479I0J-4D1*
G1X12204Y8452D1*
G2X12199Y8447I-5J0D1*
G1X12101Y8447D1*
G3X12097Y8443I0J-4D1*
G1X12097Y8416D1*
G2X12092Y8411I-5J0D1*
G1X11923Y8411D1*
G3X11919Y8407I0J-4D1*
G1X11919Y8380D1*
G2X11914Y8375I-5J0D1*
G1X11816Y8375D1*
G3X11812Y8371I0J-4D1*
G1X11812Y8345D1*
G2X11807Y8340I-5J0D1*
G1X11708Y8340D1*
G3X11704Y8336I0J-4D1*
G1X11704Y8309D1*
G2X11699Y8304I-5J0D1*
G1X11673Y8304D1*
G3X11669Y8300I0J-4D1*
G1X11669Y8273D1*
G2X11664Y8268I-5J0D1*
G1X11601Y8268D1*
G3X11597Y8264I0J-4D1*
G1X11597Y8238D1*
G2X11592Y8233I-5J0D1*
G1X11530Y8233D1*
G3X11526Y8229I0J-4D1*
G1X11526Y8202D1*
G2X11521Y8197I-5J0D1*
G1X11494Y8197D1*
G3X11490Y8193I0J-4D1*
G1X11490Y8166D1*
G2X11485Y8161I-5J0D1*
G1X11458Y8161D1*
G3X11454Y8157I0J-4D1*
G1X11454Y8095D1*
G2X11449Y8090I-5J0D1*
G1X11423Y8090D1*
G3X11419Y8086I0J-4D1*
G1X11419Y8059D1*
G2X11414Y8054I-5J0D1*
G1X11387Y8054D1*
G3X11383Y8050I0J-4D1*
G1X11383Y7988D1*
G2X11378Y7983I-5J0D1*
G1X11351Y7983D1*
G3X11347Y7979I0J-4D1*
G1X11347Y7845D1*
G2X11342Y7840I-5J0D1*
G1X11316Y7840D1*
G3X11312Y7836I0J-4D1*
G1X11312Y7568D1*
G3X11316Y7564I4J0D1*
G1X11342Y7564D1*
G2X11347Y7559I0J-5D1*
G1X11347Y7389D1*
G3X11351Y7385I4J0D1*
G1X11378Y7385D1*
G2X11383Y7380I0J-5D1*
G1X11383Y7318D1*
G3X11387Y7314I4J0D1*
G1X11414Y7314D1*
G2X11419Y7309I0J-5D1*
G1X11419Y7247D1*
G3X11423Y7243I4J0D1*
G1X11449Y7243D1*
G2X11454Y7238I0J-5D1*
G1X11454Y7175D1*
G3X11458Y7171I4J0D1*
G1X11485Y7171D1*
G2X11490Y7166I0J-5D1*
G1X11490Y7139D1*
G3X11494Y7135I4J0D1*
G1X11521Y7135D1*
G2X11526Y7130I0J-5D1*
G1X11526Y7068D1*
G3X11530Y7064I4J0D1*
G1X11557Y7064D1*
G2X11562Y7059I0J-5D1*
G1X11562Y7032D1*
G3X11566Y7028I4J0D1*
G1X11592Y7028D1*
G2X11597Y7023I0J-5D1*
G1X11597Y6997D1*
G3X11601Y6993I4J0D1*
G1X11628Y6993D1*
G2X11633Y6988I0J-5D1*
G1X11633Y6961D1*
G3X11637Y6957I4J0D1*
G1X11699Y6957D1*
G2X11704Y6952I0J-5D1*
G1X11704Y6925D1*
G3X11708Y6921I4J0D1*
G1X11735Y6921D1*
G2X11740Y6916I0J-5D1*
G1X11740Y6889D1*
G3X11744Y6885I4J0D1*
G1X11807Y6885D1*
G2X11812Y6880I0J-5D1*
G1X11812Y6854D1*
G3X11816Y6850I4J0D1*
G1X11878Y6850D1*
G2X11883Y6845I0J-5D1*
G1X11883Y6818D1*
G3X11887Y6814I4J0D1*
G1X11949Y6814D1*
G2X11954Y6809I0J-5D1*
G1X11954Y6782D1*
G3X11958Y6778I4J0D1*
G1X12057Y6778D1*
G2X12062Y6773I0J-5D1*
G1X12062Y6747D1*
G3X12066Y6743I4J0D1*
G1X12164Y6743D1*
G2X12169Y6738I0J-5D1*
G1X12169Y6711D1*
G3X12173Y6707I4J0D1*
G1X12378Y6707D1*
G2X12383Y6702I0J-5D1*
G1X12383Y6675D1*
G3X12387Y6671I4J0D1*
G1X12905Y6671D1*
G3X12909Y6675I0J4D1*
G1X12909Y6702D1*
G2X12914Y6707I5J0D1*
G1X13119Y6707D1*
G3X13123Y6711I0J4D1*
G1X13123Y6738D1*
G2X13128Y6743I5J0D1*
G1X13262Y6743D1*
G3X13266Y6747I0J4D1*
G1X13266Y6773D1*
G2X13271Y6778I5J0D1*
G1X13333Y6778D1*
G3X13337Y6782I0J4D1*
G1X13337Y6809D1*
G2X13342Y6814I5J0D1*
G1X13405Y6814D1*
G3X13409Y6818I0J4D1*
G1X13409Y6845D1*
G2X13414Y6850I5J0D1*
G1X13476Y6850D1*
G3X13480Y6854I0J4D1*
G1X13480Y6880D1*
G2X13485Y6885I5J0D1*
G1X13548Y6885D1*
G3X13552Y6889I0J4D1*
G1X13552Y6916D1*
G2X13557Y6921I5J0D1*
G1X13583Y6921D1*
G3X13587Y6925I0J4D1*
G1X13587Y6952D1*
G2X13592Y6957I5J0D1*
G1X13619Y6957D1*
G3X13623Y6961I0J4D1*
G1X13623Y6988D1*
G2X13628Y6993I5J0D1*
G1X13690Y6993D1*
G3X13694Y6997I0J4D1*
G1X13694Y7059D1*
G2X13699Y7064I5J0D1*
G1X13726Y7064D1*
G3X13730Y7068I0J4D1*
G1X13730Y7095D1*
G2X13735Y7100I5J0D1*
G1X13762Y7100D1*
G3X13766Y7104I0J4D1*
G1X13766Y7130D1*
G2X13771Y7135I5J0D1*
G1X13798Y7135D1*
G3X13802Y7139I0J4D1*
G1X13802Y7202D1*
G2X13807Y7207I5J0D1*
G1X13833Y7207D1*
G3X13837Y7211I0J4D1*
G1X13837Y7550D1*
G3X13833Y7554I-4J0D1*
G1X13807Y7554D1*
G2X13802Y7559I0J5D1*
G1X13802Y7586D1*
G3X13798Y7590I-4J0D1*
G1X13771Y7590D1*
G2X13766Y7595I0J5D1*
G1X13766Y7621D1*
G3X13762Y7625I-4J0D1*
G1X13735Y7625D1*
G2X13730Y7630I0J5D1*
G1X13730Y7657D1*
G3X13726Y7661I-4J0D1*
G1X13699Y7661D1*
G2X13694Y7666I0J5D1*
G1X13694Y7693D1*
G3X13690Y7697I-4J0D1*
G1X13664Y7697D1*
G2X13659Y7702I0J5D1*
G1X13659Y7729D1*
G3X13655Y7733I-4J0D1*
G1X13557Y7733D1*
G2X13552Y7738I0J5D1*
G1X13552Y7764D1*
G3X13548Y7768I-4J0D1*
G1X13485Y7768D1*
G2X13480Y7773I0J5D1*
G1X13480Y7800D1*
G3X13476Y7804I-4J0D1*
G1X13208Y7804D1*
G3X13204Y7800I0J-4D1*
G1X13204Y7747D1*
G3X13208Y7743I4J0D1*
G1X13235Y7743D1*
G2X13240Y7738I0J-5D1*
G1X13240Y7711D1*
G3X13244Y7707I4J0D1*
G1X13271Y7707D1*
G2X13276Y7702I0J-5D1*
G1X13276Y7675D1*
G3X13280Y7671I4J0D1*
G1X13307Y7671D1*
G2X13312Y7666I0J-5D1*
G1X13312Y7604D1*
G3X13316Y7600I4J0D1*
G1X13342Y7600D1*
G2X13347Y7595I0J-5D1*
G1X13347Y7488D1*
G2X13342Y7483I-5J0D1*
G1X13316Y7483D1*
G3X13312Y7479I0J-4D1*
G1X13312Y7380D1*
G2X13307Y7375I-5J0D1*
G1X13280Y7375D1*
G3X13276Y7371I0J-4D1*
G1X13276Y7309D1*
G2X13271Y7304I-5J0D1*
G1X13244Y7304D1*
G3X13240Y7300I0J-4D1*
G1X13240Y7273D1*
G2X13235Y7268I-5J0D1*
G1X13173Y7268D1*
G3X13169Y7264I0J-4D1*
G1X13169Y7238D1*
G2X13164Y7233I-5J0D1*
G1X13101Y7233D1*
G3X13097Y7229I0J-4D1*
G1X13097Y7202D1*
G2X13092Y7197I-5J0D1*
G1X13030Y7197D1*
G3X13026Y7193I0J-4D1*
G1X13026Y7166D1*
G2X13021Y7161I-5J0D1*
G1X12887Y7161D1*
G3X12883Y7157I0J-4D1*
G1X12883Y7130D1*
G2X12878Y7125I-5J0D1*
G1X12378Y7125D1*
G2X12373Y7130I0J5D1*
G1X12373Y7157D1*
G3X12369Y7161I-4J0D1*
G1X12235Y7161D1*
G2X12230Y7166I0J5D1*
G1X12230Y7193D1*
G3X12226Y7197I-4J0D1*
G1X12128Y7197D1*
G2X12123Y7202I0J5D1*
G1X12123Y7229D1*
G3X12119Y7233I-4J0D1*
G1X12057Y7233D1*
G2X12052Y7238I0J5D1*
G1X12052Y7264D1*
G3X12048Y7268I-4J0D1*
G1X12021Y7268D1*
G2X12016Y7273I0J5D1*
G1X12016Y7300D1*
G3X12012Y7304I-4J0D1*
G1X11985Y7304D1*
G2X11980Y7309I0J5D1*
G1X11980Y7336D1*
G3X11976Y7340I-4J0D1*
G1X11949Y7340D1*
G2X11944Y7345I0J5D1*
G1X11944Y7371D1*
G3X11940Y7375I-4J0D1*
G1X11914Y7375D1*
G2X11909Y7380I0J5D1*
G1X11909Y7443D1*
G3X11905Y7447I-4J0D1*
G1X11878Y7447D1*
G2X11873Y7452I0J5D1*
G1X11873Y7773D1*
G2X11878Y7778I5J0D1*
G1X11905Y7778D1*
G3X11909Y7782I0J4D1*
G1X11909Y7845D1*
G2X11914Y7850I5J0D1*
G1X11940Y7850D1*
G3X11944Y7854I0J4D1*
G1X11944Y7916D1*
G2X11949Y7921I5J0D1*
G1X11976Y7921D1*
G3X11980Y7925I0J4D1*
G1X11980Y7952D1*
G2X11985Y7957I5J0D1*
G1X12012Y7957D1*
G3X12016Y7961I0J4D1*
G1X12016Y7988D1*
G2X12021Y7993I5J0D1*
G1X12048Y7993D1*
G3X12052Y7997I0J4D1*
G1X12052Y8023D1*
G2X12057Y8028I5J0D1*
G1X12083Y8028D1*
G3X12087Y8032I0J4D1*
G1X12087Y8059D1*
G2X12092Y8064I5J0D1*
G1X12119Y8064D1*
G3X12123Y8068I0J4D1*
G1X12123Y8095D1*
G2X12128Y8100I5J0D1*
G1X12190Y8100D1*
G3X12194Y8104I0J4D1*
G1X12194Y8130D1*
G2X12199Y8135I5J0D1*
G1X12262Y8135D1*
G3X12266Y8139I0J4D1*
G1X12266Y8166D1*
G2X12271Y8171I5J0D1*
G1X12369Y8171D1*
G3X12373Y8175I0J4D1*
G1X12373Y8202D1*
G2X12378Y8207I5J0D1*
G1X12512Y8207D1*
G3X12516Y8211I0J4D1*
G1X12516Y8238D1*
G2X12521Y8243I5J0D1*
G1X12655Y8243D1*
G3X12659Y8247I0J4D1*
G1X12659Y8273D1*
G2X12664Y8278I5J0D1*
G1X12726Y8278D1*
G3X12730Y8282I0J4D1*
G1X12730Y8309D1*
G2X12735Y8314I5J0D1*
G1X12762Y8314D1*
G3X12766Y8318I0J4D1*
G1X12766Y8345D1*
G2X12771Y8350I5J0D1*
G1X12798Y8350D1*
G3X12802Y8354I0J4D1*
G1X12802Y8380D1*
G2X12807Y8385I5J0D1*
G1X12833Y8385D1*
G3X12837Y8389I0J4D1*
G1X12837Y8452D1*
G2X12842Y8457I5J0D1*
G1X12869Y8457D1*
G3X12873Y8461I0J4D1*
G1X12873Y8550D1*
G3X12869Y8554I-4J0D1*
G1X12842Y8554D1*
G2X12837Y8559I0J5D1*
G1X12837Y8621D1*
G3X12833Y8625I-4J0D1*
G1X12771Y8625D1*
G2X12766Y8630I0J5D1*
G1X12766Y8657D1*
G3X12762Y8661I-4J0D1*
G1X12557Y8661D1*
G2X12552Y8666I0J5D1*
G1X12552Y8693D1*
G3X12548Y8697I-4J0D1*
G1X12449Y8697D1*
G2X12444Y8702I0J5D1*
G1X12444Y8729D1*
G3X12440Y8733I-4J0D1*
G1X12414Y8733D1*
G2X12409Y8738I0J5D1*
G1X12409Y8764D1*
G3X12405Y8768I-4J0D1*
G1X12342Y8768D1*
G2X12337Y8773I0J5D1*
G1X12337Y8800D1*
G3X12333Y8804I-4J0D1*
G1X12307Y8804D1*
G2X12302Y8809I0J5D1*
G1X12302Y8836D1*
G3X12298Y8840I-4J0D1*
G1X12271Y8840D1*
G2X12266Y8845I0J5D1*
G1X12266Y8907D1*
G3X12262Y8911I-4J0D1*
G1X12235Y8911D1*
G2X12230Y8916I0J5D1*
G1X12230Y8979D1*
G3X12226Y8983I-4J0D1*
G1X12199Y8983D1*
G2X12194Y8988I0J5D1*
G1X12194Y9086D1*
G3X12190Y9090I-4J0D1*
G1X12164Y9090D1*
G2X12159Y9095I0J5D1*
G1X12159Y9309D1*
G2X12164Y9314I5J0D1*
G1X12190Y9314D1*
G3X12194Y9318I0J4D1*
G1X12194Y9416D1*
G2X12199Y9421I5J0D1*
G1X12226Y9421D1*
G3X12230Y9425I0J4D1*
G1X12230Y9488D1*
G2X12235Y9493I5J0D1*
G1X12262Y9493D1*
G3X12266Y9497I0J4D1*
G1X12266Y9523D1*
G2X12271Y9528I5J0D1*
G1X12298Y9528D1*
G3X12302Y9532I0J4D1*
G1X12302Y9559D1*
G2X12307Y9564I5J0D1*
G1X12333Y9564D1*
G3X12337Y9568I0J4D1*
G1X12337Y9595D1*
G2X12342Y9600I5J0D1*
G1X12369Y9600D1*
G3X12373Y9604I0J4D1*
G1X12373Y9630D1*
G2X12378Y9635I5J0D1*
G1X12405Y9635D1*
G3X12409Y9639I0J4D1*
G1X12409Y9666D1*
G2X12414Y9671I5J0D1*
G1X12440Y9671D1*
G3X12444Y9675I0J4D1*
G1X12444Y9702D1*
G2X12449Y9707I5J0D1*
G1X12512Y9707D1*
G3X12516Y9711I0J4D1*
G1X12516Y9738D1*
G2X12521Y9743I5J0D1*
G1X12619Y9743D1*
G3X12623Y9747I0J4D1*
G1X12623Y9773D1*
G2X12628Y9778I5J0D1*
G1X12914Y9778D1*
G2X12919Y9773I0J-5D1*
G1X12919Y9747D1*
G3X12923Y9743I4J0D1*
G1X13021Y9743D1*
G2X13026Y9738I0J-5D1*
G1X13026Y9711D1*
G3X13030Y9707I4J0D1*
G1X13092Y9707D1*
G2X13097Y9702I0J-5D1*
G1X13097Y9675D1*
G3X13101Y9671I4J0D1*
G1X13128Y9671D1*
G2X13133Y9666I0J-5D1*
G1X13133Y9639D1*
G3X13137Y9635I4J0D1*
G1X13164Y9635D1*
G2X13169Y9630I0J-5D1*
G1X13169Y9604D1*
G3X13173Y9600I4J0D1*
G1X13199Y9600D1*
G2X13204Y9595I0J-5D1*
G1X13204Y9568D1*
G3X13208Y9564I4J0D1*
G1X13235Y9564D1*
G2X13240Y9559I0J-5D1*
G1X13240Y9497D1*
G3X13244Y9493I4J0D1*
G1X13271Y9493D1*
G2X13276Y9488I0J-5D1*
G1X13276Y9166D1*
G2X13271Y9161I-5J0D1*
G1X13244Y9161D1*
G3X13240Y9157I0J-4D1*
G1X13240Y9059D1*
G2X13235Y9054I-5J0D1*
G1X13208Y9054D1*
G3X13204Y9050I0J-4D1*
G1X13204Y9023D1*
G2X13199Y9018I-5J0D1*
G1X13173Y9018D1*
G3X13169Y9014I0J-4D1*
G1X13169Y8988D1*
G2X13164Y8983I-5J0D1*
G1X13137Y8983D1*
G3X13133Y8979I0J-4D1*
G1X13133Y8952D1*
G2X13128Y8947I-5J0D1*
G1X13101Y8947D1*
G3X13097Y8943I0J-4D1*
G1X13097Y8916D1*
G2X13092Y8911I-5J0D1*
G1X13066Y8911D1*
G3X13062Y8907I0J-4D1*
G1X13062Y8880D1*
G2X13057Y8875I-5J0D1*
G1X12994Y8875D1*
G3X12990Y8871I0J-4D1*
G1X12990Y8845D1*
G2X12985Y8840I-5J0D1*
G1X12958Y8840D1*
G3X12954Y8836I0J-4D1*
G1X12954Y8809D1*
G2X12949Y8804I-5J0D1*
G1X12923Y8804D1*
G3X12919Y8800I0J-4D1*
G1X12919Y8639D1*
G3X12923Y8635I4J0D1*
G1X12949Y8635D1*
G2X12954Y8630I0J-5D1*
G1X12954Y8604D1*
G3X12958Y8600I4J0D1*
G1X13021Y8600D1*
G2X13026Y8595I0J-5D1*
G1X13026Y8568D1*
G3X13030Y8564I4J0D1*
G1X13226Y8564D1*
G3X13230Y8568I0J4D1*
G1X13230Y8595D1*
G2X13235Y8600I5J0D1*
G1X13333Y8600D1*
G3X13337Y8604I0J4D1*
G1X13337Y8630D1*
G2X13342Y8635I5J0D1*
G1X13405Y8635D1*
G3X13409Y8639I0J4D1*
G1X13409Y8666D1*
G2X13414Y8671I5J0D1*
G1X13440Y8671D1*
G3X13444Y8675I0J4D1*
G1X13444Y8702D1*
G2X13449Y8707I5J0D1*
G1X13512Y8707D1*
G3X13516Y8711I0J4D1*
G1X13516Y8738D1*
G2X13521Y8743I5J0D1*
G1X13548Y8743D1*
G3X13552Y8747I0J4D1*
G1X13552Y8773D1*
G2X13557Y8778I5J0D1*
G1X13583Y8778D1*
G3X13587Y8782I0J4D1*
G1X13587Y8809D1*
G2X13592Y8814I5J0D1*
G1X13619Y8814D1*
G3X13623Y8818I0J4D1*
G1X13623Y8845D1*
G2X13628Y8850I5J0D1*
G1X13655Y8850D1*
G3X13659Y8854I0J4D1*
G1X13659Y8880D1*
G2X13664Y8885I5J0D1*
G1X13690Y8885D1*
G3X13694Y8889I0J4D1*
G1X13694Y8952D1*
G2X13699Y8957I5J0D1*
G1X13726Y8957D1*
G3X13730Y8961I0J4D1*
G1X13730Y9059D1*
G2X13735Y9064I5J0D1*
G1X13762Y9064D1*
G3X13766Y9068I0J4D1*
G1X13766Y9514D1*
G3X13762Y9518I-4J0D1*
G1X13735Y9518D1*
G2X13730Y9523I0J5D1*
G1X13730Y9621D1*
G3X13726Y9625I-4J0D1*
G1X13699Y9625D1*
G2X13694Y9630I0J5D1*
G1X13694Y9693D1*
G3X13690Y9697I-4J0D1*
G1X13664Y9697D1*
G2X13659Y9702I0J5D1*
G1X13659Y9764D1*
G3X13655Y9768I-4J0D1*
G1X13628Y9768D1*
G2X13623Y9773I0J5D1*
G1X13623Y9800D1*
G3X13619Y9804I-4J0D1*
G1X13592Y9804D1*
G2X13587Y9809I0J5D1*
G1X13587Y9836D1*
G3X13583Y9840I-4J0D1*
G1X13557Y9840D1*
G2X13552Y9845I0J5D1*
G1X13552Y9907D1*
G3X13548Y9911I-4J0D1*
G1X13485Y9911D1*
G2X13480Y9916I0J5D1*
G1X13480Y9943D1*
G3X13476Y9947I-4J0D1*
G1X13449Y9947D1*
G2X13444Y9952I0J5D1*
G1X13444Y9979D1*
G3X13440Y9983I-4J0D1*
G1X13414Y9983D1*
G2X13409Y9988I0J5D1*
G1X13409Y10014D1*
G3X13405Y10018I-4J0D1*
G1X13342Y10018D1*
G2X13337Y10023I0J5D1*
G1X13337Y10050D1*
G3X13333Y10054I-4J0D1*
G1X13271Y10054D1*
G2X13266Y10059I0J5D1*
G1X13266Y10086D1*
G3X13262Y10090I-4J0D1*
G1X13164Y10090D1*
G2X13159Y10095I0J5D1*
G1X13159Y10121D1*
G3X13155Y10125I-4J0D1*
G1X13021Y10125D1*
G2X13016Y10130I0J5D1*
G1X13016Y10157D1*
G3X13012Y10161I-4J0D1*
G1X11280Y10161D1*
G3X11276Y10157I0J-4D1*
G1X11276Y10068D1*
G37*
G36*
G1X14097Y8354D2*
G3X14101Y8350I4J0D1*
G1X15869Y8350D1*
G3X15873Y8354I0J4D1*
G1X15873Y8380D1*
G2X15878Y8385I5J0D1*
G1X15976Y8385D1*
G3X15980Y8389I0J4D1*
G1X15980Y8416D1*
G2X15985Y8421I5J0D1*
G1X16048Y8421D1*
G3X16052Y8425I0J4D1*
G1X16052Y8488D1*
G2X16057Y8493I5J0D1*
G1X16083Y8493D1*
G3X16087Y8497I0J4D1*
G1X16087Y9005D1*
G1X15669Y9005D1*
G1X15669Y8880D1*
G2X15664Y8875I-5J0D1*
G1X15637Y8875D1*
G3X15633Y8871I0J-4D1*
G1X15633Y8809D1*
G2X15628Y8804I-5J0D1*
G1X14735Y8804D1*
G2X14730Y8809I0J5D1*
G1X14730Y9005D1*
G1X14097Y9005D1*
G1X14097Y8354D1*
G37*
G36*
G1X14097Y9005D2*
G1X14730Y9005D1*
G1X14730Y9095D1*
G2X14735Y9100I5J0D1*
G1X14762Y9100D1*
G3X14766Y9104I0J4D1*
G1X14766Y9130D1*
G2X14771Y9135I5J0D1*
G1X14798Y9135D1*
G3X14802Y9139I0J4D1*
G1X14802Y9166D1*
G2X14807Y9171I5J0D1*
G1X14869Y9171D1*
G3X14873Y9175I0J4D1*
G1X14873Y9202D1*
G2X14878Y9207I5J0D1*
G1X15592Y9207D1*
G2X15597Y9202I0J-5D1*
G1X15597Y9175D1*
G3X15601Y9171I4J0D1*
G1X15628Y9171D1*
G2X15633Y9166I0J-5D1*
G1X15633Y9139D1*
G3X15637Y9135I4J0D1*
G1X15664Y9135D1*
G2X15669Y9130I0J-5D1*
G1X15669Y9005D1*
G1X16087Y9005D1*
G1X16087Y9443D1*
G3X16083Y9447I-4J0D1*
G1X16057Y9447D1*
G2X16052Y9452I0J5D1*
G1X16052Y9479D1*
G3X16048Y9483I-4J0D1*
G1X15985Y9483D1*
G2X15980Y9488I0J5D1*
G1X15980Y9514D1*
G3X15976Y9518I-4J0D1*
G1X14735Y9518D1*
G2X14730Y9523I0J5D1*
G1X14730Y9550D1*
G3X14726Y9554I-4J0D1*
G1X14699Y9554D1*
G2X14694Y9559I0J5D1*
G1X14694Y9666D1*
G2X14699Y9671I5J0D1*
G1X14726Y9671D1*
G3X14730Y9675I0J4D1*
G1X14730Y9738D1*
G2X14735Y9743I5J0D1*
G1X14762Y9743D1*
G3X14766Y9747I0J4D1*
G1X14766Y9773D1*
G2X14771Y9778I5J0D1*
G1X16012Y9778D1*
G3X16016Y9782I0J4D1*
G1X16016Y10086D1*
G3X16012Y10090I-4J0D1*
G1X14351Y10090D1*
G3X14347Y10086I0J-4D1*
G1X14347Y10059D1*
G2X14342Y10054I-5J0D1*
G1X14280Y10054D1*
G3X14276Y10050I0J-4D1*
G1X14276Y10023D1*
G2X14271Y10018I-5J0D1*
G1X14208Y10018D1*
G3X14204Y10014I0J-4D1*
G1X14204Y9988D1*
G2X14199Y9983I-5J0D1*
G1X14173Y9983D1*
G3X14169Y9979I0J-4D1*
G1X14169Y9916D1*
G2X14164Y9911I-5J0D1*
G1X14137Y9911D1*
G3X14133Y9907I0J-4D1*
G1X14133Y9845D1*
G2X14128Y9840I-5J0D1*
G1X14101Y9840D1*
G3X14097Y9836I0J-4D1*
G1X14097Y9005D1*
G37*
G36*
G1X15419Y7639D2*
G3X15423Y7635I4J0D1*
G1X15449Y7635D1*
G2X15454Y7630I0J-5D1*
G1X15454Y7604D1*
G3X15458Y7600I4J0D1*
G1X15485Y7600D1*
G2X15490Y7595I0J-5D1*
G1X15490Y7532D1*
G3X15494Y7528I4J0D1*
G1X15521Y7528D1*
G2X15526Y7523I0J-5D1*
G1X15526Y7461D1*
G3X15530Y7457I4J0D1*
G1X15557Y7457D1*
G2X15562Y7452I0J-5D1*
G1X15562Y7425D1*
G3X15566Y7421I4J0D1*
G1X15592Y7421D1*
G2X15597Y7416I0J-5D1*
G1X15597Y7354D1*
G3X15601Y7350I4J0D1*
G1X15628Y7350D1*
G2X15633Y7345I0J-5D1*
G1X15633Y7282D1*
G3X15637Y7278I4J0D1*
G1X15664Y7278D1*
G2X15669Y7273I0J-5D1*
G1X15669Y7247D1*
G3X15673Y7243I4J0D1*
G1X15699Y7243D1*
G2X15704Y7238I0J-5D1*
G1X15704Y7175D1*
G3X15708Y7171I4J0D1*
G1X16048Y7171D1*
G3X16052Y7175I0J4D1*
G1X16052Y7202D1*
G2X16057Y7207I5J0D1*
G1X16333Y7207D1*
G3X16337Y7211I0J4D1*
G1X16337Y7238D1*
G2X16342Y7243I5J0D1*
G1X16440Y7243D1*
G3X16444Y7247I0J4D1*
G1X16444Y7273D1*
G2X16449Y7278I5J0D1*
G1X16548Y7278D1*
G3X16552Y7282I0J4D1*
G1X16552Y7309D1*
G2X16557Y7314I5J0D1*
G1X16619Y7314D1*
G3X16623Y7318I0J4D1*
G1X16623Y7345D1*
G2X16628Y7350I5J0D1*
G1X16655Y7350D1*
G3X16659Y7354I0J4D1*
G1X16659Y7380D1*
G2X16664Y7385I5J0D1*
G1X16726Y7385D1*
G3X16730Y7389I0J4D1*
G1X16730Y7416D1*
G2X16735Y7421I5J0D1*
G1X16762Y7421D1*
G3X16766Y7425I0J4D1*
G1X16766Y7452D1*
G2X16771Y7457I5J0D1*
G1X16798Y7457D1*
G3X16802Y7461I0J4D1*
G1X16802Y7488D1*
G2X16807Y7493I5J0D1*
G1X16833Y7493D1*
G3X16837Y7497I0J4D1*
G1X16837Y7523D1*
G2X16842Y7528I5J0D1*
G1X16869Y7528D1*
G3X16873Y7532I0J4D1*
G1X16873Y7595D1*
G2X16878Y7600I5J0D1*
G1X16905Y7600D1*
G3X16909Y7604I0J4D1*
G1X16909Y7630D1*
G2X16914Y7635I5J0D1*
G1X16940Y7635D1*
G3X16944Y7639I0J4D1*
G1X16944Y7702D1*
G2X16949Y7707I5J0D1*
G1X16976Y7707D1*
G3X16980Y7711I0J4D1*
G1X16980Y7738D1*
G2X16985Y7743I5J0D1*
G1X17012Y7743D1*
G3X17016Y7747I0J4D1*
G1X17016Y7809D1*
G2X17021Y7814I5J0D1*
G1X17048Y7814D1*
G3X17052Y7818I0J4D1*
G1X17052Y7845D1*
G2X17057Y7850I5J0D1*
G1X17083Y7850D1*
G3X17087Y7854I0J4D1*
G1X17087Y7916D1*
G2X17092Y7921I5J0D1*
G1X17119Y7921D1*
G3X17123Y7925I0J4D1*
G1X17123Y7988D1*
G2X17128Y7993I5J0D1*
G1X17155Y7993D1*
G3X17159Y7997I0J4D1*
G1X17159Y8023D1*
G2X17164Y8028I5J0D1*
G1X17190Y8028D1*
G3X17194Y8032I0J4D1*
G1X17194Y8095D1*
G2X17199Y8100I5J0D1*
G1X17226Y8100D1*
G3X17230Y8104I0J4D1*
G1X17230Y8130D1*
G2X17235Y8135I5J0D1*
G1X17262Y8135D1*
G3X17266Y8139I0J4D1*
G1X17266Y8202D1*
G2X17271Y8207I5J0D1*
G1X17298Y8207D1*
G3X17302Y8211I0J4D1*
G1X17302Y8273D1*
G2X17307Y8278I5J0D1*
G1X17333Y8278D1*
G3X17337Y8282I0J4D1*
G1X17337Y8309D1*
G2X17342Y8314I5J0D1*
G1X17369Y8314D1*
G3X17373Y8318I0J4D1*
G1X17373Y8380D1*
G2X17378Y8385I5J0D1*
G1X17405Y8385D1*
G3X17409Y8389I0J4D1*
G1X17409Y8452D1*
G2X17414Y8457I5J0D1*
G1X17440Y8457D1*
G3X17444Y8461I0J4D1*
G1X17444Y8523D1*
G2X17449Y8528I5J0D1*
G1X17476Y8528D1*
G3X17480Y8532I0J4D1*
G1X17480Y8559D1*
G2X17485Y8564I5J0D1*
G1X17512Y8564D1*
G3X17516Y8568I0J4D1*
G1X17516Y8630D1*
G2X17521Y8635I5J0D1*
G1X17548Y8635D1*
G3X17552Y8639I0J4D1*
G1X17552Y8666D1*
G2X17557Y8671I5J0D1*
G1X17583Y8671D1*
G3X17587Y8675I0J4D1*
G1X17587Y8702D1*
G2X17592Y8707I5J0D1*
G1X17619Y8707D1*
G3X17623Y8711I0J4D1*
G1X17623Y8738D1*
G2X17628Y8743I5J0D1*
G1X17655Y8743D1*
G3X17659Y8747I0J4D1*
G1X17659Y8773D1*
G2X17664Y8778I5J0D1*
G1X17690Y8778D1*
G3X17694Y8782I0J4D1*
G1X17694Y8809D1*
G2X17699Y8814I5J0D1*
G1X17726Y8814D1*
G3X17730Y8818I0J4D1*
G1X17730Y8845D1*
G2X17735Y8850I5J0D1*
G1X17798Y8850D1*
G3X17802Y8854I0J4D1*
G1X17802Y8880D1*
G2X17807Y8885I5J0D1*
G1X17833Y8885D1*
G3X17837Y8889I0J4D1*
G1X17837Y8916D1*
G2X17842Y8921I5J0D1*
G1X17905Y8921D1*
G3X17909Y8925I0J4D1*
G1X17909Y8952D1*
G2X17914Y8957I5J0D1*
G1X18012Y8957D1*
G3X18016Y8961I0J4D1*
G1X18016Y8988D1*
G2X18021Y8993I5J0D1*
G1X18119Y8993D1*
G3X18123Y8997I0J4D1*
G1X18123Y9023D1*
G2X18128Y9028I5J0D1*
G1X18226Y9028D1*
G3X18230Y9032I0J4D1*
G1X18230Y9059D1*
G2X18235Y9064I5J0D1*
G1X18262Y9064D1*
G3X18266Y9068I0J4D1*
G1X18266Y9407D1*
G3X18262Y9411I-4J0D1*
G1X18235Y9411D1*
G2X18230Y9416I0J5D1*
G1X18230Y9443D1*
G3X18226Y9447I-4J0D1*
G1X17449Y9447D1*
G2X17444Y9452I0J5D1*
G1X17444Y9479D1*
G3X17440Y9483I-4J0D1*
G1X17342Y9483D1*
G2X17337Y9488I0J5D1*
G1X17337Y9514D1*
G3X17333Y9518I-4J0D1*
G1X17271Y9518D1*
G2X17266Y9523I0J5D1*
G1X17266Y9550D1*
G3X17262Y9554I-4J0D1*
G1X17199Y9554D1*
G2X17194Y9559I0J5D1*
G1X17194Y9586D1*
G3X17190Y9590I-4J0D1*
G1X17164Y9590D1*
G2X17159Y9595I0J5D1*
G1X17159Y9621D1*
G3X17155Y9625I-4J0D1*
G1X17128Y9625D1*
G2X17123Y9630I0J5D1*
G1X17123Y9693D1*
G3X17119Y9697I-4J0D1*
G1X17092Y9697D1*
G2X17087Y9702I0J5D1*
G1X17087Y9764D1*
G3X17083Y9768I-4J0D1*
G1X17057Y9768D1*
G2X17052Y9773I0J5D1*
G1X17052Y9871D1*
G3X17048Y9875I-4J0D1*
G1X17021Y9875D1*
G2X17016Y9880I0J5D1*
G1X17016Y10023D1*
G2X17021Y10028I5J0D1*
G1X17048Y10028D1*
G3X17052Y10032I0J4D1*
G1X17052Y10166D1*
G2X17057Y10171I5J0D1*
G1X17083Y10171D1*
G3X17087Y10175I0J4D1*
G1X17087Y10202D1*
G2X17092Y10207I5J0D1*
G1X17119Y10207D1*
G3X17123Y10211I0J4D1*
G1X17123Y10273D1*
G2X17128Y10278I5J0D1*
G1X17190Y10278D1*
G3X17194Y10282I0J4D1*
G1X17194Y10309D1*
G2X17199Y10314I5J0D1*
G1X17226Y10314D1*
G3X17230Y10318I0J4D1*
G1X17230Y10345D1*
G2X17235Y10350I5J0D1*
G1X17369Y10350D1*
G3X17373Y10354I0J4D1*
G1X17373Y10380D1*
G2X17378Y10385I5J0D1*
G1X18378Y10385D1*
G2X18383Y10380I0J-5D1*
G1X18383Y10354D1*
G3X18387Y10350I4J0D1*
G1X18414Y10350D1*
G2X18419Y10345I0J-5D1*
G1X18419Y9416D1*
G2X18414Y9411I-5J0D1*
G1X18387Y9411D1*
G3X18383Y9407I0J-4D1*
G1X18383Y7747D1*
G3X18387Y7743I4J0D1*
G1X18414Y7743D1*
G2X18419Y7738I0J-5D1*
G1X18419Y7711D1*
G3X18423Y7707I4J0D1*
G1X18485Y7707D1*
G2X18490Y7702I0J-5D1*
G1X18490Y7675D1*
G3X18494Y7671I4J0D1*
G1X18592Y7671D1*
G2X18597Y7666I0J-5D1*
G1X18597Y7639D1*
G3X18601Y7635I4J0D1*
G1X18699Y7635D1*
G2X18704Y7630I0J-5D1*
G1X18704Y7604D1*
G3X18708Y7600I4J0D1*
G1X18807Y7600D1*
G2X18812Y7595I0J-5D1*
G1X18812Y7568D1*
G3X18816Y7564I4J0D1*
G1X18914Y7564D1*
G2X18919Y7559I0J-5D1*
G1X18919Y7532D1*
G3X18923Y7528I4J0D1*
G1X18976Y7528D1*
G3X18980Y7532I0J4D1*
G1X18980Y10345D1*
G2X18985Y10350I5J0D1*
G1X19012Y10350D1*
G3X19016Y10354I0J4D1*
G1X19016Y10380D1*
G2X19021Y10385I5J0D1*
G1X19798Y10385D1*
G3X19802Y10389I0J4D1*
G1X19802Y10479D1*
G3X19798Y10483I-4J0D1*
G1X19771Y10483D1*
G2X19766Y10488I0J5D1*
G1X19766Y10514D1*
G3X19762Y10518I-4J0D1*
G1X19735Y10518D1*
G2X19730Y10523I0J5D1*
G1X19730Y10550D1*
G3X19726Y10554I-4J0D1*
G1X19699Y10554D1*
G2X19694Y10559I0J5D1*
G1X19694Y10586D1*
G3X19690Y10590I-4J0D1*
G1X19664Y10590D1*
G2X19659Y10595I0J5D1*
G1X19659Y10621D1*
G3X19655Y10625I-4J0D1*
G1X19628Y10625D1*
G2X19623Y10630I0J5D1*
G1X19623Y10657D1*
G3X19619Y10661I-4J0D1*
G1X19592Y10661D1*
G2X19587Y10666I0J5D1*
G1X19587Y10729D1*
G3X19583Y10733I-4J0D1*
G1X19557Y10733D1*
G2X19552Y10738I0J5D1*
G1X19552Y10764D1*
G3X19548Y10768I-4J0D1*
G1X19521Y10768D1*
G2X19516Y10773I0J5D1*
G1X19516Y10800D1*
G3X19512Y10804I-4J0D1*
G1X19485Y10804D1*
G2X19480Y10809I0J5D1*
G1X19480Y10836D1*
G3X19476Y10840I-4J0D1*
G1X17173Y10840D1*
G3X17169Y10836I0J-4D1*
G1X17169Y10809D1*
G2X17164Y10804I-5J0D1*
G1X17066Y10804D1*
G3X17062Y10800I0J-4D1*
G1X17062Y10773D1*
G2X17057Y10768I-5J0D1*
G1X16958Y10768D1*
G3X16954Y10764I0J-4D1*
G1X16954Y10738D1*
G2X16949Y10733I-5J0D1*
G1X16887Y10733D1*
G3X16883Y10729I0J-4D1*
G1X16883Y10702D1*
G2X16878Y10697I-5J0D1*
G1X16851Y10697D1*
G3X16847Y10693I0J-4D1*
G1X16847Y10666D1*
G2X16842Y10661I-5J0D1*
G1X16780Y10661D1*
G3X16776Y10657I0J-4D1*
G1X16776Y10630D1*
G2X16771Y10625I-5J0D1*
G1X16744Y10625D1*
G3X16740Y10621I0J-4D1*
G1X16740Y10595D1*
G2X16735Y10590I-5J0D1*
G1X16708Y10590D1*
G3X16704Y10586I0J-4D1*
G1X16704Y10559D1*
G2X16699Y10554I-5J0D1*
G1X16673Y10554D1*
G3X16669Y10550I0J-4D1*
G1X16669Y10488D1*
G2X16664Y10483I-5J0D1*
G1X16637Y10483D1*
G3X16633Y10479I0J-4D1*
G1X16633Y10452D1*
G2X16628Y10447I-5J0D1*
G1X16601Y10447D1*
G3X16597Y10443I0J-4D1*
G1X16597Y10380D1*
G2X16592Y10375I-5J0D1*
G1X16566Y10375D1*
G3X16562Y10371I0J-4D1*
G1X16562Y10273D1*
G2X16557Y10268I-5J0D1*
G1X16530Y10268D1*
G3X16526Y10264I0J-4D1*
G1X16526Y9711D1*
G3X16530Y9707I4J0D1*
G1X16557Y9707D1*
G2X16562Y9702I0J-5D1*
G1X16562Y9532D1*
G3X16566Y9528I4J0D1*
G1X16592Y9528D1*
G2X16597Y9523I0J-5D1*
G1X16597Y9425D1*
G3X16601Y9421I4J0D1*
G1X16628Y9421D1*
G2X16633Y9416I0J-5D1*
G1X16633Y9354D1*
G3X16637Y9350I4J0D1*
G1X16664Y9350D1*
G2X16669Y9345I0J-5D1*
G1X16669Y9318D1*
G3X16673Y9314I4J0D1*
G1X16699Y9314D1*
G2X16704Y9309I0J-5D1*
G1X16704Y9247D1*
G3X16708Y9243I4J0D1*
G1X16735Y9243D1*
G2X16740Y9238I0J-5D1*
G1X16740Y9211D1*
G3X16744Y9207I4J0D1*
G1X16771Y9207D1*
G2X16776Y9202I0J-5D1*
G1X16776Y9175D1*
G3X16780Y9171I4J0D1*
G1X16807Y9171D1*
G2X16812Y9166I0J-5D1*
G1X16812Y9139D1*
G3X16816Y9135I4J0D1*
G1X16878Y9135D1*
G2X16883Y9130I0J-5D1*
G1X16883Y9104D1*
G3X16887Y9100I4J0D1*
G1X16949Y9100D1*
G2X16954Y9095I0J-5D1*
G1X16954Y9068D1*
G3X16958Y9064I4J0D1*
G1X17057Y9064D1*
G2X17062Y9059I0J-5D1*
G1X17062Y8988D1*
G2X17057Y8983I-5J0D1*
G1X17030Y8983D1*
G3X17026Y8979I0J-4D1*
G1X17026Y8952D1*
G2X17021Y8947I-5J0D1*
G1X16994Y8947D1*
G3X16990Y8943I0J-4D1*
G1X16990Y8916D1*
G2X16985Y8911I-5J0D1*
G1X16958Y8911D1*
G3X16954Y8907I0J-4D1*
G1X16954Y8880D1*
G2X16949Y8875I-5J0D1*
G1X16923Y8875D1*
G3X16919Y8871I0J-4D1*
G1X16919Y8845D1*
G2X16914Y8840I-5J0D1*
G1X16887Y8840D1*
G3X16883Y8836I0J-4D1*
G1X16883Y8773D1*
G2X16878Y8768I-5J0D1*
G1X16851Y8768D1*
G3X16847Y8764I0J-4D1*
G1X16847Y8738D1*
G2X16842Y8733I-5J0D1*
G1X16816Y8733D1*
G3X16812Y8729I0J-4D1*
G1X16812Y8666D1*
G2X16807Y8661I-5J0D1*
G1X16780Y8661D1*
G3X16776Y8657I0J-4D1*
G1X16776Y8595D1*
G2X16771Y8590I-5J0D1*
G1X16744Y8590D1*
G3X16740Y8586I0J-4D1*
G1X16740Y8523D1*
G2X16735Y8518I-5J0D1*
G1X16708Y8518D1*
G3X16704Y8514I0J-4D1*
G1X16704Y8452D1*
G2X16699Y8447I-5J0D1*
G1X16673Y8447D1*
G3X16669Y8443I0J-4D1*
G1X16669Y8380D1*
G2X16664Y8375I-5J0D1*
G1X16637Y8375D1*
G3X16633Y8371I0J-4D1*
G1X16633Y8309D1*
G2X16628Y8304I-5J0D1*
G1X16601Y8304D1*
G3X16597Y8300I0J-4D1*
G1X16597Y8238D1*
G2X16592Y8233I-5J0D1*
G1X16566Y8233D1*
G3X16562Y8229I0J-4D1*
G1X16562Y8166D1*
G2X16557Y8161I-5J0D1*
G1X16530Y8161D1*
G3X16526Y8157I0J-4D1*
G1X16526Y8130D1*
G2X16521Y8125I-5J0D1*
G1X16494Y8125D1*
G3X16490Y8121I0J-4D1*
G1X16490Y8059D1*
G2X16485Y8054I-5J0D1*
G1X16458Y8054D1*
G3X16454Y8050I0J-4D1*
G1X16454Y8023D1*
G2X16449Y8018I-5J0D1*
G1X16423Y8018D1*
G3X16419Y8014I0J-4D1*
G1X16419Y7988D1*
G2X16414Y7983I-5J0D1*
G1X16387Y7983D1*
G3X16383Y7979I0J-4D1*
G1X16383Y7952D1*
G2X16378Y7947I-5J0D1*
G1X16351Y7947D1*
G3X16347Y7943I0J-4D1*
G1X16347Y7916D1*
G2X16342Y7911I-5J0D1*
G1X16316Y7911D1*
G3X16312Y7907I0J-4D1*
G1X16312Y7880D1*
G2X16307Y7875I-5J0D1*
G1X16244Y7875D1*
G3X16240Y7871I0J-4D1*
G1X16240Y7845D1*
G2X16235Y7840I-5J0D1*
G1X16137Y7840D1*
G3X16133Y7836I0J-4D1*
G1X16133Y7809D1*
G2X16128Y7804I-5J0D1*
G1X15994Y7804D1*
G3X15990Y7800I0J-4D1*
G1X15990Y7773D1*
G2X15985Y7768I-5J0D1*
G1X15744Y7768D1*
G3X15740Y7764I0J-4D1*
G1X15740Y7738D1*
G2X15735Y7733I-5J0D1*
G1X15423Y7733D1*
G3X15419Y7729I0J-4D1*
G1X15419Y7639D1*
G37*
G36*
G1X3859Y6017D2*
G3X3863Y6013I4J0D1*
G1X4814Y6013D1*
G3X4818Y6017I0J4D1*
G1X4818Y7696D1*
G2X4823Y7701I5J0D1*
G1X8479Y7701D1*
G2X8484Y7696I0J-5D1*
G1X8484Y6039D1*
G2X8479Y6034I-5J0D1*
G1X8260Y6034D1*
G2X8255Y6039I0J5D1*
G1X8255Y7562D1*
G3X8251Y7566I-4J0D1*
G1X7894Y7566D1*
G3X7890Y7562I0J-4D1*
G1X7890Y7539D1*
G2X7885Y7534I-5J0D1*
G1X7863Y7534D1*
G3X7859Y7530I0J-4D1*
G1X7859Y7446D1*
G2X7854Y7441I-5J0D1*
G1X7832Y7441D1*
G3X7828Y7437I0J-4D1*
G1X7828Y7352D1*
G2X7823Y7347I-5J0D1*
G1X7801Y7347D1*
G3X7797Y7343I0J-4D1*
G1X7797Y7289D1*
G2X7792Y7284I-5J0D1*
G1X7769Y7284D1*
G3X7765Y7280I0J-4D1*
G1X7765Y7196D1*
G2X7760Y7191I-5J0D1*
G1X7738Y7191D1*
G3X7734Y7187I0J-4D1*
G1X7734Y7102D1*
G2X7729Y7097I-5J0D1*
G1X7707Y7097D1*
G3X7703Y7093I0J-4D1*
G1X7703Y7008D1*
G2X7698Y7003I-5J0D1*
G1X7676Y7003D1*
G3X7672Y6999I0J-4D1*
G1X7672Y6914D1*
G2X7667Y6909I-5J0D1*
G1X7644Y6909D1*
G3X7640Y6905I0J-4D1*
G1X7640Y6852D1*
G2X7635Y6847I-5J0D1*
G1X7613Y6847D1*
G3X7609Y6843I0J-4D1*
G1X7609Y6758D1*
G2X7604Y6753I-5J0D1*
G1X7582Y6753D1*
G3X7578Y6749I0J-4D1*
G1X7578Y6664D1*
G2X7573Y6659I-5J0D1*
G1X7551Y6659D1*
G3X7547Y6655I0J-4D1*
G1X7547Y6571D1*
G2X7542Y6566I-5J0D1*
G1X7510Y6566D1*
G2X7505Y6571I0J5D1*
G1X7505Y7562D1*
G3X7501Y7566I-4J0D1*
G1X7207Y7566D1*
G3X7203Y7562I0J-4D1*
G1X7203Y6017D1*
G3X7207Y6013I4J0D1*
G1X7564Y6013D1*
G3X7568Y6017I0J4D1*
G1X7568Y6039D1*
G2X7573Y6044I5J0D1*
G1X7595Y6044D1*
G3X7599Y6048I0J4D1*
G1X7599Y6133D1*
G2X7604Y6138I5J0D1*
G1X7626Y6138D1*
G3X7630Y6142I0J4D1*
G1X7630Y6196D1*
G2X7635Y6201I5J0D1*
G1X7658Y6201D1*
G3X7662Y6205I0J4D1*
G1X7662Y6289D1*
G2X7667Y6294I5J0D1*
G1X7689Y6294D1*
G3X7693Y6298I0J4D1*
G1X7693Y6383D1*
G2X7698Y6388I5J0D1*
G1X7720Y6388D1*
G3X7724Y6392I0J4D1*
G1X7724Y6477D1*
G2X7729Y6482I5J0D1*
G1X7751Y6482D1*
G3X7755Y6486I0J4D1*
G1X7755Y6571D1*
G2X7760Y6576I5J0D1*
G1X7783Y6576D1*
G3X7787Y6580I0J4D1*
G1X7787Y6633D1*
G2X7792Y6638I5J0D1*
G1X7814Y6638D1*
G3X7818Y6642I0J4D1*
G1X7818Y6727D1*
G2X7823Y6732I5J0D1*
G1X7845Y6732D1*
G3X7849Y6736I0J4D1*
G1X7849Y6821D1*
G2X7854Y6826I5J0D1*
G1X7876Y6826D1*
G3X7880Y6830I0J4D1*
G1X7880Y6914D1*
G2X7885Y6919I5J0D1*
G1X7908Y6919D1*
G3X7912Y6923I0J4D1*
G1X7912Y7008D1*
G2X7917Y7013I5J0D1*
G1X7948Y7013D1*
G2X7953Y7008I0J-5D1*
G1X7953Y5736D1*
G3X7957Y5732I4J0D1*
G1X8783Y5732D1*
G3X8787Y5736I0J4D1*
G1X8787Y7999D1*
G3X8783Y8003I-4J0D1*
G1X4488Y8003D1*
G3X4484Y7999I0J-4D1*
G1X4484Y6289D1*
G2X4479Y6284I-5J0D1*
G1X3863Y6284D1*
G3X3859Y6280I0J-4D1*
G1X3859Y6017D1*
G37*
G36*
G1X6109Y6017D2*
G3X6113Y6013I4J0D1*
G1X7001Y6013D1*
G3X7005Y6017I0J4D1*
G1X7005Y7562D1*
G3X7001Y7566I-4J0D1*
G1X6113Y7566D1*
G3X6109Y7562I0J-4D1*
G1X6109Y7330D1*
G3X6113Y7326I4J0D1*
G1X6667Y7326D1*
G2X6672Y7321I0J-5D1*
G1X6672Y6946D1*
G2X6667Y6941I-5J0D1*
G1X6176Y6941D1*
G3X6172Y6937I0J-4D1*
G1X6172Y6705D1*
G3X6176Y6701I4J0D1*
G1X6667Y6701D1*
G2X6672Y6696I0J-5D1*
G1X6672Y6289D1*
G2X6667Y6284I-5J0D1*
G1X6113Y6284D1*
G3X6109Y6280I0J-4D1*
G1X6109Y6017D1*
G37*
G36*
G1X4984Y6298D2*
G3X4988Y6294I4J0D1*
G1X5010Y6294D1*
G2X5015Y6289I0J-5D1*
G1X5015Y6205D1*
G3X5019Y6201I4J0D1*
G1X5042Y6201D1*
G2X5047Y6196I0J-5D1*
G1X5047Y6173D1*
G3X5051Y6169I4J0D1*
G1X5073Y6169D1*
G2X5078Y6164I0J-5D1*
G1X5078Y6111D1*
G3X5082Y6107I4J0D1*
G1X5135Y6107D1*
G2X5140Y6102I0J-5D1*
G1X5140Y6080D1*
G3X5144Y6076I4J0D1*
G1X5198Y6076D1*
G2X5203Y6071I0J-5D1*
G1X5203Y6048D1*
G3X5207Y6044I4J0D1*
G1X5260Y6044D1*
G2X5265Y6039I0J-5D1*
G1X5265Y6017D1*
G3X5269Y6013I4J0D1*
G1X5417Y6013D1*
G2X5422Y6008I0J-5D1*
G1X5422Y5986D1*
G3X5426Y5982I4J0D1*
G1X5626Y5982D1*
G3X5630Y5986I0J4D1*
G1X5630Y6008D1*
G2X5635Y6013I5J0D1*
G1X5751Y6013D1*
G3X5755Y6017I0J4D1*
G1X5755Y6039D1*
G2X5760Y6044I5J0D1*
G1X5845Y6044D1*
G3X5849Y6048I0J4D1*
G1X5849Y6071D1*
G2X5854Y6076I5J0D1*
G1X5876Y6076D1*
G3X5880Y6080I0J4D1*
G1X5880Y6102D1*
G2X5885Y6107I5J0D1*
G1X5908Y6107D1*
G3X5912Y6111I0J4D1*
G1X5912Y6133D1*
G2X5917Y6138I5J0D1*
G1X5939Y6138D1*
G3X5943Y6142I0J4D1*
G1X5943Y6196D1*
G2X5948Y6201I5J0D1*
G1X5970Y6201D1*
G3X5974Y6205I0J4D1*
G1X5974Y6258D1*
G2X5979Y6263I5J0D1*
G1X6001Y6263D1*
G3X6005Y6267I0J4D1*
G1X6005Y6499D1*
G3X6001Y6503I-4J0D1*
G1X5707Y6503D1*
G3X5703Y6499I0J-4D1*
G1X5703Y6383D1*
G2X5698Y6378I-5J0D1*
G1X5676Y6378D1*
G3X5672Y6374I0J-4D1*
G1X5672Y6289D1*
G2X5667Y6284I-5J0D1*
G1X5644Y6284D1*
G3X5640Y6280I0J-4D1*
G1X5640Y6258D1*
G2X5635Y6253I-5J0D1*
G1X5582Y6253D1*
G3X5578Y6249I0J-4D1*
G1X5578Y6227D1*
G2X5573Y6222I-5J0D1*
G1X5417Y6222D1*
G2X5412Y6227I0J5D1*
G1X5412Y6249D1*
G3X5408Y6253I-4J0D1*
G1X5354Y6253D1*
G2X5349Y6258I0J5D1*
G1X5349Y6280D1*
G3X5345Y6284I-4J0D1*
G1X5323Y6284D1*
G2X5318Y6289I0J5D1*
G1X5318Y6539D1*
G2X5323Y6544I5J0D1*
G1X5345Y6544D1*
G3X5349Y6548I0J4D1*
G1X5349Y6571D1*
G2X5354Y6576I5J0D1*
G1X5376Y6576D1*
G3X5380Y6580I0J4D1*
G1X5380Y6602D1*
G2X5385Y6607I5J0D1*
G1X5439Y6607D1*
G3X5443Y6611I0J4D1*
G1X5443Y6633D1*
G2X5448Y6638I5J0D1*
G1X5501Y6638D1*
G3X5505Y6642I0J4D1*
G1X5505Y6664D1*
G2X5510Y6669I5J0D1*
G1X5595Y6669D1*
G3X5599Y6673I0J4D1*
G1X5599Y6696D1*
G2X5604Y6701I5J0D1*
G1X5689Y6701D1*
G3X5693Y6705I0J4D1*
G1X5693Y6727D1*
G2X5698Y6732I5J0D1*
G1X5751Y6732D1*
G3X5755Y6736I0J4D1*
G1X5755Y6758D1*
G2X5760Y6763I5J0D1*
G1X5814Y6763D1*
G3X5818Y6767I0J4D1*
G1X5818Y6789D1*
G2X5823Y6794I5J0D1*
G1X5845Y6794D1*
G3X5849Y6798I0J4D1*
G1X5849Y6821D1*
G2X5854Y6826I5J0D1*
G1X5876Y6826D1*
G3X5880Y6830I0J4D1*
G1X5880Y6852D1*
G2X5885Y6857I5J0D1*
G1X5908Y6857D1*
G3X5912Y6861I0J4D1*
G1X5912Y6883D1*
G2X5917Y6888I5J0D1*
G1X5939Y6888D1*
G3X5943Y6892I0J4D1*
G1X5943Y6946D1*
G2X5948Y6951I5J0D1*
G1X5970Y6951D1*
G3X5974Y6955I0J4D1*
G1X5974Y7343D1*
G3X5970Y7347I-4J0D1*
G1X5948Y7347D1*
G2X5943Y7352I0J5D1*
G1X5943Y7405D1*
G3X5939Y7409I-4J0D1*
G1X5917Y7409D1*
G2X5912Y7414I0J5D1*
G1X5912Y7468D1*
G3X5908Y7472I-4J0D1*
G1X5885Y7472D1*
G2X5880Y7477I0J5D1*
G1X5880Y7499D1*
G3X5876Y7503I-4J0D1*
G1X5823Y7503D1*
G2X5818Y7508I0J5D1*
G1X5818Y7530D1*
G3X5814Y7534I-4J0D1*
G1X5792Y7534D1*
G2X5787Y7539I0J5D1*
G1X5787Y7562D1*
G3X5783Y7566I-4J0D1*
G1X5698Y7566D1*
G2X5693Y7571I0J5D1*
G1X5693Y7593D1*
G3X5689Y7597I-4J0D1*
G1X5301Y7597D1*
G3X5297Y7593I0J-4D1*
G1X5297Y7571D1*
G2X5292Y7566I-5J0D1*
G1X5238Y7566D1*
G3X5234Y7562I0J-4D1*
G1X5234Y7539D1*
G2X5229Y7534I-5J0D1*
G1X5176Y7534D1*
G3X5172Y7530I0J-4D1*
G1X5172Y7508D1*
G2X5167Y7503I-5J0D1*
G1X5144Y7503D1*
G3X5140Y7499I0J-4D1*
G1X5140Y7477D1*
G2X5135Y7472I-5J0D1*
G1X5113Y7472D1*
G3X5109Y7468I0J-4D1*
G1X5109Y7446D1*
G2X5104Y7441I-5J0D1*
G1X5082Y7441D1*
G3X5078Y7437I0J-4D1*
G1X5078Y7383D1*
G2X5073Y7378I-5J0D1*
G1X5051Y7378D1*
G3X5047Y7374I0J-4D1*
G1X5047Y7289D1*
G2X5042Y7284I-5J0D1*
G1X5019Y7284D1*
G3X5015Y7280I0J-4D1*
G1X5015Y7142D1*
G3X5019Y7138I4J0D1*
G1X5314Y7138D1*
G3X5318Y7142I0J4D1*
G1X5318Y7227D1*
G2X5323Y7232I5J0D1*
G1X5345Y7232D1*
G3X5349Y7236I0J4D1*
G1X5349Y7321D1*
G2X5354Y7326I5J0D1*
G1X5376Y7326D1*
G3X5380Y7330I0J4D1*
G1X5380Y7352D1*
G2X5385Y7357I5J0D1*
G1X5604Y7357D1*
G2X5609Y7352I0J-5D1*
G1X5609Y7330D1*
G3X5613Y7326I4J0D1*
G1X5635Y7326D1*
G2X5640Y7321I0J-5D1*
G1X5640Y7267D1*
G3X5644Y7263I4J0D1*
G1X5667Y7263D1*
G2X5672Y7258I0J-5D1*
G1X5672Y7102D1*
G2X5667Y7097I-5J0D1*
G1X5644Y7097D1*
G3X5640Y7093I0J-4D1*
G1X5640Y7071D1*
G2X5635Y7066I-5J0D1*
G1X5613Y7066D1*
G3X5609Y7062I0J-4D1*
G1X5609Y7039D1*
G2X5604Y7034I-5J0D1*
G1X5582Y7034D1*
G3X5578Y7030I0J-4D1*
G1X5578Y7008D1*
G2X5573Y7003I-5J0D1*
G1X5519Y7003D1*
G3X5515Y6999I0J-4D1*
G1X5515Y6977D1*
G2X5510Y6972I-5J0D1*
G1X5457Y6972D1*
G3X5453Y6968I0J-4D1*
G1X5453Y6946D1*
G2X5448Y6941I-5J0D1*
G1X5394Y6941D1*
G3X5390Y6937I0J-4D1*
G1X5390Y6914D1*
G2X5385Y6909I-5J0D1*
G1X5301Y6909D1*
G3X5297Y6905I0J-4D1*
G1X5297Y6883D1*
G2X5292Y6878I-5J0D1*
G1X5238Y6878D1*
G3X5234Y6874I0J-4D1*
G1X5234Y6852D1*
G2X5229Y6847I-5J0D1*
G1X5176Y6847D1*
G3X5172Y6843I0J-4D1*
G1X5172Y6821D1*
G2X5167Y6816I-5J0D1*
G1X5144Y6816D1*
G3X5140Y6812I0J-4D1*
G1X5140Y6789D1*
G2X5135Y6784I-5J0D1*
G1X5082Y6784D1*
G3X5078Y6780I0J-4D1*
G1X5078Y6758D1*
G2X5073Y6753I-5J0D1*
G1X5051Y6753D1*
G3X5047Y6749I0J-4D1*
G1X5047Y6696D1*
G2X5042Y6691I-5J0D1*
G1X5019Y6691D1*
G3X5015Y6687I0J-4D1*
G1X5015Y6633D1*
G2X5010Y6628I-5J0D1*
G1X4988Y6628D1*
G3X4984Y6624I0J-4D1*
G1X4984Y6298D1*
G37*
G36*
G1X19717Y13303D2*
G1X19404Y13303D1*
G1X19396Y13303D1*
G1X19387Y13303D1*
G1X19379Y13303D1*
G1X19370Y13303D1*
G1X19362Y13303D1*
G1X19356Y13303D1*
G1X19347Y13301D1*
G1X19342Y13301D1*
G1X19333Y13301D1*
G1X19327Y13301D1*
G1X19319Y13298D1*
G1X19313Y13298D1*
G1X19307Y13298D1*
G1X19302Y13298D1*
G1X19296Y13295D1*
G1X19290Y13295D1*
G1X19285Y13292D1*
G1X19279Y13292D1*
G1X19276Y13289D1*
G1X19270Y13289D1*
G1X19265Y13286D1*
G1X19262Y13286D1*
G1X19256Y13284D1*
G1X19253Y13281D1*
G1X19248Y13281D1*
G1X19245Y13278D1*
G1X19242Y13275D1*
G1X19236Y13272D1*
G1X19233Y13269D1*
G1X19228Y13266D1*
G1X19225Y13264D1*
G1X19222Y13261D1*
G1X19219Y13258D1*
G1X19216Y13255D1*
G1X19211Y13252D1*
G1X19208Y13247D1*
G1X19205Y13244D1*
G1X19202Y13241D1*
G1X19199Y13235D1*
G1X19196Y13232D1*
G1X19194Y13229D1*
G1X19191Y13224D1*
G1X19188Y13221D1*
G1X19185Y13215D1*
G1X19185Y13212D1*
G1X19182Y13207D1*
G1X19179Y13201D1*
G1X19179Y13198D1*
G1X19176Y13192D1*
G1X19174Y13187D1*
G1X19174Y13181D1*
G1X19174Y13178D1*
G1X19171Y13173D1*
G1X19171Y13167D1*
G1X19171Y13161D1*
G1X19168Y13155D1*
G1X19168Y13150D1*
G1X19168Y13144D1*
G1X19168Y13138D1*
G1X19168Y13133D1*
G1X19168Y13127D1*
G1X19168Y13121D1*
G1X19168Y13118D1*
G1X19168Y13113D1*
G1X19168Y13107D1*
G1X19171Y13104D1*
G1X19171Y13098D1*
G1X19171Y13093D1*
G1X19174Y13090D1*
G1X19174Y13084D1*
G1X19174Y13081D1*
G1X19176Y13076D1*
G1X19176Y13073D1*
G1X19179Y13067D1*
G1X19179Y13064D1*
G1X19182Y13059D1*
G1X19185Y13056D1*
G1X19185Y13053D1*
G1X19188Y13047D1*
G1X19191Y13044D1*
G1X19194Y13042D1*
G1X19194Y13036D1*
G1X19196Y13033D1*
G1X19199Y13030D1*
G1X19202Y13027D1*
G1X19205Y13024D1*
G1X19208Y13022D1*
G1X19211Y13016D1*
G1X19213Y13013D1*
G1X19213Y13010D1*
G1X19219Y13007D1*
G1X19222Y13005D1*
G1X19225Y13002D1*
G1X19228Y12999D1*
G1X19231Y12996D1*
G1X19233Y12993D1*
G1X19236Y12993D1*
G1X19239Y12990D1*
G1X19245Y12987D1*
G1X19248Y12985D1*
G1X19250Y12985D1*
G1X19253Y12982D1*
G1X19256Y12982D1*
G1X19259Y12979D1*
G1X19262Y12979D1*
G1X19265Y12976D1*
G1X19268Y12976D1*
G1X19270Y12973D1*
G1X19273Y12973D1*
G1X19276Y12973D1*
G1X19282Y12970D1*
G1X19285Y12970D1*
G1X19288Y12968D1*
G1X19293Y12968D1*
G1X19296Y12968D1*
G1X19299Y12965D1*
G1X19305Y12965D1*
G1X19307Y12965D1*
G1X19313Y12962D1*
G1X19316Y12962D1*
G1X19313Y12962D1*
G1X19310Y12959D1*
G1X19307Y12959D1*
G1X19302Y12956D1*
G1X19299Y12956D1*
G1X19296Y12956D1*
G1X19293Y12953D1*
G1X19293Y12953D1*
G1X19290Y12950D1*
G1X19288Y12950D1*
G1X19285Y12950D1*
G1X19282Y12948D1*
G1X19279Y12948D1*
G1X19279Y12945D1*
G1X19276Y12945D1*
G1X19273Y12945D1*
G1X19273Y12942D1*
G1X19270Y12942D1*
G1X19270Y12939D1*
G1X19268Y12939D1*
G1X19268Y12939D1*
G1X19265Y12936D1*
G1X19265Y12936D1*
G1X19262Y12936D1*
G1X19262Y12933D1*
G1X19259Y12933D1*
G1X19259Y12931D1*
G1X19256Y12931D1*
G1X19256Y12928D1*
G1X19253Y12928D1*
G1X19253Y12925D1*
G1X19250Y12925D1*
G1X19250Y12922D1*
G1X19248Y12919D1*
G1X19245Y12919D1*
G1X19245Y12916D1*
G1X19242Y12913D1*
G1X19239Y12913D1*
G1X19239Y12911D1*
G1X19236Y12908D1*
G1X19233Y12905D1*
G1X19233Y12902D1*
G1X19231Y12899D1*
G1X19228Y12899D1*
G1X19228Y12896D1*
G1X19225Y12893D1*
G1X19225Y12891D1*
G1X19222Y12888D1*
G1X19222Y12888D1*
G1X19219Y12885D1*
G1X19219Y12882D1*
G1X19216Y12882D1*
G1X19216Y12879D1*
G1X19216Y12876D1*
G1X19213Y12876D1*
G1X19213Y12874D1*
G1X19213Y12874D1*
G1X19211Y12871D1*
G1X19211Y12871D1*
G1X19211Y12868D1*
G1X19120Y12691D1*
G1X19333Y12691D1*
G1X19433Y12879D1*
G1X19436Y12882D1*
G1X19436Y12885D1*
G1X19438Y12888D1*
G1X19438Y12891D1*
G1X19441Y12896D1*
G1X19444Y12896D1*
G1X19444Y12899D1*
G1X19447Y12902D1*
G1X19447Y12905D1*
G1X19450Y12908D1*
G1X19450Y12911D1*
G1X19453Y12913D1*
G1X19453Y12913D1*
G1X19455Y12916D1*
G1X19455Y12919D1*
G1X19458Y12919D1*
G1X19458Y12922D1*
G1X19461Y12922D1*
G1X19461Y12925D1*
G1X19464Y12925D1*
G1X19467Y12925D1*
G1X19467Y12928D1*
G1X19470Y12928D1*
G1X19473Y12931D1*
G1X19475Y12931D1*
G1X19475Y12933D1*
G1X19478Y12933D1*
G1X19481Y12933D1*
G1X19484Y12933D1*
G1X19484Y12936D1*
G1X19487Y12936D1*
G1X19490Y12936D1*
G1X19492Y12936D1*
G1X19495Y12939D1*
G1X19498Y12939D1*
G1X19498Y12939D1*
G1X19501Y12939D1*
G1X19504Y12939D1*
G1X19507Y12939D1*
G1X19510Y12939D1*
G1X19527Y12939D1*
G1X19527Y12691D1*
G1X19717Y12691D1*
G1X19717Y13303D1*
G37*
%LPC*%
G36*
G1X19450Y13056D2*
G1X19447Y13056D1*
G1X19447Y13056D1*
G1X19444Y13056D1*
G1X19444Y13056D1*
G1X19441Y13056D1*
G1X19438Y13056D1*
G1X19438Y13056D1*
G1X19436Y13056D1*
G1X19433Y13059D1*
G1X19430Y13059D1*
G1X19427Y13059D1*
G1X19424Y13059D1*
G1X19424Y13059D1*
G1X19421Y13059D1*
G1X19418Y13061D1*
G1X19416Y13061D1*
G1X19410Y13061D1*
G1X19407Y13061D1*
G1X19404Y13064D1*
G1X19401Y13064D1*
G1X19399Y13064D1*
G1X19399Y13064D1*
G1X19396Y13064D1*
G1X19393Y13067D1*
G1X19393Y13067D1*
G1X19390Y13067D1*
G1X19387Y13067D1*
G1X19387Y13070D1*
G1X19384Y13070D1*
G1X19384Y13070D1*
G1X19381Y13073D1*
G1X19381Y13073D1*
G1X19379Y13073D1*
G1X19379Y13076D1*
G1X19376Y13076D1*
G1X19376Y13079D1*
G1X19373Y13079D1*
G1X19373Y13081D1*
G1X19370Y13081D1*
G1X19370Y13084D1*
G1X19370Y13087D1*
G1X19367Y13087D1*
G1X19367Y13090D1*
G1X19367Y13090D1*
G1X19364Y13093D1*
G1X19364Y13093D1*
G1X19364Y13096D1*
G1X19362Y13096D1*
G1X19362Y13098D1*
G1X19362Y13098D1*
G1X19362Y13101D1*
G1X19362Y13104D1*
G1X19359Y13104D1*
G1X19359Y13107D1*
G1X19359Y13110D1*
G1X19359Y13110D1*
G1X19359Y13113D1*
G1X19359Y13116D1*
G1X19359Y13116D1*
G1X19359Y13118D1*
G1X19359Y13121D1*
G1X19359Y13124D1*
G1X19359Y13127D1*
G1X19359Y13130D1*
G1X19359Y13133D1*
G1X19362Y13135D1*
G1X19362Y13138D1*
G1X19362Y13141D1*
G1X19362Y13144D1*
G1X19364Y13144D1*
G1X19364Y13147D1*
G1X19364Y13150D1*
G1X19367Y13153D1*
G1X19367Y13153D1*
G1X19367Y13155D1*
G1X19370Y13158D1*
G1X19370Y13158D1*
G1X19373Y13161D1*
G1X19373Y13161D1*
G1X19376Y13164D1*
G1X19379Y13167D1*
G1X19381Y13167D1*
G1X19381Y13170D1*
G1X19384Y13170D1*
G1X19387Y13173D1*
G1X19390Y13173D1*
G1X19393Y13173D1*
G1X19396Y13175D1*
G1X19401Y13175D1*
G1X19404Y13175D1*
G1X19407Y13178D1*
G1X19410Y13178D1*
G1X19416Y13178D1*
G1X19418Y13178D1*
G1X19424Y13181D1*
G1X19427Y13181D1*
G1X19433Y13181D1*
G1X19438Y13181D1*
G1X19441Y13181D1*
G1X19447Y13181D1*
G1X19527Y13181D1*
G1X19527Y13056D1*
G1X19450Y13056D1*
G37*
%LPD*%
G36*
G1X18704Y13303D2*
G1X18695Y13303D1*
G1X18687Y13303D1*
G1X18678Y13303D1*
G1X18670Y13301D1*
G1X18661Y13301D1*
G1X18655Y13301D1*
G1X18647Y13298D1*
G1X18641Y13295D1*
G1X18633Y13295D1*
G1X18627Y13292D1*
G1X18618Y13289D1*
G1X18613Y13286D1*
G1X18607Y13284D1*
G1X18601Y13281D1*
G1X18596Y13278D1*
G1X18590Y13275D1*
G1X18584Y13269D1*
G1X18579Y13266D1*
G1X18576Y13264D1*
G1X18570Y13258D1*
G1X18564Y13252D1*
G1X18562Y13249D1*
G1X18556Y13244D1*
G1X18553Y13241D1*
G1X18550Y13235D1*
G1X18544Y13229D1*
G1X18542Y13227D1*
G1X18539Y13221D1*
G1X18536Y13215D1*
G1X18533Y13210D1*
G1X18530Y13204D1*
G1X18530Y13198D1*
G1X18527Y13192D1*
G1X18527Y13187D1*
G1X18525Y13181D1*
G1X18525Y13175D1*
G1X18522Y13170D1*
G1X18522Y13164D1*
G1X18522Y13155D1*
G1X18522Y13150D1*
G1X18522Y13144D1*
G1X18522Y13138D1*
G1X18522Y13133D1*
G1X18522Y13130D1*
G1X18525Y13124D1*
G1X18525Y13118D1*
G1X18525Y13113D1*
G1X18527Y13110D1*
G1X18527Y13104D1*
G1X18530Y13098D1*
G1X18533Y13096D1*
G1X18533Y13090D1*
G1X18536Y13084D1*
G1X18539Y13081D1*
G1X18542Y13076D1*
G1X18544Y13073D1*
G1X18547Y13067D1*
G1X18550Y13064D1*
G1X18553Y13059D1*
G1X18556Y13056D1*
G1X18559Y13053D1*
G1X18562Y13050D1*
G1X18564Y13047D1*
G1X18564Y13047D1*
G1X18567Y13044D1*
G1X18570Y13042D1*
G1X18573Y13039D1*
G1X18579Y13036D1*
G1X18581Y13036D1*
G1X18584Y13033D1*
G1X18587Y13030D1*
G1X18590Y13030D1*
G1X18593Y13027D1*
G1X18599Y13024D1*
G1X18601Y13024D1*
G1X18604Y13022D1*
G1X18610Y13022D1*
G1X18613Y13019D1*
G1X18618Y13019D1*
G1X18621Y13016D1*
G1X18616Y13013D1*
G1X18610Y13013D1*
G1X18601Y13010D1*
G1X18596Y13007D1*
G1X18590Y13007D1*
G1X18584Y13005D1*
G1X18579Y13002D1*
G1X18576Y12999D1*
G1X18570Y12996D1*
G1X18564Y12993D1*
G1X18559Y12990D1*
G1X18556Y12987D1*
G1X18550Y12985D1*
G1X18547Y12982D1*
G1X18542Y12979D1*
G1X18539Y12976D1*
G1X18536Y12973D1*
G1X18530Y12970D1*
G1X18527Y12965D1*
G1X18525Y12962D1*
G1X18522Y12959D1*
G1X18519Y12953D1*
G1X18516Y12950D1*
G1X18513Y12945D1*
G1X18510Y12942D1*
G1X18507Y12936D1*
G1X18507Y12931D1*
G1X18505Y12928D1*
G1X18502Y12922D1*
G1X18502Y12919D1*
G1X18499Y12913D1*
G1X18499Y12908D1*
G1X18496Y12902D1*
G1X18496Y12896D1*
G1X18496Y12893D1*
G1X18493Y12888D1*
G1X18493Y12882D1*
G1X18493Y12876D1*
G1X18493Y12871D1*
G1X18493Y12865D1*
G1X18493Y12859D1*
G1X18493Y12856D1*
G1X18493Y12851D1*
G1X18493Y12845D1*
G1X18493Y12842D1*
G1X18496Y12837D1*
G1X18496Y12834D1*
G1X18496Y12828D1*
G1X18499Y12825D1*
G1X18499Y12819D1*
G1X18499Y12817D1*
G1X18502Y12811D1*
G1X18502Y12808D1*
G1X18505Y12802D1*
G1X18505Y12800D1*
G1X18507Y12794D1*
G1X18510Y12791D1*
G1X18510Y12788D1*
G1X18513Y12782D1*
G1X18516Y12780D1*
G1X18519Y12777D1*
G1X18519Y12771D1*
G1X18522Y12768D1*
G1X18525Y12765D1*
G1X18527Y12763D1*
G1X18530Y12760D1*
G1X18533Y12757D1*
G1X18536Y12751D1*
G1X18539Y12748D1*
G1X18542Y12745D1*
G1X18544Y12743D1*
G1X18547Y12740D1*
G1X18550Y12737D1*
G1X18553Y12734D1*
G1X18556Y12731D1*
G1X18562Y12728D1*
G1X18564Y12728D1*
G1X18567Y12726D1*
G1X18573Y12723D1*
G1X18576Y12720D1*
G1X18579Y12720D1*
G1X18581Y12717D1*
G1X18584Y12717D1*
G1X18587Y12714D1*
G1X18590Y12714D1*
G1X18593Y12711D1*
G1X18596Y12711D1*
G1X18599Y12708D1*
G1X18601Y12708D1*
G1X18604Y12708D1*
G1X18610Y12706D1*
G1X18613Y12706D1*
G1X18616Y12706D1*
G1X18621Y12703D1*
G1X18624Y12703D1*
G1X18630Y12703D1*
G1X18633Y12703D1*
G1X18638Y12700D1*
G1X18641Y12700D1*
G1X18647Y12700D1*
G1X18653Y12700D1*
G1X18658Y12697D1*
G1X18664Y12697D1*
G1X18670Y12697D1*
G1X18675Y12697D1*
G1X18681Y12694D1*
G1X18687Y12694D1*
G1X18690Y12694D1*
G1X18695Y12694D1*
G1X18701Y12694D1*
G1X18704Y12694D1*
G1X18707Y12691D1*
G1X18712Y12691D1*
G1X18715Y12691D1*
G1X18718Y12691D1*
G1X18721Y12691D1*
G1X18724Y12691D1*
G1X18727Y12691D1*
G1X18730Y12691D1*
G1X18732Y12691D1*
G1X19057Y12691D1*
G1X19057Y13303D1*
G1X18704Y13303D1*
G37*
%LPC*%
G36*
G1X18772Y12822D2*
G1X18767Y12822D1*
G1X18764Y12822D1*
G1X18758Y12822D1*
G1X18755Y12822D1*
G1X18749Y12822D1*
G1X18747Y12825D1*
G1X18741Y12825D1*
G1X18738Y12825D1*
G1X18735Y12825D1*
G1X18732Y12828D1*
G1X18727Y12828D1*
G1X18724Y12828D1*
G1X18721Y12831D1*
G1X18718Y12831D1*
G1X18715Y12831D1*
G1X18712Y12834D1*
G1X18710Y12834D1*
G1X18707Y12837D1*
G1X18707Y12837D1*
G1X18704Y12839D1*
G1X18701Y12842D1*
G1X18701Y12842D1*
G1X18698Y12845D1*
G1X18695Y12848D1*
G1X18695Y12848D1*
G1X18692Y12851D1*
G1X18692Y12854D1*
G1X18692Y12854D1*
G1X18690Y12856D1*
G1X18690Y12859D1*
G1X18687Y12862D1*
G1X18687Y12865D1*
G1X18687Y12865D1*
G1X18687Y12868D1*
G1X18684Y12871D1*
G1X18684Y12874D1*
G1X18684Y12876D1*
G1X18684Y12879D1*
G1X18684Y12882D1*
G1X18684Y12885D1*
G1X18684Y12888D1*
G1X18684Y12891D1*
G1X18684Y12893D1*
G1X18684Y12896D1*
G1X18684Y12899D1*
G1X18687Y12902D1*
G1X18687Y12902D1*
G1X18687Y12905D1*
G1X18687Y12908D1*
G1X18690Y12911D1*
G1X18690Y12911D1*
G1X18692Y12913D1*
G1X18692Y12916D1*
G1X18692Y12919D1*
G1X18695Y12919D1*
G1X18695Y12922D1*
G1X18698Y12922D1*
G1X18701Y12925D1*
G1X18701Y12925D1*
G1X18704Y12928D1*
G1X18707Y12931D1*
G1X18707Y12931D1*
G1X18710Y12933D1*
G1X18712Y12933D1*
G1X18715Y12936D1*
G1X18718Y12936D1*
G1X18721Y12936D1*
G1X18724Y12939D1*
G1X18727Y12939D1*
G1X18732Y12942D1*
G1X18735Y12942D1*
G1X18738Y12942D1*
G1X18741Y12942D1*
G1X18747Y12942D1*
G1X18749Y12945D1*
G1X18755Y12945D1*
G1X18758Y12945D1*
G1X18764Y12945D1*
G1X18767Y12945D1*
G1X18772Y12945D1*
G1X18866Y12945D1*
G1X18866Y12822D1*
G1X18772Y12822D1*
G37*
G36*
G1X18784Y13061D2*
G1X18781Y13061D1*
G1X18775Y13061D1*
G1X18772Y13061D1*
G1X18767Y13061D1*
G1X18764Y13061D1*
G1X18761Y13061D1*
G1X18758Y13064D1*
G1X18752Y13064D1*
G1X18749Y13064D1*
G1X18747Y13064D1*
G1X18744Y13067D1*
G1X18741Y13067D1*
G1X18738Y13067D1*
G1X18735Y13067D1*
G1X18735Y13070D1*
G1X18732Y13070D1*
G1X18730Y13073D1*
G1X18727Y13073D1*
G1X18727Y13076D1*
G1X18724Y13076D1*
G1X18721Y13079D1*
G1X18721Y13079D1*
G1X18718Y13081D1*
G1X18718Y13084D1*
G1X18715Y13084D1*
G1X18715Y13087D1*
G1X18715Y13090D1*
G1X18712Y13090D1*
G1X18712Y13093D1*
G1X18712Y13096D1*
G1X18710Y13098D1*
G1X18710Y13101D1*
G1X18710Y13101D1*
G1X18710Y13104D1*
G1X18707Y13107D1*
G1X18707Y13110D1*
G1X18707Y13113D1*
G1X18707Y13116D1*
G1X18707Y13118D1*
G1X18707Y13121D1*
G1X18707Y13124D1*
G1X18707Y13127D1*
G1X18707Y13130D1*
G1X18707Y13130D1*
G1X18707Y13133D1*
G1X18710Y13135D1*
G1X18710Y13138D1*
G1X18710Y13141D1*
G1X18710Y13141D1*
G1X18712Y13144D1*
G1X18712Y13147D1*
G1X18712Y13150D1*
G1X18715Y13150D1*
G1X18715Y13153D1*
G1X18715Y13155D1*
G1X18718Y13155D1*
G1X18718Y13158D1*
G1X18721Y13161D1*
G1X18721Y13161D1*
G1X18724Y13164D1*
G1X18727Y13164D1*
G1X18727Y13167D1*
G1X18730Y13167D1*
G1X18732Y13170D1*
G1X18735Y13170D1*
G1X18735Y13173D1*
G1X18738Y13173D1*
G1X18741Y13173D1*
G1X18744Y13173D1*
G1X18747Y13175D1*
G1X18749Y13175D1*
G1X18752Y13175D1*
G1X18758Y13175D1*
G1X18761Y13178D1*
G1X18764Y13178D1*
G1X18767Y13178D1*
G1X18772Y13178D1*
G1X18775Y13178D1*
G1X18781Y13178D1*
G1X18784Y13178D1*
G1X18866Y13178D1*
G1X18866Y13061D1*
G1X18784Y13061D1*
G37*
%LPD*%
G36*
G1X17861Y13303D2*
G1X17861Y13153D1*
G1X18055Y13153D1*
G1X18055Y12691D1*
G1X18243Y12691D1*
G1X18243Y13153D1*
G1X18436Y13153D1*
G1X18436Y13303D1*
G1X17861Y13303D1*
G37*
G36*
G1X17599Y13303D2*
G1X17369Y12965D1*
G1X17369Y13303D1*
G1X17189Y13303D1*
G1X17189Y12691D1*
G1X17369Y12691D1*
G1X17599Y13030D1*
G1X17599Y12691D1*
G1X17776Y12691D1*
G1X17776Y13303D1*
G1X17599Y13303D1*
G37*
G36*
G1X16492Y12891D2*
G1X16495Y12885D1*
G1X16495Y12876D1*
G1X16497Y12871D1*
G1X16500Y12865D1*
G1X16500Y12856D1*
G1X16503Y12851D1*
G1X16506Y12845D1*
G1X16509Y12839D1*
G1X16512Y12834D1*
G1X16512Y12828D1*
G1X16515Y12822D1*
G1X16517Y12817D1*
G1X16520Y12811D1*
G1X16523Y12805D1*
G1X16526Y12800D1*
G1X16529Y12794D1*
G1X16534Y12788D1*
G1X16537Y12782D1*
G1X16540Y12780D1*
G1X16543Y12774D1*
G1X16546Y12768D1*
G1X16552Y12765D1*
G1X16554Y12760D1*
G1X16557Y12757D1*
G1X16563Y12751D1*
G1X16566Y12748D1*
G1X16571Y12745D1*
G1X16574Y12740D1*
G1X16580Y12737D1*
G1X16583Y12734D1*
G1X16589Y12731D1*
G1X16594Y12726D1*
G1X16597Y12723D1*
G1X16603Y12720D1*
G1X16609Y12717D1*
G1X16614Y12714D1*
G1X16617Y12711D1*
G1X16623Y12708D1*
G1X16628Y12706D1*
G1X16634Y12703D1*
G1X16640Y12700D1*
G1X16646Y12697D1*
G1X16651Y12697D1*
G1X16657Y12694D1*
G1X16663Y12694D1*
G1X16668Y12691D1*
G1X16674Y12691D1*
G1X16680Y12691D1*
G1X16685Y12689D1*
G1X16694Y12689D1*
G1X16700Y12689D1*
G1X16708Y12686D1*
G1X16714Y12686D1*
G1X16722Y12686D1*
G1X16728Y12683D1*
G1X16737Y12683D1*
G1X16745Y12683D1*
G1X16751Y12683D1*
G1X16759Y12683D1*
G1X16768Y12683D1*
G1X16776Y12683D1*
G1X16788Y12683D1*
G1X16796Y12683D1*
G1X16808Y12683D1*
G1X16816Y12686D1*
G1X16825Y12686D1*
G1X16833Y12686D1*
G1X16842Y12689D1*
G1X16850Y12689D1*
G1X16859Y12689D1*
G1X16868Y12691D1*
G1X16876Y12691D1*
G1X16882Y12691D1*
G1X16890Y12694D1*
G1X16899Y12697D1*
G1X16905Y12697D1*
G1X16913Y12700D1*
G1X16919Y12703D1*
G1X16927Y12706D1*
G1X16933Y12708D1*
G1X16939Y12711D1*
G1X16944Y12714D1*
G1X16950Y12717D1*
G1X16959Y12723D1*
G1X16964Y12726D1*
G1X16970Y12728D1*
G1X16976Y12734D1*
G1X16981Y12740D1*
G1X16987Y12743D1*
G1X16990Y12748D1*
G1X16996Y12754D1*
G1X17001Y12760D1*
G1X17007Y12765D1*
G1X17013Y12771D1*
G1X17018Y12777D1*
G1X17021Y12782D1*
G1X17027Y12791D1*
G1X17033Y12797D1*
G1X17036Y12802D1*
G1X17041Y12811D1*
G1X17047Y12819D1*
G1X17050Y12825D1*
G1X17053Y12834D1*
G1X17058Y12842D1*
G1X17061Y12851D1*
G1X17064Y12859D1*
G1X17067Y12868D1*
G1X17070Y12876D1*
G1X17073Y12885D1*
G1X17075Y12893D1*
G1X17078Y12905D1*
G1X17078Y12913D1*
G1X17081Y12925D1*
G1X17084Y12933D1*
G1X17084Y12945D1*
G1X17084Y12956D1*
G1X17087Y12965D1*
G1X17087Y12976D1*
G1X17087Y12987D1*
G1X17087Y12999D1*
G1X17087Y13013D1*
G1X17087Y13030D1*
G1X17084Y13044D1*
G1X17084Y13059D1*
G1X17081Y13070D1*
G1X17078Y13084D1*
G1X17078Y13098D1*
G1X17075Y13110D1*
G1X17070Y13121D1*
G1X17067Y13133D1*
G1X17064Y13147D1*
G1X17058Y13155D1*
G1X17053Y13167D1*
G1X17047Y13178D1*
G1X17041Y13187D1*
G1X17036Y13198D1*
G1X17030Y13207D1*
G1X17021Y13215D1*
G1X17016Y13224D1*
G1X17007Y13232D1*
G1X16999Y13241D1*
G1X16990Y13249D1*
G1X16981Y13255D1*
G1X16970Y13261D1*
G1X16962Y13269D1*
G1X16953Y13275D1*
G1X16942Y13281D1*
G1X16930Y13286D1*
G1X16919Y13289D1*
G1X16907Y13295D1*
G1X16896Y13298D1*
G1X16885Y13301D1*
G1X16873Y13303D1*
G1X16859Y13306D1*
G1X16848Y13309D1*
G1X16833Y13312D1*
G1X16819Y13312D1*
G1X16805Y13315D1*
G1X16791Y13315D1*
G1X16776Y13315D1*
G1X16765Y13315D1*
G1X16754Y13315D1*
G1X16742Y13315D1*
G1X16734Y13312D1*
G1X16722Y13312D1*
G1X16714Y13312D1*
G1X16702Y13309D1*
G1X16694Y13306D1*
G1X16683Y13306D1*
G1X16674Y13303D1*
G1X16665Y13301D1*
G1X16657Y13298D1*
G1X16648Y13295D1*
G1X16640Y13292D1*
G1X16634Y13289D1*
G1X16626Y13286D1*
G1X16617Y13281D1*
G1X16611Y13278D1*
G1X16603Y13275D1*
G1X16597Y13269D1*
G1X16591Y13264D1*
G1X16583Y13258D1*
G1X16577Y13255D1*
G1X16571Y13249D1*
G1X16566Y13241D1*
G1X16560Y13235D1*
G1X16554Y13229D1*
G1X16549Y13224D1*
G1X16543Y13215D1*
G1X16537Y13210D1*
G1X16534Y13201D1*
G1X16529Y13192D1*
G1X16523Y13187D1*
G1X16520Y13178D1*
G1X16515Y13170D1*
G1X16512Y13161D1*
G1X16509Y13153D1*
G1X16503Y13144D1*
G1X16500Y13133D1*
G1X16497Y13124D1*
G1X16665Y13087D1*
G1X16665Y13090D1*
G1X16668Y13093D1*
G1X16668Y13096D1*
G1X16668Y13098D1*
G1X16668Y13101D1*
G1X16671Y13101D1*
G1X16671Y13104D1*
G1X16671Y13107D1*
G1X16674Y13110D1*
G1X16674Y13110D1*
G1X16674Y13113D1*
G1X16677Y13116D1*
G1X16677Y13116D1*
G1X16677Y13118D1*
G1X16677Y13121D1*
G1X16680Y13121D1*
G1X16680Y13124D1*
G1X16680Y13124D1*
G1X16683Y13127D1*
G1X16683Y13127D1*
G1X16685Y13130D1*
G1X16685Y13133D1*
G1X16688Y13133D1*
G1X16688Y13135D1*
G1X16691Y13138D1*
G1X16694Y13138D1*
G1X16694Y13141D1*
G1X16697Y13144D1*
G1X16700Y13144D1*
G1X16702Y13147D1*
G1X16702Y13150D1*
G1X16705Y13150D1*
G1X16708Y13153D1*
G1X16708Y13153D1*
G1X16711Y13155D1*
G1X16714Y13155D1*
G1X16717Y13158D1*
G1X16717Y13158D1*
G1X16720Y13161D1*
G1X16722Y13161D1*
G1X16725Y13161D1*
G1X16728Y13164D1*
G1X16728Y13164D1*
G1X16731Y13164D1*
G1X16734Y13167D1*
G1X16737Y13167D1*
G1X16739Y13167D1*
G1X16742Y13170D1*
G1X16745Y13170D1*
G1X16748Y13170D1*
G1X16748Y13170D1*
G1X16751Y13170D1*
G1X16754Y13173D1*
G1X16757Y13173D1*
G1X16759Y13173D1*
G1X16762Y13173D1*
G1X16765Y13173D1*
G1X16768Y13173D1*
G1X16771Y13173D1*
G1X16774Y13173D1*
G1X16779Y13173D1*
G1X16785Y13173D1*
G1X16791Y13173D1*
G1X16796Y13170D1*
G1X16802Y13170D1*
G1X16808Y13167D1*
G1X16813Y13167D1*
G1X16819Y13164D1*
G1X16825Y13161D1*
G1X16828Y13158D1*
G1X16833Y13158D1*
G1X16839Y13155D1*
G1X16842Y13150D1*
G1X16848Y13147D1*
G1X16850Y13144D1*
G1X16856Y13138D1*
G1X16859Y13135D1*
G1X16865Y13130D1*
G1X16868Y13127D1*
G1X16870Y13121D1*
G1X16873Y13118D1*
G1X16876Y13113D1*
G1X16876Y13107D1*
G1X16879Y13104D1*
G1X16882Y13098D1*
G1X16885Y13093D1*
G1X16885Y13087D1*
G1X16888Y13081D1*
G1X16888Y13076D1*
G1X16890Y13070D1*
G1X16890Y13064D1*
G1X16893Y13059D1*
G1X16893Y13050D1*
G1X16893Y13044D1*
G1X16893Y13039D1*
G1X16896Y13030D1*
G1X16896Y13022D1*
G1X16896Y13016D1*
G1X16896Y13007D1*
G1X16896Y12999D1*
G1X16896Y12990D1*
G1X16896Y12979D1*
G1X16896Y12970D1*
G1X16896Y12962D1*
G1X16893Y12953D1*
G1X16893Y12945D1*
G1X16893Y12936D1*
G1X16890Y12928D1*
G1X16890Y12922D1*
G1X16888Y12913D1*
G1X16888Y12908D1*
G1X16885Y12902D1*
G1X16882Y12893D1*
G1X16882Y12888D1*
G1X16879Y12882D1*
G1X16876Y12876D1*
G1X16873Y12874D1*
G1X16870Y12868D1*
G1X16868Y12862D1*
G1X16865Y12859D1*
G1X16862Y12856D1*
G1X16859Y12854D1*
G1X16856Y12848D1*
G1X16850Y12845D1*
G1X16848Y12842D1*
G1X16845Y12839D1*
G1X16839Y12837D1*
G1X16836Y12837D1*
G1X16831Y12834D1*
G1X16828Y12831D1*
G1X16822Y12831D1*
G1X16819Y12828D1*
G1X16813Y12828D1*
G1X16811Y12825D1*
G1X16805Y12825D1*
G1X16799Y12825D1*
G1X16796Y12822D1*
G1X16791Y12822D1*
G1X16785Y12822D1*
G1X16779Y12822D1*
G1X16774Y12822D1*
G1X16768Y12822D1*
G1X16765Y12822D1*
G1X16759Y12822D1*
G1X16754Y12825D1*
G1X16748Y12825D1*
G1X16745Y12825D1*
G1X16739Y12828D1*
G1X16737Y12828D1*
G1X16731Y12831D1*
G1X16728Y12831D1*
G1X16722Y12834D1*
G1X16720Y12837D1*
G1X16717Y12837D1*
G1X16714Y12839D1*
G1X16708Y12842D1*
G1X16705Y12845D1*
G1X16702Y12848D1*
G1X16700Y12851D1*
G1X16697Y12854D1*
G1X16694Y12856D1*
G1X16691Y12859D1*
G1X16688Y12865D1*
G1X16685Y12868D1*
G1X16683Y12871D1*
G1X16683Y12874D1*
G1X16680Y12879D1*
G1X16677Y12882D1*
G1X16674Y12888D1*
G1X16674Y12891D1*
G1X16671Y12896D1*
G1X16668Y12899D1*
G1X16668Y12905D1*
G1X16665Y12911D1*
G1X16663Y12916D1*
G1X16663Y12919D1*
G1X16660Y12925D1*
G1X16660Y12931D1*
G1X16657Y12936D1*
G1X16657Y12942D1*
G1X16657Y12942D1*
G1X16492Y12891D1*
G37*
G36*
G1X16213Y13303D2*
G1X16213Y13073D1*
G1X16013Y13303D1*
G1X15763Y13303D1*
G1X15985Y13076D1*
G1X15752Y12691D1*
G1X15985Y12691D1*
G1X16113Y12942D1*
G1X16213Y12839D1*
G1X16213Y12691D1*
G1X16401Y12691D1*
G1X16401Y13303D1*
G1X16213Y13303D1*
G37*
G36*
G1X15117Y12891D2*
G1X15120Y12885D1*
G1X15120Y12876D1*
G1X15122Y12871D1*
G1X15125Y12865D1*
G1X15125Y12856D1*
G1X15128Y12851D1*
G1X15131Y12845D1*
G1X15134Y12839D1*
G1X15137Y12834D1*
G1X15137Y12828D1*
G1X15139Y12822D1*
G1X15142Y12817D1*
G1X15145Y12811D1*
G1X15148Y12805D1*
G1X15151Y12800D1*
G1X15154Y12794D1*
G1X15159Y12788D1*
G1X15162Y12782D1*
G1X15165Y12780D1*
G1X15168Y12774D1*
G1X15171Y12768D1*
G1X15176Y12765D1*
G1X15179Y12760D1*
G1X15182Y12757D1*
G1X15188Y12751D1*
G1X15191Y12748D1*
G1X15196Y12745D1*
G1X15199Y12740D1*
G1X15205Y12737D1*
G1X15208Y12734D1*
G1X15213Y12731D1*
G1X15219Y12726D1*
G1X15222Y12723D1*
G1X15228Y12720D1*
G1X15233Y12717D1*
G1X15239Y12714D1*
G1X15242Y12711D1*
G1X15248Y12708D1*
G1X15253Y12706D1*
G1X15259Y12703D1*
G1X15265Y12700D1*
G1X15270Y12697D1*
G1X15276Y12697D1*
G1X15282Y12694D1*
G1X15288Y12694D1*
G1X15293Y12691D1*
G1X15299Y12691D1*
G1X15305Y12691D1*
G1X15310Y12689D1*
G1X15319Y12689D1*
G1X15325Y12689D1*
G1X15333Y12686D1*
G1X15339Y12686D1*
G1X15347Y12686D1*
G1X15353Y12683D1*
G1X15362Y12683D1*
G1X15370Y12683D1*
G1X15376Y12683D1*
G1X15384Y12683D1*
G1X15393Y12683D1*
G1X15401Y12683D1*
G1X15413Y12683D1*
G1X15421Y12683D1*
G1X15433Y12683D1*
G1X15441Y12686D1*
G1X15450Y12686D1*
G1X15458Y12686D1*
G1X15467Y12689D1*
G1X15475Y12689D1*
G1X15484Y12689D1*
G1X15492Y12691D1*
G1X15501Y12691D1*
G1X15507Y12691D1*
G1X15515Y12694D1*
G1X15524Y12697D1*
G1X15529Y12697D1*
G1X15538Y12700D1*
G1X15544Y12703D1*
G1X15552Y12706D1*
G1X15558Y12708D1*
G1X15564Y12711D1*
G1X15569Y12714D1*
G1X15575Y12717D1*
G1X15584Y12723D1*
G1X15589Y12726D1*
G1X15595Y12728D1*
G1X15601Y12734D1*
G1X15606Y12740D1*
G1X15612Y12743D1*
G1X15615Y12748D1*
G1X15621Y12754D1*
G1X15626Y12760D1*
G1X15632Y12765D1*
G1X15638Y12771D1*
G1X15643Y12777D1*
G1X15646Y12782D1*
G1X15652Y12791D1*
G1X15658Y12797D1*
G1X15660Y12802D1*
G1X15666Y12811D1*
G1X15672Y12819D1*
G1X15675Y12825D1*
G1X15678Y12834D1*
G1X15683Y12842D1*
G1X15686Y12851D1*
G1X15689Y12859D1*
G1X15692Y12868D1*
G1X15695Y12876D1*
G1X15697Y12885D1*
G1X15700Y12893D1*
G1X15703Y12905D1*
G1X15703Y12913D1*
G1X15706Y12925D1*
G1X15709Y12933D1*
G1X15709Y12945D1*
G1X15709Y12956D1*
G1X15712Y12965D1*
G1X15712Y12976D1*
G1X15712Y12987D1*
G1X15712Y12999D1*
G1X15712Y13013D1*
G1X15712Y13030D1*
G1X15709Y13044D1*
G1X15709Y13059D1*
G1X15706Y13070D1*
G1X15703Y13084D1*
G1X15703Y13098D1*
G1X15700Y13110D1*
G1X15695Y13121D1*
G1X15692Y13133D1*
G1X15689Y13147D1*
G1X15683Y13155D1*
G1X15678Y13167D1*
G1X15672Y13178D1*
G1X15666Y13187D1*
G1X15660Y13198D1*
G1X15655Y13207D1*
G1X15646Y13215D1*
G1X15641Y13224D1*
G1X15632Y13232D1*
G1X15623Y13241D1*
G1X15615Y13249D1*
G1X15606Y13255D1*
G1X15595Y13261D1*
G1X15586Y13269D1*
G1X15578Y13275D1*
G1X15567Y13281D1*
G1X15555Y13286D1*
G1X15544Y13289D1*
G1X15532Y13295D1*
G1X15521Y13298D1*
G1X15510Y13301D1*
G1X15498Y13303D1*
G1X15484Y13306D1*
G1X15473Y13309D1*
G1X15458Y13312D1*
G1X15444Y13312D1*
G1X15430Y13315D1*
G1X15416Y13315D1*
G1X15401Y13315D1*
G1X15390Y13315D1*
G1X15379Y13315D1*
G1X15367Y13315D1*
G1X15359Y13312D1*
G1X15347Y13312D1*
G1X15339Y13312D1*
G1X15327Y13309D1*
G1X15319Y13306D1*
G1X15307Y13306D1*
G1X15299Y13303D1*
G1X15290Y13301D1*
G1X15282Y13298D1*
G1X15273Y13295D1*
G1X15265Y13292D1*
G1X15259Y13289D1*
G1X15250Y13286D1*
G1X15242Y13281D1*
G1X15236Y13278D1*
G1X15228Y13275D1*
G1X15222Y13269D1*
G1X15216Y13264D1*
G1X15208Y13258D1*
G1X15202Y13255D1*
G1X15196Y13249D1*
G1X15191Y13241D1*
G1X15185Y13235D1*
G1X15179Y13229D1*
G1X15174Y13224D1*
G1X15168Y13215D1*
G1X15162Y13210D1*
G1X15159Y13201D1*
G1X15154Y13192D1*
G1X15148Y13187D1*
G1X15145Y13178D1*
G1X15139Y13170D1*
G1X15137Y13161D1*
G1X15134Y13153D1*
G1X15128Y13144D1*
G1X15125Y13133D1*
G1X15122Y13124D1*
G1X15290Y13087D1*
G1X15290Y13090D1*
G1X15293Y13093D1*
G1X15293Y13096D1*
G1X15293Y13098D1*
G1X15293Y13101D1*
G1X15296Y13101D1*
G1X15296Y13104D1*
G1X15296Y13107D1*
G1X15299Y13110D1*
G1X15299Y13110D1*
G1X15299Y13113D1*
G1X15302Y13116D1*
G1X15302Y13116D1*
G1X15302Y13118D1*
G1X15302Y13121D1*
G1X15305Y13121D1*
G1X15305Y13124D1*
G1X15305Y13124D1*
G1X15307Y13127D1*
G1X15307Y13127D1*
G1X15310Y13130D1*
G1X15310Y13133D1*
G1X15313Y13133D1*
G1X15313Y13135D1*
G1X15316Y13138D1*
G1X15319Y13138D1*
G1X15319Y13141D1*
G1X15322Y13144D1*
G1X15325Y13144D1*
G1X15327Y13147D1*
G1X15327Y13150D1*
G1X15330Y13150D1*
G1X15333Y13153D1*
G1X15333Y13153D1*
G1X15336Y13155D1*
G1X15339Y13155D1*
G1X15342Y13158D1*
G1X15342Y13158D1*
G1X15344Y13161D1*
G1X15347Y13161D1*
G1X15350Y13161D1*
G1X15353Y13164D1*
G1X15353Y13164D1*
G1X15356Y13164D1*
G1X15359Y13167D1*
G1X15362Y13167D1*
G1X15364Y13167D1*
G1X15367Y13170D1*
G1X15370Y13170D1*
G1X15373Y13170D1*
G1X15373Y13170D1*
G1X15376Y13170D1*
G1X15379Y13173D1*
G1X15381Y13173D1*
G1X15384Y13173D1*
G1X15387Y13173D1*
G1X15390Y13173D1*
G1X15393Y13173D1*
G1X15396Y13173D1*
G1X15399Y13173D1*
G1X15404Y13173D1*
G1X15410Y13173D1*
G1X15416Y13173D1*
G1X15421Y13170D1*
G1X15427Y13170D1*
G1X15433Y13167D1*
G1X15438Y13167D1*
G1X15444Y13164D1*
G1X15450Y13161D1*
G1X15453Y13158D1*
G1X15458Y13158D1*
G1X15464Y13155D1*
G1X15467Y13150D1*
G1X15473Y13147D1*
G1X15475Y13144D1*
G1X15481Y13138D1*
G1X15484Y13135D1*
G1X15490Y13130D1*
G1X15492Y13127D1*
G1X15495Y13121D1*
G1X15498Y13118D1*
G1X15501Y13113D1*
G1X15501Y13107D1*
G1X15504Y13104D1*
G1X15507Y13098D1*
G1X15510Y13093D1*
G1X15510Y13087D1*
G1X15512Y13081D1*
G1X15512Y13076D1*
G1X15515Y13070D1*
G1X15515Y13064D1*
G1X15518Y13059D1*
G1X15518Y13050D1*
G1X15518Y13044D1*
G1X15518Y13039D1*
G1X15521Y13030D1*
G1X15521Y13022D1*
G1X15521Y13016D1*
G1X15521Y13007D1*
G1X15521Y12999D1*
G1X15521Y12990D1*
G1X15521Y12979D1*
G1X15521Y12970D1*
G1X15521Y12962D1*
G1X15518Y12953D1*
G1X15518Y12945D1*
G1X15518Y12936D1*
G1X15515Y12928D1*
G1X15515Y12922D1*
G1X15512Y12913D1*
G1X15512Y12908D1*
G1X15510Y12902D1*
G1X15507Y12893D1*
G1X15507Y12888D1*
G1X15504Y12882D1*
G1X15501Y12876D1*
G1X15498Y12874D1*
G1X15495Y12868D1*
G1X15492Y12862D1*
G1X15490Y12859D1*
G1X15487Y12856D1*
G1X15484Y12854D1*
G1X15481Y12848D1*
G1X15475Y12845D1*
G1X15473Y12842D1*
G1X15470Y12839D1*
G1X15464Y12837D1*
G1X15461Y12837D1*
G1X15455Y12834D1*
G1X15453Y12831D1*
G1X15447Y12831D1*
G1X15444Y12828D1*
G1X15438Y12828D1*
G1X15436Y12825D1*
G1X15430Y12825D1*
G1X15424Y12825D1*
G1X15421Y12822D1*
G1X15416Y12822D1*
G1X15410Y12822D1*
G1X15404Y12822D1*
G1X15399Y12822D1*
G1X15393Y12822D1*
G1X15390Y12822D1*
G1X15384Y12822D1*
G1X15379Y12825D1*
G1X15373Y12825D1*
G1X15370Y12825D1*
G1X15364Y12828D1*
G1X15362Y12828D1*
G1X15356Y12831D1*
G1X15353Y12831D1*
G1X15347Y12834D1*
G1X15344Y12837D1*
G1X15342Y12837D1*
G1X15339Y12839D1*
G1X15333Y12842D1*
G1X15330Y12845D1*
G1X15327Y12848D1*
G1X15325Y12851D1*
G1X15322Y12854D1*
G1X15319Y12856D1*
G1X15316Y12859D1*
G1X15313Y12865D1*
G1X15310Y12868D1*
G1X15307Y12871D1*
G1X15307Y12874D1*
G1X15305Y12879D1*
G1X15302Y12882D1*
G1X15299Y12888D1*
G1X15299Y12891D1*
G1X15296Y12896D1*
G1X15293Y12899D1*
G1X15293Y12905D1*
G1X15290Y12911D1*
G1X15288Y12916D1*
G1X15288Y12919D1*
G1X15285Y12925D1*
G1X15285Y12931D1*
G1X15282Y12936D1*
G1X15282Y12942D1*
G1X15282Y12942D1*
G1X15117Y12891D1*
G37*
G36*
G1X14385Y12691D2*
G1X14556Y12691D1*
G1X14556Y13098D1*
G1X14559Y13096D1*
G1X14564Y13093D1*
G1X14567Y13090D1*
G1X14573Y13087D1*
G1X14576Y13084D1*
G1X14581Y13081D1*
G1X14584Y13079D1*
G1X14590Y13076D1*
G1X14593Y13073D1*
G1X14599Y13070D1*
G1X14601Y13067D1*
G1X14604Y13064D1*
G1X14610Y13061D1*
G1X14613Y13061D1*
G1X14616Y13059D1*
G1X14621Y13056D1*
G1X14624Y13053D1*
G1X14627Y13050D1*
G1X14633Y13050D1*
G1X14636Y13047D1*
G1X14638Y13044D1*
G1X14644Y13044D1*
G1X14647Y13042D1*
G1X14653Y13039D1*
G1X14655Y13039D1*
G1X14661Y13036D1*
G1X14667Y13033D1*
G1X14670Y13033D1*
G1X14675Y13030D1*
G1X14681Y13027D1*
G1X14687Y13027D1*
G1X14690Y13024D1*
G1X14695Y13022D1*
G1X14701Y13022D1*
G1X14707Y13019D1*
G1X14712Y13016D1*
G1X14718Y13016D1*
G1X14724Y13013D1*
G1X14729Y13013D1*
G1X14735Y13010D1*
G1X14735Y13150D1*
G1X14727Y13153D1*
G1X14718Y13155D1*
G1X14710Y13158D1*
G1X14701Y13161D1*
G1X14692Y13164D1*
G1X14687Y13167D1*
G1X14678Y13170D1*
G1X14673Y13175D1*
G1X14664Y13178D1*
G1X14658Y13181D1*
G1X14650Y13184D1*
G1X14644Y13187D1*
G1X14638Y13192D1*
G1X14633Y13195D1*
G1X14627Y13198D1*
G1X14621Y13204D1*
G1X14616Y13207D1*
G1X14610Y13210D1*
G1X14607Y13215D1*
G1X14601Y13218D1*
G1X14596Y13221D1*
G1X14593Y13227D1*
G1X14587Y13229D1*
G1X14581Y13235D1*
G1X14579Y13238D1*
G1X14573Y13244D1*
G1X14570Y13249D1*
G1X14567Y13252D1*
G1X14562Y13258D1*
G1X14559Y13264D1*
G1X14553Y13266D1*
G1X14550Y13272D1*
G1X14547Y13278D1*
G1X14544Y13284D1*
G1X14539Y13286D1*
G1X14536Y13292D1*
G1X14533Y13298D1*
G1X14530Y13303D1*
G1X14527Y13309D1*
G1X14525Y13315D1*
G1X14385Y13315D1*
G1X14385Y12691D1*
G37*
G36*
G1X14211Y12691D2*
G1X14211Y12700D1*
G1X14209Y12706D1*
G1X14209Y12714D1*
G1X14206Y12723D1*
G1X14206Y12728D1*
G1X14203Y12737D1*
G1X14200Y12743D1*
G1X14200Y12751D1*
G1X14197Y12757D1*
G1X14194Y12765D1*
G1X14191Y12771D1*
G1X14189Y12780D1*
G1X14186Y12785D1*
G1X14180Y12794D1*
G1X14177Y12800D1*
G1X14174Y12808D1*
G1X14171Y12814D1*
G1X14166Y12819D1*
G1X14163Y12828D1*
G1X14157Y12834D1*
G1X14152Y12839D1*
G1X14149Y12848D1*
G1X14143Y12854D1*
G1X14137Y12862D1*
G1X14132Y12868D1*
G1X14123Y12876D1*
G1X14117Y12885D1*
G1X14112Y12891D1*
G1X14103Y12899D1*
G1X14095Y12908D1*
G1X14086Y12916D1*
G1X14078Y12922D1*
G1X14069Y12931D1*
G1X14058Y12939D1*
G1X14049Y12948D1*
G1X14038Y12956D1*
G1X14026Y12965D1*
G1X14015Y12973D1*
G1X14004Y12982D1*
G1X13992Y12990D1*
G1X13984Y12996D1*
G1X13978Y13002D1*
G1X13972Y13007D1*
G1X13964Y13013D1*
G1X13958Y13016D1*
G1X13952Y13022D1*
G1X13947Y13027D1*
G1X13941Y13030D1*
G1X13935Y13036D1*
G1X13929Y13042D1*
G1X13927Y13044D1*
G1X13921Y13047D1*
G1X13918Y13053D1*
G1X13912Y13056D1*
G1X13910Y13059D1*
G1X13907Y13064D1*
G1X13904Y13067D1*
G1X13901Y13070D1*
G1X13898Y13073D1*
G1X13895Y13076D1*
G1X13892Y13079D1*
G1X13892Y13081D1*
G1X13890Y13084D1*
G1X13887Y13087D1*
G1X13887Y13090D1*
G1X13884Y13093D1*
G1X13884Y13096D1*
G1X13884Y13098D1*
G1X13881Y13101D1*
G1X13881Y13104D1*
G1X13878Y13107D1*
G1X13878Y13110D1*
G1X13878Y13113D1*
G1X13878Y13116D1*
G1X13875Y13116D1*
G1X13875Y13118D1*
G1X13875Y13121D1*
G1X13875Y13124D1*
G1X13875Y13127D1*
G1X13875Y13130D1*
G1X13875Y13133D1*
G1X13875Y13135D1*
G1X13875Y13138D1*
G1X13875Y13141D1*
G1X13875Y13144D1*
G1X13878Y13147D1*
G1X13878Y13150D1*
G1X13878Y13153D1*
G1X13878Y13153D1*
G1X13881Y13155D1*
G1X13881Y13158D1*
G1X13884Y13161D1*
G1X13884Y13164D1*
G1X13884Y13167D1*
G1X13887Y13167D1*
G1X13887Y13170D1*
G1X13890Y13173D1*
G1X13892Y13175D1*
G1X13892Y13175D1*
G1X13895Y13178D1*
G1X13898Y13181D1*
G1X13901Y13181D1*
G1X13901Y13184D1*
G1X13904Y13187D1*
G1X13907Y13187D1*
G1X13910Y13190D1*
G1X13912Y13190D1*
G1X13915Y13190D1*
G1X13918Y13192D1*
G1X13921Y13192D1*
G1X13924Y13195D1*
G1X13927Y13195D1*
G1X13929Y13195D1*
G1X13932Y13195D1*
G1X13935Y13198D1*
G1X13938Y13198D1*
G1X13941Y13198D1*
G1X13944Y13198D1*
G1X13947Y13198D1*
G1X13949Y13198D1*
G1X13952Y13198D1*
G1X13955Y13198D1*
G1X13958Y13198D1*
G1X13961Y13198D1*
G1X13964Y13198D1*
G1X13967Y13195D1*
G1X13969Y13195D1*
G1X13972Y13195D1*
G1X13975Y13195D1*
G1X13978Y13192D1*
G1X13981Y13192D1*
G1X13984Y13190D1*
G1X13986Y13190D1*
G1X13986Y13190D1*
G1X13989Y13187D1*
G1X13992Y13187D1*
G1X13995Y13184D1*
G1X13998Y13181D1*
G1X13998Y13181D1*
G1X14001Y13178D1*
G1X14004Y13175D1*
G1X14004Y13173D1*
G1X14006Y13173D1*
G1X14009Y13170D1*
G1X14009Y13167D1*
G1X14012Y13164D1*
G1X14012Y13161D1*
G1X14015Y13158D1*
G1X14015Y13153D1*
G1X14018Y13150D1*
G1X14018Y13147D1*
G1X14021Y13144D1*
G1X14021Y13138D1*
G1X14023Y13135D1*
G1X14023Y13130D1*
G1X14026Y13127D1*
G1X14026Y13121D1*
G1X14026Y13116D1*
G1X14029Y13113D1*
G1X14029Y13107D1*
G1X14200Y13121D1*
G1X14200Y13127D1*
G1X14197Y13135D1*
G1X14197Y13141D1*
G1X14194Y13150D1*
G1X14194Y13155D1*
G1X14191Y13161D1*
G1X14191Y13167D1*
G1X14189Y13173D1*
G1X14186Y13178D1*
G1X14186Y13184D1*
G1X14183Y13190D1*
G1X14180Y13195D1*
G1X14180Y13201D1*
G1X14177Y13207D1*
G1X14174Y13210D1*
G1X14171Y13215D1*
G1X14171Y13221D1*
G1X14169Y13224D1*
G1X14166Y13229D1*
G1X14163Y13232D1*
G1X14160Y13235D1*
G1X14157Y13241D1*
G1X14154Y13244D1*
G1X14152Y13247D1*
G1X14149Y13252D1*
G1X14146Y13255D1*
G1X14143Y13258D1*
G1X14140Y13261D1*
G1X14134Y13264D1*
G1X14132Y13266D1*
G1X14129Y13269D1*
G1X14123Y13272D1*
G1X14120Y13275D1*
G1X14115Y13278D1*
G1X14112Y13281D1*
G1X14106Y13284D1*
G1X14103Y13286D1*
G1X14097Y13289D1*
G1X14095Y13289D1*
G1X14089Y13292D1*
G1X14083Y13295D1*
G1X14078Y13298D1*
G1X14075Y13298D1*
G1X14069Y13301D1*
G1X14063Y13303D1*
G1X14058Y13303D1*
G1X14049Y13306D1*
G1X14043Y13306D1*
G1X14038Y13309D1*
G1X14032Y13309D1*
G1X14023Y13309D1*
G1X14018Y13312D1*
G1X14009Y13312D1*
G1X14001Y13312D1*
G1X13995Y13315D1*
G1X13986Y13315D1*
G1X13978Y13315D1*
G1X13969Y13315D1*
G1X13961Y13315D1*
G1X13952Y13315D1*
G1X13944Y13315D1*
G1X13935Y13315D1*
G1X13927Y13315D1*
G1X13918Y13315D1*
G1X13910Y13315D1*
G1X13904Y13312D1*
G1X13895Y13312D1*
G1X13887Y13312D1*
G1X13881Y13312D1*
G1X13875Y13309D1*
G1X13867Y13309D1*
G1X13861Y13306D1*
G1X13855Y13306D1*
G1X13847Y13306D1*
G1X13841Y13303D1*
G1X13836Y13303D1*
G1X13830Y13301D1*
G1X13827Y13298D1*
G1X13821Y13298D1*
G1X13816Y13295D1*
G1X13810Y13292D1*
G1X13804Y13292D1*
G1X13801Y13289D1*
G1X13796Y13286D1*
G1X13790Y13284D1*
G1X13787Y13281D1*
G1X13781Y13278D1*
G1X13779Y13275D1*
G1X13773Y13272D1*
G1X13770Y13269D1*
G1X13767Y13266D1*
G1X13762Y13264D1*
G1X13759Y13261D1*
G1X13756Y13255D1*
G1X13750Y13252D1*
G1X13747Y13249D1*
G1X13744Y13244D1*
G1X13742Y13241D1*
G1X13739Y13235D1*
G1X13736Y13232D1*
G1X13733Y13227D1*
G1X13730Y13224D1*
G1X13727Y13218D1*
G1X13725Y13215D1*
G1X13725Y13210D1*
G1X13722Y13207D1*
G1X13719Y13201D1*
G1X13719Y13195D1*
G1X13716Y13192D1*
G1X13713Y13187D1*
G1X13713Y13181D1*
G1X13713Y13178D1*
G1X13710Y13173D1*
G1X13710Y13167D1*
G1X13710Y13161D1*
G1X13707Y13155D1*
G1X13707Y13153D1*
G1X13707Y13147D1*
G1X13707Y13141D1*
G1X13707Y13135D1*
G1X13707Y13130D1*
G1X13707Y13124D1*
G1X13707Y13118D1*
G1X13707Y13113D1*
G1X13710Y13110D1*
G1X13710Y13104D1*
G1X13710Y13098D1*
G1X13713Y13093D1*
G1X13713Y13087D1*
G1X13716Y13081D1*
G1X13716Y13076D1*
G1X13719Y13073D1*
G1X13722Y13067D1*
G1X13722Y13061D1*
G1X13725Y13056D1*
G1X13727Y13050D1*
G1X13730Y13044D1*
G1X13733Y13042D1*
G1X13736Y13036D1*
G1X13739Y13030D1*
G1X13742Y13024D1*
G1X13747Y13019D1*
G1X13750Y13016D1*
G1X13756Y13010D1*
G1X13759Y13005D1*
G1X13764Y12999D1*
G1X13770Y12993D1*
G1X13773Y12987D1*
G1X13779Y12982D1*
G1X13787Y12976D1*
G1X13793Y12970D1*
G1X13799Y12965D1*
G1X13804Y12959D1*
G1X13813Y12953D1*
G1X13818Y12948D1*
G1X13827Y12942D1*
G1X13833Y12936D1*
G1X13841Y12928D1*
G1X13850Y12922D1*
G1X13858Y12916D1*
G1X13864Y12913D1*
G1X13867Y12911D1*
G1X13873Y12908D1*
G1X13878Y12902D1*
G1X13881Y12899D1*
G1X13887Y12896D1*
G1X13890Y12893D1*
G1X13892Y12893D1*
G1X13898Y12891D1*
G1X13901Y12888D1*
G1X13904Y12885D1*
G1X13907Y12882D1*
G1X13910Y12879D1*
G1X13912Y12879D1*
G1X13915Y12876D1*
G1X13918Y12874D1*
G1X13921Y12874D1*
G1X13924Y12871D1*
G1X13924Y12871D1*
G1X13927Y12868D1*
G1X13929Y12865D1*
G1X13929Y12865D1*
G1X13932Y12862D1*
G1X13932Y12862D1*
G1X13935Y12859D1*
G1X13938Y12859D1*
G1X13938Y12856D1*
G1X13941Y12856D1*
G1X13944Y12854D1*
G1X13944Y12851D1*
G1X13947Y12851D1*
G1X13949Y12848D1*
G1X13952Y12845D1*
G1X13952Y12845D1*
G1X13955Y12842D1*
G1X13958Y12839D1*
G1X13961Y12837D1*
G1X13961Y12837D1*
G1X13964Y12834D1*
G1X13967Y12831D1*
G1X13705Y12831D1*
G1X13705Y12691D1*
G1X14211Y12691D1*
G37*
G36*
G1X13631Y13016D2*
G1X13631Y13033D1*
G1X13631Y13050D1*
G1X13628Y13064D1*
G1X13628Y13081D1*
G1X13625Y13096D1*
G1X13622Y13110D1*
G1X13619Y13124D1*
G1X13619Y13135D1*
G1X13613Y13147D1*
G1X13611Y13161D1*
G1X13608Y13173D1*
G1X13605Y13184D1*
G1X13599Y13192D1*
G1X13596Y13204D1*
G1X13591Y13212D1*
G1X13585Y13221D1*
G1X13579Y13229D1*
G1X13574Y13238D1*
G1X13568Y13244D1*
G1X13562Y13249D1*
G1X13554Y13258D1*
G1X13548Y13264D1*
G1X13539Y13269D1*
G1X13534Y13275D1*
G1X13525Y13281D1*
G1X13517Y13284D1*
G1X13508Y13289D1*
G1X13500Y13292D1*
G1X13488Y13298D1*
G1X13480Y13301D1*
G1X13468Y13303D1*
G1X13460Y13306D1*
G1X13448Y13309D1*
G1X13437Y13309D1*
G1X13426Y13312D1*
G1X13414Y13312D1*
G1X13403Y13315D1*
G1X13389Y13315D1*
G1X13377Y13315D1*
G1X13371Y13315D1*
G1X13366Y13315D1*
G1X13360Y13315D1*
G1X13354Y13315D1*
G1X13346Y13315D1*
G1X13343Y13315D1*
G1X13337Y13312D1*
G1X13332Y13312D1*
G1X13326Y13312D1*
G1X13320Y13312D1*
G1X13315Y13309D1*
G1X13309Y13309D1*
G1X13306Y13309D1*
G1X13300Y13309D1*
G1X13295Y13306D1*
G1X13292Y13306D1*
G1X13286Y13303D1*
G1X13283Y13303D1*
G1X13278Y13301D1*
G1X13275Y13301D1*
G1X13272Y13298D1*
G1X13266Y13298D1*
G1X13263Y13295D1*
G1X13260Y13295D1*
G1X13255Y13292D1*
G1X13252Y13289D1*
G1X13249Y13289D1*
G1X13246Y13286D1*
G1X13241Y13284D1*
G1X13238Y13284D1*
G1X13235Y13281D1*
G1X13232Y13278D1*
G1X13229Y13275D1*
G1X13226Y13275D1*
G1X13223Y13272D1*
G1X13221Y13269D1*
G1X13218Y13266D1*
G1X13215Y13266D1*
G1X13212Y13264D1*
G1X13209Y13261D1*
G1X13206Y13258D1*
G1X13204Y13255D1*
G1X13201Y13252D1*
G1X13201Y13249D1*
G1X13198Y13249D1*
G1X13195Y13247D1*
G1X13192Y13244D1*
G1X13189Y13241D1*
G1X13189Y13238D1*
G1X13186Y13235D1*
G1X13184Y13232D1*
G1X13184Y13229D1*
G1X13181Y13227D1*
G1X13178Y13224D1*
G1X13178Y13224D1*
G1X13175Y13221D1*
G1X13175Y13218D1*
G1X13172Y13215D1*
G1X13172Y13212D1*
G1X13169Y13210D1*
G1X13169Y13207D1*
G1X13167Y13204D1*
G1X13167Y13201D1*
G1X13164Y13198D1*
G1X13164Y13195D1*
G1X13161Y13192D1*
G1X13161Y13190D1*
G1X13158Y13187D1*
G1X13158Y13181D1*
G1X13155Y13178D1*
G1X13155Y13175D1*
G1X13155Y13173D1*
G1X13152Y13170D1*
G1X13152Y13167D1*
G1X13152Y13161D1*
G1X13149Y13158D1*
G1X13149Y13155D1*
G1X13149Y13153D1*
G1X13147Y13147D1*
G1X13147Y13144D1*
G1X13144Y13138D1*
G1X13144Y13130D1*
G1X13141Y13124D1*
G1X13141Y13116D1*
G1X13138Y13110D1*
G1X13138Y13101D1*
G1X13138Y13096D1*
G1X13135Y13087D1*
G1X13135Y13081D1*
G1X13132Y13073D1*
G1X13132Y13067D1*
G1X13132Y13059D1*
G1X13132Y13053D1*
G1X13132Y13044D1*
G1X13130Y13039D1*
G1X13130Y13030D1*
G1X13130Y13024D1*
G1X13130Y13016D1*
G1X13130Y13010D1*
G1X13130Y13002D1*
G1X13130Y12985D1*
G1X13130Y12970D1*
G1X13130Y12953D1*
G1X13132Y12939D1*
G1X13132Y12925D1*
G1X13135Y12908D1*
G1X13135Y12896D1*
G1X13138Y12882D1*
G1X13141Y12868D1*
G1X13144Y12856D1*
G1X13147Y12845D1*
G1X13149Y12834D1*
G1X13152Y12822D1*
G1X13158Y12811D1*
G1X13161Y12800D1*
G1X13167Y12791D1*
G1X13169Y12782D1*
G1X13175Y12774D1*
G1X13181Y12765D1*
G1X13186Y12757D1*
G1X13192Y12748D1*
G1X13198Y12743D1*
G1X13206Y12737D1*
G1X13212Y12728D1*
G1X13221Y12723D1*
G1X13229Y12717D1*
G1X13235Y12711D1*
G1X13243Y12708D1*
G1X13255Y12703D1*
G1X13263Y12700D1*
G1X13272Y12694D1*
G1X13283Y12691D1*
G1X13295Y12691D1*
G1X13306Y12689D1*
G1X13317Y12689D1*
G1X13329Y12686D1*
G1X13340Y12686D1*
G1X13354Y12683D1*
G1X13366Y12683D1*
G1X13380Y12683D1*
G1X13389Y12683D1*
G1X13394Y12683D1*
G1X13403Y12683D1*
G1X13409Y12683D1*
G1X13417Y12686D1*
G1X13423Y12686D1*
G1X13431Y12686D1*
G1X13437Y12686D1*
G1X13443Y12689D1*
G1X13451Y12689D1*
G1X13457Y12691D1*
G1X13463Y12691D1*
G1X13468Y12691D1*
G1X13474Y12691D1*
G1X13480Y12694D1*
G1X13485Y12697D1*
G1X13491Y12700D1*
G1X13497Y12700D1*
G1X13500Y12703D1*
G1X13505Y12706D1*
G1X13511Y12708D1*
G1X13514Y12711D1*
G1X13520Y12714D1*
G1X13525Y12717D1*
G1X13528Y12720D1*
G1X13534Y12723D1*
G1X13537Y12726D1*
G1X13542Y12728D1*
G1X13545Y12731D1*
G1X13548Y12734D1*
G1X13554Y12740D1*
G1X13557Y12743D1*
G1X13562Y12745D1*
G1X13565Y12751D1*
G1X13568Y12754D1*
G1X13571Y12760D1*
G1X13576Y12763D1*
G1X13579Y12768D1*
G1X13582Y12771D1*
G1X13585Y12777D1*
G1X13588Y12780D1*
G1X13588Y12782D1*
G1X13591Y12788D1*
G1X13594Y12791D1*
G1X13594Y12797D1*
G1X13596Y12800D1*
G1X13599Y12805D1*
G1X13599Y12808D1*
G1X13602Y12814D1*
G1X13602Y12817D1*
G1X13605Y12822D1*
G1X13608Y12828D1*
G1X13608Y12831D1*
G1X13611Y12837D1*
G1X13611Y12842D1*
G1X13613Y12848D1*
G1X13613Y12854D1*
G1X13616Y12859D1*
G1X13616Y12865D1*
G1X13619Y12871D1*
G1X13619Y12876D1*
G1X13622Y12882D1*
G1X13622Y12888D1*
G1X13622Y12893D1*
G1X13625Y12899D1*
G1X13625Y12905D1*
G1X13625Y12913D1*
G1X13628Y12919D1*
G1X13628Y12925D1*
G1X13628Y12931D1*
G1X13628Y12939D1*
G1X13628Y12945D1*
G1X13631Y12950D1*
G1X13631Y12956D1*
G1X13631Y12965D1*
G1X13631Y12970D1*
G1X13631Y12979D1*
G1X13631Y12985D1*
G1X13631Y12993D1*
G1X13631Y12999D1*
G1X13631Y12999D1*
G1X13631Y13016D1*
G37*
%LPC*%
G36*
G1X13463Y12987D2*
G1X13463Y12976D1*
G1X13463Y12965D1*
G1X13463Y12956D1*
G1X13463Y12945D1*
G1X13460Y12936D1*
G1X13460Y12925D1*
G1X13460Y12916D1*
G1X13460Y12908D1*
G1X13457Y12899D1*
G1X13457Y12893D1*
G1X13454Y12885D1*
G1X13454Y12879D1*
G1X13454Y12871D1*
G1X13451Y12865D1*
G1X13451Y12859D1*
G1X13448Y12854D1*
G1X13446Y12848D1*
G1X13446Y12845D1*
G1X13443Y12839D1*
G1X13440Y12837D1*
G1X13437Y12831D1*
G1X13434Y12828D1*
G1X13434Y12825D1*
G1X13431Y12819D1*
G1X13428Y12817D1*
G1X13426Y12814D1*
G1X13423Y12811D1*
G1X13420Y12811D1*
G1X13417Y12808D1*
G1X13411Y12805D1*
G1X13409Y12802D1*
G1X13406Y12802D1*
G1X13403Y12800D1*
G1X13400Y12800D1*
G1X13394Y12800D1*
G1X13391Y12797D1*
G1X13389Y12797D1*
G1X13383Y12797D1*
G1X13380Y12797D1*
G1X13377Y12797D1*
G1X13374Y12797D1*
G1X13371Y12797D1*
G1X13369Y12797D1*
G1X13369Y12797D1*
G1X13366Y12800D1*
G1X13363Y12800D1*
G1X13360Y12800D1*
G1X13357Y12800D1*
G1X13354Y12800D1*
G1X13354Y12802D1*
G1X13352Y12802D1*
G1X13349Y12805D1*
G1X13346Y12805D1*
G1X13346Y12805D1*
G1X13343Y12808D1*
G1X13340Y12808D1*
G1X13337Y12811D1*
G1X13337Y12811D1*
G1X13334Y12814D1*
G1X13332Y12817D1*
G1X13332Y12817D1*
G1X13329Y12819D1*
G1X13326Y12822D1*
G1X13326Y12825D1*
G1X13323Y12828D1*
G1X13323Y12831D1*
G1X13320Y12834D1*
G1X13320Y12837D1*
G1X13317Y12839D1*
G1X13317Y12842D1*
G1X13315Y12845D1*
G1X13315Y12848D1*
G1X13312Y12851D1*
G1X13312Y12854D1*
G1X13309Y12859D1*
G1X13309Y12862D1*
G1X13309Y12865D1*
G1X13306Y12871D1*
G1X13306Y12874D1*
G1X13306Y12876D1*
G1X13303Y12882D1*
G1X13303Y12885D1*
G1X13303Y12891D1*
G1X13303Y12896D1*
G1X13300Y12899D1*
G1X13300Y12905D1*
G1X13300Y12911D1*
G1X13300Y12916D1*
G1X13300Y12922D1*
G1X13300Y12928D1*
G1X13297Y12936D1*
G1X13297Y12942D1*
G1X13297Y12950D1*
G1X13297Y12956D1*
G1X13297Y12965D1*
G1X13297Y12970D1*
G1X13297Y12979D1*
G1X13297Y12987D1*
G1X13297Y12996D1*
G1X13297Y13007D1*
G1X13297Y13019D1*
G1X13297Y13030D1*
G1X13297Y13042D1*
G1X13297Y13050D1*
G1X13300Y13061D1*
G1X13300Y13070D1*
G1X13300Y13079D1*
G1X13300Y13087D1*
G1X13303Y13096D1*
G1X13303Y13104D1*
G1X13306Y13113D1*
G1X13306Y13118D1*
G1X13306Y13127D1*
G1X13309Y13133D1*
G1X13309Y13138D1*
G1X13312Y13144D1*
G1X13315Y13150D1*
G1X13315Y13153D1*
G1X13317Y13158D1*
G1X13320Y13161D1*
G1X13323Y13167D1*
G1X13326Y13170D1*
G1X13326Y13173D1*
G1X13329Y13178D1*
G1X13332Y13181D1*
G1X13334Y13184D1*
G1X13340Y13187D1*
G1X13343Y13187D1*
G1X13346Y13190D1*
G1X13349Y13192D1*
G1X13352Y13195D1*
G1X13354Y13195D1*
G1X13360Y13198D1*
G1X13363Y13198D1*
G1X13366Y13198D1*
G1X13371Y13201D1*
G1X13374Y13201D1*
G1X13380Y13201D1*
G1X13383Y13201D1*
G1X13386Y13201D1*
G1X13391Y13201D1*
G1X13394Y13201D1*
G1X13400Y13198D1*
G1X13403Y13198D1*
G1X13406Y13198D1*
G1X13409Y13195D1*
G1X13414Y13195D1*
G1X13417Y13192D1*
G1X13420Y13190D1*
G1X13423Y13187D1*
G1X13426Y13187D1*
G1X13428Y13184D1*
G1X13431Y13181D1*
G1X13431Y13178D1*
G1X13434Y13173D1*
G1X13437Y13170D1*
G1X13440Y13167D1*
G1X13440Y13161D1*
G1X13443Y13158D1*
G1X13446Y13153D1*
G1X13446Y13150D1*
G1X13448Y13144D1*
G1X13451Y13138D1*
G1X13451Y13133D1*
G1X13454Y13127D1*
G1X13454Y13118D1*
G1X13454Y13113D1*
G1X13457Y13104D1*
G1X13457Y13096D1*
G1X13460Y13090D1*
G1X13460Y13081D1*
G1X13460Y13073D1*
G1X13460Y13061D1*
G1X13463Y13053D1*
G1X13463Y13042D1*
G1X13463Y13033D1*
G1X13463Y13022D1*
G1X13463Y13010D1*
G1X13463Y12999D1*
G1X13463Y12999D1*
G1X13463Y12987D1*
G37*
%LPD*%
G36*
G1X12589Y13303D2*
G1X12589Y13164D1*
G1X12859Y13164D1*
G1X12876Y13073D1*
G1X12873Y13073D1*
G1X12870Y13076D1*
G1X12868Y13076D1*
G1X12865Y13079D1*
G1X12862Y13079D1*
G1X12859Y13079D1*
G1X12856Y13081D1*
G1X12853Y13081D1*
G1X12851Y13081D1*
G1X12848Y13084D1*
G1X12845Y13084D1*
G1X12842Y13084D1*
G1X12839Y13087D1*
G1X12836Y13087D1*
G1X12833Y13087D1*
G1X12831Y13090D1*
G1X12828Y13090D1*
G1X12825Y13090D1*
G1X12822Y13093D1*
G1X12819Y13093D1*
G1X12816Y13093D1*
G1X12813Y13093D1*
G1X12811Y13096D1*
G1X12808Y13096D1*
G1X12805Y13096D1*
G1X12802Y13096D1*
G1X12799Y13096D1*
G1X12796Y13096D1*
G1X12794Y13096D1*
G1X12791Y13096D1*
G1X12788Y13098D1*
G1X12785Y13098D1*
G1X12782Y13098D1*
G1X12779Y13098D1*
G1X12779Y13098D1*
G1X12776Y13098D1*
G1X12774Y13098D1*
G1X12771Y13098D1*
G1X12768Y13098D1*
G1X12765Y13098D1*
G1X12757Y13098D1*
G1X12748Y13098D1*
G1X12739Y13098D1*
G1X12731Y13096D1*
G1X12722Y13096D1*
G1X12714Y13093D1*
G1X12705Y13093D1*
G1X12697Y13090D1*
G1X12691Y13087D1*
G1X12683Y13084D1*
G1X12674Y13081D1*
G1X12668Y13079D1*
G1X12660Y13076D1*
G1X12654Y13073D1*
G1X12648Y13067D1*
G1X12640Y13064D1*
G1X12634Y13059D1*
G1X12628Y13056D1*
G1X12623Y13050D1*
G1X12617Y13044D1*
G1X12611Y13039D1*
G1X12606Y13033D1*
G1X12600Y13027D1*
G1X12597Y13022D1*
G1X12591Y13013D1*
G1X12589Y13007D1*
G1X12583Y13002D1*
G1X12580Y12996D1*
G1X12577Y12987D1*
G1X12574Y12982D1*
G1X12571Y12973D1*
G1X12569Y12968D1*
G1X12566Y12959D1*
G1X12566Y12953D1*
G1X12563Y12945D1*
G1X12563Y12936D1*
G1X12560Y12928D1*
G1X12560Y12922D1*
G1X12560Y12913D1*
G1X12560Y12905D1*
G1X12560Y12899D1*
G1X12560Y12893D1*
G1X12560Y12888D1*
G1X12560Y12882D1*
G1X12563Y12876D1*
G1X12563Y12871D1*
G1X12563Y12865D1*
G1X12566Y12859D1*
G1X12566Y12854D1*
G1X12566Y12848D1*
G1X12569Y12842D1*
G1X12571Y12837D1*
G1X12571Y12831D1*
G1X12574Y12825D1*
G1X12577Y12819D1*
G1X12577Y12814D1*
G1X12580Y12808D1*
G1X12583Y12802D1*
G1X12586Y12797D1*
G1X12589Y12791D1*
G1X12591Y12785D1*
G1X12594Y12780D1*
G1X12597Y12777D1*
G1X12603Y12771D1*
G1X12606Y12765D1*
G1X12609Y12760D1*
G1X12614Y12757D1*
G1X12617Y12751D1*
G1X12620Y12748D1*
G1X12626Y12743D1*
G1X12628Y12740D1*
G1X12634Y12734D1*
G1X12637Y12731D1*
G1X12643Y12728D1*
G1X12646Y12726D1*
G1X12651Y12720D1*
G1X12657Y12717D1*
G1X12660Y12714D1*
G1X12665Y12711D1*
G1X12671Y12708D1*
G1X12677Y12706D1*
G1X12683Y12703D1*
G1X12688Y12700D1*
G1X12694Y12697D1*
G1X12700Y12697D1*
G1X12705Y12694D1*
G1X12714Y12691D1*
G1X12720Y12691D1*
G1X12725Y12691D1*
G1X12734Y12691D1*
G1X12739Y12689D1*
G1X12748Y12689D1*
G1X12754Y12686D1*
G1X12762Y12686D1*
G1X12771Y12686D1*
G1X12776Y12683D1*
G1X12785Y12683D1*
G1X12794Y12683D1*
G1X12802Y12683D1*
G1X12811Y12683D1*
G1X12816Y12683D1*
G1X12822Y12683D1*
G1X12828Y12683D1*
G1X12833Y12683D1*
G1X12839Y12683D1*
G1X12845Y12683D1*
G1X12851Y12683D1*
G1X12856Y12686D1*
G1X12862Y12686D1*
G1X12865Y12686D1*
G1X12870Y12686D1*
G1X12876Y12686D1*
G1X12882Y12689D1*
G1X12885Y12689D1*
G1X12890Y12689D1*
G1X12896Y12691D1*
G1X12899Y12691D1*
G1X12905Y12691D1*
G1X12907Y12691D1*
G1X12913Y12691D1*
G1X12916Y12691D1*
G1X12922Y12694D1*
G1X12925Y12694D1*
G1X12930Y12697D1*
G1X12933Y12697D1*
G1X12939Y12700D1*
G1X12942Y12700D1*
G1X12944Y12703D1*
G1X12950Y12703D1*
G1X12953Y12706D1*
G1X12956Y12708D1*
G1X12962Y12708D1*
G1X12964Y12711D1*
G1X12967Y12714D1*
G1X12970Y12714D1*
G1X12973Y12717D1*
G1X12979Y12720D1*
G1X12981Y12720D1*
G1X12984Y12723D1*
G1X12987Y12726D1*
G1X12990Y12728D1*
G1X12993Y12731D1*
G1X12996Y12731D1*
G1X12999Y12734D1*
G1X13001Y12737D1*
G1X13004Y12740D1*
G1X13007Y12743D1*
G1X13010Y12745D1*
G1X13010Y12748D1*
G1X13013Y12748D1*
G1X13016Y12751D1*
G1X13018Y12754D1*
G1X13021Y12757D1*
G1X13024Y12760D1*
G1X13024Y12763D1*
G1X13027Y12765D1*
G1X13030Y12768D1*
G1X13033Y12771D1*
G1X13033Y12774D1*
G1X13036Y12777D1*
G1X13038Y12780D1*
G1X13038Y12782D1*
G1X13041Y12785D1*
G1X13044Y12788D1*
G1X13044Y12791D1*
G1X13047Y12794D1*
G1X13050Y12800D1*
G1X13050Y12802D1*
G1X13053Y12805D1*
G1X13053Y12808D1*
G1X13055Y12814D1*
G1X13055Y12817D1*
G1X13058Y12819D1*
G1X13058Y12822D1*
G1X13061Y12828D1*
G1X13061Y12831D1*
G1X13064Y12837D1*
G1X13064Y12839D1*
G1X13067Y12845D1*
G1X13067Y12848D1*
G1X12896Y12865D1*
G1X12896Y12862D1*
G1X12896Y12856D1*
G1X12893Y12854D1*
G1X12893Y12851D1*
G1X12893Y12845D1*
G1X12890Y12842D1*
G1X12890Y12839D1*
G1X12888Y12837D1*
G1X12888Y12834D1*
G1X12888Y12831D1*
G1X12885Y12825D1*
G1X12882Y12822D1*
G1X12882Y12819D1*
G1X12879Y12817D1*
G1X12879Y12814D1*
G1X12876Y12811D1*
G1X12873Y12811D1*
G1X12873Y12808D1*
G1X12870Y12805D1*
G1X12868Y12802D1*
G1X12865Y12800D1*
G1X12862Y12800D1*
G1X12862Y12797D1*
G1X12859Y12794D1*
G1X12856Y12794D1*
G1X12853Y12791D1*
G1X12851Y12791D1*
G1X12848Y12791D1*
G1X12845Y12788D1*
G1X12842Y12788D1*
G1X12839Y12785D1*
G1X12836Y12785D1*
G1X12833Y12785D1*
G1X12831Y12785D1*
G1X12828Y12782D1*
G1X12825Y12782D1*
G1X12822Y12782D1*
G1X12819Y12782D1*
G1X12816Y12782D1*
G1X12813Y12782D1*
G1X12811Y12782D1*
G1X12805Y12782D1*
G1X12802Y12782D1*
G1X12799Y12782D1*
G1X12796Y12785D1*
G1X12794Y12785D1*
G1X12791Y12785D1*
G1X12785Y12785D1*
G1X12782Y12788D1*
G1X12779Y12788D1*
G1X12776Y12791D1*
G1X12774Y12791D1*
G1X12771Y12794D1*
G1X12768Y12794D1*
G1X12765Y12797D1*
G1X12762Y12800D1*
G1X12762Y12802D1*
G1X12759Y12802D1*
G1X12757Y12805D1*
G1X12754Y12808D1*
G1X12751Y12811D1*
G1X12748Y12814D1*
G1X12748Y12817D1*
G1X12745Y12819D1*
G1X12742Y12825D1*
G1X12742Y12828D1*
G1X12739Y12831D1*
G1X12739Y12834D1*
G1X12737Y12839D1*
G1X12737Y12842D1*
G1X12737Y12845D1*
G1X12734Y12851D1*
G1X12734Y12854D1*
G1X12734Y12859D1*
G1X12731Y12865D1*
G1X12731Y12868D1*
G1X12731Y12874D1*
G1X12731Y12876D1*
G1X12731Y12882D1*
G1X12731Y12888D1*
G1X12731Y12893D1*
G1X12731Y12899D1*
G1X12731Y12902D1*
G1X12731Y12908D1*
G1X12731Y12913D1*
G1X12734Y12916D1*
G1X12734Y12922D1*
G1X12734Y12928D1*
G1X12737Y12931D1*
G1X12737Y12933D1*
G1X12737Y12939D1*
G1X12739Y12942D1*
G1X12739Y12945D1*
G1X12742Y12950D1*
G1X12742Y12953D1*
G1X12745Y12956D1*
G1X12748Y12959D1*
G1X12748Y12962D1*
G1X12751Y12965D1*
G1X12754Y12968D1*
G1X12757Y12970D1*
G1X12759Y12973D1*
G1X12762Y12973D1*
G1X12762Y12976D1*
G1X12765Y12979D1*
G1X12768Y12982D1*
G1X12771Y12982D1*
G1X12774Y12985D1*
G1X12776Y12985D1*
G1X12779Y12987D1*
G1X12785Y12987D1*
G1X12788Y12990D1*
G1X12791Y12990D1*
G1X12794Y12990D1*
G1X12796Y12990D1*
G1X12802Y12993D1*
G1X12805Y12993D1*
G1X12808Y12993D1*
G1X12813Y12993D1*
G1X12816Y12993D1*
G1X12819Y12993D1*
G1X12822Y12993D1*
G1X12822Y12993D1*
G1X12825Y12993D1*
G1X12828Y12993D1*
G1X12831Y12993D1*
G1X12833Y12993D1*
G1X12833Y12990D1*
G1X12836Y12990D1*
G1X12839Y12990D1*
G1X12842Y12990D1*
G1X12845Y12990D1*
G1X12845Y12987D1*
G1X12848Y12987D1*
G1X12851Y12987D1*
G1X12853Y12985D1*
G1X12856Y12985D1*
G1X12856Y12985D1*
G1X12859Y12982D1*
G1X12862Y12982D1*
G1X12865Y12982D1*
G1X12865Y12979D1*
G1X12868Y12979D1*
G1X12868Y12979D1*
G1X12870Y12976D1*
G1X12873Y12976D1*
G1X12873Y12973D1*
G1X12876Y12973D1*
G1X12879Y12970D1*
G1X12879Y12970D1*
G1X12882Y12968D1*
G1X12885Y12968D1*
G1X12885Y12965D1*
G1X12888Y12962D1*
G1X12890Y12962D1*
G1X12890Y12959D1*
G1X12893Y12956D1*
G1X12896Y12956D1*
G1X12896Y12953D1*
G1X12899Y12950D1*
G1X13044Y12970D1*
G1X12990Y13303D1*
G1X12589Y13303D1*
G37*
G36*
G1X11897Y13303D2*
G1X11888Y13303D1*
G1X11880Y13303D1*
G1X11874Y13303D1*
G1X11865Y13303D1*
G1X11857Y13303D1*
G1X11851Y13301D1*
G1X11843Y13301D1*
G1X11837Y13301D1*
G1X11828Y13298D1*
G1X11823Y13298D1*
G1X11814Y13298D1*
G1X11809Y13295D1*
G1X11803Y13295D1*
G1X11797Y13292D1*
G1X11791Y13292D1*
G1X11786Y13289D1*
G1X11780Y13286D1*
G1X11774Y13286D1*
G1X11769Y13284D1*
G1X11763Y13281D1*
G1X11757Y13278D1*
G1X11752Y13275D1*
G1X11749Y13272D1*
G1X11743Y13272D1*
G1X11737Y13269D1*
G1X11734Y13266D1*
G1X11729Y13264D1*
G1X11726Y13258D1*
G1X11720Y13255D1*
G1X11715Y13252D1*
G1X11712Y13249D1*
G1X11709Y13247D1*
G1X11703Y13244D1*
G1X11700Y13238D1*
G1X11695Y13235D1*
G1X11692Y13232D1*
G1X11689Y13227D1*
G1X11683Y13224D1*
G1X11680Y13218D1*
G1X11678Y13215D1*
G1X11675Y13212D1*
G1X11672Y13207D1*
G1X11669Y13204D1*
G1X11666Y13198D1*
G1X11663Y13195D1*
G1X11660Y13190D1*
G1X11658Y13184D1*
G1X11655Y13181D1*
G1X11652Y13175D1*
G1X11649Y13173D1*
G1X11646Y13167D1*
G1X11646Y13161D1*
G1X11643Y13155D1*
G1X11641Y13150D1*
G1X11638Y13147D1*
G1X11638Y13141D1*
G1X11635Y13135D1*
G1X11632Y13130D1*
G1X11632Y13124D1*
G1X11629Y13118D1*
G1X11629Y13113D1*
G1X11626Y13107D1*
G1X11626Y13101D1*
G1X11623Y13096D1*
G1X11623Y13090D1*
G1X11621Y13084D1*
G1X11621Y13079D1*
G1X11621Y13073D1*
G1X11621Y13067D1*
G1X11618Y13059D1*
G1X11618Y13053D1*
G1X11618Y13047D1*
G1X11618Y13042D1*
G1X11615Y13036D1*
G1X11615Y13030D1*
G1X11615Y13024D1*
G1X11615Y13019D1*
G1X11615Y13010D1*
G1X11615Y13005D1*
G1X11615Y12999D1*
G1X11615Y12990D1*
G1X11615Y12979D1*
G1X11615Y12970D1*
G1X11615Y12962D1*
G1X11615Y12953D1*
G1X11618Y12945D1*
G1X11618Y12936D1*
G1X11618Y12928D1*
G1X11621Y12919D1*
G1X11621Y12913D1*
G1X11621Y12905D1*
G1X11623Y12899D1*
G1X11623Y12891D1*
G1X11626Y12885D1*
G1X11626Y12876D1*
G1X11629Y12871D1*
G1X11632Y12865D1*
G1X11632Y12859D1*
G1X11635Y12854D1*
G1X11638Y12848D1*
G1X11641Y12842D1*
G1X11643Y12837D1*
G1X11646Y12831D1*
G1X11646Y12828D1*
G1X11649Y12822D1*
G1X11652Y12817D1*
G1X11655Y12811D1*
G1X11658Y12808D1*
G1X11660Y12802D1*
G1X11663Y12797D1*
G1X11666Y12794D1*
G1X11669Y12788D1*
G1X11675Y12785D1*
G1X11678Y12780D1*
G1X11680Y12777D1*
G1X11683Y12771D1*
G1X11686Y12768D1*
G1X11689Y12765D1*
G1X11695Y12760D1*
G1X11697Y12757D1*
G1X11700Y12754D1*
G1X11706Y12748D1*
G1X11709Y12745D1*
G1X11715Y12743D1*
G1X11717Y12740D1*
G1X11723Y12737D1*
G1X11726Y12734D1*
G1X11732Y12731D1*
G1X11734Y12728D1*
G1X11737Y12726D1*
G1X11743Y12723D1*
G1X11749Y12723D1*
G1X11752Y12720D1*
G1X11757Y12717D1*
G1X11760Y12717D1*
G1X11766Y12714D1*
G1X11769Y12711D1*
G1X11774Y12711D1*
G1X11777Y12708D1*
G1X11783Y12708D1*
G1X11789Y12706D1*
G1X11794Y12706D1*
G1X11803Y12703D1*
G1X11809Y12703D1*
G1X11814Y12700D1*
G1X11820Y12700D1*
G1X11826Y12700D1*
G1X11831Y12697D1*
G1X11837Y12697D1*
G1X11843Y12697D1*
G1X11848Y12694D1*
G1X11854Y12694D1*
G1X11860Y12694D1*
G1X11865Y12694D1*
G1X11871Y12691D1*
G1X11877Y12691D1*
G1X11883Y12691D1*
G1X11885Y12691D1*
G1X11891Y12691D1*
G1X11897Y12691D1*
G1X12176Y12691D1*
G1X12176Y13303D1*
G1X11897Y13303D1*
G37*
%LPC*%
G36*
G1X11988Y12831D2*
G1X11942Y12831D1*
G1X11937Y12831D1*
G1X11931Y12831D1*
G1X11925Y12831D1*
G1X11920Y12831D1*
G1X11914Y12831D1*
G1X11911Y12831D1*
G1X11905Y12834D1*
G1X11900Y12834D1*
G1X11897Y12834D1*
G1X11891Y12834D1*
G1X11888Y12837D1*
G1X11883Y12837D1*
G1X11880Y12837D1*
G1X11877Y12837D1*
G1X11874Y12839D1*
G1X11871Y12839D1*
G1X11868Y12842D1*
G1X11865Y12842D1*
G1X11863Y12845D1*
G1X11860Y12845D1*
G1X11857Y12845D1*
G1X11854Y12848D1*
G1X11851Y12848D1*
G1X11851Y12851D1*
G1X11848Y12854D1*
G1X11846Y12854D1*
G1X11843Y12856D1*
G1X11840Y12856D1*
G1X11840Y12859D1*
G1X11837Y12862D1*
G1X11834Y12865D1*
G1X11834Y12868D1*
G1X11831Y12871D1*
G1X11828Y12874D1*
G1X11828Y12876D1*
G1X11826Y12879D1*
G1X11826Y12882D1*
G1X11823Y12885D1*
G1X11823Y12888D1*
G1X11820Y12891D1*
G1X11820Y12893D1*
G1X11817Y12896D1*
G1X11817Y12902D1*
G1X11814Y12905D1*
G1X11814Y12908D1*
G1X11811Y12913D1*
G1X11811Y12919D1*
G1X11811Y12922D1*
G1X11811Y12928D1*
G1X11809Y12933D1*
G1X11809Y12939D1*
G1X11809Y12945D1*
G1X11809Y12950D1*
G1X11806Y12956D1*
G1X11806Y12962D1*
G1X11806Y12968D1*
G1X11806Y12976D1*
G1X11806Y12982D1*
G1X11806Y12987D1*
G1X11806Y12996D1*
G1X11806Y13005D1*
G1X11806Y13016D1*
G1X11806Y13024D1*
G1X11806Y13033D1*
G1X11809Y13042D1*
G1X11809Y13047D1*
G1X11809Y13056D1*
G1X11811Y13064D1*
G1X11811Y13070D1*
G1X11814Y13076D1*
G1X11814Y13084D1*
G1X11817Y13090D1*
G1X11820Y13096D1*
G1X11820Y13101D1*
G1X11823Y13107D1*
G1X11826Y13110D1*
G1X11828Y13116D1*
G1X11831Y13118D1*
G1X11834Y13124D1*
G1X11837Y13127D1*
G1X11840Y13130D1*
G1X11843Y13133D1*
G1X11848Y13138D1*
G1X11851Y13141D1*
G1X11854Y13144D1*
G1X11860Y13147D1*
G1X11865Y13150D1*
G1X11868Y13150D1*
G1X11874Y13153D1*
G1X11880Y13155D1*
G1X11885Y13155D1*
G1X11891Y13158D1*
G1X11897Y13158D1*
G1X11902Y13161D1*
G1X11908Y13161D1*
G1X11914Y13161D1*
G1X11922Y13164D1*
G1X11928Y13164D1*
G1X11934Y13164D1*
G1X11942Y13164D1*
G1X11988Y13164D1*
G1X11988Y12831D1*
G37*
%LPD*%
G36*
G1X11532Y13010D2*
G1X11532Y13013D1*
G1X11530Y13019D1*
G1X11530Y13022D1*
G1X11530Y13027D1*
G1X11527Y13030D1*
G1X11527Y13033D1*
G1X11527Y13039D1*
G1X11524Y13042D1*
G1X11524Y13044D1*
G1X11521Y13050D1*
G1X11521Y13053D1*
G1X11518Y13056D1*
G1X11518Y13059D1*
G1X11515Y13061D1*
G1X11515Y13064D1*
G1X11512Y13067D1*
G1X11512Y13070D1*
G1X11510Y13073D1*
G1X11510Y13076D1*
G1X11507Y13079D1*
G1X11504Y13081D1*
G1X11504Y13084D1*
G1X11501Y13084D1*
G1X11498Y13087D1*
G1X11498Y13090D1*
G1X11495Y13093D1*
G1X11492Y13093D1*
G1X11490Y13096D1*
G1X11487Y13098D1*
G1X11484Y13098D1*
G1X11484Y13101D1*
G1X11481Y13104D1*
G1X11478Y13107D1*
G1X11475Y13107D1*
G1X11473Y13110D1*
G1X11470Y13113D1*
G1X11464Y13113D1*
G1X11461Y13116D1*
G1X11458Y13116D1*
G1X11455Y13118D1*
G1X11453Y13118D1*
G1X11450Y13121D1*
G1X11447Y13121D1*
G1X11447Y13124D1*
G1X11444Y13124D1*
G1X11441Y13127D1*
G1X11438Y13127D1*
G1X11436Y13130D1*
G1X11433Y13130D1*
G1X11427Y13130D1*
G1X11424Y13133D1*
G1X11421Y13133D1*
G1X11418Y13135D1*
G1X11416Y13135D1*
G1X11413Y13135D1*
G1X11407Y13138D1*
G1X11404Y13138D1*
G1X11401Y13138D1*
G1X11396Y13141D1*
G1X11393Y13141D1*
G1X11390Y13141D1*
G1X11384Y13141D1*
G1X11381Y13144D1*
G1X11376Y13144D1*
G1X11373Y13144D1*
G1X11367Y13144D1*
G1X11364Y13144D1*
G1X11359Y13144D1*
G1X11356Y13144D1*
G1X11350Y13144D1*
G1X11347Y13147D1*
G1X11342Y13147D1*
G1X11339Y13147D1*
G1X11333Y13147D1*
G1X11327Y13147D1*
G1X11325Y13147D1*
G1X11319Y13147D1*
G1X11313Y13147D1*
G1X11310Y13147D1*
G1X11305Y13147D1*
G1X11296Y13147D1*
G1X11290Y13147D1*
G1X11282Y13147D1*
G1X11276Y13147D1*
G1X11268Y13147D1*
G1X11262Y13147D1*
G1X11253Y13147D1*
G1X11248Y13147D1*
G1X11242Y13144D1*
G1X11236Y13144D1*
G1X11231Y13144D1*
G1X11225Y13144D1*
G1X11219Y13144D1*
G1X11213Y13144D1*
G1X11208Y13141D1*
G1X11202Y13141D1*
G1X11196Y13141D1*
G1X11191Y13141D1*
G1X11188Y13138D1*
G1X11182Y13138D1*
G1X11176Y13138D1*
G1X11174Y13135D1*
G1X11168Y13135D1*
G1X11165Y13135D1*
G1X11159Y13133D1*
G1X11157Y13133D1*
G1X11151Y13130D1*
G1X11148Y13127D1*
G1X11145Y13127D1*
G1X11139Y13124D1*
G1X11137Y13124D1*
G1X11134Y13121D1*
G1X11128Y13118D1*
G1X11125Y13116D1*
G1X11122Y13116D1*
G1X11120Y13113D1*
G1X11114Y13110D1*
G1X11111Y13107D1*
G1X11108Y13104D1*
G1X11105Y13101D1*
G1X11102Y13098D1*
G1X11102Y13098D1*
G1X11100Y13096D1*
G1X11097Y13093D1*
G1X11097Y13093D1*
G1X11094Y13090D1*
G1X11091Y13087D1*
G1X11091Y13084D1*
G1X11088Y13081D1*
G1X11088Y13079D1*
G1X11085Y13079D1*
G1X11083Y13076D1*
G1X11083Y13073D1*
G1X11080Y13070D1*
G1X11080Y13067D1*
G1X11077Y13064D1*
G1X11077Y13059D1*
G1X11074Y13056D1*
G1X11074Y13053D1*
G1X11071Y13050D1*
G1X11071Y13047D1*
G1X11068Y13042D1*
G1X11068Y13039D1*
G1X11068Y13036D1*
G1X11065Y13033D1*
G1X11065Y13027D1*
G1X11065Y13024D1*
G1X11063Y13022D1*
G1X11063Y13019D1*
G1X11063Y13016D1*
G1X11063Y13010D1*
G1X11063Y13007D1*
G1X11060Y13005D1*
G1X11060Y13002D1*
G1X11060Y12999D1*
G1X11060Y12993D1*
G1X11060Y12990D1*
G1X11060Y12987D1*
G1X11060Y12985D1*
G1X11060Y12982D1*
G1X11060Y12785D1*
G1X11060Y12782D1*
G1X11060Y12780D1*
G1X11060Y12777D1*
G1X11060Y12774D1*
G1X11060Y12771D1*
G1X11060Y12768D1*
G1X11060Y12765D1*
G1X11060Y12763D1*
G1X11060Y12760D1*
G1X11060Y12757D1*
G1X11060Y12754D1*
G1X11060Y12754D1*
G1X11060Y12751D1*
G1X11060Y12748D1*
G1X11057Y12745D1*
G1X11057Y12745D1*
G1X11057Y12743D1*
G1X11057Y12740D1*
G1X11057Y12740D1*
G1X11057Y12737D1*
G1X11057Y12734D1*
G1X11057Y12734D1*
G1X11054Y12731D1*
G1X11054Y12728D1*
G1X11054Y12728D1*
G1X11054Y12726D1*
G1X11051Y12723D1*
G1X11051Y12723D1*
G1X11051Y12720D1*
G1X11048Y12717D1*
G1X11048Y12714D1*
G1X11048Y12711D1*
G1X11048Y12711D1*
G1X11046Y12708D1*
G1X11046Y12706D1*
G1X11046Y12703D1*
G1X11043Y12700D1*
G1X11043Y12697D1*
G1X11040Y12694D1*
G1X11040Y12691D1*
G1X11196Y12691D1*
G1X11196Y12694D1*
G1X11199Y12694D1*
G1X11199Y12697D1*
G1X11199Y12697D1*
G1X11202Y12700D1*
G1X11202Y12700D1*
G1X11202Y12703D1*
G1X11205Y12703D1*
G1X11205Y12706D1*
G1X11205Y12706D1*
G1X11205Y12708D1*
G1X11208Y12708D1*
G1X11208Y12711D1*
G1X11208Y12711D1*
G1X11208Y12711D1*
G1X11208Y12714D1*
G1X11211Y12714D1*
G1X11211Y12714D1*
G1X11211Y12717D1*
G1X11211Y12717D1*
G1X11211Y12717D1*
G1X11211Y12720D1*
G1X11211Y12720D1*
G1X11211Y12720D1*
G1X11211Y12723D1*
G1X11213Y12723D1*
G1X11213Y12726D1*
G1X11213Y12726D1*
G1X11213Y12728D1*
G1X11213Y12728D1*
G1X11213Y12731D1*
G1X11213Y12731D1*
G1X11213Y12734D1*
G1X11213Y12734D1*
G1X11213Y12737D1*
G1X11216Y12737D1*
G1X11216Y12740D1*
G1X11216Y12743D1*
G1X11216Y12743D1*
G1X11216Y12745D1*
G1X11219Y12743D1*
G1X11222Y12740D1*
G1X11225Y12737D1*
G1X11228Y12731D1*
G1X11233Y12728D1*
G1X11236Y12726D1*
G1X11239Y12723D1*
G1X11242Y12723D1*
G1X11245Y12720D1*
G1X11248Y12717D1*
G1X11251Y12714D1*
G1X11256Y12711D1*
G1X11259Y12708D1*
G1X11262Y12708D1*
G1X11265Y12706D1*
G1X11268Y12703D1*
G1X11270Y12703D1*
G1X11276Y12700D1*
G1X11279Y12700D1*
G1X11282Y12697D1*
G1X11288Y12694D1*
G1X11290Y12694D1*
G1X11296Y12691D1*
G1X11302Y12691D1*
G1X11305Y12691D1*
G1X11310Y12691D1*
G1X11316Y12691D1*
G1X11319Y12689D1*
G1X11325Y12689D1*
G1X11330Y12689D1*
G1X11336Y12686D1*
G1X11342Y12686D1*
G1X11344Y12686D1*
G1X11350Y12686D1*
G1X11356Y12683D1*
G1X11362Y12683D1*
G1X11367Y12683D1*
G1X11373Y12683D1*
G1X11379Y12683D1*
G1X11384Y12683D1*
G1X11393Y12683D1*
G1X11399Y12683D1*
G1X11407Y12683D1*
G1X11416Y12686D1*
G1X11421Y12686D1*
G1X11430Y12686D1*
G1X11436Y12689D1*
G1X11441Y12689D1*
G1X11450Y12691D1*
G1X11455Y12691D1*
G1X11461Y12691D1*
G1X11467Y12694D1*
G1X11473Y12694D1*
G1X11478Y12697D1*
G1X11484Y12700D1*
G1X11487Y12703D1*
G1X11492Y12706D1*
G1X11498Y12711D1*
G1X11501Y12714D1*
G1X11507Y12717D1*
G1X11510Y12720D1*
G1X11515Y12726D1*
G1X11518Y12728D1*
G1X11521Y12731D1*
G1X11524Y12737D1*
G1X11527Y12740D1*
G1X11530Y12745D1*
G1X11532Y12748D1*
G1X11535Y12754D1*
G1X11535Y12757D1*
G1X11538Y12763D1*
G1X11541Y12768D1*
G1X11541Y12771D1*
G1X11544Y12777D1*
G1X11544Y12782D1*
G1X11544Y12788D1*
G1X11547Y12791D1*
G1X11547Y12797D1*
G1X11547Y12802D1*
G1X11547Y12808D1*
G1X11547Y12814D1*
G1X11547Y12819D1*
G1X11547Y12822D1*
G1X11547Y12828D1*
G1X11544Y12834D1*
G1X11544Y12837D1*
G1X11544Y12842D1*
G1X11541Y12845D1*
G1X11541Y12851D1*
G1X11538Y12856D1*
G1X11538Y12859D1*
G1X11535Y12862D1*
G1X11535Y12868D1*
G1X11532Y12871D1*
G1X11530Y12876D1*
G1X11530Y12879D1*
G1X11527Y12882D1*
G1X11524Y12888D1*
G1X11521Y12891D1*
G1X11518Y12893D1*
G1X11515Y12896D1*
G1X11512Y12899D1*
G1X11507Y12902D1*
G1X11504Y12908D1*
G1X11498Y12911D1*
G1X11495Y12913D1*
G1X11490Y12916D1*
G1X11484Y12916D1*
G1X11481Y12919D1*
G1X11475Y12922D1*
G1X11470Y12925D1*
G1X11464Y12928D1*
G1X11458Y12931D1*
G1X11450Y12931D1*
G1X11444Y12933D1*
G1X11438Y12936D1*
G1X11430Y12936D1*
G1X11421Y12939D1*
G1X11416Y12939D1*
G1X11407Y12942D1*
G1X11399Y12945D1*
G1X11390Y12945D1*
G1X11381Y12948D1*
G1X11373Y12950D1*
G1X11364Y12950D1*
G1X11356Y12953D1*
G1X11350Y12953D1*
G1X11342Y12956D1*
G1X11336Y12956D1*
G1X11330Y12959D1*
G1X11325Y12959D1*
G1X11319Y12962D1*
G1X11313Y12962D1*
G1X11307Y12965D1*
G1X11302Y12965D1*
G1X11299Y12968D1*
G1X11296Y12968D1*
G1X11290Y12968D1*
G1X11288Y12970D1*
G1X11285Y12970D1*
G1X11282Y12970D1*
G1X11279Y12973D1*
G1X11276Y12973D1*
G1X11273Y12973D1*
G1X11270Y12976D1*
G1X11268Y12976D1*
G1X11265Y12976D1*
G1X11262Y12979D1*
G1X11259Y12979D1*
G1X11256Y12979D1*
G1X11253Y12982D1*
G1X11251Y12982D1*
G1X11248Y12982D1*
G1X11245Y12985D1*
G1X11239Y12985D1*
G1X11236Y12985D1*
G1X11233Y12987D1*
G1X11231Y12987D1*
G1X11228Y12990D1*
G1X11225Y12990D1*
G1X11225Y12993D1*
G1X11225Y12996D1*
G1X11225Y12999D1*
G1X11225Y13002D1*
G1X11225Y13005D1*
G1X11225Y13007D1*
G1X11225Y13010D1*
G1X11228Y13013D1*
G1X11228Y13016D1*
G1X11228Y13019D1*
G1X11228Y13019D1*
G1X11228Y13022D1*
G1X11231Y13024D1*
G1X11231Y13024D1*
G1X11231Y13027D1*
G1X11233Y13030D1*
G1X11233Y13030D1*
G1X11233Y13033D1*
G1X11236Y13033D1*
G1X11236Y13036D1*
G1X11239Y13036D1*
G1X11239Y13039D1*
G1X11242Y13039D1*
G1X11242Y13039D1*
G1X11245Y13042D1*
G1X11248Y13042D1*
G1X11248Y13042D1*
G1X11251Y13044D1*
G1X11253Y13044D1*
G1X11253Y13044D1*
G1X11256Y13044D1*
G1X11259Y13044D1*
G1X11262Y13047D1*
G1X11265Y13047D1*
G1X11268Y13047D1*
G1X11270Y13047D1*
G1X11273Y13047D1*
G1X11276Y13047D1*
G1X11279Y13047D1*
G1X11282Y13047D1*
G1X11285Y13047D1*
G1X11290Y13047D1*
G1X11293Y13047D1*
G1X11299Y13047D1*
G1X11302Y13047D1*
G1X11305Y13047D1*
G1X11310Y13044D1*
G1X11313Y13044D1*
G1X11316Y13044D1*
G1X11319Y13044D1*
G1X11322Y13042D1*
G1X11325Y13042D1*
G1X11327Y13042D1*
G1X11330Y13042D1*
G1X11333Y13039D1*
G1X11336Y13039D1*
G1X11339Y13036D1*
G1X11342Y13036D1*
G1X11342Y13033D1*
G1X11344Y13033D1*
G1X11347Y13033D1*
G1X11347Y13030D1*
G1X11350Y13030D1*
G1X11350Y13027D1*
G1X11353Y13027D1*
G1X11353Y13024D1*
G1X11356Y13022D1*
G1X11356Y13022D1*
G1X11359Y13019D1*
G1X11359Y13019D1*
G1X11362Y13016D1*
G1X11362Y13013D1*
G1X11364Y13010D1*
G1X11364Y13007D1*
G1X11364Y13007D1*
G1X11367Y13005D1*
G1X11367Y13002D1*
G1X11367Y12999D1*
G1X11370Y12996D1*
G1X11370Y12993D1*
G1X11370Y12993D1*
G1X11532Y13010D1*
G37*
%LPC*%
G36*
G1X11228Y12905D2*
G1X11231Y12902D1*
G1X11236Y12902D1*
G1X11239Y12899D1*
G1X11242Y12899D1*
G1X11245Y12896D1*
G1X11251Y12896D1*
G1X11253Y12893D1*
G1X11256Y12893D1*
G1X11259Y12891D1*
G1X11265Y12891D1*
G1X11268Y12891D1*
G1X11270Y12888D1*
G1X11273Y12888D1*
G1X11279Y12888D1*
G1X11282Y12885D1*
G1X11285Y12885D1*
G1X11288Y12885D1*
G1X11293Y12882D1*
G1X11296Y12882D1*
G1X11302Y12882D1*
G1X11305Y12879D1*
G1X11310Y12876D1*
G1X11316Y12876D1*
G1X11319Y12876D1*
G1X11325Y12874D1*
G1X11327Y12874D1*
G1X11330Y12871D1*
G1X11336Y12868D1*
G1X11339Y12868D1*
G1X11342Y12868D1*
G1X11344Y12865D1*
G1X11347Y12865D1*
G1X11350Y12862D1*
G1X11353Y12862D1*
G1X11353Y12859D1*
G1X11356Y12859D1*
G1X11359Y12856D1*
G1X11359Y12856D1*
G1X11362Y12854D1*
G1X11362Y12851D1*
G1X11364Y12851D1*
G1X11364Y12848D1*
G1X11367Y12848D1*
G1X11367Y12845D1*
G1X11370Y12845D1*
G1X11370Y12842D1*
G1X11370Y12842D1*
G1X11370Y12839D1*
G1X11373Y12839D1*
G1X11373Y12837D1*
G1X11373Y12837D1*
G1X11373Y12834D1*
G1X11376Y12834D1*
G1X11376Y12831D1*
G1X11376Y12828D1*
G1X11376Y12828D1*
G1X11376Y12825D1*
G1X11376Y12825D1*
G1X11376Y12822D1*
G1X11376Y12819D1*
G1X11376Y12817D1*
G1X11376Y12817D1*
G1X11376Y12814D1*
G1X11376Y12811D1*
G1X11376Y12811D1*
G1X11373Y12808D1*
G1X11373Y12805D1*
G1X11373Y12805D1*
G1X11373Y12802D1*
G1X11370Y12800D1*
G1X11370Y12800D1*
G1X11370Y12797D1*
G1X11370Y12797D1*
G1X11367Y12794D1*
G1X11367Y12794D1*
G1X11364Y12791D1*
G1X11364Y12791D1*
G1X11362Y12788D1*
G1X11362Y12788D1*
G1X11359Y12788D1*
G1X11359Y12785D1*
G1X11356Y12785D1*
G1X11356Y12782D1*
G1X11353Y12782D1*
G1X11353Y12780D1*
G1X11350Y12780D1*
G1X11347Y12780D1*
G1X11347Y12780D1*
G1X11344Y12777D1*
G1X11342Y12777D1*
G1X11342Y12777D1*
G1X11339Y12777D1*
G1X11336Y12774D1*
G1X11333Y12774D1*
G1X11330Y12774D1*
G1X11330Y12774D1*
G1X11327Y12774D1*
G1X11325Y12774D1*
G1X11322Y12774D1*
G1X11319Y12774D1*
G1X11316Y12774D1*
G1X11313Y12774D1*
G1X11310Y12774D1*
G1X11307Y12774D1*
G1X11305Y12774D1*
G1X11302Y12777D1*
G1X11299Y12777D1*
G1X11296Y12777D1*
G1X11293Y12777D1*
G1X11293Y12780D1*
G1X11290Y12780D1*
G1X11288Y12780D1*
G1X11285Y12780D1*
G1X11282Y12782D1*
G1X11279Y12782D1*
G1X11276Y12785D1*
G1X11276Y12785D1*
G1X11273Y12788D1*
G1X11270Y12788D1*
G1X11268Y12791D1*
G1X11265Y12791D1*
G1X11262Y12794D1*
G1X11262Y12794D1*
G1X11259Y12797D1*
G1X11256Y12797D1*
G1X11253Y12800D1*
G1X11253Y12800D1*
G1X11251Y12802D1*
G1X11248Y12802D1*
G1X11248Y12805D1*
G1X11245Y12808D1*
G1X11245Y12808D1*
G1X11242Y12811D1*
G1X11242Y12814D1*
G1X11239Y12814D1*
G1X11239Y12817D1*
G1X11239Y12819D1*
G1X11236Y12819D1*
G1X11236Y12822D1*
G1X11236Y12825D1*
G1X11233Y12828D1*
G1X11233Y12828D1*
G1X11233Y12831D1*
G1X11231Y12834D1*
G1X11231Y12837D1*
G1X11231Y12839D1*
G1X11228Y12842D1*
G1X11228Y12845D1*
G1X11228Y12848D1*
G1X11228Y12851D1*
G1X11228Y12854D1*
G1X11225Y12856D1*
G1X11225Y12859D1*
G1X11225Y12862D1*
G1X11225Y12865D1*
G1X11225Y12868D1*
G1X11225Y12871D1*
G1X11225Y12874D1*
G1X11225Y12876D1*
G1X11225Y12905D1*
G1X11228Y12905D1*
G37*
%LPD*%
G36*
G1X10832Y13135D2*
G1X10744Y12854D1*
G1X10655Y13135D1*
G1X10485Y13135D1*
G1X10673Y12691D1*
G1X10823Y12691D1*
G1X11009Y13135D1*
G1X10832Y13135D1*
G37*
G36*
G1X10260Y13303D2*
G1X10260Y13190D1*
G1X10431Y13190D1*
G1X10431Y13303D1*
G1X10260Y13303D1*
G37*
G36*
G1X10260Y13135D2*
G1X10260Y12691D1*
G1X10431Y12691D1*
G1X10431Y13135D1*
G1X10260Y13135D1*
G37*
G36*
G1X9685Y12691D2*
G1X9844Y12691D1*
G1X9844Y12757D1*
G1X9847Y12754D1*
G1X9850Y12748D1*
G1X9853Y12745D1*
G1X9855Y12740D1*
G1X9858Y12737D1*
G1X9864Y12734D1*
G1X9867Y12731D1*
G1X9870Y12728D1*
G1X9873Y12726D1*
G1X9875Y12723D1*
G1X9878Y12720D1*
G1X9881Y12717D1*
G1X9884Y12714D1*
G1X9887Y12711D1*
G1X9890Y12708D1*
G1X9892Y12706D1*
G1X9895Y12706D1*
G1X9898Y12703D1*
G1X9901Y12703D1*
G1X9904Y12700D1*
G1X9907Y12697D1*
G1X9912Y12697D1*
G1X9915Y12694D1*
G1X9918Y12691D1*
G1X9924Y12691D1*
G1X9927Y12691D1*
G1X9930Y12691D1*
G1X9935Y12691D1*
G1X9938Y12689D1*
G1X9944Y12689D1*
G1X9947Y12686D1*
G1X9952Y12686D1*
G1X9955Y12686D1*
G1X9961Y12686D1*
G1X9964Y12683D1*
G1X9969Y12683D1*
G1X9972Y12683D1*
G1X9978Y12683D1*
G1X9981Y12683D1*
G1X9986Y12683D1*
G1X9995Y12683D1*
G1X10004Y12683D1*
G1X10012Y12686D1*
G1X10021Y12686D1*
G1X10029Y12686D1*
G1X10035Y12689D1*
G1X10043Y12691D1*
G1X10052Y12691D1*
G1X10058Y12694D1*
G1X10063Y12697D1*
G1X10072Y12700D1*
G1X10078Y12706D1*
G1X10083Y12708D1*
G1X10092Y12714D1*
G1X10097Y12720D1*
G1X10103Y12723D1*
G1X10109Y12728D1*
G1X10112Y12734D1*
G1X10117Y12743D1*
G1X10123Y12748D1*
G1X10129Y12757D1*
G1X10132Y12763D1*
G1X10137Y12771D1*
G1X10140Y12777D1*
G1X10143Y12785D1*
G1X10149Y12794D1*
G1X10152Y12802D1*
G1X10154Y12811D1*
G1X10157Y12819D1*
G1X10160Y12825D1*
G1X10163Y12837D1*
G1X10163Y12845D1*
G1X10166Y12854D1*
G1X10166Y12862D1*
G1X10169Y12871D1*
G1X10169Y12879D1*
G1X10171Y12891D1*
G1X10171Y12899D1*
G1X10171Y12911D1*
G1X10171Y12919D1*
G1X10171Y12931D1*
G1X10171Y12942D1*
G1X10171Y12950D1*
G1X10169Y12962D1*
G1X10169Y12970D1*
G1X10166Y12982D1*
G1X10166Y12990D1*
G1X10163Y12999D1*
G1X10160Y13007D1*
G1X10157Y13016D1*
G1X10154Y13024D1*
G1X10152Y13033D1*
G1X10149Y13042D1*
G1X10146Y13047D1*
G1X10140Y13056D1*
G1X10137Y13061D1*
G1X10132Y13070D1*
G1X10129Y13076D1*
G1X10123Y13081D1*
G1X10117Y13087D1*
G1X10112Y13093D1*
G1X10106Y13098D1*
G1X10100Y13104D1*
G1X10095Y13110D1*
G1X10089Y13113D1*
G1X10083Y13118D1*
G1X10078Y13121D1*
G1X10072Y13124D1*
G1X10066Y13130D1*
G1X10058Y13133D1*
G1X10052Y13135D1*
G1X10043Y13138D1*
G1X10038Y13138D1*
G1X10029Y13141D1*
G1X10023Y13144D1*
G1X10015Y13144D1*
G1X10006Y13147D1*
G1X10001Y13147D1*
G1X9992Y13147D1*
G1X9984Y13147D1*
G1X9981Y13147D1*
G1X9975Y13147D1*
G1X9972Y13147D1*
G1X9969Y13147D1*
G1X9964Y13147D1*
G1X9961Y13147D1*
G1X9958Y13144D1*
G1X9952Y13144D1*
G1X9949Y13144D1*
G1X9947Y13144D1*
G1X9944Y13141D1*
G1X9938Y13141D1*
G1X9935Y13141D1*
G1X9932Y13141D1*
G1X9930Y13138D1*
G1X9927Y13138D1*
G1X9921Y13135D1*
G1X9918Y13135D1*
G1X9915Y13133D1*
G1X9912Y13133D1*
G1X9910Y13133D1*
G1X9907Y13130D1*
G1X9904Y13130D1*
G1X9901Y13127D1*
G1X9898Y13127D1*
G1X9895Y13124D1*
G1X9892Y13121D1*
G1X9890Y13121D1*
G1X9887Y13118D1*
G1X9881Y13116D1*
G1X9881Y13116D1*
G1X9878Y13113D1*
G1X9875Y13110D1*
G1X9873Y13107D1*
G1X9870Y13107D1*
G1X9867Y13104D1*
G1X9864Y13101D1*
G1X9861Y13098D1*
G1X9858Y13096D1*
G1X9855Y13093D1*
G1X9855Y13303D1*
G1X9685Y13303D1*
G1X9685Y12691D1*
G37*
%LPC*%
G36*
G1X9855Y12919D2*
G1X9855Y12925D1*
G1X9855Y12928D1*
G1X9855Y12933D1*
G1X9855Y12939D1*
G1X9858Y12942D1*
G1X9858Y12948D1*
G1X9858Y12953D1*
G1X9858Y12956D1*
G1X9861Y12962D1*
G1X9861Y12965D1*
G1X9864Y12968D1*
G1X9864Y12970D1*
G1X9864Y12976D1*
G1X9867Y12979D1*
G1X9867Y12982D1*
G1X9870Y12985D1*
G1X9873Y12987D1*
G1X9873Y12990D1*
G1X9875Y12993D1*
G1X9878Y12996D1*
G1X9881Y12999D1*
G1X9881Y12999D1*
G1X9884Y13002D1*
G1X9887Y13005D1*
G1X9890Y13007D1*
G1X9892Y13007D1*
G1X9895Y13010D1*
G1X9898Y13010D1*
G1X9901Y13013D1*
G1X9904Y13013D1*
G1X9907Y13016D1*
G1X9910Y13016D1*
G1X9912Y13016D1*
G1X9915Y13016D1*
G1X9918Y13019D1*
G1X9921Y13019D1*
G1X9927Y13019D1*
G1X9930Y13019D1*
G1X9932Y13019D1*
G1X9935Y13019D1*
G1X9938Y13019D1*
G1X9941Y13019D1*
G1X9944Y13019D1*
G1X9947Y13016D1*
G1X9949Y13016D1*
G1X9952Y13016D1*
G1X9955Y13016D1*
G1X9955Y13013D1*
G1X9958Y13013D1*
G1X9961Y13010D1*
G1X9964Y13010D1*
G1X9967Y13007D1*
G1X9969Y13007D1*
G1X9969Y13005D1*
G1X9972Y13002D1*
G1X9975Y12999D1*
G1X9978Y12999D1*
G1X9978Y12996D1*
G1X9981Y12993D1*
G1X9984Y12990D1*
G1X9984Y12987D1*
G1X9986Y12985D1*
G1X9989Y12982D1*
G1X9989Y12979D1*
G1X9992Y12976D1*
G1X9992Y12973D1*
G1X9992Y12970D1*
G1X9995Y12965D1*
G1X9995Y12962D1*
G1X9998Y12956D1*
G1X9998Y12953D1*
G1X9998Y12948D1*
G1X9998Y12942D1*
G1X10001Y12939D1*
G1X10001Y12933D1*
G1X10001Y12928D1*
G1X10001Y12922D1*
G1X10001Y12916D1*
G1X10001Y12911D1*
G1X10001Y12905D1*
G1X10001Y12899D1*
G1X10001Y12896D1*
G1X10001Y12891D1*
G1X10001Y12885D1*
G1X9998Y12879D1*
G1X9998Y12876D1*
G1X9998Y12871D1*
G1X9998Y12868D1*
G1X9995Y12865D1*
G1X9995Y12859D1*
G1X9992Y12856D1*
G1X9992Y12854D1*
G1X9992Y12848D1*
G1X9989Y12845D1*
G1X9989Y12842D1*
G1X9986Y12839D1*
G1X9984Y12837D1*
G1X9984Y12834D1*
G1X9981Y12831D1*
G1X9978Y12828D1*
G1X9978Y12825D1*
G1X9975Y12825D1*
G1X9972Y12822D1*
G1X9969Y12819D1*
G1X9967Y12817D1*
G1X9967Y12817D1*
G1X9964Y12814D1*
G1X9961Y12814D1*
G1X9958Y12811D1*
G1X9955Y12811D1*
G1X9952Y12808D1*
G1X9949Y12808D1*
G1X9947Y12808D1*
G1X9944Y12808D1*
G1X9941Y12805D1*
G1X9938Y12805D1*
G1X9935Y12805D1*
G1X9932Y12805D1*
G1X9930Y12805D1*
G1X9927Y12805D1*
G1X9924Y12805D1*
G1X9921Y12805D1*
G1X9918Y12805D1*
G1X9915Y12808D1*
G1X9912Y12808D1*
G1X9910Y12808D1*
G1X9907Y12808D1*
G1X9904Y12811D1*
G1X9901Y12811D1*
G1X9898Y12814D1*
G1X9895Y12814D1*
G1X9892Y12817D1*
G1X9890Y12817D1*
G1X9887Y12819D1*
G1X9884Y12822D1*
G1X9881Y12825D1*
G1X9881Y12825D1*
G1X9878Y12828D1*
G1X9875Y12831D1*
G1X9873Y12834D1*
G1X9873Y12837D1*
G1X9870Y12839D1*
G1X9867Y12842D1*
G1X9867Y12845D1*
G1X9864Y12848D1*
G1X9864Y12854D1*
G1X9864Y12856D1*
G1X9861Y12859D1*
G1X9861Y12865D1*
G1X9858Y12868D1*
G1X9858Y12874D1*
G1X9858Y12876D1*
G1X9858Y12882D1*
G1X9855Y12888D1*
G1X9855Y12891D1*
G1X9855Y12896D1*
G1X9855Y12902D1*
G1X9855Y12908D1*
G1X9855Y12913D1*
G1X9855Y12913D1*
G1X9855Y12919D1*
G37*
%LPD*%
G36*
G1X9098Y13303D2*
G1X9098Y12842D1*
G1X8802Y12842D1*
G1X8802Y12691D1*
G1X9286Y12691D1*
G1X9286Y13303D1*
G1X9098Y13303D1*
G37*
G36*
G1X8574Y12871D2*
G1X8574Y12868D1*
G1X8574Y12862D1*
G1X8571Y12859D1*
G1X8571Y12854D1*
G1X8571Y12851D1*
G1X8569Y12848D1*
G1X8569Y12842D1*
G1X8569Y12839D1*
G1X8566Y12837D1*
G1X8566Y12834D1*
G1X8566Y12831D1*
G1X8563Y12828D1*
G1X8563Y12825D1*
G1X8560Y12822D1*
G1X8560Y12819D1*
G1X8557Y12817D1*
G1X8557Y12814D1*
G1X8554Y12811D1*
G1X8554Y12811D1*
G1X8552Y12808D1*
G1X8549Y12805D1*
G1X8546Y12802D1*
G1X8543Y12800D1*
G1X8543Y12797D1*
G1X8540Y12797D1*
G1X8537Y12794D1*
G1X8534Y12791D1*
G1X8532Y12791D1*
G1X8529Y12788D1*
G1X8526Y12788D1*
G1X8520Y12785D1*
G1X8517Y12785D1*
G1X8515Y12782D1*
G1X8512Y12782D1*
G1X8509Y12782D1*
G1X8503Y12780D1*
G1X8500Y12780D1*
G1X8497Y12780D1*
G1X8492Y12780D1*
G1X8489Y12780D1*
G1X8486Y12780D1*
G1X8483Y12780D1*
G1X8480Y12780D1*
G1X8478Y12780D1*
G1X8478Y12780D1*
G1X8475Y12780D1*
G1X8472Y12780D1*
G1X8469Y12782D1*
G1X8466Y12782D1*
G1X8463Y12782D1*
G1X8460Y12782D1*
G1X8460Y12782D1*
G1X8458Y12785D1*
G1X8455Y12785D1*
G1X8452Y12785D1*
G1X8449Y12788D1*
G1X8446Y12788D1*
G1X8446Y12788D1*
G1X8443Y12791D1*
G1X8441Y12791D1*
G1X8441Y12791D1*
G1X8438Y12794D1*
G1X8438Y12794D1*
G1X8435Y12794D1*
G1X8435Y12797D1*
G1X8432Y12797D1*
G1X8432Y12800D1*
G1X8429Y12800D1*
G1X8429Y12802D1*
G1X8426Y12802D1*
G1X8426Y12805D1*
G1X8423Y12805D1*
G1X8423Y12808D1*
G1X8421Y12808D1*
G1X8421Y12811D1*
G1X8418Y12811D1*
G1X8418Y12814D1*
G1X8415Y12817D1*
G1X8415Y12817D1*
G1X8412Y12819D1*
G1X8244Y12805D1*
G1X8247Y12800D1*
G1X8253Y12791D1*
G1X8255Y12785D1*
G1X8258Y12780D1*
G1X8264Y12774D1*
G1X8267Y12768D1*
G1X8273Y12763D1*
G1X8278Y12757D1*
G1X8281Y12751D1*
G1X8287Y12748D1*
G1X8290Y12743D1*
G1X8295Y12737D1*
G1X8301Y12734D1*
G1X8307Y12728D1*
G1X8310Y12726D1*
G1X8315Y12723D1*
G1X8321Y12717D1*
G1X8327Y12714D1*
G1X8332Y12711D1*
G1X8338Y12708D1*
G1X8344Y12706D1*
G1X8349Y12703D1*
G1X8355Y12700D1*
G1X8361Y12697D1*
G1X8367Y12697D1*
G1X8375Y12694D1*
G1X8381Y12691D1*
G1X8389Y12691D1*
G1X8395Y12691D1*
G1X8404Y12691D1*
G1X8412Y12689D1*
G1X8421Y12689D1*
G1X8426Y12686D1*
G1X8435Y12686D1*
G1X8443Y12686D1*
G1X8455Y12683D1*
G1X8463Y12683D1*
G1X8472Y12683D1*
G1X8483Y12683D1*
G1X8492Y12683D1*
G1X8500Y12683D1*
G1X8509Y12683D1*
G1X8517Y12683D1*
G1X8526Y12683D1*
G1X8534Y12686D1*
G1X8540Y12686D1*
G1X8549Y12686D1*
G1X8557Y12686D1*
G1X8563Y12689D1*
G1X8571Y12689D1*
G1X8577Y12691D1*
G1X8586Y12691D1*
G1X8591Y12691D1*
G1X8597Y12691D1*
G1X8603Y12694D1*
G1X8609Y12697D1*
G1X8614Y12700D1*
G1X8620Y12700D1*
G1X8626Y12703D1*
G1X8631Y12706D1*
G1X8637Y12708D1*
G1X8643Y12711D1*
G1X8646Y12714D1*
G1X8651Y12717D1*
G1X8657Y12720D1*
G1X8660Y12723D1*
G1X8665Y12728D1*
G1X8668Y12731D1*
G1X8674Y12734D1*
G1X8677Y12740D1*
G1X8683Y12743D1*
G1X8685Y12745D1*
G1X8688Y12751D1*
G1X8694Y12757D1*
G1X8697Y12760D1*
G1X8700Y12765D1*
G1X8705Y12771D1*
G1X8708Y12774D1*
G1X8711Y12780D1*
G1X8714Y12785D1*
G1X8717Y12791D1*
G1X8720Y12797D1*
G1X8722Y12802D1*
G1X8725Y12808D1*
G1X8728Y12814D1*
G1X8731Y12819D1*
G1X8734Y12825D1*
G1X8737Y12831D1*
G1X8737Y12839D1*
G1X8739Y12845D1*
G1X8742Y12851D1*
G1X8742Y12856D1*
G1X8745Y12865D1*
G1X8745Y12871D1*
G1X8745Y12876D1*
G1X8748Y12885D1*
G1X8748Y12891D1*
G1X8748Y12899D1*
G1X8748Y12905D1*
G1X8748Y12913D1*
G1X8748Y12925D1*
G1X8748Y12933D1*
G1X8745Y12945D1*
G1X8745Y12953D1*
G1X8745Y12965D1*
G1X8742Y12973D1*
G1X8739Y12982D1*
G1X8737Y12990D1*
G1X8734Y12999D1*
G1X8731Y13007D1*
G1X8728Y13016D1*
G1X8725Y13024D1*
G1X8720Y13033D1*
G1X8717Y13039D1*
G1X8711Y13047D1*
G1X8705Y13056D1*
G1X8700Y13061D1*
G1X8694Y13067D1*
G1X8688Y13076D1*
G1X8683Y13081D1*
G1X8677Y13087D1*
G1X8668Y13093D1*
G1X8660Y13098D1*
G1X8654Y13104D1*
G1X8646Y13110D1*
G1X8637Y13116D1*
G1X8628Y13118D1*
G1X8620Y13124D1*
G1X8611Y13127D1*
G1X8603Y13130D1*
G1X8591Y13133D1*
G1X8583Y13135D1*
G1X8574Y13138D1*
G1X8563Y13141D1*
G1X8552Y13144D1*
G1X8543Y13144D1*
G1X8532Y13144D1*
G1X8520Y13147D1*
G1X8509Y13147D1*
G1X8497Y13147D1*
G1X8489Y13147D1*
G1X8480Y13147D1*
G1X8469Y13147D1*
G1X8460Y13147D1*
G1X8452Y13144D1*
G1X8443Y13144D1*
G1X8438Y13144D1*
G1X8429Y13141D1*
G1X8421Y13141D1*
G1X8415Y13138D1*
G1X8406Y13138D1*
G1X8398Y13135D1*
G1X8392Y13135D1*
G1X8386Y13133D1*
G1X8378Y13130D1*
G1X8372Y13130D1*
G1X8367Y13127D1*
G1X8361Y13124D1*
G1X8355Y13121D1*
G1X8349Y13118D1*
G1X8344Y13116D1*
G1X8338Y13113D1*
G1X8332Y13110D1*
G1X8327Y13107D1*
G1X8324Y13101D1*
G1X8318Y13098D1*
G1X8312Y13096D1*
G1X8310Y13090D1*
G1X8304Y13087D1*
G1X8301Y13081D1*
G1X8295Y13079D1*
G1X8292Y13073D1*
G1X8287Y13070D1*
G1X8284Y13064D1*
G1X8281Y13059D1*
G1X8275Y13056D1*
G1X8273Y13050D1*
G1X8270Y13044D1*
G1X8267Y13039D1*
G1X8264Y13033D1*
G1X8261Y13027D1*
G1X8258Y13022D1*
G1X8255Y13016D1*
G1X8253Y13010D1*
G1X8253Y13005D1*
G1X8250Y12999D1*
G1X8247Y12990D1*
G1X8247Y12985D1*
G1X8244Y12976D1*
G1X8241Y12970D1*
G1X8241Y12962D1*
G1X8241Y12956D1*
G1X8238Y12948D1*
G1X8238Y12942D1*
G1X8238Y12933D1*
G1X8236Y12925D1*
G1X8236Y12916D1*
G1X8236Y12908D1*
G1X8236Y12899D1*
G1X8236Y12891D1*
G1X8236Y12871D1*
G1X8574Y12871D1*
G37*
%LPC*%
G36*
G1X8409Y12959D2*
G1X8409Y12962D1*
G1X8412Y12968D1*
G1X8412Y12973D1*
G1X8412Y12976D1*
G1X8415Y12982D1*
G1X8415Y12985D1*
G1X8415Y12990D1*
G1X8418Y12993D1*
G1X8418Y12996D1*
G1X8421Y12999D1*
G1X8421Y13005D1*
G1X8423Y13007D1*
G1X8423Y13010D1*
G1X8426Y13013D1*
G1X8426Y13016D1*
G1X8429Y13019D1*
G1X8432Y13019D1*
G1X8432Y13022D1*
G1X8435Y13024D1*
G1X8438Y13027D1*
G1X8441Y13030D1*
G1X8441Y13030D1*
G1X8443Y13033D1*
G1X8446Y13036D1*
G1X8449Y13036D1*
G1X8452Y13039D1*
G1X8455Y13039D1*
G1X8458Y13042D1*
G1X8460Y13042D1*
G1X8463Y13042D1*
G1X8466Y13044D1*
G1X8469Y13044D1*
G1X8472Y13044D1*
G1X8475Y13047D1*
G1X8478Y13047D1*
G1X8480Y13047D1*
G1X8486Y13047D1*
G1X8489Y13047D1*
G1X8492Y13047D1*
G1X8495Y13047D1*
G1X8500Y13047D1*
G1X8503Y13047D1*
G1X8506Y13047D1*
G1X8512Y13044D1*
G1X8515Y13044D1*
G1X8517Y13044D1*
G1X8520Y13042D1*
G1X8523Y13042D1*
G1X8526Y13039D1*
G1X8532Y13036D1*
G1X8534Y13036D1*
G1X8537Y13033D1*
G1X8540Y13030D1*
G1X8543Y13027D1*
G1X8546Y13024D1*
G1X8546Y13022D1*
G1X8549Y13019D1*
G1X8552Y13016D1*
G1X8554Y13013D1*
G1X8554Y13010D1*
G1X8557Y13010D1*
G1X8557Y13007D1*
G1X8560Y13005D1*
G1X8560Y13002D1*
G1X8563Y12999D1*
G1X8563Y12996D1*
G1X8566Y12993D1*
G1X8566Y12990D1*
G1X8566Y12987D1*
G1X8569Y12985D1*
G1X8569Y12982D1*
G1X8569Y12979D1*
G1X8571Y12976D1*
G1X8571Y12973D1*
G1X8571Y12968D1*
G1X8571Y12965D1*
G1X8574Y12962D1*
G1X8574Y12956D1*
G1X8574Y12953D1*
G1X8409Y12953D1*
G1X8409Y12959D1*
G37*
%LPD*%
G36*
G1X8005Y12871D2*
G1X8005Y12868D1*
G1X8005Y12862D1*
G1X8002Y12859D1*
G1X8002Y12854D1*
G1X8002Y12851D1*
G1X7999Y12848D1*
G1X7999Y12842D1*
G1X7999Y12839D1*
G1X7996Y12837D1*
G1X7996Y12834D1*
G1X7996Y12831D1*
G1X7994Y12828D1*
G1X7994Y12825D1*
G1X7991Y12822D1*
G1X7991Y12819D1*
G1X7988Y12817D1*
G1X7988Y12814D1*
G1X7985Y12811D1*
G1X7985Y12811D1*
G1X7982Y12808D1*
G1X7979Y12805D1*
G1X7976Y12802D1*
G1X7974Y12800D1*
G1X7974Y12797D1*
G1X7971Y12797D1*
G1X7968Y12794D1*
G1X7965Y12791D1*
G1X7962Y12791D1*
G1X7959Y12788D1*
G1X7957Y12788D1*
G1X7951Y12785D1*
G1X7948Y12785D1*
G1X7945Y12782D1*
G1X7942Y12782D1*
G1X7939Y12782D1*
G1X7934Y12780D1*
G1X7931Y12780D1*
G1X7928Y12780D1*
G1X7922Y12780D1*
G1X7920Y12780D1*
G1X7917Y12780D1*
G1X7914Y12780D1*
G1X7911Y12780D1*
G1X7908Y12780D1*
G1X7908Y12780D1*
G1X7905Y12780D1*
G1X7902Y12780D1*
G1X7900Y12782D1*
G1X7897Y12782D1*
G1X7894Y12782D1*
G1X7891Y12782D1*
G1X7891Y12782D1*
G1X7888Y12785D1*
G1X7885Y12785D1*
G1X7883Y12785D1*
G1X7880Y12788D1*
G1X7877Y12788D1*
G1X7877Y12788D1*
G1X7874Y12791D1*
G1X7871Y12791D1*
G1X7871Y12791D1*
G1X7868Y12794D1*
G1X7868Y12794D1*
G1X7865Y12794D1*
G1X7865Y12797D1*
G1X7863Y12797D1*
G1X7863Y12800D1*
G1X7860Y12800D1*
G1X7860Y12802D1*
G1X7857Y12802D1*
G1X7857Y12805D1*
G1X7854Y12805D1*
G1X7854Y12808D1*
G1X7851Y12808D1*
G1X7851Y12811D1*
G1X7848Y12811D1*
G1X7848Y12814D1*
G1X7846Y12817D1*
G1X7846Y12817D1*
G1X7843Y12819D1*
G1X7675Y12805D1*
G1X7678Y12800D1*
G1X7683Y12791D1*
G1X7686Y12785D1*
G1X7689Y12780D1*
G1X7695Y12774D1*
G1X7697Y12768D1*
G1X7703Y12763D1*
G1X7709Y12757D1*
G1X7712Y12751D1*
G1X7717Y12748D1*
G1X7720Y12743D1*
G1X7726Y12737D1*
G1X7732Y12734D1*
G1X7737Y12728D1*
G1X7740Y12726D1*
G1X7746Y12723D1*
G1X7752Y12717D1*
G1X7757Y12714D1*
G1X7763Y12711D1*
G1X7769Y12708D1*
G1X7774Y12706D1*
G1X7780Y12703D1*
G1X7786Y12700D1*
G1X7791Y12697D1*
G1X7797Y12697D1*
G1X7806Y12694D1*
G1X7811Y12691D1*
G1X7820Y12691D1*
G1X7826Y12691D1*
G1X7834Y12691D1*
G1X7843Y12689D1*
G1X7851Y12689D1*
G1X7857Y12686D1*
G1X7865Y12686D1*
G1X7874Y12686D1*
G1X7885Y12683D1*
G1X7894Y12683D1*
G1X7902Y12683D1*
G1X7914Y12683D1*
G1X7922Y12683D1*
G1X7931Y12683D1*
G1X7939Y12683D1*
G1X7948Y12683D1*
G1X7957Y12683D1*
G1X7965Y12686D1*
G1X7971Y12686D1*
G1X7979Y12686D1*
G1X7988Y12686D1*
G1X7994Y12689D1*
G1X8002Y12689D1*
G1X8008Y12691D1*
G1X8016Y12691D1*
G1X8022Y12691D1*
G1X8028Y12691D1*
G1X8033Y12694D1*
G1X8039Y12697D1*
G1X8045Y12700D1*
G1X8051Y12700D1*
G1X8056Y12703D1*
G1X8062Y12706D1*
G1X8068Y12708D1*
G1X8073Y12711D1*
G1X8076Y12714D1*
G1X8082Y12717D1*
G1X8088Y12720D1*
G1X8090Y12723D1*
G1X8096Y12728D1*
G1X8099Y12731D1*
G1X8105Y12734D1*
G1X8107Y12740D1*
G1X8113Y12743D1*
G1X8116Y12745D1*
G1X8119Y12751D1*
G1X8125Y12757D1*
G1X8127Y12760D1*
G1X8130Y12765D1*
G1X8136Y12771D1*
G1X8139Y12774D1*
G1X8142Y12780D1*
G1X8144Y12785D1*
G1X8147Y12791D1*
G1X8150Y12797D1*
G1X8153Y12802D1*
G1X8156Y12808D1*
G1X8159Y12814D1*
G1X8162Y12819D1*
G1X8164Y12825D1*
G1X8167Y12831D1*
G1X8167Y12839D1*
G1X8170Y12845D1*
G1X8173Y12851D1*
G1X8173Y12856D1*
G1X8176Y12865D1*
G1X8176Y12871D1*
G1X8176Y12876D1*
G1X8179Y12885D1*
G1X8179Y12891D1*
G1X8179Y12899D1*
G1X8179Y12905D1*
G1X8179Y12913D1*
G1X8179Y12925D1*
G1X8179Y12933D1*
G1X8176Y12945D1*
G1X8176Y12953D1*
G1X8176Y12965D1*
G1X8173Y12973D1*
G1X8170Y12982D1*
G1X8167Y12990D1*
G1X8164Y12999D1*
G1X8162Y13007D1*
G1X8159Y13016D1*
G1X8156Y13024D1*
G1X8150Y13033D1*
G1X8147Y13039D1*
G1X8142Y13047D1*
G1X8136Y13056D1*
G1X8130Y13061D1*
G1X8125Y13067D1*
G1X8119Y13076D1*
G1X8113Y13081D1*
G1X8107Y13087D1*
G1X8099Y13093D1*
G1X8090Y13098D1*
G1X8085Y13104D1*
G1X8076Y13110D1*
G1X8068Y13116D1*
G1X8059Y13118D1*
G1X8051Y13124D1*
G1X8042Y13127D1*
G1X8033Y13130D1*
G1X8022Y13133D1*
G1X8013Y13135D1*
G1X8005Y13138D1*
G1X7994Y13141D1*
G1X7982Y13144D1*
G1X7974Y13144D1*
G1X7962Y13144D1*
G1X7951Y13147D1*
G1X7939Y13147D1*
G1X7928Y13147D1*
G1X7920Y13147D1*
G1X7911Y13147D1*
G1X7900Y13147D1*
G1X7891Y13147D1*
G1X7883Y13144D1*
G1X7874Y13144D1*
G1X7868Y13144D1*
G1X7860Y13141D1*
G1X7851Y13141D1*
G1X7846Y13138D1*
G1X7837Y13138D1*
G1X7828Y13135D1*
G1X7823Y13135D1*
G1X7817Y13133D1*
G1X7809Y13130D1*
G1X7803Y13130D1*
G1X7797Y13127D1*
G1X7791Y13124D1*
G1X7786Y13121D1*
G1X7780Y13118D1*
G1X7774Y13116D1*
G1X7769Y13113D1*
G1X7763Y13110D1*
G1X7757Y13107D1*
G1X7754Y13101D1*
G1X7749Y13098D1*
G1X7743Y13096D1*
G1X7740Y13090D1*
G1X7734Y13087D1*
G1X7732Y13081D1*
G1X7726Y13079D1*
G1X7723Y13073D1*
G1X7717Y13070D1*
G1X7715Y13064D1*
G1X7712Y13059D1*
G1X7706Y13056D1*
G1X7703Y13050D1*
G1X7700Y13044D1*
G1X7697Y13039D1*
G1X7695Y13033D1*
G1X7692Y13027D1*
G1X7689Y13022D1*
G1X7686Y13016D1*
G1X7683Y13010D1*
G1X7683Y13005D1*
G1X7680Y12999D1*
G1X7678Y12990D1*
G1X7678Y12985D1*
G1X7675Y12976D1*
G1X7672Y12970D1*
G1X7672Y12962D1*
G1X7672Y12956D1*
G1X7669Y12948D1*
G1X7669Y12942D1*
G1X7669Y12933D1*
G1X7666Y12925D1*
G1X7666Y12916D1*
G1X7666Y12908D1*
G1X7666Y12899D1*
G1X7666Y12891D1*
G1X7666Y12871D1*
G1X8005Y12871D1*
G37*
%LPC*%
G36*
G1X7840Y12959D2*
G1X7840Y12962D1*
G1X7843Y12968D1*
G1X7843Y12973D1*
G1X7843Y12976D1*
G1X7846Y12982D1*
G1X7846Y12985D1*
G1X7846Y12990D1*
G1X7848Y12993D1*
G1X7848Y12996D1*
G1X7851Y12999D1*
G1X7851Y13005D1*
G1X7854Y13007D1*
G1X7854Y13010D1*
G1X7857Y13013D1*
G1X7857Y13016D1*
G1X7860Y13019D1*
G1X7863Y13019D1*
G1X7863Y13022D1*
G1X7865Y13024D1*
G1X7868Y13027D1*
G1X7871Y13030D1*
G1X7871Y13030D1*
G1X7874Y13033D1*
G1X7877Y13036D1*
G1X7880Y13036D1*
G1X7883Y13039D1*
G1X7885Y13039D1*
G1X7888Y13042D1*
G1X7891Y13042D1*
G1X7894Y13042D1*
G1X7897Y13044D1*
G1X7900Y13044D1*
G1X7902Y13044D1*
G1X7905Y13047D1*
G1X7908Y13047D1*
G1X7911Y13047D1*
G1X7917Y13047D1*
G1X7920Y13047D1*
G1X7922Y13047D1*
G1X7925Y13047D1*
G1X7931Y13047D1*
G1X7934Y13047D1*
G1X7937Y13047D1*
G1X7942Y13044D1*
G1X7945Y13044D1*
G1X7948Y13044D1*
G1X7951Y13042D1*
G1X7954Y13042D1*
G1X7957Y13039D1*
G1X7962Y13036D1*
G1X7965Y13036D1*
G1X7968Y13033D1*
G1X7971Y13030D1*
G1X7974Y13027D1*
G1X7976Y13024D1*
G1X7976Y13022D1*
G1X7979Y13019D1*
G1X7982Y13016D1*
G1X7985Y13013D1*
G1X7985Y13010D1*
G1X7988Y13010D1*
G1X7988Y13007D1*
G1X7991Y13005D1*
G1X7991Y13002D1*
G1X7994Y12999D1*
G1X7994Y12996D1*
G1X7996Y12993D1*
G1X7996Y12990D1*
G1X7996Y12987D1*
G1X7999Y12985D1*
G1X7999Y12982D1*
G1X7999Y12979D1*
G1X8002Y12976D1*
G1X8002Y12973D1*
G1X8002Y12968D1*
G1X8002Y12965D1*
G1X8005Y12962D1*
G1X8005Y12956D1*
G1X8005Y12953D1*
G1X7840Y12953D1*
G1X7840Y12959D1*
G37*
G74*
M2*
