*
%LPD*%
%LNNECKC.SMT*%
%FSLAX24Y24*%
%MOIN*%
%AD*%
%ADD47R,0.095700X0.095700*%
%ADD48O,0.013800X0.061000*%
%ADD49O,0.061000X0.013800*%
%ADD50R,0.061000X0.013800*%
%ADD51R,0.022000X0.022000*%
%ADD52R,0.038000X0.032000*%
%ADD53R,0.029500X0.141700*%
%ADD54R,0.029500X0.122000*%
%ADD55R,0.029500X0.110200*%
%ADD56R,0.047200X0.094500*%
%ADD57R,0.047200X0.049200*%
%ADD58O,0.025000X0.086000*%
%ADD59R,0.025000X0.086000*%
%ADD60R,0.050000X0.050000*%
%ADD61C,0.080000*%
%ADD62R,0.080000X0.080000*%
%ADD63C,0.001000*%
%ADD64C,0.010000*%
G54D63*
%SRX1Y1I0.0J0.0*%
G1X9426Y2455D2*
G1X9426Y14D1*
G1X9417Y2455D2*
G1X9417Y14D1*
G1X9408Y2455D2*
G1X9408Y14D1*
G1X9399Y2455D2*
G1X9399Y14D1*
G1X9390Y2455D2*
G1X9390Y14D1*
G1X9381Y2455D2*
G1X9381Y14D1*
G1X9372Y2455D2*
G1X9372Y14D1*
G1X9363Y2455D2*
G1X9363Y14D1*
G1X9354Y2455D2*
G1X9354Y14D1*
G1X9345Y2455D2*
G1X9345Y14D1*
G1X9336Y2455D2*
G1X9336Y14D1*
G1X9327Y2455D2*
G1X9327Y14D1*
G1X9318Y2455D2*
G1X9318Y14D1*
G1X9309Y2455D2*
G1X9309Y14D1*
G1X9300Y2455D2*
G1X9300Y14D1*
G1X9291Y2455D2*
G1X9291Y14D1*
G1X9282Y2455D2*
G1X9282Y14D1*
G1X9273Y2455D2*
G1X9273Y14D1*
G1X9264Y2455D2*
G1X9264Y14D1*
G1X9255Y2455D2*
G1X9255Y14D1*
G1X9246Y2455D2*
G1X9246Y14D1*
G1X9237Y2455D2*
G1X9237Y14D1*
G1X9228Y2455D2*
G1X9228Y14D1*
G1X9219Y2455D2*
G1X9219Y14D1*
G1X9210Y2455D2*
G1X9210Y14D1*
G1X9201Y2455D2*
G1X9201Y14D1*
G1X9192Y2455D2*
G1X9192Y14D1*
G1X9183Y2455D2*
G1X9183Y14D1*
G1X9174Y2455D2*
G1X9174Y14D1*
G1X9165Y2455D2*
G1X9165Y14D1*
G1X9156Y2455D2*
G1X9156Y14D1*
G1X9147Y2455D2*
G1X9147Y14D1*
G1X9138Y2455D2*
G1X9138Y14D1*
G1X9129Y2455D2*
G1X9129Y14D1*
G1X9120Y2455D2*
G1X9120Y14D1*
G1X9111Y2455D2*
G1X9111Y14D1*
G1X9102Y2455D2*
G1X9102Y14D1*
G1X9093Y2455D2*
G1X9093Y14D1*
G1X9084Y2455D2*
G1X9084Y14D1*
G1X9075Y2455D2*
G1X9075Y14D1*
G1X9066Y2455D2*
G1X9066Y14D1*
G1X9057Y2455D2*
G1X9057Y14D1*
G1X9048Y2455D2*
G1X9048Y14D1*
G1X9039Y2455D2*
G1X9039Y14D1*
G1X9030Y2455D2*
G1X9030Y14D1*
G1X9021Y2455D2*
G1X9021Y14D1*
G1X9012Y2455D2*
G1X9012Y14D1*
G1X9003Y2455D2*
G1X9003Y14D1*
G1X8994Y2455D2*
G1X8994Y14D1*
G1X8985Y2455D2*
G1X8985Y14D1*
G1X8976Y2455D2*
G1X8976Y14D1*
G1X8967Y2455D2*
G1X8967Y14D1*
G1X8958Y2455D2*
G1X8958Y14D1*
G1X8949Y2455D2*
G1X8949Y14D1*
G1X8940Y2455D2*
G1X8940Y14D1*
G1X8931Y2455D2*
G1X8931Y14D1*
G1X8922Y2455D2*
G1X8922Y14D1*
G1X8913Y2455D2*
G1X8913Y14D1*
G1X8904Y2455D2*
G1X8904Y14D1*
G1X8895Y2455D2*
G1X8895Y14D1*
G1X8886Y2455D2*
G1X8886Y14D1*
G1X8877Y2455D2*
G1X8877Y14D1*
G1X8868Y2455D2*
G1X8868Y14D1*
G1X8859Y2455D2*
G1X8859Y14D1*
G1X8850Y2455D2*
G1X8850Y14D1*
G1X8841Y2455D2*
G1X8841Y14D1*
G1X8832Y2455D2*
G1X8832Y14D1*
G1X8823Y2455D2*
G1X8823Y14D1*
G1X8814Y2455D2*
G1X8814Y14D1*
G1X8805Y2455D2*
G1X8805Y14D1*
G1X8796Y2455D2*
G1X8796Y14D1*
G1X8787Y2455D2*
G1X8787Y14D1*
G1X8778Y2455D2*
G1X8778Y14D1*
G1X8769Y2455D2*
G1X8769Y14D1*
G1X8760Y2455D2*
G1X8760Y14D1*
G1X8751Y2455D2*
G1X8751Y14D1*
G1X8742Y2455D2*
G1X8742Y14D1*
G1X8733Y2455D2*
G1X8733Y14D1*
G1X8724Y2455D2*
G1X8724Y14D1*
G1X8715Y2455D2*
G1X8715Y14D1*
G1X8706Y2455D2*
G1X8706Y14D1*
G1X8697Y2455D2*
G1X8697Y14D1*
G1X8688Y2455D2*
G1X8688Y14D1*
G1X8679Y2455D2*
G1X8679Y14D1*
G1X8670Y2455D2*
G1X8670Y14D1*
G1X8661Y2455D2*
G1X8661Y14D1*
G1X8652Y2455D2*
G1X8652Y14D1*
G1X8643Y2455D2*
G1X8643Y14D1*
G1X8634Y2455D2*
G1X8634Y14D1*
G1X8625Y2455D2*
G1X8625Y14D1*
G1X8616Y2455D2*
G1X8616Y14D1*
G1X8607Y2455D2*
G1X8607Y14D1*
G1X8598Y2455D2*
G1X8598Y14D1*
G1X8589Y2455D2*
G1X8589Y14D1*
G1X8580Y2455D2*
G1X8580Y14D1*
G1X8571Y2455D2*
G1X8571Y14D1*
G1X8562Y2455D2*
G1X8562Y14D1*
G1X8553Y2455D2*
G1X8553Y14D1*
G1X8544Y2455D2*
G1X8544Y14D1*
G1X8535Y2455D2*
G1X8535Y14D1*
G1X8526Y2455D2*
G1X8526Y14D1*
G1X8517Y2455D2*
G1X8517Y14D1*
G1X8508Y2455D2*
G1X8508Y14D1*
G1X8499Y2455D2*
G1X8499Y14D1*
G1X8490Y2455D2*
G1X8490Y14D1*
G1X8481Y2455D2*
G1X8481Y14D1*
G1X8472Y2455D2*
G1X8472Y14D1*
G1X8463Y2455D2*
G1X8463Y14D1*
G1X8454Y2455D2*
G1X8454Y14D1*
G1X8445Y2455D2*
G1X8445Y14D1*
G1X8436Y2455D2*
G1X8436Y14D1*
G1X8427Y2455D2*
G1X8427Y14D1*
G1X8418Y2455D2*
G1X8418Y14D1*
G1X8409Y2455D2*
G1X8409Y14D1*
G1X8400Y2455D2*
G1X8400Y14D1*
G1X8391Y2455D2*
G1X8391Y14D1*
G1X8382Y2455D2*
G1X8382Y14D1*
G1X8373Y2455D2*
G1X8373Y14D1*
G1X8364Y2455D2*
G1X8364Y14D1*
G1X8355Y2455D2*
G1X8355Y14D1*
G1X8346Y2455D2*
G1X8346Y14D1*
G1X8337Y2455D2*
G1X8337Y14D1*
G1X8328Y2455D2*
G1X8328Y14D1*
G1X8319Y2455D2*
G1X8319Y14D1*
G1X8310Y2455D2*
G1X8310Y14D1*
G1X8301Y2455D2*
G1X8301Y14D1*
G1X8292Y2455D2*
G1X8292Y14D1*
G1X8283Y2455D2*
G1X8283Y14D1*
G1X8274Y2455D2*
G1X8274Y14D1*
G1X8265Y2455D2*
G1X8265Y14D1*
G1X8256Y2455D2*
G1X8256Y14D1*
G1X8247Y2455D2*
G1X8247Y14D1*
G1X8238Y2455D2*
G1X8238Y14D1*
G1X8229Y2455D2*
G1X8229Y14D1*
G1X8220Y2455D2*
G1X8220Y14D1*
G1X8211Y2455D2*
G1X8211Y14D1*
G1X8202Y2455D2*
G1X8202Y14D1*
G1X8193Y2455D2*
G1X8193Y14D1*
G1X8184Y2455D2*
G1X8184Y14D1*
G1X8175Y2455D2*
G1X8175Y14D1*
G1X8166Y2455D2*
G1X8166Y14D1*
G1X8157Y2455D2*
G1X8157Y14D1*
G1X8148Y2455D2*
G1X8148Y14D1*
G1X8139Y2455D2*
G1X8139Y14D1*
G1X8130Y2455D2*
G1X8130Y14D1*
G1X8121Y2455D2*
G1X8121Y14D1*
G1X8112Y2455D2*
G1X8112Y14D1*
G1X8103Y2455D2*
G1X8103Y14D1*
G1X8094Y2455D2*
G1X8094Y14D1*
G1X8085Y2455D2*
G1X8085Y14D1*
G1X8076Y2455D2*
G1X8076Y14D1*
G1X8067Y2455D2*
G1X8067Y14D1*
G1X8058Y2455D2*
G1X8058Y14D1*
G1X8049Y2455D2*
G1X8049Y14D1*
G1X8040Y2455D2*
G1X8040Y14D1*
G1X8031Y2455D2*
G1X8031Y14D1*
G1X8022Y2455D2*
G1X8022Y14D1*
G1X8013Y2455D2*
G1X8013Y14D1*
G1X8004Y2455D2*
G1X8004Y14D1*
G1X7995Y2455D2*
G1X7995Y14D1*
G1X7986Y2455D2*
G1X7986Y14D1*
G1X7977Y2455D2*
G1X7977Y14D1*
G1X7968Y2455D2*
G1X7968Y14D1*
G1X7959Y2455D2*
G1X7959Y14D1*
G1X7950Y2455D2*
G1X7950Y14D1*
G1X7941Y2455D2*
G1X7941Y14D1*
G1X7932Y2455D2*
G1X7932Y14D1*
G1X7923Y2455D2*
G1X7923Y14D1*
G1X7914Y2455D2*
G1X7914Y14D1*
G1X7905Y2455D2*
G1X7905Y14D1*
G1X7896Y2455D2*
G1X7896Y14D1*
G1X7887Y2455D2*
G1X7887Y14D1*
G1X7878Y2455D2*
G1X7878Y14D1*
G1X7869Y2455D2*
G1X7869Y14D1*
G1X7860Y2455D2*
G1X7860Y14D1*
G1X7851Y2455D2*
G1X7851Y14D1*
G1X7842Y2455D2*
G1X7842Y14D1*
G1X7833Y2455D2*
G1X7833Y14D1*
G1X7824Y2455D2*
G1X7824Y14D1*
G1X7815Y2455D2*
G1X7815Y14D1*
G1X7806Y2455D2*
G1X7806Y14D1*
G1X7797Y2455D2*
G1X7797Y14D1*
G1X7788Y2455D2*
G1X7788Y14D1*
G1X7779Y2455D2*
G1X7779Y14D1*
G1X7770Y2455D2*
G1X7770Y14D1*
G1X7761Y2455D2*
G1X7761Y14D1*
G1X7752Y2455D2*
G1X7752Y14D1*
G1X7743Y2455D2*
G1X7743Y14D1*
G1X7734Y2455D2*
G1X7734Y14D1*
G1X7725Y2455D2*
G1X7725Y14D1*
G1X7716Y2455D2*
G1X7716Y14D1*
G1X7707Y2455D2*
G1X7707Y14D1*
G1X7698Y2455D2*
G1X7698Y14D1*
G1X7689Y2455D2*
G1X7689Y14D1*
G1X7680Y2455D2*
G1X7680Y14D1*
G1X7671Y2455D2*
G1X7671Y14D1*
G1X7662Y2455D2*
G1X7662Y14D1*
G1X7653Y2455D2*
G1X7653Y14D1*
G1X7644Y2455D2*
G1X7644Y14D1*
G1X7635Y2455D2*
G1X7635Y14D1*
G1X7626Y2455D2*
G1X7626Y14D1*
G1X7617Y2455D2*
G1X7617Y14D1*
G1X7608Y2455D2*
G1X7608Y14D1*
G1X7599Y2455D2*
G1X7599Y14D1*
G1X7590Y2455D2*
G1X7590Y14D1*
G1X7581Y2455D2*
G1X7581Y14D1*
G1X7572Y2455D2*
G1X7572Y14D1*
G1X7563Y2455D2*
G1X7563Y14D1*
G1X7554Y2455D2*
G1X7554Y14D1*
G1X7545Y2455D2*
G1X7545Y14D1*
G1X7536Y2455D2*
G1X7536Y14D1*
G1X7527Y2455D2*
G1X7527Y14D1*
G1X7518Y2455D2*
G1X7518Y14D1*
G1X7509Y2455D2*
G1X7509Y14D1*
G1X7500Y2455D2*
G1X7500Y14D1*
G1X7491Y2455D2*
G1X7491Y14D1*
G1X7482Y2455D2*
G1X7482Y14D1*
G1X7473Y2455D2*
G1X7473Y14D1*
G1X7464Y2455D2*
G1X7464Y14D1*
G1X7455Y2455D2*
G1X7455Y14D1*
G1X7446Y2455D2*
G1X7446Y14D1*
G1X7437Y2455D2*
G1X7437Y14D1*
G1X7428Y2455D2*
G1X7428Y14D1*
G1X7419Y2455D2*
G1X7419Y14D1*
G1X7410Y2455D2*
G1X7410Y14D1*
G1X7401Y2455D2*
G1X7401Y14D1*
G1X7392Y2455D2*
G1X7392Y14D1*
G1X7383Y2455D2*
G1X7383Y14D1*
G1X7374Y2455D2*
G1X7374Y14D1*
G1X7365Y2455D2*
G1X7365Y14D1*
G1X7356Y2455D2*
G1X7356Y14D1*
G1X7347Y2455D2*
G1X7347Y14D1*
G1X7338Y2455D2*
G1X7338Y14D1*
G1X7329Y2455D2*
G1X7329Y14D1*
G1X7320Y2455D2*
G1X7320Y14D1*
G1X7311Y2455D2*
G1X7311Y14D1*
G1X7302Y2455D2*
G1X7302Y14D1*
G1X7293Y2455D2*
G1X7293Y14D1*
G1X7284Y2455D2*
G1X7284Y14D1*
G1X7275Y2455D2*
G1X7275Y14D1*
G1X7266Y2455D2*
G1X7266Y14D1*
G1X7257Y2455D2*
G1X7257Y14D1*
G1X7248Y2455D2*
G1X7248Y14D1*
G1X7239Y2455D2*
G1X7239Y14D1*
G1X7230Y2455D2*
G1X7230Y14D1*
G1X7221Y2455D2*
G1X7221Y14D1*
G1X7212Y2455D2*
G1X7212Y14D1*
G1X7203Y2455D2*
G1X7203Y14D1*
G1X7194Y2455D2*
G1X7194Y14D1*
G1X7185Y2455D2*
G1X7185Y14D1*
G1X7176Y2455D2*
G1X7176Y14D1*
G1X7167Y2455D2*
G1X7167Y14D1*
G1X7158Y2455D2*
G1X7158Y14D1*
G1X7149Y2455D2*
G1X7149Y14D1*
G1X7140Y2455D2*
G1X7140Y14D1*
G1X7131Y2455D2*
G1X7131Y14D1*
G1X7122Y2455D2*
G1X7122Y14D1*
G1X7113Y2455D2*
G1X7113Y14D1*
G1X7104Y2455D2*
G1X7104Y14D1*
G1X7095Y2455D2*
G1X7095Y14D1*
G1X7086Y2455D2*
G1X7086Y14D1*
G1X7077Y2455D2*
G1X7077Y14D1*
G1X7068Y2455D2*
G1X7068Y14D1*
G1X7059Y2455D2*
G1X7059Y14D1*
G1X7050Y2455D2*
G1X7050Y14D1*
G1X7041Y2455D2*
G1X7041Y14D1*
G1X7032Y2455D2*
G1X7032Y14D1*
G1X7023Y2455D2*
G1X7023Y14D1*
G1X7014Y2455D2*
G1X7014Y14D1*
G1X7005Y2455D2*
G1X7005Y14D1*
G1X6996Y2455D2*
G1X6996Y14D1*
G1X6987Y2455D2*
G1X6987Y14D1*
G1X6978Y2455D2*
G1X6978Y14D1*
G1X6969Y2455D2*
G1X6969Y14D1*
G1X6960Y2455D2*
G1X6960Y14D1*
G1X6951Y2455D2*
G1X6951Y14D1*
G1X6942Y2455D2*
G1X6942Y14D1*
G1X6933Y2455D2*
G1X6933Y14D1*
G1X6924Y2455D2*
G1X6924Y14D1*
G1X6915Y2455D2*
G1X6915Y14D1*
G1X6906Y2455D2*
G1X6906Y14D1*
G1X6897Y2455D2*
G1X6897Y14D1*
G1X6888Y2455D2*
G1X6888Y14D1*
G1X6879Y2455D2*
G1X6879Y14D1*
G1X6870Y2455D2*
G1X6870Y14D1*
G1X6861Y2455D2*
G1X6861Y14D1*
G1X6852Y2455D2*
G1X6852Y14D1*
G1X6843Y2455D2*
G1X6843Y14D1*
G1X6834Y2455D2*
G1X6834Y14D1*
G1X6825Y2455D2*
G1X6825Y14D1*
G1X6816Y2455D2*
G1X6816Y14D1*
G1X6807Y2455D2*
G1X6807Y14D1*
G1X6798Y2455D2*
G1X6798Y14D1*
G1X6789Y2455D2*
G1X6789Y14D1*
G1X6780Y2455D2*
G1X6780Y14D1*
G1X6771Y2455D2*
G1X6771Y14D1*
G1X6762Y2455D2*
G1X6762Y14D1*
G1X6753Y2455D2*
G1X6753Y14D1*
G1X6744Y2455D2*
G1X6744Y14D1*
G1X6735Y2455D2*
G1X6735Y14D1*
G1X6726Y2455D2*
G1X6726Y14D1*
G1X6717Y2455D2*
G1X6717Y14D1*
G1X6708Y2455D2*
G1X6708Y14D1*
G1X6699Y2455D2*
G1X6699Y14D1*
G1X6690Y2455D2*
G1X6690Y14D1*
G1X6681Y2455D2*
G1X6681Y14D1*
G1X6672Y2455D2*
G1X6672Y14D1*
G1X6663Y2455D2*
G1X6663Y14D1*
G1X6654Y2455D2*
G1X6654Y14D1*
G1X6645Y2455D2*
G1X6645Y14D1*
G1X6636Y2455D2*
G1X6636Y14D1*
G1X6627Y2455D2*
G1X6627Y14D1*
G1X6618Y2455D2*
G1X6618Y14D1*
G1X6609Y2455D2*
G1X6609Y14D1*
G1X6600Y2455D2*
G1X6600Y14D1*
G1X6591Y2455D2*
G1X6591Y14D1*
G1X6582Y2455D2*
G1X6582Y14D1*
G1X6573Y2455D2*
G1X6573Y14D1*
G1X6564Y2455D2*
G1X6564Y14D1*
G1X6555Y2455D2*
G1X6555Y14D1*
G1X6546Y2455D2*
G1X6546Y14D1*
G1X6537Y2455D2*
G1X6537Y14D1*
G1X6528Y2455D2*
G1X6528Y14D1*
G1X6519Y2455D2*
G1X6519Y14D1*
G1X6510Y2455D2*
G1X6510Y14D1*
G1X6501Y2455D2*
G1X6501Y14D1*
G1X6492Y2455D2*
G1X6492Y14D1*
G1X6483Y2455D2*
G1X6483Y14D1*
G1X6474Y2455D2*
G1X6474Y14D1*
G1X6465Y2455D2*
G1X6465Y14D1*
G1X6456Y2455D2*
G1X6456Y14D1*
G1X6447Y2455D2*
G1X6447Y14D1*
G1X6438Y2455D2*
G1X6438Y14D1*
G1X6429Y2455D2*
G1X6429Y14D1*
G1X6420Y2455D2*
G1X6420Y14D1*
G1X6411Y2455D2*
G1X6411Y14D1*
G1X6402Y2455D2*
G1X6402Y14D1*
G1X6393Y2455D2*
G1X6393Y14D1*
G1X6384Y2455D2*
G1X6384Y14D1*
G1X6375Y2455D2*
G1X6375Y14D1*
G1X6366Y2455D2*
G1X6366Y14D1*
G1X6357Y2455D2*
G1X6357Y14D1*
G1X6348Y2455D2*
G1X6348Y14D1*
G1X6339Y2455D2*
G1X6339Y14D1*
G1X6330Y2455D2*
G1X6330Y14D1*
G1X6321Y2455D2*
G1X6321Y14D1*
G1X6312Y2455D2*
G1X6312Y14D1*
G1X6303Y2455D2*
G1X6303Y14D1*
G1X6294Y2455D2*
G1X6294Y14D1*
G1X6285Y2455D2*
G1X6285Y14D1*
G1X6276Y2455D2*
G1X6276Y14D1*
G1X6267Y2455D2*
G1X6267Y14D1*
G1X6258Y2455D2*
G1X6258Y14D1*
G1X6249Y2455D2*
G1X6249Y14D1*
G1X6240Y2455D2*
G1X6240Y14D1*
G1X6231Y2455D2*
G1X6231Y14D1*
G1X6222Y2455D2*
G1X6222Y14D1*
G1X6213Y2455D2*
G1X6213Y14D1*
G1X6204Y2455D2*
G1X6204Y14D1*
G1X6195Y2455D2*
G1X6195Y14D1*
G1X6186Y2455D2*
G1X6186Y14D1*
G1X6177Y2455D2*
G1X6177Y14D1*
G1X6168Y2455D2*
G1X6168Y14D1*
G1X6159Y2455D2*
G1X6159Y14D1*
G1X6150Y2455D2*
G1X6150Y14D1*
G1X6141Y2455D2*
G1X6141Y14D1*
G1X6132Y2455D2*
G1X6132Y14D1*
G1X6123Y2455D2*
G1X6123Y14D1*
G1X6114Y2455D2*
G1X6114Y14D1*
G1X6105Y2455D2*
G1X6105Y14D1*
G1X6096Y2455D2*
G1X6096Y14D1*
G1X6087Y2455D2*
G1X6087Y14D1*
G1X6078Y2455D2*
G1X6078Y14D1*
G1X6069Y2455D2*
G1X6069Y14D1*
G1X6060Y2455D2*
G1X6060Y14D1*
G1X6051Y2455D2*
G1X6051Y14D1*
G1X6042Y2455D2*
G1X6042Y14D1*
G1X6033Y2455D2*
G1X6033Y14D1*
G1X6024Y2455D2*
G1X6024Y14D1*
G1X6015Y2455D2*
G1X6015Y14D1*
G1X6006Y2455D2*
G1X6006Y14D1*
G1X5997Y2455D2*
G1X5997Y14D1*
G1X5988Y2455D2*
G1X5988Y14D1*
G1X5979Y2455D2*
G1X5979Y14D1*
G1X5970Y2455D2*
G1X5970Y14D1*
G1X5961Y2455D2*
G1X5961Y14D1*
G1X5952Y2455D2*
G1X5952Y14D1*
G1X5943Y2455D2*
G1X5943Y14D1*
G1X5934Y2455D2*
G1X5934Y14D1*
G1X5925Y2455D2*
G1X5925Y14D1*
G1X5916Y2455D2*
G1X5916Y14D1*
G1X5907Y2455D2*
G1X5907Y14D1*
G1X5898Y2455D2*
G1X5898Y14D1*
G1X5889Y2455D2*
G1X5889Y14D1*
G1X5880Y2455D2*
G1X5880Y14D1*
G1X5871Y2455D2*
G1X5871Y14D1*
G1X5862Y2455D2*
G1X5862Y14D1*
G1X5853Y2455D2*
G1X5853Y14D1*
G1X5844Y2455D2*
G1X5844Y14D1*
G1X5835Y2455D2*
G1X5835Y14D1*
G1X5826Y2455D2*
G1X5826Y14D1*
G1X5817Y2455D2*
G1X5817Y14D1*
G1X5808Y2455D2*
G1X5808Y14D1*
G1X5799Y2455D2*
G1X5799Y14D1*
G1X5790Y2455D2*
G1X5790Y14D1*
G1X5781Y2455D2*
G1X5781Y14D1*
G1X5772Y2455D2*
G1X5772Y14D1*
G1X5763Y2455D2*
G1X5763Y14D1*
G1X5754Y2455D2*
G1X5754Y14D1*
G1X5745Y2455D2*
G1X5745Y14D1*
G1X5736Y2455D2*
G1X5736Y14D1*
G1X5727Y2455D2*
G1X5727Y14D1*
G1X5718Y2455D2*
G1X5718Y14D1*
G1X5709Y2455D2*
G1X5709Y14D1*
G1X5700Y2455D2*
G1X5700Y14D1*
G1X5691Y2455D2*
G1X5691Y14D1*
G1X5682Y2455D2*
G1X5682Y14D1*
G1X5673Y2455D2*
G1X5673Y14D1*
G1X5664Y2455D2*
G1X5664Y14D1*
G1X5655Y2455D2*
G1X5655Y14D1*
G1X5646Y2455D2*
G1X5646Y14D1*
G1X5637Y2455D2*
G1X5637Y14D1*
G1X5628Y2455D2*
G1X5628Y14D1*
G1X5619Y2455D2*
G1X5619Y14D1*
G1X5610Y2455D2*
G1X5610Y14D1*
G1X5601Y2455D2*
G1X5601Y14D1*
G1X5592Y2455D2*
G1X5592Y14D1*
G1X5583Y2455D2*
G1X5583Y14D1*
G1X5574Y2455D2*
G1X5574Y14D1*
G1X5565Y2455D2*
G1X5565Y14D1*
G1X5556Y2455D2*
G1X5556Y14D1*
G1X5547Y2455D2*
G1X5547Y14D1*
G1X5538Y2455D2*
G1X5538Y14D1*
G1X5529Y2455D2*
G1X5529Y14D1*
G1X5520Y2455D2*
G1X5520Y14D1*
G1X5511Y2455D2*
G1X5511Y14D1*
G1X5502Y2455D2*
G1X5502Y14D1*
G1X5493Y2455D2*
G1X5493Y14D1*
G1X5484Y2455D2*
G1X5484Y14D1*
G1X5475Y2455D2*
G1X5475Y14D1*
G1X5466Y2455D2*
G1X5466Y14D1*
G1X5457Y2455D2*
G1X5457Y14D1*
G1X5448Y2455D2*
G1X5448Y14D1*
G1X5439Y2455D2*
G1X5439Y14D1*
G1X5430Y2455D2*
G1X5430Y14D1*
G1X5421Y2455D2*
G1X5421Y14D1*
G1X5412Y2455D2*
G1X5412Y14D1*
G1X5403Y2455D2*
G1X5403Y14D1*
G1X5394Y2455D2*
G1X5394Y14D1*
G1X5385Y2455D2*
G1X5385Y14D1*
G1X5376Y2455D2*
G1X5376Y14D1*
G1X5367Y2455D2*
G1X5367Y14D1*
G1X5358Y2455D2*
G1X5358Y14D1*
G1X5349Y2455D2*
G1X5349Y14D1*
G1X5340Y2455D2*
G1X5340Y14D1*
G1X5331Y2455D2*
G1X5331Y14D1*
G1X5322Y2455D2*
G1X5322Y14D1*
G1X5313Y2455D2*
G1X5313Y14D1*
G1X5304Y2455D2*
G1X5304Y14D1*
G1X5295Y2455D2*
G1X5295Y14D1*
G1X5286Y2455D2*
G1X5286Y14D1*
G1X5277Y2455D2*
G1X5277Y14D1*
G1X5268Y2455D2*
G1X5268Y14D1*
G1X5259Y2455D2*
G1X5259Y14D1*
G1X5250Y2455D2*
G1X5250Y14D1*
G1X5241Y2455D2*
G1X5241Y14D1*
G1X5232Y2455D2*
G1X5232Y14D1*
G1X5223Y2455D2*
G1X5223Y14D1*
G1X5214Y2455D2*
G1X5214Y14D1*
G1X5205Y2455D2*
G1X5205Y14D1*
G1X5196Y2455D2*
G1X5196Y14D1*
G1X5187Y2455D2*
G1X5187Y14D1*
G1X14800Y2439D2*
G1X5174Y2439D1*
G1X14800Y2430D2*
G1X5174Y2430D1*
G1X14800Y2421D2*
G1X5174Y2421D1*
G1X14800Y2412D2*
G1X5174Y2412D1*
G1X14800Y2403D2*
G1X5174Y2403D1*
G1X14800Y2394D2*
G1X5174Y2394D1*
G1X14800Y2385D2*
G1X5174Y2385D1*
G1X14800Y2376D2*
G1X5174Y2376D1*
G1X14800Y2367D2*
G1X5174Y2367D1*
G1X14800Y2358D2*
G1X5174Y2358D1*
G1X14800Y2349D2*
G1X5174Y2349D1*
G1X14800Y2340D2*
G1X5174Y2340D1*
G1X14800Y2331D2*
G1X5174Y2331D1*
G1X14800Y2322D2*
G1X5174Y2322D1*
G1X14800Y2313D2*
G1X5174Y2313D1*
G1X14800Y2304D2*
G1X5174Y2304D1*
G1X14800Y2295D2*
G1X5174Y2295D1*
G1X14800Y2286D2*
G1X5174Y2286D1*
G1X14800Y2277D2*
G1X5174Y2277D1*
G1X14800Y2268D2*
G1X5174Y2268D1*
G1X14800Y2259D2*
G1X5174Y2259D1*
G1X14800Y2250D2*
G1X5174Y2250D1*
G1X14800Y2241D2*
G1X5174Y2241D1*
G1X14800Y2232D2*
G1X5174Y2232D1*
G1X14800Y2223D2*
G1X5174Y2223D1*
G1X14800Y2214D2*
G1X5174Y2214D1*
G1X14800Y2205D2*
G1X5174Y2205D1*
G1X14800Y2196D2*
G1X5174Y2196D1*
G1X14800Y2187D2*
G1X5174Y2187D1*
G1X14800Y2178D2*
G1X5174Y2178D1*
G1X14800Y2169D2*
G1X5174Y2169D1*
G1X14800Y2160D2*
G1X5174Y2160D1*
G1X14800Y2151D2*
G1X5174Y2151D1*
G1X14800Y2142D2*
G1X5174Y2142D1*
G1X14800Y2133D2*
G1X5174Y2133D1*
G1X14800Y2124D2*
G1X5174Y2124D1*
G1X14800Y2115D2*
G1X5174Y2115D1*
G1X14800Y2106D2*
G1X5174Y2106D1*
G1X14800Y2097D2*
G1X5174Y2097D1*
G1X14800Y2088D2*
G1X5174Y2088D1*
G1X14800Y2079D2*
G1X5174Y2079D1*
G1X14800Y2070D2*
G1X5174Y2070D1*
G1X14800Y2061D2*
G1X5174Y2061D1*
G1X14800Y2052D2*
G1X5174Y2052D1*
G1X14800Y2043D2*
G1X5174Y2043D1*
G1X14800Y2034D2*
G1X5174Y2034D1*
G1X14800Y2025D2*
G1X5174Y2025D1*
G1X14800Y2016D2*
G1X5174Y2016D1*
G1X14800Y2007D2*
G1X5174Y2007D1*
G1X14800Y1998D2*
G1X5174Y1998D1*
G1X14800Y1989D2*
G1X5174Y1989D1*
G1X14800Y1980D2*
G1X5174Y1980D1*
G1X14800Y1971D2*
G1X5174Y1971D1*
G1X14800Y1962D2*
G1X5174Y1962D1*
G1X14800Y1953D2*
G1X5174Y1953D1*
G1X14800Y1944D2*
G1X5174Y1944D1*
G1X14800Y1935D2*
G1X5174Y1935D1*
G1X14800Y1926D2*
G1X5174Y1926D1*
G1X14800Y1917D2*
G1X5174Y1917D1*
G1X14800Y1908D2*
G1X5174Y1908D1*
G1X14800Y1899D2*
G1X5174Y1899D1*
G1X14800Y1890D2*
G1X5174Y1890D1*
G1X14800Y1881D2*
G1X5174Y1881D1*
G1X14800Y1872D2*
G1X5174Y1872D1*
G1X14800Y1863D2*
G1X5174Y1863D1*
G1X14800Y1854D2*
G1X5174Y1854D1*
G1X14800Y1845D2*
G1X5174Y1845D1*
G1X14800Y1836D2*
G1X5174Y1836D1*
G1X14800Y1827D2*
G1X5174Y1827D1*
G1X14800Y1818D2*
G1X5174Y1818D1*
G1X14800Y1809D2*
G1X5174Y1809D1*
G1X14800Y1800D2*
G1X5174Y1800D1*
G1X14800Y1791D2*
G1X5174Y1791D1*
G1X14800Y1782D2*
G1X5174Y1782D1*
G1X14800Y1773D2*
G1X5174Y1773D1*
G1X14800Y1764D2*
G1X5174Y1764D1*
G1X14800Y1755D2*
G1X5174Y1755D1*
G1X14800Y1746D2*
G1X5174Y1746D1*
G1X14800Y1737D2*
G1X5174Y1737D1*
G1X14800Y1728D2*
G1X5174Y1728D1*
G1X14800Y1719D2*
G1X5174Y1719D1*
G1X14800Y1710D2*
G1X5174Y1710D1*
G1X14800Y1701D2*
G1X5174Y1701D1*
G1X14800Y1692D2*
G1X5174Y1692D1*
G1X14800Y1683D2*
G1X5174Y1683D1*
G1X14800Y1674D2*
G1X5174Y1674D1*
G1X14800Y1665D2*
G1X5174Y1665D1*
G1X14800Y1656D2*
G1X5174Y1656D1*
G1X14800Y1647D2*
G1X5174Y1647D1*
G1X14800Y1638D2*
G1X5174Y1638D1*
G1X14800Y1629D2*
G1X5174Y1629D1*
G1X14800Y1620D2*
G1X5174Y1620D1*
G1X14800Y1611D2*
G1X5174Y1611D1*
G1X14800Y1602D2*
G1X5174Y1602D1*
G1X14800Y1593D2*
G1X5174Y1593D1*
G1X14800Y1584D2*
G1X5174Y1584D1*
G1X14800Y1575D2*
G1X5174Y1575D1*
G1X14800Y1566D2*
G1X5174Y1566D1*
G1X14800Y1557D2*
G1X5174Y1557D1*
G1X14800Y1548D2*
G1X5174Y1548D1*
G1X14800Y1539D2*
G1X5174Y1539D1*
G1X14800Y1530D2*
G1X5174Y1530D1*
G1X14800Y1521D2*
G1X5174Y1521D1*
G1X14800Y1512D2*
G1X5174Y1512D1*
G1X14800Y1503D2*
G1X5174Y1503D1*
G1X14800Y1494D2*
G1X5174Y1494D1*
G1X14800Y1485D2*
G1X5174Y1485D1*
G1X14800Y1476D2*
G1X5174Y1476D1*
G1X14800Y1467D2*
G1X5174Y1467D1*
G1X14800Y1458D2*
G1X5174Y1458D1*
G1X14800Y1449D2*
G1X5174Y1449D1*
G1X14800Y1440D2*
G1X5174Y1440D1*
G1X14800Y1431D2*
G1X5174Y1431D1*
G1X14800Y1422D2*
G1X5174Y1422D1*
G1X14800Y1413D2*
G1X5174Y1413D1*
G1X14800Y1404D2*
G1X5174Y1404D1*
G1X14800Y1395D2*
G1X5174Y1395D1*
G1X14800Y1386D2*
G1X5174Y1386D1*
G1X14800Y1377D2*
G1X5174Y1377D1*
G1X14800Y1368D2*
G1X5174Y1368D1*
G1X14800Y1359D2*
G1X5174Y1359D1*
G1X14800Y1350D2*
G1X5174Y1350D1*
G1X14800Y1341D2*
G1X5174Y1341D1*
G1X14800Y1332D2*
G1X5174Y1332D1*
G1X14800Y1323D2*
G1X5174Y1323D1*
G1X14800Y1314D2*
G1X5174Y1314D1*
G1X14800Y1305D2*
G1X5174Y1305D1*
G1X14800Y1296D2*
G1X5174Y1296D1*
G1X14800Y1287D2*
G1X5174Y1287D1*
G1X14800Y1278D2*
G1X5174Y1278D1*
G1X14800Y1269D2*
G1X5174Y1269D1*
G1X14800Y1260D2*
G1X5174Y1260D1*
G1X14800Y1251D2*
G1X5174Y1251D1*
G1X14800Y1233D2*
G1X5174Y1233D1*
G1X14800Y1224D2*
G1X5174Y1224D1*
G1X14800Y1215D2*
G1X5174Y1215D1*
G1X14800Y1206D2*
G1X5174Y1206D1*
G1X14800Y1197D2*
G1X5174Y1197D1*
G1X14800Y1188D2*
G1X5174Y1188D1*
G1X14800Y1179D2*
G1X5174Y1179D1*
G1X14800Y1170D2*
G1X5174Y1170D1*
G1X14800Y1161D2*
G1X5174Y1161D1*
G1X14800Y1152D2*
G1X5174Y1152D1*
G1X14800Y1143D2*
G1X5174Y1143D1*
G1X14800Y1134D2*
G1X5174Y1134D1*
G1X14800Y1125D2*
G1X5174Y1125D1*
G1X14800Y1116D2*
G1X5174Y1116D1*
G1X14800Y1107D2*
G1X5174Y1107D1*
G1X14800Y1098D2*
G1X5174Y1098D1*
G1X14800Y1089D2*
G1X5174Y1089D1*
G1X14800Y1080D2*
G1X5174Y1080D1*
G1X14800Y1071D2*
G1X5174Y1071D1*
G1X14800Y1062D2*
G1X5174Y1062D1*
G1X14800Y1053D2*
G1X5174Y1053D1*
G1X14800Y1044D2*
G1X5174Y1044D1*
G1X14800Y1035D2*
G1X5174Y1035D1*
G1X14800Y1026D2*
G1X5174Y1026D1*
G1X14800Y1017D2*
G1X5174Y1017D1*
G1X14800Y1008D2*
G1X5174Y1008D1*
G1X14800Y999D2*
G1X5174Y999D1*
G1X14800Y990D2*
G1X5174Y990D1*
G1X14800Y981D2*
G1X5174Y981D1*
G1X14800Y972D2*
G1X5174Y972D1*
G1X14800Y963D2*
G1X5174Y963D1*
G1X14800Y954D2*
G1X5174Y954D1*
G1X14800Y945D2*
G1X5174Y945D1*
G1X14800Y936D2*
G1X5174Y936D1*
G1X14800Y927D2*
G1X5174Y927D1*
G1X14800Y918D2*
G1X5174Y918D1*
G1X14800Y909D2*
G1X5174Y909D1*
G1X14800Y900D2*
G1X5174Y900D1*
G1X14800Y891D2*
G1X5174Y891D1*
G1X14800Y882D2*
G1X5174Y882D1*
G1X14800Y873D2*
G1X5174Y873D1*
G1X14800Y864D2*
G1X5174Y864D1*
G1X14800Y855D2*
G1X5174Y855D1*
G1X14800Y846D2*
G1X5174Y846D1*
G1X14800Y837D2*
G1X5174Y837D1*
G1X14800Y828D2*
G1X5174Y828D1*
G1X14800Y819D2*
G1X5174Y819D1*
G1X14800Y810D2*
G1X5174Y810D1*
G1X14800Y801D2*
G1X5174Y801D1*
G1X14800Y792D2*
G1X5174Y792D1*
G1X14800Y783D2*
G1X5174Y783D1*
G1X14800Y774D2*
G1X5174Y774D1*
G1X14800Y765D2*
G1X5174Y765D1*
G1X14800Y756D2*
G1X5174Y756D1*
G1X14800Y747D2*
G1X5174Y747D1*
G1X14800Y738D2*
G1X5174Y738D1*
G1X14800Y729D2*
G1X5174Y729D1*
G1X14800Y720D2*
G1X5174Y720D1*
G1X14800Y711D2*
G1X5174Y711D1*
G1X14800Y702D2*
G1X5174Y702D1*
G1X14800Y693D2*
G1X5174Y693D1*
G1X14800Y684D2*
G1X5174Y684D1*
G1X14800Y675D2*
G1X5174Y675D1*
G1X14800Y666D2*
G1X5174Y666D1*
G1X14800Y657D2*
G1X5174Y657D1*
G1X14800Y648D2*
G1X5174Y648D1*
G1X14800Y639D2*
G1X5174Y639D1*
G1X14800Y630D2*
G1X5174Y630D1*
G1X14800Y621D2*
G1X5174Y621D1*
G1X14800Y612D2*
G1X5174Y612D1*
G1X14800Y603D2*
G1X5174Y603D1*
G1X14800Y594D2*
G1X5174Y594D1*
G1X14800Y585D2*
G1X5174Y585D1*
G1X14800Y576D2*
G1X5174Y576D1*
G1X14800Y567D2*
G1X5174Y567D1*
G1X14800Y558D2*
G1X5174Y558D1*
G1X14800Y549D2*
G1X5174Y549D1*
G1X14800Y540D2*
G1X5174Y540D1*
G1X14800Y531D2*
G1X5174Y531D1*
G1X14800Y522D2*
G1X5174Y522D1*
G1X14800Y513D2*
G1X5174Y513D1*
G1X14800Y504D2*
G1X5174Y504D1*
G1X14800Y495D2*
G1X5174Y495D1*
G1X14800Y486D2*
G1X5174Y486D1*
G1X14800Y477D2*
G1X5174Y477D1*
G1X14800Y468D2*
G1X5174Y468D1*
G1X14800Y459D2*
G1X5174Y459D1*
G1X14800Y450D2*
G1X5174Y450D1*
G1X14800Y441D2*
G1X5174Y441D1*
G1X14800Y432D2*
G1X5174Y432D1*
G1X14800Y423D2*
G1X5174Y423D1*
G1X14800Y414D2*
G1X5174Y414D1*
G1X14800Y405D2*
G1X5174Y405D1*
G1X14800Y396D2*
G1X5174Y396D1*
G1X14800Y387D2*
G1X5174Y387D1*
G1X14800Y378D2*
G1X5174Y378D1*
G1X14800Y369D2*
G1X5174Y369D1*
G1X14800Y360D2*
G1X5174Y360D1*
G1X14800Y351D2*
G1X5174Y351D1*
G1X14800Y342D2*
G1X5174Y342D1*
G1X14800Y333D2*
G1X5174Y333D1*
G1X14800Y324D2*
G1X5174Y324D1*
G1X14800Y315D2*
G1X5174Y315D1*
G1X14800Y306D2*
G1X5174Y306D1*
G1X14800Y297D2*
G1X5174Y297D1*
G1X14800Y288D2*
G1X5174Y288D1*
G1X14800Y279D2*
G1X5174Y279D1*
G1X14800Y270D2*
G1X5174Y270D1*
G1X14800Y261D2*
G1X5174Y261D1*
G1X14800Y252D2*
G1X5174Y252D1*
G1X14800Y243D2*
G1X5174Y243D1*
G1X14800Y234D2*
G1X5174Y234D1*
G1X14800Y225D2*
G1X5174Y225D1*
G1X14800Y216D2*
G1X5174Y216D1*
G1X14800Y207D2*
G1X5174Y207D1*
G1X14800Y198D2*
G1X5174Y198D1*
G1X14800Y189D2*
G1X5174Y189D1*
G1X14800Y180D2*
G1X5174Y180D1*
G1X14800Y171D2*
G1X5174Y171D1*
G1X14800Y162D2*
G1X5174Y162D1*
G1X14800Y153D2*
G1X5174Y153D1*
G1X14800Y144D2*
G1X5174Y144D1*
G1X14800Y135D2*
G1X5174Y135D1*
G1X14800Y126D2*
G1X5174Y126D1*
G1X14800Y117D2*
G1X5174Y117D1*
G1X14800Y108D2*
G1X5174Y108D1*
G1X14800Y99D2*
G1X5174Y99D1*
G1X14800Y90D2*
G1X5174Y90D1*
G1X14800Y81D2*
G1X5174Y81D1*
G1X14800Y72D2*
G1X5174Y72D1*
G1X14800Y63D2*
G1X5174Y63D1*
G1X14800Y54D2*
G1X5174Y54D1*
G1X14800Y45D2*
G1X5174Y45D1*
G1X14800Y36D2*
G1X5174Y36D1*
G1X14800Y27D2*
G1X5174Y27D1*
G1X14800Y14D2*
G1X5174Y14D1*
G1X14800Y2455D2*
G1X14800Y14D1*
G1X14800Y2455D2*
G1X5174Y2455D1*
G1X5174Y14D1*
G1X14800Y1242D2*
G1X5174Y1242D1*
G1X14790Y2455D2*
G1X14790Y14D1*
G1X14781Y2455D2*
G1X14781Y14D1*
G1X14772Y2455D2*
G1X14772Y14D1*
G1X14763Y2455D2*
G1X14763Y14D1*
G1X14754Y2455D2*
G1X14754Y14D1*
G1X14745Y2455D2*
G1X14745Y14D1*
G1X14736Y2455D2*
G1X14736Y14D1*
G1X14727Y2455D2*
G1X14727Y14D1*
G1X14718Y2455D2*
G1X14718Y14D1*
G1X14709Y2455D2*
G1X14709Y14D1*
G1X14700Y2455D2*
G1X14700Y14D1*
G1X14691Y2455D2*
G1X14691Y14D1*
G1X14682Y2455D2*
G1X14682Y14D1*
G1X14673Y2455D2*
G1X14673Y14D1*
G1X14664Y2455D2*
G1X14664Y14D1*
G1X14655Y2455D2*
G1X14655Y14D1*
G1X14646Y2455D2*
G1X14646Y14D1*
G1X14637Y2455D2*
G1X14637Y14D1*
G1X14628Y2455D2*
G1X14628Y14D1*
G1X14619Y2455D2*
G1X14619Y14D1*
G1X14610Y2455D2*
G1X14610Y14D1*
G1X14601Y2455D2*
G1X14601Y14D1*
G1X14592Y2455D2*
G1X14592Y14D1*
G1X14583Y2455D2*
G1X14583Y14D1*
G1X14574Y2455D2*
G1X14574Y14D1*
G1X14565Y2455D2*
G1X14565Y14D1*
G1X14556Y2455D2*
G1X14556Y14D1*
G1X14547Y2455D2*
G1X14547Y14D1*
G1X14538Y2455D2*
G1X14538Y14D1*
G1X14529Y2455D2*
G1X14529Y14D1*
G1X14520Y2455D2*
G1X14520Y14D1*
G1X14511Y2455D2*
G1X14511Y14D1*
G1X14502Y2455D2*
G1X14502Y14D1*
G1X14493Y2455D2*
G1X14493Y14D1*
G1X14484Y2455D2*
G1X14484Y14D1*
G1X14475Y2455D2*
G1X14475Y14D1*
G1X14466Y2455D2*
G1X14466Y14D1*
G1X14457Y2455D2*
G1X14457Y14D1*
G1X14448Y2455D2*
G1X14448Y14D1*
G1X14439Y2455D2*
G1X14439Y14D1*
G1X14430Y2455D2*
G1X14430Y14D1*
G1X14421Y2455D2*
G1X14421Y14D1*
G1X14412Y2455D2*
G1X14412Y14D1*
G1X14403Y2455D2*
G1X14403Y14D1*
G1X14394Y2455D2*
G1X14394Y14D1*
G1X14385Y2455D2*
G1X14385Y14D1*
G1X14376Y2455D2*
G1X14376Y14D1*
G1X14367Y2455D2*
G1X14367Y14D1*
G1X14358Y2455D2*
G1X14358Y14D1*
G1X14349Y2455D2*
G1X14349Y14D1*
G1X14340Y2455D2*
G1X14340Y14D1*
G1X14331Y2455D2*
G1X14331Y14D1*
G1X14322Y2455D2*
G1X14322Y14D1*
G1X14313Y2455D2*
G1X14313Y14D1*
G1X14304Y2455D2*
G1X14304Y14D1*
G1X14295Y2455D2*
G1X14295Y14D1*
G1X14286Y2455D2*
G1X14286Y14D1*
G1X14277Y2455D2*
G1X14277Y14D1*
G1X14268Y2455D2*
G1X14268Y14D1*
G1X14259Y2455D2*
G1X14259Y14D1*
G1X14250Y2455D2*
G1X14250Y14D1*
G1X14241Y2455D2*
G1X14241Y14D1*
G1X14232Y2455D2*
G1X14232Y14D1*
G1X14223Y2455D2*
G1X14223Y14D1*
G1X14214Y2455D2*
G1X14214Y14D1*
G1X14205Y2455D2*
G1X14205Y14D1*
G1X14196Y2455D2*
G1X14196Y14D1*
G1X14187Y2455D2*
G1X14187Y14D1*
G1X14178Y2455D2*
G1X14178Y14D1*
G1X14169Y2455D2*
G1X14169Y14D1*
G1X14160Y2455D2*
G1X14160Y14D1*
G1X14151Y2455D2*
G1X14151Y14D1*
G1X14142Y2455D2*
G1X14142Y14D1*
G1X14133Y2455D2*
G1X14133Y14D1*
G1X14124Y2455D2*
G1X14124Y14D1*
G1X14115Y2455D2*
G1X14115Y14D1*
G1X14106Y2455D2*
G1X14106Y14D1*
G1X14097Y2455D2*
G1X14097Y14D1*
G1X14088Y2455D2*
G1X14088Y14D1*
G1X14079Y2455D2*
G1X14079Y14D1*
G1X14070Y2455D2*
G1X14070Y14D1*
G1X14061Y2455D2*
G1X14061Y14D1*
G1X14052Y2455D2*
G1X14052Y14D1*
G1X14043Y2455D2*
G1X14043Y14D1*
G1X14034Y2455D2*
G1X14034Y14D1*
G1X14025Y2455D2*
G1X14025Y14D1*
G1X14016Y2455D2*
G1X14016Y14D1*
G1X14007Y2455D2*
G1X14007Y14D1*
G1X13998Y2455D2*
G1X13998Y14D1*
G1X13989Y2455D2*
G1X13989Y14D1*
G1X13980Y2455D2*
G1X13980Y14D1*
G1X13971Y2455D2*
G1X13971Y14D1*
G1X13962Y2455D2*
G1X13962Y14D1*
G1X13953Y2455D2*
G1X13953Y14D1*
G1X13944Y2455D2*
G1X13944Y14D1*
G1X13935Y2455D2*
G1X13935Y14D1*
G1X13926Y2455D2*
G1X13926Y14D1*
G1X13917Y2455D2*
G1X13917Y14D1*
G1X13908Y2455D2*
G1X13908Y14D1*
G1X13899Y2455D2*
G1X13899Y14D1*
G1X13890Y2455D2*
G1X13890Y14D1*
G1X13881Y2455D2*
G1X13881Y14D1*
G1X13872Y2455D2*
G1X13872Y14D1*
G1X13863Y2455D2*
G1X13863Y14D1*
G1X13854Y2455D2*
G1X13854Y14D1*
G1X13845Y2455D2*
G1X13845Y14D1*
G1X13836Y2455D2*
G1X13836Y14D1*
G1X13827Y2455D2*
G1X13827Y14D1*
G1X13818Y2455D2*
G1X13818Y14D1*
G1X13809Y2455D2*
G1X13809Y14D1*
G1X13800Y2455D2*
G1X13800Y14D1*
G1X13791Y2455D2*
G1X13791Y14D1*
G1X13782Y2455D2*
G1X13782Y14D1*
G1X13773Y2455D2*
G1X13773Y14D1*
G1X13764Y2455D2*
G1X13764Y14D1*
G1X13755Y2455D2*
G1X13755Y14D1*
G1X13746Y2455D2*
G1X13746Y14D1*
G1X13737Y2455D2*
G1X13737Y14D1*
G1X13728Y2455D2*
G1X13728Y14D1*
G1X13719Y2455D2*
G1X13719Y14D1*
G1X13710Y2455D2*
G1X13710Y14D1*
G1X13701Y2455D2*
G1X13701Y14D1*
G1X13692Y2455D2*
G1X13692Y14D1*
G1X13683Y2455D2*
G1X13683Y14D1*
G1X13674Y2455D2*
G1X13674Y14D1*
G1X13665Y2455D2*
G1X13665Y14D1*
G1X13656Y2455D2*
G1X13656Y14D1*
G1X13647Y2455D2*
G1X13647Y14D1*
G1X13638Y2455D2*
G1X13638Y14D1*
G1X13629Y2455D2*
G1X13629Y14D1*
G1X13620Y2455D2*
G1X13620Y14D1*
G1X13611Y2455D2*
G1X13611Y14D1*
G1X13602Y2455D2*
G1X13602Y14D1*
G1X13593Y2455D2*
G1X13593Y14D1*
G1X13584Y2455D2*
G1X13584Y14D1*
G1X13575Y2455D2*
G1X13575Y14D1*
G1X13566Y2455D2*
G1X13566Y14D1*
G1X13557Y2455D2*
G1X13557Y14D1*
G1X13548Y2455D2*
G1X13548Y14D1*
G1X13539Y2455D2*
G1X13539Y14D1*
G1X13530Y2455D2*
G1X13530Y14D1*
G1X13521Y2455D2*
G1X13521Y14D1*
G1X13512Y2455D2*
G1X13512Y14D1*
G1X13503Y2455D2*
G1X13503Y14D1*
G1X13494Y2455D2*
G1X13494Y14D1*
G1X13485Y2455D2*
G1X13485Y14D1*
G1X13476Y2455D2*
G1X13476Y14D1*
G1X13467Y2455D2*
G1X13467Y14D1*
G1X13458Y2455D2*
G1X13458Y14D1*
G1X13449Y2455D2*
G1X13449Y14D1*
G1X13440Y2455D2*
G1X13440Y14D1*
G1X13431Y2455D2*
G1X13431Y14D1*
G1X13422Y2455D2*
G1X13422Y14D1*
G1X13413Y2455D2*
G1X13413Y14D1*
G1X13404Y2455D2*
G1X13404Y14D1*
G1X13395Y2455D2*
G1X13395Y14D1*
G1X13386Y2455D2*
G1X13386Y14D1*
G1X13377Y2455D2*
G1X13377Y14D1*
G1X13368Y2455D2*
G1X13368Y14D1*
G1X13359Y2455D2*
G1X13359Y14D1*
G1X13350Y2455D2*
G1X13350Y14D1*
G1X13341Y2455D2*
G1X13341Y14D1*
G1X13332Y2455D2*
G1X13332Y14D1*
G1X13323Y2455D2*
G1X13323Y14D1*
G1X13314Y2455D2*
G1X13314Y14D1*
G1X13305Y2455D2*
G1X13305Y14D1*
G1X13296Y2455D2*
G1X13296Y14D1*
G1X13287Y2455D2*
G1X13287Y14D1*
G1X13278Y2455D2*
G1X13278Y14D1*
G1X13269Y2455D2*
G1X13269Y14D1*
G1X13260Y2455D2*
G1X13260Y14D1*
G1X13251Y2455D2*
G1X13251Y14D1*
G1X13242Y2455D2*
G1X13242Y14D1*
G1X13233Y2455D2*
G1X13233Y14D1*
G1X13224Y2455D2*
G1X13224Y14D1*
G1X13215Y2455D2*
G1X13215Y14D1*
G1X13206Y2455D2*
G1X13206Y14D1*
G1X13197Y2455D2*
G1X13197Y14D1*
G1X13188Y2455D2*
G1X13188Y14D1*
G1X13179Y2455D2*
G1X13179Y14D1*
G1X13170Y2455D2*
G1X13170Y14D1*
G1X13161Y2455D2*
G1X13161Y14D1*
G1X13152Y2455D2*
G1X13152Y14D1*
G1X13143Y2455D2*
G1X13143Y14D1*
G1X13134Y2455D2*
G1X13134Y14D1*
G1X13125Y2455D2*
G1X13125Y14D1*
G1X13116Y2455D2*
G1X13116Y14D1*
G1X13107Y2455D2*
G1X13107Y14D1*
G1X13098Y2455D2*
G1X13098Y14D1*
G1X13089Y2455D2*
G1X13089Y14D1*
G1X13080Y2455D2*
G1X13080Y14D1*
G1X13071Y2455D2*
G1X13071Y14D1*
G1X13062Y2455D2*
G1X13062Y14D1*
G1X13053Y2455D2*
G1X13053Y14D1*
G1X13044Y2455D2*
G1X13044Y14D1*
G1X13035Y2455D2*
G1X13035Y14D1*
G1X13026Y2455D2*
G1X13026Y14D1*
G1X13017Y2455D2*
G1X13017Y14D1*
G1X13008Y2455D2*
G1X13008Y14D1*
G1X12999Y2455D2*
G1X12999Y14D1*
G1X12990Y2455D2*
G1X12990Y14D1*
G1X12981Y2455D2*
G1X12981Y14D1*
G1X12972Y2455D2*
G1X12972Y14D1*
G1X12963Y2455D2*
G1X12963Y14D1*
G1X12954Y2455D2*
G1X12954Y14D1*
G1X12945Y2455D2*
G1X12945Y14D1*
G1X12936Y2455D2*
G1X12936Y14D1*
G1X12927Y2455D2*
G1X12927Y14D1*
G1X12918Y2455D2*
G1X12918Y14D1*
G1X12909Y2455D2*
G1X12909Y14D1*
G1X12900Y2455D2*
G1X12900Y14D1*
G1X12891Y2455D2*
G1X12891Y14D1*
G1X12882Y2455D2*
G1X12882Y14D1*
G1X12873Y2455D2*
G1X12873Y14D1*
G1X12864Y2455D2*
G1X12864Y14D1*
G1X12855Y2455D2*
G1X12855Y14D1*
G1X12846Y2455D2*
G1X12846Y14D1*
G1X12837Y2455D2*
G1X12837Y14D1*
G1X12828Y2455D2*
G1X12828Y14D1*
G1X12819Y2455D2*
G1X12819Y14D1*
G1X12810Y2455D2*
G1X12810Y14D1*
G1X12801Y2455D2*
G1X12801Y14D1*
G1X12792Y2455D2*
G1X12792Y14D1*
G1X12783Y2455D2*
G1X12783Y14D1*
G1X12774Y2455D2*
G1X12774Y14D1*
G1X12765Y2455D2*
G1X12765Y14D1*
G1X12756Y2455D2*
G1X12756Y14D1*
G1X12747Y2455D2*
G1X12747Y14D1*
G1X12738Y2455D2*
G1X12738Y14D1*
G1X12729Y2455D2*
G1X12729Y14D1*
G1X12720Y2455D2*
G1X12720Y14D1*
G1X12711Y2455D2*
G1X12711Y14D1*
G1X12702Y2455D2*
G1X12702Y14D1*
G1X12693Y2455D2*
G1X12693Y14D1*
G1X12684Y2455D2*
G1X12684Y14D1*
G1X12675Y2455D2*
G1X12675Y14D1*
G1X12666Y2455D2*
G1X12666Y14D1*
G1X12657Y2455D2*
G1X12657Y14D1*
G1X12648Y2455D2*
G1X12648Y14D1*
G1X12639Y2455D2*
G1X12639Y14D1*
G1X12630Y2455D2*
G1X12630Y14D1*
G1X12621Y2455D2*
G1X12621Y14D1*
G1X12612Y2455D2*
G1X12612Y14D1*
G1X12603Y2455D2*
G1X12603Y14D1*
G1X12594Y2455D2*
G1X12594Y14D1*
G1X12585Y2455D2*
G1X12585Y14D1*
G1X12576Y2455D2*
G1X12576Y14D1*
G1X12567Y2455D2*
G1X12567Y14D1*
G1X12558Y2455D2*
G1X12558Y14D1*
G1X12549Y2455D2*
G1X12549Y14D1*
G1X12540Y2455D2*
G1X12540Y14D1*
G1X12531Y2455D2*
G1X12531Y14D1*
G1X12522Y2455D2*
G1X12522Y14D1*
G1X12513Y2455D2*
G1X12513Y14D1*
G1X12504Y2455D2*
G1X12504Y14D1*
G1X12495Y2455D2*
G1X12495Y14D1*
G1X12486Y2455D2*
G1X12486Y14D1*
G1X12477Y2455D2*
G1X12477Y14D1*
G1X12468Y2455D2*
G1X12468Y14D1*
G1X12459Y2455D2*
G1X12459Y14D1*
G1X12450Y2455D2*
G1X12450Y14D1*
G1X12441Y2455D2*
G1X12441Y14D1*
G1X12432Y2455D2*
G1X12432Y14D1*
G1X12423Y2455D2*
G1X12423Y14D1*
G1X12414Y2455D2*
G1X12414Y14D1*
G1X12405Y2455D2*
G1X12405Y14D1*
G1X12396Y2455D2*
G1X12396Y14D1*
G1X12387Y2455D2*
G1X12387Y14D1*
G1X12378Y2455D2*
G1X12378Y14D1*
G1X12369Y2455D2*
G1X12369Y14D1*
G1X12360Y2455D2*
G1X12360Y14D1*
G1X12351Y2455D2*
G1X12351Y14D1*
G1X12342Y2455D2*
G1X12342Y14D1*
G1X12333Y2455D2*
G1X12333Y14D1*
G1X12324Y2455D2*
G1X12324Y14D1*
G1X12315Y2455D2*
G1X12315Y14D1*
G1X12306Y2455D2*
G1X12306Y14D1*
G1X12297Y2455D2*
G1X12297Y14D1*
G1X12288Y2455D2*
G1X12288Y14D1*
G1X12279Y2455D2*
G1X12279Y14D1*
G1X12270Y2455D2*
G1X12270Y14D1*
G1X12261Y2455D2*
G1X12261Y14D1*
G1X12252Y2455D2*
G1X12252Y14D1*
G1X12243Y2455D2*
G1X12243Y14D1*
G1X12234Y2455D2*
G1X12234Y14D1*
G1X12225Y2455D2*
G1X12225Y14D1*
G1X12216Y2455D2*
G1X12216Y14D1*
G1X12207Y2455D2*
G1X12207Y14D1*
G1X12198Y2455D2*
G1X12198Y14D1*
G1X12189Y2455D2*
G1X12189Y14D1*
G1X12180Y2455D2*
G1X12180Y14D1*
G1X12171Y2455D2*
G1X12171Y14D1*
G1X12162Y2455D2*
G1X12162Y14D1*
G1X12153Y2455D2*
G1X12153Y14D1*
G1X12144Y2455D2*
G1X12144Y14D1*
G1X12135Y2455D2*
G1X12135Y14D1*
G1X12126Y2455D2*
G1X12126Y14D1*
G1X12117Y2455D2*
G1X12117Y14D1*
G1X12108Y2455D2*
G1X12108Y14D1*
G1X12099Y2455D2*
G1X12099Y14D1*
G1X12090Y2455D2*
G1X12090Y14D1*
G1X12081Y2455D2*
G1X12081Y14D1*
G1X12072Y2455D2*
G1X12072Y14D1*
G1X12063Y2455D2*
G1X12063Y14D1*
G1X12054Y2455D2*
G1X12054Y14D1*
G1X12045Y2455D2*
G1X12045Y14D1*
G1X12036Y2455D2*
G1X12036Y14D1*
G1X12027Y2455D2*
G1X12027Y14D1*
G1X12018Y2455D2*
G1X12018Y14D1*
G1X12009Y2455D2*
G1X12009Y14D1*
G1X12000Y2455D2*
G1X12000Y14D1*
G1X11991Y2455D2*
G1X11991Y14D1*
G1X11982Y2455D2*
G1X11982Y14D1*
G1X11973Y2455D2*
G1X11973Y14D1*
G1X11964Y2455D2*
G1X11964Y14D1*
G1X11955Y2455D2*
G1X11955Y14D1*
G1X11946Y2455D2*
G1X11946Y14D1*
G1X11937Y2455D2*
G1X11937Y14D1*
G1X11928Y2455D2*
G1X11928Y14D1*
G1X11919Y2455D2*
G1X11919Y14D1*
G1X11910Y2455D2*
G1X11910Y14D1*
G1X11901Y2455D2*
G1X11901Y14D1*
G1X11892Y2455D2*
G1X11892Y14D1*
G1X11883Y2455D2*
G1X11883Y14D1*
G1X11874Y2455D2*
G1X11874Y14D1*
G1X11865Y2455D2*
G1X11865Y14D1*
G1X11856Y2455D2*
G1X11856Y14D1*
G1X11847Y2455D2*
G1X11847Y14D1*
G1X11838Y2455D2*
G1X11838Y14D1*
G1X11829Y2455D2*
G1X11829Y14D1*
G1X11820Y2455D2*
G1X11820Y14D1*
G1X11811Y2455D2*
G1X11811Y14D1*
G1X11802Y2455D2*
G1X11802Y14D1*
G1X11793Y2455D2*
G1X11793Y14D1*
G1X11784Y2455D2*
G1X11784Y14D1*
G1X11775Y2455D2*
G1X11775Y14D1*
G1X11766Y2455D2*
G1X11766Y14D1*
G1X11757Y2455D2*
G1X11757Y14D1*
G1X11748Y2455D2*
G1X11748Y14D1*
G1X11739Y2455D2*
G1X11739Y14D1*
G1X11730Y2455D2*
G1X11730Y14D1*
G1X11721Y2455D2*
G1X11721Y14D1*
G1X11712Y2455D2*
G1X11712Y14D1*
G1X11703Y2455D2*
G1X11703Y14D1*
G1X11694Y2455D2*
G1X11694Y14D1*
G1X11685Y2455D2*
G1X11685Y14D1*
G1X11676Y2455D2*
G1X11676Y14D1*
G1X11667Y2455D2*
G1X11667Y14D1*
G1X11658Y2455D2*
G1X11658Y14D1*
G1X11649Y2455D2*
G1X11649Y14D1*
G1X11640Y2455D2*
G1X11640Y14D1*
G1X11631Y2455D2*
G1X11631Y14D1*
G1X11622Y2455D2*
G1X11622Y14D1*
G1X11613Y2455D2*
G1X11613Y14D1*
G1X11604Y2455D2*
G1X11604Y14D1*
G1X11595Y2455D2*
G1X11595Y14D1*
G1X11586Y2455D2*
G1X11586Y14D1*
G1X11577Y2455D2*
G1X11577Y14D1*
G1X11568Y2455D2*
G1X11568Y14D1*
G1X11559Y2455D2*
G1X11559Y14D1*
G1X11550Y2455D2*
G1X11550Y14D1*
G1X11541Y2455D2*
G1X11541Y14D1*
G1X11532Y2455D2*
G1X11532Y14D1*
G1X11523Y2455D2*
G1X11523Y14D1*
G1X11514Y2455D2*
G1X11514Y14D1*
G1X11505Y2455D2*
G1X11505Y14D1*
G1X11496Y2455D2*
G1X11496Y14D1*
G1X11487Y2455D2*
G1X11487Y14D1*
G1X11478Y2455D2*
G1X11478Y14D1*
G1X11469Y2455D2*
G1X11469Y14D1*
G1X11460Y2455D2*
G1X11460Y14D1*
G1X11451Y2455D2*
G1X11451Y14D1*
G1X11442Y2455D2*
G1X11442Y14D1*
G1X11433Y2455D2*
G1X11433Y14D1*
G1X11424Y2455D2*
G1X11424Y14D1*
G1X11415Y2455D2*
G1X11415Y14D1*
G1X11406Y2455D2*
G1X11406Y14D1*
G1X11397Y2455D2*
G1X11397Y14D1*
G1X11388Y2455D2*
G1X11388Y14D1*
G1X11379Y2455D2*
G1X11379Y14D1*
G1X11370Y2455D2*
G1X11370Y14D1*
G1X11361Y2455D2*
G1X11361Y14D1*
G1X11352Y2455D2*
G1X11352Y14D1*
G1X11343Y2455D2*
G1X11343Y14D1*
G1X11334Y2455D2*
G1X11334Y14D1*
G1X11325Y2455D2*
G1X11325Y14D1*
G1X11316Y2455D2*
G1X11316Y14D1*
G1X11307Y2455D2*
G1X11307Y14D1*
G1X11298Y2455D2*
G1X11298Y14D1*
G1X11289Y2455D2*
G1X11289Y14D1*
G1X11280Y2455D2*
G1X11280Y14D1*
G1X11271Y2455D2*
G1X11271Y14D1*
G1X11262Y2455D2*
G1X11262Y14D1*
G1X11253Y2455D2*
G1X11253Y14D1*
G1X11244Y2455D2*
G1X11244Y14D1*
G1X11235Y2455D2*
G1X11235Y14D1*
G1X11226Y2455D2*
G1X11226Y14D1*
G1X11217Y2455D2*
G1X11217Y14D1*
G1X11208Y2455D2*
G1X11208Y14D1*
G1X11199Y2455D2*
G1X11199Y14D1*
G1X11190Y2455D2*
G1X11190Y14D1*
G1X11181Y2455D2*
G1X11181Y14D1*
G1X11172Y2455D2*
G1X11172Y14D1*
G1X11163Y2455D2*
G1X11163Y14D1*
G1X11154Y2455D2*
G1X11154Y14D1*
G1X11145Y2455D2*
G1X11145Y14D1*
G1X11136Y2455D2*
G1X11136Y14D1*
G1X11127Y2455D2*
G1X11127Y14D1*
G1X11118Y2455D2*
G1X11118Y14D1*
G1X11109Y2455D2*
G1X11109Y14D1*
G1X11100Y2455D2*
G1X11100Y14D1*
G1X11091Y2455D2*
G1X11091Y14D1*
G1X11082Y2455D2*
G1X11082Y14D1*
G1X11073Y2455D2*
G1X11073Y14D1*
G1X11064Y2455D2*
G1X11064Y14D1*
G1X11055Y2455D2*
G1X11055Y14D1*
G1X11046Y2455D2*
G1X11046Y14D1*
G1X11037Y2455D2*
G1X11037Y14D1*
G1X11028Y2455D2*
G1X11028Y14D1*
G1X11019Y2455D2*
G1X11019Y14D1*
G1X11010Y2455D2*
G1X11010Y14D1*
G1X11001Y2455D2*
G1X11001Y14D1*
G1X10992Y2455D2*
G1X10992Y14D1*
G1X10983Y2455D2*
G1X10983Y14D1*
G1X10974Y2455D2*
G1X10974Y14D1*
G1X10965Y2455D2*
G1X10965Y14D1*
G1X10956Y2455D2*
G1X10956Y14D1*
G1X10947Y2455D2*
G1X10947Y14D1*
G1X10938Y2455D2*
G1X10938Y14D1*
G1X10929Y2455D2*
G1X10929Y14D1*
G1X10920Y2455D2*
G1X10920Y14D1*
G1X10911Y2455D2*
G1X10911Y14D1*
G1X10902Y2455D2*
G1X10902Y14D1*
G1X10893Y2455D2*
G1X10893Y14D1*
G1X10884Y2455D2*
G1X10884Y14D1*
G1X10875Y2455D2*
G1X10875Y14D1*
G1X10866Y2455D2*
G1X10866Y14D1*
G1X10857Y2455D2*
G1X10857Y14D1*
G1X10848Y2455D2*
G1X10848Y14D1*
G1X10839Y2455D2*
G1X10839Y14D1*
G1X10830Y2455D2*
G1X10830Y14D1*
G1X10821Y2455D2*
G1X10821Y14D1*
G1X10812Y2455D2*
G1X10812Y14D1*
G1X10803Y2455D2*
G1X10803Y14D1*
G1X10794Y2455D2*
G1X10794Y14D1*
G1X10785Y2455D2*
G1X10785Y14D1*
G1X10776Y2455D2*
G1X10776Y14D1*
G1X10767Y2455D2*
G1X10767Y14D1*
G1X10758Y2455D2*
G1X10758Y14D1*
G1X10749Y2455D2*
G1X10749Y14D1*
G1X10740Y2455D2*
G1X10740Y14D1*
G1X10731Y2455D2*
G1X10731Y14D1*
G1X10722Y2455D2*
G1X10722Y14D1*
G1X10713Y2455D2*
G1X10713Y14D1*
G1X10704Y2455D2*
G1X10704Y14D1*
G1X10695Y2455D2*
G1X10695Y14D1*
G1X10686Y2455D2*
G1X10686Y14D1*
G1X10677Y2455D2*
G1X10677Y14D1*
G1X10668Y2455D2*
G1X10668Y14D1*
G1X10659Y2455D2*
G1X10659Y14D1*
G1X10650Y2455D2*
G1X10650Y14D1*
G1X10641Y2455D2*
G1X10641Y14D1*
G1X10632Y2455D2*
G1X10632Y14D1*
G1X10623Y2455D2*
G1X10623Y14D1*
G1X10614Y2455D2*
G1X10614Y14D1*
G1X10605Y2455D2*
G1X10605Y14D1*
G1X10596Y2455D2*
G1X10596Y14D1*
G1X10587Y2455D2*
G1X10587Y14D1*
G1X10578Y2455D2*
G1X10578Y14D1*
G1X10569Y2455D2*
G1X10569Y14D1*
G1X10560Y2455D2*
G1X10560Y14D1*
G1X10551Y2455D2*
G1X10551Y14D1*
G1X10542Y2455D2*
G1X10542Y14D1*
G1X10533Y2455D2*
G1X10533Y14D1*
G1X10524Y2455D2*
G1X10524Y14D1*
G1X10515Y2455D2*
G1X10515Y14D1*
G1X10506Y2455D2*
G1X10506Y14D1*
G1X10497Y2455D2*
G1X10497Y14D1*
G1X10488Y2455D2*
G1X10488Y14D1*
G1X10479Y2455D2*
G1X10479Y14D1*
G1X10470Y2455D2*
G1X10470Y14D1*
G1X10461Y2455D2*
G1X10461Y14D1*
G1X10452Y2455D2*
G1X10452Y14D1*
G1X10443Y2455D2*
G1X10443Y14D1*
G1X10434Y2455D2*
G1X10434Y14D1*
G1X10425Y2455D2*
G1X10425Y14D1*
G1X10416Y2455D2*
G1X10416Y14D1*
G1X10407Y2455D2*
G1X10407Y14D1*
G1X10398Y2455D2*
G1X10398Y14D1*
G1X10389Y2455D2*
G1X10389Y14D1*
G1X10380Y2455D2*
G1X10380Y14D1*
G1X10371Y2455D2*
G1X10371Y14D1*
G1X10362Y2455D2*
G1X10362Y14D1*
G1X10353Y2455D2*
G1X10353Y14D1*
G1X10344Y2455D2*
G1X10344Y14D1*
G1X10335Y2455D2*
G1X10335Y14D1*
G1X10326Y2455D2*
G1X10326Y14D1*
G1X10317Y2455D2*
G1X10317Y14D1*
G1X10308Y2455D2*
G1X10308Y14D1*
G1X10299Y2455D2*
G1X10299Y14D1*
G1X10290Y2455D2*
G1X10290Y14D1*
G1X10281Y2455D2*
G1X10281Y14D1*
G1X10272Y2455D2*
G1X10272Y14D1*
G1X10263Y2455D2*
G1X10263Y14D1*
G1X10254Y2455D2*
G1X10254Y14D1*
G1X10245Y2455D2*
G1X10245Y14D1*
G1X10236Y2455D2*
G1X10236Y14D1*
G1X10227Y2455D2*
G1X10227Y14D1*
G1X10218Y2455D2*
G1X10218Y14D1*
G1X10209Y2455D2*
G1X10209Y14D1*
G1X10200Y2455D2*
G1X10200Y14D1*
G1X10191Y2455D2*
G1X10191Y14D1*
G1X10182Y2455D2*
G1X10182Y14D1*
G1X10173Y2455D2*
G1X10173Y14D1*
G1X10164Y2455D2*
G1X10164Y14D1*
G1X10155Y2455D2*
G1X10155Y14D1*
G1X10146Y2455D2*
G1X10146Y14D1*
G1X10137Y2455D2*
G1X10137Y14D1*
G1X10128Y2455D2*
G1X10128Y14D1*
G1X10119Y2455D2*
G1X10119Y14D1*
G1X10110Y2455D2*
G1X10110Y14D1*
G1X10101Y2455D2*
G1X10101Y14D1*
G1X10092Y2455D2*
G1X10092Y14D1*
G1X10083Y2455D2*
G1X10083Y14D1*
G1X10074Y2455D2*
G1X10074Y14D1*
G1X10065Y2455D2*
G1X10065Y14D1*
G1X10056Y2455D2*
G1X10056Y14D1*
G1X10047Y2455D2*
G1X10047Y14D1*
G1X10038Y2455D2*
G1X10038Y14D1*
G1X10029Y2455D2*
G1X10029Y14D1*
G1X10020Y2455D2*
G1X10020Y14D1*
G1X10011Y2455D2*
G1X10011Y14D1*
G1X10002Y2455D2*
G1X10002Y14D1*
G1X9993Y2455D2*
G1X9993Y14D1*
G1X9984Y2455D2*
G1X9984Y14D1*
G1X9975Y2455D2*
G1X9975Y14D1*
G1X9966Y2455D2*
G1X9966Y14D1*
G1X9957Y2455D2*
G1X9957Y14D1*
G1X9948Y2455D2*
G1X9948Y14D1*
G1X9939Y2455D2*
G1X9939Y14D1*
G1X9930Y2455D2*
G1X9930Y14D1*
G1X9921Y2455D2*
G1X9921Y14D1*
G1X9912Y2455D2*
G1X9912Y14D1*
G1X9903Y2455D2*
G1X9903Y14D1*
G1X9894Y2455D2*
G1X9894Y14D1*
G1X9885Y2455D2*
G1X9885Y14D1*
G1X9876Y2455D2*
G1X9876Y14D1*
G1X9867Y2455D2*
G1X9867Y14D1*
G1X9858Y2455D2*
G1X9858Y14D1*
G1X9849Y2455D2*
G1X9849Y14D1*
G1X9840Y2455D2*
G1X9840Y14D1*
G1X9831Y2455D2*
G1X9831Y14D1*
G1X9822Y2455D2*
G1X9822Y14D1*
G1X9813Y2455D2*
G1X9813Y14D1*
G1X9804Y2455D2*
G1X9804Y14D1*
G1X9795Y2455D2*
G1X9795Y14D1*
G1X9786Y2455D2*
G1X9786Y14D1*
G1X9777Y2455D2*
G1X9777Y14D1*
G1X9768Y2455D2*
G1X9768Y14D1*
G1X9759Y2455D2*
G1X9759Y14D1*
G1X9750Y2455D2*
G1X9750Y14D1*
G1X9741Y2455D2*
G1X9741Y14D1*
G1X9732Y2455D2*
G1X9732Y14D1*
G1X9723Y2455D2*
G1X9723Y14D1*
G1X9714Y2455D2*
G1X9714Y14D1*
G1X9705Y2455D2*
G1X9705Y14D1*
G1X9696Y2455D2*
G1X9696Y14D1*
G1X9687Y2455D2*
G1X9687Y14D1*
G1X9678Y2455D2*
G1X9678Y14D1*
G1X9669Y2455D2*
G1X9669Y14D1*
G1X9660Y2455D2*
G1X9660Y14D1*
G1X9651Y2455D2*
G1X9651Y14D1*
G1X9642Y2455D2*
G1X9642Y14D1*
G1X9633Y2455D2*
G1X9633Y14D1*
G1X9624Y2455D2*
G1X9624Y14D1*
G1X9615Y2455D2*
G1X9615Y14D1*
G1X9606Y2455D2*
G1X9606Y14D1*
G1X9597Y2455D2*
G1X9597Y14D1*
G1X9588Y2455D2*
G1X9588Y14D1*
G1X9579Y2455D2*
G1X9579Y14D1*
G1X9570Y2455D2*
G1X9570Y14D1*
G1X9561Y2455D2*
G1X9561Y14D1*
G1X9552Y2455D2*
G1X9552Y14D1*
G1X9543Y2455D2*
G1X9543Y14D1*
G1X9534Y2455D2*
G1X9534Y14D1*
G1X9525Y2455D2*
G1X9525Y14D1*
G1X9516Y2455D2*
G1X9516Y14D1*
G1X9507Y2455D2*
G1X9507Y14D1*
G1X9498Y2455D2*
G1X9498Y14D1*
G1X9489Y2455D2*
G1X9489Y14D1*
G1X9480Y2455D2*
G1X9480Y14D1*
G1X9471Y2455D2*
G1X9471Y14D1*
G1X9462Y2455D2*
G1X9462Y14D1*
G1X9453Y2455D2*
G1X9453Y14D1*
G1X9444Y2455D2*
G1X9444Y14D1*
G1X9435Y2455D2*
G1X9435Y14D1*
G1X20150Y1509D2*
G54D64*
G1X8270Y1509D1*
G1X20150Y1419D2*
G1X8270Y1419D1*
G1X20150Y1329D2*
G1X8270Y1329D1*
G1X20150Y1239D2*
G1X8270Y1239D1*
G1X20150Y1149D2*
G1X8270Y1149D1*
G1X20150Y1059D2*
G1X8270Y1059D1*
G1X20150Y969D2*
G1X8270Y969D1*
G1X20150Y879D2*
G1X8270Y879D1*
G1X20150Y789D2*
G1X8270Y789D1*
G1X20150Y699D2*
G1X8270Y699D1*
G1X20150Y519D2*
G1X8270Y519D1*
G1X20150Y429D2*
G1X8270Y429D1*
G1X20150Y339D2*
G1X8270Y339D1*
G1X20150Y249D2*
G1X8270Y249D1*
G1X20150Y159D2*
G1X8270Y159D1*
G1X20150Y69D2*
G1X8270Y69D1*
G1X20150Y-21D2*
G1X8270Y-21D1*
G1X20150Y-111D2*
G1X8270Y-111D1*
G1X20150Y2139D2*
G1X2810Y2139D1*
G1X7710Y2740D2*
G1X7710Y1600D1*
G1X2810Y2740D2*
G1X2810Y-150D1*
G1X7620Y-150D2*
G1X2810Y-150D1*
G1X7620Y1600D2*
G1X7620Y-150D1*
G1X8270Y1600D2*
G1X7620Y1600D1*
G1X8270Y1600D2*
G1X8270Y-150D1*
G1X20150Y-151D1*
G1X20150Y2740D2*
G1X20150Y-151D1*
G1X20150Y2740D2*
G1X2810Y2740D1*
G1X7620Y1419D2*
G1X2810Y1419D1*
G1X20130Y2740D2*
G1X20130Y-151D1*
G1X20040Y2740D2*
G1X20040Y-151D1*
G1X19950Y2740D2*
G1X19950Y-151D1*
G1X19860Y2740D2*
G1X19860Y-151D1*
G1X19770Y2740D2*
G1X19770Y-151D1*
G1X19680Y2740D2*
G1X19680Y-151D1*
G1X19590Y2740D2*
G1X19590Y-151D1*
G1X19500Y2740D2*
G1X19500Y-151D1*
G1X19410Y2740D2*
G1X19410Y-151D1*
G1X19320Y2740D2*
G1X19320Y-151D1*
G1X19230Y2740D2*
G1X19230Y-151D1*
G1X19140Y2740D2*
G1X19140Y-151D1*
G1X19050Y2740D2*
G1X19050Y-151D1*
G1X18960Y2740D2*
G1X18960Y-151D1*
G1X18870Y2740D2*
G1X18870Y-151D1*
G1X18780Y2740D2*
G1X18780Y-151D1*
G1X18690Y2740D2*
G1X18690Y-151D1*
G1X18600Y2740D2*
G1X18600Y-151D1*
G1X18510Y2740D2*
G1X18510Y-151D1*
G1X18420Y2740D2*
G1X18420Y-151D1*
G1X18330Y2740D2*
G1X18330Y-151D1*
G1X18240Y2740D2*
G1X18240Y-151D1*
G1X18150Y2740D2*
G1X18150Y-151D1*
G1X18060Y2740D2*
G1X18060Y-151D1*
G1X17970Y2740D2*
G1X17970Y-151D1*
G1X17880Y2740D2*
G1X17880Y-151D1*
G1X17790Y2740D2*
G1X17790Y-151D1*
G1X17700Y2740D2*
G1X17700Y-151D1*
G1X17610Y2740D2*
G1X17610Y-151D1*
G1X17520Y2740D2*
G1X17520Y-151D1*
G1X17430Y2740D2*
G1X17430Y-151D1*
G1X17340Y2740D2*
G1X17340Y-151D1*
G1X17250Y2740D2*
G1X17250Y-151D1*
G1X17160Y2740D2*
G1X17160Y-150D1*
G1X17070Y2740D2*
G1X17070Y-150D1*
G1X16980Y2740D2*
G1X16980Y-150D1*
G1X16890Y2740D2*
G1X16890Y-150D1*
G1X16800Y2740D2*
G1X16800Y-150D1*
G1X16710Y2740D2*
G1X16710Y-150D1*
G1X16620Y2740D2*
G1X16620Y-150D1*
G1X16530Y2740D2*
G1X16530Y-150D1*
G1X16440Y2740D2*
G1X16440Y-150D1*
G1X16350Y2740D2*
G1X16350Y-150D1*
G1X16260Y2740D2*
G1X16260Y-150D1*
G1X16170Y2740D2*
G1X16170Y-150D1*
G1X16080Y2740D2*
G1X16080Y-150D1*
G1X15990Y2740D2*
G1X15990Y-150D1*
G1X15900Y2740D2*
G1X15900Y-150D1*
G1X15810Y2740D2*
G1X15810Y-150D1*
G1X15720Y2740D2*
G1X15720Y-150D1*
G1X15630Y2740D2*
G1X15630Y-150D1*
G1X15540Y2740D2*
G1X15540Y-150D1*
G1X15450Y2740D2*
G1X15450Y-150D1*
G1X15360Y2740D2*
G1X15360Y-150D1*
G1X15270Y2740D2*
G1X15270Y-150D1*
G1X15180Y2740D2*
G1X15180Y-150D1*
G1X15090Y2740D2*
G1X15090Y-150D1*
G1X15000Y2740D2*
G1X15000Y-150D1*
G1X14910Y2740D2*
G1X14910Y-150D1*
G1X14820Y2740D2*
G1X14820Y-150D1*
G1X14730Y2740D2*
G1X14730Y-150D1*
G1X14640Y2740D2*
G1X14640Y-150D1*
G1X14550Y2740D2*
G1X14550Y-150D1*
G1X14460Y2740D2*
G1X14460Y-150D1*
G1X14370Y2740D2*
G1X14370Y-150D1*
G1X14280Y2740D2*
G1X14280Y-150D1*
G1X14190Y2740D2*
G1X14190Y-150D1*
G1X14100Y2740D2*
G1X14100Y-150D1*
G1X14010Y2740D2*
G1X14010Y-150D1*
G1X13920Y2740D2*
G1X13920Y-150D1*
G1X13830Y2740D2*
G1X13830Y-150D1*
G1X13740Y2740D2*
G1X13740Y-150D1*
G1X13650Y2740D2*
G1X13650Y-150D1*
G1X13560Y2740D2*
G1X13560Y-150D1*
G1X13470Y2740D2*
G1X13470Y-150D1*
G1X13380Y2740D2*
G1X13380Y-150D1*
G1X13290Y2740D2*
G1X13290Y-150D1*
G1X13200Y2740D2*
G1X13200Y-150D1*
G1X13110Y2740D2*
G1X13110Y-150D1*
G1X13020Y2740D2*
G1X13020Y-150D1*
G1X12930Y2740D2*
G1X12930Y-150D1*
G1X12840Y2740D2*
G1X12840Y-150D1*
G1X12750Y2740D2*
G1X12750Y-150D1*
G1X12660Y2740D2*
G1X12660Y-150D1*
G1X12570Y2740D2*
G1X12570Y-150D1*
G1X12480Y2740D2*
G1X12480Y-150D1*
G1X12390Y2740D2*
G1X12390Y-150D1*
G1X12300Y2740D2*
G1X12300Y-150D1*
G1X12210Y2740D2*
G1X12210Y-150D1*
G1X12120Y2740D2*
G1X12120Y-150D1*
G1X12030Y2740D2*
G1X12030Y-150D1*
G1X11940Y2740D2*
G1X11940Y-150D1*
G1X11850Y2740D2*
G1X11850Y-150D1*
G1X11760Y2740D2*
G1X11760Y-150D1*
G1X11670Y2740D2*
G1X11670Y-150D1*
G1X7620Y609D2*
G1X2810Y609D1*
G1X11490Y2740D2*
G1X11490Y-150D1*
G1X11400Y2740D2*
G1X11400Y-150D1*
G1X11310Y2740D2*
G1X11310Y-150D1*
G1X11220Y2740D2*
G1X11220Y-150D1*
G1X11130Y2740D2*
G1X11130Y-150D1*
G1X11040Y2740D2*
G1X11040Y-150D1*
G1X10950Y2740D2*
G1X10950Y-150D1*
G1X10860Y2740D2*
G1X10860Y-150D1*
G1X10770Y2740D2*
G1X10770Y-150D1*
G1X10680Y2740D2*
G1X10680Y-150D1*
G1X10590Y2740D2*
G1X10590Y-150D1*
G1X10500Y2740D2*
G1X10500Y-150D1*
G1X10410Y2740D2*
G1X10410Y-150D1*
G1X10320Y2740D2*
G1X10320Y-150D1*
G1X10230Y2740D2*
G1X10230Y-150D1*
G1X10140Y2740D2*
G1X10140Y-150D1*
G1X10050Y2740D2*
G1X10050Y-150D1*
G1X9960Y2740D2*
G1X9960Y-150D1*
G1X9870Y2740D2*
G1X9870Y-150D1*
G1X9780Y2740D2*
G1X9780Y-150D1*
G1X9690Y2740D2*
G1X9690Y-150D1*
G1X9600Y2740D2*
G1X9600Y-150D1*
G1X9510Y2740D2*
G1X9510Y-150D1*
G1X9420Y2740D2*
G1X9420Y-150D1*
G1X9330Y2740D2*
G1X9330Y-150D1*
G1X9240Y2740D2*
G1X9240Y-150D1*
G1X9150Y2740D2*
G1X9150Y-150D1*
G1X9060Y2740D2*
G1X9060Y-150D1*
G1X8970Y2740D2*
G1X8970Y-150D1*
G1X8880Y2740D2*
G1X8880Y-150D1*
G1X8790Y2740D2*
G1X8790Y-150D1*
G1X8700Y2740D2*
G1X8700Y-150D1*
G1X8610Y2740D2*
G1X8610Y-150D1*
G1X8520Y2740D2*
G1X8520Y-150D1*
G1X8430Y2740D2*
G1X8430Y-150D1*
G1X8340Y2740D2*
G1X8340Y-150D1*
G1X8250Y2740D2*
G1X8250Y1600D1*
G1X8160Y2740D2*
G1X8160Y1600D1*
G1X8070Y2740D2*
G1X8070Y1600D1*
G1X7980Y2740D2*
G1X7980Y1600D1*
G1X7890Y2740D2*
G1X7890Y1600D1*
G1X7800Y2740D2*
G1X7800Y1600D1*
G1X7620Y-111D2*
G1X2810Y-111D1*
G1X20150Y609D2*
G1X8270Y609D1*
G1X7530Y2740D2*
G1X7530Y-150D1*
G1X7440Y2740D2*
G1X7440Y-150D1*
G1X7350Y2740D2*
G1X7350Y-150D1*
G1X7260Y2740D2*
G1X7260Y-150D1*
G1X7170Y2740D2*
G1X7170Y-150D1*
G1X7080Y2740D2*
G1X7080Y-150D1*
G1X6990Y2740D2*
G1X6990Y-150D1*
G1X6900Y2740D2*
G1X6900Y-150D1*
G1X6810Y2740D2*
G1X6810Y-150D1*
G1X6720Y2740D2*
G1X6720Y-150D1*
G1X6630Y2740D2*
G1X6630Y-150D1*
G1X6540Y2740D2*
G1X6540Y-150D1*
G1X6450Y2740D2*
G1X6450Y-150D1*
G1X6360Y2740D2*
G1X6360Y-150D1*
G1X6270Y2740D2*
G1X6270Y-150D1*
G1X6180Y2740D2*
G1X6180Y-150D1*
G1X6090Y2740D2*
G1X6090Y-150D1*
G1X6000Y2740D2*
G1X6000Y-150D1*
G1X5910Y2740D2*
G1X5910Y-150D1*
G1X5820Y2740D2*
G1X5820Y-150D1*
G1X5730Y2740D2*
G1X5730Y-150D1*
G1X5640Y2740D2*
G1X5640Y-150D1*
G1X5550Y2740D2*
G1X5550Y-150D1*
G1X5460Y2740D2*
G1X5460Y-150D1*
G1X5370Y2740D2*
G1X5370Y-150D1*
G1X5280Y2740D2*
G1X5280Y-150D1*
G1X5190Y2740D2*
G1X5190Y-150D1*
G1X5100Y2740D2*
G1X5100Y-150D1*
G1X5010Y2740D2*
G1X5010Y-150D1*
G1X4920Y2740D2*
G1X4920Y-150D1*
G1X4830Y2740D2*
G1X4830Y-150D1*
G1X4740Y2740D2*
G1X4740Y-150D1*
G1X4650Y2740D2*
G1X4650Y-150D1*
G1X4560Y2740D2*
G1X4560Y-150D1*
G1X4470Y2740D2*
G1X4470Y-150D1*
G1X4380Y2740D2*
G1X4380Y-150D1*
G1X4290Y2740D2*
G1X4290Y-150D1*
G1X4200Y2740D2*
G1X4200Y-150D1*
G1X4110Y2740D2*
G1X4110Y-150D1*
G1X4020Y2740D2*
G1X4020Y-150D1*
G1X3930Y2740D2*
G1X3930Y-150D1*
G1X3840Y2740D2*
G1X3840Y-150D1*
G1X3750Y2740D2*
G1X3750Y-150D1*
G1X3660Y2740D2*
G1X3660Y-150D1*
G1X3570Y2740D2*
G1X3570Y-150D1*
G1X3480Y2740D2*
G1X3480Y-150D1*
G1X3390Y2740D2*
G1X3390Y-150D1*
G1X3300Y2740D2*
G1X3300Y-150D1*
G1X3210Y2740D2*
G1X3210Y-150D1*
G1X3120Y2740D2*
G1X3120Y-150D1*
G1X3030Y2740D2*
G1X3030Y-150D1*
G1X2940Y2740D2*
G1X2940Y-150D1*
G1X20150Y2679D2*
G1X2810Y2679D1*
G1X20150Y2589D2*
G1X2810Y2589D1*
G1X20150Y2499D2*
G1X2810Y2499D1*
G1X20150Y2409D2*
G1X2810Y2409D1*
G1X20150Y2319D2*
G1X2810Y2319D1*
G1X20150Y2229D2*
G1X2810Y2229D1*
G1X7620Y2740D2*
G1X7620Y1600D1*
G1X20150Y2049D2*
G1X2810Y2049D1*
G1X20150Y1959D2*
G1X2810Y1959D1*
G1X20150Y1869D2*
G1X2810Y1869D1*
G1X20150Y1779D2*
G1X2810Y1779D1*
G1X20150Y1689D2*
G1X2810Y1689D1*
G1X20150Y1599D2*
G1X2810Y1599D1*
G1X7620Y1509D2*
G1X2810Y1509D1*
G1X11580Y2740D2*
G1X11580Y-150D1*
G1X7620Y1329D2*
G1X2810Y1329D1*
G1X7620Y1239D2*
G1X2810Y1239D1*
G1X7620Y1149D2*
G1X2810Y1149D1*
G1X7620Y1059D2*
G1X2810Y1059D1*
G1X7620Y969D2*
G1X2810Y969D1*
G1X7620Y879D2*
G1X2810Y879D1*
G1X7620Y789D2*
G1X2810Y789D1*
G1X7620Y699D2*
G1X2810Y699D1*
G1X2850Y2740D2*
G1X2850Y-150D1*
G1X7620Y519D2*
G1X2810Y519D1*
G1X7620Y429D2*
G1X2810Y429D1*
G1X7620Y339D2*
G1X2810Y339D1*
G1X7620Y249D2*
G1X2810Y249D1*
G1X7620Y159D2*
G1X2810Y159D1*
G1X7620Y69D2*
G1X2810Y69D1*
G1X7620Y-21D2*
G1X2810Y-21D1*
G54D47*
G1X16289Y10528D3*
G54D48*
G1X15903Y9630D3*
G1X16159Y9630D3*
G1X16415Y9630D3*
G1X16671Y9630D3*
G1X16671Y11422D3*
G1X16415Y11422D3*
G1X16159Y11422D3*
G1X15903Y11422D3*
G54D49*
G1X15391Y10654D3*
G1X15391Y10398D3*
G1X15391Y10142D3*
G1X17182Y10142D3*
G1X17182Y10398D3*
G1X17182Y10654D3*
G1X17182Y10910D3*
G54D50*
G1X15391Y10910D3*
G54D51*
G1X16150Y12570D3*
G1X15730Y12570D3*
G1X7230Y10760D3*
G1X7650Y10760D3*
G54D52*
G1X7190Y9040D3*
G1X7190Y9600D3*
G1X14270Y9550D3*
G1X14270Y10110D3*
G1X18300Y10930D3*
G1X18300Y10370D3*
G54D53*
G1X5580Y723D3*
G1X11879Y723D3*
G1X12509Y723D3*
G1X13139Y723D3*
G1X13769Y723D3*
G1X14399Y723D3*
G54D54*
G1X5895Y821D3*
G1X14084Y821D3*
G54D55*
G1X6210Y920D3*
G1X6525Y920D3*
G1X6840Y920D3*
G1X7155Y920D3*
G1X8729Y920D3*
G1X9044Y920D3*
G1X9359Y920D3*
G1X9674Y920D3*
G1X9989Y920D3*
G1X10304Y920D3*
G1X10619Y920D3*
G1X10934Y920D3*
G1X11249Y920D3*
G1X11564Y920D3*
G1X12194Y920D3*
G1X12824Y920D3*
G1X13454Y920D3*
G54D56*
G1X679Y12610D3*
G1X1821Y12610D3*
G54D57*
G1X1250Y12010D3*
G54D58*
G1X13540Y6260D3*
G1X14040Y6260D3*
G1X14540Y6260D3*
G1X14540Y8380D3*
G1X14040Y8380D3*
G1X13540Y8380D3*
G1X13040Y8380D3*
G54D59*
G1X13040Y6260D3*
G54D60*
G1X13770Y4890D3*
G1X14610Y4890D3*
G54D61*
G1X2220Y10390D3*
G1X1720Y6890D3*
G1X2570Y5340D3*
G1X3670Y4340D3*
G1X4720Y3890D3*
G1X5920Y3790D3*
G1X7120Y3890D3*
G1X8170Y4340D3*
G1X6920Y12290D3*
G1X5920Y12390D3*
G1X4920Y12290D3*
G1X4070Y11990D3*
G54D62*
G1X3020Y11240D3*
M2*
