*
%LPD*%
%LNRAGOBOT.SMT*%
%FSLAX24Y24*%
%MOIN*%
%AD*%
%ADD188C,0.002000*%
%ADD619C,0.175000*%
%ADD620C,0.046000*%
%ADD621C,0.062000*%
%ADD622C,0.058000*%
%ADD623R,0.058000X0.058000*%
%ADD624C,0.055100*%
%ADD625R,0.055100X0.055100*%
%ADD626C,0.086600*%
%ADD628C,0.102300*%
%ADD629C,0.080000*%
%ADD630R,0.042000X0.042000*%
%ADD631C,0.150000*%
%ADD633R,0.062000X0.062000*%
%ADD634C,0.177100*%
%ADD636C,0.170000*%
%ADD637C,0.065000*%
%ADD638C,0.055000*%
%ADD642C,0.042000*%
%ADD643O,0.025000X0.094000*%
%ADD644R,0.025000X0.094000*%
%ADD645R,0.095700X0.095700*%
%ADD646O,0.013800X0.061000*%
%ADD647O,0.061000X0.013800*%
%ADD648R,0.061000X0.013800*%
%ADD649O,0.016000X0.070000*%
%ADD650R,0.016000X0.070000*%
%ADD651R,0.098400X0.098400*%
%ADD652O,0.047200X0.011800*%
%ADD653O,0.011800X0.047200*%
%ADD654R,0.011800X0.047200*%
%ADD655R,0.078700X0.078700*%
%ADD656O,0.059000X0.011000*%
%ADD657R,0.059000X0.011000*%
%ADD658O,0.011000X0.059000*%
%ADD659R,0.011000X0.059000*%
%ADD660R,0.032000X0.038000*%
%ADD661R,0.064000X0.100000*%
%ADD662R,0.022000X0.022000*%
%ADD663R,0.118100X0.157500*%
%ADD664R,0.120000X0.080000*%
%ADD665R,0.141700X0.055100*%
%ADD666R,0.038000X0.032000*%
%ADD667R,0.056000X0.092000*%
%ADD668R,0.040000X0.056000*%
%ADD669R,0.048000X0.056000*%
%ADD670R,0.092000X0.056000*%
%ADD671R,0.034000X0.050000*%
%ADD672R,0.034000X0.040000*%
%ADD673O,0.025000X0.086000*%
%ADD674R,0.025000X0.086000*%
%ADD675C,0.114200*%
%ADD676R,0.059000X0.023600*%
%ADD677R,0.070800X0.031500*%
%ADD678R,0.096400X0.110200*%
%ADD679R,0.011800X0.031500*%
%ADD680R,0.074800X0.074800*%
%ADD681R,0.011800X0.019700*%
%ADD682R,0.019700X0.011800*%
%ADD683C,0.078700*%
%ADD684R,0.102300X0.027500*%
%ADD685O,0.086000X0.025000*%
%ADD686R,0.086000X0.025000*%
%ADD687R,0.050000X0.050000*%
%ADD688O,0.068000X0.011800*%
%ADD689R,0.068000X0.011800*%
%ADD690R,0.047200X0.126000*%
%ADD691R,0.024400X0.048000*%
%ADD692O,0.094000X0.016000*%
%ADD693R,0.094000X0.016000*%
%ADD694O,0.094000X0.025000*%
%ADD695R,0.094000X0.025000*%
%ADD696R,0.060000X0.060000*%
%ADD697R,0.118100X0.078700*%
%ADD698R,0.080000X0.120000*%
%ADD699R,0.216500X0.078700*%
G54D188*
%SRX1Y1I0.0J0.0*%
G1X3510Y-1856D2*
G1X3484Y-1856D1*
G1X3864Y-1472D2*
G1X3864Y-1502D1*
G1X3846Y-1455D2*
G1X3846Y-1520D1*
G1X3829Y-1437D2*
G1X3829Y-1538D1*
G1X3811Y-1419D2*
G1X3811Y-1555D1*
G1X3793Y-1402D2*
G1X3793Y-1573D1*
G1X3776Y-1384D2*
G1X3776Y-1591D1*
G1X3758Y-1366D2*
G1X3758Y-1608D1*
G1X3740Y-1349D2*
G1X3740Y-1626D1*
G1X3723Y-1331D2*
G1X3723Y-1644D1*
G1X3705Y-1313D2*
G1X3705Y-1661D1*
G1X3687Y-1295D2*
G1X3687Y-1679D1*
G1X3669Y-1278D2*
G1X3669Y-1697D1*
G1X3652Y-1260D2*
G1X3652Y-1714D1*
G1X3634Y-1242D2*
G1X3634Y-1732D1*
G1X3616Y-1225D2*
G1X3616Y-1750D1*
G1X3599Y-1207D2*
G1X3599Y-1767D1*
G1X3581Y-1189D2*
G1X3581Y-1785D1*
G1X3563Y-1172D2*
G1X3563Y-1803D1*
G1X3546Y-1154D2*
G1X3546Y-1821D1*
G1X3528Y-1136D2*
G1X3528Y-1838D1*
G1X3510Y-1119D2*
G1X3510Y-1856D1*
G1X3493Y-1101D2*
G1X3493Y-1865D1*
G1X3475Y-1083D2*
G1X3475Y-1847D1*
G1X3457Y-1066D2*
G1X3457Y-1830D1*
G1X3440Y-1048D2*
G1X3440Y-1812D1*
G1X3422Y-1030D2*
G1X3422Y-1794D1*
G1X3404Y-1012D2*
G1X3404Y-1776D1*
G1X3386Y-995D2*
G1X3386Y-1759D1*
G1X3369Y-977D2*
G1X3369Y-1741D1*
G1X3351Y-959D2*
G1X3351Y-1723D1*
G1X3333Y-942D2*
G1X3333Y-1706D1*
G1X3316Y-924D2*
G1X3316Y-1688D1*
G1X3298Y-906D2*
G1X3298Y-1670D1*
G1X3280Y-889D2*
G1X3280Y-1653D1*
G1X3263Y-871D2*
G1X3263Y-1635D1*
G1X3245Y-853D2*
G1X3245Y-1617D1*
G1X3227Y-866D2*
G1X3227Y-1600D1*
G1X3210Y-884D2*
G1X3210Y-1582D1*
G1X3192Y-902D2*
G1X3192Y-1564D1*
G1X3174Y-919D2*
G1X3174Y-1547D1*
G1X3157Y-937D2*
G1X3157Y-1529D1*
G1X3139Y-955D2*
G1X3139Y-1511D1*
G1X3121Y-972D2*
G1X3121Y-1493D1*
G1X3103Y-990D2*
G1X3103Y-1476D1*
G1X3086Y-1008D2*
G1X3086Y-1458D1*
G1X3068Y-1025D2*
G1X3068Y-1440D1*
G1X3050Y-1043D2*
G1X3050Y-1423D1*
G1X3033Y-1061D2*
G1X3033Y-1405D1*
G1X3015Y-1078D2*
G1X3015Y-1387D1*
G1X2997Y-1096D2*
G1X2997Y-1370D1*
G1X2980Y-1114D2*
G1X2980Y-1352D1*
G1X2962Y-1132D2*
G1X2962Y-1334D1*
G1X2944Y-1149D2*
G1X2944Y-1317D1*
G1X2927Y-1167D2*
G1X2927Y-1299D1*
G1X2909Y-1185D2*
G1X2909Y-1281D1*
G1X2891Y-1202D2*
G1X2891Y-1264D1*
G1X2874Y-1220D2*
G1X2874Y-1246D1*
G1X3257Y-866D2*
G1X3228Y-866D1*
G1X3275Y-884D2*
G1X3210Y-884D1*
G1X3293Y-901D2*
G1X3192Y-901D1*
G1X3311Y-919D2*
G1X3175Y-919D1*
G1X3328Y-937D2*
G1X3157Y-937D1*
G1X3346Y-954D2*
G1X3139Y-954D1*
G1X3364Y-972D2*
G1X3122Y-972D1*
G1X3381Y-990D2*
G1X3104Y-990D1*
G1X3399Y-1007D2*
G1X3086Y-1007D1*
G1X3417Y-1025D2*
G1X3069Y-1025D1*
G1X3434Y-1043D2*
G1X3051Y-1043D1*
G1X3452Y-1060D2*
G1X3033Y-1060D1*
G1X3470Y-1078D2*
G1X3015Y-1078D1*
G1X3487Y-1096D2*
G1X2998Y-1096D1*
G1X3505Y-1113D2*
G1X2980Y-1113D1*
G1X3523Y-1131D2*
G1X2962Y-1131D1*
G1X3540Y-1149D2*
G1X2945Y-1149D1*
G1X3558Y-1167D2*
G1X2927Y-1167D1*
G1X3576Y-1184D2*
G1X2909Y-1184D1*
G1X3594Y-1202D2*
G1X2892Y-1202D1*
G1X3611Y-1220D2*
G1X2874Y-1220D1*
G1X3629Y-1237D2*
G1X2865Y-1237D1*
G1X3647Y-1255D2*
G1X2883Y-1255D1*
G1X3664Y-1273D2*
G1X2900Y-1273D1*
G1X3682Y-1290D2*
G1X2918Y-1290D1*
G1X3700Y-1308D2*
G1X2936Y-1308D1*
G1X3717Y-1326D2*
G1X2953Y-1326D1*
G1X3735Y-1343D2*
G1X2971Y-1343D1*
G1X3753Y-1361D2*
G1X2989Y-1361D1*
G1X3770Y-1379D2*
G1X3006Y-1379D1*
G1X3788Y-1396D2*
G1X3024Y-1396D1*
G1X3806Y-1414D2*
G1X3042Y-1414D1*
G1X3823Y-1432D2*
G1X3059Y-1432D1*
G1X3841Y-1450D2*
G1X3077Y-1450D1*
G1X3859Y-1467D2*
G1X3095Y-1467D1*
G1X3877Y-1485D2*
G1X3113Y-1485D1*
G1X3864Y-1503D2*
G1X3130Y-1503D1*
G1X3846Y-1520D2*
G1X3148Y-1520D1*
G1X3828Y-1538D2*
G1X3166Y-1538D1*
G1X3811Y-1556D2*
G1X3183Y-1556D1*
G1X3793Y-1573D2*
G1X3201Y-1573D1*
G1X3775Y-1591D2*
G1X3219Y-1591D1*
G1X3757Y-1609D2*
G1X3236Y-1609D1*
G1X3740Y-1626D2*
G1X3254Y-1626D1*
G1X3722Y-1644D2*
G1X3272Y-1644D1*
G1X3704Y-1662D2*
G1X3289Y-1662D1*
G1X3687Y-1679D2*
G1X3307Y-1679D1*
G1X3669Y-1697D2*
G1X3325Y-1697D1*
G1X3651Y-1715D2*
G1X3342Y-1715D1*
G1X3634Y-1733D2*
G1X3360Y-1733D1*
G1X3616Y-1750D2*
G1X3378Y-1750D1*
G1X3598Y-1768D2*
G1X3396Y-1768D1*
G1X3581Y-1786D2*
G1X3413Y-1786D1*
G1X3563Y-1803D2*
G1X3431Y-1803D1*
G1X3545Y-1821D2*
G1X3449Y-1821D1*
G1X3528Y-1839D2*
G1X3466Y-1839D1*
G1X2683Y-2684D2*
G1X2657Y-2684D1*
G1X3052Y-2315D2*
G1X2670Y-2697D1*
G1X2033Y-2060D2*
G1X2670Y-2697D1*
G1X2415Y-1678D2*
G1X2033Y-2060D1*
G1X2415Y-1678D2*
G1X3052Y-2315D1*
G1X3037Y-2300D2*
G1X3037Y-2329D1*
G1X3019Y-2282D2*
G1X3019Y-2347D1*
G1X3001Y-2264D2*
G1X3001Y-2365D1*
G1X2984Y-2247D2*
G1X2984Y-2383D1*
G1X2966Y-2229D2*
G1X2966Y-2400D1*
G1X2948Y-2211D2*
G1X2948Y-2418D1*
G1X2931Y-2194D2*
G1X2931Y-2436D1*
G1X2913Y-2176D2*
G1X2913Y-2453D1*
G1X2895Y-2158D2*
G1X2895Y-2471D1*
G1X2878Y-2141D2*
G1X2878Y-2489D1*
G1X2860Y-2123D2*
G1X2860Y-2507D1*
G1X2842Y-2105D2*
G1X2842Y-2524D1*
G1X2824Y-2087D2*
G1X2824Y-2542D1*
G1X2807Y-2070D2*
G1X2807Y-2560D1*
G1X2789Y-2052D2*
G1X2789Y-2577D1*
G1X2771Y-2034D2*
G1X2771Y-2595D1*
G1X2754Y-2017D2*
G1X2754Y-2613D1*
G1X2736Y-1999D2*
G1X2736Y-2630D1*
G1X2718Y-1981D2*
G1X2718Y-2648D1*
G1X2701Y-1964D2*
G1X2701Y-2666D1*
G1X2683Y-1946D2*
G1X2683Y-2684D1*
G1X2665Y-1928D2*
G1X2665Y-2692D1*
G1X2648Y-1911D2*
G1X2648Y-2674D1*
G1X2630Y-1893D2*
G1X2630Y-2657D1*
G1X2612Y-1875D2*
G1X2612Y-2639D1*
G1X2595Y-1858D2*
G1X2595Y-2621D1*
G1X2577Y-1840D2*
G1X2577Y-2603D1*
G1X2559Y-1822D2*
G1X2559Y-2586D1*
G1X2541Y-1804D2*
G1X2541Y-2568D1*
G1X2524Y-1787D2*
G1X2524Y-2550D1*
G1X2506Y-1769D2*
G1X2506Y-2533D1*
G1X2488Y-1751D2*
G1X2488Y-2515D1*
G1X2471Y-1734D2*
G1X2471Y-2497D1*
G1X2453Y-1716D2*
G1X2453Y-2480D1*
G1X2435Y-1698D2*
G1X2435Y-2462D1*
G1X2418Y-1681D2*
G1X2418Y-2444D1*
G1X2400Y-1694D2*
G1X2400Y-2427D1*
G1X2382Y-1711D2*
G1X2382Y-2409D1*
G1X2365Y-1729D2*
G1X2365Y-2391D1*
G1X2347Y-1747D2*
G1X2347Y-2374D1*
G1X2329Y-1764D2*
G1X2329Y-2356D1*
G1X2312Y-1782D2*
G1X2312Y-2338D1*
G1X2294Y-1800D2*
G1X2294Y-2320D1*
G1X2276Y-1817D2*
G1X2276Y-2303D1*
G1X2258Y-1835D2*
G1X2258Y-2285D1*
G1X2241Y-1853D2*
G1X2241Y-2267D1*
G1X2223Y-1870D2*
G1X2223Y-2250D1*
G1X2205Y-1888D2*
G1X2205Y-2232D1*
G1X2188Y-1906D2*
G1X2188Y-2214D1*
G1X2170Y-1923D2*
G1X2170Y-2197D1*
G1X2152Y-1941D2*
G1X2152Y-2179D1*
G1X2135Y-1959D2*
G1X2135Y-2161D1*
G1X2117Y-1976D2*
G1X2117Y-2144D1*
G1X2099Y-1994D2*
G1X2099Y-2126D1*
G1X2082Y-2012D2*
G1X2082Y-2108D1*
G1X2064Y-2029D2*
G1X2064Y-2091D1*
G1X2046Y-2047D2*
G1X2046Y-2073D1*
G1X2430Y-1693D2*
G1X2400Y-1693D1*
G1X2448Y-1711D2*
G1X2383Y-1711D1*
G1X2466Y-1729D2*
G1X2365Y-1729D1*
G1X2483Y-1746D2*
G1X2347Y-1746D1*
G1X2501Y-1764D2*
G1X2330Y-1764D1*
G1X2519Y-1782D2*
G1X2312Y-1782D1*
G1X2536Y-1799D2*
G1X2294Y-1799D1*
G1X2554Y-1817D2*
G1X2276Y-1817D1*
G1X2572Y-1835D2*
G1X2259Y-1835D1*
G1X2589Y-1852D2*
G1X2241Y-1852D1*
G1X2607Y-1870D2*
G1X2223Y-1870D1*
G1X2625Y-1888D2*
G1X2206Y-1888D1*
G1X2642Y-1905D2*
G1X2188Y-1905D1*
G1X2660Y-1923D2*
G1X2170Y-1923D1*
G1X2678Y-1941D2*
G1X2152Y-1941D1*
G1X2695Y-1958D2*
G1X2135Y-1958D1*
G1X2713Y-1976D2*
G1X2117Y-1976D1*
G1X2731Y-1994D2*
G1X2099Y-1994D1*
G1X2749Y-2012D2*
G1X2082Y-2012D1*
G1X2766Y-2029D2*
G1X2064Y-2029D1*
G1X2784Y-2047D2*
G1X2046Y-2047D1*
G1X2802Y-2065D2*
G1X2038Y-2065D1*
G1X2819Y-2082D2*
G1X2056Y-2082D1*
G1X2837Y-2100D2*
G1X2073Y-2100D1*
G1X2855Y-2118D2*
G1X2091Y-2118D1*
G1X2872Y-2135D2*
G1X2109Y-2135D1*
G1X2890Y-2153D2*
G1X2126Y-2153D1*
G1X2908Y-2171D2*
G1X2144Y-2171D1*
G1X2925Y-2188D2*
G1X2162Y-2188D1*
G1X2943Y-2206D2*
G1X2179Y-2206D1*
G1X2961Y-2224D2*
G1X2197Y-2224D1*
G1X2978Y-2241D2*
G1X2215Y-2241D1*
G1X2996Y-2259D2*
G1X2232Y-2259D1*
G1X3014Y-2277D2*
G1X2250Y-2277D1*
G1X3032Y-2295D2*
G1X2268Y-2295D1*
G1X3049Y-2312D2*
G1X2286Y-2312D1*
G1X3036Y-2330D2*
G1X2303Y-2330D1*
G1X3019Y-2348D2*
G1X2321Y-2348D1*
G1X3001Y-2365D2*
G1X2339Y-2365D1*
G1X2983Y-2383D2*
G1X2356Y-2383D1*
G1X2966Y-2401D2*
G1X2374Y-2401D1*
G1X2948Y-2418D2*
G1X2392Y-2418D1*
G1X2930Y-2436D2*
G1X2409Y-2436D1*
G1X2913Y-2454D2*
G1X2427Y-2454D1*
G1X2895Y-2471D2*
G1X2445Y-2471D1*
G1X2877Y-2489D2*
G1X2462Y-2489D1*
G1X2860Y-2507D2*
G1X2480Y-2507D1*
G1X2842Y-2524D2*
G1X2498Y-2524D1*
G1X2824Y-2542D2*
G1X2515Y-2542D1*
G1X2807Y-2560D2*
G1X2533Y-2560D1*
G1X2789Y-2578D2*
G1X2551Y-2578D1*
G1X2771Y-2595D2*
G1X2569Y-2595D1*
G1X2754Y-2613D2*
G1X2586Y-2613D1*
G1X2736Y-2631D2*
G1X2604Y-2631D1*
G1X2718Y-2648D2*
G1X2622Y-2648D1*
G1X2701Y-2666D2*
G1X2639Y-2666D1*
G1X3276Y24174D2*
G1X3250Y24174D1*
G1X2881Y24543D2*
G1X3263Y24161D1*
G1X3517Y25179D2*
G1X2881Y24543D1*
G1X3884Y24812D2*
G1X3884Y24782D1*
G1X3866Y24830D2*
G1X3866Y24764D1*
G1X3849Y24847D2*
G1X3849Y24747D1*
G1X3831Y24865D2*
G1X3831Y24729D1*
G1X3813Y24883D2*
G1X3813Y24711D1*
G1X3796Y24900D2*
G1X3796Y24694D1*
G1X3778Y24918D2*
G1X3778Y24676D1*
G1X3760Y24936D2*
G1X3760Y24658D1*
G1X3743Y24953D2*
G1X3743Y24641D1*
G1X3725Y24971D2*
G1X3725Y24623D1*
G1X3707Y24989D2*
G1X3707Y24605D1*
G1X3689Y25006D2*
G1X3689Y24587D1*
G1X3672Y25024D2*
G1X3672Y24570D1*
G1X3654Y25042D2*
G1X3654Y24552D1*
G1X3636Y25059D2*
G1X3636Y24534D1*
G1X3619Y25077D2*
G1X3619Y24517D1*
G1X3601Y25095D2*
G1X3601Y24499D1*
G1X3583Y25113D2*
G1X3583Y24481D1*
G1X3566Y25130D2*
G1X3566Y24464D1*
G1X3548Y25148D2*
G1X3548Y24446D1*
G1X3530Y25166D2*
G1X3530Y24428D1*
G1X3513Y25175D2*
G1X3513Y24411D1*
G1X3495Y25157D2*
G1X3495Y24393D1*
G1X3477Y25139D2*
G1X3477Y24375D1*
G1X3460Y25122D2*
G1X3460Y24358D1*
G1X3442Y25104D2*
G1X3442Y24340D1*
G1X3424Y25086D2*
G1X3424Y24322D1*
G1X3406Y25068D2*
G1X3406Y24304D1*
G1X3389Y25051D2*
G1X3389Y24287D1*
G1X3371Y25033D2*
G1X3371Y24269D1*
G1X3353Y25015D2*
G1X3353Y24251D1*
G1X3336Y24998D2*
G1X3336Y24234D1*
G1X3318Y24980D2*
G1X3318Y24216D1*
G1X3300Y24962D2*
G1X3300Y24198D1*
G1X3283Y24945D2*
G1X3283Y24181D1*
G1X3265Y24927D2*
G1X3265Y24163D1*
G1X3247Y24909D2*
G1X3247Y24176D1*
G1X3230Y24892D2*
G1X3230Y24194D1*
G1X3212Y24874D2*
G1X3212Y24211D1*
G1X3194Y24856D2*
G1X3194Y24229D1*
G1X3177Y24839D2*
G1X3177Y24247D1*
G1X3159Y24821D2*
G1X3159Y24264D1*
G1X3141Y24803D2*
G1X3141Y24282D1*
G1X3123Y24785D2*
G1X3123Y24300D1*
G1X3106Y24768D2*
G1X3106Y24317D1*
G1X3088Y24750D2*
G1X3088Y24335D1*
G1X3070Y24732D2*
G1X3070Y24353D1*
G1X3053Y24715D2*
G1X3053Y24370D1*
G1X3035Y24697D2*
G1X3035Y24388D1*
G1X3017Y24679D2*
G1X3017Y24406D1*
G1X3000Y24662D2*
G1X3000Y24424D1*
G1X2982Y24644D2*
G1X2982Y24441D1*
G1X2964Y24626D2*
G1X2964Y24459D1*
G1X2947Y24609D2*
G1X2947Y24477D1*
G1X2929Y24591D2*
G1X2929Y24494D1*
G1X2911Y24573D2*
G1X2911Y24512D1*
G1X2894Y24556D2*
G1X2894Y24530D1*
G1X3532Y25164D2*
G1X3502Y25164D1*
G1X3550Y25146D2*
G1X3484Y25146D1*
G1X3567Y25129D2*
G1X3467Y25129D1*
G1X3585Y25111D2*
G1X3449Y25111D1*
G1X3603Y25093D2*
G1X3431Y25093D1*
G1X3620Y25076D2*
G1X3414Y25076D1*
G1X3638Y25058D2*
G1X3396Y25058D1*
G1X3656Y25040D2*
G1X3378Y25040D1*
G1X3673Y25023D2*
G1X3361Y25023D1*
G1X3691Y25005D2*
G1X3343Y25005D1*
G1X3709Y24987D2*
G1X3325Y24987D1*
G1X3726Y24969D2*
G1X3307Y24969D1*
G1X3744Y24952D2*
G1X3290Y24952D1*
G1X3762Y24934D2*
G1X3272Y24934D1*
G1X3779Y24916D2*
G1X3254Y24916D1*
G1X3797Y24899D2*
G1X3237Y24899D1*
G1X3815Y24881D2*
G1X3219Y24881D1*
G1X3833Y24863D2*
G1X3201Y24863D1*
G1X3850Y24846D2*
G1X3184Y24846D1*
G1X3868Y24828D2*
G1X3166Y24828D1*
G1X3886Y24810D2*
G1X3148Y24810D1*
G1X3895Y24793D2*
G1X3131Y24793D1*
G1X3877Y24775D2*
G1X3113Y24775D1*
G1X3859Y24757D2*
G1X3095Y24757D1*
G1X3842Y24740D2*
G1X3078Y24740D1*
G1X3824Y24722D2*
G1X3060Y24722D1*
G1X3806Y24704D2*
G1X3042Y24704D1*
G1X3788Y24686D2*
G1X3024Y24686D1*
G1X3771Y24669D2*
G1X3007Y24669D1*
G1X3753Y24651D2*
G1X2989Y24651D1*
G1X3735Y24633D2*
G1X2971Y24633D1*
G1X3718Y24616D2*
G1X2954Y24616D1*
G1X3700Y24598D2*
G1X2936Y24598D1*
G1X3682Y24580D2*
G1X2918Y24580D1*
G1X3665Y24563D2*
G1X2901Y24563D1*
G1X3647Y24545D2*
G1X2883Y24545D1*
G1X3629Y24527D2*
G1X2896Y24527D1*
G1X3612Y24510D2*
G1X2914Y24510D1*
G1X3594Y24492D2*
G1X2931Y24492D1*
G1X3576Y24474D2*
G1X2949Y24474D1*
G1X3559Y24457D2*
G1X2967Y24457D1*
G1X3541Y24439D2*
G1X2984Y24439D1*
G1X3523Y24421D2*
G1X3002Y24421D1*
G1X3505Y24403D2*
G1X3020Y24403D1*
G1X3488Y24386D2*
G1X3037Y24386D1*
G1X3470Y24368D2*
G1X3055Y24368D1*
G1X3452Y24350D2*
G1X3073Y24350D1*
G1X3435Y24333D2*
G1X3090Y24333D1*
G1X3417Y24315D2*
G1X3108Y24315D1*
G1X3399Y24297D2*
G1X3126Y24297D1*
G1X3382Y24280D2*
G1X3144Y24280D1*
G1X3364Y24262D2*
G1X3161Y24262D1*
G1X3346Y24244D2*
G1X3179Y24244D1*
G1X3329Y24227D2*
G1X3197Y24227D1*
G1X3311Y24209D2*
G1X3214Y24209D1*
G1X3293Y24191D2*
G1X3232Y24191D1*
G1X2448Y25001D2*
G1X2422Y25001D1*
G1X2053Y25370D2*
G1X2435Y24988D1*
G1X2690Y26006D2*
G1X2053Y25370D1*
G1X3057Y25639D2*
G1X3057Y25609D1*
G1X3039Y25657D2*
G1X3039Y25592D1*
G1X3021Y25675D2*
G1X3021Y25574D1*
G1X3004Y25692D2*
G1X3004Y25556D1*
G1X2986Y25710D2*
G1X2986Y25539D1*
G1X2968Y25728D2*
G1X2968Y25521D1*
G1X2951Y25745D2*
G1X2951Y25503D1*
G1X2933Y25763D2*
G1X2933Y25486D1*
G1X2915Y25781D2*
G1X2915Y25468D1*
G1X2898Y25798D2*
G1X2898Y25450D1*
G1X2880Y25816D2*
G1X2880Y25432D1*
G1X2862Y25834D2*
G1X2862Y25415D1*
G1X2844Y25852D2*
G1X2844Y25397D1*
G1X2827Y25869D2*
G1X2827Y25379D1*
G1X2809Y25887D2*
G1X2809Y25362D1*
G1X2791Y25905D2*
G1X2791Y25344D1*
G1X2774Y25922D2*
G1X2774Y25326D1*
G1X2756Y25940D2*
G1X2756Y25309D1*
G1X2738Y25958D2*
G1X2738Y25291D1*
G1X2721Y25976D2*
G1X2721Y25273D1*
G1X2703Y25993D2*
G1X2703Y25256D1*
G1X2685Y26002D2*
G1X2685Y25238D1*
G1X2668Y25984D2*
G1X2668Y25220D1*
G1X2650Y25966D2*
G1X2650Y25203D1*
G1X2632Y25949D2*
G1X2632Y25185D1*
G1X2615Y25931D2*
G1X2615Y25167D1*
G1X2597Y25913D2*
G1X2597Y25149D1*
G1X2579Y25896D2*
G1X2579Y25132D1*
G1X2561Y25878D2*
G1X2561Y25114D1*
G1X2544Y25860D2*
G1X2544Y25096D1*
G1X2526Y25842D2*
G1X2526Y25079D1*
G1X2508Y25825D2*
G1X2508Y25061D1*
G1X2491Y25807D2*
G1X2491Y25043D1*
G1X2473Y25789D2*
G1X2473Y25026D1*
G1X2455Y25772D2*
G1X2455Y25008D1*
G1X2438Y25754D2*
G1X2438Y24990D1*
G1X2420Y25736D2*
G1X2420Y25003D1*
G1X2402Y25719D2*
G1X2402Y25021D1*
G1X2385Y25701D2*
G1X2385Y25039D1*
G1X2367Y25683D2*
G1X2367Y25056D1*
G1X2349Y25666D2*
G1X2349Y25074D1*
G1X2332Y25648D2*
G1X2332Y25092D1*
G1X2314Y25630D2*
G1X2314Y25109D1*
G1X2296Y25613D2*
G1X2296Y25127D1*
G1X2278Y25595D2*
G1X2278Y25145D1*
G1X2261Y25577D2*
G1X2261Y25162D1*
G1X2243Y25560D2*
G1X2243Y25180D1*
G1X2225Y25542D2*
G1X2225Y25198D1*
G1X2208Y25524D2*
G1X2208Y25215D1*
G1X2190Y25507D2*
G1X2190Y25233D1*
G1X2172Y25489D2*
G1X2172Y25251D1*
G1X2155Y25471D2*
G1X2155Y25269D1*
G1X2137Y25454D2*
G1X2137Y25286D1*
G1X2119Y25436D2*
G1X2119Y25304D1*
G1X2102Y25418D2*
G1X2102Y25322D1*
G1X2084Y25401D2*
G1X2084Y25339D1*
G1X2066Y25383D2*
G1X2066Y25357D1*
G1X2705Y25991D2*
G1X2675Y25991D1*
G1X2722Y25974D2*
G1X2657Y25974D1*
G1X2740Y25956D2*
G1X2640Y25956D1*
G1X2758Y25938D2*
G1X2622Y25938D1*
G1X2775Y25921D2*
G1X2604Y25921D1*
G1X2793Y25903D2*
G1X2587Y25903D1*
G1X2811Y25885D2*
G1X2569Y25885D1*
G1X2829Y25868D2*
G1X2551Y25868D1*
G1X2846Y25850D2*
G1X2533Y25850D1*
G1X2864Y25832D2*
G1X2516Y25832D1*
G1X2882Y25814D2*
G1X2498Y25814D1*
G1X2899Y25797D2*
G1X2480Y25797D1*
G1X2917Y25779D2*
G1X2463Y25779D1*
G1X2935Y25761D2*
G1X2445Y25761D1*
G1X2952Y25744D2*
G1X2427Y25744D1*
G1X2970Y25726D2*
G1X2410Y25726D1*
G1X2988Y25708D2*
G1X2392Y25708D1*
G1X3005Y25691D2*
G1X2374Y25691D1*
G1X3023Y25673D2*
G1X2356Y25673D1*
G1X3041Y25655D2*
G1X2339Y25655D1*
G1X3058Y25638D2*
G1X2321Y25638D1*
G1X3067Y25620D2*
G1X2303Y25620D1*
G1X3050Y25602D2*
G1X2286Y25602D1*
G1X3032Y25585D2*
G1X2268Y25585D1*
G1X3014Y25567D2*
G1X2250Y25567D1*
G1X2997Y25549D2*
G1X2233Y25549D1*
G1X2979Y25531D2*
G1X2215Y25531D1*
G1X2961Y25514D2*
G1X2197Y25514D1*
G1X2943Y25496D2*
G1X2180Y25496D1*
G1X2926Y25478D2*
G1X2162Y25478D1*
G1X2908Y25461D2*
G1X2144Y25461D1*
G1X2890Y25443D2*
G1X2126Y25443D1*
G1X2873Y25425D2*
G1X2109Y25425D1*
G1X2855Y25408D2*
G1X2091Y25408D1*
G1X2837Y25390D2*
G1X2073Y25390D1*
G1X2820Y25372D2*
G1X2056Y25372D1*
G1X2802Y25355D2*
G1X2069Y25355D1*
G1X2784Y25337D2*
G1X2086Y25337D1*
G1X2767Y25319D2*
G1X2104Y25319D1*
G1X2749Y25302D2*
G1X2122Y25302D1*
G1X2731Y25284D2*
G1X2139Y25284D1*
G1X2714Y25266D2*
G1X2157Y25266D1*
G1X2696Y25248D2*
G1X2175Y25248D1*
G1X2678Y25231D2*
G1X2192Y25231D1*
G1X2660Y25213D2*
G1X2210Y25213D1*
G1X2643Y25195D2*
G1X2228Y25195D1*
G1X2625Y25178D2*
G1X2245Y25178D1*
G1X2607Y25160D2*
G1X2263Y25160D1*
G1X2590Y25142D2*
G1X2281Y25142D1*
G1X2572Y25125D2*
G1X2299Y25125D1*
G1X2554Y25107D2*
G1X2316Y25107D1*
G1X2537Y25089D2*
G1X2334Y25089D1*
G1X2519Y25072D2*
G1X2352Y25072D1*
G1X2501Y25054D2*
G1X2369Y25054D1*
G1X2484Y25036D2*
G1X2387Y25036D1*
G1X2466Y25019D2*
G1X2405Y25019D1*
G1X43340Y25334D2*
G1X43314Y25334D1*
G1X43709Y25703D2*
G1X43327Y25321D1*
G1X42691Y25957D2*
G1X43327Y25321D1*
G1X43073Y26339D2*
G1X42691Y25957D1*
G1X43073Y26339D2*
G1X43709Y25703D1*
G1X43694Y25717D2*
G1X43694Y25688D1*
G1X43676Y25735D2*
G1X43676Y25670D1*
G1X43659Y25753D2*
G1X43659Y25652D1*
G1X43641Y25771D2*
G1X43641Y25635D1*
G1X43623Y25788D2*
G1X43623Y25617D1*
G1X43606Y25806D2*
G1X43606Y25599D1*
G1X43588Y25824D2*
G1X43588Y25582D1*
G1X43570Y25841D2*
G1X43570Y25564D1*
G1X43553Y25859D2*
G1X43553Y25546D1*
G1X43535Y25877D2*
G1X43535Y25529D1*
G1X43517Y25894D2*
G1X43517Y25511D1*
G1X43499Y25912D2*
G1X43499Y25493D1*
G1X43482Y25930D2*
G1X43482Y25475D1*
G1X43464Y25947D2*
G1X43464Y25458D1*
G1X43446Y25965D2*
G1X43446Y25440D1*
G1X43429Y25983D2*
G1X43429Y25422D1*
G1X43411Y26000D2*
G1X43411Y25405D1*
G1X43393Y26018D2*
G1X43393Y25387D1*
G1X43376Y26036D2*
G1X43376Y25369D1*
G1X43358Y26054D2*
G1X43358Y25352D1*
G1X43340Y26071D2*
G1X43340Y25334D1*
G1X43323Y26089D2*
G1X43323Y25325D1*
G1X43305Y26107D2*
G1X43305Y25343D1*
G1X43287Y26124D2*
G1X43287Y25360D1*
G1X43270Y26142D2*
G1X43270Y25378D1*
G1X43252Y26160D2*
G1X43252Y25396D1*
G1X43234Y26177D2*
G1X43234Y25413D1*
G1X43216Y26195D2*
G1X43216Y25431D1*
G1X43199Y26213D2*
G1X43199Y25449D1*
G1X43181Y26230D2*
G1X43181Y25466D1*
G1X43163Y26248D2*
G1X43163Y25484D1*
G1X43146Y26266D2*
G1X43146Y25502D1*
G1X43128Y26283D2*
G1X43128Y25519D1*
G1X43110Y26301D2*
G1X43110Y25537D1*
G1X43093Y26319D2*
G1X43093Y25555D1*
G1X43075Y26337D2*
G1X43075Y25573D1*
G1X43057Y26324D2*
G1X43057Y25590D1*
G1X43040Y26306D2*
G1X43040Y25608D1*
G1X43022Y26288D2*
G1X43022Y25626D1*
G1X43004Y26271D2*
G1X43004Y25643D1*
G1X42987Y26253D2*
G1X42987Y25661D1*
G1X42969Y26235D2*
G1X42969Y25679D1*
G1X42951Y26217D2*
G1X42951Y25696D1*
G1X42933Y26200D2*
G1X42933Y25714D1*
G1X42916Y26182D2*
G1X42916Y25732D1*
G1X42898Y26164D2*
G1X42898Y25749D1*
G1X42880Y26147D2*
G1X42880Y25767D1*
G1X42863Y26129D2*
G1X42863Y25785D1*
G1X42845Y26111D2*
G1X42845Y25802D1*
G1X42827Y26094D2*
G1X42827Y25820D1*
G1X42810Y26076D2*
G1X42810Y25838D1*
G1X42792Y26058D2*
G1X42792Y25856D1*
G1X42774Y26041D2*
G1X42774Y25873D1*
G1X42757Y26023D2*
G1X42757Y25891D1*
G1X42739Y26005D2*
G1X42739Y25909D1*
G1X42721Y25988D2*
G1X42721Y25926D1*
G1X42704Y25970D2*
G1X42704Y25944D1*
G1X43087Y26324D2*
G1X43058Y26324D1*
G1X43105Y26306D2*
G1X43040Y26306D1*
G1X43123Y26289D2*
G1X43022Y26289D1*
G1X43141Y26271D2*
G1X43005Y26271D1*
G1X43158Y26253D2*
G1X42987Y26253D1*
G1X43176Y26236D2*
G1X42969Y26236D1*
G1X43194Y26218D2*
G1X42952Y26218D1*
G1X43211Y26200D2*
G1X42934Y26200D1*
G1X43229Y26183D2*
G1X42916Y26183D1*
G1X43247Y26165D2*
G1X42899Y26165D1*
G1X43264Y26147D2*
G1X42881Y26147D1*
G1X43282Y26129D2*
G1X42863Y26129D1*
G1X43300Y26112D2*
G1X42845Y26112D1*
G1X43317Y26094D2*
G1X42828Y26094D1*
G1X43335Y26076D2*
G1X42810Y26076D1*
G1X43353Y26059D2*
G1X42792Y26059D1*
G1X43370Y26041D2*
G1X42775Y26041D1*
G1X43388Y26023D2*
G1X42757Y26023D1*
G1X43406Y26006D2*
G1X42739Y26006D1*
G1X43424Y25988D2*
G1X42722Y25988D1*
G1X43441Y25970D2*
G1X42704Y25970D1*
G1X43459Y25953D2*
G1X42695Y25953D1*
G1X43477Y25935D2*
G1X42713Y25935D1*
G1X43494Y25917D2*
G1X42730Y25917D1*
G1X43512Y25900D2*
G1X42748Y25900D1*
G1X43530Y25882D2*
G1X42766Y25882D1*
G1X43547Y25864D2*
G1X42783Y25864D1*
G1X43565Y25846D2*
G1X42801Y25846D1*
G1X43583Y25829D2*
G1X42819Y25829D1*
G1X43600Y25811D2*
G1X42836Y25811D1*
G1X43618Y25793D2*
G1X42854Y25793D1*
G1X43636Y25776D2*
G1X42872Y25776D1*
G1X43653Y25758D2*
G1X42889Y25758D1*
G1X43671Y25740D2*
G1X42907Y25740D1*
G1X43689Y25723D2*
G1X42925Y25723D1*
G1X43707Y25705D2*
G1X42943Y25705D1*
G1X43694Y25687D2*
G1X42960Y25687D1*
G1X43676Y25670D2*
G1X42978Y25670D1*
G1X43658Y25652D2*
G1X42996Y25652D1*
G1X43641Y25634D2*
G1X43013Y25634D1*
G1X43623Y25617D2*
G1X43031Y25617D1*
G1X43605Y25599D2*
G1X43049Y25599D1*
G1X43587Y25581D2*
G1X43066Y25581D1*
G1X43570Y25563D2*
G1X43084Y25563D1*
G1X43552Y25546D2*
G1X43102Y25546D1*
G1X43534Y25528D2*
G1X43119Y25528D1*
G1X43517Y25510D2*
G1X43137Y25510D1*
G1X43499Y25493D2*
G1X43155Y25493D1*
G1X43481Y25475D2*
G1X43172Y25475D1*
G1X43464Y25457D2*
G1X43190Y25457D1*
G1X43446Y25440D2*
G1X43208Y25440D1*
G1X43428Y25422D2*
G1X43226Y25422D1*
G1X43411Y25404D2*
G1X43243Y25404D1*
G1X43393Y25387D2*
G1X43261Y25387D1*
G1X43375Y25369D2*
G1X43279Y25369D1*
G1X43358Y25351D2*
G1X43296Y25351D1*
G1X44167Y26161D2*
G1X44141Y26161D1*
G1X44521Y26545D2*
G1X44521Y26515D1*
G1X44504Y26563D2*
G1X44504Y26497D1*
G1X44486Y26580D2*
G1X44486Y26480D1*
G1X44468Y26598D2*
G1X44468Y26462D1*
G1X44451Y26616D2*
G1X44451Y26444D1*
G1X44433Y26633D2*
G1X44433Y26427D1*
G1X44415Y26651D2*
G1X44415Y26409D1*
G1X44398Y26669D2*
G1X44398Y26391D1*
G1X44380Y26686D2*
G1X44380Y26374D1*
G1X44362Y26704D2*
G1X44362Y26356D1*
G1X44344Y26722D2*
G1X44344Y26338D1*
G1X44327Y26739D2*
G1X44327Y26320D1*
G1X44309Y26757D2*
G1X44309Y26303D1*
G1X44291Y26775D2*
G1X44291Y26285D1*
G1X44274Y26792D2*
G1X44274Y26267D1*
G1X44256Y26810D2*
G1X44256Y26250D1*
G1X44238Y26828D2*
G1X44238Y26232D1*
G1X44221Y26846D2*
G1X44221Y26214D1*
G1X44203Y26863D2*
G1X44203Y26197D1*
G1X44185Y26881D2*
G1X44185Y26179D1*
G1X44168Y26899D2*
G1X44168Y26161D1*
G1X44150Y26916D2*
G1X44150Y26152D1*
G1X44132Y26934D2*
G1X44132Y26170D1*
G1X44115Y26952D2*
G1X44115Y26188D1*
G1X44097Y26969D2*
G1X44097Y26205D1*
G1X44079Y26987D2*
G1X44079Y26223D1*
G1X44061Y27005D2*
G1X44061Y26241D1*
G1X44044Y27022D2*
G1X44044Y26258D1*
G1X44026Y27040D2*
G1X44026Y26276D1*
G1X44008Y27058D2*
G1X44008Y26294D1*
G1X43991Y27075D2*
G1X43991Y26311D1*
G1X43973Y27093D2*
G1X43973Y26329D1*
G1X43955Y27111D2*
G1X43955Y26347D1*
G1X43938Y27129D2*
G1X43938Y26365D1*
G1X43920Y27146D2*
G1X43920Y26382D1*
G1X43902Y27164D2*
G1X43902Y26400D1*
G1X43885Y27151D2*
G1X43885Y26418D1*
G1X43867Y27133D2*
G1X43867Y26435D1*
G1X43849Y27116D2*
G1X43849Y26453D1*
G1X43832Y27098D2*
G1X43832Y26471D1*
G1X43814Y27080D2*
G1X43814Y26488D1*
G1X43796Y27063D2*
G1X43796Y26506D1*
G1X43778Y27045D2*
G1X43778Y26524D1*
G1X43761Y27027D2*
G1X43761Y26541D1*
G1X43743Y27009D2*
G1X43743Y26559D1*
G1X43725Y26992D2*
G1X43725Y26577D1*
G1X43708Y26974D2*
G1X43708Y26594D1*
G1X43690Y26956D2*
G1X43690Y26612D1*
G1X43672Y26939D2*
G1X43672Y26630D1*
G1X43655Y26921D2*
G1X43655Y26648D1*
G1X43637Y26903D2*
G1X43637Y26665D1*
G1X43619Y26886D2*
G1X43619Y26683D1*
G1X43602Y26868D2*
G1X43602Y26701D1*
G1X43584Y26850D2*
G1X43584Y26718D1*
G1X43566Y26833D2*
G1X43566Y26736D1*
G1X43549Y26815D2*
G1X43549Y26754D1*
G1X43531Y26797D2*
G1X43531Y26771D1*
G1X43915Y27151D2*
G1X43885Y27151D1*
G1X43933Y27134D2*
G1X43867Y27134D1*
G1X43950Y27116D2*
G1X43850Y27116D1*
G1X43968Y27098D2*
G1X43832Y27098D1*
G1X43986Y27081D2*
G1X43814Y27081D1*
G1X44003Y27063D2*
G1X43797Y27063D1*
G1X44021Y27045D2*
G1X43779Y27045D1*
G1X44039Y27028D2*
G1X43761Y27028D1*
G1X44056Y27010D2*
G1X43744Y27010D1*
G1X44074Y26992D2*
G1X43726Y26992D1*
G1X44092Y26974D2*
G1X43708Y26974D1*
G1X44109Y26957D2*
G1X43690Y26957D1*
G1X44127Y26939D2*
G1X43673Y26939D1*
G1X44145Y26921D2*
G1X43655Y26921D1*
G1X44162Y26904D2*
G1X43637Y26904D1*
G1X44180Y26886D2*
G1X43620Y26886D1*
G1X44198Y26868D2*
G1X43602Y26868D1*
G1X44216Y26851D2*
G1X43584Y26851D1*
G1X44233Y26833D2*
G1X43567Y26833D1*
G1X44251Y26815D2*
G1X43549Y26815D1*
G1X44269Y26798D2*
G1X43531Y26798D1*
G1X44286Y26780D2*
G1X43522Y26780D1*
G1X44304Y26762D2*
G1X43540Y26762D1*
G1X44322Y26745D2*
G1X43558Y26745D1*
G1X44339Y26727D2*
G1X43575Y26727D1*
G1X44357Y26709D2*
G1X43593Y26709D1*
G1X44375Y26691D2*
G1X43611Y26691D1*
G1X44392Y26674D2*
G1X43628Y26674D1*
G1X44410Y26656D2*
G1X43646Y26656D1*
G1X44428Y26638D2*
G1X43664Y26638D1*
G1X44445Y26621D2*
G1X43681Y26621D1*
G1X44463Y26603D2*
G1X43699Y26603D1*
G1X44481Y26585D2*
G1X43717Y26585D1*
G1X44499Y26568D2*
G1X43735Y26568D1*
G1X44516Y26550D2*
G1X43752Y26550D1*
G1X44534Y26532D2*
G1X43770Y26532D1*
G1X44521Y26515D2*
G1X43788Y26515D1*
G1X44503Y26497D2*
G1X43805Y26497D1*
G1X44486Y26479D2*
G1X43823Y26479D1*
G1X44468Y26462D2*
G1X43841Y26462D1*
G1X44450Y26444D2*
G1X43858Y26444D1*
G1X44433Y26426D2*
G1X43876Y26426D1*
G1X44415Y26408D2*
G1X43894Y26408D1*
G1X44397Y26391D2*
G1X43911Y26391D1*
G1X44379Y26373D2*
G1X43929Y26373D1*
G1X44362Y26355D2*
G1X43947Y26355D1*
G1X44344Y26338D2*
G1X43964Y26338D1*
G1X44326Y26320D2*
G1X43982Y26320D1*
G1X44309Y26302D2*
G1X44000Y26302D1*
G1X44291Y26285D2*
G1X44018Y26285D1*
G1X44273Y26267D2*
G1X44035Y26267D1*
G1X44256Y26249D2*
G1X44053Y26249D1*
G1X44238Y26232D2*
G1X44071Y26232D1*
G1X44220Y26214D2*
G1X44088Y26214D1*
G1X44203Y26196D2*
G1X44106Y26196D1*
G1X44185Y26179D2*
G1X44124Y26179D1*
G1X43066Y-3036D2*
G1X43040Y-3036D1*
G1X42671Y-2667D2*
G1X43053Y-3049D1*
G1X43307Y-2031D2*
G1X42671Y-2667D1*
G1X43674Y-2398D2*
G1X43674Y-2428D1*
G1X43656Y-2380D2*
G1X43656Y-2446D1*
G1X43639Y-2363D2*
G1X43639Y-2463D1*
G1X43621Y-2345D2*
G1X43621Y-2481D1*
G1X43603Y-2327D2*
G1X43603Y-2499D1*
G1X43586Y-2310D2*
G1X43586Y-2516D1*
G1X43568Y-2292D2*
G1X43568Y-2534D1*
G1X43550Y-2274D2*
G1X43550Y-2552D1*
G1X43533Y-2257D2*
G1X43533Y-2569D1*
G1X43515Y-2239D2*
G1X43515Y-2587D1*
G1X43497Y-2221D2*
G1X43497Y-2605D1*
G1X43479Y-2203D2*
G1X43479Y-2622D1*
G1X43462Y-2186D2*
G1X43462Y-2640D1*
G1X43444Y-2168D2*
G1X43444Y-2658D1*
G1X43426Y-2150D2*
G1X43426Y-2675D1*
G1X43409Y-2133D2*
G1X43409Y-2693D1*
G1X43391Y-2115D2*
G1X43391Y-2711D1*
G1X43373Y-2097D2*
G1X43373Y-2729D1*
G1X43356Y-2080D2*
G1X43356Y-2746D1*
G1X43338Y-2062D2*
G1X43338Y-2764D1*
G1X43320Y-2044D2*
G1X43320Y-2782D1*
G1X43303Y-2035D2*
G1X43303Y-2799D1*
G1X43285Y-2053D2*
G1X43285Y-2817D1*
G1X43267Y-2071D2*
G1X43267Y-2835D1*
G1X43250Y-2088D2*
G1X43250Y-2852D1*
G1X43232Y-2106D2*
G1X43232Y-2870D1*
G1X43214Y-2124D2*
G1X43214Y-2888D1*
G1X43196Y-2141D2*
G1X43196Y-2905D1*
G1X43179Y-2159D2*
G1X43179Y-2923D1*
G1X43161Y-2177D2*
G1X43161Y-2941D1*
G1X43143Y-2194D2*
G1X43143Y-2958D1*
G1X43126Y-2212D2*
G1X43126Y-2976D1*
G1X43108Y-2230D2*
G1X43108Y-2994D1*
G1X43090Y-2248D2*
G1X43090Y-3012D1*
G1X43073Y-2265D2*
G1X43073Y-3029D1*
G1X43055Y-2283D2*
G1X43055Y-3047D1*
G1X43037Y-2301D2*
G1X43037Y-3034D1*
G1X43020Y-2318D2*
G1X43020Y-3016D1*
G1X43002Y-2336D2*
G1X43002Y-2999D1*
G1X42984Y-2354D2*
G1X42984Y-2981D1*
G1X42967Y-2371D2*
G1X42967Y-2963D1*
G1X42949Y-2389D2*
G1X42949Y-2946D1*
G1X42931Y-2407D2*
G1X42931Y-2928D1*
G1X42913Y-2424D2*
G1X42913Y-2910D1*
G1X42896Y-2442D2*
G1X42896Y-2892D1*
G1X42878Y-2460D2*
G1X42878Y-2875D1*
G1X42860Y-2477D2*
G1X42860Y-2857D1*
G1X42843Y-2495D2*
G1X42843Y-2839D1*
G1X42825Y-2513D2*
G1X42825Y-2822D1*
G1X42807Y-2531D2*
G1X42807Y-2804D1*
G1X42790Y-2548D2*
G1X42790Y-2786D1*
G1X42772Y-2566D2*
G1X42772Y-2769D1*
G1X42754Y-2584D2*
G1X42754Y-2751D1*
G1X42737Y-2601D2*
G1X42737Y-2733D1*
G1X42719Y-2619D2*
G1X42719Y-2716D1*
G1X42701Y-2637D2*
G1X42701Y-2698D1*
G1X42684Y-2654D2*
G1X42684Y-2680D1*
G1X43322Y-2046D2*
G1X43292Y-2046D1*
G1X43340Y-2064D2*
G1X43274Y-2064D1*
G1X43357Y-2081D2*
G1X43257Y-2081D1*
G1X43375Y-2099D2*
G1X43239Y-2099D1*
G1X43393Y-2117D2*
G1X43221Y-2117D1*
G1X43410Y-2134D2*
G1X43204Y-2134D1*
G1X43428Y-2152D2*
G1X43186Y-2152D1*
G1X43446Y-2170D2*
G1X43168Y-2170D1*
G1X43463Y-2187D2*
G1X43151Y-2187D1*
G1X43481Y-2205D2*
G1X43133Y-2205D1*
G1X43499Y-2223D2*
G1X43115Y-2223D1*
G1X43516Y-2240D2*
G1X43097Y-2240D1*
G1X43534Y-2258D2*
G1X43080Y-2258D1*
G1X43552Y-2276D2*
G1X43062Y-2276D1*
G1X43569Y-2293D2*
G1X43044Y-2293D1*
G1X43587Y-2311D2*
G1X43027Y-2311D1*
G1X43605Y-2329D2*
G1X43009Y-2329D1*
G1X43623Y-2347D2*
G1X42991Y-2347D1*
G1X43640Y-2364D2*
G1X42974Y-2364D1*
G1X43658Y-2382D2*
G1X42956Y-2382D1*
G1X43676Y-2400D2*
G1X42938Y-2400D1*
G1X43685Y-2417D2*
G1X42921Y-2417D1*
G1X43667Y-2435D2*
G1X42903Y-2435D1*
G1X43649Y-2453D2*
G1X42885Y-2453D1*
G1X43632Y-2470D2*
G1X42868Y-2470D1*
G1X43614Y-2488D2*
G1X42850Y-2488D1*
G1X43596Y-2506D2*
G1X42832Y-2506D1*
G1X43578Y-2523D2*
G1X42814Y-2523D1*
G1X43561Y-2541D2*
G1X42797Y-2541D1*
G1X43543Y-2559D2*
G1X42779Y-2559D1*
G1X43525Y-2576D2*
G1X42761Y-2576D1*
G1X43508Y-2594D2*
G1X42744Y-2594D1*
G1X43490Y-2612D2*
G1X42726Y-2612D1*
G1X43472Y-2630D2*
G1X42708Y-2630D1*
G1X43455Y-2647D2*
G1X42691Y-2647D1*
G1X43437Y-2665D2*
G1X42673Y-2665D1*
G1X43419Y-2683D2*
G1X42686Y-2683D1*
G1X43402Y-2700D2*
G1X42704Y-2700D1*
G1X43384Y-2718D2*
G1X42721Y-2718D1*
G1X43366Y-2736D2*
G1X42739Y-2736D1*
G1X43349Y-2753D2*
G1X42757Y-2753D1*
G1X43331Y-2771D2*
G1X42774Y-2771D1*
G1X43313Y-2789D2*
G1X42792Y-2789D1*
G1X43295Y-2806D2*
G1X42810Y-2806D1*
G1X43278Y-2824D2*
G1X42827Y-2824D1*
G1X43260Y-2842D2*
G1X42845Y-2842D1*
G1X43242Y-2859D2*
G1X42863Y-2859D1*
G1X43225Y-2877D2*
G1X42880Y-2877D1*
G1X43207Y-2895D2*
G1X42898Y-2895D1*
G1X43189Y-2913D2*
G1X42916Y-2913D1*
G1X43172Y-2930D2*
G1X42934Y-2930D1*
G1X43154Y-2948D2*
G1X42951Y-2948D1*
G1X43136Y-2966D2*
G1X42969Y-2966D1*
G1X43119Y-2983D2*
G1X42987Y-2983D1*
G1X43101Y-3001D2*
G1X43004Y-3001D1*
G1X43083Y-3019D2*
G1X43022Y-3019D1*
G1X43893Y-3864D2*
G1X43867Y-3864D1*
G1X43498Y-3495D2*
G1X43880Y-3877D1*
G1X44134Y-2858D2*
G1X43498Y-3495D1*
G1X44501Y-3225D2*
G1X44501Y-3255D1*
G1X44484Y-3207D2*
G1X44484Y-3273D1*
G1X44466Y-3190D2*
G1X44466Y-3290D1*
G1X44448Y-3172D2*
G1X44448Y-3308D1*
G1X44431Y-3154D2*
G1X44431Y-3326D1*
G1X44413Y-3137D2*
G1X44413Y-3343D1*
G1X44395Y-3119D2*
G1X44395Y-3361D1*
G1X44378Y-3101D2*
G1X44378Y-3379D1*
G1X44360Y-3084D2*
G1X44360Y-3396D1*
G1X44342Y-3066D2*
G1X44342Y-3414D1*
G1X44324Y-3048D2*
G1X44324Y-3432D1*
G1X44307Y-3031D2*
G1X44307Y-3449D1*
G1X44289Y-3013D2*
G1X44289Y-3467D1*
G1X44271Y-2995D2*
G1X44271Y-3485D1*
G1X44254Y-2978D2*
G1X44254Y-3503D1*
G1X44236Y-2960D2*
G1X44236Y-3520D1*
G1X44218Y-2942D2*
G1X44218Y-3538D1*
G1X44201Y-2925D2*
G1X44201Y-3556D1*
G1X44183Y-2907D2*
G1X44183Y-3573D1*
G1X44165Y-2889D2*
G1X44165Y-3591D1*
G1X44148Y-2872D2*
G1X44148Y-3609D1*
G1X44130Y-2863D2*
G1X44130Y-3626D1*
G1X44112Y-2880D2*
G1X44112Y-3644D1*
G1X44095Y-2898D2*
G1X44095Y-3662D1*
G1X44077Y-2916D2*
G1X44077Y-3680D1*
G1X44059Y-2933D2*
G1X44059Y-3697D1*
G1X44041Y-2951D2*
G1X44041Y-3715D1*
G1X44024Y-2969D2*
G1X44024Y-3733D1*
G1X44006Y-2986D2*
G1X44006Y-3750D1*
G1X43988Y-3004D2*
G1X43988Y-3768D1*
G1X43971Y-3022D2*
G1X43971Y-3786D1*
G1X43953Y-3039D2*
G1X43953Y-3803D1*
G1X43935Y-3057D2*
G1X43935Y-3821D1*
G1X43918Y-3075D2*
G1X43918Y-3839D1*
G1X43900Y-3093D2*
G1X43900Y-3857D1*
G1X43882Y-3110D2*
G1X43882Y-3874D1*
G1X43865Y-3128D2*
G1X43865Y-3861D1*
G1X43847Y-3146D2*
G1X43847Y-3844D1*
G1X43829Y-3163D2*
G1X43829Y-3826D1*
G1X43812Y-3181D2*
G1X43812Y-3808D1*
G1X43794Y-3199D2*
G1X43794Y-3791D1*
G1X43776Y-3216D2*
G1X43776Y-3773D1*
G1X43758Y-3234D2*
G1X43758Y-3755D1*
G1X43741Y-3252D2*
G1X43741Y-3737D1*
G1X43723Y-3269D2*
G1X43723Y-3720D1*
G1X43705Y-3287D2*
G1X43705Y-3702D1*
G1X43688Y-3305D2*
G1X43688Y-3684D1*
G1X43670Y-3322D2*
G1X43670Y-3667D1*
G1X43652Y-3340D2*
G1X43652Y-3649D1*
G1X43635Y-3358D2*
G1X43635Y-3631D1*
G1X43617Y-3376D2*
G1X43617Y-3614D1*
G1X43599Y-3393D2*
G1X43599Y-3596D1*
G1X43582Y-3411D2*
G1X43582Y-3578D1*
G1X43564Y-3429D2*
G1X43564Y-3561D1*
G1X43546Y-3446D2*
G1X43546Y-3543D1*
G1X43529Y-3464D2*
G1X43529Y-3525D1*
G1X43511Y-3482D2*
G1X43511Y-3508D1*
G1X44149Y-2873D2*
G1X44119Y-2873D1*
G1X44167Y-2891D2*
G1X44102Y-2891D1*
G1X44185Y-2909D2*
G1X44084Y-2909D1*
G1X44202Y-2926D2*
G1X44066Y-2926D1*
G1X44220Y-2944D2*
G1X44049Y-2944D1*
G1X44238Y-2962D2*
G1X44031Y-2962D1*
G1X44255Y-2979D2*
G1X44013Y-2979D1*
G1X44273Y-2997D2*
G1X43996Y-2997D1*
G1X44291Y-3015D2*
G1X43978Y-3015D1*
G1X44308Y-3032D2*
G1X43960Y-3032D1*
G1X44326Y-3050D2*
G1X43942Y-3050D1*
G1X44344Y-3068D2*
G1X43925Y-3068D1*
G1X44362Y-3085D2*
G1X43907Y-3085D1*
G1X44379Y-3103D2*
G1X43889Y-3103D1*
G1X44397Y-3121D2*
G1X43872Y-3121D1*
G1X44415Y-3138D2*
G1X43854Y-3138D1*
G1X44432Y-3156D2*
G1X43836Y-3156D1*
G1X44450Y-3174D2*
G1X43819Y-3174D1*
G1X44468Y-3192D2*
G1X43801Y-3192D1*
G1X44486Y-3209D2*
G1X43783Y-3209D1*
G1X44503Y-3227D2*
G1X43766Y-3227D1*
G1X44512Y-3245D2*
G1X43748Y-3245D1*
G1X44494Y-3262D2*
G1X43730Y-3262D1*
G1X44476Y-3280D2*
G1X43713Y-3280D1*
G1X44459Y-3298D2*
G1X43695Y-3298D1*
G1X44441Y-3315D2*
G1X43677Y-3315D1*
G1X44423Y-3333D2*
G1X43659Y-3333D1*
G1X44406Y-3351D2*
G1X43642Y-3351D1*
G1X44388Y-3368D2*
G1X43624Y-3368D1*
G1X44370Y-3386D2*
G1X43606Y-3386D1*
G1X44352Y-3404D2*
G1X43589Y-3404D1*
G1X44335Y-3421D2*
G1X43571Y-3421D1*
G1X44317Y-3439D2*
G1X43553Y-3439D1*
G1X44299Y-3457D2*
G1X43536Y-3457D1*
G1X44282Y-3475D2*
G1X43518Y-3475D1*
G1X44264Y-3492D2*
G1X43500Y-3492D1*
G1X44246Y-3510D2*
G1X43513Y-3510D1*
G1X44229Y-3528D2*
G1X43531Y-3528D1*
G1X44211Y-3545D2*
G1X43549Y-3545D1*
G1X44193Y-3563D2*
G1X43566Y-3563D1*
G1X44176Y-3581D2*
G1X43584Y-3581D1*
G1X44158Y-3598D2*
G1X43602Y-3598D1*
G1X44140Y-3616D2*
G1X43619Y-3616D1*
G1X44123Y-3634D2*
G1X43637Y-3634D1*
G1X44105Y-3651D2*
G1X43655Y-3651D1*
G1X44087Y-3669D2*
G1X43672Y-3669D1*
G1X44070Y-3687D2*
G1X43690Y-3687D1*
G1X44052Y-3704D2*
G1X43708Y-3704D1*
G1X44034Y-3722D2*
G1X43725Y-3722D1*
G1X44017Y-3740D2*
G1X43743Y-3740D1*
G1X43999Y-3758D2*
G1X43761Y-3758D1*
G1X43981Y-3775D2*
G1X43779Y-3775D1*
G1X43964Y-3793D2*
G1X43796Y-3793D1*
G1X43946Y-3811D2*
G1X43814Y-3811D1*
G1X43928Y-3828D2*
G1X43832Y-3828D1*
G1X43911Y-3846D2*
G1X43849Y-3846D1*
G1X3685Y24030D2*
G1X3685Y23792D1*
G1X3668Y24012D2*
G1X3668Y23810D1*
G1X3650Y23995D2*
G1X3650Y23827D1*
G1X3632Y23977D2*
G1X3632Y23845D1*
G1X3615Y23959D2*
G1X3615Y23863D1*
G1X3597Y23942D2*
G1X3597Y23880D1*
G1X3579Y23924D2*
G1X3579Y23898D1*
G1X3790Y24111D2*
G1X3767Y24111D1*
G1X3808Y24094D2*
G1X3749Y24094D1*
G1X3826Y24076D2*
G1X3731Y24076D1*
G1X3844Y24058D2*
G1X3714Y24058D1*
G1X3861Y24041D2*
G1X3696Y24041D1*
G1X3879Y24023D2*
G1X3678Y24023D1*
G1X3897Y24005D2*
G1X3661Y24005D1*
G1X3914Y23988D2*
G1X3643Y23988D1*
G1X3932Y23970D2*
G1X3625Y23970D1*
G1X3950Y23952D2*
G1X3608Y23952D1*
G1X3967Y23935D2*
G1X3590Y23935D1*
G1X3985Y23917D2*
G1X3572Y23917D1*
G1X4003Y23899D2*
G1X3578Y23899D1*
G1X4020Y23881D2*
G1X3596Y23881D1*
G1X4028Y23864D2*
G1X3613Y23864D1*
G1X4011Y23846D2*
G1X3631Y23846D1*
G1X3993Y23828D2*
G1X3649Y23828D1*
G1X3975Y23811D2*
G1X3666Y23811D1*
G1X3958Y23793D2*
G1X3684Y23793D1*
G1X3940Y23775D2*
G1X3702Y23775D1*
G1X3922Y23758D2*
G1X3720Y23758D1*
G1X3905Y23740D2*
G1X3737Y23740D1*
G1X3887Y23722D2*
G1X3755Y23722D1*
G1X3869Y23705D2*
G1X3773Y23705D1*
G1X3852Y23687D2*
G1X3790Y23687D1*
G1X3834Y23669D2*
G1X3808Y23669D1*
G1X4033Y23869D2*
G1X3821Y23656D1*
G1X3566Y23911D2*
G1X3821Y23656D1*
G1X3779Y24123D2*
G1X3566Y23911D1*
G1X3779Y24123D2*
G1X4033Y23869D1*
G1X4021Y23880D2*
G1X4021Y23857D1*
G1X4004Y23898D2*
G1X4004Y23839D1*
G1X3986Y23916D2*
G1X3986Y23821D1*
G1X3968Y23934D2*
G1X3968Y23804D1*
G1X3951Y23951D2*
G1X3951Y23786D1*
G1X3933Y23969D2*
G1X3933Y23768D1*
G1X3915Y23987D2*
G1X3915Y23751D1*
G1X3898Y24004D2*
G1X3898Y23733D1*
G1X3880Y24022D2*
G1X3880Y23715D1*
G1X3862Y24040D2*
G1X3862Y23698D1*
G1X3845Y24057D2*
G1X3845Y23680D1*
G1X3827Y24075D2*
G1X3827Y23662D1*
G1X3809Y24093D2*
G1X3809Y23668D1*
G1X3791Y24110D2*
G1X3791Y23686D1*
G1X3774Y24118D2*
G1X3774Y23703D1*
G1X3756Y24101D2*
G1X3756Y23721D1*
G1X3738Y24083D2*
G1X3738Y23739D1*
G1X3721Y24065D2*
G1X3721Y23756D1*
G1X3703Y24048D2*
G1X3703Y23774D1*
G1X4081Y24426D2*
G1X4081Y24188D1*
G1X4064Y24408D2*
G1X4064Y24206D1*
G1X4046Y24391D2*
G1X4046Y24223D1*
G1X4028Y24373D2*
G1X4028Y24241D1*
G1X4011Y24355D2*
G1X4011Y24259D1*
G1X3993Y24338D2*
G1X3993Y24276D1*
G1X3975Y24320D2*
G1X3975Y24294D1*
G1X4186Y24507D2*
G1X4163Y24507D1*
G1X4204Y24490D2*
G1X4145Y24490D1*
G1X4222Y24472D2*
G1X4127Y24472D1*
G1X4240Y24454D2*
G1X4110Y24454D1*
G1X4257Y24437D2*
G1X4092Y24437D1*
G1X4275Y24419D2*
G1X4074Y24419D1*
G1X4293Y24401D2*
G1X4057Y24401D1*
G1X4310Y24384D2*
G1X4039Y24384D1*
G1X4328Y24366D2*
G1X4021Y24366D1*
G1X4346Y24348D2*
G1X4004Y24348D1*
G1X4363Y24331D2*
G1X3986Y24331D1*
G1X4381Y24313D2*
G1X3968Y24313D1*
G1X4399Y24295D2*
G1X3974Y24295D1*
G1X4416Y24277D2*
G1X3992Y24277D1*
G1X4424Y24260D2*
G1X4009Y24260D1*
G1X4407Y24242D2*
G1X4027Y24242D1*
G1X4389Y24224D2*
G1X4045Y24224D1*
G1X4371Y24207D2*
G1X4062Y24207D1*
G1X4354Y24189D2*
G1X4080Y24189D1*
G1X4336Y24171D2*
G1X4098Y24171D1*
G1X4318Y24154D2*
G1X4116Y24154D1*
G1X4301Y24136D2*
G1X4133Y24136D1*
G1X4283Y24118D2*
G1X4151Y24118D1*
G1X4265Y24101D2*
G1X4169Y24101D1*
G1X4248Y24083D2*
G1X4186Y24083D1*
G1X4230Y24065D2*
G1X4204Y24065D1*
G1X4429Y24265D2*
G1X4217Y24052D1*
G1X3962Y24307D2*
G1X4217Y24052D1*
G1X4175Y24519D2*
G1X3962Y24307D1*
G1X4175Y24519D2*
G1X4429Y24265D1*
G1X4417Y24276D2*
G1X4417Y24253D1*
G1X4400Y24294D2*
G1X4400Y24235D1*
G1X4382Y24312D2*
G1X4382Y24217D1*
G1X4364Y24330D2*
G1X4364Y24200D1*
G1X4347Y24347D2*
G1X4347Y24182D1*
G1X4329Y24365D2*
G1X4329Y24164D1*
G1X4311Y24383D2*
G1X4311Y24147D1*
G1X4294Y24400D2*
G1X4294Y24129D1*
G1X4276Y24418D2*
G1X4276Y24111D1*
G1X4258Y24436D2*
G1X4258Y24094D1*
G1X4241Y24453D2*
G1X4241Y24076D1*
G1X4223Y24471D2*
G1X4223Y24058D1*
G1X4205Y24489D2*
G1X4205Y24064D1*
G1X4187Y24506D2*
G1X4187Y24082D1*
G1X4170Y24514D2*
G1X4170Y24099D1*
G1X4152Y24497D2*
G1X4152Y24117D1*
G1X4134Y24479D2*
G1X4134Y24135D1*
G1X4117Y24461D2*
G1X4117Y24152D1*
G1X4099Y24444D2*
G1X4099Y24170D1*
G1X4145Y23570D2*
G1X4145Y23332D1*
G1X4128Y23552D2*
G1X4128Y23350D1*
G1X4110Y23535D2*
G1X4110Y23367D1*
G1X4092Y23517D2*
G1X4092Y23385D1*
G1X4075Y23499D2*
G1X4075Y23403D1*
G1X4057Y23482D2*
G1X4057Y23420D1*
G1X4039Y23464D2*
G1X4039Y23438D1*
G1X4250Y23651D2*
G1X4227Y23651D1*
G1X4268Y23634D2*
G1X4209Y23634D1*
G1X4286Y23616D2*
G1X4191Y23616D1*
G1X4304Y23598D2*
G1X4174Y23598D1*
G1X4321Y23581D2*
G1X4156Y23581D1*
G1X4339Y23563D2*
G1X4138Y23563D1*
G1X4357Y23545D2*
G1X4121Y23545D1*
G1X4374Y23528D2*
G1X4103Y23528D1*
G1X4392Y23510D2*
G1X4085Y23510D1*
G1X4410Y23492D2*
G1X4068Y23492D1*
G1X4427Y23475D2*
G1X4050Y23475D1*
G1X4445Y23457D2*
G1X4032Y23457D1*
G1X4463Y23439D2*
G1X4038Y23439D1*
G1X4480Y23421D2*
G1X4056Y23421D1*
G1X4488Y23404D2*
G1X4073Y23404D1*
G1X4471Y23386D2*
G1X4091Y23386D1*
G1X4453Y23368D2*
G1X4109Y23368D1*
G1X4435Y23351D2*
G1X4126Y23351D1*
G1X4418Y23333D2*
G1X4144Y23333D1*
G1X4400Y23315D2*
G1X4162Y23315D1*
G1X4382Y23298D2*
G1X4180Y23298D1*
G1X4365Y23280D2*
G1X4197Y23280D1*
G1X4347Y23262D2*
G1X4215Y23262D1*
G1X4329Y23245D2*
G1X4233Y23245D1*
G1X4312Y23227D2*
G1X4250Y23227D1*
G1X4294Y23209D2*
G1X4268Y23209D1*
G1X4493Y23409D2*
G1X4281Y23196D1*
G1X4026Y23451D2*
G1X4281Y23196D1*
G1X4239Y23663D2*
G1X4026Y23451D1*
G1X4239Y23663D2*
G1X4493Y23409D1*
G1X4481Y23420D2*
G1X4481Y23397D1*
G1X4464Y23438D2*
G1X4464Y23379D1*
G1X4446Y23456D2*
G1X4446Y23361D1*
G1X4428Y23474D2*
G1X4428Y23344D1*
G1X4411Y23491D2*
G1X4411Y23326D1*
G1X4393Y23509D2*
G1X4393Y23308D1*
G1X4375Y23527D2*
G1X4375Y23291D1*
G1X4358Y23544D2*
G1X4358Y23273D1*
G1X4340Y23562D2*
G1X4340Y23255D1*
G1X4322Y23580D2*
G1X4322Y23238D1*
G1X4305Y23597D2*
G1X4305Y23220D1*
G1X4287Y23615D2*
G1X4287Y23202D1*
G1X4269Y23633D2*
G1X4269Y23208D1*
G1X4251Y23650D2*
G1X4251Y23226D1*
G1X4234Y23658D2*
G1X4234Y23243D1*
G1X4216Y23641D2*
G1X4216Y23261D1*
G1X4198Y23623D2*
G1X4198Y23279D1*
G1X4181Y23605D2*
G1X4181Y23296D1*
G1X4163Y23588D2*
G1X4163Y23314D1*
G1X4541Y23966D2*
G1X4541Y23728D1*
G1X4524Y23948D2*
G1X4524Y23746D1*
G1X4506Y23931D2*
G1X4506Y23763D1*
G1X4488Y23913D2*
G1X4488Y23781D1*
G1X4471Y23895D2*
G1X4471Y23799D1*
G1X4453Y23878D2*
G1X4453Y23816D1*
G1X4435Y23860D2*
G1X4435Y23834D1*
G1X4646Y24047D2*
G1X4623Y24047D1*
G1X4664Y24030D2*
G1X4605Y24030D1*
G1X4682Y24012D2*
G1X4587Y24012D1*
G1X4700Y23994D2*
G1X4570Y23994D1*
G1X4717Y23977D2*
G1X4552Y23977D1*
G1X4735Y23959D2*
G1X4534Y23959D1*
G1X4753Y23941D2*
G1X4517Y23941D1*
G1X4770Y23924D2*
G1X4499Y23924D1*
G1X4788Y23906D2*
G1X4481Y23906D1*
G1X4806Y23888D2*
G1X4464Y23888D1*
G1X4823Y23871D2*
G1X4446Y23871D1*
G1X4841Y23853D2*
G1X4428Y23853D1*
G1X4859Y23835D2*
G1X4434Y23835D1*
G1X4876Y23817D2*
G1X4452Y23817D1*
G1X4884Y23800D2*
G1X4469Y23800D1*
G1X4867Y23782D2*
G1X4487Y23782D1*
G1X4849Y23764D2*
G1X4505Y23764D1*
G1X4831Y23747D2*
G1X4522Y23747D1*
G1X4814Y23729D2*
G1X4540Y23729D1*
G1X4796Y23711D2*
G1X4558Y23711D1*
G1X4778Y23694D2*
G1X4576Y23694D1*
G1X4761Y23676D2*
G1X4593Y23676D1*
G1X4743Y23658D2*
G1X4611Y23658D1*
G1X4725Y23641D2*
G1X4629Y23641D1*
G1X4708Y23623D2*
G1X4646Y23623D1*
G1X4690Y23605D2*
G1X4664Y23605D1*
G1X4877Y23816D2*
G1X4877Y23793D1*
G1X4860Y23834D2*
G1X4860Y23775D1*
G1X4842Y23852D2*
G1X4842Y23757D1*
G1X4824Y23870D2*
G1X4824Y23740D1*
G1X4807Y23887D2*
G1X4807Y23722D1*
G1X4789Y23905D2*
G1X4789Y23704D1*
G1X4771Y23923D2*
G1X4771Y23687D1*
G1X4754Y23940D2*
G1X4754Y23669D1*
G1X4736Y23958D2*
G1X4736Y23651D1*
G1X4718Y23976D2*
G1X4718Y23634D1*
G1X4701Y23993D2*
G1X4701Y23616D1*
G1X4683Y24011D2*
G1X4683Y23598D1*
G1X4665Y24029D2*
G1X4665Y23604D1*
G1X4647Y24046D2*
G1X4647Y23622D1*
G1X4630Y24054D2*
G1X4630Y23639D1*
G1X4612Y24037D2*
G1X4612Y23657D1*
G1X4594Y24019D2*
G1X4594Y23675D1*
G1X4577Y24001D2*
G1X4577Y23692D1*
G1X4559Y23984D2*
G1X4559Y23710D1*
G54D619*
G1X24800Y7400D3*
G1X24800Y15900D3*
G1X39601Y21662D3*
G1X29561Y1642D3*
G54D620*
G1X30254Y5469D3*
G1X30254Y16492D3*
G54D621*
G1X31930Y21880D3*
G1X30930Y21880D3*
G1X29930Y21880D3*
G1X28930Y21880D3*
G1X27930Y21880D3*
G1X23620Y418D3*
G1X24620Y418D3*
G1X25620Y418D3*
G1X25630Y22881D3*
G1X24630Y22881D3*
G1X23630Y22881D3*
G1X47990Y-4050D3*
G1X47990Y-3050D3*
G1X47990Y-2050D3*
G1X47990Y25350D3*
G1X47990Y26350D3*
G1X47990Y27350D3*
G1X-3480Y-50D3*
G1X-3480Y-1050D3*
G1X-3480Y-2050D3*
G1X-3480Y25350D3*
G1X-3480Y24350D3*
G1X-3480Y23350D3*
G1X-1000Y16700D3*
G1X-1000Y17700D3*
G1X-1000Y18700D3*
G1X-1000Y4600D3*
G1X-1000Y5600D3*
G1X-1000Y6600D3*
G1X45490Y20700D3*
G1X45490Y19700D3*
G1X45490Y18700D3*
G1X45500Y4600D3*
G1X45500Y3600D3*
G1X45500Y2600D3*
G1X5206Y11110D3*
G1X6190Y11110D3*
G54D622*
G1X12860Y19610D3*
G1X13860Y18610D3*
G1X13860Y19610D3*
G1X14860Y18610D3*
G1X14860Y19610D3*
G1X15860Y18610D3*
G1X15860Y19610D3*
G1X16860Y18610D3*
G1X16860Y19610D3*
G1X47710Y8150D3*
G1X47710Y9150D3*
G1X47710Y10150D3*
G1X47710Y11150D3*
G1X47710Y12150D3*
G1X47710Y13150D3*
G1X47710Y14150D3*
G1X47710Y15150D3*
G1X47710Y16150D3*
G1X44710Y16150D3*
G1X44710Y15150D3*
G1X44710Y14150D3*
G1X44710Y13150D3*
G1X44710Y12150D3*
G1X44710Y11150D3*
G1X44710Y10150D3*
G1X44710Y9150D3*
G1X44710Y8150D3*
G1X44710Y7150D3*
G1X25120Y1270D3*
G1X47210Y-2560D3*
G1X-2740Y-1560D3*
G1X24180Y22030D3*
G1X47210Y26860D3*
G1X-2740Y23860D3*
G54D623*
G1X12860Y18610D3*
G1X47710Y7150D3*
G1X24120Y1270D3*
G1X47210Y-3560D3*
G1X-2740Y-560D3*
G1X25180Y22030D3*
G1X47210Y25860D3*
G1X-2740Y24860D3*
G54D624*
G1X-130Y8457D3*
G1X-917Y8457D3*
G1X-130Y9245D3*
G1X-917Y9245D3*
G1X-130Y10032D3*
G1X-917Y10032D3*
G1X-130Y10819D3*
G1X-917Y10819D3*
G1X-130Y11607D3*
G1X-917Y11607D3*
G1X-917Y7670D3*
G1X-130Y12394D3*
G1X-917Y12394D3*
G1X7187Y3740D3*
G1X7187Y2953D3*
G1X7975Y3740D3*
G1X7975Y2953D3*
G1X8762Y3740D3*
G1X8762Y2953D3*
G1X9549Y3740D3*
G1X9549Y2953D3*
G1X10337Y3740D3*
G1X10337Y2953D3*
G1X6400Y2953D3*
G1X35847Y3740D3*
G1X35847Y2953D3*
G1X36635Y3740D3*
G1X36635Y2953D3*
G1X37422Y3740D3*
G1X37422Y2953D3*
G1X38209Y3740D3*
G1X38209Y2953D3*
G1X38997Y3740D3*
G1X38997Y2953D3*
G1X35060Y2953D3*
G54D625*
G1X-130Y7670D3*
G1X6400Y3740D3*
G1X35060Y3740D3*
G1X7220Y12010D3*
G1X7220Y10908D3*
G1X9750Y8020D3*
G1X9750Y9122D3*
G1X5321Y21451D3*
G1X4219Y21451D3*
G1X-3350Y12222D3*
G1X-3350Y11120D3*
G1X41380Y17950D3*
G1X41380Y16848D3*
G54D626*
G1X23167Y2190D3*
G1X26073Y1521D3*
G1X26083Y21110D3*
G1X23177Y21779D3*
G1X46218Y-4503D3*
G1X46888Y-1597D3*
G1X46218Y24897D3*
G1X46888Y27803D3*
G1X-1708Y403D3*
G1X-2378Y-2503D3*
G1X-1708Y25803D3*
G1X-2378Y22897D3*
G54D628*
G1X300Y14090D3*
G1X-448Y15822D3*
G1X733Y15232D3*
G54D629*
G1X22844Y7950D3*
G1X1986Y7950D3*
G54D630*
G1X11804Y1294D3*
G1X11804Y506D3*
G1X38097Y22650D3*
G1X37310Y22650D3*
G54D631*
G1X-1240Y2540D3*
G1X-1240Y20760D3*
G1X45750Y540D3*
G1X45740Y22760D3*
G54D633*
G1X32930Y21880D3*
G54D634*
G1X24275Y4200D3*
G1X21126Y19160D3*
G54D636*
G1X14700Y1180D3*
G54D637*
G1X6368Y22034D3*
G1X10147Y22034D3*
G54D638*
G1X8257Y21640D3*
G1X9045Y21640D3*
G1X7470Y22427D3*
G1X9045Y22427D3*
G1X8257Y22427D3*
G1X7470Y21640D3*
G54D642*
G1X28260Y19020D3*
G1X28260Y17890D3*
G1X32680Y2210D3*
G1X28260Y900D3*
G1X28260Y2210D3*
G1X33680Y470D3*
G1X33680Y1340D3*
G1X33680Y2210D3*
G1X41000Y10610D3*
G1X27010Y3230D3*
G1X27510Y3230D3*
G1X28010Y3230D3*
G1X28510Y3230D3*
G1X29010Y3230D3*
G1X31420Y3230D3*
G1X31920Y3230D3*
G1X32420Y3230D3*
G1X32920Y3230D3*
G1X33420Y3230D3*
G1X27010Y16930D3*
G1X27510Y16930D3*
G1X28010Y16930D3*
G1X28510Y16930D3*
G1X29010Y16930D3*
G1X31420Y16930D3*
G1X31920Y16930D3*
G1X32420Y16930D3*
G1X32920Y16930D3*
G1X33420Y16930D3*
G1X42190Y12710D3*
G1X42830Y12710D3*
G1X42220Y15170D3*
G54D643*
G1X1720Y7000D3*
G1X2220Y7000D3*
G1X2720Y7000D3*
G1X2720Y8960D3*
G1X2220Y8960D3*
G1X1720Y8960D3*
G1X1220Y8960D3*
G1X9310Y18730D3*
G1X8810Y18730D3*
G1X8310Y18730D3*
G1X8310Y16770D3*
G1X8810Y16770D3*
G1X9310Y16770D3*
G1X9810Y16770D3*
G1X16940Y9030D3*
G1X17440Y9030D3*
G1X17940Y9030D3*
G1X18440Y9030D3*
G1X18940Y9030D3*
G1X19440Y9030D3*
G1X19440Y10990D3*
G1X18940Y10990D3*
G1X18440Y10990D3*
G1X17940Y10990D3*
G1X17440Y10990D3*
G1X16940Y10990D3*
G1X16440Y10990D3*
G1X43350Y17320D3*
G1X43850Y17320D3*
G1X44350Y17320D3*
G1X44350Y19280D3*
G1X43850Y19280D3*
G1X43350Y19280D3*
G1X42850Y19280D3*
G54D644*
G1X1220Y7000D3*
G1X9810Y18730D3*
G1X16440Y9030D3*
G1X42850Y17320D3*
G54D645*
G1X43261Y23052D3*
G54D646*
G1X43647Y23949D3*
G1X43391Y23949D3*
G1X43135Y23949D3*
G1X42879Y23949D3*
G1X42879Y22158D3*
G1X43135Y22158D3*
G1X43391Y22158D3*
G1X43647Y22158D3*
G54D647*
G1X44159Y22926D3*
G1X44159Y23182D3*
G1X44159Y23438D3*
G1X42367Y23438D3*
G1X42367Y23182D3*
G1X42367Y22926D3*
G1X42367Y22670D3*
G54D648*
G1X44159Y22670D3*
G54D649*
G1X36890Y17380D3*
G1X37140Y17380D3*
G1X37390Y17380D3*
G1X37640Y17380D3*
G1X37890Y17380D3*
G1X38140Y17380D3*
G1X38390Y17380D3*
G1X38390Y19330D3*
G1X38140Y19330D3*
G1X37890Y19330D3*
G1X37640Y19330D3*
G1X37390Y19330D3*
G1X37140Y19330D3*
G1X36890Y19330D3*
G1X36640Y19330D3*
G54D650*
G1X36640Y17380D3*
G54D651*
G1X2144Y22384D3*
G54D652*
G1X1160Y22975D3*
G1X1160Y22778D3*
G1X1160Y22581D3*
G1X1160Y22384D3*
G1X1160Y22187D3*
G1X1160Y21991D3*
G1X1160Y21794D3*
G1X3128Y21794D3*
G1X3128Y21991D3*
G1X3128Y22187D3*
G1X3128Y22384D3*
G1X3128Y22581D3*
G1X3128Y22778D3*
G1X3128Y22975D3*
G54D653*
G1X2538Y23368D3*
G1X2341Y23368D3*
G1X2144Y23368D3*
G1X1947Y23368D3*
G1X1750Y23368D3*
G1X1554Y23368D3*
G1X1554Y21400D3*
G1X1750Y21400D3*
G1X1947Y21400D3*
G1X2144Y21400D3*
G1X2341Y21400D3*
G1X2538Y21400D3*
G1X2735Y21400D3*
G54D654*
G1X2735Y23368D3*
G54D655*
G1X32220Y13568D3*
G1X32210Y8278D3*
G1X18098Y15671D3*
G54D656*
G1X33301Y12880D3*
G1X33301Y13274D3*
G1X33301Y13471D3*
G1X33301Y13668D3*
G1X33301Y13865D3*
G1X33301Y14062D3*
G1X33301Y14259D3*
G1X31136Y14259D3*
G1X31136Y14062D3*
G1X31136Y13865D3*
G1X31136Y13668D3*
G1X31136Y13471D3*
G1X31136Y13077D3*
G1X31136Y12880D3*
G1X33291Y7590D3*
G1X33291Y7984D3*
G1X33291Y8181D3*
G1X33291Y8378D3*
G1X33291Y8575D3*
G1X33291Y8772D3*
G1X33291Y8969D3*
G1X31126Y8969D3*
G1X31126Y8772D3*
G1X31126Y8575D3*
G1X31126Y8378D3*
G1X31126Y8181D3*
G1X31126Y7787D3*
G1X31126Y7590D3*
G1X17016Y16359D3*
G1X17016Y15965D3*
G1X17016Y15768D3*
G1X17016Y15571D3*
G1X17016Y15374D3*
G1X17016Y15177D3*
G1X17016Y14980D3*
G1X19181Y14980D3*
G1X19181Y15177D3*
G1X19181Y15374D3*
G1X19181Y15571D3*
G1X19181Y15768D3*
G1X19181Y16162D3*
G1X19181Y16359D3*
G54D657*
G1X33301Y13077D3*
G1X31136Y13274D3*
G1X33291Y7787D3*
G1X31126Y7984D3*
G1X17016Y16162D3*
G1X19181Y15965D3*
G54D658*
G1X31727Y12487D3*
G1X31924Y12487D3*
G1X32121Y12487D3*
G1X32318Y12487D3*
G1X32515Y12487D3*
G1X32712Y12487D3*
G1X32909Y12487D3*
G1X32909Y14652D3*
G1X32712Y14652D3*
G1X32515Y14652D3*
G1X32121Y14652D3*
G1X31924Y14652D3*
G1X31727Y14652D3*
G1X31530Y14652D3*
G1X31717Y7197D3*
G1X31914Y7197D3*
G1X32111Y7197D3*
G1X32308Y7197D3*
G1X32505Y7197D3*
G1X32702Y7197D3*
G1X32899Y7197D3*
G1X32899Y9362D3*
G1X32702Y9362D3*
G1X32505Y9362D3*
G1X32111Y9362D3*
G1X31914Y9362D3*
G1X31717Y9362D3*
G1X31520Y9362D3*
G1X18591Y16752D3*
G1X18394Y16752D3*
G1X18197Y16752D3*
G1X18000Y16752D3*
G1X17803Y16752D3*
G1X17606Y16752D3*
G1X17409Y16752D3*
G1X17409Y14587D3*
G1X17606Y14587D3*
G1X17803Y14587D3*
G1X18197Y14587D3*
G1X18394Y14587D3*
G1X18591Y14587D3*
G1X18788Y14587D3*
G54D659*
G1X31530Y12487D3*
G1X32318Y14652D3*
G1X31520Y7197D3*
G1X32308Y9362D3*
G1X18788Y16752D3*
G1X18000Y14587D3*
G54D660*
G1X1720Y5900D3*
G1X1160Y5900D3*
G1X34470Y7990D3*
G1X35030Y7990D3*
G1X40530Y12530D3*
G1X41090Y12530D3*
G1X34470Y8650D3*
G1X35030Y8650D3*
G1X5380Y22260D3*
G1X4820Y22260D3*
G1X5380Y22890D3*
G1X4820Y22890D3*
G54D661*
G1X10260Y20080D3*
G1X8910Y20080D3*
G1X2680Y4830D3*
G1X1330Y4830D3*
G1X1990Y12130D3*
G1X640Y12130D3*
G54D662*
G1X5290Y16340D3*
G1X5710Y16340D3*
G1X9505Y6115D3*
G1X9505Y5695D3*
G1X7320Y19240D3*
G1X7320Y19660D3*
G1X3140Y5980D3*
G1X2720Y5980D3*
G1X43530Y13910D3*
G1X43110Y13910D3*
G1X14640Y2320D3*
G1X14220Y2320D3*
G1X14650Y2930D3*
G1X14230Y2930D3*
G1X26090Y9780D3*
G1X26510Y9780D3*
G1X26090Y10780D3*
G1X26510Y10780D3*
G1X21880Y21480D3*
G1X22300Y21480D3*
G1X19740Y18740D3*
G1X19740Y18320D3*
G1X22660Y14590D3*
G1X23080Y14590D3*
G1X30990Y11390D3*
G1X30570Y11390D3*
G1X18888Y13190D3*
G1X18888Y13610D3*
G1X19260Y18740D3*
G1X19260Y18320D3*
G1X17420Y13190D3*
G1X17420Y13610D3*
G1X21780Y9870D3*
G1X22200Y9870D3*
G1X21780Y10410D3*
G1X22200Y10410D3*
G1X21780Y10950D3*
G1X22200Y10950D3*
G1X47650Y17580D3*
G1X47650Y17160D3*
G1X46420Y17580D3*
G1X46420Y17160D3*
G1X20400Y1960D3*
G1X19980Y1960D3*
G1X940Y-2560D3*
G1X1360Y-2560D3*
G1X1430Y25970D3*
G1X1850Y25970D3*
G1X20400Y21480D3*
G1X19980Y21480D3*
G1X44560Y25070D3*
G1X44560Y25490D3*
G1X44950Y-2130D3*
G1X44530Y-2130D3*
G1X21880Y20990D3*
G1X22300Y20990D3*
G1X42330Y16180D3*
G1X42750Y16180D3*
G1X42560Y14530D3*
G1X42140Y14530D3*
G1X3800Y10670D3*
G1X3800Y10250D3*
G1X6310Y16340D3*
G1X6730Y16340D3*
G1X24680Y12070D3*
G1X25100Y12070D3*
G1X19380Y13620D3*
G1X19380Y13200D3*
G1X17910Y13620D3*
G1X17910Y13200D3*
G1X38780Y7650D3*
G1X39200Y7650D3*
G1X1050Y24940D3*
G1X1050Y25360D3*
G1X3780Y22770D3*
G1X3780Y22350D3*
G1X39410Y5870D3*
G1X38990Y5870D3*
G1X32310Y10330D3*
G1X32730Y10330D3*
G1X26520Y12070D3*
G1X26100Y12070D3*
G1X33680Y6920D3*
G1X34100Y6920D3*
G1X34100Y5720D3*
G1X34100Y5300D3*
G1X27140Y5700D3*
G1X27140Y5280D3*
G1X43670Y20180D3*
G1X43250Y20180D3*
G1X35560Y20300D3*
G1X35980Y20300D3*
G1X34700Y22240D3*
G1X35120Y22240D3*
G1X34500Y20300D3*
G1X34920Y20300D3*
G1X35820Y22240D3*
G1X36240Y22240D3*
G1X37530Y20160D3*
G1X37950Y20160D3*
G1X42890Y21430D3*
G1X42890Y21010D3*
G1X41090Y11850D3*
G1X40670Y11850D3*
G1X32120Y11370D3*
G1X32540Y11370D3*
G1X32320Y15620D3*
G1X32740Y15620D3*
G1X18400Y13620D3*
G1X18400Y13200D3*
G1X16290Y13190D3*
G1X16290Y13610D3*
G1X26520Y6220D3*
G1X26100Y6220D3*
G1X45140Y-3050D3*
G1X45140Y-3470D3*
G1X45260Y26330D3*
G1X45260Y25910D3*
G1X-1660Y-1270D3*
G1X-1660Y-850D3*
G1X-1810Y24210D3*
G1X-1810Y24630D3*
G1X42430Y-1430D3*
G1X42010Y-1430D3*
G1X42290Y17480D3*
G1X42290Y17060D3*
G1X-2140Y7910D3*
G1X-2140Y7490D3*
G1X1050Y24030D3*
G1X1050Y24450D3*
G1X3940Y12520D3*
G1X3940Y12100D3*
G1X-790Y23270D3*
G1X-790Y22850D3*
G1X-790Y24190D3*
G1X-790Y23770D3*
G1X4270Y22770D3*
G1X4270Y22350D3*
G1X2020Y24030D3*
G1X2020Y24450D3*
G1X1540Y24030D3*
G1X1540Y24450D3*
G54D663*
G1X1463Y18720D3*
G1X5400Y18720D3*
G54D664*
G1X-3130Y7790D3*
G1X-3130Y9590D3*
G54D665*
G1X4550Y1770D3*
G1X1361Y1770D3*
G54D666*
G1X15960Y15310D3*
G1X15960Y14750D3*
G1X37550Y21450D3*
G1X37550Y20890D3*
G1X43530Y20810D3*
G1X43530Y21370D3*
G1X16850Y13010D3*
G1X16850Y13570D3*
G1X15960Y15960D3*
G1X15960Y16520D3*
G1X41540Y22640D3*
G1X41540Y22080D3*
G1X41540Y23300D3*
G1X41540Y23860D3*
G54D667*
G1X21150Y690D3*
G1X19980Y690D3*
G1X21150Y22640D3*
G1X19980Y22640D3*
G54D668*
G1X43090Y530D3*
G1X43090Y-340D3*
G1X43850Y-340D3*
G54D669*
G1X43810Y530D3*
G54D670*
G1X27080Y1010D3*
G1X27080Y2180D3*
G1X31490Y1000D3*
G1X31490Y2170D3*
G1X31470Y19160D3*
G1X31470Y17990D3*
G1X27060Y19160D3*
G1X27060Y17990D3*
G54D671*
G1X43520Y15320D3*
G54D672*
G1X43150Y14530D3*
G1X43890Y14530D3*
G54D673*
G1X2530Y13390D3*
G1X3030Y13390D3*
G1X3530Y13390D3*
G1X3530Y15510D3*
G1X3030Y15510D3*
G1X2530Y15510D3*
G1X2030Y15510D3*
G1X9150Y13030D3*
G1X8650Y13030D3*
G1X8150Y13030D3*
G1X8150Y10910D3*
G1X8650Y10910D3*
G1X9150Y10910D3*
G1X9650Y10910D3*
G54D674*
G1X2030Y13390D3*
G1X9650Y13030D3*
G54D675*
G1X-2416Y13696D3*
G1X-2416Y15271D3*
G54D676*
G1X16490Y7460D3*
G1X17671Y7263D3*
G1X16490Y7066D3*
G1X17671Y6869D3*
G1X16490Y6673D3*
G1X17671Y6476D3*
G1X16490Y6279D3*
G1X17671Y6082D3*
G1X16490Y5885D3*
G1X17671Y5688D3*
G1X16490Y5491D3*
G1X17671Y5295D3*
G1X16490Y5098D3*
G1X17671Y4901D3*
G1X16490Y4704D3*
G1X17671Y4507D3*
G1X16490Y4310D3*
G1X17671Y4114D3*
G1X16490Y3917D3*
G1X17671Y3720D3*
G1X16490Y3523D3*
G1X17671Y3326D3*
G1X16490Y3129D3*
G1X17671Y2932D3*
G1X16490Y2736D3*
G1X17671Y2539D3*
G1X16490Y2342D3*
G1X17671Y2145D3*
G1X16490Y1948D3*
G1X17671Y1751D3*
G1X16490Y1554D3*
G1X17671Y1358D3*
G1X16490Y1161D3*
G54D677*
G1X17612Y7854D3*
G1X17612Y767D3*
G1X16549Y7854D3*
G1X16549Y767D3*
G54D678*
G1X6910Y9270D3*
G1X5749Y9270D3*
G1X6910Y5412D3*
G1X5749Y5412D3*
G54D679*
G1X34700Y21080D3*
G1X34956Y21080D3*
G1X35212Y21080D3*
G1X35212Y21788D3*
G1X34956Y21788D3*
G1X34700Y21788D3*
G1X35820Y21080D3*
G1X36076Y21080D3*
G1X36332Y21080D3*
G1X36332Y21788D3*
G1X36076Y21788D3*
G1X35820Y21788D3*
G54D680*
G1X42224Y11649D3*
G54D681*
G1X41928Y12240D3*
G1X41928Y11059D3*
G1X42519Y11059D3*
G1X42519Y12240D3*
G54D682*
G1X41633Y12043D3*
G1X41633Y11846D3*
G1X41633Y11649D3*
G1X41633Y11453D3*
G1X41633Y11256D3*
G1X42814Y11256D3*
G1X42814Y11453D3*
G1X42814Y11649D3*
G1X42814Y11846D3*
G1X42814Y12043D3*
G54D683*
G1X12329Y16200D3*
G1X12919Y6201D3*
G54D684*
G1X12093Y15610D3*
G1X13746Y15610D3*
G1X12093Y15295D3*
G1X13746Y15295D3*
G1X12093Y14980D3*
G1X13746Y14980D3*
G1X12093Y14665D3*
G1X13746Y14665D3*
G1X12093Y14350D3*
G1X13746Y14350D3*
G1X12093Y14035D3*
G1X13746Y14035D3*
G1X12093Y12460D3*
G1X13746Y12460D3*
G1X12093Y12145D3*
G1X13746Y12145D3*
G1X12093Y11830D3*
G1X13746Y11830D3*
G1X12093Y11516D3*
G1X13746Y11516D3*
G1X12093Y11201D3*
G1X13746Y11201D3*
G1X12093Y10886D3*
G1X13746Y10886D3*
G1X12093Y10571D3*
G1X13746Y10571D3*
G1X12093Y10256D3*
G1X13746Y10256D3*
G1X12093Y9941D3*
G1X13746Y9941D3*
G1X12093Y9626D3*
G1X13746Y9626D3*
G1X12093Y9311D3*
G1X13746Y9311D3*
G1X12093Y8996D3*
G1X13746Y8996D3*
G1X12093Y8681D3*
G1X13746Y8681D3*
G1X12093Y8366D3*
G1X13746Y8366D3*
G1X12093Y8051D3*
G1X13746Y8051D3*
G1X12093Y7736D3*
G1X13746Y7736D3*
G1X12093Y7421D3*
G1X13746Y7421D3*
G1X12093Y7106D3*
G1X13746Y7106D3*
G1X12093Y6791D3*
G1X13746Y6791D3*
G54D685*
G1X20740Y16400D3*
G1X20740Y15900D3*
G1X20740Y15400D3*
G1X22860Y15400D3*
G1X22860Y15900D3*
G1X22860Y16400D3*
G1X22860Y16900D3*
G1X23200Y19360D3*
G1X23200Y18860D3*
G1X23200Y18360D3*
G1X25320Y18360D3*
G1X25320Y18860D3*
G1X25320Y19360D3*
G1X25320Y19860D3*
G1X25240Y9780D3*
G1X25240Y10280D3*
G1X25240Y10780D3*
G1X23120Y10780D3*
G1X23120Y10280D3*
G1X23120Y9780D3*
G1X23120Y9280D3*
G54D686*
G1X20740Y16900D3*
G1X23200Y19860D3*
G1X25240Y9280D3*
G54D687*
G1X40890Y14310D3*
G1X40890Y15150D3*
G54D688*
G1X46930Y11077D3*
G1X46930Y11274D3*
G1X46930Y11471D3*
G1X46930Y11668D3*
G1X46930Y11865D3*
G1X46930Y12062D3*
G1X46930Y12259D3*
G1X45946Y12259D3*
G1X45946Y12062D3*
G1X45946Y11865D3*
G1X45946Y11668D3*
G1X45946Y11471D3*
G1X45946Y11274D3*
G1X45946Y11077D3*
G1X45946Y10880D3*
G54D689*
G1X46930Y10880D3*
G54D690*
G1X43995Y1840D3*
G1X43995Y4360D3*
G1X42420Y1840D3*
G1X42420Y4360D3*
G54D691*
G1X2690Y11520D3*
G1X3064Y11520D3*
G1X3438Y11520D3*
G1X3438Y12551D3*
G1X3064Y12551D3*
G1X2690Y12551D3*
G54D692*
G1X42860Y6110D3*
G1X42860Y6360D3*
G1X42860Y6610D3*
G1X42860Y6860D3*
G1X42860Y7110D3*
G1X42860Y7360D3*
G1X42860Y7610D3*
G1X40360Y7610D3*
G1X40360Y7360D3*
G1X40360Y7110D3*
G1X40360Y6860D3*
G1X40360Y6610D3*
G1X40360Y6360D3*
G1X40360Y6110D3*
G1X40360Y5860D3*
G54D693*
G1X42860Y5860D3*
G54D694*
G1X29370Y12570D3*
G1X29370Y13070D3*
G1X29370Y13570D3*
G1X29370Y14070D3*
G1X29370Y14570D3*
G1X29370Y15070D3*
G1X27410Y15070D3*
G1X27410Y14570D3*
G1X27410Y14070D3*
G1X27410Y13570D3*
G1X27410Y13070D3*
G1X27410Y12570D3*
G1X27410Y12070D3*
G1X29370Y7280D3*
G1X29370Y7780D3*
G1X29370Y8280D3*
G1X29370Y8780D3*
G1X29370Y9280D3*
G1X29370Y9780D3*
G1X27410Y9780D3*
G1X27410Y9280D3*
G1X27410Y8780D3*
G1X27410Y8280D3*
G1X27410Y7780D3*
G1X27410Y7280D3*
G1X27410Y6780D3*
G54D695*
G1X29370Y12070D3*
G1X29370Y6780D3*
G54D696*
G1X6630Y19460D3*
G1X6630Y18160D3*
G54D697*
G1X5670Y12980D3*
G1X5670Y15500D3*
G54D698*
G1X7850Y15180D3*
G1X9650Y15180D3*
G1X2600Y10410D3*
G1X800Y10410D3*
G54D699*
G1X28750Y5490D3*
G1X32490Y5490D3*
G1X3243Y-851D2*
G54D188*
G1X3879Y-1487D1*
G1X3497Y-1869D1*
G1X3517Y25179D2*
G1X3899Y24797D1*
G1X3263Y24161D1*
G1X2690Y26006D2*
G1X3072Y25624D1*
G1X2435Y24988D1*
G1X43900Y27166D2*
G1X44536Y26530D1*
G1X44154Y26148D1*
G1X43307Y-2031D2*
G1X43689Y-2413D1*
G1X43053Y-3049D1*
G1X44134Y-2858D2*
G1X44516Y-3240D1*
G1X43880Y-3877D1*
G1X4635Y24059D2*
G1X4889Y23805D1*
G1X4677Y23592D1*
G1X3243Y-851D2*
G1X2861Y-1233D1*
G1X3497Y-1869D1*
G1X43900Y27166D2*
G1X43518Y26784D1*
G1X44154Y26148D1*
G1X4635Y24059D2*
G1X4422Y23847D1*
G1X4677Y23592D1*
M2*
