*
%LPD*%
%LNRAGOBOT.SMB*%
%FSLAX24Y24*%
%MOIN*%
%AD*%
%ADD188C,0.002000*%
%ADD501R,0.022000X0.022000*%
%ADD502R,0.076000X0.120000*%
%ADD503O,0.094000X0.025000*%
%ADD504R,0.094000X0.025000*%
%ADD505C,0.175000*%
%ADD506C,0.046000*%
%ADD508R,0.070800X0.015700*%
%ADD509R,0.100000X0.064000*%
%ADD510R,0.032000X0.038000*%
%ADD511C,0.062000*%
%ADD512R,0.060000X0.060000*%
%ADD513R,0.050000X0.050000*%
%ADD514R,0.064000X0.100000*%
%ADD515C,0.058000*%
%ADD516R,0.058000X0.058000*%
%ADD518R,0.096000X0.096000*%
%ADD519O,0.016000X0.031500*%
%ADD520R,0.016000X0.031500*%
%ADD521R,0.078700X0.078700*%
%ADD522O,0.059000X0.011000*%
%ADD523R,0.059000X0.011000*%
%ADD524O,0.011000X0.059000*%
%ADD525R,0.011000X0.059000*%
%ADD526O,0.039400X0.011800*%
%ADD527R,0.039400X0.011800*%
%ADD528O,0.011800X0.039400*%
%ADD529R,0.011800X0.039400*%
%ADD530C,0.055100*%
%ADD531R,0.055100X0.055100*%
%ADD532C,0.086600*%
%ADD534C,0.102300*%
%ADD535R,0.090000X0.007900*%
%ADD536R,0.007900X0.090000*%
%ADD537C,0.080000*%
%ADD538R,0.024000X0.057100*%
%ADD539R,0.042000X0.042000*%
%ADD540C,0.150000*%
%ADD542R,0.062000X0.062000*%
%ADD543C,0.177100*%
%ADD545O,0.025000X0.086000*%
%ADD546R,0.025000X0.086000*%
%ADD547O,0.086000X0.025000*%
%ADD548R,0.086000X0.025000*%
%ADD549C,0.170000*%
%ADD550O,0.011800X0.068000*%
%ADD551R,0.011800X0.068000*%
%ADD552O,0.068000X0.011800*%
%ADD553R,0.068000X0.011800*%
%ADD554C,0.065000*%
%ADD555C,0.055000*%
%ADD556O,0.094000X0.016000*%
%ADD557R,0.094000X0.016000*%
%ADD558O,0.100000X0.025000*%
%ADD559R,0.100000X0.025000*%
%ADD560O,0.090000X0.016000*%
%ADD561R,0.090000X0.016000*%
%ADD562O,0.025000X0.094000*%
%ADD563R,0.025000X0.094000*%
%ADD700R,0.114200X0.035400*%
%ADD701C,0.114200*%
%ADD702C,0.078700*%
%ADD703C,0.042000*%
G54D188*
%SRX1Y1I0.0J0.0*%
G1X2480Y8486D2*
G1X2480Y8403D1*
G1X2462Y8468D2*
G1X2462Y8385D1*
G1X2444Y8450D2*
G1X2444Y8367D1*
G1X2427Y8433D2*
G1X2427Y8350D1*
G1X2409Y8415D2*
G1X2409Y8332D1*
G1X2391Y8397D2*
G1X2391Y8314D1*
G1X2374Y8380D2*
G1X2374Y8297D1*
G1X2356Y8362D2*
G1X2356Y8279D1*
G1X2338Y8344D2*
G1X2338Y8261D1*
G1X2321Y8327D2*
G1X2321Y8244D1*
G1X2303Y8309D2*
G1X2303Y8226D1*
G1X2285Y8291D2*
G1X2285Y8208D1*
G1X2268Y8274D2*
G1X2268Y8191D1*
G1X2250Y8256D2*
G1X2250Y8173D1*
G1X2232Y8238D2*
G1X2232Y8155D1*
G1X2214Y8220D2*
G1X2214Y8137D1*
G1X2197Y8203D2*
G1X2197Y8120D1*
G1X2179Y8185D2*
G1X2179Y8102D1*
G1X2161Y8167D2*
G1X2161Y8084D1*
G1X2144Y8150D2*
G1X2144Y8067D1*
G1X2126Y8132D2*
G1X2126Y8049D1*
G1X2108Y8114D2*
G1X2108Y8031D1*
G1X2091Y8097D2*
G1X2091Y8014D1*
G1X2073Y8079D2*
G1X2073Y7996D1*
G1X2055Y8061D2*
G1X2055Y7978D1*
G1X2038Y8044D2*
G1X2038Y7961D1*
G1X2020Y8026D2*
G1X2020Y7943D1*
G1X2002Y8008D2*
G1X2002Y7947D1*
G1X1985Y7991D2*
G1X1985Y7965D1*
G1X2608Y8586D2*
G1X2580Y8586D1*
G1X2626Y8568D2*
G1X2562Y8568D1*
G1X2627Y8550D2*
G1X2544Y8550D1*
G1X2610Y8533D2*
G1X2527Y8533D1*
G1X2592Y8515D2*
G1X2509Y8515D1*
G1X2574Y8497D2*
G1X2491Y8497D1*
G1X2556Y8479D2*
G1X2473Y8479D1*
G1X2539Y8462D2*
G1X2456Y8462D1*
G1X2521Y8444D2*
G1X2438Y8444D1*
G1X2503Y8426D2*
G1X2420Y8426D1*
G1X2486Y8409D2*
G1X2403Y8409D1*
G1X2468Y8391D2*
G1X2385Y8391D1*
G1X2450Y8373D2*
G1X2367Y8373D1*
G1X2433Y8356D2*
G1X2350Y8356D1*
G1X2415Y8338D2*
G1X2332Y8338D1*
G1X2397Y8320D2*
G1X2314Y8320D1*
G1X2380Y8303D2*
G1X2297Y8303D1*
G1X2362Y8285D2*
G1X2279Y8285D1*
G1X2344Y8267D2*
G1X2261Y8267D1*
G1X2327Y8250D2*
G1X2244Y8250D1*
G1X2309Y8232D2*
G1X2226Y8232D1*
G1X2291Y8214D2*
G1X2208Y8214D1*
G1X2273Y8196D2*
G1X2190Y8196D1*
G1X2256Y8179D2*
G1X2173Y8179D1*
G1X2238Y8161D2*
G1X2155Y8161D1*
G1X2220Y8143D2*
G1X2137Y8143D1*
G1X2203Y8126D2*
G1X2120Y8126D1*
G1X2185Y8108D2*
G1X2102Y8108D1*
G1X2167Y8090D2*
G1X2084Y8090D1*
G1X2150Y8073D2*
G1X2067Y8073D1*
G1X2132Y8055D2*
G1X2049Y8055D1*
G1X2114Y8037D2*
G1X2031Y8037D1*
G1X2097Y8020D2*
G1X2014Y8020D1*
G1X2079Y8002D2*
G1X1996Y8002D1*
G1X2061Y7984D2*
G1X1978Y7984D1*
G1X2044Y7967D2*
G1X1983Y7967D1*
G1X2026Y7949D2*
G1X2000Y7949D1*
G1X2594Y8600D2*
G1X1972Y7978D1*
G1X2013Y7936D1*
G1X2621Y8572D2*
G1X2621Y8544D1*
G1X2604Y8590D2*
G1X2604Y8527D1*
G1X2586Y8592D2*
G1X2586Y8509D1*
G1X2568Y8574D2*
G1X2568Y8491D1*
G1X2551Y8557D2*
G1X2551Y8474D1*
G1X2533Y8539D2*
G1X2533Y8456D1*
G1X2515Y8521D2*
G1X2515Y8438D1*
G1X2497Y8503D2*
G1X2497Y8420D1*
G1X2480Y7497D2*
G1X2480Y7414D1*
G1X2462Y7515D2*
G1X2462Y7432D1*
G1X2444Y7533D2*
G1X2444Y7450D1*
G1X2427Y7550D2*
G1X2427Y7467D1*
G1X2409Y7568D2*
G1X2409Y7485D1*
G1X2391Y7586D2*
G1X2391Y7503D1*
G1X2374Y7603D2*
G1X2374Y7520D1*
G1X2356Y7621D2*
G1X2356Y7538D1*
G1X2338Y7639D2*
G1X2338Y7556D1*
G1X2321Y7656D2*
G1X2321Y7573D1*
G1X2303Y7674D2*
G1X2303Y7591D1*
G1X2285Y7692D2*
G1X2285Y7609D1*
G1X2268Y7709D2*
G1X2268Y7626D1*
G1X2250Y7727D2*
G1X2250Y7644D1*
G1X2232Y7745D2*
G1X2232Y7662D1*
G1X2214Y7762D2*
G1X2214Y7680D1*
G1X2197Y7780D2*
G1X2197Y7697D1*
G1X2179Y7798D2*
G1X2179Y7715D1*
G1X2161Y7816D2*
G1X2161Y7733D1*
G1X2144Y7833D2*
G1X2144Y7750D1*
G1X2126Y7851D2*
G1X2126Y7768D1*
G1X2108Y7869D2*
G1X2108Y7786D1*
G1X2091Y7886D2*
G1X2091Y7803D1*
G1X2073Y7904D2*
G1X2073Y7821D1*
G1X2055Y7922D2*
G1X2055Y7839D1*
G1X2038Y7939D2*
G1X2038Y7857D1*
G1X2020Y7957D2*
G1X2020Y7874D1*
G1X2002Y7953D2*
G1X2002Y7892D1*
G1X1985Y7936D2*
G1X1985Y7910D1*
G1X2027Y7950D2*
G1X1999Y7950D1*
G1X2045Y7932D2*
G1X1981Y7932D1*
G1X2062Y7915D2*
G1X1980Y7915D1*
G1X2080Y7897D2*
G1X1997Y7897D1*
G1X2098Y7879D2*
G1X2015Y7879D1*
G1X2115Y7862D2*
G1X2033Y7862D1*
G1X2133Y7844D2*
G1X2050Y7844D1*
G1X2151Y7826D2*
G1X2068Y7826D1*
G1X2168Y7808D2*
G1X2086Y7808D1*
G1X2186Y7791D2*
G1X2103Y7791D1*
G1X2204Y7773D2*
G1X2121Y7773D1*
G1X2222Y7755D2*
G1X2139Y7755D1*
G1X2239Y7738D2*
G1X2156Y7738D1*
G1X2257Y7720D2*
G1X2174Y7720D1*
G1X2275Y7702D2*
G1X2192Y7702D1*
G1X2292Y7685D2*
G1X2209Y7685D1*
G1X2310Y7667D2*
G1X2227Y7667D1*
G1X2328Y7649D2*
G1X2245Y7649D1*
G1X2345Y7632D2*
G1X2262Y7632D1*
G1X2363Y7614D2*
G1X2280Y7614D1*
G1X2381Y7596D2*
G1X2298Y7596D1*
G1X2399Y7579D2*
G1X2315Y7579D1*
G1X2416Y7561D2*
G1X2333Y7561D1*
G1X2434Y7543D2*
G1X2351Y7543D1*
G1X2452Y7525D2*
G1X2369Y7525D1*
G1X2469Y7508D2*
G1X2386Y7508D1*
G1X2487Y7490D2*
G1X2404Y7490D1*
G1X2505Y7472D2*
G1X2422Y7472D1*
G1X2522Y7455D2*
G1X2439Y7455D1*
G1X2540Y7437D2*
G1X2457Y7437D1*
G1X2558Y7419D2*
G1X2475Y7419D1*
G1X2576Y7402D2*
G1X2492Y7402D1*
G1X2593Y7384D2*
G1X2510Y7384D1*
G1X2611Y7366D2*
G1X2528Y7366D1*
G1X2629Y7349D2*
G1X2545Y7349D1*
G1X2624Y7331D2*
G1X2563Y7331D1*
G1X2607Y7313D2*
G1X2581Y7313D1*
G1X1972Y7923D2*
G1X2594Y7300D1*
G1X2013Y7964D2*
G1X1972Y7923D1*
G1X2621Y7356D2*
G1X2621Y7328D1*
G1X2604Y7374D2*
G1X2604Y7310D1*
G1X2586Y7391D2*
G1X2586Y7308D1*
G1X2568Y7409D2*
G1X2568Y7326D1*
G1X2551Y7427D2*
G1X2551Y7343D1*
G1X2533Y7444D2*
G1X2533Y7361D1*
G1X2515Y7462D2*
G1X2515Y7379D1*
G1X2497Y7480D2*
G1X2497Y7396D1*
G1X2010Y8087D2*
G1X2010Y7950D1*
G1X1993Y8044D2*
G1X1993Y7957D1*
G1X1975Y8001D2*
G1X1975Y7965D1*
G1X2320Y8774D2*
G1X2295Y8774D1*
G1X2351Y8756D2*
G1X2288Y8756D1*
G1X2344Y8739D2*
G1X2280Y8739D1*
G1X2337Y8721D2*
G1X2273Y8721D1*
G1X2329Y8703D2*
G1X2266Y8703D1*
G1X2322Y8686D2*
G1X2258Y8686D1*
G1X2315Y8668D2*
G1X2251Y8668D1*
G1X2307Y8650D2*
G1X2244Y8650D1*
G1X2300Y8633D2*
G1X2236Y8633D1*
G1X2293Y8615D2*
G1X2229Y8615D1*
G1X2285Y8597D2*
G1X2222Y8597D1*
G1X2278Y8580D2*
G1X2214Y8580D1*
G1X2271Y8562D2*
G1X2207Y8562D1*
G1X2263Y8544D2*
G1X2200Y8544D1*
G1X2256Y8527D2*
G1X2192Y8527D1*
G1X2249Y8509D2*
G1X2185Y8509D1*
G1X2241Y8491D2*
G1X2178Y8491D1*
G1X2234Y8473D2*
G1X2170Y8473D1*
G1X2227Y8456D2*
G1X2163Y8456D1*
G1X2219Y8438D2*
G1X2156Y8438D1*
G1X2212Y8420D2*
G1X2148Y8420D1*
G1X2205Y8403D2*
G1X2141Y8403D1*
G1X2197Y8385D2*
G1X2134Y8385D1*
G1X2190Y8367D2*
G1X2126Y8367D1*
G1X2183Y8350D2*
G1X2119Y8350D1*
G1X2175Y8332D2*
G1X2112Y8332D1*
G1X2168Y8314D2*
G1X2105Y8314D1*
G1X2161Y8297D2*
G1X2097Y8297D1*
G1X2153Y8279D2*
G1X2090Y8279D1*
G1X2146Y8261D2*
G1X2083Y8261D1*
G1X2139Y8244D2*
G1X2075Y8244D1*
G1X2131Y8226D2*
G1X2068Y8226D1*
G1X2124Y8208D2*
G1X2061Y8208D1*
G1X2117Y8190D2*
G1X2053Y8190D1*
G1X2110Y8173D2*
G1X2046Y8173D1*
G1X2102Y8155D2*
G1X2039Y8155D1*
G1X2095Y8137D2*
G1X2031Y8137D1*
G1X2088Y8120D2*
G1X2024Y8120D1*
G1X2080Y8102D2*
G1X2017Y8102D1*
G1X2073Y8084D2*
G1X2009Y8084D1*
G1X2066Y8067D2*
G1X2002Y8067D1*
G1X2058Y8049D2*
G1X1995Y8049D1*
G1X2051Y8031D2*
G1X1987Y8031D1*
G1X2044Y8014D2*
G1X1980Y8014D1*
G1X2036Y7996D2*
G1X1973Y7996D1*
G1X2029Y7978D2*
G1X1965Y7978D1*
G1X2022Y7961D2*
G1X1985Y7961D1*
G1X2299Y8783D2*
G1X1962Y7970D1*
G1X2016Y7948D1*
G1X2346Y8763D2*
G1X2346Y8745D1*
G1X2329Y8771D2*
G1X2329Y8702D1*
G1X2311Y8778D2*
G1X2311Y8659D1*
G1X2293Y8770D2*
G1X2293Y8616D1*
G1X2276Y8727D2*
G1X2276Y8574D1*
G1X2258Y8685D2*
G1X2258Y8531D1*
G1X2240Y8642D2*
G1X2240Y8488D1*
G1X2222Y8599D2*
G1X2222Y8446D1*
G1X2205Y8556D2*
G1X2205Y8403D1*
G1X2187Y8514D2*
G1X2187Y8360D1*
G1X2169Y8471D2*
G1X2169Y8317D1*
G1X2152Y8428D2*
G1X2152Y8275D1*
G1X2134Y8386D2*
G1X2134Y8232D1*
G1X2116Y8343D2*
G1X2116Y8189D1*
G1X2099Y8300D2*
G1X2099Y8147D1*
G1X2081Y8257D2*
G1X2081Y8104D1*
G1X2063Y8215D2*
G1X2063Y8061D1*
G1X2046Y8172D2*
G1X2046Y8018D1*
G1X2028Y8129D2*
G1X2028Y7976D1*
G1X2474Y8184D2*
G1X2474Y8120D1*
G1X2456Y8177D2*
G1X2456Y8113D1*
G1X2438Y8169D2*
G1X2438Y8106D1*
G1X2421Y8162D2*
G1X2421Y8098D1*
G1X2403Y8155D2*
G1X2403Y8091D1*
G1X2385Y8147D2*
G1X2385Y8084D1*
G1X2368Y8140D2*
G1X2368Y8077D1*
G1X2350Y8133D2*
G1X2350Y8069D1*
G1X2332Y8125D2*
G1X2332Y8062D1*
G1X2315Y8118D2*
G1X2315Y8055D1*
G1X2297Y8111D2*
G1X2297Y8047D1*
G1X2279Y8104D2*
G1X2279Y8040D1*
G1X2262Y8096D2*
G1X2262Y8033D1*
G1X2244Y8089D2*
G1X2244Y8025D1*
G1X2226Y8082D2*
G1X2226Y8018D1*
G1X2208Y8074D2*
G1X2208Y8011D1*
G1X2191Y8067D2*
G1X2191Y8003D1*
G1X2173Y8060D2*
G1X2173Y7996D1*
G1X2155Y8052D2*
G1X2155Y7989D1*
G1X2138Y8045D2*
G1X2138Y7981D1*
G1X2120Y8038D2*
G1X2120Y7974D1*
G1X2102Y8030D2*
G1X2102Y7967D1*
G1X2085Y8023D2*
G1X2085Y7959D1*
G1X2067Y8016D2*
G1X2067Y7952D1*
G1X2049Y8008D2*
G1X2049Y7945D1*
G1X2032Y8001D2*
G1X2032Y7937D1*
G1X2014Y7994D2*
G1X2014Y7930D1*
G1X1996Y7986D2*
G1X1996Y7949D1*
G1X2799Y8311D2*
G1X2780Y8311D1*
G1X2806Y8293D2*
G1X2737Y8293D1*
G1X2813Y8276D2*
G1X2695Y8276D1*
G1X2806Y8258D2*
G1X2652Y8258D1*
G1X2763Y8240D2*
G1X2609Y8240D1*
G1X2720Y8223D2*
G1X2566Y8223D1*
G1X2678Y8205D2*
G1X2524Y8205D1*
G1X2635Y8187D2*
G1X2481Y8187D1*
G1X2592Y8169D2*
G1X2438Y8169D1*
G1X2549Y8152D2*
G1X2396Y8152D1*
G1X2507Y8134D2*
G1X2353Y8134D1*
G1X2464Y8116D2*
G1X2310Y8116D1*
G1X2421Y8099D2*
G1X2268Y8099D1*
G1X2379Y8081D2*
G1X2225Y8081D1*
G1X2336Y8063D2*
G1X2182Y8063D1*
G1X2293Y8046D2*
G1X2139Y8046D1*
G1X2250Y8028D2*
G1X2097Y8028D1*
G1X2208Y8010D2*
G1X2054Y8010D1*
G1X2165Y7993D2*
G1X2011Y7993D1*
G1X2122Y7975D2*
G1X1986Y7975D1*
G1X2080Y7957D2*
G1X1993Y7957D1*
G1X2037Y7940D2*
G1X2000Y7940D1*
G1X2796Y8318D2*
G1X1983Y7981D1*
G1X2006Y7927D1*
G1X2810Y8284D2*
G1X2810Y8260D1*
G1X2792Y8316D2*
G1X2792Y8252D1*
G1X2774Y8309D2*
G1X2774Y8245D1*
G1X2757Y8301D2*
G1X2757Y8238D1*
G1X2739Y8294D2*
G1X2739Y8230D1*
G1X2721Y8287D2*
G1X2721Y8223D1*
G1X2704Y8279D2*
G1X2704Y8216D1*
G1X2686Y8272D2*
G1X2686Y8208D1*
G1X2668Y8265D2*
G1X2668Y8201D1*
G1X2651Y8257D2*
G1X2651Y8194D1*
G1X2633Y8250D2*
G1X2633Y8186D1*
G1X2615Y8243D2*
G1X2615Y8179D1*
G1X2598Y8235D2*
G1X2598Y8172D1*
G1X2580Y8228D2*
G1X2580Y8164D1*
G1X2562Y8221D2*
G1X2562Y8157D1*
G1X2545Y8213D2*
G1X2545Y8150D1*
G1X2527Y8206D2*
G1X2527Y8142D1*
G1X2509Y8199D2*
G1X2509Y8135D1*
G1X2491Y8191D2*
G1X2491Y8128D1*
G1X2474Y7780D2*
G1X2474Y7716D1*
G1X2456Y7787D2*
G1X2456Y7723D1*
G1X2438Y7794D2*
G1X2438Y7731D1*
G1X2421Y7802D2*
G1X2421Y7738D1*
G1X2403Y7809D2*
G1X2403Y7745D1*
G1X2385Y7816D2*
G1X2385Y7753D1*
G1X2368Y7824D2*
G1X2368Y7760D1*
G1X2350Y7831D2*
G1X2350Y7767D1*
G1X2332Y7838D2*
G1X2332Y7775D1*
G1X2315Y7846D2*
G1X2315Y7782D1*
G1X2297Y7853D2*
G1X2297Y7789D1*
G1X2279Y7860D2*
G1X2279Y7797D1*
G1X2262Y7868D2*
G1X2262Y7804D1*
G1X2244Y7875D2*
G1X2244Y7811D1*
G1X2226Y7882D2*
G1X2226Y7819D1*
G1X2208Y7889D2*
G1X2208Y7826D1*
G1X2191Y7897D2*
G1X2191Y7833D1*
G1X2173Y7904D2*
G1X2173Y7841D1*
G1X2155Y7911D2*
G1X2155Y7848D1*
G1X2138Y7919D2*
G1X2138Y7855D1*
G1X2120Y7926D2*
G1X2120Y7863D1*
G1X2102Y7933D2*
G1X2102Y7870D1*
G1X2085Y7941D2*
G1X2085Y7877D1*
G1X2067Y7948D2*
G1X2067Y7885D1*
G1X2049Y7955D2*
G1X2049Y7892D1*
G1X2032Y7963D2*
G1X2032Y7899D1*
G1X2014Y7970D2*
G1X2014Y7907D1*
G1X1996Y7951D2*
G1X1996Y7914D1*
G1X2022Y7967D2*
G1X2003Y7967D1*
G1X2065Y7949D2*
G1X1995Y7949D1*
G1X2108Y7931D2*
G1X1988Y7931D1*
G1X2150Y7914D2*
G1X1997Y7914D1*
G1X2193Y7896D2*
G1X2040Y7896D1*
G1X2236Y7878D2*
G1X2082Y7878D1*
G1X2278Y7861D2*
G1X2125Y7861D1*
G1X2321Y7843D2*
G1X2168Y7843D1*
G1X2364Y7825D2*
G1X2210Y7825D1*
G1X2406Y7807D2*
G1X2253Y7807D1*
G1X2449Y7790D2*
G1X2296Y7790D1*
G1X2492Y7772D2*
G1X2338Y7772D1*
G1X2534Y7754D2*
G1X2381Y7754D1*
G1X2577Y7737D2*
G1X2423Y7737D1*
G1X2620Y7719D2*
G1X2466Y7719D1*
G1X2662Y7701D2*
G1X2509Y7701D1*
G1X2705Y7684D2*
G1X2551Y7684D1*
G1X2748Y7666D2*
G1X2594Y7666D1*
G1X2790Y7648D2*
G1X2637Y7648D1*
G1X2816Y7631D2*
G1X2679Y7631D1*
G1X2809Y7613D2*
G1X2722Y7613D1*
G1X2801Y7595D2*
G1X2765Y7595D1*
G1X1983Y7919D2*
G1X2796Y7582D1*
G1X2006Y7974D2*
G1X1983Y7919D1*
G1X2810Y7640D2*
G1X2810Y7616D1*
G1X2792Y7648D2*
G1X2792Y7584D1*
G1X2774Y7655D2*
G1X2774Y7591D1*
G1X2757Y7662D2*
G1X2757Y7598D1*
G1X2739Y7670D2*
G1X2739Y7606D1*
G1X2721Y7677D2*
G1X2721Y7613D1*
G1X2704Y7684D2*
G1X2704Y7620D1*
G1X2686Y7692D2*
G1X2686Y7628D1*
G1X2668Y7699D2*
G1X2668Y7635D1*
G1X2651Y7706D2*
G1X2651Y7643D1*
G1X2633Y7714D2*
G1X2633Y7650D1*
G1X2615Y7721D2*
G1X2615Y7657D1*
G1X2598Y7728D2*
G1X2598Y7665D1*
G1X2580Y7736D2*
G1X2580Y7672D1*
G1X2562Y7743D2*
G1X2562Y7679D1*
G1X2545Y7750D2*
G1X2545Y7687D1*
G1X2527Y7758D2*
G1X2527Y7694D1*
G1X2509Y7765D2*
G1X2509Y7701D1*
G1X2491Y7772D2*
G1X2491Y7709D1*
G1X2010Y7950D2*
G1X2010Y7813D1*
G1X1993Y7943D2*
G1X1993Y7856D1*
G1X1975Y7935D2*
G1X1975Y7899D1*
G1X2020Y7943D2*
G1X1995Y7943D1*
G1X2027Y7926D2*
G1X1964Y7926D1*
G1X2035Y7908D2*
G1X1971Y7908D1*
G1X2042Y7890D2*
G1X1978Y7890D1*
G1X2049Y7873D2*
G1X1986Y7873D1*
G1X2057Y7855D2*
G1X1993Y7855D1*
G1X2064Y7837D2*
G1X2000Y7837D1*
G1X2071Y7820D2*
G1X2008Y7820D1*
G1X2078Y7802D2*
G1X2015Y7802D1*
G1X2086Y7784D2*
G1X2022Y7784D1*
G1X2093Y7767D2*
G1X2030Y7767D1*
G1X2100Y7749D2*
G1X2037Y7749D1*
G1X2108Y7731D2*
G1X2044Y7731D1*
G1X2115Y7714D2*
G1X2052Y7714D1*
G1X2122Y7696D2*
G1X2059Y7696D1*
G1X2130Y7678D2*
G1X2066Y7678D1*
G1X2137Y7660D2*
G1X2073Y7660D1*
G1X2144Y7643D2*
G1X2081Y7643D1*
G1X2152Y7625D2*
G1X2088Y7625D1*
G1X2159Y7607D2*
G1X2095Y7607D1*
G1X2166Y7590D2*
G1X2103Y7590D1*
G1X2174Y7572D2*
G1X2110Y7572D1*
G1X2181Y7554D2*
G1X2117Y7554D1*
G1X2188Y7537D2*
G1X2125Y7537D1*
G1X2196Y7519D2*
G1X2132Y7519D1*
G1X2203Y7501D2*
G1X2139Y7501D1*
G1X2210Y7484D2*
G1X2147Y7484D1*
G1X2218Y7466D2*
G1X2154Y7466D1*
G1X2225Y7448D2*
G1X2161Y7448D1*
G1X2232Y7431D2*
G1X2169Y7431D1*
G1X2240Y7413D2*
G1X2176Y7413D1*
G1X2247Y7395D2*
G1X2183Y7395D1*
G1X2254Y7377D2*
G1X2191Y7377D1*
G1X2262Y7360D2*
G1X2198Y7360D1*
G1X2269Y7342D2*
G1X2205Y7342D1*
G1X2276Y7324D2*
G1X2213Y7324D1*
G1X2284Y7307D2*
G1X2220Y7307D1*
G1X2291Y7289D2*
G1X2227Y7289D1*
G1X2298Y7271D2*
G1X2235Y7271D1*
G1X2306Y7254D2*
G1X2242Y7254D1*
G1X2313Y7236D2*
G1X2249Y7236D1*
G1X2320Y7218D2*
G1X2257Y7218D1*
G1X2328Y7201D2*
G1X2264Y7201D1*
G1X2335Y7183D2*
G1X2271Y7183D1*
G1X2342Y7165D2*
G1X2279Y7165D1*
G1X2349Y7148D2*
G1X2286Y7148D1*
G1X2330Y7130D2*
G1X2293Y7130D1*
G1X1962Y7930D2*
G1X2299Y7117D1*
G1X2016Y7952D2*
G1X1962Y7930D1*
G1X2346Y7155D2*
G1X2346Y7137D1*
G1X2329Y7198D2*
G1X2329Y7129D1*
G1X2311Y7241D2*
G1X2311Y7122D1*
G1X2293Y7283D2*
G1X2293Y7130D1*
G1X2276Y7326D2*
G1X2276Y7173D1*
G1X2258Y7369D2*
G1X2258Y7215D1*
G1X2240Y7412D2*
G1X2240Y7258D1*
G1X2222Y7454D2*
G1X2222Y7301D1*
G1X2205Y7497D2*
G1X2205Y7343D1*
G1X2187Y7540D2*
G1X2187Y7386D1*
G1X2169Y7582D2*
G1X2169Y7429D1*
G1X2152Y7625D2*
G1X2152Y7472D1*
G1X2134Y7668D2*
G1X2134Y7514D1*
G1X2116Y7711D2*
G1X2116Y7557D1*
G1X2099Y7753D2*
G1X2099Y7600D1*
G1X2081Y7796D2*
G1X2081Y7642D1*
G1X2063Y7839D2*
G1X2063Y7685D1*
G1X2046Y7881D2*
G1X2046Y7728D1*
G1X2028Y7924D2*
G1X2028Y7771D1*
G1X22524Y7256D2*
G1X22524Y7119D1*
G1X22507Y7213D2*
G1X22507Y7127D1*
G1X22489Y7170D2*
G1X22489Y7134D1*
G1X22834Y7943D2*
G1X22809Y7943D1*
G1X22865Y7926D2*
G1X22802Y7926D1*
G1X22858Y7908D2*
G1X22794Y7908D1*
G1X22851Y7890D2*
G1X22787Y7890D1*
G1X22843Y7873D2*
G1X22780Y7873D1*
G1X22836Y7855D2*
G1X22772Y7855D1*
G1X22829Y7837D2*
G1X22765Y7837D1*
G1X22821Y7820D2*
G1X22758Y7820D1*
G1X22814Y7802D2*
G1X22750Y7802D1*
G1X22807Y7784D2*
G1X22743Y7784D1*
G1X22799Y7767D2*
G1X22736Y7767D1*
G1X22792Y7749D2*
G1X22728Y7749D1*
G1X22785Y7731D2*
G1X22721Y7731D1*
G1X22777Y7714D2*
G1X22714Y7714D1*
G1X22770Y7696D2*
G1X22706Y7696D1*
G1X22763Y7678D2*
G1X22699Y7678D1*
G1X22755Y7660D2*
G1X22692Y7660D1*
G1X22748Y7643D2*
G1X22684Y7643D1*
G1X22741Y7625D2*
G1X22677Y7625D1*
G1X22733Y7607D2*
G1X22670Y7607D1*
G1X22726Y7590D2*
G1X22662Y7590D1*
G1X22719Y7572D2*
G1X22655Y7572D1*
G1X22711Y7554D2*
G1X22648Y7554D1*
G1X22704Y7537D2*
G1X22640Y7537D1*
G1X22697Y7519D2*
G1X22633Y7519D1*
G1X22689Y7501D2*
G1X22626Y7501D1*
G1X22682Y7484D2*
G1X22619Y7484D1*
G1X22675Y7466D2*
G1X22611Y7466D1*
G1X22667Y7448D2*
G1X22604Y7448D1*
G1X22660Y7431D2*
G1X22597Y7431D1*
G1X22653Y7413D2*
G1X22589Y7413D1*
G1X22645Y7395D2*
G1X22582Y7395D1*
G1X22638Y7377D2*
G1X22575Y7377D1*
G1X22631Y7360D2*
G1X22567Y7360D1*
G1X22624Y7342D2*
G1X22560Y7342D1*
G1X22616Y7324D2*
G1X22553Y7324D1*
G1X22609Y7307D2*
G1X22545Y7307D1*
G1X22602Y7289D2*
G1X22538Y7289D1*
G1X22594Y7271D2*
G1X22531Y7271D1*
G1X22587Y7254D2*
G1X22523Y7254D1*
G1X22580Y7236D2*
G1X22516Y7236D1*
G1X22572Y7218D2*
G1X22509Y7218D1*
G1X22565Y7201D2*
G1X22501Y7201D1*
G1X22558Y7183D2*
G1X22494Y7183D1*
G1X22550Y7165D2*
G1X22487Y7165D1*
G1X22543Y7148D2*
G1X22479Y7148D1*
G1X22536Y7130D2*
G1X22499Y7130D1*
G1X22867Y7930D2*
G1X22530Y7117D1*
G1X22476Y7139D2*
G1X22530Y7117D1*
G1X22813Y7952D2*
G1X22476Y7139D1*
G1X22813Y7952D2*
G1X22867Y7930D1*
G1X22860Y7933D2*
G1X22860Y7914D1*
G1X22843Y7940D2*
G1X22843Y7871D1*
G1X22825Y7947D2*
G1X22825Y7828D1*
G1X22807Y7939D2*
G1X22807Y7786D1*
G1X22790Y7897D2*
G1X22790Y7743D1*
G1X22772Y7854D2*
G1X22772Y7700D1*
G1X22754Y7811D2*
G1X22754Y7658D1*
G1X22736Y7768D2*
G1X22736Y7615D1*
G1X22719Y7726D2*
G1X22719Y7572D1*
G1X22701Y7683D2*
G1X22701Y7530D1*
G1X22683Y7640D2*
G1X22683Y7487D1*
G1X22666Y7598D2*
G1X22666Y7444D1*
G1X22648Y7555D2*
G1X22648Y7401D1*
G1X22630Y7512D2*
G1X22630Y7359D1*
G1X22613Y7469D2*
G1X22613Y7316D1*
G1X22595Y7427D2*
G1X22595Y7273D1*
G1X22577Y7384D2*
G1X22577Y7231D1*
G1X22560Y7341D2*
G1X22560Y7188D1*
G1X22542Y7299D2*
G1X22542Y7145D1*
G1X22702Y7850D2*
G1X22702Y7767D1*
G1X22684Y7832D2*
G1X22684Y7749D1*
G1X22666Y7814D2*
G1X22666Y7731D1*
G1X22649Y7797D2*
G1X22649Y7714D1*
G1X22631Y7779D2*
G1X22631Y7696D1*
G1X22613Y7761D2*
G1X22613Y7678D1*
G1X22596Y7744D2*
G1X22596Y7661D1*
G1X22578Y7726D2*
G1X22578Y7643D1*
G1X22560Y7708D2*
G1X22560Y7625D1*
G1X22543Y7691D2*
G1X22543Y7608D1*
G1X22525Y7673D2*
G1X22525Y7590D1*
G1X22507Y7655D2*
G1X22507Y7572D1*
G1X22490Y7638D2*
G1X22490Y7555D1*
G1X22472Y7620D2*
G1X22472Y7537D1*
G1X22454Y7602D2*
G1X22454Y7519D1*
G1X22436Y7585D2*
G1X22436Y7501D1*
G1X22419Y7567D2*
G1X22419Y7484D1*
G1X22401Y7549D2*
G1X22401Y7466D1*
G1X22383Y7532D2*
G1X22383Y7448D1*
G1X22366Y7514D2*
G1X22366Y7431D1*
G1X22348Y7496D2*
G1X22348Y7413D1*
G1X22330Y7479D2*
G1X22330Y7395D1*
G1X22313Y7461D2*
G1X22313Y7378D1*
G1X22295Y7443D2*
G1X22295Y7360D1*
G1X22277Y7426D2*
G1X22277Y7342D1*
G1X22260Y7408D2*
G1X22260Y7325D1*
G1X22242Y7390D2*
G1X22242Y7307D1*
G1X22224Y7373D2*
G1X22224Y7311D1*
G1X22207Y7355D2*
G1X22207Y7329D1*
G1X22830Y7950D2*
G1X22802Y7950D1*
G1X22848Y7932D2*
G1X22784Y7932D1*
G1X22850Y7915D2*
G1X22767Y7915D1*
G1X22832Y7897D2*
G1X22749Y7897D1*
G1X22814Y7879D2*
G1X22731Y7879D1*
G1X22797Y7862D2*
G1X22713Y7862D1*
G1X22779Y7844D2*
G1X22696Y7844D1*
G1X22761Y7826D2*
G1X22678Y7826D1*
G1X22743Y7808D2*
G1X22660Y7808D1*
G1X22726Y7791D2*
G1X22643Y7791D1*
G1X22708Y7773D2*
G1X22625Y7773D1*
G1X22690Y7755D2*
G1X22607Y7755D1*
G1X22673Y7738D2*
G1X22590Y7738D1*
G1X22655Y7720D2*
G1X22572Y7720D1*
G1X22637Y7702D2*
G1X22554Y7702D1*
G1X22620Y7685D2*
G1X22536Y7685D1*
G1X22602Y7667D2*
G1X22519Y7667D1*
G1X22584Y7649D2*
G1X22501Y7649D1*
G1X22567Y7632D2*
G1X22483Y7632D1*
G1X22549Y7614D2*
G1X22466Y7614D1*
G1X22531Y7596D2*
G1X22448Y7596D1*
G1X22514Y7579D2*
G1X22430Y7579D1*
G1X22496Y7561D2*
G1X22413Y7561D1*
G1X22478Y7543D2*
G1X22395Y7543D1*
G1X22460Y7525D2*
G1X22377Y7525D1*
G1X22443Y7508D2*
G1X22360Y7508D1*
G1X22425Y7490D2*
G1X22342Y7490D1*
G1X22407Y7472D2*
G1X22324Y7472D1*
G1X22390Y7455D2*
G1X22306Y7455D1*
G1X22372Y7437D2*
G1X22289Y7437D1*
G1X22354Y7419D2*
G1X22271Y7419D1*
G1X22337Y7402D2*
G1X22253Y7402D1*
G1X22319Y7384D2*
G1X22236Y7384D1*
G1X22301Y7366D2*
G1X22218Y7366D1*
G1X22284Y7349D2*
G1X22200Y7349D1*
G1X22266Y7331D2*
G1X22205Y7331D1*
G1X22248Y7313D2*
G1X22222Y7313D1*
G1X22858Y7923D2*
G1X22235Y7300D1*
G1X22194Y7342D2*
G1X22235Y7300D1*
G1X22816Y7964D2*
G1X22194Y7342D1*
G1X22816Y7964D2*
G1X22858Y7923D1*
G1X22843Y7937D2*
G1X22843Y7908D1*
G1X22826Y7954D2*
G1X22826Y7891D1*
G1X22808Y7956D2*
G1X22808Y7873D1*
G1X22790Y7938D2*
G1X22790Y7855D1*
G1X22773Y7921D2*
G1X22773Y7838D1*
G1X22755Y7903D2*
G1X22755Y7820D1*
G1X22737Y7885D2*
G1X22737Y7802D1*
G1X22719Y7868D2*
G1X22719Y7784D1*
G1X22501Y7840D2*
G1X22501Y7776D1*
G1X22483Y7833D2*
G1X22483Y7769D1*
G1X22465Y7825D2*
G1X22465Y7762D1*
G1X22448Y7818D2*
G1X22448Y7754D1*
G1X22430Y7811D2*
G1X22430Y7747D1*
G1X22412Y7803D2*
G1X22412Y7740D1*
G1X22395Y7796D2*
G1X22395Y7732D1*
G1X22377Y7789D2*
G1X22377Y7725D1*
G1X22359Y7781D2*
G1X22359Y7718D1*
G1X22342Y7774D2*
G1X22342Y7710D1*
G1X22324Y7767D2*
G1X22324Y7703D1*
G1X22306Y7759D2*
G1X22306Y7696D1*
G1X22289Y7752D2*
G1X22289Y7688D1*
G1X22271Y7745D2*
G1X22271Y7681D1*
G1X22253Y7737D2*
G1X22253Y7674D1*
G1X22235Y7730D2*
G1X22235Y7666D1*
G1X22218Y7723D2*
G1X22218Y7659D1*
G1X22200Y7715D2*
G1X22200Y7652D1*
G1X22182Y7708D2*
G1X22182Y7644D1*
G1X22165Y7701D2*
G1X22165Y7637D1*
G1X22147Y7693D2*
G1X22147Y7630D1*
G1X22129Y7686D2*
G1X22129Y7622D1*
G1X22112Y7679D2*
G1X22112Y7615D1*
G1X22094Y7671D2*
G1X22094Y7608D1*
G1X22076Y7664D2*
G1X22076Y7600D1*
G1X22059Y7657D2*
G1X22059Y7593D1*
G1X22041Y7649D2*
G1X22041Y7586D1*
G1X22023Y7642D2*
G1X22023Y7606D1*
G1X22826Y7967D2*
G1X22806Y7967D1*
G1X22834Y7949D2*
G1X22764Y7949D1*
G1X22841Y7931D2*
G1X22721Y7931D1*
G1X22832Y7914D2*
G1X22678Y7914D1*
G1X22790Y7896D2*
G1X22636Y7896D1*
G1X22747Y7878D2*
G1X22593Y7878D1*
G1X22704Y7861D2*
G1X22550Y7861D1*
G1X22662Y7843D2*
G1X22508Y7843D1*
G1X22619Y7825D2*
G1X22465Y7825D1*
G1X22576Y7807D2*
G1X22422Y7807D1*
G1X22534Y7790D2*
G1X22380Y7790D1*
G1X22491Y7772D2*
G1X22337Y7772D1*
G1X22448Y7754D2*
G1X22294Y7754D1*
G1X22405Y7737D2*
G1X22252Y7737D1*
G1X22363Y7719D2*
G1X22209Y7719D1*
G1X22320Y7701D2*
G1X22166Y7701D1*
G1X22277Y7684D2*
G1X22124Y7684D1*
G1X22235Y7666D2*
G1X22081Y7666D1*
G1X22192Y7648D2*
G1X22038Y7648D1*
G1X22149Y7631D2*
G1X22013Y7631D1*
G1X22107Y7613D2*
G1X22020Y7613D1*
G1X22064Y7595D2*
G1X22028Y7595D1*
G1X22846Y7919D2*
G1X22033Y7582D1*
G1X22010Y7637D2*
G1X22033Y7582D1*
G1X22823Y7974D2*
G1X22010Y7637D1*
G1X22823Y7974D2*
G1X22846Y7919D1*
G1X22837Y7941D2*
G1X22837Y7915D1*
G1X22819Y7972D2*
G1X22819Y7908D1*
G1X22801Y7965D2*
G1X22801Y7901D1*
G1X22784Y7957D2*
G1X22784Y7893D1*
G1X22766Y7950D2*
G1X22766Y7886D1*
G1X22748Y7943D2*
G1X22748Y7879D1*
G1X22731Y7935D2*
G1X22731Y7871D1*
G1X22713Y7928D2*
G1X22713Y7864D1*
G1X22695Y7921D2*
G1X22695Y7857D1*
G1X22678Y7913D2*
G1X22678Y7849D1*
G1X22660Y7906D2*
G1X22660Y7842D1*
G1X22642Y7899D2*
G1X22642Y7835D1*
G1X22625Y7891D2*
G1X22625Y7827D1*
G1X22607Y7884D2*
G1X22607Y7820D1*
G1X22589Y7877D2*
G1X22589Y7813D1*
G1X22572Y7869D2*
G1X22572Y7806D1*
G1X22554Y7862D2*
G1X22554Y7798D1*
G1X22536Y7855D2*
G1X22536Y7791D1*
G1X22518Y7847D2*
G1X22518Y7784D1*
G1X22501Y8124D2*
G1X22501Y8060D1*
G1X22483Y8131D2*
G1X22483Y8067D1*
G1X22465Y8139D2*
G1X22465Y8075D1*
G1X22448Y8146D2*
G1X22448Y8082D1*
G1X22430Y8153D2*
G1X22430Y8089D1*
G1X22412Y8160D2*
G1X22412Y8097D1*
G1X22395Y8168D2*
G1X22395Y8104D1*
G1X22377Y8175D2*
G1X22377Y8111D1*
G1X22359Y8182D2*
G1X22359Y8119D1*
G1X22342Y8190D2*
G1X22342Y8126D1*
G1X22324Y8197D2*
G1X22324Y8133D1*
G1X22306Y8204D2*
G1X22306Y8141D1*
G1X22289Y8212D2*
G1X22289Y8148D1*
G1X22271Y8219D2*
G1X22271Y8155D1*
G1X22253Y8226D2*
G1X22253Y8163D1*
G1X22235Y8234D2*
G1X22235Y8170D1*
G1X22218Y8241D2*
G1X22218Y8177D1*
G1X22200Y8248D2*
G1X22200Y8185D1*
G1X22182Y8256D2*
G1X22182Y8192D1*
G1X22165Y8263D2*
G1X22165Y8199D1*
G1X22147Y8270D2*
G1X22147Y8207D1*
G1X22129Y8278D2*
G1X22129Y8214D1*
G1X22112Y8285D2*
G1X22112Y8221D1*
G1X22094Y8292D2*
G1X22094Y8229D1*
G1X22076Y8300D2*
G1X22076Y8236D1*
G1X22059Y8307D2*
G1X22059Y8243D1*
G1X22041Y8314D2*
G1X22041Y8251D1*
G1X22023Y8294D2*
G1X22023Y8258D1*
G1X22049Y8311D2*
G1X22030Y8311D1*
G1X22092Y8293D2*
G1X22023Y8293D1*
G1X22134Y8276D2*
G1X22015Y8276D1*
G1X22177Y8258D2*
G1X22023Y8258D1*
G1X22220Y8240D2*
G1X22066Y8240D1*
G1X22262Y8223D2*
G1X22109Y8223D1*
G1X22305Y8205D2*
G1X22151Y8205D1*
G1X22348Y8187D2*
G1X22194Y8187D1*
G1X22391Y8169D2*
G1X22237Y8169D1*
G1X22433Y8152D2*
G1X22279Y8152D1*
G1X22476Y8134D2*
G1X22322Y8134D1*
G1X22519Y8116D2*
G1X22365Y8116D1*
G1X22561Y8099D2*
G1X22408Y8099D1*
G1X22604Y8081D2*
G1X22450Y8081D1*
G1X22647Y8063D2*
G1X22493Y8063D1*
G1X22690Y8046D2*
G1X22536Y8046D1*
G1X22732Y8028D2*
G1X22578Y8028D1*
G1X22775Y8010D2*
G1X22621Y8010D1*
G1X22818Y7993D2*
G1X22664Y7993D1*
G1X22843Y7975D2*
G1X22707Y7975D1*
G1X22836Y7957D2*
G1X22749Y7957D1*
G1X22829Y7940D2*
G1X22792Y7940D1*
G1X22010Y8263D2*
G1X22823Y7927D1*
G1X22033Y8318D2*
G1X22010Y8263D1*
G1X22837Y7985D2*
G1X22837Y7959D1*
G1X22819Y7992D2*
G1X22819Y7928D1*
G1X22801Y7999D2*
G1X22801Y7936D1*
G1X22784Y8007D2*
G1X22784Y7943D1*
G1X22766Y8014D2*
G1X22766Y7950D1*
G1X22748Y8021D2*
G1X22748Y7958D1*
G1X22731Y8029D2*
G1X22731Y7965D1*
G1X22713Y8036D2*
G1X22713Y7972D1*
G1X22695Y8043D2*
G1X22695Y7980D1*
G1X22678Y8051D2*
G1X22678Y7987D1*
G1X22660Y8058D2*
G1X22660Y7994D1*
G1X22642Y8065D2*
G1X22642Y8002D1*
G1X22625Y8073D2*
G1X22625Y8009D1*
G1X22607Y8080D2*
G1X22607Y8016D1*
G1X22589Y8087D2*
G1X22589Y8024D1*
G1X22572Y8095D2*
G1X22572Y8031D1*
G1X22554Y8102D2*
G1X22554Y8038D1*
G1X22536Y8109D2*
G1X22536Y8045D1*
G1X22518Y8117D2*
G1X22518Y8053D1*
G1X22702Y8133D2*
G1X22702Y8050D1*
G1X22684Y8151D2*
G1X22684Y8068D1*
G1X22666Y8169D2*
G1X22666Y8085D1*
G1X22649Y8186D2*
G1X22649Y8103D1*
G1X22631Y8204D2*
G1X22631Y8121D1*
G1X22613Y8222D2*
G1X22613Y8139D1*
G1X22596Y8239D2*
G1X22596Y8156D1*
G1X22578Y8257D2*
G1X22578Y8174D1*
G1X22560Y8275D2*
G1X22560Y8192D1*
G1X22543Y8292D2*
G1X22543Y8209D1*
G1X22525Y8310D2*
G1X22525Y8227D1*
G1X22507Y8328D2*
G1X22507Y8245D1*
G1X22490Y8345D2*
G1X22490Y8262D1*
G1X22472Y8363D2*
G1X22472Y8280D1*
G1X22454Y8381D2*
G1X22454Y8298D1*
G1X22436Y8398D2*
G1X22436Y8315D1*
G1X22419Y8416D2*
G1X22419Y8333D1*
G1X22401Y8434D2*
G1X22401Y8351D1*
G1X22383Y8452D2*
G1X22383Y8368D1*
G1X22366Y8469D2*
G1X22366Y8386D1*
G1X22348Y8487D2*
G1X22348Y8404D1*
G1X22330Y8505D2*
G1X22330Y8422D1*
G1X22313Y8522D2*
G1X22313Y8439D1*
G1X22295Y8540D2*
G1X22295Y8457D1*
G1X22277Y8558D2*
G1X22277Y8475D1*
G1X22260Y8575D2*
G1X22260Y8492D1*
G1X22242Y8593D2*
G1X22242Y8510D1*
G1X22224Y8589D2*
G1X22224Y8528D1*
G1X22207Y8571D2*
G1X22207Y8545D1*
G1X22249Y8586D2*
G1X22221Y8586D1*
G1X22267Y8568D2*
G1X22203Y8568D1*
G1X22285Y8550D2*
G1X22202Y8550D1*
G1X22302Y8533D2*
G1X22219Y8533D1*
G1X22320Y8515D2*
G1X22237Y8515D1*
G1X22338Y8497D2*
G1X22255Y8497D1*
G1X22355Y8479D2*
G1X22272Y8479D1*
G1X22373Y8462D2*
G1X22290Y8462D1*
G1X22391Y8444D2*
G1X22308Y8444D1*
G1X22409Y8426D2*
G1X22325Y8426D1*
G1X22426Y8409D2*
G1X22343Y8409D1*
G1X22444Y8391D2*
G1X22361Y8391D1*
G1X22462Y8373D2*
G1X22378Y8373D1*
G1X22479Y8356D2*
G1X22396Y8356D1*
G1X22497Y8338D2*
G1X22414Y8338D1*
G1X22515Y8320D2*
G1X22432Y8320D1*
G1X22532Y8303D2*
G1X22449Y8303D1*
G1X22550Y8285D2*
G1X22467Y8285D1*
G1X22568Y8267D2*
G1X22485Y8267D1*
G1X22585Y8250D2*
G1X22502Y8250D1*
G1X22603Y8232D2*
G1X22520Y8232D1*
G1X22621Y8214D2*
G1X22538Y8214D1*
G1X22639Y8196D2*
G1X22555Y8196D1*
G1X22656Y8179D2*
G1X22573Y8179D1*
G1X22674Y8161D2*
G1X22591Y8161D1*
G1X22692Y8143D2*
G1X22608Y8143D1*
G1X22709Y8126D2*
G1X22626Y8126D1*
G1X22727Y8108D2*
G1X22644Y8108D1*
G1X22745Y8090D2*
G1X22661Y8090D1*
G1X22762Y8073D2*
G1X22679Y8073D1*
G1X22780Y8055D2*
G1X22697Y8055D1*
G1X22798Y8037D2*
G1X22715Y8037D1*
G1X22816Y8020D2*
G1X22732Y8020D1*
G1X22833Y8002D2*
G1X22750Y8002D1*
G1X22851Y7984D2*
G1X22768Y7984D1*
G1X22847Y7967D2*
G1X22785Y7967D1*
G1X22829Y7949D2*
G1X22803Y7949D1*
G1X22194Y8558D2*
G1X22816Y7936D1*
G1X22235Y8600D2*
G1X22194Y8558D1*
G1X22843Y7992D2*
G1X22843Y7963D1*
G1X22826Y8010D2*
G1X22826Y7946D1*
G1X22808Y8027D2*
G1X22808Y7944D1*
G1X22790Y8045D2*
G1X22790Y7962D1*
G1X22773Y8063D2*
G1X22773Y7979D1*
G1X22755Y8080D2*
G1X22755Y7997D1*
G1X22737Y8098D2*
G1X22737Y8015D1*
G1X22719Y8116D2*
G1X22719Y8032D1*
G1X22524Y8780D2*
G1X22524Y8644D1*
G1X22507Y8773D2*
G1X22507Y8687D1*
G1X22489Y8766D2*
G1X22489Y8729D1*
G1X22534Y8774D2*
G1X22509Y8774D1*
G1X22541Y8756D2*
G1X22478Y8756D1*
G1X22549Y8739D2*
G1X22485Y8739D1*
G1X22556Y8721D2*
G1X22492Y8721D1*
G1X22563Y8703D2*
G1X22500Y8703D1*
G1X22571Y8686D2*
G1X22507Y8686D1*
G1X22578Y8668D2*
G1X22514Y8668D1*
G1X22585Y8650D2*
G1X22522Y8650D1*
G1X22592Y8633D2*
G1X22529Y8633D1*
G1X22600Y8615D2*
G1X22536Y8615D1*
G1X22607Y8597D2*
G1X22544Y8597D1*
G1X22614Y8580D2*
G1X22551Y8580D1*
G1X22622Y8562D2*
G1X22558Y8562D1*
G1X22629Y8544D2*
G1X22566Y8544D1*
G1X22636Y8527D2*
G1X22573Y8527D1*
G1X22644Y8509D2*
G1X22580Y8509D1*
G1X22651Y8491D2*
G1X22587Y8491D1*
G1X22658Y8473D2*
G1X22595Y8473D1*
G1X22666Y8456D2*
G1X22602Y8456D1*
G1X22673Y8438D2*
G1X22609Y8438D1*
G1X22680Y8420D2*
G1X22617Y8420D1*
G1X22688Y8403D2*
G1X22624Y8403D1*
G1X22695Y8385D2*
G1X22631Y8385D1*
G1X22702Y8367D2*
G1X22639Y8367D1*
G1X22710Y8350D2*
G1X22646Y8350D1*
G1X22717Y8332D2*
G1X22653Y8332D1*
G1X22724Y8314D2*
G1X22661Y8314D1*
G1X22732Y8297D2*
G1X22668Y8297D1*
G1X22739Y8279D2*
G1X22675Y8279D1*
G1X22746Y8261D2*
G1X22683Y8261D1*
G1X22754Y8244D2*
G1X22690Y8244D1*
G1X22761Y8226D2*
G1X22697Y8226D1*
G1X22768Y8208D2*
G1X22705Y8208D1*
G1X22776Y8190D2*
G1X22712Y8190D1*
G1X22783Y8173D2*
G1X22719Y8173D1*
G1X22790Y8155D2*
G1X22727Y8155D1*
G1X22798Y8137D2*
G1X22734Y8137D1*
G1X22805Y8120D2*
G1X22741Y8120D1*
G1X22812Y8102D2*
G1X22749Y8102D1*
G1X22820Y8084D2*
G1X22756Y8084D1*
G1X22827Y8067D2*
G1X22763Y8067D1*
G1X22834Y8049D2*
G1X22771Y8049D1*
G1X22842Y8031D2*
G1X22778Y8031D1*
G1X22849Y8014D2*
G1X22785Y8014D1*
G1X22856Y7996D2*
G1X22793Y7996D1*
G1X22863Y7978D2*
G1X22800Y7978D1*
G1X22844Y7961D2*
G1X22807Y7961D1*
G1X22476Y8761D2*
G1X22813Y7948D1*
G1X22530Y8783D2*
G1X22476Y8761D1*
G1X22860Y7986D2*
G1X22860Y7967D1*
G1X22843Y8029D2*
G1X22843Y7960D1*
G1X22825Y8071D2*
G1X22825Y7953D1*
G1X22807Y8114D2*
G1X22807Y7961D1*
G1X22790Y8157D2*
G1X22790Y8003D1*
G1X22772Y8199D2*
G1X22772Y8046D1*
G1X22754Y8242D2*
G1X22754Y8089D1*
G1X22736Y8285D2*
G1X22736Y8131D1*
G1X22719Y8328D2*
G1X22719Y8174D1*
G1X22701Y8370D2*
G1X22701Y8217D1*
G1X22683Y8413D2*
G1X22683Y8260D1*
G1X22666Y8456D2*
G1X22666Y8302D1*
G1X22648Y8498D2*
G1X22648Y8345D1*
G1X22630Y8541D2*
G1X22630Y8388D1*
G1X22613Y8584D2*
G1X22613Y8430D1*
G1X22595Y8627D2*
G1X22595Y8473D1*
G1X22577Y8669D2*
G1X22577Y8516D1*
G1X22560Y8712D2*
G1X22560Y8558D1*
G1X22542Y8755D2*
G1X22542Y8601D1*
G54D501*
G1X42450Y24090D3*
G1X42870Y24090D3*
G1X35130Y22250D3*
G1X34710Y22250D3*
G1X35830Y22250D3*
G1X36250Y22250D3*
G1X27430Y1180D3*
G1X27010Y1180D3*
G1X31420Y1170D3*
G1X31840Y1170D3*
G1X26990Y18160D3*
G1X27410Y18160D3*
G1X10240Y12460D3*
G1X10240Y12040D3*
G1X10830Y12460D3*
G1X10830Y12040D3*
G1X27890Y20580D3*
G1X27890Y21000D3*
G1X31020Y20580D3*
G1X31020Y21000D3*
G1X27020Y8430D3*
G1X27440Y8430D3*
G1X27450Y8990D3*
G1X27030Y8990D3*
G1X40640Y4830D3*
G1X40220Y4830D3*
G1X40210Y4240D3*
G1X40630Y4240D3*
G1X31130Y18160D3*
G1X31550Y18160D3*
G1X44560Y2860D3*
G1X44560Y3280D3*
G1X43950Y15370D3*
G1X43950Y14950D3*
G1X17050Y13610D3*
G1X17050Y13190D3*
G1X31420Y2340D3*
G1X31840Y2340D3*
G1X33420Y2340D3*
G1X33000Y2340D3*
G1X41760Y16740D3*
G1X41760Y17160D3*
G1X19400Y13180D3*
G1X19400Y13600D3*
G1X27430Y2350D3*
G1X27010Y2350D3*
G1X18140Y18620D3*
G1X17720Y18620D3*
G1X-240Y18120D3*
G1X-240Y17700D3*
G1X-2440Y5610D3*
G1X-2020Y5610D3*
G1X46980Y19720D3*
G1X46560Y19720D3*
G1X47100Y3610D3*
G1X46680Y3610D3*
G1X34660Y6620D3*
G1X34240Y6620D3*
G1X39100Y20280D3*
G1X38680Y20280D3*
G1X-380Y5100D3*
G1X-380Y5520D3*
G1X34680Y13550D3*
G1X34260Y13550D3*
G1X34700Y11220D3*
G1X34280Y11220D3*
G1X34670Y8910D3*
G1X34250Y8910D3*
G1X42340Y5360D3*
G1X42340Y5780D3*
G1X42330Y1170D3*
G1X41910Y1170D3*
G1X39470Y13620D3*
G1X39470Y13200D3*
G1X41780Y5360D3*
G1X41780Y5780D3*
G1X17610Y13610D3*
G1X17610Y13190D3*
G1X44620Y18490D3*
G1X44620Y18070D3*
G1X300Y450D3*
G1X300Y30D3*
G1X24410Y2220D3*
G1X24830Y2220D3*
G1X22280Y22500D3*
G1X22280Y22920D3*
G1X4390Y4570D3*
G1X3970Y4570D3*
G1X2520Y25880D3*
G1X2520Y25460D3*
G54D502*
G1X3610Y18900D3*
G1X1250Y18900D3*
G54D503*
G1X400Y5070D3*
G1X400Y5570D3*
G1X400Y6070D3*
G1X2360Y6070D3*
G1X2360Y5570D3*
G1X2360Y5070D3*
G1X2360Y4570D3*
G54D504*
G1X400Y4570D3*
G54D505*
G1X24800Y7400D3*
G1X24800Y15900D3*
G1X39601Y21662D3*
G1X29561Y1642D3*
G54D506*
G1X30254Y5469D3*
G1X30254Y16492D3*
G54D508*
G1X29231Y15902D3*
G1X29231Y15508D3*
G1X29231Y15114D3*
G1X29231Y14721D3*
G1X29231Y14327D3*
G1X29231Y13933D3*
G1X29231Y13540D3*
G1X29231Y13146D3*
G1X29231Y12752D3*
G1X29231Y12358D3*
G1X29231Y11965D3*
G1X29231Y11571D3*
G1X29231Y11178D3*
G1X29231Y10784D3*
G1X29231Y10390D3*
G1X29231Y9996D3*
G1X29231Y9603D3*
G1X29231Y9209D3*
G1X29231Y8815D3*
G1X29231Y8422D3*
G1X29231Y8028D3*
G1X29231Y7634D3*
G1X29231Y7241D3*
G1X29231Y6847D3*
G1X29231Y6453D3*
G1X29231Y6059D3*
G1X31239Y15705D3*
G1X31239Y15311D3*
G1X31239Y14918D3*
G1X31239Y14524D3*
G1X31239Y14130D3*
G1X31239Y13736D3*
G1X31239Y13343D3*
G1X31239Y12949D3*
G1X31239Y12555D3*
G1X31239Y12162D3*
G1X31239Y11768D3*
G1X31239Y11374D3*
G1X31239Y10981D3*
G1X31239Y10587D3*
G1X31239Y10193D3*
G1X31239Y9800D3*
G1X31239Y9406D3*
G1X31239Y9012D3*
G1X31239Y8619D3*
G1X31239Y8225D3*
G1X31239Y7831D3*
G1X31239Y7437D3*
G1X31239Y7044D3*
G1X31239Y6650D3*
G1X31239Y6256D3*
G54D509*
G1X40350Y19540D3*
G1X40350Y18190D3*
G54D510*
G1X41370Y20320D3*
G1X40810Y20320D3*
G1X32160Y6650D3*
G1X32720Y6650D3*
G1X43160Y10790D3*
G1X43720Y10790D3*
G54D511*
G1X31930Y21880D3*
G1X30930Y21880D3*
G1X29930Y21880D3*
G1X28930Y21880D3*
G1X27930Y21880D3*
G1X23620Y418D3*
G1X24620Y418D3*
G1X25620Y418D3*
G1X25630Y22881D3*
G1X24630Y22881D3*
G1X23630Y22881D3*
G1X47990Y-4050D3*
G1X47990Y-3050D3*
G1X47990Y-2050D3*
G1X47990Y25350D3*
G1X47990Y26350D3*
G1X47990Y27350D3*
G1X-3480Y-50D3*
G1X-3480Y-1050D3*
G1X-3480Y-2050D3*
G1X-3480Y25350D3*
G1X-3480Y24350D3*
G1X-3480Y23350D3*
G1X-1000Y16700D3*
G1X-1000Y17700D3*
G1X-1000Y18700D3*
G1X-1000Y4600D3*
G1X-1000Y5600D3*
G1X-1000Y6600D3*
G1X45490Y20700D3*
G1X45490Y19700D3*
G1X45490Y18700D3*
G1X45500Y4600D3*
G1X45500Y3600D3*
G1X45500Y2600D3*
G1X5206Y11110D3*
G1X6190Y11110D3*
G54D512*
G1X40660Y12580D3*
G1X41960Y12580D3*
G54D513*
G1X43560Y24220D3*
G1X44400Y24220D3*
G1X23190Y19540D3*
G1X23190Y18700D3*
G1X43410Y12480D3*
G1X43410Y11640D3*
G54D514*
G1X735Y25455D3*
G1X-615Y25455D3*
G1X31740Y20600D3*
G1X33090Y20600D3*
G1X28610Y20600D3*
G1X29960Y20600D3*
G54D515*
G1X12860Y19610D3*
G1X13860Y18610D3*
G1X13860Y19610D3*
G1X14860Y18610D3*
G1X14860Y19610D3*
G1X15860Y18610D3*
G1X15860Y19610D3*
G1X16860Y18610D3*
G1X16860Y19610D3*
G1X47710Y8150D3*
G1X47710Y9150D3*
G1X47710Y10150D3*
G1X47710Y11150D3*
G1X47710Y12150D3*
G1X47710Y13150D3*
G1X47710Y14150D3*
G1X47710Y15150D3*
G1X47710Y16150D3*
G1X44710Y16150D3*
G1X44710Y15150D3*
G1X44710Y14150D3*
G1X44710Y13150D3*
G1X44710Y12150D3*
G1X44710Y11150D3*
G1X44710Y10150D3*
G1X44710Y9150D3*
G1X44710Y8150D3*
G1X44710Y7150D3*
G1X25120Y1270D3*
G1X47210Y-2560D3*
G1X-2740Y-1560D3*
G1X24180Y22030D3*
G1X47210Y26860D3*
G1X-2740Y23860D3*
G54D516*
G1X12860Y18610D3*
G1X47710Y7150D3*
G1X24120Y1270D3*
G1X47210Y-3560D3*
G1X-2740Y-560D3*
G1X25180Y22030D3*
G1X47210Y25860D3*
G1X-2740Y24860D3*
G54D518*
G1X-2140Y18550D3*
G1X-2140Y16790D3*
G54D519*
G1X43774Y17437D3*
G1X43518Y17437D3*
G1X43262Y17437D3*
G1X43262Y19142D3*
G1X43518Y19142D3*
G1X43774Y19142D3*
G1X44030Y19142D3*
G54D520*
G1X44030Y17437D3*
G54D521*
G1X42440Y3368D3*
G54D522*
G1X41358Y2680D3*
G1X41358Y3074D3*
G1X41358Y3271D3*
G1X41358Y3468D3*
G1X41358Y3665D3*
G1X41358Y3862D3*
G1X41358Y4059D3*
G1X43524Y4059D3*
G1X43524Y3862D3*
G1X43524Y3665D3*
G1X43524Y3468D3*
G1X43524Y3271D3*
G1X43524Y2877D3*
G1X43524Y2680D3*
G54D523*
G1X41358Y2877D3*
G1X43524Y3074D3*
G54D524*
G1X42933Y2287D3*
G1X42736Y2287D3*
G1X42539Y2287D3*
G1X42342Y2287D3*
G1X42145Y2287D3*
G1X41948Y2287D3*
G1X41751Y2287D3*
G1X41751Y4452D3*
G1X41948Y4452D3*
G1X42145Y4452D3*
G1X42539Y4452D3*
G1X42736Y4452D3*
G1X42933Y4452D3*
G1X43130Y4452D3*
G54D525*
G1X43130Y2287D3*
G1X42342Y4452D3*
G54D526*
G1X41343Y9367D3*
G1X41343Y9111D3*
G1X41343Y8855D3*
G1X40005Y8855D3*
G1X40005Y9111D3*
G1X40005Y9367D3*
G1X40005Y9623D3*
G1X41373Y7957D3*
G1X41373Y7701D3*
G1X41373Y7445D3*
G1X40035Y7445D3*
G1X40035Y7701D3*
G1X40035Y7957D3*
G1X40035Y8213D3*
G1X34280Y15026D3*
G1X34280Y15282D3*
G1X34280Y15538D3*
G1X35618Y15538D3*
G1X35618Y15282D3*
G1X35618Y15026D3*
G1X35618Y14770D3*
G1X34291Y16396D3*
G1X34291Y16652D3*
G1X34291Y16908D3*
G1X35630Y16908D3*
G1X35630Y16652D3*
G1X35630Y16396D3*
G1X35630Y16140D3*
G1X34291Y17726D3*
G1X34291Y17982D3*
G1X34291Y18238D3*
G1X35630Y18238D3*
G1X35630Y17982D3*
G1X35630Y17726D3*
G1X35630Y17470D3*
G1X34291Y19056D3*
G1X34291Y19312D3*
G1X34291Y19568D3*
G1X35630Y19568D3*
G1X35630Y19312D3*
G1X35630Y19056D3*
G1X35630Y18800D3*
G54D527*
G1X41343Y9623D3*
G1X41373Y8213D3*
G1X34280Y14770D3*
G1X34291Y16140D3*
G1X34291Y17470D3*
G1X34291Y18800D3*
G54D528*
G1X41764Y17650D3*
G1X41508Y17650D3*
G1X41252Y17650D3*
G1X41252Y18988D3*
G1X41508Y18988D3*
G1X41764Y18988D3*
G1X42020Y18988D3*
G54D529*
G1X42020Y17650D3*
G54D530*
G1X-130Y8457D3*
G1X-917Y8457D3*
G1X-130Y9245D3*
G1X-917Y9245D3*
G1X-130Y10032D3*
G1X-917Y10032D3*
G1X-130Y10819D3*
G1X-917Y10819D3*
G1X-130Y11607D3*
G1X-917Y11607D3*
G1X-917Y7670D3*
G1X-130Y12394D3*
G1X-917Y12394D3*
G1X7187Y3740D3*
G1X7187Y2953D3*
G1X7975Y3740D3*
G1X7975Y2953D3*
G1X8762Y3740D3*
G1X8762Y2953D3*
G1X9549Y3740D3*
G1X9549Y2953D3*
G1X10337Y3740D3*
G1X10337Y2953D3*
G1X6400Y2953D3*
G1X35847Y3740D3*
G1X35847Y2953D3*
G1X36635Y3740D3*
G1X36635Y2953D3*
G1X37422Y3740D3*
G1X37422Y2953D3*
G1X38209Y3740D3*
G1X38209Y2953D3*
G1X38997Y3740D3*
G1X38997Y2953D3*
G1X35060Y2953D3*
G54D531*
G1X-130Y7670D3*
G1X6400Y3740D3*
G1X35060Y3740D3*
G1X11540Y18848D3*
G1X11540Y19950D3*
G1X1730Y25750D3*
G1X1730Y24648D3*
G54D532*
G1X23167Y2190D3*
G1X26073Y1521D3*
G1X26083Y21110D3*
G1X23177Y21779D3*
G1X46218Y-4503D3*
G1X46888Y-1597D3*
G1X46218Y24897D3*
G1X46888Y27803D3*
G1X-1708Y403D3*
G1X-2378Y-2503D3*
G1X-1708Y25803D3*
G1X-2378Y22897D3*
G54D534*
G1X300Y14090D3*
G1X-448Y15822D3*
G1X733Y15232D3*
G54D535*
G1X2435Y7950D3*
G1X22394Y7950D3*
G54D536*
G1X1986Y8400D3*
G1X1986Y7501D3*
G1X22844Y8400D3*
G1X22844Y7501D3*
G54D537*
G1X22844Y7950D3*
G1X1986Y7950D3*
G54D538*
G1X22080Y17380D3*
G1X21686Y17380D3*
G1X21293Y17380D3*
G1X20899Y17380D3*
G1X20505Y17380D3*
G1X20111Y17380D3*
G1X19718Y17380D3*
G1X19324Y17380D3*
G1X18930Y17380D3*
G1X18537Y17380D3*
G1X18143Y17380D3*
G1X17749Y17380D3*
G1X17356Y17380D3*
G1X16962Y17380D3*
G1X16568Y17380D3*
G1X16174Y17380D3*
G1X15781Y17380D3*
G1X15387Y17380D3*
G1X14993Y17380D3*
G1X14600Y17380D3*
G1X14206Y17380D3*
G1X13812Y17380D3*
G1X13419Y17380D3*
G1X13025Y17380D3*
G1X12631Y17380D3*
G1X12237Y17380D3*
G1X11844Y17380D3*
G1X11450Y17380D3*
G1X11056Y17380D3*
G1X10663Y17380D3*
G1X10269Y17380D3*
G1X9875Y17380D3*
G1X9482Y17380D3*
G1X9088Y17380D3*
G1X8694Y17380D3*
G1X8300Y17380D3*
G1X7907Y17380D3*
G1X7513Y17380D3*
G1X7119Y17380D3*
G1X6726Y17380D3*
G1X6332Y17380D3*
G1X5938Y17380D3*
G1X5545Y17380D3*
G1X5151Y17380D3*
G1X4757Y17380D3*
G1X4363Y17380D3*
G1X3970Y17380D3*
G1X3576Y17380D3*
G1X3182Y17380D3*
G1X2789Y17380D3*
G54D539*
G1X11804Y1294D3*
G1X11804Y506D3*
G1X38097Y22650D3*
G1X37310Y22650D3*
G54D540*
G1X-1240Y2540D3*
G1X-1240Y20760D3*
G1X45750Y540D3*
G1X45740Y22760D3*
G54D542*
G1X32930Y21880D3*
G54D543*
G1X24275Y4200D3*
G1X21126Y19160D3*
G54D545*
G1X43010Y23220D3*
G1X43510Y23220D3*
G1X44010Y23220D3*
G1X44010Y21100D3*
G1X43510Y21100D3*
G1X43010Y21100D3*
G1X42510Y21100D3*
G1X2480Y21440D3*
G1X1980Y21440D3*
G1X1480Y21440D3*
G1X1480Y23560D3*
G1X1980Y23560D3*
G1X2480Y23560D3*
G1X2980Y23560D3*
G54D546*
G1X42510Y23220D3*
G1X2980Y21440D3*
G54D547*
G1X43100Y14950D3*
G1X43100Y14450D3*
G1X43100Y13950D3*
G1X40980Y13950D3*
G1X40980Y14450D3*
G1X40980Y14950D3*
G1X40980Y15450D3*
G54D548*
G1X43100Y15450D3*
G54D549*
G1X14700Y1180D3*
G54D550*
G1X42507Y0D3*
G1X42704Y0D3*
G1X42901Y0D3*
G1X43098Y0D3*
G1X43295Y0D3*
G1X43492Y0D3*
G1X43689Y0D3*
G1X43689Y-984D3*
G1X43492Y-984D3*
G1X43295Y-984D3*
G1X43098Y-984D3*
G1X42901Y-984D3*
G1X42704Y-984D3*
G1X42507Y-984D3*
G1X42310Y-984D3*
G54D551*
G1X42310Y0D3*
G54D552*
G1X34457Y20249D3*
G1X34457Y20446D3*
G1X34457Y20643D3*
G1X34457Y20840D3*
G1X34457Y21037D3*
G1X34457Y21234D3*
G1X34457Y21431D3*
G1X35441Y21431D3*
G1X35441Y21234D3*
G1X35441Y21037D3*
G1X35441Y20840D3*
G1X35441Y20643D3*
G1X35441Y20446D3*
G1X35441Y20249D3*
G1X35441Y20053D3*
G54D553*
G1X34457Y20053D3*
G54D554*
G1X6368Y22034D3*
G1X10147Y22034D3*
G54D555*
G1X8257Y21640D3*
G1X9045Y21640D3*
G1X7470Y22427D3*
G1X9045Y22427D3*
G1X8257Y22427D3*
G1X7470Y21640D3*
G54D556*
G1X38180Y6390D3*
G1X38180Y6140D3*
G1X38180Y5890D3*
G1X38180Y5640D3*
G1X38180Y5390D3*
G1X38180Y5140D3*
G1X38180Y4890D3*
G1X35680Y4890D3*
G1X35680Y5140D3*
G1X35680Y5390D3*
G1X35680Y5640D3*
G1X35680Y5890D3*
G1X35680Y6140D3*
G1X35680Y6390D3*
G1X35680Y6640D3*
G1X38180Y13290D3*
G1X38180Y13040D3*
G1X38180Y12790D3*
G1X38180Y12540D3*
G1X38180Y12290D3*
G1X38180Y12040D3*
G1X38180Y11790D3*
G1X35680Y11790D3*
G1X35680Y12040D3*
G1X35680Y12290D3*
G1X35680Y12540D3*
G1X35680Y12790D3*
G1X35680Y13040D3*
G1X35680Y13290D3*
G1X35680Y13540D3*
G1X38180Y10990D3*
G1X38180Y10740D3*
G1X38180Y10490D3*
G1X38180Y10240D3*
G1X38180Y9990D3*
G1X38180Y9740D3*
G1X38180Y9490D3*
G1X35680Y9490D3*
G1X35680Y9740D3*
G1X35680Y9990D3*
G1X35680Y10240D3*
G1X35680Y10490D3*
G1X35680Y10740D3*
G1X35680Y10990D3*
G1X35680Y11240D3*
G1X38180Y8690D3*
G1X38180Y8440D3*
G1X38180Y8190D3*
G1X38180Y7940D3*
G1X38180Y7690D3*
G1X38180Y7440D3*
G1X38180Y7190D3*
G1X35680Y7190D3*
G1X35680Y7440D3*
G1X35680Y7690D3*
G1X35680Y7940D3*
G1X35680Y8190D3*
G1X35680Y8440D3*
G1X35680Y8690D3*
G1X35680Y8940D3*
G54D557*
G1X38180Y6640D3*
G1X38180Y13540D3*
G1X38180Y11240D3*
G1X38180Y8940D3*
G54D558*
G1X4770Y3080D3*
G1X4770Y2580D3*
G1X4770Y2080D3*
G1X4770Y1580D3*
G1X4770Y1080D3*
G1X4770Y580D3*
G1X4770Y80D3*
G1X1150Y80D3*
G1X1150Y580D3*
G1X1150Y1080D3*
G1X1150Y1580D3*
G1X1150Y2080D3*
G1X1150Y2580D3*
G1X1150Y3080D3*
G1X1150Y3580D3*
G54D559*
G1X4770Y3580D3*
G54D560*
G1X38910Y15814D3*
G1X38910Y15558D3*
G1X38910Y15302D3*
G1X38910Y15046D3*
G1X38910Y14790D3*
G1X38910Y14534D3*
G1X38910Y14278D3*
G1X36801Y14278D3*
G1X36801Y14534D3*
G1X36801Y14790D3*
G1X36801Y15046D3*
G1X36801Y15302D3*
G1X36801Y15558D3*
G1X36801Y15814D3*
G1X36801Y16070D3*
G54D561*
G1X38910Y16070D3*
G54D562*
G1X38900Y17340D3*
G1X38400Y17340D3*
G1X37900Y17340D3*
G1X37400Y17340D3*
G1X36900Y17340D3*
G1X36400Y17340D3*
G1X36400Y19300D3*
G1X36900Y19300D3*
G1X37400Y19300D3*
G1X37900Y19300D3*
G1X38400Y19300D3*
G1X38900Y19300D3*
G1X39400Y19300D3*
G54D563*
G1X39400Y17340D3*
G54D700*
G1X30254Y5036D3*
G1X30254Y16925D3*
G54D701*
G1X-2416Y13696D3*
G1X-2416Y15271D3*
G54D702*
G1X12329Y16200D3*
G1X12919Y6201D3*
G54D703*
G1X27010Y3230D3*
G1X27510Y3230D3*
G1X28010Y3230D3*
G1X28510Y3230D3*
G1X29010Y3230D3*
G1X31420Y3230D3*
G1X31920Y3230D3*
G1X32420Y3230D3*
G1X32920Y3230D3*
G1X33420Y3230D3*
G1X27010Y16930D3*
G1X27510Y16930D3*
G1X28010Y16930D3*
G1X28510Y16930D3*
G1X29010Y16930D3*
G1X31420Y16930D3*
G1X31920Y16930D3*
G1X32420Y16930D3*
G1X32920Y16930D3*
G1X33420Y16930D3*
G1X2594Y8600D2*
G54D188*
G1X2635Y8558D1*
G1X2013Y7936D1*
G1X2013Y7964D2*
G1X2635Y7342D1*
G1X2594Y7300D1*
G1X2299Y8783D2*
G1X2353Y8761D1*
G1X2016Y7948D1*
G1X2796Y8318D2*
G1X2819Y8263D1*
G1X2006Y7927D1*
G1X2006Y7974D2*
G1X2819Y7637D1*
G1X2796Y7582D1*
G1X2016Y7952D2*
G1X2353Y7139D1*
G1X2299Y7117D1*
G1X22033Y8318D2*
G1X22846Y7981D1*
G1X22823Y7927D1*
G1X22235Y8600D2*
G1X22858Y7978D1*
G1X22816Y7936D1*
G1X22530Y8783D2*
G1X22867Y7970D1*
G1X22813Y7948D1*
M2*
