*
%LPD*%
%LNRAGOBOT.SPB*%
%FSLAX24Y24*%
%MOIN*%
%AD*%
%ADD62C,0.001000*%
%ADD501R,0.022000X0.022000*%
%ADD502R,0.076000X0.120000*%
%ADD503O,0.094000X0.025000*%
%ADD504R,0.094000X0.025000*%
%ADD508R,0.070800X0.015700*%
%ADD509R,0.100000X0.064000*%
%ADD510R,0.032000X0.038000*%
%ADD512R,0.060000X0.060000*%
%ADD513R,0.050000X0.050000*%
%ADD514R,0.064000X0.100000*%
%ADD517R,0.047200X0.047200*%
%ADD518R,0.096000X0.096000*%
%ADD519O,0.016000X0.031500*%
%ADD520R,0.016000X0.031500*%
%ADD522O,0.059000X0.011000*%
%ADD523R,0.059000X0.011000*%
%ADD524O,0.011000X0.059000*%
%ADD525R,0.011000X0.059000*%
%ADD526O,0.039400X0.011800*%
%ADD527R,0.039400X0.011800*%
%ADD528O,0.011800X0.039400*%
%ADD529R,0.011800X0.039400*%
%ADD538R,0.024000X0.057100*%
%ADD545O,0.025000X0.086000*%
%ADD546R,0.025000X0.086000*%
%ADD547O,0.086000X0.025000*%
%ADD548R,0.086000X0.025000*%
%ADD550O,0.011800X0.068000*%
%ADD552O,0.068000X0.011800*%
%ADD556O,0.094000X0.016000*%
%ADD557R,0.094000X0.016000*%
%ADD558O,0.100000X0.025000*%
%ADD559R,0.100000X0.025000*%
%ADD560O,0.090000X0.016000*%
%ADD561R,0.090000X0.016000*%
%ADD562O,0.025000X0.094000*%
%ADD563R,0.025000X0.094000*%
%ADD700R,0.114200X0.035400*%
%ADD710R,0.039400X0.039400*%
%ADD726R,0.068000X0.013000*%
%ADD732R,0.013000X0.068000*%
G54D62*
%SRX1Y1I0.0J0.0*%
G1X22179Y7628D2*
G1X22179Y7170D1*
G1X22867Y8941D2*
G1X22582Y8941D1*
G1X22867Y8932D2*
G1X22550Y8932D1*
G1X22867Y8923D2*
G1X22521Y8923D1*
G1X22867Y8905D2*
G1X22492Y8905D1*
G1X22867Y8896D2*
G1X22496Y8896D1*
G1X22867Y8887D2*
G1X22500Y8887D1*
G1X22867Y8878D2*
G1X22504Y8878D1*
G1X22867Y8869D2*
G1X22507Y8869D1*
G1X22867Y8860D2*
G1X22511Y8860D1*
G1X22867Y8851D2*
G1X22515Y8851D1*
G1X22867Y8842D2*
G1X22519Y8842D1*
G1X22867Y8833D2*
G1X22522Y8833D1*
G1X22867Y8824D2*
G1X22526Y8824D1*
G1X22867Y8815D2*
G1X22530Y8815D1*
G1X22867Y8806D2*
G1X22534Y8806D1*
G1X22867Y8797D2*
G1X22537Y8797D1*
G1X22867Y8788D2*
G1X22541Y8788D1*
G1X22867Y8779D2*
G1X22545Y8779D1*
G1X22867Y8770D2*
G1X22548Y8770D1*
G1X22867Y8761D2*
G1X22552Y8761D1*
G1X22867Y8752D2*
G1X22556Y8752D1*
G1X22867Y8743D2*
G1X22560Y8743D1*
G1X22867Y8734D2*
G1X22563Y8734D1*
G1X22867Y8725D2*
G1X22567Y8725D1*
G1X22867Y8716D2*
G1X22571Y8716D1*
G1X22867Y8707D2*
G1X22575Y8707D1*
G1X22867Y8698D2*
G1X22578Y8698D1*
G1X22867Y8689D2*
G1X22582Y8689D1*
G1X22867Y8680D2*
G1X22586Y8680D1*
G1X22867Y8671D2*
G1X22589Y8671D1*
G1X22867Y8662D2*
G1X22593Y8662D1*
G1X22867Y8653D2*
G1X22597Y8653D1*
G1X22867Y8644D2*
G1X22601Y8644D1*
G1X22867Y8635D2*
G1X22604Y8635D1*
G1X22867Y8626D2*
G1X22608Y8626D1*
G1X22867Y8617D2*
G1X22612Y8617D1*
G1X22867Y8608D2*
G1X22616Y8608D1*
G1X22867Y8599D2*
G1X22619Y8599D1*
G1X22867Y8590D2*
G1X22623Y8590D1*
G1X22867Y8581D2*
G1X22627Y8581D1*
G1X22867Y8572D2*
G1X22631Y8572D1*
G1X22867Y8563D2*
G1X22634Y8563D1*
G1X22867Y8554D2*
G1X22638Y8554D1*
G1X22867Y8545D2*
G1X22642Y8545D1*
G1X22867Y8536D2*
G1X22645Y8536D1*
G1X22867Y8527D2*
G1X22649Y8527D1*
G1X22867Y8518D2*
G1X22653Y8518D1*
G1X22867Y8509D2*
G1X22657Y8509D1*
G1X22867Y8500D2*
G1X22660Y8500D1*
G1X22867Y8491D2*
G1X22664Y8491D1*
G1X22867Y8482D2*
G1X22668Y8482D1*
G1X22867Y7681D2*
G1X22777Y7681D1*
G1X22867Y7985D2*
G1X22792Y7957D1*
G1X22599Y8428D2*
G1X21937Y8428D1*
G1X22867Y8446D2*
G1X22683Y8446D1*
G1X22867Y8437D2*
G1X22687Y8437D1*
G1X22867Y8428D2*
G1X22690Y8428D1*
G1X22867Y8419D2*
G1X22694Y8419D1*
G1X22867Y8410D2*
G1X22698Y8410D1*
G1X22867Y8401D2*
G1X22701Y8401D1*
G1X22867Y8392D2*
G1X22705Y8392D1*
G1X22867Y8383D2*
G1X22709Y8383D1*
G1X22867Y8374D2*
G1X22713Y8374D1*
G1X22867Y8365D2*
G1X22716Y8365D1*
G1X22867Y8356D2*
G1X22720Y8356D1*
G1X22867Y8347D2*
G1X22724Y8347D1*
G1X22867Y8338D2*
G1X22728Y8338D1*
G1X22867Y8329D2*
G1X22731Y8329D1*
G1X22867Y8320D2*
G1X22735Y8320D1*
G1X22867Y8311D2*
G1X22739Y8311D1*
G1X22867Y8302D2*
G1X22743Y8302D1*
G1X22867Y8293D2*
G1X22746Y8293D1*
G1X22867Y8284D2*
G1X22750Y8284D1*
G1X22867Y8275D2*
G1X22754Y8275D1*
G1X22867Y8266D2*
G1X22757Y8266D1*
G1X22867Y8257D2*
G1X22761Y8257D1*
G1X22867Y8248D2*
G1X22765Y8248D1*
G1X22867Y8239D2*
G1X22769Y8239D1*
G1X22867Y8230D2*
G1X22772Y8230D1*
G1X22867Y8221D2*
G1X22776Y8221D1*
G1X22867Y8212D2*
G1X22780Y8212D1*
G1X22867Y8203D2*
G1X22784Y8203D1*
G1X22867Y8194D2*
G1X22787Y8194D1*
G1X22867Y8185D2*
G1X22791Y8185D1*
G1X22867Y8176D2*
G1X22795Y8176D1*
G1X22867Y8167D2*
G1X22799Y8167D1*
G1X22867Y8158D2*
G1X22802Y8158D1*
G1X22867Y8149D2*
G1X22806Y8149D1*
G1X22867Y8140D2*
G1X22810Y8140D1*
G1X22867Y8131D2*
G1X22813Y8131D1*
G1X22867Y8122D2*
G1X22817Y8122D1*
G1X22867Y8113D2*
G1X22821Y8113D1*
G1X22867Y8104D2*
G1X22825Y8104D1*
G1X22867Y8095D2*
G1X22828Y8095D1*
G1X22867Y8086D2*
G1X22832Y8086D1*
G1X22867Y8077D2*
G1X22836Y8077D1*
G1X22867Y8068D2*
G1X22840Y8068D1*
G1X22867Y8059D2*
G1X22843Y8059D1*
G1X22867Y8050D2*
G1X22847Y8050D1*
G1X22867Y8041D2*
G1X22851Y8041D1*
G1X22867Y8032D2*
G1X22855Y8032D1*
G1X22867Y8023D2*
G1X22858Y8023D1*
G1X22867Y7978D2*
G1X22848Y7978D1*
G1X22867Y7969D2*
G1X22824Y7969D1*
G1X22770Y8010D2*
G1X22738Y7949D1*
G1X22867Y7951D2*
G1X21819Y7951D1*
G1X22854Y7980D2*
G1X22854Y7899D1*
G1X22845Y7977D2*
G1X22845Y7903D1*
G1X22836Y7973D2*
G1X22836Y7908D1*
G1X22827Y7970D2*
G1X22827Y7912D1*
G1X22818Y7966D2*
G1X22818Y7917D1*
G1X22809Y7963D2*
G1X22809Y7921D1*
G1X22800Y7960D2*
G1X22800Y7926D1*
G1X22791Y7959D2*
G1X22791Y7930D1*
G1X22782Y7981D2*
G1X22782Y7923D1*
G1X22773Y8003D2*
G1X22773Y7901D1*
G1X22686Y7969D2*
G1X21819Y7969D1*
G1X22755Y7869D2*
G1X22755Y7857D1*
G1X22746Y7865D2*
G1X22746Y7835D1*
G1X22737Y7861D2*
G1X22737Y7813D1*
G1X22728Y7857D2*
G1X22728Y7791D1*
G1X22719Y7854D2*
G1X22719Y7769D1*
G1X22710Y7850D2*
G1X22710Y7747D1*
G1X22701Y7846D2*
G1X22701Y7725D1*
G1X22692Y7842D2*
G1X22692Y7703D1*
G1X22683Y7839D2*
G1X22683Y7681D1*
G1X22674Y7835D2*
G1X22674Y7659D1*
G1X22665Y7831D2*
G1X22665Y7637D1*
G1X22656Y7827D2*
G1X22656Y7615D1*
G1X22647Y7824D2*
G1X22647Y7593D1*
G1X22638Y7820D2*
G1X22638Y7571D1*
G1X22629Y7816D2*
G1X22629Y7549D1*
G1X22620Y7812D2*
G1X22620Y7527D1*
G1X22611Y7809D2*
G1X22611Y7505D1*
G1X22602Y7805D2*
G1X22602Y7483D1*
G1X22593Y7801D2*
G1X22593Y7461D1*
G1X22584Y7797D2*
G1X22584Y7439D1*
G1X22575Y7793D2*
G1X22575Y7417D1*
G1X22566Y7790D2*
G1X22566Y7395D1*
G1X22557Y7786D2*
G1X22557Y7373D1*
G1X22548Y7782D2*
G1X22548Y7351D1*
G1X22539Y7778D2*
G1X22539Y7329D1*
G1X22530Y7775D2*
G1X22530Y7307D1*
G1X22521Y7771D2*
G1X22521Y7285D1*
G1X22512Y7767D2*
G1X22512Y7263D1*
G1X22503Y7763D2*
G1X22503Y7241D1*
G1X22494Y7760D2*
G1X22494Y7219D1*
G1X22867Y8473D2*
G1X22672Y8473D1*
G1X22867Y7924D2*
G1X22803Y7924D1*
G1X22867Y7915D2*
G1X22821Y7915D1*
G1X22867Y7906D2*
G1X22839Y7906D1*
G1X22867Y7897D2*
G1X22857Y7897D1*
G1X22867Y7879D2*
G1X22858Y7879D1*
G1X22867Y7870D2*
G1X22855Y7870D1*
G1X22867Y7861D2*
G1X22851Y7861D1*
G1X22867Y7852D2*
G1X22847Y7852D1*
G1X22867Y7843D2*
G1X22844Y7843D1*
G1X22867Y7834D2*
G1X22840Y7834D1*
G1X22867Y7825D2*
G1X22836Y7825D1*
G1X22867Y7816D2*
G1X22833Y7816D1*
G1X22867Y7807D2*
G1X22829Y7807D1*
G1X22867Y7798D2*
G1X22825Y7798D1*
G1X22867Y7789D2*
G1X22822Y7789D1*
G1X22867Y7780D2*
G1X22818Y7780D1*
G1X22867Y7771D2*
G1X22814Y7771D1*
G1X22867Y7762D2*
G1X22811Y7762D1*
G1X22867Y7753D2*
G1X22807Y7753D1*
G1X22867Y7744D2*
G1X22803Y7744D1*
G1X22867Y7735D2*
G1X22799Y7735D1*
G1X22867Y7726D2*
G1X22796Y7726D1*
G1X22867Y7717D2*
G1X22792Y7717D1*
G1X22867Y7708D2*
G1X22788Y7708D1*
G1X22867Y7699D2*
G1X22785Y7699D1*
G1X22867Y7690D2*
G1X22781Y7690D1*
G1X22867Y8464D2*
G1X22675Y8464D1*
G1X22867Y7663D2*
G1X22770Y7663D1*
G1X22867Y7654D2*
G1X22766Y7654D1*
G1X22867Y7645D2*
G1X22763Y7645D1*
G1X22867Y7636D2*
G1X22759Y7636D1*
G1X22867Y7627D2*
G1X22755Y7627D1*
G1X22867Y7618D2*
G1X22752Y7618D1*
G1X22867Y7609D2*
G1X22748Y7609D1*
G1X22867Y7600D2*
G1X22744Y7600D1*
G1X22867Y7591D2*
G1X22741Y7591D1*
G1X22867Y7582D2*
G1X22737Y7582D1*
G1X22867Y7573D2*
G1X22733Y7573D1*
G1X22867Y7564D2*
G1X22729Y7564D1*
G1X22867Y7555D2*
G1X22726Y7555D1*
G1X22867Y7546D2*
G1X22722Y7546D1*
G1X22867Y7537D2*
G1X22718Y7537D1*
G1X22867Y7528D2*
G1X22715Y7528D1*
G1X22867Y7519D2*
G1X22711Y7519D1*
G1X22867Y7510D2*
G1X22707Y7510D1*
G1X22867Y7501D2*
G1X22704Y7501D1*
G1X22867Y7492D2*
G1X22700Y7492D1*
G1X22867Y7483D2*
G1X22696Y7483D1*
G1X22867Y7474D2*
G1X22693Y7474D1*
G1X22867Y7465D2*
G1X22689Y7465D1*
G1X22867Y7456D2*
G1X22685Y7456D1*
G1X22867Y7447D2*
G1X22682Y7447D1*
G1X22867Y7438D2*
G1X22678Y7438D1*
G1X22867Y7933D2*
G1X22748Y7933D1*
G1X22867Y7420D2*
G1X22671Y7420D1*
G1X22867Y7411D2*
G1X22667Y7411D1*
G1X22867Y7402D2*
G1X22663Y7402D1*
G1X22867Y7393D2*
G1X22660Y7393D1*
G1X22867Y7384D2*
G1X22656Y7384D1*
G1X22867Y7375D2*
G1X22652Y7375D1*
G1X22867Y7366D2*
G1X22648Y7366D1*
G1X22867Y7357D2*
G1X22645Y7357D1*
G1X22867Y7348D2*
G1X22641Y7348D1*
G1X22867Y7339D2*
G1X22637Y7339D1*
G1X22867Y7330D2*
G1X22634Y7330D1*
G1X22867Y7321D2*
G1X22630Y7321D1*
G1X22867Y7312D2*
G1X22626Y7312D1*
G1X22867Y7303D2*
G1X22623Y7303D1*
G1X22867Y7294D2*
G1X22619Y7294D1*
G1X22867Y7285D2*
G1X22615Y7285D1*
G1X22867Y7276D2*
G1X22612Y7276D1*
G1X22867Y7267D2*
G1X22608Y7267D1*
G1X22867Y7258D2*
G1X22604Y7258D1*
G1X22867Y7249D2*
G1X22601Y7249D1*
G1X22867Y7240D2*
G1X22597Y7240D1*
G1X22867Y7231D2*
G1X22593Y7231D1*
G1X22867Y7222D2*
G1X22590Y7222D1*
G1X22867Y7213D2*
G1X22586Y7213D1*
G1X22867Y7204D2*
G1X22582Y7204D1*
G1X22867Y7195D2*
G1X22578Y7195D1*
G1X22867Y7186D2*
G1X22575Y7186D1*
G1X22867Y7177D2*
G1X22571Y7177D1*
G1X22867Y7168D2*
G1X22567Y7168D1*
G1X22867Y7159D2*
G1X22564Y7159D1*
G1X22867Y7150D2*
G1X22560Y7150D1*
G1X22867Y7141D2*
G1X22556Y7141D1*
G1X22867Y7132D2*
G1X22553Y7132D1*
G1X22867Y7123D2*
G1X22549Y7123D1*
G1X22867Y7114D2*
G1X22545Y7114D1*
G1X22867Y7105D2*
G1X22542Y7105D1*
G1X22867Y7096D2*
G1X22538Y7096D1*
G1X22867Y7087D2*
G1X22534Y7087D1*
G1X22867Y7078D2*
G1X22531Y7078D1*
G1X22867Y7069D2*
G1X22527Y7069D1*
G1X22867Y7060D2*
G1X22523Y7060D1*
G1X22867Y7051D2*
G1X22520Y7051D1*
G1X22867Y7042D2*
G1X22516Y7042D1*
G1X22867Y7033D2*
G1X22512Y7033D1*
G1X22867Y7024D2*
G1X22509Y7024D1*
G1X22867Y7015D2*
G1X22505Y7015D1*
G1X22867Y7006D2*
G1X22501Y7006D1*
G1X22867Y6997D2*
G1X22497Y6997D1*
G1X22867Y6988D2*
G1X22494Y6988D1*
G1X22413Y7726D2*
G1X22413Y7021D1*
G1X22867Y8975D2*
G1X22867Y8001D1*
G1X22124Y7699D2*
G1X21850Y7699D1*
G1X22867Y7985D2*
G1X22867Y6925D1*
G1X22188Y8179D2*
G1X22188Y7725D1*
G1X22665Y7978D2*
G1X21819Y7978D1*
G1X22485Y8707D2*
G1X22153Y8707D1*
G1X22867Y7672D2*
G1X22774Y7672D1*
G1X22867Y8914D2*
G1X22495Y8914D1*
G1X22188Y7632D2*
G1X22188Y7162D1*
G1X22414Y8881D2*
G1X22792Y7957D1*
G1X21883Y8307D2*
G1X22736Y7948D1*
G1X22786Y7933D2*
G1X22864Y7893D1*
G1X21936Y8425D2*
G1X21936Y8373D1*
G1X22742Y7951D2*
G1X22766Y7886D1*
G1X22867Y8455D2*
G1X22679Y8455D1*
G1X22490Y8912D2*
G1X22867Y8001D1*
G1X22332Y8118D2*
G1X22332Y7784D1*
G1X22332Y7692D2*
G1X22332Y7062D1*
G1X22489Y8698D2*
G1X22143Y8698D1*
G1X22845Y7845D2*
G1X22845Y6925D1*
G1X22492Y8689D2*
G1X22133Y8689D1*
G1X22827Y7801D2*
G1X22827Y6925D1*
G1X22496Y8680D2*
G1X22124Y8680D1*
G1X22809Y7757D2*
G1X22809Y6926D1*
G1X22500Y8671D2*
G1X22115Y8671D1*
G1X22791Y7713D2*
G1X22791Y6926D1*
G1X22503Y8662D2*
G1X22106Y8662D1*
G1X22773Y7669D2*
G1X22773Y6927D1*
G1X22507Y8653D2*
G1X22098Y8653D1*
G1X22755Y7625D2*
G1X22755Y6929D1*
G1X22511Y8644D2*
G1X22089Y8644D1*
G1X22737Y7581D2*
G1X22737Y6931D1*
G1X22514Y8635D2*
G1X22081Y8635D1*
G1X22719Y7537D2*
G1X22719Y6933D1*
G1X22518Y8626D2*
G1X22073Y8626D1*
G1X22701Y7493D2*
G1X22701Y6935D1*
G1X22522Y8617D2*
G1X22065Y8617D1*
G1X22683Y7449D2*
G1X22683Y6938D1*
G1X22525Y8608D2*
G1X22058Y8608D1*
G1X22665Y7405D2*
G1X22665Y6941D1*
G1X22529Y8599D2*
G1X22050Y8599D1*
G1X22647Y7361D2*
G1X22647Y6944D1*
G1X22533Y8590D2*
G1X22043Y8590D1*
G1X22629Y7317D2*
G1X22629Y6948D1*
G1X22536Y8581D2*
G1X22036Y8581D1*
G1X22611Y7273D2*
G1X22611Y6952D1*
G1X22540Y8572D2*
G1X22029Y8572D1*
G1X22593Y7229D2*
G1X22593Y6956D1*
G1X22544Y8563D2*
G1X22022Y8563D1*
G1X22575Y7185D2*
G1X22575Y6961D1*
G1X22548Y8554D2*
G1X22015Y8554D1*
G1X22557Y7141D2*
G1X22557Y6966D1*
G1X22551Y8545D2*
G1X22009Y8545D1*
G1X22539Y7097D2*
G1X22539Y6971D1*
G1X22555Y8536D2*
G1X22003Y8536D1*
G1X22521Y7053D2*
G1X22521Y6977D1*
G1X22559Y8527D2*
G1X21996Y8527D1*
G1X22503Y7009D2*
G1X22503Y6983D1*
G1X22562Y8518D2*
G1X21990Y8518D1*
G1X22485Y7756D2*
G1X22485Y7197D1*
G1X22476Y7752D2*
G1X22476Y7175D1*
G1X22467Y7748D2*
G1X22467Y7153D1*
G1X22458Y7745D2*
G1X22458Y7131D1*
G1X22449Y7741D2*
G1X22449Y7109D1*
G1X22440Y7737D2*
G1X22440Y7087D1*
G1X22431Y7733D2*
G1X22431Y7065D1*
G1X22422Y7730D2*
G1X22422Y7043D1*
G1X22404Y7722D2*
G1X22404Y7024D1*
G1X22760Y7871D2*
G1X21914Y7518D1*
G1X22323Y7688D2*
G1X22323Y7067D1*
G1X21882Y8304D2*
G1X21882Y7600D1*
G1X21873Y8278D2*
G1X21873Y7622D1*
G1X21864Y8250D2*
G1X21864Y7650D1*
G1X21855Y8219D2*
G1X21855Y7681D1*
G1X21846Y8184D2*
G1X21846Y7716D1*
G1X21837Y8141D2*
G1X21837Y7759D1*
G1X22864Y7893D2*
G1X22493Y6987D1*
G1X22603Y8419D2*
G1X21932Y8419D1*
G1X22606Y8410D2*
G1X21928Y8410D1*
G1X22610Y8401D2*
G1X21923Y8401D1*
G1X22614Y8392D2*
G1X21919Y8392D1*
G1X22617Y8383D2*
G1X21915Y8383D1*
G1X22134Y7609D2*
G1X22134Y7211D1*
G1X22125Y7605D2*
G1X22125Y7219D1*
G1X22116Y7602D2*
G1X22116Y7228D1*
G1X22107Y7598D2*
G1X22107Y7238D1*
G1X22579Y7429D2*
G1X21961Y7429D1*
G1X22089Y7590D2*
G1X22089Y7257D1*
G1X22071Y7583D2*
G1X22071Y7277D1*
G1X22053Y7575D2*
G1X22053Y7298D1*
G1X22035Y7568D2*
G1X22035Y7321D1*
G1X21894Y8302D2*
G1X21881Y8302D1*
G1X22017Y7560D2*
G1X22017Y7344D1*
G1X21915Y8293D2*
G1X21878Y8293D1*
G1X21999Y7553D2*
G1X21999Y7370D1*
G1X21937Y8284D2*
G1X21875Y8284D1*
G1X21981Y7545D2*
G1X21981Y7397D1*
G1X21958Y8275D2*
G1X21871Y8275D1*
G1X21963Y7538D2*
G1X21963Y7426D1*
G1X21980Y8266D2*
G1X21869Y8266D1*
G1X21945Y7530D2*
G1X21945Y7458D1*
G1X22001Y8257D2*
G1X21866Y8257D1*
G1X21927Y7523D2*
G1X21927Y7492D1*
G1X22023Y8248D2*
G1X21863Y8248D1*
G1X22044Y8239D2*
G1X21860Y8239D1*
G1X22065Y8230D2*
G1X21858Y8230D1*
G1X22087Y8221D2*
G1X21855Y8221D1*
G1X22108Y8212D2*
G1X21853Y8212D1*
G1X22581Y8473D2*
G1X21962Y8473D1*
G1X22867Y7942D2*
G1X22745Y7942D1*
G1X22130Y8203D2*
G1X21850Y8203D1*
G1X22592Y8446D2*
G1X21947Y8446D1*
G1X22595Y8437D2*
G1X21942Y8437D1*
G1X22863Y8975D2*
G1X22863Y8012D1*
G1X22863Y7984D2*
G1X22863Y6925D1*
G1X22419Y8869D2*
G1X22390Y8869D1*
G1X22422Y8860D2*
G1X22372Y8860D1*
G1X22426Y8851D2*
G1X22355Y8851D1*
G1X22430Y8842D2*
G1X22339Y8842D1*
G1X22433Y8833D2*
G1X22323Y8833D1*
G1X22437Y8824D2*
G1X22308Y8824D1*
G1X22441Y8815D2*
G1X22294Y8815D1*
G1X22445Y8806D2*
G1X22280Y8806D1*
G1X22448Y8797D2*
G1X22266Y8797D1*
G1X22452Y8788D2*
G1X22253Y8788D1*
G1X22456Y8779D2*
G1X22241Y8779D1*
G1X22459Y8770D2*
G1X22229Y8770D1*
G1X22463Y8761D2*
G1X22217Y8761D1*
G1X22467Y8752D2*
G1X22205Y8752D1*
G1X22470Y8743D2*
G1X22194Y8743D1*
G1X22474Y8734D2*
G1X22183Y8734D1*
G1X22478Y8725D2*
G1X22173Y8725D1*
G1X22481Y8716D2*
G1X22163Y8716D1*
G1X22854Y7867D2*
G1X22854Y6925D1*
G1X22836Y7823D2*
G1X22836Y6925D1*
G1X22818Y7779D2*
G1X22818Y6925D1*
G1X22800Y7735D2*
G1X22800Y6926D1*
G1X22782Y7691D2*
G1X22782Y6927D1*
G1X22764Y7647D2*
G1X22764Y6928D1*
G1X22746Y7603D2*
G1X22746Y6930D1*
G1X22728Y7559D2*
G1X22728Y6932D1*
G1X22710Y7515D2*
G1X22710Y6934D1*
G1X22692Y7471D2*
G1X22692Y6936D1*
G1X22674Y7427D2*
G1X22674Y6939D1*
G1X22656Y7383D2*
G1X22656Y6942D1*
G1X22638Y7339D2*
G1X22638Y6946D1*
G1X22620Y7295D2*
G1X22620Y6950D1*
G1X22602Y7251D2*
G1X22602Y6954D1*
G1X22584Y7207D2*
G1X22584Y6958D1*
G1X22566Y7163D2*
G1X22566Y6963D1*
G1X22548Y7119D2*
G1X22548Y6969D1*
G1X22530Y7075D2*
G1X22530Y6974D1*
G1X22512Y7031D2*
G1X22512Y6980D1*
G1X22566Y8509D2*
G1X21984Y8509D1*
G1X22570Y8500D2*
G1X21979Y8500D1*
G1X22573Y8491D2*
G1X21973Y8491D1*
G1X22197Y7636D2*
G1X22197Y7155D1*
G1X21828Y8085D2*
G1X21828Y7814D1*
G1X22872Y8975D2*
G1X22872Y6925D1*
G1X22867Y8968D2*
G1X22724Y8968D1*
G1X22867Y8959D2*
G1X22663Y8959D1*
G1X22588Y8455D2*
G1X21952Y8455D1*
G1X22170Y7624D2*
G1X22170Y7178D1*
G1X22161Y7621D2*
G1X22161Y7186D1*
G1X22152Y7617D2*
G1X22152Y7194D1*
G1X22143Y7613D2*
G1X22143Y7202D1*
G1X22621Y8374D2*
G1X21934Y8374D1*
G1X22625Y8365D2*
G1X21955Y8365D1*
G1X22628Y8356D2*
G1X21976Y8356D1*
G1X22632Y8347D2*
G1X21997Y8347D1*
G1X22636Y8338D2*
G1X22018Y8338D1*
G1X22080Y7587D2*
G1X22080Y7267D1*
G1X22062Y7579D2*
G1X22062Y7287D1*
G1X22044Y7572D2*
G1X22044Y7309D1*
G1X22026Y7564D2*
G1X22026Y7332D1*
G1X22008Y7557D2*
G1X22008Y7357D1*
G1X21990Y7549D2*
G1X21990Y7383D1*
G1X21972Y7542D2*
G1X21972Y7411D1*
G1X21954Y7534D2*
G1X21954Y7441D1*
G1X21936Y7526D2*
G1X21936Y7474D1*
G1X21918Y7519D2*
G1X21918Y7510D1*
G1X22720Y7942D2*
G1X21819Y7942D1*
G1X22867Y8950D2*
G1X22619Y8950D1*
G1X22151Y8194D2*
G1X21848Y8194D1*
G1X22172Y8185D2*
G1X21846Y8185D1*
G1X22194Y8176D2*
G1X21844Y8176D1*
G1X22215Y8167D2*
G1X21842Y8167D1*
G1X22237Y8158D2*
G1X21840Y8158D1*
G1X22258Y8149D2*
G1X21838Y8149D1*
G1X22279Y8140D2*
G1X21836Y8140D1*
G1X22301Y8131D2*
G1X21835Y8131D1*
G1X22322Y8122D2*
G1X21833Y8122D1*
G1X22344Y8113D2*
G1X21832Y8113D1*
G1X22365Y8104D2*
G1X21830Y8104D1*
G1X22386Y8095D2*
G1X21829Y8095D1*
G1X22408Y8086D2*
G1X21828Y8086D1*
G1X22429Y8077D2*
G1X21826Y8077D1*
G1X22451Y8068D2*
G1X21825Y8068D1*
G1X22472Y8059D2*
G1X21824Y8059D1*
G1X22493Y8050D2*
G1X21823Y8050D1*
G1X22515Y8041D2*
G1X21823Y8041D1*
G1X22536Y8032D2*
G1X21822Y8032D1*
G1X22558Y8023D2*
G1X21821Y8023D1*
G1X22579Y8014D2*
G1X21821Y8014D1*
G1X22601Y8005D2*
G1X21820Y8005D1*
G1X22622Y7996D2*
G1X21820Y7996D1*
G1X22643Y7987D2*
G1X21819Y7987D1*
G1X22867Y7960D2*
G1X22800Y7960D1*
G1X21927Y8408D2*
G1X21927Y8377D1*
G1X22386Y7715D2*
G1X22386Y7033D1*
G1X22377Y7711D2*
G1X22377Y7037D1*
G1X22676Y7924D2*
G1X21819Y7924D1*
G1X22654Y7915D2*
G1X21819Y7915D1*
G1X22632Y7906D2*
G1X21820Y7906D1*
G1X22610Y7897D2*
G1X21820Y7897D1*
G1X22588Y7888D2*
G1X21820Y7888D1*
G1X22566Y7879D2*
G1X21821Y7879D1*
G1X22544Y7870D2*
G1X21822Y7870D1*
G1X22522Y7861D2*
G1X21822Y7861D1*
G1X22499Y7852D2*
G1X21823Y7852D1*
G1X22477Y7843D2*
G1X21824Y7843D1*
G1X22455Y7834D2*
G1X21825Y7834D1*
G1X22433Y7825D2*
G1X21826Y7825D1*
G1X22411Y7816D2*
G1X21827Y7816D1*
G1X22389Y7807D2*
G1X21829Y7807D1*
G1X22367Y7798D2*
G1X21830Y7798D1*
G1X22345Y7789D2*
G1X21831Y7789D1*
G1X22323Y7780D2*
G1X21833Y7780D1*
G1X22301Y7771D2*
G1X21834Y7771D1*
G1X22279Y7762D2*
G1X21836Y7762D1*
G1X22256Y7753D2*
G1X21838Y7753D1*
G1X22234Y7744D2*
G1X21839Y7744D1*
G1X22212Y7735D2*
G1X21841Y7735D1*
G1X22190Y7726D2*
G1X21843Y7726D1*
G1X22168Y7717D2*
G1X21845Y7717D1*
G1X22146Y7708D2*
G1X21848Y7708D1*
G1X22102Y7690D2*
G1X21852Y7690D1*
G1X22080Y7681D2*
G1X21855Y7681D1*
G1X22760Y7871D2*
G1X22412Y7020D1*
G1X22058Y7672D2*
G1X21857Y7672D1*
G1X22036Y7663D2*
G1X21860Y7663D1*
G1X22755Y8971D2*
G1X22755Y8273D1*
G1X22737Y8969D2*
G1X22737Y8316D1*
G1X22719Y8967D2*
G1X22719Y8360D1*
G1X22701Y8965D2*
G1X22701Y8403D1*
G1X22683Y8962D2*
G1X22683Y8446D1*
G1X22665Y8959D2*
G1X22665Y8490D1*
G1X22647Y8956D2*
G1X22647Y8533D1*
G1X22629Y8952D2*
G1X22629Y8577D1*
G1X22638Y7573D2*
G1X22047Y7573D1*
G1X22602Y8946D2*
G1X22602Y8642D1*
G1X22584Y8941D2*
G1X22584Y8685D1*
G1X22566Y8936D2*
G1X22566Y8729D1*
G1X22548Y8931D2*
G1X22548Y8772D1*
G1X22530Y8926D2*
G1X22530Y8815D1*
G1X22512Y8920D2*
G1X22512Y8859D1*
G1X22494Y8913D2*
G1X22494Y8902D1*
G1X22098Y7594D2*
G1X22098Y7247D1*
G1X22605Y7492D2*
G1X21927Y7492D1*
G1X22602Y7483D2*
G1X21931Y7483D1*
G1X22598Y7474D2*
G1X21936Y7474D1*
G1X22594Y7465D2*
G1X21941Y7465D1*
G1X22591Y7456D2*
G1X21945Y7456D1*
G1X22587Y7447D2*
G1X21950Y7447D1*
G1X22583Y7438D2*
G1X21956Y7438D1*
G1X22698Y7933D2*
G1X21819Y7933D1*
G1X22576Y7420D2*
G1X21966Y7420D1*
G1X22572Y7411D2*
G1X21972Y7411D1*
G1X22568Y7402D2*
G1X21977Y7402D1*
G1X22565Y7393D2*
G1X21983Y7393D1*
G1X22561Y7384D2*
G1X21989Y7384D1*
G1X22557Y7375D2*
G1X21995Y7375D1*
G1X22554Y7366D2*
G1X22001Y7366D1*
G1X22550Y7357D2*
G1X22008Y7357D1*
G1X22546Y7348D2*
G1X22014Y7348D1*
G1X22543Y7339D2*
G1X22021Y7339D1*
G1X22539Y7330D2*
G1X22027Y7330D1*
G1X22535Y7321D2*
G1X22034Y7321D1*
G1X22532Y7312D2*
G1X22041Y7312D1*
G1X22528Y7303D2*
G1X22049Y7303D1*
G1X22524Y7294D2*
G1X22056Y7294D1*
G1X22521Y7285D2*
G1X22064Y7285D1*
G1X22517Y7276D2*
G1X22071Y7276D1*
G1X22513Y7267D2*
G1X22079Y7267D1*
G1X22510Y7258D2*
G1X22087Y7258D1*
G1X22506Y7249D2*
G1X22096Y7249D1*
G1X22502Y7240D2*
G1X22104Y7240D1*
G1X22498Y7231D2*
G1X22113Y7231D1*
G1X22495Y7222D2*
G1X22122Y7222D1*
G1X22491Y7213D2*
G1X22131Y7213D1*
G1X22487Y7204D2*
G1X22141Y7204D1*
G1X22484Y7195D2*
G1X22150Y7195D1*
G1X22480Y7186D2*
G1X22160Y7186D1*
G1X22476Y7177D2*
G1X22170Y7177D1*
G1X22473Y7168D2*
G1X22181Y7168D1*
G1X22469Y7159D2*
G1X22192Y7159D1*
G1X22465Y7150D2*
G1X22203Y7150D1*
G1X22462Y7141D2*
G1X22214Y7141D1*
G1X22458Y7132D2*
G1X22226Y7132D1*
G1X22454Y7123D2*
G1X22238Y7123D1*
G1X22451Y7114D2*
G1X22251Y7114D1*
G1X22447Y7105D2*
G1X22263Y7105D1*
G1X22443Y7096D2*
G1X22277Y7096D1*
G1X22440Y7087D2*
G1X22291Y7087D1*
G1X22436Y7078D2*
G1X22305Y7078D1*
G1X22432Y7069D2*
G1X22320Y7069D1*
G1X22428Y7060D2*
G1X22335Y7060D1*
G1X22425Y7051D2*
G1X22351Y7051D1*
G1X22421Y7042D2*
G1X22368Y7042D1*
G1X22417Y7033D2*
G1X22386Y7033D1*
G1X22867Y6979D2*
G1X22515Y6979D1*
G1X22867Y6970D2*
G1X22543Y6970D1*
G1X22867Y6961D2*
G1X22574Y6961D1*
G1X22867Y6952D2*
G1X22610Y6952D1*
G1X22867Y6943D2*
G1X22652Y6943D1*
G1X22867Y6934D2*
G1X22708Y6934D1*
G1X22755Y8047D2*
G1X22755Y8022D1*
G1X22746Y8069D2*
G1X22746Y8026D1*
G1X22719Y8135D2*
G1X22719Y8038D1*
G1X22710Y8157D2*
G1X22710Y8042D1*
G1X22701Y8179D2*
G1X22701Y8045D1*
G1X22692Y8201D2*
G1X22692Y8049D1*
G1X22683Y8223D2*
G1X22683Y8053D1*
G1X22674Y8245D2*
G1X22674Y8057D1*
G1X22665Y8267D2*
G1X22665Y8061D1*
G1X22656Y8289D2*
G1X22656Y8065D1*
G1X22647Y8311D2*
G1X22647Y8069D1*
G1X22638Y8333D2*
G1X22638Y8072D1*
G1X22629Y8355D2*
G1X22629Y8076D1*
G1X22620Y8378D2*
G1X22620Y8080D1*
G1X22611Y8400D2*
G1X22611Y8084D1*
G1X22602Y8422D2*
G1X22602Y8088D1*
G1X22593Y8444D2*
G1X22593Y8092D1*
G1X22584Y8466D2*
G1X22584Y8096D1*
G1X22575Y8488D2*
G1X22575Y8099D1*
G1X22566Y8510D2*
G1X22566Y8103D1*
G1X22557Y8532D2*
G1X22557Y8107D1*
G1X22548Y8554D2*
G1X22548Y8111D1*
G1X22539Y8576D2*
G1X22539Y8115D1*
G1X22530Y8598D2*
G1X22530Y8119D1*
G1X22521Y8620D2*
G1X22521Y8123D1*
G1X22512Y8642D2*
G1X22512Y8126D1*
G1X22503Y8664D2*
G1X22503Y8130D1*
G1X22494Y8686D2*
G1X22494Y8134D1*
G1X22485Y8708D2*
G1X22485Y8138D1*
G1X22476Y8730D2*
G1X22476Y8142D1*
G1X22467Y8752D2*
G1X22467Y8146D1*
G1X22458Y8774D2*
G1X22458Y8150D1*
G1X22449Y8796D2*
G1X22449Y8153D1*
G1X22440Y8818D2*
G1X22440Y8157D1*
G1X22431Y8840D2*
G1X22431Y8161D1*
G1X22422Y8862D2*
G1X22422Y8165D1*
G1X22413Y8880D2*
G1X22413Y8169D1*
G1X22404Y8876D2*
G1X22404Y8173D1*
G1X22395Y8871D2*
G1X22395Y8177D1*
G1X22386Y8867D2*
G1X22386Y8180D1*
G1X22377Y8862D2*
G1X22377Y8184D1*
G1X22368Y8858D2*
G1X22368Y8188D1*
G1X22359Y8853D2*
G1X22359Y8192D1*
G1X22350Y8848D2*
G1X22350Y8196D1*
G1X22341Y8843D2*
G1X22341Y8200D1*
G1X22332Y8838D2*
G1X22332Y8204D1*
G1X22323Y8833D2*
G1X22323Y8207D1*
G1X22314Y8827D2*
G1X22314Y8211D1*
G1X22305Y8822D2*
G1X22305Y8215D1*
G1X22296Y8816D2*
G1X22296Y8219D1*
G1X22287Y8810D2*
G1X22287Y8223D1*
G1X22278Y8804D2*
G1X22278Y8227D1*
G1X22269Y8798D2*
G1X22269Y8231D1*
G1X22260Y8792D2*
G1X22260Y8234D1*
G1X22251Y8786D2*
G1X22251Y8238D1*
G1X22242Y8780D2*
G1X22242Y8242D1*
G1X22233Y8773D2*
G1X22233Y8246D1*
G1X22224Y8766D2*
G1X22224Y8250D1*
G1X22215Y8759D2*
G1X22215Y8254D1*
G1X22206Y8752D2*
G1X22206Y8258D1*
G1X22197Y8745D2*
G1X22197Y8261D1*
G1X22738Y7949D2*
G1X21880Y7600D1*
G1X22179Y8730D2*
G1X22179Y8269D1*
G1X22170Y8722D2*
G1X22170Y8273D1*
G1X22161Y8714D2*
G1X22161Y8277D1*
G1X22152Y8706D2*
G1X22152Y8281D1*
G1X22143Y8698D2*
G1X22143Y8285D1*
G1X22134Y8689D2*
G1X22134Y8289D1*
G1X22125Y8680D2*
G1X22125Y8292D1*
G1X22116Y8671D2*
G1X22116Y8296D1*
G1X22107Y8662D2*
G1X22107Y8300D1*
G1X22098Y8653D2*
G1X22098Y8304D1*
G1X22089Y8643D2*
G1X22089Y8308D1*
G1X22080Y8633D2*
G1X22080Y8312D1*
G1X22071Y8623D2*
G1X22071Y8316D1*
G1X22062Y8613D2*
G1X22062Y8319D1*
G1X22053Y8602D2*
G1X22053Y8323D1*
G1X22044Y8591D2*
G1X22044Y8327D1*
G1X22035Y8579D2*
G1X22035Y8331D1*
G1X22026Y8568D2*
G1X22026Y8335D1*
G1X22017Y8555D2*
G1X22017Y8339D1*
G1X22008Y8543D2*
G1X22008Y8343D1*
G1X21999Y8530D2*
G1X21999Y8346D1*
G1X21990Y8517D2*
G1X21990Y8350D1*
G1X21981Y8503D2*
G1X21981Y8354D1*
G1X21972Y8489D2*
G1X21972Y8358D1*
G1X21963Y8474D2*
G1X21963Y8362D1*
G1X21954Y8458D2*
G1X21954Y8366D1*
G1X21945Y8442D2*
G1X21945Y8370D1*
G1X22395Y7718D2*
G1X22395Y7028D1*
G1X21914Y8382D2*
G1X22767Y8017D1*
G1X22577Y8482D2*
G1X21967Y8482D1*
G1X22314Y7684D2*
G1X22314Y7073D1*
G1X22296Y7677D2*
G1X22296Y7084D1*
G1X22278Y7669D2*
G1X22278Y7095D1*
G1X22260Y7662D2*
G1X22260Y7108D1*
G1X22242Y7654D2*
G1X22242Y7120D1*
G1X22224Y7647D2*
G1X22224Y7134D1*
G1X22206Y7639D2*
G1X22206Y7148D1*
G1X22584Y8464D2*
G1X21957Y8464D1*
G1X22639Y8329D2*
G1X22039Y8329D1*
G1X22643Y8320D2*
G1X22060Y8320D1*
G1X22647Y8311D2*
G1X22081Y8311D1*
G1X22650Y8302D2*
G1X22102Y8302D1*
G1X22654Y8293D2*
G1X22123Y8293D1*
G1X22658Y8284D2*
G1X22144Y8284D1*
G1X22662Y8275D2*
G1X22165Y8275D1*
G1X22665Y8266D2*
G1X22186Y8266D1*
G1X22669Y8257D2*
G1X22207Y8257D1*
G1X22673Y8248D2*
G1X22228Y8248D1*
G1X22676Y8239D2*
G1X22249Y8239D1*
G1X22680Y8230D2*
G1X22270Y8230D1*
G1X22684Y8221D2*
G1X22291Y8221D1*
G1X22687Y8212D2*
G1X22312Y8212D1*
G1X22691Y8203D2*
G1X22333Y8203D1*
G1X22695Y8194D2*
G1X22354Y8194D1*
G1X22698Y8185D2*
G1X22375Y8185D1*
G1X22702Y8176D2*
G1X22396Y8176D1*
G1X22706Y8167D2*
G1X22417Y8167D1*
G1X22709Y8158D2*
G1X22438Y8158D1*
G1X22713Y8149D2*
G1X22459Y8149D1*
G1X22717Y8140D2*
G1X22480Y8140D1*
G1X22720Y8131D2*
G1X22501Y8131D1*
G1X22724Y8122D2*
G1X22522Y8122D1*
G1X22728Y8113D2*
G1X22543Y8113D1*
G1X22731Y8104D2*
G1X22564Y8104D1*
G1X22735Y8095D2*
G1X22585Y8095D1*
G1X22739Y8086D2*
G1X22606Y8086D1*
G1X22742Y8077D2*
G1X22627Y8077D1*
G1X22746Y8068D2*
G1X22648Y8068D1*
G1X22750Y8059D2*
G1X22669Y8059D1*
G1X22753Y8050D2*
G1X22690Y8050D1*
G1X22757Y8041D2*
G1X22711Y8041D1*
G1X22761Y8032D2*
G1X22732Y8032D1*
G1X22764Y8023D2*
G1X22753Y8023D1*
G1X22776Y7996D2*
G1X22763Y7996D1*
G1X22779Y7987D2*
G1X22758Y7987D1*
G1X22783Y7978D2*
G1X22753Y7978D1*
G1X22787Y7969D2*
G1X22748Y7969D1*
G1X22790Y7960D2*
G1X22743Y7960D1*
G1X22764Y7998D2*
G1X22764Y7893D1*
G1X22755Y7981D2*
G1X22755Y7916D1*
G1X22746Y7964D2*
G1X22746Y7940D1*
G1X22737Y8091D2*
G1X22737Y8030D1*
G1X22728Y8113D2*
G1X22728Y8034D1*
G1X22719Y7955D2*
G1X22719Y7941D1*
G1X22710Y7959D2*
G1X22710Y7938D1*
G1X22701Y7963D2*
G1X22701Y7934D1*
G1X22692Y7967D2*
G1X22692Y7930D1*
G1X22683Y7970D2*
G1X22683Y7927D1*
G1X22674Y7974D2*
G1X22674Y7923D1*
G1X22665Y7978D2*
G1X22665Y7919D1*
G1X22656Y7982D2*
G1X22656Y7916D1*
G1X22647Y7986D2*
G1X22647Y7912D1*
G1X22638Y7989D2*
G1X22638Y7908D1*
G1X22629Y7993D2*
G1X22629Y7905D1*
G1X22620Y7997D2*
G1X22620Y7901D1*
G1X22611Y8001D2*
G1X22611Y7897D1*
G1X22602Y8004D2*
G1X22602Y7894D1*
G1X22593Y8008D2*
G1X22593Y7890D1*
G1X22584Y8012D2*
G1X22584Y7886D1*
G1X22575Y8016D2*
G1X22575Y7883D1*
G1X22566Y8020D2*
G1X22566Y7879D1*
G1X22557Y8023D2*
G1X22557Y7875D1*
G1X22548Y8027D2*
G1X22548Y7872D1*
G1X22539Y8031D2*
G1X22539Y7868D1*
G1X22530Y8035D2*
G1X22530Y7864D1*
G1X22521Y8039D2*
G1X22521Y7861D1*
G1X22512Y8042D2*
G1X22512Y7857D1*
G1X22503Y8046D2*
G1X22503Y7853D1*
G1X22494Y8050D2*
G1X22494Y7850D1*
G1X22485Y8054D2*
G1X22485Y7846D1*
G1X22476Y8057D2*
G1X22476Y7842D1*
G1X22467Y8061D2*
G1X22467Y7839D1*
G1X22458Y8065D2*
G1X22458Y7835D1*
G1X22449Y8069D2*
G1X22449Y7831D1*
G1X22440Y8073D2*
G1X22440Y7828D1*
G1X22431Y8076D2*
G1X22431Y7824D1*
G1X22422Y8080D2*
G1X22422Y7820D1*
G1X22413Y8084D2*
G1X22413Y7817D1*
G1X22404Y8088D2*
G1X22404Y7813D1*
G1X22395Y8092D2*
G1X22395Y7809D1*
G1X22386Y8095D2*
G1X22386Y7806D1*
G1X22782Y7924D2*
G1X22752Y7924D1*
G1X22778Y7915D2*
G1X22755Y7915D1*
G1X22775Y7906D2*
G1X22759Y7906D1*
G1X22771Y7897D2*
G1X22762Y7897D1*
G1X22756Y7861D2*
G1X22736Y7861D1*
G1X22753Y7852D2*
G1X22714Y7852D1*
G1X22749Y7843D2*
G1X22693Y7843D1*
G1X22745Y7834D2*
G1X22671Y7834D1*
G1X22742Y7825D2*
G1X22650Y7825D1*
G1X22738Y7816D2*
G1X22628Y7816D1*
G1X22734Y7807D2*
G1X22607Y7807D1*
G1X22730Y7798D2*
G1X22585Y7798D1*
G1X22727Y7789D2*
G1X22564Y7789D1*
G1X22723Y7780D2*
G1X22542Y7780D1*
G1X22719Y7771D2*
G1X22521Y7771D1*
G1X22716Y7762D2*
G1X22499Y7762D1*
G1X22712Y7753D2*
G1X22477Y7753D1*
G1X22708Y7744D2*
G1X22456Y7744D1*
G1X22705Y7735D2*
G1X22434Y7735D1*
G1X22701Y7726D2*
G1X22413Y7726D1*
G1X22697Y7717D2*
G1X22391Y7717D1*
G1X22694Y7708D2*
G1X22370Y7708D1*
G1X22690Y7699D2*
G1X22348Y7699D1*
G1X22686Y7690D2*
G1X22327Y7690D1*
G1X22683Y7681D2*
G1X22305Y7681D1*
G1X22786Y7933D2*
G1X22766Y7886D1*
G1X22679Y7672D2*
G1X22284Y7672D1*
G1X22675Y7663D2*
G1X22262Y7663D1*
G1X22672Y7654D2*
G1X22241Y7654D1*
G1X22668Y7645D2*
G1X22219Y7645D1*
G1X22664Y7636D2*
G1X22197Y7636D1*
G1X22661Y7627D2*
G1X22176Y7627D1*
G1X22657Y7618D2*
G1X22154Y7618D1*
G1X22653Y7609D2*
G1X22133Y7609D1*
G1X22649Y7600D2*
G1X22111Y7600D1*
G1X22646Y7591D2*
G1X22090Y7591D1*
G1X22642Y7582D2*
G1X22068Y7582D1*
G1X22635Y7564D2*
G1X22025Y7564D1*
G1X22631Y7555D2*
G1X22004Y7555D1*
G1X22627Y7546D2*
G1X21982Y7546D1*
G1X22624Y7537D2*
G1X21961Y7537D1*
G1X22620Y7528D2*
G1X21939Y7528D1*
G1X22616Y7519D2*
G1X21917Y7519D1*
G1X22503Y8917D2*
G1X22503Y8880D1*
G1X22377Y8099D2*
G1X22377Y7802D1*
G1X22368Y8103D2*
G1X22368Y7798D1*
G1X22359Y8107D2*
G1X22359Y7795D1*
G1X22350Y8110D2*
G1X22350Y7791D1*
G1X22341Y8114D2*
G1X22341Y7787D1*
G1X22323Y8122D2*
G1X22323Y7780D1*
G1X22314Y8126D2*
G1X22314Y7776D1*
G1X22305Y8129D2*
G1X22305Y7773D1*
G1X22296Y8133D2*
G1X22296Y7769D1*
G1X22287Y8137D2*
G1X22287Y7765D1*
G1X22278Y8141D2*
G1X22278Y7762D1*
G1X22269Y8144D2*
G1X22269Y7758D1*
G1X22260Y8148D2*
G1X22260Y7754D1*
G1X22251Y8152D2*
G1X22251Y7751D1*
G1X22242Y8156D2*
G1X22242Y7747D1*
G1X22233Y8160D2*
G1X22233Y7743D1*
G1X22224Y8163D2*
G1X22224Y7740D1*
G1X22215Y8167D2*
G1X22215Y7736D1*
G1X22206Y8171D2*
G1X22206Y7732D1*
G1X22197Y8175D2*
G1X22197Y7729D1*
G1X22188Y8738D2*
G1X22188Y8265D1*
G1X22179Y8182D2*
G1X22179Y7721D1*
G1X22170Y8186D2*
G1X22170Y7718D1*
G1X22161Y8190D2*
G1X22161Y7714D1*
G1X22152Y8194D2*
G1X22152Y7710D1*
G1X22143Y8197D2*
G1X22143Y7707D1*
G1X22134Y8201D2*
G1X22134Y7703D1*
G1X22125Y8205D2*
G1X22125Y7699D1*
G1X22116Y8209D2*
G1X22116Y7696D1*
G1X22107Y8213D2*
G1X22107Y7692D1*
G1X22098Y8216D2*
G1X22098Y7688D1*
G1X22089Y8220D2*
G1X22089Y7685D1*
G1X22080Y8224D2*
G1X22080Y7681D1*
G1X22071Y8228D2*
G1X22071Y7677D1*
G1X22062Y8231D2*
G1X22062Y7674D1*
G1X22053Y8235D2*
G1X22053Y7670D1*
G1X22044Y8239D2*
G1X22044Y7666D1*
G1X22035Y8243D2*
G1X22035Y7662D1*
G1X22026Y8247D2*
G1X22026Y7659D1*
G1X22017Y8250D2*
G1X22017Y7655D1*
G1X22008Y8254D2*
G1X22008Y7651D1*
G1X21999Y8258D2*
G1X21999Y7648D1*
G1X21990Y8262D2*
G1X21990Y7644D1*
G1X21981Y8266D2*
G1X21981Y7640D1*
G1X21972Y8269D2*
G1X21972Y7637D1*
G1X21963Y8273D2*
G1X21963Y7633D1*
G1X21954Y8277D2*
G1X21954Y7629D1*
G1X21945Y8281D2*
G1X21945Y7626D1*
G1X21936Y8284D2*
G1X21936Y7622D1*
G1X21927Y8288D2*
G1X21927Y7618D1*
G1X21918Y8292D2*
G1X21918Y7615D1*
G1X21909Y8296D2*
G1X21909Y7611D1*
G1X21900Y8300D2*
G1X21900Y7607D1*
G1X21891Y8303D2*
G1X21891Y7604D1*
G1X22305Y7681D2*
G1X22305Y7078D1*
G1X22287Y7673D2*
G1X22287Y7089D1*
G1X22269Y7666D2*
G1X22269Y7101D1*
G1X22251Y7658D2*
G1X22251Y7114D1*
G1X22233Y7651D2*
G1X22233Y7127D1*
G1X22215Y7643D2*
G1X22215Y7141D1*
G1X22867Y7429D2*
G1X22674Y7429D1*
G1X22708Y7960D2*
G1X21819Y7960D1*
G1X22014Y7654D2*
G1X21862Y7654D1*
G1X22854Y8975D2*
G1X22854Y8034D1*
G1X22845Y8975D2*
G1X22845Y8056D1*
G1X22836Y8975D2*
G1X22836Y8078D1*
G1X22827Y8975D2*
G1X22827Y8099D1*
G1X22818Y8975D2*
G1X22818Y8121D1*
G1X22809Y8974D2*
G1X22809Y8143D1*
G1X22800Y8974D2*
G1X22800Y8164D1*
G1X22791Y8974D2*
G1X22791Y8186D1*
G1X22782Y8973D2*
G1X22782Y8208D1*
G1X22773Y8972D2*
G1X22773Y8229D1*
G1X22764Y8972D2*
G1X22764Y8251D1*
G1X21991Y7645D2*
G1X21865Y7645D1*
G1X22746Y8970D2*
G1X22746Y8295D1*
G1X21969Y7636D2*
G1X21868Y7636D1*
G1X22728Y8968D2*
G1X22728Y8338D1*
G1X21947Y7627D2*
G1X21871Y7627D1*
G1X22710Y8966D2*
G1X22710Y8381D1*
G1X21925Y7618D2*
G1X21874Y7618D1*
G1X22692Y8964D2*
G1X22692Y8425D1*
G1X21903Y7609D2*
G1X21877Y7609D1*
G1X22674Y8961D2*
G1X22674Y8468D1*
G1X22656Y8958D2*
G1X22656Y8512D1*
G1X22638Y8954D2*
G1X22638Y8555D1*
G1X22620Y8950D2*
G1X22620Y8598D1*
G1X22611Y8948D2*
G1X22611Y8620D1*
G1X22593Y8944D2*
G1X22593Y8663D1*
G1X22575Y8939D2*
G1X22575Y8707D1*
G1X22557Y8934D2*
G1X22557Y8750D1*
G1X22539Y8928D2*
G1X22539Y8794D1*
G1X22521Y8923D2*
G1X22521Y8837D1*
G1X22613Y7510D2*
G1X21918Y7510D1*
G1X22609Y7501D2*
G1X21922Y7501D1*
G1X21918Y8389D2*
G1X21918Y8381D1*
G1X22368Y7707D2*
G1X22368Y7042D1*
G1X22359Y7703D2*
G1X22359Y7047D1*
G1X22350Y7699D2*
G1X22350Y7052D1*
G1X22341Y7696D2*
G1X22341Y7057D1*
G1X2590Y8778D2*
G1X2590Y8253D1*
G1X2221Y8948D2*
G1X2221Y8625D1*
G1X2581Y8785D2*
G1X2581Y8249D1*
G1X2203Y8952D2*
G1X2203Y8581D1*
G1X2572Y8791D2*
G1X2572Y8246D1*
G1X2185Y8955D2*
G1X2185Y8537D1*
G1X2563Y8797D2*
G1X2563Y8242D1*
G1X2167Y8959D2*
G1X2167Y8493D1*
G1X2554Y8803D2*
G1X2554Y8239D1*
G1X2149Y8962D2*
G1X2149Y8449D1*
G1X2545Y8809D2*
G1X2545Y8235D1*
G1X2131Y8965D2*
G1X2131Y8405D1*
G1X2122Y8966D2*
G1X2122Y8383D1*
G1X2464Y7705D2*
G1X2464Y7043D1*
G1X2455Y7709D2*
G1X2455Y7039D1*
G1X2446Y7712D2*
G1X2446Y7034D1*
G1X2437Y7716D2*
G1X2437Y7029D1*
G1X2428Y7720D2*
G1X2428Y7025D1*
G1X2068Y8972D2*
G1X2068Y8251D1*
G1X2059Y8972D2*
G1X2059Y8229D1*
G1X2050Y8973D2*
G1X2050Y8207D1*
G1X2041Y8973D2*
G1X2041Y8185D1*
G1X2032Y8974D2*
G1X2032Y8163D1*
G1X2023Y8974D2*
G1X2023Y8141D1*
G1X2014Y8975D2*
G1X2014Y8119D1*
G1X2329Y6994D2*
G1X2329Y6984D1*
G1X2320Y7017D2*
G1X2320Y6981D1*
G1X2440Y8869D2*
G1X2415Y8869D1*
G1X2311Y7039D2*
G1X2311Y6978D1*
G1X2474Y8851D2*
G1X2408Y8851D1*
G1X2302Y7062D2*
G1X2302Y6975D1*
G1X2506Y8833D2*
G1X2401Y8833D1*
G1X2293Y7084D2*
G1X2293Y6972D1*
G1X2535Y8815D2*
G1X2393Y8815D1*
G1X2284Y7107D2*
G1X2284Y6969D1*
G1X2563Y8797D2*
G1X2386Y8797D1*
G1X2275Y7129D2*
G1X2275Y6967D1*
G1X2588Y8779D2*
G1X2378Y8779D1*
G1X2266Y7152D2*
G1X2266Y6964D1*
G1X2612Y8761D2*
G1X2371Y8761D1*
G1X2257Y7174D2*
G1X2257Y6961D1*
G1X2239Y7219D2*
G1X2239Y6957D1*
G1X2221Y7264D2*
G1X2221Y6952D1*
G1X2212Y7287D2*
G1X2212Y6950D1*
G1X2194Y7332D2*
G1X2194Y6946D1*
G1X2176Y7377D2*
G1X2176Y6943D1*
G1X2167Y7400D2*
G1X2167Y6941D1*
G1X2149Y7445D2*
G1X2149Y6938D1*
G1X2140Y7467D2*
G1X2140Y6937D1*
G1X2131Y7490D2*
G1X2131Y6935D1*
G1X2723Y8662D2*
G1X2331Y8662D1*
G1X2732Y8653D2*
G1X2327Y8653D1*
G1X2740Y8644D2*
G1X2323Y8644D1*
G1X2748Y8635D2*
G1X2320Y8635D1*
G1X2756Y8626D2*
G1X2316Y8626D1*
G1X2764Y8617D2*
G1X2312Y8617D1*
G1X2771Y8608D2*
G1X2308Y8608D1*
G1X2779Y8599D2*
G1X2305Y8599D1*
G1X2786Y8590D2*
G1X2301Y8590D1*
G1X2986Y7726D2*
G1X2661Y7726D1*
G1X2800Y8572D2*
G1X2294Y8572D1*
G1X2807Y8563D2*
G1X2290Y8563D1*
G1X2814Y8554D2*
G1X2286Y8554D1*
G1X2820Y8545D2*
G1X2283Y8545D1*
G1X2827Y8536D2*
G1X2279Y8536D1*
G1X2833Y8527D2*
G1X2275Y8527D1*
G1X2166Y8959D2*
G1X1962Y8959D1*
G1X2845Y8509D2*
G1X2268Y8509D1*
G1X2851Y8500D2*
G1X2264Y8500D1*
G1X2856Y8491D2*
G1X2261Y8491D1*
G1X2862Y8482D2*
G1X2257Y8482D1*
G1X2867Y8473D2*
G1X2253Y8473D1*
G1X2872Y8464D2*
G1X2250Y8464D1*
G1X2878Y8455D2*
G1X2246Y8455D1*
G1X2883Y8446D2*
G1X2242Y8446D1*
G1X2888Y8437D2*
G1X2239Y8437D1*
G1X2446Y8093D2*
G1X2446Y7814D1*
G1X2824Y7550D2*
G1X2824Y7360D1*
G1X2815Y7554D2*
G1X2815Y7347D1*
G1X2806Y7558D2*
G1X2806Y7335D1*
G1X2797Y7562D2*
G1X2797Y7323D1*
G1X2914Y8383D2*
G1X2216Y8383D1*
G1X2892Y8374D2*
G1X2213Y8374D1*
G1X2869Y8365D2*
G1X2209Y8365D1*
G1X2847Y8356D2*
G1X2205Y8356D1*
G1X2824Y8347D2*
G1X2202Y8347D1*
G1X2802Y8338D2*
G1X2198Y8338D1*
G1X2779Y8329D2*
G1X2194Y8329D1*
G1X2757Y8320D2*
G1X2191Y8320D1*
G1X2734Y8311D2*
G1X2187Y8311D1*
G1X2712Y8302D2*
G1X2183Y8302D1*
G1X2689Y8293D2*
G1X2180Y8293D1*
G1X2667Y8284D2*
G1X2176Y8284D1*
G1X2644Y8275D2*
G1X2172Y8275D1*
G1X2622Y8266D2*
G1X2169Y8266D1*
G1X2599Y8257D2*
G1X2165Y8257D1*
G1X2577Y8248D2*
G1X2161Y8248D1*
G1X2554Y8239D2*
G1X2157Y8239D1*
G1X2532Y8230D2*
G1X2154Y8230D1*
G1X2509Y8221D2*
G1X2150Y8221D1*
G1X2487Y8212D2*
G1X2146Y8212D1*
G1X2464Y8203D2*
G1X2143Y8203D1*
G1X2442Y8194D2*
G1X2139Y8194D1*
G1X2419Y8185D2*
G1X2135Y8185D1*
G1X2397Y8176D2*
G1X2132Y8176D1*
G1X2374Y8167D2*
G1X2128Y8167D1*
G1X2352Y8158D2*
G1X2124Y8158D1*
G1X2329Y8149D2*
G1X2121Y8149D1*
G1X2307Y8140D2*
G1X2117Y8140D1*
G1X2284Y8131D2*
G1X2113Y8131D1*
G1X2262Y8122D2*
G1X2110Y8122D1*
G1X2239Y8113D2*
G1X2106Y8113D1*
G1X2217Y8104D2*
G1X2102Y8104D1*
G1X2194Y8095D2*
G1X2099Y8095D1*
G1X2131Y7967D2*
G1X2131Y7875D1*
G1X2950Y8295D2*
G1X2950Y7608D1*
G1X2941Y8291D2*
G1X2941Y7611D1*
G1X2932Y8288D2*
G1X2932Y7615D1*
G1X2923Y8284D2*
G1X2923Y7619D1*
G1X2914Y8280D2*
G1X2914Y7622D1*
G1X2905Y8277D2*
G1X2905Y7626D1*
G1X2896Y8273D2*
G1X2896Y7630D1*
G1X2887Y8270D2*
G1X2887Y7633D1*
G1X2878Y8266D2*
G1X2878Y7637D1*
G1X2869Y8262D2*
G1X2869Y7641D1*
G1X2860Y8259D2*
G1X2860Y7645D1*
G1X2851Y8255D2*
G1X2851Y7648D1*
G1X2842Y8252D2*
G1X2842Y7652D1*
G1X2833Y8248D2*
G1X2833Y7656D1*
G1X2824Y8244D2*
G1X2824Y7659D1*
G1X2815Y8241D2*
G1X2815Y7663D1*
G1X2806Y8237D2*
G1X2806Y7667D1*
G1X2797Y8234D2*
G1X2797Y7670D1*
G1X2788Y8230D2*
G1X2788Y7674D1*
G1X2779Y8226D2*
G1X2779Y7678D1*
G1X2770Y8223D2*
G1X2770Y7681D1*
G1X2761Y8219D2*
G1X2761Y7685D1*
G1X2752Y8216D2*
G1X2752Y7689D1*
G1X2743Y8212D2*
G1X2743Y7692D1*
G1X2734Y8208D2*
G1X2734Y7696D1*
G1X2725Y8205D2*
G1X2725Y7700D1*
G1X2716Y8201D2*
G1X2716Y7703D1*
G1X2707Y8198D2*
G1X2707Y7707D1*
G1X2698Y8194D2*
G1X2698Y7711D1*
G1X2689Y8190D2*
G1X2689Y7714D1*
G1X2680Y8187D2*
G1X2680Y7718D1*
G1X2671Y8183D2*
G1X2671Y7722D1*
G1X2662Y8180D2*
G1X2662Y7726D1*
G1X2653Y8176D2*
G1X2653Y7729D1*
G1X2644Y8172D2*
G1X2644Y7733D1*
G1X2635Y8169D2*
G1X2635Y7737D1*
G1X2626Y8165D2*
G1X2626Y7740D1*
G1X2617Y8162D2*
G1X2617Y7744D1*
G1X2608Y8158D2*
G1X2608Y7748D1*
G1X2599Y8154D2*
G1X2599Y7751D1*
G1X2590Y8151D2*
G1X2590Y7755D1*
G1X2581Y8147D2*
G1X2581Y7759D1*
G1X2572Y8144D2*
G1X2572Y7762D1*
G1X2563Y8140D2*
G1X2563Y7766D1*
G1X2554Y8136D2*
G1X2554Y7770D1*
G1X2545Y8133D2*
G1X2545Y7773D1*
G1X2536Y8129D2*
G1X2536Y7777D1*
G1X2527Y8126D2*
G1X2527Y7781D1*
G1X2518Y8122D2*
G1X2518Y7784D1*
G1X2509Y8118D2*
G1X2509Y7788D1*
G1X2500Y8115D2*
G1X2500Y7792D1*
G1X2491Y8111D2*
G1X2491Y7795D1*
G1X2482Y8108D2*
G1X2482Y7799D1*
G1X2473Y8104D2*
G1X2473Y7803D1*
G1X2464Y8100D2*
G1X2464Y7807D1*
G1X2455Y8097D2*
G1X2455Y7810D1*
G1X2050Y7935D2*
G1X2050Y7813D1*
G1X2437Y8090D2*
G1X2437Y7818D1*
G1X2428Y8086D2*
G1X2428Y7821D1*
G1X2419Y8082D2*
G1X2419Y7825D1*
G1X2410Y8079D2*
G1X2410Y7829D1*
G1X2401Y8075D2*
G1X2401Y7832D1*
G1X2392Y8072D2*
G1X2392Y7836D1*
G1X2374Y8064D2*
G1X2374Y7843D1*
G1X2365Y8061D2*
G1X2365Y7847D1*
G1X2356Y8057D2*
G1X2356Y7851D1*
G1X2347Y8054D2*
G1X2347Y7854D1*
G1X2338Y8050D2*
G1X2338Y7858D1*
G1X2329Y8046D2*
G1X2329Y7862D1*
G1X2320Y8043D2*
G1X2320Y7865D1*
G1X2311Y8039D2*
G1X2311Y7869D1*
G1X2302Y8036D2*
G1X2302Y7873D1*
G1X2293Y8032D2*
G1X2293Y7876D1*
G1X2284Y8028D2*
G1X2284Y7880D1*
G1X2275Y8025D2*
G1X2275Y7884D1*
G1X2266Y8021D2*
G1X2266Y7887D1*
G1X2257Y8018D2*
G1X2257Y7891D1*
G1X2248Y8014D2*
G1X2248Y7895D1*
G1X2239Y8010D2*
G1X2239Y7899D1*
G1X2230Y8007D2*
G1X2230Y7902D1*
G1X2221Y8003D2*
G1X2221Y7906D1*
G1X2212Y8000D2*
G1X2212Y7910D1*
G1X2203Y7996D2*
G1X2203Y7913D1*
G1X2194Y7992D2*
G1X2194Y7917D1*
G1X2185Y7989D2*
G1X2185Y7921D1*
G1X2176Y7985D2*
G1X2176Y7924D1*
G1X2167Y7982D2*
G1X2167Y7928D1*
G1X2158Y7978D2*
G1X2158Y7932D1*
G1X2149Y7974D2*
G1X2149Y7911D1*
G1X2793Y8581D2*
G1X2297Y8581D1*
G1X3010Y7924D2*
G1X2177Y7924D1*
G1X3010Y7915D2*
G1X2199Y7915D1*
G1X3010Y7906D2*
G1X2221Y7906D1*
G1X3009Y7897D2*
G1X2243Y7897D1*
G1X3009Y7888D2*
G1X2265Y7888D1*
G1X3008Y7879D2*
G1X2287Y7879D1*
G1X3007Y7870D2*
G1X2309Y7870D1*
G1X3007Y7861D2*
G1X2331Y7861D1*
G1X3006Y7852D2*
G1X2353Y7852D1*
G1X3005Y7843D2*
G1X2375Y7843D1*
G1X3004Y7834D2*
G1X2397Y7834D1*
G1X3003Y7825D2*
G1X2419Y7825D1*
G1X3002Y7816D2*
G1X2441Y7816D1*
G1X3001Y7807D2*
G1X2463Y7807D1*
G1X2999Y7798D2*
G1X2485Y7798D1*
G1X2998Y7789D2*
G1X2507Y7789D1*
G1X2996Y7780D2*
G1X2529Y7780D1*
G1X2995Y7771D2*
G1X2551Y7771D1*
G1X2993Y7762D2*
G1X2573Y7762D1*
G1X2991Y7753D2*
G1X2595Y7753D1*
G1X2990Y7744D2*
G1X2617Y7744D1*
G1X2988Y7735D2*
G1X2639Y7735D1*
G1X2795Y7321D2*
G1X2294Y7321D1*
G1X2984Y7717D2*
G1X2683Y7717D1*
G1X2788Y7312D2*
G1X2298Y7312D1*
G1X2979Y7699D2*
G1X2727Y7699D1*
G1X2781Y7303D2*
G1X2302Y7303D1*
G1X2975Y7681D2*
G1X2771Y7681D1*
G1X2773Y7294D2*
G1X2306Y7294D1*
G1X2970Y7663D2*
G1X2815Y7663D1*
G1X2766Y7285D2*
G1X2310Y7285D1*
G1X2964Y7645D2*
G1X2859Y7645D1*
G1X2758Y7276D2*
G1X2313Y7276D1*
G1X2958Y7627D2*
G1X2903Y7627D1*
G1X2750Y7267D2*
G1X2317Y7267D1*
G1X2742Y7258D2*
G1X2321Y7258D1*
G1X2725Y7240D2*
G1X2329Y7240D1*
G1X2716Y7231D2*
G1X2333Y7231D1*
G1X2707Y7222D2*
G1X2337Y7222D1*
G1X2698Y7213D2*
G1X2341Y7213D1*
G1X2119Y7519D2*
G1X1962Y7519D1*
G1X2185Y7355D2*
G1X2185Y6944D1*
G1X2080Y8049D2*
G1X2041Y7931D1*
G1X2915Y8383D2*
G1X2080Y8049D1*
G1X2080Y7813D2*
G1X2001Y7813D1*
G1X2951Y8295D2*
G1X2041Y7931D1*
G1X2001Y7813D2*
G1X2332Y6985D1*
G1X2080Y7813D2*
G1X2423Y7023D1*
G1X1962Y8975D2*
G1X1962Y6925D1*
G1X2338Y8912D2*
G1X2001Y8089D1*
G1X2093Y8082D1*
G1X2419Y8879D2*
G1X2093Y8082D1*
G1X2159Y7931D2*
G1X2119Y7852D1*
G1X2159Y7931D2*
G1X2951Y7607D1*
G1X2119Y7852D2*
G1X2912Y7512D1*
G1X2254Y8707D2*
G1X1962Y8707D1*
G1X2004Y8095D2*
G1X1962Y8095D1*
G1X2383Y8068D2*
G1X2383Y7840D1*
G1X2023Y7760D2*
G1X2023Y6926D1*
G1X2536Y8815D2*
G1X2536Y8231D1*
G1X2527Y8821D2*
G1X2527Y8228D1*
G1X2518Y8826D2*
G1X2518Y8224D1*
G1X2509Y8831D2*
G1X2509Y8221D1*
G1X2500Y8837D2*
G1X2500Y8217D1*
G1X2491Y8842D2*
G1X2491Y8213D1*
G1X2482Y8847D2*
G1X2482Y8210D1*
G1X2905Y7516D2*
G1X2905Y7496D1*
G1X2473Y8852D2*
G1X2473Y8206D1*
G1X2887Y7523D2*
G1X2887Y7461D1*
G1X2464Y8857D2*
G1X2464Y8203D1*
G1X2869Y7531D2*
G1X2869Y7429D1*
G1X2455Y8861D2*
G1X2455Y8199D1*
G1X2851Y7539D2*
G1X2851Y7400D1*
G1X2446Y8866D2*
G1X2446Y8195D1*
G1X2833Y7546D2*
G1X2833Y7373D1*
G1X2897Y8419D2*
G1X2231Y8419D1*
G1X2902Y8410D2*
G1X2227Y8410D1*
G1X2906Y8401D2*
G1X2224Y8401D1*
G1X2910Y8392D2*
G1X2220Y8392D1*
G1X2788Y7566D2*
G1X2788Y7312D1*
G1X2779Y7570D2*
G1X2779Y7300D1*
G1X2770Y7573D2*
G1X2770Y7290D1*
G1X2761Y7577D2*
G1X2761Y7279D1*
G1X2752Y7581D2*
G1X2752Y7269D1*
G1X2743Y7585D2*
G1X2743Y7259D1*
G1X2734Y7589D2*
G1X2734Y7249D1*
G1X2725Y7593D2*
G1X2725Y7240D1*
G1X2707Y7601D2*
G1X2707Y7221D1*
G1X2689Y7608D2*
G1X2689Y7204D1*
G1X2671Y7616D2*
G1X2671Y7187D1*
G1X2955Y8284D2*
G1X2922Y8284D1*
G1X2653Y7624D2*
G1X2653Y7172D1*
G1X2958Y8275D2*
G1X2900Y8275D1*
G1X2635Y7631D2*
G1X2635Y7157D1*
G1X2961Y8266D2*
G1X2877Y8266D1*
G1X2617Y7639D2*
G1X2617Y7142D1*
G1X2964Y8257D2*
G1X2855Y8257D1*
G1X2599Y7647D2*
G1X2599Y7128D1*
G1X2966Y8248D2*
G1X2832Y8248D1*
G1X2581Y7655D2*
G1X2581Y7115D1*
G1X2969Y8239D2*
G1X2810Y8239D1*
G1X2563Y7662D2*
G1X2563Y7103D1*
G1X2972Y8230D2*
G1X2787Y8230D1*
G1X2545Y7670D2*
G1X2545Y7091D1*
G1X2974Y8221D2*
G1X2765Y8221D1*
G1X2527Y7678D2*
G1X2527Y7079D1*
G1X2977Y8212D2*
G1X2742Y8212D1*
G1X2509Y7685D2*
G1X2509Y7068D1*
G1X2979Y8203D2*
G1X2720Y8203D1*
G1X2491Y7693D2*
G1X2491Y7058D1*
G1X2981Y8194D2*
G1X2697Y8194D1*
G1X2113Y8967D2*
G1X2113Y8361D1*
G1X2104Y8968D2*
G1X2104Y8339D1*
G1X2095Y8969D2*
G1X2095Y8317D1*
G1X2086Y8970D2*
G1X2086Y8295D1*
G1X2077Y8971D2*
G1X2077Y8273D1*
G1X2419Y7724D2*
G1X2419Y7034D1*
G1X2410Y7728D2*
G1X2410Y7055D1*
G1X2401Y7732D2*
G1X2401Y7075D1*
G1X2392Y7736D2*
G1X2392Y7096D1*
G1X2383Y7739D2*
G1X2383Y7117D1*
G1X2374Y7743D2*
G1X2374Y7138D1*
G1X2365Y7747D2*
G1X2365Y7158D1*
G1X2356Y7751D2*
G1X2356Y7179D1*
G1X2457Y8860D2*
G1X2412Y8860D1*
G1X2491Y8842D2*
G1X2404Y8842D1*
G1X2521Y8824D2*
G1X2397Y8824D1*
G1X2549Y8806D2*
G1X2389Y8806D1*
G1X2576Y8788D2*
G1X2382Y8788D1*
G1X2601Y8770D2*
G1X2375Y8770D1*
G1X2624Y8752D2*
G1X2367Y8752D1*
G1X2635Y8743D2*
G1X2364Y8743D1*
G1X2983Y8185D2*
G1X2675Y8185D1*
G1X2646Y8734D2*
G1X2360Y8734D1*
G1X2230Y7242D2*
G1X2230Y6954D1*
G1X2656Y8725D2*
G1X2356Y8725D1*
G1X2667Y8716D2*
G1X2353Y8716D1*
G1X2203Y7309D2*
G1X2203Y6948D1*
G1X2677Y8707D2*
G1X2349Y8707D1*
G1X2686Y8698D2*
G1X2345Y8698D1*
G1X2696Y8689D2*
G1X2342Y8689D1*
G1X2158Y7422D2*
G1X2158Y6939D1*
G1X2140Y7971D2*
G1X2140Y7893D1*
G1X2044Y7942D2*
G1X1962Y7942D1*
G1X2743Y8641D2*
G1X2743Y8314D1*
G1X2734Y8651D2*
G1X2734Y8311D1*
G1X2113Y7535D2*
G1X2113Y6933D1*
G1X2725Y8660D2*
G1X2725Y8307D1*
G1X2095Y7580D2*
G1X2095Y6931D1*
G1X2716Y8669D2*
G1X2716Y8303D1*
G1X2077Y7625D2*
G1X2077Y6929D1*
G1X2707Y8678D2*
G1X2707Y8300D1*
G1X2059Y7670D2*
G1X2059Y6928D1*
G1X2050Y7692D2*
G1X2050Y6927D1*
G1X2041Y7715D2*
G1X2041Y6926D1*
G1X2839Y8518D2*
G1X2272Y8518D1*
G1X2005Y8975D2*
G1X2005Y6925D1*
G1X1996Y8975D2*
G1X1996Y6925D1*
G1X1987Y8975D2*
G1X1987Y6925D1*
G1X1978Y8975D2*
G1X1978Y6925D1*
G1X1969Y8975D2*
G1X1969Y6925D1*
G1X2181Y8527D2*
G1X1962Y8527D1*
G1X2121Y6934D2*
G1X1962Y6934D1*
G1X2177Y6943D2*
G1X1962Y6943D1*
G1X2219Y6952D2*
G1X1962Y6952D1*
G1X2255Y6961D2*
G1X1962Y6961D1*
G1X2286Y6970D2*
G1X1962Y6970D1*
G1X2314Y6979D2*
G1X1962Y6979D1*
G1X2444Y7033D2*
G1X2419Y7033D1*
G1X2461Y7042D2*
G1X2415Y7042D1*
G1X2478Y7051D2*
G1X2411Y7051D1*
G1X2494Y7060D2*
G1X2407Y7060D1*
G1X2509Y7069D2*
G1X2403Y7069D1*
G1X2524Y7078D2*
G1X2400Y7078D1*
G1X2539Y7087D2*
G1X2396Y7087D1*
G1X2552Y7096D2*
G1X2392Y7096D1*
G1X2566Y7105D2*
G1X2388Y7105D1*
G1X2579Y7114D2*
G1X2384Y7114D1*
G1X2591Y7123D2*
G1X2380Y7123D1*
G1X2603Y7132D2*
G1X2376Y7132D1*
G1X2615Y7141D2*
G1X2372Y7141D1*
G1X2626Y7150D2*
G1X2368Y7150D1*
G1X2637Y7159D2*
G1X2364Y7159D1*
G1X2648Y7168D2*
G1X2360Y7168D1*
G1X2659Y7177D2*
G1X2356Y7177D1*
G1X2669Y7186D2*
G1X2353Y7186D1*
G1X2679Y7195D2*
G1X2349Y7195D1*
G1X2689Y7204D2*
G1X2345Y7204D1*
G1X2733Y7249D2*
G1X2325Y7249D1*
G1X2955Y7618D2*
G1X2925Y7618D1*
G1X2961Y7636D2*
G1X2881Y7636D1*
G1X2967Y7654D2*
G1X2837Y7654D1*
G1X2972Y7672D2*
G1X2793Y7672D1*
G1X2977Y7690D2*
G1X2749Y7690D1*
G1X2982Y7708D2*
G1X2705Y7708D1*
G1X3010Y7933D2*
G1X1962Y7933D1*
G1X2809Y7339D2*
G1X2286Y7339D1*
G1X2815Y7348D2*
G1X2282Y7348D1*
G1X2822Y7357D2*
G1X2278Y7357D1*
G1X2334Y8914D2*
G1X1962Y8914D1*
G1X2834Y7375D2*
G1X2270Y7375D1*
G1X2840Y7384D2*
G1X2266Y7384D1*
G1X2846Y7393D2*
G1X2263Y7393D1*
G1X2852Y7402D2*
G1X2259Y7402D1*
G1X2857Y7411D2*
G1X2255Y7411D1*
G1X2863Y7420D2*
G1X2251Y7420D1*
G1X2868Y7429D2*
G1X2247Y7429D1*
G1X2874Y7438D2*
G1X2243Y7438D1*
G1X2879Y7447D2*
G1X2239Y7447D1*
G1X2884Y7456D2*
G1X2235Y7456D1*
G1X2889Y7465D2*
G1X2231Y7465D1*
G1X2893Y7474D2*
G1X2227Y7474D1*
G1X2898Y7483D2*
G1X2223Y7483D1*
G1X2903Y7492D2*
G1X2219Y7492D1*
G1X2907Y7501D2*
G1X2216Y7501D1*
G1X2911Y7510D2*
G1X2212Y7510D1*
G1X1960Y8975D2*
G1X1960Y6925D1*
G1X2897Y7519D2*
G1X2208Y7519D1*
G1X2876Y7528D2*
G1X2204Y7528D1*
G1X2855Y7537D2*
G1X2200Y7537D1*
G1X2834Y7546D2*
G1X2196Y7546D1*
G1X2813Y7555D2*
G1X2192Y7555D1*
G1X2792Y7564D2*
G1X2188Y7564D1*
G1X2771Y7573D2*
G1X2184Y7573D1*
G1X2750Y7582D2*
G1X2180Y7582D1*
G1X2729Y7591D2*
G1X2176Y7591D1*
G1X2708Y7600D2*
G1X2173Y7600D1*
G1X2687Y7609D2*
G1X2169Y7609D1*
G1X2666Y7618D2*
G1X2165Y7618D1*
G1X2645Y7627D2*
G1X2161Y7627D1*
G1X2624Y7636D2*
G1X2157Y7636D1*
G1X2603Y7645D2*
G1X2153Y7645D1*
G1X2582Y7654D2*
G1X2149Y7654D1*
G1X2561Y7663D2*
G1X2145Y7663D1*
G1X2540Y7672D2*
G1X2141Y7672D1*
G1X2519Y7681D2*
G1X2137Y7681D1*
G1X2498Y7690D2*
G1X2133Y7690D1*
G1X2477Y7699D2*
G1X2129Y7699D1*
G1X2456Y7708D2*
G1X2126Y7708D1*
G1X2435Y7717D2*
G1X2122Y7717D1*
G1X2414Y7726D2*
G1X2118Y7726D1*
G1X2393Y7735D2*
G1X2114Y7735D1*
G1X2372Y7744D2*
G1X2110Y7744D1*
G1X2351Y7753D2*
G1X2106Y7753D1*
G1X2330Y7762D2*
G1X2102Y7762D1*
G1X2309Y7771D2*
G1X2098Y7771D1*
G1X2288Y7780D2*
G1X2094Y7780D1*
G1X2267Y7789D2*
G1X2090Y7789D1*
G1X2246Y7798D2*
G1X2086Y7798D1*
G1X2225Y7807D2*
G1X2083Y7807D1*
G1X2131Y7847D2*
G1X2131Y7696D1*
G1X2140Y7844D2*
G1X2140Y7676D1*
G1X2149Y7840D2*
G1X2149Y7655D1*
G1X2158Y7836D2*
G1X2158Y7634D1*
G1X2167Y7832D2*
G1X2167Y7614D1*
G1X2176Y7828D2*
G1X2176Y7593D1*
G1X2185Y7824D2*
G1X2185Y7572D1*
G1X2194Y7820D2*
G1X2194Y7552D1*
G1X2203Y7817D2*
G1X2203Y7531D1*
G1X2212Y7813D2*
G1X2212Y7510D1*
G1X2221Y7809D2*
G1X2221Y7489D1*
G1X2230Y7805D2*
G1X2230Y7469D1*
G1X2802Y7330D2*
G1X2290Y7330D1*
G1X2032Y7737D2*
G1X2032Y6926D1*
G1X2828Y7366D2*
G1X2274Y7366D1*
G1X2211Y8950D2*
G1X1962Y8950D1*
G1X2247Y8941D2*
G1X1962Y8941D1*
G1X2279Y8932D2*
G1X1962Y8932D1*
G1X2308Y8923D2*
G1X1962Y8923D1*
G1X2335Y8905D2*
G1X1962Y8905D1*
G1X2332Y8896D2*
G1X1962Y8896D1*
G1X2328Y8887D2*
G1X1962Y8887D1*
G1X2324Y8878D2*
G1X1962Y8878D1*
G1X2321Y8869D2*
G1X1962Y8869D1*
G1X2317Y8860D2*
G1X1962Y8860D1*
G1X2313Y8851D2*
G1X1962Y8851D1*
G1X2309Y8842D2*
G1X1962Y8842D1*
G1X2306Y8833D2*
G1X1962Y8833D1*
G1X2302Y8824D2*
G1X1962Y8824D1*
G1X2298Y8815D2*
G1X1962Y8815D1*
G1X2295Y8806D2*
G1X1962Y8806D1*
G1X2291Y8797D2*
G1X1962Y8797D1*
G1X2287Y8788D2*
G1X1962Y8788D1*
G1X2284Y8779D2*
G1X1962Y8779D1*
G1X2280Y8770D2*
G1X1962Y8770D1*
G1X2276Y8761D2*
G1X1962Y8761D1*
G1X2273Y8752D2*
G1X1962Y8752D1*
G1X2269Y8743D2*
G1X1962Y8743D1*
G1X2265Y8734D2*
G1X1962Y8734D1*
G1X2262Y8725D2*
G1X1962Y8725D1*
G1X2258Y8716D2*
G1X1962Y8716D1*
G1X2251Y8698D2*
G1X1962Y8698D1*
G1X2247Y8689D2*
G1X1962Y8689D1*
G1X2243Y8680D2*
G1X1962Y8680D1*
G1X2240Y8671D2*
G1X1962Y8671D1*
G1X2236Y8662D2*
G1X1962Y8662D1*
G1X2232Y8653D2*
G1X1962Y8653D1*
G1X2228Y8644D2*
G1X1962Y8644D1*
G1X2225Y8635D2*
G1X1962Y8635D1*
G1X2221Y8626D2*
G1X1962Y8626D1*
G1X2217Y8617D2*
G1X1962Y8617D1*
G1X2214Y8608D2*
G1X1962Y8608D1*
G1X2210Y8599D2*
G1X1962Y8599D1*
G1X2206Y8590D2*
G1X1962Y8590D1*
G1X2029Y7744D2*
G1X1962Y7744D1*
G1X2199Y8572D2*
G1X1962Y8572D1*
G1X2195Y8563D2*
G1X1962Y8563D1*
G1X2192Y8554D2*
G1X1962Y8554D1*
G1X2188Y8545D2*
G1X1962Y8545D1*
G1X2184Y8536D2*
G1X1962Y8536D1*
G1X2105Y8968D2*
G1X1962Y8968D1*
G1X2177Y8518D2*
G1X1962Y8518D1*
G1X2173Y8509D2*
G1X1962Y8509D1*
G1X2170Y8500D2*
G1X1962Y8500D1*
G1X2166Y8491D2*
G1X1962Y8491D1*
G1X2162Y8482D2*
G1X1962Y8482D1*
G1X2159Y8473D2*
G1X1962Y8473D1*
G1X2155Y8464D2*
G1X1962Y8464D1*
G1X2151Y8455D2*
G1X1962Y8455D1*
G1X2147Y8446D2*
G1X1962Y8446D1*
G1X2144Y8437D2*
G1X1962Y8437D1*
G1X2140Y8428D2*
G1X1962Y8428D1*
G1X2136Y8419D2*
G1X1962Y8419D1*
G1X2133Y8410D2*
G1X1962Y8410D1*
G1X2129Y8401D2*
G1X1962Y8401D1*
G1X2125Y8392D2*
G1X1962Y8392D1*
G1X2122Y8383D2*
G1X1962Y8383D1*
G1X2118Y8374D2*
G1X1962Y8374D1*
G1X2114Y8365D2*
G1X1962Y8365D1*
G1X2111Y8356D2*
G1X1962Y8356D1*
G1X2107Y8347D2*
G1X1962Y8347D1*
G1X2103Y8338D2*
G1X1962Y8338D1*
G1X2100Y8329D2*
G1X1962Y8329D1*
G1X2096Y8320D2*
G1X1962Y8320D1*
G1X2092Y8311D2*
G1X1962Y8311D1*
G1X2089Y8302D2*
G1X1962Y8302D1*
G1X2085Y8293D2*
G1X1962Y8293D1*
G1X2081Y8284D2*
G1X1962Y8284D1*
G1X2077Y8275D2*
G1X1962Y8275D1*
G1X2074Y8266D2*
G1X1962Y8266D1*
G1X2070Y8257D2*
G1X1962Y8257D1*
G1X2066Y8248D2*
G1X1962Y8248D1*
G1X2063Y8239D2*
G1X1962Y8239D1*
G1X2059Y8230D2*
G1X1962Y8230D1*
G1X2055Y8221D2*
G1X1962Y8221D1*
G1X2052Y8212D2*
G1X1962Y8212D1*
G1X2048Y8203D2*
G1X1962Y8203D1*
G1X2044Y8194D2*
G1X1962Y8194D1*
G1X2041Y8185D2*
G1X1962Y8185D1*
G1X2037Y8176D2*
G1X1962Y8176D1*
G1X2033Y8167D2*
G1X1962Y8167D1*
G1X2030Y8158D2*
G1X1962Y8158D1*
G1X2026Y8149D2*
G1X1962Y8149D1*
G1X2022Y8140D2*
G1X1962Y8140D1*
G1X2019Y8131D2*
G1X1962Y8131D1*
G1X2015Y8122D2*
G1X1962Y8122D1*
G1X2011Y8113D2*
G1X1962Y8113D1*
G1X2008Y8104D2*
G1X1962Y8104D1*
G1X2038Y8086D2*
G1X1962Y8086D1*
G1X2172Y8086D2*
G1X2095Y8086D1*
G1X2149Y8077D2*
G1X1962Y8077D1*
G1X2127Y8068D2*
G1X1962Y8068D1*
G1X2104Y8059D2*
G1X1962Y8059D1*
G1X2082Y8050D2*
G1X1962Y8050D1*
G1X2077Y8041D2*
G1X1962Y8041D1*
G1X2074Y8032D2*
G1X1962Y8032D1*
G1X2071Y8023D2*
G1X1962Y8023D1*
G1X2068Y8014D2*
G1X1962Y8014D1*
G1X2065Y8005D2*
G1X1962Y8005D1*
G1X2062Y7996D2*
G1X1962Y7996D1*
G1X2059Y7987D2*
G1X1962Y7987D1*
G1X2056Y7978D2*
G1X1962Y7978D1*
G1X2053Y7969D2*
G1X1962Y7969D1*
G1X2050Y7960D2*
G1X1962Y7960D1*
G1X2047Y7951D2*
G1X1962Y7951D1*
G1X2705Y8680D2*
G1X2338Y8680D1*
G1X2203Y8581D2*
G1X1962Y8581D1*
G1X2155Y7924D2*
G1X1962Y7924D1*
G1X2150Y7915D2*
G1X1962Y7915D1*
G1X2146Y7906D2*
G1X1962Y7906D1*
G1X2141Y7897D2*
G1X1962Y7897D1*
G1X2137Y7888D2*
G1X1962Y7888D1*
G1X2133Y7879D2*
G1X1962Y7879D1*
G1X2128Y7870D2*
G1X1962Y7870D1*
G1X2124Y7861D2*
G1X1962Y7861D1*
G1X2120Y7852D2*
G1X1962Y7852D1*
G1X2141Y7843D2*
G1X1962Y7843D1*
G1X2162Y7834D2*
G1X1962Y7834D1*
G1X2183Y7825D2*
G1X1962Y7825D1*
G1X2204Y7816D2*
G1X1962Y7816D1*
G1X2714Y8671D2*
G1X2334Y8671D1*
G1X2004Y7807D2*
G1X1962Y7807D1*
G1X2007Y7798D2*
G1X1962Y7798D1*
G1X2011Y7789D2*
G1X1962Y7789D1*
G1X2014Y7780D2*
G1X1962Y7780D1*
G1X2018Y7771D2*
G1X1962Y7771D1*
G1X2022Y7762D2*
G1X1962Y7762D1*
G1X2025Y7753D2*
G1X1962Y7753D1*
G1X3011Y7942D2*
G1X2067Y7942D1*
G1X2032Y7735D2*
G1X1962Y7735D1*
G1X2036Y7726D2*
G1X1962Y7726D1*
G1X2040Y7717D2*
G1X1962Y7717D1*
G1X2043Y7708D2*
G1X1962Y7708D1*
G1X2047Y7699D2*
G1X1962Y7699D1*
G1X2050Y7690D2*
G1X1962Y7690D1*
G1X2054Y7681D2*
G1X1962Y7681D1*
G1X2058Y7672D2*
G1X1962Y7672D1*
G1X2061Y7663D2*
G1X1962Y7663D1*
G1X2065Y7654D2*
G1X1962Y7654D1*
G1X2068Y7645D2*
G1X1962Y7645D1*
G1X2072Y7636D2*
G1X1962Y7636D1*
G1X2076Y7627D2*
G1X1962Y7627D1*
G1X2079Y7618D2*
G1X1962Y7618D1*
G1X2083Y7609D2*
G1X1962Y7609D1*
G1X2086Y7600D2*
G1X1962Y7600D1*
G1X2090Y7591D2*
G1X1962Y7591D1*
G1X2094Y7582D2*
G1X1962Y7582D1*
G1X2097Y7573D2*
G1X1962Y7573D1*
G1X2101Y7564D2*
G1X1962Y7564D1*
G1X2104Y7555D2*
G1X1962Y7555D1*
G1X2108Y7546D2*
G1X1962Y7546D1*
G1X2112Y7537D2*
G1X1962Y7537D1*
G1X2115Y7528D2*
G1X1962Y7528D1*
G1X2122Y7510D2*
G1X1962Y7510D1*
G1X2126Y7501D2*
G1X1962Y7501D1*
G1X2130Y7492D2*
G1X1962Y7492D1*
G1X2133Y7483D2*
G1X1962Y7483D1*
G1X2137Y7474D2*
G1X1962Y7474D1*
G1X2140Y7465D2*
G1X1962Y7465D1*
G1X2144Y7456D2*
G1X1962Y7456D1*
G1X2148Y7447D2*
G1X1962Y7447D1*
G1X2151Y7438D2*
G1X1962Y7438D1*
G1X2155Y7429D2*
G1X1962Y7429D1*
G1X2158Y7420D2*
G1X1962Y7420D1*
G1X2162Y7411D2*
G1X1962Y7411D1*
G1X2166Y7402D2*
G1X1962Y7402D1*
G1X2169Y7393D2*
G1X1962Y7393D1*
G1X2173Y7384D2*
G1X1962Y7384D1*
G1X2176Y7375D2*
G1X1962Y7375D1*
G1X2180Y7366D2*
G1X1962Y7366D1*
G1X2184Y7357D2*
G1X1962Y7357D1*
G1X2187Y7348D2*
G1X1962Y7348D1*
G1X2191Y7339D2*
G1X1962Y7339D1*
G1X2194Y7330D2*
G1X1962Y7330D1*
G1X2198Y7321D2*
G1X1962Y7321D1*
G1X2202Y7312D2*
G1X1962Y7312D1*
G1X2205Y7303D2*
G1X1962Y7303D1*
G1X2209Y7294D2*
G1X1962Y7294D1*
G1X2212Y7285D2*
G1X1962Y7285D1*
G1X2216Y7276D2*
G1X1962Y7276D1*
G1X2220Y7267D2*
G1X1962Y7267D1*
G1X2223Y7258D2*
G1X1962Y7258D1*
G1X2227Y7249D2*
G1X1962Y7249D1*
G1X2230Y7240D2*
G1X1962Y7240D1*
G1X2234Y7231D2*
G1X1962Y7231D1*
G1X2238Y7222D2*
G1X1962Y7222D1*
G1X2241Y7213D2*
G1X1962Y7213D1*
G1X2245Y7204D2*
G1X1962Y7204D1*
G1X2248Y7195D2*
G1X1962Y7195D1*
G1X2252Y7186D2*
G1X1962Y7186D1*
G1X2256Y7177D2*
G1X1962Y7177D1*
G1X2259Y7168D2*
G1X1962Y7168D1*
G1X2263Y7159D2*
G1X1962Y7159D1*
G1X2266Y7150D2*
G1X1962Y7150D1*
G1X2270Y7141D2*
G1X1962Y7141D1*
G1X2274Y7132D2*
G1X1962Y7132D1*
G1X2277Y7123D2*
G1X1962Y7123D1*
G1X2281Y7114D2*
G1X1962Y7114D1*
G1X2284Y7105D2*
G1X1962Y7105D1*
G1X2288Y7096D2*
G1X1962Y7096D1*
G1X2292Y7087D2*
G1X1962Y7087D1*
G1X2295Y7078D2*
G1X1962Y7078D1*
G1X2299Y7069D2*
G1X1962Y7069D1*
G1X2302Y7060D2*
G1X1962Y7060D1*
G1X2306Y7051D2*
G1X1962Y7051D1*
G1X2310Y7042D2*
G1X1962Y7042D1*
G1X2313Y7033D2*
G1X1962Y7033D1*
G1X2317Y7024D2*
G1X1962Y7024D1*
G1X2320Y7015D2*
G1X1962Y7015D1*
G1X2324Y7006D2*
G1X1962Y7006D1*
G1X2328Y6997D2*
G1X1962Y6997D1*
G1X2331Y6988D2*
G1X1962Y6988D1*
G1X2122Y8151D2*
G1X2122Y8066D1*
G1X2113Y8129D2*
G1X2113Y8062D1*
G1X2104Y8107D2*
G1X2104Y8059D1*
G1X2095Y8085D2*
G1X2095Y8055D1*
G1X2086Y8082D2*
G1X2086Y8052D1*
G1X2077Y8083D2*
G1X2077Y8039D1*
G1X2068Y8084D2*
G1X2068Y8012D1*
G1X2059Y8084D2*
G1X2059Y7985D1*
G1X2050Y8085D2*
G1X2050Y7958D1*
G1X2437Y8870D2*
G1X2437Y8192D1*
G1X2419Y8877D2*
G1X2419Y8185D1*
G1X2410Y8855D2*
G1X2410Y8181D1*
G1X2401Y8833D2*
G1X2401Y8177D1*
G1X2392Y8811D2*
G1X2392Y8174D1*
G1X2383Y8789D2*
G1X2383Y8170D1*
G1X2374Y8767D2*
G1X2374Y8167D1*
G1X2365Y8745D2*
G1X2365Y8163D1*
G1X2356Y8723D2*
G1X2356Y8159D1*
G1X2347Y8701D2*
G1X2347Y8156D1*
G1X2338Y8679D2*
G1X2338Y8152D1*
G1X2329Y8657D2*
G1X2329Y8149D1*
G1X2320Y8635D2*
G1X2320Y8145D1*
G1X2311Y8613D2*
G1X2311Y8142D1*
G1X2302Y8591D2*
G1X2302Y8138D1*
G1X2293Y8569D2*
G1X2293Y8134D1*
G1X2284Y8547D2*
G1X2284Y8131D1*
G1X2275Y8525D2*
G1X2275Y8127D1*
G1X2266Y8503D2*
G1X2266Y8124D1*
G1X2257Y8481D2*
G1X2257Y8120D1*
G1X2248Y8459D2*
G1X2248Y8116D1*
G1X2239Y8437D2*
G1X2239Y8113D1*
G1X2230Y8415D2*
G1X2230Y8109D1*
G1X2221Y8393D2*
G1X2221Y8106D1*
G1X2212Y8371D2*
G1X2212Y8102D1*
G1X2203Y8349D2*
G1X2203Y8098D1*
G1X2194Y8327D2*
G1X2194Y8095D1*
G1X2185Y8305D2*
G1X2185Y8091D1*
G1X2176Y8283D2*
G1X2176Y8088D1*
G1X2167Y8261D2*
G1X2167Y8084D1*
G1X2158Y8239D2*
G1X2158Y8080D1*
G1X2149Y8217D2*
G1X2149Y8077D1*
G1X2140Y8195D2*
G1X2140Y8073D1*
G1X2131Y8173D2*
G1X2131Y8070D1*
G1X2428Y8875D2*
G1X2428Y8188D1*
G1X3004Y8070D2*
G1X3004Y7830D1*
G1X2995Y8130D2*
G1X2995Y7770D1*
G1X2986Y8175D2*
G1X2986Y7725D1*
G1X2977Y8212D2*
G1X2977Y7688D1*
G1X2968Y8244D2*
G1X2968Y7656D1*
G1X2959Y8272D2*
G1X2959Y7628D1*
G1X2905Y8404D2*
G1X2905Y8379D1*
G1X2896Y8422D2*
G1X2896Y8375D1*
G1X2887Y8439D2*
G1X2887Y8372D1*
G1X2878Y8455D2*
G1X2878Y8368D1*
G1X2869Y8470D2*
G1X2869Y8365D1*
G1X2860Y8485D2*
G1X2860Y8361D1*
G1X2851Y8500D2*
G1X2851Y8357D1*
G1X2842Y8514D2*
G1X2842Y8354D1*
G1X2833Y8527D2*
G1X2833Y8350D1*
G1X2824Y8540D2*
G1X2824Y8347D1*
G1X2815Y8553D2*
G1X2815Y8343D1*
G1X2806Y8565D2*
G1X2806Y8339D1*
G1X2797Y8577D2*
G1X2797Y8336D1*
G1X2788Y8588D2*
G1X2788Y8332D1*
G1X2779Y8599D2*
G1X2779Y8329D1*
G1X2770Y8610D2*
G1X2770Y8325D1*
G1X2761Y8621D2*
G1X2761Y8321D1*
G1X2752Y8631D2*
G1X2752Y8318D1*
G1X2122Y7512D2*
G1X2122Y6934D1*
G1X2104Y7557D2*
G1X2104Y6932D1*
G1X2086Y7602D2*
G1X2086Y6930D1*
G1X2068Y7647D2*
G1X2068Y6928D1*
G1X2320Y8919D2*
G1X2320Y8867D1*
G1X2302Y8925D2*
G1X2302Y8823D1*
G1X2284Y8931D2*
G1X2284Y8779D1*
G1X2266Y8936D2*
G1X2266Y8735D1*
G1X2248Y8941D2*
G1X2248Y8691D1*
G1X2230Y8945D2*
G1X2230Y8647D1*
G1X2212Y8950D2*
G1X2212Y8603D1*
G1X2194Y8954D2*
G1X2194Y8559D1*
G1X2176Y8957D2*
G1X2176Y8515D1*
G1X2158Y8960D2*
G1X2158Y8471D1*
G1X2140Y8963D2*
G1X2140Y8427D1*
G1X2248Y7197D2*
G1X2248Y6959D1*
G1X2896Y7519D2*
G1X2896Y7478D1*
G1X2878Y7527D2*
G1X2878Y7445D1*
G1X2860Y7535D2*
G1X2860Y7414D1*
G1X2842Y7543D2*
G1X2842Y7386D1*
G1X2716Y7597D2*
G1X2716Y7230D1*
G1X2698Y7604D2*
G1X2698Y7213D1*
G1X2680Y7612D2*
G1X2680Y7196D1*
G1X2662Y7620D2*
G1X2662Y7179D1*
G1X2644Y7628D2*
G1X2644Y7164D1*
G1X2626Y7635D2*
G1X2626Y7149D1*
G1X2608Y7643D2*
G1X2608Y7135D1*
G1X2590Y7651D2*
G1X2590Y7122D1*
G1X2572Y7658D2*
G1X2572Y7109D1*
G1X2554Y7666D2*
G1X2554Y7097D1*
G1X2536Y7674D2*
G1X2536Y7085D1*
G1X2518Y7682D2*
G1X2518Y7074D1*
G1X2500Y7689D2*
G1X2500Y7063D1*
G1X2482Y7697D2*
G1X2482Y7053D1*
G1X2473Y7701D2*
G1X2473Y7048D1*
G1X2892Y8428D2*
G1X2235Y8428D1*
G1X2985Y8176D2*
G1X2652Y8176D1*
G1X2987Y8167D2*
G1X2630Y8167D1*
G1X2989Y8158D2*
G1X2607Y8158D1*
G1X2991Y8149D2*
G1X2585Y8149D1*
G1X2993Y8140D2*
G1X2562Y8140D1*
G1X2994Y8131D2*
G1X2540Y8131D1*
G1X2996Y8122D2*
G1X2517Y8122D1*
G1X2998Y8113D2*
G1X2495Y8113D1*
G1X2999Y8104D2*
G1X2472Y8104D1*
G1X3000Y8095D2*
G1X2450Y8095D1*
G1X3002Y8086D2*
G1X2427Y8086D1*
G1X3003Y8077D2*
G1X2405Y8077D1*
G1X3004Y8068D2*
G1X2382Y8068D1*
G1X3005Y8059D2*
G1X2360Y8059D1*
G1X3006Y8050D2*
G1X2337Y8050D1*
G1X3007Y8041D2*
G1X2315Y8041D1*
G1X3007Y8032D2*
G1X2292Y8032D1*
G1X3008Y8023D2*
G1X2270Y8023D1*
G1X3009Y8014D2*
G1X2247Y8014D1*
G1X3009Y8005D2*
G1X2225Y8005D1*
G1X3010Y7996D2*
G1X2202Y7996D1*
G1X3010Y7987D2*
G1X2180Y7987D1*
G1X3010Y7978D2*
G1X2157Y7978D1*
G1X3010Y7969D2*
G1X2135Y7969D1*
G1X3011Y7960D2*
G1X2112Y7960D1*
G1X3011Y7951D2*
G1X2090Y7951D1*
G1X2122Y7964D2*
G1X2122Y7717D1*
G1X2113Y7960D2*
G1X2113Y7738D1*
G1X2104Y7956D2*
G1X2104Y7758D1*
G1X2095Y7953D2*
G1X2095Y7779D1*
G1X2086Y7949D2*
G1X2086Y7800D1*
G1X2077Y7946D2*
G1X2077Y7813D1*
G1X2068Y7942D2*
G1X2068Y7813D1*
G1X2059Y7938D2*
G1X2059Y7813D1*
G1X2041Y8086D2*
G1X2041Y7813D1*
G1X2032Y8086D2*
G1X2032Y7813D1*
G1X2023Y8087D2*
G1X2023Y7813D1*
G1X2014Y8088D2*
G1X2014Y7813D1*
G1X2347Y7755D2*
G1X2347Y7200D1*
G1X2338Y7759D2*
G1X2338Y7220D1*
G1X2329Y7763D2*
G1X2329Y7241D1*
G1X2320Y7766D2*
G1X2320Y7262D1*
G1X2311Y7770D2*
G1X2311Y7282D1*
G1X2302Y7774D2*
G1X2302Y7303D1*
G1X2293Y7778D2*
G1X2293Y7324D1*
G1X2284Y7782D2*
G1X2284Y7345D1*
G1X2275Y7786D2*
G1X2275Y7365D1*
G1X2266Y7790D2*
G1X2266Y7386D1*
G1X2257Y7793D2*
G1X2257Y7407D1*
G1X2248Y7797D2*
G1X2248Y7427D1*
G1X2239Y7801D2*
G1X2239Y7448D1*
G1X2014Y7782D2*
G1X2014Y6925D1*
G1X2698Y8687D2*
G1X2698Y8296D1*
G1X2689Y8696D2*
G1X2689Y8293D1*
G1X2680Y8704D2*
G1X2680Y8289D1*
G1X2671Y8712D2*
G1X2671Y8285D1*
G1X2662Y8720D2*
G1X2662Y8282D1*
G1X2653Y8728D2*
G1X2653Y8278D1*
G1X2644Y8736D2*
G1X2644Y8275D1*
G1X2329Y8916D2*
G1X2329Y8889D1*
G1X2635Y8743D2*
G1X2635Y8271D1*
G1X2311Y8922D2*
G1X2311Y8845D1*
G1X2626Y8751D2*
G1X2626Y8267D1*
G1X2293Y8928D2*
G1X2293Y8801D1*
G1X2617Y8758D2*
G1X2617Y8264D1*
G1X2275Y8933D2*
G1X2275Y8757D1*
G1X2608Y8765D2*
G1X2608Y8260D1*
G1X2257Y8938D2*
G1X2257Y8713D1*
G1X2599Y8771D2*
G1X2599Y8257D1*
G1X2239Y8943D2*
G1X2239Y8669D1*
G1X22844Y6925D2*
G75*
G3X22867Y6925I12J1025D1*
G1X22867Y8975D2*
G3X22844Y8975I-12J-1025D1*
G1X22493Y6987D2*
G3X22844Y6925I351J963D1*
G1X21914Y7518D2*
G3X22412Y7020I930J432D1*
G1X22414Y8881D2*
G3X21914Y8382I430J-931D1*
G1X21819Y7950D2*
G3X21880Y7600I1025J-2D1*
G1X21883Y8307D2*
G3X21819Y7950I961J-357D1*
G1X22844Y8975D2*
G3X22490Y8912I0J-1025D1*
G1X2951Y7607D2*
G3X3010Y7950I-965J343D1*
G1X3011Y7950D2*
G3X2951Y8295I-1025J-1D1*
G1X1986Y8975D2*
G3X1962Y8975I-12J-1025D1*
G1X1986Y6925D2*
G3X2332Y6985I0J1025D1*
G1X1962Y6925D2*
G3X1986Y6925I12J1025D1*
G1X2915Y8383D2*
G3X2419Y8879I-929J-433D1*
G1X2423Y7023D2*
G3X2912Y7512I-437J926D1*
G1X2338Y8912D2*
G3X1986Y8974I-351J-962D1*
G74*
G54D501*
G1X42450Y24090D3*
G1X42870Y24090D3*
G1X35130Y22250D3*
G1X34710Y22250D3*
G1X35830Y22250D3*
G1X36250Y22250D3*
G1X27430Y1180D3*
G1X27010Y1180D3*
G1X31420Y1170D3*
G1X31840Y1170D3*
G1X26990Y18160D3*
G1X27410Y18160D3*
G1X10240Y12460D3*
G1X10240Y12040D3*
G1X10830Y12460D3*
G1X10830Y12040D3*
G1X27890Y20580D3*
G1X27890Y21000D3*
G1X31020Y20580D3*
G1X31020Y21000D3*
G1X27020Y8430D3*
G1X27440Y8430D3*
G1X27450Y8990D3*
G1X27030Y8990D3*
G1X40640Y4830D3*
G1X40220Y4830D3*
G1X40210Y4240D3*
G1X40630Y4240D3*
G1X31130Y18160D3*
G1X31550Y18160D3*
G1X44560Y2860D3*
G1X44560Y3280D3*
G1X43950Y15370D3*
G1X43950Y14950D3*
G1X17050Y13610D3*
G1X17050Y13190D3*
G1X31420Y2340D3*
G1X31840Y2340D3*
G1X33420Y2340D3*
G1X33000Y2340D3*
G1X41760Y16740D3*
G1X41760Y17160D3*
G1X19400Y13180D3*
G1X19400Y13600D3*
G1X27430Y2350D3*
G1X27010Y2350D3*
G1X18140Y18620D3*
G1X17720Y18620D3*
G1X-240Y18120D3*
G1X-240Y17700D3*
G1X-2440Y5610D3*
G1X-2020Y5610D3*
G1X46980Y19720D3*
G1X46560Y19720D3*
G1X47100Y3610D3*
G1X46680Y3610D3*
G1X34660Y6620D3*
G1X34240Y6620D3*
G1X39100Y20280D3*
G1X38680Y20280D3*
G1X-380Y5100D3*
G1X-380Y5520D3*
G1X34680Y13550D3*
G1X34260Y13550D3*
G1X34700Y11220D3*
G1X34280Y11220D3*
G1X34670Y8910D3*
G1X34250Y8910D3*
G1X42340Y5360D3*
G1X42340Y5780D3*
G1X42330Y1170D3*
G1X41910Y1170D3*
G1X39470Y13620D3*
G1X39470Y13200D3*
G1X41780Y5360D3*
G1X41780Y5780D3*
G1X17610Y13610D3*
G1X17610Y13190D3*
G1X44620Y18490D3*
G1X44620Y18070D3*
G1X300Y450D3*
G1X300Y30D3*
G1X24410Y2220D3*
G1X24830Y2220D3*
G1X22280Y22500D3*
G1X22280Y22920D3*
G1X4390Y4570D3*
G1X3970Y4570D3*
G1X2520Y25880D3*
G1X2520Y25460D3*
G54D502*
G1X3610Y18900D3*
G1X1250Y18900D3*
G54D503*
G1X400Y5070D3*
G1X400Y5570D3*
G1X400Y6070D3*
G1X2360Y6070D3*
G1X2360Y5570D3*
G1X2360Y5070D3*
G1X2360Y4570D3*
G54D504*
G1X400Y4570D3*
G54D509*
G1X40350Y19540D3*
G1X40350Y18190D3*
G54D510*
G1X41370Y20320D3*
G1X40810Y20320D3*
G1X32160Y6650D3*
G1X32720Y6650D3*
G1X43160Y10790D3*
G1X43720Y10790D3*
G54D512*
G1X40660Y12580D3*
G1X41960Y12580D3*
G54D513*
G1X43560Y24220D3*
G1X44400Y24220D3*
G1X23190Y19540D3*
G1X23190Y18700D3*
G1X43410Y12480D3*
G1X43410Y11640D3*
G54D514*
G1X735Y25455D3*
G1X-615Y25455D3*
G1X31740Y20600D3*
G1X33090Y20600D3*
G1X28610Y20600D3*
G1X29960Y20600D3*
G54D517*
G1X11540Y18848D3*
G1X11540Y19950D3*
G1X1730Y25750D3*
G1X1730Y24648D3*
G54D518*
G1X-2140Y18550D3*
G1X-2140Y16790D3*
G54D519*
G1X43774Y17437D3*
G1X43518Y17437D3*
G1X43262Y17437D3*
G1X43262Y19142D3*
G1X43518Y19142D3*
G1X43774Y19142D3*
G1X44030Y19142D3*
G54D520*
G1X44030Y17437D3*
G54D522*
G1X41358Y2680D3*
G1X41358Y3074D3*
G1X41358Y3271D3*
G1X41358Y3468D3*
G1X41358Y3665D3*
G1X41358Y3862D3*
G1X41358Y4059D3*
G1X43524Y4059D3*
G1X43524Y3862D3*
G1X43524Y3665D3*
G1X43524Y3468D3*
G1X43524Y3271D3*
G1X43524Y2877D3*
G1X43524Y2680D3*
G54D523*
G1X41358Y2877D3*
G1X43524Y3074D3*
G54D524*
G1X42933Y2287D3*
G1X42736Y2287D3*
G1X42539Y2287D3*
G1X42342Y2287D3*
G1X42145Y2287D3*
G1X41948Y2287D3*
G1X41751Y2287D3*
G1X41751Y4452D3*
G1X41948Y4452D3*
G1X42145Y4452D3*
G1X42539Y4452D3*
G1X42736Y4452D3*
G1X42933Y4452D3*
G1X43130Y4452D3*
G54D525*
G1X43130Y2287D3*
G1X42342Y4452D3*
G54D526*
G1X41343Y9367D3*
G1X41343Y9111D3*
G1X41343Y8855D3*
G1X40005Y8855D3*
G1X40005Y9111D3*
G1X40005Y9367D3*
G1X40005Y9623D3*
G1X41373Y7957D3*
G1X41373Y7701D3*
G1X41373Y7445D3*
G1X40035Y7445D3*
G1X40035Y7701D3*
G1X40035Y7957D3*
G1X40035Y8213D3*
G1X34280Y15026D3*
G1X34280Y15282D3*
G1X34280Y15538D3*
G1X35618Y15538D3*
G1X35618Y15282D3*
G1X35618Y15026D3*
G1X35618Y14770D3*
G1X34291Y16396D3*
G1X34291Y16652D3*
G1X34291Y16908D3*
G1X35630Y16908D3*
G1X35630Y16652D3*
G1X35630Y16396D3*
G1X35630Y16140D3*
G1X34291Y17726D3*
G1X34291Y17982D3*
G1X34291Y18238D3*
G1X35630Y18238D3*
G1X35630Y17982D3*
G1X35630Y17726D3*
G1X35630Y17470D3*
G1X34291Y19056D3*
G1X34291Y19312D3*
G1X34291Y19568D3*
G1X35630Y19568D3*
G1X35630Y19312D3*
G1X35630Y19056D3*
G1X35630Y18800D3*
G54D527*
G1X41343Y9623D3*
G1X41373Y8213D3*
G1X34280Y14770D3*
G1X34291Y16140D3*
G1X34291Y17470D3*
G1X34291Y18800D3*
G54D528*
G1X41764Y17650D3*
G1X41508Y17650D3*
G1X41252Y17650D3*
G1X41252Y18988D3*
G1X41508Y18988D3*
G1X41764Y18988D3*
G1X42020Y18988D3*
G54D529*
G1X42020Y17650D3*
G54D538*
G1X22080Y17380D3*
G1X21686Y17380D3*
G1X21293Y17380D3*
G1X20899Y17380D3*
G1X20505Y17380D3*
G1X20111Y17380D3*
G1X19718Y17380D3*
G1X19324Y17380D3*
G1X18930Y17380D3*
G1X18537Y17380D3*
G1X18143Y17380D3*
G1X17749Y17380D3*
G1X17356Y17380D3*
G1X16962Y17380D3*
G1X16568Y17380D3*
G1X16174Y17380D3*
G1X15781Y17380D3*
G1X15387Y17380D3*
G1X14993Y17380D3*
G1X14600Y17380D3*
G1X14206Y17380D3*
G1X13812Y17380D3*
G1X13419Y17380D3*
G1X13025Y17380D3*
G1X12631Y17380D3*
G1X12237Y17380D3*
G1X11844Y17380D3*
G1X11450Y17380D3*
G1X11056Y17380D3*
G1X10663Y17380D3*
G1X10269Y17380D3*
G1X9875Y17380D3*
G1X9482Y17380D3*
G1X9088Y17380D3*
G1X8694Y17380D3*
G1X8300Y17380D3*
G1X7907Y17380D3*
G1X7513Y17380D3*
G1X7119Y17380D3*
G1X6726Y17380D3*
G1X6332Y17380D3*
G1X5938Y17380D3*
G1X5545Y17380D3*
G1X5151Y17380D3*
G1X4757Y17380D3*
G1X4363Y17380D3*
G1X3970Y17380D3*
G1X3576Y17380D3*
G1X3182Y17380D3*
G1X2789Y17380D3*
G54D545*
G1X43010Y23220D3*
G1X43510Y23220D3*
G1X44010Y23220D3*
G1X44010Y21100D3*
G1X43510Y21100D3*
G1X43010Y21100D3*
G1X42510Y21100D3*
G1X2480Y21440D3*
G1X1980Y21440D3*
G1X1480Y21440D3*
G1X1480Y23560D3*
G1X1980Y23560D3*
G1X2480Y23560D3*
G1X2980Y23560D3*
G54D546*
G1X42510Y23220D3*
G1X2980Y21440D3*
G54D547*
G1X43100Y14950D3*
G1X43100Y14450D3*
G1X43100Y13950D3*
G1X40980Y13950D3*
G1X40980Y14450D3*
G1X40980Y14950D3*
G1X40980Y15450D3*
G54D548*
G1X43100Y15450D3*
G54D550*
G1X42507Y0D3*
G1X42704Y0D3*
G1X42901Y0D3*
G1X43098Y0D3*
G1X43295Y0D3*
G1X43492Y0D3*
G1X43689Y0D3*
G1X43689Y-984D3*
G1X43492Y-984D3*
G1X43295Y-984D3*
G1X43098Y-984D3*
G1X42901Y-984D3*
G1X42704Y-984D3*
G1X42507Y-984D3*
G1X42310Y-984D3*
G54D552*
G1X34457Y20249D3*
G1X34457Y20446D3*
G1X34457Y20643D3*
G1X34457Y20840D3*
G1X34457Y21037D3*
G1X34457Y21234D3*
G1X34457Y21431D3*
G1X35441Y21431D3*
G1X35441Y21234D3*
G1X35441Y21037D3*
G1X35441Y20840D3*
G1X35441Y20643D3*
G1X35441Y20446D3*
G1X35441Y20249D3*
G1X35441Y20053D3*
G54D556*
G1X38180Y6390D3*
G1X38180Y6140D3*
G1X38180Y5890D3*
G1X38180Y5640D3*
G1X38180Y5390D3*
G1X38180Y5140D3*
G1X38180Y4890D3*
G1X35680Y4890D3*
G1X35680Y5140D3*
G1X35680Y5390D3*
G1X35680Y5640D3*
G1X35680Y5890D3*
G1X35680Y6140D3*
G1X35680Y6390D3*
G1X35680Y6640D3*
G1X38180Y13290D3*
G1X38180Y13040D3*
G1X38180Y12790D3*
G1X38180Y12540D3*
G1X38180Y12290D3*
G1X38180Y12040D3*
G1X38180Y11790D3*
G1X35680Y11790D3*
G1X35680Y12040D3*
G1X35680Y12290D3*
G1X35680Y12540D3*
G1X35680Y12790D3*
G1X35680Y13040D3*
G1X35680Y13290D3*
G1X35680Y13540D3*
G1X38180Y10990D3*
G1X38180Y10740D3*
G1X38180Y10490D3*
G1X38180Y10240D3*
G1X38180Y9990D3*
G1X38180Y9740D3*
G1X38180Y9490D3*
G1X35680Y9490D3*
G1X35680Y9740D3*
G1X35680Y9990D3*
G1X35680Y10240D3*
G1X35680Y10490D3*
G1X35680Y10740D3*
G1X35680Y10990D3*
G1X35680Y11240D3*
G1X38180Y8690D3*
G1X38180Y8440D3*
G1X38180Y8190D3*
G1X38180Y7940D3*
G1X38180Y7690D3*
G1X38180Y7440D3*
G1X38180Y7190D3*
G1X35680Y7190D3*
G1X35680Y7440D3*
G1X35680Y7690D3*
G1X35680Y7940D3*
G1X35680Y8190D3*
G1X35680Y8440D3*
G1X35680Y8690D3*
G1X35680Y8940D3*
G54D557*
G1X38180Y6640D3*
G1X38180Y13540D3*
G1X38180Y11240D3*
G1X38180Y8940D3*
G54D558*
G1X4770Y3080D3*
G1X4770Y2580D3*
G1X4770Y2080D3*
G1X4770Y1580D3*
G1X4770Y1080D3*
G1X4770Y580D3*
G1X4770Y80D3*
G1X1150Y80D3*
G1X1150Y580D3*
G1X1150Y1080D3*
G1X1150Y1580D3*
G1X1150Y2080D3*
G1X1150Y2580D3*
G1X1150Y3080D3*
G1X1150Y3580D3*
G54D559*
G1X4770Y3580D3*
G54D560*
G1X38910Y15814D3*
G1X38910Y15558D3*
G1X38910Y15302D3*
G1X38910Y15046D3*
G1X38910Y14790D3*
G1X38910Y14534D3*
G1X38910Y14278D3*
G1X36801Y14278D3*
G1X36801Y14534D3*
G1X36801Y14790D3*
G1X36801Y15046D3*
G1X36801Y15302D3*
G1X36801Y15558D3*
G1X36801Y15814D3*
G1X36801Y16070D3*
G54D561*
G1X38910Y16070D3*
G54D562*
G1X38900Y17340D3*
G1X38400Y17340D3*
G1X37900Y17340D3*
G1X37400Y17340D3*
G1X36900Y17340D3*
G1X36400Y17340D3*
G1X36400Y19300D3*
G1X36900Y19300D3*
G1X37400Y19300D3*
G1X37900Y19300D3*
G1X38400Y19300D3*
G1X38900Y19300D3*
G1X39400Y19300D3*
G54D563*
G1X39400Y17340D3*
G54D710*
G1X42440Y3368D3*
G54D726*
G1X34457Y20053D3*
G54D732*
G1X42310Y0D3*
G54D508*
G1X29231Y15902D3*
G1X29231Y15508D3*
G1X29231Y15114D3*
G1X29231Y14721D3*
G1X29231Y14327D3*
G1X29231Y13933D3*
G1X29231Y13540D3*
G1X29231Y13146D3*
G1X29231Y12752D3*
G1X29231Y12358D3*
G1X29231Y11965D3*
G1X29231Y11571D3*
G1X29231Y11178D3*
G1X29231Y10784D3*
G1X29231Y10390D3*
G1X29231Y9996D3*
G1X29231Y9603D3*
G1X29231Y9209D3*
G1X29231Y8815D3*
G1X29231Y8422D3*
G1X29231Y8028D3*
G1X29231Y7634D3*
G1X29231Y7241D3*
G1X29231Y6847D3*
G1X29231Y6453D3*
G1X29231Y6059D3*
G1X31239Y15705D3*
G1X31239Y15311D3*
G1X31239Y14918D3*
G1X31239Y14524D3*
G1X31239Y14130D3*
G1X31239Y13736D3*
G1X31239Y13343D3*
G1X31239Y12949D3*
G1X31239Y12555D3*
G1X31239Y12162D3*
G1X31239Y11768D3*
G1X31239Y11374D3*
G1X31239Y10981D3*
G1X31239Y10587D3*
G1X31239Y10193D3*
G1X31239Y9800D3*
G1X31239Y9406D3*
G1X31239Y9012D3*
G1X31239Y8619D3*
G1X31239Y8225D3*
G1X31239Y7831D3*
G1X31239Y7437D3*
G1X31239Y7044D3*
G1X31239Y6650D3*
G1X31239Y6256D3*
G54D700*
G1X30254Y5036D3*
G1X30254Y16925D3*
M2*
