%
T1C0.0080F200S100
X-003660Y007240
X-003420Y014500
X-003390Y015050
X-003190Y007220
X-002918Y012222
X-002740Y007220
X-002460Y018020
X-002460Y019130
X-002140Y007220
X-001810Y023950
X-000790Y024410
X-000560Y013050
X000020Y-000270
X000020Y000580
X000280Y021760
X000280Y022240
X000420Y024750
X000450Y012770
X000480Y001080
X000480Y001580
X000480Y002080
X000500Y022778
X000520Y003580
X000660Y018840
X000680Y021700
X000700Y-002560
X000800Y012770
X000825Y022975
X000920Y008960
X001150Y003810
X001160Y006220
X001220Y007620
X001250Y019730
X001330Y004200
X001330Y005460
X001450Y025450
X001490Y008360
X001590Y010810
X001600Y019680
X001620Y010040
X001700Y025040
X001720Y025450
X001750Y020600
X001800Y003080
X001810Y015510
X001840Y001080
X001840Y002080
X001940Y020800
X001980Y019680
X001990Y011510
X002030Y013950
X002040Y006280
X002050Y010410
X002144Y022384
X002240Y001590
X002240Y001950
X002330Y011510
X002430Y022380
X002540Y024160
X002540Y024560
X002560Y017380
X002600Y010410
X002680Y004100
X002680Y020790
X002760Y016110
X002790Y024790
X002940Y025080
X002980Y020580
X003020Y013950
X003060Y019280
X003064Y011856
X003080Y018500
X003150Y005730
X003182Y017820
X003190Y023740
X003200Y023740
X003240Y020290
X003243Y000220
X003260Y009260
X003360Y006560
X003437Y009020
X003640Y008660
X003437Y009660
X003691Y001770
X003740Y013970
X003800Y010010
X003833Y021451
X003940Y022460
X003970Y018000
X004030Y010250
X004040Y002330
X004070Y022770
X004080Y003580
X004100Y000580
X004100Y001080
X004250Y023030
X004363Y015910
X004400Y024040
X004510Y023430
X004757Y013970
X004770Y003870
X004927Y021060
X005060Y016340
X005220Y023240
X005380Y022560
X005440Y001080
X005450Y000580
X005460Y002080
X005545Y016940
X005640Y002580
X005820Y003080
X006080Y001580
X006140Y018180
X006620Y014920
X006630Y018590
X006630Y019890
X006720Y016090
X006730Y016570
X006780Y022940
X006870Y012010
X007110Y017815
X007119Y016945
X007220Y012360
X007300Y014680
X007300Y015180
X007320Y018990
X007870Y020660
X008300Y017815
X008440Y019980
X008570Y004740
X008800Y017815
X008820Y005251
X009010Y005460
X009088Y017815
X009150Y013550
X009370Y008028
X009482Y017815
X009650Y012510
X009650Y013550
X009735Y006115
X010010Y010370
X010030Y016440
X010140Y008020
X010160Y012720
X010210Y016250
X010240Y011670
X010580Y001430
X010663Y016945
X010680Y018211
X010760Y003407
X010830Y011780
X010830Y012720
X010870Y016070
X011000Y008366
X011040Y013520
X011056Y016945
X011110Y015295
X011110Y015610
X011120Y004630
X011290Y007736
X011290Y010190
X011290Y014350
X011450Y016945
X011470Y010571
X011470Y014035
X011470Y006791
X011470Y007106
X011470Y007421
X011470Y008051
X011470Y008681
X011470Y009990
X011470Y014665
X011470Y015090
X011540Y018461
X011670Y002510
X011844Y017820
X011900Y002740
X012090Y016945
X012150Y003550
X012230Y001290
X012237Y018180
X012720Y010660
X012720Y011830
X012765Y009311
X012810Y015545
X012830Y014980
X012890Y014665
X012900Y011516
X012940Y009819
X012980Y015295
X013015Y009370
X013025Y016945
X013080Y012145
X013120Y010580
X013080Y014350
X013124Y007106
X013340Y022048
X013410Y016410
X013450Y016945
X013548Y021858
X013618Y016233
X013746Y006543
X013812Y017815
X013860Y016945
X013960Y002320
X013970Y003920
X014190Y005010
X014230Y003190
X014368Y008750
X014368Y009560
X014368Y009941
X014368Y014530
X014370Y007421
X014418Y008051
X014418Y015610
X014420Y011447
X014420Y012077
X014420Y012392
X014490Y019160
X014550Y008440
X014600Y008930
X014600Y016860
X014780Y018110
X014840Y014530
X014910Y002320
X014910Y002930
X015080Y017815
X015300Y004524
X015387Y016945
X015480Y010580
X015690Y011610
X015480Y013560
X015480Y013930
X015700Y016945
X015710Y014160
X015780Y013420
X015860Y006050
X015960Y014440
X015960Y015650
X015960Y016830
X015990Y003523
X016040Y005491
X016045Y002342
X016045Y002736
X016150Y014190
X016220Y010370
X016290Y013920
X016321Y015080
X016390Y015571
X016403Y014330
X016440Y011660
X016520Y016200
X016542Y016580
X016568Y016945
X016571Y015180
X016571Y015950
X016580Y012700
X016580Y014100
X016770Y017815
X016935Y001161
X016935Y001554
X016935Y001948
X016935Y003650
X016935Y006279
X016935Y006673
X016935Y007066
X016935Y007460
X016940Y010370
X016962Y016945
X017050Y004704
X017080Y007870
X017200Y016768
X017220Y004280
X017220Y005295
X017226Y001751
X017226Y002145
X017226Y006082
X017226Y007263
X017300Y010370
X017300Y012580
X017360Y014142
X017420Y012930
X017420Y013870
X017510Y017992
X017610Y014070
X017697Y017815
X017720Y012930
X017940Y011660
X017947Y017815
X018116Y005120
X018116Y005688
X018116Y006483
X018116Y006863
X018120Y012820
X018140Y003326
X018197Y014120
X018140Y017990
X018140Y018370
X018220Y004710
X018394Y017992
X018400Y007560
X018510Y002932
X018560Y002539
X018827Y013962
X018940Y008410
X018940Y011610
X019000Y016945
X019080Y013870
X019120Y012820
X019400Y012820
X019440Y008190
X019440Y011610
X019510Y018060
X019627Y015374
X019630Y015965
X019630Y016359
X019640Y014150
X019718Y017815
X019740Y019160
X019790Y013040
X019810Y016162
X019827Y015571
X019861Y016720
X019920Y007950
X019940Y010370
X020020Y015780
X020090Y016140
X020110Y014150
X020111Y016945
X020505Y017865
X020660Y001960
X020660Y021480
X020870Y014940
X020899Y017815
X021293Y017865
X021320Y011430
X021320Y013750
X021320Y015300
X021320Y015900
X021320Y016900
X021520Y002330
X021570Y011570
X021610Y020990
X021686Y017815
X021720Y014590
X021880Y020740
X021900Y016760
X022080Y016945
X022140Y013933
X022240Y000430
X022300Y021700
X022540Y023110
X022640Y019360
X022860Y021070
X022930Y017980
X023190Y017810
X023300Y005850
X023330Y013000
X023810Y021660
X023840Y021260
X024130Y012617
X024150Y002220
X024250Y010550
X024420Y012070
X024710Y018860
X025090Y002220
X025110Y008880
X025180Y020661
X025200Y012440
X025370Y020838
X025410Y012070
X025440Y012820
X025560Y001000
X025790Y012070
X025820Y009280
X025900Y019440
X026270Y018440
X026290Y005960
X026450Y014510
X026450Y018160
X026470Y002350
X026470Y003110
X026590Y007630
X026770Y008770
X026770Y010690
X026780Y006220
X026790Y007090
X026820Y001700
X027020Y010690
X027060Y018420
X027060Y019590
X027140Y005020
X027240Y001440
X027270Y010690
X027390Y006040
X027510Y005780
X027570Y011751
X027690Y002350
X027890Y019420
X028010Y004946
X028030Y007280
X028030Y008990
X028030Y009500
X028070Y012780
X028030Y015070
X028260Y001250
X028262Y016590
X028260Y018250
X028260Y019600
X028290Y013360
X028460Y015900
X028540Y007603
X028543Y006847
X028540Y008990
X028540Y009389
X028610Y022450
X028720Y006640
X028720Y007030
X028720Y007280
X028720Y007780
X028720Y011751
X028720Y013180
X028720Y014320
X028720Y015114
X028727Y011390
X028727Y015910
X028830Y003990
X029650Y003375
X029735Y015902
X029960Y009500
X029985Y007634
X029985Y008028
X029990Y006850
X029990Y008500
X029990Y009780
X029990Y012570
X030020Y013350
X029990Y014140
X029990Y014570
X029990Y015070
X030045Y011390
X030070Y012820
X030120Y003810
X030167Y015280
X030170Y005900
X030170Y006670
X030250Y011760
X030250Y013570
X030270Y014110
X030300Y010960
X030350Y009740
X030420Y018080
X030451Y012949
X030520Y003375
X030550Y010981
X030553Y009980
X030600Y006200
X030630Y013471
X030681Y008570
X030691Y014100
X030730Y007430
X030734Y009320
X030730Y009800
X030730Y010800
X030734Y011768
X030774Y012555
X030800Y018160
X030880Y001170
X030980Y004940
X031020Y020320
X031050Y005570
X031320Y003990
X031470Y019590
X031610Y001650
X031700Y018420
X031743Y011770
X031750Y010690
X031743Y015280
X031860Y011520
X031914Y006230
X031914Y009984
X031920Y015790
X031924Y015097
X032111Y009807
X032121Y012042
X032121Y015274
X032172Y003510
X032318Y011865
X032440Y017720
X032440Y021150
X032480Y010590
X032480Y010840
X032480Y011110
X032515Y015097
X032540Y006200
X032550Y015880
X032680Y001830
X032700Y015274
X032720Y004946
X032773Y011070
X032800Y021290
X032920Y016090
X033070Y011740
X033080Y001340
X033220Y007385
X033340Y015320
X033470Y010470
X033470Y018870
X033610Y020710
X033680Y000970
X033737Y008370
X033740Y008772
X033737Y009030
X033750Y013471
X033753Y013930
X033750Y015273
X033760Y017540
X033800Y021110
X033840Y004230
X033850Y007510
X033870Y006110
X033900Y016908
X033920Y009210
X033927Y014290
X033930Y006620
X033930Y013668
X033933Y015450
X033945Y018310
X033945Y018800
X033945Y019056
X034100Y005040
X034110Y012880
X034130Y013844
X034130Y019840
X034140Y003380
X034160Y007810
X034250Y009920
X034320Y000690
X034340Y011640
X034380Y005180
X034380Y005640
X034380Y010170
X034410Y006920
X034430Y018590
X034440Y009740
X034440Y012100
X034450Y013810
X034460Y019844
X034470Y010850
X034530Y014510
X034620Y013077
X034530Y022690
X034630Y015282
X034638Y016396
X034638Y017470
X034638Y017726
X034639Y016140
X034660Y006930
X034680Y004180
X034700Y005890
X034700Y011630
X034790Y007330
X034790Y009170
X034840Y009920
X034840Y010660
X034790Y012160
X034910Y018710
X034940Y013470
X034940Y020700
X034951Y021387
X035000Y013040
X035000Y014630
X035010Y009700
X035030Y012290
X035060Y004900
X035060Y012790
X035110Y017730
X035120Y022550
X035140Y017982
X035272Y015282
X035290Y006920
X035290Y013820
X035360Y014561
X035480Y022620
X035756Y014561
X035768Y017247
X035790Y013810
X035820Y022540
X035870Y014140
X035870Y018800
X036000Y009170
X036006Y014510
X036125Y019820
X036170Y016490
X036195Y016180
X036201Y015450
X036201Y015814
X036300Y008190
X036300Y008940
X036310Y011240
X036330Y013290
X036332Y020700
X036350Y011930
X036400Y018110
X036410Y006650
X036430Y009780
X036520Y001850
X036540Y021930
X036600Y010990
X036630Y004900
X036635Y008370
X036640Y017880
X036660Y021420
X036640Y022240
X036675Y010740
X036680Y010280
X036700Y020030
X036720Y012110
X036750Y001620
X036810Y005630
X036890Y018110
X036900Y016720
X036970Y008170
X037030Y021170
X037080Y018470
X037140Y017860
X037150Y007230
X037180Y009380
X037180Y009990
X037190Y007490
X037200Y012290
X037300Y006140
X037330Y007940
X037350Y006770
X037360Y021730
X037380Y012040
X037380Y013780
X037390Y018090
X037400Y016720
X037401Y015280
X037445Y011750
X037540Y005890
X037540Y007690
X037560Y012540
X037560Y012790
X037560Y013540
X037580Y015040
X037630Y004660
X037640Y017900
X037650Y016720
X037690Y021730
X037760Y014534
X037790Y009200
X037790Y011500
X037890Y018110
X037900Y016720
X037950Y020370
X038060Y014534
X038130Y015046
X038140Y017880
X038130Y018780
X038305Y021100
X038310Y014150
X038310Y014790
X038310Y015558
X038310Y015814
X038318Y021770
X038400Y016720
X038400Y018100
X038548Y021540
X038800Y006130
X038800Y006420
X038800Y008270
X038800Y009380
X038800Y010990
X038800Y011240
X038800Y012650
X038840Y020700
X038900Y017960
X038910Y016350
X039010Y007910
X039090Y013040
X039110Y018137
X039180Y004900
X039250Y009056
X039250Y011420
X039280Y013280
X039360Y005370
X039400Y017960
X039430Y009367
X039460Y007451
X039470Y013880
X039540Y003271
X039570Y020180
X039590Y007701
X039627Y007110
X039630Y009111
X039630Y009623
X039650Y014060
X039680Y006860
X039720Y003451
X039740Y006610
X039920Y016900
X039940Y005370
X039950Y004830
X040310Y016720
X040320Y003980
X040350Y017720
X040350Y020150
X040410Y012110
X040530Y013160
X040560Y003074
X040590Y008020
X040620Y000990
X040630Y017640
X040640Y016000
X040650Y016720
X040670Y011590
X040710Y003800
X040890Y004240
X040910Y002877
X040913Y002430
X040980Y007701
X040996Y009367
X041000Y019110
X041010Y019520
X041030Y006110
X041200Y018400
X041205Y008552
X041210Y023380
X041290Y001410
X041373Y011453
X041380Y012020
X041390Y021509
X041440Y004900
X041500Y019330
X041510Y012580
X041520Y005550
X041540Y021770
X041540Y024120
X041610Y015220
X041650Y001170
X041680Y020620
X041690Y004897
X041720Y007445
X041720Y007940
X041751Y001590
X041780Y006090
X041857Y020828
X041880Y015640
X041928Y010811
X041948Y001840
X041948Y004897
X041982Y021490
X042000Y014200
X042010Y003770
X042010Y009111
X042020Y017300
X042020Y018330
X042030Y016930
X042034Y001590
X042040Y022350
X042130Y006200
X042200Y-001690
X042240Y007610
X042260Y014220
X042300Y017740
X042300Y018520
X042310Y000490
X042510Y023800
X042519Y010781
X042540Y012940
X042540Y018780
X042580Y020180
X042600Y005370
X042660Y024350
X042690Y-001474
X042704Y000490
X042728Y010520
X042810Y004890
X042880Y001170
X042880Y001420
X042901Y-001667
X042933Y001780
X042987Y005080
X043060Y012980
X043060Y018600
X043096Y011256
X043130Y001600
X043140Y024480
X043171Y-001770
X043260Y012050
X043262Y019900
X043260Y022660
X043295Y000960
X043300Y016440
X043310Y001350
X043327Y025080
X043348Y-001590
X043350Y017950
X043350Y018580
X043480Y011130
X043490Y001140
X043492Y-000490
X043518Y016250
X043520Y015770
X043530Y020510
X043580Y012060
X043600Y018660
X043608Y001530
X043700Y016440
X043760Y013910
X043890Y011410
X043890Y013130
X043898Y-000770
X043898Y000100
X043930Y015960
X043930Y016210
X043960Y024520
X043969Y002680
X043990Y023990
X043990Y024270
X044010Y020520
X044019Y003449
X044030Y018030
X044078Y001060
X044280Y002877
X044340Y014780
X044350Y018590
X044381Y004420
X044390Y003862
X044459Y003599
X044530Y021270
X044544Y021880
X044560Y002600
X044560Y020270
X044625Y017810
X044720Y023610
X044760Y021040
X044820Y025260
X044920Y003050
X045140Y-003730
X045140Y-002790
X045200Y-002130
X045260Y025650
X045260Y026590
X045400Y012259
X045510Y017168
X045700Y016991
X046420Y017840
X046440Y010880
X046440Y012062
X046440Y012312
X046790Y019980
X046910Y003350
X047650Y017840
T12C0.1250F200S100
X-001240Y002540
X-001240Y020760
X021126Y019160
X024275Y004200
X024800Y007400
X024800Y015900
X029561Y001642
X039601Y021662
X045740Y022760
X045750Y000540
T4C0.0350F200S100
X-001000Y004600
X-001000Y005600
X-001000Y006600
X-001000Y016700
X-001000Y017700
X-001000Y018700
X007470Y021640
X007470Y022427
X008257Y021640
X008257Y022427
X009045Y021640
X009045Y022427
X044710Y007150
X044710Y008150
X044710Y009150
X044710Y010150
X044710Y011150
X044710Y012150
X044710Y013150
X044710Y014150
X044710Y015150
X044710Y016150
X045490Y018700
X045490Y019700
X045490Y020700
X045500Y002600
X045500Y003600
X045500Y004600
X047710Y007150
X047710Y008150
X047710Y009150
X047710Y010150
X047710Y011150
X047710Y012150
X047710Y013150
X047710Y014150
X047710Y015150
X047710Y016150
T6C0.0400F200S100
X-003480Y-002050
X-003480Y-001050
X-003480Y-000050
X005206Y011110
X-003480Y023350
X-003480Y024350
X-003480Y025350
X006190Y011110
X023620Y000418
X023630Y022881
X024620Y000418
X024630Y022881
X025620Y000418
X025630Y022881
X027930Y021880
X028930Y021880
X029930Y021880
X030930Y021880
X031930Y021880
X032930Y021880
X047990Y-004050
X047990Y-003050
X047990Y-002050
X047990Y025350
X047990Y026350
X047990Y027350
T11C0.0670F200S100
X-002378Y-002503
X-001708Y000403
X-002378Y022897
X-001708Y025803
X023167Y002190
X023177Y021779
X026073Y001521
X026083Y021110
X046218Y-004503
X046888Y-001597
X046218Y024897
X046888Y027803
T7C0.0460F200S100
X006368Y022034
X010147Y022034
X030254Y005469
X030254Y016492
T5C0.0360F200S100
X-002740Y-001560
X-002740Y-000560
X-002740Y023860
X-002740Y024860
X012860Y018610
X012860Y019610
X013860Y018610
X013860Y019610
X014860Y018610
X014860Y019610
X015860Y018610
X015860Y019610
X016860Y018610
X016860Y019610
X024120Y001270
X024180Y022030
X025120Y001270
X025180Y022030
X047210Y-003560
X047210Y-002560
X047210Y025860
X047210Y026860
T10C0.0669F200S100
X-002416Y013696
X-002416Y015271
X-000448Y015822
X000300Y014090
X000733Y015232
T2C0.0200F200S100
X027010Y003230
X027510Y003230
X027510Y016930
X027010Y016930
X028010Y003230
X028510Y003230
X028510Y016930
X028010Y016930
X029010Y003230
X031420Y003230
X031420Y016930
X029010Y016930
X031920Y003230
X032420Y003230
X032420Y016930
X031920Y016930
X032920Y003230
X033420Y003230
X033420Y016930
X032920Y016930
T9C0.0610F200S100
X001986Y007950
X022844Y007950
T3C0.0220F200S100
X-000917Y007670
X-000917Y008457
X-000917Y009245
X-000917Y010032
X-000917Y010819
X-000917Y011607
X-000917Y012394
X-000130Y007670
X-000130Y008457
X-000130Y009245
X-000130Y010032
X-000130Y010819
X-000130Y011607
X-000130Y012394
X006400Y002953
X006400Y003740
X007187Y002953
X007187Y003740
X007975Y002953
X007975Y003740
X008762Y002953
X008762Y003740
X009549Y002953
X009549Y003740
X010337Y002953
X010337Y003740
X011804Y000506
X011804Y001294
X035060Y002953
X035060Y003740
X035847Y002953
X035847Y003740
X036635Y002953
X036635Y003740
X037310Y022650
X037422Y002953
X037422Y003740
X038097Y022650
X038209Y002953
X038209Y003740
X038997Y002953
X038997Y003740
T8C0.0500F200S100
X012329Y016200
X012919Y006201
T13C0.1500F200S100
X014700Y001180
M30
