*
G04 Mass Parameters ***
*
G04 Image ***
*
%INC:\PROJECTS\RAGOBOTS_HW\ROBOT\HW\BODY\DESIGN\RAGOBOT.SSB*%
%ICAS*%
%MOIN*%
%IPPOS*%
%ASAXBY*%
G74*%FSLAN2X34Y34*%
*
G04 Aperture Definitions ***
*
%AMTHERMAL68*
1,1,0.0389,0,0,*
1,0,0.0370,0,0,*
21,0,0.0390,0.1000,0,0,45.0*
21,0,0.0390,0.1000,0,0,135.0*%
%AMTHERMAL73*
1,1,0.0174,0,0,*
1,0,0.0155,0,0,*
21,0,0.0175,0.1000,0,0,45.0*
21,0,0.0175,0.1000,0,0,135.0*%
%AMTHERMAL77*
1,1,0.0174,0,0,*
1,0,0.0155,0,0,*
21,0,0.0175,0.1000,0,0,46.2*
21,0,0.0175,0.1000,0,0,136.2*%
%AMTHERMAL164*
1,1,0.0409,0,0,*
1,0,0.0390,0,0,*
21,0,0.0410,0.1000,0,0,225.0*
21,0,0.0410,0.1000,0,0,315.0*%
%AMTHERMAL165*
1,1,0.0708,0,0,*
1,0,0.0689,0,0,*
21,0,0.0709,0.1000,0,0,315.0*
21,0,0.0709,0.1000,0,0,45.0*%
%AMTHERMAL166*
1,1,0.0419,0,0,*
1,0,0.0400,0,0,*
21,0,0.0420,0.1000,0,0,315.0*
21,0,0.0420,0.1000,0,0,45.0*%
%AMTHERMAL167*
1,1,0.0708,0,0,*
1,0,0.0689,0,0,*
21,0,0.0709,0.1000,0,0,135.0*
21,0,0.0709,0.1000,0,0,225.0*%
%AMTHERMAL168*
1,1,0.0419,0,0,*
1,0,0.0400,0,0,*
21,0,0.0420,0.1000,0,0,135.0*
21,0,0.0420,0.1000,0,0,225.0*%
%AMTHERMAL169*
1,1,0.0708,0,0,*
1,0,0.0689,0,0,*
21,0,0.0709,0.1000,0,0,225.0*
21,0,0.0709,0.1000,0,0,315.0*%
%AMTHERMAL170*
1,1,0.0419,0,0,*
1,0,0.0400,0,0,*
21,0,0.0420,0.1000,0,0,225.0*
21,0,0.0420,0.1000,0,0,315.0*%
%AMTHERMAL171*
1,1,0.0708,0,0,*
1,0,0.0689,0,0,*
21,0,0.0709,0.1000,0,0,45.0*
21,0,0.0709,0.1000,0,0,135.0*%
%AMTHERMAL172*
1,1,0.0419,0,0,*
1,0,0.0400,0,0,*
21,0,0.0420,0.1000,0,0,45.0*
21,0,0.0420,0.1000,0,0,135.0*%
%AMTHERMAL174*
1,1,0.1039,0,0,*
1,0,0.1020,0,0,*
21,0,0.1040,0.1000,0,0,45.0*
21,0,0.1040,0.1000,0,0,135.0*%
%AMTHERMAL175*
1,1,0.1039,0,0,*
1,0,0.1020,0,0,*
21,0,0.1040,0.1000,0,0,225.0*
21,0,0.1040,0.1000,0,0,315.0*%
%AMTHERMAL178*
1,1,0.0409,0,0,*
1,0,0.0390,0,0,*
21,0,0.0410,0.1000,0,0,45.0*
21,0,0.0410,0.1000,0,0,135.0*%
%AMTHERMAL179*
1,1,0.0354,0,0,*
1,0,0.0335,0,0,*
21,0,0.0355,0.1000,0,0,135.0*
21,0,0.0355,0.1000,0,0,225.0*%
%AMTHERMAL199*
1,1,0.0259,0,0,*
1,0,0.0240,0,0,*
21,0,0.0260,0.1000,0,0,315.0*
21,0,0.0260,0.1000,0,0,45.0*%
%AMTHERMAL200*
1,1,0.0409,0,0,*
1,0,0.0390,0,0,*
21,0,0.0410,0.1000,0,0,315.0*
21,0,0.0410,0.1000,0,0,45.0*%
%AMTHERMAL202*
1,1,0.0389,0,0,*
1,0,0.0370,0,0,*
21,0,0.0390,0.1000,0,0,315.0*
21,0,0.0390,0.1000,0,0,45.0*%
%AMTHERMAL269*
1,1,0.0459,0,0,*
1,0,0.0440,0,0,*
21,0,0.0460,0.1000,0,0,225.0*
21,0,0.0460,0.1000,0,0,315.0*%
%AMTHERMAL273*
1,1,0.0399,0,0,*
1,0,0.0380,0,0,*
21,0,0.0400,0.1000,0,0,315.0*
21,0,0.0400,0.1000,0,0,45.0*%
%AMTHERMAL275*
1,1,0.0719,0,0,*
1,0,0.0700,0,0,*
21,0,0.0720,0.1000,0,0,315.0*
21,0,0.0720,0.1000,0,0,45.0*%
%AMTHERMAL276*
1,1,0.0459,0,0,*
1,0,0.0440,0,0,*
21,0,0.0460,0.1000,0,0,315.0*
21,0,0.0460,0.1000,0,0,45.0*%
%AMTHERMAL278*
1,1,0.0719,0,0,*
1,0,0.0700,0,0,*
21,0,0.0720,0.1000,0,0,135.0*
21,0,0.0720,0.1000,0,0,225.0*%
%AMTHERMAL279*
1,1,0.0459,0,0,*
1,0,0.0440,0,0,*
21,0,0.0460,0.1000,0,0,135.0*
21,0,0.0460,0.1000,0,0,225.0*%
%AMTHERMAL281*
1,1,0.0719,0,0,*
1,0,0.0700,0,0,*
21,0,0.0720,0.1000,0,0,225.0*
21,0,0.0720,0.1000,0,0,315.0*%
%AMTHERMAL282*
1,1,0.0719,0,0,*
1,0,0.0700,0,0,*
21,0,0.0720,0.1000,0,0,45.0*
21,0,0.0720,0.1000,0,0,135.0*%
%AMTHERMAL286*
1,1,0.0409,0,0,*
1,0,0.0390,0,0,*
21,0,0.0410,0.1000,0,0,135.0*
21,0,0.0410,0.1000,0,0,225.0*%
%AMTHERMAL296*
1,1,0.0299,0,0,*
1,0,0.0280,0,0,*
21,0,0.0300,0.1000,0,0,135.0*
21,0,0.0300,0.1000,0,0,225.0*%
%AMTHERMAL302*
1,1,0.0174,0,0,*
1,0,0.0155,0,0,*
21,0,0.0175,0.1000,0,0,46.3*
21,0,0.0175,0.1000,0,0,136.3*%
%AMTHERMAL386*
1,1,0.0174,0,0,*
1,0,0.0155,0,0,*
21,0,0.0175,0.1000,0,0,47.0*
21,0,0.0175,0.1000,0,0,137.0*%
%AMTHERMAL453*
1,1,0.0439,0,0,*
1,0,0.0420,0,0,*
21,0,0.0440,0.1000,0,0,225.0*
21,0,0.0440,0.1000,0,0,315.0*%
%AMTHERMAL454*
1,1,0.0709,0,0,*
1,0,0.0690,0,0,*
21,0,0.0710,0.1000,0,0,315.0*
21,0,0.0710,0.1000,0,0,45.0*%
%AMTHERMAL455*
1,1,0.0439,0,0,*
1,0,0.0420,0,0,*
21,0,0.0440,0.1000,0,0,315.0*
21,0,0.0440,0.1000,0,0,45.0*%
%AMTHERMAL456*
1,1,0.0709,0,0,*
1,0,0.0690,0,0,*
21,0,0.0710,0.1000,0,0,135.0*
21,0,0.0710,0.1000,0,0,225.0*%
%AMTHERMAL457*
1,1,0.0439,0,0,*
1,0,0.0420,0,0,*
21,0,0.0440,0.1000,0,0,135.0*
21,0,0.0440,0.1000,0,0,225.0*%
%AMTHERMAL458*
1,1,0.0709,0,0,*
1,0,0.0690,0,0,*
21,0,0.0710,0.1000,0,0,225.0*
21,0,0.0710,0.1000,0,0,315.0*%
%AMTHERMAL459*
1,1,0.0709,0,0,*
1,0,0.0690,0,0,*
21,0,0.0710,0.1000,0,0,45.0*
21,0,0.0710,0.1000,0,0,135.0*%
%AMTHERMAL460*
1,1,0.0439,0,0,*
1,0,0.0420,0,0,*
21,0,0.0440,0.1000,0,0,45.0*
21,0,0.0440,0.1000,0,0,135.0*%
%AMTHERMAL461*
1,1,0.1289,0,0,*
1,0,0.1270,0,0,*
21,0,0.1290,0.1000,0,0,45.0*
21,0,0.1290,0.1000,0,0,135.0*%
%AMTHERMAL462*
1,1,0.1289,0,0,*
1,0,0.1270,0,0,*
21,0,0.1290,0.1000,0,0,225.0*
21,0,0.1290,0.1000,0,0,315.0*%
%AMTHERMAL463*
1,1,0.0399,0,0,*
1,0,0.0380,0,0,*
21,0,0.0400,0.1000,0,0,45.0*
21,0,0.0400,0.1000,0,0,135.0*%
%AMTHERMAL464*
1,1,0.0399,0,0,*
1,0,0.0380,0,0,*
21,0,0.0400,0.1000,0,0,225.0*
21,0,0.0400,0.1000,0,0,315.0*%
%AMTHERMAL465*
1,1,0.0289,0,0,*
1,0,0.0270,0,0,*
21,0,0.0290,0.1000,0,0,135.0*
21,0,0.0290,0.1000,0,0,225.0*%
%AMTHERMAL466*
1,1,0.0174,0,0,*
1,0,0.0155,0,0,*
21,0,0.0175,0.1000,0,0,45.3*
21,0,0.0175,0.1000,0,0,135.3*%
%AMTHERMAL468*
1,1,0.0174,0,0,*
1,0,0.0155,0,0,*
21,0,0.0175,0.1000,0,0,45.1*
21,0,0.0175,0.1000,0,0,135.1*%
%AMTHERMAL470*
1,1,0.0399,0,0,*
1,0,0.0380,0,0,*
21,0,0.0400,0.1000,0,0,135.0*
21,0,0.0400,0.1000,0,0,225.0*%
%ADD10C,0.1750*%
%ADD11O,0.0940X0.0250*%
%ADD12R,0.0940X0.0250*%
%ADD13R,0.1181X0.1181*%
%ADD14O,0.0118X0.0472*%
%ADD15O,0.0472X0.0118*%
%ADD16R,0.0472X0.0118*%
%ADD17R,0.0780X0.0720*%
%ADD18R,0.0720X0.0780*%
%ADD19C,0.0580*%
%ADD20R,0.0580X0.0580*%
%ADD21R,0.0600X0.0800*%
%ADD22R,0.0800X0.0600*%
%ADD23R,0.1575X0.1181*%
%ADD24R,0.0220X0.0220*%
%ADD25R,0.1200X0.0760*%
%ADD26R,0.1420X0.0720*%
%ADD27R,0.0400X0.0480*%
%ADD28R,0.0480X0.0400*%
%ADD29C,0.0620*%
%ADD30C,0.1700*%
%ADD31C,0.1450*%
%ADD32R,0.0315X0.0315*%
%ADD33C,0.0472*%
%ADD34C,0.1771*%
%ADD35C,0.0750*%
%ADD36R,0.0750X0.0750*%
%ADD37O,0.0860X0.0250*%
%ADD38R,0.0860X0.0250*%
%ADD39O,0.0680X0.0130*%
%ADD40R,0.0680X0.0130*%
%ADD41O,0.1000X0.0250*%
%ADD42R,0.1000X0.0250*%
%ADD43O,0.0250X0.1000*%
%ADD44R,0.0250X0.1000*%
%ADD45C,0.0787*%
%ADD46C,0.1100*%
%ADD47R,0.0480X0.0740*%
%ADD48R,0.3149X0.2362*%
%ADD49R,0.1968X0.2362*%
%ADD50C,0.0250*%
%ADD51C,0.0250*%
%ADD52C,0.0100*%
%ADD53C,0.0250*%
%ADD54C,0.0300*%
%ADD55C,0.0120*%
%ADD56C,0.0200*%
%ADD57C,0.0118*%
%ADD58C,0.0080*%
%ADD59C,0.0150*%
%ADD60R,0.1141X0.0354*%
%ADD61R,0.0708X0.0157*%
%ADD62C,0.0010*%
%ADD63C,0.2100*%
%ADD64C,0.0950*%
%ADD65R,0.0950X0.0950*%
%ADD66C,0.1000*%
%ADD67C,0.1900*%
%ADD68THERMAL68*%
%ADD69C,0.0900*%
%ADD70R,0.0900X0.0900*%
%ADD71C,0.0800*%
%ADD72R,0.1100X0.1100*%
%ADD73THERMAL73*%
%ADD74C,0.0600*%
%ADD75C,0.0500*%
%ADD76C,0.0600*%
%ADD77THERMAL77*%
%ADD78C,0.0780*%
%ADD79R,0.0780X0.0780*%
%ADD80C,0.0700*%
%ADD81C,0.1550*%
%ADD82C,0.0500*%
%ADD83C,0.0500*%
%ADD84C,0.0670*%
%ADD85C,0.1650*%
%ADD86C,0.1200*%
%ADD87R,0.1142X0.0354*%
%ADD88C,0.1260*%
%ADD89C,0.0060*%
%ADD90C,0.0039*%
%ADD91C,0.0070*%
%ADD92C,0.0098*%
%ADD93C,0.0050*%
%ADD94C,0.0130*%
%ADD95C,0.0130*%
%ADD96O,0.0302X0.0787*%
%ADD97O,0.0787X0.0302*%
%ADD98R,0.0787X0.0302*%
%ADD99O,0.0160X0.0700*%
%ADD100R,0.0160X0.0700*%
%ADD101O,0.0394X0.0181*%
%ADD102R,0.0394X0.0181*%
%ADD103O,0.0181X0.0394*%
%ADD104R,0.0181X0.0394*%
%ADD105R,0.1181X0.1575*%
%ADD106R,0.1200X0.0800*%
%ADD107R,0.0320X0.0380*%
%ADD108R,0.0551X0.1417*%
%ADD109R,0.0560X0.0920*%
%ADD110R,0.0960X0.0960*%
%ADD111R,0.0400X0.0560*%
%ADD112R,0.0480X0.0560*%
%ADD113O,0.0149X0.0409*%
%ADD114R,0.0149X0.0409*%
%ADD115R,0.0315X0.0118*%
%ADD116R,0.0118X0.0315*%
%ADD117C,0.0866*%
%ADD118R,0.0760X0.1200*%
%ADD119C,0.0394*%
%ADD120R,0.1102X0.0964*%
%ADD121C,0.0200*%
%ADD122R,0.0200X0.0200*%
%ADD123R,0.0800X0.1200*%
%ADD124R,0.0620X0.0620*%
%ADD125O,0.0250X0.0860*%
%ADD126R,0.0250X0.0860*%
%ADD127O,0.0130X0.0680*%
%ADD128R,0.0130X0.0680*%
%ADD129R,0.0472X0.1260*%
%ADD130C,0.0480*%
%ADD131C,0.0550*%
%ADD132C,0.0748*%
%ADD133R,0.1299X0.1220*%
%ADD134R,0.1476X0.0315*%
%ADD135O,0.0250X0.0940*%
%ADD136R,0.0250X0.0940*%
%ADD137O,0.0160X0.0940*%
%ADD138R,0.0160X0.0940*%
%ADD139O,0.0940X0.0160*%
%ADD140R,0.0940X0.0160*%
%ADD141O,0.0160X0.0900*%
%ADD142R,0.0160X0.0900*%
%ADD143O,0.0590X0.0110*%
%ADD144R,0.0590X0.0110*%
%ADD145O,0.0110X0.0590*%
%ADD146R,0.0110X0.0590*%
%ADD147C,0.0433*%
%ADD148R,0.0433X0.0433*%
%ADD149C,0.0420*%
%ADD150R,0.0420X0.0420*%
%ADD151O,0.0138X0.0551*%
%ADD152R,0.0138X0.0551*%
%ADD153R,0.0600X0.0600*%
%ADD154R,0.1000X0.0640*%
%ADD155R,0.0380X0.0320*%
%ADD156R,0.0748X0.1890*%
%ADD157R,0.0640X0.1000*%
%ADD158R,0.2000X0.6300*%
%ADD159R,0.0118X0.0512*%
%ADD160R,0.0708X0.0866*%
%ADD161R,0.0748X0.0472*%
%ADD162O,0.0900X0.0160*%
%ADD163R,0.0900X0.0160*%
%ADD164THERMAL164*%
%ADD165THERMAL165*%
%ADD166THERMAL166*%
%ADD167THERMAL167*%
%ADD168THERMAL168*%
%ADD169THERMAL169*%
%ADD170THERMAL170*%
%ADD171THERMAL171*%
%ADD172THERMAL172*%
%ADD173C,0.1142*%
%ADD174THERMAL174*%
%ADD175THERMAL175*%
%ADD176C,0.0820*%
%ADD177R,0.0820X0.0820*%
%ADD178THERMAL178*%
%ADD179THERMAL179*%
%ADD180C,0.0512*%
%ADD181R,0.0590X0.0590*%
%ADD182R,0.0250X0.0250*%
%ADD183R,0.0098X0.0512*%
%ADD184C,0.0079*%
%ADD185C,0.0197*%
%ADD186R,0.0302X0.0787*%
%ADD187R,0.1417X0.0551*%
%ADD188C,0.0020*%
%ADD189R,0.0720X0.0720*%
%ADD190R,0.0590X0.0236*%
%ADD191R,0.0708X0.0315*%
%ADD192R,0.0964X0.1102*%
%ADD193O,0.0551X0.0138*%
%ADD194R,0.0551X0.0138*%
%ADD195R,0.1890X0.0748*%
%ADD196C,0.0400*%
%ADD197R,0.0827X0.0551*%
%ADD198R,0.0551X0.0098*%
%ADD199THERMAL199*%
%ADD200THERMAL200*%
%ADD201C,0.0110*%
%ADD202THERMAL202*%
%ADD203R,0.0984X0.0984*%
%ADD204C,0.0830*%
%ADD205C,0.0650*%
%ADD206C,0.0400*%
%ADD207R,0.0400X0.0400*%
%ADD208O,0.0551X0.0122*%
%ADD209R,0.0551X0.0122*%
%ADD210C,0.1000*%
%ADD211C,0.0250*%
%ADD212C,0.0250*%
%ADD213C,0.0315*%
%ADD214C,0.0130*%
%ADD215C,0.0600*%
%ADD216O,0.0181X0.0394*%
%ADD217R,0.0181X0.0394*%
%ADD218O,0.0394X0.0181*%
%ADD219R,0.0394X0.0181*%
%ADD220R,0.0380X0.0320*%
%ADD221R,0.0640X0.1000*%
%ADD222R,0.0220X0.0220*%
%ADD223R,0.0760X0.1200*%
%ADD224O,0.0940X0.0250*%
%ADD225R,0.0940X0.0250*%
%ADD226C,0.1750*%
%ADD227C,0.0472*%
%ADD228R,0.1141X0.0354*%
%ADD229R,0.0708X0.0157*%
%ADD230C,0.0620*%
%ADD231R,0.0720X0.0720*%
%ADD232C,0.0580*%
%ADD233R,0.0580X0.0580*%
%ADD234O,0.0250X0.0940*%
%ADD235R,0.0250X0.0940*%
%ADD236R,0.2000X0.6300*%
%ADD237O,0.0860X0.0250*%
%ADD238R,0.0860X0.0250*%
%ADD239R,0.0118X0.0315*%
%ADD240R,0.0315X0.0118*%
%ADD241C,0.0866*%
%ADD242R,0.0118X0.0512*%
%ADD243R,0.0708X0.0866*%
%ADD244C,0.0830*%
%ADD245C,0.0550*%
%ADD246R,0.0827X0.0551*%
%ADD247R,0.0551X0.0098*%
%ADD248R,0.0320X0.0380*%
%ADD249C,0.1000*%
%ADD250R,0.0620X0.0620*%
%ADD251C,0.1771*%
%ADD252O,0.0250X0.0860*%
%ADD253R,0.0250X0.0860*%
%ADD254O,0.0680X0.0118*%
%ADD255R,0.0680X0.0118*%
%ADD256C,0.0650*%
%ADD257C,0.0800*%
%ADD258O,0.0940X0.0160*%
%ADD259R,0.0940X0.0160*%
%ADD260C,0.0400*%
%ADD261R,0.0400X0.0400*%
%ADD262C,0.0420*%
%ADD263R,0.0420X0.0420*%
%ADD264C,0.0250*%
%ADD265C,0.0320*%
%ADD266C,0.0350*%
%ADD267C,0.1750*%
%ADD268C,0.0866*%
%ADD269THERMAL269*%
%ADD270C,0.0800*%
%ADD271C,0.0780*%
%ADD272R,0.0780X0.0780*%
%ADD273THERMAL273*%
%ADD274R,0.0800X0.0800*%
%ADD275THERMAL275*%
%ADD276THERMAL276*%
%ADD277C,0.0800*%
%ADD278THERMAL278*%
%ADD279THERMAL279*%
%ADD280C,0.0800*%
%ADD281THERMAL281*%
%ADD282THERMAL282*%
%ADD283C,0.1142*%
%ADD284C,0.0780*%
%ADD285R,0.0780X0.0780*%
%ADD286THERMAL286*%
%ADD287C,0.0750*%
%ADD288R,0.0800X0.0800*%
%ADD289C,0.2100*%
%ADD290C,0.0820*%
%ADD291R,0.0820X0.0820*%
%ADD292C,0.1700*%
%ADD293C,0.0850*%
%ADD294C,0.0750*%
%ADD295C,0.1260*%
%ADD296THERMAL296*%
%ADD297C,0.0650*%
%ADD298R,0.0650X0.0650*%
%ADD299C,0.0500*%
%ADD300C,0.0500*%
%ADD301C,0.0500*%
%ADD302THERMAL302*%
%ADD303C,0.0800*%
%ADD304C,0.1150*%
%ADD305C,0.1142*%
%ADD306C,0.0780*%
%ADD307R,0.0780X0.0780*%
%ADD308C,0.0750*%
%ADD309C,0.1500*%
%ADD310C,0.1750*%
%ADD311C,0.0820*%
%ADD312C,0.0650*%
%ADD313O,0.0787X0.0302*%
%ADD314O,0.0302X0.0787*%
%ADD315R,0.0302X0.0787*%
%ADD316O,0.0160X0.0700*%
%ADD317R,0.0160X0.0700*%
%ADD318R,0.0984X0.0984*%
%ADD319O,0.0118X0.0472*%
%ADD320O,0.0472X0.0118*%
%ADD321R,0.0472X0.0118*%
%ADD322R,0.1181X0.1575*%
%ADD323R,0.0220X0.0220*%
%ADD324R,0.1200X0.0800*%
%ADD325R,0.0800X0.1200*%
%ADD326C,0.1750*%
%ADD327C,0.0472*%
%ADD328R,0.0380X0.0320*%
%ADD329R,0.1417X0.0551*%
%ADD330C,0.0620*%
%ADD331R,0.0320X0.0380*%
%ADD332R,0.0560X0.0920*%
%ADD333C,0.0580*%
%ADD334R,0.0580X0.0580*%
%ADD335R,0.0720X0.0720*%
%ADD336R,0.0400X0.0560*%
%ADD337R,0.0480X0.0560*%
%ADD338O,0.0149X0.0409*%
%ADD339R,0.0149X0.0409*%
%ADD340C,0.0866*%
%ADD341C,0.0830*%
%ADD342C,0.0550*%
%ADD343R,0.0590X0.0236*%
%ADD344R,0.0708X0.0315*%
%ADD345R,0.0964X0.1102*%
%ADD346R,0.0315X0.0118*%
%ADD347R,0.0118X0.0315*%
%ADD348C,0.0200*%
%ADD349R,0.0200X0.0200*%
%ADD350C,0.1000*%
%ADD351R,0.0620X0.0620*%
%ADD352C,0.1771*%
%ADD353O,0.0860X0.0250*%
%ADD354R,0.0860X0.0250*%
%ADD355R,0.0472X0.1260*%
%ADD356C,0.0650*%
%ADD357C,0.0800*%
%ADD358R,0.1299X0.1220*%
%ADD359R,0.1476X0.0315*%
%ADD360O,0.0940X0.0250*%
%ADD361R,0.0940X0.0250*%
%ADD362O,0.0940X0.0160*%
%ADD363R,0.0940X0.0160*%
%ADD364O,0.0160X0.0900*%
%ADD365R,0.0160X0.0900*%
%ADD366O,0.0590X0.0110*%
%ADD367R,0.0590X0.0110*%
%ADD368O,0.0110X0.0590*%
%ADD369R,0.0110X0.0590*%
%ADD370C,0.0400*%
%ADD371R,0.0400X0.0400*%
%ADD372C,0.0420*%
%ADD373R,0.0420X0.0420*%
%ADD374O,0.0551X0.0122*%
%ADD375R,0.0551X0.0122*%
%ADD376O,0.0250X0.0940*%
%ADD377R,0.0250X0.0940*%
%ADD378R,0.0600X0.0600*%
%ADD379R,0.0640X0.1000*%
%ADD380R,0.1890X0.0748*%
%ADD381C,0.0250*%
%ADD382C,0.0250*%
%ADD383C,0.1750*%
%ADD384C,0.0866*%
%ADD385C,0.0500*%
%ADD386THERMAL386*%
%ADD387C,0.1750*%
%ADD388C,0.0866*%
%ADD389C,0.0800*%
%ADD390O,0.0787X0.0302*%
%ADD391O,0.0302X0.0787*%
%ADD392R,0.0302X0.0787*%
%ADD393O,0.0160X0.0700*%
%ADD394R,0.0160X0.0700*%
%ADD395R,0.0984X0.0984*%
%ADD396O,0.0118X0.0472*%
%ADD397O,0.0472X0.0118*%
%ADD398R,0.0472X0.0118*%
%ADD399R,0.1181X0.1575*%
%ADD400R,0.1200X0.0800*%
%ADD401R,0.0800X0.1200*%
%ADD402C,0.0470*%
%ADD403R,0.1417X0.0551*%
%ADD404R,0.0560X0.0920*%
%ADD405R,0.0400X0.0560*%
%ADD406R,0.0480X0.0560*%
%ADD407O,0.0149X0.0409*%
%ADD408R,0.0149X0.0409*%
%ADD409C,0.0870*%
%ADD410R,0.0590X0.0236*%
%ADD411R,0.0708X0.0315*%
%ADD412R,0.0964X0.1102*%
%ADD413R,0.0250X0.0250*%
%ADD414R,0.0472X0.1260*%
%ADD415R,0.1299X0.1220*%
%ADD416R,0.1476X0.0315*%
%ADD417O,0.0160X0.0900*%
%ADD418R,0.0160X0.0900*%
%ADD419O,0.0590X0.0110*%
%ADD420R,0.0590X0.0110*%
%ADD421O,0.0110X0.0590*%
%ADD422R,0.0110X0.0590*%
%ADD423O,0.0551X0.0122*%
%ADD424R,0.0551X0.0122*%
%ADD425R,0.0600X0.0600*%
%ADD426R,0.1890X0.0748*%
%ADD427R,0.1142X0.0354*%
%ADD428R,0.0098X0.0512*%
%ADD429C,0.0460*%
%ADD430C,0.0669*%
%ADD431C,0.1023*%
%ADD432C,0.1500*%
%ADD433O,0.0680X0.0118*%
%ADD434R,0.0680X0.0118*%
%ADD435C,0.0410*%
%ADD436R,0.0410X0.0410*%
%ADD437R,0.1181X0.0787*%
%ADD438C,0.0250*%
%ADD439C,0.0220*%
%ADD440C,0.0160*%
%ADD441C,0.0236*%
%ADD442C,0.0800*%
%ADD443C,0.0460*%
%ADD444O,0.0160X0.0315*%
%ADD445R,0.0160X0.0315*%
%ADD446C,0.0669*%
%ADD447C,0.1023*%
%ADD448C,0.1500*%
%ADD449C,0.0410*%
%ADD450R,0.0410X0.0410*%
%ADD451C,0.1750*%
%ADD452C,0.0866*%
%ADD453THERMAL453*%
%ADD454THERMAL454*%
%ADD455THERMAL455*%
%ADD456THERMAL456*%
%ADD457THERMAL457*%
%ADD458THERMAL458*%
%ADD459THERMAL459*%
%ADD460THERMAL460*%
%ADD461THERMAL461*%
%ADD462THERMAL462*%
%ADD463THERMAL463*%
%ADD464THERMAL464*%
%ADD465THERMAL465*%
%ADD466THERMAL466*%
%ADD467C,0.0500*%
%ADD468THERMAL468*%
%ADD469C,0.0800*%
%ADD470THERMAL470*%
%ADD471C,0.1650*%
%ADD472C,0.1142*%
%ADD473R,0.1000X0.0640*%
%ADD474R,0.1181X0.0787*%
%ADD475C,0.1260*%
%ADD476R,0.0680X0.0130*%
*
G04 Plot Data ***
*
G54D52*
G01X0022333Y0014357D02*
Y0014107D01*
X0022083Y0014441D02*
Y0014107D01*
X0022583D01*
Y0014441D01*
Y0013866D02*
X0022417D01*
X0022083Y0013699D01*
X0022417Y0013532D01*
X0022583D01*
X0022333Y0013166D02*
X0022083Y0013291D01*
X0022333Y0012957D02*
Y0013207D01*
X0022417Y0013291D01*
X0022500D01*
X0022583Y0013207D01*
Y0012957D01*
X0022083D01*
X0022333Y0012632D02*
Y0012382D01*
X0022083Y0012716D02*
Y0012382D01*
X0022583D01*
Y0012716D01*
Y0012141D02*
X0022083D01*
X0022167Y0012057D01*
X0022500Y0011891D01*
X0022583Y0011807D01*
X0022083D01*
X0032963Y0015707D02*
X0032463D01*
X0032547Y0015624D01*
X0032880Y0015457D01*
X0032963Y0015374D01*
X0032463D01*
Y0015132D02*
Y0014966D01*
Y0015049D02*
X0032963D01*
Y0015132D02*
Y0014966D01*
X0032630Y0014641D02*
Y0014307D01*
X0032463Y0014641D02*
X0032713D01*
X0032963Y0014516D01*
Y0014432D01*
X0032713Y0014307D01*
X0032463D01*
X0032713Y0013941D02*
X0032463Y0014066D01*
X0032713Y0013732D02*
Y0013982D01*
X0032797Y0014066D01*
X0032880D01*
X0032963Y0013982D01*
Y0013732D01*
X0032463D01*
Y0013199D02*
X0032963D01*
X0032463Y0013157D02*
Y0013407D01*
X0032547Y0013491D01*
X0032630D01*
X0032713Y0013449D01*
Y0013199D02*
Y0013449D01*
X0032797Y0013491D01*
X0032880D01*
X0032963Y0013407D01*
Y0013157D01*
G54D58*
G01X0018859Y0008734D02*
Y0008668D01*
Y0008701D02*
X0019059D01*
X0019026Y0008668D01*
X0009980Y0013055D02*
X0012480D01*
Y0012305D01*
X0009980D01*
Y0013055D01*
X0010230D02*
Y0012305D01*
X0036575Y0003670D02*
Y0000170D01*
X0035825D01*
Y0003670D01*
X0036575D01*
Y0003420D02*
X0035825D01*
X0041870Y0004565D02*
X0039870D01*
Y0003815D01*
X0041870D01*
Y0004565D01*
X0041620Y0003815D02*
Y0004565D01*
X0039981Y0008190D02*
X0041231D01*
Y0007127D01*
X0039981D01*
Y0008190D01*
X0002425Y0010600D02*
Y0012600D01*
X0001675D01*
Y0010600D01*
X0002425D01*
X0001675Y0010850D02*
X0002425D01*
X0023680Y0022530D02*
X0025680D01*
Y0021530D01*
X0023680D01*
Y0022530D01*
X0025230D02*
X0024130D01*
X0024480Y0022880D01*
X0024880D01*
X0025230Y0022530D01*
X0024880Y0022880D01*
X0024680D01*
X0025680Y0000770D02*
X0023680D01*
Y0001770D01*
X0025680D01*
Y0000770D01*
X0024130D02*
X0025230D01*
X0024880Y0000420D01*
X0024480D01*
X0024130Y0000770D01*
X0024480Y0000420D01*
X0024680D01*
X0047710Y0027360D02*
Y0025360D01*
X0046710D01*
Y0027360D01*
X0047710D01*
Y0025810D02*
Y0026910D01*
X0048060Y0026560D01*
Y0026160D01*
X0047710Y0025810D01*
X0048060Y0026160D01*
Y0026360D01*
X-0003240Y0023360D02*
Y0025360D01*
X-0002240D01*
Y0023360D01*
X-0003240D01*
Y0024910D02*
Y0023810D01*
X-0003590Y0024160D01*
Y0024560D01*
X-0003240Y0024910D01*
X-0003590Y0024560D01*
Y0024360D01*
X0047710Y-0002060D02*
Y-0004060D01*
X0046710D01*
Y-0002060D01*
X0047710D01*
Y-0003610D02*
Y-0002510D01*
X0048060Y-0002860D01*
Y-0003260D01*
X0047710Y-0003610D01*
X0048060Y-0003260D01*
Y-0003060D01*
X-0003240Y-0002060D02*
Y-0000060D01*
X-0002240D01*
Y-0002060D01*
X-0003240D01*
Y-0000510D02*
Y-0001610D01*
X-0003590Y-0001260D01*
Y-0000860D01*
X-0003240Y-0000510D01*
X-0003590Y-0000860D01*
Y-0001060D01*
X0028460Y0017925D02*
X0025960D01*
Y0018675D01*
X0028460D01*
Y0017925D01*
X0028210D02*
Y0018675D01*
X0006830Y0017785D02*
X0004330D01*
Y0018535D01*
X0006830D01*
Y0017785D01*
X0006580D02*
Y0018535D01*
X0005415Y0004460D02*
Y0009960D01*
X0001665D01*
Y0004460D01*
X0005415D01*
Y0004710D02*
X0001665D01*
G54D89*
G01X0041430Y0001062D02*
Y0000580D01*
X0042340D01*
Y0001062D01*
X0041430D01*
X0002322Y0021470D02*
X0001840D01*
Y0020560D01*
X0002322D01*
Y0021470D01*
X0011090Y0018485D02*
X0011165Y0018560D01*
X0011590D01*
Y0020960D01*
X0010590D01*
Y0018560D01*
X0011015D01*
X0011090Y0018485D01*
X0040785Y0001065D02*
Y0002215D01*
X0041430D01*
Y0001065D01*
X0040785D01*
X0014595Y0001990D02*
X0014520Y0002065D01*
Y0002490D01*
X0012120D01*
Y0001490D01*
X0014520D01*
Y0001915D01*
X0014595Y0001990D01*
X0041528Y0007910D02*
X0042010D01*
Y0008820D01*
X0041528D01*
Y0007910D01*
X0043552Y0007830D02*
X0043070D01*
Y0006920D01*
X0043552D01*
Y0007830D01*
X0037835Y0006055D02*
X0038985D01*
Y0005410D01*
X0037835D01*
Y0006055D01*
X0040790Y0000588D02*
Y0001070D01*
X0039880D01*
Y0000588D01*
X0040790D01*
X0042238Y0003700D02*
X0042720D01*
Y0004610D01*
X0042238D01*
Y0003700D01*
X0007890Y0001375D02*
X0007965Y0001450D01*
X0008390D01*
Y0003850D01*
X0007390D01*
Y0001450D01*
X0007815D01*
X0007890Y0001375D01*
X0037835Y0006845D02*
X0038985D01*
Y0006200D01*
X0037835D01*
Y0006845D01*
X0043065Y0006275D02*
X0041915D01*
Y0006920D01*
X0043065D01*
Y0006275D01*
X0001075Y0018405D02*
Y0017255D01*
X0000430D01*
Y0018405D01*
X0001075D01*
X0003002Y0021470D02*
X0002520D01*
Y0020560D01*
X0003002D01*
Y0021470D01*
Y0022660D02*
X0002520D01*
Y0021750D01*
X0003002D01*
Y0022660D01*
X-0001010Y0011472D02*
Y0010990D01*
X-0000100D01*
Y0011472D01*
X-0001010D01*
X-0000090Y0011638D02*
Y0012120D01*
X-0001000D01*
Y0011638D01*
X-0000090D01*
X0004348Y0010660D02*
X0004830D01*
Y0011570D01*
X0004348D01*
Y0010660D01*
X0013190Y0011395D02*
X0013265Y0011470D01*
X0013690D01*
Y0013870D01*
X0012690D01*
Y0011470D01*
X0013115D01*
X0013190Y0011395D01*
X0009290Y0011405D02*
X0009365Y0011480D01*
X0009790D01*
Y0013880D01*
X0008790D01*
Y0011480D01*
X0009215D01*
X0009290Y0011405D01*
X0001838Y0021750D02*
X0002320D01*
Y0022660D01*
X0001838D01*
Y0021750D01*
X0028475Y0015185D02*
X0027325D01*
Y0015830D01*
X0028475D01*
Y0015185D01*
X0017470Y0018862D02*
Y0018380D01*
X0018380D01*
Y0018862D01*
X0017470D01*
X0032235Y0007235D02*
X0033385D01*
Y0006590D01*
X0032235D01*
Y0007235D01*
X0026628Y0000120D02*
X0027110D01*
Y0001030D01*
X0026628D01*
Y0000120D01*
X0010090Y0003182D02*
Y0002700D01*
X0011000D01*
Y0003182D01*
X0010090D01*
X0007362Y0009670D02*
X0006880D01*
Y0008760D01*
X0007362D01*
Y0009670D01*
X0023558Y0011530D02*
X0024040D01*
Y0012440D01*
X0023558D01*
Y0011530D01*
X0022522Y0023170D02*
X0022040D01*
Y0022260D01*
X0022522D01*
Y0023170D01*
X0043072Y0006280D02*
X0042590D01*
Y0005370D01*
X0043072D01*
Y0006280D01*
X0020490Y0007132D02*
Y0006650D01*
X0021400D01*
Y0007132D01*
X0020490D01*
X0030415Y0021250D02*
Y0019950D01*
X0028165D01*
Y0021250D01*
X0028140D01*
X0030415D01*
X0037308Y0009160D02*
X0037790D01*
Y0010070D01*
X0037308D01*
Y0009160D01*
X0038318Y0000920D02*
X0038800D01*
Y0001830D01*
X0038318D01*
Y0000920D01*
X-0001790Y0017498D02*
Y0017980D01*
X-0002700D01*
Y0017498D01*
X-0001790D01*
X-0001770Y0005368D02*
Y0005850D01*
X-0002680D01*
Y0005368D01*
X-0001770D01*
X0046310Y0019962D02*
Y0019480D01*
X0047220D01*
Y0019962D01*
X0046310D01*
X0046430Y0003852D02*
Y0003370D01*
X0047340D01*
Y0003852D01*
X0046430D01*
X0042772Y0008830D02*
X0042290D01*
Y0007920D01*
X0042772D01*
Y0008830D01*
X0038338Y0003660D02*
X0038820D01*
Y0004570D01*
X0038338D01*
Y0003660D01*
X0033335Y0021290D02*
Y0019990D01*
X0031085D01*
Y0021290D01*
X0031060D01*
X0033335D01*
X0003485Y0016205D02*
Y0015055D01*
X0002840D01*
Y0016205D01*
X0003485D01*
X0014905Y0013170D02*
Y0014470D01*
X0017155D01*
Y0013170D01*
X0017180D01*
X0014905D01*
X0010675Y0019750D02*
X0007225D01*
Y0018250D01*
X0010675D01*
Y0019750D01*
X0001652Y0022660D02*
X0001170D01*
Y0021750D01*
X0001652D01*
Y0022660D01*
X0003848Y0020530D02*
X0004330D01*
Y0021440D01*
X0003848D01*
Y0020530D01*
X0001652Y0021470D02*
X0001170D01*
Y0020560D01*
X0001652D01*
Y0021470D01*
X0004585Y0016195D02*
Y0015045D01*
X0003940D01*
Y0016195D01*
X0004585D01*
X0008345Y0016420D02*
Y0017720D01*
X0010595D01*
Y0016420D01*
X0010620D01*
X0008345D01*
X0004475Y0022915D02*
Y0021765D01*
X0003830D01*
Y0022915D01*
X0004475D01*
X0001868Y0015220D02*
X0002350D01*
Y0016130D01*
X0001868D01*
Y0015220D01*
X0042710Y0013472D02*
Y0012990D01*
X0043620D01*
Y0013472D01*
X0042710D01*
X0039485Y0011885D02*
X0040635D01*
Y0011240D01*
X0039485D01*
Y0011885D01*
X0042710Y0015502D02*
Y0015020D01*
X0043620D01*
Y0015502D01*
X0042710D01*
X0040502Y0018918D02*
Y0020068D01*
X0041147D01*
Y0018918D01*
X0040502D01*
X0041538Y0017510D02*
X0042020D01*
Y0018420D01*
X0041538D01*
Y0017510D01*
X0042692Y0020068D02*
Y0018918D01*
X0042047D01*
Y0020068D01*
X0042692D01*
X0037125Y0017775D02*
Y0018925D01*
X0037770D01*
Y0017775D01*
X0037125D01*
G54D90*
G01X0021242Y0008611D02*
X0019864D01*
Y0014477D01*
X0021242D01*
Y0008611D01*
X0040990Y0008190D02*
Y0007127D01*
X0007959Y0008253D02*
Y0007938D01*
X0007211D01*
Y0008253D01*
X0007959D01*
X0001468Y0003058D02*
X0001783D01*
Y0002310D01*
X0001468D01*
Y0003058D01*
X0041654Y0009597D02*
Y0010788D01*
X0040639D01*
Y0009597D01*
X0041654D01*
X0040643Y0009984D02*
X0041652D01*
X0043623Y0012259D02*
X0042432D01*
Y0011243D01*
X0043623D01*
Y0012259D01*
X0043235Y0011248D02*
Y0012256D01*
X0040611Y0013867D02*
Y0012676D01*
X0041626D01*
Y0013867D01*
X0040611D01*
X0041622Y0013480D02*
X0040613D01*
X0043540Y0014412D02*
Y0014097D01*
X0042792D01*
Y0014412D01*
X0043540D01*
X-0004002Y0006716D02*
Y0013310D01*
X-0001837D01*
Y0006716D01*
X-0004002D01*
G54D91*
G01X0028373Y0008323D02*
X0028407Y0008357D01*
X0028423Y0008390D01*
Y0008457D01*
X0028407Y0008490D01*
X0028373Y0008523D01*
X0028340D01*
X0028307Y0008490D01*
X0028290Y0008457D01*
Y0008390D01*
X0028307Y0008357D01*
X0028340Y0008323D01*
X0028373D01*
X0028580D02*
X0028713D01*
X0028580Y0008457D01*
Y0008490D01*
X0028597Y0008523D01*
X0028697D01*
X0028713Y0008490D01*
X0039497Y0004555D02*
Y0004489D01*
Y0004522D02*
X0039697D01*
X0039663Y0004489D01*
X0039530Y0004299D02*
X0039497Y0004282D01*
Y0004182D01*
X0039530Y0004165D01*
X0039663D01*
X0039697Y0004182D01*
Y0004282D01*
X0039663Y0004299D01*
X0039563Y0004009D02*
Y0003875D01*
X0039497Y0004009D02*
X0039597D01*
X0039697Y0003959D01*
Y0003925D01*
X0039597Y0003875D01*
X0039497D01*
X0042916Y0004524D02*
Y0004391D01*
X0043049Y0004458D01*
Y0004491D01*
X0042849D01*
X0042916Y0004234D02*
Y0004101D01*
X0043049Y0004168D01*
Y0004201D01*
X0042849D01*
X0042883Y0003944D02*
X0042849Y0003928D01*
Y0003828D01*
X0042883Y0003811D01*
X0043016D01*
X0043049Y0003828D01*
Y0003928D01*
X0043016Y0003944D01*
X0039607Y0008120D02*
Y0008054D01*
Y0008087D02*
X0039807D01*
X0039774Y0008054D01*
X0039641Y0007864D02*
X0039607Y0007847D01*
Y0007747D01*
X0039641Y0007730D01*
X0039774D01*
X0039807Y0007747D01*
Y0007847D01*
X0039774Y0007864D01*
X0039674Y0007574D02*
Y0007440D01*
X0039607Y0007574D02*
X0039707D01*
X0039807Y0007524D01*
Y0007490D01*
X0039707Y0007440D01*
X0039607D01*
Y0007167D02*
X0039807D01*
X0039607Y0007150D02*
Y0007250D01*
X0039674Y0007284D01*
X0039741D01*
X0039807Y0007250D01*
Y0007150D01*
X0038089Y0006979D02*
X0038155D01*
X0038122D02*
Y0007179D01*
X0038155Y0007146D01*
X0038345Y0006979D02*
X0038412D01*
X0038379D02*
Y0007179D01*
X0038412Y0007146D01*
X0038602Y0006979D02*
X0038719D01*
Y0007179D01*
X0042158Y0007047D02*
X0042191Y0007080D01*
X0042208Y0007114D01*
Y0007180D01*
X0042191Y0007214D01*
X0042158Y0007247D01*
X0042124D01*
X0042091Y0007214D01*
X0042074Y0007180D01*
Y0007114D01*
X0042091Y0007080D01*
X0042124Y0007047D01*
X0042158D01*
X0042364D02*
X0042431D01*
X0042398D02*
Y0007247D01*
X0042431Y0007214D01*
X0042621Y0007047D02*
X0042738D01*
Y0007247D01*
X0007847Y0001310D02*
X0007813Y0001293D01*
Y0001193D01*
X0007847Y0001177D01*
X0007980D01*
X0008013Y0001193D01*
Y0001293D01*
X0007980Y0001310D01*
X0007880Y0004070D02*
Y0003937D01*
X0007813Y0004070D02*
X0007913D01*
X0008013Y0004020D01*
Y0003987D01*
X0007913Y0003937D01*
X0007813D01*
X0008522Y0003058D02*
Y0002991D01*
Y0003024D02*
X0008722D01*
X0008689Y0002991D01*
X0008522Y0002801D02*
Y0002734D01*
Y0002768D02*
X0008722D01*
X0008689Y0002734D01*
X0008522Y0002428D02*
X0008722D01*
X0008522Y0002411D02*
Y0002511D01*
X0008589Y0002544D01*
X0008655D01*
X0008722Y0002511D01*
Y0002411D01*
X0000273Y0017214D02*
X0000073Y0017114D01*
Y0017248D01*
X0000239Y0017404D02*
X0000273Y0017421D01*
Y0017521D01*
X0000239Y0017538D01*
X0000106D01*
X0000073Y0017521D01*
Y0017421D01*
X0000106Y0017404D01*
X0000339Y0017694D02*
Y0017828D01*
X0000239Y0017984D02*
X0000273Y0018001D01*
Y0018101D01*
X0000239Y0018118D01*
X0000106D01*
X0000073Y0018101D01*
Y0018001D01*
X0000106Y0017984D01*
X0000273Y0018391D02*
X0000073D01*
X0000273Y0018408D02*
Y0018308D01*
X0000239Y0018274D01*
X0000206D01*
X0000173Y0018291D01*
Y0018391D02*
Y0018291D01*
X0000139Y0018274D01*
X0000106D01*
X0000073Y0018308D01*
Y0018408D01*
X0028054Y0015947D02*
X0028121D01*
X0028088D02*
Y0016147D01*
X0028121Y0016114D01*
X0028311Y0015947D02*
X0028428D01*
Y0016147D01*
X-0000332Y0010807D02*
Y0010740D01*
Y0010774D02*
X-0000132D01*
X-0000165Y0010740D01*
X-0000332Y0010550D02*
Y0010484D01*
Y0010517D02*
X-0000132D01*
X-0000165Y0010484D01*
X-0000332Y0010177D02*
X-0000132D01*
X-0000332Y0010160D02*
Y0010260D01*
X-0000299Y0010294D01*
X-0000265D01*
X-0000232Y0010277D01*
Y0010177D02*
Y0010277D01*
X-0000199Y0010294D01*
X-0000165D01*
X-0000132Y0010260D01*
Y0010160D01*
X-0000299Y0010004D02*
X-0000332Y0009987D01*
Y0009887D01*
X-0000299Y0009870D01*
X-0000165D01*
X-0000132Y0009887D01*
Y0009987D01*
X-0000165Y0010004D01*
X0009247Y0011340D02*
X0009213Y0011323D01*
Y0011223D01*
X0009247Y0011207D01*
X0009380D01*
X0009413Y0011223D01*
Y0011323D01*
X0009380Y0011340D01*
X0009280Y0014100D02*
Y0013967D01*
X0009213Y0014100D02*
X0009313D01*
X0009413Y0014050D01*
Y0014017D01*
X0009313Y0013967D01*
X0009213D01*
X-0000961Y0014653D02*
Y0014586D01*
Y0014619D02*
X-0000761D01*
X-0000794Y0014586D01*
X-0000961Y0014329D02*
X-0000761D01*
Y0014396D02*
Y0014263D01*
X-0000961Y0014106D02*
Y0013989D01*
X-0000761D01*
X-0000961Y0013833D02*
Y0013766D01*
Y0013799D02*
X-0000761D01*
Y0013833D02*
Y0013766D01*
X-0000861Y0013543D02*
Y0013443D01*
X-0000961D02*
X-0000761D01*
Y0013576D01*
X-0000861Y0013236D02*
X-0000961Y0013286D01*
X-0000861Y0013153D02*
Y0013253D01*
X-0000828Y0013286D01*
X-0000794D01*
X-0000761Y0013253D01*
Y0013153D01*
X-0000961D01*
X-0001028Y0012996D02*
Y0012863D01*
X-0000961Y0012706D02*
X-0000761D01*
X-0000794Y0012673D01*
X-0000861Y0012639D01*
X-0000794Y0012606D01*
X-0000761Y0012573D01*
X-0000961D01*
Y0012299D02*
X-0000761D01*
X-0000961Y0012283D02*
Y0012383D01*
X-0000928Y0012416D01*
X-0000894D01*
X-0000861Y0012399D01*
Y0012299D02*
Y0012399D01*
X-0000828Y0012416D01*
X-0000794D01*
X-0000761Y0012383D01*
Y0012283D01*
X0008552Y0012898D02*
X0008585Y0012914D01*
X0008619D01*
X0008652Y0012898D01*
Y0012798D01*
X0008619Y0012781D01*
X0008585D01*
X0008552Y0012798D01*
Y0012898D01*
X0008519Y0012914D01*
X0008485D01*
X0008452Y0012898D01*
Y0012798D01*
X0008485Y0012781D01*
X0008519D01*
X0008552Y0012798D01*
X0008452Y0012624D02*
Y0012491D01*
X0008585Y0012624D01*
X0008619D01*
X0008652Y0012608D01*
Y0012508D01*
X0008619Y0012491D01*
X0008452Y0012218D02*
X0008652D01*
X0008452Y0012201D02*
Y0012301D01*
X0008519Y0012334D01*
X0008585D01*
X0008652Y0012301D01*
Y0012201D01*
X0004153Y0010448D02*
Y0010514D01*
Y0010481D02*
X0003953D01*
X0003986Y0010514D01*
X0004053Y0010754D02*
X0004153Y0010704D01*
X0004053Y0010838D02*
Y0010738D01*
X0004019Y0010704D01*
X0003986D01*
X0003953Y0010738D01*
Y0010838D01*
X0004153D01*
X0004219Y0010994D02*
Y0011128D01*
X0004153Y0011284D02*
X0003953D01*
X0003986Y0011318D01*
X0004053Y0011351D01*
X0003986Y0011384D01*
X0003953Y0011418D01*
X0004153D01*
Y0011691D02*
X0003953D01*
X0004153Y0011708D02*
Y0011608D01*
X0004119Y0011574D01*
X0004086D01*
X0004053Y0011591D01*
Y0011691D02*
Y0011591D01*
X0004019Y0011574D01*
X0003986D01*
X0003953Y0011608D01*
Y0011708D01*
X0017691Y0019020D02*
X0017658Y0018987D01*
X0017591D01*
X0017558Y0019020D01*
Y0019054D01*
X0017624Y0019120D01*
X0017558Y0019187D01*
X0017691D01*
X0017848Y0018987D02*
X0017914D01*
X0017881D02*
Y0019187D01*
X0017914Y0019154D01*
X0018154Y0019087D02*
X0018104Y0018987D01*
X0018238Y0019087D02*
X0018138D01*
X0018104Y0019120D01*
Y0019154D01*
X0018138Y0019187D01*
X0018238D01*
Y0018987D01*
X0001722Y0010200D02*
X0001789D01*
X0001755D02*
Y0010400D01*
X0001789Y0010366D01*
X0001979Y0010200D02*
Y0010400D01*
X0002012Y0010366D01*
X0002045Y0010300D01*
X0002079Y0010366D01*
X0002112Y0010400D01*
Y0010200D01*
X0002385D02*
Y0010400D01*
X0002402Y0010200D02*
X0002302D01*
X0002269Y0010233D01*
Y0010266D01*
X0002285Y0010300D01*
X0002385D02*
X0002285D01*
X0002269Y0010333D01*
Y0010366D01*
X0002302Y0010400D01*
X0002402D01*
X0034009Y0007033D02*
X0033875D01*
X0034009Y0006899D01*
Y0006866D01*
X0033992Y0006833D01*
X0033892D01*
X0033875Y0006866D01*
X0033719Y0007033D02*
X0033602D01*
Y0006833D01*
X0008108Y0008567D02*
Y0008501D01*
Y0008534D02*
X0008308D01*
X0008274Y0008501D01*
X0008308Y0008311D02*
X0008241D01*
X0008108Y0008244D01*
X0008241Y0008177D01*
X0008308D01*
Y0008021D02*
X0008108D01*
X0008141Y0007987D01*
X0008274Y0007921D01*
X0008308Y0007887D01*
X0008108D01*
Y0007731D02*
Y0007664D01*
Y0007697D02*
X0008308D01*
Y0007731D02*
Y0007664D01*
X0007803Y0008108D02*
X0007770D01*
Y0008141D01*
X0007803D01*
Y0008108D01*
X0027353Y0000391D02*
Y0000491D01*
X0027319Y0000508D01*
X0027286D01*
X0027253Y0000491D01*
Y0000391D01*
X0027286Y0000374D01*
X0027319D01*
X0027453Y0000441D01*
X0027419Y0000664D02*
X0027453Y0000681D01*
Y0000781D01*
X0027419Y0000798D01*
X0027286D01*
X0027253Y0000781D01*
Y0000681D01*
X0027286Y0000664D01*
X0011027Y0018395D02*
X0010999Y0018381D01*
Y0018298D01*
X0011027Y0018284D01*
X0011138D01*
X0011166Y0018298D01*
Y0018381D01*
X0011138Y0018395D01*
X0041667Y0001852D02*
Y0001752D01*
X0041700Y0001735D01*
X0041734D01*
X0041767Y0001752D01*
Y0001852D01*
X0041734Y0001869D01*
X0041700D01*
X0041567Y0001802D01*
Y0001579D02*
Y0001462D01*
X0041767D01*
X0024288Y0021214D02*
X0024421D01*
X0024354Y0021347D01*
X0024321D01*
Y0021147D01*
X0024578D02*
X0024644D01*
X0024611D02*
Y0021347D01*
X0024644Y0021314D01*
X0024951Y0021147D02*
Y0021347D01*
X0024968Y0021147D02*
X0024868D01*
X0024834Y0021214D01*
Y0021280D01*
X0024868Y0021347D01*
X0024968D01*
X0025812Y0021907D02*
X0025879D01*
X0025845D02*
Y0022107D01*
X0025879Y0022074D01*
X0041613Y0007661D02*
X0041579Y0007694D01*
Y0007761D01*
X0041613Y0007794D01*
X0041646D01*
X0041713Y0007728D01*
X0041779Y0007794D01*
Y0007661D01*
X0041646Y0007504D02*
Y0007371D01*
X0041779Y0007438D01*
Y0007471D01*
X0041579D01*
X0041613Y0007214D02*
X0041579Y0007198D01*
Y0007098D01*
X0041613Y0007081D01*
X0041746D01*
X0041779Y0007098D01*
Y0007198D01*
X0041746Y0007214D01*
X0043667Y0007715D02*
Y0007582D01*
X0043800Y0007715D01*
X0043834D01*
X0043867Y0007699D01*
Y0007599D01*
X0043834Y0007582D01*
X0043667Y0007309D02*
X0043867D01*
X0043667Y0007292D02*
Y0007392D01*
X0043734Y0007425D01*
X0043800D01*
X0043867Y0007392D01*
Y0007292D01*
X0043700Y0007135D02*
X0043667Y0007119D01*
Y0007019D01*
X0043700Y0007002D01*
X0043834D01*
X0043867Y0007019D01*
Y0007119D01*
X0043834Y0007135D01*
X0010208Y0002387D02*
X0010274D01*
X0010241D02*
Y0002587D01*
X0010274Y0002554D01*
X0010464Y0002387D02*
X0010598D01*
X0010464Y0002520D01*
Y0002554D01*
X0010481Y0002587D01*
X0010581D01*
X0010598Y0002554D01*
X0010804Y0002487D02*
X0010754Y0002387D01*
X0010888Y0002487D02*
X0010788D01*
X0010754Y0002520D01*
Y0002554D01*
X0010788Y0002587D01*
X0010888D01*
Y0002387D01*
X0024962Y0002133D02*
X0025062Y0001933D01*
X0024929D01*
X0024772Y0002133D02*
X0024705D01*
X0024739D02*
Y0001933D01*
X0024705Y0001966D01*
X0024399Y0002133D02*
Y0001933D01*
X0024382Y0002133D02*
X0024482D01*
X0024515Y0002066D01*
Y0001999D01*
X0024482Y0001933D01*
X0024382D01*
X0023538Y0001293D02*
X0023471D01*
X0023504D02*
Y0001093D01*
X0023471Y0001126D01*
X0002767Y0024069D02*
X0002800Y0024085D01*
X0002834D01*
X0002867Y0024069D01*
Y0023969D01*
X0002834Y0023952D01*
X0002800D01*
X0002767Y0023969D01*
Y0024069D01*
X0002734Y0024085D01*
X0002700D01*
X0002667Y0024069D01*
Y0023969D01*
X0002700Y0023952D01*
X0002734D01*
X0002767Y0023969D01*
X0002700Y0023795D02*
X0002667Y0023779D01*
Y0023679D01*
X0002700Y0023662D01*
X0002834D01*
X0002867Y0023679D01*
Y0023779D01*
X0002834Y0023795D01*
X0002600Y0023505D02*
Y0023372D01*
X0002700Y0023215D02*
X0002667Y0023199D01*
Y0023099D01*
X0002700Y0023082D01*
X0002834D01*
X0002867Y0023099D01*
Y0023199D01*
X0002834Y0023215D01*
X0002667Y0022809D02*
X0002867D01*
X0002667Y0022792D02*
Y0022892D01*
X0002700Y0022925D01*
X0002734D01*
X0002767Y0022909D01*
Y0022809D02*
Y0022909D01*
X0002800Y0022925D01*
X0002834D01*
X0002867Y0022892D01*
Y0022792D01*
X0007337Y0009979D02*
X0007354Y0010012D01*
X0007454D01*
X0007470Y0009979D01*
Y0009912D01*
X0007437Y0009879D01*
X0007337D01*
Y0009812D01*
X0007470D01*
X0007180Y0010012D02*
X0007114D01*
X0007147D02*
Y0009812D01*
X0007114Y0009845D01*
X0006924Y0009979D02*
X0006907Y0010012D01*
X0006807D01*
X0006790Y0009979D01*
Y0009845D01*
X0006807Y0009812D01*
X0006907D01*
X0006924Y0009845D01*
X0023413Y0011684D02*
Y0011818D01*
X0023279Y0011684D01*
X0023246D01*
X0023213Y0011701D01*
Y0011801D01*
X0023246Y0011818D01*
X0023413Y0011974D02*
Y0012108D01*
X0023279Y0011974D01*
X0023246D01*
X0023213Y0011991D01*
Y0012091D01*
X0023246Y0012108D01*
X0023313Y0012314D02*
X0023413Y0012264D01*
X0023313Y0012398D02*
Y0012298D01*
X0023279Y0012264D01*
X0023246D01*
X0023213Y0012298D01*
Y0012398D01*
X0023413D01*
X0046410Y0026579D02*
X0046377Y0026612D01*
Y0026679D01*
X0046410Y0026712D01*
X0046444D01*
X0046510Y0026645D01*
X0046577Y0026712D01*
Y0026579D01*
X0046377Y0026422D02*
Y0026355D01*
Y0026389D02*
X0046577D01*
X0046544Y0026355D01*
X0046377Y0026049D02*
X0046577D01*
X0046377Y0026032D02*
Y0026132D01*
X0046444Y0026165D01*
X0046510D01*
X0046577Y0026132D01*
Y0026032D01*
X-0002070Y0024671D02*
Y0024538D01*
X-0001937Y0024671D01*
X-0001904D01*
X-0001870Y0024654D01*
Y0024554D01*
X-0001904Y0024538D01*
X-0002070Y0024381D02*
Y0024314D01*
Y0024348D02*
X-0001870D01*
X-0001904Y0024314D01*
X-0002070Y0024008D02*
X-0001870D01*
X-0002070Y0023991D02*
Y0024091D01*
X-0002004Y0024124D01*
X-0001937D01*
X-0001870Y0024091D01*
Y0023991D01*
X0046477Y-0002584D02*
Y-0002484D01*
X0046444Y-0002468D01*
X0046410D01*
X0046377Y-0002484D01*
Y-0002584D01*
X0046410Y-0002601D01*
X0046444D01*
X0046577Y-0002534D01*
X0046377Y-0002758D02*
Y-0002824D01*
Y-0002791D02*
X0046577D01*
X0046544Y-0002824D01*
X0046377Y-0003131D02*
X0046577D01*
X0046377Y-0003148D02*
Y-0003048D01*
X0046444Y-0003014D01*
X0046510D01*
X0046577Y-0003048D01*
Y-0003148D01*
X0021817Y0022909D02*
X0021850Y0022925D01*
X0021884D01*
X0021917Y0022909D01*
Y0022809D01*
X0021884Y0022792D01*
X0021850D01*
X0021817Y0022809D01*
Y0022909D01*
X0021784Y0022925D01*
X0021750D01*
X0021717Y0022909D01*
Y0022809D01*
X0021750Y0022792D01*
X0021784D01*
X0021817Y0022809D01*
X0021750Y0022635D02*
X0021717Y0022619D01*
Y0022519D01*
X0021750Y0022502D01*
X0021884D01*
X0021917Y0022519D01*
Y0022619D01*
X0021884Y0022635D01*
X0014685Y0001927D02*
X0014699Y0001899D01*
X0014782D01*
X0014796Y0001927D01*
Y0002038D01*
X0014782Y0002066D01*
X0014699D01*
X0014685Y0002038D01*
X0011925Y0001955D02*
X0012036D01*
X0011925Y0001899D02*
Y0001983D01*
X0011967Y0002066D01*
X0011994D01*
X0012036Y0001983D01*
Y0001899D01*
X0013695Y0002602D02*
X0013829D01*
X0013695Y0002735D01*
Y0002769D01*
X0013712Y0002802D01*
X0013812D01*
X0013829Y0002769D01*
X0013985Y0002669D02*
X0014119D01*
X0014052Y0002802D01*
X0014019D01*
Y0002602D01*
X0014392D02*
Y0002802D01*
X0014409Y0002602D02*
X0014309D01*
X0014275Y0002669D01*
Y0002735D01*
X0014309Y0002802D01*
X0014409D01*
X-0002017Y-0000802D02*
X-0002050Y-0000785D01*
Y-0000685D01*
X-0002017Y-0000669D01*
X-0001950D01*
X-0001917Y-0000702D01*
Y-0000802D01*
X-0001850D01*
Y-0000669D01*
X-0002050Y-0000959D02*
Y-0001025D01*
Y-0000992D02*
X-0001850D01*
X-0001884Y-0001025D01*
X-0002050Y-0001332D02*
X-0001850D01*
X-0002050Y-0001349D02*
Y-0001249D01*
X-0001984Y-0001215D01*
X-0001917D01*
X-0001850Y-0001249D01*
Y-0001349D01*
X0043187Y0006082D02*
X0043220Y0006049D01*
X0043254Y0006032D01*
X0043320D01*
X0043354Y0006049D01*
X0043387Y0006082D01*
Y0006115D01*
X0043354Y0006149D01*
X0043320Y0006165D01*
X0043254D01*
X0043220Y0006149D01*
X0043187Y0006115D01*
Y0006082D01*
Y0005875D02*
Y0005742D01*
X0043320Y0005875D01*
X0043354D01*
X0043387Y0005859D01*
Y0005759D01*
X0043354Y0005742D01*
X0043287Y0005535D02*
X0043187Y0005585D01*
X0043287Y0005452D02*
Y0005552D01*
X0043320Y0005585D01*
X0043354D01*
X0043387Y0005552D01*
Y0005452D01*
X0043187D01*
X0001151Y0003156D02*
X0001284D01*
X0001151Y0003290D01*
Y0003323D01*
X0001167Y0003356D01*
X0001267D01*
X0001284Y0003323D01*
X0001441Y0003356D02*
Y0003290D01*
X0001507Y0003156D01*
X0001574Y0003290D01*
Y0003356D01*
X0001731D02*
Y0003156D01*
X0001764Y0003190D01*
X0001831Y0003323D01*
X0001864Y0003356D01*
Y0003156D01*
X0002021D02*
X0002087D01*
X0002054D02*
Y0003356D01*
X0002021D02*
X0002087D01*
X0001613Y0002902D02*
Y0002868D01*
X0001580D01*
Y0002902D01*
X0001613D01*
X0038775Y0005263D02*
X0038642D01*
X0038775Y0005129D01*
Y0005096D01*
X0038759Y0005063D01*
X0038659D01*
X0038642Y0005096D01*
X0038485Y0005196D02*
X0038352D01*
X0038419Y0005063D01*
X0038452D01*
Y0005263D01*
X0038195Y0005229D02*
X0038179Y0005263D01*
X0038079D01*
X0038062Y0005229D01*
Y0005096D01*
X0038079Y0005063D01*
X0038179D01*
X0038195Y0005096D01*
X0020601Y0007227D02*
X0020668D01*
X0020634D02*
Y0007427D01*
X0020668Y0007394D01*
X0020858Y0007227D02*
X0020924D01*
X0020891D02*
Y0007427D01*
X0020924Y0007394D01*
X0021114Y0007260D02*
X0021131Y0007227D01*
X0021231D01*
X0021248Y0007260D01*
Y0007394D01*
X0021231Y0007427D01*
X0021131D01*
X0021114Y0007394D01*
X0002757Y0020419D02*
Y0020319D01*
X0002790Y0020302D01*
X0002824D01*
X0002857Y0020319D01*
Y0020419D01*
X0002824Y0020435D01*
X0002790D01*
X0002657Y0020369D01*
X0002690Y0020145D02*
X0002657Y0020129D01*
Y0020029D01*
X0002690Y0020012D01*
X0002824D01*
X0002857Y0020029D01*
Y0020129D01*
X0002824Y0020145D01*
X0002590Y0019855D02*
Y0019722D01*
X0002690Y0019565D02*
X0002657Y0019549D01*
Y0019449D01*
X0002690Y0019432D01*
X0002824D01*
X0002857Y0019449D01*
Y0019549D01*
X0002824Y0019565D01*
X0002657Y0019159D02*
X0002857D01*
X0002657Y0019142D02*
Y0019242D01*
X0002690Y0019275D01*
X0002724D01*
X0002757Y0019259D01*
Y0019159D02*
Y0019259D01*
X0002790Y0019275D01*
X0002824D01*
X0002857Y0019242D01*
Y0019142D01*
X0028587Y0018485D02*
Y0018419D01*
Y0018452D02*
X0028787D01*
X0028753Y0018419D01*
X0028653Y0018162D02*
X0028587Y0018229D01*
X0028620Y0018095D02*
X0028587Y0018112D01*
Y0018179D01*
X0028620Y0018195D01*
X0028653Y0018229D01*
X0028753D01*
X0028787Y0018212D01*
Y0018112D01*
X0028753Y0018095D01*
X0028620D01*
X0028815Y0019676D02*
X0028949D01*
X0028882Y0019809D01*
X0028849D01*
Y0019609D01*
X0029222D02*
Y0019809D01*
X0029239Y0019609D02*
X0029139D01*
X0029105Y0019643D01*
Y0019676D01*
X0029122Y0019709D01*
X0029222D02*
X0029122D01*
X0029105Y0019743D01*
Y0019776D01*
X0029139Y0019809D01*
X0029239D01*
X0029395Y0019643D02*
X0029412Y0019609D01*
X0029512D01*
X0029529Y0019643D01*
Y0019776D01*
X0029512Y0019809D01*
X0029412D01*
X0029395Y0019776D01*
X0037213Y0009278D02*
Y0009344D01*
Y0009311D02*
X0037013D01*
X0037046Y0009344D01*
X0037213Y0009651D02*
X0037013D01*
X0037213Y0009668D02*
Y0009568D01*
X0037179Y0009534D01*
X0037146D01*
X0037113Y0009551D01*
Y0009651D02*
Y0009551D01*
X0037079Y0009534D01*
X0037046D01*
X0037013Y0009568D01*
Y0009668D01*
X0037179Y0009824D02*
X0037213Y0009841D01*
Y0009941D01*
X0037179Y0009958D01*
X0037046D01*
X0037013Y0009941D01*
Y0009841D01*
X0037046Y0009824D01*
X0028447Y0012263D02*
X0028480Y0012297D01*
X0028497Y0012330D01*
Y0012397D01*
X0028480Y0012430D01*
X0028447Y0012463D01*
X0028413D01*
X0028380Y0012430D01*
X0028363Y0012397D01*
Y0012330D01*
X0028380Y0012297D01*
X0028413Y0012263D01*
X0028447D01*
X0028653D02*
X0028720D01*
X0028687D02*
Y0012463D01*
X0028720Y0012430D01*
X0038103Y0001081D02*
X0038069Y0001064D01*
X0038036D01*
X0038003Y0001081D01*
Y0001181D01*
X0038036Y0001198D01*
X0038069D01*
X0038103Y0001181D01*
Y0001081D01*
X0038136Y0001064D01*
X0038169D01*
X0038203Y0001081D01*
Y0001181D01*
X0038169Y0001198D01*
X0038136D01*
X0038103Y0001181D01*
X0038203Y0001471D02*
X0038003D01*
X0038203Y0001488D02*
Y0001388D01*
X0038169Y0001354D01*
X0038136D01*
X0038103Y0001371D01*
Y0001471D02*
Y0001371D01*
X0038069Y0001354D01*
X0038036D01*
X0038003Y0001388D01*
Y0001488D01*
X0038169Y0001644D02*
X0038203Y0001661D01*
Y0001761D01*
X0038169Y0001778D01*
X0038036D01*
X0038003Y0001761D01*
Y0001661D01*
X0038036Y0001644D01*
X-0001888Y0017323D02*
X-0002021D01*
X-0001888Y0017189D01*
Y0017156D01*
X-0001904Y0017123D01*
X-0002004D01*
X-0002021Y0017156D01*
X-0002178Y0017323D02*
X-0002244D01*
X-0002211D02*
Y0017123D01*
X-0002244Y0017156D01*
X-0002484Y0017223D02*
X-0002434Y0017323D01*
X-0002568Y0017223D02*
X-0002468D01*
X-0002434Y0017189D01*
Y0017156D01*
X-0002468Y0017123D01*
X-0002568D01*
Y0017323D01*
X-0001941Y0005253D02*
X-0002008D01*
X-0001974D02*
Y0005053D01*
X-0002008Y0005086D01*
X-0002198Y0005253D02*
X-0002264D01*
X-0002231D02*
Y0005053D01*
X-0002264Y0005086D01*
X-0002504Y0005153D02*
X-0002454Y0005253D01*
X-0002588Y0005153D02*
X-0002488D01*
X-0002454Y0005119D01*
Y0005086D01*
X-0002488Y0005053D01*
X-0002588D01*
Y0005253D01*
X0046511Y0020097D02*
X0046544Y0020130D01*
X0046561Y0020164D01*
Y0020230D01*
X0046544Y0020264D01*
X0046511Y0020297D01*
X0046478D01*
X0046444Y0020264D01*
X0046428Y0020230D01*
Y0020164D01*
X0046444Y0020130D01*
X0046478Y0020097D01*
X0046511D01*
X0046718D02*
X0046784D01*
X0046751D02*
Y0020297D01*
X0046784Y0020264D01*
X0047024Y0020197D02*
X0046974Y0020097D01*
X0047108Y0020197D02*
X0047008D01*
X0046974Y0020230D01*
Y0020264D01*
X0047008Y0020297D01*
X0047108D01*
Y0020097D01*
X0013127Y0011305D02*
X0013099Y0011291D01*
Y0011208D01*
X0013127Y0011194D01*
X0013238D01*
X0013266Y0011208D01*
Y0011291D01*
X0013238Y0011305D01*
X0013155Y0014065D02*
Y0013954D01*
X0013099Y0014065D02*
X0013183D01*
X0013266Y0014023D01*
Y0013995D01*
X0013183Y0013954D01*
X0013099D01*
X0046721Y0004097D02*
X0046821D01*
X0046838Y0004130D01*
Y0004164D01*
X0046821Y0004197D01*
X0046721D01*
X0046704Y0004164D01*
Y0004130D01*
X0046771Y0003997D01*
X0047044Y0004097D02*
X0046994Y0003997D01*
X0047128Y0004097D02*
X0047028D01*
X0046994Y0004130D01*
Y0004164D01*
X0047028Y0004197D01*
X0047128D01*
Y0003997D01*
X0042887Y0008645D02*
X0043087Y0008745D01*
Y0008612D01*
X0042887Y0008339D02*
X0043087D01*
X0042887Y0008322D02*
Y0008422D01*
X0042920Y0008455D01*
X0042954D01*
X0042987Y0008439D01*
Y0008339D02*
Y0008439D01*
X0043020Y0008455D01*
X0043054D01*
X0043087Y0008422D01*
Y0008322D01*
X0042920Y0008165D02*
X0042887Y0008149D01*
Y0008049D01*
X0042920Y0008032D01*
X0043054D01*
X0043087Y0008049D01*
Y0008149D01*
X0043054Y0008165D01*
X0038123Y0003911D02*
Y0003811D01*
X0038156Y0003794D01*
X0038189D01*
X0038223Y0003811D01*
Y0003911D01*
X0038189Y0003928D01*
X0038156D01*
X0038023Y0003861D01*
X0038223Y0004201D02*
X0038023D01*
X0038223Y0004218D02*
Y0004118D01*
X0038189Y0004084D01*
X0038156D01*
X0038123Y0004101D01*
Y0004201D02*
Y0004101D01*
X0038089Y0004084D01*
X0038056D01*
X0038023Y0004118D01*
Y0004218D01*
X0038189Y0004374D02*
X0038223Y0004391D01*
Y0004491D01*
X0038189Y0004508D01*
X0038056D01*
X0038023Y0004491D01*
Y0004391D01*
X0038056Y0004374D01*
X0031979Y0019683D02*
X0031962Y0019649D01*
X0031862D01*
X0031845Y0019683D01*
Y0019749D01*
X0031879Y0019783D01*
X0031979D01*
Y0019849D01*
X0031845D01*
X0032252Y0019649D02*
Y0019849D01*
X0032269Y0019649D02*
X0032169D01*
X0032135Y0019683D01*
Y0019716D01*
X0032152Y0019749D01*
X0032252D02*
X0032152D01*
X0032135Y0019783D01*
Y0019816D01*
X0032169Y0019849D01*
X0032269D01*
X0032425Y0019683D02*
X0032442Y0019649D01*
X0032542D01*
X0032559Y0019683D01*
Y0019816D01*
X0032542Y0019849D01*
X0032442D01*
X0032425Y0019816D01*
X0002713Y0014854D02*
Y0014988D01*
X0002579Y0014854D01*
X0002546D01*
X0002513Y0014871D01*
Y0014971D01*
X0002546Y0014988D01*
X0002679Y0015144D02*
X0002713Y0015161D01*
Y0015261D01*
X0002679Y0015278D01*
X0002546D01*
X0002513Y0015261D01*
Y0015161D01*
X0002546Y0015144D01*
X0002779Y0015434D02*
Y0015568D01*
X0002679Y0015724D02*
X0002713Y0015741D01*
Y0015841D01*
X0002679Y0015858D01*
X0002546D01*
X0002513Y0015841D01*
Y0015741D01*
X0002546Y0015724D01*
X0002713Y0016131D02*
X0002513D01*
X0002713Y0016148D02*
Y0016048D01*
X0002679Y0016014D01*
X0002646D01*
X0002613Y0016031D01*
Y0016131D02*
Y0016031D01*
X0002579Y0016014D01*
X0002546D01*
X0002513Y0016048D01*
Y0016148D01*
X0015131Y0014657D02*
X0015198D01*
X0015164D02*
Y0014857D01*
X0015198Y0014824D01*
X0015388Y0014857D02*
Y0014657D01*
X0015421Y0014690D01*
X0015488Y0014824D01*
X0015521Y0014857D01*
Y0014657D01*
X0015678D02*
X0015744D01*
X0015711D02*
Y0014857D01*
X0015678D02*
X0015744D01*
X0015934Y0014690D02*
X0015951Y0014657D01*
X0016051D01*
X0016068Y0014690D01*
Y0014824D01*
X0016051Y0014857D01*
X0015951D01*
X0015934Y0014824D01*
X0016224Y0014590D02*
X0016358D01*
X0016564Y0014757D02*
X0016514Y0014657D01*
X0016648Y0014757D02*
X0016548D01*
X0016514Y0014790D01*
Y0014824D01*
X0016548Y0014857D01*
X0016648D01*
Y0014657D01*
X0016804Y0014857D02*
Y0014790D01*
X0016871Y0014657D01*
X0016938Y0014790D01*
Y0014857D01*
X0013962Y0012228D02*
Y0012128D01*
X0013995Y0012111D01*
X0014029D01*
X0014062Y0012128D01*
Y0012228D01*
X0014029Y0012244D01*
X0013995D01*
X0013862Y0012178D01*
Y0011954D02*
Y0011821D01*
X0013995Y0011954D01*
X0014029D01*
X0014062Y0011938D01*
Y0011838D01*
X0014029Y0011821D01*
X0013862Y0011548D02*
X0014062D01*
X0013862Y0011531D02*
Y0011631D01*
X0013929Y0011664D01*
X0013995D01*
X0014062Y0011631D01*
Y0011531D01*
X0039979Y0000269D02*
X0040045D01*
X0040012D02*
Y0000469D01*
X0040045Y0000436D01*
X0040352Y0000269D02*
Y0000469D01*
X0040369Y0000269D02*
X0040269D01*
X0040235Y0000336D01*
Y0000403D01*
X0040269Y0000469D01*
X0040369D01*
X0040525Y0000303D02*
X0040542Y0000269D01*
X0040642D01*
X0040659Y0000303D01*
Y0000436D01*
X0040642Y0000469D01*
X0040542D01*
X0040525Y0000436D01*
X0004043Y0018419D02*
Y0018285D01*
X0004177Y0018352D01*
Y0018385D01*
X0003977D01*
X0004043Y0018062D02*
X0003977Y0018129D01*
X0004010Y0017995D02*
X0003977Y0018012D01*
Y0018079D01*
X0004010Y0018095D01*
X0004043Y0018129D01*
X0004143D01*
X0004177Y0018112D01*
Y0018012D01*
X0004143Y0017995D01*
X0004010D01*
X0008245Y0019889D02*
X0008379D01*
X0008245Y0020023D01*
Y0020056D01*
X0008262Y0020089D01*
X0008362D01*
X0008379Y0020056D01*
X0008535D02*
X0008552Y0020089D01*
X0008652D01*
X0008669Y0020056D01*
Y0020023D01*
X0008652Y0019989D01*
X0008552D01*
X0008535Y0019956D01*
Y0019923D01*
X0008552Y0019889D01*
X0008652D01*
X0008669Y0019923D01*
X0008875Y0019989D02*
X0008825Y0019889D01*
X0008959Y0019989D02*
X0008859D01*
X0008825Y0020023D01*
Y0020056D01*
X0008859Y0020089D01*
X0008959D01*
Y0019889D01*
X0009115Y0019823D02*
X0009249D01*
X0009405Y0019923D02*
X0009422Y0019889D01*
X0009522D01*
X0009539Y0019923D01*
Y0020056D01*
X0009522Y0020089D01*
X0009422D01*
X0009405Y0020056D01*
X0009812Y0019889D02*
Y0020089D01*
X0009829Y0019889D02*
X0009729D01*
X0009695Y0019923D01*
Y0019956D01*
X0009712Y0019989D01*
X0009812D02*
X0009712D01*
X0009695Y0020023D01*
Y0020056D01*
X0009729Y0020089D01*
X0009829D01*
X0001297Y0023679D02*
X0001330Y0023645D01*
X0001364Y0023629D01*
X0001430D01*
X0001464Y0023645D01*
X0001497Y0023679D01*
Y0023712D01*
X0001464Y0023745D01*
X0001430Y0023762D01*
X0001364D01*
X0001330Y0023745D01*
X0001297Y0023712D01*
Y0023679D01*
Y0023472D02*
Y0023405D01*
Y0023439D02*
X0001497D01*
X0001464Y0023405D01*
X0001297Y0023099D02*
X0001497D01*
X0001297Y0023082D02*
Y0023182D01*
X0001330Y0023215D01*
X0001364D01*
X0001397Y0023199D01*
Y0023099D02*
Y0023199D01*
X0001430Y0023215D01*
X0001464D01*
X0001497Y0023182D01*
Y0023082D01*
X0001330Y0022925D02*
X0001297Y0022909D01*
Y0022809D01*
X0001330Y0022792D01*
X0001464D01*
X0001497Y0022809D01*
Y0022909D01*
X0001464Y0022925D01*
X0004029Y0020401D02*
Y0020334D01*
Y0020368D02*
X0004229D01*
X0004196Y0020334D01*
X0004129Y0020094D02*
X0004029Y0020144D01*
X0004129Y0020011D02*
Y0020111D01*
X0004163Y0020144D01*
X0004196D01*
X0004229Y0020111D01*
Y0020011D01*
X0004029D01*
X0003963Y0019854D02*
Y0019721D01*
X0004063Y0019564D02*
X0004029Y0019548D01*
Y0019448D01*
X0004063Y0019431D01*
X0004196D01*
X0004229Y0019448D01*
Y0019548D01*
X0004196Y0019564D01*
X0004029Y0019158D02*
X0004229D01*
X0004029Y0019141D02*
Y0019241D01*
X0004063Y0019274D01*
X0004096D01*
X0004129Y0019258D01*
Y0019158D02*
Y0019258D01*
X0004163Y0019274D01*
X0004196D01*
X0004229Y0019241D01*
Y0019141D01*
X0001350Y0020282D02*
X0001317Y0020299D01*
Y0020399D01*
X0001350Y0020415D01*
X0001417D01*
X0001450Y0020382D01*
Y0020282D01*
X0001517D01*
Y0020415D01*
X0001417Y0020075D02*
X0001317Y0020125D01*
X0001417Y0019992D02*
Y0020092D01*
X0001450Y0020125D01*
X0001484D01*
X0001517Y0020092D01*
Y0019992D01*
X0001317D01*
X0001250Y0019835D02*
Y0019702D01*
X0001350Y0019545D02*
X0001317Y0019529D01*
Y0019429D01*
X0001350Y0019412D01*
X0001484D01*
X0001517Y0019429D01*
Y0019529D01*
X0001484Y0019545D01*
X0001317Y0019139D02*
X0001517D01*
X0001317Y0019122D02*
Y0019222D01*
X0001350Y0019255D01*
X0001384D01*
X0001417Y0019239D01*
Y0019139D02*
Y0019239D01*
X0001450Y0019255D01*
X0001484D01*
X0001517Y0019222D01*
Y0019122D01*
X0003813Y0014878D02*
Y0014944D01*
Y0014911D02*
X0003613D01*
X0003646Y0014944D01*
X0003779Y0015134D02*
X0003813Y0015151D01*
Y0015251D01*
X0003779Y0015268D01*
X0003646D01*
X0003613Y0015251D01*
Y0015151D01*
X0003646Y0015134D01*
X0003879Y0015424D02*
Y0015558D01*
X0003779Y0015714D02*
X0003813Y0015731D01*
Y0015831D01*
X0003779Y0015848D01*
X0003646D01*
X0003613Y0015831D01*
Y0015731D01*
X0003646Y0015714D01*
X0003813Y0016121D02*
X0003613D01*
X0003813Y0016138D02*
Y0016038D01*
X0003779Y0016004D01*
X0003746D01*
X0003713Y0016021D01*
Y0016121D02*
Y0016021D01*
X0003679Y0016004D01*
X0003646D01*
X0003613Y0016038D01*
Y0016138D01*
X0008774Y0016164D02*
X0008908D01*
X0008841Y0016297D01*
X0008808D01*
Y0016097D01*
X0009064Y0016130D02*
X0009081Y0016097D01*
X0009181D01*
X0009198Y0016130D01*
Y0016264D01*
X0009181Y0016297D01*
X0009081D01*
X0009064Y0016264D01*
X0009354Y0016030D02*
X0009488D01*
X0009644Y0016130D02*
X0009661Y0016097D01*
X0009761D01*
X0009778Y0016130D01*
Y0016264D01*
X0009761Y0016297D01*
X0009661D01*
X0009644Y0016264D01*
X0010051Y0016097D02*
Y0016297D01*
X0010068Y0016097D02*
X0009968D01*
X0009934Y0016130D01*
Y0016164D01*
X0009951Y0016197D01*
X0010051D02*
X0009951D01*
X0009934Y0016230D01*
Y0016264D01*
X0009968Y0016297D01*
X0010068D01*
X0011883Y0010978D02*
X0011816D01*
X0011850D02*
Y0010778D01*
X0011816Y0010811D01*
X0011560Y0010978D02*
Y0010778D01*
X0011626D02*
X0011493D01*
X0011303Y0010878D02*
X0011203D01*
X0011336Y0010978D02*
X0011203D01*
Y0010778D01*
X0011336D01*
X0011013Y0010878D02*
X0010913D01*
Y0010978D02*
Y0010778D01*
X0011046D01*
X0002087Y0020419D02*
X0002120Y0020435D01*
X0002154D01*
X0002187Y0020419D01*
Y0020319D01*
X0002154Y0020302D01*
X0002120D01*
X0002087Y0020319D01*
Y0020419D01*
X0002054Y0020435D01*
X0002020D01*
X0001987Y0020419D01*
Y0020319D01*
X0002020Y0020302D01*
X0002054D01*
X0002087Y0020319D01*
Y0020095D02*
X0001987Y0020145D01*
X0002087Y0020012D02*
Y0020112D01*
X0002120Y0020145D01*
X0002154D01*
X0002187Y0020112D01*
Y0020012D01*
X0001987D01*
X0001920Y0019855D02*
Y0019722D01*
X0002020Y0019565D02*
X0001987Y0019549D01*
Y0019449D01*
X0002020Y0019432D01*
X0002154D01*
X0002187Y0019449D01*
Y0019549D01*
X0002154Y0019565D01*
X0001987Y0019159D02*
X0002187D01*
X0001987Y0019142D02*
Y0019242D01*
X0002020Y0019275D01*
X0002054D01*
X0002087Y0019259D01*
Y0019159D02*
Y0019259D01*
X0002120Y0019275D01*
X0002154D01*
X0002187Y0019242D01*
Y0019142D01*
X0004073Y0024201D02*
X0004039Y0024234D01*
Y0024301D01*
X0004073Y0024334D01*
X0004106D01*
X0004173Y0024268D01*
X0004239Y0024334D01*
Y0024201D01*
X0004073Y0024044D02*
X0004039Y0024028D01*
Y0023928D01*
X0004073Y0023911D01*
X0004206D01*
X0004239Y0023928D01*
Y0024028D01*
X0004206Y0024044D01*
X0003973Y0023754D02*
Y0023621D01*
X0004073Y0023464D02*
X0004039Y0023448D01*
Y0023348D01*
X0004073Y0023331D01*
X0004206D01*
X0004239Y0023348D01*
Y0023448D01*
X0004206Y0023464D01*
X0004039Y0023058D02*
X0004239D01*
X0004039Y0023041D02*
Y0023141D01*
X0004073Y0023174D01*
X0004106D01*
X0004139Y0023158D01*
Y0023058D02*
Y0023158D01*
X0004173Y0023174D01*
X0004206D01*
X0004239Y0023141D01*
Y0023041D01*
X0035864Y0003827D02*
X0035998D01*
X0035864Y0003960D01*
Y0003993D01*
X0035881Y0004027D01*
X0035981D01*
X0035998Y0003993D01*
X0036154Y0003827D02*
X0036221D01*
X0036188D02*
Y0004027D01*
X0036221Y0003993D01*
X0036411Y0004027D02*
Y0003860D01*
X0036428Y0003827D01*
X0036528D01*
X0036544Y0003860D01*
Y0004027D01*
X0028680Y0015820D02*
X0028747D01*
X0028713D02*
Y0016020D01*
X0028747Y0015987D01*
X0047140Y0025123D02*
Y0025190D01*
Y0025157D02*
X0047340D01*
X0047307Y0025190D01*
X0042568Y0000757D02*
X0042468Y0000957D01*
X0042601D01*
X0042758Y0000757D02*
X0042824D01*
X0042791D02*
Y0000957D01*
X0042824Y0000924D01*
X0043064Y0000857D02*
X0043014Y0000757D01*
X0043148Y0000857D02*
X0043048D01*
X0043014Y0000890D01*
Y0000924D01*
X0043048Y0000957D01*
X0043148D01*
Y0000757D01*
X0047090Y-0004297D02*
Y-0004230D01*
Y-0004263D02*
X0047290D01*
X0047257Y-0004230D01*
X0031793Y0006553D02*
X0031827Y0006587D01*
X0031843Y0006620D01*
Y0006687D01*
X0031827Y0006720D01*
X0031793Y0006753D01*
X0031760D01*
X0031727Y0006720D01*
X0031710Y0006687D01*
Y0006620D01*
X0031727Y0006587D01*
X0031760Y0006553D01*
X0031793D01*
X0032133Y0006587D02*
X0032117Y0006553D01*
X0032017D01*
X0032000Y0006587D01*
Y0006653D01*
X0032033Y0006687D01*
X0032133D01*
Y0006753D01*
X0032000D01*
X0001583Y0015271D02*
Y0015371D01*
X0001549Y0015388D01*
X0001516D01*
X0001483Y0015371D01*
Y0015271D01*
X0001516Y0015254D01*
X0001549D01*
X0001683Y0015321D01*
Y0015661D02*
X0001483D01*
X0001683Y0015678D02*
Y0015578D01*
X0001649Y0015544D01*
X0001616D01*
X0001583Y0015561D01*
Y0015661D02*
Y0015561D01*
X0001549Y0015544D01*
X0001516D01*
X0001483Y0015578D01*
Y0015678D01*
X0001649Y0015834D02*
X0001683Y0015851D01*
Y0015951D01*
X0001649Y0015968D01*
X0001516D01*
X0001483Y0015951D01*
Y0015851D01*
X0001516Y0015834D01*
X0018457Y0020483D02*
X0018390D01*
X0018423D02*
Y0020683D01*
X0018390Y0020650D01*
X0002337Y0002863D02*
X0002270D01*
X0002303D02*
Y0003063D01*
X0002270Y0003030D01*
X0031803Y0010493D02*
X0031837Y0010527D01*
X0031853Y0010560D01*
Y0010627D01*
X0031837Y0010660D01*
X0031803Y0010693D01*
X0031770D01*
X0031737Y0010660D01*
X0031720Y0010627D01*
Y0010560D01*
X0031737Y0010527D01*
X0031770Y0010493D01*
X0031803D01*
X0032010Y0010560D02*
X0032143D01*
X0032077Y0010693D01*
X0032043D01*
Y0010493D01*
X0006260Y0016503D02*
Y0016570D01*
Y0016537D02*
X0006460D01*
X0006427Y0016570D01*
X0010570Y0014550D02*
Y0014483D01*
Y0014517D02*
X0010370D01*
X0010403Y0014483D01*
X0007750Y0007403D02*
Y0007470D01*
Y0007437D02*
X0007950D01*
X0007917Y0007470D01*
X0000407Y0010733D02*
X0000340D01*
X0000373D02*
Y0010933D01*
X0000340Y0010900D01*
X0000250Y0005043D02*
X0000317D01*
X0000283D02*
Y0004843D01*
X0000317Y0004877D01*
X0027882Y0016600D02*
Y0016534D01*
Y0016567D02*
X0028082D01*
X0028049Y0016534D01*
X0043804Y0013614D02*
Y0013480D01*
X0043938Y0013547D01*
Y0013580D01*
X0043738D01*
Y0013324D02*
Y0013190D01*
X0043871Y0013324D01*
X0043904D01*
X0043938Y0013307D01*
Y0013207D01*
X0043904Y0013190D01*
X0043771Y0013034D02*
X0043738Y0013017D01*
Y0012917D01*
X0043771Y0012900D01*
X0043904D01*
X0043938Y0012917D01*
Y0013017D01*
X0043904Y0013034D01*
X0041529Y0009433D02*
X0041562Y0009467D01*
X0041629D01*
X0041662Y0009433D01*
Y0009400D01*
X0041596Y0009333D01*
X0041662Y0009267D01*
X0041529D01*
X0041239Y0009367D02*
X0041339D01*
X0041372Y0009333D01*
Y0009300D01*
X0041339Y0009267D01*
X0041239D01*
Y0009467D01*
X0041082D02*
Y0009267D01*
X0041049Y0009300D01*
X0041016Y0009367D01*
X0040982Y0009300D01*
X0040949Y0009267D01*
Y0009467D01*
X0040792Y0009400D02*
X0040659D01*
X0040792Y0009467D02*
Y0009367D01*
X0040742Y0009267D01*
X0040709D01*
X0040659Y0009367D01*
Y0009467D01*
X0040019Y0009885D02*
X0039953D01*
X0039986D02*
Y0009685D01*
X0039953Y0009718D01*
X0040822Y0009814D02*
Y0009847D01*
X0040855D01*
Y0009814D01*
X0040822D01*
X0043743Y0012267D02*
Y0012133D01*
X0043877Y0012267D01*
X0043910D01*
X0043943Y0012250D01*
Y0012150D01*
X0043910Y0012133D01*
X0043843Y0011843D02*
Y0011943D01*
X0043877Y0011977D01*
X0043910D01*
X0043943Y0011943D01*
Y0011843D01*
X0043743D01*
Y0011687D02*
X0043943D01*
X0043910Y0011653D01*
X0043843Y0011620D01*
X0043910Y0011587D01*
X0043943Y0011553D01*
X0043743D01*
X0043810Y0011397D02*
Y0011263D01*
X0043743Y0011397D02*
X0043843D01*
X0043943Y0011347D01*
Y0011313D01*
X0043843Y0011263D01*
X0043743D01*
X0043325Y0010634D02*
Y0010567D01*
Y0010600D02*
X0043525D01*
X0043492Y0010567D01*
X0043406Y0011426D02*
X0043372D01*
Y0011460D01*
X0043406D01*
Y0011426D01*
X0039569Y0011039D02*
X0039469D01*
X0039452Y0011006D01*
Y0010973D01*
X0039469Y0010939D01*
X0039569D01*
X0039585Y0010973D01*
Y0011006D01*
X0039519Y0011139D01*
X0039742Y0010939D02*
X0039859D01*
Y0011139D01*
X0031823Y0014413D02*
X0031857Y0014447D01*
X0031873Y0014480D01*
Y0014547D01*
X0031857Y0014580D01*
X0031823Y0014613D01*
X0031790D01*
X0031757Y0014580D01*
X0031740Y0014547D01*
Y0014480D01*
X0031757Y0014447D01*
X0031790Y0014413D01*
X0031823D01*
X0032163Y0014447D02*
X0032130Y0014413D01*
X0032063D01*
X0032030Y0014447D01*
Y0014480D01*
X0032097Y0014547D01*
X0032030Y0014613D01*
X0032163D01*
X0042978Y0015640D02*
X0042961Y0015607D01*
X0042861D01*
X0042844Y0015640D01*
Y0015707D01*
X0042878Y0015740D01*
X0042978D01*
Y0015807D01*
X0042844D01*
X0043134Y0015607D02*
X0043268D01*
X0043134Y0015740D01*
Y0015774D01*
X0043151Y0015807D01*
X0043251D01*
X0043268Y0015774D01*
X0043424Y0015640D02*
X0043441Y0015607D01*
X0043541D01*
X0043558Y0015640D01*
Y0015774D01*
X0043541Y0015807D01*
X0043441D01*
X0043424Y0015774D01*
X0040494Y0020202D02*
X0040528Y0020235D01*
X0040544Y0020268D01*
Y0020335D01*
X0040528Y0020368D01*
X0040494Y0020402D01*
X0040461D01*
X0040428Y0020368D01*
X0040411Y0020335D01*
Y0020268D01*
X0040428Y0020235D01*
X0040461Y0020202D01*
X0040494D01*
X0040834Y0020235D02*
X0040801Y0020202D01*
X0040734D01*
X0040701Y0020235D01*
Y0020268D01*
X0040768Y0020335D01*
X0040701Y0020402D01*
X0040834D01*
X0040991Y0020235D02*
X0041008Y0020202D01*
X0041108D01*
X0041124Y0020235D01*
Y0020368D01*
X0041108Y0020402D01*
X0041008D01*
X0040991Y0020368D01*
X0041423Y0017308D02*
X0041523D01*
X0041539Y0017341D01*
Y0017374D01*
X0041523Y0017408D01*
X0041423D01*
X0041406Y0017374D01*
Y0017341D01*
X0041473Y0017208D01*
X0041696D02*
X0041829D01*
X0041696Y0017341D01*
Y0017374D01*
X0041713Y0017408D01*
X0041813D01*
X0041829Y0017374D01*
X0041986Y0017241D02*
X0042003Y0017208D01*
X0042103D01*
X0042119Y0017241D01*
Y0017374D01*
X0042103Y0017408D01*
X0042003D01*
X0041986Y0017374D01*
X0040603Y0014064D02*
X0040736D01*
X0040670Y0014198D01*
X0040636D01*
Y0013998D01*
X0041026Y0014098D02*
X0040926D01*
X0040893Y0014131D01*
Y0014164D01*
X0040926Y0014198D01*
X0041026D01*
Y0013998D01*
X0041183D02*
Y0014198D01*
X0041216Y0014164D01*
X0041250Y0014098D01*
X0041283Y0014164D01*
X0041316Y0014198D01*
Y0013998D01*
X0041473Y0014064D02*
X0041606D01*
X0041473Y0013998D02*
Y0014098D01*
X0041523Y0014198D01*
X0041556D01*
X0041606Y0014098D01*
Y0013998D01*
X0042216Y0013569D02*
X0042283D01*
X0042250D02*
Y0013769D01*
X0042283Y0013736D01*
X0041444Y0013650D02*
Y0013617D01*
X0041410D01*
Y0013650D01*
X0041444D01*
X0042478Y0014596D02*
Y0014462D01*
X0042612Y0014596D01*
X0042645D01*
X0042678Y0014579D01*
Y0014479D01*
X0042645Y0014462D01*
X0042678Y0014306D02*
X0042612D01*
X0042478Y0014239D01*
X0042612Y0014172D01*
X0042678D01*
X0042478Y0014016D02*
Y0013899D01*
X0042678D01*
X0043384Y0014267D02*
X0043350D01*
Y0014300D01*
X0043384D01*
Y0014267D01*
X0042280Y0020171D02*
X0042180Y0020371D01*
X0042313D01*
X0042470Y0020171D02*
X0042587D01*
Y0020371D01*
X0037077Y0017469D02*
X0037144D01*
X0037110D02*
Y0017669D01*
X0037144Y0017635D01*
X0037467Y0017502D02*
X0037434Y0017469D01*
X0037367D01*
X0037334Y0017502D01*
Y0017535D01*
X0037400Y0017602D01*
X0037334Y0017669D01*
X0037467D01*
X0037624Y0017502D02*
X0037640Y0017469D01*
X0037740D01*
X0037757Y0017502D01*
Y0017635D01*
X0037740Y0017669D01*
X0037640D01*
X0037624Y0017635D01*
X0001979Y0023984D02*
X0002179Y0024084D01*
Y0023951D01*
X0002079Y0023744D02*
X0001979Y0023794D01*
X0002079Y0023661D02*
Y0023761D01*
X0002113Y0023794D01*
X0002146D01*
X0002179Y0023761D01*
Y0023661D01*
X0001979D01*
X0001913Y0023504D02*
Y0023371D01*
X0002013Y0023214D02*
X0001979Y0023198D01*
Y0023098D01*
X0002013Y0023081D01*
X0002146D01*
X0002179Y0023098D01*
Y0023198D01*
X0002146Y0023214D01*
X0001979Y0022808D02*
X0002179D01*
X0001979Y0022791D02*
Y0022891D01*
X0002013Y0022924D01*
X0002046D01*
X0002079Y0022908D01*
Y0022808D02*
Y0022908D01*
X0002113Y0022924D01*
X0002146D01*
X0002179Y0022891D01*
Y0022791D01*
X0019211Y0020526D02*
X0019178Y0020492D01*
X0019111D01*
X0019078Y0020526D01*
Y0020559D01*
X0019144Y0020626D01*
X0019078Y0020692D01*
X0019211D01*
X0019484Y0020559D02*
Y0020526D01*
X0019468Y0020492D01*
X0019401D01*
X0019384Y0020526D01*
Y0020692D01*
X0019368D02*
X0019434D01*
X0022280Y0009252D02*
X0022247Y0009269D01*
Y0009369D01*
X0022280Y0009386D01*
X0022347D01*
X0022380Y0009352D01*
Y0009252D01*
X0022447D01*
Y0009386D01*
X0022247Y0009096D02*
Y0009029D01*
Y0009062D02*
X0022447D01*
X0022414Y0009029D01*
X0022314Y0008722D02*
X0022280D01*
X0022247Y0008739D01*
Y0008806D01*
X0022280Y0008822D01*
X0022447D01*
Y0008839D02*
Y0008772D01*
X0028417Y0006053D02*
X0028317D01*
X0028300Y0006020D01*
Y0005987D01*
X0028317Y0005953D01*
X0028417D01*
X0028433Y0005987D01*
Y0006020D01*
X0028367Y0006153D01*
X0028590Y0005953D02*
X0028723D01*
X0028590Y0006087D01*
Y0006120D01*
X0028607Y0006153D01*
X0028707D01*
X0028723Y0006120D01*
X-0001489Y0009189D02*
Y0009256D01*
Y0009223D02*
X-0001689D01*
X-0001656Y0009256D01*
X-0001589Y0009513D02*
Y0009446D01*
X-0001523D01*
X-0001489Y0009463D01*
Y0009563D01*
X-0001523Y0009579D01*
X-0001656D01*
X-0001689Y0009563D01*
Y0009463D01*
X-0001656Y0009446D01*
X-0001523Y0009736D02*
X-0001489Y0009753D01*
Y0009853D01*
X-0001523Y0009869D01*
X-0001656D01*
X-0001689Y0009853D01*
Y0009753D01*
X-0001656Y0009736D01*
X-0001689Y0010026D02*
X-0001523D01*
X-0001489Y0010043D01*
Y0010143D01*
X-0001523Y0010159D01*
X-0001689D01*
X-0001557Y0012812D02*
Y0012879D01*
Y0012845D02*
X-0001757D01*
X-0001724Y0012879D01*
X-0001577Y0007027D02*
Y0007160D01*
X-0001710Y0007027D01*
X-0001744D01*
X-0001777Y0007043D01*
Y0007143D01*
X-0001744Y0007160D01*
X-0001577Y0007317D02*
Y0007383D01*
Y0007350D02*
X-0001777D01*
X-0001744Y0007383D01*
X0011055Y0021155D02*
Y0021044D01*
X0010999Y0021155D02*
X0011083D01*
X0011166Y0021113D01*
Y0021085D01*
X0011083Y0021044D01*
X0010999D01*
X0011755Y0019221D02*
X0011722Y0019254D01*
Y0019321D01*
X0011755Y0019354D01*
X0011789D01*
X0011855Y0019288D01*
X0011922Y0019354D01*
Y0019221D01*
X0011789Y0019064D02*
Y0018931D01*
X0011922Y0018998D01*
Y0019031D01*
X0011722D01*
Y0018658D02*
X0011922D01*
X0011722Y0018641D02*
Y0018741D01*
X0011789Y0018774D01*
X0011855D01*
X0011922Y0018741D01*
Y0018641D01*
X0005125Y0004283D02*
X0005059D01*
X0005092D02*
Y0004083D01*
X0005059Y0004116D01*
X0004869Y0004183D02*
X0004735D01*
X0004869Y0004283D02*
Y0004083D01*
X0004735Y0004283D02*
Y0004083D01*
G54D201*
G01X0010675Y0018740D02*
Y0019390D01*
X0011506D02*
Y0018740D01*
X0011360Y0019950D02*
X0011110Y0019700D01*
X0010850Y0019960D01*
X0011350D01*
X0010830Y0019640D02*
X0011380D01*
X0014340Y0001575D02*
X0013690D01*
Y0002406D02*
X0014340D01*
X0013130Y0002260D02*
X0013380Y0002010D01*
X0013120Y0001750D01*
Y0002250D01*
X0013440Y0001730D02*
Y0002280D01*
X0008306D02*
Y0001630D01*
X0008160Y0002840D02*
X0007910Y0002590D01*
X0007650Y0002850D01*
X0008150D01*
X0007630Y0002530D02*
X0008180D01*
X0007475Y0001630D02*
Y0002280D01*
X0009706Y0012310D02*
Y0011660D01*
X0012775Y0011650D02*
Y0012300D01*
X0013606D02*
Y0011650D01*
X0013460Y0012860D02*
X0013210Y0012610D01*
X0012950Y0012870D01*
X0013450D01*
X0009560D02*
X0009310Y0012620D01*
X0009050Y0012880D01*
X0009550D01*
X0012930Y0012550D02*
X0013480D01*
X0009030Y0012560D02*
X0009580D01*
X0008875Y0011660D02*
Y0012310D01*
M02*
