*
G04 Mass Parameters ***
*
G04 Image ***
*
%INC:\PROJECTS\RAGOBOTS_HW\ROBOT\HW\BODY\DESIGN\RAGOBOT.IN2*%
%ICAS*%
%MOIN*%
%IPPOS*%
%ASAXBY*%
G74*%FSLAN2X34Y34*%
*
G04 Aperture Definitions ***
*
%AMTHERMAL68*
1,1,0.0389,0,0,*
1,0,0.0370,0,0,*
21,0,0.0390,0.1000,0,0,45.0*
21,0,0.0390,0.1000,0,0,135.0*%
%AMTHERMAL73*
1,1,0.0174,0,0,*
1,0,0.0155,0,0,*
21,0,0.0175,0.1000,0,0,45.0*
21,0,0.0175,0.1000,0,0,135.0*%
%AMTHERMAL77*
1,1,0.0174,0,0,*
1,0,0.0155,0,0,*
21,0,0.0175,0.1000,0,0,46.2*
21,0,0.0175,0.1000,0,0,136.2*%
%AMTHERMAL164*
1,1,0.0409,0,0,*
1,0,0.0390,0,0,*
21,0,0.0410,0.1000,0,0,225.0*
21,0,0.0410,0.1000,0,0,315.0*%
%AMTHERMAL165*
1,1,0.0708,0,0,*
1,0,0.0689,0,0,*
21,0,0.0709,0.1000,0,0,315.0*
21,0,0.0709,0.1000,0,0,45.0*%
%AMTHERMAL166*
1,1,0.0419,0,0,*
1,0,0.0400,0,0,*
21,0,0.0420,0.1000,0,0,315.0*
21,0,0.0420,0.1000,0,0,45.0*%
%AMTHERMAL167*
1,1,0.0708,0,0,*
1,0,0.0689,0,0,*
21,0,0.0709,0.1000,0,0,135.0*
21,0,0.0709,0.1000,0,0,225.0*%
%AMTHERMAL168*
1,1,0.0419,0,0,*
1,0,0.0400,0,0,*
21,0,0.0420,0.1000,0,0,135.0*
21,0,0.0420,0.1000,0,0,225.0*%
%AMTHERMAL169*
1,1,0.0708,0,0,*
1,0,0.0689,0,0,*
21,0,0.0709,0.1000,0,0,225.0*
21,0,0.0709,0.1000,0,0,315.0*%
%AMTHERMAL170*
1,1,0.0419,0,0,*
1,0,0.0400,0,0,*
21,0,0.0420,0.1000,0,0,225.0*
21,0,0.0420,0.1000,0,0,315.0*%
%AMTHERMAL171*
1,1,0.0708,0,0,*
1,0,0.0689,0,0,*
21,0,0.0709,0.1000,0,0,45.0*
21,0,0.0709,0.1000,0,0,135.0*%
%AMTHERMAL172*
1,1,0.0419,0,0,*
1,0,0.0400,0,0,*
21,0,0.0420,0.1000,0,0,45.0*
21,0,0.0420,0.1000,0,0,135.0*%
%AMTHERMAL174*
1,1,0.1039,0,0,*
1,0,0.1020,0,0,*
21,0,0.1040,0.1000,0,0,45.0*
21,0,0.1040,0.1000,0,0,135.0*%
%AMTHERMAL175*
1,1,0.1039,0,0,*
1,0,0.1020,0,0,*
21,0,0.1040,0.1000,0,0,225.0*
21,0,0.1040,0.1000,0,0,315.0*%
%AMTHERMAL178*
1,1,0.0409,0,0,*
1,0,0.0390,0,0,*
21,0,0.0410,0.1000,0,0,45.0*
21,0,0.0410,0.1000,0,0,135.0*%
%AMTHERMAL179*
1,1,0.0354,0,0,*
1,0,0.0335,0,0,*
21,0,0.0355,0.1000,0,0,135.0*
21,0,0.0355,0.1000,0,0,225.0*%
%AMTHERMAL199*
1,1,0.0259,0,0,*
1,0,0.0240,0,0,*
21,0,0.0260,0.1000,0,0,315.0*
21,0,0.0260,0.1000,0,0,45.0*%
%AMTHERMAL200*
1,1,0.0409,0,0,*
1,0,0.0390,0,0,*
21,0,0.0410,0.1000,0,0,315.0*
21,0,0.0410,0.1000,0,0,45.0*%
%AMTHERMAL202*
1,1,0.0389,0,0,*
1,0,0.0370,0,0,*
21,0,0.0390,0.1000,0,0,315.0*
21,0,0.0390,0.1000,0,0,45.0*%
%AMTHERMAL269*
1,1,0.0459,0,0,*
1,0,0.0440,0,0,*
21,0,0.0460,0.1000,0,0,225.0*
21,0,0.0460,0.1000,0,0,315.0*%
%AMTHERMAL273*
1,1,0.0399,0,0,*
1,0,0.0380,0,0,*
21,0,0.0400,0.1000,0,0,315.0*
21,0,0.0400,0.1000,0,0,45.0*%
%AMTHERMAL275*
1,1,0.0719,0,0,*
1,0,0.0700,0,0,*
21,0,0.0720,0.1000,0,0,315.0*
21,0,0.0720,0.1000,0,0,45.0*%
%AMTHERMAL276*
1,1,0.0459,0,0,*
1,0,0.0440,0,0,*
21,0,0.0460,0.1000,0,0,315.0*
21,0,0.0460,0.1000,0,0,45.0*%
%AMTHERMAL278*
1,1,0.0719,0,0,*
1,0,0.0700,0,0,*
21,0,0.0720,0.1000,0,0,135.0*
21,0,0.0720,0.1000,0,0,225.0*%
%AMTHERMAL279*
1,1,0.0459,0,0,*
1,0,0.0440,0,0,*
21,0,0.0460,0.1000,0,0,135.0*
21,0,0.0460,0.1000,0,0,225.0*%
%AMTHERMAL281*
1,1,0.0719,0,0,*
1,0,0.0700,0,0,*
21,0,0.0720,0.1000,0,0,225.0*
21,0,0.0720,0.1000,0,0,315.0*%
%AMTHERMAL282*
1,1,0.0719,0,0,*
1,0,0.0700,0,0,*
21,0,0.0720,0.1000,0,0,45.0*
21,0,0.0720,0.1000,0,0,135.0*%
%AMTHERMAL286*
1,1,0.0409,0,0,*
1,0,0.0390,0,0,*
21,0,0.0410,0.1000,0,0,135.0*
21,0,0.0410,0.1000,0,0,225.0*%
%AMTHERMAL296*
1,1,0.0299,0,0,*
1,0,0.0280,0,0,*
21,0,0.0300,0.1000,0,0,135.0*
21,0,0.0300,0.1000,0,0,225.0*%
%AMTHERMAL302*
1,1,0.0174,0,0,*
1,0,0.0155,0,0,*
21,0,0.0175,0.1000,0,0,46.3*
21,0,0.0175,0.1000,0,0,136.3*%
%AMTHERMAL386*
1,1,0.0174,0,0,*
1,0,0.0155,0,0,*
21,0,0.0175,0.1000,0,0,47.0*
21,0,0.0175,0.1000,0,0,137.0*%
%AMTHERMAL453*
1,1,0.0439,0,0,*
1,0,0.0420,0,0,*
21,0,0.0440,0.1000,0,0,225.0*
21,0,0.0440,0.1000,0,0,315.0*%
%AMTHERMAL454*
1,1,0.0709,0,0,*
1,0,0.0690,0,0,*
21,0,0.0710,0.1000,0,0,315.0*
21,0,0.0710,0.1000,0,0,45.0*%
%AMTHERMAL455*
1,1,0.0439,0,0,*
1,0,0.0420,0,0,*
21,0,0.0440,0.1000,0,0,315.0*
21,0,0.0440,0.1000,0,0,45.0*%
%AMTHERMAL456*
1,1,0.0709,0,0,*
1,0,0.0690,0,0,*
21,0,0.0710,0.1000,0,0,135.0*
21,0,0.0710,0.1000,0,0,225.0*%
%AMTHERMAL457*
1,1,0.0439,0,0,*
1,0,0.0420,0,0,*
21,0,0.0440,0.1000,0,0,135.0*
21,0,0.0440,0.1000,0,0,225.0*%
%AMTHERMAL458*
1,1,0.0709,0,0,*
1,0,0.0690,0,0,*
21,0,0.0710,0.1000,0,0,225.0*
21,0,0.0710,0.1000,0,0,315.0*%
%AMTHERMAL459*
1,1,0.0709,0,0,*
1,0,0.0690,0,0,*
21,0,0.0710,0.1000,0,0,45.0*
21,0,0.0710,0.1000,0,0,135.0*%
%AMTHERMAL460*
1,1,0.0439,0,0,*
1,0,0.0420,0,0,*
21,0,0.0440,0.1000,0,0,45.0*
21,0,0.0440,0.1000,0,0,135.0*%
%AMTHERMAL461*
1,1,0.1289,0,0,*
1,0,0.1270,0,0,*
21,0,0.1290,0.1000,0,0,45.0*
21,0,0.1290,0.1000,0,0,135.0*%
%AMTHERMAL462*
1,1,0.1289,0,0,*
1,0,0.1270,0,0,*
21,0,0.1290,0.1000,0,0,225.0*
21,0,0.1290,0.1000,0,0,315.0*%
%AMTHERMAL463*
1,1,0.0399,0,0,*
1,0,0.0380,0,0,*
21,0,0.0400,0.1000,0,0,45.0*
21,0,0.0400,0.1000,0,0,135.0*%
%AMTHERMAL464*
1,1,0.0399,0,0,*
1,0,0.0380,0,0,*
21,0,0.0400,0.1000,0,0,225.0*
21,0,0.0400,0.1000,0,0,315.0*%
%AMTHERMAL465*
1,1,0.0289,0,0,*
1,0,0.0270,0,0,*
21,0,0.0290,0.1000,0,0,135.0*
21,0,0.0290,0.1000,0,0,225.0*%
%AMTHERMAL466*
1,1,0.0174,0,0,*
1,0,0.0155,0,0,*
21,0,0.0175,0.1000,0,0,45.3*
21,0,0.0175,0.1000,0,0,135.3*%
%AMTHERMAL468*
1,1,0.0174,0,0,*
1,0,0.0155,0,0,*
21,0,0.0175,0.1000,0,0,45.1*
21,0,0.0175,0.1000,0,0,135.1*%
%AMTHERMAL470*
1,1,0.0399,0,0,*
1,0,0.0380,0,0,*
21,0,0.0400,0.1000,0,0,135.0*
21,0,0.0400,0.1000,0,0,225.0*%
%ADD10C,0.1750*%
%ADD11O,0.0940X0.0250*%
%ADD12R,0.0940X0.0250*%
%ADD13R,0.1181X0.1181*%
%ADD14O,0.0118X0.0472*%
%ADD15O,0.0472X0.0118*%
%ADD16R,0.0472X0.0118*%
%ADD17R,0.0780X0.0720*%
%ADD18R,0.0720X0.0780*%
%ADD19C,0.0580*%
%ADD20R,0.0580X0.0580*%
%ADD21R,0.0600X0.0800*%
%ADD22R,0.0800X0.0600*%
%ADD23R,0.1575X0.1181*%
%ADD24R,0.0220X0.0220*%
%ADD25R,0.1200X0.0760*%
%ADD26R,0.1420X0.0720*%
%ADD27R,0.0400X0.0480*%
%ADD28R,0.0480X0.0400*%
%ADD29C,0.0620*%
%ADD30C,0.1700*%
%ADD31C,0.1450*%
%ADD32R,0.0315X0.0315*%
%ADD33C,0.0472*%
%ADD34C,0.1771*%
%ADD35C,0.0750*%
%ADD36R,0.0750X0.0750*%
%ADD37O,0.0860X0.0250*%
%ADD38R,0.0860X0.0250*%
%ADD39O,0.0680X0.0130*%
%ADD40R,0.0680X0.0130*%
%ADD41O,0.1000X0.0250*%
%ADD42R,0.1000X0.0250*%
%ADD43O,0.0250X0.1000*%
%ADD44R,0.0250X0.1000*%
%ADD45C,0.0787*%
%ADD46C,0.1100*%
%ADD47R,0.0480X0.0740*%
%ADD48R,0.3149X0.2362*%
%ADD49R,0.1968X0.2362*%
%ADD50C,0.0250*%
%ADD51C,0.0250*%
%ADD52C,0.0100*%
%ADD53C,0.0250*%
%ADD54C,0.0300*%
%ADD55C,0.0120*%
%ADD56C,0.0200*%
%ADD57C,0.0118*%
%ADD58C,0.0080*%
%ADD59C,0.0150*%
%ADD60R,0.1141X0.0354*%
%ADD61R,0.0708X0.0157*%
%ADD62C,0.0010*%
%ADD63C,0.2100*%
%ADD64C,0.0950*%
%ADD65R,0.0950X0.0950*%
%ADD66C,0.1000*%
%ADD67C,0.1900*%
%ADD68THERMAL68*%
%ADD69C,0.0900*%
%ADD70R,0.0900X0.0900*%
%ADD71C,0.0800*%
%ADD72R,0.1100X0.1100*%
%ADD73THERMAL73*%
%ADD74C,0.0600*%
%ADD75C,0.0500*%
%ADD76C,0.0600*%
%ADD77THERMAL77*%
%ADD78C,0.0780*%
%ADD79R,0.0780X0.0780*%
%ADD80C,0.0700*%
%ADD81C,0.1550*%
%ADD82C,0.0500*%
%ADD83C,0.0500*%
%ADD84C,0.0670*%
%ADD85C,0.1650*%
%ADD86C,0.1200*%
%ADD87R,0.1142X0.0354*%
%ADD88C,0.1260*%
%ADD89C,0.0060*%
%ADD90C,0.0039*%
%ADD91C,0.0070*%
%ADD92C,0.0098*%
%ADD93C,0.0050*%
%ADD94C,0.0130*%
%ADD95C,0.0130*%
%ADD96O,0.0302X0.0787*%
%ADD97O,0.0787X0.0302*%
%ADD98R,0.0787X0.0302*%
%ADD99O,0.0160X0.0700*%
%ADD100R,0.0160X0.0700*%
%ADD101O,0.0394X0.0181*%
%ADD102R,0.0394X0.0181*%
%ADD103O,0.0181X0.0394*%
%ADD104R,0.0181X0.0394*%
%ADD105R,0.1181X0.1575*%
%ADD106R,0.1200X0.0800*%
%ADD107R,0.0320X0.0380*%
%ADD108R,0.0551X0.1417*%
%ADD109R,0.0560X0.0920*%
%ADD110R,0.0960X0.0960*%
%ADD111R,0.0400X0.0560*%
%ADD112R,0.0480X0.0560*%
%ADD113O,0.0149X0.0409*%
%ADD114R,0.0149X0.0409*%
%ADD115R,0.0315X0.0118*%
%ADD116R,0.0118X0.0315*%
%ADD117C,0.0866*%
%ADD118R,0.0760X0.1200*%
%ADD119C,0.0394*%
%ADD120R,0.1102X0.0964*%
%ADD121C,0.0200*%
%ADD122R,0.0200X0.0200*%
%ADD123R,0.0800X0.1200*%
%ADD124R,0.0620X0.0620*%
%ADD125O,0.0250X0.0860*%
%ADD126R,0.0250X0.0860*%
%ADD127O,0.0130X0.0680*%
%ADD128R,0.0130X0.0680*%
%ADD129R,0.0472X0.1260*%
%ADD130C,0.0480*%
%ADD131C,0.0550*%
%ADD132C,0.0748*%
%ADD133R,0.1299X0.1220*%
%ADD134R,0.1476X0.0315*%
%ADD135O,0.0250X0.0940*%
%ADD136R,0.0250X0.0940*%
%ADD137O,0.0160X0.0940*%
%ADD138R,0.0160X0.0940*%
%ADD139O,0.0940X0.0160*%
%ADD140R,0.0940X0.0160*%
%ADD141O,0.0160X0.0900*%
%ADD142R,0.0160X0.0900*%
%ADD143O,0.0590X0.0110*%
%ADD144R,0.0590X0.0110*%
%ADD145O,0.0110X0.0590*%
%ADD146R,0.0110X0.0590*%
%ADD147C,0.0433*%
%ADD148R,0.0433X0.0433*%
%ADD149C,0.0420*%
%ADD150R,0.0420X0.0420*%
%ADD151O,0.0138X0.0551*%
%ADD152R,0.0138X0.0551*%
%ADD153R,0.0600X0.0600*%
%ADD154R,0.1000X0.0640*%
%ADD155R,0.0380X0.0320*%
%ADD156R,0.0748X0.1890*%
%ADD157R,0.0640X0.1000*%
%ADD158R,0.2000X0.6300*%
%ADD159R,0.0118X0.0512*%
%ADD160R,0.0708X0.0866*%
%ADD161R,0.0748X0.0472*%
%ADD162O,0.0900X0.0160*%
%ADD163R,0.0900X0.0160*%
%ADD164THERMAL164*%
%ADD165THERMAL165*%
%ADD166THERMAL166*%
%ADD167THERMAL167*%
%ADD168THERMAL168*%
%ADD169THERMAL169*%
%ADD170THERMAL170*%
%ADD171THERMAL171*%
%ADD172THERMAL172*%
%ADD173C,0.1142*%
%ADD174THERMAL174*%
%ADD175THERMAL175*%
%ADD176C,0.0820*%
%ADD177R,0.0820X0.0820*%
%ADD178THERMAL178*%
%ADD179THERMAL179*%
%ADD180C,0.0512*%
%ADD181R,0.0590X0.0590*%
%ADD182R,0.0250X0.0250*%
%ADD183R,0.0098X0.0512*%
%ADD184C,0.0079*%
%ADD185C,0.0197*%
%ADD186R,0.0302X0.0787*%
%ADD187R,0.1417X0.0551*%
%ADD188C,0.0020*%
%ADD189R,0.0720X0.0720*%
%ADD190R,0.0590X0.0236*%
%ADD191R,0.0708X0.0315*%
%ADD192R,0.0964X0.1102*%
%ADD193O,0.0551X0.0138*%
%ADD194R,0.0551X0.0138*%
%ADD195R,0.1890X0.0748*%
%ADD196C,0.0400*%
%ADD197R,0.0827X0.0551*%
%ADD198R,0.0551X0.0098*%
%ADD199THERMAL199*%
%ADD200THERMAL200*%
%ADD201C,0.0110*%
%ADD202THERMAL202*%
%ADD203R,0.0984X0.0984*%
%ADD204C,0.0830*%
%ADD205C,0.0650*%
%ADD206C,0.0400*%
%ADD207R,0.0400X0.0400*%
%ADD208O,0.0551X0.0122*%
%ADD209R,0.0551X0.0122*%
%ADD210C,0.1000*%
%ADD211C,0.0250*%
%ADD212C,0.0250*%
%ADD213C,0.0315*%
%ADD214C,0.0130*%
%ADD215C,0.0600*%
%ADD216O,0.0181X0.0394*%
%ADD217R,0.0181X0.0394*%
%ADD218O,0.0394X0.0181*%
%ADD219R,0.0394X0.0181*%
%ADD220R,0.0380X0.0320*%
%ADD221R,0.0640X0.1000*%
%ADD222R,0.0220X0.0220*%
%ADD223R,0.0760X0.1200*%
%ADD224O,0.0940X0.0250*%
%ADD225R,0.0940X0.0250*%
%ADD226C,0.1750*%
%ADD227C,0.0472*%
%ADD228R,0.1141X0.0354*%
%ADD229R,0.0708X0.0157*%
%ADD230C,0.0620*%
%ADD231R,0.0720X0.0720*%
%ADD232C,0.0580*%
%ADD233R,0.0580X0.0580*%
%ADD234O,0.0250X0.0940*%
%ADD235R,0.0250X0.0940*%
%ADD236R,0.2000X0.6300*%
%ADD237O,0.0860X0.0250*%
%ADD238R,0.0860X0.0250*%
%ADD239R,0.0118X0.0315*%
%ADD240R,0.0315X0.0118*%
%ADD241C,0.0866*%
%ADD242R,0.0118X0.0512*%
%ADD243R,0.0708X0.0866*%
%ADD244C,0.0830*%
%ADD245C,0.0550*%
%ADD246R,0.0827X0.0551*%
%ADD247R,0.0551X0.0098*%
%ADD248R,0.0320X0.0380*%
%ADD249C,0.1000*%
%ADD250R,0.0620X0.0620*%
%ADD251C,0.1771*%
%ADD252O,0.0250X0.0860*%
%ADD253R,0.0250X0.0860*%
%ADD254O,0.0680X0.0118*%
%ADD255R,0.0680X0.0118*%
%ADD256C,0.0650*%
%ADD257C,0.0800*%
%ADD258O,0.0940X0.0160*%
%ADD259R,0.0940X0.0160*%
%ADD260C,0.0400*%
%ADD261R,0.0400X0.0400*%
%ADD262C,0.0420*%
%ADD263R,0.0420X0.0420*%
%ADD264C,0.0250*%
%ADD265C,0.0320*%
%ADD266C,0.0350*%
%ADD267C,0.1750*%
%ADD268C,0.0866*%
%ADD269THERMAL269*%
%ADD270C,0.0800*%
%ADD271C,0.0780*%
%ADD272R,0.0780X0.0780*%
%ADD273THERMAL273*%
%ADD274R,0.0800X0.0800*%
%ADD275THERMAL275*%
%ADD276THERMAL276*%
%ADD277C,0.0800*%
%ADD278THERMAL278*%
%ADD279THERMAL279*%
%ADD280C,0.0800*%
%ADD281THERMAL281*%
%ADD282THERMAL282*%
%ADD283C,0.1142*%
%ADD284C,0.0780*%
%ADD285R,0.0780X0.0780*%
%ADD286THERMAL286*%
%ADD287C,0.0750*%
%ADD288R,0.0800X0.0800*%
%ADD289C,0.2100*%
%ADD290C,0.0820*%
%ADD291R,0.0820X0.0820*%
%ADD292C,0.1700*%
%ADD293C,0.0850*%
%ADD294C,0.0750*%
%ADD295C,0.1260*%
%ADD296THERMAL296*%
%ADD297C,0.0650*%
%ADD298R,0.0650X0.0650*%
%ADD299C,0.0500*%
%ADD300C,0.0500*%
%ADD301C,0.0500*%
%ADD302THERMAL302*%
%ADD303C,0.0800*%
%ADD304C,0.1150*%
%ADD305C,0.1142*%
%ADD306C,0.0780*%
%ADD307R,0.0780X0.0780*%
%ADD308C,0.0750*%
%ADD309C,0.1500*%
%ADD310C,0.1750*%
%ADD311C,0.0820*%
%ADD312C,0.0650*%
%ADD313O,0.0787X0.0302*%
%ADD314O,0.0302X0.0787*%
%ADD315R,0.0302X0.0787*%
%ADD316O,0.0160X0.0700*%
%ADD317R,0.0160X0.0700*%
%ADD318R,0.0984X0.0984*%
%ADD319O,0.0118X0.0472*%
%ADD320O,0.0472X0.0118*%
%ADD321R,0.0472X0.0118*%
%ADD322R,0.1181X0.1575*%
%ADD323R,0.0220X0.0220*%
%ADD324R,0.1200X0.0800*%
%ADD325R,0.0800X0.1200*%
%ADD326C,0.1750*%
%ADD327C,0.0472*%
%ADD328R,0.0380X0.0320*%
%ADD329R,0.1417X0.0551*%
%ADD330C,0.0620*%
%ADD331R,0.0320X0.0380*%
%ADD332R,0.0560X0.0920*%
%ADD333C,0.0580*%
%ADD334R,0.0580X0.0580*%
%ADD335R,0.0720X0.0720*%
%ADD336R,0.0400X0.0560*%
%ADD337R,0.0480X0.0560*%
%ADD338O,0.0149X0.0409*%
%ADD339R,0.0149X0.0409*%
%ADD340C,0.0866*%
%ADD341C,0.0830*%
%ADD342C,0.0550*%
%ADD343R,0.0590X0.0236*%
%ADD344R,0.0708X0.0315*%
%ADD345R,0.0964X0.1102*%
%ADD346R,0.0315X0.0118*%
%ADD347R,0.0118X0.0315*%
%ADD348C,0.0200*%
%ADD349R,0.0200X0.0200*%
%ADD350C,0.1000*%
%ADD351R,0.0620X0.0620*%
%ADD352C,0.1771*%
%ADD353O,0.0860X0.0250*%
%ADD354R,0.0860X0.0250*%
%ADD355R,0.0472X0.1260*%
%ADD356C,0.0650*%
%ADD357C,0.0800*%
%ADD358R,0.1299X0.1220*%
%ADD359R,0.1476X0.0315*%
%ADD360O,0.0940X0.0250*%
%ADD361R,0.0940X0.0250*%
%ADD362O,0.0940X0.0160*%
%ADD363R,0.0940X0.0160*%
%ADD364O,0.0160X0.0900*%
%ADD365R,0.0160X0.0900*%
%ADD366O,0.0590X0.0110*%
%ADD367R,0.0590X0.0110*%
%ADD368O,0.0110X0.0590*%
%ADD369R,0.0110X0.0590*%
%ADD370C,0.0400*%
%ADD371R,0.0400X0.0400*%
%ADD372C,0.0420*%
%ADD373R,0.0420X0.0420*%
%ADD374O,0.0551X0.0122*%
%ADD375R,0.0551X0.0122*%
%ADD376O,0.0250X0.0940*%
%ADD377R,0.0250X0.0940*%
%ADD378R,0.0600X0.0600*%
%ADD379R,0.0640X0.1000*%
%ADD380R,0.1890X0.0748*%
%ADD381C,0.0250*%
%ADD382C,0.0250*%
%ADD383C,0.1750*%
%ADD384C,0.0866*%
%ADD385C,0.0500*%
%ADD386THERMAL386*%
%ADD387C,0.1750*%
%ADD388C,0.0866*%
%ADD389C,0.0800*%
%ADD390O,0.0787X0.0302*%
%ADD391O,0.0302X0.0787*%
%ADD392R,0.0302X0.0787*%
%ADD393O,0.0160X0.0700*%
%ADD394R,0.0160X0.0700*%
%ADD395R,0.0984X0.0984*%
%ADD396O,0.0118X0.0472*%
%ADD397O,0.0472X0.0118*%
%ADD398R,0.0472X0.0118*%
%ADD399R,0.1181X0.1575*%
%ADD400R,0.1200X0.0800*%
%ADD401R,0.0800X0.1200*%
%ADD402C,0.0470*%
%ADD403R,0.1417X0.0551*%
%ADD404R,0.0560X0.0920*%
%ADD405R,0.0400X0.0560*%
%ADD406R,0.0480X0.0560*%
%ADD407O,0.0149X0.0409*%
%ADD408R,0.0149X0.0409*%
%ADD409C,0.0870*%
%ADD410R,0.0590X0.0236*%
%ADD411R,0.0708X0.0315*%
%ADD412R,0.0964X0.1102*%
%ADD413R,0.0250X0.0250*%
%ADD414R,0.0472X0.1260*%
%ADD415R,0.1299X0.1220*%
%ADD416R,0.1476X0.0315*%
%ADD417O,0.0160X0.0900*%
%ADD418R,0.0160X0.0900*%
%ADD419O,0.0590X0.0110*%
%ADD420R,0.0590X0.0110*%
%ADD421O,0.0110X0.0590*%
%ADD422R,0.0110X0.0590*%
%ADD423O,0.0551X0.0122*%
%ADD424R,0.0551X0.0122*%
%ADD425R,0.0600X0.0600*%
%ADD426R,0.1890X0.0748*%
%ADD427R,0.1142X0.0354*%
%ADD428R,0.0098X0.0512*%
%ADD429C,0.0460*%
%ADD430C,0.0669*%
%ADD431C,0.1023*%
%ADD432C,0.1500*%
%ADD433O,0.0680X0.0118*%
%ADD434R,0.0680X0.0118*%
%ADD435C,0.0410*%
%ADD436R,0.0410X0.0410*%
%ADD437R,0.1181X0.0787*%
%ADD438C,0.0250*%
%ADD439C,0.0220*%
%ADD440C,0.0160*%
%ADD441C,0.0236*%
%ADD442C,0.0800*%
%ADD443C,0.0460*%
%ADD444O,0.0160X0.0315*%
%ADD445R,0.0160X0.0315*%
%ADD446C,0.0669*%
%ADD447C,0.1023*%
%ADD448C,0.1500*%
%ADD449C,0.0410*%
%ADD450R,0.0410X0.0410*%
%ADD451C,0.1750*%
%ADD452C,0.0866*%
%ADD453THERMAL453*%
%ADD454THERMAL454*%
%ADD455THERMAL455*%
%ADD456THERMAL456*%
%ADD457THERMAL457*%
%ADD458THERMAL458*%
%ADD459THERMAL459*%
%ADD460THERMAL460*%
%ADD461THERMAL461*%
%ADD462THERMAL462*%
%ADD463THERMAL463*%
%ADD464THERMAL464*%
%ADD465THERMAL465*%
%ADD466THERMAL466*%
%ADD467C,0.0500*%
%ADD468THERMAL468*%
%ADD469C,0.0800*%
%ADD470THERMAL470*%
%ADD471C,0.1650*%
%ADD472C,0.1142*%
%ADD473R,0.1000X0.0640*%
%ADD474R,0.1181X0.0787*%
%ADD475C,0.1260*%
%ADD476R,0.0680X0.0130*%
*
G04 Plot Data ***
*
G54D54*
G01X0000100Y0006960D02*
X-0000420D01*
X-0000740Y0007280D01*
Y0009820D01*
X-0001180D01*
G54D55*
G01X0016100Y0012620D02*
Y0013400D01*
X0015780Y0013720D01*
X0013600D01*
X0013180Y0014140D01*
G54D56*
G01X0009555Y0018980D02*
X0006740D01*
X0006030Y0018270D01*
X0004490D01*
X0009555Y0018980D02*
X0006740D01*
X0006030Y0018270D01*
X0004490D01*
X0042530Y0008790D02*
Y0008580D01*
Y0008410D01*
Y0008220D01*
X0042540D01*
X0042585Y0008180D01*
Y0007360D01*
X0042181D01*
X0041491Y0006670D01*
X0042530Y0008790D02*
Y0008580D01*
Y0008410D01*
X0041491Y0006670D02*
X0041281Y0006460D01*
X0040640D01*
X0040100Y0007000D01*
Y0008260D01*
X0039580Y0008780D01*
X0038680D01*
X0038180Y0008280D01*
X0038040D01*
X0037800Y0008520D01*
Y0008980D01*
X0037675Y0009105D01*
X0004351Y0018591D02*
X0005220Y0019460D01*
X0007520D01*
G54D58*
G01X0032500Y0016195D02*
X0032575Y0016120D01*
X0036920D01*
X0037180Y0015860D01*
X0037660D01*
X0037980Y0016180D01*
Y0016310D01*
X0037930Y0016360D01*
X0008860Y0014270D02*
X0008340Y0014790D01*
Y0015540D01*
X0008560Y0015760D01*
X0009040D01*
X0009560Y0016280D01*
Y0018855D01*
X0009555Y0018860D01*
Y0018980D01*
X0023045Y0006440D02*
X0023060D01*
X0023280D01*
X0023320Y0006400D01*
X0025480D01*
X0026280Y0007200D01*
X0027780D01*
X0028000Y0006980D01*
Y0005745D01*
X0011840Y0005240D02*
X0011960Y0005360D01*
X0013080D01*
X0013260Y0005180D01*
X0014060D01*
X0014280Y0005400D01*
X0014900D01*
X0015220Y0005080D01*
Y0004580D01*
X0015400Y0004400D01*
X0017280D01*
X0017400Y0004520D01*
Y0005200D01*
X0017600D01*
X0017940Y0005540D01*
X0020000D01*
X0020400Y0005940D01*
X0022840D01*
X0023060Y0006160D01*
Y0006440D01*
X0023045D01*
X0011840Y0005240D02*
X0011960Y0005360D01*
X0013080D01*
X0013260Y0005180D01*
X0014060D01*
X0014280Y0005400D01*
X0014900D01*
X0015220Y0005080D01*
Y0004580D01*
X0015400Y0004400D01*
X0017280D01*
X0017400Y0004520D01*
Y0005200D01*
X0016980D01*
X0015480Y0006380D02*
Y0006620D01*
X0015620Y0006760D01*
Y0007500D01*
X0015940Y0007820D01*
X0016860D01*
X0019140Y0010100D01*
X0020400D01*
X0020700Y0009800D01*
X0021100D01*
X0014060Y0009255D02*
X0013985Y0009180D01*
X0010700D01*
X0010380Y0009500D01*
Y0010910D01*
X0010900Y0011430D01*
Y0017660D01*
X0011090Y0017850D01*
X0025320Y0003355D02*
X0025085Y0003120D01*
X0023920D01*
X0022280Y0004760D01*
X0021115D01*
X0044080Y0008530D02*
Y0008550D01*
X0044130Y0008600D01*
X0044140D01*
X0034835Y0009720D02*
X0035080D01*
X0035300Y0009500D01*
Y0008350D01*
X0035650Y0008000D01*
X0022355Y0022195D02*
Y0021300D01*
X0022035Y0020980D01*
X0018366D01*
X0018026Y0020640D01*
X0038405Y0008000D02*
X0038645Y0007760D01*
X0039260D01*
X0039440Y0007940D01*
Y0008220D01*
X0012330Y0000980D02*
X0011930Y0000580D01*
X0010100D01*
X0010000Y0000480D01*
X0009990D01*
X0002150D01*
X0000620Y-0001050D01*
X-0003580D01*
X0010005Y0000820D02*
X0010040Y0000785D01*
Y0000530D01*
X0009990Y0000480D01*
X0002150D01*
X0000620Y-0001050D01*
X-0003580D01*
X0045140Y-0002745D02*
X0045445Y-0003050D01*
X0048090D01*
X0003645Y0019800D02*
X0007880D01*
X0008257Y0020177D01*
Y0021640D01*
X-0000160Y0007532D02*
Y0008200D01*
X-0000400Y0008440D01*
Y0009540D01*
X-0000080Y0009860D01*
X0006280D01*
X0006990Y0010570D01*
X0009820D01*
X0010140Y0010890D01*
Y0014515D01*
X0035960Y0013380D02*
X0035640Y0013700D01*
Y0015320D01*
X0035320Y0015640D01*
X0034200D01*
X0033520Y0014960D01*
X0028520D01*
X0028200Y0015280D01*
Y0015895D01*
X0028040Y0020380D02*
X0026680D01*
X0026380Y0020080D01*
X0025480D01*
X0024860Y0020700D01*
Y0021040D01*
X0014995Y0007020D02*
X0013700D01*
X0013100Y0007620D01*
X0012680D01*
Y0010280D02*
Y0010520D01*
X0012760Y0010600D01*
Y0012480D01*
X0012470Y0012770D01*
Y0014470D01*
X0012860Y0014860D01*
X0018100D01*
X0018260Y0014700D01*
X0018100Y0014540D01*
Y0013085D01*
X0014420Y0005155D02*
Y0004320D01*
X0014340Y0004240D01*
X0012940D01*
X0012620Y0003920D01*
Y0000560D01*
X0012780Y0000400D01*
X0012710Y0000330D01*
X0003150D01*
X0001260Y-0001560D01*
X-0002740D01*
X0004311Y0018591D02*
X0004351D01*
X0014660Y0016415D02*
Y0015340D01*
X0014340Y0015020D01*
X0012580D01*
X0012260Y0014700D01*
Y0010365D01*
Y0007475D02*
X0008780D01*
X0008465Y0007160D01*
X0007890D01*
X0036880Y0018540D02*
X0036760D01*
X0036110Y0019190D01*
X0027580D01*
X0025900Y0017510D01*
X0017500D01*
X0017180Y0017190D01*
Y0016420D01*
X0017365Y0016235D01*
X0018900D01*
Y0015221D02*
Y0015210D01*
X0018390Y0014700D01*
X0018260D01*
X0018100Y0014540D01*
Y0013085D01*
X0039895Y0019280D02*
X0040260Y0018915D01*
Y0013280D01*
X0039940Y0012960D01*
X0038165D01*
X0038060Y0012855D01*
X0035655Y0010300D02*
X0033600D01*
X0032410Y0011490D01*
X0032400D01*
Y0011440D01*
Y0011420D01*
X0025180Y0001270D02*
X0024750Y0000840D01*
X0021980D01*
X0021700Y0000560D01*
X0012940D01*
X0012780Y0000400D01*
X0012710Y0000330D01*
X0003150D01*
X0001260Y-0001560D01*
X-0002740D01*
X0027020Y0015980D02*
Y0016740D01*
X0027140Y0016860D01*
X0030620D01*
X0031800Y0015680D01*
X0032293D01*
X0036860Y0012060D02*
Y0010460D01*
X0037180Y0010140D01*
X0039500D01*
Y0009615D01*
X0007785Y0009920D02*
X0010145D01*
X0012860Y0018610D02*
Y0018180D01*
X0012980Y0018060D01*
X0014040D01*
X0014160Y0017940D01*
X0015480D01*
X0015800Y0017620D01*
Y0016160D01*
X0016120Y0015840D01*
X0019440D01*
X0020940Y0014340D01*
X0022080D01*
X0022640Y0014900D01*
X0025200D01*
X0025960Y0015660D01*
X0027025D01*
X0022800Y0012775D02*
X0022565Y0012540D01*
X0022100D01*
X0021860Y0012300D01*
X0020740D01*
X0020280Y0011840D01*
X0014780D01*
X0014460Y0011520D01*
Y0010100D01*
X0014180Y0009820D01*
X0013163D01*
X0012920Y0009576D01*
X0042985Y0012140D02*
X0042640D01*
X0042320Y0012460D01*
Y0014660D01*
X0024970Y0013040D02*
X0028780D01*
X0029180Y0012640D01*
X0031200D01*
X0032400Y0011440D01*
Y0011420D01*
X0027475Y0004380D02*
X0030960D01*
X0031282Y0004057D01*
Y0002380D01*
X0031602Y0002060D01*
X0034100D01*
X0034180Y0001980D01*
X0034420D01*
X0022520Y0009200D02*
X0020860D01*
X0020540Y0008880D01*
Y0007600D01*
X0020220Y0007280D01*
X0018020D01*
X0016560Y0005820D01*
X0013735D01*
X0013620Y0005705D01*
X0007890Y0007160D02*
X0008465D01*
X0008780Y0007475D01*
X0012260D01*
Y0007740D01*
X0012540Y0008020D01*
X0016540D01*
X0018780Y0010260D01*
X0020620D01*
X0020760Y0010120D01*
X0021055D01*
X0037890Y0018120D02*
X0036650Y0019360D01*
X0027480D01*
X0025800Y0017680D01*
X0017340D01*
X0017020Y0017360D01*
Y0016320D01*
X0017340Y0016000D01*
X0019760D01*
X0020920Y0014840D01*
X0021215D01*
X-0002250Y0007307D02*
Y0006500D01*
X-0001930Y0006180D01*
X0007580D01*
X0007076Y0007460D02*
X0007620D01*
X0008660Y0008500D01*
X0014460D01*
X0014780Y0008820D01*
Y0011180D01*
X0015100Y0011500D01*
X0020660D01*
X0020980Y0011820D01*
X0023860D01*
X0023920Y0011880D01*
X0026700D01*
X0026920Y0011660D01*
X0028080D01*
X0027660Y0012464D02*
X0027236Y0012040D01*
X0023760D01*
X0023700Y0011980D01*
X0020660D01*
X0020360Y0011680D01*
X0014940D01*
X0014620Y0011360D01*
Y0008980D01*
X0014300Y0008660D01*
X0007360D01*
X0007230Y0008530D01*
X0000270D01*
X0029760Y0003060D02*
X0029390Y0002690D01*
X0028850D01*
X0028380Y0002220D01*
Y0001090D01*
X0028250Y0000960D01*
X0029760Y0018555D02*
X0029725Y0018520D01*
X0027500D01*
X0026180Y0017200D01*
X0023180D01*
X0022330Y0016350D01*
X0020840D01*
X0020670Y0016520D01*
X0017420D01*
X0009410Y0015170D02*
X0009660D01*
Y0012360D01*
X0008060Y0010760D01*
X0006920D01*
X0006360Y0010200D01*
X0001340D01*
X0001120Y0010420D01*
X0000820D01*
X0000600Y0010200D01*
X-0001400D01*
X-0001720Y0009880D01*
Y0008821D01*
X-0002250Y0008291D01*
X0024400Y0012847D02*
Y0013220D01*
X0024620Y0013440D01*
X0026160D01*
X0026200Y0013400D01*
X0029260D01*
X0029320Y0013460D01*
X0033780D01*
X0034100Y0013140D01*
Y0011220D01*
X0034420Y0010900D01*
X0034753D01*
X0044180Y0007820D02*
Y0008240D01*
X0044580Y0008640D01*
X0045180D01*
X0046580Y0010040D01*
Y0013220D01*
X0047510Y0014150D01*
X0047710D01*
X0035320Y0004590D02*
Y0004320D01*
X0035440Y0004200D01*
X0035880D01*
X0036540Y0003540D01*
X0038005D01*
X0030080Y0007280D02*
X0030340Y0007020D01*
X0031340D01*
X0031660Y0006700D01*
Y0004930D01*
X0044000Y0005700D02*
X0044720Y0006420D01*
X0046060D01*
X0046340Y0006700D01*
X0047160D01*
X0038220Y0017920D02*
Y0018140D01*
X0036840Y0019520D01*
X0034520D01*
X0032760D01*
X0027380D01*
X0025700Y0017840D01*
X0022900D01*
X0017100D01*
X0016780Y0017520D01*
Y0016660D01*
X0013905Y0014140D02*
X0016360D01*
X0017660Y0012840D01*
X0018220D01*
X0018340Y0012960D01*
Y0013640D01*
X0018660Y0013960D01*
X0020000D01*
X0032760Y0019728D02*
Y0019520D01*
X0034520D01*
X0036840D01*
X0038220Y0018140D01*
Y0017920D01*
X0039830Y0006170D02*
X0041260Y0004740D01*
X0042800D01*
X0036815Y0012840D02*
X0037100D01*
X0037420Y0012520D01*
Y0011640D01*
X0037740Y0011320D01*
X0042900D01*
X0043220Y0011640D01*
Y0012260D01*
X0042560Y0012920D01*
Y0016459D01*
X0043835Y0009120D02*
X0041777D01*
X0041320Y0008662D01*
X0040682D01*
X0040360Y0008340D01*
Y0007240D01*
X0040680Y0006920D01*
X0041240D01*
X0041250Y0006930D01*
X0041270D01*
X0016283Y0008900D02*
X0015320D01*
X0015000Y0008580D01*
Y0008265D01*
X0043835Y0009120D02*
X0043860Y0009145D01*
Y0010640D01*
X0043700Y0010800D01*
X0040680D01*
X0040020Y0010140D01*
X0039500D01*
Y0009615D01*
X0047710Y0012150D02*
X0047020Y0011460D01*
Y0008320D01*
X0045280Y0006580D01*
X0044420D01*
X0044200Y0006800D01*
Y0007140D01*
X0026740Y0014180D02*
X0031320D01*
X0031600Y0013900D01*
X0035040D01*
X0035240Y0014100D01*
X0026740Y0013795D02*
X0026975Y0013560D01*
X0028920D01*
X0028980Y0013620D01*
X0033940D01*
X0034260Y0013300D01*
Y0011460D01*
X0034580Y0011140D01*
X0036000D01*
X0036320Y0010820D01*
Y0007260D01*
X0036640Y0006940D01*
X0037780D01*
X0038860Y0005860D01*
X0039640D01*
X0041120Y0004380D01*
Y0003930D01*
X0037455Y0006060D02*
X0036380D01*
X0036060Y0006380D01*
Y0009640D01*
X0035740Y0009960D01*
X0034720D01*
X0034600Y0009840D01*
Y0008733D01*
X0034753Y0008580D01*
X0033580Y0006425D02*
Y0008780D01*
X0033260Y0009100D01*
X0028495D01*
X0028175Y0009420D01*
Y0009815D01*
X0016058Y0020500D02*
X0016220D01*
Y0020400D01*
X0018940D01*
X0019360Y0020820D01*
X0024120D01*
X0024580Y0021280D01*
X0025080D01*
X0025800Y0020560D01*
X0026700D01*
X0027020Y0020880D01*
Y0022940D01*
X0030195Y0006500D02*
X0028860D01*
X0028000Y0007360D01*
X0026320D01*
X0025280Y0008400D01*
X0024280D01*
X0022820Y0006940D01*
X0020180D01*
X0018940Y0005700D01*
X0017740D01*
X0017480Y0005440D01*
X0016260D01*
X0016040Y0005660D01*
X0014120D01*
X0013860Y0005400D01*
X0013520D01*
X0013380Y0005540D01*
X0011780D01*
X0011700Y0005460D01*
X0009220D01*
X0007980Y0006700D01*
X0007640D01*
X0038405Y0013740D02*
X0038540Y0013875D01*
Y0020210D01*
X0037870Y0020880D01*
X0037000D01*
X0035760Y0022120D01*
X0034920D01*
X0034740Y0022300D01*
X0031350D01*
X0030930Y0021880D01*
X0046640Y0005330D02*
X0046550Y0005420D01*
X0043600D01*
X0043360Y0005660D01*
Y0006160D01*
X0042920Y0006600D01*
X0041840D01*
X0024960Y0019975D02*
X0025015Y0019920D01*
X0026540D01*
X0026840Y0020220D01*
X0027380D01*
X0027640Y0019960D01*
X0029240D01*
X0029360Y0020080D01*
Y0021080D01*
X0029040Y0021400D01*
X0028410D01*
X0027930Y0021880D01*
X0030240Y0018020D02*
X0030480D01*
X0030700Y0018240D01*
X0034840D01*
X0035160Y0017920D01*
Y0017360D01*
X0039015D02*
X0039000Y0017345D01*
Y0013600D01*
X0038730Y0013330D01*
X0038060D01*
X0037890Y0013500D01*
X0037665D01*
X0024240Y0011318D02*
X0029415D01*
X0029780Y0011682D01*
X0034915Y0011380D02*
X0036160D01*
X0036480Y0011060D01*
Y0007740D01*
X0036800Y0007420D01*
X0037780D01*
X0036880Y0018120D02*
X0036760D01*
X0035850Y0019030D01*
X0027710D01*
X0026030Y0017350D01*
X0022265D01*
X0022080Y0017165D01*
X0047710Y0013150D02*
X0047350D01*
X0046740Y0012540D01*
Y0009000D01*
X0045370Y0007630D01*
X0044510D01*
X0035655Y0009360D02*
X0035900Y0009115D01*
Y0007880D01*
X0035680Y0007660D01*
X0034220D01*
X0033900Y0007980D01*
Y0009080D01*
X0033580Y0009400D01*
X0032320D01*
X0032600Y0003046D02*
X0032926Y0002720D01*
X0035200D01*
X0035520Y0003040D01*
Y0003960D01*
X0017633Y0020640D02*
X0018133Y0021140D01*
X0021700D01*
X0022020Y0021460D01*
X0029360Y0022705D02*
X0029755Y0023100D01*
X0041220D01*
X0041540Y0022780D01*
Y0012580D01*
X0041220Y0012260D01*
X0037774D01*
X0027520Y0011005D02*
X0027495Y0010980D01*
X0018700D01*
X0017900Y0010180D01*
X0016240D01*
X0015920Y0010500D01*
Y0010835D01*
X0010140Y0010240D02*
X0007045D01*
X0030235Y0002820D02*
X0030640Y0002415D01*
Y0001350D01*
X0031350Y0000640D01*
X0033100D01*
X0033220Y0000760D01*
Y0001380D01*
X0033540Y0001700D01*
X0037605D01*
X0037860Y0001445D01*
X0034500Y0002960D02*
X0033980D01*
X0033220Y0003720D01*
X0032420D01*
X0030880Y0005260D01*
Y0005565D01*
X0030865Y0005580D01*
X0039485Y0007420D02*
Y0006835D01*
X0039800Y0006520D01*
X0040040D01*
X0040460Y0006100D01*
X0042400D01*
X0043200Y0005300D01*
Y0003460D01*
X0042960Y0003220D01*
X0038400D01*
X0038100Y0002920D01*
X0036515D01*
X0035355Y0005580D02*
X0035073D01*
X0034753Y0005900D01*
Y0006900D01*
X0041060Y0010155D02*
X0040685Y0009780D01*
X0040260D01*
X0039820Y0009340D01*
X0037560D01*
X0037440Y0009220D01*
Y0008720D01*
X0037540Y0008620D01*
Y0007765D01*
X0034420Y0001440D02*
X0034320Y0001540D01*
X0033700D01*
X0033380Y0001220D01*
Y0000680D01*
X0033100Y0000400D01*
X0027740D01*
X0027420Y0000720D01*
Y0001760D01*
X0023880Y0014495D02*
X0023895Y0014480D01*
X0024740D01*
X0025040Y0014180D01*
X0025680D01*
X0026080Y0014580D01*
X0027980D01*
X0043860Y0004180D02*
Y0002080D01*
X0043540Y0001760D01*
X0041160D01*
X0040360Y0000960D01*
X0039707D01*
X0012000Y0010045D02*
Y0013120D01*
X0011740Y0013380D01*
Y0015380D01*
X0013500Y0017140D01*
X0015020D01*
X0015420Y0017540D01*
X0013620Y0002700D02*
X0013900Y0002980D01*
X0016980D01*
X0021220Y0015300D02*
X0023580D01*
X0023800Y0015520D01*
Y0016300D01*
X0024400Y0016900D01*
X0025200D01*
X0025740Y0016360D01*
X0026655D01*
X0026780Y0016485D01*
Y0016605D01*
X0034753Y0012720D02*
X0035160D01*
X0035480Y0013040D01*
Y0014900D01*
X0035240Y0015140D01*
X0033080Y0019895D02*
X0032795Y0020180D01*
X0031560D01*
X0031120Y0019740D01*
X0024860D01*
X0024700Y0019900D01*
Y0020100D01*
X0024480Y0020320D01*
X0019660D01*
X0019580Y0020240D01*
X0015660D01*
X0015340Y0020560D01*
Y0021680D01*
X0015460Y0021800D01*
X0017436D01*
X0043040Y0008880D02*
X0043960D01*
X0044180Y0009100D01*
Y0017340D01*
X0044420Y0017580D01*
X0019160Y0014995D02*
X0018970Y0014805D01*
Y0014520D01*
X0019240Y0014250D01*
X0020470D01*
X0020680Y0014040D01*
Y0013740D01*
X0023120D01*
X0024260Y0012600D01*
X0026840D01*
Y0012613D01*
X0026849Y0012622D01*
X0021106Y0012627D02*
X0021119Y0012640D01*
X0021365D01*
X0022065Y0013340D01*
X0024640Y0013085D02*
X0024835Y0013280D01*
X0025680D01*
X0025720Y0013240D01*
X0029400D01*
X0029460Y0013300D01*
X0033460D01*
X0033780Y0012980D01*
Y0010900D01*
X0034100Y0010580D01*
X0034753D01*
X0037655Y0012600D02*
X0041060D01*
X0041380Y0012920D01*
Y0022620D01*
X0041060Y0022940D01*
X0030780D01*
X0030500Y0022660D01*
Y0021320D01*
X0030820Y0021000D01*
X0032045D01*
X0025350Y0019120D02*
X0024380D01*
X0023340Y0020160D01*
X0020420D01*
X0019460Y0019200D01*
X0013700D01*
X0013420Y0019480D01*
Y0019880D01*
X0013100Y0020200D01*
X0011820D01*
X0011500Y0020520D01*
Y0022500D01*
X0010860Y0023140D01*
X0003600D01*
X0002500Y0022040D01*
X0000200D01*
X-0000120Y0021720D01*
Y0017220D01*
X0000200Y0016900D01*
X0001297D01*
X0001537Y0017140D01*
X0000125Y0018280D02*
X0001300D01*
X0003220Y0020200D01*
Y0020415D01*
X0011645Y0019320D02*
X0011500D01*
X0010180Y0018000D01*
Y0015040D01*
X0009880Y0014740D01*
Y0012100D01*
X0009335Y0011555D01*
Y0010820D01*
X0035080Y0017040D02*
X0038095D01*
X0038300Y0016835D01*
X0024180Y0001270D02*
X0023950Y0001040D01*
X0019375D01*
X0011875Y0020600D02*
X0011860Y0020615D01*
Y0022120D01*
X0012180Y0022440D01*
X0015440D01*
X0015630Y0022630D01*
X0017650D01*
X0017840Y0022440D01*
X0028300Y0014555D02*
X0028085Y0014340D01*
X0027340D01*
X0027260Y0014420D01*
X0026400D01*
X0026000Y0014020D01*
X0024840D01*
X0024640Y0014220D01*
X0023655D01*
X0023460Y0014415D01*
X0009100Y0007220D02*
X0011580D01*
X0012220Y0006580D01*
X0013480D01*
X0013680Y0006780D01*
X0015280D01*
X0015320Y0006820D01*
Y0007066D01*
X0036880Y0013625D02*
Y0014160D01*
X0037345Y0014625D01*
X0037900D01*
X0038045Y0014480D01*
X0038060Y0014495D01*
X0027520Y0011005D02*
X0027555Y0011040D01*
X0029700D01*
X0030020Y0011360D01*
Y0012400D01*
X0032722Y0008180D02*
X0030020D01*
X0029420Y0008780D01*
X0026220D01*
X0026000Y0008560D01*
X0023300D01*
X0023160Y0008420D01*
X0021592D01*
X0021577Y0008405D01*
X0026460Y0016615D02*
Y0016860D01*
X0026620Y0017020D01*
X0031260D01*
X0032360Y0015920D01*
X0036300D01*
X0036520Y0015700D01*
Y0011760D01*
X0036640Y0011640D01*
Y0009565D01*
X0036985Y0009220D01*
X0027340Y0002165D02*
Y0002560D01*
X0027660Y0002880D01*
X0029060D01*
X0029640Y0003460D01*
X0030340D01*
X0030560Y0003680D01*
Y0003975D01*
X0035655Y0004460D02*
X0036200D01*
X0036880Y0003780D01*
X0038760D01*
X0039020Y0003520D01*
X0041809D01*
X0042160Y0003871D01*
X0035900Y0011720D02*
X0036280Y0012100D01*
Y0013760D01*
X0035900Y0014140D01*
Y0015050D01*
X0008280Y0021613D02*
X0008257Y0021640D01*
X0030900Y0022705D02*
X0030975Y0022780D01*
X0030985Y0022770D01*
X0037660D01*
X0038380Y0022050D01*
Y0021100D01*
X0038750Y0020730D01*
Y0013680D01*
X0038560Y0013490D01*
X0038220D01*
X0038140Y0013570D01*
Y0014050D01*
X0038020Y0014170D01*
X0037890D01*
X0037720Y0014340D01*
X0044740Y0000670D02*
Y0001000D01*
X0046240Y0002500D01*
Y0004900D01*
X0045920Y0005220D01*
X0043520D01*
X0043200Y0005540D01*
Y0006000D01*
X0042880Y0006320D01*
X0041615D01*
X0041600Y0006335D01*
X0039380Y0020400D02*
Y0017660D01*
X0040100Y0016940D01*
Y0013460D01*
X0039820Y0013180D01*
X0037690D01*
X0037660Y0013150D01*
X0034905Y0008260D02*
X0034620D01*
X0034300Y0008580D01*
Y0009820D01*
X0033980Y0010140D01*
X0029260D01*
X0028860Y0010540D01*
X0028285D01*
X0030255Y0011620D02*
X0030500D01*
X0030660Y0011460D01*
Y0011200D01*
X0030340Y0010880D01*
X0028120D01*
X0027700Y0010460D01*
X0025000D01*
X0024520Y0009980D01*
X0023100D01*
X0022500Y0010580D01*
X0021115D01*
X0021100Y0010595D01*
X0020560Y0012620D02*
X0020820D01*
X0020840Y0012640D01*
Y0013260D01*
X0021160Y0013580D01*
X0022720D01*
X0023040Y0013260D01*
Y0012220D01*
X0043625Y0010540D02*
Y0009575D01*
X0043330Y0009280D01*
X0041380D01*
X0041240Y0009140D01*
X0038560D01*
X0038140Y0008720D01*
X0014588Y0003260D02*
X0018440D01*
X0018780Y0002920D01*
X0025800D01*
X0026120Y0003240D01*
Y0006640D01*
X0026440Y0006960D01*
X0027675D01*
X0029580Y0003815D02*
X0029465Y0003700D01*
X0027520D01*
X0027200Y0004020D01*
Y0005980D01*
X0026980Y0006200D01*
X0026780D01*
X0026600Y0006020D01*
Y0002400D01*
X0026280Y0002080D01*
X0024120D01*
X0023320Y0001280D01*
X0019260D01*
X0019140Y0001160D01*
Y0000920D01*
X0019260Y0000800D01*
X0020645D01*
X0018223Y0021560D02*
X0018480D01*
X0018980Y0022060D01*
X0021960D01*
X0034535Y0004400D02*
X0032380D01*
X0032060Y0004720D01*
Y0006960D01*
X0031740Y0007280D01*
X0030426D01*
X0016000Y0002660D02*
Y0002400D01*
X0016280Y0002120D01*
X0022295D01*
X0022460Y0001955D01*
X0039220Y0005625D02*
X0039205Y0005640D01*
X0037220D01*
X0037100Y0005760D01*
X0036160D01*
X0035840Y0006080D01*
Y0006820D01*
X0035520Y0007140D01*
X0035140D01*
X0037140Y0010515D02*
X0037745Y0011120D01*
X0043080D01*
X0043400Y0011440D01*
Y0013173D01*
X0043847Y0013620D01*
X0021625Y0022440D02*
X0025188D01*
X0025630Y0022881D01*
X0027840Y0010060D02*
X0027600D01*
X0027560Y0010100D01*
X0025180D01*
X0024700Y0009620D01*
X0022690D01*
X0022270Y0010040D01*
Y0009990D01*
X0039565Y0004460D02*
X0038200D01*
X0037740Y0004920D01*
X0033960D01*
X0033720Y0004680D01*
X0036985Y0004620D02*
Y0004280D01*
X0037305Y0003960D01*
X0038440D01*
X0038680Y0004200D01*
X0040420D01*
X0040940Y0003680D01*
X0041400D01*
X0042160Y0004440D01*
X0018705Y0013020D02*
X0018940Y0012785D01*
Y0012360D01*
X0018820Y0012240D01*
X0015520D01*
X0015340Y0012420D01*
Y0012980D01*
X0015020Y0013300D01*
X0013745D01*
X0026402Y0009600D02*
X0027120D01*
X0027780Y0008940D01*
X0033016D01*
X0033336Y0008620D01*
Y0005404D01*
X0033660Y0005080D01*
X0038200D01*
X0038340Y0004940D01*
X0039655D01*
X0040120Y0004475D01*
X-0003580Y-0000050D02*
Y0000850D01*
X-0003710Y0000980D01*
Y0004570D01*
X-0003260Y0005020D01*
X0008500D01*
X0009260Y0004260D01*
X0011300D01*
X0011620Y0003940D01*
Y0001755D01*
X0036470Y0017940D02*
X0035720D01*
X0034940Y0018720D01*
X0030400D01*
X0030000Y0018320D01*
X0036640Y0016800D02*
X0031940D01*
X0031200Y0017540D01*
X0028960D01*
X0028320Y0018180D01*
X0027765D01*
X0027760Y0018185D01*
X0025354Y0018620D02*
X0022680D01*
X0022220Y0018160D01*
X0014740D01*
X0014420Y0018480D01*
Y0018700D01*
X0014100Y0019020D01*
X0013580D01*
X0013260Y0019340D01*
Y0019820D01*
X0013040Y0020040D01*
X0011440D01*
X0010800Y0020680D01*
Y0022180D01*
X0010060Y0022920D01*
X0006280D01*
X0001905Y0018545D01*
Y0016979D01*
X0040195Y0001960D02*
X0043200D01*
X0043520Y0002280D01*
Y0004280D01*
X0043840Y0004600D01*
X0045500D01*
X0013840Y0017780D02*
X0012340Y0016280D01*
X0011680D01*
X0011150Y0015750D01*
Y0011310D01*
X0010540Y0010700D01*
Y0009660D01*
X0010860Y0009340D01*
X0013360D01*
X0013600Y0009580D01*
X0014385D01*
X0015020Y0009255D02*
X0015345Y0009580D01*
X0017780D01*
X0018620Y0010420D01*
X0020820D01*
X0020880Y0010360D01*
X0021260D01*
X0021340Y0010280D01*
X0021380Y0010320D01*
X0022300D01*
X0022840Y0009780D01*
X0024600D01*
X0025100Y0010280D01*
X0026540D01*
X0026560Y0010300D01*
X0028200D01*
X0028620Y0009880D01*
X0032293D01*
X0026849Y0012622D02*
X0026840Y0012613D01*
Y0012600D01*
X0024260D01*
X0023120Y0013740D01*
X0020680D01*
Y0013180D01*
X0020360Y0012860D01*
X0019840D01*
X0018980Y0012000D01*
X0014624D01*
X0014304Y0011680D01*
Y0010624D01*
X0013980Y0010300D01*
X0013160D01*
X0020300Y0008275D02*
Y0007920D01*
X0019980Y0007600D01*
X0017840D01*
X0016230Y0005990D01*
X0012530D01*
X0022140Y0002505D02*
X0022375Y0002740D01*
X0024080D01*
X0024420Y0002400D01*
X0045490Y0018700D02*
X0047960D01*
X0048170Y0018490D01*
Y0006370D01*
X0047960Y0006160D01*
X0044830D01*
X0044360Y0005690D01*
X0004340Y-0000220D02*
X0004730Y0000170D01*
X0022250D01*
X0022630Y0000550D01*
X0045500Y0002600D02*
X0045920Y0003020D01*
Y0004800D01*
X0045700Y0005020D01*
X0043680D01*
X0043360Y0004700D01*
Y0003380D01*
X0043040Y0003060D01*
X0039320D01*
X0038560Y0002300D01*
X0034555D01*
X0030371Y0007600D02*
X0029940D01*
X0028920Y0008620D01*
X0028555D01*
X0028235Y0008300D01*
Y0008040D01*
X0009180Y0005180D02*
X-0002820D01*
X-0003150Y0005510D01*
Y0024920D01*
X-0003580Y0025350D01*
X0018668Y0003960D02*
X0022040D01*
X0022360Y0003640D01*
Y0003357D01*
X0042300Y0002380D02*
X0042060D01*
X0041920Y0002520D01*
X0039420D01*
X0039100Y0002200D01*
Y0000540D01*
X0038780Y0000220D01*
X0027180D01*
X0026860Y0000540D01*
Y0005940D01*
G54D59*
G01X0042530Y0008410D02*
X0043960D01*
X0044080Y0008530D01*
X0009810Y0019375D02*
X0009330D01*
X0009570D02*
Y0018640D01*
X0009229Y0019390D02*
X0009120D01*
X0009810Y0019240D02*
X0009120D01*
X0009810Y0019090D02*
X0009120D01*
X0009810Y0018940D02*
X0009120D01*
X0009720Y0019375D02*
Y0018640D01*
X0009270Y0019380D02*
Y0018640D01*
X0009420Y0019375D02*
Y0018640D01*
X0009810D02*
X0009120D01*
X0009810Y0019375D02*
Y0018640D01*
X0009120Y0019446D02*
Y0018640D01*
X0009810Y0018790D02*
X0009120D01*
X0002175Y0014611D02*
Y0010385D01*
X0009195Y0015007D02*
Y0013056D01*
X0006619Y0018515D02*
X0005640D01*
X0003120Y0013466D02*
Y0010385D01*
X0010570Y0019055D02*
X0005640D01*
X-0002445Y0010550D02*
X-0002820D01*
X0007305Y0019215D02*
Y0018693D01*
X0003087Y0014060D02*
X0001709D01*
X0003120Y0013892D02*
Y0013714D01*
X0001814Y0015140D02*
X0001383D01*
X-0002563Y0010415D02*
X-0002820D01*
X0003255Y0016222D02*
Y0014276D01*
X0008985Y0019730D02*
X0008072D01*
X0006671Y0018110D02*
X0005640D01*
X0003071Y0016220D02*
X0002615D01*
X0001615Y0015005D02*
X0001349D01*
X0002850Y0016310D02*
Y0010385D01*
X-0001905Y0009880D02*
Y0009826D01*
X-0002580Y0011360D02*
X-0002592D01*
X0007295Y0018380D02*
X0007086D01*
X-0002502Y0010010D02*
X-0002820D01*
X-0002600Y0013070D02*
Y0012370D01*
X-0001900Y0013070D02*
Y0012370D01*
Y0013070D02*
X-0002600D01*
X0008250Y0016113D02*
Y0011212D01*
X-0002595Y0012170D02*
X-0002820D01*
X-0000959Y0015410D02*
X-0001958D01*
X-0001394Y0011630D02*
X-0001916D01*
X0000150Y0014929D02*
Y0014729D01*
X0002175Y0016047D02*
Y0015149D01*
X0006565Y0018245D02*
X0005640D01*
X0009008Y0019595D02*
X0007754D01*
X-0002729Y0014060D02*
X-0002820D01*
X0007351Y0016760D02*
X0005640D01*
X0008634Y0015005D02*
X0006590D01*
X0007278Y0018650D02*
X0005640D01*
X0010570Y0019190D02*
X0005640D01*
X0007980Y0019644D02*
Y0016522D01*
X0007274Y0012305D02*
X0007152D01*
X0010570Y0020135D02*
X0008437D01*
X0009475Y0014908D02*
Y0013056D01*
X0001243Y0013790D02*
X0000884D01*
X0006495Y0010638D02*
Y0010597D01*
X0006360Y0010630D02*
Y0010462D01*
X0009995Y0016625D02*
X0008902D01*
X0010410Y0020190D02*
Y0020065D01*
X0008925Y0020190D02*
Y0016614D01*
X0004883Y0012980D02*
X-0001900D01*
X0009995Y0016355D02*
X0009069D01*
X0009465Y0020190D02*
Y0020065D01*
X0009995Y0016760D02*
X0007599D01*
X0003992Y0016220D02*
X0003249D01*
X0009995Y0017165D02*
X0007689D01*
X0009995Y0017030D02*
X0007743D01*
X0006554Y0018380D02*
X0005640D01*
X0007752Y0016220D02*
X0004528D01*
X0001329Y0015950D02*
X0000196D01*
X0007810Y0016085D02*
X0004470D01*
X0005010Y0016310D02*
Y0013468D01*
X0001500Y0016310D02*
Y0016172D01*
X0004605Y0016310D02*
Y0011579D01*
X0001617Y0014735D02*
X0001162D01*
X0000523Y0010385D02*
X-0001400D01*
X0001251Y0010550D02*
X0001417Y0010385D01*
X0001500Y0013640D02*
Y0010385D01*
X0004740Y0016310D02*
Y0011598D01*
X0000960Y0014615D02*
Y0010605D01*
X0000690Y0013562D02*
Y0010552D01*
X-0002810Y0015545D02*
X-0002820D01*
X0002946Y0016310D02*
X0002612D01*
X-0000120Y0015253D02*
Y0014595D01*
X-0000255Y0015194D02*
Y0014441D01*
X0003525Y0016310D02*
Y0014235D01*
X-0001335Y0011617D02*
Y0010385D01*
X0009995Y0016220D02*
X0009021D01*
X0004586Y0011090D02*
X-0001935D01*
X-0001531Y0010331D02*
X-0001850Y0010011D01*
X-0001852Y0010010D02*
X-0001998D01*
X-0002820Y0013437D02*
Y0012050D01*
X-0002564Y0011090D02*
X-0002658D01*
X-0000348Y0014195D02*
X-0002820D01*
X-0002584Y0011630D02*
X-0002820D01*
X-0001234Y0016310D02*
X-0002820D01*
X0002083D02*
X-0000009D01*
X-0000970Y0016220D02*
X-0002820D01*
X0000117Y0015005D02*
X-0002018D01*
X-0002667Y0015680D02*
X-0002820D01*
X0000078Y0015275D02*
X-0000085D01*
X0006155Y0014735D02*
X0002428D01*
X0009870Y0019375D02*
Y0014992D01*
X0003795Y0016310D02*
Y0010385D01*
X0000177Y0014735D02*
X-0002820D01*
X-0000114Y0014600D02*
X-0002820D01*
X-0000239Y0014465D02*
X-0002820D01*
X-0000311Y0014330D02*
X-0002820D01*
Y0011012D02*
Y0009740D01*
X-0002685Y0011066D02*
Y0009740D01*
X-0000336Y0013925D02*
X-0001995D01*
X-0000284Y0013790D02*
X-0001946D01*
X-0000026Y0013520D02*
X-0001971D01*
X-0002679Y0014870D02*
X-0002820D01*
X0004775Y0013250D02*
X-0002242D01*
X-0002559Y0011900D02*
X-0002820D01*
X-0002600Y0012575D02*
X-0002820D01*
X-0002591Y0013250D02*
X-0002820D01*
X-0002600Y0012710D02*
X-0002820D01*
X-0002570Y0012370D02*
X-0002600D01*
X0003660Y0016310D02*
Y0010385D01*
X-0002600Y0012845D02*
X-0002820D01*
X-0002600Y0012440D02*
X-0002820D01*
X-0002591Y0012305D02*
X-0002820D01*
X-0002542Y0012035D02*
X-0002820D01*
X-0001335Y0016310D02*
Y0012153D01*
X-0002504Y0011495D02*
X-0002687D01*
X-0002448Y0010955D02*
X-0002820D01*
X-0001470Y0016310D02*
Y0012099D01*
X0006040Y0010685D02*
X-0002820D01*
X-0002599Y0010280D02*
X-0002820D01*
X-0002581Y0010145D02*
X-0002820D01*
X-0001105Y0015815D02*
X-0002820D01*
X0006855Y0017570D02*
X0005640D01*
X0007431Y0018785D02*
X0005640D01*
X-0001470Y0011671D02*
Y0010371D01*
X-0001065Y0011761D02*
Y0010385D01*
X-0002600Y0012980D02*
X-0002820D01*
X0001260Y0014060D02*
X0000956D01*
X0000015Y0013498D02*
Y0010385D01*
X0001635Y0013685D02*
Y0010385D01*
X0006543Y0010645D02*
X0006283Y0010385D01*
X0007993Y0010955D02*
X0007116D01*
X0006313Y0010415D02*
X0001387D01*
X0009995Y0016490D02*
X0009044D01*
X0010570Y0019375D02*
X0009330D01*
X0009128Y0020000D02*
X0008342D01*
X0008263Y0011225D02*
X0007297D01*
X0007170Y0011017D02*
Y0010945D01*
X0008128Y0011090D02*
X0007222D01*
X0009142Y0015140D02*
X0009124D01*
X0009475Y0012437D02*
X0007983Y0010945D01*
X0008388Y0020046D02*
X0008011Y0019670D01*
X0007440Y0018272D02*
Y0017268D01*
X0008655Y0016147D02*
Y0015341D01*
X0006360Y0019215D02*
Y0015061D01*
X0010570Y0019325D02*
X0007754D01*
X0009195Y0020190D02*
Y0020037D01*
X0010570Y0018652D02*
X0010050Y0018131D01*
X0003930Y0016310D02*
Y0010385D01*
X0008655Y0020190D02*
Y0016603D01*
X0005640Y0019215D02*
Y0016310D01*
X0009017Y0019865D02*
X0008207D01*
X0009196Y0015005D02*
X0009076D01*
X0009660Y0015355D02*
X0009607D01*
X0009114Y0012980D02*
X0005196D01*
X0009883Y0015005D02*
X0009845D01*
X0001230Y0016310D02*
Y0015661D01*
X0009330Y0019375D02*
Y0015428D01*
X0009995Y0015410D02*
X0009534D01*
X0007575Y0012234D02*
Y0010945D01*
X0007710Y0012352D02*
Y0010945D01*
X0009330Y0012555D02*
Y0012292D01*
X0009475Y0014735D02*
X0006680D01*
X0005777Y0010820D02*
X-0002820D01*
X0008115Y0016002D02*
Y0011077D01*
X0009475Y0012575D02*
X0009437D01*
X0005145Y0012951D02*
Y0010385D01*
X0005280Y0013076D02*
Y0010385D01*
X0009475Y0014600D02*
X0006602D01*
X0008533Y0011495D02*
X0007378D01*
X0002040Y0014662D02*
Y0010385D01*
X0001770Y0014614D02*
Y0010385D01*
X0000688Y0010550D02*
X-0002055D01*
X0000553Y0010415D02*
X-0001936D01*
X0003098Y0013655D02*
X0001574D01*
X0003390Y0013322D02*
Y0010385D01*
X0001230Y0014802D02*
Y0013999D01*
X0001120Y0010605D02*
X0000820D01*
X0000285Y0013433D02*
Y0010385D01*
X0000420Y0013444D02*
Y0010385D01*
X0003525Y0013376D02*
Y0010385D01*
X0001635Y0015653D02*
Y0015036D01*
X0001500Y0015668D02*
Y0014179D01*
X0003255Y0013341D02*
Y0010385D01*
X0000825Y0013695D02*
Y0010605D01*
X0000150Y0013451D02*
Y0010385D01*
X0006283D02*
X0001417D01*
X0009735Y0020190D02*
Y0020065D01*
X0001365Y0013668D02*
Y0010437D01*
X0006810Y0017705D02*
X0005640D01*
X-0001905Y0009875D02*
X-0001917D01*
X-0001582Y0010280D02*
X-0001901D01*
X-0001200Y0011636D02*
Y0010385D01*
X0002580Y0016118D02*
Y0010385D01*
X0002445Y0014766D02*
Y0010385D01*
X-0001605Y0016310D02*
Y0010257D01*
X-0002550Y0010079D02*
Y0009948D01*
X0007980Y0015988D02*
Y0010945D01*
X0007845Y0016049D02*
Y0010945D01*
X0005640Y0016310D02*
X0004524D01*
X0008579Y0016220D02*
X0008288D01*
X0001215Y0013925D02*
X0000936D01*
X0006838Y0017840D02*
X0005640D01*
X0000285Y0016310D02*
Y0015712D01*
X0001635Y0016310D02*
Y0016187D01*
X0001905Y0016310D02*
Y0015137D01*
X0009465Y0014906D02*
Y0013062D01*
X0004050Y0016085D02*
X0002557D01*
X0008698Y0016625D02*
X0005640D01*
X0010275Y0020190D02*
Y0020065D01*
X0010163Y0018245D02*
X0007074D01*
X0007887Y0016490D02*
X0005640D01*
X0009286Y0015410D02*
X0008957D01*
X0010031Y0018110D02*
X0006969D01*
X0009475Y0014870D02*
X0006677D01*
X0010570Y0018785D02*
X0007609D01*
X0009845Y0015170D02*
Y0014967D01*
X0009870Y0020190D02*
Y0020065D01*
X0008790Y0014898D02*
Y0011752D01*
X0009995Y0015545D02*
X0001310D01*
X0007440Y0012217D02*
Y0010945D01*
X0002040Y0016310D02*
Y0015097D01*
X0001095Y0016310D02*
Y0015779D01*
X0009195Y0019402D02*
Y0015333D01*
X0005425Y0012035D02*
X-0001080D01*
X0005350Y0011630D02*
X-0001216D01*
X-0002599Y0011765D02*
X-0002820D01*
X0007880Y0019615D02*
X0007741D01*
X0010570Y0020065D02*
X0009330D01*
X0009600Y0020190D02*
Y0020065D01*
X0007710Y0019268D02*
Y0018722D01*
X0007575Y0019196D02*
Y0018794D01*
X0007440Y0019202D02*
Y0018788D01*
X0010433Y0018515D02*
X0007789D01*
X0007845Y0019615D02*
Y0016461D01*
X0007035Y0019215D02*
Y0018498D01*
X0006900Y0019215D02*
Y0018593D01*
X0006765Y0019215D02*
Y0018599D01*
X0007250Y0018515D02*
X0007021D01*
X0010298Y0018380D02*
X0007744D01*
X0007710Y0018338D02*
Y0017133D01*
X-0001875Y0016310D02*
Y0009981D01*
X0009475Y0014465D02*
X0000839D01*
X0009475Y0014330D02*
X0000911D01*
X0009475Y0014195D02*
X0003565D01*
X0000015Y0016310D02*
Y0016288D01*
X0003525Y0013815D02*
Y0013804D01*
X0007575Y0018266D02*
Y0017251D01*
X0009475Y0014060D02*
X0003623D01*
X0009475Y0013925D02*
X0003606D01*
X0009995Y0016895D02*
X0007724D01*
X0009475Y0013655D02*
X0003622D01*
X0003099Y0013520D02*
X0000626D01*
X0010568Y0018650D02*
X0007762D01*
X0004065Y0016068D02*
Y0010385D01*
X0004200Y0015992D02*
Y0010385D01*
X0003996Y0016310D02*
X0003374D01*
X0008586Y0015140D02*
X0002273D01*
X0009475Y0013115D02*
X0005296D01*
X0008520Y0020190D02*
Y0011482D01*
X0006765Y0018071D02*
Y0012590D01*
X0006630Y0019215D02*
Y0018527D01*
X0006495Y0019215D02*
Y0015056D01*
X0002127Y0015140D02*
X0001885D01*
X0001770Y0015712D02*
Y0015130D01*
X0000555Y0013485D02*
Y0010417D01*
X0006448Y0010550D02*
X0001252D01*
X0003390Y0016310D02*
Y0014293D01*
X0001095Y0014684D02*
Y0010605D01*
X0001905Y0014608D02*
Y0010385D01*
X0001770Y0016310D02*
Y0016127D01*
X0003120Y0016208D02*
Y0014158D01*
X0009995Y0015815D02*
X0001846D01*
X0002445Y0016003D02*
Y0014993D01*
X0009995Y0015680D02*
X0001721D01*
X0009073Y0012035D02*
X0007314D01*
X0009995Y0017435D02*
X0005640D01*
X0006900Y0017519D02*
Y0012521D01*
X0003104Y0013925D02*
X0001754D01*
X0009995Y0017300D02*
X0005640D01*
X0005280Y0016310D02*
Y0013324D01*
X0007305Y0016790D02*
Y0012695D01*
X0008611Y0015275D02*
X0001388D01*
X0002137Y0016085D02*
X0001811D01*
X0002310Y0015988D02*
Y0015126D01*
X0006245Y0015005D02*
X0002439D01*
X0006233Y0014600D02*
X0000912D01*
X-0002010Y0010989D02*
Y0010514D01*
X-0002145Y0010910D02*
Y0010593D01*
X-0002280Y0010895D02*
Y0010608D01*
X-0002415Y0010935D02*
Y0010568D01*
X-0002550Y0011063D02*
Y0010440D01*
X0001580Y0014870D02*
X0001281D01*
X-0002599Y0009740D02*
X-0002820D01*
X-0002550Y0011555D02*
Y0011424D01*
X0004496Y0011495D02*
X-0001996D01*
X0004442Y0011360D02*
X-0001920D01*
X0004461Y0011225D02*
X-0001900D01*
X0005623Y0010955D02*
X-0002052D01*
X-0002550Y0012048D02*
Y0011916D01*
X-0001574Y0011900D02*
X-0001941D01*
X-0001529Y0012035D02*
X-0001958D01*
X0007305Y0012275D02*
Y0012058D01*
X-0001900Y0012370D02*
X-0001930D01*
X0005588Y0012305D02*
X-0001908D01*
X0005492Y0012170D02*
X-0001905D01*
X0000689Y0010551D02*
X0000523Y0010385D01*
X-0002010Y0013443D02*
Y0013070D01*
X-0002145Y0013301D02*
Y0013070D01*
X-0002280Y0013237D02*
Y0013070D01*
X-0002415Y0013217D02*
Y0013070D01*
X-0002550Y0013236D02*
Y0013070D01*
X-0002781Y0013385D02*
X-0002820D01*
X0009475Y0013790D02*
X0003541D01*
X0005940Y0012575D02*
X-0001900D01*
X0005725Y0012440D02*
X-0001900D01*
X0007326Y0012710D02*
X-0001900D01*
X0007220Y0012575D02*
X0006800D01*
X0007209Y0012440D02*
X0007015D01*
X0008803Y0011765D02*
X0007383D01*
X0008668Y0011630D02*
X0007390D01*
X0009208Y0012170D02*
X0007247D01*
X0010275Y0019375D02*
Y0018357D01*
X0009465Y0012588D02*
Y0012427D01*
X0001365Y0015782D02*
Y0015410D01*
X0008938Y0011900D02*
X0007359D01*
X0007983Y0010945D02*
X0007107D01*
X0008398Y0011360D02*
X0007348D01*
X0010570Y0018920D02*
X0005640D01*
X0007440Y0016732D02*
Y0012753D01*
X0007035Y0017454D02*
Y0012423D01*
X0006157Y0014870D02*
X0002470D01*
X0006630Y0014631D02*
Y0012636D01*
X0006495Y0014539D02*
Y0012662D01*
X0006360Y0014533D02*
Y0012670D01*
X0006225Y0019215D02*
Y0014987D01*
X0006090Y0019215D02*
Y0012631D01*
X0005955Y0019215D02*
Y0012582D01*
X0005820Y0019215D02*
Y0012509D01*
X-0001089Y0015680D02*
X-0002167D01*
X-0001043Y0015545D02*
X-0002023D01*
X-0002820Y0016310D02*
Y0015530D01*
X-0001740Y0016310D02*
Y0010122D01*
X0000960Y0016310D02*
Y0015848D01*
X-0002280Y0016310D02*
Y0015730D01*
X-0002415Y0016310D02*
Y0015750D01*
X0000185Y0014870D02*
X-0002154D01*
X-0000811Y0015275D02*
X-0001937D01*
X-0002820Y0015012D02*
Y0013955D01*
X-0002010Y0015017D02*
Y0013950D01*
X-0002145Y0014876D02*
Y0014091D01*
X-0002280Y0014811D02*
Y0014156D01*
X-0002415Y0014792D02*
Y0014176D01*
X-0002550Y0014811D02*
Y0014157D01*
X-0000356Y0014060D02*
X-0002104D01*
X0003179Y0013790D02*
X0001727D01*
X0004843Y0013385D02*
X0003536D01*
X0009060Y0020190D02*
Y0019935D01*
X0001349Y0015815D02*
X0001034D01*
X0009995Y0015950D02*
X0001866D01*
X0008753Y0015410D02*
X0001365D01*
X0006225Y0014608D02*
Y0012660D01*
X0000150Y0015551D02*
Y0015534D01*
X0000825Y0016310D02*
Y0015882D01*
X-0000795Y0015264D02*
Y0010385D01*
X-0001065Y0016250D02*
Y0016047D01*
X0001474Y0015680D02*
X0001213D01*
X0001384Y0016085D02*
X0000154D01*
X0004784Y0013115D02*
X-0002820D01*
X0000431Y0015815D02*
X0000209D01*
X0000253Y0015680D02*
X0000193D01*
X0000156Y0015545D02*
X0000147D01*
X0000101Y0015410D02*
X0000063D01*
X0000083Y0015140D02*
X-0001955D01*
X0000825Y0014581D02*
Y0014484D01*
X-0002685Y0014874D02*
Y0014093D01*
X0000015Y0015356D02*
Y0014682D01*
X0010570Y0020190D02*
X0008442D01*
X0009995Y0015275D02*
X0009812D01*
X0003145Y0014195D02*
X0000948D01*
X0001635Y0014709D02*
Y0014134D01*
X0001365Y0015053D02*
Y0014152D01*
X0003184Y0013385D02*
X-0002052D01*
X0006630Y0018143D02*
Y0014964D01*
X0007305Y0017571D02*
Y0017210D01*
X-0000192Y0013655D02*
X-0001939D01*
X0007261Y0017165D02*
X0005640D01*
X-0001547Y0011765D02*
X-0001901D01*
X0002080Y0016220D02*
X0000074D01*
X0001396Y0013655D02*
X0000792D01*
X0009465Y0019375D02*
Y0015434D01*
X0010140Y0019375D02*
Y0018222D01*
X0009600Y0019375D02*
Y0015362D01*
X0010410Y0019375D02*
Y0018492D01*
X0010005Y0019375D02*
Y0018060D01*
Y0020190D02*
Y0020065D01*
X0010545Y0019375D02*
Y0018627D01*
X0010570Y0019375D02*
Y0018652D01*
X0007226Y0016895D02*
X0005640D01*
X0008531Y0016355D02*
X0008271D01*
X0007769D02*
X0005640D01*
X0009330Y0020190D02*
Y0020065D01*
X-0001092Y0015950D02*
X-0002820D01*
X0001365Y0016310D02*
Y0016057D01*
X-0001050Y0016085D02*
X-0002820D01*
X0009233Y0012575D02*
X0007729D01*
X0008385Y0020043D02*
Y0011347D01*
X-0001717Y0010145D02*
X-0001919D01*
X-0002010Y0016310D02*
Y0015525D01*
X0009060Y0014984D02*
Y0012022D01*
X0008655Y0014979D02*
Y0011617D01*
X0004875Y0011116D02*
Y0010385D01*
X0004740Y0011062D02*
Y0010385D01*
X0006225Y0010640D02*
Y0010385D01*
X0006090Y0010669D02*
Y0010385D01*
X0005955Y0010718D02*
Y0010385D01*
X0005820Y0010791D02*
Y0010385D01*
X0005685Y0010894D02*
Y0010385D01*
X0005550Y0011043D02*
Y0010385D01*
X0005415Y0011292D02*
Y0010385D01*
X0005010Y0012932D02*
Y0010385D01*
X0004605Y0011081D02*
Y0010385D01*
X0004470Y0011206D02*
Y0010385D01*
Y0016085D02*
Y0011454D01*
X0004335Y0015996D02*
Y0010385D01*
X-0000930Y0015376D02*
Y0010385D01*
X-0000120Y0013585D02*
Y0010385D01*
X-0000390Y0015168D02*
Y0010385D01*
X-0000255Y0013739D02*
Y0010385D01*
X-0000525Y0015170D02*
Y0010385D01*
X-0000660Y0015200D02*
Y0010385D01*
X0002310Y0014633D02*
Y0010385D01*
X0008115Y0019773D02*
Y0016508D01*
X0009195Y0012594D02*
Y0012157D01*
X0009995Y0016085D02*
X0008230D01*
X0009475Y0012594D02*
Y0012437D01*
X-0002550Y0016310D02*
Y0015731D01*
X0007406Y0019215D02*
X0005640D01*
X0009060Y0019505D02*
Y0016448D01*
X0009330Y0014912D02*
Y0013095D01*
X-0002145Y0016310D02*
Y0015666D01*
X0007207Y0017030D02*
X0005640D01*
X0000150Y0016310D02*
Y0016093D01*
X0000690Y0016310D02*
Y0015887D01*
X0000420Y0016310D02*
Y0015809D01*
X0009103Y0019460D02*
X0007790D01*
X0010570Y0020190D02*
Y0020065D01*
X0008790Y0020190D02*
Y0016645D01*
X0009735Y0019375D02*
Y0015339D01*
X0010545Y0020190D02*
Y0020065D01*
X0009995Y0015117D02*
X0009845Y0014967D01*
X0005415Y0016310D02*
Y0012008D01*
X0009343Y0012305D02*
X0007676D01*
X0009995Y0015140D02*
X0009845D01*
X0008925Y0014899D02*
Y0011887D01*
X0000555Y0016310D02*
Y0015864D01*
X0007305Y0018367D02*
Y0017869D01*
X0007035Y0018172D02*
Y0017986D01*
X0006900Y0018077D02*
Y0017921D01*
X0009995Y0017975D02*
X0007169D01*
X0009995Y0017840D02*
X0007322D01*
X0009995Y0017705D02*
X0007349D01*
X0009995Y0017570D02*
X0007304D01*
X0009161Y0015275D02*
X0009099D01*
X0010140Y0020190D02*
Y0020065D01*
X0008556Y0016490D02*
X0008153D01*
X0009060Y0016302D02*
Y0015336D01*
X0008925Y0016136D02*
Y0015421D01*
X0008790Y0016105D02*
Y0015422D01*
X0006991Y0017975D02*
X0005640D01*
X-0002685Y0016310D02*
Y0015668D01*
X0007305Y0011242D02*
Y0010945D01*
X0008250Y0019908D02*
Y0016396D01*
X0008442Y0020190D02*
Y0020177D01*
X0009995Y0018000D02*
Y0015117D01*
X-0002583Y0009875D02*
X-0002820D01*
X0007170Y0019215D02*
Y0017974D01*
X0009475Y0012440D02*
X0007741D01*
X0009066Y0012845D02*
X-0001900D01*
X0007710Y0016867D02*
Y0012618D01*
X0007575Y0016749D02*
Y0012736D01*
X0007170Y0017465D02*
Y0012283D01*
X0005362Y0011495D02*
X0004924D01*
X0005392Y0011360D02*
X0004978D01*
X0005443Y0011225D02*
X0004959D01*
X0005517Y0011090D02*
X0004834D01*
X0004875Y0012986D02*
Y0011544D01*
X0005145Y0016310D02*
Y0013449D01*
X0004875Y0016310D02*
Y0013414D01*
X0009475Y0013520D02*
X0003621D01*
X0009091Y0012710D02*
X0007624D01*
X0009475Y0013385D02*
X0005237D01*
X0009475Y0013250D02*
X0005305D01*
X0005550Y0016310D02*
Y0012257D01*
X0005685Y0019215D02*
Y0012406D01*
X0002985Y0016269D02*
Y0010385D01*
X0001230Y0013821D02*
Y0010569D01*
X-0002820Y0012050D02*
Y0011548D01*
X-0002685Y0013299D02*
Y0011494D01*
X0005381Y0011900D02*
X-0001035D01*
X0005356Y0011765D02*
X-0001063D01*
X-0001065Y0015597D02*
Y0012009D01*
X0002715Y0016310D02*
Y0010385D01*
X-0001200Y0016291D02*
Y0012134D01*
G01X0009120Y0019446D02*
G03X0009330Y0019375I0000210J0000274D01*
G01X0007205Y0012485D02*
G03X0007475Y0012215I0000270J0000000D01*
G03X0007745Y0012485I0000000J0000270D01*
G03X0007475Y0012755I0000270J0000000D01*
G03X0007205Y0012485I0000000J0000270D01*
G01X0004440Y0011330D02*
G03X0004710Y0011060I0000270J0000000D01*
G03X0004980Y0011330I0000000J0000270D01*
G03X0004710Y0011600I0000270J0000000D01*
G03X0004440Y0011330I0000000J0000270D01*
G01X0004770Y0013200D02*
G03X0005040Y0012930I0000270J0000000D01*
G03X0005310Y0013200I0000000J0000270D01*
G03X0005040Y0013470I0000270J0000000D01*
G03X0004770Y0013200I0000000J0000270D01*
G01X-0001575Y0011885D02*
G03X-0001305Y0011615I0000270J0000000D01*
G03X-0001035Y0011885I0000000J0000270D01*
G03X-0001305Y0012155I0000270J0000000D01*
G03X-0001575Y0011885I0000000J0000270D01*
G01X0007520Y0019190D02*
G03X0007790Y0019460I0000000J0000270D01*
G01X0007406Y0019215D02*
G03X0007520Y0019190I0000114J0000245D01*
G01X0007250Y0018530D02*
G03X0007520Y0018260I0000270J0000000D01*
G03X0007790Y0018530I0000000J0000270D01*
G03X0007520Y0018800I0000270J0000000D01*
G03X0007250Y0018530I0000000J0000270D01*
G01X0006550Y0018335D02*
G03X0006820Y0018065I0000270J0000000D01*
G03X0007090Y0018335I0000000J0000270D01*
G03X0006820Y0018605I0000270J0000000D01*
G03X0006550Y0018335I0000000J0000270D01*
G01X0003085Y0014025D02*
G03X0003197Y0013806I0000270J0000000D01*
G01X0003625Y0014025D02*
G03X0003355Y0014295I0000270J0000000D01*
G03X0003085Y0014025I0000000J0000270D01*
G01X0003090Y0013590D02*
G03X0003360Y0013320I0000270J0000000D01*
G03X0003630Y0013590I0000000J0000270D01*
G03X0003517Y0013809I0000270J0000000D01*
G01X0002077Y0016255D02*
G03X0002347Y0015985I0000270J0000000D01*
G03X0002617Y0016255I0000000J0000270D01*
G03X0002612Y0016310I0000270J0000000D01*
G01X0006147Y0014797D02*
G03X0006417Y0014527I0000270J0000000D01*
G03X0006687Y0014797I0000000J0000270D01*
G03X0006417Y0015067I0000270J0000000D01*
G03X0006147Y0014797I0000000J0000270D01*
G01X0001580Y0014872D02*
G03X0001850Y0014602I0000270J0000000D01*
G03X0002029Y0014671I0000000J0000270D01*
G01X0001850Y0015142D02*
G03X0001580Y0014872I0000000J0000270D01*
G01X0001251Y0010551D02*
G03X0001120Y0010605I0000131J0000131D01*
G01X0001327Y0015920D02*
G03X0001597Y0015650I0000270J0000000D01*
G03X0001867Y0015920I0000000J0000270D01*
G03X0001597Y0016190I0000270J0000000D01*
G03X0001327Y0015920I0000000J0000270D01*
G01X0007107Y0010945D02*
G03X0007390Y0011650I0000737J0000705D01*
G01X0002200Y0014610D02*
G03X0002470Y0014880I0000000J0000270D01*
G03X0002200Y0015150I0000270J0000000D01*
G01X0002029Y0014671D02*
G03X0002200Y0014610I0000171J0000209D01*
G01X-0002600Y0009767D02*
G03X-0002599Y0009740I0000350J0000000D01*
G01X-0002600Y0010259D02*
G03X-0002499Y0010013I0000350J0000000D01*
G01X-0001900Y0010259D02*
G03X-0002250Y0010609I0000350J0000000D01*
G03X-0002600Y0010259I0000000J0000350D01*
G01X-0002250Y0010894D02*
G03X-0001900Y0011244I0000000J0000350D01*
G03X-0002001Y0011490I0000350J0000000D01*
G01X-0002820Y0011012D02*
G03X-0002596Y0011189I0000030J0000268D01*
G01X-0002600Y0011736D02*
G03X-0002499Y0011490I0000350J0000000D01*
G01X-0001900Y0011736D02*
G03X-0002001Y0011982I0000350J0000000D01*
G01X-0001851Y0010011D02*
G03X-0001905Y0009880I0000131J0000131D01*
G01X-0002600Y0012228D02*
G03X-0002499Y0011982I0000350J0000000D01*
G01X-0001900Y0012228D02*
G03X-0001930Y0012370I0000350J0000000D01*
G01X-0002499Y0011982D02*
G03X-0002600Y0011736I0000249J0000246D01*
G01X0005350Y0011650D02*
G03X0006370Y0010630I0001020J0000000D01*
G01X0007390Y0011650D02*
G03X0006370Y0012670I0001020J0000000D01*
G03X0005350Y0011650I0000000J0001020D01*
G01X-0002417Y0014792D02*
G03X-0001938Y0015271I0000000J0000479D01*
G01X-0001937D02*
G03X-0002417Y0015751I0000480J0000000D01*
G01X-0002820Y0015012D02*
G03X-0002417Y0014792I0000403J0000259D01*
Y0013217D02*
G03X-0001938Y0013696I0000000J0000479D01*
G01X-0001937D02*
G03X-0002417Y0014176I0000480J0000000D01*
G01X-0002820Y0013437D02*
G03X-0002417Y0013217I0000403J0000259D01*
G01X0000076Y0015232D02*
G03X0000289Y0014747I0000657J0000000D01*
G01X0001390Y0015232D02*
G03X0000733Y0015889I0000657J0000000D01*
Y0015888D02*
G03X0000077Y0015232I0000000J0000656D01*
G01X-0001105Y0015822D02*
G03X-0000448Y0015165I0000657J0000000D01*
G03X0000209Y0015822I0000000J0000657D01*
G01X-0002417Y0015750D02*
G03X-0002820Y0015530I0000000J0000479D01*
G01X-0000357Y0014090D02*
G03X0000300Y0013433I0000657J0000000D01*
G03X0000957Y0014090I0000000J0000657D01*
G03X0000742Y0014575I0000657J0000000D01*
G01X0000209Y0015822D02*
G03X-0000009Y0016310I0000657J0000000D01*
G01X-0002001Y0010013D02*
G03X-0001900Y0010259I0000249J0000246D01*
G01X-0000948Y0016248D02*
G03X-0001105Y0015822I0000500J0000426D01*
G01X0008388Y0020046D02*
G03X0008442Y0020177I0000131J0000131D01*
G01X0003517Y0013809D02*
G03X0003625Y0014025I0000162J0000216D01*
G01X0002020Y0015082D02*
G03X0001850Y0015142I0000170J0000210D01*
G01X0000290Y0014747D02*
G03X-0000357Y0014090I0000010J0000657D01*
G01X0000743Y0014575D02*
G03X0001390Y0015232I0000010J0000657D01*
G01X-0002417Y0014176D02*
G03X-0002820Y0013955I0000000J0000480D01*
G01X-0002570Y0012370D02*
G03X-0002600Y0012228I0000320J0000142D01*
G01X-0001000Y0016245D02*
G03X-0000948Y0016248I0000000J0000455D01*
G01X0003160Y0016205D02*
G03X0003374Y0016310I0000000J0000270D01*
G01X-0002587Y0011339D02*
G03X-0002820Y0011548I0000263J0000059D01*
G01X-0002001Y0011490D02*
G03X-0001900Y0011736I0000249J0000246D01*
G01X-0002499Y0011490D02*
G03X-0002587Y0011339I0000249J0000246D01*
G01X-0002596Y0011189D02*
G03X-0002250Y0010894I0000346J0000055D01*
G01X-0002499Y0010013D02*
G03X-0002600Y0009767I0000249J0000246D01*
G01X-0001901Y0009740D02*
G03X-0001900Y0009767I0000349J0000027D01*
G01X0008388Y0020046D02*
G03X0008442Y0020177I0000131J0000131D01*
G01X0009475Y0013056D02*
G03X0009335Y0013095I0000140J0000231D01*
G01X0009140Y0015170D02*
G03X0009410Y0014900I0000270J0000000D01*
Y0015440D02*
G03X0009140Y0015170I0000000J0000270D01*
G01X0006370Y0010630D02*
G03X0006543Y0010645I0000000J0001020D01*
G01X0000820Y0010605D02*
G03X0000689Y0010551I0000000J0000185D01*
G01X0001251D02*
G03X0001120Y0010605I0000131J0000131D01*
G01X-0001400Y0010385D02*
G03X-0001531Y0010331I0000000J0000185D01*
G01X-0001905Y0009826D02*
G03X-0002001Y0010013I0000345J0000059D01*
G01X-0001851Y0010011D02*
G03X-0001905Y0009880I0000131J0000131D01*
G01X0007750Y0016255D02*
G03X0008020Y0015985I0000270J0000000D01*
G03X0008290Y0016255I0000000J0000270D01*
G03X0008020Y0016525I0000270J0000000D01*
G03X0007750Y0016255I0000000J0000270D01*
G01X0002083Y0016310D02*
G03X0002077Y0016255I0000264J0000055D01*
G01X0010049Y0018131D02*
G03X0009995Y0018000I0000131J0000131D01*
G01X0009845Y0015170D02*
G03X0009660Y0015355I0000185J0000000D01*
G01X0006810Y0017720D02*
G03X0007080Y0017450I0000270J0000000D01*
G03X0007350Y0017720I0000000J0000270D01*
G03X0007080Y0017990I0000270J0000000D01*
G03X0006810Y0017720I0000000J0000270D01*
G01X0008585Y0015160D02*
G03X0008855Y0014890I0000270J0000000D01*
G03X0009125Y0015160I0000000J0000270D01*
G03X0008855Y0015430I0000270J0000000D01*
G03X0008585Y0015160I0000000J0000270D01*
G01X-0001234Y0016310D02*
G03X-0001000Y0016245I0000234J0000390D01*
G01X0010049Y0018131D02*
G03X0009995Y0018000I0000131J0000131D01*
G01X0009410Y0014900D02*
G03X0009475Y0014908I0000000J0000270D01*
G01X0007790Y0019460D02*
G03X0007741Y0019615I0000270J0000000D01*
G01X-0002001Y0011982D02*
G03X-0001900Y0012228I0000249J0000246D01*
G01X0002200Y0015150D02*
G03X0002020Y0015082I0000000J0000270D01*
G01X0003197Y0013806D02*
G03X0003089Y0013590I0000163J0000216D01*
G01X0009330Y0020065D02*
G03X0008985Y0019720I0000000J0000345D01*
G03X0009330Y0019375I0000345J0000000D01*
G01X0003990Y0016255D02*
G03X0004260Y0015985I0000270J0000000D01*
G03X0004530Y0016255I0000000J0000270D01*
G03X0004524Y0016310I0000270J0000000D01*
G01X0002946D02*
G03X0003160Y0016205I0000214J0000165D01*
G01X0001215Y0013910D02*
G03X0001485Y0013640I0000270J0000000D01*
G03X0001755Y0013910I0000000J0000270D01*
G03X0001485Y0014180I0000270J0000000D01*
G03X0001215Y0013910I0000000J0000270D01*
G03X0001485Y0013640I0000270J0000000D01*
G03X0001755Y0013910I0000000J0000270D01*
G03X0001485Y0014180I0000270J0000000D01*
G03X0001215Y0013910I0000000J0000270D01*
G01X0002946Y0016310D02*
G03X0003160Y0016205I0000214J0000165D01*
G03X0003374Y0016310I0000000J0000270D01*
G01X0003990Y0016255D02*
G03X0004260Y0015985I0000270J0000000D01*
G03X0004530Y0016255I0000000J0000270D01*
G01X0003996Y0016310D02*
G03X0003990Y0016255I0000264J0000055D01*
G01X0004530D02*
G03X0004524Y0016310I0000270J0000000D01*
G01X0007205Y0017000D02*
G03X0007475Y0016730I0000270J0000000D01*
G03X0007745Y0017000I0000000J0000270D01*
G03X0007475Y0017270I0000270J0000000D01*
G03X0007205Y0017000I0000000J0000270D01*
G01X0008530Y0016375D02*
G03X0008800Y0016105I0000270J0000000D01*
G03X0009070Y0016375I0000000J0000270D01*
G03X0008800Y0016645I0000270J0000000D01*
G03X0008530Y0016375I0000000J0000270D01*
G01X0009065Y0012825D02*
G03X0009335Y0012555I0000270J0000000D01*
G03X0009475Y0012594I0000000J0000270D01*
G01X0009335Y0013095D02*
G03X0009065Y0012825I0000000J0000270D01*
G01X0007880Y0019615D02*
G03X0008011Y0019669I0000000J0000185D01*
G01X0003996Y0016310D02*
G03X0003990Y0016255I0000264J0000055D01*
G01X0009607Y0015355D02*
G03X0009410Y0015440I0000197J0000185D01*
G54D196*
G01X-0002250Y0010751D02*
X0003011D01*
X0004540Y0012280D01*
Y0012600D01*
Y0012920D01*
Y0014155D01*
Y0014270D01*
X0005605D01*
X0008860D01*
X0012130Y0019720D02*
X0009330D01*
X0012130D02*
X0009330D01*
X0034840Y0014220D02*
X0032940D01*
X0032520Y0014640D01*
X0030110D01*
X0003315Y0020820D02*
X0003260Y0020875D01*
Y0022020D01*
X0003680Y0022440D01*
X0030550Y0020600D02*
X0029930D01*
Y0021880D01*
G54D211*
X0034808Y0013400D03*
X0028682Y0007241D03*
X0032500Y0016195D03*
X0037930Y0016360D03*
X0009555Y0018980D03*
X0008860Y0014270D03*
X0028000Y0005745D03*
X0023045Y0006440D03*
X0016980Y0005200D03*
X0015480Y0006380D03*
X0021100Y0009800D03*
X0012130Y0019720D03*
X0009330D03*
X0039944Y0010645D03*
X0032835Y0009900D03*
X0029580Y0004140D03*
X0014060Y0008260D03*
Y0009255D03*
X0011090Y0017850D03*
X0012760Y0014120D03*
X0044140Y0008600D03*
X0041491Y0006670D03*
X0039880Y0002195D03*
X0042790Y-0001430D03*
X0012900Y0021940D03*
X0007475Y0017000D03*
X0042240Y0007765D03*
X0012020Y0001990D03*
X0010760Y0002560D03*
X0034315Y0000756D03*
X0027960Y0016615D03*
X0028565Y0015902D03*
X0020775Y0007334D03*
X0042180Y0008640D03*
X0045260Y0026640D03*
X0034835Y0009720D03*
X0035650Y0008000D03*
X0034195Y0020300D03*
X0034421Y0021230D03*
X0018026Y0020640D03*
X0009335Y0012825D03*
X0018350Y0003695D03*
X0038405Y0008000D03*
X0039440Y0008220D03*
X0012330Y0000980D03*
X0015880Y0005420D03*
X0022355Y0022195D03*
X0028250Y0012620D03*
X0013630Y0007717D03*
X0013940Y0016425D03*
X0011090Y0021090D03*
X0015127Y0006370D03*
X0011580Y0007717D03*
X0043166Y0014252D03*
X0035001Y0014900D03*
X0016590Y0012545D03*
X0031920Y0017930D03*
X0036760Y0005510D03*
X0034875Y0004020D03*
X0045140Y-0002745D03*
X0003645Y0019800D03*
X0021547Y0007520D03*
X0022159D03*
X0010140Y0014515D03*
X0019400Y0015445D03*
X0028200Y0015895D03*
X0023480Y0016965D03*
X0003315Y0020820D03*
X0034440Y0019920D03*
X0028040Y0020380D03*
X0024860Y0021040D03*
X0016648Y0022040D03*
X0003680Y0022440D03*
X0014995Y0007020D03*
X0012680Y0007620D03*
Y0010280D03*
X0016509Y0009180D03*
X0014420Y0005155D03*
X0037640Y0016615D03*
X0019100Y0020000D03*
X0034684Y0018480D03*
X0025190Y0014420D03*
X0012260Y0010365D03*
Y0007475D03*
X0042322Y0010520D03*
X0029125Y0020600D03*
X0026960Y0007660D03*
X0018900Y0016235D03*
Y0015221D03*
X0018100Y0013085D03*
X0041145Y0007420D03*
X0044095Y0003740D03*
X0039895Y0019280D03*
X0038060Y0012855D03*
X0038050Y0006120D03*
X0035655Y0010300D03*
X0038580Y0005235D03*
X0038950Y0008020D03*
X0027020Y0015980D03*
X0032293Y0015680D03*
X0030550Y0020600D03*
X0035960Y0013380D03*
X0036860Y0012060D03*
X0007785Y0009920D03*
X0010145D03*
X0025275Y0009860D03*
X0043060Y0015565D03*
X0029780Y0013020D03*
X0032293D03*
X0042480Y0003645D03*
X0041165Y0002275D03*
Y0000830D03*
X0027025Y0015660D03*
X0029480Y0016500D03*
X0041835Y0014000D03*
X0041520Y0010215D03*
X0022800Y0012775D03*
X0012920Y0009576D03*
X-0001960Y0018390D03*
X0042985Y0012140D03*
X0042320Y0014660D03*
X0024970Y0013040D03*
X0032400Y0011420D03*
X0001530Y0022800D03*
X0025067Y0009500D03*
X0027475Y0004380D03*
X0034420Y0001980D03*
X0030950Y0002050D03*
X0027100Y0001360D03*
X0034753Y0014615D03*
X0022520Y0009200D03*
X0013620Y0005705D03*
X0008940Y0004020D03*
X0007890Y0007160D03*
X0021055Y0010120D03*
X0030240Y0004130D03*
X0021215Y0014840D03*
X0040120Y0003875D03*
X0007580Y0006180D03*
X0035235Y0005900D03*
X0044040Y0000990D03*
X0022056Y0014005D03*
X0007076Y0007460D03*
X0028080Y0011660D03*
X0027895Y0000720D03*
X0026560D03*
X0027660Y0012464D03*
X0029760Y0003060D03*
X0028250Y0000960D03*
X0024680Y0001180D03*
X0022720Y0000170D03*
X0014695Y0012325D03*
X0029760Y0018555D03*
X0017420Y0016520D03*
X0009410Y0015170D03*
X0014300Y0014500D03*
X0017930Y0016990D03*
X0024400Y0012847D03*
X0035320Y0004590D03*
X0038005Y0003540D03*
X0043307Y-0000620D03*
X0016100Y0012620D03*
X0032402Y0007900D03*
X0039900Y0018542D03*
X0028680Y0007660D03*
X0030080Y0007280D03*
X0031660Y0004930D03*
X0034905Y0007900D03*
X0040460Y0008897D03*
X0042140Y0009515D03*
X0042165Y0020380D03*
X0034080Y0021640D03*
Y0022535D03*
X0025440Y0021520D03*
X0021080Y0021766D03*
X0040720Y0018200D03*
X0022260Y0009610D03*
X0016780Y0016660D03*
X0013905Y0014140D03*
X0020000Y0013960D03*
X0032760Y0019728D03*
X0040320Y0019517D03*
X0042000Y0018540D03*
X0032293Y0010380D03*
X0036815Y0012840D03*
X0042560Y0016459D03*
X0026400Y0022945D03*
X0015850Y0022310D03*
X0037900Y0013860D03*
X0012800Y0020495D03*
X0001805Y0023480D03*
X0041270Y0006930D03*
X0043847Y0014880D03*
X0025180Y0005680D03*
X0016283Y0008900D03*
X0015000Y0008265D03*
X0011025Y0010600D03*
X0020300Y0009860D03*
X0039500Y0009615D03*
X0026060Y0015355D03*
X0032820Y0015520D03*
X0027255Y0021620D03*
X0013655Y0020260D03*
X0008500Y0002915D03*
X0023195Y0015780D03*
X0021055Y0015920D03*
X0032348Y0007400D03*
X0035735Y0012620D03*
X0035660Y0018540D03*
X0029820Y0005408D03*
X0014660Y0016415D03*
X0028600Y0008028D03*
X0026740Y0014180D03*
X0035240Y0014100D03*
X0002200Y0023900D03*
X0037540Y0006700D03*
X0034753Y0010900D03*
X0026740Y0013795D03*
X0041120Y0003930D03*
X0037455Y0006060D03*
X0034753Y0008580D03*
X0033580Y0006425D03*
X0000750Y0018520D03*
X0016058Y0020500D03*
X0027020Y0022940D03*
X0037820Y0014900D03*
X0035580Y0011810D03*
X0030195Y0006500D03*
X0007640Y0006700D03*
X0008020Y0016255D03*
X0017160Y0004640D03*
X0038020Y0007760D03*
X0038405Y0013740D03*
X0025480Y0014655D03*
X0033011Y0018000D03*
X0046640Y0005330D03*
X0041840Y0006600D03*
X0016580Y0011075D03*
X0020320Y0013414D03*
X0019980Y0012240D03*
X0024960Y0019975D03*
X0028760Y0016280D03*
X0030240Y0018020D03*
X0035160Y0017360D03*
X0039015D03*
X0037665Y0013500D03*
X0039780Y0007080D03*
X0029780Y0011682D03*
X0030060Y0010400D03*
X0034915Y0011380D03*
X0037780Y0007420D03*
X0022080Y0017165D03*
X0021980Y0014643D03*
X0023660Y0005680D03*
X0018030Y0004110D03*
X0035655Y0009360D03*
X0032320Y0009400D03*
X0037220Y0007660D03*
X0017633Y0020640D03*
X0022020Y0021460D03*
X0029360Y0022705D03*
X0037774Y0012260D03*
X0035160Y0011620D03*
X0015920Y0010835D03*
X0013620Y0010990D03*
X0010140Y0010240D03*
X0007045D03*
X0007030Y0007960D03*
X0026360Y0003155D03*
X0030235Y0002820D03*
X0037860Y0001445D03*
X0034500Y0002960D03*
X0030865Y0005580D03*
X0029780Y0013945D03*
Y0015515D03*
X0039485Y0007420D03*
X0036515Y0002920D03*
X0035355Y0005580D03*
X0034753Y0006900D03*
X0043562Y0020700D03*
X0041060Y0010155D03*
X0037540Y0007765D03*
X0035581Y0005320D03*
X0023015Y0016560D03*
X0032780Y0015195D03*
Y0013065D03*
X0043813Y0014341D03*
X0034420Y0001440D03*
X0027420Y0001760D03*
X0023940Y0002320D03*
X0015955Y0006740D03*
X0028175Y0009815D03*
X0024140Y0008935D03*
X0016255Y0021560D03*
X0016460Y0018959D03*
X0023880Y0014495D03*
X0027980Y0014580D03*
X0010930Y0007717D03*
X0035635Y0007420D03*
X0032660Y0001391D03*
X0043860Y0004180D03*
X0039707Y0000960D03*
X0015740Y0002342D03*
X0014760Y0004400D03*
X0018700Y0012480D03*
X0036045Y0012380D03*
X0035640Y0009725D03*
X0012000Y0010045D03*
X0015420Y0017540D03*
X0020000Y0013480D03*
X0014920Y0014525D03*
X0013620Y0002700D03*
X0016980Y0002980D03*
X0021220Y0015300D03*
X0026780Y0016605D03*
X0032360Y0019945D03*
X0046930Y0005100D03*
X0044220Y-0000240D03*
X0040484D03*
X0002759Y0020130D03*
X0015580Y0012545D03*
X0021119Y0006300D03*
X0012620Y0005080D03*
X0034753Y0012720D03*
X0035240Y0015140D03*
X0033080Y0019895D03*
X0017436Y0021800D03*
X0043040Y0008880D03*
X0044420Y0017580D03*
X0019160Y0014995D03*
X0021106Y0012627D03*
X0022065Y0013340D03*
X0024640Y0013085D03*
X0034753Y0010580D03*
X0034835Y0009400D03*
X0003508Y0019239D03*
X0037165Y0009720D03*
X0037655Y0012600D03*
X0032045Y0021000D03*
X0025350Y0019120D03*
X0000125Y0018280D03*
X0003220Y0020415D03*
X0039725Y0013420D03*
X0033560Y0021645D03*
X0011645Y0019320D03*
X0009335Y0010820D03*
X0014385Y0009260D03*
X0002760Y0021565D03*
X0000360Y0018035D03*
X0024240Y0011318D03*
X0034915Y0015400D03*
X0035080Y0017040D03*
X0038300Y0016835D03*
X0019375Y0001040D03*
X0007020Y0004480D03*
X0011875Y0020600D03*
X0017840Y0022440D03*
X0041490Y0007190D03*
X0040415Y0009380D03*
X0026180Y0008280D03*
X0023140Y0004700D03*
X0023165Y0008160D03*
X0022835Y0003700D03*
X0037995Y0003160D03*
X0034900Y0011900D03*
X0044600Y0003080D03*
X0039740Y0009860D03*
X0028300Y0014555D03*
X0023460Y0014415D03*
X0022300Y0013100D03*
X0009100Y0007220D03*
X0015320Y0007066D03*
X0021300Y0008000D03*
X0015505Y0004640D03*
X0030260Y0013860D03*
X0036880Y0013625D03*
X0038060Y0014495D03*
X0039946Y0001210D03*
X0039540Y0003960D03*
X0027520Y0011005D03*
X0030020Y0012400D03*
X0036985Y0007180D03*
X0030540Y0017775D03*
X0032722Y0008180D03*
X0021577Y0008405D03*
X0014087Y0010060D03*
X0015975Y0003840D03*
X0026460Y0016615D03*
X0036985Y0009220D03*
X0037600Y0005400D03*
X0018208Y0002928D03*
X0020900Y0008661D03*
X0016000Y0007460D03*
X0042075Y0012015D03*
X0043135Y0010548D03*
X0018420Y0020640D03*
X0026220Y0020320D03*
X0015500Y0001825D03*
X0021200Y0002625D03*
X0027340Y0002165D03*
X0030560Y0003975D03*
X0023800Y0016825D03*
X0026540Y0015415D03*
X0018880Y0002621D03*
X0035655Y0004460D03*
X0042160Y0003871D03*
X0043040Y0001015D03*
X0045133Y0019120D03*
X0030245Y0009360D03*
X0032640Y0012120D03*
X0035900Y0011720D03*
Y0015050D03*
X0015580Y0021551D03*
X0011980Y0014442D03*
X0029820Y0010635D03*
X0024380Y0005920D03*
X0025600Y0018870D03*
X0024460Y0019985D03*
X0030900Y0022705D03*
X0037720Y0014340D03*
X0038880Y0008340D03*
X0040727Y0010155D03*
X0039275Y0011796D03*
X0022215Y0012300D03*
X0040620Y0013936D03*
X0027475Y0005160D03*
X0021106Y0011580D03*
X0040730Y0011805D03*
X0032980Y0001391D03*
X0032560Y0009640D03*
X0032887Y0011540D03*
X0028560Y0013810D03*
X0021120Y0004440D03*
X0008260Y0001220D03*
X0007080Y0017720D03*
X0020720Y0021825D03*
X0044740Y0000670D03*
X0041600Y0006335D03*
X0018030Y0004970D03*
X0011090Y0018380D03*
X0014517Y0020020D03*
X0028095Y0020840D03*
X0039380Y0020400D03*
X0037660Y0013150D03*
X0034905Y0008260D03*
X0028285Y0010540D03*
X0027420Y0013795D03*
X0023440Y0015540D03*
X0020527Y0009520D03*
X0042366Y0009813D03*
X0028680Y0008385D03*
X0043692Y0012160D03*
X0030255Y0011620D03*
X0021100Y0010595D03*
X0013300Y0020600D03*
X0041080Y0012015D03*
X0018910Y0003160D03*
X0019820Y0018965D03*
X0025100Y0020800D03*
X0021900Y0001880D03*
X0027760Y0006220D03*
X0020560Y0012620D03*
X0023040Y0012220D03*
X0016480Y0020635D03*
X0018380Y0019600D03*
X0031360Y0021475D03*
X0043625Y0010540D03*
X0038140Y0008720D03*
X0020320Y0013808D03*
X0018030Y0004500D03*
X0008855Y0015160D03*
X0014588Y0003260D03*
X0027675Y0006960D03*
X0034480Y0003460D03*
X0029580Y0003815D03*
X0020645Y0000800D03*
X0018223Y0021560D03*
X0021960Y0022060D03*
X0022620Y0019060D03*
X0025401Y0018080D03*
X0034555Y0000500D03*
X0034535Y0004400D03*
X0030426Y0007280D03*
X0024505Y0013820D03*
X0019340Y0021470D03*
X0033395Y0021240D03*
X0035120Y0012460D03*
X0016000Y0002660D03*
X0022460Y0001955D03*
X0032320Y0001391D03*
X0018020Y0006470D03*
X0001095Y0021240D03*
X-0000355Y0017800D03*
X0039220Y0005625D03*
X0035140Y0007140D03*
X0037140Y0010515D03*
X0043847Y0013620D03*
X0020805Y0005700D03*
X0016340Y0010840D03*
X0016000Y0014515D03*
X0021625Y0022440D03*
X0032340Y0002820D03*
X0027840Y0010060D03*
X0022270Y0009990D03*
X0039565Y0004460D03*
X0033720Y0004680D03*
X0027200Y0009840D03*
X0036985Y0004620D03*
X0042160Y0004440D03*
X0043692Y0011260D03*
X0021075Y0012980D03*
X0018705Y0013020D03*
X0013745Y0013300D03*
X0001180Y0019740D03*
X0026402Y0009600D03*
X0040120Y0004475D03*
X0011620Y0001755D03*
X0021165Y0005700D03*
X0036470Y0017940D03*
X0030000Y0018320D03*
X0036640Y0016800D03*
X0027760Y0018185D03*
X0025354Y0018620D03*
X0001905Y0016979D03*
X0040195Y0001960D03*
X0026620Y0009015D03*
X0022790Y0013100D03*
X0015700Y0020640D03*
X0013840Y0017780D03*
X0014385Y0009580D03*
X0015020Y0009255D03*
X0032293Y0009880D03*
X0026849Y0012622D03*
X0013160Y0010300D03*
X0004090Y0020255D03*
X0032315Y0008420D03*
X0018030Y0003710D03*
X0020300Y0008275D03*
X0015520Y0008255D03*
X0017620Y0010425D03*
X0042895Y0010320D03*
X0018028Y0006078D03*
X0022140Y0002505D03*
X0024420Y0002400D03*
X0034020Y0000455D03*
X0018030Y0006870D03*
X0041140Y0013915D03*
X0044360Y0005690D03*
X0037920Y0005315D03*
X0030255Y0011300D03*
X0024580Y0010560D03*
X0034555Y0002300D03*
X0037395Y0021900D03*
X0035380Y0021336D03*
X0030371Y0007600D03*
X0028235Y0008040D03*
X0019980Y0009860D03*
X0040740Y0009515D03*
X0021115Y0005080D03*
X0009180Y0005180D03*
X0018668Y0003960D03*
X0022360Y0003357D03*
X0041900Y-0001120D03*
G54D226*
X0006370Y0011650D03*
X0024800Y0007400D03*
Y0015900D03*
X0039601Y0021662D03*
X0029561Y0001642D03*
G54D230*
X0031930Y0021880D03*
X0030930D03*
X0029930D03*
X0028930D03*
X0027930D03*
X0023620Y0000418D03*
X0024620D03*
X0025620D03*
X0025630Y0022881D03*
X0024630D03*
X0023630D03*
X0048090Y-0004050D03*
Y-0003050D03*
Y-0002050D03*
Y0025350D03*
Y0026350D03*
Y0027350D03*
X-0003580Y-0000050D03*
Y-0001050D03*
Y-0002050D03*
Y0025350D03*
Y0024350D03*
Y0023350D03*
X-0001000Y0016700D03*
Y0017700D03*
Y0018700D03*
Y0004600D03*
Y0005600D03*
Y0006600D03*
X0045490Y0020700D03*
Y0019700D03*
Y0018700D03*
X0045500Y0004600D03*
Y0003600D03*
Y0002600D03*
X0014210Y0007600D03*
X0015194D03*
G54D232*
X0014020Y0003670D03*
X0013020Y0004670D03*
Y0003670D03*
X0012020Y0004670D03*
Y0003670D03*
X0011020Y0004670D03*
Y0003670D03*
X0010020Y0004670D03*
Y0003670D03*
X0012860Y0019610D03*
X0013860Y0018610D03*
Y0019610D03*
X0014860Y0018610D03*
Y0019610D03*
X0015860Y0018610D03*
Y0019610D03*
X0016860Y0018610D03*
Y0019610D03*
X0012530Y0006990D03*
X0047710Y0008150D03*
Y0009150D03*
Y0010150D03*
Y0011150D03*
Y0012150D03*
Y0013150D03*
Y0014150D03*
Y0015150D03*
Y0016150D03*
X0044710D03*
Y0015150D03*
Y0014150D03*
Y0013150D03*
Y0012150D03*
Y0011150D03*
Y0010150D03*
Y0009150D03*
Y0008150D03*
Y0007150D03*
X0006510Y0002910D03*
Y0001910D03*
Y0000910D03*
X0025180Y0001270D03*
X0047210Y-0002560D03*
X-0002740Y-0001560D03*
X0024180Y0022030D03*
X0047210Y0026860D03*
X-0002740Y0023860D03*
G54D233*
X0014020Y0004670D03*
X0012860Y0018610D03*
X0012530Y0005990D03*
X0047710Y0007150D03*
X0006510Y0003910D03*
X0024180Y0001270D03*
X0047210Y-0003560D03*
X-0002740Y-0000560D03*
X0025180Y0022030D03*
X0047210Y0025860D03*
X-0002740Y0024860D03*
G54D241*
X0023167Y0002190D03*
X0026073Y0001521D03*
X0026083Y0021110D03*
X0023177Y0021779D03*
X0046318Y-0004503D03*
X0046988Y-0001597D03*
X0046318Y0024897D03*
X0046988Y0027803D03*
X-0001808Y0000403D03*
X-0002478Y-0002503D03*
X-0001808Y0025803D03*
X-0002478Y0022897D03*
G54D245*
X0008257Y0021640D03*
X0009045D03*
X0007470Y0022427D03*
X0009045D03*
X0008257D03*
X0007470Y0021640D03*
X0019795Y0008198D03*
Y0014891D03*
G54D250*
X0032930Y0021880D03*
G54D251*
X0024275Y0004200D03*
X0021126Y0019160D03*
G54D256*
X0006368Y0022034D03*
X0010147D03*
G54D257*
X0032590Y0005900D03*
Y0017400D03*
G54D262*
X0010287Y0006660D03*
Y0005873D03*
X0011075Y0006660D03*
Y0005873D03*
X0009500D03*
X0027914Y0004036D03*
X0028701D03*
X0027914Y0004824D03*
X0028701D03*
Y0003249D03*
G54D263*
X0009500Y0006660D03*
X0027914Y0003249D03*
G54D264*
X0044840Y0002380D03*
X0042300D03*
X0026860Y0005940D03*
X0018030Y0005290D03*
X0018190Y0001750D03*
X0042840Y0009830D03*
X0039340Y0016890D03*
X-0002440Y0005830D03*
X-0003350Y0001170D03*
X-0003620Y0017400D03*
X0047790Y0000430D03*
X0047880Y0023940D03*
X0004340Y-0000220D03*
X0022630Y0000550D03*
X0003243Y-0000337D03*
X0042530Y0008790D03*
X0038260Y0006920D03*
X0007520Y0009420D03*
X0023480Y0018360D03*
X0024120Y0018930D03*
X0025540Y0009190D03*
X0035580Y0005920D03*
X0034860Y0004560D03*
X0047160Y0006700D03*
X0043835Y0009120D03*
X0044000Y0005700D03*
X0042800Y0004740D03*
X0039830Y0006170D03*
X0044200Y0007140D03*
X0044510Y0007630D03*
X0044180Y0007820D03*
X0046320Y0005780D03*
X0047360Y0012640D03*
X0013585Y0014125D03*
X0012000Y0014920D03*
X0009900Y0011620D03*
X0005330Y0016650D03*
X0006330Y0020790D03*
X0004490Y0018270D03*
X0004311Y0018591D03*
X0042015Y0005570D03*
X0007475Y0012485D03*
X0004710Y0011330D03*
X0005040Y0013200D03*
X-0001180Y0009820D03*
X0000100Y0006960D03*
Y0006460D03*
X-0002850Y0011280D03*
X-0001305Y0011885D03*
X0046100Y0017815D03*
X0032560Y0011750D03*
X0024230Y0010410D03*
X0021460Y0016700D03*
X0019330Y0014560D03*
X0022360Y0014220D03*
X0011840Y0005240D03*
X0035120Y0022530D03*
X0034936Y0021336D03*
X0036645Y0019855D03*
X0038130Y0010470D03*
X0043590Y0016450D03*
X0043820Y0012835D03*
X0042060Y0019765D03*
X0031920Y0019830D03*
X0026960Y0019985D03*
X0031985Y0001490D03*
X0038220Y0017920D03*
X0037890Y0018120D03*
X0037620Y0017920D03*
X0036880Y0018120D03*
Y0018540D03*
X0007520Y0019460D03*
Y0018530D03*
X0025760Y0011640D03*
X0012860Y0019050D03*
X0020640Y0004700D03*
X0021152Y0008390D03*
X0017160Y0006030D03*
X0017210Y0005690D03*
X0015522Y0005098D03*
X0010005Y0000820D03*
X0012330Y0002950D03*
X0018740Y0000980D03*
X0018280Y0001080D03*
X0019140Y0004460D03*
X0033660Y0000990D03*
X0039595Y0011965D03*
X0006820Y0018335D03*
X0001470Y0022370D03*
X0003355Y0014025D03*
X0003360Y0013590D03*
X0017260Y0013610D03*
X0017240Y0013970D03*
X0002327Y0020203D03*
X0002347Y0016255D03*
X0006417Y0014797D03*
X0020757Y0006552D03*
X0027430Y0018020D03*
X0014917Y0016700D03*
X0003367Y0003660D03*
X0001850Y0014872D03*
X0020400Y0021825D03*
X0036332Y0020622D03*
X-0000150Y0008567D03*
X0035240Y0020215D03*
X0022340Y0016835D03*
X0006852Y0006460D03*
X0006812Y0006960D03*
X0018140Y0018962D03*
X0017607Y0015212D03*
X0017110Y0015220D03*
X0042437Y-0001022D03*
X0027620Y0015945D03*
X0023787Y0012545D03*
X0025975Y0009390D03*
X0021147Y0007230D03*
X0037570Y0004680D03*
X0033690Y0000612D03*
X0032832Y0016395D03*
X0035595Y0020645D03*
X0011602Y0009805D03*
Y0010302D03*
X0039660Y0015975D03*
X0040515Y0015072D03*
X0010797Y0010257D03*
X0010792Y0009817D03*
X0037390Y0016265D03*
X0031427Y0001115D03*
X0037167Y0011010D03*
X0033092Y0006442D03*
X0032610Y0001820D03*
X0037130Y0016515D03*
X0005525Y0002352D03*
X0005515Y0001810D03*
X0005517Y0001275D03*
X0003892Y0001087D03*
X0037890Y0019855D03*
X0015820Y0001790D03*
X0002862Y0001100D03*
X0003362Y0001090D03*
X0036275Y0015560D03*
Y0014560D03*
X0043380Y0015550D03*
X0042100Y0015485D03*
X0039530Y0011570D03*
X0000980Y0010107D03*
X0037865Y0021450D03*
X0001597Y0015920D03*
X0001205Y0003272D03*
X0014062Y0012112D03*
X0013180Y0014140D03*
X0009900Y0011140D03*
X0012525Y0010917D03*
X0001537Y0017140D03*
X0003115Y0016905D03*
X0018360Y0011251D03*
X0030222Y0008630D03*
X0002200Y0014880D03*
X0021075Y0011252D03*
X0013590Y0015930D03*
X0038080Y0009720D03*
X0030024Y0015902D03*
X0027740Y0013800D03*
X0016915Y0009905D03*
X0012320Y0020575D03*
X0013950Y0011180D03*
X0020055Y0008690D03*
Y0009475D03*
X0012505Y0021795D03*
X0000270Y0008530D03*
X0035580Y0008720D03*
X0001595Y0002677D03*
X-0000160Y0007532D03*
X0032855Y0007407D03*
X0020880Y0003722D03*
X0000902Y0002430D03*
X0039457Y0013695D03*
X0039865Y0014485D03*
X0030682Y0006247D03*
X0040650Y0014495D03*
X0032872Y0003320D03*
X0007507Y0008982D03*
X0025810Y0014857D03*
X0047210Y0025177D03*
X0004010Y0018840D03*
X0011230Y0016780D03*
X0011715Y0018647D03*
G54D438*
X0025320Y0003355D03*
X0021115Y0004760D03*
X0020380Y0002355D03*
X0021200Y0001640D03*
X0003715Y0021790D03*
X0004260Y0016255D03*
X0003369Y0017233D03*
X0003160Y0016475D03*
X0032629Y0007665D03*
X0018348Y0006195D03*
X0017865Y0012475D03*
X0038155Y0004210D03*
X0038545Y0002935D03*
X0011810Y0016775D03*
X0015090Y0012545D03*
X0015360Y0014525D03*
X0033935Y0001305D03*
X0032973Y0000881D03*
X0031425Y0005670D03*
X0034254Y0003210D03*
X0037845Y0000460D03*
X0038155Y0000945D03*
X0041592Y-0001430D03*
X0000705Y0025950D03*
X0002080Y0021525D03*
X0034808Y0007400D03*
X0040181Y0001460D03*
X0045255Y-0002130D03*
X0042420Y0000875D03*
X0043285Y0002665D03*
X0047405Y0003610D03*
X0000750Y0017195D03*
X-0002865Y0017740D03*
X0016000Y0005098D03*
X0012940Y0017755D03*
X0017060Y0011265D03*
X0030265Y0015675D03*
X0035856Y0021387D03*
X0008800Y0016375D03*
X0036985Y0008720D03*
X0046980Y0019415D03*
X0037675Y0009105D03*
X0047650Y0017940D03*
X0020630Y0001600D03*
X0001485Y0013910D03*
X0027255Y0016615D03*
X0034840Y0014220D03*
X0030110Y0014640D03*
X0040910Y0007945D03*
X0043310D03*
X0042075Y0008160D03*
X0037040Y0021665D03*
X0037550Y0020520D03*
X0020705Y0021480D03*
X0040340Y0012015D03*
X0043151Y0012926D03*
X0014280Y0016895D03*
X0020500Y0017060D03*
X0024160Y0011638D03*
X0004090Y0021520D03*
X0003689Y0017550D03*
X0023920Y0010680D03*
X0018340Y0016900D03*
X0013499Y0021720D03*
X0003263Y0023460D03*
X0025560Y0004273D03*
X0032600Y0003046D03*
X0035520Y0003960D03*
X0011480Y0015400D03*
X0012840Y0016010D03*
X0022047Y0012820D03*
G54D443*
X0030254Y0005469D03*
Y0016492D03*
G54D446*
X-0002416Y0013696D03*
Y0015271D03*
G54D447*
X0000300Y0014090D03*
X-0000448Y0015822D03*
X0000733Y0015232D03*
G54D448*
X-0001250Y0020770D03*
Y0002530D03*
X0045740Y0022770D03*
X0045750Y0000530D03*
G54D449*
X-0002250Y0012228D03*
Y0011736D03*
Y0011244D03*
Y0010751D03*
Y0010259D03*
Y0009767D03*
Y0009275D03*
Y0008783D03*
Y0008291D03*
Y0007799D03*
Y0007307D03*
G54D450*
Y0012720D03*
M02*
