*
G04 Mass Parameters ***
*
G04 Image ***
*
%INC:\PROJECTS\RAGOBOTS_HW\ROBOT\HW\BODY\DESIGN\RAGOBOT.SMB*%
%ICAS*%
%MOIN*%
%IPPOS*%
%ASAXBY*%
G74*%FSLAN2X34Y34*%
*
G04 Aperture Definitions ***
*
%AMTHERMAL68*
1,1,0.0389,0,0,*
1,0,0.0370,0,0,*
21,0,0.0390,0.1000,0,0,45.0*
21,0,0.0390,0.1000,0,0,135.0*%
%AMTHERMAL73*
1,1,0.0174,0,0,*
1,0,0.0155,0,0,*
21,0,0.0175,0.1000,0,0,45.0*
21,0,0.0175,0.1000,0,0,135.0*%
%AMTHERMAL77*
1,1,0.0174,0,0,*
1,0,0.0155,0,0,*
21,0,0.0175,0.1000,0,0,46.2*
21,0,0.0175,0.1000,0,0,136.2*%
%AMTHERMAL164*
1,1,0.0409,0,0,*
1,0,0.0390,0,0,*
21,0,0.0410,0.1000,0,0,225.0*
21,0,0.0410,0.1000,0,0,315.0*%
%AMTHERMAL165*
1,1,0.0708,0,0,*
1,0,0.0689,0,0,*
21,0,0.0709,0.1000,0,0,315.0*
21,0,0.0709,0.1000,0,0,45.0*%
%AMTHERMAL166*
1,1,0.0419,0,0,*
1,0,0.0400,0,0,*
21,0,0.0420,0.1000,0,0,315.0*
21,0,0.0420,0.1000,0,0,45.0*%
%AMTHERMAL167*
1,1,0.0708,0,0,*
1,0,0.0689,0,0,*
21,0,0.0709,0.1000,0,0,135.0*
21,0,0.0709,0.1000,0,0,225.0*%
%AMTHERMAL168*
1,1,0.0419,0,0,*
1,0,0.0400,0,0,*
21,0,0.0420,0.1000,0,0,135.0*
21,0,0.0420,0.1000,0,0,225.0*%
%AMTHERMAL169*
1,1,0.0708,0,0,*
1,0,0.0689,0,0,*
21,0,0.0709,0.1000,0,0,225.0*
21,0,0.0709,0.1000,0,0,315.0*%
%AMTHERMAL170*
1,1,0.0419,0,0,*
1,0,0.0400,0,0,*
21,0,0.0420,0.1000,0,0,225.0*
21,0,0.0420,0.1000,0,0,315.0*%
%AMTHERMAL171*
1,1,0.0708,0,0,*
1,0,0.0689,0,0,*
21,0,0.0709,0.1000,0,0,45.0*
21,0,0.0709,0.1000,0,0,135.0*%
%AMTHERMAL172*
1,1,0.0419,0,0,*
1,0,0.0400,0,0,*
21,0,0.0420,0.1000,0,0,45.0*
21,0,0.0420,0.1000,0,0,135.0*%
%AMTHERMAL174*
1,1,0.1039,0,0,*
1,0,0.1020,0,0,*
21,0,0.1040,0.1000,0,0,45.0*
21,0,0.1040,0.1000,0,0,135.0*%
%AMTHERMAL175*
1,1,0.1039,0,0,*
1,0,0.1020,0,0,*
21,0,0.1040,0.1000,0,0,225.0*
21,0,0.1040,0.1000,0,0,315.0*%
%AMTHERMAL178*
1,1,0.0409,0,0,*
1,0,0.0390,0,0,*
21,0,0.0410,0.1000,0,0,45.0*
21,0,0.0410,0.1000,0,0,135.0*%
%AMTHERMAL179*
1,1,0.0354,0,0,*
1,0,0.0335,0,0,*
21,0,0.0355,0.1000,0,0,135.0*
21,0,0.0355,0.1000,0,0,225.0*%
%AMTHERMAL199*
1,1,0.0259,0,0,*
1,0,0.0240,0,0,*
21,0,0.0260,0.1000,0,0,315.0*
21,0,0.0260,0.1000,0,0,45.0*%
%AMTHERMAL200*
1,1,0.0409,0,0,*
1,0,0.0390,0,0,*
21,0,0.0410,0.1000,0,0,315.0*
21,0,0.0410,0.1000,0,0,45.0*%
%AMTHERMAL202*
1,1,0.0389,0,0,*
1,0,0.0370,0,0,*
21,0,0.0390,0.1000,0,0,315.0*
21,0,0.0390,0.1000,0,0,45.0*%
%AMTHERMAL269*
1,1,0.0459,0,0,*
1,0,0.0440,0,0,*
21,0,0.0460,0.1000,0,0,225.0*
21,0,0.0460,0.1000,0,0,315.0*%
%AMTHERMAL273*
1,1,0.0399,0,0,*
1,0,0.0380,0,0,*
21,0,0.0400,0.1000,0,0,315.0*
21,0,0.0400,0.1000,0,0,45.0*%
%AMTHERMAL275*
1,1,0.0719,0,0,*
1,0,0.0700,0,0,*
21,0,0.0720,0.1000,0,0,315.0*
21,0,0.0720,0.1000,0,0,45.0*%
%AMTHERMAL276*
1,1,0.0459,0,0,*
1,0,0.0440,0,0,*
21,0,0.0460,0.1000,0,0,315.0*
21,0,0.0460,0.1000,0,0,45.0*%
%AMTHERMAL278*
1,1,0.0719,0,0,*
1,0,0.0700,0,0,*
21,0,0.0720,0.1000,0,0,135.0*
21,0,0.0720,0.1000,0,0,225.0*%
%AMTHERMAL279*
1,1,0.0459,0,0,*
1,0,0.0440,0,0,*
21,0,0.0460,0.1000,0,0,135.0*
21,0,0.0460,0.1000,0,0,225.0*%
%AMTHERMAL281*
1,1,0.0719,0,0,*
1,0,0.0700,0,0,*
21,0,0.0720,0.1000,0,0,225.0*
21,0,0.0720,0.1000,0,0,315.0*%
%AMTHERMAL282*
1,1,0.0719,0,0,*
1,0,0.0700,0,0,*
21,0,0.0720,0.1000,0,0,45.0*
21,0,0.0720,0.1000,0,0,135.0*%
%AMTHERMAL286*
1,1,0.0409,0,0,*
1,0,0.0390,0,0,*
21,0,0.0410,0.1000,0,0,135.0*
21,0,0.0410,0.1000,0,0,225.0*%
%AMTHERMAL296*
1,1,0.0299,0,0,*
1,0,0.0280,0,0,*
21,0,0.0300,0.1000,0,0,135.0*
21,0,0.0300,0.1000,0,0,225.0*%
%AMTHERMAL302*
1,1,0.0174,0,0,*
1,0,0.0155,0,0,*
21,0,0.0175,0.1000,0,0,46.3*
21,0,0.0175,0.1000,0,0,136.3*%
%AMTHERMAL386*
1,1,0.0174,0,0,*
1,0,0.0155,0,0,*
21,0,0.0175,0.1000,0,0,47.0*
21,0,0.0175,0.1000,0,0,137.0*%
%AMTHERMAL453*
1,1,0.0439,0,0,*
1,0,0.0420,0,0,*
21,0,0.0440,0.1000,0,0,225.0*
21,0,0.0440,0.1000,0,0,315.0*%
%AMTHERMAL454*
1,1,0.0709,0,0,*
1,0,0.0690,0,0,*
21,0,0.0710,0.1000,0,0,315.0*
21,0,0.0710,0.1000,0,0,45.0*%
%AMTHERMAL455*
1,1,0.0439,0,0,*
1,0,0.0420,0,0,*
21,0,0.0440,0.1000,0,0,315.0*
21,0,0.0440,0.1000,0,0,45.0*%
%AMTHERMAL456*
1,1,0.0709,0,0,*
1,0,0.0690,0,0,*
21,0,0.0710,0.1000,0,0,135.0*
21,0,0.0710,0.1000,0,0,225.0*%
%AMTHERMAL457*
1,1,0.0439,0,0,*
1,0,0.0420,0,0,*
21,0,0.0440,0.1000,0,0,135.0*
21,0,0.0440,0.1000,0,0,225.0*%
%AMTHERMAL458*
1,1,0.0709,0,0,*
1,0,0.0690,0,0,*
21,0,0.0710,0.1000,0,0,225.0*
21,0,0.0710,0.1000,0,0,315.0*%
%AMTHERMAL459*
1,1,0.0709,0,0,*
1,0,0.0690,0,0,*
21,0,0.0710,0.1000,0,0,45.0*
21,0,0.0710,0.1000,0,0,135.0*%
%AMTHERMAL460*
1,1,0.0439,0,0,*
1,0,0.0420,0,0,*
21,0,0.0440,0.1000,0,0,45.0*
21,0,0.0440,0.1000,0,0,135.0*%
%AMTHERMAL461*
1,1,0.1289,0,0,*
1,0,0.1270,0,0,*
21,0,0.1290,0.1000,0,0,45.0*
21,0,0.1290,0.1000,0,0,135.0*%
%AMTHERMAL462*
1,1,0.1289,0,0,*
1,0,0.1270,0,0,*
21,0,0.1290,0.1000,0,0,225.0*
21,0,0.1290,0.1000,0,0,315.0*%
%AMTHERMAL463*
1,1,0.0399,0,0,*
1,0,0.0380,0,0,*
21,0,0.0400,0.1000,0,0,45.0*
21,0,0.0400,0.1000,0,0,135.0*%
%AMTHERMAL464*
1,1,0.0399,0,0,*
1,0,0.0380,0,0,*
21,0,0.0400,0.1000,0,0,225.0*
21,0,0.0400,0.1000,0,0,315.0*%
%AMTHERMAL465*
1,1,0.0289,0,0,*
1,0,0.0270,0,0,*
21,0,0.0290,0.1000,0,0,135.0*
21,0,0.0290,0.1000,0,0,225.0*%
%AMTHERMAL466*
1,1,0.0174,0,0,*
1,0,0.0155,0,0,*
21,0,0.0175,0.1000,0,0,45.3*
21,0,0.0175,0.1000,0,0,135.3*%
%AMTHERMAL468*
1,1,0.0174,0,0,*
1,0,0.0155,0,0,*
21,0,0.0175,0.1000,0,0,45.1*
21,0,0.0175,0.1000,0,0,135.1*%
%AMTHERMAL470*
1,1,0.0399,0,0,*
1,0,0.0380,0,0,*
21,0,0.0400,0.1000,0,0,135.0*
21,0,0.0400,0.1000,0,0,225.0*%
%ADD10C,0.1750*%
%ADD11O,0.0940X0.0250*%
%ADD12R,0.0940X0.0250*%
%ADD13R,0.1181X0.1181*%
%ADD14O,0.0118X0.0472*%
%ADD15O,0.0472X0.0118*%
%ADD16R,0.0472X0.0118*%
%ADD17R,0.0780X0.0720*%
%ADD18R,0.0720X0.0780*%
%ADD19C,0.0580*%
%ADD20R,0.0580X0.0580*%
%ADD21R,0.0600X0.0800*%
%ADD22R,0.0800X0.0600*%
%ADD23R,0.1575X0.1181*%
%ADD24R,0.0220X0.0220*%
%ADD25R,0.1200X0.0760*%
%ADD26R,0.1420X0.0720*%
%ADD27R,0.0400X0.0480*%
%ADD28R,0.0480X0.0400*%
%ADD29C,0.0620*%
%ADD30C,0.1700*%
%ADD31C,0.1450*%
%ADD32R,0.0315X0.0315*%
%ADD33C,0.0472*%
%ADD34C,0.1771*%
%ADD35C,0.0750*%
%ADD36R,0.0750X0.0750*%
%ADD37O,0.0860X0.0250*%
%ADD38R,0.0860X0.0250*%
%ADD39O,0.0680X0.0130*%
%ADD40R,0.0680X0.0130*%
%ADD41O,0.1000X0.0250*%
%ADD42R,0.1000X0.0250*%
%ADD43O,0.0250X0.1000*%
%ADD44R,0.0250X0.1000*%
%ADD45C,0.0787*%
%ADD46C,0.1100*%
%ADD47R,0.0480X0.0740*%
%ADD48R,0.3149X0.2362*%
%ADD49R,0.1968X0.2362*%
%ADD50C,0.0250*%
%ADD51C,0.0250*%
%ADD52C,0.0100*%
%ADD53C,0.0250*%
%ADD54C,0.0300*%
%ADD55C,0.0120*%
%ADD56C,0.0200*%
%ADD57C,0.0118*%
%ADD58C,0.0080*%
%ADD59C,0.0150*%
%ADD60R,0.1141X0.0354*%
%ADD61R,0.0708X0.0157*%
%ADD62C,0.0010*%
%ADD63C,0.2100*%
%ADD64C,0.0950*%
%ADD65R,0.0950X0.0950*%
%ADD66C,0.1000*%
%ADD67C,0.1900*%
%ADD68THERMAL68*%
%ADD69C,0.0900*%
%ADD70R,0.0900X0.0900*%
%ADD71C,0.0800*%
%ADD72R,0.1100X0.1100*%
%ADD73THERMAL73*%
%ADD74C,0.0600*%
%ADD75C,0.0500*%
%ADD76C,0.0600*%
%ADD77THERMAL77*%
%ADD78C,0.0780*%
%ADD79R,0.0780X0.0780*%
%ADD80C,0.0700*%
%ADD81C,0.1550*%
%ADD82C,0.0500*%
%ADD83C,0.0500*%
%ADD84C,0.0670*%
%ADD85C,0.1650*%
%ADD86C,0.1200*%
%ADD87R,0.1142X0.0354*%
%ADD88C,0.1260*%
%ADD89C,0.0060*%
%ADD90C,0.0039*%
%ADD91C,0.0070*%
%ADD92C,0.0098*%
%ADD93C,0.0050*%
%ADD94C,0.0130*%
%ADD95C,0.0130*%
%ADD96O,0.0302X0.0787*%
%ADD97O,0.0787X0.0302*%
%ADD98R,0.0787X0.0302*%
%ADD99O,0.0160X0.0700*%
%ADD100R,0.0160X0.0700*%
%ADD101O,0.0394X0.0181*%
%ADD102R,0.0394X0.0181*%
%ADD103O,0.0181X0.0394*%
%ADD104R,0.0181X0.0394*%
%ADD105R,0.1181X0.1575*%
%ADD106R,0.1200X0.0800*%
%ADD107R,0.0320X0.0380*%
%ADD108R,0.0551X0.1417*%
%ADD109R,0.0560X0.0920*%
%ADD110R,0.0960X0.0960*%
%ADD111R,0.0400X0.0560*%
%ADD112R,0.0480X0.0560*%
%ADD113O,0.0149X0.0409*%
%ADD114R,0.0149X0.0409*%
%ADD115R,0.0315X0.0118*%
%ADD116R,0.0118X0.0315*%
%ADD117C,0.0866*%
%ADD118R,0.0760X0.1200*%
%ADD119C,0.0394*%
%ADD120R,0.1102X0.0964*%
%ADD121C,0.0200*%
%ADD122R,0.0200X0.0200*%
%ADD123R,0.0800X0.1200*%
%ADD124R,0.0620X0.0620*%
%ADD125O,0.0250X0.0860*%
%ADD126R,0.0250X0.0860*%
%ADD127O,0.0130X0.0680*%
%ADD128R,0.0130X0.0680*%
%ADD129R,0.0472X0.1260*%
%ADD130C,0.0480*%
%ADD131C,0.0550*%
%ADD132C,0.0748*%
%ADD133R,0.1299X0.1220*%
%ADD134R,0.1476X0.0315*%
%ADD135O,0.0250X0.0940*%
%ADD136R,0.0250X0.0940*%
%ADD137O,0.0160X0.0940*%
%ADD138R,0.0160X0.0940*%
%ADD139O,0.0940X0.0160*%
%ADD140R,0.0940X0.0160*%
%ADD141O,0.0160X0.0900*%
%ADD142R,0.0160X0.0900*%
%ADD143O,0.0590X0.0110*%
%ADD144R,0.0590X0.0110*%
%ADD145O,0.0110X0.0590*%
%ADD146R,0.0110X0.0590*%
%ADD147C,0.0433*%
%ADD148R,0.0433X0.0433*%
%ADD149C,0.0420*%
%ADD150R,0.0420X0.0420*%
%ADD151O,0.0138X0.0551*%
%ADD152R,0.0138X0.0551*%
%ADD153R,0.0600X0.0600*%
%ADD154R,0.1000X0.0640*%
%ADD155R,0.0380X0.0320*%
%ADD156R,0.0748X0.1890*%
%ADD157R,0.0640X0.1000*%
%ADD158R,0.2000X0.6300*%
%ADD159R,0.0118X0.0512*%
%ADD160R,0.0708X0.0866*%
%ADD161R,0.0748X0.0472*%
%ADD162O,0.0900X0.0160*%
%ADD163R,0.0900X0.0160*%
%ADD164THERMAL164*%
%ADD165THERMAL165*%
%ADD166THERMAL166*%
%ADD167THERMAL167*%
%ADD168THERMAL168*%
%ADD169THERMAL169*%
%ADD170THERMAL170*%
%ADD171THERMAL171*%
%ADD172THERMAL172*%
%ADD173C,0.1142*%
%ADD174THERMAL174*%
%ADD175THERMAL175*%
%ADD176C,0.0820*%
%ADD177R,0.0820X0.0820*%
%ADD178THERMAL178*%
%ADD179THERMAL179*%
%ADD180C,0.0512*%
%ADD181R,0.0590X0.0590*%
%ADD182R,0.0250X0.0250*%
%ADD183R,0.0098X0.0512*%
%ADD184C,0.0079*%
%ADD185C,0.0197*%
%ADD186R,0.0302X0.0787*%
%ADD187R,0.1417X0.0551*%
%ADD188C,0.0020*%
%ADD189R,0.0720X0.0720*%
%ADD190R,0.0590X0.0236*%
%ADD191R,0.0708X0.0315*%
%ADD192R,0.0964X0.1102*%
%ADD193O,0.0551X0.0138*%
%ADD194R,0.0551X0.0138*%
%ADD195R,0.1890X0.0748*%
%ADD196C,0.0400*%
%ADD197R,0.0827X0.0551*%
%ADD198R,0.0551X0.0098*%
%ADD199THERMAL199*%
%ADD200THERMAL200*%
%ADD201C,0.0110*%
%ADD202THERMAL202*%
%ADD203R,0.0984X0.0984*%
%ADD204C,0.0830*%
%ADD205C,0.0650*%
%ADD206C,0.0400*%
%ADD207R,0.0400X0.0400*%
%ADD208O,0.0551X0.0122*%
%ADD209R,0.0551X0.0122*%
%ADD210C,0.1000*%
%ADD211C,0.0250*%
%ADD212C,0.0250*%
%ADD213C,0.0315*%
%ADD214C,0.0130*%
%ADD215C,0.0600*%
%ADD216O,0.0181X0.0394*%
%ADD217R,0.0181X0.0394*%
%ADD218O,0.0394X0.0181*%
%ADD219R,0.0394X0.0181*%
%ADD220R,0.0380X0.0320*%
%ADD221R,0.0640X0.1000*%
%ADD222R,0.0220X0.0220*%
%ADD223R,0.0760X0.1200*%
%ADD224O,0.0940X0.0250*%
%ADD225R,0.0940X0.0250*%
%ADD226C,0.1750*%
%ADD227C,0.0472*%
%ADD228R,0.1141X0.0354*%
%ADD229R,0.0708X0.0157*%
%ADD230C,0.0620*%
%ADD231R,0.0720X0.0720*%
%ADD232C,0.0580*%
%ADD233R,0.0580X0.0580*%
%ADD234O,0.0250X0.0940*%
%ADD235R,0.0250X0.0940*%
%ADD236R,0.2000X0.6300*%
%ADD237O,0.0860X0.0250*%
%ADD238R,0.0860X0.0250*%
%ADD239R,0.0118X0.0315*%
%ADD240R,0.0315X0.0118*%
%ADD241C,0.0866*%
%ADD242R,0.0118X0.0512*%
%ADD243R,0.0708X0.0866*%
%ADD244C,0.0830*%
%ADD245C,0.0550*%
%ADD246R,0.0827X0.0551*%
%ADD247R,0.0551X0.0098*%
%ADD248R,0.0320X0.0380*%
%ADD249C,0.1000*%
%ADD250R,0.0620X0.0620*%
%ADD251C,0.1771*%
%ADD252O,0.0250X0.0860*%
%ADD253R,0.0250X0.0860*%
%ADD254O,0.0680X0.0118*%
%ADD255R,0.0680X0.0118*%
%ADD256C,0.0650*%
%ADD257C,0.0800*%
%ADD258O,0.0940X0.0160*%
%ADD259R,0.0940X0.0160*%
%ADD260C,0.0400*%
%ADD261R,0.0400X0.0400*%
%ADD262C,0.0420*%
%ADD263R,0.0420X0.0420*%
%ADD264C,0.0250*%
%ADD265C,0.0320*%
%ADD266C,0.0350*%
%ADD267C,0.1750*%
%ADD268C,0.0866*%
%ADD269THERMAL269*%
%ADD270C,0.0800*%
%ADD271C,0.0780*%
%ADD272R,0.0780X0.0780*%
%ADD273THERMAL273*%
%ADD274R,0.0800X0.0800*%
%ADD275THERMAL275*%
%ADD276THERMAL276*%
%ADD277C,0.0800*%
%ADD278THERMAL278*%
%ADD279THERMAL279*%
%ADD280C,0.0800*%
%ADD281THERMAL281*%
%ADD282THERMAL282*%
%ADD283C,0.1142*%
%ADD284C,0.0780*%
%ADD285R,0.0780X0.0780*%
%ADD286THERMAL286*%
%ADD287C,0.0750*%
%ADD288R,0.0800X0.0800*%
%ADD289C,0.2100*%
%ADD290C,0.0820*%
%ADD291R,0.0820X0.0820*%
%ADD292C,0.1700*%
%ADD293C,0.0850*%
%ADD294C,0.0750*%
%ADD295C,0.1260*%
%ADD296THERMAL296*%
%ADD297C,0.0650*%
%ADD298R,0.0650X0.0650*%
%ADD299C,0.0500*%
%ADD300C,0.0500*%
%ADD301C,0.0500*%
%ADD302THERMAL302*%
%ADD303C,0.0800*%
%ADD304C,0.1150*%
%ADD305C,0.1142*%
%ADD306C,0.0780*%
%ADD307R,0.0780X0.0780*%
%ADD308C,0.0750*%
%ADD309C,0.1500*%
%ADD310C,0.1750*%
%ADD311C,0.0820*%
%ADD312C,0.0650*%
%ADD313O,0.0787X0.0302*%
%ADD314O,0.0302X0.0787*%
%ADD315R,0.0302X0.0787*%
%ADD316O,0.0160X0.0700*%
%ADD317R,0.0160X0.0700*%
%ADD318R,0.0984X0.0984*%
%ADD319O,0.0118X0.0472*%
%ADD320O,0.0472X0.0118*%
%ADD321R,0.0472X0.0118*%
%ADD322R,0.1181X0.1575*%
%ADD323R,0.0220X0.0220*%
%ADD324R,0.1200X0.0800*%
%ADD325R,0.0800X0.1200*%
%ADD326C,0.1750*%
%ADD327C,0.0472*%
%ADD328R,0.0380X0.0320*%
%ADD329R,0.1417X0.0551*%
%ADD330C,0.0620*%
%ADD331R,0.0320X0.0380*%
%ADD332R,0.0560X0.0920*%
%ADD333C,0.0580*%
%ADD334R,0.0580X0.0580*%
%ADD335R,0.0720X0.0720*%
%ADD336R,0.0400X0.0560*%
%ADD337R,0.0480X0.0560*%
%ADD338O,0.0149X0.0409*%
%ADD339R,0.0149X0.0409*%
%ADD340C,0.0866*%
%ADD341C,0.0830*%
%ADD342C,0.0550*%
%ADD343R,0.0590X0.0236*%
%ADD344R,0.0708X0.0315*%
%ADD345R,0.0964X0.1102*%
%ADD346R,0.0315X0.0118*%
%ADD347R,0.0118X0.0315*%
%ADD348C,0.0200*%
%ADD349R,0.0200X0.0200*%
%ADD350C,0.1000*%
%ADD351R,0.0620X0.0620*%
%ADD352C,0.1771*%
%ADD353O,0.0860X0.0250*%
%ADD354R,0.0860X0.0250*%
%ADD355R,0.0472X0.1260*%
%ADD356C,0.0650*%
%ADD357C,0.0800*%
%ADD358R,0.1299X0.1220*%
%ADD359R,0.1476X0.0315*%
%ADD360O,0.0940X0.0250*%
%ADD361R,0.0940X0.0250*%
%ADD362O,0.0940X0.0160*%
%ADD363R,0.0940X0.0160*%
%ADD364O,0.0160X0.0900*%
%ADD365R,0.0160X0.0900*%
%ADD366O,0.0590X0.0110*%
%ADD367R,0.0590X0.0110*%
%ADD368O,0.0110X0.0590*%
%ADD369R,0.0110X0.0590*%
%ADD370C,0.0400*%
%ADD371R,0.0400X0.0400*%
%ADD372C,0.0420*%
%ADD373R,0.0420X0.0420*%
%ADD374O,0.0551X0.0122*%
%ADD375R,0.0551X0.0122*%
%ADD376O,0.0250X0.0940*%
%ADD377R,0.0250X0.0940*%
%ADD378R,0.0600X0.0600*%
%ADD379R,0.0640X0.1000*%
%ADD380R,0.1890X0.0748*%
%ADD381C,0.0250*%
%ADD382C,0.0250*%
%ADD383C,0.1750*%
%ADD384C,0.0866*%
%ADD385C,0.0500*%
%ADD386THERMAL386*%
%ADD387C,0.1750*%
%ADD388C,0.0866*%
%ADD389C,0.0800*%
%ADD390O,0.0787X0.0302*%
%ADD391O,0.0302X0.0787*%
%ADD392R,0.0302X0.0787*%
%ADD393O,0.0160X0.0700*%
%ADD394R,0.0160X0.0700*%
%ADD395R,0.0984X0.0984*%
%ADD396O,0.0118X0.0472*%
%ADD397O,0.0472X0.0118*%
%ADD398R,0.0472X0.0118*%
%ADD399R,0.1181X0.1575*%
%ADD400R,0.1200X0.0800*%
%ADD401R,0.0800X0.1200*%
%ADD402C,0.0470*%
%ADD403R,0.1417X0.0551*%
%ADD404R,0.0560X0.0920*%
%ADD405R,0.0400X0.0560*%
%ADD406R,0.0480X0.0560*%
%ADD407O,0.0149X0.0409*%
%ADD408R,0.0149X0.0409*%
%ADD409C,0.0870*%
%ADD410R,0.0590X0.0236*%
%ADD411R,0.0708X0.0315*%
%ADD412R,0.0964X0.1102*%
%ADD413R,0.0250X0.0250*%
%ADD414R,0.0472X0.1260*%
%ADD415R,0.1299X0.1220*%
%ADD416R,0.1476X0.0315*%
%ADD417O,0.0160X0.0900*%
%ADD418R,0.0160X0.0900*%
%ADD419O,0.0590X0.0110*%
%ADD420R,0.0590X0.0110*%
%ADD421O,0.0110X0.0590*%
%ADD422R,0.0110X0.0590*%
%ADD423O,0.0551X0.0122*%
%ADD424R,0.0551X0.0122*%
%ADD425R,0.0600X0.0600*%
%ADD426R,0.1890X0.0748*%
%ADD427R,0.1142X0.0354*%
%ADD428R,0.0098X0.0512*%
%ADD429C,0.0460*%
%ADD430C,0.0669*%
%ADD431C,0.1023*%
%ADD432C,0.1500*%
%ADD433O,0.0680X0.0118*%
%ADD434R,0.0680X0.0118*%
%ADD435C,0.0410*%
%ADD436R,0.0410X0.0410*%
%ADD437R,0.1181X0.0787*%
%ADD438C,0.0250*%
%ADD439C,0.0220*%
%ADD440C,0.0160*%
%ADD441C,0.0236*%
%ADD442C,0.0800*%
%ADD443C,0.0460*%
%ADD444O,0.0160X0.0315*%
%ADD445R,0.0160X0.0315*%
%ADD446C,0.0669*%
%ADD447C,0.1023*%
%ADD448C,0.1500*%
%ADD449C,0.0410*%
%ADD450R,0.0410X0.0410*%
%ADD451C,0.1750*%
%ADD452C,0.0866*%
%ADD453THERMAL453*%
%ADD454THERMAL454*%
%ADD455THERMAL455*%
%ADD456THERMAL456*%
%ADD457THERMAL457*%
%ADD458THERMAL458*%
%ADD459THERMAL459*%
%ADD460THERMAL460*%
%ADD461THERMAL461*%
%ADD462THERMAL462*%
%ADD463THERMAL463*%
%ADD464THERMAL464*%
%ADD465THERMAL465*%
%ADD466THERMAL466*%
%ADD467C,0.0500*%
%ADD468THERMAL468*%
%ADD469C,0.0800*%
%ADD470THERMAL470*%
%ADD471C,0.1650*%
%ADD472C,0.1142*%
%ADD473R,0.1000X0.0640*%
%ADD474R,0.1181X0.0787*%
%ADD475C,0.1260*%
%ADD476R,0.0680X0.0130*%
*
G04 Plot Data ***
*
G54D216*
X0043151Y0010940D03*
X0042895D03*
X0042639D03*
Y0012534D03*
X0042895D03*
X0043151D03*
X0043407D03*
G54D217*
Y0010940D03*
G54D218*
X0041930Y0013395D03*
Y0013139D03*
Y0012883D03*
X0040336D03*
Y0013139D03*
Y0013395D03*
Y0013651D03*
Y0010069D03*
Y0010325D03*
Y0010581D03*
X0041930D03*
Y0010325D03*
Y0010069D03*
Y0009813D03*
G54D219*
Y0013651D03*
X0040336Y0009813D03*
G54D220*
X0041110Y0001360D03*
Y0001920D03*
X0042367Y0019773D03*
Y0019213D03*
X0037450Y0018070D03*
Y0018630D03*
X0040827Y0019213D03*
Y0019773D03*
X0000750Y0018110D03*
Y0017550D03*
X0004150Y0022620D03*
Y0022060D03*
X0003160Y0015910D03*
Y0015350D03*
X0004260Y0015900D03*
Y0015340D03*
G54D221*
X0016710Y0013820D03*
X0015360D03*
X0031530Y0020640D03*
X0032880D03*
X0028610Y0020600D03*
X0029960D03*
X0010150Y0017070D03*
X0008800D03*
G54D222*
X0023800Y0012200D03*
Y0011780D03*
X0010760Y0002940D03*
X0010340D03*
X0042830Y0005610D03*
Y0006030D03*
X0042100Y0000820D03*
X0041680D03*
X0018140Y0018620D03*
X0017720D03*
X-0002460Y0017740D03*
X-0002040D03*
X-0002440Y0005610D03*
X-0002020D03*
X0046980Y0019720D03*
X0046560D03*
X0047100Y0003610D03*
X0046680D03*
X0043310Y0007160D03*
Y0007580D03*
X0040120Y0000830D03*
X0040540D03*
X-0000340Y0011230D03*
X-0000760D03*
X0001410Y0021990D03*
Y0022410D03*
X0002110Y0015890D03*
Y0015470D03*
X0038560Y0001590D03*
Y0001170D03*
X0042530Y0008160D03*
Y0008580D03*
X0038580Y0004330D03*
Y0003910D03*
X0037550Y0009830D03*
Y0009410D03*
X0042480Y0004370D03*
Y0003950D03*
X0041770Y0008580D03*
Y0008160D03*
X0041780Y0018180D03*
Y0017760D03*
X0043380Y0015260D03*
X0042960D03*
X0043380Y0013230D03*
X0042960D03*
X0007120Y0009000D03*
Y0009420D03*
X0021160Y0006890D03*
X0020740D03*
X0026870Y0000790D03*
Y0000370D03*
X0022280Y0022500D03*
Y0022920D03*
X-0000760Y0011880D03*
X-0000340D03*
X0004590Y0011330D03*
Y0010910D03*
X0002080Y0020800D03*
Y0021220D03*
Y0022420D03*
Y0022000D03*
X0001410Y0020800D03*
Y0021220D03*
X0004090Y0021200D03*
Y0020780D03*
X0002760Y0020800D03*
Y0021220D03*
Y0021990D03*
Y0022410D03*
G54D223*
X0007770Y0019000D03*
X0010130D03*
G54D224*
X0037180Y0002920D03*
Y0002420D03*
Y0001920D03*
Y0001420D03*
Y0000920D03*
Y0000420D03*
X0035220D03*
Y0000920D03*
Y0001420D03*
Y0001920D03*
Y0002420D03*
Y0002920D03*
Y0003420D03*
X0001070Y0011350D03*
Y0011850D03*
Y0012350D03*
X0003030D03*
Y0011850D03*
Y0011350D03*
Y0010850D03*
G54D225*
X0037180Y0003420D03*
X0001070Y0010850D03*
G54D226*
X0006370Y0011650D03*
X0024800Y0007400D03*
Y0015900D03*
X0039601Y0021662D03*
X0029561Y0001642D03*
G54D229*
X0029231Y0015902D03*
Y0015508D03*
Y0015114D03*
Y0014721D03*
Y0014327D03*
Y0013933D03*
Y0013540D03*
Y0013146D03*
Y0012752D03*
Y0012358D03*
Y0011965D03*
Y0011571D03*
Y0011178D03*
Y0010784D03*
Y0010390D03*
Y0009996D03*
Y0009603D03*
Y0009209D03*
Y0008815D03*
Y0008422D03*
Y0008028D03*
Y0007634D03*
Y0007241D03*
Y0006847D03*
Y0006453D03*
Y0006059D03*
X0031239Y0015705D03*
Y0015311D03*
Y0014918D03*
Y0014524D03*
Y0014130D03*
Y0013736D03*
Y0013343D03*
Y0012949D03*
Y0012555D03*
Y0012162D03*
Y0011768D03*
Y0011374D03*
Y0010981D03*
Y0010587D03*
Y0010193D03*
Y0009800D03*
Y0009406D03*
Y0009012D03*
Y0008619D03*
Y0008225D03*
Y0007831D03*
Y0007437D03*
Y0007044D03*
Y0006650D03*
Y0006256D03*
G54D230*
X0031930Y0021880D03*
X0030930D03*
X0029930D03*
X0028930D03*
X0027930D03*
X0023620Y0000418D03*
X0024620D03*
X0025620D03*
X0025630Y0022881D03*
X0024630D03*
X0023630D03*
X0048090Y-0004050D03*
Y-0003050D03*
Y-0002050D03*
Y0025350D03*
Y0026350D03*
Y0027350D03*
X-0003580Y-0000050D03*
Y-0001050D03*
Y-0002050D03*
Y0025350D03*
Y0024350D03*
Y0023350D03*
X-0001000Y0016700D03*
Y0017700D03*
Y0018700D03*
Y0004600D03*
Y0005600D03*
Y0006600D03*
X0045490Y0020700D03*
Y0019700D03*
Y0018700D03*
X0045500Y0004600D03*
Y0003600D03*
Y0002600D03*
X0014210Y0007600D03*
X0015194D03*
G54D231*
X0011090Y0020460D03*
Y0019060D03*
X0012620Y0001990D03*
X0014020D03*
X0013190Y0013370D03*
Y0011970D03*
X0009290Y0013380D03*
Y0011980D03*
X0007890Y0003350D03*
Y0001950D03*
G54D232*
X0014020Y0003670D03*
X0013020Y0004670D03*
Y0003670D03*
X0012020Y0004670D03*
Y0003670D03*
X0011020Y0004670D03*
Y0003670D03*
X0010020Y0004670D03*
Y0003670D03*
X0012860Y0019610D03*
X0013860Y0018610D03*
Y0019610D03*
X0014860Y0018610D03*
Y0019610D03*
X0015860Y0018610D03*
Y0019610D03*
X0016860Y0018610D03*
Y0019610D03*
X0012530Y0006990D03*
X0047710Y0008150D03*
Y0009150D03*
Y0010150D03*
Y0011150D03*
Y0012150D03*
Y0013150D03*
Y0014150D03*
Y0015150D03*
Y0016150D03*
X0044710D03*
Y0015150D03*
Y0014150D03*
Y0013150D03*
Y0012150D03*
Y0011150D03*
Y0010150D03*
Y0009150D03*
Y0008150D03*
Y0007150D03*
X0006510Y0002910D03*
Y0001910D03*
Y0000910D03*
X0025180Y0001270D03*
X0047210Y-0002560D03*
X-0002740Y-0001560D03*
X0024180Y0022030D03*
X0047210Y0026860D03*
X-0002740Y0023860D03*
G54D233*
X0014020Y0004670D03*
X0012860Y0018610D03*
X0012530Y0005990D03*
X0047710Y0007150D03*
X0006510Y0003910D03*
X0024180Y0001270D03*
X0047210Y-0003560D03*
X-0002740Y-0000560D03*
X0025180Y0022030D03*
X0047210Y0025860D03*
X-0002740Y0024860D03*
G54D234*
X0041120Y0003210D03*
X0040620D03*
X0040120D03*
Y0005170D03*
X0040620D03*
X0041120D03*
X0041620D03*
G54D235*
Y0003210D03*
G54D236*
X0003540Y0007210D03*
G54D237*
X0000980Y0005460D03*
Y0005960D03*
Y0006460D03*
Y0006960D03*
Y0007460D03*
Y0007960D03*
Y0008460D03*
Y0008960D03*
Y0009460D03*
X0006100D03*
Y0008960D03*
Y0008460D03*
Y0007960D03*
Y0007460D03*
Y0006960D03*
Y0006460D03*
Y0005960D03*
Y0005460D03*
Y0004960D03*
G54D238*
X0000980D03*
G54D239*
X0043422Y0013900D03*
X0043166D03*
X0042910D03*
Y0014608D03*
X0043422D03*
X0007841Y0007741D03*
X0007585D03*
X0007330D03*
Y0008450D03*
X0007841D03*
G54D240*
X0001980Y0002940D03*
Y0002684D03*
Y0002428D03*
X0001271D03*
Y0002940D03*
G54D241*
X0023167Y0002190D03*
X0026073Y0001521D03*
X0026083Y0021110D03*
X0023177Y0021779D03*
X0046318Y-0004503D03*
X0046988Y-0001597D03*
X0046318Y0024897D03*
X0046988Y0027803D03*
X-0001808Y0000403D03*
X-0002478Y-0002503D03*
X-0001808Y0025803D03*
X-0002478Y0022897D03*
G54D243*
X0019168Y0022379D03*
X0011373D03*
G54D245*
X0008257Y0021640D03*
X0009045D03*
X0007470Y0022427D03*
X0009045D03*
X0008257D03*
X0007470Y0021640D03*
G54D246*
X0020543Y0007804D03*
Y0015284D03*
G54D247*
X0019510Y0008690D03*
Y0008887D03*
Y0009084D03*
Y0009280D03*
Y0009477D03*
Y0009674D03*
Y0009871D03*
Y0010069D03*
Y0010266D03*
Y0010463D03*
Y0010660D03*
Y0010857D03*
Y0011054D03*
Y0011251D03*
Y0011448D03*
Y0011645D03*
Y0011842D03*
Y0012039D03*
Y0012236D03*
Y0012433D03*
Y0012630D03*
Y0012827D03*
Y0013024D03*
Y0013221D03*
Y0013418D03*
Y0013615D03*
Y0013808D03*
Y0014005D03*
Y0014202D03*
Y0014398D03*
X0021577D03*
Y0014202D03*
Y0014005D03*
Y0013808D03*
Y0013611D03*
Y0013414D03*
Y0013217D03*
Y0013021D03*
Y0012824D03*
Y0012627D03*
Y0012430D03*
Y0012233D03*
Y0012036D03*
Y0011839D03*
Y0011643D03*
Y0011446D03*
Y0011249D03*
Y0011052D03*
Y0010855D03*
Y0010658D03*
Y0010461D03*
Y0010265D03*
Y0010068D03*
Y0009871D03*
Y0009674D03*
Y0009477D03*
Y0009280D03*
Y0009084D03*
Y0008887D03*
Y0008690D03*
G54D248*
X0038130Y0006520D03*
X0038690D03*
X0042770Y0006600D03*
X0042210D03*
X0039780Y0011560D03*
X0040340D03*
X0032530Y0006910D03*
X0033090D03*
X0028180Y0015510D03*
X0027620D03*
X0038130Y0005730D03*
X0038690D03*
G54D250*
X0032930Y0021880D03*
G54D251*
X0024275Y0004200D03*
X0021126Y0019160D03*
G54D252*
X0005830Y0017100D03*
X0005330D03*
X0004830D03*
Y0019220D03*
X0005330D03*
X0005830D03*
X0006330D03*
X0027460Y0017240D03*
X0026960D03*
X0026460D03*
Y0019360D03*
X0026960D03*
X0027460D03*
X0027960D03*
X0010980Y0013740D03*
X0011480D03*
X0011980D03*
Y0011620D03*
X0011480D03*
X0010980D03*
X0010480D03*
G54D253*
X0006330Y0017100D03*
X0027960Y0017240D03*
X0010480Y0013740D03*
G54D256*
X0006368Y0022034D03*
X0010147D03*
G54D257*
X0032590Y0005900D03*
Y0017400D03*
G54D262*
X0010287Y0006660D03*
Y0005873D03*
X0011075Y0006660D03*
Y0005873D03*
X0009500D03*
X0027914Y0004036D03*
X0028701D03*
X0027914Y0004824D03*
X0028701D03*
Y0003249D03*
G54D263*
X0009500Y0006660D03*
X0027914Y0003249D03*
G54D427*
X0030254Y0005036D03*
Y0016925D03*
G54D428*
X0018420Y0021100D03*
X0018223D03*
X0018026D03*
X0017829D03*
X0017633D03*
X0017436D03*
X0017239D03*
X0017042D03*
X0016845D03*
X0016648D03*
X0016451D03*
X0016255D03*
X0016058D03*
X0015861D03*
X0015664D03*
X0015467D03*
X0015270D03*
X0015074D03*
X0014877D03*
X0014680D03*
X0014483D03*
X0014286D03*
X0014089D03*
X0013892D03*
X0013696D03*
X0013499D03*
X0013302D03*
X0013105D03*
X0012908D03*
X0012711D03*
X0012514D03*
X0012318D03*
X0012121D03*
G54D443*
X0030254Y0005469D03*
Y0016492D03*
G54D444*
X0040734Y0006797D03*
X0040478D03*
X0040222D03*
Y0008502D03*
X0040478D03*
X0040734D03*
X0040990D03*
G54D445*
Y0006797D03*
G54D447*
X0000300Y0014090D03*
X-0000448Y0015822D03*
X0000733Y0015232D03*
G54D448*
X-0001250Y0020770D03*
Y0002530D03*
X0045740Y0022770D03*
X0045750Y0000530D03*
G54D449*
X-0002250Y0012228D03*
Y0011736D03*
Y0011244D03*
Y0010751D03*
Y0010259D03*
Y0009767D03*
Y0009275D03*
Y0008783D03*
Y0008291D03*
Y0007799D03*
Y0007307D03*
G54D450*
Y0012720D03*
G54D472*
X-0002416Y0013696D03*
Y0015271D03*
M02*
