*
G04 Mass Parameters ***
*
G04 Image ***
*
%INC:\PROJECTS\RAGOBOTS_HW\ROBOT\HW\BODY\DESIGN\RAGOBOT.SST*%
%ICAS*%
%MOIN*%
%IPPOS*%
%ASAXBY*%
G74*%FSLAN2X34Y34*%
*
G04 Aperture Definitions ***
*
%AMTHERMAL68*
1,1,0.0389,0,0,*
1,0,0.0370,0,0,*
21,0,0.0390,0.1000,0,0,45.0*
21,0,0.0390,0.1000,0,0,135.0*%
%AMTHERMAL73*
1,1,0.0174,0,0,*
1,0,0.0155,0,0,*
21,0,0.0175,0.1000,0,0,45.0*
21,0,0.0175,0.1000,0,0,135.0*%
%AMTHERMAL77*
1,1,0.0174,0,0,*
1,0,0.0155,0,0,*
21,0,0.0175,0.1000,0,0,46.2*
21,0,0.0175,0.1000,0,0,136.2*%
%AMTHERMAL164*
1,1,0.0409,0,0,*
1,0,0.0390,0,0,*
21,0,0.0410,0.1000,0,0,225.0*
21,0,0.0410,0.1000,0,0,315.0*%
%AMTHERMAL165*
1,1,0.0708,0,0,*
1,0,0.0689,0,0,*
21,0,0.0709,0.1000,0,0,315.0*
21,0,0.0709,0.1000,0,0,45.0*%
%AMTHERMAL166*
1,1,0.0419,0,0,*
1,0,0.0400,0,0,*
21,0,0.0420,0.1000,0,0,315.0*
21,0,0.0420,0.1000,0,0,45.0*%
%AMTHERMAL167*
1,1,0.0708,0,0,*
1,0,0.0689,0,0,*
21,0,0.0709,0.1000,0,0,135.0*
21,0,0.0709,0.1000,0,0,225.0*%
%AMTHERMAL168*
1,1,0.0419,0,0,*
1,0,0.0400,0,0,*
21,0,0.0420,0.1000,0,0,135.0*
21,0,0.0420,0.1000,0,0,225.0*%
%AMTHERMAL169*
1,1,0.0708,0,0,*
1,0,0.0689,0,0,*
21,0,0.0709,0.1000,0,0,225.0*
21,0,0.0709,0.1000,0,0,315.0*%
%AMTHERMAL170*
1,1,0.0419,0,0,*
1,0,0.0400,0,0,*
21,0,0.0420,0.1000,0,0,225.0*
21,0,0.0420,0.1000,0,0,315.0*%
%AMTHERMAL171*
1,1,0.0708,0,0,*
1,0,0.0689,0,0,*
21,0,0.0709,0.1000,0,0,45.0*
21,0,0.0709,0.1000,0,0,135.0*%
%AMTHERMAL172*
1,1,0.0419,0,0,*
1,0,0.0400,0,0,*
21,0,0.0420,0.1000,0,0,45.0*
21,0,0.0420,0.1000,0,0,135.0*%
%AMTHERMAL174*
1,1,0.1039,0,0,*
1,0,0.1020,0,0,*
21,0,0.1040,0.1000,0,0,45.0*
21,0,0.1040,0.1000,0,0,135.0*%
%AMTHERMAL175*
1,1,0.1039,0,0,*
1,0,0.1020,0,0,*
21,0,0.1040,0.1000,0,0,225.0*
21,0,0.1040,0.1000,0,0,315.0*%
%AMTHERMAL178*
1,1,0.0409,0,0,*
1,0,0.0390,0,0,*
21,0,0.0410,0.1000,0,0,45.0*
21,0,0.0410,0.1000,0,0,135.0*%
%AMTHERMAL179*
1,1,0.0354,0,0,*
1,0,0.0335,0,0,*
21,0,0.0355,0.1000,0,0,135.0*
21,0,0.0355,0.1000,0,0,225.0*%
%AMTHERMAL199*
1,1,0.0259,0,0,*
1,0,0.0240,0,0,*
21,0,0.0260,0.1000,0,0,315.0*
21,0,0.0260,0.1000,0,0,45.0*%
%AMTHERMAL200*
1,1,0.0409,0,0,*
1,0,0.0390,0,0,*
21,0,0.0410,0.1000,0,0,315.0*
21,0,0.0410,0.1000,0,0,45.0*%
%AMTHERMAL202*
1,1,0.0389,0,0,*
1,0,0.0370,0,0,*
21,0,0.0390,0.1000,0,0,315.0*
21,0,0.0390,0.1000,0,0,45.0*%
%AMTHERMAL269*
1,1,0.0459,0,0,*
1,0,0.0440,0,0,*
21,0,0.0460,0.1000,0,0,225.0*
21,0,0.0460,0.1000,0,0,315.0*%
%AMTHERMAL273*
1,1,0.0399,0,0,*
1,0,0.0380,0,0,*
21,0,0.0400,0.1000,0,0,315.0*
21,0,0.0400,0.1000,0,0,45.0*%
%AMTHERMAL275*
1,1,0.0719,0,0,*
1,0,0.0700,0,0,*
21,0,0.0720,0.1000,0,0,315.0*
21,0,0.0720,0.1000,0,0,45.0*%
%AMTHERMAL276*
1,1,0.0459,0,0,*
1,0,0.0440,0,0,*
21,0,0.0460,0.1000,0,0,315.0*
21,0,0.0460,0.1000,0,0,45.0*%
%AMTHERMAL278*
1,1,0.0719,0,0,*
1,0,0.0700,0,0,*
21,0,0.0720,0.1000,0,0,135.0*
21,0,0.0720,0.1000,0,0,225.0*%
%AMTHERMAL279*
1,1,0.0459,0,0,*
1,0,0.0440,0,0,*
21,0,0.0460,0.1000,0,0,135.0*
21,0,0.0460,0.1000,0,0,225.0*%
%AMTHERMAL281*
1,1,0.0719,0,0,*
1,0,0.0700,0,0,*
21,0,0.0720,0.1000,0,0,225.0*
21,0,0.0720,0.1000,0,0,315.0*%
%AMTHERMAL282*
1,1,0.0719,0,0,*
1,0,0.0700,0,0,*
21,0,0.0720,0.1000,0,0,45.0*
21,0,0.0720,0.1000,0,0,135.0*%
%AMTHERMAL286*
1,1,0.0409,0,0,*
1,0,0.0390,0,0,*
21,0,0.0410,0.1000,0,0,135.0*
21,0,0.0410,0.1000,0,0,225.0*%
%AMTHERMAL296*
1,1,0.0299,0,0,*
1,0,0.0280,0,0,*
21,0,0.0300,0.1000,0,0,135.0*
21,0,0.0300,0.1000,0,0,225.0*%
%AMTHERMAL302*
1,1,0.0174,0,0,*
1,0,0.0155,0,0,*
21,0,0.0175,0.1000,0,0,46.3*
21,0,0.0175,0.1000,0,0,136.3*%
%AMTHERMAL386*
1,1,0.0174,0,0,*
1,0,0.0155,0,0,*
21,0,0.0175,0.1000,0,0,47.0*
21,0,0.0175,0.1000,0,0,137.0*%
%AMTHERMAL453*
1,1,0.0439,0,0,*
1,0,0.0420,0,0,*
21,0,0.0440,0.1000,0,0,225.0*
21,0,0.0440,0.1000,0,0,315.0*%
%AMTHERMAL454*
1,1,0.0709,0,0,*
1,0,0.0690,0,0,*
21,0,0.0710,0.1000,0,0,315.0*
21,0,0.0710,0.1000,0,0,45.0*%
%AMTHERMAL455*
1,1,0.0439,0,0,*
1,0,0.0420,0,0,*
21,0,0.0440,0.1000,0,0,315.0*
21,0,0.0440,0.1000,0,0,45.0*%
%AMTHERMAL456*
1,1,0.0709,0,0,*
1,0,0.0690,0,0,*
21,0,0.0710,0.1000,0,0,135.0*
21,0,0.0710,0.1000,0,0,225.0*%
%AMTHERMAL457*
1,1,0.0439,0,0,*
1,0,0.0420,0,0,*
21,0,0.0440,0.1000,0,0,135.0*
21,0,0.0440,0.1000,0,0,225.0*%
%AMTHERMAL458*
1,1,0.0709,0,0,*
1,0,0.0690,0,0,*
21,0,0.0710,0.1000,0,0,225.0*
21,0,0.0710,0.1000,0,0,315.0*%
%AMTHERMAL459*
1,1,0.0709,0,0,*
1,0,0.0690,0,0,*
21,0,0.0710,0.1000,0,0,45.0*
21,0,0.0710,0.1000,0,0,135.0*%
%AMTHERMAL460*
1,1,0.0439,0,0,*
1,0,0.0420,0,0,*
21,0,0.0440,0.1000,0,0,45.0*
21,0,0.0440,0.1000,0,0,135.0*%
%AMTHERMAL461*
1,1,0.1289,0,0,*
1,0,0.1270,0,0,*
21,0,0.1290,0.1000,0,0,45.0*
21,0,0.1290,0.1000,0,0,135.0*%
%AMTHERMAL462*
1,1,0.1289,0,0,*
1,0,0.1270,0,0,*
21,0,0.1290,0.1000,0,0,225.0*
21,0,0.1290,0.1000,0,0,315.0*%
%AMTHERMAL463*
1,1,0.0399,0,0,*
1,0,0.0380,0,0,*
21,0,0.0400,0.1000,0,0,45.0*
21,0,0.0400,0.1000,0,0,135.0*%
%AMTHERMAL464*
1,1,0.0399,0,0,*
1,0,0.0380,0,0,*
21,0,0.0400,0.1000,0,0,225.0*
21,0,0.0400,0.1000,0,0,315.0*%
%AMTHERMAL465*
1,1,0.0289,0,0,*
1,0,0.0270,0,0,*
21,0,0.0290,0.1000,0,0,135.0*
21,0,0.0290,0.1000,0,0,225.0*%
%AMTHERMAL466*
1,1,0.0174,0,0,*
1,0,0.0155,0,0,*
21,0,0.0175,0.1000,0,0,45.3*
21,0,0.0175,0.1000,0,0,135.3*%
%AMTHERMAL468*
1,1,0.0174,0,0,*
1,0,0.0155,0,0,*
21,0,0.0175,0.1000,0,0,45.1*
21,0,0.0175,0.1000,0,0,135.1*%
%AMTHERMAL470*
1,1,0.0399,0,0,*
1,0,0.0380,0,0,*
21,0,0.0400,0.1000,0,0,135.0*
21,0,0.0400,0.1000,0,0,225.0*%
%ADD10C,0.1750*%
%ADD11O,0.0940X0.0250*%
%ADD12R,0.0940X0.0250*%
%ADD13R,0.1181X0.1181*%
%ADD14O,0.0118X0.0472*%
%ADD15O,0.0472X0.0118*%
%ADD16R,0.0472X0.0118*%
%ADD17R,0.0780X0.0720*%
%ADD18R,0.0720X0.0780*%
%ADD19C,0.0580*%
%ADD20R,0.0580X0.0580*%
%ADD21R,0.0600X0.0800*%
%ADD22R,0.0800X0.0600*%
%ADD23R,0.1575X0.1181*%
%ADD24R,0.0220X0.0220*%
%ADD25R,0.1200X0.0760*%
%ADD26R,0.1420X0.0720*%
%ADD27R,0.0400X0.0480*%
%ADD28R,0.0480X0.0400*%
%ADD29C,0.0620*%
%ADD30C,0.1700*%
%ADD31C,0.1450*%
%ADD32R,0.0315X0.0315*%
%ADD33C,0.0472*%
%ADD34C,0.1771*%
%ADD35C,0.0750*%
%ADD36R,0.0750X0.0750*%
%ADD37O,0.0860X0.0250*%
%ADD38R,0.0860X0.0250*%
%ADD39O,0.0680X0.0130*%
%ADD40R,0.0680X0.0130*%
%ADD41O,0.1000X0.0250*%
%ADD42R,0.1000X0.0250*%
%ADD43O,0.0250X0.1000*%
%ADD44R,0.0250X0.1000*%
%ADD45C,0.0787*%
%ADD46C,0.1100*%
%ADD47R,0.0480X0.0740*%
%ADD48R,0.3149X0.2362*%
%ADD49R,0.1968X0.2362*%
%ADD50C,0.0250*%
%ADD51C,0.0250*%
%ADD52C,0.0100*%
%ADD53C,0.0250*%
%ADD54C,0.0300*%
%ADD55C,0.0120*%
%ADD56C,0.0200*%
%ADD57C,0.0118*%
%ADD58C,0.0080*%
%ADD59C,0.0150*%
%ADD60R,0.1141X0.0354*%
%ADD61R,0.0708X0.0157*%
%ADD62C,0.0010*%
%ADD63C,0.2100*%
%ADD64C,0.0950*%
%ADD65R,0.0950X0.0950*%
%ADD66C,0.1000*%
%ADD67C,0.1900*%
%ADD68THERMAL68*%
%ADD69C,0.0900*%
%ADD70R,0.0900X0.0900*%
%ADD71C,0.0800*%
%ADD72R,0.1100X0.1100*%
%ADD73THERMAL73*%
%ADD74C,0.0600*%
%ADD75C,0.0500*%
%ADD76C,0.0600*%
%ADD77THERMAL77*%
%ADD78C,0.0780*%
%ADD79R,0.0780X0.0780*%
%ADD80C,0.0700*%
%ADD81C,0.1550*%
%ADD82C,0.0500*%
%ADD83C,0.0500*%
%ADD84C,0.0670*%
%ADD85C,0.1650*%
%ADD86C,0.1200*%
%ADD87R,0.1142X0.0354*%
%ADD88C,0.1260*%
%ADD89C,0.0060*%
%ADD90C,0.0039*%
%ADD91C,0.0070*%
%ADD92C,0.0098*%
%ADD93C,0.0050*%
%ADD94C,0.0130*%
%ADD95C,0.0130*%
%ADD96O,0.0302X0.0787*%
%ADD97O,0.0787X0.0302*%
%ADD98R,0.0787X0.0302*%
%ADD99O,0.0160X0.0700*%
%ADD100R,0.0160X0.0700*%
%ADD101O,0.0394X0.0181*%
%ADD102R,0.0394X0.0181*%
%ADD103O,0.0181X0.0394*%
%ADD104R,0.0181X0.0394*%
%ADD105R,0.1181X0.1575*%
%ADD106R,0.1200X0.0800*%
%ADD107R,0.0320X0.0380*%
%ADD108R,0.0551X0.1417*%
%ADD109R,0.0560X0.0920*%
%ADD110R,0.0960X0.0960*%
%ADD111R,0.0400X0.0560*%
%ADD112R,0.0480X0.0560*%
%ADD113O,0.0149X0.0409*%
%ADD114R,0.0149X0.0409*%
%ADD115R,0.0315X0.0118*%
%ADD116R,0.0118X0.0315*%
%ADD117C,0.0866*%
%ADD118R,0.0760X0.1200*%
%ADD119C,0.0394*%
%ADD120R,0.1102X0.0964*%
%ADD121C,0.0200*%
%ADD122R,0.0200X0.0200*%
%ADD123R,0.0800X0.1200*%
%ADD124R,0.0620X0.0620*%
%ADD125O,0.0250X0.0860*%
%ADD126R,0.0250X0.0860*%
%ADD127O,0.0130X0.0680*%
%ADD128R,0.0130X0.0680*%
%ADD129R,0.0472X0.1260*%
%ADD130C,0.0480*%
%ADD131C,0.0550*%
%ADD132C,0.0748*%
%ADD133R,0.1299X0.1220*%
%ADD134R,0.1476X0.0315*%
%ADD135O,0.0250X0.0940*%
%ADD136R,0.0250X0.0940*%
%ADD137O,0.0160X0.0940*%
%ADD138R,0.0160X0.0940*%
%ADD139O,0.0940X0.0160*%
%ADD140R,0.0940X0.0160*%
%ADD141O,0.0160X0.0900*%
%ADD142R,0.0160X0.0900*%
%ADD143O,0.0590X0.0110*%
%ADD144R,0.0590X0.0110*%
%ADD145O,0.0110X0.0590*%
%ADD146R,0.0110X0.0590*%
%ADD147C,0.0433*%
%ADD148R,0.0433X0.0433*%
%ADD149C,0.0420*%
%ADD150R,0.0420X0.0420*%
%ADD151O,0.0138X0.0551*%
%ADD152R,0.0138X0.0551*%
%ADD153R,0.0600X0.0600*%
%ADD154R,0.1000X0.0640*%
%ADD155R,0.0380X0.0320*%
%ADD156R,0.0748X0.1890*%
%ADD157R,0.0640X0.1000*%
%ADD158R,0.2000X0.6300*%
%ADD159R,0.0118X0.0512*%
%ADD160R,0.0708X0.0866*%
%ADD161R,0.0748X0.0472*%
%ADD162O,0.0900X0.0160*%
%ADD163R,0.0900X0.0160*%
%ADD164THERMAL164*%
%ADD165THERMAL165*%
%ADD166THERMAL166*%
%ADD167THERMAL167*%
%ADD168THERMAL168*%
%ADD169THERMAL169*%
%ADD170THERMAL170*%
%ADD171THERMAL171*%
%ADD172THERMAL172*%
%ADD173C,0.1142*%
%ADD174THERMAL174*%
%ADD175THERMAL175*%
%ADD176C,0.0820*%
%ADD177R,0.0820X0.0820*%
%ADD178THERMAL178*%
%ADD179THERMAL179*%
%ADD180C,0.0512*%
%ADD181R,0.0590X0.0590*%
%ADD182R,0.0250X0.0250*%
%ADD183R,0.0098X0.0512*%
%ADD184C,0.0079*%
%ADD185C,0.0197*%
%ADD186R,0.0302X0.0787*%
%ADD187R,0.1417X0.0551*%
%ADD188C,0.0020*%
%ADD189R,0.0720X0.0720*%
%ADD190R,0.0590X0.0236*%
%ADD191R,0.0708X0.0315*%
%ADD192R,0.0964X0.1102*%
%ADD193O,0.0551X0.0138*%
%ADD194R,0.0551X0.0138*%
%ADD195R,0.1890X0.0748*%
%ADD196C,0.0400*%
%ADD197R,0.0827X0.0551*%
%ADD198R,0.0551X0.0098*%
%ADD199THERMAL199*%
%ADD200THERMAL200*%
%ADD201C,0.0110*%
%ADD202THERMAL202*%
%ADD203R,0.0984X0.0984*%
%ADD204C,0.0830*%
%ADD205C,0.0650*%
%ADD206C,0.0400*%
%ADD207R,0.0400X0.0400*%
%ADD208O,0.0551X0.0122*%
%ADD209R,0.0551X0.0122*%
%ADD210C,0.1000*%
%ADD211C,0.0250*%
%ADD212C,0.0250*%
%ADD213C,0.0315*%
%ADD214C,0.0130*%
%ADD215C,0.0600*%
%ADD216O,0.0181X0.0394*%
%ADD217R,0.0181X0.0394*%
%ADD218O,0.0394X0.0181*%
%ADD219R,0.0394X0.0181*%
%ADD220R,0.0380X0.0320*%
%ADD221R,0.0640X0.1000*%
%ADD222R,0.0220X0.0220*%
%ADD223R,0.0760X0.1200*%
%ADD224O,0.0940X0.0250*%
%ADD225R,0.0940X0.0250*%
%ADD226C,0.1750*%
%ADD227C,0.0472*%
%ADD228R,0.1141X0.0354*%
%ADD229R,0.0708X0.0157*%
%ADD230C,0.0620*%
%ADD231R,0.0720X0.0720*%
%ADD232C,0.0580*%
%ADD233R,0.0580X0.0580*%
%ADD234O,0.0250X0.0940*%
%ADD235R,0.0250X0.0940*%
%ADD236R,0.2000X0.6300*%
%ADD237O,0.0860X0.0250*%
%ADD238R,0.0860X0.0250*%
%ADD239R,0.0118X0.0315*%
%ADD240R,0.0315X0.0118*%
%ADD241C,0.0866*%
%ADD242R,0.0118X0.0512*%
%ADD243R,0.0708X0.0866*%
%ADD244C,0.0830*%
%ADD245C,0.0550*%
%ADD246R,0.0827X0.0551*%
%ADD247R,0.0551X0.0098*%
%ADD248R,0.0320X0.0380*%
%ADD249C,0.1000*%
%ADD250R,0.0620X0.0620*%
%ADD251C,0.1771*%
%ADD252O,0.0250X0.0860*%
%ADD253R,0.0250X0.0860*%
%ADD254O,0.0680X0.0118*%
%ADD255R,0.0680X0.0118*%
%ADD256C,0.0650*%
%ADD257C,0.0800*%
%ADD258O,0.0940X0.0160*%
%ADD259R,0.0940X0.0160*%
%ADD260C,0.0400*%
%ADD261R,0.0400X0.0400*%
%ADD262C,0.0420*%
%ADD263R,0.0420X0.0420*%
%ADD264C,0.0250*%
%ADD265C,0.0320*%
%ADD266C,0.0350*%
%ADD267C,0.1750*%
%ADD268C,0.0866*%
%ADD269THERMAL269*%
%ADD270C,0.0800*%
%ADD271C,0.0780*%
%ADD272R,0.0780X0.0780*%
%ADD273THERMAL273*%
%ADD274R,0.0800X0.0800*%
%ADD275THERMAL275*%
%ADD276THERMAL276*%
%ADD277C,0.0800*%
%ADD278THERMAL278*%
%ADD279THERMAL279*%
%ADD280C,0.0800*%
%ADD281THERMAL281*%
%ADD282THERMAL282*%
%ADD283C,0.1142*%
%ADD284C,0.0780*%
%ADD285R,0.0780X0.0780*%
%ADD286THERMAL286*%
%ADD287C,0.0750*%
%ADD288R,0.0800X0.0800*%
%ADD289C,0.2100*%
%ADD290C,0.0820*%
%ADD291R,0.0820X0.0820*%
%ADD292C,0.1700*%
%ADD293C,0.0850*%
%ADD294C,0.0750*%
%ADD295C,0.1260*%
%ADD296THERMAL296*%
%ADD297C,0.0650*%
%ADD298R,0.0650X0.0650*%
%ADD299C,0.0500*%
%ADD300C,0.0500*%
%ADD301C,0.0500*%
%ADD302THERMAL302*%
%ADD303C,0.0800*%
%ADD304C,0.1150*%
%ADD305C,0.1142*%
%ADD306C,0.0780*%
%ADD307R,0.0780X0.0780*%
%ADD308C,0.0750*%
%ADD309C,0.1500*%
%ADD310C,0.1750*%
%ADD311C,0.0820*%
%ADD312C,0.0650*%
%ADD313O,0.0787X0.0302*%
%ADD314O,0.0302X0.0787*%
%ADD315R,0.0302X0.0787*%
%ADD316O,0.0160X0.0700*%
%ADD317R,0.0160X0.0700*%
%ADD318R,0.0984X0.0984*%
%ADD319O,0.0118X0.0472*%
%ADD320O,0.0472X0.0118*%
%ADD321R,0.0472X0.0118*%
%ADD322R,0.1181X0.1575*%
%ADD323R,0.0220X0.0220*%
%ADD324R,0.1200X0.0800*%
%ADD325R,0.0800X0.1200*%
%ADD326C,0.1750*%
%ADD327C,0.0472*%
%ADD328R,0.0380X0.0320*%
%ADD329R,0.1417X0.0551*%
%ADD330C,0.0620*%
%ADD331R,0.0320X0.0380*%
%ADD332R,0.0560X0.0920*%
%ADD333C,0.0580*%
%ADD334R,0.0580X0.0580*%
%ADD335R,0.0720X0.0720*%
%ADD336R,0.0400X0.0560*%
%ADD337R,0.0480X0.0560*%
%ADD338O,0.0149X0.0409*%
%ADD339R,0.0149X0.0409*%
%ADD340C,0.0866*%
%ADD341C,0.0830*%
%ADD342C,0.0550*%
%ADD343R,0.0590X0.0236*%
%ADD344R,0.0708X0.0315*%
%ADD345R,0.0964X0.1102*%
%ADD346R,0.0315X0.0118*%
%ADD347R,0.0118X0.0315*%
%ADD348C,0.0200*%
%ADD349R,0.0200X0.0200*%
%ADD350C,0.1000*%
%ADD351R,0.0620X0.0620*%
%ADD352C,0.1771*%
%ADD353O,0.0860X0.0250*%
%ADD354R,0.0860X0.0250*%
%ADD355R,0.0472X0.1260*%
%ADD356C,0.0650*%
%ADD357C,0.0800*%
%ADD358R,0.1299X0.1220*%
%ADD359R,0.1476X0.0315*%
%ADD360O,0.0940X0.0250*%
%ADD361R,0.0940X0.0250*%
%ADD362O,0.0940X0.0160*%
%ADD363R,0.0940X0.0160*%
%ADD364O,0.0160X0.0900*%
%ADD365R,0.0160X0.0900*%
%ADD366O,0.0590X0.0110*%
%ADD367R,0.0590X0.0110*%
%ADD368O,0.0110X0.0590*%
%ADD369R,0.0110X0.0590*%
%ADD370C,0.0400*%
%ADD371R,0.0400X0.0400*%
%ADD372C,0.0420*%
%ADD373R,0.0420X0.0420*%
%ADD374O,0.0551X0.0122*%
%ADD375R,0.0551X0.0122*%
%ADD376O,0.0250X0.0940*%
%ADD377R,0.0250X0.0940*%
%ADD378R,0.0600X0.0600*%
%ADD379R,0.0640X0.1000*%
%ADD380R,0.1890X0.0748*%
%ADD381C,0.0250*%
%ADD382C,0.0250*%
%ADD383C,0.1750*%
%ADD384C,0.0866*%
%ADD385C,0.0500*%
%ADD386THERMAL386*%
%ADD387C,0.1750*%
%ADD388C,0.0866*%
%ADD389C,0.0800*%
%ADD390O,0.0787X0.0302*%
%ADD391O,0.0302X0.0787*%
%ADD392R,0.0302X0.0787*%
%ADD393O,0.0160X0.0700*%
%ADD394R,0.0160X0.0700*%
%ADD395R,0.0984X0.0984*%
%ADD396O,0.0118X0.0472*%
%ADD397O,0.0472X0.0118*%
%ADD398R,0.0472X0.0118*%
%ADD399R,0.1181X0.1575*%
%ADD400R,0.1200X0.0800*%
%ADD401R,0.0800X0.1200*%
%ADD402C,0.0470*%
%ADD403R,0.1417X0.0551*%
%ADD404R,0.0560X0.0920*%
%ADD405R,0.0400X0.0560*%
%ADD406R,0.0480X0.0560*%
%ADD407O,0.0149X0.0409*%
%ADD408R,0.0149X0.0409*%
%ADD409C,0.0870*%
%ADD410R,0.0590X0.0236*%
%ADD411R,0.0708X0.0315*%
%ADD412R,0.0964X0.1102*%
%ADD413R,0.0250X0.0250*%
%ADD414R,0.0472X0.1260*%
%ADD415R,0.1299X0.1220*%
%ADD416R,0.1476X0.0315*%
%ADD417O,0.0160X0.0900*%
%ADD418R,0.0160X0.0900*%
%ADD419O,0.0590X0.0110*%
%ADD420R,0.0590X0.0110*%
%ADD421O,0.0110X0.0590*%
%ADD422R,0.0110X0.0590*%
%ADD423O,0.0551X0.0122*%
%ADD424R,0.0551X0.0122*%
%ADD425R,0.0600X0.0600*%
%ADD426R,0.1890X0.0748*%
%ADD427R,0.1142X0.0354*%
%ADD428R,0.0098X0.0512*%
%ADD429C,0.0460*%
%ADD430C,0.0669*%
%ADD431C,0.1023*%
%ADD432C,0.1500*%
%ADD433O,0.0680X0.0118*%
%ADD434R,0.0680X0.0118*%
%ADD435C,0.0410*%
%ADD436R,0.0410X0.0410*%
%ADD437R,0.1181X0.0787*%
%ADD438C,0.0250*%
%ADD439C,0.0220*%
%ADD440C,0.0160*%
%ADD441C,0.0236*%
%ADD442C,0.0800*%
%ADD443C,0.0460*%
%ADD444O,0.0160X0.0315*%
%ADD445R,0.0160X0.0315*%
%ADD446C,0.0669*%
%ADD447C,0.1023*%
%ADD448C,0.1500*%
%ADD449C,0.0410*%
%ADD450R,0.0410X0.0410*%
%ADD451C,0.1750*%
%ADD452C,0.0866*%
%ADD453THERMAL453*%
%ADD454THERMAL454*%
%ADD455THERMAL455*%
%ADD456THERMAL456*%
%ADD457THERMAL457*%
%ADD458THERMAL458*%
%ADD459THERMAL459*%
%ADD460THERMAL460*%
%ADD461THERMAL461*%
%ADD462THERMAL462*%
%ADD463THERMAL463*%
%ADD464THERMAL464*%
%ADD465THERMAL465*%
%ADD466THERMAL466*%
%ADD467C,0.0500*%
%ADD468THERMAL468*%
%ADD469C,0.0800*%
%ADD470THERMAL470*%
%ADD471C,0.1650*%
%ADD472C,0.1142*%
%ADD473R,0.1000X0.0640*%
%ADD474R,0.1181X0.0787*%
%ADD475C,0.1260*%
%ADD476R,0.0680X0.0130*%
*
G04 Plot Data ***
*
G54D52*
G01X0018673Y0006007D02*
X0019173D01*
X0018673Y0006049D02*
Y0005799D01*
X0018840Y0005716D01*
X0019007D01*
X0019173Y0005799D01*
Y0006049D01*
X0018840Y0006291D02*
Y0006624D01*
X0018673Y0006291D02*
X0018923D01*
X0019173Y0006416D01*
Y0006499D01*
X0018923Y0006624D01*
X0018673D01*
X0018923Y0006949D02*
Y0007199D01*
X0018673Y0006866D02*
Y0007199D01*
X0019173D01*
Y0006866D01*
X0018923Y0007441D02*
Y0007774D01*
X0018673Y0007441D02*
X0019173D01*
X0018673Y0007774D02*
X0019173D01*
X0035453Y0014486D02*
X0035703Y0014736D01*
X0035953Y0014486D01*
Y0014819D02*
X0035453D01*
X0035537Y0015061D02*
X0035453Y0015102D01*
Y0015352D01*
X0035537Y0015394D01*
X0035870D01*
X0035953Y0015352D01*
Y0015102D01*
X0035870Y0015061D01*
X0035703Y0015719D02*
Y0015969D01*
X0035453Y0015636D02*
Y0015969D01*
X0035953D01*
Y0015636D01*
Y0016211D02*
X0035453D01*
X0035537Y0016294D01*
X0035870Y0016461D01*
X0035953Y0016544D01*
X0035453D01*
X-0003232Y0020255D02*
X-0003315Y0020297D01*
Y0020547D01*
X-0003232Y0020588D01*
X-0002898D01*
X-0002815Y0020547D01*
Y0020297D01*
X-0002898Y0020255D01*
X-0003315Y0021122D02*
X-0002815D01*
X-0003315Y0021163D02*
Y0020913D01*
X-0003148Y0020830D01*
X-0002982D01*
X-0002815Y0020913D01*
Y0021163D01*
Y0021405D02*
X-0002982D01*
X-0003315Y0021572D01*
X-0002982Y0021738D01*
X-0002815D01*
X-0002638Y0019927D02*
Y0020260D01*
X-0002305Y0019927D01*
X-0002222D01*
X-0002138Y0019968D01*
Y0020218D01*
X-0002222Y0020260D01*
X-0002638Y0020502D02*
Y0020668D01*
Y0020585D02*
X-0002138D01*
X-0002222Y0020668D01*
X-0002388Y0020993D02*
Y0021327D01*
Y0021610D02*
Y0021860D01*
X-0002305Y0021902D01*
X-0002222D01*
X-0002138Y0021860D01*
Y0021610D01*
X-0002222Y0021568D01*
X-0002305D01*
X-0002638Y0021735D01*
X-0003408Y0007433D02*
X-0003658Y0007308D01*
X-0003408Y0007642D02*
Y0007392D01*
X-0003325Y0007308D01*
X-0003242D01*
X-0003158Y0007392D01*
Y0007642D01*
X-0003658D01*
Y0008175D02*
X-0003575Y0008217D01*
X-0003242D01*
X-0003158Y0008175D01*
Y0007925D01*
X-0003242Y0007883D01*
X-0003575D01*
X-0003658Y0007925D01*
Y0008175D01*
Y0008625D02*
X-0003158D01*
Y0008458D02*
Y0008792D01*
X-0003658Y0009325D02*
X-0003575Y0009367D01*
X-0003242D01*
X-0003158Y0009325D01*
Y0009075D01*
X-0003242Y0009033D01*
X-0003575D01*
X-0003658Y0009075D01*
Y0009325D01*
Y0009608D02*
X-0003158D01*
X-0003242Y0009692D01*
X-0003408Y0009775D01*
X-0003242Y0009858D01*
X-0003158Y0009942D01*
X-0003658D01*
X0027520Y0002777D02*
Y0005296D01*
X0029095D01*
Y0002777D01*
X0027520D01*
X0009028Y0007054D02*
X0011547D01*
Y0005479D01*
X0009028D01*
Y0007054D01*
X0024972Y0012539D02*
X0024909D01*
Y0012477D01*
X0026909D02*
Y0012539D01*
X0026847D01*
Y0010539D02*
X0026909D01*
Y0010602D01*
X0024972Y0009977D02*
Y0010539D01*
X0024909Y0010602D01*
X0005789Y0023215D02*
X0010720D01*
Y0020853D01*
X0005789D01*
Y0023215D01*
X0036560Y0018890D02*
Y0017860D01*
X0038460D01*
Y0018890D01*
X0036560D01*
X0036890Y0018880D02*
Y0017860D01*
G54D55*
G01X0008060Y0006158D02*
X0007615D01*
X0008060Y0006602D01*
Y0006713D01*
X0008004Y0006824D01*
X0007671D01*
X0007615Y0006713D01*
X0006931Y0006158D02*
Y0006824D01*
X0006875Y0006158D02*
X0007209D01*
X0007320Y0006269D01*
Y0006380D01*
X0007264Y0006491D01*
X0006931D02*
X0007264D01*
X0007320Y0006602D01*
Y0006713D01*
X0007209Y0006824D01*
X0006875D01*
X0006580Y0005935D02*
X0006135D01*
X0005618Y0006158D02*
Y0006824D01*
X0005840D02*
X0005395D01*
X0004711Y0006158D02*
X0004655Y0006269D01*
Y0006713D01*
X0004711Y0006824D01*
X0005044D01*
X0005100Y0006713D01*
Y0006269D01*
X0005044Y0006158D01*
X0004711D01*
X0003971D02*
Y0006824D01*
X0003915Y0006158D02*
X0004249D01*
X0004360Y0006269D01*
Y0006380D01*
X0004304Y0006491D01*
X0003971D02*
X0004304D01*
X0004360Y0006602D01*
Y0006713D01*
X0004249Y0006824D01*
X0003915D01*
X0003231Y0006158D02*
X0003175Y0006269D01*
Y0006713D01*
X0003231Y0006824D01*
X0003564D01*
X0003620Y0006713D01*
Y0006269D01*
X0003564Y0006158D01*
X0003231D01*
X0002658Y0006491D02*
X0002880D01*
Y0006269D01*
X0002824Y0006158D01*
X0002491D01*
X0002435Y0006269D01*
Y0006713D01*
X0002491Y0006824D01*
X0002824D01*
X0002880Y0006713D01*
X0002140Y0006380D02*
X0001695D01*
X0002140Y0006158D02*
Y0006491D01*
X0001973Y0006824D01*
X0001862D01*
X0001695Y0006491D01*
Y0006158D01*
X0001233Y0006491D02*
X0001400Y0006158D01*
X0000955Y0006491D02*
X0001289D01*
X0001400Y0006602D01*
Y0006713D01*
X0001289Y0006824D01*
X0000955D01*
Y0006158D01*
G54D58*
G01X0037641Y0008013D02*
X0037697Y0007957D01*
X0037808D01*
X0037863Y0008013D01*
Y0008069D01*
X0037752Y0008180D01*
X0037863Y0008291D01*
X0037641D01*
X0037453Y0007957D02*
X0037342D01*
X0037398D02*
Y0008291D01*
X0037342Y0008235D01*
X0037099Y0008291D02*
Y0008013D01*
X0037071Y0007957D01*
X0036904D01*
X0036877Y0008013D01*
Y0008291D01*
X0041164Y0019492D02*
Y0019603D01*
Y0019548D02*
X0041497D01*
X0041442Y0019603D01*
X0003207Y0021724D02*
X0003263Y0021780D01*
X0003319Y0021808D01*
X0003430D01*
X0003485Y0021780D01*
X0003541Y0021724D01*
Y0021669D01*
X0003485Y0021613D01*
X0003430Y0021585D01*
X0003319D01*
X0003263Y0021613D01*
X0003207Y0021669D01*
Y0021724D01*
X0003263Y0022218D02*
X0003207Y0022162D01*
Y0022051D01*
X0003263Y0021995D01*
X0003319D01*
X0003430Y0022107D01*
X0003541Y0021995D01*
Y0022218D01*
X0003207Y0022600D02*
X0003541D01*
X0003207Y0022628D02*
Y0022461D01*
X0003319Y0022405D01*
X0003430D01*
X0003541Y0022461D01*
Y0022628D01*
X0019644Y0015687D02*
Y0015776D01*
Y0015731D02*
X0019911D01*
X0019866Y0015776D01*
X0019644Y0016002D02*
Y0016158D01*
X0019911D01*
X0019555Y0016340D02*
Y0016518D01*
X0019778Y0016767D02*
X0019644Y0016700D01*
X0019778Y0016878D02*
Y0016744D01*
X0019822Y0016700D01*
X0019866D01*
X0019911Y0016744D01*
Y0016878D01*
X0019644D01*
X0019911Y0017060D02*
X0019822D01*
X0019644Y0017149D01*
X0019822Y0017238D01*
X0019911D01*
X0004388Y0004709D02*
X0004221D01*
X0004194Y0004764D01*
Y0004875D01*
X0004221Y0004931D01*
X0004388D01*
X0004416Y0004875D01*
Y0004820D01*
X0004194D01*
X0003978Y0004709D02*
X0003811D01*
X0003784Y0004764D01*
Y0004875D01*
X0003811Y0004931D01*
X0003978D01*
X0004006Y0004875D01*
Y0004820D01*
X0003784D01*
X0003596Y0004709D02*
X0003402D01*
Y0005042D01*
X0002679D02*
Y0004709D01*
X0002512D01*
X0002484Y0004764D01*
Y0004875D01*
X0002512Y0004931D01*
X0002679D01*
X0002241Y0005042D02*
X0002297Y0004709D02*
X0002185D01*
X0002241D02*
Y0004931D01*
X0002185D01*
X0001970D02*
X0001859Y0004709D01*
X0001748Y0004931D01*
X0001393D02*
X0001504D01*
X0001532Y0004875D01*
Y0004764D01*
X0001560Y0004709D01*
X0001365D01*
X0001338Y0004764D01*
X0001365Y0004820D01*
X0001532D01*
X0000955Y0004709D02*
Y0005042D01*
X0000928Y0004709D02*
X0001094D01*
X0001150Y0004820D01*
Y0004931D01*
X0001094Y0005042D01*
X0000928D01*
X0007529Y0005289D02*
Y0005455D01*
X0007501Y0005511D01*
X0007335D01*
Y0005289D01*
X0006980Y0005511D02*
X0007091D01*
X0007119Y0005455D01*
Y0005344D01*
X0007147Y0005289D01*
X0006952D01*
X0006925Y0005344D01*
X0006952Y0005400D01*
X0007119D01*
X0006626Y0005289D02*
Y0005455D01*
X0006737Y0005289D02*
Y0005455D01*
X0006709Y0005511D01*
X0006653D01*
X0006626Y0005455D01*
X0006598Y0005511D01*
X0006542D01*
X0006515Y0005455D01*
Y0005289D01*
X0006327Y0005622D02*
Y0005289D01*
X0006160D01*
X0006132Y0005344D01*
Y0005455D01*
X0006160Y0005511D01*
X0006327D01*
X0005917Y0005289D02*
X0005750D01*
X0005722Y0005344D01*
Y0005455D01*
X0005750Y0005511D01*
X0005917D01*
X0005945Y0005455D01*
Y0005400D01*
X0005722D01*
X0005479Y0005622D02*
X0005535Y0005289D02*
X0005423D01*
X0005479D02*
Y0005511D01*
X0005423D01*
X0005208D02*
X0005097D01*
X0005069Y0005455D01*
X0005014D01*
Y0005511D02*
Y0005289D01*
X0004770Y0005455D02*
X0004604D01*
Y0005289D02*
Y0005622D01*
X0004826D01*
X0003881Y0005289D02*
Y0005455D01*
X0003853Y0005511D01*
X0003686D01*
Y0005289D01*
X0003332Y0005511D02*
X0003443D01*
X0003471Y0005455D01*
Y0005344D01*
X0003499Y0005289D01*
X0003304D01*
X0003276Y0005344D01*
X0003304Y0005400D01*
X0003471D01*
X0003089Y0005289D02*
Y0005455D01*
X0003061Y0005511D01*
X0002894D01*
Y0005289D02*
Y0005622D01*
X0002679Y0005511D02*
X0002512D01*
X0002706Y0005289D02*
X0002595D01*
X0002568Y0005344D01*
Y0005622D01*
X0002158Y0005511D02*
X0002269D01*
X0002296Y0005455D01*
Y0005344D01*
X0002324Y0005289D01*
X0002130D01*
X0002102Y0005344D01*
X0002130Y0005400D01*
X0002296D01*
X0001914Y0005289D02*
Y0005455D01*
X0001887Y0005511D01*
X0001720D01*
Y0005289D01*
X0001338D02*
X0001310Y0005344D01*
Y0005455D01*
X0001338Y0005511D01*
X0001504D01*
X0001532Y0005455D01*
Y0005344D01*
X0001504Y0005289D01*
X0001338D01*
X0000928Y0005400D02*
Y0005344D01*
X0000955Y0005289D01*
X0001067D01*
X0001094Y0005344D01*
Y0005622D01*
X0001122D02*
X0001011D01*
X0005690Y0001425D02*
Y0001591D01*
X0005524Y0001369D02*
Y0001591D01*
X0005857D01*
Y0001369D01*
X0005690Y0001890D02*
Y0001779D01*
X0005579D01*
X0005524Y0001807D01*
Y0001974D01*
X0005579Y0002001D01*
X0005802D01*
X0005857Y0001974D01*
Y0001807D01*
X0005802Y0001779D01*
X0005524Y0002384D02*
X0005857D01*
X0005524Y0002411D02*
Y0002245D01*
X0005635Y0002189D01*
X0005746D01*
X0005857Y0002245D01*
Y0002411D01*
X0005635Y0002599D02*
Y0002821D01*
X0005524Y0002599D02*
X0005690D01*
X0005857Y0002682D01*
Y0002738D01*
X0005690Y0002821D01*
X0005524D01*
Y0003204D02*
X0005857D01*
X0005524Y0003231D02*
Y0003065D01*
X0005579Y0003009D01*
X0005635D01*
X0005690Y0003037D01*
Y0003204D02*
Y0003037D01*
X0005746Y0003009D01*
X0005802D01*
X0005857Y0003065D01*
Y0003231D01*
Y0003475D02*
Y0003474D01*
Y0003475D01*
X0005524Y0003419D02*
Y0003530D01*
Y0003475D02*
X0005746D01*
Y0003530D01*
X0007791Y0000369D02*
X0007458D01*
X0007513Y0000424D01*
X0007735Y0000535D01*
X0007791Y0000591D01*
X0007458D01*
X0007569Y0000779D02*
Y0001001D01*
X0007458Y0000779D02*
X0007624D01*
X0007791Y0000862D01*
Y0000918D01*
X0007624Y0001001D01*
X0007458D01*
Y0001189D02*
X0007791D01*
X0007735Y0001244D01*
X0007624Y0001300D01*
X0007735Y0001355D01*
X0007791Y0001411D01*
X0007458D01*
X0007624Y0001682D02*
X0007458Y0001599D01*
X0007624Y0001821D02*
Y0001654D01*
X0007680Y0001599D01*
X0007735D01*
X0007791Y0001654D01*
Y0001821D01*
X0007458D01*
Y0002009D02*
Y0002120D01*
Y0002064D02*
X0007791D01*
Y0002009D02*
Y0002120D01*
X0007458Y0002419D02*
Y0002363D01*
X0007513D01*
Y0002419D01*
X0007458D01*
Y0002801D02*
X0007513Y0002856D01*
X0007569Y0002884D01*
X0007680D01*
X0007735Y0002856D01*
X0007791Y0002801D01*
Y0002745D01*
X0007735Y0002690D01*
X0007680Y0002662D01*
X0007569D01*
X0007513Y0002690D01*
X0007458Y0002745D01*
Y0002801D01*
Y0003211D02*
X0007513Y0003266D01*
X0007569Y0003294D01*
X0007680D01*
X0007735Y0003266D01*
X0007791Y0003211D01*
Y0003155D01*
X0007735Y0003100D01*
X0007680Y0003072D01*
X0007569D01*
X0007513Y0003100D01*
X0007458Y0003155D01*
Y0003211D01*
Y0003482D02*
Y0003704D01*
X0007680Y0003482D01*
X0007735D01*
X0007791Y0003510D01*
Y0003676D01*
X0007735Y0003704D01*
X0007458Y0003892D02*
X0007624Y0004059D01*
X0007791Y0003892D01*
Y0004114D02*
X0007458D01*
Y0004413D02*
X0007791D01*
Y0004302D02*
Y0004524D01*
X0007735Y0004712D02*
X0007791Y0004740D01*
Y0004906D01*
X0007735Y0004934D01*
X0007680D01*
X0007624Y0004906D01*
Y0004740D01*
X0007569Y0004712D01*
X0007513D01*
X0007458Y0004740D01*
Y0004906D01*
X0007513Y0004934D01*
X0019341Y0018449D02*
X0019008D01*
X0019063Y0018504D01*
X0019285Y0018615D01*
X0019341Y0018671D01*
X0019008D01*
Y0018859D02*
Y0018970D01*
Y0018914D02*
X0019341D01*
Y0018859D02*
Y0018970D01*
X0019119Y0019213D02*
Y0019435D01*
X0019008Y0019213D02*
X0019174D01*
X0019341Y0019296D01*
Y0019352D01*
X0019174Y0019435D01*
X0019008D01*
X0019174Y0019706D02*
X0019008Y0019623D01*
X0019174Y0019845D02*
Y0019679D01*
X0019230Y0019623D01*
X0019285D01*
X0019341Y0019679D01*
Y0019845D01*
X0019008D01*
Y0020228D02*
X0019341D01*
X0019008Y0020255D02*
Y0020089D01*
X0019063Y0020033D01*
X0019119D01*
X0019174Y0020061D01*
Y0020228D02*
Y0020061D01*
X0019230Y0020033D01*
X0019285D01*
X0019341Y0020089D01*
Y0020255D01*
X0019008Y0020499D02*
Y0020443D01*
X0019063D01*
Y0020499D01*
X0019008D01*
Y0020881D02*
X0019063Y0020936D01*
X0019119Y0020964D01*
X0019230D01*
X0019285Y0020936D01*
X0019341Y0020881D01*
Y0020825D01*
X0019285Y0020770D01*
X0019230Y0020742D01*
X0019119D01*
X0019063Y0020770D01*
X0019008Y0020825D01*
Y0020881D01*
Y0021291D02*
X0019063Y0021346D01*
X0019119Y0021374D01*
X0019230D01*
X0019285Y0021346D01*
X0019341Y0021291D01*
Y0021235D01*
X0019285Y0021180D01*
X0019230Y0021152D01*
X0019119D01*
X0019063Y0021180D01*
X0019008Y0021235D01*
Y0021291D01*
Y0021562D02*
Y0021784D01*
X0019230Y0021562D01*
X0019285D01*
X0019341Y0021590D01*
Y0021756D01*
X0019285Y0021784D01*
X0019008Y0021972D02*
X0019174Y0022139D01*
X0019341Y0021972D01*
Y0022194D02*
X0019008D01*
Y0022493D02*
X0019341D01*
Y0022382D02*
Y0022604D01*
X0019285Y0022792D02*
X0019341Y0022820D01*
Y0022986D01*
X0019285Y0023014D01*
X0019230D01*
X0019174Y0022986D01*
Y0022820D01*
X0019119Y0022792D01*
X0019063D01*
X0019008Y0022820D01*
Y0022986D01*
X0019063Y0023014D01*
X-0003857Y0020180D02*
X-0003523D01*
Y0020069D02*
Y0020291D01*
Y0020479D02*
X-0003801D01*
X-0003857Y0020507D01*
Y0020673D01*
X-0003801Y0020701D01*
X-0003523D01*
X-0003690Y0021111D02*
Y0020944D01*
X-0003634Y0020889D01*
X-0003579D01*
X-0003523Y0020944D01*
Y0021111D01*
X-0003857D01*
X-0003523Y0021299D02*
X-0003857D01*
X-0003801Y0021354D01*
X-0003579Y0021465D01*
X-0003523Y0021521D01*
X-0003857D01*
Y0021709D02*
Y0021820D01*
Y0021764D02*
X-0003523D01*
Y0021709D02*
Y0021820D01*
X0006362Y0004574D02*
Y0004685D01*
Y0004630D02*
X0006696D01*
X0006640Y0004685D01*
X0006454Y0000099D02*
Y0000321D01*
X0006676Y0000210D01*
Y0000154D01*
X0006342D01*
X0027290Y0005148D02*
Y0005036D01*
Y0005092D02*
X0026956D01*
X0027012Y0005036D01*
Y0004793D02*
X0026956Y0004765D01*
Y0004599D01*
X0027012Y0004571D01*
X0027068D01*
X0027123Y0004599D01*
Y0004765D01*
X0027179Y0004793D01*
X0027234D01*
X0027290Y0004765D01*
Y0004599D01*
X0027234Y0004571D01*
X0026956Y0004383D02*
X0027234D01*
X0027290Y0004355D01*
Y0004189D01*
X0027234Y0004161D01*
X0026956D01*
X0010009Y0007398D02*
X0009717D01*
Y0007898D01*
X0009516Y0007815D02*
X0009474Y0007898D01*
X0009224D01*
X0009182Y0007815D01*
Y0007732D01*
X0009224Y0007648D01*
X0009474D01*
X0009516Y0007565D01*
Y0007482D01*
X0009474Y0007398D01*
X0009224D01*
X0009182Y0007482D01*
X0008897Y0007648D02*
X0008647D01*
X0008981Y0007398D02*
X0008647D01*
Y0007898D01*
X0008981D01*
X0008446D02*
Y0007398D01*
X0008362Y0007482D01*
X0008196Y0007815D01*
X0008112Y0007898D01*
Y0007398D01*
X0007188Y0007565D02*
X0006855D01*
X0007188Y0007398D02*
Y0007648D01*
X0007063Y0007898D01*
X0006980D01*
X0006855Y0007648D01*
Y0007398D01*
X0006653D02*
X0006362D01*
Y0007898D01*
X0006160Y0007482D02*
X0006118Y0007398D01*
X0005868D01*
X0005827Y0007482D01*
Y0007815D01*
X0005868Y0007898D01*
X0006118D01*
X0006160Y0007815D01*
X0005625Y0007898D02*
Y0007482D01*
X0005583Y0007398D01*
X0005333D01*
X0005292Y0007482D01*
Y0007898D01*
X0030290Y0012265D02*
X0030422Y0012527D01*
X0030247D01*
X0030065Y0012265D02*
X0029977D01*
X0030021D02*
Y0012527D01*
X0029977Y0012484D01*
X0030280Y0008299D02*
X0030324Y0008256D01*
X0030412D01*
X0030455Y0008299D01*
Y0008343D01*
X0030368Y0008431D01*
X0030455Y0008518D01*
X0030280D01*
X0029923Y0008299D02*
X0029967Y0008256D01*
X0030055D01*
X0030098Y0008299D01*
Y0008343D01*
X0030011Y0008431D01*
X0030098Y0008518D01*
X0029923D01*
X0035239Y0008340D02*
X0035064D01*
X0035152Y0008515D01*
X0035195D01*
Y0008253D01*
X0034707Y0008297D02*
X0034751Y0008253D01*
X0034839D01*
X0034882Y0008297D01*
Y0008340D01*
X0034795Y0008428D01*
X0034882Y0008515D01*
X0034707D01*
X0030775Y0016742D02*
X0030687D01*
X0030731D02*
Y0017005D01*
X0030687Y0016961D01*
X0030377Y0014415D02*
X0030245D01*
X0030223Y0014459D01*
Y0014502D01*
X0030245Y0014546D01*
X0030377D01*
X0030398Y0014502D01*
Y0014459D01*
X0030311Y0014284D01*
X0034452Y0016780D02*
X0034277D01*
X0034452Y0016955D01*
Y0016999D01*
X0034430Y0017042D01*
X0034299D01*
X0034277Y0016999D01*
X0035056Y0014279D02*
X0035012Y0014323D01*
X0034990Y0014367D01*
Y0014454D01*
X0035012Y0014498D01*
X0035056Y0014542D01*
X0035100D01*
X0035143Y0014498D01*
X0035165Y0014454D01*
Y0014367D01*
X0035143Y0014323D01*
X0035100Y0014279D01*
X0035056D01*
X0034809D02*
X0034721D01*
X0034765D02*
Y0014542D01*
X0034721Y0014498D01*
X0035153Y0012427D02*
X0035175Y0012471D01*
Y0012515D01*
X0035153Y0012559D01*
X0035022D01*
X0035000Y0012515D01*
Y0012471D01*
X0035022Y0012427D01*
X0035153D01*
X0035175Y0012384D01*
Y0012340D01*
X0035153Y0012296D01*
X0035022D01*
X0035000Y0012340D01*
Y0012384D01*
X0035022Y0012427D01*
X0034819Y0012296D02*
X0034731D01*
X0034775D02*
Y0012559D01*
X0034731Y0012515D01*
X0030260Y0010316D02*
X0030282Y0010272D01*
X0030413D01*
X0030435Y0010316D01*
Y0010403D01*
X0030392Y0010447D01*
X0030260D01*
Y0010535D01*
X0030435D01*
X0030078Y0010272D02*
X0029903D01*
X0030078Y0010447D01*
Y0010491D01*
X0030057Y0010535D01*
X0029925D01*
X0029903Y0010491D01*
X0035096Y0010402D02*
X0035227D01*
X0035249Y0010358D01*
Y0010315D01*
X0035227Y0010271D01*
X0035096D01*
X0035074Y0010315D01*
Y0010358D01*
X0035162Y0010533D01*
X0034892Y0010271D02*
X0034717D01*
X0034892Y0010446D01*
Y0010489D01*
X0034870Y0010533D01*
X0034739D01*
X0034717Y0010489D01*
X0007010Y0000410D02*
X0006010D01*
Y0004410D01*
X0007010D01*
Y0000410D01*
X0036840Y0007550D02*
X0038280D01*
Y0007790D02*
X0036840D01*
Y0005790D01*
X0038280D01*
Y0007790D01*
X0014190Y0015735D02*
X0012190D01*
Y0016485D01*
X0014190D01*
Y0015735D01*
X0013940Y0016485D02*
Y0015735D01*
X0010860Y0018110D02*
Y0023240D01*
X0018860D01*
Y0018110D01*
X0010860D01*
X0027035Y0019870D02*
Y0017370D01*
X0027785D01*
Y0019870D01*
X0027035D01*
Y0019620D02*
X0027785D01*
X0020565Y0007450D02*
Y0003450D01*
X0021315D01*
Y0007450D01*
X0020565D01*
Y0007200D02*
X0021315D01*
X0021555Y0009850D02*
Y0012350D01*
X0020805D01*
Y0009850D01*
X0021555D01*
Y0010100D02*
X0020805D01*
X0016020Y0005170D02*
Y0000040D01*
X0008020D01*
Y0005170D01*
X0016020D01*
X0012030Y0007490D02*
X0013030D01*
Y0005490D01*
X0012030D01*
Y0007490D01*
X0045210Y0006650D02*
Y0016650D01*
X0047210D01*
Y0006650D01*
X0045210D01*
X0045710D02*
Y0006900D01*
X0046710D01*
Y0006650D01*
X0036840Y0002090D02*
X0038280D01*
Y0002330D02*
X0036840D01*
Y0000330D01*
X0038280D01*
Y0002330D01*
X0042460Y0006040D02*
X0041020D01*
Y0005800D02*
X0042460D01*
Y0007800D01*
X0041020D01*
Y0005800D01*
X0036840Y0004840D02*
X0038280D01*
Y0005080D02*
X0036840D01*
Y0003080D01*
X0038280D01*
Y0005080D01*
X0032225Y0001570D02*
Y0003570D01*
X0032975D01*
Y0001570D01*
X0032225D01*
X0032975Y0001820D02*
X0032225D01*
X0026930Y0023250D02*
Y0020120D01*
X0033880D01*
Y0023250D01*
X0026930D01*
X0014840Y0011275D02*
X0016840D01*
Y0010525D01*
X0014840D01*
Y0011275D01*
X0015090Y0010525D02*
Y0011275D01*
X0037265Y0016060D02*
Y0013560D01*
X0038015D01*
Y0016060D01*
X0037265D01*
Y0015810D02*
X0038015D01*
X0036840Y0010350D02*
X0038280D01*
Y0010590D02*
X0036840D01*
Y0008590D01*
X0038280D01*
Y0010590D01*
G54D59*
G01X0039090Y0011830D02*
X0039230D01*
Y0011630D01*
X0039090D01*
Y0011830D01*
G54D62*
G01X0001282Y0003856D02*
X0000652D01*
Y0002321D01*
X0001282D02*
X0000652D01*
X0001282Y0003856D02*
Y0002321D01*
X0001268Y0003856D02*
Y0002321D01*
X0001259Y0003856D02*
Y0002321D01*
X0001250Y0003856D02*
Y0002321D01*
X0001241Y0003856D02*
Y0002321D01*
X0001232Y0003856D02*
Y0002321D01*
X0001223Y0003856D02*
Y0002321D01*
X0001214Y0003856D02*
Y0002321D01*
X0001205Y0003856D02*
Y0002321D01*
X0001196Y0003856D02*
Y0002321D01*
X0001187Y0003856D02*
Y0002321D01*
X0001178Y0003856D02*
Y0002321D01*
X0001169Y0003856D02*
Y0002321D01*
X0001160Y0003856D02*
Y0002321D01*
X0001151Y0003856D02*
Y0002321D01*
X0001142Y0003856D02*
Y0002321D01*
X0001133Y0003856D02*
Y0002321D01*
X0001124Y0003856D02*
Y0002321D01*
X0001115Y0003856D02*
Y0002321D01*
X0001106Y0003856D02*
Y0002321D01*
X0001097Y0003856D02*
Y0002321D01*
X0001088Y0003856D02*
Y0002321D01*
X0001079Y0003856D02*
Y0002321D01*
X0001070Y0003856D02*
Y0002321D01*
X0001061Y0003856D02*
Y0002321D01*
X0001052Y0003856D02*
Y0002321D01*
X0001043Y0003856D02*
Y0002321D01*
X0001034Y0003856D02*
Y0002321D01*
X0001025Y0003856D02*
Y0002321D01*
X0001016Y0003856D02*
Y0002321D01*
X0001007Y0003856D02*
Y0002321D01*
X0000998Y0003856D02*
Y0002321D01*
X0000989Y0003856D02*
Y0002321D01*
X0000980Y0003856D02*
Y0002321D01*
X0000971Y0003856D02*
Y0002321D01*
X0000962Y0003856D02*
Y0002321D01*
X0000953Y0003856D02*
Y0002321D01*
X0000944Y0003856D02*
Y0002321D01*
X0000935Y0003856D02*
Y0002321D01*
X0000926Y0003856D02*
Y0002321D01*
X0000917Y0003856D02*
Y0002321D01*
X0000908Y0003856D02*
Y0002321D01*
X0000899Y0003856D02*
Y0002321D01*
X0000890Y0003856D02*
Y0002321D01*
X0000881Y0003856D02*
Y0002321D01*
X0000872Y0003856D02*
Y0002321D01*
X0000863Y0003856D02*
Y0002321D01*
X0000854Y0003856D02*
Y0002321D01*
X0000845Y0003856D02*
Y0002321D01*
X0000836Y0003856D02*
Y0002321D01*
X0000827Y0003856D02*
Y0002321D01*
X0000818Y0003856D02*
Y0002321D01*
X0000809Y0003856D02*
Y0002321D01*
X0000800Y0003856D02*
Y0002321D01*
X0000791Y0003856D02*
Y0002321D01*
X0000782Y0003856D02*
Y0002321D01*
X0000773Y0003856D02*
Y0002321D01*
X0000764Y0003856D02*
Y0002321D01*
X0000755Y0003856D02*
Y0002321D01*
X0000746Y0003856D02*
Y0002321D01*
X0000737Y0003856D02*
Y0002321D01*
X0000728Y0003856D02*
Y0002321D01*
X0000719Y0003856D02*
Y0002321D01*
X0000710Y0003856D02*
Y0002321D01*
X0000701Y0003856D02*
Y0002321D01*
X0000692Y0003856D02*
Y0002321D01*
X0000683Y0003856D02*
Y0002321D01*
X0000674Y0003856D02*
Y0002321D01*
X0000665Y0003856D02*
Y0002321D01*
X0001282Y0003846D02*
X0000652D01*
X0001282Y0003837D02*
X0000652D01*
X0001282Y0003828D02*
X0000652D01*
X0001282Y0003819D02*
X0000652D01*
X0001282Y0003810D02*
X0000652D01*
X0001282Y0003801D02*
X0000652D01*
X0001282Y0003792D02*
X0000652D01*
X0001282Y0003783D02*
X0000652D01*
X0001282Y0003774D02*
X0000652D01*
X0001282Y0003765D02*
X0000652D01*
X0001282Y0003756D02*
X0000652D01*
X0001282Y0003747D02*
X0000652D01*
X0001282Y0003738D02*
X0000652D01*
X0001282Y0003729D02*
X0000652D01*
X0001282Y0003720D02*
X0000652D01*
X0001282Y0003711D02*
X0000652D01*
X0001282Y0003702D02*
X0000652D01*
X0001282Y0003693D02*
X0000652D01*
X0001282Y0003684D02*
X0000652D01*
X0001282Y0003675D02*
X0000652D01*
X0001282Y0003666D02*
X0000652D01*
X0001282Y0003657D02*
X0000652D01*
X0001282Y0003648D02*
X0000652D01*
X0001282Y0003639D02*
X0000652D01*
X0001282Y0003630D02*
X0000652D01*
X0001282Y0003621D02*
X0000652D01*
X0001282Y0003612D02*
X0000652D01*
X0001282Y0003603D02*
X0000652D01*
X0001282Y0003594D02*
X0000652D01*
X0001282Y0003585D02*
X0000652D01*
X0001282Y0003576D02*
X0000652D01*
X0001282Y0003567D02*
X0000652D01*
X0001282Y0003558D02*
X0000652D01*
X0001282Y0003549D02*
X0000652D01*
X0001282Y0003540D02*
X0000652D01*
X0001282Y0003531D02*
X0000652D01*
X0001282Y0003522D02*
X0000652D01*
X0001282Y0003513D02*
X0000652D01*
X0001282Y0003504D02*
X0000652D01*
X0001282Y0003495D02*
X0000652D01*
X0001282Y0003486D02*
X0000652D01*
X0001282Y0003477D02*
X0000652D01*
X0001282Y0003468D02*
X0000652D01*
X0001282Y0003459D02*
X0000652D01*
X0001282Y0003450D02*
X0000652D01*
X0001282Y0003441D02*
X0000652D01*
X0001282Y0003432D02*
X0000652D01*
X0001282Y0003423D02*
X0000652D01*
X0001282Y0003414D02*
X0000652D01*
X0001282Y0003405D02*
X0000652D01*
X0001282Y0003396D02*
X0000652D01*
X0001282Y0003387D02*
X0000652D01*
X0001282Y0003378D02*
X0000652D01*
X0001282Y0003369D02*
X0000652D01*
X0001282Y0003360D02*
X0000652D01*
X0001282Y0003351D02*
X0000652D01*
X0001282Y0003342D02*
X0000652D01*
X0001282Y0003333D02*
X0000652D01*
X0001282Y0003324D02*
X0000652D01*
X0001282Y0003315D02*
X0000652D01*
X0001282Y0003306D02*
X0000652D01*
X0001282Y0003297D02*
X0000652D01*
X0001282Y0003288D02*
X0000652D01*
X0001282Y0003279D02*
X0000652D01*
X0001282Y0003270D02*
X0000652D01*
X0001282Y0003261D02*
X0000652D01*
X0001282Y0003252D02*
X0000652D01*
X0001282Y0003243D02*
X0000652D01*
X0001282Y0003234D02*
X0000652D01*
X0001282Y0003225D02*
X0000652D01*
X0001282Y0003216D02*
X0000652D01*
X0001282Y0003207D02*
X0000652D01*
X0001282Y0003198D02*
X0000652D01*
X0001282Y0003189D02*
X0000652D01*
X0001282Y0003180D02*
X0000652D01*
X0001282Y0003171D02*
X0000652D01*
X0001282Y0003162D02*
X0000652D01*
X0001282Y0003153D02*
X0000652D01*
X0001282Y0003144D02*
X0000652D01*
X0001282Y0003135D02*
X0000652D01*
X0001282Y0003126D02*
X0000652D01*
X0001282Y0003117D02*
X0000652D01*
X0001282Y0003108D02*
X0000652D01*
X0001282Y0003099D02*
X0000652D01*
X0001282Y0003090D02*
X0000652D01*
X0001282Y0003081D02*
X0000652D01*
X0001282Y0003072D02*
X0000652D01*
X0001282Y0003063D02*
X0000652D01*
X0001282Y0003054D02*
X0000652D01*
X0001282Y0003045D02*
X0000652D01*
X0001282Y0003036D02*
X0000652D01*
X0001282Y0003027D02*
X0000652D01*
X0001282Y0003018D02*
X0000652D01*
X0001282Y0003009D02*
X0000652D01*
X0001282Y0003000D02*
X0000652D01*
X0001282Y0002991D02*
X0000652D01*
X0001282Y0002982D02*
X0000652D01*
X0001282Y0002973D02*
X0000652D01*
X0001282Y0002964D02*
X0000652D01*
X0001282Y0002955D02*
X0000652D01*
X0001282Y0002946D02*
X0000652D01*
X0001282Y0002937D02*
X0000652D01*
X0001282Y0002928D02*
X0000652D01*
X0001282Y0002919D02*
X0000652D01*
X0001282Y0002910D02*
X0000652D01*
X0001282Y0002901D02*
X0000652D01*
X0001282Y0002892D02*
X0000652D01*
X0001282Y0002883D02*
X0000652D01*
X0001282Y0002874D02*
X0000652D01*
X0001282Y0002865D02*
X0000652D01*
X0001282Y0002856D02*
X0000652D01*
X0001282Y0002847D02*
X0000652D01*
X0001282Y0002838D02*
X0000652D01*
X0001282Y0002829D02*
X0000652D01*
X0001282Y0002820D02*
X0000652D01*
X0001282Y0002811D02*
X0000652D01*
X0001282Y0002802D02*
X0000652D01*
X0001282Y0002793D02*
X0000652D01*
X0001282Y0002784D02*
X0000652D01*
X0001282Y0002775D02*
X0000652D01*
X0001282Y0002766D02*
X0000652D01*
X0001282Y0002757D02*
X0000652D01*
X0001282Y0002748D02*
X0000652D01*
X0001282Y0002739D02*
X0000652D01*
X0001282Y0002730D02*
X0000652D01*
X0001282Y0002721D02*
X0000652D01*
X0001282Y0002712D02*
X0000652D01*
X0001282Y0002703D02*
X0000652D01*
X0001282Y0002694D02*
X0000652D01*
X0001282Y0002685D02*
X0000652D01*
X0001282Y0002676D02*
X0000652D01*
X0001282Y0002667D02*
X0000652D01*
X0001282Y0002658D02*
X0000652D01*
X0001282Y0002649D02*
X0000652D01*
X0001282Y0002640D02*
X0000652D01*
X0001282Y0002631D02*
X0000652D01*
X0001282Y0002622D02*
X0000652D01*
X0001282Y0002613D02*
X0000652D01*
X0001282Y0002604D02*
X0000652D01*
X0001282Y0002595D02*
X0000652D01*
X0001282Y0002586D02*
X0000652D01*
X0001282Y0002577D02*
X0000652D01*
X0001282Y0002568D02*
X0000652D01*
X0001282Y0002559D02*
X0000652D01*
X0001282Y0002550D02*
X0000652D01*
X0001282Y0002541D02*
X0000652D01*
X0001282Y0002532D02*
X0000652D01*
X0001282Y0002523D02*
X0000652D01*
X0001282Y0002514D02*
X0000652D01*
X0001282Y0002505D02*
X0000652D01*
X0001282Y0002496D02*
X0000652D01*
X0001282Y0002487D02*
X0000652D01*
X0001282Y0002478D02*
X0000652D01*
X0001282Y0002469D02*
X0000652D01*
X0001282Y0002460D02*
X0000652D01*
X0001282Y0002451D02*
X0000652D01*
X0001282Y0002442D02*
X0000652D01*
X0001282Y0002433D02*
X0000652D01*
X0001282Y0002424D02*
X0000652D01*
X0001282Y0002415D02*
X0000652D01*
X0001282Y0002406D02*
X0000652D01*
X0001282Y0002397D02*
X0000652D01*
X0001282Y0002388D02*
X0000652D01*
X0001282Y0002379D02*
X0000652D01*
X0001282Y0002370D02*
X0000652D01*
X0001282Y0002361D02*
X0000652D01*
X0001282Y0002352D02*
X0000652D01*
X0001282Y0002343D02*
X0000652D01*
X0001282Y0002334D02*
X0000652D01*
X0001282Y0001258D02*
X0000652D01*
Y-0000277D01*
X0001282D02*
X0000652D01*
X0001282Y0001258D02*
Y-0000277D01*
X0001268Y0001258D02*
Y-0000277D01*
X0001259Y0001258D02*
Y-0000277D01*
X0001250Y0001258D02*
Y-0000277D01*
X0001241Y0001258D02*
Y-0000277D01*
X0001232Y0001258D02*
Y-0000277D01*
X0001223Y0001258D02*
Y-0000277D01*
X0001214Y0001258D02*
Y-0000277D01*
X0001205Y0001258D02*
Y-0000277D01*
X0001196Y0001258D02*
Y-0000277D01*
X0001187Y0001258D02*
Y-0000277D01*
X0001178Y0001258D02*
Y-0000277D01*
X0001169Y0001258D02*
Y-0000277D01*
X0001160Y0001258D02*
Y-0000277D01*
X0001151Y0001258D02*
Y-0000277D01*
X0001142Y0001258D02*
Y-0000277D01*
X0001133Y0001258D02*
Y-0000277D01*
X0001124Y0001258D02*
Y-0000277D01*
X0001115Y0001258D02*
Y-0000277D01*
X0001106Y0001258D02*
Y-0000277D01*
X0001097Y0001258D02*
Y-0000277D01*
X0001088Y0001258D02*
Y-0000277D01*
X0001079Y0001258D02*
Y-0000277D01*
X0001070Y0001258D02*
Y-0000277D01*
X0001061Y0001258D02*
Y-0000277D01*
X0001052Y0001258D02*
Y-0000277D01*
X0001043Y0001258D02*
Y-0000277D01*
X0001034Y0001258D02*
Y-0000277D01*
X0001025Y0001258D02*
Y-0000277D01*
X0001016Y0001258D02*
Y-0000277D01*
X0001007Y0001258D02*
Y-0000277D01*
X0000998Y0001258D02*
Y-0000277D01*
X0000989Y0001258D02*
Y-0000277D01*
X0000980Y0001258D02*
Y-0000277D01*
X0000971Y0001258D02*
Y-0000277D01*
X0000962Y0001258D02*
Y-0000277D01*
X0000953Y0001258D02*
Y-0000277D01*
X0000944Y0001258D02*
Y-0000277D01*
X0000935Y0001258D02*
Y-0000277D01*
X0000926Y0001258D02*
Y-0000277D01*
X0000917Y0001258D02*
Y-0000277D01*
X0000908Y0001258D02*
Y-0000277D01*
X0000899Y0001258D02*
Y-0000277D01*
X0000890Y0001258D02*
Y-0000277D01*
X0000881Y0001258D02*
Y-0000277D01*
X0000872Y0001258D02*
Y-0000277D01*
X0000863Y0001258D02*
Y-0000277D01*
X0000854Y0001258D02*
Y-0000277D01*
X0000845Y0001258D02*
Y-0000277D01*
X0000836Y0001258D02*
Y-0000277D01*
X0000827Y0001258D02*
Y-0000277D01*
X0000818Y0001258D02*
Y-0000277D01*
X0000809Y0001258D02*
Y-0000277D01*
X0000800Y0001258D02*
Y-0000277D01*
X0000791Y0001258D02*
Y-0000277D01*
X0000782Y0001258D02*
Y-0000277D01*
X0000773Y0001258D02*
Y-0000277D01*
X0000764Y0001258D02*
Y-0000277D01*
X0000755Y0001258D02*
Y-0000277D01*
X0000746Y0001258D02*
Y-0000277D01*
X0000737Y0001258D02*
Y-0000277D01*
X0000728Y0001258D02*
Y-0000277D01*
X0000719Y0001258D02*
Y-0000277D01*
X0000710Y0001258D02*
Y-0000277D01*
X0000701Y0001258D02*
Y-0000277D01*
X0000692Y0001258D02*
Y-0000277D01*
X0000683Y0001258D02*
Y-0000277D01*
X0000674Y0001258D02*
Y-0000277D01*
X0000665Y0001258D02*
Y-0000277D01*
X0001282Y0001248D02*
X0000652D01*
X0001282Y0001239D02*
X0000652D01*
X0001282Y0001230D02*
X0000652D01*
X0001282Y0001221D02*
X0000652D01*
X0001282Y0001212D02*
X0000652D01*
X0001282Y0001203D02*
X0000652D01*
X0001282Y0001194D02*
X0000652D01*
X0001282Y0001185D02*
X0000652D01*
X0001282Y0001176D02*
X0000652D01*
X0001282Y0001167D02*
X0000652D01*
X0001282Y0001158D02*
X0000652D01*
X0001282Y0001149D02*
X0000652D01*
X0001282Y0001140D02*
X0000652D01*
X0001282Y0001131D02*
X0000652D01*
X0001282Y0001122D02*
X0000652D01*
X0001282Y0001113D02*
X0000652D01*
X0001282Y0001104D02*
X0000652D01*
X0001282Y0001095D02*
X0000652D01*
X0001282Y0001086D02*
X0000652D01*
X0001282Y0001077D02*
X0000652D01*
X0001282Y0001068D02*
X0000652D01*
X0001282Y0001059D02*
X0000652D01*
X0001282Y0001050D02*
X0000652D01*
X0001282Y0001041D02*
X0000652D01*
X0001282Y0001032D02*
X0000652D01*
X0001282Y0001023D02*
X0000652D01*
X0001282Y0001014D02*
X0000652D01*
X0001282Y0001005D02*
X0000652D01*
X0001282Y0000996D02*
X0000652D01*
X0001282Y0000987D02*
X0000652D01*
X0001282Y0000978D02*
X0000652D01*
X0001282Y0000969D02*
X0000652D01*
X0001282Y0000960D02*
X0000652D01*
X0001282Y0000951D02*
X0000652D01*
X0001282Y0000942D02*
X0000652D01*
X0001282Y0000933D02*
X0000652D01*
X0001282Y0000924D02*
X0000652D01*
X0001282Y0000915D02*
X0000652D01*
X0001282Y0000906D02*
X0000652D01*
X0001282Y0000897D02*
X0000652D01*
X0001282Y0000888D02*
X0000652D01*
X0001282Y0000879D02*
X0000652D01*
X0001282Y0000870D02*
X0000652D01*
X0001282Y0000861D02*
X0000652D01*
X0001282Y0000852D02*
X0000652D01*
X0001282Y0000843D02*
X0000652D01*
X0001282Y0000834D02*
X0000652D01*
X0001282Y0000825D02*
X0000652D01*
X0001282Y0000816D02*
X0000652D01*
X0001282Y0000807D02*
X0000652D01*
X0001282Y0000798D02*
X0000652D01*
X0001282Y0000789D02*
X0000652D01*
X0001282Y0000780D02*
X0000652D01*
X0001282Y0000771D02*
X0000652D01*
X0001282Y0000762D02*
X0000652D01*
X0001282Y0000753D02*
X0000652D01*
X0001282Y0000744D02*
X0000652D01*
X0001282Y0000735D02*
X0000652D01*
X0001282Y0000726D02*
X0000652D01*
X0001282Y0000717D02*
X0000652D01*
X0001282Y0000708D02*
X0000652D01*
X0001282Y0000699D02*
X0000652D01*
X0001282Y0000690D02*
X0000652D01*
X0001282Y0000681D02*
X0000652D01*
X0001282Y0000672D02*
X0000652D01*
X0001282Y0000663D02*
X0000652D01*
X0001282Y0000654D02*
X0000652D01*
X0001282Y0000645D02*
X0000652D01*
X0001282Y0000636D02*
X0000652D01*
X0001282Y0000627D02*
X0000652D01*
X0001282Y0000618D02*
X0000652D01*
X0001282Y0000609D02*
X0000652D01*
X0001282Y0000600D02*
X0000652D01*
X0001282Y0000591D02*
X0000652D01*
X0001282Y0000582D02*
X0000652D01*
X0001282Y0000573D02*
X0000652D01*
X0001282Y0000564D02*
X0000652D01*
X0001282Y0000555D02*
X0000652D01*
X0001282Y0000546D02*
X0000652D01*
X0001282Y0000537D02*
X0000652D01*
X0001282Y0000528D02*
X0000652D01*
X0001282Y0000519D02*
X0000652D01*
X0001282Y0000510D02*
X0000652D01*
X0001282Y0000501D02*
X0000652D01*
X0001282Y0000492D02*
X0000652D01*
X0001282Y0000483D02*
X0000652D01*
X0001282Y0000474D02*
X0000652D01*
X0001282Y0000465D02*
X0000652D01*
X0001282Y0000456D02*
X0000652D01*
X0001282Y0000447D02*
X0000652D01*
X0001282Y0000438D02*
X0000652D01*
X0001282Y0000429D02*
X0000652D01*
X0001282Y0000420D02*
X0000652D01*
X0001282Y0000411D02*
X0000652D01*
X0001282Y0000402D02*
X0000652D01*
X0001282Y0000393D02*
X0000652D01*
X0001282Y0000384D02*
X0000652D01*
X0001282Y0000375D02*
X0000652D01*
X0001282Y0000366D02*
X0000652D01*
X0001282Y0000357D02*
X0000652D01*
X0001282Y0000348D02*
X0000652D01*
X0001282Y0000339D02*
X0000652D01*
X0001282Y0000330D02*
X0000652D01*
X0001282Y0000321D02*
X0000652D01*
X0001282Y0000312D02*
X0000652D01*
X0001282Y0000303D02*
X0000652D01*
X0001282Y0000294D02*
X0000652D01*
X0001282Y0000285D02*
X0000652D01*
X0001282Y0000276D02*
X0000652D01*
X0001282Y0000267D02*
X0000652D01*
X0001282Y0000258D02*
X0000652D01*
X0001282Y0000249D02*
X0000652D01*
X0001282Y0000240D02*
X0000652D01*
X0001282Y0000231D02*
X0000652D01*
X0001282Y0000222D02*
X0000652D01*
X0001282Y0000213D02*
X0000652D01*
X0001282Y0000204D02*
X0000652D01*
X0001282Y0000195D02*
X0000652D01*
X0001282Y0000186D02*
X0000652D01*
X0001282Y0000177D02*
X0000652D01*
X0001282Y0000168D02*
X0000652D01*
X0001282Y0000159D02*
X0000652D01*
X0001282Y0000150D02*
X0000652D01*
X0001282Y0000141D02*
X0000652D01*
X0001282Y0000132D02*
X0000652D01*
X0001282Y0000123D02*
X0000652D01*
X0001282Y0000114D02*
X0000652D01*
X0001282Y0000105D02*
X0000652D01*
X0001282Y0000096D02*
X0000652D01*
X0001282Y0000087D02*
X0000652D01*
X0001282Y0000078D02*
X0000652D01*
X0001282Y0000069D02*
X0000652D01*
X0001282Y0000060D02*
X0000652D01*
X0001282Y0000051D02*
X0000652D01*
X0001282Y0000042D02*
X0000652D01*
X0001282Y0000033D02*
X0000652D01*
X0001282Y0000024D02*
X0000652D01*
X0001282Y0000015D02*
X0000652D01*
X0001282Y0000006D02*
X0000652D01*
X0001282Y-0000003D02*
X0000652D01*
X0001282Y-0000012D02*
X0000652D01*
X0001282Y-0000021D02*
X0000652D01*
X0001282Y-0000030D02*
X0000652D01*
X0001282Y-0000039D02*
X0000652D01*
X0001282Y-0000048D02*
X0000652D01*
X0001282Y-0000057D02*
X0000652D01*
X0001282Y-0000066D02*
X0000652D01*
X0001282Y-0000075D02*
X0000652D01*
X0001282Y-0000084D02*
X0000652D01*
X0001282Y-0000093D02*
X0000652D01*
X0001282Y-0000102D02*
X0000652D01*
X0001282Y-0000111D02*
X0000652D01*
X0001282Y-0000120D02*
X0000652D01*
X0001282Y-0000129D02*
X0000652D01*
X0001282Y-0000138D02*
X0000652D01*
X0001282Y-0000147D02*
X0000652D01*
X0001282Y-0000156D02*
X0000652D01*
X0001282Y-0000165D02*
X0000652D01*
X0001282Y-0000174D02*
X0000652D01*
X0001282Y-0000183D02*
X0000652D01*
X0001282Y-0000192D02*
X0000652D01*
X0001282Y-0000201D02*
X0000652D01*
X0001282Y-0000210D02*
X0000652D01*
X0001282Y-0000219D02*
X0000652D01*
X0001282Y-0000228D02*
X0000652D01*
X0001282Y-0000237D02*
X0000652D01*
X0001282Y-0000246D02*
X0000652D01*
X0001282Y-0000255D02*
X0000652D01*
X0001282Y-0000264D02*
X0000652D01*
X0044700Y0003600D02*
Y0005100D01*
X0048500D01*
Y0002100D01*
X0044700D01*
Y0003600D01*
X-0000200Y0017700D02*
Y0016200D01*
X-0004000D01*
Y0019200D01*
X-0000200D01*
Y0017700D01*
Y0005600D02*
Y0004100D01*
X-0004000D01*
Y0007100D01*
X-0000200D01*
Y0005600D01*
X0044690Y0019700D02*
Y0021200D01*
X0048490D01*
Y0018200D01*
X0044690D01*
Y0019700D01*
X0012411Y0012129D02*
Y0009373D01*
X0012402Y0012129D02*
Y0009373D01*
X0012393Y0012129D02*
Y0009373D01*
X0012384Y0012129D02*
Y0009373D01*
X0012375Y0012129D02*
Y0009373D01*
X0012366Y0012129D02*
Y0009373D01*
X0012357Y0012129D02*
Y0009373D01*
X0012348Y0012129D02*
Y0009373D01*
X0012339Y0012129D02*
Y0009373D01*
X0012330Y0012129D02*
Y0009373D01*
X0012321Y0012129D02*
Y0009373D01*
X0012312Y0012129D02*
Y0009373D01*
X0012303Y0012129D02*
Y0009373D01*
X0012294Y0012129D02*
Y0009373D01*
X0012285Y0012129D02*
Y0009373D01*
X0012276Y0012129D02*
Y0009373D01*
X0012267Y0012129D02*
Y0009373D01*
X0012258Y0012129D02*
Y0009373D01*
X0012249Y0012129D02*
Y0009373D01*
X0012240Y0012129D02*
Y0009373D01*
X0012231Y0012129D02*
Y0009373D01*
X0012222Y0012129D02*
Y0009373D01*
X0012213Y0012129D02*
Y0009373D01*
X0012204Y0012129D02*
Y0009373D01*
X0012195Y0012129D02*
Y0009373D01*
X0012186Y0012129D02*
Y0009373D01*
X0012177Y0012129D02*
Y0009373D01*
X0012168Y0012129D02*
Y0009373D01*
X0012159Y0012129D02*
Y0009373D01*
X0012150Y0012129D02*
Y0009373D01*
X0012141Y0012129D02*
Y0009373D01*
X0012132Y0012129D02*
Y0009373D01*
X0012123Y0012129D02*
Y0009373D01*
X0012114Y0012129D02*
Y0009373D01*
X0012105Y0012129D02*
Y0009373D01*
X0012096Y0012129D02*
Y0009373D01*
X0012087Y0012129D02*
Y0009373D01*
X0012078Y0012129D02*
Y0009373D01*
X0012069Y0012129D02*
Y0009373D01*
X0012060Y0012129D02*
Y0009373D01*
X0012051Y0012129D02*
Y0009373D01*
X0012042Y0012129D02*
Y0009373D01*
X0012033Y0012129D02*
Y0009373D01*
X0012024Y0012129D02*
Y0009373D01*
X0012015Y0012129D02*
Y0009373D01*
X0012006Y0012129D02*
Y0009373D01*
X0011997Y0012129D02*
Y0009373D01*
X0011988Y0012129D02*
Y0009373D01*
X0011979Y0012129D02*
Y0009373D01*
X0011970Y0012129D02*
Y0009373D01*
X0011961Y0012129D02*
Y0009373D01*
X0011952Y0012129D02*
Y0009373D01*
X0011943Y0012129D02*
Y0009373D01*
X0011934Y0012129D02*
Y0009373D01*
X0011925Y0012129D02*
Y0009373D01*
X0011916Y0012129D02*
Y0009373D01*
X0011907Y0012129D02*
Y0009373D01*
X0011898Y0012129D02*
Y0009373D01*
X0011889Y0012129D02*
Y0009373D01*
X0011880Y0012129D02*
Y0009373D01*
X0011871Y0012129D02*
Y0009373D01*
X0011862Y0012129D02*
Y0009373D01*
X0011853Y0012129D02*
Y0009373D01*
X0011844Y0012129D02*
Y0009373D01*
X0011835Y0012129D02*
Y0009373D01*
X0011826Y0012129D02*
Y0009373D01*
X0011817Y0012129D02*
Y0009373D01*
X0011808Y0012129D02*
Y0009373D01*
X0011799Y0012129D02*
Y0009373D01*
X0011790Y0012129D02*
Y0009373D01*
X0011781Y0012129D02*
Y0009373D01*
X0011772Y0012129D02*
Y0009373D01*
X0011763Y0012129D02*
Y0009373D01*
X0011754Y0012129D02*
Y0009373D01*
X0011745Y0012129D02*
Y0009373D01*
X0011736Y0012129D02*
Y0009373D01*
X0011727Y0012129D02*
Y0009373D01*
X0011718Y0012129D02*
Y0009373D01*
X0011709Y0012129D02*
Y0009373D01*
X0011700Y0012129D02*
Y0009373D01*
X0011691Y0012129D02*
Y0009373D01*
X0011682Y0012129D02*
Y0009373D01*
X0011673Y0012129D02*
Y0009373D01*
X0011664Y0012129D02*
Y0009373D01*
X0011655Y0012129D02*
Y0009373D01*
X0011646Y0012129D02*
Y0009373D01*
X0011637Y0012129D02*
Y0009373D01*
X0011628Y0012129D02*
Y0009373D01*
X0011619Y0012129D02*
Y0009373D01*
X0011610Y0012129D02*
Y0009373D01*
X0011601Y0012129D02*
Y0009373D01*
X0011592Y0012129D02*
Y0009373D01*
X0011583Y0012129D02*
Y0009373D01*
X0011574Y0012129D02*
Y0009373D01*
X0011565Y0012129D02*
Y0009373D01*
X0011556Y0012129D02*
Y0009373D01*
X0011547Y0012129D02*
Y0009373D01*
X0011538Y0012129D02*
Y0009373D01*
X0011529Y0012129D02*
Y0009373D01*
X0011520Y0012129D02*
Y0009373D01*
X0011511Y0012129D02*
Y0009373D01*
X0011502Y0012129D02*
Y0009373D01*
X0011493Y0012129D02*
Y0009373D01*
X0011484Y0012129D02*
Y0009373D01*
X0011475Y0012129D02*
Y0009373D01*
X0011466Y0012129D02*
Y0009373D01*
X0011457Y0012129D02*
Y0009373D01*
X0011448Y0012129D02*
Y0009373D01*
X0011439Y0012129D02*
Y0009373D01*
X0011430Y0012129D02*
Y0009373D01*
X0011421Y0012129D02*
Y0009373D01*
X0011412Y0012129D02*
Y0009373D01*
X0011403Y0012129D02*
Y0009373D01*
X0011394Y0012129D02*
Y0009373D01*
X0011385Y0012129D02*
Y0009373D01*
X0011376Y0012129D02*
Y0009373D01*
X0011367Y0012129D02*
Y0009373D01*
X0011358Y0012129D02*
Y0009373D01*
X0011349Y0012129D02*
Y0009373D01*
X0011340Y0012129D02*
Y0009373D01*
X0011331Y0012129D02*
Y0009373D01*
X0011322Y0012129D02*
Y0009373D01*
X0011313Y0012129D02*
Y0009373D01*
X0011304Y0012129D02*
Y0009373D01*
X0011295Y0012129D02*
Y0009373D01*
X0011286Y0012129D02*
Y0009373D01*
X0011277Y0012129D02*
Y0009373D01*
X0011268Y0012129D02*
Y0009373D01*
X0011259Y0012129D02*
Y0009373D01*
X0011250Y0012129D02*
Y0009373D01*
X0011241Y0012129D02*
Y0009373D01*
X0011232Y0012129D02*
Y0009373D01*
X0011223Y0012129D02*
Y0009373D01*
X0011214Y0012129D02*
Y0009373D01*
X0011205Y0012129D02*
Y0009373D01*
X0011196Y0012129D02*
Y0009373D01*
X0011187Y0012129D02*
Y0009373D01*
X0011178Y0012129D02*
Y0009373D01*
X0011169Y0012129D02*
Y0009373D01*
X0011160Y0012129D02*
Y0009373D01*
X0011151Y0012129D02*
Y0009373D01*
X0011142Y0012129D02*
Y0009373D01*
X0011133Y0012129D02*
Y0009373D01*
X0011124Y0012129D02*
Y0009373D01*
X0011115Y0012129D02*
Y0009373D01*
X0011106Y0012129D02*
Y0009373D01*
X0011097Y0012129D02*
Y0009373D01*
X0011088Y0012129D02*
Y0009373D01*
X0011079Y0012129D02*
Y0009373D01*
X0011070Y0012129D02*
Y0009373D01*
X0011061Y0012129D02*
Y0009373D01*
X0011052Y0012129D02*
Y0009373D01*
X0011043Y0012129D02*
Y0009373D01*
X0011034Y0012129D02*
Y0009373D01*
X0011025Y0012129D02*
Y0009373D01*
X0011016Y0012129D02*
Y0009373D01*
X0011007Y0012129D02*
Y0009373D01*
X0010998Y0012129D02*
Y0009373D01*
X0010989Y0012129D02*
Y0009373D01*
X0010980Y0012129D02*
Y0009373D01*
X0010971Y0012129D02*
Y0009373D01*
X0010962Y0012129D02*
Y0009373D01*
X0010953Y0012129D02*
Y0009373D01*
X0010944Y0012129D02*
Y0009373D01*
X0010935Y0012129D02*
Y0009373D01*
X0010926Y0012129D02*
Y0009373D01*
X0010917Y0012129D02*
Y0009373D01*
X0010908Y0012129D02*
Y0009373D01*
X0010899Y0012129D02*
Y0009373D01*
X0010890Y0012129D02*
Y0009373D01*
X0010881Y0012129D02*
Y0009373D01*
X0010872Y0012129D02*
Y0009373D01*
X0010863Y0012129D02*
Y0009373D01*
X0010854Y0012129D02*
Y0009373D01*
X0010845Y0012129D02*
Y0009373D01*
X0010836Y0012129D02*
Y0009373D01*
X0010827Y0012129D02*
Y0009373D01*
X0010818Y0012129D02*
Y0009373D01*
X0010809Y0012129D02*
Y0009373D01*
X0010800Y0012129D02*
Y0009373D01*
X0010791Y0012129D02*
Y0009373D01*
X0010782Y0012129D02*
Y0009373D01*
X0010773Y0012129D02*
Y0009373D01*
X0010764Y0012129D02*
Y0009373D01*
X0010755Y0012129D02*
Y0009373D01*
X0010746Y0012129D02*
Y0009373D01*
X0010737Y0012129D02*
Y0009373D01*
X0010728Y0012129D02*
Y0009373D01*
X0010719Y0012129D02*
Y0009373D01*
X0010710Y0012129D02*
Y0009373D01*
X0010701Y0012129D02*
Y0009373D01*
X0010692Y0012129D02*
Y0009373D01*
X0010683Y0012129D02*
Y0009373D01*
X0010674Y0012129D02*
Y0009373D01*
X0010665Y0012129D02*
Y0009373D01*
X0010656Y0012129D02*
Y0009373D01*
X0010647Y0012129D02*
Y0009373D01*
X0010638Y0012129D02*
Y0009373D01*
X0010629Y0012129D02*
Y0009373D01*
X0010620Y0012129D02*
Y0009373D01*
X0010611Y0012129D02*
Y0009373D01*
X0010602Y0012129D02*
Y0009373D01*
X0010593Y0012129D02*
Y0009373D01*
X0010584Y0012129D02*
Y0009373D01*
X0010575Y0012129D02*
Y0009373D01*
X0010566Y0012129D02*
Y0009373D01*
X0010557Y0012129D02*
Y0009373D01*
X0010548Y0012129D02*
Y0009373D01*
X0010539Y0012129D02*
Y0009373D01*
X0010530Y0012129D02*
Y0009373D01*
X0010521Y0012129D02*
Y0009373D01*
X0010512Y0012129D02*
Y0009373D01*
X0010503Y0012129D02*
Y0009373D01*
X0010494Y0012129D02*
Y0009373D01*
X0010485Y0012129D02*
Y0009373D01*
X0010476Y0012129D02*
Y0009373D01*
X0010467Y0012129D02*
Y0009373D01*
X0010458Y0012129D02*
Y0009373D01*
X0010449Y0012129D02*
Y0009373D01*
X0010440Y0012129D02*
Y0009373D01*
X0010431Y0012129D02*
Y0009373D01*
X0010422Y0012129D02*
Y0009373D01*
X0010413Y0012129D02*
Y0009373D01*
X0010404Y0012129D02*
Y0009373D01*
X0010395Y0012129D02*
Y0009373D01*
X0010386Y0012129D02*
Y0009373D01*
X0010377Y0012129D02*
Y0009373D01*
X0010368Y0012129D02*
Y0009373D01*
X0010359Y0012129D02*
Y0009373D01*
X0010350Y0012129D02*
Y0009373D01*
X0010341Y0012129D02*
Y0009373D01*
X0010332Y0012129D02*
Y0009373D01*
X0010323Y0012129D02*
Y0009373D01*
X0010314Y0012129D02*
Y0009373D01*
X0010305Y0012129D02*
Y0009373D01*
X0010296Y0012129D02*
Y0009373D01*
X0010287Y0012129D02*
Y0009373D01*
X0010278Y0012129D02*
Y0009373D01*
X0010269Y0012129D02*
Y0009373D01*
X0010260Y0012129D02*
Y0009373D01*
X0010251Y0012129D02*
Y0009373D01*
X0010242Y0012129D02*
Y0009373D01*
X0010233Y0012129D02*
Y0009373D01*
X0010224Y0012129D02*
Y0009373D01*
X0010215Y0012129D02*
Y0009373D01*
X0010206Y0012129D02*
Y0009373D01*
X0010197Y0012129D02*
Y0009373D01*
X0010188Y0012129D02*
Y0009373D01*
X0010179Y0012129D02*
Y0009373D01*
X0010170Y0012129D02*
Y0009373D01*
X0010161Y0012129D02*
Y0009373D01*
X0010152Y0012129D02*
Y0009373D01*
X0010143Y0012129D02*
Y0009373D01*
X0010134Y0012129D02*
Y0009373D01*
X0010125Y0012129D02*
Y0009373D01*
X0010116Y0012129D02*
Y0009373D01*
X0010107Y0012129D02*
Y0009373D01*
X0010098Y0012129D02*
Y0009373D01*
X0010089Y0012129D02*
Y0009373D01*
X0010080Y0012129D02*
Y0009373D01*
X0010071Y0012129D02*
Y0009373D01*
X0010062Y0012129D02*
Y0009373D01*
X0010053Y0012129D02*
Y0009373D01*
X0010044Y0012129D02*
Y0009373D01*
X0010035Y0012129D02*
Y0009373D01*
X0010026Y0012129D02*
Y0009373D01*
X0010017Y0012129D02*
Y0009373D01*
X0010008Y0012129D02*
Y0009373D01*
X0009999Y0012129D02*
Y0009373D01*
X0009990Y0012129D02*
Y0009373D01*
X0009981Y0012129D02*
Y0009373D01*
X0009972Y0012129D02*
Y0009373D01*
X0009963Y0012129D02*
Y0009373D01*
X0009954Y0012129D02*
Y0009373D01*
X0009945Y0012129D02*
Y0009373D01*
X0009936Y0012129D02*
Y0009373D01*
X0009927Y0012129D02*
Y0009373D01*
X0009918Y0012129D02*
Y0009373D01*
X0009909Y0012129D02*
Y0009373D01*
X0009900Y0012129D02*
Y0009373D01*
X0009891Y0012129D02*
Y0009373D01*
X0009882Y0012129D02*
Y0009373D01*
X0009873Y0012129D02*
Y0009373D01*
X0009864Y0012129D02*
Y0009373D01*
X0009855Y0012129D02*
Y0009373D01*
X0009846Y0012129D02*
Y0009373D01*
X0009837Y0012129D02*
Y0009373D01*
X0009828Y0012129D02*
Y0009373D01*
X0009819Y0012129D02*
Y0009373D01*
X0009810Y0012129D02*
Y0009373D01*
X0009801Y0012129D02*
Y0009373D01*
X0009792Y0012129D02*
Y0009373D01*
X0009783Y0012129D02*
Y0009373D01*
X0009774Y0012129D02*
Y0009373D01*
X0009765Y0012129D02*
Y0009373D01*
X0009756Y0012129D02*
Y0009373D01*
X0009747Y0012129D02*
Y0009373D01*
X0009738Y0012129D02*
Y0009373D01*
X0009729Y0012129D02*
Y0009373D01*
X0009720Y0012129D02*
Y0009373D01*
X0009711Y0012129D02*
Y0009373D01*
X0009702Y0012129D02*
Y0009373D01*
X0009693Y0012129D02*
Y0009373D01*
X0009684Y0012129D02*
Y0009373D01*
X0009675Y0012129D02*
Y0009373D01*
X0009666Y0012129D02*
Y0009373D01*
X0009657Y0012129D02*
Y0009373D01*
X0009648Y0012129D02*
Y0009373D01*
X0009639Y0012129D02*
Y0009373D01*
X0009630Y0012129D02*
Y0009373D01*
X0009621Y0012129D02*
Y0009373D01*
X0009612Y0012129D02*
Y0009373D01*
X0009603Y0012129D02*
Y0009373D01*
X0009594Y0012129D02*
Y0009373D01*
X0009585Y0012129D02*
Y0009373D01*
X0009576Y0012129D02*
Y0009373D01*
X0009567Y0012129D02*
Y0009373D01*
X0009558Y0012129D02*
Y0009373D01*
X0009549Y0012129D02*
Y0009373D01*
X0009540Y0012129D02*
Y0009373D01*
X0009531Y0012129D02*
Y0009373D01*
X0009522Y0012129D02*
Y0009373D01*
X0009513Y0012129D02*
Y0009373D01*
X0009504Y0012129D02*
Y0009373D01*
X0009495Y0012129D02*
Y0009373D01*
X0009486Y0012129D02*
Y0009373D01*
X0009477Y0012129D02*
Y0009373D01*
X0009468Y0012129D02*
Y0009373D01*
X0009459Y0012129D02*
Y0009373D01*
X0009450Y0012129D02*
Y0009373D01*
X0009441Y0012129D02*
Y0009373D01*
X0009432Y0012129D02*
Y0009373D01*
X0009423Y0012129D02*
Y0009373D01*
X0009414Y0012129D02*
Y0009373D01*
X0009405Y0012129D02*
Y0009373D01*
X0009396Y0012129D02*
Y0009373D01*
X0009387Y0012129D02*
Y0009373D01*
X0009378Y0012129D02*
Y0009373D01*
X0009369Y0012129D02*
Y0009373D01*
X0009360Y0012129D02*
Y0009373D01*
X0009351Y0012129D02*
Y0009373D01*
X0009342Y0012129D02*
Y0009373D01*
X0009333Y0012129D02*
Y0009373D01*
X0009324Y0012129D02*
Y0009373D01*
X0009315Y0012129D02*
Y0009373D01*
X0009306Y0012129D02*
Y0009373D01*
X0009297Y0012129D02*
Y0009373D01*
X0009288Y0012129D02*
Y0009373D01*
X0009279Y0012129D02*
Y0009373D01*
X0009270Y0012129D02*
Y0009373D01*
X0009261Y0012129D02*
Y0009373D01*
X0009252Y0012129D02*
Y0009373D01*
X0009243Y0012129D02*
Y0009373D01*
X0009234Y0012129D02*
Y0009373D01*
X0009225Y0012129D02*
Y0009373D01*
X0009216Y0012129D02*
Y0009373D01*
X0009207Y0012129D02*
Y0009373D01*
X0009198Y0012129D02*
Y0009373D01*
X0009189Y0012129D02*
Y0009373D01*
X0009180Y0012129D02*
Y0009373D01*
X0009171Y0012129D02*
Y0009373D01*
X0009162Y0012129D02*
Y0009373D01*
X0009153Y0012129D02*
Y0009373D01*
X0009144Y0012129D02*
Y0009373D01*
X0009135Y0012129D02*
Y0009373D01*
X0009126Y0012129D02*
Y0009373D01*
X0009117Y0012129D02*
Y0009373D01*
X0009108Y0012129D02*
Y0009373D01*
X0009099Y0012129D02*
Y0009373D01*
X0009090Y0012129D02*
Y0009373D01*
X0009081Y0012129D02*
Y0009373D01*
X0009072Y0012129D02*
Y0009373D01*
X0009063Y0012129D02*
Y0009373D01*
X0009054Y0012129D02*
Y0009373D01*
X0009045Y0012129D02*
Y0009373D01*
X0009036Y0012129D02*
Y0009373D01*
X0009027Y0012129D02*
Y0009373D01*
X0009018Y0012129D02*
Y0009373D01*
X0009009Y0012129D02*
Y0009373D01*
X0009000Y0012129D02*
Y0009373D01*
X0008991Y0012129D02*
Y0009373D01*
X0008982Y0012129D02*
Y0009373D01*
X0008973Y0012129D02*
Y0009373D01*
X0008964Y0012129D02*
Y0009373D01*
X0008955Y0012129D02*
Y0009373D01*
X0008946Y0012129D02*
Y0009373D01*
X0008937Y0012129D02*
Y0009373D01*
X0008928Y0012129D02*
Y0009373D01*
X0008919Y0012129D02*
Y0009373D01*
X0008910Y0012129D02*
Y0009373D01*
X0008901Y0012129D02*
Y0009373D01*
X0008892Y0012129D02*
Y0009373D01*
X0008883Y0012129D02*
Y0009373D01*
X0008874Y0012129D02*
Y0009373D01*
X0008865Y0012129D02*
Y0009373D01*
X0008856Y0012129D02*
Y0009373D01*
X0008847Y0012129D02*
Y0009373D01*
X0008838Y0012129D02*
Y0009373D01*
X0008829Y0012129D02*
Y0009373D01*
X0008820Y0012129D02*
Y0009373D01*
X0008811Y0012129D02*
Y0009373D01*
X0008802Y0012129D02*
Y0009373D01*
X0008793Y0012129D02*
Y0009373D01*
X0008784Y0012129D02*
Y0009373D01*
X0008775Y0012129D02*
Y0009373D01*
X0008766Y0012129D02*
Y0009373D01*
X0008757Y0012129D02*
Y0009373D01*
X0008748Y0012129D02*
Y0009373D01*
X0008739Y0012129D02*
Y0009373D01*
X0008730Y0012129D02*
Y0009373D01*
X0008721Y0012129D02*
Y0009373D01*
X0008712Y0012129D02*
Y0009373D01*
X0008703Y0012129D02*
Y0009373D01*
X0008694Y0012129D02*
Y0009373D01*
X0008685Y0012129D02*
Y0009373D01*
X0008676Y0012129D02*
Y0009373D01*
X0008667Y0012129D02*
Y0009373D01*
X0008658Y0012129D02*
Y0009373D01*
X0008649Y0012129D02*
Y0009373D01*
X0008640Y0012129D02*
Y0009373D01*
X0008631Y0012129D02*
Y0009373D01*
X0008622Y0012129D02*
Y0009373D01*
X0008613Y0012129D02*
Y0009373D01*
X0008604Y0012129D02*
Y0009373D01*
X0008595Y0012129D02*
Y0009373D01*
X0008586Y0012129D02*
Y0009373D01*
X0008577Y0012129D02*
Y0009373D01*
X0008568Y0012129D02*
Y0009373D01*
X0008559Y0012129D02*
Y0009373D01*
X0008550Y0012129D02*
Y0009373D01*
X0008541Y0012129D02*
Y0009373D01*
X0008532Y0012129D02*
Y0009373D01*
X0008523Y0012129D02*
Y0009373D01*
X0008514Y0012129D02*
Y0009373D01*
X0008505Y0012129D02*
Y0009373D01*
X0008496Y0012129D02*
Y0009373D01*
X0008487Y0012129D02*
Y0009373D01*
X0013985Y0012113D02*
X0008474D01*
X0013985Y0012104D02*
X0008474D01*
X0013985Y0012095D02*
X0008474D01*
X0013985Y0012086D02*
X0008474D01*
X0013985Y0012077D02*
X0008474D01*
X0013985Y0012068D02*
X0008474D01*
X0013985Y0012059D02*
X0008474D01*
X0013985Y0012050D02*
X0008474D01*
X0013985Y0012041D02*
X0008474D01*
X0013985Y0012032D02*
X0008474D01*
X0013985Y0012023D02*
X0008474D01*
X0013985Y0012014D02*
X0008474D01*
X0013985Y0012005D02*
X0008474D01*
X0013985Y0011996D02*
X0008474D01*
X0013985Y0011987D02*
X0008474D01*
X0013985Y0011978D02*
X0008474D01*
X0013985Y0011969D02*
X0008474D01*
X0013985Y0011960D02*
X0008474D01*
X0013985Y0011951D02*
X0008474D01*
X0013985Y0011942D02*
X0008474D01*
X0013985Y0011933D02*
X0008474D01*
X0013985Y0011924D02*
X0008474D01*
X0013985Y0011915D02*
X0008474D01*
X0013985Y0011906D02*
X0008474D01*
X0013985Y0011897D02*
X0008474D01*
X0013985Y0011888D02*
X0008474D01*
X0013985Y0011879D02*
X0008474D01*
X0013985Y0011870D02*
X0008474D01*
X0013985Y0011861D02*
X0008474D01*
X0013985Y0011852D02*
X0008474D01*
X0013985Y0011843D02*
X0008474D01*
X0013985Y0011834D02*
X0008474D01*
X0013985Y0011825D02*
X0008474D01*
X0013985Y0011816D02*
X0008474D01*
X0013985Y0011807D02*
X0008474D01*
X0013985Y0011798D02*
X0008474D01*
X0013985Y0011789D02*
X0008474D01*
X0013985Y0011780D02*
X0008474D01*
X0013985Y0011771D02*
X0008474D01*
X0013985Y0011762D02*
X0008474D01*
X0013985Y0011753D02*
X0008474D01*
X0013985Y0011744D02*
X0008474D01*
X0013985Y0011735D02*
X0008474D01*
X0013985Y0011726D02*
X0008474D01*
X0013985Y0011717D02*
X0008474D01*
X0013985Y0011708D02*
X0008474D01*
X0013985Y0011699D02*
X0008474D01*
X0013985Y0011690D02*
X0008474D01*
X0013985Y0011681D02*
X0008474D01*
X0013985Y0011672D02*
X0008474D01*
X0013985Y0011663D02*
X0008474D01*
X0013985Y0011654D02*
X0008474D01*
X0013985Y0011645D02*
X0008474D01*
X0013985Y0011636D02*
X0008474D01*
X0013985Y0011627D02*
X0008474D01*
X0013985Y0011618D02*
X0008474D01*
X0013985Y0011609D02*
X0008474D01*
X0013985Y0011600D02*
X0008474D01*
X0013985Y0011591D02*
X0008474D01*
X0013985Y0011582D02*
X0008474D01*
X0013985Y0011573D02*
X0008474D01*
X0013985Y0011564D02*
X0008474D01*
X0013985Y0011555D02*
X0008474D01*
X0013985Y0011546D02*
X0008474D01*
X0013985Y0011537D02*
X0008474D01*
X0013985Y0011528D02*
X0008474D01*
X0013985Y0011519D02*
X0008474D01*
X0013985Y0011510D02*
X0008474D01*
X0013985Y0011501D02*
X0008474D01*
X0013985Y0011492D02*
X0008474D01*
X0013985Y0011483D02*
X0008474D01*
X0013985Y0011474D02*
X0008474D01*
X0013985Y0011465D02*
X0008474D01*
X0013985Y0011456D02*
X0008474D01*
X0013985Y0011447D02*
X0008474D01*
X0013985Y0011438D02*
X0008474D01*
X0013985Y0011429D02*
X0008474D01*
X0013985Y0011420D02*
X0008474D01*
X0013985Y0011411D02*
X0008474D01*
X0013985Y0011402D02*
X0008474D01*
X0013985Y0011393D02*
X0008474D01*
X0013985Y0011384D02*
X0008474D01*
X0013985Y0011375D02*
X0008474D01*
X0013985Y0011366D02*
X0008474D01*
X0013985Y0011357D02*
X0008474D01*
X0013985Y0011348D02*
X0008474D01*
X0013985Y0011339D02*
X0008474D01*
X0013985Y0011330D02*
X0008474D01*
X0013985Y0011321D02*
X0008474D01*
X0013985Y0011312D02*
X0008474D01*
X0013985Y0011303D02*
X0008474D01*
X0013985Y0011294D02*
X0008474D01*
X0013985Y0011285D02*
X0008474D01*
X0013985Y0011276D02*
X0008474D01*
X0013985Y0011267D02*
X0008474D01*
X0013985Y0011258D02*
X0008474D01*
X0013985Y0011249D02*
X0008474D01*
X0013985Y0011240D02*
X0008474D01*
X0013985Y0011231D02*
X0008474D01*
X0013985Y0011222D02*
X0008474D01*
X0013985Y0011213D02*
X0008474D01*
X0013985Y0011204D02*
X0008474D01*
X0013985Y0011195D02*
X0008474D01*
X0013985Y0011186D02*
X0008474D01*
X0013985Y0011177D02*
X0008474D01*
X0013985Y0011168D02*
X0008474D01*
X0013985Y0011159D02*
X0008474D01*
X0013985Y0011150D02*
X0008474D01*
X0013985Y0011141D02*
X0008474D01*
X0013985Y0011132D02*
X0008474D01*
X0013985Y0011123D02*
X0008474D01*
X0013985Y0011114D02*
X0008474D01*
X0013985Y0011105D02*
X0008474D01*
X0013985Y0011096D02*
X0008474D01*
X0013985Y0011087D02*
X0008474D01*
X0013985Y0011078D02*
X0008474D01*
X0013985Y0011069D02*
X0008474D01*
X0013985Y0011060D02*
X0008474D01*
X0013985Y0011051D02*
X0008474D01*
X0013985Y0011042D02*
X0008474D01*
X0013985Y0011033D02*
X0008474D01*
X0013985Y0011024D02*
X0008474D01*
X0013985Y0011015D02*
X0008474D01*
X0013985Y0011006D02*
X0008474D01*
X0013985Y0010997D02*
X0008474D01*
X0013985Y0010988D02*
X0008474D01*
X0013985Y0010979D02*
X0008474D01*
X0013985Y0010970D02*
X0008474D01*
X0013985Y0010961D02*
X0008474D01*
X0013985Y0010952D02*
X0008474D01*
X0013985Y0010943D02*
X0008474D01*
X0013985Y0010934D02*
X0008474D01*
X0013985Y0010925D02*
X0008474D01*
X0013985Y0010916D02*
X0008474D01*
X0013985Y0010907D02*
X0008474D01*
X0013985Y0010898D02*
X0008474D01*
X0013985Y0010889D02*
X0008474D01*
X0013985Y0010880D02*
X0008474D01*
X0013985Y0010871D02*
X0008474D01*
X0013985Y0010862D02*
X0008474D01*
X0013985Y0010853D02*
X0008474D01*
X0013985Y0010844D02*
X0008474D01*
X0013985Y0010835D02*
X0008474D01*
X0013985Y0010826D02*
X0008474D01*
X0013985Y0010817D02*
X0008474D01*
X0013985Y0010808D02*
X0008474D01*
X0013985Y0010799D02*
X0008474D01*
X0013985Y0010790D02*
X0008474D01*
X0013985Y0010781D02*
X0008474D01*
X0013985Y0010772D02*
X0008474D01*
X0013985Y0010763D02*
X0008474D01*
X0013985Y0010754D02*
X0008474D01*
X0013985Y0010745D02*
X0008474D01*
X0013985Y0010736D02*
X0008474D01*
X0013985Y0010727D02*
X0008474D01*
X0013985Y0010718D02*
X0008474D01*
X0013985Y0010709D02*
X0008474D01*
X0013985Y0010700D02*
X0008474D01*
X0013985Y0010691D02*
X0008474D01*
X0013985Y0010682D02*
X0008474D01*
X0013985Y0010673D02*
X0008474D01*
X0013985Y0010664D02*
X0008474D01*
X0013985Y0010655D02*
X0008474D01*
X0013985Y0010646D02*
X0008474D01*
X0013985Y0010637D02*
X0008474D01*
X0013985Y0010628D02*
X0008474D01*
X0013985Y0010619D02*
X0008474D01*
X0013985Y0010610D02*
X0008474D01*
X0013985Y0010601D02*
X0008474D01*
X0013985Y0010592D02*
X0008474D01*
X0013985Y0010583D02*
X0008474D01*
X0013985Y0010574D02*
X0008474D01*
X0013985Y0010565D02*
X0008474D01*
X0013985Y0010556D02*
X0008474D01*
X0013985Y0010547D02*
X0008474D01*
X0013985Y0010538D02*
X0008474D01*
X0013985Y0010529D02*
X0008474D01*
X0013985Y0010520D02*
X0008474D01*
X0013985Y0010511D02*
X0008474D01*
X0013985Y0010502D02*
X0008474D01*
X0013985Y0010493D02*
X0008474D01*
X0013985Y0010484D02*
X0008474D01*
X0013985Y0010475D02*
X0008474D01*
X0013985Y0010466D02*
X0008474D01*
X0013985Y0010457D02*
X0008474D01*
X0013985Y0010448D02*
X0008474D01*
X0013985Y0010439D02*
X0008474D01*
X0013985Y0010430D02*
X0008474D01*
X0013985Y0010421D02*
X0008474D01*
X0013985Y0010412D02*
X0008474D01*
X0013985Y0010403D02*
X0008474D01*
X0013985Y0010394D02*
X0008474D01*
X0013985Y0010385D02*
X0008474D01*
X0013985Y0010376D02*
X0008474D01*
X0013985Y0010367D02*
X0008474D01*
X0013985Y0010358D02*
X0008474D01*
X0013985Y0010349D02*
X0008474D01*
X0013985Y0010340D02*
X0008474D01*
X0013985Y0010331D02*
X0008474D01*
X0013985Y0010322D02*
X0008474D01*
X0013985Y0010313D02*
X0008474D01*
X0013985Y0010304D02*
X0008474D01*
X0013985Y0010295D02*
X0008474D01*
X0013985Y0010286D02*
X0008474D01*
X0013985Y0010277D02*
X0008474D01*
X0013985Y0010268D02*
X0008474D01*
X0013985Y0010259D02*
X0008474D01*
X0013985Y0010250D02*
X0008474D01*
X0013985Y0010241D02*
X0008474D01*
X0013985Y0010232D02*
X0008474D01*
X0013985Y0010223D02*
X0008474D01*
X0013985Y0010214D02*
X0008474D01*
X0013985Y0010205D02*
X0008474D01*
X0013985Y0010196D02*
X0008474D01*
X0013985Y0010187D02*
X0008474D01*
X0013985Y0010178D02*
X0008474D01*
X0013985Y0010169D02*
X0008474D01*
X0013985Y0010160D02*
X0008474D01*
X0013985Y0010151D02*
X0008474D01*
X0013985Y0010142D02*
X0008474D01*
X0013985Y0010133D02*
X0008474D01*
X0013985Y0010124D02*
X0008474D01*
X0013985Y0010115D02*
X0008474D01*
X0013985Y0010106D02*
X0008474D01*
X0013985Y0010097D02*
X0008474D01*
X0013985Y0010088D02*
X0008474D01*
X0013985Y0010079D02*
X0008474D01*
X0013985Y0010070D02*
X0008474D01*
X0013985Y0010061D02*
X0008474D01*
X0013985Y0010052D02*
X0008474D01*
X0013985Y0010043D02*
X0008474D01*
X0013985Y0010034D02*
X0008474D01*
X0013985Y0010025D02*
X0008474D01*
X0013985Y0010016D02*
X0008474D01*
X0013985Y0010007D02*
X0008474D01*
X0013985Y0009998D02*
X0008474D01*
X0013985Y0009989D02*
X0008474D01*
X0013985Y0009980D02*
X0008474D01*
X0013985Y0009971D02*
X0008474D01*
X0013985Y0009962D02*
X0008474D01*
X0013985Y0009953D02*
X0008474D01*
X0013985Y0009944D02*
X0008474D01*
X0013985Y0009935D02*
X0008474D01*
X0013985Y0009926D02*
X0008474D01*
X0013985Y0009917D02*
X0008474D01*
X0013985Y0009908D02*
X0008474D01*
X0013985Y0009899D02*
X0008474D01*
X0013985Y0009890D02*
X0008474D01*
X0013985Y0009881D02*
X0008474D01*
X0013985Y0009872D02*
X0008474D01*
X0013985Y0009863D02*
X0008474D01*
X0013985Y0009854D02*
X0008474D01*
X0013985Y0009845D02*
X0008474D01*
X0013985Y0009836D02*
X0008474D01*
X0013985Y0009827D02*
X0008474D01*
X0013985Y0009818D02*
X0008474D01*
X0013985Y0009809D02*
X0008474D01*
X0013985Y0009800D02*
X0008474D01*
X0013985Y0009791D02*
X0008474D01*
X0013985Y0009782D02*
X0008474D01*
X0013985Y0009773D02*
X0008474D01*
X0013985Y0009764D02*
X0008474D01*
X0013985Y0009755D02*
X0008474D01*
X0013985Y0009746D02*
X0008474D01*
X0013985Y0009737D02*
X0008474D01*
X0013985Y0009728D02*
X0008474D01*
X0013985Y0009719D02*
X0008474D01*
X0013985Y0009710D02*
X0008474D01*
X0013985Y0009701D02*
X0008474D01*
X0013985Y0009692D02*
X0008474D01*
X0013985Y0009683D02*
X0008474D01*
X0013985Y0009674D02*
X0008474D01*
X0013985Y0009665D02*
X0008474D01*
X0013985Y0009656D02*
X0008474D01*
X0013985Y0009647D02*
X0008474D01*
X0013985Y0009638D02*
X0008474D01*
X0013985Y0009629D02*
X0008474D01*
X0013985Y0009620D02*
X0008474D01*
X0013985Y0009611D02*
X0008474D01*
X0013985Y0009602D02*
X0008474D01*
X0013985Y0009593D02*
X0008474D01*
X0013985Y0009584D02*
X0008474D01*
X0013985Y0009575D02*
X0008474D01*
X0013985Y0009566D02*
X0008474D01*
X0013985Y0009557D02*
X0008474D01*
X0013985Y0009548D02*
X0008474D01*
X0013985Y0009539D02*
X0008474D01*
X0013985Y0009530D02*
X0008474D01*
X0013985Y0009521D02*
X0008474D01*
X0013985Y0009512D02*
X0008474D01*
X0013985Y0009503D02*
X0008474D01*
X0013985Y0009494D02*
X0008474D01*
X0013985Y0009485D02*
X0008474D01*
X0013985Y0009476D02*
X0008474D01*
X0013985Y0009467D02*
X0008474D01*
X0013985Y0009458D02*
X0008474D01*
X0013985Y0009449D02*
X0008474D01*
X0013985Y0009440D02*
X0008474D01*
X0013985Y0009431D02*
X0008474D01*
X0013985Y0009422D02*
X0008474D01*
X0013985Y0009413D02*
X0008474D01*
X0013985Y0009404D02*
X0008474D01*
X0013985Y0009395D02*
X0008474D01*
X0013985Y0009386D02*
X0008474D01*
X0013985Y0012129D02*
Y0009373D01*
Y0012129D02*
X0008474D01*
Y0009373D01*
X0013985D02*
X0008474D01*
X0013977Y0012129D02*
Y0009373D01*
X0013968Y0012129D02*
Y0009373D01*
X0013959Y0012129D02*
Y0009373D01*
X0013950Y0012129D02*
Y0009373D01*
X0013941Y0012129D02*
Y0009373D01*
X0013932Y0012129D02*
Y0009373D01*
X0013923Y0012129D02*
Y0009373D01*
X0013914Y0012129D02*
Y0009373D01*
X0013905Y0012129D02*
Y0009373D01*
X0013896Y0012129D02*
Y0009373D01*
X0013887Y0012129D02*
Y0009373D01*
X0013878Y0012129D02*
Y0009373D01*
X0013869Y0012129D02*
Y0009373D01*
X0013860Y0012129D02*
Y0009373D01*
X0013851Y0012129D02*
Y0009373D01*
X0013842Y0012129D02*
Y0009373D01*
X0013833Y0012129D02*
Y0009373D01*
X0013824Y0012129D02*
Y0009373D01*
X0013815Y0012129D02*
Y0009373D01*
X0013806Y0012129D02*
Y0009373D01*
X0013797Y0012129D02*
Y0009373D01*
X0013788Y0012129D02*
Y0009373D01*
X0013779Y0012129D02*
Y0009373D01*
X0013770Y0012129D02*
Y0009373D01*
X0013761Y0012129D02*
Y0009373D01*
X0013752Y0012129D02*
Y0009373D01*
X0013743Y0012129D02*
Y0009373D01*
X0013734Y0012129D02*
Y0009373D01*
X0013725Y0012129D02*
Y0009373D01*
X0013716Y0012129D02*
Y0009373D01*
X0013707Y0012129D02*
Y0009373D01*
X0013698Y0012129D02*
Y0009373D01*
X0013689Y0012129D02*
Y0009373D01*
X0013680Y0012129D02*
Y0009373D01*
X0013671Y0012129D02*
Y0009373D01*
X0013662Y0012129D02*
Y0009373D01*
X0013653Y0012129D02*
Y0009373D01*
X0013644Y0012129D02*
Y0009373D01*
X0013635Y0012129D02*
Y0009373D01*
X0013626Y0012129D02*
Y0009373D01*
X0013617Y0012129D02*
Y0009373D01*
X0013608Y0012129D02*
Y0009373D01*
X0013599Y0012129D02*
Y0009373D01*
X0013590Y0012129D02*
Y0009373D01*
X0013581Y0012129D02*
Y0009373D01*
X0013572Y0012129D02*
Y0009373D01*
X0013563Y0012129D02*
Y0009373D01*
X0013554Y0012129D02*
Y0009373D01*
X0013545Y0012129D02*
Y0009373D01*
X0013536Y0012129D02*
Y0009373D01*
X0013527Y0012129D02*
Y0009373D01*
X0013518Y0012129D02*
Y0009373D01*
X0013509Y0012129D02*
Y0009373D01*
X0013500Y0012129D02*
Y0009373D01*
X0013491Y0012129D02*
Y0009373D01*
X0013482Y0012129D02*
Y0009373D01*
X0013473Y0012129D02*
Y0009373D01*
X0013464Y0012129D02*
Y0009373D01*
X0013455Y0012129D02*
Y0009373D01*
X0013446Y0012129D02*
Y0009373D01*
X0013437Y0012129D02*
Y0009373D01*
X0013428Y0012129D02*
Y0009373D01*
X0013419Y0012129D02*
Y0009373D01*
X0013410Y0012129D02*
Y0009373D01*
X0013401Y0012129D02*
Y0009373D01*
X0013392Y0012129D02*
Y0009373D01*
X0013383Y0012129D02*
Y0009373D01*
X0013374Y0012129D02*
Y0009373D01*
X0013365Y0012129D02*
Y0009373D01*
X0013356Y0012129D02*
Y0009373D01*
X0013347Y0012129D02*
Y0009373D01*
X0013338Y0012129D02*
Y0009373D01*
X0013329Y0012129D02*
Y0009373D01*
X0013320Y0012129D02*
Y0009373D01*
X0013311Y0012129D02*
Y0009373D01*
X0013302Y0012129D02*
Y0009373D01*
X0013293Y0012129D02*
Y0009373D01*
X0013284Y0012129D02*
Y0009373D01*
X0013275Y0012129D02*
Y0009373D01*
X0013266Y0012129D02*
Y0009373D01*
X0013257Y0012129D02*
Y0009373D01*
X0013248Y0012129D02*
Y0009373D01*
X0013239Y0012129D02*
Y0009373D01*
X0013230Y0012129D02*
Y0009373D01*
X0013221Y0012129D02*
Y0009373D01*
X0013212Y0012129D02*
Y0009373D01*
X0013203Y0012129D02*
Y0009373D01*
X0013194Y0012129D02*
Y0009373D01*
X0013185Y0012129D02*
Y0009373D01*
X0013176Y0012129D02*
Y0009373D01*
X0013167Y0012129D02*
Y0009373D01*
X0013158Y0012129D02*
Y0009373D01*
X0013149Y0012129D02*
Y0009373D01*
X0013140Y0012129D02*
Y0009373D01*
X0013131Y0012129D02*
Y0009373D01*
X0013122Y0012129D02*
Y0009373D01*
X0013113Y0012129D02*
Y0009373D01*
X0013104Y0012129D02*
Y0009373D01*
X0013095Y0012129D02*
Y0009373D01*
X0013086Y0012129D02*
Y0009373D01*
X0013077Y0012129D02*
Y0009373D01*
X0013068Y0012129D02*
Y0009373D01*
X0013059Y0012129D02*
Y0009373D01*
X0013050Y0012129D02*
Y0009373D01*
X0013041Y0012129D02*
Y0009373D01*
X0013032Y0012129D02*
Y0009373D01*
X0013023Y0012129D02*
Y0009373D01*
X0013014Y0012129D02*
Y0009373D01*
X0013005Y0012129D02*
Y0009373D01*
X0012996Y0012129D02*
Y0009373D01*
X0012987Y0012129D02*
Y0009373D01*
X0012978Y0012129D02*
Y0009373D01*
X0012969Y0012129D02*
Y0009373D01*
X0012960Y0012129D02*
Y0009373D01*
X0012951Y0012129D02*
Y0009373D01*
X0012942Y0012129D02*
Y0009373D01*
X0012933Y0012129D02*
Y0009373D01*
X0012924Y0012129D02*
Y0009373D01*
X0012915Y0012129D02*
Y0009373D01*
X0012906Y0012129D02*
Y0009373D01*
X0012897Y0012129D02*
Y0009373D01*
X0012888Y0012129D02*
Y0009373D01*
X0012879Y0012129D02*
Y0009373D01*
X0012870Y0012129D02*
Y0009373D01*
X0012861Y0012129D02*
Y0009373D01*
X0012852Y0012129D02*
Y0009373D01*
X0012843Y0012129D02*
Y0009373D01*
X0012834Y0012129D02*
Y0009373D01*
X0012825Y0012129D02*
Y0009373D01*
X0012816Y0012129D02*
Y0009373D01*
X0012807Y0012129D02*
Y0009373D01*
X0012798Y0012129D02*
Y0009373D01*
X0012789Y0012129D02*
Y0009373D01*
X0012780Y0012129D02*
Y0009373D01*
X0012771Y0012129D02*
Y0009373D01*
X0012762Y0012129D02*
Y0009373D01*
X0012753Y0012129D02*
Y0009373D01*
X0012744Y0012129D02*
Y0009373D01*
X0012735Y0012129D02*
Y0009373D01*
X0012726Y0012129D02*
Y0009373D01*
X0012717Y0012129D02*
Y0009373D01*
X0012708Y0012129D02*
Y0009373D01*
X0012699Y0012129D02*
Y0009373D01*
X0012690Y0012129D02*
Y0009373D01*
X0012681Y0012129D02*
Y0009373D01*
X0012672Y0012129D02*
Y0009373D01*
X0012663Y0012129D02*
Y0009373D01*
X0012654Y0012129D02*
Y0009373D01*
X0012645Y0012129D02*
Y0009373D01*
X0012636Y0012129D02*
Y0009373D01*
X0012627Y0012129D02*
Y0009373D01*
X0012618Y0012129D02*
Y0009373D01*
X0012609Y0012129D02*
Y0009373D01*
X0012600Y0012129D02*
Y0009373D01*
X0012591Y0012129D02*
Y0009373D01*
X0012582Y0012129D02*
Y0009373D01*
X0012573Y0012129D02*
Y0009373D01*
X0012564Y0012129D02*
Y0009373D01*
X0012555Y0012129D02*
Y0009373D01*
X0012546Y0012129D02*
Y0009373D01*
X0012537Y0012129D02*
Y0009373D01*
X0012528Y0012129D02*
Y0009373D01*
X0012519Y0012129D02*
Y0009373D01*
X0012510Y0012129D02*
Y0009373D01*
X0012501Y0012129D02*
Y0009373D01*
X0012492Y0012129D02*
Y0009373D01*
X0012483Y0012129D02*
Y0009373D01*
X0012474Y0012129D02*
Y0009373D01*
X0012465Y0012129D02*
Y0009373D01*
X0012456Y0012129D02*
Y0009373D01*
X0012447Y0012129D02*
Y0009373D01*
X0012438Y0012129D02*
Y0009373D01*
X0012429Y0012129D02*
Y0009373D01*
X0012420Y0012129D02*
Y0009373D01*
G54D89*
G01X0002129Y0020079D02*
Y0019912D01*
X0002074Y0019884D01*
X0002018D01*
X0001963Y0019912D01*
Y0020079D01*
X0002018Y0020107D01*
X0002074D01*
X0002296Y0019996D01*
X0002129Y0020338D02*
X0001963Y0020254D01*
X0002129Y0020477D02*
Y0020310D01*
X0002185Y0020254D01*
X0002240D01*
X0002296Y0020310D01*
Y0020477D01*
X0001963D01*
X0001852Y0020624D02*
Y0020847D01*
X0002018Y0020994D02*
X0001963Y0021022D01*
Y0021189D01*
X0002018Y0021217D01*
X0002240D01*
X0002296Y0021189D01*
Y0021022D01*
X0002240Y0020994D01*
X0001963Y0021559D02*
X0002296D01*
X0001963Y0021587D02*
Y0021420D01*
X0002018Y0021364D01*
X0002074D01*
X0002129Y0021392D01*
Y0021559D02*
Y0021392D01*
X0002185Y0021364D01*
X0002240D01*
X0002296Y0021420D01*
Y0021587D01*
X0005015Y0022902D02*
Y0023235D01*
X0005071Y0023179D01*
X0005182Y0022957D01*
X0005238Y0022902D01*
Y0023235D01*
X0005580D02*
X0005608Y0023179D01*
Y0022957D01*
X0005580Y0022902D01*
X0005413D01*
X0005385Y0022957D01*
Y0023179D01*
X0005413Y0023235D01*
X0005580D01*
X0001872Y0020310D02*
X0001390D01*
Y0021220D01*
X0001872D01*
Y0020310D01*
X0035710Y0005268D02*
Y0005750D01*
X0036620D01*
Y0005268D01*
X0035710D01*
X0030322Y0018800D02*
X0029840D01*
Y0019710D01*
X0030322D01*
Y0018800D01*
X0029842Y0017440D02*
X0029360D01*
Y0018350D01*
X0029842D01*
Y0017440D01*
X0029998Y0005180D02*
X0030480D01*
Y0004270D01*
X0029998D01*
Y0005180D01*
X0002620Y0012855D02*
X0002695Y0012780D01*
X0003120D01*
Y0010380D01*
X0002120D01*
Y0012780D01*
X0002545D01*
X0002620Y0012855D01*
X0002650Y0022785D02*
X0002725Y0022710D01*
X0003150D01*
Y0020310D01*
X0002150D01*
Y0022710D01*
X0002575D01*
X0002650Y0022785D01*
X0000580Y0009915D02*
X0000655Y0009840D01*
X0001080D01*
Y0007440D01*
X0000080D01*
Y0009840D01*
X0000505D01*
X0000580Y0009915D01*
X0004000Y0012855D02*
X0004075Y0012780D01*
X0004500D01*
Y0010380D01*
X0003500D01*
Y0012780D01*
X0003925D01*
X0004000Y0012855D01*
X0002620Y0009915D02*
X0002695Y0009840D01*
X0003120D01*
Y0007440D01*
X0002120D01*
Y0009840D01*
X0002545D01*
X0002620Y0009915D01*
X0004000D02*
X0004075Y0009840D01*
X0004500D01*
Y0007440D01*
X0003500D01*
Y0009840D01*
X0003925D01*
X0004000Y0009915D01*
X-0000750Y0012855D02*
X-0000675Y0012780D01*
X-0000250D01*
Y0010380D01*
X-0001250D01*
Y0012780D01*
X-0000825D01*
X-0000750Y0012855D01*
X0001530Y0014660D02*
X0004430D01*
Y0013160D01*
X0001530D01*
Y0014660D01*
X-0000750Y0009915D02*
X-0000675Y0009840D01*
X-0000250D01*
Y0007440D01*
X-0001250D01*
Y0009840D01*
X-0000825D01*
X-0000750Y0009915D01*
X0002213Y0025762D02*
X0001795Y0025345D01*
X0003231Y0023910D01*
X0004132Y0024811D01*
X0002697Y0026247D01*
X0002333Y0025883D01*
X0002213D01*
Y0025762D01*
X0019545Y0022580D02*
Y0021990D01*
X0021575D01*
Y0023265D01*
X0019545D01*
Y0022750D01*
X0019460Y0022665D01*
X0019545Y0022580D01*
X0044292Y0027007D02*
X0043875Y0027424D01*
X0042440Y0025989D01*
X0043341Y0025088D01*
X0044777Y0026523D01*
X0044413Y0026887D01*
Y0027007D01*
X0044292D01*
X0044357Y-0003632D02*
X0044774Y-0003215D01*
X0043339Y-0001780D01*
X0042438Y-0002681D01*
X0043873Y-0004117D01*
X0044237Y-0003753D01*
X0044357D01*
Y-0003632D01*
X0000580Y0012855D02*
X0000655Y0012780D01*
X0001080D01*
Y0010380D01*
X0000080D01*
Y0012780D01*
X0000505D01*
X0000580Y0012855D01*
X0007960Y0020470D02*
X0010860D01*
Y0018970D01*
X0007960D01*
Y0020470D01*
X0004270Y0022785D02*
X0004345Y0022710D01*
X0004770D01*
Y0020310D01*
X0003770D01*
Y0022710D01*
X0004195D01*
X0004270Y0022785D01*
X-0003350Y0010205D02*
X-0003425Y0010280D01*
X-0003850D01*
Y0012680D01*
X-0002850D01*
Y0010280D01*
X-0003275D01*
X-0003350Y0010205D01*
X0011568Y0017750D02*
X0012050D01*
Y0016840D01*
X0011568D01*
Y0017750D01*
X0019450Y0012262D02*
Y0011780D01*
X0018540D01*
Y0012262D01*
X0019450D01*
X0045502Y0025660D02*
X0045020D01*
Y0026570D01*
X0045502D01*
Y0025660D01*
X0025400Y0008838D02*
Y0009320D01*
X0026310D01*
Y0008838D01*
X0025400D01*
X0045382Y-0003720D02*
X0044900D01*
Y-0002810D01*
X0045382D01*
Y-0003720D01*
X0022868Y0018310D02*
X0023350D01*
Y0017400D01*
X0022868D01*
Y0018310D01*
X0025918Y0015150D02*
X0026400D01*
Y0014240D01*
X0025918D01*
Y0015150D01*
X0019450Y0011722D02*
Y0011240D01*
X0018540D01*
Y0011722D01*
X0019450D01*
Y0011182D02*
Y0010700D01*
X0018540D01*
Y0011182D01*
X0019450D01*
X0029842Y0018800D02*
X0029360D01*
Y0019710D01*
X0029842D01*
Y0018800D01*
X-0000842Y0025120D02*
X-0000360D01*
Y0024210D01*
X-0000842D01*
Y0025120D01*
X-0000932Y-0000360D02*
X-0000450D01*
Y-0001270D01*
X-0000932D01*
Y-0000360D01*
X0028515Y0013405D02*
X0027365D01*
Y0012760D01*
X0028515D01*
Y0013405D01*
X0031743Y0001435D02*
X0032225D01*
Y0000525D01*
X0031743D01*
Y0001435D01*
X0033693D02*
X0034175D01*
Y0000525D01*
X0033693D01*
Y0001435D01*
X0044280Y-0002372D02*
Y-0001890D01*
X0045190D01*
Y-0002372D01*
X0044280D01*
X0019545Y0000630D02*
Y0000040D01*
X0021575D01*
Y0001315D01*
X0019545D01*
Y0000800D01*
X0019460Y0000715D01*
X0019545Y0000630D01*
X0002278Y-0002537D02*
X0002695Y-0002954D01*
X0004130Y-0001519D01*
X0003229Y-0000618D01*
X0001793Y-0002053D01*
X0002157Y-0002417D01*
Y-0002537D01*
X0002278D01*
X0019730Y0001718D02*
Y0002200D01*
X0020640D01*
Y0001718D01*
X0019730D01*
X0001610Y-0002318D02*
Y-0002800D01*
X0000700D01*
Y-0002318D01*
X0001610D01*
X0001680Y0026192D02*
Y0025710D01*
X0000770D01*
Y0026192D01*
X0001680D01*
X0019730Y0021238D02*
Y0021720D01*
X0020640D01*
Y0021238D01*
X0019730D01*
X0046662Y0016910D02*
X0046180D01*
Y0017820D01*
X0046662D01*
Y0016910D01*
X0044318Y0025740D02*
X0044800D01*
Y0024830D01*
X0044318D01*
Y0025740D01*
X0047892Y0016910D02*
X0047410D01*
Y0017820D01*
X0047892D01*
Y0016910D01*
X0041760Y-0001672D02*
Y-0001190D01*
X0042670D01*
Y-0001672D01*
X0041760D01*
X0042805Y0000810D02*
X0041280D01*
Y-0000890D01*
X0042880D01*
Y0000735D01*
X0042805Y0000810D01*
X0003568Y0016160D02*
X0004050D01*
Y0015250D01*
X0003568D01*
Y0016160D01*
X0017120Y0012170D02*
Y0011020D01*
X0017765D01*
Y0012170D01*
X0017120D01*
X0010810Y0014290D02*
Y0016490D01*
X0011710D01*
Y0014290D01*
X0010810D01*
X0016115Y0017010D02*
X0014815D01*
Y0014760D01*
X0016115D01*
Y0014735D01*
Y0017010D01*
X0002312Y0015250D02*
X0001830D01*
Y0016160D01*
X0002312D01*
Y0015250D01*
X0017128Y0010370D02*
X0017610D01*
Y0009460D01*
X0017128D01*
Y0010370D01*
X0003162Y0015250D02*
X0002680D01*
Y0016160D01*
X0003162D01*
Y0015250D01*
X0017420Y0012980D02*
X0014520D01*
Y0014480D01*
X0017420D01*
Y0012980D01*
X0041570Y0013162D02*
Y0012680D01*
X0040660D01*
Y0013162D01*
X0041570D01*
X0038200Y0020402D02*
Y0019920D01*
X0037290D01*
Y0020402D01*
X0038200D01*
X0041606Y0010092D02*
Y0009610D01*
X0040696D01*
Y0010092D01*
X0041606D01*
X0036490Y0022482D02*
Y0022000D01*
X0035580D01*
Y0022482D01*
X0036490D01*
X0043128Y0012210D02*
X0043610D01*
Y0011300D01*
X0043128D01*
Y0012210D01*
X0041765Y0013835D02*
Y0012685D01*
X0042410D01*
Y0013835D01*
X0041765D01*
X0036230Y0020542D02*
Y0020060D01*
X0035320D01*
Y0020542D01*
X0036230D01*
X0042395Y0015505D02*
X0041245D01*
Y0014860D01*
X0042395D01*
Y0015505D01*
X0035170Y0020542D02*
Y0020060D01*
X0034260D01*
Y0020542D01*
X0035170D01*
X0035370Y0022482D02*
Y0022000D01*
X0034460D01*
Y0022482D01*
X0035370D01*
X0040670Y0010278D02*
Y0010760D01*
X0041580D01*
Y0010278D01*
X0040670D01*
X0037225Y0021745D02*
Y0020595D01*
X0037870D01*
Y0021745D01*
X0037225D01*
X0042922Y0011310D02*
X0042440D01*
Y0012220D01*
X0042922D01*
Y0011310D01*
X0040660Y0013368D02*
Y0013850D01*
X0041570D01*
Y0013368D01*
X0040660D01*
G54D90*
G01X0016433Y0018133D02*
Y0014747D01*
X0019423D01*
Y0018133D01*
X0016433D01*
X0019423Y0015646D02*
X0016433D01*
X0019423Y0017263D02*
Y0015615D01*
X0016433D01*
Y0017263D02*
Y0015615D01*
X0019423Y0017263D02*
X0016433D01*
X0019402D02*
Y0015615D01*
X0019366Y0017263D02*
Y0015615D01*
X0019331Y0017263D02*
Y0015615D01*
X0019296Y0017263D02*
Y0015615D01*
X0019260Y0017263D02*
Y0015615D01*
X0019225Y0017263D02*
Y0015615D01*
X0019189Y0017263D02*
Y0015615D01*
X0019154Y0017263D02*
Y0015615D01*
X0019119Y0017263D02*
Y0015615D01*
X0019083Y0017263D02*
Y0015615D01*
X0019048Y0017263D02*
Y0015615D01*
X0019012Y0017263D02*
Y0015615D01*
X0018977Y0017263D02*
Y0015615D01*
X0018942Y0017263D02*
Y0015615D01*
X0018906Y0017263D02*
Y0015615D01*
X0018871Y0017263D02*
Y0015615D01*
X0018835Y0017263D02*
Y0015615D01*
X0018800Y0017263D02*
Y0015615D01*
X0018765Y0017263D02*
Y0015615D01*
X0018729Y0017263D02*
Y0015615D01*
X0018694Y0017263D02*
Y0015615D01*
X0018658Y0017263D02*
Y0015615D01*
X0018623Y0017263D02*
Y0015615D01*
X0018588Y0017263D02*
Y0015615D01*
X0018552Y0017263D02*
Y0015615D01*
X0018517Y0017263D02*
Y0015615D01*
X0018481Y0017263D02*
Y0015615D01*
X0018446Y0017263D02*
Y0015615D01*
X0018411Y0017263D02*
Y0015615D01*
X0018375Y0017263D02*
Y0015615D01*
X0018340Y0017263D02*
Y0015615D01*
X0018304Y0017263D02*
Y0015615D01*
X0018269Y0017263D02*
Y0015615D01*
X0018234Y0017263D02*
Y0015615D01*
X0018198Y0017263D02*
Y0015615D01*
X0018163Y0017263D02*
Y0015615D01*
X0018127Y0017263D02*
Y0015615D01*
X0018092Y0017263D02*
Y0015615D01*
X0018057Y0017263D02*
Y0015615D01*
X0018021Y0017263D02*
Y0015615D01*
X0017986Y0017263D02*
Y0015615D01*
X0017950Y0017263D02*
Y0015615D01*
X0017915Y0017263D02*
Y0015615D01*
X0017880Y0017263D02*
Y0015615D01*
X0017844Y0017263D02*
Y0015615D01*
X0017809Y0017263D02*
Y0015615D01*
X0017774Y0017263D02*
Y0015615D01*
X0017738Y0017263D02*
Y0015615D01*
X0017703Y0017263D02*
Y0015615D01*
X0017667Y0017263D02*
Y0015615D01*
X0017632Y0017263D02*
Y0015615D01*
X0017597Y0017263D02*
Y0015615D01*
X0017561Y0017263D02*
Y0015615D01*
X0017526Y0017263D02*
Y0015615D01*
X0017490Y0017263D02*
Y0015615D01*
X0017455Y0017263D02*
Y0015615D01*
X0017420Y0017263D02*
Y0015615D01*
X0017384Y0017263D02*
Y0015615D01*
X0017349Y0017263D02*
Y0015615D01*
X0017313Y0017263D02*
Y0015615D01*
X0017278Y0017263D02*
Y0015615D01*
X0017243Y0017263D02*
Y0015615D01*
X0017207Y0017263D02*
Y0015615D01*
X0017172Y0017263D02*
Y0015615D01*
X0017136Y0017263D02*
Y0015615D01*
X0017101Y0017263D02*
Y0015615D01*
X0017066Y0017263D02*
Y0015615D01*
X0017030Y0017263D02*
Y0015615D01*
X0016995Y0017263D02*
Y0015615D01*
X0016959Y0017263D02*
Y0015615D01*
X0016924Y0017263D02*
Y0015615D01*
X0016889Y0017263D02*
Y0015615D01*
X0016853Y0017263D02*
Y0015615D01*
X0016818Y0017263D02*
Y0015615D01*
X0016782Y0017263D02*
Y0015615D01*
X0016747Y0017263D02*
Y0015615D01*
X0016712Y0017263D02*
Y0015615D01*
X0016676Y0017263D02*
Y0015615D01*
X0016641Y0017263D02*
Y0015615D01*
X0016605Y0017263D02*
Y0015615D01*
X0016570Y0017263D02*
Y0015615D01*
X0016535Y0017263D02*
Y0015615D01*
X0016499Y0017263D02*
Y0015615D01*
X0016464Y0017263D02*
Y0015615D01*
X0019423Y0017239D02*
X0016433D01*
X0019423Y0017203D02*
X0016433D01*
X0019423Y0017168D02*
X0016433D01*
X0019423Y0017132D02*
X0016433D01*
X0019423Y0017097D02*
X0016433D01*
X0019423Y0017062D02*
X0016433D01*
X0019423Y0017026D02*
X0016433D01*
X0019423Y0016991D02*
X0016433D01*
X0019423Y0016956D02*
X0016433D01*
X0019423Y0016920D02*
X0016433D01*
X0019423Y0016885D02*
X0016433D01*
X0019423Y0016849D02*
X0016433D01*
X0019423Y0016814D02*
X0016433D01*
X0019423Y0016779D02*
X0016433D01*
X0019423Y0016743D02*
X0016433D01*
X0019423Y0016708D02*
X0016433D01*
X0019423Y0016672D02*
X0016433D01*
X0019423Y0016637D02*
X0016433D01*
X0019423Y0016602D02*
X0016433D01*
X0019423Y0016566D02*
X0016433D01*
X0019423Y0016531D02*
X0016433D01*
X0019423Y0016495D02*
X0016433D01*
X0019423Y0016460D02*
X0016433D01*
X0019423Y0016425D02*
X0016433D01*
X0019423Y0016389D02*
X0016433D01*
X0019423Y0016354D02*
X0016433D01*
X0019423Y0016318D02*
X0016433D01*
X0019423Y0016283D02*
X0016433D01*
X0019423Y0016248D02*
X0016433D01*
X0019423Y0016212D02*
X0016433D01*
X0019423Y0016177D02*
X0016433D01*
X0019423Y0016141D02*
X0016433D01*
X0019423Y0016106D02*
X0016433D01*
X0019423Y0016071D02*
X0016433D01*
X0019423Y0016035D02*
X0016433D01*
X0019423Y0016000D02*
X0016433D01*
X0019423Y0015964D02*
X0016433D01*
X0019423Y0015929D02*
X0016433D01*
X0019423Y0015894D02*
X0016433D01*
X0019423Y0015858D02*
X0016433D01*
X0019423Y0015823D02*
X0016433D01*
X0019423Y0015787D02*
X0016433D01*
X0019423Y0015752D02*
X0016433D01*
X0019423Y0015717D02*
X0016433D01*
X0019423Y0015681D02*
X0016433D01*
X0041474Y0003651D02*
Y0002548D01*
X0043521D01*
Y0003651D01*
X0041474D01*
X-0001218Y0000698D02*
X-0003974D01*
Y-0002806D01*
X-0001218D01*
Y0000698D01*
X0045728Y-0004798D02*
X0048484D01*
Y-0001294D01*
X0045728D01*
Y-0004798D01*
Y0024602D02*
X0048484D01*
Y0028106D01*
X0045728D01*
Y0024602D01*
X0026378Y0020519D02*
Y0023275D01*
X0022874D01*
Y0020519D01*
X0026378D01*
X0022872Y0002781D02*
Y0000025D01*
X0026376D01*
Y0002781D01*
X0022872D01*
X-0001218Y0026098D02*
X-0003974D01*
Y0022594D01*
X-0001218D01*
Y0026098D01*
X0032813Y0000507D02*
X0033128D01*
Y0001255D01*
X0032813D01*
Y0000507D01*
X0015942Y0007496D02*
X0015627D01*
X0015942Y0007461D02*
X0015627D01*
X0015942Y0007426D02*
X0015627D01*
X0015942Y0007390D02*
X0015627D01*
X0015942Y0007355D02*
X0015627D01*
X0015942Y0007319D02*
X0015627D01*
X0015942Y0007284D02*
X0015627D01*
X0015942Y0007249D02*
X0015627D01*
X0015942Y0007213D02*
X0015627D01*
X0015942Y0007178D02*
X0015627D01*
X0015942Y0007142D02*
X0015627D01*
X0015942Y0007107D02*
X0015627D01*
X0015942Y0007072D02*
X0015627D01*
X0015942Y0007036D02*
X0015627D01*
X0015942Y0007992D02*
X0015627D01*
X0015942Y0007957D02*
X0015627D01*
X0015942Y0007921D02*
X0015627D01*
X0015942Y0007886D02*
X0015627D01*
X0015942Y0007850D02*
X0015627D01*
X0015942Y0007815D02*
X0015627D01*
X0015942Y0007780D02*
X0015627D01*
X0015942Y0007744D02*
X0015627D01*
X0015942Y0007709D02*
X0015627D01*
X0015942Y0007673D02*
X0015627D01*
X0015942Y0007638D02*
X0015627D01*
X0015942Y0007603D02*
X0015627D01*
X0015942Y0007567D02*
X0015627D01*
X0015942Y0007532D02*
X0015627D01*
X0015870Y0008230D02*
Y0006970D01*
X0015835Y0008230D02*
Y0006970D01*
X0015799Y0008230D02*
Y0006970D01*
X0015764Y0008230D02*
Y0006970D01*
X0015729Y0008230D02*
Y0006970D01*
X0015693Y0008230D02*
Y0006970D01*
X0015658Y0008230D02*
Y0006970D01*
X0015942Y0008204D02*
X0015627D01*
X0015942Y0008169D02*
X0015627D01*
X0015942Y0008134D02*
X0015627D01*
X0015942Y0008098D02*
X0015627D01*
X0015942Y0008063D02*
X0015627D01*
X0015942Y0008027D02*
X0015627D01*
X0015942Y0007001D02*
X0015627D01*
X0015942Y0008230D02*
Y0006970D01*
Y0008230D02*
X0015627D01*
Y0006970D01*
X0015942D02*
X0015627D01*
X0015906Y0008230D02*
Y0006970D01*
X0034562Y0021492D02*
Y0021177D01*
X0035310D01*
Y0021492D01*
X0034562D01*
X0035482D02*
Y0021177D01*
X0036230D01*
Y0021492D01*
X0035482D01*
X0043774Y0013682D02*
X0042613D01*
Y0014796D01*
X0043774D01*
Y0013682D01*
X0043425Y0014788D02*
Y0013689D01*
X0040037Y0019180D02*
X0039840D01*
Y0018983D01*
X0041808D02*
Y0019180D01*
X0041611D01*
Y0017211D02*
X0041808D01*
Y0017408D01*
X0039840D02*
Y0017211D01*
X0040037D01*
X0018511Y0008011D02*
Y0000610D01*
X0016167D01*
Y0008011D01*
X0018511D01*
X0003508Y0019181D02*
Y0019378D01*
X0003311D01*
Y0017410D02*
X0003508D01*
Y0017607D01*
X0001540D02*
Y0017410D01*
X0001737D01*
Y0019378D02*
X0001540D01*
Y0019181D01*
G01X0042497Y0002628D02*
G03X0042969Y0003100I0000000J0000472D01*
G01X0042025D02*
G03X0042497Y0002628I0000472J0000000D01*
Y0003573D02*
G03X0042024Y0003100I0000000J0000473D01*
G01X0042970D02*
G03X0042497Y0003573I0000473J0000000D01*
G01X0014702Y0006202D02*
G03X0016100Y0007600I0000000J0001398D01*
G01X0013304D02*
G03X0014702Y0006202I0001398J0000000D01*
Y0008998D02*
G03X0013304Y0007600I0000000J0001398D01*
G01X0016100D02*
G03X0014702Y0008998I0001398J0000000D01*
G54D91*
G01X0029990Y0017688D02*
X0029957Y0017671D01*
Y0017571D01*
X0029990Y0017554D01*
X0030057D01*
X0030090Y0017588D01*
Y0017688D01*
X0030157D01*
Y0017554D01*
X0029957Y0017844D02*
Y0017978D01*
X0030090Y0017844D01*
X0030124D01*
X0030157Y0017861D01*
Y0017961D01*
X0030124Y0017978D01*
X0030057Y0018184D02*
X0029957Y0018134D01*
X0030057Y0018268D02*
Y0018168D01*
X0030090Y0018134D01*
X0030124D01*
X0030157Y0018168D01*
Y0018268D01*
X0029957D01*
X0029839Y0004952D02*
X0029873Y0004985D01*
Y0005052D01*
X0029839Y0005085D01*
X0029806D01*
X0029739Y0005019D01*
X0029673Y0005085D01*
Y0004952D01*
X0029806Y0004795D02*
Y0004662D01*
X0029673Y0004729D01*
Y0004762D01*
X0029873D01*
X0029773Y0004455D02*
X0029873Y0004505D01*
X0029773Y0004372D02*
Y0004472D01*
X0029739Y0004505D01*
X0029706D01*
X0029673Y0004472D01*
Y0004372D01*
X0029873D01*
X0000507Y0012950D02*
X0000473Y0012967D01*
Y0013067D01*
X0000507Y0013083D01*
X0000640D01*
X0000673Y0013067D01*
Y0012967D01*
X0000640Y0012950D01*
X0002547D02*
X0002513Y0012967D01*
Y0013067D01*
X0002547Y0013083D01*
X0002680D01*
X0002713Y0013067D01*
Y0012967D01*
X0002680Y0012950D01*
X0004232Y0014727D02*
X0004165D01*
X0004199D02*
Y0014927D01*
X0004165Y0014894D01*
X0003975D02*
X0003959Y0014927D01*
X0003859D01*
X0003842Y0014894D01*
Y0014860D01*
X0003859Y0014827D01*
X0003959D01*
X0003975Y0014794D01*
Y0014760D01*
X0003959Y0014727D01*
X0003859D01*
X0003842Y0014760D01*
X0003685Y0014927D02*
Y0014727D01*
X0003652Y0014760D01*
X0003585Y0014894D01*
X0003552Y0014927D01*
Y0014727D01*
X0003362Y0014827D02*
X0003262D01*
X0003395Y0014727D02*
X0003262D01*
Y0014927D01*
X0003395D01*
X0003105Y0014894D02*
X0003089Y0014927D01*
X0002989D01*
X0002972Y0014894D01*
Y0014860D01*
X0002989Y0014827D01*
X0003089D01*
X0003105Y0014794D01*
Y0014760D01*
X0003089Y0014727D01*
X0002989D01*
X0002972Y0014760D01*
X0002765Y0014827D02*
X0002815Y0014727D01*
X0002682Y0014827D02*
X0002782D01*
X0002815Y0014860D01*
Y0014894D01*
X0002782Y0014927D01*
X0002682D01*
Y0014727D01*
X0002525Y0014660D02*
X0002392D01*
X0002235Y0014727D02*
Y0014927D01*
X0002202Y0014894D01*
X0002169Y0014827D01*
X0002135Y0014894D01*
X0002102Y0014927D01*
Y0014727D01*
X0001829D02*
Y0014927D01*
X0001812Y0014727D02*
X0001912D01*
X0001945Y0014760D01*
Y0014794D01*
X0001929Y0014827D01*
X0001829D02*
X0001929D01*
X0001945Y0014860D01*
Y0014894D01*
X0001912Y0014927D01*
X0001812D01*
X0001212Y0011279D02*
X0001245Y0011312D01*
X0001279Y0011329D01*
X0001345D01*
X0001379Y0011312D01*
X0001412Y0011279D01*
Y0011245D01*
X0001379Y0011212D01*
X0001345Y0011195D01*
X0001279D01*
X0001245Y0011212D01*
X0001212Y0011245D01*
Y0011279D01*
Y0011485D02*
Y0011619D01*
X0001345Y0011485D01*
X0001379D01*
X0001412Y0011502D01*
Y0011602D01*
X0001379Y0011619D01*
X0001212Y0011892D02*
X0001412D01*
X0001212Y0011909D02*
Y0011809D01*
X0001279Y0011775D01*
X0001345D01*
X0001412Y0011809D01*
Y0011909D01*
X0004227Y0022850D02*
X0004193Y0022867D01*
Y0022967D01*
X0004227Y0022983D01*
X0004360D01*
X0004393Y0022967D01*
Y0022867D01*
X0004360Y0022850D01*
X0004260Y0020090D02*
Y0020223D01*
X0004193Y0020090D02*
X0004293D01*
X0004393Y0020140D01*
Y0020173D01*
X0004293Y0020223D01*
X0004193D01*
X0004892Y0021265D02*
X0005092Y0021165D01*
Y0021299D01*
X0004892Y0021455D02*
Y0021589D01*
X0005025Y0021455D01*
X0005059D01*
X0005092Y0021472D01*
Y0021572D01*
X0005059Y0021589D01*
X0004892Y0021862D02*
X0005092D01*
X0004892Y0021879D02*
Y0021779D01*
X0004959Y0021745D01*
X0005025D01*
X0005092Y0021779D01*
Y0021879D01*
X0001905Y0011875D02*
Y0011775D01*
X0001872Y0011759D01*
X0001839D01*
X0001805Y0011775D01*
Y0011875D01*
X0001839Y0011892D01*
X0001872D01*
X0002005Y0011825D01*
Y0011602D02*
Y0011535D01*
Y0011569D02*
X0001805D01*
X0001839Y0011535D01*
X0002005Y0011229D02*
X0001805D01*
X0002005Y0011212D02*
Y0011312D01*
X0001939Y0011345D01*
X0001872D01*
X0001805Y0011312D01*
Y0011212D01*
X0000570Y0007210D02*
Y0007343D01*
X0000503Y0007210D02*
X0000603D01*
X0000703Y0007260D01*
Y0007293D01*
X0000603Y0007343D01*
X0000503D01*
X0001893Y0024860D02*
X0001798Y0024955D01*
X0001940Y0025002D01*
X0001963Y0024978D01*
X0001822Y0024837D01*
X0001558Y0025101D02*
X0001699Y0025242D01*
X0001546Y0025113D02*
X0001617Y0025042D01*
X0001687Y0025065D01*
X0001735Y0025113D01*
X0001758Y0025183D01*
X0001687Y0025254D01*
X0042068Y0017431D02*
Y0017498D01*
Y0017465D02*
X0042268D01*
X0042235Y0017498D01*
X0042068Y0017688D02*
Y0017805D01*
X0042268D01*
X0042168Y0017995D02*
Y0018095D01*
X0042068Y0017961D02*
Y0018095D01*
X0042268D01*
Y0017961D01*
X0042102Y0018251D02*
X0042068Y0018268D01*
Y0018368D01*
X0042102Y0018385D01*
X0042235D01*
X0042268Y0018368D01*
Y0018268D01*
X0042235Y0018251D01*
X0042102Y0018541D02*
X0042068Y0018558D01*
Y0018658D01*
X0042102Y0018675D01*
X0042235D01*
X0042268Y0018658D01*
Y0018558D01*
X0042235Y0018541D01*
X0042135Y0018831D02*
Y0018965D01*
X0042068Y0018831D02*
X0042168D01*
X0042268Y0018881D01*
Y0018915D01*
X0042168Y0018965D01*
X0042068D01*
X0021869Y0022670D02*
X0021902Y0022704D01*
Y0022770D01*
X0021869Y0022804D01*
X0021835D01*
X0021769Y0022737D01*
X0021702Y0022804D01*
Y0022670D01*
X0021902Y0022397D02*
X0021702D01*
X0021902Y0022380D02*
Y0022480D01*
X0021835Y0022514D01*
X0021769D01*
X0021702Y0022480D01*
Y0022380D01*
X0044635Y0026942D02*
X0044541Y0027037D01*
X0044729D01*
X0044753Y0027060D01*
X0044765Y0027096D01*
X0044694Y0027166D01*
X0044659Y0027155D01*
X0044347Y0027230D02*
X0044489Y0027371D01*
X0044336Y0027242D02*
X0044406Y0027171D01*
X0044477Y0027195D01*
X0044524Y0027242D01*
X0044548Y0027312D01*
X0044477Y0027383D01*
X0019842Y0012454D02*
X0019709D01*
X0019775Y0012587D01*
X0019809D01*
Y0012387D01*
X0019552D02*
X0019485D01*
X0019519D02*
Y0012587D01*
X0019485Y0012554D01*
X0019245Y0012487D02*
X0019295Y0012387D01*
X0019162Y0012487D02*
X0019262D01*
X0019295Y0012520D01*
Y0012554D01*
X0019262Y0012587D01*
X0019162D01*
Y0012387D01*
X0043648Y-0001627D02*
X0043695Y-0001674D01*
X0043671Y-0001651D02*
X0043530Y-0001792D01*
X0043577D01*
X0043912Y-0001891D02*
X0043770Y-0002033D01*
X0043924Y-0001903D02*
X0043853Y-0001832D01*
X0043782Y-0001856D01*
X0043735Y-0001903D01*
X0043711Y-0001974D01*
X0043782Y-0002044D01*
X0041356Y0003462D02*
Y0003396D01*
Y0003429D02*
X0041156D01*
X0041190Y0003396D01*
X0041156Y0003206D02*
X0041323D01*
X0041356Y0003189D01*
X0041256Y0003139D01*
X0041223D02*
X0041256D01*
X0041356Y0003089D01*
X0041323Y0003072D01*
X0041156D01*
X0041190Y0002916D02*
X0041156Y0002899D01*
Y0002799D01*
X0041190Y0002782D01*
X0041223D01*
X0041256Y0002799D01*
Y0002899D01*
X0041290Y0002916D01*
X0041323D01*
X0041356Y0002899D01*
Y0002799D01*
X0041323Y0002782D01*
X-0003340Y0012900D02*
Y0012767D01*
X-0003273Y0012900D02*
X-0003373D01*
X-0003473Y0012850D01*
Y0012817D01*
X-0003373Y0012767D01*
X-0003273D01*
X-0003732Y0013408D02*
Y0013508D01*
X-0003699Y0013524D01*
X-0003665D01*
X-0003632Y0013508D01*
Y0013408D01*
X-0003665Y0013391D01*
X-0003699D01*
X-0003832Y0013458D01*
X-0003632Y0013234D02*
Y0013101D01*
X-0003765Y0013234D01*
X-0003799D01*
X-0003832Y0013218D01*
Y0013118D01*
X-0003799Y0013101D01*
X-0003632Y0012828D02*
X-0003832D01*
X-0003632Y0012811D02*
Y0012911D01*
X-0003699Y0012944D01*
X-0003765D01*
X-0003832Y0012911D01*
Y0012811D01*
X0003166Y0004047D02*
X0003200Y0004013D01*
X0003266D01*
X0003300Y0004047D01*
Y0004080D01*
X0003233Y0004147D01*
X0003300Y0004213D01*
X0003166D01*
X0003010Y0004013D02*
X0002943D01*
X0002976D02*
Y0004213D01*
X0002943Y0004180D01*
X0002753Y0004047D02*
X0002736Y0004013D01*
X0002636D01*
X0002620Y0004047D01*
Y0004180D01*
X0002636Y0004213D01*
X0002736D01*
X0002753Y0004180D01*
X0027525Y0017060D02*
X0027559Y0017027D01*
X0027625D01*
X0027659Y0017060D01*
Y0017093D01*
X0027592Y0017160D01*
X0027659Y0017227D01*
X0027525D01*
X0027302Y0017093D02*
X0027369Y0017027D01*
X0027235Y0017060D02*
X0027252Y0017027D01*
X0027319D01*
X0027335Y0017060D01*
X0027369Y0017093D01*
Y0017193D01*
X0027352Y0017227D01*
X0027252D01*
X0027235Y0017193D01*
Y0017060D01*
X0045250Y0025408D02*
Y0025508D01*
X0045284Y0025524D01*
X0045317D01*
X0045350Y0025508D01*
Y0025408D01*
X0045317Y0025391D01*
X0045284D01*
X0045150Y0025458D01*
X0045317Y0025234D02*
X0045350Y0025218D01*
Y0025118D01*
X0045317Y0025101D01*
X0045184D01*
X0045150Y0025118D01*
Y0025218D01*
X0045184Y0025234D01*
X0024370Y0011901D02*
Y0011835D01*
Y0011868D02*
X0024170D01*
X0024204Y0011835D01*
X0024370Y0011645D02*
Y0011578D01*
Y0011611D02*
X0024170D01*
X0024204Y0011578D01*
X0024170Y0011388D02*
X0024337D01*
X0024370Y0011371D01*
Y0011271D01*
X0024337Y0011255D01*
X0024170D01*
X-0001351Y-0000800D02*
Y-0000933D01*
X-0001484Y-0000800D01*
X-0001518D01*
X-0001551Y-0000816D01*
Y-0000916D01*
X-0001518Y-0000933D01*
X-0001451Y-0001140D02*
X-0001351Y-0001090D01*
X-0001451Y-0001223D02*
Y-0001123D01*
X-0001484Y-0001090D01*
X-0001518D01*
X-0001551Y-0001123D01*
Y-0001223D01*
X-0001351D01*
Y-0001380D02*
Y-0001446D01*
Y-0001413D02*
X-0001551D01*
Y-0001380D02*
Y-0001446D01*
X0045908Y-0003320D02*
Y-0003187D01*
X0046041Y-0003254D01*
Y-0003287D01*
X0045841D01*
X0045941Y-0002980D02*
X0045841Y-0003030D01*
X0045941Y-0002897D02*
Y-0002997D01*
X0045974Y-0003030D01*
X0046008D01*
X0046041Y-0002997D01*
Y-0002897D01*
X0045841D01*
Y-0002740D02*
Y-0002674D01*
Y-0002707D02*
X0046041D01*
Y-0002740D02*
Y-0002674D01*
X0025748Y0008783D02*
X0025648Y0008583D01*
X0025781D01*
X0025938Y0008783D02*
X0026004D01*
X0025971D02*
Y0008583D01*
X0026004Y0008616D01*
X0026194Y0008749D02*
X0026211Y0008783D01*
X0026311D01*
X0026328Y0008749D01*
Y0008616D01*
X0026311Y0008583D01*
X0026211D01*
X0026194Y0008616D01*
X0045244Y-0004072D02*
X0045344Y-0003872D01*
X0045210D01*
X0045054Y-0004039D02*
X0045037Y-0004072D01*
X0044937D01*
X0044920Y-0004039D01*
Y-0003905D01*
X0044937Y-0003872D01*
X0045037D01*
X0045054Y-0003905D01*
X0023113Y0019025D02*
Y0019125D01*
X0023146Y0019142D01*
X0023179D01*
X0023213Y0019125D01*
Y0019025D01*
X0023179Y0019009D01*
X0023146D01*
X0023013Y0019075D01*
X0023213Y0018852D02*
Y0018785D01*
Y0018819D02*
X0023013D01*
X0023046Y0018785D01*
X0023179Y0018595D02*
X0023213Y0018579D01*
Y0018479D01*
X0023179Y0018462D01*
X0023046D01*
X0023013Y0018479D01*
Y0018579D01*
X0023046Y0018595D01*
X0045874Y0026183D02*
X0045841Y0026150D01*
Y0026083D01*
X0045874Y0026050D01*
X0045908D01*
X0045974Y0026116D01*
X0046041Y0026050D01*
Y0026183D01*
X0045941Y0026390D02*
X0045841Y0026340D01*
X0045941Y0026473D02*
Y0026373D01*
X0045974Y0026340D01*
X0046008D01*
X0046041Y0026373D01*
Y0026473D01*
X0045841D01*
Y0026630D02*
Y0026696D01*
Y0026663D02*
X0046041D01*
Y0026630D02*
Y0026696D01*
X0021162Y0007737D02*
X0021062D01*
X0021045Y0007770D01*
Y0007803D01*
X0021062Y0007837D01*
X0021162D01*
X0021179Y0007803D01*
Y0007770D01*
X0021112Y0007637D01*
X0020889Y0007837D02*
Y0007670D01*
X0020872Y0007637D01*
X0020772D01*
X0020755Y0007670D01*
Y0007837D01*
X0024827Y0020656D02*
X0024844Y0020623D01*
X0024944D01*
X0024960Y0020656D01*
Y0020723D01*
X0024927Y0020756D01*
X0024827D01*
Y0020823D01*
X0024960D01*
X0024620Y0020723D02*
X0024670Y0020623D01*
X0024537Y0020723D02*
X0024637D01*
X0024670Y0020756D01*
Y0020789D01*
X0024637Y0020823D01*
X0024537D01*
Y0020623D01*
X0024380D02*
X0024314D01*
X0024347D02*
Y0020823D01*
X0024380D02*
X0024314D01*
X0026153Y0015965D02*
X0026119Y0015982D01*
X0026086D01*
X0026053Y0015965D01*
Y0015865D01*
X0026086Y0015849D01*
X0026119D01*
X0026153Y0015865D01*
Y0015965D01*
X0026186Y0015982D01*
X0026219D01*
X0026253Y0015965D01*
Y0015865D01*
X0026219Y0015849D01*
X0026186D01*
X0026153Y0015865D01*
X0026253Y0015692D02*
Y0015625D01*
Y0015659D02*
X0026053D01*
X0026086Y0015625D01*
X0026219Y0015435D02*
X0026253Y0015419D01*
Y0015319D01*
X0026219Y0015302D01*
X0026086D01*
X0026053Y0015319D01*
Y0015419D01*
X0026086Y0015435D01*
X0020981Y0009683D02*
X0021114D01*
X0020981Y0009550D01*
Y0009516D01*
X0020998Y0009483D01*
X0021098D01*
X0021114Y0009516D01*
X0021338Y0009616D02*
X0021271Y0009683D01*
X0021404Y0009650D02*
X0021388Y0009683D01*
X0021321D01*
X0021304Y0009650D01*
X0021271Y0009616D01*
Y0009516D01*
X0021288Y0009483D01*
X0021388D01*
X0021404Y0009516D01*
Y0009650D01*
X0018242Y0011250D02*
X0018209Y0011234D01*
Y0011134D01*
X0018242Y0011117D01*
X0018309D01*
X0018342Y0011150D01*
Y0011250D01*
X0018409D01*
Y0011117D01*
X0018209Y0011407D02*
Y0011474D01*
Y0011440D02*
X0018409D01*
X0018375Y0011474D01*
X0018309Y0011714D02*
X0018209Y0011664D01*
X0018309Y0011797D02*
Y0011697D01*
X0018342Y0011664D01*
X0018375D01*
X0018409Y0011697D01*
Y0011797D01*
X0018209D01*
X0018785Y0010470D02*
X0018685D01*
X0018669Y0010504D01*
Y0010537D01*
X0018685Y0010570D01*
X0018785D01*
X0018802Y0010537D01*
Y0010504D01*
X0018735Y0010370D01*
X0018959Y0010570D02*
X0019025D01*
X0018992D02*
Y0010370D01*
X0019025Y0010404D01*
X0019265Y0010470D02*
X0019215Y0010570D01*
X0019349Y0010470D02*
X0019249D01*
X0019215Y0010437D01*
Y0010404D01*
X0019249Y0010370D01*
X0019349D01*
Y0010570D01*
X0034834Y0005556D02*
X0034968D01*
X0034901Y0005423D01*
X0034868D01*
Y0005623D01*
X0035124Y0005556D02*
X0035258D01*
X0035191Y0005423D01*
X0035158D01*
Y0005623D01*
X0035464Y0005523D02*
X0035414Y0005623D01*
X0035548Y0005523D02*
X0035448D01*
X0035414Y0005489D01*
Y0005456D01*
X0035448Y0005423D01*
X0035548D01*
Y0005623D01*
X0023806Y0002964D02*
X0023906D01*
X0023923Y0002931D01*
Y0002897D01*
X0023906Y0002864D01*
X0023806D01*
X0023790Y0002897D01*
Y0002931D01*
X0023856Y0003064D01*
X0023583Y0002964D02*
X0023633Y0002864D01*
X0023500Y0002964D02*
X0023600D01*
X0023633Y0002997D01*
Y0003031D01*
X0023600Y0003064D01*
X0023500D01*
Y0002864D01*
X0023343D02*
X0023276D01*
X0023310D02*
Y0003064D01*
X0023343D02*
X0023276D01*
X-0001321Y0024607D02*
Y0024540D01*
Y0024574D02*
X-0001521D01*
X-0001488Y0024540D01*
X-0001421Y0024300D02*
X-0001321Y0024350D01*
X-0001421Y0024217D02*
Y0024317D01*
X-0001454Y0024350D01*
X-0001488D01*
X-0001521Y0024317D01*
Y0024217D01*
X-0001321D01*
Y0024060D02*
Y0023994D01*
Y0024027D02*
X-0001521D01*
Y0024060D02*
Y0023994D01*
X0029170Y0019554D02*
Y0019454D01*
X0029137Y0019438D01*
X0029104D01*
X0029070Y0019454D01*
Y0019554D01*
X0029104Y0019571D01*
X0029137D01*
X0029270Y0019504D01*
Y0019281D02*
Y0019214D01*
Y0019248D02*
X0029070D01*
X0029104Y0019214D01*
X0029170Y0018974D02*
X0029270Y0019024D01*
X0029170Y0018891D02*
Y0018991D01*
X0029137Y0019024D01*
X0029104D01*
X0029070Y0018991D01*
Y0018891D01*
X0029270D01*
X-0000394Y0025315D02*
X-0000527D01*
X-0000460Y0025449D01*
X-0000427D01*
Y0025249D01*
X-0000684Y0025282D02*
X-0000700Y0025249D01*
X-0000800D01*
X-0000817Y0025282D01*
Y0025415D01*
X-0000800Y0025449D01*
X-0000700D01*
X-0000684Y0025415D01*
X-0000627Y-0000188D02*
X-0000610Y-0000221D01*
X-0000510D01*
X-0000494Y-0000188D01*
Y-0000121D01*
X-0000527Y-0000088D01*
X-0000627D01*
Y-0000021D01*
X-0000494D01*
X-0000784Y-0000188D02*
X-0000800Y-0000221D01*
X-0000900D01*
X-0000917Y-0000188D01*
Y-0000054D01*
X-0000900Y-0000021D01*
X-0000800D01*
X-0000784Y-0000054D01*
X0030527Y0019011D02*
Y0018911D01*
X0030494Y0018894D01*
X0030460D01*
X0030427Y0018911D01*
Y0019011D01*
X0030460Y0019028D01*
X0030494D01*
X0030627Y0018961D01*
X0030427Y0019184D02*
Y0019318D01*
X0030560Y0019184D01*
X0030594D01*
X0030627Y0019201D01*
Y0019301D01*
X0030594Y0019318D01*
X0030527Y0019524D02*
X0030427Y0019474D01*
X0030527Y0019608D02*
Y0019508D01*
X0030560Y0019474D01*
X0030594D01*
X0030627Y0019508D01*
Y0019608D01*
X0030427D01*
X0028924Y0013033D02*
X0028958Y0012999D01*
X0029024D01*
X0029058Y0013033D01*
Y0013066D01*
X0028991Y0013133D01*
X0029058Y0013199D01*
X0028924D01*
X0028768Y0012999D02*
X0028651D01*
Y0013199D01*
X0031764Y0000347D02*
X0031831D01*
X0031798D02*
Y0000147D01*
X0031831Y0000180D01*
X0032021Y0000314D02*
X0032038Y0000347D01*
X0032138D01*
X0032154Y0000314D01*
Y0000180D01*
X0032138Y0000147D01*
X0032038D01*
X0032021Y0000180D01*
X0032642Y0000408D02*
X0032709D01*
X0032676D02*
Y0000208D01*
X0032709Y0000242D01*
X0032899Y0000208D02*
Y0000275D01*
X0032966Y0000408D01*
X0033032Y0000275D01*
Y0000208D01*
X0033189Y0000408D02*
X0033306D01*
Y0000208D01*
X0032958Y0000663D02*
Y0000697D01*
X0032925D01*
Y0000663D01*
X0032958D01*
X0013179Y0005544D02*
Y0005610D01*
Y0005577D02*
X0013379D01*
X0013345Y0005610D01*
Y0005800D02*
X0013379Y0005817D01*
Y0005917D01*
X0013345Y0005934D01*
X0013312D01*
X0013279Y0005917D01*
Y0005817D01*
X0013245Y0005800D01*
X0013212D01*
X0013179Y0005817D01*
Y0005917D01*
X0013212Y0005934D01*
X0013179Y0006090D02*
Y0006207D01*
X0013379D01*
X0033741Y0000367D02*
X0033874D01*
X0033741Y0000234D01*
Y0000200D01*
X0033758Y0000167D01*
X0033858D01*
X0033874Y0000200D01*
X0034031Y0000334D02*
X0034048Y0000367D01*
X0034148D01*
X0034164Y0000334D01*
Y0000200D01*
X0034148Y0000167D01*
X0034048D01*
X0034031Y0000200D01*
X0044418Y0004680D02*
X0044618Y0004580D01*
Y0004713D01*
X0044418Y0004987D02*
X0044618D01*
X0044418Y0005003D02*
Y0004903D01*
X0044485Y0004870D01*
X0044552D01*
X0044618Y0004903D01*
Y0005003D01*
X0000008Y0017577D02*
X0000042Y0017610D01*
X0000075Y0017627D01*
X0000142D01*
X0000175Y0017610D01*
X0000208Y0017577D01*
Y0017543D01*
X0000175Y0017510D01*
X0000142Y0017493D01*
X0000075D01*
X0000042Y0017510D01*
X0000008Y0017543D01*
Y0017577D01*
Y0017783D02*
Y0017850D01*
Y0017817D02*
X0000208D01*
X0000175Y0017850D01*
X0000008Y0018157D02*
X0000208D01*
X0000008Y0018173D02*
Y0018073D01*
X0000075Y0018040D01*
X0000142D01*
X0000208Y0018073D01*
Y0018173D01*
X0037272Y0002542D02*
X0037289Y0002575D01*
Y0002609D01*
X0037272Y0002642D01*
X0037172D01*
X0037155Y0002609D01*
Y0002575D01*
X0037172Y0002542D01*
X0037272D01*
X0037289Y0002509D01*
Y0002475D01*
X0037272Y0002442D01*
X0037172D01*
X0037155Y0002475D01*
Y0002509D01*
X0037172Y0002542D01*
X0036999Y0002642D02*
Y0002475D01*
X0036982Y0002442D01*
X0036882D01*
X0036865Y0002475D01*
Y0002642D01*
X0044931Y-0001760D02*
X0044864D01*
X0044898D02*
Y-0001560D01*
X0044864Y-0001594D01*
X0044624Y-0001660D02*
X0044674Y-0001760D01*
X0044541Y-0001660D02*
X0044641D01*
X0044674Y-0001627D01*
Y-0001594D01*
X0044641Y-0001560D01*
X0044541D01*
Y-0001760D01*
X0019939Y0001517D02*
X0020039D01*
X0020055Y0001484D01*
Y0001450D01*
X0020039Y0001417D01*
X0019939D01*
X0019922Y0001450D01*
Y0001484D01*
X0019989Y0001617D01*
X0019649Y0001417D02*
Y0001617D01*
X0019632Y0001417D02*
X0019732D01*
X0019765Y0001484D01*
Y0001550D01*
X0019732Y0001617D01*
X0019632D01*
X0000048Y0005397D02*
Y0005497D01*
X0000082Y0005513D01*
X0000115D01*
X0000148Y0005497D01*
Y0005397D01*
X0000115Y0005380D01*
X0000082D01*
X-0000052Y0005447D01*
Y0005787D02*
X0000148D01*
X-0000052Y0005803D02*
Y0005703D01*
X0000015Y0005670D01*
X0000082D01*
X0000148Y0005703D01*
Y0005803D01*
X0001929Y-0001655D02*
X0001964Y-0001667D01*
X0002035Y-0001596D01*
X0002023Y-0001561D01*
X0001976Y-0001514D01*
X0001929D01*
X0001858Y-0001584D01*
X0001811Y-0001537D01*
X0001905Y-0001443D01*
X0001759Y-0001872D02*
X0001618Y-0001731D01*
X0001747Y-0001884D02*
X0001818Y-0001813D01*
X0001794Y-0001742D01*
X0001747Y-0001695D01*
X0001677Y-0001672D01*
X0001606Y-0001742D01*
X0020838Y0001843D02*
Y0001743D01*
X0020804Y0001726D01*
X0020771D01*
X0020738Y0001743D01*
Y0001843D01*
X0020771Y0001859D01*
X0020804D01*
X0020938Y0001793D01*
X0020838Y0002066D02*
X0020738Y0002016D01*
X0020838Y0002149D02*
Y0002049D01*
X0020871Y0002016D01*
X0020904D01*
X0020938Y0002049D01*
Y0002149D01*
X0020738D01*
X0000519Y-0002469D02*
X0000552Y-0002453D01*
Y-0002353D01*
X0000519Y-0002336D01*
X0000452D01*
X0000419Y-0002369D01*
Y-0002469D01*
X0000352D01*
Y-0002336D01*
X0000452Y-0002676D02*
X0000552Y-0002626D01*
X0000452Y-0002759D02*
Y-0002659D01*
X0000419Y-0002626D01*
X0000385D01*
X0000352Y-0002659D01*
Y-0002759D01*
X0000552D01*
X0044448Y0020707D02*
X0044482Y0020690D01*
X0044515D01*
X0044548Y0020707D01*
Y0020807D01*
X0044515Y0020823D01*
X0044482D01*
X0044448Y0020807D01*
Y0020707D01*
X0044415Y0020690D01*
X0044382D01*
X0044348Y0020707D01*
Y0020807D01*
X0044382Y0020823D01*
X0044415D01*
X0044448Y0020807D01*
X0044348Y0021097D02*
X0044548D01*
X0044348Y0021113D02*
Y0021013D01*
X0044415Y0020980D01*
X0044482D01*
X0044548Y0021013D01*
Y0021113D01*
X0042111Y0005688D02*
X0042011Y0005488D01*
X0042144D01*
X0042301D02*
Y0005655D01*
X0042318Y0005688D01*
X0042418D01*
X0042434Y0005655D01*
Y0005488D01*
X0000655Y0025974D02*
X0000522D01*
X0000589Y0026107D01*
X0000622D01*
Y0025907D01*
X0000315Y0026007D02*
X0000365Y0025907D01*
X0000232Y0026007D02*
X0000332D01*
X0000365Y0026040D01*
Y0026074D01*
X0000332Y0026107D01*
X0000232D01*
Y0025907D01*
X0020311Y0020943D02*
X0020344Y0020909D01*
X0020411D01*
X0020444Y0020943D01*
Y0020976D01*
X0020378Y0021043D01*
X0020444Y0021109D01*
X0020311D01*
X0020104Y0021009D02*
X0020154Y0020909D01*
X0020021Y0021009D02*
X0020121D01*
X0020154Y0021043D01*
Y0021076D01*
X0020121Y0021109D01*
X0020021D01*
Y0020909D01*
X0046747Y0017324D02*
X0046947Y0017224D01*
Y0017358D01*
X0046847Y0017564D02*
X0046747Y0017514D01*
X0046847Y0017648D02*
Y0017548D01*
X0046880Y0017514D01*
X0046914D01*
X0046947Y0017548D01*
Y0017648D01*
X0046747D01*
X0044663Y0024655D02*
Y0024522D01*
X0044529Y0024655D01*
X0044496D01*
X0044463Y0024639D01*
Y0024539D01*
X0044496Y0024522D01*
X0044563Y0024315D02*
X0044663Y0024365D01*
X0044563Y0024232D02*
Y0024332D01*
X0044529Y0024365D01*
X0044496D01*
X0044463Y0024332D01*
Y0024232D01*
X0044663D01*
X0037172Y0005292D02*
X0037272D01*
X0037289Y0005259D01*
Y0005225D01*
X0037272Y0005192D01*
X0037172D01*
X0037155Y0005225D01*
Y0005259D01*
X0037222Y0005392D01*
X0036999D02*
Y0005225D01*
X0036982Y0005192D01*
X0036882D01*
X0036865Y0005225D01*
Y0005392D01*
X0048047Y0017241D02*
X0048080Y0017224D01*
X0048114D01*
X0048147Y0017241D01*
Y0017341D01*
X0048114Y0017358D01*
X0048080D01*
X0048047Y0017341D01*
Y0017241D01*
X0048014Y0017224D01*
X0047980D01*
X0047947Y0017241D01*
Y0017341D01*
X0047980Y0017358D01*
X0048014D01*
X0048047Y0017341D01*
Y0017564D02*
X0047947Y0017514D01*
X0048047Y0017648D02*
Y0017548D01*
X0048080Y0017514D01*
X0048114D01*
X0048147Y0017548D01*
Y0017648D01*
X0047947D01*
X0042138Y-0001820D02*
X0042104Y-0001787D01*
X0042038D01*
X0042004Y-0001820D01*
Y-0001854D01*
X0042071Y-0001920D01*
X0042004Y-0001987D01*
X0042138D01*
X0042294Y-0001820D02*
X0042311Y-0001787D01*
X0042411D01*
X0042428Y-0001820D01*
Y-0001954D01*
X0042411Y-0001987D01*
X0042311D01*
X0042294Y-0001954D01*
X0030908Y0003566D02*
Y0003433D01*
X0030774Y0003566D01*
X0030741D01*
X0030708Y0003550D01*
Y0003450D01*
X0030741Y0003433D01*
X0030708Y0003276D02*
X0030874D01*
X0030908Y0003260D01*
Y0003160D01*
X0030874Y0003143D01*
X0030708D01*
X0034022Y0021973D02*
X0034089D01*
X0034055D02*
Y0021773D01*
X0034089Y0021806D01*
X0026735Y0022003D02*
X0026635D01*
X0026619Y0022036D01*
Y0022070D01*
X0026635Y0022103D01*
X0026735D01*
X0026752Y0022070D01*
Y0022036D01*
X0026685Y0021903D01*
X0031454Y0019953D02*
X0031521D01*
X0031488D02*
Y0019753D01*
X0031521Y0019786D01*
X0031778Y0019953D02*
Y0019753D01*
X0031711D02*
X0031844D01*
X0032001Y0019953D02*
X0032118D01*
Y0019753D01*
X0032274Y0019953D02*
X0032341D01*
X0032308D02*
Y0019753D01*
X0032274D02*
X0032341D01*
X0032598Y0019953D02*
Y0019753D01*
X0032531D02*
X0032664D01*
X0032821D02*
X0032921Y0019953D01*
X0033094Y0019753D02*
Y0019953D01*
X0033128Y0019919D01*
X0033194Y0019786D01*
X0033228Y0019753D01*
Y0019953D01*
X0033384Y0019886D02*
X0033518D01*
X0033384Y0019953D02*
Y0019853D01*
X0033434Y0019753D01*
X0033468D01*
X0033518Y0019853D01*
Y0019953D01*
X0033808Y0019853D02*
X0033708D01*
X0033674Y0019819D01*
Y0019786D01*
X0033708Y0019753D01*
X0033808D01*
Y0019953D01*
X0041106Y0000748D02*
Y0000681D01*
Y0000715D02*
X0040906D01*
X0040939Y0000681D01*
X0041006Y0000458D02*
Y0000358D01*
X0041106Y0000491D02*
Y0000358D01*
X0040906D01*
Y0000491D01*
X0041073Y0000201D02*
X0041106Y0000185D01*
Y0000085D01*
X0041073Y0000068D01*
X0040939D01*
X0040906Y0000085D01*
Y0000185D01*
X0040939Y0000201D01*
X0040906Y-0000089D02*
X0041106D01*
X0041073Y-0000122D01*
X0040939Y-0000189D01*
X0040906Y-0000222D01*
X0041106D01*
Y-0000495D02*
X0040906D01*
X0041106Y-0000512D02*
Y-0000412D01*
X0041073Y-0000379D01*
X0041039D01*
X0041006Y-0000395D01*
Y-0000495D02*
Y-0000395D01*
X0040973Y-0000379D01*
X0040939D01*
X0040906Y-0000412D01*
Y-0000512D01*
X0041106Y-0000785D02*
X0040906D01*
X0041106Y-0000802D02*
Y-0000702D01*
X0041039Y-0000669D01*
X0040973D01*
X0040906Y-0000702D01*
Y-0000802D01*
X0002587Y0022875D02*
X0002559Y0022889D01*
Y0022972D01*
X0002587Y0022986D01*
X0002698D01*
X0002726Y0022972D01*
Y0022889D01*
X0002698Y0022875D01*
X0002615Y0020115D02*
Y0020226D01*
X0002559Y0020115D02*
X0002643D01*
X0002726Y0020157D01*
Y0020184D01*
X0002643Y0020226D01*
X0002559D01*
X0013548Y0007497D02*
Y0007719D01*
X0013436Y0007608D02*
X0013659D01*
X0015380Y0007610D02*
X0015513D01*
X0010495Y0020527D02*
X0010362D01*
X0010495Y0020660D01*
Y0020694D01*
X0010479Y0020727D01*
X0010379D01*
X0010362Y0020694D01*
X0010205Y0020727D02*
Y0020527D01*
X0010172Y0020560D01*
X0010105Y0020694D01*
X0010072Y0020727D01*
Y0020527D01*
X0009882Y0020627D02*
X0009782D01*
X0009915Y0020527D02*
X0009782D01*
Y0020727D01*
X0009915D01*
X0009625Y0020694D02*
X0009609Y0020727D01*
X0009509D01*
X0009492Y0020694D01*
Y0020660D01*
X0009509Y0020627D01*
X0009609D01*
X0009625Y0020594D01*
Y0020560D01*
X0009609Y0020527D01*
X0009509D01*
X0009492Y0020560D01*
X0009285Y0020627D02*
X0009335Y0020527D01*
X0009202Y0020627D02*
X0009302D01*
X0009335Y0020660D01*
Y0020694D01*
X0009302Y0020727D01*
X0009202D01*
Y0020527D01*
X0009045Y0020460D02*
X0008912D01*
X0008705Y0020627D02*
X0008755Y0020527D01*
X0008622Y0020627D02*
X0008722D01*
X0008755Y0020660D01*
Y0020694D01*
X0008722Y0020727D01*
X0008622D01*
Y0020527D01*
X0008465Y0020727D02*
Y0020660D01*
X0008399Y0020527D01*
X0008332Y0020660D01*
Y0020727D01*
X0005029Y0016948D02*
Y0016881D01*
Y0016914D02*
X0004829D01*
X0004863Y0016881D01*
X0005029Y0016691D02*
Y0016574D01*
X0004829D01*
X0005096Y0016418D02*
Y0016284D01*
X0004996Y0016128D02*
X0005029Y0016111D01*
Y0016011D01*
X0004996Y0015994D01*
X0004863D01*
X0004829Y0016011D01*
Y0016111D01*
X0004863Y0016128D01*
X0005029Y0015721D02*
X0004829D01*
X0005029Y0015704D02*
Y0015804D01*
X0004996Y0015838D01*
X0004963D01*
X0004929Y0015821D01*
Y0015721D02*
Y0015821D01*
X0004896Y0015838D01*
X0004863D01*
X0004829Y0015804D01*
Y0015704D01*
X0003443Y0016362D02*
X0003476Y0016329D01*
X0003543D01*
X0003576Y0016362D01*
Y0016395D01*
X0003509Y0016462D01*
X0003576Y0016529D01*
X0003443D01*
X0003236Y0016429D02*
X0003286Y0016329D01*
X0003153Y0016429D02*
X0003253D01*
X0003286Y0016462D01*
Y0016495D01*
X0003253Y0016529D01*
X0003153D01*
Y0016329D01*
X0002996Y0016262D02*
X0002863D01*
X0002706Y0016362D02*
X0002689Y0016329D01*
X0002589D01*
X0002573Y0016362D01*
Y0016495D01*
X0002589Y0016529D01*
X0002689D01*
X0002706Y0016495D01*
X0002299Y0016329D02*
Y0016529D01*
X0002283Y0016329D02*
X0002383D01*
X0002416Y0016362D01*
Y0016395D01*
X0002399Y0016429D01*
X0002299D02*
X0002399D01*
X0002416Y0016462D01*
Y0016495D01*
X0002383Y0016529D01*
X0002283D01*
X0017832Y0010633D02*
Y0010699D01*
Y0010666D02*
X0018032D01*
X0017999Y0010699D01*
Y0010889D02*
X0018032Y0010906D01*
Y0011006D01*
X0017999Y0011023D01*
X0017965D01*
X0017932Y0011006D01*
Y0010906D01*
X0017899Y0010889D01*
X0017865D01*
X0017832Y0010906D01*
Y0011006D01*
X0017865Y0011023D01*
Y0011179D02*
X0017832Y0011196D01*
Y0011296D01*
X0017865Y0011313D01*
X0017999D01*
X0018032Y0011296D01*
Y0011196D01*
X0017999Y0011179D01*
X0017765Y0011469D02*
Y0011603D01*
X0017932Y0011809D02*
X0017832Y0011759D01*
X0017932Y0011893D02*
Y0011793D01*
X0017965Y0011759D01*
X0017999D01*
X0018032Y0011793D01*
Y0011893D01*
X0017832D01*
X0018032Y0012049D02*
X0017965D01*
X0017832Y0012116D01*
X0017965Y0012183D01*
X0018032D01*
X0010670Y0016218D02*
Y0016151D01*
Y0016184D02*
X0010470D01*
X0010504Y0016151D01*
X0010670Y0015961D02*
Y0015894D01*
Y0015928D02*
X0010470D01*
Y0015961D02*
Y0015894D01*
X0010637Y0015704D02*
X0010670Y0015688D01*
Y0015588D01*
X0010637Y0015571D01*
X0010504D01*
X0010470Y0015588D01*
Y0015688D01*
X0010504Y0015704D01*
X0010737Y0015414D02*
Y0015281D01*
X0010570Y0015074D02*
X0010670Y0015124D01*
X0010570Y0014991D02*
Y0015091D01*
X0010537Y0015124D01*
X0010504D01*
X0010470Y0015091D01*
Y0014991D01*
X0010670D01*
X0010470Y0014834D02*
X0010537D01*
X0010670Y0014768D01*
X0010537Y0014701D01*
X0010470D01*
X0016228Y0017184D02*
X0016161D01*
X0016194D02*
Y0017384D01*
X0016161Y0017350D01*
X0015854Y0017184D02*
X0015838Y0017217D01*
Y0017350D01*
X0015854Y0017384D01*
X0015954D01*
X0015971Y0017350D01*
Y0017217D01*
X0015954Y0017184D01*
X0015854D01*
X0015681Y0017217D02*
X0015664Y0017184D01*
X0015564D01*
X0015548Y0017217D01*
Y0017350D01*
X0015564Y0017384D01*
X0015664D01*
X0015681Y0017350D01*
X0015391Y0017117D02*
X0015258D01*
X0015051Y0017284D02*
X0015101Y0017184D01*
X0014968Y0017284D02*
X0015068D01*
X0015101Y0017317D01*
Y0017350D01*
X0015068Y0017384D01*
X0014968D01*
Y0017184D01*
X0014811Y0017384D02*
Y0017317D01*
X0014744Y0017184D01*
X0014678Y0017317D01*
Y0017384D01*
X0001584Y0016544D02*
Y0016411D01*
X0001450Y0016478D01*
Y0016511D01*
X0001650D01*
X0001550Y0016204D02*
X0001650Y0016254D01*
X0001550Y0016121D02*
Y0016221D01*
X0001517Y0016254D01*
X0001484D01*
X0001450Y0016221D01*
Y0016121D01*
X0001650D01*
X0001717Y0015964D02*
Y0015831D01*
X0001617Y0015674D02*
X0001650Y0015658D01*
Y0015558D01*
X0001617Y0015541D01*
X0001484D01*
X0001450Y0015558D01*
Y0015658D01*
X0001484Y0015674D01*
X0001650Y0015268D02*
X0001450D01*
X0001650Y0015251D02*
Y0015351D01*
X0001617Y0015384D01*
X0001584D01*
X0001550Y0015368D01*
Y0015268D02*
Y0015368D01*
X0001517Y0015384D01*
X0001484D01*
X0001450Y0015351D01*
Y0015251D01*
X0017063Y0010292D02*
Y0010225D01*
Y0010259D02*
X0016863D01*
X0016896Y0010225D01*
X0017029Y0010035D02*
X0017063Y0010019D01*
Y0009919D01*
X0017029Y0009902D01*
X0016896D01*
X0016863Y0009919D01*
Y0010019D01*
X0016896Y0010035D01*
X0017129Y0009745D02*
Y0009612D01*
X0016963Y0009405D02*
X0017063Y0009455D01*
X0016963Y0009322D02*
Y0009422D01*
X0016929Y0009455D01*
X0016896D01*
X0016863Y0009422D01*
Y0009322D01*
X0017063D01*
X0016863Y0009165D02*
X0016929D01*
X0017063Y0009099D01*
X0016929Y0009032D01*
X0016863D01*
X0004237Y0015254D02*
Y0015388D01*
X0004370Y0015254D01*
X0004404D01*
X0004437Y0015271D01*
Y0015371D01*
X0004404Y0015388D01*
X0004337Y0015594D02*
X0004237Y0015544D01*
X0004337Y0015678D02*
Y0015578D01*
X0004370Y0015544D01*
X0004404D01*
X0004437Y0015578D01*
Y0015678D01*
X0004237D01*
X0004170Y0015834D02*
Y0015968D01*
X0004270Y0016124D02*
X0004237Y0016141D01*
Y0016241D01*
X0004270Y0016258D01*
X0004404D01*
X0004437Y0016241D01*
Y0016141D01*
X0004404Y0016124D01*
X0004237Y0016531D02*
X0004437D01*
X0004237Y0016548D02*
Y0016448D01*
X0004270Y0016414D01*
X0004304D01*
X0004337Y0016431D01*
Y0016531D02*
Y0016431D01*
X0004370Y0016414D01*
X0004404D01*
X0004437Y0016448D01*
Y0016548D01*
X0014630Y0011235D02*
X0014663Y0011252D01*
Y0011352D01*
X0014630Y0011369D01*
X0014563D01*
X0014530Y0011335D01*
Y0011235D01*
X0014463D01*
Y0011369D01*
X0014563Y0011012D02*
Y0011079D01*
X0014630D01*
X0014663Y0011062D01*
Y0010962D01*
X0014630Y0010945D01*
X0014496D01*
X0014463Y0010962D01*
Y0011062D01*
X0014496Y0011079D01*
X0014563Y0010755D02*
Y0010655D01*
X0014663Y0010789D02*
Y0010655D01*
X0014463D01*
Y0010789D01*
X0014563Y0010449D02*
X0014663Y0010499D01*
X0014563Y0010365D02*
Y0010465D01*
X0014530Y0010499D01*
X0014496D01*
X0014463Y0010465D01*
Y0010365D01*
X0014663D01*
X0014463Y0010209D02*
X0014530D01*
X0014663Y0010142D01*
X0014530Y0010075D01*
X0014463D01*
X0008278Y0009663D02*
X0008311Y0009680D01*
Y0009780D01*
X0008278Y0009796D01*
X0008211D01*
X0008178Y0009763D01*
Y0009663D01*
X0008111D01*
Y0009796D01*
X0008311Y0009506D02*
Y0009390D01*
X0008111D01*
X0004667Y0009700D02*
X0004633Y0009717D01*
Y0009817D01*
X0004667Y0009833D01*
X0004800D01*
X0004833Y0009817D01*
Y0009717D01*
X0004800Y0009700D01*
X0001847D02*
X0001813Y0009717D01*
Y0009817D01*
X0001847Y0009833D01*
X0001980D01*
X0002013Y0009817D01*
Y0009717D01*
X0001980Y0009700D01*
X0001217Y0009690D02*
X0001183Y0009707D01*
Y0009807D01*
X0001217Y0009823D01*
X0001350D01*
X0001383Y0009807D01*
Y0009707D01*
X0001350Y0009690D01*
X-0001533D02*
X-0001567Y0009707D01*
Y0009807D01*
X-0001533Y0009823D01*
X-0001400D01*
X-0001367Y0009807D01*
Y0009707D01*
X-0001400Y0009690D01*
X0001870Y0010380D02*
Y0010513D01*
X0001803Y0010380D02*
X0001903D01*
X0002003Y0010430D01*
Y0010463D01*
X0001903Y0010513D01*
X0001803D01*
X0004690Y0010380D02*
Y0010513D01*
X0004623Y0010380D02*
X0004723D01*
X0004823Y0010430D01*
Y0010463D01*
X0004723Y0010513D01*
X0004623D01*
X0001260Y0010390D02*
Y0010523D01*
X0001193Y0010390D02*
X0001293D01*
X0001393Y0010440D01*
Y0010473D01*
X0001293Y0010523D01*
X0001193D01*
X-0001490Y0010390D02*
Y0010523D01*
X-0001557Y0010390D02*
X-0001457D01*
X-0001357Y0010440D01*
Y0010473D01*
X-0001457Y0010523D01*
X-0001557D01*
X0014868Y0012923D02*
X0014934D01*
X0014901D02*
Y0012723D01*
X0014934Y0012756D01*
X0015124Y0012723D02*
Y0012923D01*
X0015158Y0012889D01*
X0015224Y0012756D01*
X0015258Y0012723D01*
Y0012923D01*
X0015448Y0012823D02*
X0015548D01*
X0015414Y0012923D02*
X0015548D01*
Y0012723D01*
X0015414D01*
X0015704Y0012756D02*
X0015721Y0012723D01*
X0015821D01*
X0015838Y0012756D01*
Y0012789D01*
X0015821Y0012823D01*
X0015721D01*
X0015704Y0012856D01*
Y0012889D01*
X0015721Y0012923D01*
X0015821D01*
X0015838Y0012889D01*
X0016044Y0012823D02*
X0015994Y0012923D01*
X0016128Y0012823D02*
X0016028D01*
X0015994Y0012789D01*
Y0012756D01*
X0016028Y0012723D01*
X0016128D01*
Y0012923D01*
X0016284Y0012989D02*
X0016418D01*
X0016624Y0012823D02*
X0016574Y0012923D01*
X0016708Y0012823D02*
X0016608D01*
X0016574Y0012789D01*
Y0012756D01*
X0016608Y0012723D01*
X0016708D01*
Y0012923D01*
X0016864Y0012723D02*
Y0012789D01*
X0016931Y0012923D01*
X0016998Y0012789D01*
Y0012723D01*
X0006467Y0020501D02*
X0006333D01*
X0006467Y0020634D01*
Y0020667D01*
X0006450Y0020701D01*
X0006350D01*
X0006333Y0020667D01*
X0006177Y0020701D02*
Y0020534D01*
X0006160Y0020501D01*
X0006110Y0020601D01*
Y0020634D02*
Y0020601D01*
X0006060Y0020501D01*
X0006043Y0020534D01*
Y0020701D01*
X0005887Y0020667D02*
X0005870Y0020701D01*
X0005770D01*
X0005753Y0020667D01*
Y0020634D01*
X0005770Y0020601D01*
X0005870D01*
X0005887Y0020567D01*
Y0020534D01*
X0005870Y0020501D01*
X0005770D01*
X0005753Y0020534D01*
X0034397Y0021636D02*
Y0021502D01*
X0034263Y0021569D01*
Y0021602D01*
X0034463D01*
X0034263Y0021346D02*
X0034330D01*
X0034463Y0021279D01*
X0034330Y0021212D01*
X0034263D01*
X0034463Y0021056D02*
Y0020939D01*
X0034263D01*
X0034648Y0021267D02*
X0034682D01*
Y0021300D01*
X0034648D01*
Y0021267D01*
X0040469Y0012957D02*
X0040485Y0012990D01*
Y0013024D01*
X0040469Y0013057D01*
X0040369D01*
X0040352Y0013024D01*
Y0012990D01*
X0040369Y0012957D01*
X0040469D01*
X0040485Y0012924D01*
Y0012890D01*
X0040469Y0012857D01*
X0040369D01*
X0040352Y0012890D01*
Y0012924D01*
X0040369Y0012957D01*
X0040195Y0012857D02*
X0040062D01*
X0040195Y0012990D01*
Y0013024D01*
X0040179Y0013057D01*
X0040079D01*
X0040062Y0013024D01*
X0039905Y0012890D02*
X0039889Y0012857D01*
X0039789D01*
X0039772Y0012890D01*
Y0013024D01*
X0039789Y0013057D01*
X0039889D01*
X0039905Y0013024D01*
X0039045Y0020067D02*
X0038912D01*
X0039045Y0020200D01*
Y0020234D01*
X0039029Y0020267D01*
X0038929D01*
X0038912Y0020234D01*
X0038622Y0020100D02*
X0038655Y0020067D01*
X0038722D01*
X0038755Y0020100D01*
Y0020134D01*
X0038689Y0020200D01*
X0038755Y0020267D01*
X0038622D01*
X0038465Y0020100D02*
X0038449Y0020067D01*
X0038349D01*
X0038332Y0020100D01*
Y0020234D01*
X0038349Y0020267D01*
X0038449D01*
X0038465Y0020234D01*
X0043184Y0009790D02*
X0043218Y0009757D01*
X0043284D01*
X0043318Y0009790D01*
Y0009824D01*
X0043251Y0009890D01*
X0043318Y0009957D01*
X0043184D01*
X0043028D02*
Y0009757D01*
X0042994Y0009790D01*
X0042928Y0009924D01*
X0042894Y0009957D01*
Y0009757D01*
X0042738D02*
X0042671D01*
X0042704D02*
Y0009957D01*
X0042738D02*
X0042671D01*
X0042481Y0009824D02*
X0042348D01*
X0042481Y0009757D02*
Y0009857D01*
X0042431Y0009957D01*
X0042398D01*
X0042348Y0009857D01*
Y0009757D01*
X0042124Y0009857D02*
X0042191D01*
Y0009790D01*
X0042174Y0009757D01*
X0042074D01*
X0042058Y0009790D01*
Y0009924D01*
X0042074Y0009957D01*
X0042174D01*
X0042191Y0009924D01*
X0041851Y0009857D02*
X0041901Y0009757D01*
X0041768Y0009857D02*
X0041868D01*
X0041901Y0009890D01*
Y0009924D01*
X0041868Y0009957D01*
X0041768D01*
Y0009757D01*
X0036242Y0022650D02*
X0036275Y0022617D01*
X0036342D01*
X0036375Y0022650D01*
Y0022684D01*
X0036309Y0022750D01*
X0036375Y0022817D01*
X0036242D01*
X0035952Y0022650D02*
X0035985Y0022617D01*
X0036052D01*
X0036085Y0022650D01*
Y0022684D01*
X0036019Y0022750D01*
X0036085Y0022817D01*
X0035952D01*
X0035795Y0022650D02*
X0035779Y0022617D01*
X0035679D01*
X0035662Y0022650D01*
Y0022784D01*
X0035679Y0022817D01*
X0035779D01*
X0035795Y0022784D01*
X0036363Y0021072D02*
X0036330Y0021039D01*
Y0020972D01*
X0036363Y0020939D01*
X0036397D01*
X0036463Y0021006D01*
X0036530Y0020939D01*
Y0021072D01*
Y0021229D02*
X0036463D01*
X0036330Y0021296D01*
X0036463Y0021362D01*
X0036530D01*
X0036330Y0021519D02*
Y0021636D01*
X0036530D01*
X0035578Y0021267D02*
X0035612D01*
Y0021300D01*
X0035578D01*
Y0021267D01*
X0043893Y0012552D02*
Y0012419D01*
X0043759Y0012552D01*
X0043726D01*
X0043693Y0012535D01*
Y0012435D01*
X0043726Y0012419D01*
X0043693Y0012262D02*
X0043893D01*
X0043859Y0012229D01*
X0043726Y0012162D01*
X0043693Y0012129D01*
X0043893D01*
Y0011972D02*
Y0011905D01*
Y0011939D02*
X0043693D01*
Y0011972D02*
Y0011905D01*
X0043826Y0011715D02*
Y0011582D01*
X0043893Y0011715D02*
X0043793D01*
X0043693Y0011665D01*
Y0011632D01*
X0043793Y0011582D01*
X0043893D01*
X0043793Y0011359D02*
Y0011425D01*
X0043859D01*
X0043893Y0011409D01*
Y0011309D01*
X0043859Y0011292D01*
X0043726D01*
X0043693Y0011309D01*
Y0011409D01*
X0043726Y0011425D01*
X0043793Y0011085D02*
X0043893Y0011135D01*
X0043793Y0011002D02*
Y0011102D01*
X0043759Y0011135D01*
X0043726D01*
X0043693Y0011102D01*
Y0011002D01*
X0043893D01*
X0042080Y0014568D02*
Y0014668D01*
X0042114Y0014684D01*
X0042147D01*
X0042180Y0014668D01*
Y0014568D01*
X0042147Y0014551D01*
X0042114D01*
X0041980Y0014618D01*
X0042180Y0014394D02*
Y0014261D01*
X0042047Y0014394D01*
X0042014D01*
X0041980Y0014378D01*
Y0014278D01*
X0042014Y0014261D01*
X0042147Y0014104D02*
X0042180Y0014088D01*
Y0013988D01*
X0042147Y0013971D01*
X0042014D01*
X0041980Y0013988D01*
Y0014088D01*
X0042014Y0014104D01*
X0035562Y0019820D02*
X0035462D01*
X0035445Y0019854D01*
Y0019887D01*
X0035462Y0019920D01*
X0035562D01*
X0035579Y0019887D01*
Y0019854D01*
X0035512Y0019720D01*
X0035869Y0019887D02*
X0035835Y0019920D01*
X0035769D01*
X0035735Y0019887D01*
Y0019854D01*
X0035802Y0019787D01*
X0035735Y0019720D01*
X0035869D01*
X0036025Y0019887D02*
X0036042Y0019920D01*
X0036142D01*
X0036159Y0019887D01*
Y0019754D01*
X0036142Y0019720D01*
X0036042D01*
X0036025Y0019754D01*
X0042004Y0015619D02*
X0041871D01*
X0042004Y0015753D01*
Y0015786D01*
X0041988Y0015819D01*
X0041888D01*
X0041871Y0015786D01*
X0041714Y0015619D02*
X0041581D01*
X0041714Y0015753D01*
Y0015786D01*
X0041698Y0015819D01*
X0041598D01*
X0041581Y0015786D01*
X0041424Y0015653D02*
X0041408Y0015619D01*
X0041308D01*
X0041291Y0015653D01*
Y0015786D01*
X0041308Y0015819D01*
X0041408D01*
X0041424Y0015786D01*
X0043947Y0013588D02*
Y0013655D01*
Y0013621D02*
X0044147D01*
X0044114Y0013655D01*
X0043947Y0013911D02*
X0044147D01*
Y0013845D02*
Y0013978D01*
X0044047Y0014168D02*
Y0014268D01*
X0043947D02*
X0044147D01*
Y0014135D01*
X0043947Y0014425D02*
X0044147Y0014525D01*
Y0014425D02*
X0043947Y0014525D01*
X0044047Y0014698D02*
Y0014831D01*
X0043947Y0014698D02*
X0044147D01*
X0043947Y0014831D02*
X0044147D01*
X0043570Y0014602D02*
X0043537D01*
Y0014569D01*
X0043570D01*
Y0014602D01*
X0043425Y0015428D02*
Y0015495D01*
Y0015461D02*
X0043625D01*
X0043592Y0015495D01*
X0037705Y0016260D02*
X0037722Y0016227D01*
X0037822D01*
X0037839Y0016260D01*
Y0016327D01*
X0037805Y0016360D01*
X0037705D01*
Y0016427D01*
X0037839D01*
X0037482Y0016293D02*
X0037549Y0016227D01*
X0037415Y0016260D02*
X0037432Y0016227D01*
X0037499D01*
X0037515Y0016260D01*
X0037549Y0016293D01*
Y0016393D01*
X0037532Y0016427D01*
X0037432D01*
X0037415Y0016393D01*
Y0016260D01*
X0038817Y0012192D02*
Y0012125D01*
Y0012158D02*
X0038617D01*
X0038650Y0012125D01*
X0038717Y0011868D02*
Y0011935D01*
X0038783D01*
X0038817Y0011918D01*
Y0011818D01*
X0038783Y0011802D01*
X0038650D01*
X0038617Y0011818D01*
Y0011918D01*
X0038650Y0011935D01*
X0038750Y0011645D02*
Y0011512D01*
X0038817Y0011645D02*
X0038717D01*
X0038617Y0011595D01*
Y0011562D01*
X0038717Y0011512D01*
X0038817D01*
Y0011355D02*
X0038617D01*
X0038650Y0011322D01*
X0038717Y0011288D01*
X0038650Y0011255D01*
X0038617Y0011222D01*
X0038817D01*
X0039252Y0010862D02*
Y0010795D01*
Y0010829D02*
X0039052D01*
X0039085Y0010795D01*
X0034335Y0019864D02*
X0034469D01*
X0034402Y0019730D01*
X0034369D01*
Y0019930D01*
X0034759Y0019897D02*
X0034725Y0019930D01*
X0034659D01*
X0034625Y0019897D01*
Y0019864D01*
X0034692Y0019797D01*
X0034625Y0019730D01*
X0034759D01*
X0034915Y0019897D02*
X0034932Y0019930D01*
X0035032D01*
X0035049Y0019897D01*
Y0019764D01*
X0035032Y0019730D01*
X0034932D01*
X0034915Y0019764D01*
X0038797Y0018882D02*
Y0018815D01*
Y0018848D02*
X0038597D01*
X0038630Y0018815D01*
X0038763Y0018625D02*
X0038797Y0018608D01*
Y0018508D01*
X0038763Y0018492D01*
X0038630D01*
X0038597Y0018508D01*
Y0018608D01*
X0038630Y0018625D01*
X0038797Y0018218D02*
X0038597D01*
X0038797Y0018202D02*
Y0018302D01*
X0038730Y0018335D01*
X0038663D01*
X0038597Y0018302D01*
Y0018202D01*
X0038730Y0018045D02*
Y0017912D01*
X0038797Y0018045D02*
X0038697D01*
X0038597Y0017995D01*
Y0017962D01*
X0038697Y0017912D01*
X0038797D01*
X0036720Y0018093D02*
X0036753D01*
Y0018127D01*
X0036720D01*
Y0018093D01*
X0036442Y0017382D02*
Y0017315D01*
Y0017349D02*
X0036242D01*
X0036275Y0017315D01*
X0035112Y0022650D02*
X0035129Y0022617D01*
X0035229D01*
X0035245Y0022650D01*
Y0022717D01*
X0035212Y0022750D01*
X0035112D01*
Y0022817D01*
X0035245D01*
X0034822Y0022650D02*
X0034855Y0022617D01*
X0034922D01*
X0034955Y0022650D01*
Y0022684D01*
X0034889Y0022750D01*
X0034955Y0022817D01*
X0034822D01*
X0034665Y0022650D02*
X0034649Y0022617D01*
X0034549D01*
X0034532Y0022650D01*
Y0022784D01*
X0034549Y0022817D01*
X0034649D01*
X0034665Y0022784D01*
X0042334Y0010429D02*
X0042434Y0010629D01*
X0042301D01*
X0042144Y0010429D02*
X0042011D01*
X0042144Y0010563D01*
Y0010596D01*
X0042128Y0010629D01*
X0042028D01*
X0042011Y0010596D01*
X0041854Y0010463D02*
X0041838Y0010429D01*
X0041738D01*
X0041721Y0010463D01*
Y0010596D01*
X0041738Y0010629D01*
X0041838D01*
X0041854Y0010596D01*
X0038087Y0020988D02*
X0038120Y0020971D01*
X0038154D01*
X0038187Y0020988D01*
Y0021088D01*
X0038154Y0021104D01*
X0038120D01*
X0038087Y0021088D01*
Y0020988D01*
X0038054Y0020971D01*
X0038020D01*
X0037987Y0020988D01*
Y0021088D01*
X0038020Y0021104D01*
X0038054D01*
X0038087Y0021088D01*
X0037987Y0021261D02*
Y0021378D01*
X0038187D01*
X0042747Y0012951D02*
X0042780Y0012984D01*
Y0013051D01*
X0042747Y0013084D01*
X0042714D01*
X0042647Y0013018D01*
X0042580Y0013084D01*
Y0012951D01*
X0042780Y0012794D02*
Y0012661D01*
X0042647Y0012794D01*
X0042614D01*
X0042580Y0012778D01*
Y0012678D01*
X0042614Y0012661D01*
X0042747Y0012504D02*
X0042780Y0012488D01*
Y0012388D01*
X0042747Y0012371D01*
X0042614D01*
X0042580Y0012388D01*
Y0012488D01*
X0042614Y0012504D01*
X0040471Y0013576D02*
X0040338D01*
X0040404Y0013709D01*
X0040438D01*
Y0013509D01*
X0040181Y0013709D02*
Y0013509D01*
X0040148Y0013543D01*
X0040081Y0013676D01*
X0040048Y0013709D01*
Y0013509D01*
X0039891D02*
X0039824D01*
X0039858D02*
Y0013709D01*
X0039891D02*
X0039824D01*
X0039634Y0013576D02*
X0039501D01*
X0039634Y0013509D02*
Y0013609D01*
X0039584Y0013709D01*
X0039551D01*
X0039501Y0013609D01*
Y0013509D01*
X0039278Y0013609D02*
X0039344D01*
Y0013543D01*
X0039328Y0013509D01*
X0039228D01*
X0039211Y0013543D01*
Y0013676D01*
X0039228Y0013709D01*
X0039328D01*
X0039344Y0013676D01*
X0039004Y0013609D02*
X0039054Y0013509D01*
X0038921Y0013609D02*
X0039021D01*
X0039054Y0013643D01*
Y0013676D01*
X0039021Y0013709D01*
X0038921D01*
Y0013509D01*
X0037155Y0010735D02*
X0037189Y0010702D01*
X0037255D01*
X0037289Y0010735D01*
Y0010769D01*
X0037222Y0010835D01*
X0037289Y0010902D01*
X0037155D01*
X0036999D02*
Y0010735D01*
X0036982Y0010702D01*
X0036882D01*
X0036865Y0010735D01*
Y0010902D01*
X0001269Y0008335D02*
Y0008469D01*
X0001402Y0008402D01*
Y0008369D01*
X0001202D01*
Y0008625D02*
Y0008759D01*
X0001335Y0008625D01*
X0001369D01*
X0001402Y0008642D01*
Y0008742D01*
X0001369Y0008759D01*
X0001202Y0009032D02*
X0001402D01*
X0001202Y0009049D02*
Y0008949D01*
X0001269Y0008915D01*
X0001335D01*
X0001402Y0008949D01*
Y0009049D01*
X0003927Y0012950D02*
X0003893Y0012967D01*
Y0013067D01*
X0003927Y0013083D01*
X0004060D01*
X0004093Y0013067D01*
Y0012967D01*
X0004060Y0012950D01*
X0014410Y0015594D02*
X0014377Y0015561D01*
Y0015494D01*
X0014410Y0015461D01*
X0014443D01*
X0014510Y0015528D01*
X0014577Y0015461D01*
Y0015594D01*
X0014477Y0015818D02*
Y0015751D01*
X0014410D01*
X0014377Y0015768D01*
Y0015868D01*
X0014410Y0015884D01*
X0014543D01*
X0014577Y0015868D01*
Y0015768D01*
X0014543Y0015751D01*
X0014477Y0016074D02*
Y0016174D01*
X0014377Y0016041D02*
Y0016174D01*
X0014577D01*
Y0016041D01*
X0014477Y0016381D02*
X0014377Y0016331D01*
X0014477Y0016464D02*
Y0016364D01*
X0014510Y0016331D01*
X0014543D01*
X0014577Y0016364D01*
Y0016464D01*
X0014377D01*
X0014577Y0016621D02*
X0014510D01*
X0014377Y0016688D01*
X0014510Y0016754D01*
X0014577D01*
X0004732Y0011235D02*
X0004765Y0011219D01*
X0004799D01*
X0004832Y0011235D01*
Y0011335D01*
X0004799Y0011352D01*
X0004765D01*
X0004732Y0011335D01*
Y0011235D01*
X0004699Y0011219D01*
X0004665D01*
X0004632Y0011235D01*
Y0011335D01*
X0004665Y0011352D01*
X0004699D01*
X0004732Y0011335D01*
X0004632Y0011509D02*
Y0011575D01*
Y0011542D02*
X0004832D01*
X0004799Y0011575D01*
X0004632Y0011882D02*
X0004832D01*
X0004632Y0011899D02*
Y0011799D01*
X0004699Y0011765D01*
X0004765D01*
X0004832Y0011799D01*
Y0011899D01*
X0002610Y0007210D02*
Y0007343D01*
X0002543Y0007210D02*
X0002643D01*
X0002743Y0007260D01*
Y0007293D01*
X0002643Y0007343D01*
X0002543D01*
X0001972Y0008912D02*
X0002005Y0008945D01*
Y0009012D01*
X0001972Y0009045D01*
X0001939D01*
X0001872Y0008979D01*
X0001805Y0009045D01*
Y0008912D01*
X0002005Y0008755D02*
Y0008622D01*
X0001872Y0008755D01*
X0001839D01*
X0001805Y0008739D01*
Y0008639D01*
X0001839Y0008622D01*
X0002005Y0008349D02*
X0001805D01*
X0002005Y0008332D02*
Y0008432D01*
X0001939Y0008465D01*
X0001872D01*
X0001805Y0008432D01*
Y0008332D01*
X0003990Y0007200D02*
Y0007333D01*
X0003923Y0007200D02*
X0004023D01*
X0004123Y0007250D01*
Y0007283D01*
X0004023Y0007333D01*
X0003923D01*
X0004632Y0008305D02*
Y0008439D01*
X0004765Y0008305D01*
X0004799D01*
X0004832Y0008322D01*
Y0008422D01*
X0004799Y0008439D01*
X0004632Y0008595D02*
Y0008729D01*
X0004765Y0008595D01*
X0004799D01*
X0004832Y0008612D01*
Y0008712D01*
X0004799Y0008729D01*
X0004632Y0009002D02*
X0004832D01*
X0004632Y0009019D02*
Y0008919D01*
X0004699Y0008885D01*
X0004765D01*
X0004832Y0008919D01*
Y0009019D01*
X-0000823Y0012950D02*
X-0000857Y0012967D01*
Y0013067D01*
X-0000823Y0013083D01*
X-0000690D01*
X-0000657Y0013067D01*
Y0012967D01*
X-0000690Y0012950D01*
X-0001365Y0011852D02*
Y0011785D01*
Y0011819D02*
X-0001565D01*
X-0001531Y0011785D01*
X-0001365Y0011595D02*
Y0011462D01*
X-0001498Y0011595D01*
X-0001531D01*
X-0001565Y0011579D01*
Y0011479D01*
X-0001531Y0011462D01*
X-0001365Y0011189D02*
X-0001565D01*
X-0001365Y0011172D02*
Y0011272D01*
X-0001431Y0011305D01*
X-0001498D01*
X-0001565Y0011272D01*
Y0011172D01*
X0011324Y0007178D02*
X0011191D01*
X0011324Y0007312D01*
Y0007345D01*
X0011307Y0007378D01*
X0011207D01*
X0011191Y0007345D01*
X0011034D02*
X0011017Y0007378D01*
X0010917D01*
X0010901Y0007345D01*
Y0007312D01*
X0010917Y0007278D01*
X0011017D01*
X0011034Y0007245D01*
Y0007212D01*
X0011017Y0007178D01*
X0010917D01*
X0010901Y0007212D01*
X0010744Y0007378D02*
Y0007212D01*
X0010727Y0007178D01*
X0010627D01*
X0010611Y0007212D01*
Y0007378D01*
X0005857Y0004128D02*
X0005790D01*
X0005824D02*
Y0004328D01*
X0005790Y0004294D01*
X0005484Y0004128D02*
Y0004328D01*
X0005467Y0004128D02*
X0005567D01*
X0005600Y0004161D01*
Y0004194D01*
X0005584Y0004228D01*
X0005484D02*
X0005584D01*
X0005600Y0004261D01*
Y0004294D01*
X0005567Y0004328D01*
X0005467D01*
X0005310Y0004128D02*
X0005244D01*
X0005277D02*
Y0004328D01*
X0005310D02*
X0005244D01*
X0011443Y0017935D02*
Y0017802D01*
X0011309Y0017935D01*
X0011276D01*
X0011243Y0017919D01*
Y0017819D01*
X0011276Y0017802D01*
X0011409Y0017645D02*
X0011443Y0017629D01*
Y0017529D01*
X0011409Y0017512D01*
X0011276D01*
X0011243Y0017529D01*
Y0017629D01*
X0011276Y0017645D01*
X0011509Y0017355D02*
Y0017222D01*
X0011343Y0017015D02*
X0011443Y0017065D01*
X0011343Y0016932D02*
Y0017032D01*
X0011309Y0017065D01*
X0011276D01*
X0011243Y0017032D01*
Y0016932D01*
X0011443D01*
X0011243Y0016775D02*
X0011309D01*
X0011443Y0016709D01*
X0011309Y0016642D01*
X0011243D01*
X0018328Y0008229D02*
X0018428D01*
X0018445Y0008196D01*
Y0008163D01*
X0018428Y0008129D01*
X0018328D01*
X0018312Y0008163D01*
Y0008196D01*
X0018378Y0008329D01*
X0018155Y0008129D02*
X0018088D01*
X0018122D02*
Y0008329D01*
X0018088Y0008296D01*
X0017782Y0008196D02*
Y0008163D01*
X0017798Y0008129D01*
X0017865D01*
X0017882Y0008163D01*
Y0008329D01*
X0017898D02*
X0017832D01*
X-0000760Y0007210D02*
Y0007343D01*
X-0000827Y0007210D02*
X-0000727D01*
X-0000627Y0007260D01*
Y0007293D01*
X-0000727Y0007343D01*
X-0000827D01*
X-0001398Y0008852D02*
X-0001365Y0008869D01*
Y0008969D01*
X-0001398Y0008985D01*
X-0001465D01*
X-0001498Y0008952D01*
Y0008852D01*
X-0001565D01*
Y0008985D01*
X-0001365Y0008695D02*
Y0008562D01*
X-0001498Y0008695D01*
X-0001531D01*
X-0001565Y0008679D01*
Y0008579D01*
X-0001531Y0008562D01*
X-0001365Y0008289D02*
X-0001565D01*
X-0001365Y0008272D02*
Y0008372D01*
X-0001431Y0008405D01*
X-0001498D01*
X-0001565Y0008372D01*
Y0008272D01*
X0030330Y0017101D02*
X0030264D01*
X0030297D02*
Y0017301D01*
X0030264Y0017268D01*
X0030074Y0017301D02*
Y0017135D01*
X0030057Y0017101D01*
X0029957D01*
X0029940Y0017135D01*
Y0017301D01*
X0046053Y0010622D02*
X0046120D01*
X0046087D02*
Y0010422D01*
X0046120Y0010455D01*
X0046310Y0010422D02*
Y0010622D01*
X0046343Y0010588D01*
X0046410Y0010455D01*
X0046443Y0010422D01*
Y0010622D01*
X0046650Y0010522D02*
X0046600Y0010622D01*
X0046733Y0010522D02*
X0046633D01*
X0046600Y0010488D01*
Y0010455D01*
X0046633Y0010422D01*
X0046733D01*
Y0010622D01*
X0001185Y0018622D02*
Y0018555D01*
Y0018588D02*
X0000985D01*
X0001019Y0018555D01*
X0001152Y0018365D02*
X0001185Y0018348D01*
Y0018248D01*
X0001152Y0018232D01*
X0001019D01*
X0000985Y0018248D01*
Y0018348D01*
X0001019Y0018365D01*
X0001185Y0017958D02*
X0000985D01*
X0001185Y0017942D02*
Y0018042D01*
X0001152Y0018075D01*
X0001119D01*
X0001085Y0018058D01*
Y0017958D02*
Y0018058D01*
X0001052Y0018075D01*
X0001019D01*
X0000985Y0018042D01*
Y0017942D01*
X0001433Y0019193D02*
X0001366D01*
X0001400D02*
Y0019393D01*
X0001366Y0019360D01*
G54D184*
G01X0027376Y0003294D02*
Y0003189D01*
Y0003241D02*
X0027061D01*
X0027114Y0003189D01*
X0008849Y0005680D02*
X0008639D01*
X0008849Y0005890D01*
Y0005942D01*
X0008823Y0005995D01*
X0008665D01*
X0008639Y0005942D01*
X0008795Y0006517D02*
X0008690D01*
X0008742D02*
Y0006832D01*
X0008690Y0006780D01*
X0029554Y0003328D02*
Y0003118D01*
X0029344Y0003328D01*
X0029292D01*
X0029239Y0003302D01*
Y0003144D01*
X0029292Y0003118D01*
X0004589Y0003856D02*
X0000613D01*
Y-0000277D01*
X0004589D01*
X0005258Y0000392D01*
Y0003187D01*
X0004589Y0003856D01*
X0033797Y0016744D02*
X0033969Y0016867D01*
X0033796Y0016972D01*
Y0016744D01*
G54D185*
G01X0040975Y0018205D02*
Y0018183D01*
X0040997D01*
Y0018205D01*
X0040975D01*
G54D201*
G01X0003036Y0011950D02*
Y0012600D01*
X0002890Y0011390D02*
X0002640Y0011640D01*
X0002380Y0011380D01*
X0002880D01*
X0002360Y0011700D02*
X0002910D01*
X0002205Y0012600D02*
Y0011950D01*
X0000996Y0009010D02*
Y0009660D01*
X0002235Y0022530D02*
Y0021880D01*
X0003066D02*
Y0022530D01*
X0000850Y0008450D02*
X0000600Y0008700D01*
X0000340Y0008440D01*
X0000840D01*
X0002920Y0021320D02*
X0002670Y0021570D01*
X0002410Y0021310D01*
X0002910D01*
X0000320Y0008760D02*
X0000870D01*
X0002390Y0021630D02*
X0002940D01*
X0000165Y0009660D02*
Y0009010D01*
X0004416Y0011950D02*
Y0012600D01*
X0004270Y0011390D02*
X0004020Y0011640D01*
X0003760Y0011380D01*
X0004260D01*
X0003740Y0011700D02*
X0004290D01*
X0003585Y0012600D02*
Y0011950D01*
X0003036Y0009010D02*
Y0009660D01*
X0002890Y0008450D02*
X0002640Y0008700D01*
X0002380Y0008440D01*
X0002880D01*
X0002360Y0008760D02*
X0002910D01*
X0002205Y0009660D02*
Y0009010D01*
X0004416D02*
Y0009660D01*
X0004270Y0008450D02*
X0004020Y0008700D01*
X0003760Y0008440D01*
X0004260D01*
X0003740Y0008760D02*
X0004290D01*
X0003585Y0009660D02*
Y0009010D01*
X-0000334Y0011950D02*
Y0012600D01*
X-0000480Y0011390D02*
X-0000730Y0011640D01*
X-0000990Y0011380D01*
X-0000490D01*
X-0001010Y0011700D02*
X-0000460D01*
X-0001165Y0012600D02*
Y0011950D01*
X-0000334Y0009010D02*
Y0009660D01*
X-0000480Y0008450D02*
X-0000730Y0008700D01*
X-0000990Y0008440D01*
X-0000490D01*
X-0001010Y0008760D02*
X-0000460D01*
X-0001165Y0009660D02*
Y0009010D01*
X0000996Y0011950D02*
Y0012600D01*
X0000850Y0011390D02*
X0000600Y0011640D01*
X0000340Y0011380D01*
X0000840D01*
X0000320Y0011700D02*
X0000870D01*
X0000165Y0012600D02*
Y0011950D01*
X0004686Y0021880D02*
Y0022530D01*
X0004540Y0021320D02*
X0004290Y0021570D01*
X0004030Y0021310D01*
X0004530D01*
X0004010Y0021630D02*
X0004560D01*
X0003855Y0022530D02*
Y0021880D01*
X-0003766Y0011110D02*
Y0010460D01*
X-0003620Y0011670D02*
X-0003370Y0011420D01*
X-0003110Y0011680D01*
X-0003610D01*
X-0003090Y0011360D02*
X-0003640D01*
X-0002935Y0010460D02*
Y0011110D01*
M02*
