*
%LPD*%
%LNRAGOBOT*%
%FSLAX24Y24*%
%MOIN*%
%AD*%
%ADD24R,0.022000X0.022000*%
%ADD62C,0.001000*%
%ADD188C,0.002000*%
%ADD220R,0.038000X0.032000*%
%ADD222R,0.022000X0.022000*%
%ADD224O,0.094000X0.025000*%
%ADD225R,0.094000X0.025000*%
%ADD231R,0.072000X0.072000*%
%ADD234O,0.025000X0.094000*%
%ADD235R,0.025000X0.094000*%
%ADD237O,0.086000X0.025000*%
%ADD238R,0.086000X0.025000*%
%ADD239R,0.011800X0.031500*%
%ADD240R,0.031500X0.011800*%
%ADD248R,0.032000X0.038000*%
%ADD254O,0.068000X0.011800*%
%ADD255R,0.068000X0.011800*%
%ADD258O,0.094000X0.016000*%
%ADD259R,0.094000X0.016000*%
%ADD262C,0.042000*%
%ADD263R,0.042000X0.042000*%
%ADD264C,0.025000*%
%ADD390O,0.078700X0.030200*%
%ADD391O,0.030200X0.078700*%
%ADD392R,0.030200X0.078700*%
%ADD393O,0.016000X0.070000*%
%ADD394R,0.016000X0.070000*%
%ADD396O,0.011800X0.047200*%
%ADD397O,0.047200X0.011800*%
%ADD398R,0.047200X0.011800*%
%ADD399R,0.118100X0.157500*%
%ADD401R,0.080000X0.120000*%
%ADD403R,0.141700X0.055100*%
%ADD404R,0.056000X0.092000*%
%ADD405R,0.040000X0.056000*%
%ADD406R,0.048000X0.056000*%
%ADD407O,0.014900X0.040900*%
%ADD408R,0.014900X0.040900*%
%ADD410R,0.059000X0.023600*%
%ADD411R,0.070800X0.031500*%
%ADD412R,0.096400X0.110200*%
%ADD413R,0.025000X0.025000*%
%ADD414R,0.047200X0.126000*%
%ADD415R,0.129900X0.122000*%
%ADD416R,0.147600X0.031500*%
%ADD419O,0.059000X0.011000*%
%ADD420R,0.059000X0.011000*%
%ADD421O,0.011000X0.059000*%
%ADD422R,0.011000X0.059000*%
%ADD425R,0.060000X0.060000*%
%ADD473R,0.100000X0.064000*%
%ADD474R,0.118100X0.078700*%
G54D62*
%SRX1Y1I0.0J0.0*%
G1X26240Y11810D2*
G1X25630Y11810D1*
G1X26240Y11810D2*
G1X26240Y11300D1*
G1X25630Y11300D1*
G1X25630Y11810D2*
G1X25630Y11300D1*
G1X26228Y11810D2*
G1X26228Y11300D1*
G1X26219Y11810D2*
G1X26219Y11300D1*
G1X26210Y11810D2*
G1X26210Y11300D1*
G1X26201Y11810D2*
G1X26201Y11300D1*
G1X26192Y11810D2*
G1X26192Y11300D1*
G1X26183Y11810D2*
G1X26183Y11300D1*
G1X26174Y11810D2*
G1X26174Y11300D1*
G1X26165Y11810D2*
G1X26165Y11300D1*
G1X26156Y11810D2*
G1X26156Y11300D1*
G1X26147Y11810D2*
G1X26147Y11300D1*
G1X26138Y11810D2*
G1X26138Y11300D1*
G1X26129Y11810D2*
G1X26129Y11300D1*
G1X26120Y11810D2*
G1X26120Y11300D1*
G1X26111Y11810D2*
G1X26111Y11300D1*
G1X26102Y11810D2*
G1X26102Y11300D1*
G1X26093Y11810D2*
G1X26093Y11300D1*
G1X26084Y11810D2*
G1X26084Y11300D1*
G1X26075Y11810D2*
G1X26075Y11300D1*
G1X26066Y11810D2*
G1X26066Y11300D1*
G1X26057Y11810D2*
G1X26057Y11300D1*
G1X26048Y11810D2*
G1X26048Y11300D1*
G1X26039Y11810D2*
G1X26039Y11300D1*
G1X26030Y11810D2*
G1X26030Y11300D1*
G1X26021Y11810D2*
G1X26021Y11300D1*
G1X26012Y11810D2*
G1X26012Y11300D1*
G1X26003Y11810D2*
G1X26003Y11300D1*
G1X25994Y11810D2*
G1X25994Y11300D1*
G1X25985Y11810D2*
G1X25985Y11300D1*
G1X25976Y11810D2*
G1X25976Y11300D1*
G1X25967Y11810D2*
G1X25967Y11300D1*
G1X25958Y11810D2*
G1X25958Y11300D1*
G1X25949Y11810D2*
G1X25949Y11300D1*
G1X25940Y11810D2*
G1X25940Y11300D1*
G1X25931Y11810D2*
G1X25931Y11300D1*
G1X25922Y11810D2*
G1X25922Y11300D1*
G1X25913Y11810D2*
G1X25913Y11300D1*
G1X25904Y11810D2*
G1X25904Y11300D1*
G1X25895Y11810D2*
G1X25895Y11300D1*
G1X25886Y11810D2*
G1X25886Y11300D1*
G1X25877Y11810D2*
G1X25877Y11300D1*
G1X25868Y11810D2*
G1X25868Y11300D1*
G1X25859Y11810D2*
G1X25859Y11300D1*
G1X25850Y11810D2*
G1X25850Y11300D1*
G1X25841Y11810D2*
G1X25841Y11300D1*
G1X25832Y11810D2*
G1X25832Y11300D1*
G1X25823Y11810D2*
G1X25823Y11300D1*
G1X25814Y11810D2*
G1X25814Y11300D1*
G1X25805Y11810D2*
G1X25805Y11300D1*
G1X25796Y11810D2*
G1X25796Y11300D1*
G1X25787Y11810D2*
G1X25787Y11300D1*
G1X25778Y11810D2*
G1X25778Y11300D1*
G1X25769Y11810D2*
G1X25769Y11300D1*
G1X25760Y11810D2*
G1X25760Y11300D1*
G1X25751Y11810D2*
G1X25751Y11300D1*
G1X25742Y11810D2*
G1X25742Y11300D1*
G1X25733Y11810D2*
G1X25733Y11300D1*
G1X25724Y11810D2*
G1X25724Y11300D1*
G1X25715Y11810D2*
G1X25715Y11300D1*
G1X25706Y11810D2*
G1X25706Y11300D1*
G1X25697Y11810D2*
G1X25697Y11300D1*
G1X25688Y11810D2*
G1X25688Y11300D1*
G1X25679Y11810D2*
G1X25679Y11300D1*
G1X25670Y11810D2*
G1X25670Y11300D1*
G1X25661Y11810D2*
G1X25661Y11300D1*
G1X25652Y11810D2*
G1X25652Y11300D1*
G1X25643Y11810D2*
G1X25643Y11300D1*
G1X26240Y11799D2*
G1X25630Y11799D1*
G1X26240Y11790D2*
G1X25630Y11790D1*
G1X26240Y11781D2*
G1X25630Y11781D1*
G1X26240Y11772D2*
G1X25630Y11772D1*
G1X26240Y11763D2*
G1X25630Y11763D1*
G1X26240Y11754D2*
G1X25630Y11754D1*
G1X26240Y11745D2*
G1X25630Y11745D1*
G1X26240Y11736D2*
G1X25630Y11736D1*
G1X26240Y11727D2*
G1X25630Y11727D1*
G1X26240Y11718D2*
G1X25630Y11718D1*
G1X26240Y11709D2*
G1X25630Y11709D1*
G1X26240Y11700D2*
G1X25630Y11700D1*
G1X26240Y11691D2*
G1X25630Y11691D1*
G1X26240Y11682D2*
G1X25630Y11682D1*
G1X26240Y11673D2*
G1X25630Y11673D1*
G1X26240Y11664D2*
G1X25630Y11664D1*
G1X26240Y11655D2*
G1X25630Y11655D1*
G1X26240Y11646D2*
G1X25630Y11646D1*
G1X26240Y11637D2*
G1X25630Y11637D1*
G1X26240Y11628D2*
G1X25630Y11628D1*
G1X26240Y11619D2*
G1X25630Y11619D1*
G1X26240Y11610D2*
G1X25630Y11610D1*
G1X26240Y11601D2*
G1X25630Y11601D1*
G1X26240Y11592D2*
G1X25630Y11592D1*
G1X26240Y11583D2*
G1X25630Y11583D1*
G1X26240Y11574D2*
G1X25630Y11574D1*
G1X26240Y11565D2*
G1X25630Y11565D1*
G1X26240Y11556D2*
G1X25630Y11556D1*
G1X26240Y11547D2*
G1X25630Y11547D1*
G1X26240Y11538D2*
G1X25630Y11538D1*
G1X26240Y11529D2*
G1X25630Y11529D1*
G1X26240Y11520D2*
G1X25630Y11520D1*
G1X26240Y11511D2*
G1X25630Y11511D1*
G1X26240Y11502D2*
G1X25630Y11502D1*
G1X26240Y11493D2*
G1X25630Y11493D1*
G1X26240Y11484D2*
G1X25630Y11484D1*
G1X26240Y11475D2*
G1X25630Y11475D1*
G1X26240Y11466D2*
G1X25630Y11466D1*
G1X26240Y11457D2*
G1X25630Y11457D1*
G1X26240Y11448D2*
G1X25630Y11448D1*
G1X26240Y11439D2*
G1X25630Y11439D1*
G1X26240Y11430D2*
G1X25630Y11430D1*
G1X26240Y11421D2*
G1X25630Y11421D1*
G1X26240Y11412D2*
G1X25630Y11412D1*
G1X26240Y11403D2*
G1X25630Y11403D1*
G1X26240Y11394D2*
G1X25630Y11394D1*
G1X26240Y11385D2*
G1X25630Y11385D1*
G1X26240Y11376D2*
G1X25630Y11376D1*
G1X26240Y11367D2*
G1X25630Y11367D1*
G1X26240Y11358D2*
G1X25630Y11358D1*
G1X26240Y11349D2*
G1X25630Y11349D1*
G1X26240Y11340D2*
G1X25630Y11340D1*
G1X26240Y11331D2*
G1X25630Y11331D1*
G1X26240Y11322D2*
G1X25630Y11322D1*
G1X26240Y11313D2*
G1X25630Y11313D1*
G1X3510Y-1856D2*
G54D188*
G1X3484Y-1856D1*
G1X3243Y-851D2*
G1X2861Y-1233D1*
G1X3243Y-851D2*
G1X3879Y-1487D1*
G1X3497Y-1869D1*
G1X2861Y-1233D2*
G1X3497Y-1869D1*
G1X3864Y-1472D2*
G1X3864Y-1502D1*
G1X3846Y-1455D2*
G1X3846Y-1520D1*
G1X3829Y-1437D2*
G1X3829Y-1538D1*
G1X3811Y-1419D2*
G1X3811Y-1555D1*
G1X3793Y-1402D2*
G1X3793Y-1573D1*
G1X3776Y-1384D2*
G1X3776Y-1591D1*
G1X3758Y-1366D2*
G1X3758Y-1608D1*
G1X3740Y-1349D2*
G1X3740Y-1626D1*
G1X3723Y-1331D2*
G1X3723Y-1644D1*
G1X3705Y-1313D2*
G1X3705Y-1661D1*
G1X3687Y-1295D2*
G1X3687Y-1679D1*
G1X3669Y-1278D2*
G1X3669Y-1697D1*
G1X3652Y-1260D2*
G1X3652Y-1714D1*
G1X3634Y-1242D2*
G1X3634Y-1732D1*
G1X3616Y-1225D2*
G1X3616Y-1750D1*
G1X3599Y-1207D2*
G1X3599Y-1767D1*
G1X3581Y-1189D2*
G1X3581Y-1785D1*
G1X3563Y-1172D2*
G1X3563Y-1803D1*
G1X3546Y-1154D2*
G1X3546Y-1821D1*
G1X3528Y-1136D2*
G1X3528Y-1838D1*
G1X3510Y-1119D2*
G1X3510Y-1856D1*
G1X3493Y-1101D2*
G1X3493Y-1865D1*
G1X3475Y-1083D2*
G1X3475Y-1847D1*
G1X3457Y-1066D2*
G1X3457Y-1830D1*
G1X3440Y-1048D2*
G1X3440Y-1812D1*
G1X3422Y-1030D2*
G1X3422Y-1794D1*
G1X3404Y-1012D2*
G1X3404Y-1776D1*
G1X3386Y-995D2*
G1X3386Y-1759D1*
G1X3369Y-977D2*
G1X3369Y-1741D1*
G1X3351Y-959D2*
G1X3351Y-1723D1*
G1X3333Y-942D2*
G1X3333Y-1706D1*
G1X3316Y-924D2*
G1X3316Y-1688D1*
G1X3298Y-906D2*
G1X3298Y-1670D1*
G1X3280Y-889D2*
G1X3280Y-1653D1*
G1X3263Y-871D2*
G1X3263Y-1635D1*
G1X3245Y-853D2*
G1X3245Y-1617D1*
G1X3227Y-866D2*
G1X3227Y-1600D1*
G1X3210Y-884D2*
G1X3210Y-1582D1*
G1X3192Y-902D2*
G1X3192Y-1564D1*
G1X3174Y-919D2*
G1X3174Y-1547D1*
G1X3157Y-937D2*
G1X3157Y-1529D1*
G1X3139Y-955D2*
G1X3139Y-1511D1*
G1X3121Y-972D2*
G1X3121Y-1493D1*
G1X3103Y-990D2*
G1X3103Y-1476D1*
G1X3086Y-1008D2*
G1X3086Y-1458D1*
G1X3068Y-1025D2*
G1X3068Y-1440D1*
G1X3050Y-1043D2*
G1X3050Y-1423D1*
G1X3033Y-1061D2*
G1X3033Y-1405D1*
G1X3015Y-1078D2*
G1X3015Y-1387D1*
G1X2997Y-1096D2*
G1X2997Y-1370D1*
G1X2980Y-1114D2*
G1X2980Y-1352D1*
G1X2962Y-1132D2*
G1X2962Y-1334D1*
G1X2944Y-1149D2*
G1X2944Y-1317D1*
G1X2927Y-1167D2*
G1X2927Y-1299D1*
G1X2909Y-1185D2*
G1X2909Y-1281D1*
G1X2891Y-1202D2*
G1X2891Y-1264D1*
G1X2874Y-1220D2*
G1X2874Y-1246D1*
G1X3257Y-866D2*
G1X3228Y-866D1*
G1X3275Y-884D2*
G1X3210Y-884D1*
G1X3293Y-901D2*
G1X3192Y-901D1*
G1X3311Y-919D2*
G1X3175Y-919D1*
G1X3328Y-937D2*
G1X3157Y-937D1*
G1X3346Y-954D2*
G1X3139Y-954D1*
G1X3364Y-972D2*
G1X3122Y-972D1*
G1X3381Y-990D2*
G1X3104Y-990D1*
G1X3399Y-1007D2*
G1X3086Y-1007D1*
G1X3417Y-1025D2*
G1X3069Y-1025D1*
G1X3434Y-1043D2*
G1X3051Y-1043D1*
G1X3452Y-1060D2*
G1X3033Y-1060D1*
G1X3470Y-1078D2*
G1X3015Y-1078D1*
G1X3487Y-1096D2*
G1X2998Y-1096D1*
G1X3505Y-1113D2*
G1X2980Y-1113D1*
G1X3523Y-1131D2*
G1X2962Y-1131D1*
G1X3540Y-1149D2*
G1X2945Y-1149D1*
G1X3558Y-1167D2*
G1X2927Y-1167D1*
G1X3576Y-1184D2*
G1X2909Y-1184D1*
G1X3594Y-1202D2*
G1X2892Y-1202D1*
G1X3611Y-1220D2*
G1X2874Y-1220D1*
G1X3629Y-1237D2*
G1X2865Y-1237D1*
G1X3647Y-1255D2*
G1X2883Y-1255D1*
G1X3664Y-1273D2*
G1X2900Y-1273D1*
G1X3682Y-1290D2*
G1X2918Y-1290D1*
G1X3700Y-1308D2*
G1X2936Y-1308D1*
G1X3717Y-1326D2*
G1X2953Y-1326D1*
G1X3735Y-1343D2*
G1X2971Y-1343D1*
G1X3753Y-1361D2*
G1X2989Y-1361D1*
G1X3770Y-1379D2*
G1X3006Y-1379D1*
G1X3788Y-1396D2*
G1X3024Y-1396D1*
G1X3806Y-1414D2*
G1X3042Y-1414D1*
G1X3823Y-1432D2*
G1X3059Y-1432D1*
G1X3841Y-1450D2*
G1X3077Y-1450D1*
G1X3859Y-1467D2*
G1X3095Y-1467D1*
G1X3877Y-1485D2*
G1X3113Y-1485D1*
G1X3864Y-1503D2*
G1X3130Y-1503D1*
G1X3846Y-1520D2*
G1X3148Y-1520D1*
G1X3828Y-1538D2*
G1X3166Y-1538D1*
G1X3811Y-1556D2*
G1X3183Y-1556D1*
G1X3793Y-1573D2*
G1X3201Y-1573D1*
G1X3775Y-1591D2*
G1X3219Y-1591D1*
G1X3757Y-1609D2*
G1X3236Y-1609D1*
G1X3740Y-1626D2*
G1X3254Y-1626D1*
G1X3722Y-1644D2*
G1X3272Y-1644D1*
G1X3704Y-1662D2*
G1X3289Y-1662D1*
G1X3687Y-1679D2*
G1X3307Y-1679D1*
G1X3669Y-1697D2*
G1X3325Y-1697D1*
G1X3651Y-1715D2*
G1X3342Y-1715D1*
G1X3634Y-1733D2*
G1X3360Y-1733D1*
G1X3616Y-1750D2*
G1X3378Y-1750D1*
G1X3598Y-1768D2*
G1X3396Y-1768D1*
G1X3581Y-1786D2*
G1X3413Y-1786D1*
G1X3563Y-1803D2*
G1X3431Y-1803D1*
G1X3545Y-1821D2*
G1X3449Y-1821D1*
G1X3528Y-1839D2*
G1X3466Y-1839D1*
G1X2683Y-2684D2*
G1X2657Y-2684D1*
G1X3052Y-2315D2*
G1X2670Y-2697D1*
G1X2033Y-2060D2*
G1X2670Y-2697D1*
G1X2415Y-1678D2*
G1X2033Y-2060D1*
G1X2415Y-1678D2*
G1X3052Y-2315D1*
G1X3037Y-2300D2*
G1X3037Y-2329D1*
G1X3019Y-2282D2*
G1X3019Y-2347D1*
G1X3001Y-2264D2*
G1X3001Y-2365D1*
G1X2984Y-2247D2*
G1X2984Y-2383D1*
G1X2966Y-2229D2*
G1X2966Y-2400D1*
G1X2948Y-2211D2*
G1X2948Y-2418D1*
G1X2931Y-2194D2*
G1X2931Y-2436D1*
G1X2913Y-2176D2*
G1X2913Y-2453D1*
G1X2895Y-2158D2*
G1X2895Y-2471D1*
G1X2878Y-2141D2*
G1X2878Y-2489D1*
G1X2860Y-2123D2*
G1X2860Y-2507D1*
G1X2842Y-2105D2*
G1X2842Y-2524D1*
G1X2824Y-2087D2*
G1X2824Y-2542D1*
G1X2807Y-2070D2*
G1X2807Y-2560D1*
G1X2789Y-2052D2*
G1X2789Y-2577D1*
G1X2771Y-2034D2*
G1X2771Y-2595D1*
G1X2754Y-2017D2*
G1X2754Y-2613D1*
G1X2736Y-1999D2*
G1X2736Y-2630D1*
G1X2718Y-1981D2*
G1X2718Y-2648D1*
G1X2701Y-1964D2*
G1X2701Y-2666D1*
G1X2683Y-1946D2*
G1X2683Y-2684D1*
G1X2665Y-1928D2*
G1X2665Y-2692D1*
G1X2648Y-1911D2*
G1X2648Y-2674D1*
G1X2630Y-1893D2*
G1X2630Y-2657D1*
G1X2612Y-1875D2*
G1X2612Y-2639D1*
G1X2595Y-1858D2*
G1X2595Y-2621D1*
G1X2577Y-1840D2*
G1X2577Y-2603D1*
G1X2559Y-1822D2*
G1X2559Y-2586D1*
G1X2541Y-1804D2*
G1X2541Y-2568D1*
G1X2524Y-1787D2*
G1X2524Y-2550D1*
G1X2506Y-1769D2*
G1X2506Y-2533D1*
G1X2488Y-1751D2*
G1X2488Y-2515D1*
G1X2471Y-1734D2*
G1X2471Y-2497D1*
G1X2453Y-1716D2*
G1X2453Y-2480D1*
G1X2435Y-1698D2*
G1X2435Y-2462D1*
G1X2418Y-1681D2*
G1X2418Y-2444D1*
G1X2400Y-1694D2*
G1X2400Y-2427D1*
G1X2382Y-1711D2*
G1X2382Y-2409D1*
G1X2365Y-1729D2*
G1X2365Y-2391D1*
G1X2347Y-1747D2*
G1X2347Y-2374D1*
G1X2329Y-1764D2*
G1X2329Y-2356D1*
G1X2312Y-1782D2*
G1X2312Y-2338D1*
G1X2294Y-1800D2*
G1X2294Y-2320D1*
G1X2276Y-1817D2*
G1X2276Y-2303D1*
G1X2258Y-1835D2*
G1X2258Y-2285D1*
G1X2241Y-1853D2*
G1X2241Y-2267D1*
G1X2223Y-1870D2*
G1X2223Y-2250D1*
G1X2205Y-1888D2*
G1X2205Y-2232D1*
G1X2188Y-1906D2*
G1X2188Y-2214D1*
G1X2170Y-1923D2*
G1X2170Y-2197D1*
G1X2152Y-1941D2*
G1X2152Y-2179D1*
G1X2135Y-1959D2*
G1X2135Y-2161D1*
G1X2117Y-1976D2*
G1X2117Y-2144D1*
G1X2099Y-1994D2*
G1X2099Y-2126D1*
G1X2082Y-2012D2*
G1X2082Y-2108D1*
G1X2064Y-2029D2*
G1X2064Y-2091D1*
G1X2046Y-2047D2*
G1X2046Y-2073D1*
G1X2430Y-1693D2*
G1X2400Y-1693D1*
G1X2448Y-1711D2*
G1X2383Y-1711D1*
G1X2466Y-1729D2*
G1X2365Y-1729D1*
G1X2483Y-1746D2*
G1X2347Y-1746D1*
G1X2501Y-1764D2*
G1X2330Y-1764D1*
G1X2519Y-1782D2*
G1X2312Y-1782D1*
G1X2536Y-1799D2*
G1X2294Y-1799D1*
G1X2554Y-1817D2*
G1X2276Y-1817D1*
G1X2572Y-1835D2*
G1X2259Y-1835D1*
G1X2589Y-1852D2*
G1X2241Y-1852D1*
G1X2607Y-1870D2*
G1X2223Y-1870D1*
G1X2625Y-1888D2*
G1X2206Y-1888D1*
G1X2642Y-1905D2*
G1X2188Y-1905D1*
G1X2660Y-1923D2*
G1X2170Y-1923D1*
G1X2678Y-1941D2*
G1X2152Y-1941D1*
G1X2695Y-1958D2*
G1X2135Y-1958D1*
G1X2713Y-1976D2*
G1X2117Y-1976D1*
G1X2731Y-1994D2*
G1X2099Y-1994D1*
G1X2749Y-2012D2*
G1X2082Y-2012D1*
G1X2766Y-2029D2*
G1X2064Y-2029D1*
G1X2784Y-2047D2*
G1X2046Y-2047D1*
G1X2802Y-2065D2*
G1X2038Y-2065D1*
G1X2819Y-2082D2*
G1X2056Y-2082D1*
G1X2837Y-2100D2*
G1X2073Y-2100D1*
G1X2855Y-2118D2*
G1X2091Y-2118D1*
G1X2872Y-2135D2*
G1X2109Y-2135D1*
G1X2890Y-2153D2*
G1X2126Y-2153D1*
G1X2908Y-2171D2*
G1X2144Y-2171D1*
G1X2925Y-2188D2*
G1X2162Y-2188D1*
G1X2943Y-2206D2*
G1X2179Y-2206D1*
G1X2961Y-2224D2*
G1X2197Y-2224D1*
G1X2978Y-2241D2*
G1X2215Y-2241D1*
G1X2996Y-2259D2*
G1X2232Y-2259D1*
G1X3014Y-2277D2*
G1X2250Y-2277D1*
G1X3032Y-2295D2*
G1X2268Y-2295D1*
G1X3049Y-2312D2*
G1X2286Y-2312D1*
G1X3036Y-2330D2*
G1X2303Y-2330D1*
G1X3019Y-2348D2*
G1X2321Y-2348D1*
G1X3001Y-2365D2*
G1X2339Y-2365D1*
G1X2983Y-2383D2*
G1X2356Y-2383D1*
G1X2966Y-2401D2*
G1X2374Y-2401D1*
G1X2948Y-2418D2*
G1X2392Y-2418D1*
G1X2930Y-2436D2*
G1X2409Y-2436D1*
G1X2913Y-2454D2*
G1X2427Y-2454D1*
G1X2895Y-2471D2*
G1X2445Y-2471D1*
G1X2877Y-2489D2*
G1X2462Y-2489D1*
G1X2860Y-2507D2*
G1X2480Y-2507D1*
G1X2842Y-2524D2*
G1X2498Y-2524D1*
G1X2824Y-2542D2*
G1X2515Y-2542D1*
G1X2807Y-2560D2*
G1X2533Y-2560D1*
G1X2789Y-2578D2*
G1X2551Y-2578D1*
G1X2771Y-2595D2*
G1X2569Y-2595D1*
G1X2754Y-2613D2*
G1X2586Y-2613D1*
G1X2736Y-2631D2*
G1X2604Y-2631D1*
G1X2718Y-2648D2*
G1X2622Y-2648D1*
G1X2701Y-2666D2*
G1X2639Y-2666D1*
G1X3276Y24174D2*
G1X3250Y24174D1*
G1X3517Y25179D2*
G1X3899Y24797D1*
G1X3263Y24161D1*
G1X2881Y24543D2*
G1X3263Y24161D1*
G1X3517Y25179D2*
G1X2881Y24543D1*
G1X3884Y24812D2*
G1X3884Y24782D1*
G1X3866Y24830D2*
G1X3866Y24764D1*
G1X3849Y24847D2*
G1X3849Y24747D1*
G1X3831Y24865D2*
G1X3831Y24729D1*
G1X3813Y24883D2*
G1X3813Y24711D1*
G1X3796Y24900D2*
G1X3796Y24694D1*
G1X3778Y24918D2*
G1X3778Y24676D1*
G1X3760Y24936D2*
G1X3760Y24658D1*
G1X3743Y24953D2*
G1X3743Y24641D1*
G1X3725Y24971D2*
G1X3725Y24623D1*
G1X3707Y24989D2*
G1X3707Y24605D1*
G1X3689Y25006D2*
G1X3689Y24587D1*
G1X3672Y25024D2*
G1X3672Y24570D1*
G1X3654Y25042D2*
G1X3654Y24552D1*
G1X3636Y25059D2*
G1X3636Y24534D1*
G1X3619Y25077D2*
G1X3619Y24517D1*
G1X3601Y25095D2*
G1X3601Y24499D1*
G1X3583Y25113D2*
G1X3583Y24481D1*
G1X3566Y25130D2*
G1X3566Y24464D1*
G1X3548Y25148D2*
G1X3548Y24446D1*
G1X3530Y25166D2*
G1X3530Y24428D1*
G1X3513Y25175D2*
G1X3513Y24411D1*
G1X3495Y25157D2*
G1X3495Y24393D1*
G1X3477Y25139D2*
G1X3477Y24375D1*
G1X3460Y25122D2*
G1X3460Y24358D1*
G1X3442Y25104D2*
G1X3442Y24340D1*
G1X3424Y25086D2*
G1X3424Y24322D1*
G1X3406Y25068D2*
G1X3406Y24304D1*
G1X3389Y25051D2*
G1X3389Y24287D1*
G1X3371Y25033D2*
G1X3371Y24269D1*
G1X3353Y25015D2*
G1X3353Y24251D1*
G1X3336Y24998D2*
G1X3336Y24234D1*
G1X3318Y24980D2*
G1X3318Y24216D1*
G1X3300Y24962D2*
G1X3300Y24198D1*
G1X3283Y24945D2*
G1X3283Y24181D1*
G1X3265Y24927D2*
G1X3265Y24163D1*
G1X3247Y24909D2*
G1X3247Y24176D1*
G1X3230Y24892D2*
G1X3230Y24194D1*
G1X3212Y24874D2*
G1X3212Y24211D1*
G1X3194Y24856D2*
G1X3194Y24229D1*
G1X3177Y24839D2*
G1X3177Y24247D1*
G1X3159Y24821D2*
G1X3159Y24264D1*
G1X3141Y24803D2*
G1X3141Y24282D1*
G1X3123Y24785D2*
G1X3123Y24300D1*
G1X3106Y24768D2*
G1X3106Y24317D1*
G1X3088Y24750D2*
G1X3088Y24335D1*
G1X3070Y24732D2*
G1X3070Y24353D1*
G1X3053Y24715D2*
G1X3053Y24370D1*
G1X3035Y24697D2*
G1X3035Y24388D1*
G1X3017Y24679D2*
G1X3017Y24406D1*
G1X3000Y24662D2*
G1X3000Y24424D1*
G1X2982Y24644D2*
G1X2982Y24441D1*
G1X2964Y24626D2*
G1X2964Y24459D1*
G1X2947Y24609D2*
G1X2947Y24477D1*
G1X2929Y24591D2*
G1X2929Y24494D1*
G1X2911Y24573D2*
G1X2911Y24512D1*
G1X2894Y24556D2*
G1X2894Y24530D1*
G1X3532Y25164D2*
G1X3502Y25164D1*
G1X3550Y25146D2*
G1X3484Y25146D1*
G1X3567Y25129D2*
G1X3467Y25129D1*
G1X3585Y25111D2*
G1X3449Y25111D1*
G1X3603Y25093D2*
G1X3431Y25093D1*
G1X3620Y25076D2*
G1X3414Y25076D1*
G1X3638Y25058D2*
G1X3396Y25058D1*
G1X3656Y25040D2*
G1X3378Y25040D1*
G1X3673Y25023D2*
G1X3361Y25023D1*
G1X3691Y25005D2*
G1X3343Y25005D1*
G1X3709Y24987D2*
G1X3325Y24987D1*
G1X3726Y24969D2*
G1X3307Y24969D1*
G1X3744Y24952D2*
G1X3290Y24952D1*
G1X3762Y24934D2*
G1X3272Y24934D1*
G1X3779Y24916D2*
G1X3254Y24916D1*
G1X3797Y24899D2*
G1X3237Y24899D1*
G1X3815Y24881D2*
G1X3219Y24881D1*
G1X3833Y24863D2*
G1X3201Y24863D1*
G1X3850Y24846D2*
G1X3184Y24846D1*
G1X3868Y24828D2*
G1X3166Y24828D1*
G1X3886Y24810D2*
G1X3148Y24810D1*
G1X3895Y24793D2*
G1X3131Y24793D1*
G1X3877Y24775D2*
G1X3113Y24775D1*
G1X3859Y24757D2*
G1X3095Y24757D1*
G1X3842Y24740D2*
G1X3078Y24740D1*
G1X3824Y24722D2*
G1X3060Y24722D1*
G1X3806Y24704D2*
G1X3042Y24704D1*
G1X3788Y24686D2*
G1X3024Y24686D1*
G1X3771Y24669D2*
G1X3007Y24669D1*
G1X3753Y24651D2*
G1X2989Y24651D1*
G1X3735Y24633D2*
G1X2971Y24633D1*
G1X3718Y24616D2*
G1X2954Y24616D1*
G1X3700Y24598D2*
G1X2936Y24598D1*
G1X3682Y24580D2*
G1X2918Y24580D1*
G1X3665Y24563D2*
G1X2901Y24563D1*
G1X3647Y24545D2*
G1X2883Y24545D1*
G1X3629Y24527D2*
G1X2896Y24527D1*
G1X3612Y24510D2*
G1X2914Y24510D1*
G1X3594Y24492D2*
G1X2931Y24492D1*
G1X3576Y24474D2*
G1X2949Y24474D1*
G1X3559Y24457D2*
G1X2967Y24457D1*
G1X3541Y24439D2*
G1X2984Y24439D1*
G1X3523Y24421D2*
G1X3002Y24421D1*
G1X3505Y24403D2*
G1X3020Y24403D1*
G1X3488Y24386D2*
G1X3037Y24386D1*
G1X3470Y24368D2*
G1X3055Y24368D1*
G1X3452Y24350D2*
G1X3073Y24350D1*
G1X3435Y24333D2*
G1X3090Y24333D1*
G1X3417Y24315D2*
G1X3108Y24315D1*
G1X3399Y24297D2*
G1X3126Y24297D1*
G1X3382Y24280D2*
G1X3144Y24280D1*
G1X3364Y24262D2*
G1X3161Y24262D1*
G1X3346Y24244D2*
G1X3179Y24244D1*
G1X3329Y24227D2*
G1X3197Y24227D1*
G1X3311Y24209D2*
G1X3214Y24209D1*
G1X3293Y24191D2*
G1X3232Y24191D1*
G1X2448Y25001D2*
G1X2422Y25001D1*
G1X2053Y25370D2*
G1X2435Y24988D1*
G1X2690Y26006D2*
G1X2053Y25370D1*
G1X2690Y26006D2*
G1X3072Y25624D1*
G1X2435Y24988D1*
G1X3057Y25639D2*
G1X3057Y25609D1*
G1X3039Y25657D2*
G1X3039Y25592D1*
G1X3021Y25675D2*
G1X3021Y25574D1*
G1X3004Y25692D2*
G1X3004Y25556D1*
G1X2986Y25710D2*
G1X2986Y25539D1*
G1X2968Y25728D2*
G1X2968Y25521D1*
G1X2951Y25745D2*
G1X2951Y25503D1*
G1X2933Y25763D2*
G1X2933Y25486D1*
G1X2915Y25781D2*
G1X2915Y25468D1*
G1X2898Y25798D2*
G1X2898Y25450D1*
G1X2880Y25816D2*
G1X2880Y25432D1*
G1X2862Y25834D2*
G1X2862Y25415D1*
G1X2844Y25852D2*
G1X2844Y25397D1*
G1X2827Y25869D2*
G1X2827Y25379D1*
G1X2809Y25887D2*
G1X2809Y25362D1*
G1X2791Y25905D2*
G1X2791Y25344D1*
G1X2774Y25922D2*
G1X2774Y25326D1*
G1X2756Y25940D2*
G1X2756Y25309D1*
G1X2738Y25958D2*
G1X2738Y25291D1*
G1X2721Y25976D2*
G1X2721Y25273D1*
G1X2703Y25993D2*
G1X2703Y25256D1*
G1X2685Y26002D2*
G1X2685Y25238D1*
G1X2668Y25984D2*
G1X2668Y25220D1*
G1X2650Y25966D2*
G1X2650Y25203D1*
G1X2632Y25949D2*
G1X2632Y25185D1*
G1X2615Y25931D2*
G1X2615Y25167D1*
G1X2597Y25913D2*
G1X2597Y25149D1*
G1X2579Y25896D2*
G1X2579Y25132D1*
G1X2561Y25878D2*
G1X2561Y25114D1*
G1X2544Y25860D2*
G1X2544Y25096D1*
G1X2526Y25842D2*
G1X2526Y25079D1*
G1X2508Y25825D2*
G1X2508Y25061D1*
G1X2491Y25807D2*
G1X2491Y25043D1*
G1X2473Y25789D2*
G1X2473Y25026D1*
G1X2455Y25772D2*
G1X2455Y25008D1*
G1X2438Y25754D2*
G1X2438Y24990D1*
G1X2420Y25736D2*
G1X2420Y25003D1*
G1X2402Y25719D2*
G1X2402Y25021D1*
G1X2385Y25701D2*
G1X2385Y25039D1*
G1X2367Y25683D2*
G1X2367Y25056D1*
G1X2349Y25666D2*
G1X2349Y25074D1*
G1X2332Y25648D2*
G1X2332Y25092D1*
G1X2314Y25630D2*
G1X2314Y25109D1*
G1X2296Y25613D2*
G1X2296Y25127D1*
G1X2278Y25595D2*
G1X2278Y25145D1*
G1X2261Y25577D2*
G1X2261Y25162D1*
G1X2243Y25560D2*
G1X2243Y25180D1*
G1X2225Y25542D2*
G1X2225Y25198D1*
G1X2208Y25524D2*
G1X2208Y25215D1*
G1X2190Y25507D2*
G1X2190Y25233D1*
G1X2172Y25489D2*
G1X2172Y25251D1*
G1X2155Y25471D2*
G1X2155Y25269D1*
G1X2137Y25454D2*
G1X2137Y25286D1*
G1X2119Y25436D2*
G1X2119Y25304D1*
G1X2102Y25418D2*
G1X2102Y25322D1*
G1X2084Y25401D2*
G1X2084Y25339D1*
G1X2066Y25383D2*
G1X2066Y25357D1*
G1X2705Y25991D2*
G1X2675Y25991D1*
G1X2722Y25974D2*
G1X2657Y25974D1*
G1X2740Y25956D2*
G1X2640Y25956D1*
G1X2758Y25938D2*
G1X2622Y25938D1*
G1X2775Y25921D2*
G1X2604Y25921D1*
G1X2793Y25903D2*
G1X2587Y25903D1*
G1X2811Y25885D2*
G1X2569Y25885D1*
G1X2829Y25868D2*
G1X2551Y25868D1*
G1X2846Y25850D2*
G1X2533Y25850D1*
G1X2864Y25832D2*
G1X2516Y25832D1*
G1X2882Y25814D2*
G1X2498Y25814D1*
G1X2899Y25797D2*
G1X2480Y25797D1*
G1X2917Y25779D2*
G1X2463Y25779D1*
G1X2935Y25761D2*
G1X2445Y25761D1*
G1X2952Y25744D2*
G1X2427Y25744D1*
G1X2970Y25726D2*
G1X2410Y25726D1*
G1X2988Y25708D2*
G1X2392Y25708D1*
G1X3005Y25691D2*
G1X2374Y25691D1*
G1X3023Y25673D2*
G1X2356Y25673D1*
G1X3041Y25655D2*
G1X2339Y25655D1*
G1X3058Y25638D2*
G1X2321Y25638D1*
G1X3067Y25620D2*
G1X2303Y25620D1*
G1X3050Y25602D2*
G1X2286Y25602D1*
G1X3032Y25585D2*
G1X2268Y25585D1*
G1X3014Y25567D2*
G1X2250Y25567D1*
G1X2997Y25549D2*
G1X2233Y25549D1*
G1X2979Y25531D2*
G1X2215Y25531D1*
G1X2961Y25514D2*
G1X2197Y25514D1*
G1X2943Y25496D2*
G1X2180Y25496D1*
G1X2926Y25478D2*
G1X2162Y25478D1*
G1X2908Y25461D2*
G1X2144Y25461D1*
G1X2890Y25443D2*
G1X2126Y25443D1*
G1X2873Y25425D2*
G1X2109Y25425D1*
G1X2855Y25408D2*
G1X2091Y25408D1*
G1X2837Y25390D2*
G1X2073Y25390D1*
G1X2820Y25372D2*
G1X2056Y25372D1*
G1X2802Y25355D2*
G1X2069Y25355D1*
G1X2784Y25337D2*
G1X2086Y25337D1*
G1X2767Y25319D2*
G1X2104Y25319D1*
G1X2749Y25302D2*
G1X2122Y25302D1*
G1X2731Y25284D2*
G1X2139Y25284D1*
G1X2714Y25266D2*
G1X2157Y25266D1*
G1X2696Y25248D2*
G1X2175Y25248D1*
G1X2678Y25231D2*
G1X2192Y25231D1*
G1X2660Y25213D2*
G1X2210Y25213D1*
G1X2643Y25195D2*
G1X2228Y25195D1*
G1X2625Y25178D2*
G1X2245Y25178D1*
G1X2607Y25160D2*
G1X2263Y25160D1*
G1X2590Y25142D2*
G1X2281Y25142D1*
G1X2572Y25125D2*
G1X2299Y25125D1*
G1X2554Y25107D2*
G1X2316Y25107D1*
G1X2537Y25089D2*
G1X2334Y25089D1*
G1X2519Y25072D2*
G1X2352Y25072D1*
G1X2501Y25054D2*
G1X2369Y25054D1*
G1X2484Y25036D2*
G1X2387Y25036D1*
G1X2466Y25019D2*
G1X2405Y25019D1*
G1X43340Y25334D2*
G1X43314Y25334D1*
G1X43709Y25703D2*
G1X43327Y25321D1*
G1X42691Y25957D2*
G1X43327Y25321D1*
G1X43073Y26339D2*
G1X42691Y25957D1*
G1X43073Y26339D2*
G1X43709Y25703D1*
G1X43694Y25717D2*
G1X43694Y25688D1*
G1X43676Y25735D2*
G1X43676Y25670D1*
G1X43659Y25753D2*
G1X43659Y25652D1*
G1X43641Y25771D2*
G1X43641Y25635D1*
G1X43623Y25788D2*
G1X43623Y25617D1*
G1X43606Y25806D2*
G1X43606Y25599D1*
G1X43588Y25824D2*
G1X43588Y25582D1*
G1X43570Y25841D2*
G1X43570Y25564D1*
G1X43553Y25859D2*
G1X43553Y25546D1*
G1X43535Y25877D2*
G1X43535Y25529D1*
G1X43517Y25894D2*
G1X43517Y25511D1*
G1X43499Y25912D2*
G1X43499Y25493D1*
G1X43482Y25930D2*
G1X43482Y25475D1*
G1X43464Y25947D2*
G1X43464Y25458D1*
G1X43446Y25965D2*
G1X43446Y25440D1*
G1X43429Y25983D2*
G1X43429Y25422D1*
G1X43411Y26000D2*
G1X43411Y25405D1*
G1X43393Y26018D2*
G1X43393Y25387D1*
G1X43376Y26036D2*
G1X43376Y25369D1*
G1X43358Y26054D2*
G1X43358Y25352D1*
G1X43340Y26071D2*
G1X43340Y25334D1*
G1X43323Y26089D2*
G1X43323Y25325D1*
G1X43305Y26107D2*
G1X43305Y25343D1*
G1X43287Y26124D2*
G1X43287Y25360D1*
G1X43270Y26142D2*
G1X43270Y25378D1*
G1X43252Y26160D2*
G1X43252Y25396D1*
G1X43234Y26177D2*
G1X43234Y25413D1*
G1X43216Y26195D2*
G1X43216Y25431D1*
G1X43199Y26213D2*
G1X43199Y25449D1*
G1X43181Y26230D2*
G1X43181Y25466D1*
G1X43163Y26248D2*
G1X43163Y25484D1*
G1X43146Y26266D2*
G1X43146Y25502D1*
G1X43128Y26283D2*
G1X43128Y25519D1*
G1X43110Y26301D2*
G1X43110Y25537D1*
G1X43093Y26319D2*
G1X43093Y25555D1*
G1X43075Y26337D2*
G1X43075Y25573D1*
G1X43057Y26324D2*
G1X43057Y25590D1*
G1X43040Y26306D2*
G1X43040Y25608D1*
G1X43022Y26288D2*
G1X43022Y25626D1*
G1X43004Y26271D2*
G1X43004Y25643D1*
G1X42987Y26253D2*
G1X42987Y25661D1*
G1X42969Y26235D2*
G1X42969Y25679D1*
G1X42951Y26217D2*
G1X42951Y25696D1*
G1X42933Y26200D2*
G1X42933Y25714D1*
G1X42916Y26182D2*
G1X42916Y25732D1*
G1X42898Y26164D2*
G1X42898Y25749D1*
G1X42880Y26147D2*
G1X42880Y25767D1*
G1X42863Y26129D2*
G1X42863Y25785D1*
G1X42845Y26111D2*
G1X42845Y25802D1*
G1X42827Y26094D2*
G1X42827Y25820D1*
G1X42810Y26076D2*
G1X42810Y25838D1*
G1X42792Y26058D2*
G1X42792Y25856D1*
G1X42774Y26041D2*
G1X42774Y25873D1*
G1X42757Y26023D2*
G1X42757Y25891D1*
G1X42739Y26005D2*
G1X42739Y25909D1*
G1X42721Y25988D2*
G1X42721Y25926D1*
G1X42704Y25970D2*
G1X42704Y25944D1*
G1X43087Y26324D2*
G1X43058Y26324D1*
G1X43105Y26306D2*
G1X43040Y26306D1*
G1X43123Y26289D2*
G1X43022Y26289D1*
G1X43141Y26271D2*
G1X43005Y26271D1*
G1X43158Y26253D2*
G1X42987Y26253D1*
G1X43176Y26236D2*
G1X42969Y26236D1*
G1X43194Y26218D2*
G1X42952Y26218D1*
G1X43211Y26200D2*
G1X42934Y26200D1*
G1X43229Y26183D2*
G1X42916Y26183D1*
G1X43247Y26165D2*
G1X42899Y26165D1*
G1X43264Y26147D2*
G1X42881Y26147D1*
G1X43282Y26129D2*
G1X42863Y26129D1*
G1X43300Y26112D2*
G1X42845Y26112D1*
G1X43317Y26094D2*
G1X42828Y26094D1*
G1X43335Y26076D2*
G1X42810Y26076D1*
G1X43353Y26059D2*
G1X42792Y26059D1*
G1X43370Y26041D2*
G1X42775Y26041D1*
G1X43388Y26023D2*
G1X42757Y26023D1*
G1X43406Y26006D2*
G1X42739Y26006D1*
G1X43424Y25988D2*
G1X42722Y25988D1*
G1X43441Y25970D2*
G1X42704Y25970D1*
G1X43459Y25953D2*
G1X42695Y25953D1*
G1X43477Y25935D2*
G1X42713Y25935D1*
G1X43494Y25917D2*
G1X42730Y25917D1*
G1X43512Y25900D2*
G1X42748Y25900D1*
G1X43530Y25882D2*
G1X42766Y25882D1*
G1X43547Y25864D2*
G1X42783Y25864D1*
G1X43565Y25846D2*
G1X42801Y25846D1*
G1X43583Y25829D2*
G1X42819Y25829D1*
G1X43600Y25811D2*
G1X42836Y25811D1*
G1X43618Y25793D2*
G1X42854Y25793D1*
G1X43636Y25776D2*
G1X42872Y25776D1*
G1X43653Y25758D2*
G1X42889Y25758D1*
G1X43671Y25740D2*
G1X42907Y25740D1*
G1X43689Y25723D2*
G1X42925Y25723D1*
G1X43707Y25705D2*
G1X42943Y25705D1*
G1X43694Y25687D2*
G1X42960Y25687D1*
G1X43676Y25670D2*
G1X42978Y25670D1*
G1X43658Y25652D2*
G1X42996Y25652D1*
G1X43641Y25634D2*
G1X43013Y25634D1*
G1X43623Y25617D2*
G1X43031Y25617D1*
G1X43605Y25599D2*
G1X43049Y25599D1*
G1X43587Y25581D2*
G1X43066Y25581D1*
G1X43570Y25563D2*
G1X43084Y25563D1*
G1X43552Y25546D2*
G1X43102Y25546D1*
G1X43534Y25528D2*
G1X43119Y25528D1*
G1X43517Y25510D2*
G1X43137Y25510D1*
G1X43499Y25493D2*
G1X43155Y25493D1*
G1X43481Y25475D2*
G1X43172Y25475D1*
G1X43464Y25457D2*
G1X43190Y25457D1*
G1X43446Y25440D2*
G1X43208Y25440D1*
G1X43428Y25422D2*
G1X43226Y25422D1*
G1X43411Y25404D2*
G1X43243Y25404D1*
G1X43393Y25387D2*
G1X43261Y25387D1*
G1X43375Y25369D2*
G1X43279Y25369D1*
G1X43358Y25351D2*
G1X43296Y25351D1*
G1X44167Y26161D2*
G1X44141Y26161D1*
G1X43900Y27166D2*
G1X43518Y26784D1*
G1X43900Y27166D2*
G1X44536Y26530D1*
G1X44154Y26148D1*
G1X43518Y26784D2*
G1X44154Y26148D1*
G1X44521Y26545D2*
G1X44521Y26515D1*
G1X44504Y26563D2*
G1X44504Y26497D1*
G1X44486Y26580D2*
G1X44486Y26480D1*
G1X44468Y26598D2*
G1X44468Y26462D1*
G1X44451Y26616D2*
G1X44451Y26444D1*
G1X44433Y26633D2*
G1X44433Y26427D1*
G1X44415Y26651D2*
G1X44415Y26409D1*
G1X44398Y26669D2*
G1X44398Y26391D1*
G1X44380Y26686D2*
G1X44380Y26374D1*
G1X44362Y26704D2*
G1X44362Y26356D1*
G1X44344Y26722D2*
G1X44344Y26338D1*
G1X44327Y26739D2*
G1X44327Y26320D1*
G1X44309Y26757D2*
G1X44309Y26303D1*
G1X44291Y26775D2*
G1X44291Y26285D1*
G1X44274Y26792D2*
G1X44274Y26267D1*
G1X44256Y26810D2*
G1X44256Y26250D1*
G1X44238Y26828D2*
G1X44238Y26232D1*
G1X44221Y26846D2*
G1X44221Y26214D1*
G1X44203Y26863D2*
G1X44203Y26197D1*
G1X44185Y26881D2*
G1X44185Y26179D1*
G1X44168Y26899D2*
G1X44168Y26161D1*
G1X44150Y26916D2*
G1X44150Y26152D1*
G1X44132Y26934D2*
G1X44132Y26170D1*
G1X44115Y26952D2*
G1X44115Y26188D1*
G1X44097Y26969D2*
G1X44097Y26205D1*
G1X44079Y26987D2*
G1X44079Y26223D1*
G1X44061Y27005D2*
G1X44061Y26241D1*
G1X44044Y27022D2*
G1X44044Y26258D1*
G1X44026Y27040D2*
G1X44026Y26276D1*
G1X44008Y27058D2*
G1X44008Y26294D1*
G1X43991Y27075D2*
G1X43991Y26311D1*
G1X43973Y27093D2*
G1X43973Y26329D1*
G1X43955Y27111D2*
G1X43955Y26347D1*
G1X43938Y27129D2*
G1X43938Y26365D1*
G1X43920Y27146D2*
G1X43920Y26382D1*
G1X43902Y27164D2*
G1X43902Y26400D1*
G1X43885Y27151D2*
G1X43885Y26418D1*
G1X43867Y27133D2*
G1X43867Y26435D1*
G1X43849Y27116D2*
G1X43849Y26453D1*
G1X43832Y27098D2*
G1X43832Y26471D1*
G1X43814Y27080D2*
G1X43814Y26488D1*
G1X43796Y27063D2*
G1X43796Y26506D1*
G1X43778Y27045D2*
G1X43778Y26524D1*
G1X43761Y27027D2*
G1X43761Y26541D1*
G1X43743Y27009D2*
G1X43743Y26559D1*
G1X43725Y26992D2*
G1X43725Y26577D1*
G1X43708Y26974D2*
G1X43708Y26594D1*
G1X43690Y26956D2*
G1X43690Y26612D1*
G1X43672Y26939D2*
G1X43672Y26630D1*
G1X43655Y26921D2*
G1X43655Y26648D1*
G1X43637Y26903D2*
G1X43637Y26665D1*
G1X43619Y26886D2*
G1X43619Y26683D1*
G1X43602Y26868D2*
G1X43602Y26701D1*
G1X43584Y26850D2*
G1X43584Y26718D1*
G1X43566Y26833D2*
G1X43566Y26736D1*
G1X43549Y26815D2*
G1X43549Y26754D1*
G1X43531Y26797D2*
G1X43531Y26771D1*
G1X43915Y27151D2*
G1X43885Y27151D1*
G1X43933Y27134D2*
G1X43867Y27134D1*
G1X43950Y27116D2*
G1X43850Y27116D1*
G1X43968Y27098D2*
G1X43832Y27098D1*
G1X43986Y27081D2*
G1X43814Y27081D1*
G1X44003Y27063D2*
G1X43797Y27063D1*
G1X44021Y27045D2*
G1X43779Y27045D1*
G1X44039Y27028D2*
G1X43761Y27028D1*
G1X44056Y27010D2*
G1X43744Y27010D1*
G1X44074Y26992D2*
G1X43726Y26992D1*
G1X44092Y26974D2*
G1X43708Y26974D1*
G1X44109Y26957D2*
G1X43690Y26957D1*
G1X44127Y26939D2*
G1X43673Y26939D1*
G1X44145Y26921D2*
G1X43655Y26921D1*
G1X44162Y26904D2*
G1X43637Y26904D1*
G1X44180Y26886D2*
G1X43620Y26886D1*
G1X44198Y26868D2*
G1X43602Y26868D1*
G1X44216Y26851D2*
G1X43584Y26851D1*
G1X44233Y26833D2*
G1X43567Y26833D1*
G1X44251Y26815D2*
G1X43549Y26815D1*
G1X44269Y26798D2*
G1X43531Y26798D1*
G1X44286Y26780D2*
G1X43522Y26780D1*
G1X44304Y26762D2*
G1X43540Y26762D1*
G1X44322Y26745D2*
G1X43558Y26745D1*
G1X44339Y26727D2*
G1X43575Y26727D1*
G1X44357Y26709D2*
G1X43593Y26709D1*
G1X44375Y26691D2*
G1X43611Y26691D1*
G1X44392Y26674D2*
G1X43628Y26674D1*
G1X44410Y26656D2*
G1X43646Y26656D1*
G1X44428Y26638D2*
G1X43664Y26638D1*
G1X44445Y26621D2*
G1X43681Y26621D1*
G1X44463Y26603D2*
G1X43699Y26603D1*
G1X44481Y26585D2*
G1X43717Y26585D1*
G1X44499Y26568D2*
G1X43735Y26568D1*
G1X44516Y26550D2*
G1X43752Y26550D1*
G1X44534Y26532D2*
G1X43770Y26532D1*
G1X44521Y26515D2*
G1X43788Y26515D1*
G1X44503Y26497D2*
G1X43805Y26497D1*
G1X44486Y26479D2*
G1X43823Y26479D1*
G1X44468Y26462D2*
G1X43841Y26462D1*
G1X44450Y26444D2*
G1X43858Y26444D1*
G1X44433Y26426D2*
G1X43876Y26426D1*
G1X44415Y26408D2*
G1X43894Y26408D1*
G1X44397Y26391D2*
G1X43911Y26391D1*
G1X44379Y26373D2*
G1X43929Y26373D1*
G1X44362Y26355D2*
G1X43947Y26355D1*
G1X44344Y26338D2*
G1X43964Y26338D1*
G1X44326Y26320D2*
G1X43982Y26320D1*
G1X44309Y26302D2*
G1X44000Y26302D1*
G1X44291Y26285D2*
G1X44018Y26285D1*
G1X44273Y26267D2*
G1X44035Y26267D1*
G1X44256Y26249D2*
G1X44053Y26249D1*
G1X44238Y26232D2*
G1X44071Y26232D1*
G1X44220Y26214D2*
G1X44088Y26214D1*
G1X44203Y26196D2*
G1X44106Y26196D1*
G1X44185Y26179D2*
G1X44124Y26179D1*
G1X43066Y-3036D2*
G1X43040Y-3036D1*
G1X42671Y-2667D2*
G1X43053Y-3049D1*
G1X43307Y-2031D2*
G1X42671Y-2667D1*
G1X43307Y-2031D2*
G1X43689Y-2413D1*
G1X43053Y-3049D1*
G1X43674Y-2398D2*
G1X43674Y-2428D1*
G1X43656Y-2380D2*
G1X43656Y-2446D1*
G1X43639Y-2363D2*
G1X43639Y-2463D1*
G1X43621Y-2345D2*
G1X43621Y-2481D1*
G1X43603Y-2327D2*
G1X43603Y-2499D1*
G1X43586Y-2310D2*
G1X43586Y-2516D1*
G1X43568Y-2292D2*
G1X43568Y-2534D1*
G1X43550Y-2274D2*
G1X43550Y-2552D1*
G1X43533Y-2257D2*
G1X43533Y-2569D1*
G1X43515Y-2239D2*
G1X43515Y-2587D1*
G1X43497Y-2221D2*
G1X43497Y-2605D1*
G1X43479Y-2203D2*
G1X43479Y-2622D1*
G1X43462Y-2186D2*
G1X43462Y-2640D1*
G1X43444Y-2168D2*
G1X43444Y-2658D1*
G1X43426Y-2150D2*
G1X43426Y-2675D1*
G1X43409Y-2133D2*
G1X43409Y-2693D1*
G1X43391Y-2115D2*
G1X43391Y-2711D1*
G1X43373Y-2097D2*
G1X43373Y-2729D1*
G1X43356Y-2080D2*
G1X43356Y-2746D1*
G1X43338Y-2062D2*
G1X43338Y-2764D1*
G1X43320Y-2044D2*
G1X43320Y-2782D1*
G1X43303Y-2035D2*
G1X43303Y-2799D1*
G1X43285Y-2053D2*
G1X43285Y-2817D1*
G1X43267Y-2071D2*
G1X43267Y-2835D1*
G1X43250Y-2088D2*
G1X43250Y-2852D1*
G1X43232Y-2106D2*
G1X43232Y-2870D1*
G1X43214Y-2124D2*
G1X43214Y-2888D1*
G1X43196Y-2141D2*
G1X43196Y-2905D1*
G1X43179Y-2159D2*
G1X43179Y-2923D1*
G1X43161Y-2177D2*
G1X43161Y-2941D1*
G1X43143Y-2194D2*
G1X43143Y-2958D1*
G1X43126Y-2212D2*
G1X43126Y-2976D1*
G1X43108Y-2230D2*
G1X43108Y-2994D1*
G1X43090Y-2248D2*
G1X43090Y-3012D1*
G1X43073Y-2265D2*
G1X43073Y-3029D1*
G1X43055Y-2283D2*
G1X43055Y-3047D1*
G1X43037Y-2301D2*
G1X43037Y-3034D1*
G1X43020Y-2318D2*
G1X43020Y-3016D1*
G1X43002Y-2336D2*
G1X43002Y-2999D1*
G1X42984Y-2354D2*
G1X42984Y-2981D1*
G1X42967Y-2371D2*
G1X42967Y-2963D1*
G1X42949Y-2389D2*
G1X42949Y-2946D1*
G1X42931Y-2407D2*
G1X42931Y-2928D1*
G1X42913Y-2424D2*
G1X42913Y-2910D1*
G1X42896Y-2442D2*
G1X42896Y-2892D1*
G1X42878Y-2460D2*
G1X42878Y-2875D1*
G1X42860Y-2477D2*
G1X42860Y-2857D1*
G1X42843Y-2495D2*
G1X42843Y-2839D1*
G1X42825Y-2513D2*
G1X42825Y-2822D1*
G1X42807Y-2531D2*
G1X42807Y-2804D1*
G1X42790Y-2548D2*
G1X42790Y-2786D1*
G1X42772Y-2566D2*
G1X42772Y-2769D1*
G1X42754Y-2584D2*
G1X42754Y-2751D1*
G1X42737Y-2601D2*
G1X42737Y-2733D1*
G1X42719Y-2619D2*
G1X42719Y-2716D1*
G1X42701Y-2637D2*
G1X42701Y-2698D1*
G1X42684Y-2654D2*
G1X42684Y-2680D1*
G1X43322Y-2046D2*
G1X43292Y-2046D1*
G1X43340Y-2064D2*
G1X43274Y-2064D1*
G1X43357Y-2081D2*
G1X43257Y-2081D1*
G1X43375Y-2099D2*
G1X43239Y-2099D1*
G1X43393Y-2117D2*
G1X43221Y-2117D1*
G1X43410Y-2134D2*
G1X43204Y-2134D1*
G1X43428Y-2152D2*
G1X43186Y-2152D1*
G1X43446Y-2170D2*
G1X43168Y-2170D1*
G1X43463Y-2187D2*
G1X43151Y-2187D1*
G1X43481Y-2205D2*
G1X43133Y-2205D1*
G1X43499Y-2223D2*
G1X43115Y-2223D1*
G1X43516Y-2240D2*
G1X43097Y-2240D1*
G1X43534Y-2258D2*
G1X43080Y-2258D1*
G1X43552Y-2276D2*
G1X43062Y-2276D1*
G1X43569Y-2293D2*
G1X43044Y-2293D1*
G1X43587Y-2311D2*
G1X43027Y-2311D1*
G1X43605Y-2329D2*
G1X43009Y-2329D1*
G1X43623Y-2347D2*
G1X42991Y-2347D1*
G1X43640Y-2364D2*
G1X42974Y-2364D1*
G1X43658Y-2382D2*
G1X42956Y-2382D1*
G1X43676Y-2400D2*
G1X42938Y-2400D1*
G1X43685Y-2417D2*
G1X42921Y-2417D1*
G1X43667Y-2435D2*
G1X42903Y-2435D1*
G1X43649Y-2453D2*
G1X42885Y-2453D1*
G1X43632Y-2470D2*
G1X42868Y-2470D1*
G1X43614Y-2488D2*
G1X42850Y-2488D1*
G1X43596Y-2506D2*
G1X42832Y-2506D1*
G1X43578Y-2523D2*
G1X42814Y-2523D1*
G1X43561Y-2541D2*
G1X42797Y-2541D1*
G1X43543Y-2559D2*
G1X42779Y-2559D1*
G1X43525Y-2576D2*
G1X42761Y-2576D1*
G1X43508Y-2594D2*
G1X42744Y-2594D1*
G1X43490Y-2612D2*
G1X42726Y-2612D1*
G1X43472Y-2630D2*
G1X42708Y-2630D1*
G1X43455Y-2647D2*
G1X42691Y-2647D1*
G1X43437Y-2665D2*
G1X42673Y-2665D1*
G1X43419Y-2683D2*
G1X42686Y-2683D1*
G1X43402Y-2700D2*
G1X42704Y-2700D1*
G1X43384Y-2718D2*
G1X42721Y-2718D1*
G1X43366Y-2736D2*
G1X42739Y-2736D1*
G1X43349Y-2753D2*
G1X42757Y-2753D1*
G1X43331Y-2771D2*
G1X42774Y-2771D1*
G1X43313Y-2789D2*
G1X42792Y-2789D1*
G1X43295Y-2806D2*
G1X42810Y-2806D1*
G1X43278Y-2824D2*
G1X42827Y-2824D1*
G1X43260Y-2842D2*
G1X42845Y-2842D1*
G1X43242Y-2859D2*
G1X42863Y-2859D1*
G1X43225Y-2877D2*
G1X42880Y-2877D1*
G1X43207Y-2895D2*
G1X42898Y-2895D1*
G1X43189Y-2913D2*
G1X42916Y-2913D1*
G1X43172Y-2930D2*
G1X42934Y-2930D1*
G1X43154Y-2948D2*
G1X42951Y-2948D1*
G1X43136Y-2966D2*
G1X42969Y-2966D1*
G1X43119Y-2983D2*
G1X42987Y-2983D1*
G1X43101Y-3001D2*
G1X43004Y-3001D1*
G1X43083Y-3019D2*
G1X43022Y-3019D1*
G1X43893Y-3864D2*
G1X43867Y-3864D1*
G1X44134Y-2858D2*
G1X44516Y-3240D1*
G1X43880Y-3877D1*
G1X43498Y-3495D2*
G1X43880Y-3877D1*
G1X44134Y-2858D2*
G1X43498Y-3495D1*
G1X44501Y-3225D2*
G1X44501Y-3255D1*
G1X44484Y-3207D2*
G1X44484Y-3273D1*
G1X44466Y-3190D2*
G1X44466Y-3290D1*
G1X44448Y-3172D2*
G1X44448Y-3308D1*
G1X44431Y-3154D2*
G1X44431Y-3326D1*
G1X44413Y-3137D2*
G1X44413Y-3343D1*
G1X44395Y-3119D2*
G1X44395Y-3361D1*
G1X44378Y-3101D2*
G1X44378Y-3379D1*
G1X44360Y-3084D2*
G1X44360Y-3396D1*
G1X44342Y-3066D2*
G1X44342Y-3414D1*
G1X44324Y-3048D2*
G1X44324Y-3432D1*
G1X44307Y-3031D2*
G1X44307Y-3449D1*
G1X44289Y-3013D2*
G1X44289Y-3467D1*
G1X44271Y-2995D2*
G1X44271Y-3485D1*
G1X44254Y-2978D2*
G1X44254Y-3503D1*
G1X44236Y-2960D2*
G1X44236Y-3520D1*
G1X44218Y-2942D2*
G1X44218Y-3538D1*
G1X44201Y-2925D2*
G1X44201Y-3556D1*
G1X44183Y-2907D2*
G1X44183Y-3573D1*
G1X44165Y-2889D2*
G1X44165Y-3591D1*
G1X44148Y-2872D2*
G1X44148Y-3609D1*
G1X44130Y-2863D2*
G1X44130Y-3626D1*
G1X44112Y-2880D2*
G1X44112Y-3644D1*
G1X44095Y-2898D2*
G1X44095Y-3662D1*
G1X44077Y-2916D2*
G1X44077Y-3680D1*
G1X44059Y-2933D2*
G1X44059Y-3697D1*
G1X44041Y-2951D2*
G1X44041Y-3715D1*
G1X44024Y-2969D2*
G1X44024Y-3733D1*
G1X44006Y-2986D2*
G1X44006Y-3750D1*
G1X43988Y-3004D2*
G1X43988Y-3768D1*
G1X43971Y-3022D2*
G1X43971Y-3786D1*
G1X43953Y-3039D2*
G1X43953Y-3803D1*
G1X43935Y-3057D2*
G1X43935Y-3821D1*
G1X43918Y-3075D2*
G1X43918Y-3839D1*
G1X43900Y-3093D2*
G1X43900Y-3857D1*
G1X43882Y-3110D2*
G1X43882Y-3874D1*
G1X43865Y-3128D2*
G1X43865Y-3861D1*
G1X43847Y-3146D2*
G1X43847Y-3844D1*
G1X43829Y-3163D2*
G1X43829Y-3826D1*
G1X43812Y-3181D2*
G1X43812Y-3808D1*
G1X43794Y-3199D2*
G1X43794Y-3791D1*
G1X43776Y-3216D2*
G1X43776Y-3773D1*
G1X43758Y-3234D2*
G1X43758Y-3755D1*
G1X43741Y-3252D2*
G1X43741Y-3737D1*
G1X43723Y-3269D2*
G1X43723Y-3720D1*
G1X43705Y-3287D2*
G1X43705Y-3702D1*
G1X43688Y-3305D2*
G1X43688Y-3684D1*
G1X43670Y-3322D2*
G1X43670Y-3667D1*
G1X43652Y-3340D2*
G1X43652Y-3649D1*
G1X43635Y-3358D2*
G1X43635Y-3631D1*
G1X43617Y-3376D2*
G1X43617Y-3614D1*
G1X43599Y-3393D2*
G1X43599Y-3596D1*
G1X43582Y-3411D2*
G1X43582Y-3578D1*
G1X43564Y-3429D2*
G1X43564Y-3561D1*
G1X43546Y-3446D2*
G1X43546Y-3543D1*
G1X43529Y-3464D2*
G1X43529Y-3525D1*
G1X43511Y-3482D2*
G1X43511Y-3508D1*
G1X44149Y-2873D2*
G1X44119Y-2873D1*
G1X44167Y-2891D2*
G1X44102Y-2891D1*
G1X44185Y-2909D2*
G1X44084Y-2909D1*
G1X44202Y-2926D2*
G1X44066Y-2926D1*
G1X44220Y-2944D2*
G1X44049Y-2944D1*
G1X44238Y-2962D2*
G1X44031Y-2962D1*
G1X44255Y-2979D2*
G1X44013Y-2979D1*
G1X44273Y-2997D2*
G1X43996Y-2997D1*
G1X44291Y-3015D2*
G1X43978Y-3015D1*
G1X44308Y-3032D2*
G1X43960Y-3032D1*
G1X44326Y-3050D2*
G1X43942Y-3050D1*
G1X44344Y-3068D2*
G1X43925Y-3068D1*
G1X44362Y-3085D2*
G1X43907Y-3085D1*
G1X44379Y-3103D2*
G1X43889Y-3103D1*
G1X44397Y-3121D2*
G1X43872Y-3121D1*
G1X44415Y-3138D2*
G1X43854Y-3138D1*
G1X44432Y-3156D2*
G1X43836Y-3156D1*
G1X44450Y-3174D2*
G1X43819Y-3174D1*
G1X44468Y-3192D2*
G1X43801Y-3192D1*
G1X44486Y-3209D2*
G1X43783Y-3209D1*
G1X44503Y-3227D2*
G1X43766Y-3227D1*
G1X44512Y-3245D2*
G1X43748Y-3245D1*
G1X44494Y-3262D2*
G1X43730Y-3262D1*
G1X44476Y-3280D2*
G1X43713Y-3280D1*
G1X44459Y-3298D2*
G1X43695Y-3298D1*
G1X44441Y-3315D2*
G1X43677Y-3315D1*
G1X44423Y-3333D2*
G1X43659Y-3333D1*
G1X44406Y-3351D2*
G1X43642Y-3351D1*
G1X44388Y-3368D2*
G1X43624Y-3368D1*
G1X44370Y-3386D2*
G1X43606Y-3386D1*
G1X44352Y-3404D2*
G1X43589Y-3404D1*
G1X44335Y-3421D2*
G1X43571Y-3421D1*
G1X44317Y-3439D2*
G1X43553Y-3439D1*
G1X44299Y-3457D2*
G1X43536Y-3457D1*
G1X44282Y-3475D2*
G1X43518Y-3475D1*
G1X44264Y-3492D2*
G1X43500Y-3492D1*
G1X44246Y-3510D2*
G1X43513Y-3510D1*
G1X44229Y-3528D2*
G1X43531Y-3528D1*
G1X44211Y-3545D2*
G1X43549Y-3545D1*
G1X44193Y-3563D2*
G1X43566Y-3563D1*
G1X44176Y-3581D2*
G1X43584Y-3581D1*
G1X44158Y-3598D2*
G1X43602Y-3598D1*
G1X44140Y-3616D2*
G1X43619Y-3616D1*
G1X44123Y-3634D2*
G1X43637Y-3634D1*
G1X44105Y-3651D2*
G1X43655Y-3651D1*
G1X44087Y-3669D2*
G1X43672Y-3669D1*
G1X44070Y-3687D2*
G1X43690Y-3687D1*
G1X44052Y-3704D2*
G1X43708Y-3704D1*
G1X44034Y-3722D2*
G1X43725Y-3722D1*
G1X44017Y-3740D2*
G1X43743Y-3740D1*
G1X43999Y-3758D2*
G1X43761Y-3758D1*
G1X43981Y-3775D2*
G1X43779Y-3775D1*
G1X43964Y-3793D2*
G1X43796Y-3793D1*
G1X43946Y-3811D2*
G1X43814Y-3811D1*
G1X43928Y-3828D2*
G1X43832Y-3828D1*
G1X43911Y-3846D2*
G1X43849Y-3846D1*
G54D220*
G1X17445Y11875D3*
G1X17445Y11315D3*
G1X37550Y21450D3*
G1X37550Y20890D3*
G1X42090Y13540D3*
G1X42090Y12980D3*
G54D222*
G1X11810Y17080D3*
G1X11810Y17500D3*
G1X17370Y9700D3*
G1X17370Y10120D3*
G1X41330Y13610D3*
G1X40910Y13610D3*
G1X40936Y9850D3*
G1X41356Y9850D3*
G1X43370Y11540D3*
G1X43370Y11960D3*
G1X36380Y5510D3*
G1X35960Y5510D3*
G1X30240Y4510D3*
G1X30240Y4930D3*
G1X30080Y19470D3*
G1X30080Y19050D3*
G1X29600Y18110D3*
G1X29600Y17690D3*
G1X29600Y19470D3*
G1X29600Y19050D3*
G1X18780Y10940D3*
G1X19200Y10940D3*
G1X18780Y11480D3*
G1X19200Y11480D3*
G1X18780Y12020D3*
G1X19200Y12020D3*
G1X47650Y17580D3*
G1X47650Y17160D3*
G1X46420Y17580D3*
G1X46420Y17160D3*
G1X20400Y1960D3*
G1X19980Y1960D3*
G1X940Y-2560D3*
G1X1360Y-2560D3*
G1X1010Y25950D3*
G1X1430Y25950D3*
G1X20400Y21480D3*
G1X19980Y21480D3*
G1X44560Y25070D3*
G1X44560Y25490D3*
G1X44950Y-2130D3*
G1X44530Y-2130D3*
G1X35560Y20300D3*
G1X35980Y20300D3*
G1X34700Y22240D3*
G1X35120Y22240D3*
G1X34500Y20300D3*
G1X34920Y20300D3*
G1X35820Y22240D3*
G1X36240Y22240D3*
G1X37530Y20160D3*
G1X37950Y20160D3*
G1X40900Y12920D3*
G1X41320Y12920D3*
G1X41340Y10520D3*
G1X40920Y10520D3*
G1X42680Y11980D3*
G1X42680Y11560D3*
G1X26160Y14480D3*
G1X26160Y14900D3*
G1X26070Y9080D3*
G1X25650Y9080D3*
G1X23110Y17640D3*
G1X23110Y18060D3*
G1X45140Y-3050D3*
G1X45140Y-3470D3*
G1X45260Y26330D3*
G1X45260Y25910D3*
G1X-690Y-1030D3*
G1X-690Y-610D3*
G1X-600Y24450D3*
G1X-600Y24870D3*
G1X42430Y-1430D3*
G1X42010Y-1430D3*
G1X33935Y765D3*
G1X33935Y1185D3*
G1X31985Y765D3*
G1X31985Y1185D3*
G1X1630Y20980D3*
G1X1630Y20560D3*
G1X2070Y15920D3*
G1X2070Y15500D3*
G1X3810Y15490D3*
G1X3810Y15910D3*
G1X2920Y15920D3*
G1X2920Y15500D3*
G54D224*
G1X19960Y6700D3*
G1X19960Y6200D3*
G1X19960Y5700D3*
G1X19960Y5200D3*
G1X19960Y4700D3*
G1X19960Y4200D3*
G1X19960Y3700D3*
G1X21920Y3700D3*
G1X21920Y4200D3*
G1X21920Y4700D3*
G1X21920Y5200D3*
G1X21920Y5700D3*
G1X21920Y6200D3*
G1X21920Y6700D3*
G1X21920Y7200D3*
G1X33580Y2320D3*
G1X33580Y2820D3*
G1X33580Y3320D3*
G1X31620Y3320D3*
G1X31620Y2820D3*
G1X31620Y2320D3*
G1X31620Y1820D3*
G54D225*
G1X19960Y7200D3*
G1X33580Y1820D3*
G54D231*
G1X2650Y20810D3*
G1X2650Y22210D3*
G1X4270Y20810D3*
G1X4270Y22210D3*
G1X-3350Y12180D3*
G1X-3350Y10780D3*
G1X-750Y7940D3*
G1X-750Y9340D3*
G1X580Y7940D3*
G1X580Y9340D3*
G1X2620Y7940D3*
G1X2620Y9340D3*
G1X4000Y7940D3*
G1X4000Y9340D3*
G1X-750Y10880D3*
G1X-750Y12280D3*
G1X580Y10880D3*
G1X580Y12280D3*
G1X2620Y10880D3*
G1X2620Y12280D3*
G1X4000Y10880D3*
G1X4000Y12280D3*
G54D234*
G1X15590Y9920D3*
G1X16090Y9920D3*
G1X16590Y9920D3*
G1X16590Y11880D3*
G1X16090Y11880D3*
G1X15590Y11880D3*
G1X15090Y11880D3*
G1X13440Y17090D3*
G1X12940Y17090D3*
G1X12440Y17090D3*
G1X12440Y15130D3*
G1X12940Y15130D3*
G1X13440Y15130D3*
G1X13940Y15130D3*
G54D235*
G1X15090Y9920D3*
G1X13940Y17090D3*
G54D237*
G1X36580Y15060D3*
G1X36580Y14560D3*
G1X36580Y14060D3*
G1X38700Y14060D3*
G1X38700Y14560D3*
G1X38700Y15060D3*
G1X38700Y15560D3*
G1X26350Y18870D3*
G1X26350Y18370D3*
G1X26350Y17870D3*
G1X28470Y17870D3*
G1X28470Y18370D3*
G1X28470Y18870D3*
G1X28470Y19370D3*
G1X22240Y10850D3*
G1X22240Y11350D3*
G1X22240Y11850D3*
G1X20120Y11850D3*
G1X20120Y11350D3*
G1X20120Y10850D3*
G1X20120Y10350D3*
G54D238*
G1X36580Y15560D3*
G1X26350Y19370D3*
G1X22240Y10350D3*
G54D239*
G1X34680Y20980D3*
G1X34936Y20980D3*
G1X35192Y20980D3*
G1X35192Y21688D3*
G1X34680Y21688D3*
G1X35600Y20980D3*
G1X35856Y20980D3*
G1X36112Y20980D3*
G1X36112Y21688D3*
G1X35600Y21688D3*
G54D240*
G1X33325Y625D3*
G1X33325Y881D3*
G1X33325Y1137D3*
G1X32616Y1137D3*
G1X32616Y625D3*
G54D248*
G1X28220Y13080D3*
G1X27660Y13080D3*
G1X42100Y15180D3*
G1X41540Y15180D3*
G54D254*
G1X46930Y11077D3*
G1X46930Y11274D3*
G1X46930Y11471D3*
G1X46930Y11668D3*
G1X46930Y11865D3*
G1X46930Y12062D3*
G1X46930Y12259D3*
G1X45946Y12259D3*
G1X45946Y12062D3*
G1X45946Y11865D3*
G1X45946Y11668D3*
G1X45946Y11471D3*
G1X45946Y11274D3*
G1X45946Y11077D3*
G1X45946Y10880D3*
G54D255*
G1X46930Y10880D3*
G54D258*
G1X36320Y7420D3*
G1X36320Y7170D3*
G1X36320Y6920D3*
G1X36320Y6670D3*
G1X36320Y6420D3*
G1X36320Y6170D3*
G1X36320Y5920D3*
G1X38820Y5920D3*
G1X38820Y6170D3*
G1X38820Y6420D3*
G1X38820Y6670D3*
G1X38820Y6920D3*
G1X38820Y7170D3*
G1X38820Y7420D3*
G1X38820Y7670D3*
G1X36320Y1960D3*
G1X36320Y1710D3*
G1X36320Y1460D3*
G1X36320Y1210D3*
G1X36320Y960D3*
G1X36320Y710D3*
G1X36320Y460D3*
G1X38820Y460D3*
G1X38820Y710D3*
G1X38820Y960D3*
G1X38820Y1210D3*
G1X38820Y1460D3*
G1X38820Y1710D3*
G1X38820Y1960D3*
G1X38820Y2210D3*
G1X42980Y6170D3*
G1X42980Y6420D3*
G1X42980Y6670D3*
G1X42980Y6920D3*
G1X42980Y7170D3*
G1X42980Y7420D3*
G1X42980Y7670D3*
G1X40480Y7670D3*
G1X40480Y7420D3*
G1X40480Y7170D3*
G1X40480Y6920D3*
G1X40480Y6670D3*
G1X40480Y6420D3*
G1X40480Y6170D3*
G1X40480Y5920D3*
G1X36320Y4710D3*
G1X36320Y4460D3*
G1X36320Y4210D3*
G1X36320Y3960D3*
G1X36320Y3710D3*
G1X36320Y3460D3*
G1X36320Y3210D3*
G1X38820Y3210D3*
G1X38820Y3460D3*
G1X38820Y3710D3*
G1X38820Y3960D3*
G1X38820Y4210D3*
G1X38820Y4460D3*
G1X38820Y4710D3*
G1X38820Y4960D3*
G1X36320Y10220D3*
G1X36320Y9970D3*
G1X36320Y9720D3*
G1X36320Y9470D3*
G1X36320Y9220D3*
G1X36320Y8970D3*
G1X36320Y8720D3*
G1X38820Y8720D3*
G1X38820Y8970D3*
G1X38820Y9220D3*
G1X38820Y9470D3*
G1X38820Y9720D3*
G1X38820Y9970D3*
G1X38820Y10220D3*
G1X38820Y10470D3*
G54D259*
G1X36320Y7670D3*
G1X36320Y2210D3*
G1X42980Y5920D3*
G1X36320Y4960D3*
G1X36320Y10470D3*
G54D262*
G1X27914Y4036D3*
G1X28701Y4036D3*
G1X27914Y4824D3*
G1X28701Y4824D3*
G1X28701Y3249D3*
G54D263*
G1X27914Y3249D3*
G54D264*
G1X39560Y11130D3*
G1X39950Y11130D3*
G1X40340Y11130D3*
G1X40730Y11130D3*
G1X41120Y11130D3*
G1X41510Y11130D3*
G1X41900Y11130D3*
G1X41900Y12310D3*
G1X41510Y12310D3*
G1X41120Y12310D3*
G1X40730Y12310D3*
G1X40340Y12310D3*
G1X39950Y12310D3*
G1X39560Y12310D3*
G1X39170Y12310D3*
G54D390*
G1X40090Y18196D3*
G1X41558Y18196D3*
G54D391*
G1X40824Y18930D3*
G1X40324Y18930D3*
G1X40324Y17461D3*
G1X40824Y17461D3*
G1X41324Y17461D3*
G54D392*
G1X41324Y18930D3*
G54D393*
G1X36890Y17380D3*
G1X37140Y17380D3*
G1X37390Y17380D3*
G1X37640Y17380D3*
G1X37890Y17380D3*
G1X38140Y17380D3*
G1X38390Y17380D3*
G1X38390Y19330D3*
G1X38140Y19330D3*
G1X37890Y19330D3*
G1X37640Y19330D3*
G1X37390Y19330D3*
G1X37140Y19330D3*
G1X36890Y19330D3*
G1X36640Y19330D3*
G54D394*
G1X36640Y17380D3*
G54D396*
G1X1934Y17410D3*
G1X2130Y17410D3*
G1X2327Y17410D3*
G1X2524Y17410D3*
G1X2721Y17410D3*
G1X2918Y17410D3*
G1X3115Y17410D3*
G1X3115Y19378D3*
G1X2918Y19378D3*
G1X2721Y19378D3*
G1X2524Y19378D3*
G1X2327Y19378D3*
G1X2130Y19378D3*
G1X1934Y19378D3*
G54D397*
G1X1540Y18788D3*
G1X1540Y18591D3*
G1X1540Y18394D3*
G1X1540Y18197D3*
G1X1540Y18000D3*
G1X1540Y17804D3*
G1X3508Y17804D3*
G1X3508Y18000D3*
G1X3508Y18197D3*
G1X3508Y18394D3*
G1X3508Y18591D3*
G1X3508Y18788D3*
G1X3508Y18985D3*
G54D398*
G1X1540Y18985D3*
G54D399*
G1X5783Y16370D3*
G1X9720Y16370D3*
G54D401*
G1X8510Y19720D3*
G1X10310Y19720D3*
G1X16870Y13730D3*
G1X15070Y13730D3*
G1X2080Y13910D3*
G1X3880Y13910D3*
G54D403*
G1X4550Y1770D3*
G1X1361Y1770D3*
G54D404*
G1X21150Y690D3*
G1X19980Y690D3*
G1X21150Y22640D3*
G1X19980Y22640D3*
G54D405*
G1X41700Y400D3*
G1X41700Y-470D3*
G1X42460Y-470D3*
G54D406*
G1X42420Y400D3*
G54D407*
G1X43322Y15079D3*
G1X43066Y15079D3*
G1X42810Y15079D3*
G1X42810Y13410D3*
G1X43066Y13410D3*
G1X43322Y13410D3*
G1X43578Y13410D3*
G54D408*
G1X43578Y15079D3*
G54D410*
G1X16490Y7460D3*
G1X17671Y7263D3*
G1X16490Y7066D3*
G1X17671Y6869D3*
G1X16490Y6673D3*
G1X17671Y6476D3*
G1X16490Y6279D3*
G1X17671Y6082D3*
G1X16490Y5885D3*
G1X17671Y5688D3*
G1X16490Y5491D3*
G1X17671Y5295D3*
G1X16490Y5098D3*
G1X17671Y4901D3*
G1X16490Y4704D3*
G1X17671Y4507D3*
G1X16490Y4310D3*
G1X17671Y4114D3*
G1X16490Y3917D3*
G1X17671Y3720D3*
G1X16490Y3523D3*
G1X17671Y3326D3*
G1X16490Y3129D3*
G1X17671Y2932D3*
G1X16490Y2736D3*
G1X17671Y2539D3*
G1X16490Y2342D3*
G1X17671Y2145D3*
G1X16490Y1948D3*
G1X17671Y1751D3*
G1X16490Y1554D3*
G1X17671Y1358D3*
G1X16490Y1161D3*
G54D411*
G1X17612Y7854D3*
G1X17612Y767D3*
G1X16549Y7854D3*
G1X16549Y767D3*
G54D412*
G1X11820Y12680D3*
G1X10659Y12680D3*
G1X11820Y8822D3*
G1X10659Y8822D3*
G54D413*
G1X39170Y11130D3*
G54D414*
G1X43285Y1840D3*
G1X43285Y4360D3*
G1X41710Y1840D3*
G1X41710Y4360D3*
G54D415*
G1X32590Y4376D3*
G1X32590Y18923D3*
G54D416*
G1X31359Y16400D3*
G1X33820Y16400D3*
G1X31359Y15900D3*
G1X33820Y15900D3*
G1X31359Y15400D3*
G1X33820Y15400D3*
G1X31359Y14900D3*
G1X33820Y14900D3*
G1X31359Y14400D3*
G1X33820Y14400D3*
G1X31359Y13868D3*
G1X33820Y13868D3*
G1X31359Y13400D3*
G1X33820Y13400D3*
G1X31359Y12900D3*
G1X33820Y12900D3*
G1X31359Y12400D3*
G1X33820Y12400D3*
G1X31359Y11900D3*
G1X33820Y11900D3*
G1X31359Y11400D3*
G1X33820Y11400D3*
G1X31359Y10900D3*
G1X33820Y10900D3*
G1X31359Y10400D3*
G1X33820Y10400D3*
G1X31359Y9900D3*
G1X33820Y9900D3*
G1X31359Y9400D3*
G1X33820Y9400D3*
G1X31359Y8900D3*
G1X33820Y8900D3*
G1X31359Y8400D3*
G1X33820Y8400D3*
G1X31359Y7900D3*
G1X33820Y7900D3*
G1X31359Y7400D3*
G1X33820Y7400D3*
G1X31359Y6900D3*
G1X33820Y6900D3*
G54D419*
G1X26991Y10850D3*
G1X26991Y11244D3*
G1X26991Y11441D3*
G1X26991Y11638D3*
G1X26991Y11835D3*
G1X26991Y12032D3*
G1X26991Y12229D3*
G1X24826Y12229D3*
G1X24826Y12032D3*
G1X24826Y11835D3*
G1X24826Y11638D3*
G1X24826Y11441D3*
G1X24826Y11047D3*
G1X24826Y10850D3*
G54D420*
G1X26991Y11047D3*
G1X24826Y11244D3*
G54D421*
G1X25417Y10457D3*
G1X25614Y10457D3*
G1X25811Y10457D3*
G1X26008Y10457D3*
G1X26205Y10457D3*
G1X26402Y10457D3*
G1X26599Y10457D3*
G1X26599Y12622D3*
G1X26402Y12622D3*
G1X26205Y12622D3*
G1X25811Y12622D3*
G1X25614Y12622D3*
G1X25417Y12622D3*
G1X25220Y12622D3*
G54D422*
G1X25220Y10457D3*
G1X26008Y12622D3*
G54D425*
G1X11260Y16040D3*
G1X11260Y14740D3*
G54D473*
G1X15465Y15205D3*
G1X15465Y16555D3*
G54D474*
G1X17930Y17700D3*
G1X17930Y15180D3*
G54D24*
G1X2375Y18634D3*
G1X2375Y18288D3*
G1X2655Y18295D3*
G1X2655Y18634D3*
M2*
