*
%LPD*%
%LNRAGOBOT*%
%FSLAX24Y24*%
%MOIN*%
%AD*%
%ADD28R,0.048000X0.040000*%
%ADD216O,0.018100X0.039400*%
%ADD217R,0.018100X0.039400*%
%ADD218O,0.039400X0.018100*%
%ADD219R,0.039400X0.018100*%
%ADD220R,0.038000X0.032000*%
%ADD221R,0.064000X0.100000*%
%ADD222R,0.022000X0.022000*%
%ADD223R,0.076000X0.120000*%
%ADD224O,0.094000X0.025000*%
%ADD225R,0.094000X0.025000*%
%ADD229R,0.070800X0.015700*%
%ADD231R,0.072000X0.072000*%
%ADD234O,0.025000X0.094000*%
%ADD235R,0.025000X0.094000*%
%ADD237O,0.086000X0.025000*%
%ADD238R,0.086000X0.025000*%
%ADD239R,0.011800X0.031500*%
%ADD240R,0.031500X0.011800*%
%ADD243R,0.070800X0.086600*%
%ADD246R,0.082700X0.055100*%
%ADD247R,0.055100X0.009800*%
%ADD248R,0.032000X0.038000*%
%ADD252O,0.025000X0.086000*%
%ADD253R,0.025000X0.086000*%
%ADD427R,0.114200X0.035400*%
%ADD428R,0.009800X0.051200*%
%ADD444O,0.016000X0.031500*%
%ADD445R,0.016000X0.031500*%
G54D216*
%SRX1Y1I0.0J0.0*%
G1X43151Y10940D3*
G1X42895Y10940D3*
G1X42639Y10940D3*
G1X42639Y12534D3*
G1X42895Y12534D3*
G1X43151Y12534D3*
G1X43407Y12534D3*
G54D217*
G1X43407Y10940D3*
G54D218*
G1X41930Y13395D3*
G1X41930Y13139D3*
G1X41930Y12883D3*
G1X40336Y12883D3*
G1X40336Y13139D3*
G1X40336Y13395D3*
G1X40336Y13651D3*
G1X40336Y10069D3*
G1X40336Y10325D3*
G1X40336Y10581D3*
G1X41930Y10581D3*
G1X41930Y10325D3*
G1X41930Y10069D3*
G1X41930Y9813D3*
G54D219*
G1X41930Y13651D3*
G1X40336Y9813D3*
G54D220*
G1X41110Y1360D3*
G1X41110Y1920D3*
G1X42367Y19773D3*
G1X42367Y19213D3*
G1X37450Y18070D3*
G1X37450Y18630D3*
G1X40827Y19213D3*
G1X40827Y19773D3*
G1X750Y18110D3*
G1X750Y17550D3*
G1X4150Y22620D3*
G1X4150Y22060D3*
G1X3160Y15910D3*
G1X3160Y15350D3*
G1X4260Y15900D3*
G1X4260Y15340D3*
G54D221*
G1X16710Y13820D3*
G1X15360Y13820D3*
G1X31530Y20640D3*
G1X32880Y20640D3*
G1X28610Y20600D3*
G1X29960Y20600D3*
G1X10150Y17070D3*
G1X8800Y17070D3*
G54D222*
G1X23800Y12200D3*
G1X23800Y11780D3*
G1X10760Y2940D3*
G1X10340Y2940D3*
G1X42830Y5610D3*
G1X42830Y6030D3*
G1X42100Y820D3*
G1X41680Y820D3*
G1X18140Y18620D3*
G1X17720Y18620D3*
G1X-2460Y17740D3*
G1X-2040Y17740D3*
G1X-2440Y5610D3*
G1X-2020Y5610D3*
G1X46980Y19720D3*
G1X46560Y19720D3*
G1X47100Y3610D3*
G1X46680Y3610D3*
G1X43310Y7160D3*
G1X43310Y7580D3*
G1X40120Y830D3*
G1X40540Y830D3*
G1X-340Y11230D3*
G1X-760Y11230D3*
G1X1410Y21990D3*
G1X1410Y22410D3*
G1X2110Y15890D3*
G1X2110Y15470D3*
G1X38560Y1590D3*
G1X38560Y1170D3*
G1X42530Y8160D3*
G1X42530Y8580D3*
G1X38580Y4330D3*
G1X38580Y3910D3*
G1X37550Y9830D3*
G1X37550Y9410D3*
G1X42480Y4370D3*
G1X42480Y3950D3*
G1X41770Y8580D3*
G1X41770Y8160D3*
G1X41780Y18180D3*
G1X41780Y17760D3*
G1X43380Y15260D3*
G1X42960Y15260D3*
G1X43380Y13230D3*
G1X42960Y13230D3*
G1X7120Y9000D3*
G1X7120Y9420D3*
G1X21160Y6890D3*
G1X20740Y6890D3*
G1X26870Y790D3*
G1X26870Y370D3*
G1X22280Y22500D3*
G1X22280Y22920D3*
G1X-760Y11880D3*
G1X-340Y11880D3*
G1X4590Y11330D3*
G1X4590Y10910D3*
G1X2080Y20800D3*
G1X2080Y21220D3*
G1X2080Y22420D3*
G1X2080Y22000D3*
G1X1410Y20800D3*
G1X1410Y21220D3*
G1X4090Y21200D3*
G1X4090Y20780D3*
G1X2760Y20800D3*
G1X2760Y21220D3*
G1X2760Y21990D3*
G1X2760Y22410D3*
G54D223*
G1X7770Y19000D3*
G1X10130Y19000D3*
G54D224*
G1X37180Y2920D3*
G1X37180Y2420D3*
G1X37180Y1920D3*
G1X37180Y1420D3*
G1X37180Y920D3*
G1X37180Y420D3*
G1X35220Y420D3*
G1X35220Y920D3*
G1X35220Y1420D3*
G1X35220Y1920D3*
G1X35220Y2420D3*
G1X35220Y2920D3*
G1X35220Y3420D3*
G1X1070Y11350D3*
G1X1070Y11850D3*
G1X1070Y12350D3*
G1X3030Y12350D3*
G1X3030Y11850D3*
G1X3030Y11350D3*
G1X3030Y10850D3*
G54D225*
G1X37180Y3420D3*
G1X1070Y10850D3*
G54D229*
G1X29231Y15902D3*
G1X29231Y15508D3*
G1X29231Y15114D3*
G1X29231Y14721D3*
G1X29231Y14327D3*
G1X29231Y13933D3*
G1X29231Y13540D3*
G1X29231Y13146D3*
G1X29231Y12752D3*
G1X29231Y12358D3*
G1X29231Y11965D3*
G1X29231Y11571D3*
G1X29231Y11178D3*
G1X29231Y10784D3*
G1X29231Y10390D3*
G1X29231Y9996D3*
G1X29231Y9603D3*
G1X29231Y9209D3*
G1X29231Y8815D3*
G1X29231Y8422D3*
G1X29231Y8028D3*
G1X29231Y7634D3*
G1X29231Y7241D3*
G1X29231Y6847D3*
G1X29231Y6453D3*
G1X29231Y6059D3*
G1X31239Y15705D3*
G1X31239Y15311D3*
G1X31239Y14918D3*
G1X31239Y14524D3*
G1X31239Y14130D3*
G1X31239Y13736D3*
G1X31239Y13343D3*
G1X31239Y12949D3*
G1X31239Y12555D3*
G1X31239Y12162D3*
G1X31239Y11768D3*
G1X31239Y11374D3*
G1X31239Y10981D3*
G1X31239Y10587D3*
G1X31239Y10193D3*
G1X31239Y9800D3*
G1X31239Y9406D3*
G1X31239Y9012D3*
G1X31239Y8619D3*
G1X31239Y8225D3*
G1X31239Y7831D3*
G1X31239Y7437D3*
G1X31239Y7044D3*
G1X31239Y6650D3*
G1X31239Y6256D3*
G54D231*
G1X11090Y20460D3*
G1X11090Y19060D3*
G1X12620Y1990D3*
G1X14020Y1990D3*
G1X13190Y13370D3*
G1X13190Y11970D3*
G1X9290Y13380D3*
G1X9290Y11980D3*
G1X7890Y3350D3*
G1X7890Y1950D3*
G54D234*
G1X41120Y3210D3*
G1X40620Y3210D3*
G1X40120Y3210D3*
G1X40120Y5170D3*
G1X40620Y5170D3*
G1X41120Y5170D3*
G1X41620Y5170D3*
G54D235*
G1X41620Y3210D3*
G54D237*
G1X980Y5460D3*
G1X980Y5960D3*
G1X980Y6460D3*
G1X980Y6960D3*
G1X980Y7460D3*
G1X980Y7960D3*
G1X980Y8460D3*
G1X980Y8960D3*
G1X980Y9460D3*
G1X6100Y9460D3*
G1X6100Y8960D3*
G1X6100Y8460D3*
G1X6100Y7960D3*
G1X6100Y7460D3*
G1X6100Y6960D3*
G1X6100Y6460D3*
G1X6100Y5960D3*
G1X6100Y5460D3*
G1X6100Y4960D3*
G54D238*
G1X980Y4960D3*
G54D239*
G1X43422Y13900D3*
G1X43166Y13900D3*
G1X42910Y13900D3*
G1X42910Y14608D3*
G1X43422Y14608D3*
G1X7841Y7741D3*
G1X7585Y7741D3*
G1X7330Y7741D3*
G1X7330Y8450D3*
G1X7841Y8450D3*
G54D240*
G1X1980Y2940D3*
G1X1980Y2684D3*
G1X1980Y2428D3*
G1X1271Y2428D3*
G1X1271Y2940D3*
G54D243*
G1X19168Y22379D3*
G1X11373Y22379D3*
G54D246*
G1X20543Y7804D3*
G1X20543Y15284D3*
G54D247*
G1X19510Y8690D3*
G1X19510Y8887D3*
G1X19510Y9084D3*
G1X19510Y9280D3*
G1X19510Y9477D3*
G1X19510Y9674D3*
G1X19510Y9871D3*
G1X19510Y10069D3*
G1X19510Y10266D3*
G1X19510Y10463D3*
G1X19510Y10660D3*
G1X19510Y10857D3*
G1X19510Y11054D3*
G1X19510Y11251D3*
G1X19510Y11448D3*
G1X19510Y11645D3*
G1X19510Y11842D3*
G1X19510Y12039D3*
G1X19510Y12236D3*
G1X19510Y12433D3*
G1X19510Y12630D3*
G1X19510Y12827D3*
G1X19510Y13024D3*
G1X19510Y13221D3*
G1X19510Y13418D3*
G1X19510Y13615D3*
G1X19510Y13808D3*
G1X19510Y14005D3*
G1X19510Y14202D3*
G1X19510Y14398D3*
G1X21577Y14398D3*
G1X21577Y14202D3*
G1X21577Y14005D3*
G1X21577Y13808D3*
G1X21577Y13611D3*
G1X21577Y13414D3*
G1X21577Y13217D3*
G1X21577Y13021D3*
G1X21577Y12824D3*
G1X21577Y12627D3*
G1X21577Y12430D3*
G1X21577Y12233D3*
G1X21577Y12036D3*
G1X21577Y11839D3*
G1X21577Y11643D3*
G1X21577Y11446D3*
G1X21577Y11249D3*
G1X21577Y11052D3*
G1X21577Y10855D3*
G1X21577Y10658D3*
G1X21577Y10461D3*
G1X21577Y10265D3*
G1X21577Y10068D3*
G1X21577Y9871D3*
G1X21577Y9674D3*
G1X21577Y9477D3*
G1X21577Y9280D3*
G1X21577Y9084D3*
G1X21577Y8887D3*
G1X21577Y8690D3*
G54D248*
G1X38130Y6520D3*
G1X38690Y6520D3*
G1X42770Y6600D3*
G1X42210Y6600D3*
G1X39780Y11560D3*
G1X40340Y11560D3*
G1X32530Y6910D3*
G1X33090Y6910D3*
G1X28180Y15510D3*
G1X27620Y15510D3*
G1X38130Y5730D3*
G1X38690Y5730D3*
G54D252*
G1X5830Y17100D3*
G1X5330Y17100D3*
G1X4830Y17100D3*
G1X4830Y19220D3*
G1X5330Y19220D3*
G1X5830Y19220D3*
G1X6330Y19220D3*
G1X27460Y17240D3*
G1X26960Y17240D3*
G1X26460Y17240D3*
G1X26460Y19360D3*
G1X26960Y19360D3*
G1X27460Y19360D3*
G1X27960Y19360D3*
G1X10980Y13740D3*
G1X11480Y13740D3*
G1X11980Y13740D3*
G1X11980Y11620D3*
G1X11480Y11620D3*
G1X10980Y11620D3*
G1X10480Y11620D3*
G54D253*
G1X6330Y17100D3*
G1X27960Y17240D3*
G1X10480Y13740D3*
G54D427*
G1X30254Y5036D3*
G1X30254Y16925D3*
G54D428*
G1X18420Y21100D3*
G1X18223Y21100D3*
G1X18026Y21100D3*
G1X17829Y21100D3*
G1X17633Y21100D3*
G1X17436Y21100D3*
G1X17239Y21100D3*
G1X17042Y21100D3*
G1X16845Y21100D3*
G1X16648Y21100D3*
G1X16451Y21100D3*
G1X16255Y21100D3*
G1X16058Y21100D3*
G1X15861Y21100D3*
G1X15664Y21100D3*
G1X15467Y21100D3*
G1X15270Y21100D3*
G1X15074Y21100D3*
G1X14877Y21100D3*
G1X14680Y21100D3*
G1X14483Y21100D3*
G1X14286Y21100D3*
G1X14089Y21100D3*
G1X13892Y21100D3*
G1X13696Y21100D3*
G1X13499Y21100D3*
G1X13302Y21100D3*
G1X13105Y21100D3*
G1X12908Y21100D3*
G1X12711Y21100D3*
G1X12514Y21100D3*
G1X12318Y21100D3*
G1X12121Y21100D3*
G54D444*
G1X40734Y6797D3*
G1X40478Y6797D3*
G1X40222Y6797D3*
G1X40222Y8502D3*
G1X40478Y8502D3*
G1X40734Y8502D3*
G1X40990Y8502D3*
G54D445*
G1X40990Y6797D3*
G54D28*
G1X3811Y9004D3*
G1X3344Y8601D3*
G1X3811Y8182D3*
G1X3360Y7763D3*
G1X3828Y7360D3*
G1X3376Y6924D3*
G1X3860Y6505D3*
G1X3376Y6102D3*
G1X3844Y5667D3*
M2*
