*
%LPD*%
%LNRAGOBOT_HEAD-5.GND*%
%FSLAX24Y24*%
%MOIN*%
%AD*%
%AMTHERMAL85*
1,1,0.087900,0.000000,0.000000*
1,0,0.064000,0.000000,0.000000*
20,0,0.088000,0.035356,-0.035356,-0.035356,0.035356,0.000000*
20,0,0.088000,0.035356,0.035356,-0.035356,-0.035356,0.000000*
%
%AMTHERMAL130*
1,1,0.111900,0.000000,0.000000*
1,0,0.088000,0.000000,0.000000*
20,0,0.100000,0.039598,-0.039598,-0.039598,0.039598,0.000000*
20,0,0.100000,0.039598,0.039598,-0.039598,-0.039598,0.000000*
%
%AMTHERMAL135*
1,1,0.173900,0.000000,0.000000*
1,0,0.150000,0.000000,0.000000*
20,0,0.100000,-0.061518,-0.061518,0.061518,0.061518,0.000000*
20,0,0.100000,0.061518,-0.061518,-0.061518,0.061518,0.000000*
%
%AMTHERMAL137*
1,1,0.087900,0.000000,0.000000*
1,0,0.064000,0.000000,0.000000*
20,0,0.088000,0.035540,-0.035170,-0.035540,0.035170,0.000000*
20,0,0.088000,0.035170,0.035540,-0.035170,-0.035540,0.000000*
%
%ADD58C,0.008000*%
%ADD85THERMAL85*%
%ADD130THERMAL130*%
%ADD131C,0.075000*%
%ADD132C,0.078000*%
%ADD133R,0.078000X0.078000*%
%ADD134C,0.085000*%
%ADD135THERMAL135*%
%ADD136C,0.050000*%
%ADD137THERMAL137*%
%ADD144C,0.165000*%
%ADD145C,0.072000*%
%ADD146R,0.072000X0.072000*%
%ADD147C,0.115000*%
G54D85*
%SRX1Y1I0.0J0.0*%
G1X10520Y5170D3*
G1X5900Y3910D3*
G1X12570Y2360D3*
G1X8230Y8920D3*
G1X5870Y9530D3*
G54D130*
G1X5080Y9140D3*
G54D135*
G1X1750Y2820D3*
G54D137*
G1X1870Y5060D3*
G1X3440Y5510D3*
G1X11620Y8170D3*
G1X12820Y3230D3*
G1X7210Y2420D3*
G1X12950Y6120D3*
G1X12790Y6820D3*
G1X14390Y8170D3*
G1X4320Y9200D3*
G1X5760Y5320D3*
G1X5190Y5130D3*
G1X11040Y1110D3*
G1X12160Y800D3*
G1X12420Y4270D3*
G1X13370Y4060D3*
G1X15480Y3740D3*
G1X14630Y5060D3*
G1X6110Y3220D3*
G1X8410Y6450D3*
G1X5080Y2850D3*
G1X5940Y2260D3*
G1X8350Y3220D3*
G1X10160Y3930D3*
G1X8570Y2710D3*
G1X6450Y8370D3*
G1X9010Y5740D3*
G1X2097Y1374D2*
G54D58*
G1X2124Y1319D1*
G1X2291Y1319D1*
G1X2319Y1374D1*
G1X2319Y1486D1*
G1X2263Y1541D1*
G1X2097Y1541D1*
G1X2097Y1652D1*
G1X2319Y1652D1*
G1X1770Y1319D2*
G1X1714Y1374D1*
G1X1687Y1430D1*
G1X1687Y1541D1*
G1X1714Y1597D1*
G1X1770Y1652D1*
G1X1826Y1652D1*
G1X1881Y1597D1*
G1X1909Y1541D1*
G1X1909Y1430D1*
G1X1881Y1374D1*
G1X1826Y1319D1*
G1X1770Y1319D1*
G1X1471Y1597D2*
G1X1499Y1652D1*
G1X1117Y1486D2*
G1X950Y1486D1*
G1X950Y1319D2*
G1X950Y1652D1*
G1X1172Y1652D1*
G1X568Y1430D2*
G1X568Y1374D1*
G1X596Y1319D1*
G1X707Y1319D1*
G1X734Y1374D1*
G1X734Y1652D1*
G1X762Y1652D2*
G1X651Y1652D1*
G54D131*
G1X5080Y7140D3*
G1X5080Y8140D3*
G54D132*
G1X7590Y670D3*
G1X6590Y670D3*
G1X5590Y670D3*
G54D133*
G1X8590Y670D3*
G54D134*
G1X6060Y6920D3*
G54D136*
G1X14640Y1360D3*
G1X1010Y4540D3*
G1X450Y4240D3*
G1X8310Y2020D3*
G1X10550Y1640D3*
G1X10920Y1640D3*
G1X11180Y3220D3*
G1X200Y3940D3*
G1X8100Y500D3*
G1X10160Y1640D3*
G1X1270Y5570D3*
G1X12020Y6660D3*
G1X3240Y1230D3*
G1X13920Y6110D3*
G1X7180Y2800D3*
G1X12000Y4160D3*
G1X5640Y1480D3*
G1X7060Y4080D3*
G1X2580Y1780D3*
G1X2800Y5750D3*
G1X5520Y5010D3*
G1X6390Y3960D3*
G1X8890Y1320D3*
G1X7520Y3150D3*
G1X4440Y3540D3*
G1X13260Y7160D3*
G1X7580Y8760D3*
G1X8720Y8920D3*
G1X8210Y4510D3*
G1X10840Y4580D3*
G1X14640Y3380D3*
G1X6280Y8700D3*
G1X11020Y560D3*
G1X9400Y1260D3*
G1X13200Y8420D3*
G1X9240Y6000D3*
G1X2060Y4080D3*
G1X7840Y2490D3*
G1X12910Y8180D3*
G1X10500Y4180D3*
G1X8040Y4180D3*
G1X11670Y6480D3*
G1X8570Y5160D3*
G1X7840Y4500D3*
G1X5010Y4080D3*
G1X8020Y7750D3*
G1X12010Y6980D3*
G1X4220Y7630D3*
G1X12220Y8420D3*
G1X3830Y6260D3*
G1X12290Y7240D3*
G1X2360Y5000D3*
G1X12960Y5560D3*
G1X7210Y6520D3*
G1X9690Y7500D3*
G1X12800Y7190D3*
G1X2450Y4050D3*
G1X12610Y9780D3*
G1X3050Y6000D3*
G1X12640Y6500D3*
G1X2650Y5260D3*
G1X14190Y5880D3*
G1X12530Y5320D3*
G1X7370Y5160D3*
G1X11100Y5260D3*
G1X12520Y5640D3*
G1X9880Y600D3*
G1X7760Y3940D3*
G1X5310Y6580D3*
G1X10270Y5890D3*
G1X15220Y2940D3*
G54D144*
G1X16450Y2800D3*
G1X1750Y2800D3*
G54D145*
G1X17490Y6350D3*
G1X17490Y8800D3*
G54D146*
G1X16490Y6350D3*
G1X16490Y8800D3*
G54D147*
G1X1261Y6900D3*
G1X631Y9380D3*
M2*
