*
G04 Mass Parameters ***
*
G04 Image ***
*
%INC:\DAVIDLEE\RAGOBOTS_HW\ROBOT\HW\HEAD\DESIGN\RAGOBOT_HEAD-5.SST*%
%ICAS*%
%MOIN*%
%IPPOS*%
%ASAXBY*%
G74*%FSLAN2X34Y34*%
*
G04 Aperture Definitions ***
*
%AMTHERMAL85*
1,1,0.0879,0,0,*
1,0,0.0640,0,0,*
21,0,0.0880,0.1000,0,0,45.0*
21,0,0.0880,0.1000,0,0,135.0*%
%AMTHERMAL88*
1,1,0.0879,0,0,*
1,0,0.0640,0,0,*
21,0,0.0880,0.1000,0,0,46.2*
21,0,0.0880,0.1000,0,0,136.2*%
%AMTHERMAL130*
1,1,0.1119,0,0,*
1,0,0.0880,0,0,*
21,0,0.1120,0.1000,0,0,135.0*
21,0,0.1120,0.1000,0,0,225.0*%
%AMTHERMAL135*
1,1,0.1739,0,0,*
1,0,0.1500,0,0,*
21,0,0.1740,0.1000,0,0,45.0*
21,0,0.1740,0.1000,0,0,135.0*%
%AMTHERMAL137*
1,1,0.0879,0,0,*
1,0,0.0640,0,0,*
21,0,0.0880,0.1000,0,0,45.3*
21,0,0.0880,0.1000,0,0,135.3*%
%ADD10R,0.0055X0.0055*%
%ADD11C,0.0130*%
%ADD12R,0.0130X0.0130*%
%ADD13C,0.0145*%
%ADD14R,0.0145X0.0145*%
%ADD15R,0.0098X0.0098*%
%ADD16O,0.0040X0.0079*%
%ADD17R,0.0040X0.0079*%
%ADD18R,0.0177X0.0216*%
%ADD19R,0.0029X0.0128*%
%ADD20R,0.0029X0.0079*%
%ADD21R,0.0216X0.0177*%
%ADD22R,0.0128X0.0029*%
%ADD23O,0.0062X0.0215*%
%ADD24R,0.0062X0.0215*%
%ADD25R,0.0180X0.0255*%
%ADD26R,0.0150X0.0150*%
%ADD27O,0.0044X0.0162*%
%ADD28R,0.0044X0.0162*%
%ADD29R,0.0138X0.0197*%
%ADD30C,0.0180*%
%ADD31R,0.0180X0.0180*%
%ADD32C,0.0195*%
%ADD33R,0.0195X0.0195*%
%ADD34C,0.0002*%
%ADD35R,0.0024X0.0128*%
%ADD36R,0.0128X0.0024*%
%ADD37C,0.0015*%
%ADD38C,0.0020*%
%ADD39C,0.0010*%
%ADD40C,0.0024*%
%ADD41C,0.0200*%
%ADD42C,0.0375*%
%ADD43C,0.0400*%
%ADD44C,0.0025*%
%ADD45C,0.0012*%
%ADD46C,0.0800*%
%ADD47R,0.0220X0.0220*%
%ADD48C,0.0520*%
%ADD49R,0.0520X0.0520*%
%ADD50C,0.0866*%
%ADD51C,0.0620*%
%ADD52C,0.0580*%
%ADD53R,0.0580X0.0580*%
%ADD54R,0.0394X0.0394*%
%ADD55C,0.0250*%
%ADD56C,0.0010*%
%ADD57C,0.0250*%
%ADD58C,0.0080*%
%ADD59C,0.0100*%
%ADD60C,0.0120*%
%ADD61C,0.0150*%
%ADD62O,0.0160X0.0315*%
%ADD63R,0.0160X0.0315*%
%ADD64R,0.0860X0.0860*%
%ADD65R,0.0708X0.0866*%
%ADD66R,0.0118X0.0512*%
%ADD67R,0.0118X0.0315*%
%ADD68R,0.0866X0.0708*%
%ADD69R,0.0512X0.0118*%
%ADD70O,0.0250X0.0860*%
%ADD71R,0.0250X0.0860*%
%ADD72R,0.0720X0.1020*%
%ADD73R,0.0600X0.0600*%
%ADD74O,0.0649X0.0177*%
%ADD75R,0.0649X0.0177*%
%ADD76R,0.0551X0.0787*%
%ADD77C,0.1600*%
%ADD78C,0.0720*%
%ADD79R,0.0720X0.0720*%
%ADD80C,0.0984*%
%ADD81C,0.0700*%
%ADD82C,0.0780*%
%ADD83R,0.0780X0.0780*%
%ADD84C,0.1500*%
%ADD85THERMAL85*%
%ADD86C,0.0500*%
%ADD87C,0.0500*%
%ADD88THERMAL88*%
%ADD89C,0.0670*%
%ADD90R,0.0098X0.0512*%
%ADD91R,0.0512X0.0098*%
%ADD92C,0.0039*%
%ADD93C,0.0060*%
%ADD94C,0.0098*%
%ADD95C,0.0079*%
%ADD96C,0.1420*%
%ADD97C,0.0750*%
%ADD98C,0.1260*%
%ADD99C,0.0250*%
%ADD100C,0.0250*%
%ADD101C,0.0200*%
%ADD102C,0.1420*%
%ADD103O,0.0160X0.0315*%
%ADD104R,0.0160X0.0315*%
%ADD105R,0.0220X0.0220*%
%ADD106R,0.0860X0.0860*%
%ADD107R,0.0708X0.0866*%
%ADD108R,0.0118X0.0512*%
%ADD109C,0.0520*%
%ADD110R,0.0520X0.0520*%
%ADD111R,0.0118X0.0315*%
%ADD112C,0.0866*%
%ADD113C,0.0620*%
%ADD114C,0.0580*%
%ADD115R,0.0580X0.0580*%
%ADD116C,0.0750*%
%ADD117C,0.1260*%
%ADD118O,0.0860X0.0250*%
%ADD119R,0.0860X0.0250*%
%ADD120R,0.0720X0.1020*%
%ADD121R,0.0600X0.0600*%
%ADD122O,0.0649X0.0177*%
%ADD123R,0.0649X0.0177*%
%ADD124R,0.0551X0.0787*%
%ADD125C,0.0118*%
%ADD126C,0.1650*%
%ADD127C,0.0720*%
%ADD128R,0.0720X0.0720*%
%ADD129C,0.1150*%
%ADD130THERMAL130*%
%ADD131C,0.0750*%
%ADD132C,0.0780*%
%ADD133R,0.0780X0.0780*%
%ADD134C,0.0850*%
%ADD135THERMAL135*%
%ADD136C,0.0500*%
%ADD137THERMAL137*%
%ADD138C,0.0800*%
%ADD139C,0.1000*%
%ADD140C,0.0670*%
%ADD141R,0.0394X0.0394*%
%ADD142R,0.0098X0.0512*%
%ADD143R,0.0480X0.0244*%
%ADD144C,0.1650*%
%ADD145C,0.0720*%
%ADD146R,0.0720X0.0720*%
%ADD147C,0.1150*%
*
G04 Plot Data ***
*
G54D58*
G01X0008771Y0006971D02*
X0008882D01*
Y0006859D01*
X0008854Y0006804D01*
X0008688D01*
X0008660Y0006859D01*
Y0007082D01*
X0008688Y0007137D01*
X0008854D01*
X0008882Y0007082D01*
X0008278Y0006804D02*
X0008250Y0006859D01*
Y0007082D01*
X0008278Y0007137D01*
X0008444D01*
X0008472Y0007082D01*
Y0006859D01*
X0008444Y0006804D01*
X0008278D01*
X0008062D02*
X0007868D01*
Y0007137D01*
X0007680Y0006915D02*
X0007458D01*
X0007680Y0006804D02*
Y0006971D01*
X0007597Y0007137D01*
X0007541D01*
X0007458Y0006971D01*
Y0006804D01*
X0007270Y0007137D02*
Y0006804D01*
X0007214Y0006859D01*
X0007103Y0007082D01*
X0007048Y0007137D01*
Y0006804D01*
X0006860Y0006915D02*
X0006638D01*
X0006860Y0006804D02*
Y0006971D01*
X0006777Y0007137D01*
X0006721D01*
X0006638Y0006971D01*
Y0006804D01*
X0005638Y0008954D02*
Y0009065D01*
Y0009010D02*
X0005971D01*
X0005916Y0009065D01*
X0005805Y0009392D02*
X0005638Y0009309D01*
X0005805Y0009531D02*
Y0009364D01*
X0005860Y0009309D01*
X0005916D01*
X0005971Y0009364D01*
Y0009531D01*
X0005638D01*
Y0009719D02*
Y0009830D01*
Y0009774D02*
X0005971D01*
Y0009719D02*
Y0009830D01*
X0015669Y0006208D02*
X0015447D01*
X0015669Y0006430D01*
Y0006485D01*
X0015642Y0006541D01*
X0015475D01*
X0015447Y0006485D01*
X0015065Y0006208D02*
Y0006541D01*
X0015037Y0006208D02*
X0015204D01*
X0015259Y0006319D01*
Y0006430D01*
X0015204Y0006541D01*
X0015037D01*
X0016462Y0005649D02*
Y0005427D01*
X0016573Y0005538D02*
X0016351D01*
X0009620Y0002867D02*
X0009731D01*
X0009676D02*
Y0002534D01*
X0009731Y0002589D01*
X0009974Y0002812D02*
X0010002Y0002867D01*
X0010169D01*
X0010197Y0002812D01*
Y0002589D01*
X0010169Y0002534D01*
X0010002D01*
X0009974Y0002589D01*
X0002739Y0005209D02*
Y0005542D01*
X0002850D02*
X0002628D01*
X0002246Y0005209D02*
X0002218Y0005264D01*
Y0005487D01*
X0002246Y0005542D01*
X0002412D01*
X0002440Y0005487D01*
Y0005264D01*
X0002412Y0005209D01*
X0002246D01*
X0001836D02*
Y0005542D01*
X0001808Y0005209D02*
X0001974D01*
X0002030Y0005264D01*
Y0005320D01*
X0002002Y0005376D01*
X0001836D02*
X0002002D01*
X0002030Y0005431D01*
Y0005487D01*
X0001974Y0005542D01*
X0001808D01*
X0001426Y0005209D02*
X0001398Y0005264D01*
Y0005487D01*
X0001426Y0005542D01*
X0001592D01*
X0001620Y0005487D01*
Y0005264D01*
X0001592Y0005209D01*
X0001426D01*
X0001099Y0005376D02*
X0001210D01*
Y0005264D01*
X0001182Y0005209D01*
X0001016D01*
X0000988Y0005264D01*
Y0005487D01*
X0001016Y0005542D01*
X0001182D01*
X0001210Y0005487D01*
X0000800Y0005320D02*
X0000578D01*
X0000800Y0005209D02*
Y0005376D01*
X0000717Y0005542D01*
X0000661D01*
X0000578Y0005376D01*
Y0005209D01*
X0000307Y0005376D02*
X0000390Y0005209D01*
X0000168Y0005376D02*
X0000334D01*
X0000390Y0005431D01*
Y0005487D01*
X0000334Y0005542D01*
X0000168D01*
Y0005209D01*
X0002134Y0004649D02*
Y0004982D01*
X0002107Y0004649D02*
X0002273D01*
X0002329Y0004704D01*
Y0004760D01*
X0002301Y0004816D01*
X0002134D02*
X0002301D01*
X0002329Y0004871D01*
Y0004927D01*
X0002273Y0004982D01*
X0002107D01*
X0001863Y0004649D02*
X0001919D01*
Y0004704D01*
X0001863D01*
Y0004649D01*
X0001426D02*
Y0004982D01*
X0001398Y0004649D02*
X0001564D01*
X0001620Y0004760D01*
Y0004871D01*
X0001564Y0004982D01*
X0001398D01*
X0001210Y0004760D02*
X0000988D01*
X0001210Y0004649D02*
Y0004816D01*
X0001127Y0004982D01*
X0001071D01*
X0000988Y0004816D01*
Y0004649D01*
X0000744Y0004816D02*
X0000578D01*
X0000800Y0004649D02*
X0000578D01*
Y0004982D01*
X0000800D01*
X0000390Y0004816D02*
X0000168D01*
X0000390Y0004649D02*
Y0004982D01*
X0000168Y0004649D02*
Y0004982D01*
X0008871Y0008086D02*
Y0008197D01*
Y0008142D02*
X0009204D01*
X0009148Y0008197D01*
X0008926Y0008440D02*
X0008871Y0008468D01*
Y0008635D01*
X0008926Y0008663D01*
X0009148D01*
X0009204Y0008635D01*
Y0008468D01*
X0009148Y0008440D01*
X0008871Y0008850D02*
Y0008961D01*
Y0008906D02*
X0009204D01*
Y0008850D02*
Y0008961D01*
X0008871Y0009205D02*
X0009204D01*
X0009148Y0009260D01*
X0009037Y0009316D01*
X0009148Y0009371D01*
X0009204Y0009427D01*
X0008871D01*
X0006972Y0006132D02*
Y0005799D01*
X0006916Y0005854D01*
X0006805Y0006077D01*
X0006749Y0006132D01*
Y0005799D01*
X0006562Y0005910D02*
X0006339D01*
X0006562Y0005799D02*
Y0005966D01*
X0006478Y0006132D01*
X0006423D01*
X0006339Y0005966D01*
Y0005799D01*
X0006152D02*
Y0006132D01*
X0006096Y0006077D01*
X0006040Y0005966D01*
X0005985Y0006077D01*
X0005929Y0006132D01*
Y0005799D01*
X0005547D02*
Y0006132D01*
X0005519Y0005799D02*
X0005686D01*
X0005742Y0005910D01*
Y0006021D01*
X0005686Y0006132D01*
X0005519D01*
X0005276Y0005966D02*
X0005109D01*
X0005332Y0005799D02*
X0005109D01*
Y0006132D01*
X0005332D01*
X0004922Y0005799D02*
X0004811D01*
X0004866D02*
Y0006132D01*
X0004922D02*
X0004811D01*
X0004484Y0005966D02*
X0004567Y0005799D01*
X0004345Y0005966D02*
X0004512D01*
X0004567Y0006021D01*
Y0006077D01*
X0004512Y0006132D01*
X0004345D01*
Y0005799D01*
X0004102Y0005966D02*
X0003935D01*
Y0005799D02*
Y0006132D01*
X0004157D01*
X0003212D02*
Y0005799D01*
X0003157Y0005854D01*
X0003046Y0006077D01*
X0002990Y0006132D01*
Y0005799D01*
X0002802Y0005910D02*
X0002580D01*
X0002802Y0005799D02*
Y0005966D01*
X0002719Y0006132D01*
X0002663D01*
X0002580Y0005966D01*
Y0005799D01*
X0002392Y0005966D02*
X0002170D01*
X0002392Y0005799D02*
Y0006132D01*
X0002170Y0005799D02*
Y0006132D01*
X0001871Y0005799D02*
Y0006132D01*
X0001982D02*
X0001760D01*
X0001572Y0005910D02*
X0001350D01*
X0001572Y0005799D02*
Y0005966D01*
X0001489Y0006132D01*
X0001433D01*
X0001350Y0005966D01*
Y0005799D01*
X0001162Y0006132D02*
Y0005799D01*
X0001107Y0005854D01*
X0000996Y0006077D01*
X0000940Y0006132D01*
Y0005799D01*
X0000558D02*
X0000530Y0005854D01*
Y0006077D01*
X0000558Y0006132D01*
X0000724D01*
X0000752Y0006077D01*
Y0005854D01*
X0000724Y0005799D01*
X0000558D01*
X0000148Y0005910D02*
Y0005854D01*
X0000176Y0005799D01*
X0000287D01*
X0000314Y0005854D01*
Y0006132D01*
X0000342D02*
X0000231D01*
X0005658Y0001405D02*
X0005824Y0001738D01*
X0005602D01*
X0005414Y0001461D02*
X0005387Y0001405D01*
X0005220D01*
X0005192Y0001461D01*
Y0001683D01*
X0005220Y0001738D01*
X0005387D01*
X0005414Y0001683D01*
X0010610Y0009331D02*
Y0009109D01*
X0010721Y0009331D02*
X0010554D01*
X0010388Y0009248D01*
Y0009192D01*
X0010554Y0009109D01*
X0010721D01*
X0010554Y0008838D02*
X0010721Y0008921D01*
X0010554Y0008699D02*
Y0008866D01*
X0010499Y0008921D01*
X0010443D01*
X0010388Y0008866D01*
Y0008699D01*
X0010721D01*
X0010554Y0008456D02*
Y0008289D01*
X0010721Y0008511D02*
Y0008289D01*
X0010388D01*
Y0008511D01*
X0010721Y0008101D02*
X0010388D01*
X0010443Y0008046D01*
X0010554Y0007990D01*
X0010443Y0007934D01*
X0010388Y0007879D01*
X0010721D01*
X0010610Y0007691D02*
Y0007469D01*
X0010721Y0007691D02*
X0010554D01*
X0010388Y0007608D01*
Y0007552D01*
X0010554Y0007469D01*
X0010721D01*
X0010666Y0007281D02*
X0010721Y0007253D01*
Y0007087D01*
X0010666Y0007059D01*
X0010443D01*
X0010388Y0007087D01*
Y0007253D01*
X0010443Y0007281D01*
X0011323Y0006088D02*
X0011351Y0006033D01*
X0011518D01*
X0011545Y0006088D01*
Y0006199D01*
X0011490Y0006255D01*
X0011323D01*
Y0006366D01*
X0011545D01*
X0011135Y0006088D02*
X0011108Y0006033D01*
X0010941D01*
X0010913Y0006088D01*
Y0006310D01*
X0010941Y0006366D01*
X0011108D01*
X0011135Y0006310D01*
X0015654Y0008548D02*
X0015543D01*
X0015598D02*
Y0008881D01*
X0015543Y0008825D01*
X0015105Y0008548D02*
Y0008881D01*
X0015077Y0008548D02*
X0015244D01*
X0015299Y0008659D01*
Y0008770D01*
X0015244Y0008881D01*
X0015077D01*
X0016462Y0008099D02*
Y0007877D01*
X0016573Y0007988D02*
X0016351D01*
X0012671Y0000789D02*
X0012838D01*
X0012865Y0000734D01*
Y0000678D01*
X0012838Y0000623D01*
X0012671D01*
X0012643Y0000678D01*
Y0000734D01*
X0012754Y0000956D01*
X0012455Y0000678D02*
X0012428Y0000623D01*
X0012261D01*
X0012233Y0000678D01*
Y0000900D01*
X0012261Y0000956D01*
X0012428D01*
X0012455Y0000900D01*
X0009453Y0001325D02*
X0009342D01*
X0009398D02*
Y0001658D01*
X0009342Y0001603D01*
X0009016Y0001492D02*
X0009099Y0001325D01*
X0008877Y0001492D02*
X0009043D01*
X0009099Y0001547D01*
Y0001603D01*
X0009043Y0001658D01*
X0008877D01*
Y0001325D01*
X0008689Y0001436D02*
X0008467D01*
X0008689Y0001325D02*
Y0001492D01*
X0008606Y0001658D01*
X0008550D01*
X0008467Y0001492D01*
Y0001325D01*
X0008084D02*
Y0001658D01*
X0008057Y0001325D02*
X0008223D01*
X0008279Y0001436D01*
Y0001547D01*
X0008223Y0001658D01*
X0008057D01*
X0007786Y0001492D02*
X0007869Y0001325D01*
X0007647Y0001492D02*
X0007813D01*
X0007869Y0001547D01*
Y0001603D01*
X0007813Y0001658D01*
X0007647D01*
Y0001325D01*
X0007459D02*
X0007348D01*
X0007403D02*
Y0001658D01*
X0007459D02*
X0007348D01*
X0009303Y0000485D02*
X0009192D01*
X0009248D02*
Y0000819D01*
X0009192Y0000763D01*
X0004929Y0000606D02*
X0004707D01*
X0004818Y0000829D01*
X0004873D01*
Y0000495D01*
X0005090Y0000170D02*
Y0001170D01*
X0009090D01*
Y0000170D01*
X0005090D01*
G01X0015865Y0006350D02*
G03X0016990Y0005225I0001125J0000000D01*
G03X0018115Y0006350I0000000J0001125D01*
G03X0016990Y0007475I0001125J0000000D01*
G03X0015865Y0006350I0000000J0001125D01*
Y0008800D02*
G03X0016990Y0007675I0001125J0000000D01*
G03X0018115Y0008800I0000000J0001125D01*
G03X0016990Y0009925I0001125J0000000D01*
G03X0015865Y0008800I0000000J0001125D01*
G54D59*
G01X0010920Y0006700D02*
X0014120D01*
Y0009900D01*
X0010920D01*
Y0006700D01*
X0014850Y0000000D02*
Y0001200D01*
X0018050D01*
Y0004400D01*
X0014850D01*
Y0005600D01*
X0003350D01*
Y0004400D01*
X0000150D01*
Y0001200D01*
X0003350D01*
Y0000000D01*
X0014850D01*
G54D92*
G01X0007084Y0009861D02*
X0006338D01*
Y0007656D01*
X0007084D01*
Y0009861D01*
Y0009862D02*
Y0007656D01*
X0008700D01*
Y0009862D01*
X0007084D01*
X0000119Y0006392D02*
X0005474D01*
Y0009896D01*
X0000119D01*
Y0006392D01*
G54D93*
G01X0008630Y0002468D02*
Y0002950D01*
X0009540D01*
Y0002468D01*
X0008630D01*
X0005890Y0001308D02*
Y0001790D01*
X0006800D01*
Y0001308D01*
X0005890D01*
X0010800Y0006442D02*
Y0005960D01*
X0009890D01*
Y0006442D01*
X0010800D01*
X0012100Y0001042D02*
Y0000560D01*
X0011190D01*
Y0001042D01*
X0012100D01*
M02*
