*
G04 Mass Parameters ***
*
G04 Image ***
*
%INC:\DAVIDLEE\RAGOBOTS_HW\ROBOT\HW\HEAD\DESIGN\RAGOBOT_HEAD-5.SMB*%
%ICAS*%
%MOIN*%
%IPPOS*%
%ASAXBY*%
G74*%FSLAN2X34Y34*%
*
G04 Aperture Definitions ***
*
%AMTHERMAL85*
1,1,0.0879,0,0,*
1,0,0.0640,0,0,*
21,0,0.0880,0.1000,0,0,45.0*
21,0,0.0880,0.1000,0,0,135.0*%
%AMTHERMAL88*
1,1,0.0879,0,0,*
1,0,0.0640,0,0,*
21,0,0.0880,0.1000,0,0,46.2*
21,0,0.0880,0.1000,0,0,136.2*%
%AMTHERMAL130*
1,1,0.1119,0,0,*
1,0,0.0880,0,0,*
21,0,0.1120,0.1000,0,0,135.0*
21,0,0.1120,0.1000,0,0,225.0*%
%AMTHERMAL135*
1,1,0.1739,0,0,*
1,0,0.1500,0,0,*
21,0,0.1740,0.1000,0,0,45.0*
21,0,0.1740,0.1000,0,0,135.0*%
%AMTHERMAL137*
1,1,0.0879,0,0,*
1,0,0.0640,0,0,*
21,0,0.0880,0.1000,0,0,45.3*
21,0,0.0880,0.1000,0,0,135.3*%
%ADD10R,0.0055X0.0055*%
%ADD11C,0.0130*%
%ADD12R,0.0130X0.0130*%
%ADD13C,0.0145*%
%ADD14R,0.0145X0.0145*%
%ADD15R,0.0098X0.0098*%
%ADD16O,0.0040X0.0079*%
%ADD17R,0.0040X0.0079*%
%ADD18R,0.0177X0.0216*%
%ADD19R,0.0029X0.0128*%
%ADD20R,0.0029X0.0079*%
%ADD21R,0.0216X0.0177*%
%ADD22R,0.0128X0.0029*%
%ADD23O,0.0062X0.0215*%
%ADD24R,0.0062X0.0215*%
%ADD25R,0.0180X0.0255*%
%ADD26R,0.0150X0.0150*%
%ADD27O,0.0044X0.0162*%
%ADD28R,0.0044X0.0162*%
%ADD29R,0.0138X0.0197*%
%ADD30C,0.0180*%
%ADD31R,0.0180X0.0180*%
%ADD32C,0.0195*%
%ADD33R,0.0195X0.0195*%
%ADD34C,0.0002*%
%ADD35R,0.0024X0.0128*%
%ADD36R,0.0128X0.0024*%
%ADD37C,0.0015*%
%ADD38C,0.0020*%
%ADD39C,0.0010*%
%ADD40C,0.0024*%
%ADD41C,0.0200*%
%ADD42C,0.0375*%
%ADD43C,0.0400*%
%ADD44C,0.0025*%
%ADD45C,0.0012*%
%ADD46C,0.0800*%
%ADD47R,0.0220X0.0220*%
%ADD48C,0.0520*%
%ADD49R,0.0520X0.0520*%
%ADD50C,0.0866*%
%ADD51C,0.0620*%
%ADD52C,0.0580*%
%ADD53R,0.0580X0.0580*%
%ADD54R,0.0394X0.0394*%
%ADD55C,0.0250*%
%ADD56C,0.0010*%
%ADD57C,0.0250*%
%ADD58C,0.0080*%
%ADD59C,0.0100*%
%ADD60C,0.0120*%
%ADD61C,0.0150*%
%ADD62O,0.0160X0.0315*%
%ADD63R,0.0160X0.0315*%
%ADD64R,0.0860X0.0860*%
%ADD65R,0.0708X0.0866*%
%ADD66R,0.0118X0.0512*%
%ADD67R,0.0118X0.0315*%
%ADD68R,0.0866X0.0708*%
%ADD69R,0.0512X0.0118*%
%ADD70O,0.0250X0.0860*%
%ADD71R,0.0250X0.0860*%
%ADD72R,0.0720X0.1020*%
%ADD73R,0.0600X0.0600*%
%ADD74O,0.0649X0.0177*%
%ADD75R,0.0649X0.0177*%
%ADD76R,0.0551X0.0787*%
%ADD77C,0.1600*%
%ADD78C,0.0720*%
%ADD79R,0.0720X0.0720*%
%ADD80C,0.0984*%
%ADD81C,0.0700*%
%ADD82C,0.0780*%
%ADD83R,0.0780X0.0780*%
%ADD84C,0.1500*%
%ADD85THERMAL85*%
%ADD86C,0.0500*%
%ADD87C,0.0500*%
%ADD88THERMAL88*%
%ADD89C,0.0670*%
%ADD90R,0.0098X0.0512*%
%ADD91R,0.0512X0.0098*%
%ADD92C,0.0039*%
%ADD93C,0.0060*%
%ADD94C,0.0098*%
%ADD95C,0.0079*%
%ADD96C,0.1420*%
%ADD97C,0.0750*%
%ADD98C,0.1260*%
%ADD99C,0.0250*%
%ADD100C,0.0250*%
%ADD101C,0.0200*%
%ADD102C,0.1420*%
%ADD103O,0.0160X0.0315*%
%ADD104R,0.0160X0.0315*%
%ADD105R,0.0220X0.0220*%
%ADD106R,0.0860X0.0860*%
%ADD107R,0.0708X0.0866*%
%ADD108R,0.0118X0.0512*%
%ADD109C,0.0520*%
%ADD110R,0.0520X0.0520*%
%ADD111R,0.0118X0.0315*%
%ADD112C,0.0866*%
%ADD113C,0.0620*%
%ADD114C,0.0580*%
%ADD115R,0.0580X0.0580*%
%ADD116C,0.0750*%
%ADD117C,0.1260*%
%ADD118O,0.0860X0.0250*%
%ADD119R,0.0860X0.0250*%
%ADD120R,0.0720X0.1020*%
%ADD121R,0.0600X0.0600*%
%ADD122O,0.0649X0.0177*%
%ADD123R,0.0649X0.0177*%
%ADD124R,0.0551X0.0787*%
%ADD125C,0.0118*%
%ADD126C,0.1650*%
%ADD127C,0.0720*%
%ADD128R,0.0720X0.0720*%
%ADD129C,0.1150*%
%ADD130THERMAL130*%
%ADD131C,0.0750*%
%ADD132C,0.0780*%
%ADD133R,0.0780X0.0780*%
%ADD134C,0.0850*%
%ADD135THERMAL135*%
%ADD136C,0.0500*%
%ADD137THERMAL137*%
%ADD138C,0.0800*%
%ADD139C,0.1000*%
%ADD140C,0.0670*%
%ADD141R,0.0394X0.0394*%
%ADD142R,0.0098X0.0512*%
%ADD143R,0.0480X0.0244*%
%ADD144C,0.1650*%
%ADD145C,0.0720*%
%ADD146R,0.0720X0.0720*%
%ADD147C,0.1150*%
*
G04 Plot Data ***
*
G54D103*
X0009144Y0001800D03*
X0008888D03*
X0008632D03*
Y0003505D03*
X0008888D03*
X0009144D03*
X0009400D03*
G54D104*
Y0001800D03*
G54D105*
X0004630Y0002560D03*
Y0002980D03*
X0012000Y0004580D03*
X0012420D03*
X0007520Y0002420D03*
Y0002840D03*
X0004020Y0008100D03*
X0003600D03*
X0005520Y0001880D03*
X0005940D03*
X0009120Y0004510D03*
Y0004090D03*
X0008520Y0004510D03*
Y0004090D03*
X0010790Y0005490D03*
Y0005910D03*
G54D106*
X0002375Y0009200D03*
X0003695D03*
G54D107*
X0008318Y0005819D03*
X0000523D03*
X0015138Y0008989D03*
X0009902D03*
G54D109*
X0017490Y0006350D03*
Y0008800D03*
G54D110*
X0016490Y0006350D03*
Y0008800D03*
G54D111*
X0010010Y0005260D03*
X0009754D03*
X0009498D03*
Y0005968D03*
X0010010D03*
X0011740Y0006120D03*
X0011996D03*
X0012252D03*
Y0005411D03*
X0011740D03*
G54D112*
X0001261Y0006900D03*
X0000631Y0009380D03*
G54D114*
X0007590Y0000670D03*
X0006590D03*
X0005590D03*
G54D115*
X0008590D03*
G54D116*
X0006060Y0006920D03*
G54D118*
X0014000Y0004560D03*
Y0005060D03*
Y0005560D03*
X0016120D03*
Y0005060D03*
Y0004560D03*
Y0004060D03*
G54D119*
X0014000D03*
G54D120*
X0015600Y0000700D03*
X0017610D03*
G54D121*
X0011000Y0003800D03*
Y0002500D03*
G54D122*
X0011564Y0001093D03*
Y0000837D03*
Y0000581D03*
X0010481D03*
Y0000837D03*
Y0001093D03*
Y0001349D03*
G54D123*
X0011564D03*
G54D138*
X0001750Y0002820D03*
X0016450Y0002800D03*
X0001750D03*
G54D140*
X0005080Y0007140D03*
Y0008140D03*
Y0009140D03*
G54D142*
X0007570Y0004540D03*
X0007373D03*
X0007176D03*
X0006979D03*
X0006783D03*
X0006586D03*
X0006389D03*
X0006192D03*
X0005995D03*
X0005798D03*
X0005601D03*
X0005405D03*
X0005208D03*
X0005011D03*
X0004814D03*
X0004617D03*
X0004420D03*
X0004224D03*
X0004027D03*
X0003830D03*
X0003633D03*
X0003436D03*
X0003239D03*
X0003042D03*
X0002846D03*
X0002649D03*
X0002452D03*
X0002255D03*
X0002058D03*
X0001861D03*
X0001664D03*
X0001468D03*
X0001271D03*
X0014390Y0007710D03*
X0014193D03*
X0013996D03*
X0013799D03*
X0013603D03*
X0013406D03*
X0013209D03*
X0013012D03*
X0012815D03*
X0012618D03*
X0012421D03*
X0012225D03*
X0012028D03*
X0011831D03*
X0011634D03*
X0011437D03*
X0011240D03*
X0011044D03*
X0010847D03*
X0010650D03*
G54D143*
X0005520Y0002550D03*
Y0002924D03*
Y0003298D03*
X0006551D03*
Y0002550D03*
M02*
