%
T1C0.0140F200S100
X000200Y003940
X000450Y004240
X001010Y004540
X001270Y005570
X001870Y005060
X002060Y004080
X002360Y005000
X002450Y004050
X002580Y001780
X002650Y005260
X002800Y005750
X003050Y006000
X003240Y001230
X003440Y005510
X003830Y006260
X004220Y007630
X004320Y009200
X004440Y003540
X005010Y004080
X005080Y002850
X005190Y005130
X005310Y006580
X005520Y005010
X005640Y001480
X005760Y005320
X005870Y009530
X005900Y003910
X005940Y002260
X006110Y003220
X006280Y008700
X006390Y003960
X006450Y008370
X007060Y004080
X007180Y002800
X007210Y002420
X007370Y005160
X007210Y006520
X007520Y003150
X007580Y008760
X007760Y003940
X007840Y002490
X007840Y004500
X008020Y007750
X008040Y004180
X008100Y000500
X008210Y004510
X008230Y008920
X008310Y002020
X008350Y003220
X008410Y006450
X008570Y002710
X008570Y005160
X008720Y008920
X008890Y001320
X009010Y005740
X009240Y006000
X009400Y001260
X009690Y007500
X009880Y000600
X010160Y001640
X010160Y003930
X010270Y005890
X010500Y004180
X010520Y005170
X010550Y001640
X010840Y004580
X010920Y001640
X011020Y000560
X011040Y001110
X011100Y005260
X011180Y003220
X011620Y008170
X011670Y006480
X012000Y004160
X012010Y006980
X012020Y006660
X012160Y000800
X012220Y008420
X012290Y007240
X012420Y004270
X012520Y005640
X012530Y005320
X012570Y002360
X012610Y009780
X012640Y006500
X012790Y006820
X012800Y007190
X012820Y003230
X012910Y008180
X012950Y006120
X012960Y005560
X013200Y008420
X013260Y007160
X013370Y004060
X013920Y006110
X014190Y005880
X014390Y008170
X014630Y005060
X014640Y001360
X015220Y002940
X014640Y003380
X015480Y003740
T4C0.0380F200S100
X005080Y007140
X005080Y008140
X005080Y009140
T3C0.0370F200S100
X005590Y000670
X006590Y000670
X007590Y000670
X008590Y000670
T2C0.0310F200S100
X016490Y006350
X017490Y006350
X017490Y008800
X016490Y008800
T8C0.1200F200S100
X001750Y002800
X016450Y002800
T6C0.0669F200S100
X000631Y009380
X001261Y006900
T5C0.0500F200S100
X006060Y006920
T7C0.1000F200S100
X001750Y002820
M30
