*
%LPD*%
%LNRAGOBOT_HEAD-5.TOP*%
%FSLAX24Y24*%
%MOIN*%
%AD*%
%ADD47R,0.022000X0.022000*%
%ADD48C,0.052000*%
%ADD49R,0.052000X0.052000*%
%ADD50C,0.086600*%
%ADD51C,0.062000*%
%ADD52C,0.058000*%
%ADD53R,0.058000X0.058000*%
%ADD54R,0.039400X0.039400*%
%ADD55C,0.025000*%
%ADD56C,0.001000*%
%ADD58C,0.008000*%
%ADD59C,0.010000*%
%ADD96C,0.142000*%
%ADD97C,0.075000*%
%ADD98C,0.126000*%
%ADD99C,0.025000*%
%ADD100C,0.025000*%
G54D56*
%SRX1Y1I0.0J0.0*%
G1X16220Y9306D2*
G1X7122Y9306D1*
G1X16220Y9297D2*
G1X7122Y9297D1*
G1X16220Y9288D2*
G1X7122Y9288D1*
G1X16220Y9279D2*
G1X7122Y9279D1*
G1X16220Y9270D2*
G1X7122Y9270D1*
G1X16220Y9261D2*
G1X7122Y9261D1*
G1X16220Y9252D2*
G1X7122Y9252D1*
G1X16220Y9243D2*
G1X7122Y9243D1*
G1X16220Y9234D2*
G1X7122Y9234D1*
G1X16220Y9225D2*
G1X7122Y9225D1*
G1X16220Y9216D2*
G1X7122Y9216D1*
G1X6578Y9207D2*
G1X6440Y9207D1*
G1X16220Y9198D2*
G1X6440Y9198D1*
G1X16220Y9189D2*
G1X6440Y9189D1*
G1X16220Y9180D2*
G1X6440Y9180D1*
G1X16220Y9171D2*
G1X6440Y9171D1*
G1X16220Y9162D2*
G1X6440Y9162D1*
G1X16220Y9153D2*
G1X6440Y9153D1*
G1X16187Y6015D2*
G1X16187Y5550D1*
G1X16220Y9144D2*
G1X6440Y9144D1*
G1X16155Y9135D2*
G1X6440Y9135D1*
G1X6467Y9352D2*
G1X6467Y9120D1*
G1X8615Y9090D2*
G1X7070Y9090D1*
G1X16155Y9126D2*
G1X6440Y9126D1*
G1X8580Y9063D2*
G1X7097Y9063D1*
G1X8571Y9054D2*
G1X7106Y9054D1*
G1X7880Y9920D2*
G1X7880Y8911D1*
G1X7835Y9920D2*
G1X7835Y8911D1*
G1X9959Y9920D2*
G1X9959Y9035D1*
G1X6530Y9352D2*
G1X6530Y9120D1*
G1X16220Y9396D2*
G1X7122Y9396D1*
G1X7160Y9920D2*
G1X7160Y9000D1*
G1X16220Y9477D2*
G1X7122Y9477D1*
G1X12416Y9828D2*
G1X6440Y9828D1*
G1X16220Y9522D2*
G1X7122Y9522D1*
G1X16220Y9504D2*
G1X7122Y9504D1*
G1X16220Y9540D2*
G1X7122Y9540D1*
G1X6578Y9342D2*
G1X6445Y9342D1*
G1X16196Y9920D2*
G1X16196Y9135D1*
G1X15530Y4635D2*
G1X14710Y4635D1*
G1X15530Y4914D2*
G1X14710Y4914D1*
G1X15530Y4383D2*
G1X14710Y4383D1*
G1X15530Y4626D2*
G1X14710Y4626D1*
G1X15530Y4617D2*
G1X14710Y4617D1*
G1X15027Y2889D2*
G1X14710Y2889D1*
G1X15084Y3087D2*
G1X14710Y3087D1*
G1X15225Y5742D2*
G1X14710Y5742D1*
G1X15530Y4734D2*
G1X14710Y4734D1*
G1X15040Y2853D2*
G1X14710Y2853D1*
G1X15530Y4680D2*
G1X14710Y4680D1*
G1X15026Y6210D2*
G1X15026Y2989D1*
G1X16220Y7830D2*
G1X15455Y7830D1*
G1X16220Y9207D2*
G1X7122Y9207D1*
G1X6578Y9582D2*
G1X6440Y9582D1*
G1X6584Y9920D2*
G1X6584Y9739D1*
G1X6578Y9684D2*
G1X6440Y9684D1*
G1X6578Y9675D2*
G1X6440Y9675D1*
G1X6578Y9666D2*
G1X6440Y9666D1*
G1X6578Y9657D2*
G1X6440Y9657D1*
G1X6578Y9648D2*
G1X6440Y9648D1*
G1X6578Y9639D2*
G1X6440Y9639D1*
G1X6578Y9630D2*
G1X6440Y9630D1*
G1X6578Y9621D2*
G1X6440Y9621D1*
G1X6578Y9612D2*
G1X6440Y9612D1*
G1X6578Y9603D2*
G1X6440Y9603D1*
G1X6578Y9594D2*
G1X6440Y9594D1*
G1X7142Y9920D2*
G1X7142Y9018D1*
G1X12414Y9819D2*
G1X6440Y9819D1*
G1X12412Y9810D2*
G1X6440Y9810D1*
G1X12411Y9801D2*
G1X6440Y9801D1*
G1X12410Y9792D2*
G1X6440Y9792D1*
G1X12410Y9783D2*
G1X6440Y9783D1*
G1X12410Y9774D2*
G1X6440Y9774D1*
G1X12411Y9765D2*
G1X6440Y9765D1*
G1X12411Y9756D2*
G1X6440Y9756D1*
G1X12467Y9920D2*
G1X6440Y9920D1*
G1X6578Y9729D2*
G1X6440Y9729D1*
G1X6578Y9720D2*
G1X6440Y9720D1*
G1X6578Y9711D2*
G1X6440Y9711D1*
G1X6578Y9702D2*
G1X6440Y9702D1*
G1X6578Y9693D2*
G1X6440Y9693D1*
G1X12465Y9918D2*
G1X6440Y9918D1*
G1X12457Y9909D2*
G1X6440Y9909D1*
G1X12450Y9900D2*
G1X6440Y9900D1*
G1X12444Y9891D2*
G1X6440Y9891D1*
G1X12438Y9882D2*
G1X6440Y9882D1*
G1X12433Y9873D2*
G1X6440Y9873D1*
G1X12428Y9864D2*
G1X6440Y9864D1*
G1X12425Y9855D2*
G1X6440Y9855D1*
G1X12421Y9846D2*
G1X6440Y9846D1*
G1X12418Y9837D2*
G1X6440Y9837D1*
G1X6578Y9352D2*
G1X6455Y9352D1*
G1X16220Y9441D2*
G1X7122Y9441D1*
G1X6512Y9920D2*
G1X6512Y9582D1*
G1X10013Y9920D2*
G1X10013Y9035D1*
G1X6530Y9920D2*
G1X6530Y9582D1*
G1X6539Y9920D2*
G1X6539Y9582D1*
G1X6548Y9920D2*
G1X6548Y9582D1*
G1X6557Y9920D2*
G1X6557Y9582D1*
G1X6566Y9920D2*
G1X6566Y9582D1*
G1X6575Y9920D2*
G1X6575Y9582D1*
G1X16220Y9432D2*
G1X7122Y9432D1*
G1X7151Y9920D2*
G1X7151Y9009D1*
G1X6449Y9920D2*
G1X6449Y9582D1*
G1X6578Y9739D2*
G1X6578Y9582D1*
G1X6458Y9920D2*
G1X6458Y9582D1*
G1X6467Y9920D2*
G1X6467Y9582D1*
G1X16220Y9414D2*
G1X7122Y9414D1*
G1X16220Y9459D2*
G1X7122Y9459D1*
G1X6539Y9352D2*
G1X6539Y9120D1*
G1X6440Y9337D2*
G1X6440Y9120D1*
G1X6578Y9351D2*
G1X6454Y9351D1*
G1X16220Y9333D2*
G1X7122Y9333D1*
G1X16220Y9324D2*
G1X7122Y9324D1*
G1X16220Y9315D2*
G1X7122Y9315D1*
G1X10166Y9920D2*
G1X10166Y9035D1*
G1X7979Y9920D2*
G1X7979Y8911D1*
G1X16220Y7947D2*
G1X15455Y7947D1*
G1X15422Y9920D2*
G1X15422Y8681D1*
G1X15022Y2970D2*
G1X14710Y2970D1*
G1X15530Y4653D2*
G1X14710Y4653D1*
G1X15530Y4662D2*
G1X14710Y4662D1*
G1X15530Y3150D2*
G1X14710Y3150D1*
G1X15244Y5337D2*
G1X14710Y5337D1*
G1X15429Y5148D2*
G1X14710Y5148D1*
G1X15530Y4797D2*
G1X14710Y4797D1*
G1X15530Y4887D2*
G1X14710Y4887D1*
G1X15225Y5508D2*
G1X14710Y5508D1*
G1X15228Y5373D2*
G1X14710Y5373D1*
G1X15225Y5391D2*
G1X14710Y5391D1*
G1X15050Y2835D2*
G1X14710Y2835D1*
G1X7122Y9196D2*
G1X6578Y9196D1*
G1X7122Y9739D2*
G1X7122Y9196D1*
G1X7122Y9739D2*
G1X6578Y9739D1*
G1X16155Y6685D2*
G1X16155Y6015D1*
G1X15530Y2664D2*
G1X14710Y2664D1*
G1X16220Y6685D2*
G1X16155Y6685D1*
G1X16155Y9135D2*
G1X16155Y8465D1*
G1X16220Y9135D2*
G1X16155Y9135D1*
G1X16220Y6015D2*
G1X16155Y6015D1*
G1X6485Y9920D2*
G1X6485Y9582D1*
G1X16178Y6015D2*
G1X16178Y5550D1*
G1X16220Y5550D2*
G1X15530Y5550D1*
G1X15251Y5327D2*
G1X15251Y3138D1*
G1X15530Y2610D2*
G1X14710Y2610D1*
G1X15530Y3240D2*
G1X14783Y3240D1*
G1X15210Y6210D2*
G1X14710Y6210D1*
G1X15225Y6225D2*
G1X15210Y6210D1*
G1X7040Y9120D2*
G1X7250Y8910D1*
G1X7040Y9120D2*
G1X6440Y9120D1*
G1X6578Y9352D2*
G1X6578Y9196D1*
G1X16220Y6015D2*
G1X16220Y5550D1*
G1X15233Y5358D2*
G1X15233Y3140D1*
G1X15395Y9920D2*
G1X15395Y8708D1*
G1X16205Y6015D2*
G1X16205Y5550D1*
G1X16196Y6015D2*
G1X16196Y5550D1*
G1X16169Y6015D2*
G1X16169Y5550D1*
G1X16160Y9920D2*
G1X16160Y5550D1*
G1X16151Y9920D2*
G1X16151Y5550D1*
G1X16142Y9920D2*
G1X16142Y5550D1*
G1X16133Y9920D2*
G1X16133Y5550D1*
G1X16124Y9920D2*
G1X16124Y5550D1*
G1X16115Y9920D2*
G1X16115Y5550D1*
G1X16106Y9920D2*
G1X16106Y5550D1*
G1X15701Y9920D2*
G1X15701Y5550D1*
G1X15692Y9920D2*
G1X15692Y5550D1*
G1X15683Y9920D2*
G1X15683Y5550D1*
G1X15674Y9920D2*
G1X15674Y5550D1*
G1X15665Y9920D2*
G1X15665Y5550D1*
G1X15656Y9920D2*
G1X15656Y5550D1*
G1X15647Y9920D2*
G1X15647Y5550D1*
G1X15638Y9920D2*
G1X15638Y5550D1*
G1X15629Y9920D2*
G1X15629Y5550D1*
G1X15620Y9920D2*
G1X15620Y5550D1*
G1X15611Y9920D2*
G1X15611Y5550D1*
G1X15602Y9920D2*
G1X15602Y5550D1*
G1X15593Y9920D2*
G1X15593Y5550D1*
G1X16097Y9920D2*
G1X16097Y5550D1*
G1X16088Y9920D2*
G1X16088Y5550D1*
G1X16079Y9920D2*
G1X16079Y5550D1*
G1X15224Y6224D2*
G1X15224Y3140D1*
G1X15908Y9920D2*
G1X15908Y5550D1*
G1X15260Y5318D2*
G1X15530Y5047D1*
G1X15863Y9920D2*
G1X15863Y5550D1*
G1X15854Y9920D2*
G1X15854Y5550D1*
G1X15845Y9920D2*
G1X15845Y5550D1*
G1X15836Y9920D2*
G1X15836Y5550D1*
G1X15827Y9920D2*
G1X15827Y5550D1*
G1X15818Y9920D2*
G1X15818Y5550D1*
G1X15809Y9920D2*
G1X15809Y5550D1*
G1X15800Y9920D2*
G1X15800Y5550D1*
G1X15791Y9920D2*
G1X15791Y5550D1*
G1X15782Y9920D2*
G1X15782Y5550D1*
G1X15773Y9920D2*
G1X15773Y5550D1*
G1X15764Y9920D2*
G1X15764Y5550D1*
G1X15755Y9920D2*
G1X15755Y5550D1*
G1X15746Y9920D2*
G1X15746Y5550D1*
G1X15737Y9920D2*
G1X15737Y5550D1*
G1X15728Y9920D2*
G1X15728Y5550D1*
G1X15719Y9920D2*
G1X15719Y5550D1*
G1X15710Y9920D2*
G1X15710Y5550D1*
G1X15521Y5056D2*
G1X15521Y2610D1*
G1X15575Y9920D2*
G1X15575Y5550D1*
G1X15449Y5128D2*
G1X15449Y2610D1*
G1X15539Y9920D2*
G1X15539Y5550D1*
G1X15503Y5074D2*
G1X15503Y2610D1*
G1X15494Y5083D2*
G1X15494Y2610D1*
G1X15485Y5092D2*
G1X15485Y2610D1*
G1X15476Y5101D2*
G1X15476Y2610D1*
G1X15467Y5110D2*
G1X15467Y2610D1*
G1X15225Y5526D2*
G1X14710Y5526D1*
G1X15530Y5517D2*
G1X15455Y5517D1*
G1X15225Y5517D2*
G1X14710Y5517D1*
G1X15395Y2843D2*
G1X15395Y2610D1*
G1X15377Y2816D2*
G1X15377Y2610D1*
G1X15368Y2805D2*
G1X15368Y2610D1*
G1X16025Y9920D2*
G1X16025Y5550D1*
G1X16016Y9920D2*
G1X16016Y5550D1*
G1X16007Y9920D2*
G1X16007Y5550D1*
G1X15998Y9920D2*
G1X15998Y5550D1*
G1X15989Y9920D2*
G1X15989Y5550D1*
G1X15980Y9920D2*
G1X15980Y5550D1*
G1X15971Y9920D2*
G1X15971Y5550D1*
G1X15962Y9920D2*
G1X15962Y5550D1*
G1X15953Y9920D2*
G1X15953Y5550D1*
G1X15944Y9920D2*
G1X15944Y5550D1*
G1X15225Y6225D2*
G1X15225Y5400D1*
G1X15215Y6215D2*
G1X15215Y3140D1*
G1X15206Y6210D2*
G1X15206Y3139D1*
G1X15197Y6210D2*
G1X15197Y3139D1*
G1X15188Y6210D2*
G1X15188Y3137D1*
G1X15179Y6210D2*
G1X15179Y3136D1*
G1X15170Y6210D2*
G1X15170Y3134D1*
G1X15161Y6210D2*
G1X15161Y3131D1*
G1X15152Y6210D2*
G1X15152Y3128D1*
G1X15143Y6210D2*
G1X15143Y3125D1*
G1X15134Y6210D2*
G1X15134Y3121D1*
G1X15125Y6210D2*
G1X15125Y3116D1*
G1X15116Y6210D2*
G1X15116Y3111D1*
G1X15107Y6210D2*
G1X15107Y3105D1*
G1X15098Y6210D2*
G1X15098Y3098D1*
G1X15089Y6210D2*
G1X15089Y3091D1*
G1X15080Y6210D2*
G1X15080Y3083D1*
G1X15071Y6210D2*
G1X15071Y3073D1*
G1X15062Y6210D2*
G1X15062Y3063D1*
G1X15053Y6210D2*
G1X15053Y3050D1*
G1X15044Y6210D2*
G1X15044Y3035D1*
G1X15035Y6210D2*
G1X15035Y3016D1*
G1X15035Y2864D2*
G1X15035Y2610D1*
G1X15026Y2891D2*
G1X15026Y2610D1*
G1X15017Y6210D2*
G1X15017Y2610D1*
G1X15008Y6210D2*
G1X15008Y2610D1*
G1X14999Y6210D2*
G1X14999Y2610D1*
G1X14990Y6210D2*
G1X14990Y2610D1*
G1X14972Y6210D2*
G1X14972Y2610D1*
G1X14963Y6210D2*
G1X14963Y2610D1*
G1X14936Y6210D2*
G1X14936Y2610D1*
G1X14954Y6210D2*
G1X14954Y2610D1*
G1X15530Y3186D2*
G1X14710Y3186D1*
G1X14900Y6210D2*
G1X14900Y2610D1*
G1X14882Y6210D2*
G1X14882Y2610D1*
G1X14873Y6210D2*
G1X14873Y2610D1*
G1X14864Y6210D2*
G1X14864Y2610D1*
G1X14710Y3193D2*
G1X14710Y2610D1*
G1X14855Y6210D2*
G1X14855Y2610D1*
G1X14846Y6210D2*
G1X14846Y2610D1*
G1X14729Y3201D2*
G1X14729Y2610D1*
G1X14720Y6210D2*
G1X14720Y3598D1*
G1X16220Y5769D2*
G1X15455Y5769D1*
G1X15447Y5130D2*
G1X14710Y5130D1*
G1X15420Y5157D2*
G1X14710Y5157D1*
G1X15225Y5400D2*
G1X14710Y5400D1*
G1X14981Y6210D2*
G1X14981Y2610D1*
G1X15872Y9920D2*
G1X15872Y5550D1*
G1X14801Y6210D2*
G1X14801Y3499D1*
G1X14711Y6210D2*
G1X14711Y3607D1*
G1X15225Y6030D2*
G1X14710Y6030D1*
G1X15225Y5607D2*
G1X14710Y5607D1*
G1X15225Y5724D2*
G1X14710Y5724D1*
G1X15225Y5589D2*
G1X14710Y5589D1*
G1X16220Y5571D2*
G1X15455Y5571D1*
G1X15530Y5544D2*
G1X15455Y5544D1*
G1X15530Y5535D2*
G1X15455Y5535D1*
G1X15530Y4815D2*
G1X14710Y4815D1*
G1X6476Y9920D2*
G1X6476Y9582D1*
G1X6593Y9920D2*
G1X6593Y9739D1*
G1X6602Y9920D2*
G1X6602Y9739D1*
G1X7187Y9920D2*
G1X7187Y8973D1*
G1X15225Y5985D2*
G1X14710Y5985D1*
G1X15225Y5949D2*
G1X14710Y5949D1*
G1X15225Y6210D2*
G1X15210Y6210D1*
G1X15225Y6021D2*
G1X14710Y6021D1*
G1X15225Y5733D2*
G1X14710Y5733D1*
G1X15233Y9920D2*
G1X15233Y8920D1*
G1X15530Y4491D2*
G1X14710Y4491D1*
G1X16178Y9920D2*
G1X16178Y9135D1*
G1X16187Y9920D2*
G1X16187Y9135D1*
G1X15032Y2871D2*
G1X14710Y2871D1*
G1X6503Y9920D2*
G1X6503Y9582D1*
G1X16220Y8460D2*
G1X15455Y8460D1*
G1X7124Y9920D2*
G1X7124Y9036D1*
G1X7817Y9920D2*
G1X7817Y8911D1*
G1X7826Y9920D2*
G1X7826Y8911D1*
G1X15143Y2755D2*
G1X15143Y2610D1*
G1X15134Y2759D2*
G1X15134Y2610D1*
G1X15125Y2764D2*
G1X15125Y2610D1*
G1X15116Y2769D2*
G1X15116Y2610D1*
G1X15107Y2775D2*
G1X15107Y2610D1*
G1X15098Y2781D2*
G1X15098Y2610D1*
G1X15089Y2789D2*
G1X15089Y2610D1*
G1X15080Y2797D2*
G1X15080Y2610D1*
G1X15071Y2807D2*
G1X15071Y2610D1*
G1X15062Y2817D2*
G1X15062Y2610D1*
G1X15053Y2830D2*
G1X15053Y2610D1*
G1X15044Y2845D2*
G1X15044Y2610D1*
G1X6521Y9352D2*
G1X6521Y9120D1*
G1X6548Y9352D2*
G1X6548Y9120D1*
G1X7115Y9196D2*
G1X7115Y9045D1*
G1X7106Y9196D2*
G1X7106Y9054D1*
G1X7097Y9196D2*
G1X7097Y9063D1*
G1X7088Y9196D2*
G1X7088Y9072D1*
G1X7079Y9196D2*
G1X7079Y9081D1*
G1X7070Y9196D2*
G1X7070Y9090D1*
G1X7061Y9196D2*
G1X7061Y9099D1*
G1X7052Y9196D2*
G1X7052Y9108D1*
G1X7043Y9196D2*
G1X7043Y9117D1*
G1X7034Y9196D2*
G1X7034Y9120D1*
G1X7025Y9196D2*
G1X7025Y9120D1*
G1X7016Y9196D2*
G1X7016Y9120D1*
G1X7007Y9196D2*
G1X7007Y9120D1*
G1X6998Y9196D2*
G1X6998Y9120D1*
G1X6989Y9196D2*
G1X6989Y9120D1*
G1X6980Y9196D2*
G1X6980Y9120D1*
G1X6971Y9196D2*
G1X6971Y9120D1*
G1X6962Y9196D2*
G1X6962Y9120D1*
G1X6953Y9196D2*
G1X6953Y9120D1*
G1X6944Y9196D2*
G1X6944Y9120D1*
G1X6935Y9196D2*
G1X6935Y9120D1*
G1X6926Y9196D2*
G1X6926Y9120D1*
G1X6917Y9196D2*
G1X6917Y9120D1*
G1X6908Y9196D2*
G1X6908Y9120D1*
G1X6899Y9196D2*
G1X6899Y9120D1*
G1X6890Y9196D2*
G1X6890Y9120D1*
G1X6881Y9196D2*
G1X6881Y9120D1*
G1X6872Y9196D2*
G1X6872Y9120D1*
G1X6863Y9196D2*
G1X6863Y9120D1*
G1X6854Y9196D2*
G1X6854Y9120D1*
G1X6845Y9196D2*
G1X6845Y9120D1*
G1X6836Y9196D2*
G1X6836Y9120D1*
G1X6827Y9196D2*
G1X6827Y9120D1*
G1X6818Y9196D2*
G1X6818Y9120D1*
G1X6809Y9196D2*
G1X6809Y9120D1*
G1X6800Y9196D2*
G1X6800Y9120D1*
G1X6791Y9196D2*
G1X6791Y9120D1*
G1X6782Y9196D2*
G1X6782Y9120D1*
G1X6773Y9196D2*
G1X6773Y9120D1*
G1X6764Y9196D2*
G1X6764Y9120D1*
G1X6755Y9196D2*
G1X6755Y9120D1*
G1X6746Y9196D2*
G1X6746Y9120D1*
G1X6737Y9196D2*
G1X6737Y9120D1*
G1X6728Y9196D2*
G1X6728Y9120D1*
G1X6719Y9196D2*
G1X6719Y9120D1*
G1X6710Y9196D2*
G1X6710Y9120D1*
G1X6701Y9196D2*
G1X6701Y9120D1*
G1X6692Y9196D2*
G1X6692Y9120D1*
G1X6683Y9196D2*
G1X6683Y9120D1*
G1X6674Y9196D2*
G1X6674Y9120D1*
G1X6665Y9196D2*
G1X6665Y9120D1*
G1X6656Y9196D2*
G1X6656Y9120D1*
G1X6647Y9196D2*
G1X6647Y9120D1*
G1X6638Y9196D2*
G1X6638Y9120D1*
G1X6629Y9196D2*
G1X6629Y9120D1*
G1X8551Y9027D2*
G1X7133Y9027D1*
G1X8541Y9009D2*
G1X7151Y9009D1*
G1X8533Y8991D2*
G1X7169Y8991D1*
G1X8527Y8973D2*
G1X7187Y8973D1*
G1X7448Y8910D2*
G1X7250Y8910D1*
G1X7536Y8955D2*
G1X7205Y8955D1*
G1X7487Y8937D2*
G1X7223Y8937D1*
G1X7471Y8928D2*
G1X7232Y8928D1*
G1X16220Y8073D2*
G1X15455Y8073D1*
G1X8564Y9045D2*
G1X7115Y9045D1*
G1X10076Y9920D2*
G1X10076Y9035D1*
G1X9995Y9920D2*
G1X9995Y9035D1*
G1X8006Y9920D2*
G1X8006Y8911D1*
G1X7997Y9920D2*
G1X7997Y8911D1*
G1X10058Y9920D2*
G1X10058Y9035D1*
G1X7115Y9920D2*
G1X7115Y9739D1*
G1X7106Y9920D2*
G1X7106Y9739D1*
G1X7097Y9920D2*
G1X7097Y9739D1*
G1X7088Y9920D2*
G1X7088Y9739D1*
G1X7079Y9920D2*
G1X7079Y9739D1*
G1X7070Y9920D2*
G1X7070Y9739D1*
G1X7061Y9920D2*
G1X7061Y9739D1*
G1X7052Y9920D2*
G1X7052Y9739D1*
G1X7043Y9920D2*
G1X7043Y9739D1*
G1X7034Y9920D2*
G1X7034Y9739D1*
G1X7025Y9920D2*
G1X7025Y9739D1*
G1X7016Y9920D2*
G1X7016Y9739D1*
G1X7007Y9920D2*
G1X7007Y9739D1*
G1X6998Y9920D2*
G1X6998Y9739D1*
G1X6989Y9920D2*
G1X6989Y9739D1*
G1X6980Y9920D2*
G1X6980Y9739D1*
G1X6971Y9920D2*
G1X6971Y9739D1*
G1X6962Y9920D2*
G1X6962Y9739D1*
G1X6953Y9920D2*
G1X6953Y9739D1*
G1X6944Y9920D2*
G1X6944Y9739D1*
G1X6935Y9920D2*
G1X6935Y9739D1*
G1X6926Y9920D2*
G1X6926Y9739D1*
G1X6917Y9920D2*
G1X6917Y9739D1*
G1X6908Y9920D2*
G1X6908Y9739D1*
G1X6899Y9920D2*
G1X6899Y9739D1*
G1X6890Y9920D2*
G1X6890Y9739D1*
G1X6881Y9920D2*
G1X6881Y9739D1*
G1X6872Y9920D2*
G1X6872Y9739D1*
G1X6863Y9920D2*
G1X6863Y9739D1*
G1X6854Y9920D2*
G1X6854Y9739D1*
G1X6845Y9920D2*
G1X6845Y9739D1*
G1X6836Y9920D2*
G1X6836Y9739D1*
G1X6827Y9920D2*
G1X6827Y9739D1*
G1X6818Y9920D2*
G1X6818Y9739D1*
G1X6809Y9920D2*
G1X6809Y9739D1*
G1X6800Y9920D2*
G1X6800Y9739D1*
G1X6791Y9920D2*
G1X6791Y9739D1*
G1X6782Y9920D2*
G1X6782Y9739D1*
G1X6773Y9920D2*
G1X6773Y9739D1*
G1X6764Y9920D2*
G1X6764Y9739D1*
G1X6755Y9920D2*
G1X6755Y9739D1*
G1X6746Y9920D2*
G1X6746Y9739D1*
G1X6737Y9920D2*
G1X6737Y9739D1*
G1X6728Y9920D2*
G1X6728Y9739D1*
G1X6719Y9920D2*
G1X6719Y9739D1*
G1X6710Y9920D2*
G1X6710Y9739D1*
G1X6701Y9920D2*
G1X6701Y9739D1*
G1X6692Y9920D2*
G1X6692Y9739D1*
G1X6683Y9920D2*
G1X6683Y9739D1*
G1X6674Y9920D2*
G1X6674Y9739D1*
G1X6665Y9920D2*
G1X6665Y9739D1*
G1X6656Y9920D2*
G1X6656Y9739D1*
G1X6647Y9920D2*
G1X6647Y9739D1*
G1X6638Y9920D2*
G1X6638Y9739D1*
G1X6629Y9920D2*
G1X6629Y9739D1*
G1X6620Y9920D2*
G1X6620Y9739D1*
G1X6611Y9920D2*
G1X6611Y9739D1*
G1X12413Y9747D2*
G1X6440Y9747D1*
G1X12417Y9729D2*
G1X7122Y9729D1*
G1X12419Y9720D2*
G1X7122Y9720D1*
G1X12422Y9711D2*
G1X7122Y9711D1*
G1X12426Y9702D2*
G1X7122Y9702D1*
G1X12430Y9693D2*
G1X7122Y9693D1*
G1X12435Y9684D2*
G1X7122Y9684D1*
G1X12440Y9675D2*
G1X7122Y9675D1*
G1X12446Y9666D2*
G1X7122Y9666D1*
G1X12452Y9657D2*
G1X7122Y9657D1*
G1X12460Y9648D2*
G1X7122Y9648D1*
G1X12468Y9639D2*
G1X7122Y9639D1*
G1X12478Y9630D2*
G1X7122Y9630D1*
G1X12489Y9621D2*
G1X7122Y9621D1*
G1X12501Y9612D2*
G1X7122Y9612D1*
G1X12517Y9603D2*
G1X7122Y9603D1*
G1X12536Y9594D2*
G1X7122Y9594D1*
G1X6578Y9585D2*
G1X6440Y9585D1*
G1X16220Y9576D2*
G1X7122Y9576D1*
G1X16220Y9567D2*
G1X7122Y9567D1*
G1X6575Y9352D2*
G1X6575Y9120D1*
G1X16220Y9549D2*
G1X7122Y9549D1*
G1X16220Y9531D2*
G1X7122Y9531D1*
G1X6566Y9352D2*
G1X6566Y9120D1*
G1X16220Y9513D2*
G1X7122Y9513D1*
G1X16220Y9495D2*
G1X7122Y9495D1*
G1X7178Y9920D2*
G1X7178Y8982D1*
G1X12414Y9738D2*
G1X6440Y9738D1*
G1X6458Y9352D2*
G1X6458Y9120D1*
G1X16220Y9450D2*
G1X7122Y9450D1*
G1X6455Y9352D2*
G1X6440Y9337D1*
G1X16220Y9423D2*
G1X7122Y9423D1*
G1X6449Y9346D2*
G1X6449Y9120D1*
G1X16220Y9405D2*
G1X7122Y9405D1*
G1X6503Y9352D2*
G1X6503Y9120D1*
G1X16220Y9387D2*
G1X7122Y9387D1*
G1X16220Y9378D2*
G1X7122Y9378D1*
G1X16220Y9369D2*
G1X7122Y9369D1*
G1X16220Y9360D2*
G1X7122Y9360D1*
G1X16220Y9351D2*
G1X7122Y9351D1*
G1X16220Y9342D2*
G1X7122Y9342D1*
G1X6578Y9333D2*
G1X6440Y9333D1*
G1X6578Y9324D2*
G1X6440Y9324D1*
G1X6578Y9315D2*
G1X6440Y9315D1*
G1X6578Y9306D2*
G1X6440Y9306D1*
G1X6578Y9297D2*
G1X6440Y9297D1*
G1X6578Y9288D2*
G1X6440Y9288D1*
G1X6578Y9279D2*
G1X6440Y9279D1*
G1X6578Y9270D2*
G1X6440Y9270D1*
G1X6578Y9261D2*
G1X6440Y9261D1*
G1X6578Y9252D2*
G1X6440Y9252D1*
G1X6578Y9243D2*
G1X6440Y9243D1*
G1X6578Y9234D2*
G1X6440Y9234D1*
G1X6578Y9225D2*
G1X6440Y9225D1*
G1X6578Y9216D2*
G1X6440Y9216D1*
G1X16220Y9486D2*
G1X7122Y9486D1*
G1X6557Y9352D2*
G1X6557Y9120D1*
G1X7169Y9920D2*
G1X7169Y8991D1*
G1X16220Y8465D2*
G1X16220Y6685D1*
G1X16205Y8465D2*
G1X16205Y6685D1*
G1X16196Y8465D2*
G1X16196Y6685D1*
G1X16187Y8465D2*
G1X16187Y6685D1*
G1X16178Y8465D2*
G1X16178Y6685D1*
G1X16169Y8465D2*
G1X16169Y6685D1*
G1X12443Y9920D2*
G1X12443Y9890D1*
G1X16220Y9920D2*
G1X16220Y9135D1*
G1X16205Y9920D2*
G1X16205Y9135D1*
G1X15530Y2718D2*
G1X14710Y2718D1*
G1X15584Y9920D2*
G1X15584Y5550D1*
G1X10022Y9920D2*
G1X10022Y9035D1*
G1X15438Y5139D2*
G1X14710Y5139D1*
G1X15512Y5065D2*
G1X15512Y2610D1*
G1X15240Y8863D2*
G1X15421Y8681D1*
G1X15926Y9920D2*
G1X15926Y5550D1*
G1X15530Y5409D2*
G1X15494Y5409D1*
G1X15102Y9000D2*
G1X15183Y8920D1*
G1X15530Y4563D2*
G1X14710Y4563D1*
G1X7808Y9920D2*
G1X7808Y8911D1*
G1X6476Y9352D2*
G1X6476Y9120D1*
G1X6584Y9196D2*
G1X6584Y9120D1*
G1X6593Y9196D2*
G1X6593Y9120D1*
G1X6602Y9196D2*
G1X6602Y9120D1*
G1X10067Y9920D2*
G1X10067Y9035D1*
G1X7205Y9920D2*
G1X7205Y8955D1*
G1X6611Y9196D2*
G1X6611Y9120D1*
G1X6620Y9196D2*
G1X6620Y9120D1*
G1X7961Y9920D2*
G1X7961Y8911D1*
G1X6494Y9920D2*
G1X6494Y9582D1*
G1X15413Y9920D2*
G1X15413Y8690D1*
G1X15020Y9035D2*
G1X8884Y9035D1*
G1X14927Y6210D2*
G1X14927Y2610D1*
G1X8601Y9081D2*
G1X7079Y9081D1*
G1X13451Y9920D2*
G1X13451Y9035D1*
G1X13460Y9920D2*
G1X13460Y9035D1*
G1X15251Y9920D2*
G1X15251Y8852D1*
G1X15242Y5340D2*
G1X15242Y3139D1*
G1X15431Y9920D2*
G1X15431Y8670D1*
G1X15368Y9920D2*
G1X15368Y8735D1*
G1X8590Y9072D2*
G1X7088Y9072D1*
G1X16220Y5625D2*
G1X15455Y5625D1*
G1X16155Y6210D2*
G1X15455Y6210D1*
G1X16155Y6300D2*
G1X15455Y6300D1*
G1X15413Y2888D2*
G1X15413Y2610D1*
G1X15455Y8600D2*
G1X15455Y5448D1*
G1X15386Y2828D2*
G1X15386Y2610D1*
G1X15548Y9920D2*
G1X15548Y5550D1*
G1X15557Y9920D2*
G1X15557Y5550D1*
G1X15036Y2862D2*
G1X14710Y2862D1*
G1X15530Y4689D2*
G1X14710Y4689D1*
G1X15099Y2781D2*
G1X14710Y2781D1*
G1X15530Y4149D2*
G1X14710Y4149D1*
G1X15530Y4158D2*
G1X14710Y4158D1*
G1X15530Y4176D2*
G1X14710Y4176D1*
G1X15530Y4185D2*
G1X14710Y4185D1*
G1X15530Y4194D2*
G1X14710Y4194D1*
G1X15530Y3573D2*
G1X14739Y3573D1*
G1X15530Y3645D2*
G1X14710Y3645D1*
G1X15530Y3195D2*
G1X14716Y3195D1*
G1X15530Y3204D2*
G1X14735Y3204D1*
G1X15530Y4572D2*
G1X14710Y4572D1*
G1X15530Y3735D2*
G1X14710Y3735D1*
G1X15530Y3213D2*
G1X14750Y3213D1*
G1X15530Y3222D2*
G1X14763Y3222D1*
G1X15530Y3231D2*
G1X14773Y3231D1*
G1X14710Y6210D2*
G1X14710Y3608D1*
G1X15530Y4761D2*
G1X14710Y4761D1*
G1X15530Y4752D2*
G1X14710Y4752D1*
G1X15530Y4743D2*
G1X14710Y4743D1*
G1X15530Y4608D2*
G1X14710Y4608D1*
G1X15258Y5319D2*
G1X14710Y5319D1*
G1X15530Y4725D2*
G1X14710Y4725D1*
G1X15250Y5328D2*
G1X14710Y5328D1*
G1X15530Y2655D2*
G1X14710Y2655D1*
G1X15530Y4446D2*
G1X14710Y4446D1*
G1X15530Y2646D2*
G1X14710Y2646D1*
G1X15530Y4437D2*
G1X14710Y4437D1*
G1X15530Y2637D2*
G1X14710Y2637D1*
G1X15530Y4428D2*
G1X14710Y4428D1*
G1X15530Y2628D2*
G1X14710Y2628D1*
G1X15530Y4419D2*
G1X14710Y4419D1*
G1X15530Y2619D2*
G1X14710Y2619D1*
G1X15530Y4410D2*
G1X14710Y4410D1*
G1X15530Y4401D2*
G1X14710Y4401D1*
G1X15530Y4392D2*
G1X14710Y4392D1*
G1X15332Y9920D2*
G1X15332Y8771D1*
G1X16220Y5715D2*
G1X15455Y5715D1*
G1X15530Y5427D2*
G1X15476Y5427D1*
G1X16220Y5760D2*
G1X15455Y5760D1*
G1X15225Y5760D2*
G1X14710Y5760D1*
G1X16220Y5733D2*
G1X15455Y5733D1*
G1X15225Y5544D2*
G1X14710Y5544D1*
G1X15530Y4482D2*
G1X14710Y4482D1*
G1X16220Y5751D2*
G1X15455Y5751D1*
G1X15225Y5751D2*
G1X14710Y5751D1*
G1X16220Y5742D2*
G1X15455Y5742D1*
G1X15070Y2808D2*
G1X14710Y2808D1*
G1X15111Y2772D2*
G1X14710Y2772D1*
G1X15127Y2763D2*
G1X14710Y2763D1*
G1X15146Y2754D2*
G1X14710Y2754D1*
G1X15176Y2745D2*
G1X14710Y2745D1*
G1X15530Y2736D2*
G1X14710Y2736D1*
G1X15530Y2727D2*
G1X14710Y2727D1*
G1X15043Y3033D2*
G1X14710Y3033D1*
G1X15530Y3132D2*
G1X15276Y3132D1*
G1X15530Y3123D2*
G1X15301Y3123D1*
G1X15530Y3114D2*
G1X15319Y3114D1*
G1X15530Y3105D2*
G1X15333Y3105D1*
G1X15530Y3096D2*
G1X15345Y3096D1*
G1X15530Y3087D2*
G1X15356Y3087D1*
G1X15530Y3078D2*
G1X15365Y3078D1*
G1X15530Y3069D2*
G1X15373Y3069D1*
G1X15530Y3060D2*
G1X15380Y3060D1*
G1X15530Y3051D2*
G1X15386Y3051D1*
G1X15530Y3042D2*
G1X15392Y3042D1*
G1X15530Y3033D2*
G1X15397Y3033D1*
G1X15530Y3024D2*
G1X15401Y3024D1*
G1X15530Y3015D2*
G1X15405Y3015D1*
G1X15530Y3006D2*
G1X15409Y3006D1*
G1X15530Y2997D2*
G1X15412Y2997D1*
G1X15530Y2988D2*
G1X15414Y2988D1*
G1X15530Y2979D2*
G1X15416Y2979D1*
G1X15530Y2970D2*
G1X15418Y2970D1*
G1X15530Y2961D2*
G1X15419Y2961D1*
G1X15530Y2952D2*
G1X15420Y2952D1*
G1X15530Y2943D2*
G1X15420Y2943D1*
G1X15530Y2934D2*
G1X15420Y2934D1*
G1X15530Y2925D2*
G1X15419Y2925D1*
G1X15530Y2916D2*
G1X15419Y2916D1*
G1X15530Y2907D2*
G1X15417Y2907D1*
G1X15530Y2898D2*
G1X15415Y2898D1*
G1X15530Y2889D2*
G1X15413Y2889D1*
G1X15530Y2880D2*
G1X15411Y2880D1*
G1X15530Y2871D2*
G1X15408Y2871D1*
G1X15530Y2862D2*
G1X15404Y2862D1*
G1X15530Y2853D2*
G1X15400Y2853D1*
G1X15530Y2844D2*
G1X15395Y2844D1*
G1X15530Y2835D2*
G1X15390Y2835D1*
G1X15530Y2826D2*
G1X15384Y2826D1*
G1X15530Y2817D2*
G1X15378Y2817D1*
G1X15530Y2808D2*
G1X15370Y2808D1*
G1X15530Y2799D2*
G1X15362Y2799D1*
G1X15530Y2790D2*
G1X15352Y2790D1*
G1X15530Y2781D2*
G1X15341Y2781D1*
G1X15530Y2772D2*
G1X15328Y2772D1*
G1X15530Y2763D2*
G1X15313Y2763D1*
G1X15530Y2754D2*
G1X15293Y2754D1*
G1X15225Y5499D2*
G1X14710Y5499D1*
G1X15413Y5164D2*
G1X15413Y2992D1*
G1X15404Y5173D2*
G1X15404Y3018D1*
G1X15395Y5182D2*
G1X15395Y3037D1*
G1X15386Y5191D2*
G1X15386Y3052D1*
G1X15377Y5200D2*
G1X15377Y3064D1*
G1X15368Y5209D2*
G1X15368Y3074D1*
G1X15359Y5218D2*
G1X15359Y3084D1*
G1X15350Y5227D2*
G1X15350Y3092D1*
G1X15341Y5236D2*
G1X15341Y3099D1*
G1X15332Y5245D2*
G1X15332Y3106D1*
G1X15323Y5254D2*
G1X15323Y3111D1*
G1X15314Y5263D2*
G1X15314Y3116D1*
G1X15305Y5272D2*
G1X15305Y3121D1*
G1X15296Y5281D2*
G1X15296Y3125D1*
G1X15287Y5290D2*
G1X15287Y3128D1*
G1X15278Y5299D2*
G1X15278Y3131D1*
G1X15269Y5308D2*
G1X15269Y3134D1*
G1X15278Y9920D2*
G1X15278Y8825D1*
G1X15269Y9920D2*
G1X15269Y8834D1*
G1X15233Y2740D2*
G1X15233Y2610D1*
G1X15215Y2740D2*
G1X15215Y2610D1*
G1X15206Y2740D2*
G1X15206Y2610D1*
G1X15197Y2741D2*
G1X15197Y2610D1*
G1X15188Y2743D2*
G1X15188Y2610D1*
G1X15179Y2744D2*
G1X15179Y2610D1*
G1X15170Y2746D2*
G1X15170Y2610D1*
G1X15161Y2749D2*
G1X15161Y2610D1*
G1X15152Y2752D2*
G1X15152Y2610D1*
G1X15530Y4770D2*
G1X14710Y4770D1*
G1X15530Y4644D2*
G1X14710Y4644D1*
G1X15029Y2880D2*
G1X14710Y2880D1*
G1X15530Y2709D2*
G1X14710Y2709D1*
G1X15530Y4599D2*
G1X14710Y4599D1*
G1X15530Y2682D2*
G1X14710Y2682D1*
G1X15530Y4500D2*
G1X14710Y4500D1*
G1X15530Y2673D2*
G1X14710Y2673D1*
G1X16220Y9558D2*
G1X7122Y9558D1*
G1X15024Y2898D2*
G1X14710Y2898D1*
G1X15530Y4590D2*
G1X14710Y4590D1*
G1X15530Y3726D2*
G1X14710Y3726D1*
G1X15530Y5526D2*
G1X15455Y5526D1*
G1X15530Y4869D2*
G1X14710Y4869D1*
G1X15530Y4860D2*
G1X14710Y4860D1*
G1X15530Y4851D2*
G1X14710Y4851D1*
G1X15530Y4842D2*
G1X14710Y4842D1*
G1X15530Y4833D2*
G1X14710Y4833D1*
G1X15530Y4824D2*
G1X14710Y4824D1*
G1X15530Y4806D2*
G1X14710Y4806D1*
G1X15225Y6057D2*
G1X14710Y6057D1*
G1X15225Y6048D2*
G1X14710Y6048D1*
G1X16220Y6012D2*
G1X15455Y6012D1*
G1X15225Y6012D2*
G1X14710Y6012D1*
G1X16220Y6003D2*
G1X15455Y6003D1*
G1X16220Y5994D2*
G1X15455Y5994D1*
G1X15225Y5994D2*
G1X14710Y5994D1*
G1X15225Y5904D2*
G1X14710Y5904D1*
G1X16220Y5616D2*
G1X15455Y5616D1*
G1X15225Y5580D2*
G1X14710Y5580D1*
G1X16220Y5949D2*
G1X15455Y5949D1*
G1X16220Y5940D2*
G1X15455Y5940D1*
G1X16220Y5922D2*
G1X15455Y5922D1*
G1X16220Y5913D2*
G1X15455Y5913D1*
G1X16220Y5904D2*
G1X15455Y5904D1*
G1X16220Y5895D2*
G1X15455Y5895D1*
G1X15225Y5616D2*
G1X14710Y5616D1*
G1X15225Y5598D2*
G1X14710Y5598D1*
G1X16220Y5589D2*
G1X15455Y5589D1*
G1X15530Y4788D2*
G1X14710Y4788D1*
G1X15465Y5112D2*
G1X14710Y5112D1*
G1X15474Y5103D2*
G1X14710Y5103D1*
G1X15483Y5094D2*
G1X14710Y5094D1*
G1X15492Y5085D2*
G1X14710Y5085D1*
G1X15501Y5076D2*
G1X14710Y5076D1*
G1X15510Y5067D2*
G1X14710Y5067D1*
G1X15519Y5058D2*
G1X14710Y5058D1*
G1X15528Y5049D2*
G1X14710Y5049D1*
G1X15530Y5040D2*
G1X14710Y5040D1*
G1X15530Y5031D2*
G1X14710Y5031D1*
G1X15530Y5022D2*
G1X14710Y5022D1*
G1X15530Y5013D2*
G1X14710Y5013D1*
G1X15530Y5004D2*
G1X14710Y5004D1*
G1X15530Y4995D2*
G1X14710Y4995D1*
G1X16070Y9920D2*
G1X16070Y5550D1*
G1X15530Y4959D2*
G1X14710Y4959D1*
G1X15530Y4950D2*
G1X14710Y4950D1*
G1X15530Y4941D2*
G1X14710Y4941D1*
G1X15530Y4932D2*
G1X14710Y4932D1*
G1X15530Y4923D2*
G1X14710Y4923D1*
G1X15530Y4905D2*
G1X14710Y4905D1*
G1X15530Y4896D2*
G1X14710Y4896D1*
G1X15530Y4986D2*
G1X14710Y4986D1*
G1X15530Y4977D2*
G1X14710Y4977D1*
G1X15530Y4968D2*
G1X14710Y4968D1*
G1X15384Y5193D2*
G1X14710Y5193D1*
G1X15393Y5184D2*
G1X14710Y5184D1*
G1X15402Y5175D2*
G1X14710Y5175D1*
G1X15411Y5166D2*
G1X14710Y5166D1*
G1X16220Y5580D2*
G1X15455Y5580D1*
G1X15225Y5535D2*
G1X14710Y5535D1*
G1X15225Y5940D2*
G1X14710Y5940D1*
G1X16220Y5562D2*
G1X15455Y5562D1*
G1X15225Y5562D2*
G1X14710Y5562D1*
G1X15899Y9920D2*
G1X15899Y5550D1*
G1X15225Y5445D2*
G1X14710Y5445D1*
G1X15225Y5481D2*
G1X14710Y5481D1*
G1X15225Y5472D2*
G1X14710Y5472D1*
G1X15305Y9920D2*
G1X15305Y8798D1*
G1X16220Y5670D2*
G1X15455Y5670D1*
G1X16220Y5661D2*
G1X15455Y5661D1*
G1X16220Y5652D2*
G1X15455Y5652D1*
G1X16220Y5643D2*
G1X15455Y5643D1*
G1X16220Y5634D2*
G1X15455Y5634D1*
G1X15260Y5317D2*
G1X15260Y3136D1*
G1X15530Y2745D2*
G1X15264Y2745D1*
G1X15225Y6075D2*
G1X14710Y6075D1*
G1X15225Y6066D2*
G1X14710Y6066D1*
G1X15225Y6039D2*
G1X14710Y6039D1*
G1X16220Y5886D2*
G1X15455Y5886D1*
G1X16220Y5877D2*
G1X15455Y5877D1*
G1X16220Y5868D2*
G1X15455Y5868D1*
G1X16220Y5859D2*
G1X15455Y5859D1*
G1X16220Y5850D2*
G1X15455Y5850D1*
G1X16220Y5841D2*
G1X15455Y5841D1*
G1X16220Y5832D2*
G1X15455Y5832D1*
G1X16220Y5823D2*
G1X15455Y5823D1*
G1X16220Y5814D2*
G1X15455Y5814D1*
G1X16220Y5805D2*
G1X15455Y5805D1*
G1X16220Y5796D2*
G1X15455Y5796D1*
G1X16220Y5787D2*
G1X15455Y5787D1*
G1X16220Y5778D2*
G1X15455Y5778D1*
G1X14837Y3345D2*
G1X14837Y2610D1*
G1X14828Y3312D2*
G1X14828Y2610D1*
G1X14819Y3291D2*
G1X14819Y2610D1*
G1X14810Y3275D2*
G1X14810Y2610D1*
G1X14801Y3261D2*
G1X14801Y2610D1*
G1X14792Y3250D2*
G1X14792Y2610D1*
G1X14783Y3240D2*
G1X14783Y2610D1*
G1X14774Y3231D2*
G1X14774Y2610D1*
G1X14765Y3224D2*
G1X14765Y2610D1*
G1X14756Y3217D2*
G1X14756Y2610D1*
G1X14747Y3211D2*
G1X14747Y2610D1*
G1X14738Y3206D2*
G1X14738Y2610D1*
G1X14710Y3608D2*
G1X14721Y3596D1*
G1X15530Y5445D2*
G1X15458Y5445D1*
G1X15375Y5202D2*
G1X14710Y5202D1*
G1X16220Y5976D2*
G1X15455Y5976D1*
G1X15225Y5976D2*
G1X14710Y5976D1*
G1X16220Y5967D2*
G1X15455Y5967D1*
G1X15225Y5967D2*
G1X14710Y5967D1*
G1X16220Y5958D2*
G1X15455Y5958D1*
G1X15225Y5958D2*
G1X14710Y5958D1*
G1X16061Y9920D2*
G1X16061Y5550D1*
G1X16052Y9920D2*
G1X16052Y5550D1*
G1X16043Y9920D2*
G1X16043Y5550D1*
G1X16034Y9920D2*
G1X16034Y5550D1*
G1X15225Y5571D2*
G1X14710Y5571D1*
G1X16220Y5724D2*
G1X15455Y5724D1*
G1X15225Y5463D2*
G1X14710Y5463D1*
G1X15530Y5454D2*
G1X15455Y5454D1*
G1X15225Y5454D2*
G1X14710Y5454D1*
G1X15225Y5436D2*
G1X14710Y5436D1*
G1X15225Y5427D2*
G1X14710Y5427D1*
G1X15225Y5418D2*
G1X14710Y5418D1*
G1X15225Y5409D2*
G1X14710Y5409D1*
G1X15431Y5146D2*
G1X15431Y2610D1*
G1X15440Y9920D2*
G1X15440Y8657D1*
G1X6494Y9352D2*
G1X6494Y9120D1*
G1X16220Y7704D2*
G1X15455Y7704D1*
G1X16220Y7578D2*
G1X15455Y7578D1*
G1X16220Y7020D2*
G1X15455Y7020D1*
G1X16220Y7011D2*
G1X15455Y7011D1*
G1X16220Y7002D2*
G1X15455Y7002D1*
G1X16220Y6993D2*
G1X15455Y6993D1*
G1X16220Y7605D2*
G1X15455Y7605D1*
G1X16220Y7587D2*
G1X15455Y7587D1*
G1X16220Y8451D2*
G1X15455Y8451D1*
G1X16220Y8442D2*
G1X15455Y8442D1*
G1X16220Y8433D2*
G1X15455Y8433D1*
G1X16220Y8424D2*
G1X15455Y8424D1*
G1X16220Y8415D2*
G1X15455Y8415D1*
G1X16220Y8406D2*
G1X15455Y8406D1*
G1X16220Y7596D2*
G1X15455Y7596D1*
G1X16220Y8064D2*
G1X15455Y8064D1*
G1X16220Y8055D2*
G1X15455Y8055D1*
G1X16220Y8010D2*
G1X15455Y8010D1*
G1X13532Y9920D2*
G1X13532Y9035D1*
G1X12434Y9920D2*
G1X12434Y9875D1*
G1X12425Y9920D2*
G1X12425Y9856D1*
G1X12416Y9920D2*
G1X12416Y9829D1*
G1X16220Y9920D2*
G1X12753Y9920D1*
G1X16220Y9918D2*
G1X12755Y9918D1*
G1X16220Y9909D2*
G1X12763Y9909D1*
G1X16220Y9900D2*
G1X12770Y9900D1*
G1X16220Y9891D2*
G1X12776Y9891D1*
G1X16220Y9882D2*
G1X12782Y9882D1*
G1X16220Y9873D2*
G1X12787Y9873D1*
G1X16220Y9864D2*
G1X12791Y9864D1*
G1X16220Y9855D2*
G1X12795Y9855D1*
G1X16220Y9846D2*
G1X12799Y9846D1*
G1X16220Y9837D2*
G1X12802Y9837D1*
G1X16220Y9828D2*
G1X12804Y9828D1*
G1X16220Y9819D2*
G1X12806Y9819D1*
G1X16220Y9810D2*
G1X12808Y9810D1*
G1X16220Y9801D2*
G1X12809Y9801D1*
G1X16220Y9792D2*
G1X12810Y9792D1*
G1X16220Y9783D2*
G1X12810Y9783D1*
G1X16220Y9774D2*
G1X12810Y9774D1*
G1X16220Y9765D2*
G1X12809Y9765D1*
G1X16220Y9756D2*
G1X12809Y9756D1*
G1X16220Y9747D2*
G1X12807Y9747D1*
G1X16220Y9738D2*
G1X12805Y9738D1*
G1X16220Y9729D2*
G1X12803Y9729D1*
G1X16220Y9720D2*
G1X12801Y9720D1*
G1X16220Y9711D2*
G1X12798Y9711D1*
G1X16220Y9702D2*
G1X12794Y9702D1*
G1X16220Y9693D2*
G1X12790Y9693D1*
G1X16220Y9684D2*
G1X12785Y9684D1*
G1X16220Y9675D2*
G1X12780Y9675D1*
G1X16220Y9666D2*
G1X12774Y9666D1*
G1X16220Y9657D2*
G1X12768Y9657D1*
G1X16220Y9648D2*
G1X12760Y9648D1*
G1X16220Y9639D2*
G1X12752Y9639D1*
G1X16220Y9630D2*
G1X12742Y9630D1*
G1X16220Y9621D2*
G1X12731Y9621D1*
G1X16220Y9612D2*
G1X12718Y9612D1*
G1X16220Y9603D2*
G1X12703Y9603D1*
G1X16220Y9594D2*
G1X12683Y9594D1*
G1X13523Y9920D2*
G1X13523Y9035D1*
G1X13442Y9920D2*
G1X13442Y9035D1*
G1X12803Y9920D2*
G1X12803Y9832D1*
G1X12794Y9920D2*
G1X12794Y9858D1*
G1X12785Y9920D2*
G1X12785Y9877D1*
G1X12776Y9920D2*
G1X12776Y9892D1*
G1X12767Y9920D2*
G1X12767Y9904D1*
G1X12452Y9920D2*
G1X12452Y9903D1*
G1X16220Y6786D2*
G1X15455Y6786D1*
G1X16220Y8397D2*
G1X15455Y8397D1*
G1X16220Y8388D2*
G1X15455Y8388D1*
G1X16220Y8046D2*
G1X15455Y8046D1*
G1X16220Y7956D2*
G1X15455Y7956D1*
G1X16220Y7938D2*
G1X15455Y7938D1*
G1X16220Y7929D2*
G1X15455Y7929D1*
G1X16220Y7920D2*
G1X15455Y7920D1*
G1X16220Y7911D2*
G1X15455Y7911D1*
G1X16220Y7902D2*
G1X15455Y7902D1*
G1X16220Y7893D2*
G1X15455Y7893D1*
G1X16220Y7884D2*
G1X15455Y7884D1*
G1X16220Y7875D2*
G1X15455Y7875D1*
G1X16220Y7866D2*
G1X15455Y7866D1*
G1X16220Y7857D2*
G1X15455Y7857D1*
G1X16220Y7848D2*
G1X15455Y7848D1*
G1X16220Y9585D2*
G1X12654Y9585D1*
G1X16220Y7974D2*
G1X15455Y7974D1*
G1X16220Y7965D2*
G1X15455Y7965D1*
G1X16220Y7821D2*
G1X15455Y7821D1*
G1X16220Y7812D2*
G1X15455Y7812D1*
G1X12566Y9585D2*
G1X7122Y9585D1*
G1X16220Y7839D2*
G1X15455Y7839D1*
G1X15023Y2907D2*
G1X14710Y2907D1*
G1X15530Y4716D2*
G1X14710Y4716D1*
G1X15530Y4707D2*
G1X14710Y4707D1*
G1X15530Y4698D2*
G1X14710Y4698D1*
G1X7358Y9920D2*
G1X7358Y8910D1*
G1X7349Y9920D2*
G1X7349Y8910D1*
G1X7340Y9920D2*
G1X7340Y8910D1*
G1X7331Y9920D2*
G1X7331Y8910D1*
G1X7322Y9920D2*
G1X7322Y8910D1*
G1X7313Y9920D2*
G1X7313Y8910D1*
G1X7304Y9920D2*
G1X7304Y8910D1*
G1X7295Y9920D2*
G1X7295Y8910D1*
G1X7853Y9920D2*
G1X7853Y8911D1*
G1X7799Y9920D2*
G1X7799Y8911D1*
G1X7790Y9920D2*
G1X7790Y8911D1*
G1X7781Y9920D2*
G1X7781Y8911D1*
G1X8123Y9920D2*
G1X8123Y8911D1*
G1X8114Y9920D2*
G1X8114Y8911D1*
G1X8186Y9920D2*
G1X8186Y8911D1*
G1X8177Y9920D2*
G1X8177Y8911D1*
G1X8168Y9920D2*
G1X8168Y8911D1*
G1X8159Y9920D2*
G1X8159Y8911D1*
G1X8150Y9920D2*
G1X8150Y8911D1*
G1X8141Y9920D2*
G1X8141Y8911D1*
G1X8132Y9920D2*
G1X8132Y8911D1*
G1X8546Y9018D2*
G1X7142Y9018D1*
G1X8537Y9000D2*
G1X7160Y9000D1*
G1X8530Y8982D2*
G1X7178Y8982D1*
G1X8525Y8964D2*
G1X7196Y8964D1*
G1X16220Y8244D2*
G1X15455Y8244D1*
G1X16220Y8253D2*
G1X15455Y8253D1*
G1X16155Y8613D2*
G1X15454Y8613D1*
G1X16155Y8595D2*
G1X15455Y8595D1*
G1X16220Y6687D2*
G1X15455Y6687D1*
G1X15225Y6003D2*
G1X14710Y6003D1*
G1X15530Y4878D2*
G1X14710Y4878D1*
G1X15225Y5913D2*
G1X14710Y5913D1*
G1X12371Y9920D2*
G1X12371Y9035D1*
G1X8501Y9920D2*
G1X8501Y8912D1*
G1X8015Y9920D2*
G1X8015Y8911D1*
G1X8652Y9108D2*
G1X7052Y9108D1*
G1X8042Y9920D2*
G1X8042Y8911D1*
G1X8033Y9920D2*
G1X8033Y8911D1*
G1X8024Y9920D2*
G1X8024Y8911D1*
G1X7988Y9920D2*
G1X7988Y8911D1*
G1X7232Y9920D2*
G1X7232Y8928D1*
G1X8685Y9117D2*
G1X7043Y9117D1*
G1X7412Y9920D2*
G1X7412Y8910D1*
G1X7844Y9920D2*
G1X7844Y8911D1*
G1X8303Y9920D2*
G1X8303Y8911D1*
G1X8294Y9920D2*
G1X8294Y8911D1*
G1X15206Y9920D2*
G1X15206Y8920D1*
G1X7439Y9920D2*
G1X7439Y8910D1*
G1X7430Y9920D2*
G1X7430Y8910D1*
G1X7421Y9920D2*
G1X7421Y8910D1*
G1X7403Y9920D2*
G1X7403Y8910D1*
G1X7718Y9920D2*
G1X7718Y8911D1*
G1X7394Y9920D2*
G1X7394Y8910D1*
G1X7385Y9920D2*
G1X7385Y8910D1*
G1X7772Y9920D2*
G1X7772Y8911D1*
G1X7763Y9920D2*
G1X7763Y8911D1*
G1X11327Y9920D2*
G1X11327Y9035D1*
G1X8915Y9920D2*
G1X8915Y9035D1*
G1X8906Y9920D2*
G1X8906Y9035D1*
G1X8897Y9920D2*
G1X8897Y9035D1*
G1X10427Y9920D2*
G1X10427Y9035D1*
G1X7736Y9920D2*
G1X7736Y8911D1*
G1X8519Y9920D2*
G1X8519Y8912D1*
G1X8510Y9920D2*
G1X8510Y8912D1*
G1X8492Y9920D2*
G1X8492Y8912D1*
G1X8483Y9920D2*
G1X8483Y8912D1*
G1X8474Y9920D2*
G1X8474Y8911D1*
G1X8465Y9920D2*
G1X8465Y8911D1*
G1X8456Y9920D2*
G1X8456Y8911D1*
G1X8447Y9920D2*
G1X8447Y8911D1*
G1X8438Y9920D2*
G1X8438Y8911D1*
G1X8429Y9920D2*
G1X8429Y8911D1*
G1X8420Y9920D2*
G1X8420Y8911D1*
G1X8411Y9920D2*
G1X8411Y8911D1*
G1X8402Y9920D2*
G1X8402Y8911D1*
G1X8393Y9920D2*
G1X8393Y8911D1*
G1X8384Y9920D2*
G1X8384Y8911D1*
G1X8375Y9920D2*
G1X8375Y8911D1*
G1X8078Y9920D2*
G1X8078Y8911D1*
G1X7862Y9920D2*
G1X7862Y8911D1*
G1X8366Y9920D2*
G1X8366Y8911D1*
G1X8096Y9920D2*
G1X8096Y8911D1*
G1X8087Y9920D2*
G1X8087Y8911D1*
G1X8348Y9920D2*
G1X8348Y8911D1*
G1X8339Y9920D2*
G1X8339Y8911D1*
G1X8330Y9920D2*
G1X8330Y8911D1*
G1X8321Y9920D2*
G1X8321Y8911D1*
G1X8312Y9920D2*
G1X8312Y8911D1*
G1X8357Y9920D2*
G1X8357Y8911D1*
G1X8105Y9920D2*
G1X8105Y8911D1*
G1X8285Y9920D2*
G1X8285Y8911D1*
G1X7907Y9920D2*
G1X7907Y8911D1*
G1X7898Y9920D2*
G1X7898Y8911D1*
G1X7871Y9920D2*
G1X7871Y8911D1*
G1X7952Y9920D2*
G1X7952Y8911D1*
G1X7943Y9920D2*
G1X7943Y8911D1*
G1X7889Y9920D2*
G1X7889Y8911D1*
G1X10094Y9920D2*
G1X10094Y9035D1*
G1X7214Y9920D2*
G1X7214Y8946D1*
G1X9122Y9920D2*
G1X9122Y9035D1*
G1X15530Y4554D2*
G1X14710Y4554D1*
G1X6485Y9352D2*
G1X6485Y9120D1*
G1X15021Y2925D2*
G1X14710Y2925D1*
G1X15021Y2916D2*
G1X14710Y2916D1*
G1X16220Y8235D2*
G1X15455Y8235D1*
G1X16220Y8226D2*
G1X15455Y8226D1*
G1X16220Y8208D2*
G1X15455Y8208D1*
G1X16220Y8199D2*
G1X15455Y8199D1*
G1X16220Y8190D2*
G1X15455Y8190D1*
G1X16220Y8181D2*
G1X15455Y8181D1*
G1X16220Y8172D2*
G1X15455Y8172D1*
G1X16220Y8163D2*
G1X15455Y8163D1*
G1X16220Y8154D2*
G1X15455Y8154D1*
G1X16220Y8145D2*
G1X15455Y8145D1*
G1X16220Y8136D2*
G1X15455Y8136D1*
G1X16220Y8127D2*
G1X15455Y8127D1*
G1X16220Y8118D2*
G1X15455Y8118D1*
G1X16220Y8109D2*
G1X15455Y8109D1*
G1X16220Y8100D2*
G1X15455Y8100D1*
G1X16220Y8091D2*
G1X15455Y8091D1*
G1X16220Y8082D2*
G1X15455Y8082D1*
G1X16220Y8217D2*
G1X15455Y8217D1*
G1X16220Y7065D2*
G1X15455Y7065D1*
G1X16220Y8037D2*
G1X15455Y8037D1*
G1X16220Y8271D2*
G1X15455Y8271D1*
G1X16220Y8019D2*
G1X15455Y8019D1*
G1X16220Y7101D2*
G1X15455Y7101D1*
G1X16220Y8379D2*
G1X15455Y8379D1*
G1X16220Y8370D2*
G1X15455Y8370D1*
G1X16220Y8361D2*
G1X15455Y8361D1*
G1X16220Y8352D2*
G1X15455Y8352D1*
G1X16220Y8343D2*
G1X15455Y8343D1*
G1X16220Y8334D2*
G1X15455Y8334D1*
G1X16220Y8325D2*
G1X15455Y8325D1*
G1X16220Y8316D2*
G1X15455Y8316D1*
G1X16220Y8307D2*
G1X15455Y8307D1*
G1X16220Y8028D2*
G1X15455Y8028D1*
G1X16220Y8289D2*
G1X15455Y8289D1*
G1X16220Y8001D2*
G1X15455Y8001D1*
G1X16220Y7992D2*
G1X15455Y7992D1*
G1X16220Y7983D2*
G1X15455Y7983D1*
G1X16155Y8604D2*
G1X15455Y8604D1*
G1X15026Y2988D2*
G1X14710Y2988D1*
G1X15024Y2979D2*
G1X14710Y2979D1*
G1X16220Y7056D2*
G1X15455Y7056D1*
G1X15197Y9920D2*
G1X15197Y8920D1*
G1X16220Y8262D2*
G1X15455Y8262D1*
G1X16220Y8280D2*
G1X15455Y8280D1*
G1X15188Y9920D2*
G1X15188Y8920D1*
G1X16220Y6696D2*
G1X15455Y6696D1*
G1X15224Y9920D2*
G1X15224Y8920D1*
G1X15215Y9920D2*
G1X15215Y8920D1*
G1X7934Y9920D2*
G1X7934Y8911D1*
G1X7925Y9920D2*
G1X7925Y8911D1*
G1X7916Y9920D2*
G1X7916Y8911D1*
G1X8069Y9920D2*
G1X8069Y8911D1*
G1X8276Y9920D2*
G1X8276Y8911D1*
G1X8267Y9920D2*
G1X8267Y8911D1*
G1X8258Y9920D2*
G1X8258Y8911D1*
G1X8249Y9920D2*
G1X8249Y8911D1*
G1X8240Y9920D2*
G1X8240Y8911D1*
G1X8231Y9920D2*
G1X8231Y8911D1*
G1X8222Y9920D2*
G1X8222Y8911D1*
G1X8213Y9920D2*
G1X8213Y8911D1*
G1X8204Y9920D2*
G1X8204Y8911D1*
G1X8195Y9920D2*
G1X8195Y8911D1*
G1X8060Y9920D2*
G1X8060Y8911D1*
G1X7268Y9920D2*
G1X7268Y8910D1*
G1X7259Y9920D2*
G1X7259Y8910D1*
G1X7250Y9920D2*
G1X7250Y8910D1*
G1X7241Y9920D2*
G1X7241Y8919D1*
G1X7223Y9920D2*
G1X7223Y8937D1*
G1X16220Y7740D2*
G1X15455Y7740D1*
G1X16220Y9468D2*
G1X7122Y9468D1*
G1X16220Y7749D2*
G1X15455Y7749D1*
G1X8051Y9920D2*
G1X8051Y8911D1*
G1X15530Y4086D2*
G1X14710Y4086D1*
G1X15530Y4311D2*
G1X14710Y4311D1*
G1X15530Y4302D2*
G1X14710Y4302D1*
G1X15530Y4293D2*
G1X14710Y4293D1*
G1X15530Y4284D2*
G1X14710Y4284D1*
G1X15530Y4275D2*
G1X14710Y4275D1*
G1X15530Y4077D2*
G1X14710Y4077D1*
G1X15530Y4248D2*
G1X14710Y4248D1*
G1X15530Y4239D2*
G1X14710Y4239D1*
G1X15530Y4230D2*
G1X14710Y4230D1*
G1X15530Y4221D2*
G1X14710Y4221D1*
G1X15530Y4212D2*
G1X14710Y4212D1*
G1X15530Y4203D2*
G1X14710Y4203D1*
G1X15530Y4140D2*
G1X14710Y4140D1*
G1X15530Y3969D2*
G1X14710Y3969D1*
G1X15530Y4059D2*
G1X14710Y4059D1*
G1X15530Y4050D2*
G1X14710Y4050D1*
G1X15530Y4041D2*
G1X14710Y4041D1*
G1X15530Y4032D2*
G1X14710Y4032D1*
G1X15530Y4068D2*
G1X14710Y4068D1*
G1X15530Y4005D2*
G1X14710Y4005D1*
G1X15530Y3996D2*
G1X14710Y3996D1*
G1X15530Y3987D2*
G1X14710Y3987D1*
G1X15530Y3978D2*
G1X14710Y3978D1*
G1X15530Y3960D2*
G1X14710Y3960D1*
G1X15530Y3951D2*
G1X14710Y3951D1*
G1X15530Y3942D2*
G1X14710Y3942D1*
G1X15530Y3933D2*
G1X14710Y3933D1*
G1X15530Y3924D2*
G1X14710Y3924D1*
G1X15530Y3915D2*
G1X14710Y3915D1*
G1X15530Y3906D2*
G1X14710Y3906D1*
G1X15530Y3897D2*
G1X14710Y3897D1*
G1X15530Y3888D2*
G1X14710Y3888D1*
G1X15530Y3879D2*
G1X14710Y3879D1*
G1X15530Y3870D2*
G1X14710Y3870D1*
G1X15530Y3861D2*
G1X14710Y3861D1*
G1X15530Y3852D2*
G1X14710Y3852D1*
G1X15530Y3843D2*
G1X14710Y3843D1*
G1X15530Y3834D2*
G1X14710Y3834D1*
G1X15530Y3825D2*
G1X14710Y3825D1*
G1X15530Y3816D2*
G1X14710Y3816D1*
G1X15530Y3807D2*
G1X14710Y3807D1*
G1X15530Y3798D2*
G1X14710Y3798D1*
G1X15530Y3789D2*
G1X14710Y3789D1*
G1X15530Y3780D2*
G1X14710Y3780D1*
G1X15530Y3771D2*
G1X14710Y3771D1*
G1X15530Y4023D2*
G1X14710Y4023D1*
G1X15530Y4266D2*
G1X14710Y4266D1*
G1X15530Y2700D2*
G1X14710Y2700D1*
G1X15530Y4167D2*
G1X14710Y4167D1*
G1X15530Y4455D2*
G1X14710Y4455D1*
G1X14891Y6210D2*
G1X14891Y2610D1*
G1X15530Y4014D2*
G1X14710Y4014D1*
G1X15530Y4779D2*
G1X14710Y4779D1*
G1X15530Y4581D2*
G1X14710Y4581D1*
G1X16220Y5985D2*
G1X15455Y5985D1*
G1X16220Y5931D2*
G1X15455Y5931D1*
G1X15225Y5931D2*
G1X14710Y5931D1*
G1X14828Y6210D2*
G1X14828Y3448D1*
G1X14774Y6210D2*
G1X14774Y3528D1*
G1X15530Y3753D2*
G1X14710Y3753D1*
G1X15530Y3744D2*
G1X14710Y3744D1*
G1X15530Y3717D2*
G1X14710Y3717D1*
G1X15530Y3708D2*
G1X14710Y3708D1*
G1X15530Y3699D2*
G1X14710Y3699D1*
G1X15530Y3690D2*
G1X14710Y3690D1*
G1X15530Y3681D2*
G1X14710Y3681D1*
G1X15530Y3672D2*
G1X14710Y3672D1*
G1X15530Y3636D2*
G1X14710Y3636D1*
G1X15530Y3627D2*
G1X14710Y3627D1*
G1X15530Y3618D2*
G1X14710Y3618D1*
G1X15530Y3609D2*
G1X14710Y3609D1*
G1X15530Y3600D2*
G1X14717Y3600D1*
G1X15530Y3591D2*
G1X14726Y3591D1*
G1X15530Y3582D2*
G1X14733Y3582D1*
G1X14945Y6210D2*
G1X14945Y2610D1*
G1X15530Y3546D2*
G1X14752Y3546D1*
G1X15530Y3537D2*
G1X14764Y3537D1*
G1X15530Y3528D2*
G1X14774Y3528D1*
G1X15530Y3519D2*
G1X14784Y3519D1*
G1X15530Y3510D2*
G1X14792Y3510D1*
G1X15530Y3501D2*
G1X14799Y3501D1*
G1X15530Y3492D2*
G1X14806Y3492D1*
G1X15530Y3483D2*
G1X14811Y3483D1*
G1X15530Y3474D2*
G1X14816Y3474D1*
G1X15530Y3465D2*
G1X14821Y3465D1*
G1X15530Y3456D2*
G1X14825Y3456D1*
G1X15530Y3447D2*
G1X14828Y3447D1*
G1X15530Y3438D2*
G1X14831Y3438D1*
G1X15530Y3429D2*
G1X14834Y3429D1*
G1X15530Y3420D2*
G1X14836Y3420D1*
G1X15530Y3411D2*
G1X14838Y3411D1*
G1X15530Y3402D2*
G1X14839Y3402D1*
G1X15530Y3393D2*
G1X14840Y3393D1*
G1X15530Y3384D2*
G1X14840Y3384D1*
G1X15530Y3375D2*
G1X14840Y3375D1*
G1X15530Y3366D2*
G1X14839Y3366D1*
G1X15530Y3357D2*
G1X14839Y3357D1*
G1X15530Y3348D2*
G1X14837Y3348D1*
G1X15530Y3339D2*
G1X14836Y3339D1*
G1X15530Y3330D2*
G1X14834Y3330D1*
G1X15530Y3321D2*
G1X14831Y3321D1*
G1X15530Y3312D2*
G1X14828Y3312D1*
G1X15530Y3303D2*
G1X14825Y3303D1*
G1X15530Y3294D2*
G1X14821Y3294D1*
G1X15530Y3285D2*
G1X14816Y3285D1*
G1X15530Y3276D2*
G1X14811Y3276D1*
G1X15530Y3267D2*
G1X14805Y3267D1*
G1X15530Y3258D2*
G1X14798Y3258D1*
G1X15530Y3249D2*
G1X14791Y3249D1*
G1X15530Y3564D2*
G1X14744Y3564D1*
G1X14729Y6210D2*
G1X14729Y3588D1*
G1X14837Y6210D2*
G1X14837Y3414D1*
G1X14819Y6210D2*
G1X14819Y3469D1*
G1X14810Y6210D2*
G1X14810Y3485D1*
G1X14792Y6210D2*
G1X14792Y3510D1*
G1X14783Y6210D2*
G1X14783Y3520D1*
G1X15530Y3555D2*
G1X14748Y3555D1*
G1X15530Y3654D2*
G1X14710Y3654D1*
G1X14909Y6210D2*
G1X14909Y2610D1*
G1X14747Y6210D2*
G1X14747Y3557D1*
G1X14738Y6210D2*
G1X14738Y3575D1*
G1X14765Y6210D2*
G1X14765Y3536D1*
G1X14756Y6210D2*
G1X14756Y3543D1*
G1X14720Y3197D2*
G1X14720Y2610D1*
G1X14918Y6210D2*
G1X14918Y2610D1*
G1X15530Y3663D2*
G1X14710Y3663D1*
G1X16220Y7794D2*
G1X15455Y7794D1*
G1X16220Y7785D2*
G1X15455Y7785D1*
G1X16220Y7776D2*
G1X15455Y7776D1*
G1X16220Y7767D2*
G1X15455Y7767D1*
G1X16220Y7758D2*
G1X15455Y7758D1*
G1X16220Y7731D2*
G1X15455Y7731D1*
G1X16220Y7695D2*
G1X15455Y7695D1*
G1X16220Y7686D2*
G1X15455Y7686D1*
G1X16220Y7677D2*
G1X15455Y7677D1*
G1X16220Y7668D2*
G1X15455Y7668D1*
G1X16220Y7659D2*
G1X15455Y7659D1*
G1X16220Y7650D2*
G1X15455Y7650D1*
G1X16220Y7641D2*
G1X15455Y7641D1*
G1X16220Y7632D2*
G1X15455Y7632D1*
G1X16220Y6795D2*
G1X15455Y6795D1*
G1X16220Y7722D2*
G1X15455Y7722D1*
G1X16220Y6714D2*
G1X15455Y6714D1*
G1X16220Y6705D2*
G1X15455Y6705D1*
G1X16220Y6723D2*
G1X15455Y6723D1*
G1X16220Y6759D2*
G1X15455Y6759D1*
G1X16220Y6777D2*
G1X15455Y6777D1*
G1X16220Y6768D2*
G1X15455Y6768D1*
G1X16220Y6750D2*
G1X15455Y6750D1*
G1X16220Y6741D2*
G1X15455Y6741D1*
G1X16220Y6732D2*
G1X15455Y6732D1*
G1X16220Y6984D2*
G1X15455Y6984D1*
G1X16220Y6975D2*
G1X15455Y6975D1*
G1X16220Y6966D2*
G1X15455Y6966D1*
G1X16220Y6957D2*
G1X15455Y6957D1*
G1X16220Y6948D2*
G1X15455Y6948D1*
G1X16220Y6939D2*
G1X15455Y6939D1*
G1X16220Y6930D2*
G1X15455Y6930D1*
G1X16220Y6921D2*
G1X15455Y6921D1*
G1X16220Y6912D2*
G1X15455Y6912D1*
G1X16220Y6903D2*
G1X15455Y6903D1*
G1X16220Y6894D2*
G1X15455Y6894D1*
G1X16220Y6885D2*
G1X15455Y6885D1*
G1X16220Y6876D2*
G1X15455Y6876D1*
G1X16220Y6867D2*
G1X15455Y6867D1*
G1X16220Y6858D2*
G1X15455Y6858D1*
G1X16220Y6849D2*
G1X15455Y6849D1*
G1X16220Y6840D2*
G1X15455Y6840D1*
G1X16220Y6831D2*
G1X15455Y6831D1*
G1X16220Y6822D2*
G1X15455Y6822D1*
G1X16220Y6813D2*
G1X15455Y6813D1*
G1X16220Y6804D2*
G1X15455Y6804D1*
G1X16220Y7713D2*
G1X15455Y7713D1*
G1X16220Y7038D2*
G1X15455Y7038D1*
G1X16220Y7623D2*
G1X15455Y7623D1*
G1X16220Y7614D2*
G1X15455Y7614D1*
G1X16220Y7569D2*
G1X15455Y7569D1*
G1X16220Y7560D2*
G1X15455Y7560D1*
G1X16220Y7551D2*
G1X15455Y7551D1*
G1X16220Y7542D2*
G1X15455Y7542D1*
G1X16220Y7533D2*
G1X15455Y7533D1*
G1X16220Y7524D2*
G1X15455Y7524D1*
G1X16220Y7515D2*
G1X15455Y7515D1*
G1X16220Y7506D2*
G1X15455Y7506D1*
G1X16220Y7497D2*
G1X15455Y7497D1*
G1X16220Y7488D2*
G1X15455Y7488D1*
G1X16220Y7479D2*
G1X15455Y7479D1*
G1X16220Y7470D2*
G1X15455Y7470D1*
G1X16220Y7461D2*
G1X15455Y7461D1*
G1X16220Y7452D2*
G1X15455Y7452D1*
G1X16220Y7443D2*
G1X15455Y7443D1*
G1X16220Y7434D2*
G1X15455Y7434D1*
G1X16220Y7425D2*
G1X15455Y7425D1*
G1X16220Y7416D2*
G1X15455Y7416D1*
G1X16220Y7407D2*
G1X15455Y7407D1*
G1X16220Y7398D2*
G1X15455Y7398D1*
G1X16220Y7389D2*
G1X15455Y7389D1*
G1X16220Y7380D2*
G1X15455Y7380D1*
G1X16220Y7371D2*
G1X15455Y7371D1*
G1X16220Y7362D2*
G1X15455Y7362D1*
G1X16220Y7353D2*
G1X15455Y7353D1*
G1X16220Y7344D2*
G1X15455Y7344D1*
G1X16220Y7335D2*
G1X15455Y7335D1*
G1X16220Y7326D2*
G1X15455Y7326D1*
G1X16220Y7317D2*
G1X15455Y7317D1*
G1X16220Y7308D2*
G1X15455Y7308D1*
G1X16220Y7299D2*
G1X15455Y7299D1*
G1X16220Y7290D2*
G1X15455Y7290D1*
G1X16220Y7281D2*
G1X15455Y7281D1*
G1X16220Y7272D2*
G1X15455Y7272D1*
G1X16220Y7263D2*
G1X15455Y7263D1*
G1X16220Y7254D2*
G1X15455Y7254D1*
G1X16220Y7245D2*
G1X15455Y7245D1*
G1X16220Y7236D2*
G1X15455Y7236D1*
G1X16220Y7227D2*
G1X15455Y7227D1*
G1X16220Y7218D2*
G1X15455Y7218D1*
G1X16220Y7209D2*
G1X15455Y7209D1*
G1X16220Y7200D2*
G1X15455Y7200D1*
G1X16220Y7191D2*
G1X15455Y7191D1*
G1X16220Y7182D2*
G1X15455Y7182D1*
G1X16220Y7173D2*
G1X15455Y7173D1*
G1X16220Y7164D2*
G1X15455Y7164D1*
G1X16220Y7155D2*
G1X15455Y7155D1*
G1X16220Y7146D2*
G1X15455Y7146D1*
G1X16220Y7137D2*
G1X15455Y7137D1*
G1X16220Y7128D2*
G1X15455Y7128D1*
G1X16220Y7119D2*
G1X15455Y7119D1*
G1X16220Y7110D2*
G1X15455Y7110D1*
G1X16220Y8298D2*
G1X15455Y8298D1*
G1X16220Y7092D2*
G1X15455Y7092D1*
G1X16220Y7083D2*
G1X15455Y7083D1*
G1X16220Y7074D2*
G1X15455Y7074D1*
G1X16220Y7047D2*
G1X15455Y7047D1*
G1X16220Y7029D2*
G1X15455Y7029D1*
G1X15225Y5490D2*
G1X14710Y5490D1*
G1X15225Y6084D2*
G1X14710Y6084D1*
G1X15225Y6201D2*
G1X14710Y6201D1*
G1X15225Y6192D2*
G1X14710Y6192D1*
G1X15225Y6183D2*
G1X14710Y6183D1*
G1X15225Y6174D2*
G1X14710Y6174D1*
G1X15225Y6165D2*
G1X14710Y6165D1*
G1X15225Y6156D2*
G1X14710Y6156D1*
G1X15225Y6147D2*
G1X14710Y6147D1*
G1X15225Y6138D2*
G1X14710Y6138D1*
G1X15225Y6129D2*
G1X14710Y6129D1*
G1X15225Y6120D2*
G1X14710Y6120D1*
G1X15225Y6111D2*
G1X14710Y6111D1*
G1X15225Y6093D2*
G1X14710Y6093D1*
G1X15455Y5448D2*
G1X15530Y5373D1*
G1X16220Y5598D2*
G1X15455Y5598D1*
G1X15225Y5553D2*
G1X14710Y5553D1*
G1X13469Y9920D2*
G1X13469Y9035D1*
G1X15225Y5769D2*
G1X14710Y5769D1*
G1X16220Y5607D2*
G1X15455Y5607D1*
G1X15225Y5922D2*
G1X14710Y5922D1*
G1X16155Y9009D2*
G1X15093Y9009D1*
G1X15530Y5490D2*
G1X15455Y5490D1*
G1X13433Y9920D2*
G1X13433Y9035D1*
G1X16155Y8721D2*
G1X15382Y8721D1*
G1X15404Y9920D2*
G1X15404Y8699D1*
G1X15225Y6102D2*
G1X14710Y6102D1*
G1X15386Y9920D2*
G1X15386Y8717D1*
G1X13415Y9920D2*
G1X13415Y9035D1*
G1X16155Y8730D2*
G1X15373Y8730D1*
G1X15359Y9920D2*
G1X15359Y8744D1*
G1X13406Y9920D2*
G1X13406Y9035D1*
G1X15341Y9920D2*
G1X15341Y8762D1*
G1X15530Y5391D2*
G1X15512Y5391D1*
G1X12812Y9920D2*
G1X12812Y9035D1*
G1X15314Y9920D2*
G1X15314Y8789D1*
G1X15296Y9920D2*
G1X15296Y8807D1*
G1X15287Y9920D2*
G1X15287Y8816D1*
G1X15404Y2862D2*
G1X15404Y2610D1*
G1X15530Y5550D2*
G1X15530Y5373D1*
G1X15521Y9920D2*
G1X15521Y5382D1*
G1X15512Y9920D2*
G1X15512Y5391D1*
G1X15503Y9920D2*
G1X15503Y5400D1*
G1X15494Y9920D2*
G1X15494Y5409D1*
G1X15485Y9920D2*
G1X15485Y5418D1*
G1X15476Y9920D2*
G1X15476Y5427D1*
G1X15467Y9920D2*
G1X15467Y5436D1*
G1X15242Y9920D2*
G1X15242Y8861D1*
G1X15240Y8920D2*
G1X15240Y8863D1*
G1X15449Y9920D2*
G1X15449Y8637D1*
G1X15422Y5155D2*
G1X15422Y2610D1*
G1X15231Y5364D2*
G1X14710Y5364D1*
G1X15234Y5355D2*
G1X14710Y5355D1*
G1X15238Y5346D2*
G1X14710Y5346D1*
G1X15225Y5625D2*
G1X14710Y5625D1*
G1X15359Y2796D2*
G1X15359Y2610D1*
G1X15350Y2788D2*
G1X15350Y2610D1*
G1X15341Y2781D2*
G1X15341Y2610D1*
G1X15332Y2774D2*
G1X15332Y2610D1*
G1X15323Y2769D2*
G1X15323Y2610D1*
G1X15314Y2763D2*
G1X15314Y2610D1*
G1X15296Y2755D2*
G1X15296Y2610D1*
G1X15278Y2749D2*
G1X15278Y2610D1*
G1X15260Y2744D2*
G1X15260Y2610D1*
G1X15242Y2741D2*
G1X15242Y2610D1*
G1X15224Y2740D2*
G1X15224Y2610D1*
G1X15935Y9920D2*
G1X15935Y5550D1*
G1X15881Y9920D2*
G1X15881Y5550D1*
G1X15530Y5047D2*
G1X15530Y2610D1*
G1X15530Y9920D2*
G1X15530Y5550D1*
G1X15305Y2759D2*
G1X15305Y2610D1*
G1X15287Y2752D2*
G1X15287Y2610D1*
G1X15269Y2746D2*
G1X15269Y2610D1*
G1X15251Y2742D2*
G1X15251Y2610D1*
G1X15917Y9920D2*
G1X15917Y5550D1*
G1X15890Y9920D2*
G1X15890Y5550D1*
G1X15078Y2799D2*
G1X14710Y2799D1*
G1X15566Y9920D2*
G1X15566Y5550D1*
G1X15045Y2844D2*
G1X14710Y2844D1*
G1X15056Y2826D2*
G1X14710Y2826D1*
G1X15062Y2817D2*
G1X14710Y2817D1*
G1X15035Y3015D2*
G1X14710Y3015D1*
G1X15031Y3006D2*
G1X14710Y3006D1*
G1X15028Y2997D2*
G1X14710Y2997D1*
G1X15067Y3069D2*
G1X14710Y3069D1*
G1X15060Y3060D2*
G1X14710Y3060D1*
G1X15054Y3051D2*
G1X14710Y3051D1*
G1X15048Y3042D2*
G1X14710Y3042D1*
G1X15038Y3024D2*
G1X14710Y3024D1*
G1X15088Y2790D2*
G1X14710Y2790D1*
G1X15021Y2961D2*
G1X14710Y2961D1*
G1X15020Y2952D2*
G1X14710Y2952D1*
G1X15020Y2943D2*
G1X14710Y2943D1*
G1X15020Y2934D2*
G1X14710Y2934D1*
G1X15530Y3141D2*
G1X14710Y3141D1*
G1X15530Y4473D2*
G1X14710Y4473D1*
G1X15530Y4545D2*
G1X14710Y4545D1*
G1X15530Y4536D2*
G1X14710Y4536D1*
G1X15530Y4464D2*
G1X14710Y4464D1*
G1X15530Y2691D2*
G1X14710Y2691D1*
G1X15075Y3078D2*
G1X14710Y3078D1*
G1X15530Y4374D2*
G1X14710Y4374D1*
G1X15530Y4356D2*
G1X14710Y4356D1*
G1X15530Y4347D2*
G1X14710Y4347D1*
G1X15530Y4338D2*
G1X14710Y4338D1*
G1X15530Y4329D2*
G1X14710Y4329D1*
G1X15530Y4320D2*
G1X14710Y4320D1*
G1X15530Y4257D2*
G1X14710Y4257D1*
G1X15530Y4131D2*
G1X14710Y4131D1*
G1X15530Y4122D2*
G1X14710Y4122D1*
G1X15530Y4113D2*
G1X14710Y4113D1*
G1X15530Y4104D2*
G1X14710Y4104D1*
G1X15530Y4095D2*
G1X14710Y4095D1*
G1X9167Y9920D2*
G1X9167Y9035D1*
G1X9158Y9920D2*
G1X9158Y9035D1*
G1X9149Y9920D2*
G1X9149Y9035D1*
G1X9140Y9920D2*
G1X9140Y9035D1*
G1X9131Y9920D2*
G1X9131Y9035D1*
G1X8924Y9920D2*
G1X8924Y9035D1*
G1X11291Y9920D2*
G1X11291Y9035D1*
G1X11282Y9920D2*
G1X11282Y9035D1*
G1X11273Y9920D2*
G1X11273Y9035D1*
G1X11264Y9920D2*
G1X11264Y9035D1*
G1X11255Y9920D2*
G1X11255Y9035D1*
G1X11246Y9920D2*
G1X11246Y9035D1*
G1X11237Y9920D2*
G1X11237Y9035D1*
G1X11228Y9920D2*
G1X11228Y9035D1*
G1X11219Y9920D2*
G1X11219Y9035D1*
G1X11210Y9920D2*
G1X11210Y9035D1*
G1X10895Y9920D2*
G1X10895Y9035D1*
G1X10886Y9920D2*
G1X10886Y9035D1*
G1X10877Y9920D2*
G1X10877Y9035D1*
G1X10868Y9920D2*
G1X10868Y9035D1*
G1X10859Y9920D2*
G1X10859Y9035D1*
G1X10850Y9920D2*
G1X10850Y9035D1*
G1X10841Y9920D2*
G1X10841Y9035D1*
G1X10832Y9920D2*
G1X10832Y9035D1*
G1X10823Y9920D2*
G1X10823Y9035D1*
G1X10814Y9920D2*
G1X10814Y9035D1*
G1X10805Y9920D2*
G1X10805Y9035D1*
G1X10796Y9920D2*
G1X10796Y9035D1*
G1X10787Y9920D2*
G1X10787Y9035D1*
G1X10778Y9920D2*
G1X10778Y9035D1*
G1X10769Y9920D2*
G1X10769Y9035D1*
G1X10760Y9920D2*
G1X10760Y9035D1*
G1X10751Y9920D2*
G1X10751Y9035D1*
G1X10742Y9920D2*
G1X10742Y9035D1*
G1X10733Y9920D2*
G1X10733Y9035D1*
G1X10724Y9920D2*
G1X10724Y9035D1*
G1X10715Y9920D2*
G1X10715Y9035D1*
G1X10706Y9920D2*
G1X10706Y9035D1*
G1X10697Y9920D2*
G1X10697Y9035D1*
G1X10688Y9920D2*
G1X10688Y9035D1*
G1X10679Y9920D2*
G1X10679Y9035D1*
G1X10670Y9920D2*
G1X10670Y9035D1*
G1X10661Y9920D2*
G1X10661Y9035D1*
G1X10652Y9920D2*
G1X10652Y9035D1*
G1X10643Y9920D2*
G1X10643Y9035D1*
G1X10634Y9920D2*
G1X10634Y9035D1*
G1X10625Y9920D2*
G1X10625Y9035D1*
G1X10616Y9920D2*
G1X10616Y9035D1*
G1X10607Y9920D2*
G1X10607Y9035D1*
G1X10598Y9920D2*
G1X10598Y9035D1*
G1X10589Y9920D2*
G1X10589Y9035D1*
G1X10580Y9920D2*
G1X10580Y9035D1*
G1X10571Y9920D2*
G1X10571Y9035D1*
G1X10562Y9920D2*
G1X10562Y9035D1*
G1X10553Y9920D2*
G1X10553Y9035D1*
G1X10544Y9920D2*
G1X10544Y9035D1*
G1X10535Y9920D2*
G1X10535Y9035D1*
G1X10526Y9920D2*
G1X10526Y9035D1*
G1X10517Y9920D2*
G1X10517Y9035D1*
G1X10508Y9920D2*
G1X10508Y9035D1*
G1X10499Y9920D2*
G1X10499Y9035D1*
G1X10490Y9920D2*
G1X10490Y9035D1*
G1X10481Y9920D2*
G1X10481Y9035D1*
G1X10472Y9920D2*
G1X10472Y9035D1*
G1X11192Y9920D2*
G1X11192Y9035D1*
G1X11183Y9920D2*
G1X11183Y9035D1*
G1X11174Y9920D2*
G1X11174Y9035D1*
G1X11165Y9920D2*
G1X11165Y9035D1*
G1X11156Y9920D2*
G1X11156Y9035D1*
G1X11147Y9920D2*
G1X11147Y9035D1*
G1X11138Y9920D2*
G1X11138Y9035D1*
G1X11129Y9920D2*
G1X11129Y9035D1*
G1X11318Y9920D2*
G1X11318Y9035D1*
G1X11309Y9920D2*
G1X11309Y9035D1*
G1X11300Y9920D2*
G1X11300Y9035D1*
G1X11120Y9920D2*
G1X11120Y9035D1*
G1X11111Y9920D2*
G1X11111Y9035D1*
G1X11102Y9920D2*
G1X11102Y9035D1*
G1X11093Y9920D2*
G1X11093Y9035D1*
G1X11084Y9920D2*
G1X11084Y9035D1*
G1X11075Y9920D2*
G1X11075Y9035D1*
G1X11066Y9920D2*
G1X11066Y9035D1*
G1X11057Y9920D2*
G1X11057Y9035D1*
G1X11048Y9920D2*
G1X11048Y9035D1*
G1X11039Y9920D2*
G1X11039Y9035D1*
G1X11030Y9920D2*
G1X11030Y9035D1*
G1X11021Y9920D2*
G1X11021Y9035D1*
G1X11012Y9920D2*
G1X11012Y9035D1*
G1X11003Y9920D2*
G1X11003Y9035D1*
G1X10994Y9920D2*
G1X10994Y9035D1*
G1X10985Y9920D2*
G1X10985Y9035D1*
G1X10976Y9920D2*
G1X10976Y9035D1*
G1X10967Y9920D2*
G1X10967Y9035D1*
G1X10958Y9920D2*
G1X10958Y9035D1*
G1X10940Y9920D2*
G1X10940Y9035D1*
G1X10931Y9920D2*
G1X10931Y9035D1*
G1X10922Y9920D2*
G1X10922Y9035D1*
G1X10913Y9920D2*
G1X10913Y9035D1*
G1X10904Y9920D2*
G1X10904Y9035D1*
G1X7286Y9920D2*
G1X7286Y8910D1*
G1X7277Y9920D2*
G1X7277Y8910D1*
G1X7754Y9920D2*
G1X7754Y8911D1*
G1X7745Y9920D2*
G1X7745Y8911D1*
G1X10418Y9920D2*
G1X10418Y9035D1*
G1X10409Y9920D2*
G1X10409Y9035D1*
G1X10400Y9920D2*
G1X10400Y9035D1*
G1X10391Y9920D2*
G1X10391Y9035D1*
G1X10382Y9920D2*
G1X10382Y9035D1*
G1X10373Y9920D2*
G1X10373Y9035D1*
G1X10364Y9920D2*
G1X10364Y9035D1*
G1X10355Y9920D2*
G1X10355Y9035D1*
G1X10346Y9920D2*
G1X10346Y9035D1*
G1X10337Y9920D2*
G1X10337Y9035D1*
G1X10328Y9920D2*
G1X10328Y9035D1*
G1X10319Y9920D2*
G1X10319Y9035D1*
G1X10310Y9920D2*
G1X10310Y9035D1*
G1X9950Y9920D2*
G1X9950Y9035D1*
G1X9941Y9920D2*
G1X9941Y9035D1*
G1X9932Y9920D2*
G1X9932Y9035D1*
G1X9923Y9920D2*
G1X9923Y9035D1*
G1X9914Y9920D2*
G1X9914Y9035D1*
G1X9905Y9920D2*
G1X9905Y9035D1*
G1X9896Y9920D2*
G1X9896Y9035D1*
G1X9887Y9920D2*
G1X9887Y9035D1*
G1X9878Y9920D2*
G1X9878Y9035D1*
G1X9869Y9920D2*
G1X9869Y9035D1*
G1X9860Y9920D2*
G1X9860Y9035D1*
G1X9851Y9920D2*
G1X9851Y9035D1*
G1X10301Y9920D2*
G1X10301Y9035D1*
G1X10292Y9920D2*
G1X10292Y9035D1*
G1X10283Y9920D2*
G1X10283Y9035D1*
G1X10274Y9920D2*
G1X10274Y9035D1*
G1X9671Y9920D2*
G1X9671Y9035D1*
G1X9662Y9920D2*
G1X9662Y9035D1*
G1X9653Y9920D2*
G1X9653Y9035D1*
G1X9644Y9920D2*
G1X9644Y9035D1*
G1X9635Y9920D2*
G1X9635Y9035D1*
G1X9626Y9920D2*
G1X9626Y9035D1*
G1X9617Y9920D2*
G1X9617Y9035D1*
G1X9608Y9920D2*
G1X9608Y9035D1*
G1X9599Y9920D2*
G1X9599Y9035D1*
G1X9590Y9920D2*
G1X9590Y9035D1*
G1X9581Y9920D2*
G1X9581Y9035D1*
G1X9572Y9920D2*
G1X9572Y9035D1*
G1X9563Y9920D2*
G1X9563Y9035D1*
G1X10265Y9920D2*
G1X10265Y9035D1*
G1X10256Y9920D2*
G1X10256Y9035D1*
G1X10247Y9920D2*
G1X10247Y9035D1*
G1X9842Y9920D2*
G1X9842Y9035D1*
G1X9833Y9920D2*
G1X9833Y9035D1*
G1X9815Y9920D2*
G1X9815Y9035D1*
G1X9806Y9920D2*
G1X9806Y9035D1*
G1X9797Y9920D2*
G1X9797Y9035D1*
G1X9788Y9920D2*
G1X9788Y9035D1*
G1X9779Y9920D2*
G1X9779Y9035D1*
G1X9770Y9920D2*
G1X9770Y9035D1*
G1X9554Y9920D2*
G1X9554Y9035D1*
G1X9761Y9920D2*
G1X9761Y9035D1*
G1X9545Y9920D2*
G1X9545Y9035D1*
G1X9752Y9920D2*
G1X9752Y9035D1*
G1X9536Y9920D2*
G1X9536Y9035D1*
G1X9743Y9920D2*
G1X9743Y9035D1*
G1X9527Y9920D2*
G1X9527Y9035D1*
G1X9734Y9920D2*
G1X9734Y9035D1*
G1X9518Y9920D2*
G1X9518Y9035D1*
G1X9509Y9920D2*
G1X9509Y9035D1*
G1X9500Y9920D2*
G1X9500Y9035D1*
G1X9491Y9920D2*
G1X9491Y9035D1*
G1X9725Y9920D2*
G1X9725Y9035D1*
G1X9716Y9920D2*
G1X9716Y9035D1*
G1X9707Y9920D2*
G1X9707Y9035D1*
G1X9698Y9920D2*
G1X9698Y9035D1*
G1X9689Y9920D2*
G1X9689Y9035D1*
G1X9680Y9920D2*
G1X9680Y9035D1*
G1X10238Y9920D2*
G1X10238Y9035D1*
G1X10229Y9920D2*
G1X10229Y9035D1*
G1X10220Y9920D2*
G1X10220Y9035D1*
G1X10211Y9920D2*
G1X10211Y9035D1*
G1X10202Y9920D2*
G1X10202Y9035D1*
G1X10193Y9920D2*
G1X10193Y9035D1*
G1X10184Y9920D2*
G1X10184Y9035D1*
G1X10175Y9920D2*
G1X10175Y9035D1*
G1X10139Y9920D2*
G1X10139Y9035D1*
G1X10130Y9920D2*
G1X10130Y9035D1*
G1X10121Y9920D2*
G1X10121Y9035D1*
G1X10112Y9920D2*
G1X10112Y9035D1*
G1X10103Y9920D2*
G1X10103Y9035D1*
G1X10085Y9920D2*
G1X10085Y9035D1*
G1X7970Y9920D2*
G1X7970Y8911D1*
G1X7196Y9920D2*
G1X7196Y8964D1*
G1X6521Y9920D2*
G1X6521Y9582D1*
G1X10049Y9920D2*
G1X10049Y9035D1*
G1X10040Y9920D2*
G1X10040Y9035D1*
G1X10031Y9920D2*
G1X10031Y9035D1*
G1X6512Y9352D2*
G1X6512Y9120D1*
G1X10004Y9920D2*
G1X10004Y9035D1*
G1X6440Y9920D2*
G1X6440Y9582D1*
G1X9986Y9920D2*
G1X9986Y9035D1*
G1X9977Y9920D2*
G1X9977Y9035D1*
G1X9968Y9920D2*
G1X9968Y9035D1*
G1X7506Y8946D2*
G1X7214Y8946D1*
G1X11201Y9920D2*
G1X11201Y9035D1*
G1X8879Y9920D2*
G1X8879Y9041D1*
G1X8870Y9920D2*
G1X8870Y9052D1*
G1X8861Y9920D2*
G1X8861Y9062D1*
G1X8852Y9920D2*
G1X8852Y9070D1*
G1X8843Y9920D2*
G1X8843Y9078D1*
G1X8834Y9920D2*
G1X8834Y9084D1*
G1X8825Y9920D2*
G1X8825Y9090D1*
G1X8816Y9920D2*
G1X8816Y9095D1*
G1X8807Y9920D2*
G1X8807Y9100D1*
G1X8798Y9920D2*
G1X8798Y9104D1*
G1X8789Y9920D2*
G1X8789Y9108D1*
G1X8780Y9920D2*
G1X8780Y9111D1*
G1X8771Y9920D2*
G1X8771Y9113D1*
G1X8762Y9920D2*
G1X8762Y9115D1*
G1X8753Y9920D2*
G1X8753Y9117D1*
G1X8744Y9920D2*
G1X8744Y9119D1*
G1X8735Y9920D2*
G1X8735Y9119D1*
G1X8726Y9920D2*
G1X8726Y9120D1*
G1X8717Y9920D2*
G1X8717Y9120D1*
G1X8708Y9920D2*
G1X8708Y9120D1*
G1X8699Y9920D2*
G1X8699Y9119D1*
G1X8690Y9920D2*
G1X8690Y9118D1*
G1X8681Y9920D2*
G1X8681Y9116D1*
G1X8672Y9920D2*
G1X8672Y9114D1*
G1X8663Y9920D2*
G1X8663Y9112D1*
G1X8654Y9920D2*
G1X8654Y9109D1*
G1X8645Y9920D2*
G1X8645Y9105D1*
G1X8636Y9920D2*
G1X8636Y9101D1*
G1X8627Y9920D2*
G1X8627Y9097D1*
G1X8618Y9920D2*
G1X8618Y9092D1*
G1X8609Y9920D2*
G1X8609Y9086D1*
G1X8600Y9920D2*
G1X8600Y9080D1*
G1X8591Y9920D2*
G1X8591Y9073D1*
G1X8582Y9920D2*
G1X8582Y9065D1*
G1X8573Y9920D2*
G1X8573Y9056D1*
G1X8564Y9920D2*
G1X8564Y9045D1*
G1X8555Y9920D2*
G1X8555Y9033D1*
G1X8546Y9920D2*
G1X8546Y9019D1*
G1X8537Y9920D2*
G1X8537Y9001D1*
G1X8933Y9920D2*
G1X8933Y9035D1*
G1X8942Y9920D2*
G1X8942Y9035D1*
G1X8951Y9920D2*
G1X8951Y9035D1*
G1X8960Y9920D2*
G1X8960Y9035D1*
G1X8969Y9920D2*
G1X8969Y9035D1*
G1X8978Y9920D2*
G1X8978Y9035D1*
G1X8987Y9920D2*
G1X8987Y9035D1*
G1X8996Y9920D2*
G1X8996Y9035D1*
G1X9005Y9920D2*
G1X9005Y9035D1*
G1X9014Y9920D2*
G1X9014Y9035D1*
G1X9023Y9920D2*
G1X9023Y9035D1*
G1X9032Y9920D2*
G1X9032Y9035D1*
G1X9041Y9920D2*
G1X9041Y9035D1*
G1X9050Y9920D2*
G1X9050Y9035D1*
G1X9059Y9920D2*
G1X9059Y9035D1*
G1X9068Y9920D2*
G1X9068Y9035D1*
G1X9077Y9920D2*
G1X9077Y9035D1*
G1X9086Y9920D2*
G1X9086Y9035D1*
G1X9095Y9920D2*
G1X9095Y9035D1*
G1X9104Y9920D2*
G1X9104Y9035D1*
G1X9113Y9920D2*
G1X9113Y9035D1*
G1X10148Y9920D2*
G1X10148Y9035D1*
G1X10157Y9920D2*
G1X10157Y9035D1*
G1X16155Y9117D2*
G1X8754Y9117D1*
G1X16155Y9108D2*
G1X8788Y9108D1*
G1X16155Y9099D2*
G1X8809Y9099D1*
G1X16155Y9090D2*
G1X8825Y9090D1*
G1X16155Y9081D2*
G1X8839Y9081D1*
G1X16155Y9072D2*
G1X8850Y9072D1*
G1X16155Y9063D2*
G1X8860Y9063D1*
G1X16155Y9054D2*
G1X8868Y9054D1*
G1X16155Y9045D2*
G1X8876Y9045D1*
G1X16155Y9036D2*
G1X8883Y9036D1*
G1X8557Y9036D2*
G1X7124Y9036D1*
G1X12254Y9920D2*
G1X12254Y9035D1*
G1X15179Y9920D2*
G1X15179Y8924D1*
G1X15170Y9920D2*
G1X15170Y8933D1*
G1X15161Y9920D2*
G1X15161Y8942D1*
G1X15152Y9920D2*
G1X15152Y8951D1*
G1X15143Y9920D2*
G1X15143Y8960D1*
G1X15134Y9920D2*
G1X15134Y8969D1*
G1X15125Y9920D2*
G1X15125Y8978D1*
G1X15116Y9920D2*
G1X15116Y8987D1*
G1X14396Y9920D2*
G1X14396Y9035D1*
G1X15098Y9920D2*
G1X15098Y9004D1*
G1X15089Y9920D2*
G1X15089Y9012D1*
G1X15080Y9920D2*
G1X15080Y9018D1*
G1X15071Y9920D2*
G1X15071Y9023D1*
G1X15062Y9920D2*
G1X15062Y9027D1*
G1X15053Y9920D2*
G1X15053Y9030D1*
G1X15044Y9920D2*
G1X15044Y9032D1*
G1X15035Y9920D2*
G1X15035Y9034D1*
G1X15026Y9920D2*
G1X15026Y9035D1*
G1X15017Y9920D2*
G1X15017Y9035D1*
G1X15008Y9920D2*
G1X15008Y9035D1*
G1X14999Y9920D2*
G1X14999Y9035D1*
G1X14990Y9920D2*
G1X14990Y9035D1*
G1X14981Y9920D2*
G1X14981Y9035D1*
G1X14972Y9920D2*
G1X14972Y9035D1*
G1X14963Y9920D2*
G1X14963Y9035D1*
G1X14954Y9920D2*
G1X14954Y9035D1*
G1X14945Y9920D2*
G1X14945Y9035D1*
G1X14936Y9920D2*
G1X14936Y9035D1*
G1X14927Y9920D2*
G1X14927Y9035D1*
G1X15240Y8920D2*
G1X15183Y8920D1*
G1X14918Y9920D2*
G1X14918Y9035D1*
G1X16155Y9027D2*
G1X15062Y9027D1*
G1X16155Y9018D2*
G1X15080Y9018D1*
G1X16155Y9000D2*
G1X15103Y9000D1*
G1X16155Y8991D2*
G1X15112Y8991D1*
G1X16155Y8982D2*
G1X15121Y8982D1*
G1X16155Y8973D2*
G1X15130Y8973D1*
G1X16155Y8964D2*
G1X15139Y8964D1*
G1X16155Y8955D2*
G1X15148Y8955D1*
G1X16155Y8946D2*
G1X15157Y8946D1*
G1X16155Y8937D2*
G1X15166Y8937D1*
G1X16155Y8928D2*
G1X15175Y8928D1*
G1X16155Y8919D2*
G1X15240Y8919D1*
G1X16155Y8910D2*
G1X15240Y8910D1*
G1X16155Y8901D2*
G1X15240Y8901D1*
G1X16155Y8892D2*
G1X15240Y8892D1*
G1X16155Y8883D2*
G1X15240Y8883D1*
G1X16155Y8874D2*
G1X15240Y8874D1*
G1X16155Y8856D2*
G1X15247Y8856D1*
G1X16155Y8847D2*
G1X15256Y8847D1*
G1X16155Y8838D2*
G1X15265Y8838D1*
G1X16155Y8829D2*
G1X15274Y8829D1*
G1X16155Y8820D2*
G1X15283Y8820D1*
G1X16155Y8811D2*
G1X15292Y8811D1*
G1X16155Y8802D2*
G1X15301Y8802D1*
G1X16155Y8793D2*
G1X15310Y8793D1*
G1X16155Y8784D2*
G1X15319Y8784D1*
G1X16155Y8775D2*
G1X15328Y8775D1*
G1X16155Y8766D2*
G1X15337Y8766D1*
G1X16155Y8757D2*
G1X15346Y8757D1*
G1X16155Y8748D2*
G1X15355Y8748D1*
G1X16155Y8739D2*
G1X15364Y8739D1*
G1X16155Y8712D2*
G1X15391Y8712D1*
G1X16155Y8703D2*
G1X15400Y8703D1*
G1X16155Y8694D2*
G1X15409Y8694D1*
G1X16155Y8685D2*
G1X15417Y8685D1*
G1X16155Y8676D2*
G1X15426Y8676D1*
G1X16155Y8667D2*
G1X15433Y8667D1*
G1X16155Y8658D2*
G1X15439Y8658D1*
G1X16155Y8649D2*
G1X15444Y8649D1*
G1X16155Y8640D2*
G1X15448Y8640D1*
G1X16155Y8631D2*
G1X15451Y8631D1*
G1X16155Y8865D2*
G1X15240Y8865D1*
G1X16155Y8622D2*
G1X15453Y8622D1*
G1X16155Y8586D2*
G1X15455Y8586D1*
G1X16155Y8577D2*
G1X15455Y8577D1*
G1X16155Y8568D2*
G1X15455Y8568D1*
G1X16155Y8559D2*
G1X15455Y8559D1*
G1X16155Y8550D2*
G1X15455Y8550D1*
G1X16155Y8541D2*
G1X15455Y8541D1*
G1X16155Y8532D2*
G1X15455Y8532D1*
G1X16155Y8523D2*
G1X15455Y8523D1*
G1X16155Y8514D2*
G1X15455Y8514D1*
G1X16155Y8505D2*
G1X15455Y8505D1*
G1X16155Y8496D2*
G1X15455Y8496D1*
G1X16155Y8487D2*
G1X15455Y8487D1*
G1X16155Y8478D2*
G1X15455Y8478D1*
G1X16155Y8469D2*
G1X15455Y8469D1*
G1X16155Y6678D2*
G1X15455Y6678D1*
G1X16155Y6669D2*
G1X15455Y6669D1*
G1X16155Y6660D2*
G1X15455Y6660D1*
G1X16155Y6651D2*
G1X15455Y6651D1*
G1X16155Y6642D2*
G1X15455Y6642D1*
G1X16155Y6633D2*
G1X15455Y6633D1*
G1X16155Y6624D2*
G1X15455Y6624D1*
G1X16155Y6615D2*
G1X15455Y6615D1*
G1X16155Y6606D2*
G1X15455Y6606D1*
G1X16155Y6597D2*
G1X15455Y6597D1*
G1X16155Y6588D2*
G1X15455Y6588D1*
G1X16155Y6579D2*
G1X15455Y6579D1*
G1X16155Y6570D2*
G1X15455Y6570D1*
G1X16155Y6561D2*
G1X15455Y6561D1*
G1X16155Y6552D2*
G1X15455Y6552D1*
G1X16155Y6543D2*
G1X15455Y6543D1*
G1X16155Y6534D2*
G1X15455Y6534D1*
G1X16155Y6525D2*
G1X15455Y6525D1*
G1X16155Y6516D2*
G1X15455Y6516D1*
G1X16155Y6507D2*
G1X15455Y6507D1*
G1X16155Y6498D2*
G1X15455Y6498D1*
G1X16155Y6489D2*
G1X15455Y6489D1*
G1X16155Y6480D2*
G1X15455Y6480D1*
G1X16155Y6471D2*
G1X15455Y6471D1*
G1X16155Y6462D2*
G1X15455Y6462D1*
G1X16155Y6453D2*
G1X15455Y6453D1*
G1X16155Y6444D2*
G1X15455Y6444D1*
G1X16155Y6435D2*
G1X15455Y6435D1*
G1X16155Y6426D2*
G1X15455Y6426D1*
G1X16155Y6417D2*
G1X15455Y6417D1*
G1X16155Y6408D2*
G1X15455Y6408D1*
G1X16155Y6399D2*
G1X15455Y6399D1*
G1X16155Y6390D2*
G1X15455Y6390D1*
G1X16155Y6381D2*
G1X15455Y6381D1*
G1X16155Y6372D2*
G1X15455Y6372D1*
G1X16155Y6363D2*
G1X15455Y6363D1*
G1X16155Y6354D2*
G1X15455Y6354D1*
G1X16155Y6345D2*
G1X15455Y6345D1*
G1X16155Y6336D2*
G1X15455Y6336D1*
G1X16155Y6327D2*
G1X15455Y6327D1*
G1X16155Y6318D2*
G1X15455Y6318D1*
G1X16155Y6309D2*
G1X15455Y6309D1*
G1X16155Y6273D2*
G1X15455Y6273D1*
G1X16155Y6084D2*
G1X15455Y6084D1*
G1X16155Y6264D2*
G1X15455Y6264D1*
G1X16155Y6255D2*
G1X15455Y6255D1*
G1X16155Y6246D2*
G1X15455Y6246D1*
G1X16155Y6237D2*
G1X15455Y6237D1*
G1X16155Y6228D2*
G1X15455Y6228D1*
G1X16155Y6219D2*
G1X15455Y6219D1*
G1X16155Y6201D2*
G1X15455Y6201D1*
G1X16155Y6192D2*
G1X15455Y6192D1*
G1X16155Y6183D2*
G1X15455Y6183D1*
G1X16155Y6174D2*
G1X15455Y6174D1*
G1X16155Y6165D2*
G1X15455Y6165D1*
G1X16155Y6156D2*
G1X15455Y6156D1*
G1X16155Y6147D2*
G1X15455Y6147D1*
G1X16155Y6138D2*
G1X15455Y6138D1*
G1X16155Y6129D2*
G1X15455Y6129D1*
G1X16155Y6120D2*
G1X15455Y6120D1*
G1X16155Y6111D2*
G1X15455Y6111D1*
G1X16155Y6102D2*
G1X15455Y6102D1*
G1X16155Y6093D2*
G1X15455Y6093D1*
G1X15530Y5436D2*
G1X15467Y5436D1*
G1X15530Y5418D2*
G1X15485Y5418D1*
G1X15530Y5400D2*
G1X15503Y5400D1*
G1X15530Y5382D2*
G1X15521Y5382D1*
G1X15225Y5679D2*
G1X14710Y5679D1*
G1X15225Y5670D2*
G1X14710Y5670D1*
G1X15225Y5661D2*
G1X14710Y5661D1*
G1X15225Y5652D2*
G1X14710Y5652D1*
G1X15225Y5643D2*
G1X14710Y5643D1*
G1X15225Y5634D2*
G1X14710Y5634D1*
G1X16155Y6075D2*
G1X15455Y6075D1*
G1X16155Y6066D2*
G1X15455Y6066D1*
G1X16155Y6057D2*
G1X15455Y6057D1*
G1X16155Y6048D2*
G1X15455Y6048D1*
G1X16155Y6039D2*
G1X15455Y6039D1*
G1X16155Y6030D2*
G1X15455Y6030D1*
G1X16155Y6021D2*
G1X15455Y6021D1*
G1X15225Y5895D2*
G1X14710Y5895D1*
G1X15225Y5886D2*
G1X14710Y5886D1*
G1X15225Y5877D2*
G1X14710Y5877D1*
G1X15225Y5868D2*
G1X14710Y5868D1*
G1X15225Y5859D2*
G1X14710Y5859D1*
G1X15225Y5850D2*
G1X14710Y5850D1*
G1X15225Y5841D2*
G1X14710Y5841D1*
G1X15225Y5832D2*
G1X14710Y5832D1*
G1X15225Y5823D2*
G1X14710Y5823D1*
G1X15225Y5814D2*
G1X14710Y5814D1*
G1X15225Y5805D2*
G1X14710Y5805D1*
G1X15225Y5796D2*
G1X14710Y5796D1*
G1X15225Y5787D2*
G1X14710Y5787D1*
G1X15225Y5778D2*
G1X14710Y5778D1*
G1X16155Y6291D2*
G1X15455Y6291D1*
G1X16155Y6282D2*
G1X15455Y6282D1*
G1X15456Y5121D2*
G1X14710Y5121D1*
G1X15267Y5310D2*
G1X14710Y5310D1*
G1X15276Y5301D2*
G1X14710Y5301D1*
G1X15285Y5292D2*
G1X14710Y5292D1*
G1X15294Y5283D2*
G1X14710Y5283D1*
G1X15303Y5274D2*
G1X14710Y5274D1*
G1X15312Y5265D2*
G1X14710Y5265D1*
G1X15321Y5256D2*
G1X14710Y5256D1*
G1X15330Y5247D2*
G1X14710Y5247D1*
G1X15339Y5238D2*
G1X14710Y5238D1*
G1X15348Y5229D2*
G1X14710Y5229D1*
G1X15357Y5220D2*
G1X14710Y5220D1*
G1X15366Y5211D2*
G1X14710Y5211D1*
G1X15530Y5481D2*
G1X15455Y5481D1*
G1X15530Y5472D2*
G1X15455Y5472D1*
G1X15530Y5463D2*
G1X15455Y5463D1*
G1X15225Y5715D2*
G1X14710Y5715D1*
G1X16220Y5706D2*
G1X15455Y5706D1*
G1X15225Y5706D2*
G1X14710Y5706D1*
G1X16220Y5697D2*
G1X15455Y5697D1*
G1X15225Y5697D2*
G1X14710Y5697D1*
G1X16220Y5688D2*
G1X15455Y5688D1*
G1X15225Y5688D2*
G1X14710Y5688D1*
G1X16220Y5679D2*
G1X15455Y5679D1*
G1X15226Y5382D2*
G1X14710Y5382D1*
G1X15530Y5508D2*
G1X15455Y5508D1*
G1X15530Y5499D2*
G1X15455Y5499D1*
G1X15440Y5137D2*
G1X15440Y2610D1*
G1X8528Y9920D2*
G1X8528Y8976D1*
G1X7367Y9920D2*
G1X7367Y8910D1*
G1X7727Y9920D2*
G1X7727Y8911D1*
G1X10949Y9920D2*
G1X10949Y9035D1*
G1X10463Y9920D2*
G1X10463Y9035D1*
G1X9824Y9920D2*
G1X9824Y9035D1*
G1X7673Y9920D2*
G1X7673Y8937D1*
G1X7664Y9920D2*
G1X7664Y8941D1*
G1X7655Y9920D2*
G1X7655Y8945D1*
G1X7646Y9920D2*
G1X7646Y8949D1*
G1X7637Y9920D2*
G1X7637Y8952D1*
G1X7628Y9920D2*
G1X7628Y8954D1*
G1X7619Y9920D2*
G1X7619Y8956D1*
G1X7610Y9920D2*
G1X7610Y8958D1*
G1X7601Y9920D2*
G1X7601Y8959D1*
G1X7592Y9920D2*
G1X7592Y8960D1*
G1X7583Y9920D2*
G1X7583Y8960D1*
G1X7574Y9920D2*
G1X7574Y8960D1*
G1X7565Y9920D2*
G1X7565Y8959D1*
G1X7556Y9920D2*
G1X7556Y8959D1*
G1X7547Y9920D2*
G1X7547Y8957D1*
G1X7538Y9920D2*
G1X7538Y8955D1*
G1X7529Y9920D2*
G1X7529Y8953D1*
G1X7520Y9920D2*
G1X7520Y8951D1*
G1X7511Y9920D2*
G1X7511Y8948D1*
G1X7502Y9920D2*
G1X7502Y8944D1*
G1X7493Y9920D2*
G1X7493Y8940D1*
G1X7484Y9920D2*
G1X7484Y8935D1*
G1X7475Y9920D2*
G1X7475Y8930D1*
G1X7466Y9920D2*
G1X7466Y8924D1*
G1X7457Y9920D2*
G1X7457Y8918D1*
G1X7448Y9920D2*
G1X7448Y8910D1*
G1X7709Y9920D2*
G1X7709Y8913D1*
G1X7700Y9920D2*
G1X7700Y8920D1*
G1X7691Y9920D2*
G1X7691Y8926D1*
G1X7682Y9920D2*
G1X7682Y8932D1*
G1X16220Y8465D2*
G1X16155Y8465D1*
G1X8520Y8912D2*
G1X7712Y8911D1*
G1X8523Y8955D2*
G1X7624Y8955D1*
G1X8522Y8946D2*
G1X7653Y8946D1*
G1X8521Y8937D2*
G1X7673Y8937D1*
G1X8520Y8928D2*
G1X7688Y8928D1*
G1X8520Y8919D2*
G1X7701Y8919D1*
G1X7459Y8919D2*
G1X7241Y8919D1*
G1X7376Y9920D2*
G1X7376Y8910D1*
G1X10454Y9920D2*
G1X10454Y9035D1*
G1X10445Y9920D2*
G1X10445Y9035D1*
G1X10436Y9920D2*
G1X10436Y9035D1*
G1X8631Y9099D2*
G1X7061Y9099D1*
G1X7133Y9920D2*
G1X7133Y9027D1*
G1X15458Y9920D2*
G1X15458Y5445D1*
G1X14900Y9920D2*
G1X14900Y9035D1*
G1X14891Y9920D2*
G1X14891Y9035D1*
G1X14882Y9920D2*
G1X14882Y9035D1*
G1X14873Y9920D2*
G1X14873Y9035D1*
G1X14864Y9920D2*
G1X14864Y9035D1*
G1X14855Y9920D2*
G1X14855Y9035D1*
G1X14846Y9920D2*
G1X14846Y9035D1*
G1X14387Y9920D2*
G1X14387Y9035D1*
G1X14378Y9920D2*
G1X14378Y9035D1*
G1X14369Y9920D2*
G1X14369Y9035D1*
G1X14360Y9920D2*
G1X14360Y9035D1*
G1X14351Y9920D2*
G1X14351Y9035D1*
G1X14342Y9920D2*
G1X14342Y9035D1*
G1X14333Y9920D2*
G1X14333Y9035D1*
G1X14324Y9920D2*
G1X14324Y9035D1*
G1X14315Y9920D2*
G1X14315Y9035D1*
G1X14306Y9920D2*
G1X14306Y9035D1*
G1X14297Y9920D2*
G1X14297Y9035D1*
G1X14288Y9920D2*
G1X14288Y9035D1*
G1X14279Y9920D2*
G1X14279Y9035D1*
G1X14270Y9920D2*
G1X14270Y9035D1*
G1X14261Y9920D2*
G1X14261Y9035D1*
G1X14252Y9920D2*
G1X14252Y9035D1*
G1X14243Y9920D2*
G1X14243Y9035D1*
G1X14234Y9920D2*
G1X14234Y9035D1*
G1X14225Y9920D2*
G1X14225Y9035D1*
G1X14216Y9920D2*
G1X14216Y9035D1*
G1X14207Y9920D2*
G1X14207Y9035D1*
G1X14198Y9920D2*
G1X14198Y9035D1*
G1X14189Y9920D2*
G1X14189Y9035D1*
G1X14180Y9920D2*
G1X14180Y9035D1*
G1X14171Y9920D2*
G1X14171Y9035D1*
G1X14162Y9920D2*
G1X14162Y9035D1*
G1X14153Y9920D2*
G1X14153Y9035D1*
G1X14144Y9920D2*
G1X14144Y9035D1*
G1X14135Y9920D2*
G1X14135Y9035D1*
G1X14126Y9920D2*
G1X14126Y9035D1*
G1X14117Y9920D2*
G1X14117Y9035D1*
G1X14108Y9920D2*
G1X14108Y9035D1*
G1X14099Y9920D2*
G1X14099Y9035D1*
G1X14090Y9920D2*
G1X14090Y9035D1*
G1X14081Y9920D2*
G1X14081Y9035D1*
G1X14072Y9920D2*
G1X14072Y9035D1*
G1X14063Y9920D2*
G1X14063Y9035D1*
G1X14054Y9920D2*
G1X14054Y9035D1*
G1X14045Y9920D2*
G1X14045Y9035D1*
G1X14036Y9920D2*
G1X14036Y9035D1*
G1X14027Y9920D2*
G1X14027Y9035D1*
G1X14018Y9920D2*
G1X14018Y9035D1*
G1X14009Y9920D2*
G1X14009Y9035D1*
G1X14000Y9920D2*
G1X14000Y9035D1*
G1X13991Y9920D2*
G1X13991Y9035D1*
G1X13982Y9920D2*
G1X13982Y9035D1*
G1X13973Y9920D2*
G1X13973Y9035D1*
G1X13964Y9920D2*
G1X13964Y9035D1*
G1X13955Y9920D2*
G1X13955Y9035D1*
G1X13946Y9920D2*
G1X13946Y9035D1*
G1X13937Y9920D2*
G1X13937Y9035D1*
G1X13928Y9920D2*
G1X13928Y9035D1*
G1X13919Y9920D2*
G1X13919Y9035D1*
G1X13910Y9920D2*
G1X13910Y9035D1*
G1X13901Y9920D2*
G1X13901Y9035D1*
G1X13892Y9920D2*
G1X13892Y9035D1*
G1X13883Y9920D2*
G1X13883Y9035D1*
G1X13874Y9920D2*
G1X13874Y9035D1*
G1X13865Y9920D2*
G1X13865Y9035D1*
G1X13856Y9920D2*
G1X13856Y9035D1*
G1X13847Y9920D2*
G1X13847Y9035D1*
G1X13838Y9920D2*
G1X13838Y9035D1*
G1X13829Y9920D2*
G1X13829Y9035D1*
G1X13820Y9920D2*
G1X13820Y9035D1*
G1X13811Y9920D2*
G1X13811Y9035D1*
G1X13802Y9920D2*
G1X13802Y9035D1*
G1X13793Y9920D2*
G1X13793Y9035D1*
G1X13784Y9920D2*
G1X13784Y9035D1*
G1X13775Y9920D2*
G1X13775Y9035D1*
G1X13766Y9920D2*
G1X13766Y9035D1*
G1X13757Y9920D2*
G1X13757Y9035D1*
G1X13748Y9920D2*
G1X13748Y9035D1*
G1X13739Y9920D2*
G1X13739Y9035D1*
G1X13730Y9920D2*
G1X13730Y9035D1*
G1X13721Y9920D2*
G1X13721Y9035D1*
G1X13712Y9920D2*
G1X13712Y9035D1*
G1X13703Y9920D2*
G1X13703Y9035D1*
G1X13694Y9920D2*
G1X13694Y9035D1*
G1X13685Y9920D2*
G1X13685Y9035D1*
G1X13676Y9920D2*
G1X13676Y9035D1*
G1X13667Y9920D2*
G1X13667Y9035D1*
G1X13658Y9920D2*
G1X13658Y9035D1*
G1X13649Y9920D2*
G1X13649Y9035D1*
G1X14594Y9920D2*
G1X14594Y9035D1*
G1X14747Y9920D2*
G1X14747Y9035D1*
G1X14738Y9920D2*
G1X14738Y9035D1*
G1X14729Y9920D2*
G1X14729Y9035D1*
G1X14720Y9920D2*
G1X14720Y9035D1*
G1X14837Y9920D2*
G1X14837Y9035D1*
G1X14828Y9920D2*
G1X14828Y9035D1*
G1X14819Y9920D2*
G1X14819Y9035D1*
G1X14810Y9920D2*
G1X14810Y9035D1*
G1X14801Y9920D2*
G1X14801Y9035D1*
G1X14792Y9920D2*
G1X14792Y9035D1*
G1X14783Y9920D2*
G1X14783Y9035D1*
G1X14774Y9920D2*
G1X14774Y9035D1*
G1X14765Y9920D2*
G1X14765Y9035D1*
G1X14756Y9920D2*
G1X14756Y9035D1*
G1X14711Y9920D2*
G1X14711Y9035D1*
G1X14702Y9920D2*
G1X14702Y9035D1*
G1X14693Y9920D2*
G1X14693Y9035D1*
G1X14684Y9920D2*
G1X14684Y9035D1*
G1X14675Y9920D2*
G1X14675Y9035D1*
G1X14666Y9920D2*
G1X14666Y9035D1*
G1X14657Y9920D2*
G1X14657Y9035D1*
G1X14648Y9920D2*
G1X14648Y9035D1*
G1X14639Y9920D2*
G1X14639Y9035D1*
G1X14630Y9920D2*
G1X14630Y9035D1*
G1X14621Y9920D2*
G1X14621Y9035D1*
G1X14612Y9920D2*
G1X14612Y9035D1*
G1X14603Y9920D2*
G1X14603Y9035D1*
G1X14585Y9920D2*
G1X14585Y9035D1*
G1X14576Y9920D2*
G1X14576Y9035D1*
G1X14567Y9920D2*
G1X14567Y9035D1*
G1X14558Y9920D2*
G1X14558Y9035D1*
G1X14549Y9920D2*
G1X14549Y9035D1*
G1X14540Y9920D2*
G1X14540Y9035D1*
G1X14531Y9920D2*
G1X14531Y9035D1*
G1X14522Y9920D2*
G1X14522Y9035D1*
G1X14513Y9920D2*
G1X14513Y9035D1*
G1X14504Y9920D2*
G1X14504Y9035D1*
G1X14495Y9920D2*
G1X14495Y9035D1*
G1X14486Y9920D2*
G1X14486Y9035D1*
G1X14477Y9920D2*
G1X14477Y9035D1*
G1X14468Y9920D2*
G1X14468Y9035D1*
G1X14459Y9920D2*
G1X14459Y9035D1*
G1X14450Y9920D2*
G1X14450Y9035D1*
G1X14441Y9920D2*
G1X14441Y9035D1*
G1X14432Y9920D2*
G1X14432Y9035D1*
G1X14423Y9920D2*
G1X14423Y9035D1*
G1X14414Y9920D2*
G1X14414Y9035D1*
G1X14405Y9920D2*
G1X14405Y9035D1*
G1X14909Y9920D2*
G1X14909Y9035D1*
G1X13397Y9920D2*
G1X13397Y9035D1*
G1X13388Y9920D2*
G1X13388Y9035D1*
G1X13379Y9920D2*
G1X13379Y9035D1*
G1X13370Y9920D2*
G1X13370Y9035D1*
G1X13361Y9920D2*
G1X13361Y9035D1*
G1X13352Y9920D2*
G1X13352Y9035D1*
G1X13343Y9920D2*
G1X13343Y9035D1*
G1X13334Y9920D2*
G1X13334Y9035D1*
G1X13325Y9920D2*
G1X13325Y9035D1*
G1X13316Y9920D2*
G1X13316Y9035D1*
G1X13307Y9920D2*
G1X13307Y9035D1*
G1X13298Y9920D2*
G1X13298Y9035D1*
G1X13289Y9920D2*
G1X13289Y9035D1*
G1X13280Y9920D2*
G1X13280Y9035D1*
G1X13271Y9920D2*
G1X13271Y9035D1*
G1X13262Y9920D2*
G1X13262Y9035D1*
G1X13253Y9920D2*
G1X13253Y9035D1*
G1X13244Y9920D2*
G1X13244Y9035D1*
G1X13235Y9920D2*
G1X13235Y9035D1*
G1X13226Y9920D2*
G1X13226Y9035D1*
G1X13217Y9920D2*
G1X13217Y9035D1*
G1X13208Y9920D2*
G1X13208Y9035D1*
G1X13199Y9920D2*
G1X13199Y9035D1*
G1X13190Y9920D2*
G1X13190Y9035D1*
G1X13181Y9920D2*
G1X13181Y9035D1*
G1X13172Y9920D2*
G1X13172Y9035D1*
G1X13163Y9920D2*
G1X13163Y9035D1*
G1X13154Y9920D2*
G1X13154Y9035D1*
G1X13145Y9920D2*
G1X13145Y9035D1*
G1X13136Y9920D2*
G1X13136Y9035D1*
G1X13127Y9920D2*
G1X13127Y9035D1*
G1X13118Y9920D2*
G1X13118Y9035D1*
G1X13037Y9920D2*
G1X13037Y9035D1*
G1X13028Y9920D2*
G1X13028Y9035D1*
G1X13019Y9920D2*
G1X13019Y9035D1*
G1X13010Y9920D2*
G1X13010Y9035D1*
G1X13109Y9920D2*
G1X13109Y9035D1*
G1X13100Y9920D2*
G1X13100Y9035D1*
G1X13091Y9920D2*
G1X13091Y9035D1*
G1X13082Y9920D2*
G1X13082Y9035D1*
G1X13001Y9920D2*
G1X13001Y9035D1*
G1X13073Y9920D2*
G1X13073Y9035D1*
G1X13064Y9920D2*
G1X13064Y9035D1*
G1X13055Y9920D2*
G1X13055Y9035D1*
G1X12713Y9609D2*
G1X12713Y9035D1*
G1X12722Y9614D2*
G1X12722Y9035D1*
G1X12776Y9668D2*
G1X12776Y9035D1*
G1X12767Y9656D2*
G1X12767Y9035D1*
G1X13046Y9920D2*
G1X13046Y9035D1*
G1X12992Y9920D2*
G1X12992Y9035D1*
G1X12983Y9920D2*
G1X12983Y9035D1*
G1X12974Y9920D2*
G1X12974Y9035D1*
G1X12965Y9920D2*
G1X12965Y9035D1*
G1X12956Y9920D2*
G1X12956Y9035D1*
G1X12056Y9920D2*
G1X12056Y9035D1*
G1X12047Y9920D2*
G1X12047Y9035D1*
G1X12038Y9920D2*
G1X12038Y9035D1*
G1X12029Y9920D2*
G1X12029Y9035D1*
G1X12020Y9920D2*
G1X12020Y9035D1*
G1X12011Y9920D2*
G1X12011Y9035D1*
G1X12002Y9920D2*
G1X12002Y9035D1*
G1X11993Y9920D2*
G1X11993Y9035D1*
G1X11984Y9920D2*
G1X11984Y9035D1*
G1X11975Y9920D2*
G1X11975Y9035D1*
G1X11966Y9920D2*
G1X11966Y9035D1*
G1X11957Y9920D2*
G1X11957Y9035D1*
G1X11948Y9920D2*
G1X11948Y9035D1*
G1X11939Y9920D2*
G1X11939Y9035D1*
G1X11930Y9920D2*
G1X11930Y9035D1*
G1X11921Y9920D2*
G1X11921Y9035D1*
G1X11912Y9920D2*
G1X11912Y9035D1*
G1X11903Y9920D2*
G1X11903Y9035D1*
G1X11894Y9920D2*
G1X11894Y9035D1*
G1X11885Y9920D2*
G1X11885Y9035D1*
G1X11876Y9920D2*
G1X11876Y9035D1*
G1X11867Y9920D2*
G1X11867Y9035D1*
G1X11858Y9920D2*
G1X11858Y9035D1*
G1X11849Y9920D2*
G1X11849Y9035D1*
G1X11840Y9920D2*
G1X11840Y9035D1*
G1X11831Y9920D2*
G1X11831Y9035D1*
G1X11822Y9920D2*
G1X11822Y9035D1*
G1X11813Y9920D2*
G1X11813Y9035D1*
G1X11804Y9920D2*
G1X11804Y9035D1*
G1X11795Y9920D2*
G1X11795Y9035D1*
G1X11786Y9920D2*
G1X11786Y9035D1*
G1X11777Y9920D2*
G1X11777Y9035D1*
G1X11768Y9920D2*
G1X11768Y9035D1*
G1X11759Y9920D2*
G1X11759Y9035D1*
G1X11750Y9920D2*
G1X11750Y9035D1*
G1X11741Y9920D2*
G1X11741Y9035D1*
G1X11732Y9920D2*
G1X11732Y9035D1*
G1X11723Y9920D2*
G1X11723Y9035D1*
G1X11714Y9920D2*
G1X11714Y9035D1*
G1X12947Y9920D2*
G1X12947Y9035D1*
G1X12938Y9920D2*
G1X12938Y9035D1*
G1X12929Y9920D2*
G1X12929Y9035D1*
G1X12920Y9920D2*
G1X12920Y9035D1*
G1X12911Y9920D2*
G1X12911Y9035D1*
G1X12902Y9920D2*
G1X12902Y9035D1*
G1X12893Y9920D2*
G1X12893Y9035D1*
G1X12884Y9920D2*
G1X12884Y9035D1*
G1X12875Y9920D2*
G1X12875Y9035D1*
G1X12362Y9920D2*
G1X12362Y9035D1*
G1X12353Y9920D2*
G1X12353Y9035D1*
G1X12344Y9920D2*
G1X12344Y9035D1*
G1X12335Y9920D2*
G1X12335Y9035D1*
G1X12326Y9920D2*
G1X12326Y9035D1*
G1X12317Y9920D2*
G1X12317Y9035D1*
G1X12308Y9920D2*
G1X12308Y9035D1*
G1X12299Y9920D2*
G1X12299Y9035D1*
G1X12290Y9920D2*
G1X12290Y9035D1*
G1X12281Y9920D2*
G1X12281Y9035D1*
G1X12272Y9920D2*
G1X12272Y9035D1*
G1X12263Y9920D2*
G1X12263Y9035D1*
G1X15107Y9920D2*
G1X15107Y8996D1*
G1X12245Y9920D2*
G1X12245Y9035D1*
G1X12236Y9920D2*
G1X12236Y9035D1*
G1X12227Y9920D2*
G1X12227Y9035D1*
G1X12218Y9920D2*
G1X12218Y9035D1*
G1X12209Y9920D2*
G1X12209Y9035D1*
G1X12200Y9920D2*
G1X12200Y9035D1*
G1X12191Y9920D2*
G1X12191Y9035D1*
G1X12182Y9920D2*
G1X12182Y9035D1*
G1X12173Y9920D2*
G1X12173Y9035D1*
G1X12164Y9920D2*
G1X12164Y9035D1*
G1X12155Y9920D2*
G1X12155Y9035D1*
G1X12146Y9920D2*
G1X12146Y9035D1*
G1X12137Y9920D2*
G1X12137Y9035D1*
G1X12128Y9920D2*
G1X12128Y9035D1*
G1X12434Y9685D2*
G1X12434Y9035D1*
G1X12119Y9920D2*
G1X12119Y9035D1*
G1X12110Y9920D2*
G1X12110Y9035D1*
G1X12425Y9704D2*
G1X12425Y9035D1*
G1X12101Y9920D2*
G1X12101Y9035D1*
G1X12092Y9920D2*
G1X12092Y9035D1*
G1X12083Y9920D2*
G1X12083Y9035D1*
G1X12074Y9920D2*
G1X12074Y9035D1*
G1X12065Y9920D2*
G1X12065Y9035D1*
G1X11705Y9920D2*
G1X11705Y9035D1*
G1X11696Y9920D2*
G1X11696Y9035D1*
G1X12704Y9603D2*
G1X12704Y9035D1*
G1X11687Y9920D2*
G1X11687Y9035D1*
G1X12416Y9731D2*
G1X12416Y9035D1*
G1X11678Y9920D2*
G1X11678Y9035D1*
G1X12695Y9599D2*
G1X12695Y9035D1*
G1X12407Y9920D2*
G1X12407Y9035D1*
G1X12686Y9595D2*
G1X12686Y9035D1*
G1X11669Y9920D2*
G1X11669Y9035D1*
G1X11660Y9920D2*
G1X11660Y9035D1*
G1X12677Y9592D2*
G1X12677Y9035D1*
G1X11651Y9920D2*
G1X11651Y9035D1*
G1X11642Y9920D2*
G1X11642Y9035D1*
G1X11633Y9920D2*
G1X11633Y9035D1*
G1X12668Y9589D2*
G1X12668Y9035D1*
G1X11624Y9920D2*
G1X11624Y9035D1*
G1X11615Y9920D2*
G1X11615Y9035D1*
G1X12659Y9586D2*
G1X12659Y9035D1*
G1X11606Y9920D2*
G1X11606Y9035D1*
G1X11597Y9920D2*
G1X11597Y9035D1*
G1X12650Y9584D2*
G1X12650Y9035D1*
G1X11588Y9920D2*
G1X11588Y9035D1*
G1X11579Y9920D2*
G1X11579Y9035D1*
G1X12641Y9582D2*
G1X12641Y9035D1*
G1X11570Y9920D2*
G1X11570Y9035D1*
G1X11561Y9920D2*
G1X11561Y9035D1*
G1X12632Y9581D2*
G1X12632Y9035D1*
G1X11552Y9920D2*
G1X11552Y9035D1*
G1X11543Y9920D2*
G1X11543Y9035D1*
G1X12623Y9580D2*
G1X12623Y9035D1*
G1X11534Y9920D2*
G1X11534Y9035D1*
G1X11525Y9920D2*
G1X11525Y9035D1*
G1X12614Y9580D2*
G1X12614Y9035D1*
G1X11516Y9920D2*
G1X11516Y9035D1*
G1X11507Y9920D2*
G1X11507Y9035D1*
G1X12605Y9580D2*
G1X12605Y9035D1*
G1X11498Y9920D2*
G1X11498Y9035D1*
G1X11489Y9920D2*
G1X11489Y9035D1*
G1X11480Y9920D2*
G1X11480Y9035D1*
G1X12596Y9580D2*
G1X12596Y9035D1*
G1X11471Y9920D2*
G1X11471Y9035D1*
G1X11462Y9920D2*
G1X11462Y9035D1*
G1X11453Y9920D2*
G1X11453Y9035D1*
G1X11444Y9920D2*
G1X11444Y9035D1*
G1X11435Y9920D2*
G1X11435Y9035D1*
G1X11426Y9920D2*
G1X11426Y9035D1*
G1X11417Y9920D2*
G1X11417Y9035D1*
G1X11408Y9920D2*
G1X11408Y9035D1*
G1X11399Y9920D2*
G1X11399Y9035D1*
G1X11390Y9920D2*
G1X11390Y9035D1*
G1X11381Y9920D2*
G1X11381Y9035D1*
G1X11372Y9920D2*
G1X11372Y9035D1*
G1X11363Y9920D2*
G1X11363Y9035D1*
G1X12587Y9581D2*
G1X12587Y9035D1*
G1X11354Y9920D2*
G1X11354Y9035D1*
G1X11345Y9920D2*
G1X11345Y9035D1*
G1X12578Y9583D2*
G1X12578Y9035D1*
G1X12569Y9584D2*
G1X12569Y9035D1*
G1X11336Y9920D2*
G1X11336Y9035D1*
G1X12398Y9920D2*
G1X12398Y9035D1*
G1X12560Y9586D2*
G1X12560Y9035D1*
G1X12389Y9920D2*
G1X12389Y9035D1*
G1X12380Y9920D2*
G1X12380Y9035D1*
G1X12551Y9589D2*
G1X12551Y9035D1*
G1X12542Y9592D2*
G1X12542Y9035D1*
G1X12533Y9595D2*
G1X12533Y9035D1*
G1X12524Y9599D2*
G1X12524Y9035D1*
G1X12515Y9604D2*
G1X12515Y9035D1*
G1X12866Y9920D2*
G1X12866Y9035D1*
G1X12506Y9609D2*
G1X12506Y9035D1*
G1X12857Y9920D2*
G1X12857Y9035D1*
G1X12803Y9728D2*
G1X12803Y9035D1*
G1X12497Y9615D2*
G1X12497Y9035D1*
G1X12794Y9702D2*
G1X12794Y9035D1*
G1X12785Y9683D2*
G1X12785Y9035D1*
G1X12488Y9621D2*
G1X12488Y9035D1*
G1X12758Y9645D2*
G1X12758Y9035D1*
G1X12749Y9636D2*
G1X12749Y9035D1*
G1X12479Y9629D2*
G1X12479Y9035D1*
G1X12740Y9628D2*
G1X12740Y9035D1*
G1X12731Y9621D2*
G1X12731Y9035D1*
G1X12470Y9637D2*
G1X12470Y9035D1*
G1X12848Y9920D2*
G1X12848Y9035D1*
G1X12839Y9920D2*
G1X12839Y9035D1*
G1X12830Y9920D2*
G1X12830Y9035D1*
G1X12461Y9647D2*
G1X12461Y9035D1*
G1X12821Y9920D2*
G1X12821Y9035D1*
G1X13640Y9920D2*
G1X13640Y9035D1*
G1X13631Y9920D2*
G1X13631Y9035D1*
G1X13622Y9920D2*
G1X13622Y9035D1*
G1X13613Y9920D2*
G1X13613Y9035D1*
G1X13604Y9920D2*
G1X13604Y9035D1*
G1X13595Y9920D2*
G1X13595Y9035D1*
G1X13586Y9920D2*
G1X13586Y9035D1*
G1X13577Y9920D2*
G1X13577Y9035D1*
G1X13568Y9920D2*
G1X13568Y9035D1*
G1X13559Y9920D2*
G1X13559Y9035D1*
G1X13550Y9920D2*
G1X13550Y9035D1*
G1X13541Y9920D2*
G1X13541Y9035D1*
G1X13514Y9920D2*
G1X13514Y9035D1*
G1X13505Y9920D2*
G1X13505Y9035D1*
G1X13496Y9920D2*
G1X13496Y9035D1*
G1X13487Y9920D2*
G1X13487Y9035D1*
G1X13478Y9920D2*
G1X13478Y9035D1*
G1X12452Y9657D2*
G1X12452Y9035D1*
G1X12443Y9670D2*
G1X12443Y9035D1*
G1X16169Y9920D2*
G1X16169Y9135D1*
G1X15377Y9920D2*
G1X15377Y8726D1*
G1X13424Y9920D2*
G1X13424Y9035D1*
G1X15350Y9920D2*
G1X15350Y8753D1*
G1X15323Y9920D2*
G1X15323Y8780D1*
G1X15260Y9920D2*
G1X15260Y8843D1*
G1X8888Y9920D2*
G1X8888Y9035D1*
G1X9482Y9920D2*
G1X9482Y9035D1*
G1X9473Y9920D2*
G1X9473Y9035D1*
G1X9464Y9920D2*
G1X9464Y9035D1*
G1X9455Y9920D2*
G1X9455Y9035D1*
G1X9446Y9920D2*
G1X9446Y9035D1*
G1X9437Y9920D2*
G1X9437Y9035D1*
G1X9428Y9920D2*
G1X9428Y9035D1*
G1X9419Y9920D2*
G1X9419Y9035D1*
G1X9410Y9920D2*
G1X9410Y9035D1*
G1X9401Y9920D2*
G1X9401Y9035D1*
G1X9392Y9920D2*
G1X9392Y9035D1*
G1X9383Y9920D2*
G1X9383Y9035D1*
G1X9374Y9920D2*
G1X9374Y9035D1*
G1X9365Y9920D2*
G1X9365Y9035D1*
G1X9356Y9920D2*
G1X9356Y9035D1*
G1X9347Y9920D2*
G1X9347Y9035D1*
G1X9338Y9920D2*
G1X9338Y9035D1*
G1X9329Y9920D2*
G1X9329Y9035D1*
G1X9320Y9920D2*
G1X9320Y9035D1*
G1X9311Y9920D2*
G1X9311Y9035D1*
G1X9302Y9920D2*
G1X9302Y9035D1*
G1X9293Y9920D2*
G1X9293Y9035D1*
G1X9284Y9920D2*
G1X9284Y9035D1*
G1X9275Y9920D2*
G1X9275Y9035D1*
G1X9266Y9920D2*
G1X9266Y9035D1*
G1X9257Y9920D2*
G1X9257Y9035D1*
G1X9248Y9920D2*
G1X9248Y9035D1*
G1X9239Y9920D2*
G1X9239Y9035D1*
G1X9230Y9920D2*
G1X9230Y9035D1*
G1X9221Y9920D2*
G1X9221Y9035D1*
G1X9212Y9920D2*
G1X9212Y9035D1*
G1X9203Y9920D2*
G1X9203Y9035D1*
G1X9194Y9920D2*
G1X9194Y9035D1*
G1X9185Y9920D2*
G1X9185Y9035D1*
G1X9176Y9920D2*
G1X9176Y9035D1*
G1X15164Y3132D2*
G1X14710Y3132D1*
G1X15139Y3123D2*
G1X14710Y3123D1*
G1X15121Y3114D2*
G1X14710Y3114D1*
G1X15107Y3105D2*
G1X14710Y3105D1*
G1X15095Y3096D2*
G1X14710Y3096D1*
G1X15530Y3159D2*
G1X14710Y3159D1*
G1X15530Y3177D2*
G1X14710Y3177D1*
G1X15530Y3168D2*
G1X14710Y3168D1*
G1X16220Y7803D2*
G1X15455Y7803D1*
G1X15530Y4527D2*
G1X14710Y4527D1*
G1X15530Y4518D2*
G1X14710Y4518D1*
G1X15530Y4509D2*
G1X14710Y4509D1*
G1X15458Y5119D2*
G1X15458Y2610D1*
G1X15530Y4671D2*
G1X14710Y4671D1*
G1X15530Y4365D2*
G1X14710Y4365D1*
G1X15530Y3762D2*
G1X14710Y3762D1*
G1X7580Y8960D2*
G75*
G3X7448Y8910I0J-200D1*
G1X12410Y9780D2*
G3X12610Y9580I200J0D1*
G3X12810Y9780I0J200D1*
G3X12753Y9920I-200J0D1*
G1X15020Y2940D2*
G3X15220Y2740I200J0D1*
G3X15420Y2940I0J200D1*
G3X15220Y3140I-200J0D1*
G3X15020Y2940I0J-200D1*
G1X8884Y9035D2*
G3X8720Y9120I-164J-115D1*
G1X12467Y9920D2*
G3X12410Y9780I143J-140D1*
G1X15455Y8600D2*
G3X15421Y8681I-115J-1D1*
G1X7712Y8911D2*
G3X7580Y8961I-133J-151D1*
G1X15101Y9001D2*
G3X15020Y9035I-82J-81D1*
G1X8720Y9120D2*
G3X8520Y8920I0J-200D1*
G1X15225Y5400D2*
G3X15259Y5319I115J1D1*
G1X14751Y3547D2*
G3X14721Y3596I-110J-34D1*
G74*
G1X8520Y8920D2*
G1X8520Y8912D1*
G1X14710Y3193D2*
G75*
G3X14840Y3380I-70J187D1*
G3X14751Y3547I-200J0D1*
G74*
G1X14640Y1360D2*
G54D58*
G1X11420Y1360D1*
G1X11430Y1350D1*
G1X11430Y800D1*
G1X9300Y2710D2*
G1X9300Y2340D1*
G1X8980Y2020D1*
G1X5080Y2020D1*
G1X2560Y4540D1*
G1X1010Y4540D1*
G1X6850Y8070D2*
G1X5990Y8070D1*
G1X5500Y8560D1*
G1X780Y8560D1*
G1X460Y8240D1*
G1X460Y4250D1*
G1X450Y4240D1*
G1X8310Y2020D2*
G1X8980Y2020D1*
G1X9300Y2340D1*
G1X9300Y2710D1*
G1X11430Y800D2*
G1X11430Y1350D1*
G1X11420Y1360D1*
G1X10830Y1360D1*
G1X10550Y1640D1*
G1X6560Y1550D2*
G1X6250Y1240D1*
G1X4560Y1240D1*
G1X4320Y1480D1*
G1X520Y1480D1*
G1X200Y1800D1*
G1X200Y3940D1*
G1X8100Y500D2*
G1X8100Y385D1*
G1X8225Y260D1*
G1X9880Y260D1*
G1X10160Y540D1*
G1X10160Y1640D1*
G1X6140Y1550D2*
G1X5920Y1550D1*
G1X5920Y1780D1*
G1X8260Y1780D1*
G1X8590Y1450D1*
G1X8590Y670D1*
G1X6140Y1550D2*
G1X5920Y1550D1*
G1X5920Y1780D1*
G1X2580Y1780D1*
G1X2800Y5750D2*
G1X2810Y5760D1*
G1X5200Y5760D1*
G1X5520Y5440D1*
G1X5520Y5010D1*
G1X7520Y3150D2*
G1X7130Y3540D1*
G1X4440Y3540D1*
G1X10270Y5890D2*
G1X10270Y6200D1*
G1X10130Y6200D1*
G1X6850Y8769D2*
G1X7171Y8769D1*
G1X7180Y8760D1*
G1X7580Y8760D1*
G1X8720Y8920D2*
G1X15020Y8920D1*
G1X15340Y8600D1*
G1X15340Y5400D1*
G1X15660Y5080D1*
G1X17120Y5080D1*
G1X17440Y4760D1*
G1X17440Y2120D1*
G1X17120Y1800D1*
G1X12440Y1800D1*
G1X12160Y2080D1*
G1X12160Y2280D1*
G1X11840Y2600D1*
G1X11060Y2600D1*
G1X10740Y2920D1*
G1X10740Y3080D1*
G1X10420Y3400D1*
G1X9900Y3400D1*
G1X9580Y3720D1*
G1X9580Y4180D1*
G1X9260Y4500D1*
G1X8220Y4500D1*
G1X8210Y4510D1*
G1X10840Y4580D2*
G1X11220Y4580D1*
G1X11540Y4260D1*
G1X11540Y3960D1*
G1X11860Y3640D1*
G1X14515Y3640D1*
G1X14640Y3515D1*
G1X14640Y3380D1*
G1X6280Y8700D2*
G1X6280Y9340D1*
G1X6407Y9467D1*
G1X6850Y9467D1*
G1X9880Y600D2*
G1X9880Y2640D1*
G1X9560Y2960D1*
G1X8080Y2960D1*
G1X7760Y3280D1*
G1X7760Y3940D1*
G1X6060Y6920D2*
G1X5540Y6920D1*
G1X5500Y6880D1*
G1X5500Y6770D1*
G1X5310Y6580D1*
G1X10130Y6200D2*
G1X10270Y6200D1*
G1X10270Y5890D1*
G1X12790Y6820D2*
G54D59*
G1X12500Y6820D1*
G1X12280Y6600D1*
G1X12280Y6520D1*
G1X11960Y6200D1*
G1X10550Y6200D1*
G1X12570Y2360D2*
G1X12320Y2360D1*
G1X12320Y2540D1*
G1X12820Y3230D1*
G1X12790Y6820D2*
G1X12500Y6820D1*
G1X12280Y6600D1*
G1X12280Y6520D1*
G1X11960Y6200D1*
G1X10550Y6200D1*
G1X11960Y6200D1*
G1X12280Y6520D1*
G1X12280Y6600D1*
G1X12500Y6820D1*
G1X12790Y6820D1*
G1X12160Y800D2*
G1X11850Y800D1*
G1X12160Y800D2*
G1X11850Y800D1*
G1X12570Y2360D2*
G1X12320Y2360D1*
G1X12320Y2540D1*
G1X12820Y3230D1*
G1X12820Y3480D1*
G1X14395Y3480D1*
G1X14800Y3625D2*
G1X14800Y3740D1*
G1X15480Y3740D1*
G1X8570Y2710D2*
G1X8880Y2710D1*
G1X12570Y2360D2*
G1X12320Y2360D1*
G1X12320Y2180D1*
G1X12540Y1960D1*
G1X16960Y1960D1*
G1X17280Y2280D1*
G1X17280Y4600D1*
G1X16960Y4920D1*
G1X15500Y4920D1*
G1X15180Y5240D1*
G1X15180Y8440D1*
G1X14860Y8760D1*
G1X9020Y8760D1*
G1X8935Y8675D1*
G1X8600Y8675D1*
G1X8475Y8800D1*
G1X8475Y9040D1*
G1X8600Y9165D1*
G1X8920Y9165D1*
G1X9005Y9080D1*
G1X15180Y9080D1*
G1X15500Y8760D1*
G1X15500Y5560D1*
G1X15820Y5240D1*
G1X17280Y5240D1*
G1X17600Y4920D1*
G1X17600Y1960D1*
G1X17280Y1640D1*
G1X12320Y1640D1*
G1X12000Y1960D1*
G1X12000Y2120D1*
G1X11680Y2440D1*
G1X10900Y2440D1*
G1X10580Y2760D1*
G1X10580Y2920D1*
G1X10260Y3240D1*
G1X9740Y3240D1*
G1X9420Y3560D1*
G1X9420Y4020D1*
G1X9100Y4340D1*
G1X12570Y2360D2*
G1X12320Y2360D1*
G1X12320Y2540D1*
G1X12820Y3230D1*
G1X12820Y3480D1*
G1X14395Y3480D1*
G1X12570Y2360D2*
G1X12320Y2360D1*
G1X12320Y2540D1*
G1X12820Y3230D1*
G1X12820Y3480D1*
G1X14395Y3480D1*
G1X6120Y8945D2*
G1X6120Y9580D1*
G1X5920Y9580D1*
G1X5870Y9530D1*
G1X5920Y9580D1*
G1X6120Y9580D1*
G1X6167Y9627D1*
G1X6533Y9627D1*
G1X6533Y9307D2*
G1X6440Y9214D1*
G1X6440Y9130D1*
G1X7250Y9130D1*
G1X8880Y2710D2*
G1X8570Y2710D1*
G1X12570Y2360D2*
G1X12320Y2360D1*
G1X12320Y2180D1*
G1X12540Y1960D1*
G1X16960Y1960D1*
G1X17280Y2280D1*
G1X17280Y4600D1*
G1X16960Y4920D1*
G1X15500Y4920D1*
G1X15180Y5240D1*
G1X15180Y8440D1*
G1X14860Y8760D1*
G1X9020Y8760D1*
G1X8935Y8675D1*
G1X8600Y8675D1*
G1X8475Y8800D1*
G1X8475Y9040D1*
G1X8600Y9165D1*
G1X8920Y9165D1*
G1X9005Y9080D1*
G1X15180Y9080D1*
G1X15500Y8760D1*
G1X15500Y5560D1*
G1X15820Y5240D1*
G1X17280Y5240D1*
G1X17600Y4920D1*
G1X17600Y1960D1*
G1X17280Y1640D1*
G1X12320Y1640D1*
G1X12000Y1960D1*
G1X12000Y2120D1*
G1X11680Y2440D1*
G1X10900Y2440D1*
G1X10580Y2760D1*
G1X10580Y2920D1*
G1X10260Y3240D1*
G1X9740Y3240D1*
G1X9420Y3560D1*
G1X9420Y4020D1*
G1X9100Y4340D1*
G1X8455Y4340D1*
G1X11085Y4740D2*
G1X11380Y4740D1*
G1X11700Y4420D1*
G1X11700Y4080D1*
G1X11980Y3800D1*
G1X14740Y3800D1*
G1X14800Y3740D1*
G1X14800Y3625D1*
G1X14395Y3480D2*
G1X12820Y3480D1*
G1X12820Y3230D1*
G1X12320Y2540D1*
G1X12320Y2360D1*
G1X12570Y2360D1*
G1X11085Y4420D2*
G1X11380Y4125D1*
G1X11380Y3800D1*
G1X11700Y3480D1*
G1X12820Y3480D1*
G1X12820Y3230D1*
G1X12320Y2540D1*
G1X12320Y2360D1*
G1X12570Y2360D1*
G1X8880Y2710D2*
G1X8570Y2710D1*
G1X5870Y9530D2*
G1X5920Y9580D1*
G1X6120Y9580D1*
G1X6120Y8945D1*
G1X13200Y8420D2*
G1X13200Y7920D1*
G1X13520Y7600D1*
G1X13520Y6140D1*
G1X13200Y5820D1*
G1X12740Y5820D1*
G1X12660Y5900D1*
G1X12520Y5900D1*
G1X12520Y5640D1*
G1X13200Y8420D2*
G1X13200Y7920D1*
G1X9580Y7920D1*
G1X9500Y8000D1*
G1X7920Y8000D1*
G1X7760Y7840D1*
G1X7760Y6000D1*
G1X9240Y6000D1*
G1X5870Y9530D2*
G1X5920Y9580D1*
G1X6120Y9580D1*
G1X6120Y8945D1*
G1X6440Y8945D2*
G1X6440Y9130D1*
G1X7250Y9130D1*
G1X8455Y4660D2*
G1X9420Y4660D1*
G1X9740Y4340D1*
G1X9740Y3880D1*
G1X10060Y3560D1*
G1X10580Y3560D1*
G1X10900Y3240D1*
G1X10900Y3080D1*
G1X11220Y2760D1*
G1X12100Y2760D1*
G1X12320Y2540D1*
G1X12320Y2360D1*
G1X12570Y2360D1*
G1X9240Y6000D2*
G1X3600Y6000D1*
G1X3340Y6260D1*
G1X1080Y6260D1*
G1X760Y5940D1*
G1X760Y4400D1*
G1X1080Y4080D1*
G1X2060Y4080D1*
G1X11670Y6480D2*
G1X11240Y6480D1*
G1X11160Y6560D1*
G1X11160Y6720D1*
G1X11060Y6720D1*
G1X10980Y6640D1*
G1X10980Y6560D1*
G1X10900Y6480D1*
G1X10800Y6480D1*
G1X10800Y6680D1*
G1X10700Y6680D1*
G1X10620Y6600D1*
G1X10620Y6560D1*
G1X10540Y6480D1*
G1X10480Y6480D1*
G1X10360Y6600D1*
G1X10300Y6600D1*
G1X10180Y6480D1*
G1X9760Y6480D1*
G1X9680Y6400D1*
G1X9680Y5780D1*
G1X9500Y5600D1*
G1X9580Y5520D1*
G1X9860Y5520D1*
G1X9860Y5420D1*
G1X9780Y5340D1*
G1X9760Y5340D1*
G1X9680Y5260D1*
G1X9680Y5240D1*
G1X9600Y5160D1*
G1X9240Y5160D1*
G1X9240Y5080D1*
G1X9060Y5080D1*
G1X9060Y5240D1*
G1X8880Y5240D1*
G1X8880Y5160D1*
G1X8570Y5160D1*
G1X7840Y4500D2*
G1X7580Y4500D1*
G1X7560Y4520D1*
G1X7480Y4520D1*
G1X7320Y4360D1*
G1X7300Y4360D1*
G1X7140Y4520D1*
G1X7120Y4520D1*
G1X6960Y4360D1*
G1X6940Y4360D1*
G1X6780Y4520D1*
G1X6760Y4520D1*
G1X6600Y4360D1*
G1X6580Y4360D1*
G1X6420Y4520D1*
G1X6400Y4520D1*
G1X6240Y4360D1*
G1X6220Y4360D1*
G1X6060Y4520D1*
G1X6040Y4520D1*
G1X5880Y4360D1*
G1X5860Y4360D1*
G1X5700Y4520D1*
G1X5680Y4520D1*
G1X5520Y4360D1*
G1X5460Y4360D1*
G1X5380Y4440D1*
G1X5100Y4440D1*
G1X5020Y4360D1*
G1X5020Y4090D1*
G1X5010Y4080D1*
G1X8020Y7750D2*
G1X8020Y7060D1*
G1X8100Y6980D1*
G1X8200Y6980D1*
G1X8340Y7120D1*
G1X8380Y7120D1*
G1X8520Y6980D1*
G1X8560Y6980D1*
G1X8700Y7120D1*
G1X8740Y7120D1*
G1X8880Y6980D1*
G1X8920Y6980D1*
G1X9020Y7080D1*
G1X9100Y7080D1*
G1X9200Y6980D1*
G1X10460Y6980D1*
G1X10460Y7060D1*
G1X10640Y7060D1*
G1X10640Y6980D1*
G1X10820Y6980D1*
G1X10820Y7060D1*
G1X11000Y7060D1*
G1X11000Y6980D1*
G1X12010Y6980D1*
G1X4220Y7630D2*
G1X4230Y7620D1*
G1X6940Y7620D1*
G1X7040Y7520D1*
G1X7140Y7520D1*
G1X7180Y7560D1*
G1X7180Y8340D1*
G1X7260Y8420D1*
G1X7800Y8420D1*
G1X7840Y8460D1*
G1X7840Y8500D1*
G1X7860Y8520D1*
G1X7980Y8520D1*
G1X8020Y8480D1*
G1X8020Y8440D1*
G1X8040Y8420D1*
G1X12220Y8420D1*
G1X9690Y7500D2*
G1X12490Y7500D1*
G1X12800Y7190D1*
G1X2650Y5260D2*
G1X4500Y5260D1*
G1X5020Y4740D1*
G1X6840Y4740D1*
G1X7000Y4900D1*
G1X7680Y4900D1*
G1X7780Y5000D1*
G1X8200Y5000D1*
G1X8300Y4900D1*
G1X10480Y4900D1*
G1X10500Y4920D1*
G1X11260Y4920D1*
G1X11320Y4980D1*
G1X12060Y4980D1*
G1X12140Y4900D1*
G1X12940Y4900D1*
G1X13040Y5000D1*
G1X13740Y5000D1*
G1X14180Y5440D1*
G1X14180Y5870D1*
G1X14190Y5880D1*
G1X11100Y5260D2*
G1X11480Y5640D1*
G1X12520Y5640D1*
G1X8170Y8250D2*
G1X8170Y8170D1*
G1X8980Y5830D2*
G1X8980Y5410D1*
G1X12490Y7098D2*
G1X12490Y6694D1*
G1X7450Y8250D2*
G1X7450Y6569D1*
G1X12850Y6950D2*
G1X12850Y6626D1*
G1X13370Y7990D2*
G1X13638Y7722D1*
G1X7630Y5830D2*
G1X7630Y5090D1*
G1X12400Y7021D2*
G1X12400Y6549D1*
G1X13210Y6920D2*
G1X13210Y6070D1*
G1X300Y4810D2*
G1X125Y4810D1*
G1X10600Y9875D2*
G1X10600Y9080D1*
G1X4120Y5600D2*
G1X4120Y5430D1*
G1X1069Y5710D2*
G1X930Y5710D1*
G1X3598Y6340D2*
G1X3500Y6340D1*
G1X9510Y6160D2*
G1X9425Y6160D1*
G1X4500Y5430D2*
G1X2826Y5430D1*
G1X4390Y5600D2*
G1X4390Y5430D1*
G1X6010Y5830D2*
G1X6010Y4910D1*
G1X4660Y7450D2*
G1X4660Y7232D1*
G1X6100Y5830D2*
G1X6100Y4910D1*
G1X10960Y8250D2*
G1X10960Y8090D1*
G1X6982Y6430D2*
G1X6130Y6430D1*
G1X5285Y5080D2*
G1X4920Y5080D1*
G1X12670Y3480D2*
G1X12670Y1960D1*
G1X13840Y3480D2*
G1X13840Y1960D1*
G1X6640Y5830D2*
G1X6640Y4910D1*
G1X4620Y5380D2*
G1X5090Y4910D1*
G1X6880Y5020D2*
G1X6770Y4910D1*
G1X6190Y5830D2*
G1X6190Y4910D1*
G1X10690Y8250D2*
G1X10690Y8090D1*
G1X18075Y4540D2*
G1X17600Y4540D1*
G1X18075Y3460D2*
G1X17600Y3460D1*
G1X7142Y5070D2*
G1X7000Y5070D1*
G1X9064Y5830D2*
G1X7760Y5830D1*
G1X18075Y4720D2*
G1X17600Y4720D1*
G1X9620Y8120D2*
G1X9650Y8090D1*
G1X6280Y5830D2*
G1X6280Y4910D1*
G1X8200Y5170D2*
G1X7780Y5170D1*
G1X7450Y5830D2*
G1X7450Y5392D1*
G1X13480Y3480D2*
G1X13480Y1960D1*
G1X8360Y6900D2*
G1X8320Y6860D1*
G1X10160Y6700D2*
G1X7930Y6700D1*
G1X9740Y3786D2*
G1X9966Y3560D1*
G1X10060Y8250D2*
G1X10060Y8090D1*
G1X10480Y4730D2*
G1X8318Y4730D1*
G1X10420Y5696D2*
G1X10420Y5070D1*
G1X12370Y5980D2*
G1X10498Y5980D1*
G1X10855Y5260D2*
G1X9940Y5260D1*
G1X11390Y4810D2*
G1X11380Y4800D1*
G1X5920Y6445D2*
G1X5920Y6170D1*
G1X10924Y5090D2*
G1X10500Y5090D1*
G1X10870Y5176D2*
G1X10870Y5090D1*
G1X12670Y6257D2*
G1X12670Y6070D1*
G1X11220Y4740D2*
G1X11025Y4740D1*
G1X12940Y4730D2*
G1X12140Y4730D1*
G1X13836Y6340D2*
G1X13690Y6340D1*
G1X8710Y6890D2*
G1X8710Y6170D1*
G1X15180Y6790D2*
G1X13690Y6790D1*
G1X18075Y5350D2*
G1X15616Y5350D1*
G1X17080Y9875D2*
G1X17080Y5240D1*
G1X16110Y9040D2*
G1X15126Y9040D1*
G1X18075Y1660D2*
G1X17197Y1660D1*
G1X13740Y4830D2*
G1X13110Y4830D1*
G1X13370Y8244D2*
G1X13370Y7990D1*
G1X15180Y5800D2*
G1X14422Y5800D1*
G1X15180Y5980D2*
G1X14414Y5980D1*
G1X15370Y9875D2*
G1X15370Y8796D1*
G1X14110Y8760D2*
G1X14110Y6265D1*
G1X14350Y5694D2*
G1X14350Y5440D1*
G1X15180Y6070D2*
G1X14345Y6070D1*
G1X15180Y5890D2*
G1X14435Y5890D1*
G1X15180Y5530D2*
G1X14350Y5530D1*
G1X14200Y8760D2*
G1X14200Y6125D1*
G1X14290Y8760D2*
G1X14290Y6104D1*
G1X14380Y8760D2*
G1X14380Y6035D1*
G1X15434Y5080D2*
G1X14060Y5080D1*
G1X6460Y5830D2*
G1X6460Y4910D1*
G1X7610Y5070D2*
G1X7598Y5070D1*
G1X10510Y5841D2*
G1X10510Y5090D1*
G1X11590Y6248D2*
G1X11590Y5810D1*
G1X13350Y6790D2*
G1X12228Y6790D1*
G1X11360Y5760D2*
G1X11105Y5505D1*
G1X11860Y6325D2*
G1X11860Y5810D1*
G1X11990Y4810D2*
G1X12018Y4782D1*
G1X11423Y5800D2*
G1X10498Y5800D1*
G1X13210Y6070D2*
G1X10436Y6070D1*
G1X12344Y5810D2*
G1X11480Y5810D1*
G1X10608Y2830D2*
G1X9916Y2830D1*
G1X10694Y2740D2*
G1X10005Y2740D1*
G1X10801Y670D2*
G1X10320Y670D1*
G1X10878Y760D2*
G1X10320Y760D1*
G1X10942Y3280D2*
G1X10766Y3280D1*
G1X9700Y4730D2*
G1X9700Y4286D1*
G1X9140Y2480D2*
G1X9070Y2480D1*
G1X9970Y3240D2*
G1X9970Y2776D1*
G1X12000Y2110D2*
G1X10040Y2110D1*
G1X15795Y2290D2*
G1X12320Y2290D1*
G1X7630Y2931D2*
G1X7630Y2616D1*
G1X8530Y4730D2*
G1X8530Y4660D1*
G1X14976Y2920D2*
G1X10966Y2920D1*
G1X9420Y3910D2*
G1X8003Y3910D1*
G1X9524Y3550D2*
G1X7920Y3550D1*
G1X8620Y4340D2*
G1X8620Y3120D1*
G1X7894Y2920D2*
G1X7604Y2920D1*
G1X7540Y4335D2*
G1X7540Y4048D1*
G1X14454Y1200D2*
G1X11590Y1200D1*
G1X7804Y3010D2*
G1X7721Y3010D1*
G1X7749Y3064D2*
G1X7967Y2847D1*
G1X8710Y4340D2*
G1X8710Y3120D1*
G1X8260Y4072D2*
G1X8260Y3120D1*
G1X10510Y6817D2*
G1X10510Y6730D1*
G1X12220Y6854D2*
G1X12220Y6801D1*
G1X14416Y3480D2*
G1X11860Y3480D1*
G1X5592Y7080D2*
G1X5540Y7080D1*
G1X2770Y8400D2*
G1X2770Y6430D1*
G1X5674Y6610D2*
G1X5566Y6610D1*
G1X14560Y3148D2*
G1X14560Y1960D1*
G1X7920Y3754D2*
G1X7920Y3346D1*
G1X7270Y5830D2*
G1X7270Y5384D1*
G1X5990Y6430D2*
G1X5504Y6430D1*
G1X7270Y7410D2*
G1X7270Y6757D1*
G1X5768Y6520D2*
G1X5547Y6520D1*
G1X8710Y4730D2*
G1X8710Y4660D1*
G1X10870Y1200D2*
G1X10870Y754D1*
G1X6550Y5830D2*
G1X6550Y4910D1*
G1X5613Y6657D2*
G1X5554Y6598D1*
G1X8890Y4730D2*
G1X8890Y4660D1*
G1X7990Y3856D2*
G1X7990Y3276D1*
G1X11140Y6342D2*
G1X11140Y5540D1*
G1X9070Y2560D2*
G1X8075Y2560D1*
G1X7590Y6700D2*
G1X7376Y6700D1*
G1X11310Y5710D2*
G1X10436Y5710D1*
G1X8800Y4340D2*
G1X8800Y3120D1*
G1X7016Y8387D2*
G1X6533Y8387D1*
G1X18075Y3730D2*
G1X17600Y3730D1*
G1X4480Y8400D2*
G1X4480Y7790D1*
G1X6533Y9085D2*
G1X6533Y8452D1*
G1X11781Y4270D2*
G1X11700Y4270D1*
G1X18075Y3010D2*
G1X17600Y3010D1*
G1X7167Y9085D2*
G1X6533Y9085D1*
G1X6533Y9307D2*
G1X6474Y9307D1*
G1X7167Y9151D2*
G1X6533Y9151D1*
G1X7167Y9784D2*
G1X7167Y9151D1*
G1X7167Y9784D2*
G1X6533Y9784D1*
G1X9700Y3374D2*
G1X9700Y3046D1*
G1X9340Y4730D2*
G1X9340Y4639D1*
G1X6150Y3910D2*
G1X5186Y3910D1*
G1X4030Y9875D2*
G1X4030Y8720D1*
G1X1150Y6090D2*
G1X930Y5870D1*
G1X5690Y4290D2*
G1X5738Y4242D1*
G1X8800Y5830D2*
G1X8800Y5390D1*
G1X16870Y6730D2*
G1X16110Y6730D1*
G1X16110Y5970D1*
G1X16870Y5970D2*
G1X16110Y5970D1*
G1X16870Y6730D2*
G1X16870Y5970D1*
G1X16870Y9180D2*
G1X16110Y9180D1*
G1X16110Y8420D1*
G1X16870Y8420D2*
G1X16110Y8420D1*
G1X16870Y9180D2*
G1X16870Y8420D1*
G1X17280Y4360D2*
G1X12141Y4360D1*
G1X18075Y8860D2*
G1X17865Y8860D1*
G1X6550Y3380D2*
G1X6550Y2180D1*
G1X10834Y400D2*
G1X10246Y400D1*
G1X11200Y1030D2*
G1X11200Y726D1*
G1X11660Y1030D2*
G1X11660Y570D1*
G1X13480Y1640D2*
G1X13480Y1520D1*
G1X8890Y4340D2*
G1X8890Y3120D1*
G1X9880Y6310D2*
G1X9880Y5689D1*
G1X9675Y3071D2*
G1X9993Y2753D1*
G1X9070Y2800D2*
G1X9070Y2480D1*
G1X18075Y2740D2*
G1X17600Y2740D1*
G1X18075Y2650D2*
G1X17600Y2650D1*
G1X18075Y9875D2*
G1X12836Y9875D1*
G1X13105Y6970D2*
G1X12908Y6970D1*
G1X17280Y2200D2*
G1X17023Y2200D1*
G1X17260Y2619D2*
G1X17260Y2166D1*
G1X17170Y2387D2*
G1X17170Y2076D1*
G1X18075Y2110D2*
G1X17600Y2110D1*
G1X18075Y1210D2*
G1X14834Y1210D1*
G1X17280Y4540D2*
G1X11486Y4540D1*
G1X14300Y5320D2*
G1X13862Y4882D1*
G1X10060Y3240D2*
G1X10060Y1864D1*
G1X11590Y1200D2*
G1X11590Y1030D1*
G1X13110Y4830D2*
G1X13062Y4782D1*
G1X15180Y6880D2*
G1X13690Y6880D1*
G1X14560Y8760D2*
G1X14560Y3793D1*
G1X13840Y1640D2*
G1X13840Y1520D1*
G1X12048Y1965D2*
G1X12327Y1687D1*
G1X11154Y4420D2*
G1X11380Y4194D1*
G1X13300Y6160D2*
G1X10430Y6160D1*
G1X970Y8400D2*
G1X970Y7370D1*
G1X11660Y1030D2*
G1X11590Y1030D1*
G1X11410Y2440D2*
G1X11410Y1520D1*
G1X10574Y1390D2*
G1X10320Y1390D1*
G1X18075Y400D2*
G1X11205Y400D1*
G1X7720Y9875D2*
G1X7720Y8961D1*
G1X7920Y3346D2*
G1X8146Y3120D1*
G1X1028Y5530D2*
G1X930Y5530D1*
G1X7720Y4286D2*
G1X7720Y4182D1*
G1X18075Y3100D2*
G1X17600Y3100D1*
G1X18075Y3190D2*
G1X17600Y3190D1*
G1X7450Y2915D2*
G1X7450Y2180D1*
G1X17129Y8680D2*
G1X16870Y8680D1*
G1X4030Y8400D2*
G1X4030Y7785D1*
G1X6010Y3380D2*
G1X6010Y2180D1*
G1X1030Y5620D2*
G1X930Y5620D1*
G1X7600Y3550D2*
G1X7346Y3550D1*
G1X4300Y5600D2*
G1X4300Y5430D1*
G1X7130Y3700D2*
G1X4625Y3700D1*
G1X10780Y2654D2*
G1X10780Y1841D1*
G1X12040Y3918D2*
G1X12040Y3800D1*
G1X2592Y5620D2*
G1X1510Y5620D1*
G1X18075Y1570D2*
G1X14766Y1570D1*
G1X1060Y8400D2*
G1X1060Y7415D1*
G1X300Y4630D2*
G1X125Y4630D1*
G1X9070Y4340D2*
G1X9070Y3120D1*
G1X12384Y9875D2*
G1X878Y9875D1*
G1X16360Y4920D2*
G1X16360Y3625D1*
G1X6094Y8860D2*
G1X819Y8860D1*
G1X674Y8680D2*
G1X125Y8680D1*
G1X4689Y8320D2*
G1X766Y8320D1*
G1X4782Y7450D2*
G1X4386Y7450D1*
G1X12534Y7216D2*
G1X12555Y7195D1*
G1X667Y8673D2*
G1X348Y8355D1*
G1X16270Y4920D2*
G1X16270Y3610D1*
G1X18075Y310D2*
G1X10156Y310D1*
G1X3400Y8400D2*
G1X3400Y6419D1*
G1X2410Y6090D2*
G1X2410Y5309D1*
G1X1600Y6463D2*
G1X1600Y6430D1*
G1X2815Y6070D2*
G1X1130Y6070D1*
G1X4430Y5090D2*
G1X2826Y5090D1*
G1X2500Y6090D2*
G1X2500Y5454D1*
G1X960Y6380D2*
G1X642Y6062D1*
G1X8440Y6830D2*
G1X8440Y6170D1*
G1X6790Y4270D2*
G1X6750Y4270D1*
G1X5690Y4290D2*
G1X5642Y4242D1*
G1X7074Y3370D2*
G1X4616Y3370D1*
G1X11410Y3867D2*
G1X11410Y3304D1*
G1X15100Y2726D2*
G1X15100Y1960D1*
G1X520Y8838D2*
G1X520Y8526D1*
G1X12498Y6700D2*
G1X12262Y6700D1*
G1X12940Y8760D2*
G1X12940Y8423D1*
G1X10038Y5970D2*
G1X9900Y5970D1*
G1X7590Y6340D2*
G1X7376Y6340D1*
G1X12396Y6520D2*
G1X12221Y6520D1*
G1X11144Y6340D2*
G1X10996Y6340D1*
G1X11230Y6310D2*
G1X11230Y5630D1*
G1X7990Y2828D2*
G1X7990Y2684D1*
G1X9610Y4730D2*
G1X9610Y4376D1*
G1X13390Y8265D2*
G1X13390Y7970D1*
G1X8530Y2800D2*
G1X8530Y2180D1*
G1X10780Y8250D2*
G1X10780Y8090D1*
G1X10510Y4733D2*
G1X10510Y4425D1*
G1X11680Y8760D2*
G1X11680Y8590D1*
G1X13370Y8244D2*
G1X13370Y7990D1*
G1X10384Y6340D2*
G1X10360Y6340D1*
G1X10900Y6310D2*
G1X10800Y6310D1*
G1X13390Y8760D2*
G1X13390Y8575D1*
G1X9070Y2650D2*
G1X8025Y2650D1*
G1X3580Y5600D2*
G1X3580Y5430D1*
G1X15180Y5710D2*
G1X14366Y5710D1*
G1X10670Y6370D2*
G1X10662Y6362D1*
G1X18075Y1480D2*
G1X14854Y1480D1*
G1X7720Y3008D2*
G1X7720Y2704D1*
G1X13030Y7076D2*
G1X13030Y5990D1*
G1X10600Y6321D2*
G1X10600Y5090D1*
G1X7960Y6880D2*
G1X7930Y6880D1*
G1X10704Y6340D2*
G1X10636Y6340D1*
G1X10780Y6311D2*
G1X10780Y5090D1*
G1X10690Y4386D2*
G1X10690Y4335D1*
G1X2405Y5260D2*
G1X930Y5260D1*
G1X3940Y5600D2*
G1X3940Y5430D1*
G1X13030Y8760D2*
G1X13030Y8596D1*
G1X10960Y6321D2*
G1X10960Y5461D1*
G1X1060Y5444D2*
G1X1060Y4780D1*
G1X2136Y4900D2*
G1X930Y4900D1*
G1X10580Y6800D2*
G1X10502Y6722D1*
G1X13120Y6959D2*
G1X13120Y5990D1*
G1X2716Y5980D2*
G1X1040Y5980D1*
G1X1062Y5440D2*
G1X930Y5440D1*
G1X10540Y6310D2*
G1X10480Y6310D1*
G1X10690Y6350D2*
G1X10690Y5090D1*
G1X2115Y4990D2*
G1X930Y4990D1*
G1X10150Y6810D2*
G1X10150Y6690D1*
G1X10240Y6810D2*
G1X10240Y6759D1*
G1X13300Y8760D2*
G1X13300Y8644D1*
G1X10480Y6720D2*
G1X10490Y6710D1*
G1X3580Y8400D2*
G1X3580Y6260D1*
G1X11070Y6410D2*
G1X11118Y6362D1*
G1X11660Y570D2*
G1X11265Y570D1*
G1X10360Y6770D2*
G1X10300Y6770D1*
G1X3670Y5600D2*
G1X3670Y5430D1*
G1X1870Y8400D2*
G1X1870Y6430D1*
G1X10180Y6720D2*
G1X10110Y6650D1*
G1X880Y6499D2*
G1X880Y6300D1*
G1X8080Y2800D2*
G1X8080Y2539D1*
G1X2320Y8400D2*
G1X2320Y6430D1*
G1X12350Y5890D2*
G1X10515Y5890D1*
G1X9790Y6810D2*
G1X9790Y6650D1*
G1X7810Y3004D2*
G1X7810Y2733D1*
G1X3654Y6430D2*
G1X3340Y6430D1*
G1X3040Y8400D2*
G1X3040Y6430D1*
G1X9900Y5980D2*
G1X9850Y5980D1*
G1X9900Y6250D2*
G1X9850Y6250D1*
G1X9900Y6070D2*
G1X9850Y6070D1*
G1X10420Y6810D2*
G1X10420Y6759D1*
G1X1780Y6709D2*
G1X1780Y6430D1*
G1X1960Y8400D2*
G1X1960Y6430D1*
G1X9700Y6810D2*
G1X9700Y6639D1*
G1X8890Y5830D2*
G1X8890Y5410D1*
G1X7720Y8250D2*
G1X7720Y8040D1*
G1X2230Y8400D2*
G1X2230Y6430D1*
G1X10510Y6310D2*
G1X10510Y5939D1*
G1X9250Y5755D2*
G1X9250Y5330D1*
G1X9640Y6600D2*
G1X9562Y6522D1*
G1X9900Y6160D2*
G1X9850Y6160D1*
G1X4660Y5600D2*
G1X4660Y5340D1*
G1X10872Y5170D2*
G1X9835Y5170D1*
G1X9430Y5845D2*
G1X9430Y5770D1*
G1X9970Y5290D2*
G1X9970Y5070D1*
G1X3490Y8400D2*
G1X3490Y6350D1*
G1X9510Y6400D2*
G1X9510Y5850D1*
G1X9160Y6815D2*
G1X9160Y6232D1*
G1X9340Y5776D2*
G1X9340Y5657D1*
G1X10025Y5890D2*
G1X9850Y5890D1*
G1X9510Y5850D2*
G1X9382Y5722D1*
G1X5110Y6438D2*
G1X5110Y6170D1*
G1X8440Y5830D2*
G1X8440Y5368D1*
G1X5200Y6361D2*
G1X5200Y6170D1*
G1X10030Y5520D2*
G1X10030Y5420D1*
G1X9380Y5480D2*
G1X9458Y5402D1*
G1X8620Y5830D2*
G1X8620Y5400D1*
G1X7990Y5830D2*
G1X7990Y5170D1*
G1X8350Y5830D2*
G1X8350Y5268D1*
G1X2050Y8400D2*
G1X2050Y6430D1*
G1X11220Y5620D2*
G1X9997Y5620D1*
G1X9970Y6810D2*
G1X9970Y6650D1*
G1X9970Y5970D2*
G1X9970Y5650D1*
G1X4660Y7048D2*
G1X4660Y6170D1*
G1X8260Y5830D2*
G1X8260Y5159D1*
G1X4750Y6864D2*
G1X4750Y6170D1*
G1X11130Y5530D2*
G1X10030Y5530D1*
G1X8710Y5830D2*
G1X8710Y5361D1*
G1X9860Y5690D2*
G1X9824Y5690D1*
G1X9880Y5202D2*
G1X9880Y5070D1*
G1X9980Y5300D2*
G1X9902Y5222D1*
G1X7590Y7330D2*
G1X6337Y7330D1*
G1X9850Y6310D2*
G1X9850Y5780D1*
G1X5470Y6394D2*
G1X5470Y6170D1*
G1X9340Y4194D2*
G1X9340Y3120D1*
G1X9525Y5330D2*
G1X9240Y5330D1*
G1X7450Y6471D2*
G1X7450Y6170D1*
G1X10934Y5440D2*
G1X10030Y5440D1*
G1X9610Y6810D2*
G1X9610Y6570D1*
G1X7930Y6910D2*
G1X7930Y6170D1*
G1X6730Y7450D2*
G1X6730Y6170D1*
G1X9430Y5430D2*
G1X9430Y5330D1*
G1X6280Y6477D2*
G1X6280Y6170D1*
G1X9160Y5768D2*
G1X9160Y5377D1*
G1X10872Y5350D2*
G1X10015Y5350D1*
G1X6910Y7410D2*
G1X6910Y6170D1*
G1X7590Y6250D2*
G1X4075Y6250D1*
G1X6010Y6427D2*
G1X6010Y6170D1*
G1X9800Y5120D2*
G1X9750Y5070D1*
G1X9070Y6870D2*
G1X9070Y6176D1*
G1X7810Y5830D2*
G1X7810Y5170D1*
G1X9790Y5110D2*
G1X9790Y5070D1*
G1X5290Y6336D2*
G1X5290Y6170D1*
G1X7360Y6326D2*
G1X7360Y6170D1*
G1X7000Y6394D2*
G1X7000Y6170D1*
G1X6640Y7450D2*
G1X6640Y6170D1*
G1X7590Y7240D2*
G1X6438Y7240D1*
G1X8080Y5830D2*
G1X8080Y5170D1*
G1X4430Y5090D2*
G1X4898Y4622D1*
G1X9070Y8250D2*
G1X9070Y8170D1*
G1X9340Y6810D2*
G1X9340Y6224D1*
G1X6100Y6427D2*
G1X6100Y6170D1*
G1X5020Y6714D2*
G1X5020Y6170D1*
G1X6460Y6628D2*
G1X6460Y6170D1*
G1X9700Y8250D2*
G1X9700Y8090D1*
G1X9513Y6430D2*
G1X7930Y6430D1*
G1X6190Y6442D2*
G1X6190Y6170D1*
G1X8750Y5350D2*
G1X8725Y5350D1*
G1X10042Y5800D2*
G1X9850Y5800D1*
G1X10420Y5070D2*
G1X9750Y5070D1*
G1X9650Y6610D2*
G1X7930Y6610D1*
G1X6820Y7450D2*
G1X6820Y6170D1*
G1X9060Y5410D2*
G1X8880Y5410D1*
G1X6370Y6534D2*
G1X6370Y6170D1*
G1X10600Y8250D2*
G1X10600Y8090D1*
G1X10570Y6790D2*
G1X7930Y6790D1*
G1X9510Y6340D2*
G1X7930Y6340D1*
G1X9560Y6520D2*
G1X7930Y6520D1*
G1X12400Y8254D2*
G1X12400Y8090D1*
G1X8800Y6830D2*
G1X8800Y6170D1*
G1X11770Y8250D2*
G1X11770Y8090D1*
G1X9070Y5824D2*
G1X9070Y5410D1*
G1X10510Y8250D2*
G1X10510Y8090D1*
G1X11590Y8250D2*
G1X11590Y8090D1*
G1X12310Y8192D2*
G1X12310Y8090D1*
G1X8800Y2800D2*
G1X8800Y2180D1*
G1X7450Y4250D2*
G1X7450Y3446D1*
G1X8980Y4730D2*
G1X8980Y4660D1*
G1X7664Y4330D2*
G1X7580Y4330D1*
G1X8440Y4340D2*
G1X8440Y3120D1*
G1X8350Y4309D2*
G1X8350Y3120D1*
G1X10240Y8250D2*
G1X10240Y8090D1*
G1X8350Y4730D2*
G1X8350Y4711D1*
G1X11500Y4810D2*
G1X11500Y4526D1*
G1X8325Y5170D2*
G1X7615Y5170D1*
G1X9070Y4730D2*
G1X9070Y4660D1*
G1X7900Y5830D2*
G1X7900Y5170D1*
G1X7756Y4270D2*
G1X7470Y4270D1*
G1X10330Y8250D2*
G1X10330Y8090D1*
G1X8890Y6810D2*
G1X8890Y6170D1*
G1X10150Y8250D2*
G1X10150Y8090D1*
G1X8620Y2800D2*
G1X8620Y2180D1*
G1X7320Y4190D2*
G1X7300Y4190D1*
G1X11950Y8250D2*
G1X11950Y8090D1*
G1X7536Y4336D2*
G1X7442Y4242D1*
G1X7566Y4090D2*
G1X7305Y4090D1*
G1X11860Y8250D2*
G1X11860Y8090D1*
G1X7630Y4330D2*
G1X7630Y4148D1*
G1X2558Y5710D2*
G1X1471Y5710D1*
G1X7711Y4180D2*
G1X7284Y4180D1*
G1X10870Y8250D2*
G1X10870Y8090D1*
G1X15634Y2650D2*
G1X12016Y2650D1*
G1X12040Y4762D2*
G1X12040Y4402D1*
G1X6820Y4240D2*
G1X6820Y4129D1*
G1X11050Y8250D2*
G1X11050Y8090D1*
G1X6730Y3380D2*
G1X6730Y2180D1*
G1X6815Y4090D2*
G1X6598Y4090D1*
G1X11770Y4810D2*
G1X11770Y4244D1*
G1X11230Y8250D2*
G1X11230Y8090D1*
G1X12670Y8131D2*
G1X12670Y8090D1*
G1X18075Y670D2*
G1X11660Y670D1*
G1X6770Y4290D2*
G1X6722Y4242D1*
G1X10580Y3010D2*
G1X9736Y3010D1*
G1X12130Y3952D2*
G1X12130Y3800D1*
G1X11860Y4810D2*
G1X11860Y4361D1*
G1X6533Y9784D2*
G1X6533Y9627D1*
G1X7180Y5830D2*
G1X7180Y5315D1*
G1X5276Y4990D2*
G1X5010Y4990D1*
G1X6370Y3380D2*
G1X6370Y2180D1*
G1X12220Y4052D2*
G1X12220Y3800D1*
G1X6600Y4190D2*
G1X6580Y4190D1*
G1X18075Y490D2*
G1X11255Y490D1*
G1X6533Y9220D2*
G1X6440Y9220D1*
G1X6533Y8680D2*
G1X6524Y8680D1*
G1X5334Y5170D2*
G1X4830Y5170D1*
G1X7000Y2634D2*
G1X7000Y2180D1*
G1X12310Y4730D2*
G1X12310Y3800D1*
G1X6533Y8500D2*
G1X6421Y8500D1*
G1X10664Y4750D2*
G1X10560Y4750D1*
G1X12490Y4730D2*
G1X12490Y3800D1*
G1X6440Y9274D2*
G1X6440Y8885D1*
G1X6533Y8770D2*
G1X6515Y8770D1*
G1X6533Y8590D2*
G1X6499Y8590D1*
G1X6410Y4290D2*
G1X6362Y4242D1*
G1X17280Y4270D2*
G1X12219Y4270D1*
G1X13570Y4830D2*
G1X13570Y3800D1*
G1X6410Y4290D2*
G1X6458Y4242D1*
G1X11200Y760D2*
G1X11161Y760D1*
G1X7360Y5830D2*
G1X7360Y5405D1*
G1X8620Y9875D2*
G1X8620Y9144D1*
G1X5560Y5830D2*
G1X5560Y5626D1*
G1X7360Y2634D2*
G1X7360Y2180D1*
G1X13660Y4830D2*
G1X13660Y3800D1*
G1X6240Y4190D2*
G1X6220Y4190D1*
G1X12400Y4730D2*
G1X12400Y3800D1*
G1X13120Y4830D2*
G1X13120Y3800D1*
G1X13210Y4830D2*
G1X13210Y3800D1*
G1X7720Y5830D2*
G1X7720Y5159D1*
G1X13840Y4862D2*
G1X13840Y3800D1*
G1X6533Y8860D2*
G1X6465Y8860D1*
G1X12670Y4730D2*
G1X12670Y3800D1*
G1X11756Y4180D2*
G1X11700Y4180D1*
G1X17280Y3910D2*
G1X11816Y3910D1*
G1X12760Y4730D2*
G1X12760Y3800D1*
G1X6640Y3380D2*
G1X6640Y2180D1*
G1X13300Y4830D2*
G1X13300Y3800D1*
G1X13030Y4756D2*
G1X13030Y3800D1*
G1X10272Y4270D2*
G1X9712Y4270D1*
G1X9740Y4180D2*
G1X9740Y3786D1*
G1X6050Y4290D2*
G1X6098Y4242D1*
G1X12580Y4730D2*
G1X12580Y3800D1*
G1X9098Y5800D2*
G1X5386Y5800D1*
G1X12850Y4730D2*
G1X12850Y3800D1*
G1X4750Y5600D2*
G1X4750Y5250D1*
G1X11724Y3550D2*
G1X10476Y3550D1*
G1X5880Y4190D2*
G1X5860Y4190D1*
G1X14290Y5310D2*
G1X14290Y3800D1*
G1X9420Y4114D2*
G1X9420Y3720D1*
G1X5740Y5830D2*
G1X5740Y5118D1*
G1X11320Y4254D2*
G1X11320Y3421D1*
G1X13390Y4830D2*
G1X13390Y3800D1*
G1X11590Y4810D2*
G1X11590Y4436D1*
G1X13750Y4830D2*
G1X13750Y3800D1*
G1X10404Y3190D2*
G1X8076Y3190D1*
G1X11680Y4810D2*
G1X11680Y4337D1*
G1X9794Y3280D2*
G1X7986Y3280D1*
G1X11260Y4750D2*
G1X11016Y4750D1*
G1X10598Y4540D2*
G1X9446Y4540D1*
G1X12130Y3480D2*
G1X12130Y2536D1*
G1X11765Y4090D2*
G1X11700Y4090D1*
G1X6050Y4290D2*
G1X6002Y4242D1*
G1X10580Y3014D2*
G1X10580Y2920D1*
G1X11214Y4360D2*
G1X10948Y4360D1*
G1X9331Y5620D2*
G1X5566Y5620D1*
G1X11270Y1030D2*
G1X11200Y1030D1*
G1X5830Y5830D2*
G1X5830Y4910D1*
G1X11950Y3480D2*
G1X11950Y2716D1*
G1X15655Y2560D2*
G1X12106Y2560D1*
G1X5520Y4190D2*
G1X5460Y4190D1*
G1X10354Y3240D2*
G1X10580Y3014D1*
G1X13480Y4830D2*
G1X13480Y3800D1*
G1X970Y6430D2*
G1X620Y6430D1*
G1X10784Y2650D2*
G1X10040Y2650D1*
G1X10420Y3948D2*
G1X10420Y3560D1*
G1X10580Y2920D2*
G1X9826Y2920D1*
G1X10900Y3080D2*
G1X10900Y2986D1*
G1X11140Y1532D2*
G1X11140Y1520D1*
G1X5310Y4270D2*
G1X5340Y4240D1*
G1X5190Y4270D2*
G1X5190Y4246D1*
G1X11680Y3594D2*
G1X11680Y2760D1*
G1X790Y6610D2*
G1X620Y6610D1*
G1X9420Y4000D2*
G1X8206Y4000D1*
G1X10732Y4360D2*
G1X10666Y4360D1*
G1X6148Y4000D2*
G1X5242Y4000D1*
G1X11770Y3508D2*
G1X11770Y2760D1*
G1X5134Y5600D2*
G1X5360Y5374D1*
G1X12760Y3480D2*
G1X12760Y1960D1*
G1X12490Y3480D2*
G1X12490Y1976D1*
G1X6182Y4090D2*
G1X5255Y4090D1*
G1X6282Y4180D2*
G1X5234Y4180D1*
G1X4930Y4596D2*
G1X4930Y4510D1*
G1X12850Y3480D2*
G1X12850Y1960D1*
G1X4850Y4360D2*
G1X4850Y4265D1*
G1X6306Y3730D2*
G1X4595Y3730D1*
G1X4980Y4560D2*
G1X4902Y4482D1*
G1X4840Y4680D2*
G1X4840Y4256D1*
G1X12400Y3480D2*
G1X12400Y2066D1*
G1X10780Y4342D2*
G1X10780Y3266D1*
G1X5200Y4270D2*
G1X5200Y4235D1*
G1X12220Y3480D2*
G1X12220Y2446D1*
G1X5310Y4270D2*
G1X5190Y4270D1*
G1X13030Y3480D2*
G1X13030Y1960D1*
G1X8080Y6811D2*
G1X8080Y6170D1*
G1X13390Y3480D2*
G1X13390Y1960D1*
G1X8620Y8250D2*
G1X8620Y8170D1*
G1X12940Y3480D2*
G1X12940Y1960D1*
G1X8440Y8250D2*
G1X8440Y8170D1*
G1X8890Y8250D2*
G1X8890Y8170D1*
G1X7590Y6880D2*
G1X6553Y6880D1*
G1X7990Y6850D2*
G1X7990Y6170D1*
G1X8260Y6821D2*
G1X8260Y6170D1*
G1X8710Y8250D2*
G1X8710Y8170D1*
G1X13120Y3480D2*
G1X13120Y1960D1*
G1X7930Y6910D2*
G1X7978Y6862D1*
G1X9064Y6170D2*
G1X7930Y6170D1*
G1X8530Y6810D2*
G1X8530Y6170D1*
G1X8200Y6810D2*
G1X8100Y6810D1*
G1X7590Y6970D2*
G1X6552Y6970D1*
G1X7730Y8050D2*
G1X7350Y8050D1*
G1X8530Y5830D2*
G1X8530Y5402D1*
G1X7590Y7150D2*
G1X6498Y7150D1*
G1X8080Y8250D2*
G1X8080Y8170D1*
G1X12668Y8140D2*
G1X9596Y8140D1*
G1X7990Y8257D2*
G1X7990Y8170D1*
G1X14110Y3480D2*
G1X14110Y1960D1*
G1X9520Y8250D2*
G1X9520Y8169D1*
G1X7590Y7060D2*
G1X6535Y7060D1*
G1X8380Y6880D2*
G1X8340Y6880D1*
G1X14020Y3480D2*
G1X14020Y1960D1*
G1X8360Y6900D2*
G1X8398Y6862D1*
G1X6550Y6850D2*
G1X6550Y6170D1*
G1X8560Y6810D2*
G1X8520Y6810D1*
G1X9510Y6250D2*
G1X7930Y6250D1*
G1X13660Y3480D2*
G1X13660Y1960D1*
G1X9970Y8250D2*
G1X9970Y8090D1*
G1X13570Y3480D2*
G1X13570Y1960D1*
G1X8350Y6890D2*
G1X8350Y6170D1*
G1X14200Y3480D2*
G1X14200Y1960D1*
G1X8620Y6821D2*
G1X8620Y6170D1*
G1X14290Y3480D2*
G1X14290Y1960D1*
G1X14650Y3135D2*
G1X14650Y1960D1*
G1X13930Y3480D2*
G1X13930Y1960D1*
G1X8740Y6880D2*
G1X8700Y6880D1*
G1X14380Y3480D2*
G1X14380Y1960D1*
G1X14470Y3204D2*
G1X14470Y1960D1*
G1X15010Y2814D2*
G1X15010Y1960D1*
G1X8920Y6810D2*
G1X8880Y6810D1*
G1X5110Y5600D2*
G1X5110Y4910D1*
G1X8720Y6900D2*
G1X8680Y6860D1*
G1X14740Y3156D2*
G1X14740Y1960D1*
G1X14830Y3225D2*
G1X14830Y1960D1*
G1X15190Y2697D2*
G1X15190Y1960D1*
G1X15280Y2702D2*
G1X15280Y1960D1*
G1X15370Y2746D2*
G1X15370Y1960D1*
G1X15460Y2891D2*
G1X15460Y1960D1*
G1X9060Y6880D2*
G1X9040Y6860D1*
G1X9060Y6880D2*
G1X9078Y6862D1*
G1X10460Y6810D2*
G1X9200Y6810D1*
G1X9900Y6310D2*
G1X9900Y5970D1*
G1X15010Y8704D2*
G1X15010Y3066D1*
G1X15910Y2170D2*
G1X15910Y1960D1*
G1X15730Y2387D2*
G1X15730Y1960D1*
G1X4960Y4540D2*
G1X2786Y4540D1*
G1X16090Y2052D2*
G1X16090Y1960D1*
G1X16450Y1970D2*
G1X16450Y1960D1*
G1X8720Y6900D2*
G1X8758Y6862D1*
G1X15820Y2260D2*
G1X15820Y1960D1*
G1X12760Y8760D2*
G1X12760Y8374D1*
G1X2590Y4916D2*
G1X2590Y4697D1*
G1X7900Y2914D2*
G1X7900Y2727D1*
G1X16000Y2103D2*
G1X16000Y1960D1*
G1X16540Y1975D2*
G1X16540Y1960D1*
G1X16630Y1990D2*
G1X16630Y1960D1*
G1X16180Y2015D2*
G1X16180Y1960D1*
G1X16270Y1990D2*
G1X16270Y1960D1*
G1X11586Y6250D2*
G1X10422Y6250D1*
G1X10870Y6310D2*
G1X10870Y5344D1*
G1X16810Y2052D2*
G1X16810Y1960D1*
G1X16900Y2103D2*
G1X16900Y1960D1*
G1X16990Y2170D2*
G1X16990Y1960D1*
G1X7425Y8950D2*
G1X7167Y8950D1*
G1X4930Y6737D2*
G1X4930Y6170D1*
G1X16720Y2015D2*
G1X16720Y1960D1*
G1X12405Y6430D2*
G1X12104Y6430D1*
G1X11320Y6310D2*
G1X11320Y5720D1*
G1X2950Y5556D2*
G1X2950Y5430D1*
G1X970Y8943D2*
G1X970Y8720D1*
G1X8890Y9875D2*
G1X8890Y9096D1*
G1X4094Y7420D2*
G1X1449Y7420D1*
G1X4754Y7420D2*
G1X4346Y7420D1*
G1X4210Y8400D2*
G1X4210Y7875D1*
G1X6870Y7450D2*
G1X5378Y7450D1*
G1X1150Y5356D2*
G1X1150Y4741D1*
G1X880Y8886D2*
G1X880Y8720D1*
G1X4830Y7790D2*
G1X4405Y7790D1*
G1X4660Y8048D2*
G1X4660Y7790D1*
G1X8170Y6810D2*
G1X8170Y6170D1*
G1X4210Y9875D2*
G1X4210Y8720D1*
G1X7590Y7510D2*
G1X7342Y7510D1*
G1X8530Y8250D2*
G1X8530Y8170D1*
G1X5560Y9875D2*
G1X5560Y8708D1*
G1X7140Y7350D2*
G1X7040Y7350D1*
G1X8710Y9875D2*
G1X8710Y9165D1*
G1X7090Y7350D2*
G1X7090Y6734D1*
G1X12692Y6970D2*
G1X12255Y6970D1*
G1X7300Y7440D2*
G1X7260Y7400D1*
G1X8170Y9875D2*
G1X8170Y8590D1*
G1X7180Y9875D2*
G1X7180Y8928D1*
G1X7350Y8250D2*
G1X7350Y7560D1*
G1X7810Y9875D2*
G1X7810Y8844D1*
G1X4390Y8400D2*
G1X4390Y7806D1*
G1X7540Y9875D2*
G1X7540Y9002D1*
G1X17054Y1960D2*
G1X12506Y1960D1*
G1X7270Y9875D2*
G1X7270Y8920D1*
G1X7990Y9875D2*
G1X7990Y8690D1*
G1X18075Y4450D2*
G1X17600Y4450D1*
G1X6870Y7450D2*
G1X6918Y7402D1*
G1X6900Y7420D2*
G1X5406Y7420D1*
G1X18075Y3280D2*
G1X17600Y3280D1*
G1X18075Y5710D2*
G1X15500Y5710D1*
G1X8260Y9875D2*
G1X8260Y8590D1*
G1X18075Y3370D2*
G1X17600Y3370D1*
G1X12065Y8230D2*
G1X7350Y8230D1*
G1X8350Y9875D2*
G1X8350Y8590D1*
G1X13300Y3480D2*
G1X13300Y1960D1*
G1X18075Y2020D2*
G1X17565Y2020D1*
G1X8080Y9875D2*
G1X8080Y8657D1*
G1X17254Y4720D2*
G1X11297Y4720D1*
G1X8440Y9875D2*
G1X8440Y8590D1*
G1X8530Y9875D2*
G1X8530Y9075D1*
G1X8526Y8770D2*
G1X7825Y8770D1*
G1X8800Y8250D2*
G1X8800Y8170D1*
G1X18075Y4360D2*
G1X17600Y4360D1*
G1X18075Y4270D2*
G1X17600Y4270D1*
G1X18075Y5440D2*
G1X15526Y5440D1*
G1X8620Y8696D2*
G1X8620Y8590D1*
G1X8710Y8675D2*
G1X8710Y8590D1*
G1X7980Y8690D2*
G1X7860Y8690D1*
G1X17260Y6047D2*
G1X17260Y5166D1*
G1X8800Y8688D2*
G1X8800Y8590D1*
G1X12044Y8590D2*
G1X8150Y8590D1*
G1X8100Y8640D2*
G1X8140Y8600D1*
G1X7900Y9875D2*
G1X7900Y8690D1*
G1X18075Y4090D2*
G1X17600Y4090D1*
G1X18075Y3550D2*
G1X17600Y3550D1*
G1X18075Y3820D2*
G1X17600Y3820D1*
G1X17170Y6145D2*
G1X17170Y5232D1*
G1X16110Y8860D2*
G1X15306Y8860D1*
G1X18075Y3910D2*
G1X17600Y3910D1*
G1X17890Y9875D2*
G1X17890Y125D1*
G1X7630Y9875D2*
G1X7630Y9000D1*
G1X8594Y9130D2*
G1X6440Y9130D1*
G1X14954Y8760D2*
G1X8905Y8760D1*
G1X10690Y8760D2*
G1X10690Y8590D1*
G1X18075Y5170D2*
G1X17256Y5170D1*
G1X18075Y5890D2*
G1X15500Y5890D1*
G1X16270Y5970D2*
G1X16270Y5240D1*
G1X18075Y3640D2*
G1X17600Y3640D1*
G1X16090Y9875D2*
G1X16090Y5240D1*
G1X11320Y8250D2*
G1X11320Y8090D1*
G1X2860Y5512D2*
G1X2860Y5430D1*
G1X10443Y5080D2*
G1X9760Y5080D1*
G1X12350Y5900D2*
G1X12350Y5816D1*
G1X13130Y5990D2*
G1X12810Y5990D1*
G1X7800Y8250D2*
G1X7350Y8250D1*
G1X17141Y8950D2*
G1X16870Y8950D1*
G1X15034Y3100D2*
G1X11394Y3100D1*
G1X14416Y3280D2*
G1X11417Y3280D1*
G1X17195Y9040D2*
G1X16870Y9040D1*
G1X6190Y3380D2*
G1X6190Y2180D1*
G1X10870Y2564D2*
G1X10870Y1880D1*
G1X14408Y3460D2*
G1X11229Y3460D1*
G1X11140Y4420D2*
G1X11140Y3462D1*
G1X10960Y2475D2*
G1X10960Y1882D1*
G1X740Y6160D2*
G1X620Y6160D1*
G1X151Y4180D2*
G1X125Y4180D1*
G1X250Y8979D2*
G1X250Y4381D1*
G1X160Y9091D2*
G1X160Y4182D1*
G1X11200Y850D2*
G1X10320Y850D1*
G1X11270Y1200D2*
G1X11270Y1030D1*
G1X610Y8827D2*
G1X610Y8616D1*
G1X18075Y2290D2*
G1X17600Y2290D1*
G1X11500Y2440D2*
G1X11500Y1520D1*
G1X10040Y2640D2*
G1X10040Y1854D1*
G1X18075Y220D2*
G1X10066Y220D1*
G1X10960Y4366D2*
G1X10960Y3328D1*
G1X17302Y9130D2*
G1X16870Y9130D1*
G1X17280Y4694D2*
G1X17280Y2186D1*
G1X16270Y9875D2*
G1X16270Y9180D1*
G1X16360Y9875D2*
G1X16360Y9180D1*
G1X12130Y4730D2*
G1X12130Y4368D1*
G1X7517Y3910D2*
G1X7236Y3910D1*
G1X16450Y9875D2*
G1X16450Y9180D1*
G1X12220Y4730D2*
G1X12220Y4268D1*
G1X8260Y2800D2*
G1X8260Y2260D1*
G1X16540Y9875D2*
G1X16540Y9180D1*
G1X11054Y3010D2*
G1X10900Y3010D1*
G1X4650Y8140D2*
G1X620Y8140D1*
G1X5740Y3380D2*
G1X5740Y2180D1*
G1X8440Y2800D2*
G1X8440Y2228D1*
G1X8710Y2800D2*
G1X8710Y2180D1*
G1X5830Y3380D2*
G1X5830Y2180D1*
G1X13350Y6880D2*
G1X12234Y6880D1*
G1X9610Y8760D2*
G1X9610Y8590D1*
G1X11050Y4420D2*
G1X11050Y3428D1*
G1X7522Y4000D2*
G1X7292Y4000D1*
G1X2692Y5530D2*
G1X1512Y5530D1*
G1X17280Y4180D2*
G1X12244Y4180D1*
G1X16630Y9875D2*
G1X16630Y9180D1*
G1X16720Y9875D2*
G1X16720Y9180D1*
G1X16810Y9875D2*
G1X16810Y9180D1*
G1X17170Y9875D2*
G1X17170Y9005D1*
G1X7605Y2560D2*
G1X7229Y2560D1*
G1X17280Y4000D2*
G1X12185Y4000D1*
G1X18075Y8590D2*
G1X17807Y8590D1*
G1X17111Y8770D2*
G1X16870Y8770D1*
G1X18075Y8680D2*
G1X17851Y8680D1*
G1X18075Y8770D2*
G1X17869Y8770D1*
G1X11230Y4344D2*
G1X11230Y3460D1*
G1X2680Y6090D2*
G1X2680Y5964D1*
G1X3220Y5600D2*
G1X3220Y5430D1*
G1X2770Y5507D2*
G1X2770Y5474D1*
G1X2770Y6090D2*
G1X2770Y5993D1*
G1X2590Y6090D2*
G1X2590Y5876D1*
G1X2590Y5624D2*
G1X2590Y5497D1*
G1X2680Y5536D2*
G1X2680Y5503D1*
G1X9345Y5530D2*
G1X5652Y5530D1*
G1X7090Y5830D2*
G1X7090Y5070D1*
G1X3130Y5600D2*
G1X3130Y5430D1*
G1X8350Y2800D2*
G1X8350Y2262D1*
G1X5360Y5260D2*
G1X4740Y5260D1*
G1X7146Y5260D2*
G1X5680Y5260D1*
G1X7215Y5350D2*
G1X5680Y5350D1*
G1X5650Y5830D2*
G1X5650Y5533D1*
G1X5356Y5830D2*
G1X5633Y5553D1*
G1X7090Y6306D2*
G1X7090Y6170D1*
G1X4840Y5600D2*
G1X4840Y5160D1*
G1X9420Y5440D2*
G1X5680Y5440D1*
G1X5296Y4910D2*
G1X5090Y4910D1*
G1X6850Y4990D2*
G1X5764Y4990D1*
G1X5380Y5830D2*
G1X5380Y5806D1*
G1X5360Y5374D2*
G1X5360Y5195D1*
G1X5680Y5440D2*
G1X5680Y5195D1*
G1X6770Y4910D2*
G1X5744Y4910D1*
G1X5204Y5530D2*
G1X2908Y5530D1*
G1X9140Y2406D2*
G1X8914Y2180D1*
G1X4750Y4770D2*
G1X4750Y3700D1*
G1X4840Y3904D2*
G1X4840Y3700D1*
G1X4930Y3848D2*
G1X4930Y3700D1*
G1X9704Y3370D2*
G1X7920Y3370D1*
G1X9614Y3460D2*
G1X7920Y3460D1*
G1X9560Y3120D2*
G1X8146Y3120D1*
G1X14395Y3370D2*
G1X11374Y3370D1*
G1X4300Y5090D2*
G1X4300Y3741D1*
G1X4390Y5090D2*
G1X4390Y3780D1*
G1X7600Y3640D2*
G1X7256Y3640D1*
G1X12580Y7082D2*
G1X12580Y6737D1*
G1X13350Y6340D2*
G1X12825Y6340D1*
G1X10430Y6200D2*
G1X10430Y6075D1*
G1X9340Y5543D2*
G1X9340Y5330D1*
G1X16360Y1975D2*
G1X16360Y1960D1*
G1X15180Y6610D2*
G1X13690Y6610D1*
G1X11500Y6304D2*
G1X11500Y5810D1*
G1X6965Y6520D2*
G1X6352Y6520D1*
G1X7620Y5080D2*
G1X7602Y5080D1*
G1X7025Y8410D2*
G1X5876Y8410D1*
G1X12044Y8250D2*
G1X8040Y8250D1*
G1X4570Y9875D2*
G1X4570Y8720D1*
G1X4660Y4860D2*
G1X4660Y3700D1*
G1X7270Y3954D2*
G1X7270Y3626D1*
G1X7394Y8920D2*
G1X7223Y8920D1*
G1X5470Y9875D2*
G1X5470Y8720D1*
G1X8890Y8744D2*
G1X8890Y8590D1*
G1X6190Y3818D2*
G1X6190Y3700D1*
G1X8482Y8860D2*
G1X7804Y8860D1*
G1X8477Y8950D2*
G1X7735Y8950D1*
G1X7167Y9085D2*
G1X7167Y8929D1*
G1X4210Y5090D2*
G1X4210Y3624D1*
G1X17280Y2290D2*
G1X17105Y2290D1*
G1X17280Y3730D2*
G1X14651Y3730D1*
G1X4480Y5040D2*
G1X4480Y3782D1*
G1X16110Y8680D2*
G1X15479Y8680D1*
G1X8506Y9040D2*
G1X7167Y9040D1*
G1X15020Y9080D2*
G1X8905Y9080D1*
G1X10600Y8760D2*
G1X10600Y8590D1*
G1X6010Y9875D2*
G1X6010Y8276D1*
G1X15180Y7420D2*
G1X13690Y7420D1*
G1X18075Y7510D2*
G1X15500Y7510D1*
G1X18075Y7870D2*
G1X15500Y7870D1*
G1X14954Y8760D2*
G1X15180Y8534D1*
G1X15135Y9031D2*
G1X15453Y8713D1*
G1X14020Y9875D2*
G1X14020Y9080D1*
G1X14110Y9875D2*
G1X14110Y9080D1*
G1X18075Y7960D2*
G1X15500Y7960D1*
G1X15180Y5440D2*
G1X14350Y5440D1*
G1X18075Y4990D2*
G1X17436Y4990D1*
G1X14920Y9875D2*
G1X14920Y9080D1*
G1X8671Y8680D2*
G1X8037Y8680D1*
G1X18075Y5620D2*
G1X15500Y5620D1*
G1X16990Y9875D2*
G1X16990Y5240D1*
G1X15500Y8600D2*
G1X15500Y5466D1*
G1X15820Y9875D2*
G1X15820Y5240D1*
G1X15180Y5620D2*
G1X14350Y5620D1*
G1X18075Y6970D2*
G1X15500Y6970D1*
G1X16110Y6160D2*
G1X15500Y6160D1*
G1X16110Y6250D2*
G1X15500Y6250D1*
G1X17440Y5973D2*
G1X17440Y4986D1*
G1X15640Y9875D2*
G1X15640Y5326D1*
G1X17120Y5240D2*
G1X15726Y5240D1*
G1X15254Y5260D2*
G1X14240Y5260D1*
G1X16900Y9875D2*
G1X16900Y5240D1*
G1X17530Y5972D2*
G1X17530Y4896D1*
G1X18075Y2380D2*
G1X17600Y2380D1*
G1X17164Y4810D2*
G1X13090Y4810D1*
G1X15344Y5170D2*
G1X14150Y5170D1*
G1X17235Y5191D2*
G1X17553Y4873D1*
G1X15910Y9875D2*
G1X15910Y5240D1*
G1X16000Y9875D2*
G1X16000Y5240D1*
G1X18075Y2470D2*
G1X17600Y2470D1*
G1X17080Y2260D2*
G1X17080Y1986D1*
G1X17600Y4760D2*
G1X17600Y2120D1*
G1X17350Y5997D2*
G1X17350Y5076D1*
G1X17114Y2020D2*
G1X16734Y2020D1*
G1X18075Y1750D2*
G1X17296Y1750D1*
G1X18075Y4900D2*
G1X17526Y4900D1*
G1X17280Y2186D2*
G1X17054Y1960D1*
G1X17054Y4920D2*
G1X15660Y4920D1*
G1X18075Y2560D2*
G1X17600Y2560D1*
G1X17553Y2007D2*
G1X17235Y1688D1*
G1X12084Y1930D2*
G1X10040Y1930D1*
G1X18075Y1930D2*
G1X17476Y1930D1*
G1X17120Y1640D2*
G1X12440Y1640D1*
G1X18075Y2200D2*
G1X17600Y2200D1*
G1X15876Y2200D2*
G1X12320Y2200D1*
G1X16166Y2020D2*
G1X12446Y2020D1*
G1X15524Y4990D2*
G1X13970Y4990D1*
G1X12320Y2280D2*
G1X12320Y2146D1*
G1X12506Y1960D1*
G1X13750Y3480D2*
G1X13750Y1960D1*
G1X12000Y2200D2*
G1X10040Y2200D1*
G1X15734Y2380D2*
G1X12285Y2380D1*
G1X12310Y3480D2*
G1X12310Y2336D1*
G1X12012Y2020D2*
G1X10040Y2020D1*
G1X10967Y2470D2*
G1X10040Y2470D1*
G1X11320Y3019D2*
G1X11320Y2760D1*
G1X11410Y3136D2*
G1X11410Y2760D1*
G1X10960Y3112D2*
G1X10960Y2926D1*
G1X15989Y2110D2*
G1X12356Y2110D1*
G1X12000Y2214D2*
G1X12000Y2080D1*
G1X11230Y2980D2*
G1X11230Y2760D1*
G1X15688Y2470D2*
G1X12196Y2470D1*
G1X11774Y2440D2*
G1X11060Y2440D1*
G1X11050Y3012D2*
G1X11050Y2836D1*
G1X11140Y2978D2*
G1X11140Y2760D1*
G1X10870Y4337D2*
G1X10870Y3173D1*
G1X10874Y2560D2*
G1X10040Y2560D1*
G1X15078Y2740D2*
G1X11917Y2740D1*
G1X11955Y2711D2*
G1X12273Y2393D1*
G1X11500Y3774D2*
G1X11500Y2760D1*
G1X11131Y3460D2*
G1X10586Y3460D1*
G1X10628Y2805D2*
G1X10947Y2487D1*
G1X10600Y3956D2*
G1X10600Y3446D1*
G1X10690Y4025D2*
G1X10690Y3356D1*
G1X11840Y2760D2*
G1X11126Y2760D1*
G1X10690Y2744D2*
G1X10690Y1841D1*
G1X9880Y3241D2*
G1X9880Y2866D1*
G1X10060Y4730D2*
G1X10060Y3560D1*
G1X10150Y4730D2*
G1X10150Y3560D1*
G1X10240Y4730D2*
G1X10240Y3560D1*
G1X11590Y3684D2*
G1X11590Y2760D1*
G1X12040Y3480D2*
G1X12040Y2626D1*
G1X10900Y2986D2*
G1X11126Y2760D1*
G1X10535Y3511D2*
G1X10853Y3193D1*
G1X9790Y4730D2*
G1X9790Y3736D1*
G1X10986Y3370D2*
G1X10676Y3370D1*
G1X10354Y3240D2*
G1X9900Y3240D1*
G1X9880Y4730D2*
G1X9880Y3646D1*
G1X9520Y3554D2*
G1X9520Y3120D1*
G1X11634Y3640D2*
G1X9886Y3640D1*
G1X10273Y427D2*
G1X9995Y148D1*
G1X11454Y3820D2*
G1X9740Y3820D1*
G1X9790Y3284D2*
G1X9790Y2956D1*
G1X10330Y4004D2*
G1X10330Y3560D1*
G1X9468Y3605D2*
G1X9787Y3287D1*
G1X9250Y4284D2*
G1X9250Y3120D1*
G1X9430Y4730D2*
G1X9430Y4556D1*
G1X9520Y4730D2*
G1X9520Y4466D1*
G1X9430Y3664D2*
G1X9430Y3120D1*
G1X10937Y3190D2*
G1X10856Y3190D1*
G1X9160Y4340D2*
G1X9160Y3120D1*
G1X9160Y4730D2*
G1X9160Y4660D1*
G1X9250Y4730D2*
G1X9250Y4660D1*
G1X10420Y3560D2*
G1X9966Y3560D1*
G1X9194Y4340D2*
G1X9420Y4114D1*
G1X11388Y3910D2*
G1X9740Y3910D1*
G1X10334Y4000D2*
G1X9740Y4000D1*
G1X10510Y3935D2*
G1X10510Y3532D1*
G1X11380Y4090D2*
G1X10728Y4090D1*
G1X8620Y4730D2*
G1X8620Y4660D1*
G1X9194Y4340D2*
G1X8386Y4340D1*
G1X10600Y4630D2*
G1X9353Y4630D1*
G1X8440Y4730D2*
G1X8440Y4660D1*
G1X9260Y4660D2*
G1X8404Y4660D1*
G1X8800Y4730D2*
G1X8800Y4660D1*
G1X11950Y3920D2*
G1X11950Y3800D1*
G1X8530Y4340D2*
G1X8530Y3120D1*
G1X10639Y4720D2*
G1X8336Y4720D1*
G1X9354Y4180D2*
G1X8285Y4180D1*
G1X9420Y4090D2*
G1X8268Y4090D1*
G1X11410Y4810D2*
G1X11410Y4616D1*
G1X10632Y4450D2*
G1X9536Y4450D1*
G1X10600Y4531D2*
G1X10600Y4404D1*
G1X10600Y4750D2*
G1X10600Y4629D1*
G1X17280Y4450D2*
G1X11576Y4450D1*
G1X11050Y4750D2*
G1X11050Y4740D1*
G1X10330Y5652D2*
G1X10330Y5070D1*
G1X10272Y4090D2*
G1X9740Y4090D1*
G1X17280Y3820D2*
G1X11906Y3820D1*
G1X9420Y3730D2*
G1X7920Y3730D1*
G1X11380Y4000D2*
G1X10666Y4000D1*
G1X11335Y4691D2*
G1X11653Y4373D1*
G1X11154Y4420D2*
G1X11025Y4420D1*
G1X11140Y4750D2*
G1X11140Y4740D1*
G1X10255Y4180D2*
G1X9740Y4180D1*
G1X11858Y4360D2*
G1X11665Y4360D1*
G1X11380Y4194D2*
G1X11380Y3960D1*
G1X11304Y4270D2*
G1X10728Y4270D1*
G1X17280Y4630D2*
G1X11396Y4630D1*
G1X9441Y3640D2*
G1X7920Y3640D1*
G1X11770Y4076D2*
G1X11770Y3956D1*
G1X11814Y4000D2*
G1X11726Y4000D1*
G1X11700Y4260D2*
G1X11700Y4026D1*
G1X11926Y3800D1*
G1X18075Y4810D2*
G1X17592Y4810D1*
G1X11320Y4761D2*
G1X11320Y4705D1*
G1X17074Y4900D2*
G1X13880Y4900D1*
G1X14110Y5130D2*
G1X14110Y3800D1*
G1X11860Y3959D2*
G1X11860Y3866D1*
G1X14515Y3800D2*
G1X11926Y3800D1*
G1X11380Y4180D2*
G1X10745Y4180D1*
G1X15717Y3190D2*
G1X14795Y3190D1*
G1X15773Y3280D2*
G1X14864Y3280D1*
G1X14380Y5725D2*
G1X14380Y3800D1*
G1X14630Y3751D2*
G1X14753Y3628D1*
G1X13930Y4950D2*
G1X13930Y3800D1*
G1X14020Y5040D2*
G1X14020Y3800D1*
G1X14650Y8760D2*
G1X14650Y3731D1*
G1X15847Y3370D2*
G1X14885Y3370D1*
G1X15947Y3460D2*
G1X14872Y3460D1*
G1X16094Y3550D2*
G1X14816Y3550D1*
G1X14470Y8760D2*
G1X14470Y3800D1*
G1X9420Y3820D2*
G1X7974Y3820D1*
G1X14200Y5220D2*
G1X14200Y3800D1*
G1X6120Y9220D2*
G1X1161Y9220D1*
G1X6120Y9340D2*
G1X6120Y8885D1*
G1X6460Y9294D2*
G1X6460Y8866D1*
G1X6474Y9307D2*
G1X6440Y9274D1*
G1X6533Y9040D2*
G1X6440Y9040D1*
G1X6132Y9400D2*
G1X1184Y9400D1*
G1X6294Y9580D2*
G1X6168Y9455D1*
G1X14830Y8760D2*
G1X14830Y3535D1*
G1X6280Y9875D2*
G1X6280Y9566D1*
G1X6190Y9875D2*
G1X6190Y9476D1*
G1X18075Y9310D2*
G1X7167Y9310D1*
G1X18075Y9400D2*
G1X7167Y9400D1*
G1X6460Y9875D2*
G1X6460Y9627D1*
G1X6533Y9627D2*
G1X6407Y9627D1*
G1X14470Y1640D2*
G1X14470Y1536D1*
G1X12040Y8250D2*
G1X12040Y8090D1*
G1X13024Y8590D2*
G1X12396Y8590D1*
G1X15180Y8410D2*
G1X13445Y8410D1*
G1X15180Y7600D2*
G1X13690Y7600D1*
G1X13480Y8760D2*
G1X13480Y7880D1*
G1X15180Y7510D2*
G1X13690Y7510D1*
G1X15180Y7870D2*
G1X13490Y7870D1*
G1X11410Y8250D2*
G1X11410Y8090D1*
G1X11140Y8250D2*
G1X11140Y8090D1*
G1X11500Y8250D2*
G1X11500Y8090D1*
G1X15180Y6160D2*
G1X14160Y6160D1*
G1X12968Y8500D2*
G1X12452Y8500D1*
G1X10060Y5764D2*
G1X10060Y5070D1*
G1X13300Y6918D2*
G1X13300Y6160D1*
G1X15180Y6430D2*
G1X13690Y6430D1*
G1X15180Y6520D2*
G1X13690Y6520D1*
G1X12850Y6374D2*
G1X12850Y5990D1*
G1X13719Y6250D2*
G1X13690Y6250D1*
G1X15180Y6700D2*
G1X13690Y6700D1*
G1X15180Y6970D2*
G1X13690Y6970D1*
G1X12490Y6306D2*
G1X12490Y6067D1*
G1X15180Y7330D2*
G1X13690Y7330D1*
G1X12580Y6262D2*
G1X12580Y6070D1*
G1X12580Y3480D2*
G1X12580Y1960D1*
G1X15180Y8230D2*
G1X13370Y8230D1*
G1X12400Y6451D2*
G1X12400Y6020D1*
G1X15180Y7240D2*
G1X13690Y7240D1*
G1X12660Y6070D2*
G1X12520Y6070D1*
G1X12760Y6286D2*
G1X12760Y6037D1*
G1X9520Y5361D2*
G1X9520Y5330D1*
G1X12780Y6020D2*
G1X12810Y5990D1*
G1X15180Y7150D2*
G1X13690Y7150D1*
G1X10104Y5710D2*
G1X9835Y5710D1*
G1X12130Y8192D2*
G1X12130Y8090D1*
G1X15180Y7690D2*
G1X13664Y7690D1*
G1X15180Y8500D2*
G1X13432Y8500D1*
G1X10420Y8250D2*
G1X10420Y8090D1*
G1X9790Y8250D2*
G1X9790Y8090D1*
G1X9160Y8250D2*
G1X9160Y8170D1*
G1X15180Y7780D2*
G1X13580Y7780D1*
G1X8980Y2800D2*
G1X8980Y2246D1*
G1X12940Y6989D2*
G1X12940Y5990D1*
G1X9250Y8250D2*
G1X9250Y8170D1*
G1X9340Y8250D2*
G1X9340Y8170D1*
G1X9430Y8250D2*
G1X9430Y8170D1*
G1X12220Y8175D2*
G1X12220Y8090D1*
G1X12220Y8760D2*
G1X12220Y8665D1*
G1X12400Y8760D2*
G1X12400Y8586D1*
G1X7630Y8250D2*
G1X7630Y7950D1*
G1X7590Y6520D2*
G1X7455Y6520D1*
G1X7800Y8120D2*
G1X7642Y7962D1*
G1X9500Y8170D2*
G1X7920Y8170D1*
G1X8350Y8250D2*
G1X8350Y8170D1*
G1X7810Y8250D2*
G1X7810Y8130D1*
G1X8980Y8250D2*
G1X8980Y8170D1*
G1X8260Y8250D2*
G1X8260Y8170D1*
G1X7900Y8282D2*
G1X7900Y8169D1*
G1X5560Y6604D2*
G1X5560Y6170D1*
G1X13210Y3480D2*
G1X13210Y1960D1*
G1X7824Y8140D2*
G1X7350Y8140D1*
G1X5650Y6643D2*
G1X5650Y6170D1*
G1X4120Y7406D2*
G1X4120Y6170D1*
G1X8170Y5830D2*
G1X8170Y5170D1*
G1X7590Y7840D2*
G1X7590Y6170D1*
G1X5740Y6542D2*
G1X5740Y6170D1*
G1X5294Y5440D2*
G1X2816Y5440D1*
G1X5830Y6482D2*
G1X5830Y6170D1*
G1X300Y4450D2*
G1X125Y4450D1*
G1X9250Y6810D2*
G1X9250Y6245D1*
G1X4300Y7398D2*
G1X4300Y6170D1*
G1X7540Y8250D2*
G1X7540Y6170D1*
G1X1162Y5350D2*
G1X930Y5350D1*
G1X2950Y8400D2*
G1X2950Y6430D1*
G1X2680Y8400D2*
G1X2680Y6430D1*
G1X5134Y5600D2*
G1X2994Y5600D1*
G1X3220Y8400D2*
G1X3220Y6430D1*
G1X4570Y7450D2*
G1X4570Y6170D1*
G1X7180Y6277D2*
G1X7180Y6170D1*
G1X3490Y5600D2*
G1X3490Y5430D1*
G1X930Y5870D2*
G1X930Y4772D1*
G1X2822Y6090D2*
G1X1150Y6090D1*
G1X4390Y7450D2*
G1X4390Y6170D1*
G1X9510Y5980D2*
G1X9484Y5980D1*
G1X2128Y5080D2*
G1X930Y5080D1*
G1X2184Y5170D2*
G1X930Y5170D1*
G1X790Y8344D2*
G1X790Y7190D1*
G1X9510Y6070D2*
G1X9475Y6070D1*
G1X3340Y6430D2*
G1X1552Y6430D1*
G1X2500Y8400D2*
G1X2500Y6430D1*
G1X970Y6430D2*
G1X970Y6390D1*
G1X1330Y5332D2*
G1X1330Y4700D1*
G1X2205Y4810D2*
G1X930Y4810D1*
G1X1150Y8400D2*
G1X1150Y7442D1*
G1X1240Y5327D2*
G1X1240Y4700D1*
G1X11680Y8250D2*
G1X11680Y8090D1*
G1X13570Y8760D2*
G1X13570Y7790D1*
G1X11050Y6390D2*
G1X11050Y5500D1*
G1X11680Y6235D2*
G1X11680Y5810D1*
G1X11494Y6310D2*
G1X11240Y6310D1*
G1X11070Y6410D2*
G1X11022Y6362D1*
G1X11950Y6425D2*
G1X11950Y5810D1*
G1X8530Y8765D2*
G1X8530Y8590D1*
G1X12421Y6610D2*
G1X12260Y6610D1*
G1X12454Y6340D2*
G1X11871Y6340D1*
G1X10334Y4360D2*
G1X9626Y4360D1*
G1X10330Y4730D2*
G1X10330Y4356D1*
G1X10420Y4730D2*
G1X10420Y4412D1*
G1X13210Y8760D2*
G1X13210Y8665D1*
G1X13120Y8760D2*
G1X13120Y8652D1*
G1X11770Y6256D2*
G1X11770Y5810D1*
G1X11936Y6430D2*
G1X11910Y6430D1*
G1X9610Y8250D2*
G1X9610Y8130D1*
G1X11590Y8760D2*
G1X11590Y8590D1*
G1X15180Y7960D2*
G1X13400Y7960D1*
G1X7044Y6340D2*
G1X5359Y6340D1*
G1X7270Y6282D2*
G1X7270Y6170D1*
G1X7360Y8250D2*
G1X7360Y6714D1*
G1X15180Y8320D2*
G1X13424Y8320D1*
G1X15180Y8050D2*
G1X13370Y8050D1*
G1X7245Y3651D2*
G1X7502Y3394D1*
G1X7064Y3380D2*
G1X4625Y3380D1*
G1X7640Y7960D2*
G1X7350Y7960D1*
G1X12310Y6996D2*
G1X12310Y5810D1*
G1X790Y6610D2*
G1X790Y6210D1*
G1X5290Y4926D2*
G1X5290Y4910D1*
G1X2680Y5017D2*
G1X2680Y4646D1*
G1X12310Y9875D2*
G1X12310Y9080D1*
G1X1150Y9875D2*
G1X1150Y9572D1*
G1X12850Y9875D2*
G1X12850Y9829D1*
G1X18075Y9850D2*
G1X12845Y9850D1*
G1X18075Y9760D2*
G1X12854Y9760D1*
G1X18075Y9670D2*
G1X12829Y9670D1*
G1X2140Y6090D2*
G1X2140Y5108D1*
G1X2140Y8400D2*
G1X2140Y6430D1*
G1X9460Y5800D2*
G1X9381Y5800D1*
G1X3670Y8400D2*
G1X3670Y6445D1*
G1X3760Y5600D2*
G1X3760Y5430D1*
G1X2590Y8400D2*
G1X2590Y6430D1*
G1X2410Y8400D2*
G1X2410Y6430D1*
G1X9510Y5890D2*
G1X9459Y5890D1*
G1X3460Y6380D2*
G1X3585Y6255D1*
G1X7590Y7420D2*
G1X7280Y7420D1*
G1X9900Y6310D2*
G1X9850Y6310D1*
G1X7590Y6430D2*
G1X7438Y6430D1*
G1X13036Y7060D2*
G1X13008Y7060D1*
G1X13350Y6700D2*
G1X12781Y6700D1*
G1X13350Y6610D2*
G1X12859Y6610D1*
G1X13350Y6520D2*
G1X12884Y6520D1*
G1X13350Y6430D2*
G1X12875Y6430D1*
G1X15640Y2619D2*
G1X15640Y1960D1*
G1X12760Y6948D2*
G1X12760Y6714D1*
G1X12670Y6982D2*
G1X12670Y6743D1*
G1X4030Y7475D2*
G1X4030Y6401D1*
G1X4480Y5600D2*
G1X4480Y5430D1*
G1X4030Y5600D2*
G1X4030Y5430D1*
G1X7590Y6170D2*
G1X4058Y6170D1*
G1X3130Y8400D2*
G1X3130Y6430D1*
G1X3850Y5600D2*
G1X3850Y5430D1*
G1X3310Y5600D2*
G1X3310Y5430D1*
G1X4210Y7385D2*
G1X4210Y6170D1*
G1X12468Y9580D2*
G1X7167Y9580D1*
G1X3310Y8400D2*
G1X3310Y6430D1*
G1X3040Y5600D2*
G1X3040Y5430D1*
G1X1186Y5800D2*
G1X930Y5800D1*
G1X9880Y6810D2*
G1X9880Y6650D1*
G1X3400Y5600D2*
G1X3400Y5430D1*
G1X4440Y5080D2*
G1X2816Y5080D1*
G1X5360Y5350D2*
G1X4650Y5350D1*
G1X5470Y5830D2*
G1X5470Y5716D1*
G1X5020Y5600D2*
G1X5020Y4980D1*
G1X6910Y5830D2*
G1X6910Y5044D1*
G1X5380Y6345D2*
G1X5380Y6170D1*
G1X4745Y7870D2*
G1X4269Y7870D1*
G1X6820Y5830D2*
G1X6820Y4960D1*
G1X8320Y5120D2*
G1X8330Y5110D1*
G1X10240Y5647D2*
G1X10240Y5070D1*
G1X10150Y5676D2*
G1X10150Y5070D1*
G1X9430Y6810D2*
G1X9430Y6155D1*
G1X7590Y7780D2*
G1X7350Y7780D1*
G1X10060Y6810D2*
G1X10060Y6650D1*
G1X11990Y4810D2*
G1X11390Y4810D1*
G1X6370Y5830D2*
G1X6370Y4910D1*
G1X11680Y2440D2*
G1X11680Y1520D1*
G1X15180Y6340D2*
G1X14004Y6340D1*
G1X14200Y9875D2*
G1X14200Y9080D1*
G1X13690Y7600D2*
G1X13690Y6194D1*
G1X16180Y5970D2*
G1X16180Y5240D1*
G1X17054Y4920D2*
G1X17280Y4694D1*
G1X15500Y5466D2*
G1X15726Y5240D1*
G1X15640Y4921D2*
G1X15640Y2981D1*
G1X15188Y5350D2*
G1X14324Y5350D1*
G1X5200Y5534D2*
G1X5200Y4910D1*
G1X7000Y5830D2*
G1X7000Y5070D1*
G1X9370Y5710D2*
G1X5476Y5710D1*
G1X5290Y5444D2*
G1X5290Y5094D1*
G1X8980Y6821D2*
G1X8980Y6170D1*
G1X4840Y6783D2*
G1X4840Y6170D1*
G1X8415Y5350D2*
G1X7525Y5350D1*
G1X8346Y5260D2*
G1X7594Y5260D1*
G1X9520Y6810D2*
G1X9520Y6457D1*
G1X4930Y5600D2*
G1X4930Y5070D1*
G1X7052Y8452D2*
G1X6533Y8452D1*
G1X11410Y6310D2*
G1X11410Y5795D1*
G1X12130Y6441D2*
G1X12130Y5810D1*
G1X10110Y6650D2*
G1X9760Y6650D1*
G1X9536Y5350D2*
G1X9190Y5350D1*
G1X2599Y5890D2*
G1X950Y5890D1*
G1X15180Y7060D2*
G1X13690Y7060D1*
G1X1150Y9188D2*
G1X1150Y8720D1*
G1X11860Y3480D2*
G1X11860Y2759D1*
G1X11834Y2380D2*
G1X10040Y2380D1*
G1X11924Y2290D2*
G1X10040Y2290D1*
G1X10776Y580D2*
G1X10320Y580D1*
G1X11774Y2440D2*
G1X12000Y2214D1*
G1X846Y8400D2*
G1X620Y8174D1*
G1X10774Y1210D2*
G1X10320Y1210D1*
G1X11200Y940D2*
G1X10320Y940D1*
G1X6533Y9307D2*
G1X6533Y9151D1*
G1X10330Y3240D2*
G1X10330Y1816D1*
G1X11544Y3730D2*
G1X9796Y3730D1*
G1X9375Y4611D2*
G1X9693Y4293D1*
G1X8980Y4340D2*
G1X8980Y3120D1*
G1X15550Y4964D2*
G1X15550Y1960D1*
G1X15460Y5054D2*
G1X15460Y2989D1*
G1X15370Y5144D2*
G1X15370Y3134D1*
G1X15280Y5234D2*
G1X15280Y3177D1*
G1X15180Y8534D2*
G1X15180Y5400D1*
G1X15100Y8614D2*
G1X15100Y3154D1*
G1X15676Y3100D2*
G1X15405Y3100D1*
G1X15647Y3010D2*
G1X15455Y3010D1*
G1X15629Y2920D2*
G1X15464Y2920D1*
G1X15621Y2830D2*
G1X15439Y2830D1*
G1X15622Y2740D2*
G1X15361Y2740D1*
G1X2500Y4799D2*
G1X2500Y4700D1*
G1X7000Y8452D2*
G1X7000Y8387D1*
G1X6910Y8452D2*
G1X6910Y8387D1*
G1X6820Y8452D2*
G1X6820Y8387D1*
G1X6730Y8452D2*
G1X6730Y8387D1*
G1X6640Y8452D2*
G1X6640Y8387D1*
G1X6550Y8452D2*
G1X6550Y8387D1*
G1X7450Y9875D2*
G1X7450Y8968D1*
G1X18075Y4180D2*
G1X17600Y4180D1*
G1X7180Y7355D2*
G1X7180Y6763D1*
G1X7593Y7870D2*
G1X7350Y7870D1*
G1X7090Y9151D2*
G1X7090Y9085D1*
G1X7000Y9151D2*
G1X7000Y9085D1*
G1X6910Y9151D2*
G1X6910Y9085D1*
G1X6820Y9151D2*
G1X6820Y9085D1*
G1X6730Y9151D2*
G1X6730Y9085D1*
G1X6640Y9151D2*
G1X6640Y9085D1*
G1X6550Y9151D2*
G1X6550Y9085D1*
G1X7090Y9875D2*
G1X7090Y9784D1*
G1X7000Y9875D2*
G1X7000Y9784D1*
G1X6910Y9875D2*
G1X6910Y9784D1*
G1X6820Y9875D2*
G1X6820Y9784D1*
G1X6730Y9875D2*
G1X6730Y9784D1*
G1X6640Y9875D2*
G1X6640Y9784D1*
G1X12375Y9850D2*
G1X923Y9850D1*
G1X12366Y9760D2*
G1X7167Y9760D1*
G1X12391Y9670D2*
G1X7167Y9670D1*
G1X18075Y9580D2*
G1X12751Y9580D1*
G1X18075Y9490D2*
G1X7167Y9490D1*
G1X5920Y5830D2*
G1X5920Y4910D1*
G1X6550Y7450D2*
G1X6550Y6990D1*
G1X6460Y7450D2*
G1X6460Y7212D1*
G1X6370Y7450D2*
G1X6370Y7306D1*
G1X6280Y7450D2*
G1X6280Y7363D1*
G1X6190Y7450D2*
G1X6190Y7398D1*
G1X6100Y7450D2*
G1X6100Y7413D1*
G1X6010Y7450D2*
G1X6010Y7412D1*
G1X5920Y7450D2*
G1X5920Y7395D1*
G1X5830Y7450D2*
G1X5830Y7358D1*
G1X5740Y7450D2*
G1X5740Y7298D1*
G1X15190Y5344D2*
G1X15190Y3183D1*
G1X7044Y6700D2*
G1X6503Y6700D1*
G1X6982Y6610D2*
G1X6446Y6610D1*
G1X12670Y8230D2*
G1X12375Y8230D1*
G1X14920Y8760D2*
G1X14920Y1960D1*
G1X12940Y4730D2*
G1X12940Y3800D1*
G1X5710Y4270D2*
G1X5670Y4270D1*
G1X5650Y7450D2*
G1X5650Y7197D1*
G1X8080Y3938D2*
G1X8080Y3186D1*
G1X11230Y1200D2*
G1X11230Y1030D1*
G1X6280Y3380D2*
G1X6280Y2180D1*
G1X14985Y3010D2*
G1X11306Y3010D1*
G1X9970Y4730D2*
G1X9970Y3560D1*
G1X8170Y3972D2*
G1X8170Y3120D1*
G1X7600Y3754D2*
G1X7600Y3382D1*
G1X6910Y3380D2*
G1X6910Y2180D1*
G1X11230Y4750D2*
G1X11230Y4740D1*
G1X300Y4540D2*
G1X125Y4540D1*
G1X10785Y490D2*
G1X10312Y490D1*
G1X10494Y3100D2*
G1X9637Y3100D1*
G1X4689Y7960D2*
G1X620Y7960D1*
G1X8170Y2800D2*
G1X8170Y2221D1*
G1X859Y6520D2*
G1X620Y6520D1*
G1X1510Y9875D2*
G1X1510Y8720D1*
G1X1060Y9875D2*
G1X1060Y9729D1*
G1X970Y9875D2*
G1X970Y9817D1*
G1X6533Y9760D2*
G1X1033Y9760D1*
G1X6533Y9670D2*
G1X1102Y9670D1*
G1X6120Y8950D2*
G1X979Y8950D1*
G1X6294Y9580D2*
G1X1147Y9580D1*
G1X6204Y9490D2*
G1X1173Y9490D1*
G1X14740Y8760D2*
G1X14740Y3641D1*
G1X9880Y8250D2*
G1X9880Y8090D1*
G1X6120Y9130D2*
G1X1125Y9130D1*
G1X6120Y9040D2*
G1X1067Y9040D1*
G1X4300Y8400D2*
G1X4300Y7862D1*
G1X2860Y8400D2*
G1X2860Y6430D1*
G1X1780Y8400D2*
G1X1780Y7091D1*
G1X1690Y8400D2*
G1X1690Y7249D1*
G1X1600Y8400D2*
G1X1600Y7337D1*
G1X1420Y8400D2*
G1X1420Y7430D1*
G1X1330Y8400D2*
G1X1330Y7449D1*
G1X1510Y8400D2*
G1X1510Y7394D1*
G1X700Y8254D2*
G1X700Y6120D1*
G1X4694Y7330D2*
G1X1609Y7330D1*
G1X4662Y7240D2*
G1X1697Y7240D1*
G1X4650Y7150D2*
G1X1754Y7150D1*
G1X4657Y7060D2*
G1X1790Y7060D1*
G1X4685Y6970D2*
G1X1810Y6970D1*
G1X4737Y6880D2*
G1X1814Y6880D1*
G1X4830Y6790D2*
G1X1803Y6790D1*
G1X5096Y6700D2*
G1X1777Y6700D1*
G1X5067Y6610D2*
G1X1732Y6610D1*
G1X5650Y9875D2*
G1X5650Y8636D1*
G1X6730Y5830D2*
G1X6730Y4910D1*
G1X700Y8831D2*
G1X700Y8699D1*
G1X18075Y4630D2*
G1X17600Y4630D1*
G1X4660Y8400D2*
G1X4660Y8232D1*
G1X4660Y9875D2*
G1X4660Y8720D1*
G1X5380Y9875D2*
G1X5380Y8720D1*
G1X5290Y9875D2*
G1X5290Y8720D1*
G1X5200Y9875D2*
G1X5200Y8720D1*
G1X5110Y9875D2*
G1X5110Y8720D1*
G1X5020Y9875D2*
G1X5020Y8720D1*
G1X7000Y7355D2*
G1X7000Y6646D1*
G1X4570Y5600D2*
G1X4570Y5415D1*
G1X6100Y8534D2*
G1X6100Y8230D1*
G1X4570Y8400D2*
G1X4570Y7790D1*
G1X4930Y9875D2*
G1X4930Y8720D1*
G1X5560Y7450D2*
G1X5560Y7080D1*
G1X5470Y7450D2*
G1X5470Y7321D1*
G1X5072Y6520D2*
G1X1663Y6520D1*
G1X5783Y7330D2*
G1X5466Y7330D1*
G1X5682Y7240D2*
G1X5498Y7240D1*
G1X5622Y7150D2*
G1X5510Y7150D1*
G1X17800Y8580D2*
G1X17800Y6570D1*
G1X17710Y8490D2*
G1X17710Y6660D1*
G1X17620Y8443D2*
G1X17620Y6707D1*
G1X17530Y8422D2*
G1X17530Y6728D1*
G1X17440Y8423D2*
G1X17440Y6727D1*
G1X17350Y8447D2*
G1X17350Y6703D1*
G1X17260Y8497D2*
G1X17260Y6652D1*
G1X17170Y8595D2*
G1X17170Y6555D1*
G1X18075Y5530D2*
G1X15500Y5530D1*
G1X18075Y6700D2*
G1X17638Y6700D1*
G1X18075Y6610D2*
G1X17767Y6610D1*
G1X18075Y6520D2*
G1X17830Y6520D1*
G1X18075Y6430D2*
G1X17861Y6430D1*
G1X18075Y6340D2*
G1X17870Y6340D1*
G1X18075Y6250D2*
G1X17857Y6250D1*
G1X18075Y6160D2*
G1X17819Y6160D1*
G1X18075Y6070D2*
G1X17747Y6070D1*
G1X16810Y8420D2*
G1X16810Y6730D1*
G1X16720Y8420D2*
G1X16720Y6730D1*
G1X16630Y8420D2*
G1X16630Y6730D1*
G1X16540Y8420D2*
G1X16540Y6730D1*
G1X16450Y8420D2*
G1X16450Y6730D1*
G1X16360Y8420D2*
G1X16360Y6730D1*
G1X16270Y8420D2*
G1X16270Y6730D1*
G1X16180Y8420D2*
G1X16180Y6730D1*
G1X17260Y4714D2*
G1X17260Y2981D1*
G1X17342Y6700D2*
G1X16870Y6700D1*
G1X17213Y6610D2*
G1X16870Y6610D1*
G1X17150Y6520D2*
G1X16870Y6520D1*
G1X17118Y6430D2*
G1X16870Y6430D1*
G1X17110Y6340D2*
G1X16870Y6340D1*
G1X17123Y6250D2*
G1X16870Y6250D1*
G1X17161Y6160D2*
G1X16870Y6160D1*
G1X17233Y6070D2*
G1X16870Y6070D1*
G1X15010Y9875D2*
G1X15010Y9080D1*
G1X17800Y9875D2*
G1X17800Y9020D1*
G1X17710Y9875D2*
G1X17710Y9110D1*
G1X17620Y9875D2*
G1X17620Y9157D1*
G1X17530Y9875D2*
G1X17530Y9178D1*
G1X17440Y9875D2*
G1X17440Y9177D1*
G1X17350Y9875D2*
G1X17350Y9153D1*
G1X17260Y9875D2*
G1X17260Y9102D1*
G1X18075Y7420D2*
G1X15500Y7420D1*
G1X18075Y9130D2*
G1X17678Y9130D1*
G1X18075Y9040D2*
G1X17785Y9040D1*
G1X18075Y8950D2*
G1X17839Y8950D1*
G1X14830Y1640D2*
G1X14830Y1515D1*
G1X6430Y4270D2*
G1X6390Y4270D1*
G1X17173Y8590D2*
G1X16870Y8590D1*
G1X6533Y8950D2*
G1X6440Y8950D1*
G1X6070Y4270D2*
G1X6030Y4270D1*
G1X17115Y8860D2*
G1X16870Y8860D1*
G1X6120Y9310D2*
G1X1180Y9310D1*
G1X6770Y4290D2*
G1X6818Y4242D1*
G1X7540Y2906D2*
G1X7540Y2180D1*
G1X18075Y1030D2*
G1X11590Y1030D1*
G1X11428Y3845D2*
G1X11747Y3527D1*
G1X7660Y5120D2*
G1X7610Y5070D1*
G1X12040Y6416D2*
G1X12040Y5810D1*
G1X9070Y2800D2*
G1X8080Y2800D1*
G1X10966Y3100D2*
G1X10899Y3100D1*
G1X8914Y2180D2*
G1X8495Y2180D1*
G1X5290Y3380D2*
G1X5290Y2180D1*
G1X745Y6700D2*
G1X620Y6700D1*
G1X17280Y3640D2*
G1X14741Y3640D1*
G1X17280Y3550D2*
G1X16805Y3550D1*
G1X17280Y3460D2*
G1X16953Y3460D1*
G1X17280Y3370D2*
G1X17053Y3370D1*
G1X17280Y3280D2*
G1X17127Y3280D1*
G1X17280Y3190D2*
G1X17183Y3190D1*
G1X17280Y3100D2*
G1X17224Y3100D1*
G1X17280Y3010D2*
G1X17253Y3010D1*
G1X17280Y2920D2*
G1X17271Y2920D1*
G1X18075Y2920D2*
G1X17600Y2920D1*
G1X18075Y2830D2*
G1X17600Y2830D1*
G1X17280Y2650D2*
G1X17266Y2650D1*
G1X17280Y2560D2*
G1X17245Y2560D1*
G1X17280Y2470D2*
G1X17212Y2470D1*
G1X17280Y2380D2*
G1X17166Y2380D1*
G1X18075Y4000D2*
G1X17600Y4000D1*
G1X17204Y2110D2*
G1X16911Y2110D1*
G1X17170Y4804D2*
G1X17170Y3213D1*
G1X17080Y4894D2*
G1X17080Y3340D1*
G1X16990Y4920D2*
G1X16990Y3430D1*
G1X17257Y8500D2*
G1X16870Y8500D1*
G1X17403Y5980D2*
G1X16870Y5980D1*
G1X16900Y4920D2*
G1X16900Y3497D1*
G1X16810Y4920D2*
G1X16810Y3548D1*
G1X16720Y4920D2*
G1X16720Y3585D1*
G1X16630Y4920D2*
G1X16630Y3610D1*
G1X16540Y4920D2*
G1X16540Y3625D1*
G1X16450Y4920D2*
G1X16450Y3630D1*
G1X16180Y4920D2*
G1X16180Y3585D1*
G1X16090Y4920D2*
G1X16090Y3548D1*
G1X16000Y4920D2*
G1X16000Y3497D1*
G1X15910Y4920D2*
G1X15910Y3430D1*
G1X15820Y4920D2*
G1X15820Y3340D1*
G1X15730Y4920D2*
G1X15730Y3213D1*
G1X9264Y4270D2*
G1X8268Y4270D1*
G1X1330Y9875D2*
G1X1330Y8720D1*
G1X18075Y8500D2*
G1X17723Y8500D1*
G1X300Y8230D2*
G1X125Y8230D1*
G1X880Y8400D2*
G1X880Y7301D1*
G1X15730Y1640D2*
G1X15730Y125D1*
G1X15820Y1640D2*
G1X15820Y125D1*
G1X236Y4360D2*
G1X125Y4360D1*
G1X10664Y1300D2*
G1X10320Y1300D1*
G1X3310Y9875D2*
G1X3310Y8720D1*
G1X125Y9158D2*
G1X125Y4173D1*
G1X1060Y9031D2*
G1X1060Y8720D1*
G1X1600Y9875D2*
G1X1600Y8720D1*
G1X14591Y1120D2*
G1X11590Y1120D1*
G1X18075Y1390D2*
G1X14883Y1390D1*
G1X12580Y1640D2*
G1X12580Y1520D1*
G1X4026Y7780D2*
G1X620Y7780D1*
G1X9140Y2480D2*
G1X9140Y2406D1*
G1X11270Y1120D2*
G1X10320Y1120D1*
G1X6036Y8680D2*
G1X5606Y8680D1*
G1X14514Y1570D2*
G1X11155Y1570D1*
G1X1690Y9875D2*
G1X1690Y8720D1*
G1X1780Y9875D2*
G1X1780Y8720D1*
G1X18075Y130D2*
G1X9973Y130D1*
G1X18075Y760D2*
G1X11660Y760D1*
G1X11270Y1200D2*
G1X11270Y1030D1*
G1X1240Y8400D2*
G1X1240Y7453D1*
G1X4171Y7870D2*
G1X620Y7870D1*
G1X7090Y2572D2*
G1X7090Y2180D1*
G1X8890Y2800D2*
G1X8890Y2180D1*
G1X650Y6070D2*
G1X620Y6070D1*
G1X18075Y1300D2*
G1X14877Y1300D1*
G1X17280Y4090D2*
G1X12235Y4090D1*
G1X4659Y8050D2*
G1X620Y8050D1*
G1X2050Y6090D2*
G1X2050Y4700D1*
G1X6884Y3910D2*
G1X6630Y3910D1*
G1X11950Y4810D2*
G1X11950Y4400D1*
G1X2675Y4651D2*
G1X5146Y2180D1*
G1X2560Y4700D2*
G1X1195Y4700D1*
G1X4876Y4450D2*
G1X2876Y4450D1*
G1X4800Y4720D2*
G1X1176Y4720D1*
G1X4750Y7864D2*
G1X4750Y7790D1*
G1X7590Y7600D2*
G1X7350Y7600D1*
G1X7590Y7690D2*
G1X7350Y7690D1*
G1X6533Y8230D2*
G1X6056Y8230D1*
G1X4750Y9875D2*
G1X4750Y8720D1*
G1X6550Y9875D2*
G1X6550Y9784D1*
G1X6061Y8590D2*
G1X5696Y8590D1*
G1X5615Y8671D2*
G1X6056Y8230D1*
G1X2410Y4760D2*
G1X2410Y4700D1*
G1X4659Y8230D2*
G1X676Y8230D1*
G1X4750Y7450D2*
G1X4750Y7416D1*
G1X6138Y8500D2*
G1X5786Y8500D1*
G1X5500Y8720D2*
G1X780Y8720D1*
G1X1073Y7420D2*
G1X620Y7420D1*
G1X340Y8910D2*
G1X340Y8346D1*
G1X4120Y8400D2*
G1X4120Y7854D1*
G1X1420Y9875D2*
G1X1420Y8720D1*
G1X790Y8850D2*
G1X790Y8720D1*
G1X8124Y2180D2*
G1X5146Y2180D1*
G1X719Y6790D2*
G1X620Y6790D1*
G1X4737Y8400D2*
G1X846Y8400D1*
G1X708Y6880D2*
G1X620Y6880D1*
G1X300Y8240D2*
G1X300Y4434D1*
G1X712Y6970D2*
G1X620Y6970D1*
G1X920Y6340D2*
G1X620Y6340D1*
G1X732Y7060D2*
G1X620Y7060D1*
G1X768Y7150D2*
G1X620Y7150D1*
G1X825Y7240D2*
G1X620Y7240D1*
G1X913Y7330D2*
G1X620Y7330D1*
G1X830Y6250D2*
G1X620Y6250D1*
G1X430Y8865D2*
G1X430Y8436D1*
G1X5470Y3380D2*
G1X5470Y2180D1*
G1X3982Y7690D2*
G1X620Y7690D1*
G1X9070Y2800D2*
G1X9070Y2336D1*
G1X7270Y2572D2*
G1X7270Y2180D1*
G1X8934Y2200D2*
G1X8476Y2200D1*
G1X7180Y2555D2*
G1X7180Y2180D1*
G1X4006Y7510D2*
G1X620Y7510D1*
G1X14560Y1640D2*
G1X14560Y1592D1*
G1X9140Y2470D2*
G1X8084Y2470D1*
G1X9024Y2290D2*
G1X7981Y2290D1*
G1X5200Y3380D2*
G1X5200Y2180D1*
G1X7990Y2296D2*
G1X7990Y2180D1*
G1X9140Y2480D2*
G1X9140Y2406D1*
G1X15001Y2830D2*
G1X11056Y2830D1*
G1X9610Y3464D2*
G1X9610Y3112D1*
G1X9140Y2406D2*
G1X8914Y2180D1*
G1X2950Y9875D2*
G1X2950Y8720D1*
G1X10960Y1200D2*
G1X10960Y797D1*
G1X2860Y9875D2*
G1X2860Y8720D1*
G1X18075Y850D2*
G1X11660Y850D1*
G1X18075Y940D2*
G1X11660Y940D1*
G1X2410Y9875D2*
G1X2410Y8720D1*
G1X2500Y9875D2*
G1X2500Y8720D1*
G1X2590Y9875D2*
G1X2590Y8720D1*
G1X2680Y9875D2*
G1X2680Y8720D1*
G1X2770Y9875D2*
G1X2770Y8720D1*
G1X14454Y1520D2*
G1X11420Y1520D1*
G1X620Y8174D2*
G1X620Y6036D1*
G1X18075Y125D2*
G1X9966Y125D1*
G1X11050Y1200D2*
G1X11050Y803D1*
G1X11320Y2440D2*
G1X11320Y1520D1*
G1X13660Y1640D2*
G1X13660Y1520D1*
G1X11590Y2440D2*
G1X11590Y1520D1*
G1X10408Y1840D2*
G1X10301Y1840D1*
G1X10778Y1840D2*
G1X10691Y1840D1*
G1X3040Y9875D2*
G1X3040Y8720D1*
G1X3580Y9875D2*
G1X3580Y8720D1*
G1X11140Y1200D2*
G1X11140Y774D1*
G1X11270Y1030D2*
G1X10320Y1030D1*
G1X11270Y1200D2*
G1X10830Y1200D1*
G1X10780Y1208D2*
G1X10780Y609D1*
G1X11230Y2440D2*
G1X11230Y1520D1*
G1X10364Y1480D2*
G1X10345Y1480D1*
G1X10568Y1396D2*
G1X10717Y1247D1*
G1X1240Y9875D2*
G1X1240Y8720D1*
G1X14380Y1200D2*
G1X14380Y125D1*
G1X14290Y1200D2*
G1X14290Y125D1*
G1X14830Y1205D2*
G1X14830Y125D1*
G1X17260Y1714D2*
G1X17260Y125D1*
G1X17170Y1648D2*
G1X17170Y125D1*
G1X17080Y1640D2*
G1X17080Y125D1*
G1X16990Y1640D2*
G1X16990Y125D1*
G1X16900Y1640D2*
G1X16900Y125D1*
G1X16810Y1640D2*
G1X16810Y125D1*
G1X16720Y1640D2*
G1X16720Y125D1*
G1X16630Y1640D2*
G1X16630Y125D1*
G1X16540Y1640D2*
G1X16540Y125D1*
G1X16450Y1640D2*
G1X16450Y125D1*
G1X16360Y1640D2*
G1X16360Y125D1*
G1X16270Y1640D2*
G1X16270Y125D1*
G1X16180Y1640D2*
G1X16180Y125D1*
G1X16090Y1640D2*
G1X16090Y125D1*
G1X16000Y1640D2*
G1X16000Y125D1*
G1X15910Y1640D2*
G1X15910Y125D1*
G1X14740Y1136D2*
G1X14740Y125D1*
G1X14200Y1200D2*
G1X14200Y125D1*
G1X17530Y1984D2*
G1X17530Y125D1*
G1X15640Y1640D2*
G1X15640Y125D1*
G1X15550Y1640D2*
G1X15550Y125D1*
G1X15460Y1640D2*
G1X15460Y125D1*
G1X17440Y1894D2*
G1X17440Y125D1*
G1X18075Y1120D2*
G1X14689Y1120D1*
G1X18075Y9875D2*
G1X18075Y125D1*
G1X15730Y9875D2*
G1X15730Y5240D1*
G1X17980Y9875D2*
G1X17980Y125D1*
G1X17800Y6130D2*
G1X17800Y125D1*
G1X17710Y6040D2*
G1X17710Y125D1*
G1X17620Y5993D2*
G1X17620Y125D1*
G1X17350Y1804D2*
G1X17350Y125D1*
G1X15370Y1640D2*
G1X15370Y125D1*
G1X15280Y1640D2*
G1X15280Y125D1*
G1X15190Y1640D2*
G1X15190Y125D1*
G1X15100Y1640D2*
G1X15100Y125D1*
G1X15010Y1640D2*
G1X15010Y125D1*
G1X14920Y1640D2*
G1X14920Y125D1*
G1X14650Y1115D2*
G1X14650Y125D1*
G1X14560Y1128D2*
G1X14560Y125D1*
G1X14470Y1184D2*
G1X14470Y125D1*
G1X14110Y1200D2*
G1X14110Y125D1*
G1X14020Y1200D2*
G1X14020Y125D1*
G1X13930Y1200D2*
G1X13930Y125D1*
G1X13840Y1200D2*
G1X13840Y125D1*
G1X13750Y1200D2*
G1X13750Y125D1*
G1X12580Y1200D2*
G1X12580Y125D1*
G1X13660Y1200D2*
G1X13660Y125D1*
G1X13570Y1200D2*
G1X13570Y125D1*
G1X11230Y434D2*
G1X11230Y125D1*
G1X11140Y346D2*
G1X11140Y125D1*
G1X13480Y1200D2*
G1X13480Y125D1*
G1X12310Y1200D2*
G1X12310Y125D1*
G1X12220Y1200D2*
G1X12220Y125D1*
G1X12130Y1200D2*
G1X12130Y125D1*
G1X13390Y1200D2*
G1X13390Y125D1*
G1X13300Y1200D2*
G1X13300Y125D1*
G1X13210Y1200D2*
G1X13210Y125D1*
G1X11590Y570D2*
G1X11590Y125D1*
G1X11500Y570D2*
G1X11500Y125D1*
G1X11770Y1200D2*
G1X11770Y125D1*
G1X13030Y1200D2*
G1X13030Y125D1*
G1X13120Y1200D2*
G1X13120Y125D1*
G1X10330Y1464D2*
G1X10330Y125D1*
G1X10690Y1274D2*
G1X10690Y125D1*
G1X12940Y1200D2*
G1X12940Y125D1*
G1X12850Y1200D2*
G1X12850Y125D1*
G1X12760Y1200D2*
G1X12760Y125D1*
G1X10240Y394D2*
G1X10240Y125D1*
G1X10060Y214D2*
G1X10060Y125D1*
G1X10150Y304D2*
G1X10150Y125D1*
G1X11050Y317D2*
G1X11050Y125D1*
G1X12670Y1200D2*
G1X12670Y125D1*
G1X12490Y1200D2*
G1X12490Y125D1*
G1X12400Y1200D2*
G1X12400Y125D1*
G1X12040Y1200D2*
G1X12040Y125D1*
G1X11950Y1200D2*
G1X11950Y125D1*
G1X11860Y1200D2*
G1X11860Y125D1*
G1X11680Y1200D2*
G1X11680Y125D1*
G1X11410Y570D2*
G1X11410Y125D1*
G1X11320Y570D2*
G1X11320Y125D1*
G1X10960Y322D2*
G1X10960Y125D1*
G1X10600Y1364D2*
G1X10600Y125D1*
G1X10870Y366D2*
G1X10870Y125D1*
G1X10780Y511D2*
G1X10780Y125D1*
G1X10510Y1398D2*
G1X10510Y125D1*
G1X10420Y1432D2*
G1X10420Y125D1*
G1X300Y4720D2*
G1X125Y4720D1*
G1X18075Y1840D2*
G1X17386Y1840D1*
G1X14380Y1640D2*
G1X14380Y1520D1*
G1X14290Y1640D2*
G1X14290Y1520D1*
G1X14200Y1640D2*
G1X14200Y1520D1*
G1X14110Y1640D2*
G1X14110Y1520D1*
G1X14020Y1640D2*
G1X14020Y1520D1*
G1X13930Y1640D2*
G1X13930Y1520D1*
G1X11420Y1520D2*
G1X11134Y1520D1*
G1X12310Y1704D2*
G1X12310Y1520D1*
G1X12220Y1794D2*
G1X12220Y1520D1*
G1X12130Y1884D2*
G1X12130Y1520D1*
G1X13390Y1640D2*
G1X13390Y1520D1*
G1X13300Y1640D2*
G1X13300Y1520D1*
G1X13210Y1640D2*
G1X13210Y1520D1*
G1X11770Y2440D2*
G1X11770Y1520D1*
G1X13030Y1640D2*
G1X13030Y1520D1*
G1X13120Y1640D2*
G1X13120Y1520D1*
G1X12940Y1640D2*
G1X12940Y1520D1*
G1X12850Y1640D2*
G1X12850Y1520D1*
G1X12760Y1640D2*
G1X12760Y1520D1*
G1X12670Y1640D2*
G1X12670Y1520D1*
G1X12490Y1640D2*
G1X12490Y1520D1*
G1X12400Y1645D2*
G1X12400Y1520D1*
G1X12040Y1974D2*
G1X12040Y1520D1*
G1X11950Y2264D2*
G1X11950Y1520D1*
G1X11860Y2354D2*
G1X11860Y1520D1*
G1X18075Y580D2*
G1X11660Y580D1*
G1X4285Y3730D2*
G1X3596Y3730D1*
G1X4216Y3640D2*
G1X3686Y3640D1*
G1X8144Y2200D2*
G1X5126Y2200D1*
G1X4786Y4180D2*
G1X3146Y4180D1*
G1X4765Y4090D2*
G1X3236Y4090D1*
G1X4195Y3550D2*
G1X3776Y3550D1*
G1X4208Y3460D2*
G1X3866Y3460D1*
G1X4264Y3370D2*
G1X3956Y3370D1*
G1X7164Y3280D2*
G1X4046Y3280D1*
G1X7254Y3190D2*
G1X4136Y3190D1*
G1X7280Y3100D2*
G1X4226Y3100D1*
G1X7054Y3010D2*
G1X4316Y3010D1*
G1X6966Y2920D2*
G1X4406Y2920D1*
G1X6937Y2830D2*
G1X4496Y2830D1*
G1X6942Y2740D2*
G1X4586Y2740D1*
G1X7596Y2470D2*
G1X4856Y2470D1*
G1X7621Y2380D2*
G1X4946Y2380D1*
G1X7698Y2290D2*
G1X5036Y2290D1*
G1X4778Y4000D2*
G1X3326Y4000D1*
G1X4834Y3910D2*
G1X3416Y3910D1*
G1X14650Y1640D2*
G1X14650Y1605D1*
G1X4850Y4360D2*
G1X2966Y4360D1*
G1X4850Y4270D2*
G1X3056Y4270D1*
G1X6189Y3820D2*
G1X3506Y3820D1*
G1X6986Y2650D2*
G1X4676Y2650D1*
G1X7131Y2560D2*
G1X4766Y2560D1*
G1X4840Y3380D2*
G1X4840Y2486D1*
G1X4750Y3380D2*
G1X4750Y2576D1*
G1X4660Y3380D2*
G1X4660Y2666D1*
G1X4570Y3332D2*
G1X4570Y2756D1*
G1X4480Y3298D2*
G1X4480Y2846D1*
G1X4390Y3300D2*
G1X4390Y2936D1*
G1X4300Y3339D2*
G1X4300Y3026D1*
G1X2770Y5046D2*
G1X2770Y4556D1*
G1X4210Y3456D2*
G1X4210Y3116D1*
G1X4120Y5090D2*
G1X4120Y3206D1*
G1X4030Y5090D2*
G1X4030Y3296D1*
G1X6100Y3380D2*
G1X6100Y2180D1*
G1X3940Y5090D2*
G1X3940Y3386D1*
G1X3850Y5090D2*
G1X3850Y3476D1*
G1X3760Y5090D2*
G1X3760Y3566D1*
G1X3670Y5090D2*
G1X3670Y3656D1*
G1X3580Y5090D2*
G1X3580Y3746D1*
G1X3490Y5090D2*
G1X3490Y3836D1*
G1X3400Y5090D2*
G1X3400Y3926D1*
G1X3310Y5090D2*
G1X3310Y4016D1*
G1X3220Y5090D2*
G1X3220Y4106D1*
G1X3130Y5090D2*
G1X3130Y4196D1*
G1X3040Y5090D2*
G1X3040Y4286D1*
G1X2950Y5090D2*
G1X2950Y4376D1*
G1X2860Y5090D2*
G1X2860Y4466D1*
G1X1960Y6090D2*
G1X1960Y4700D1*
G1X1870Y6090D2*
G1X1870Y4700D1*
G1X1780Y6090D2*
G1X1780Y4700D1*
G1X1690Y6090D2*
G1X1690Y4700D1*
G1X1600Y6090D2*
G1X1600Y4700D1*
G1X2230Y4792D2*
G1X2230Y4700D1*
G1X1510Y5521D2*
G1X1510Y4700D1*
G1X2140Y4892D2*
G1X2140Y4700D1*
G1X1420Y5376D2*
G1X1420Y4700D1*
G1X6460Y8534D2*
G1X6460Y8230D1*
G1X6370Y8472D2*
G1X6370Y8230D1*
G1X6280Y8455D2*
G1X6280Y8230D1*
G1X6190Y8472D2*
G1X6190Y8230D1*
G1X6533Y8387D2*
G1X6533Y8230D1*
G1X6533Y8320D2*
G1X5966Y8320D1*
G1X6533Y8230D2*
G1X6056Y8230D1*
G1X2320Y4758D2*
G1X2320Y4700D1*
G1X4390Y9875D2*
G1X4390Y8720D1*
G1X8980Y9875D2*
G1X8980Y9080D1*
G1X4480Y9875D2*
G1X4480Y8720D1*
G1X5830Y9875D2*
G1X5830Y8456D1*
G1X4840Y9875D2*
G1X4840Y8720D1*
G1X4300Y9875D2*
G1X4300Y8720D1*
G1X970Y5910D2*
G1X970Y4782D1*
G1X5920Y9875D2*
G1X5920Y8366D1*
G1X6100Y9875D2*
G1X6100Y8866D1*
G1X3940Y9875D2*
G1X3940Y8720D1*
G1X3850Y9875D2*
G1X3850Y8720D1*
G1X3760Y9875D2*
G1X3760Y8720D1*
G1X3670Y9875D2*
G1X3670Y8720D1*
G1X3490Y9875D2*
G1X3490Y8720D1*
G1X2050Y9875D2*
G1X2050Y8720D1*
G1X1960Y9875D2*
G1X1960Y8720D1*
G1X1870Y9875D2*
G1X1870Y8720D1*
G1X2320Y9875D2*
G1X2320Y8720D1*
G1X2230Y9875D2*
G1X2230Y8720D1*
G1X2140Y9875D2*
G1X2140Y8720D1*
G1X3220Y9875D2*
G1X3220Y8720D1*
G1X3130Y9875D2*
G1X3130Y8720D1*
G1X3400Y9875D2*
G1X3400Y8720D1*
G1X10600Y2842D2*
G1X10600Y1880D1*
G1X10510Y3084D2*
G1X10510Y1882D1*
G1X10420Y3174D2*
G1X10420Y1848D1*
G1X12362Y1660D2*
G1X11164Y1660D1*
G1X12174Y1840D2*
G1X11061Y1840D1*
G1X12264Y1750D2*
G1X11139Y1750D1*
G1X13570Y1640D2*
G1X13570Y1520D1*
G1X4120Y9875D2*
G1X4120Y8720D1*
G1X11140Y2440D2*
G1X11140Y1748D1*
G1X11050Y2440D2*
G1X11050Y1848D1*
G1X14485Y3190D2*
G1X11423Y3190D1*
G1X10320Y1454D2*
G1X10320Y540D1*
G1X10240Y3240D2*
G1X10240Y1872D1*
G1X10150Y3240D2*
G1X10150Y1885D1*
G1X1510Y6090D2*
G1X1510Y5619D1*
G1X1420Y6090D2*
G1X1420Y5764D1*
G1X1330Y6090D2*
G1X1330Y5807D1*
G1X1240Y6090D2*
G1X1240Y5813D1*
G1X1150Y6090D2*
G1X1150Y5784D1*
G1X1060Y6000D2*
G1X1060Y5696D1*
G1X2484Y5440D2*
G1X1478Y5440D1*
G1X2422Y5350D2*
G1X1378Y5350D1*
G1X2560Y5800D2*
G1X1354Y5800D1*
G1X6460Y3380D2*
G1X6460Y2180D1*
G1X7900Y2252D2*
G1X7900Y2180D1*
G1X7810Y2247D2*
G1X7810Y2180D1*
G1X7720Y2276D2*
G1X7720Y2180D1*
G1X7630Y2364D2*
G1X7630Y2180D1*
G1X8914Y2180D2*
G1X8495Y2180D1*
G1X13930Y8760D2*
G1X13930Y6355D1*
G1X13840Y8760D2*
G1X13840Y6342D1*
G1X13750Y8760D2*
G1X13750Y6286D1*
G1X15180Y6250D2*
G1X14121Y6250D1*
G1X7270Y3174D2*
G1X7270Y3028D1*
G1X7180Y3264D2*
G1X7180Y3045D1*
G1X7090Y3354D2*
G1X7090Y3028D1*
G1X7000Y3380D2*
G1X7000Y2966D1*
G1X7319Y3010D2*
G1X7306Y3010D1*
G1X7436Y2920D2*
G1X7394Y2920D1*
G1X7987Y2830D2*
G1X7423Y2830D1*
G1X9070Y2740D2*
G1X7417Y2740D1*
G1X7654Y2650D2*
G1X7374Y2650D1*
G1X5920Y3380D2*
G1X5920Y2180D1*
G1X5650Y3380D2*
G1X5650Y2180D1*
G1X5560Y3380D2*
G1X5560Y2180D1*
G1X6820Y3380D2*
G1X6820Y2180D1*
G1X5380Y3380D2*
G1X5380Y2180D1*
G1X4890Y4630D2*
G1X2696Y4630D1*
G1X14740Y1640D2*
G1X14740Y1584D1*
G1X5110Y3380D2*
G1X5110Y2216D1*
G1X5020Y3380D2*
G1X5020Y2306D1*
G1X4930Y3380D2*
G1X4930Y2396D1*
G1X7760Y5830D2*
G1X5356Y5830D1*
G1X7125Y5170D2*
G1X5705Y5170D1*
G1X7138Y5080D2*
G1X5755Y5080D1*
G1X7546Y3820D2*
G1X6591Y3820D1*
G1X6550Y4193D2*
G1X6550Y4145D1*
G1X6460Y4240D2*
G1X6460Y4195D1*
G1X6370Y4250D2*
G1X6370Y4204D1*
G1X6280Y4195D2*
G1X6280Y4179D1*
G1X6190Y4193D2*
G1X6190Y4101D1*
G1X7600Y3730D2*
G1X6474Y3730D1*
G1X6820Y4031D2*
G1X6820Y3700D1*
G1X6836Y4180D2*
G1X6498Y4180D1*
G1X6828Y4000D2*
G1X6632Y4000D1*
G1X3977Y7600D2*
G1X620Y7600D1*
G1X9114Y2380D2*
G1X8059Y2380D1*
G1X8080Y2441D2*
G1X8080Y2180D1*
G1X7600Y3460D2*
G1X7436Y3460D1*
G1X7540Y3832D2*
G1X7540Y3394D1*
G1X7360Y4195D2*
G1X7360Y3536D1*
G1X7180Y3866D2*
G1X7180Y3692D1*
G1X7090Y3837D2*
G1X7090Y3700D1*
G1X7000Y3842D2*
G1X7000Y3700D1*
G1X6910Y3886D2*
G1X6910Y3700D1*
G1X6730Y4250D2*
G1X6730Y3700D1*
G1X6640Y4195D2*
G1X6640Y3700D1*
G1X6550Y3774D2*
G1X6550Y3700D1*
G1X6460Y3725D2*
G1X6460Y3700D1*
G1X6370Y3716D2*
G1X6370Y3700D1*
G1X6280Y3741D2*
G1X6280Y3700D1*
G1X6100Y4240D2*
G1X6100Y3700D1*
G1X6010Y4250D2*
G1X6010Y3700D1*
G1X5920Y4195D2*
G1X5920Y3700D1*
G1X5830Y4193D2*
G1X5830Y3700D1*
G1X5740Y4240D2*
G1X5740Y3700D1*
G1X5650Y4250D2*
G1X5650Y3700D1*
G1X5560Y4195D2*
G1X5560Y3700D1*
G1X5470Y4190D2*
G1X5470Y3700D1*
G1X5380Y4210D2*
G1X5380Y3700D1*
G1X5290Y4270D2*
G1X5290Y3700D1*
G1X5200Y3925D2*
G1X5200Y3700D1*
G1X5110Y3856D2*
G1X5110Y3700D1*
G1X5020Y3835D2*
G1X5020Y3700D1*
G1X7064Y3380D2*
G1X7276Y3168D1*
G1X4570Y4950D2*
G1X4570Y3748D1*
G1X10420Y6321D2*
G1X10420Y6256D1*
G1X14830Y9875D2*
G1X14830Y9080D1*
G1X14740Y9875D2*
G1X14740Y9080D1*
G1X14650Y9875D2*
G1X14650Y9080D1*
G1X14470Y9875D2*
G1X14470Y9080D1*
G1X14560Y9875D2*
G1X14560Y9080D1*
G1X14380Y9875D2*
G1X14380Y9080D1*
G1X14290Y9875D2*
G1X14290Y9080D1*
G1X15190Y9875D2*
G1X15190Y8976D1*
G1X13840Y9875D2*
G1X13840Y9080D1*
G1X13750Y9875D2*
G1X13750Y9080D1*
G1X13390Y9875D2*
G1X13390Y9080D1*
G1X12940Y9875D2*
G1X12940Y9080D1*
G1X13300Y9875D2*
G1X13300Y9080D1*
G1X13210Y9875D2*
G1X13210Y9080D1*
G1X12760Y9586D2*
G1X12760Y9080D1*
G1X12670Y9542D2*
G1X12670Y9080D1*
G1X13030Y9875D2*
G1X13030Y9080D1*
G1X9070Y9875D2*
G1X9070Y9080D1*
G1X9430Y9875D2*
G1X9430Y9080D1*
G1X9340Y9875D2*
G1X9340Y9080D1*
G1X9250Y9875D2*
G1X9250Y9080D1*
G1X9160Y9875D2*
G1X9160Y9080D1*
G1X9880Y9875D2*
G1X9880Y9080D1*
G1X11230Y9875D2*
G1X11230Y9080D1*
G1X11050Y9875D2*
G1X11050Y9080D1*
G1X10960Y9875D2*
G1X10960Y9080D1*
G1X10870Y9875D2*
G1X10870Y9080D1*
G1X12040Y9875D2*
G1X12040Y9080D1*
G1X11950Y9875D2*
G1X11950Y9080D1*
G1X11860Y9875D2*
G1X11860Y9080D1*
G1X10330Y9875D2*
G1X10330Y9080D1*
G1X10240Y9875D2*
G1X10240Y9080D1*
G1X10150Y9875D2*
G1X10150Y9080D1*
G1X10060Y9875D2*
G1X10060Y9080D1*
G1X11770Y9875D2*
G1X11770Y9080D1*
G1X10510Y9875D2*
G1X10510Y9080D1*
G1X11680Y9875D2*
G1X11680Y9080D1*
G1X12850Y9731D2*
G1X12850Y9080D1*
G1X12400Y9654D2*
G1X12400Y9080D1*
G1X12580Y9537D2*
G1X12580Y9080D1*
G1X13120Y9875D2*
G1X13120Y9080D1*
G1X12490Y9566D2*
G1X12490Y9080D1*
G1X12220Y9875D2*
G1X12220Y9080D1*
G1X9970Y9875D2*
G1X9970Y9080D1*
G1X11590Y9875D2*
G1X11590Y9080D1*
G1X12130Y9875D2*
G1X12130Y9080D1*
G1X11500Y9875D2*
G1X11500Y9080D1*
G1X11140Y9875D2*
G1X11140Y9080D1*
G1X9790Y9875D2*
G1X9790Y9080D1*
G1X9700Y9875D2*
G1X9700Y9080D1*
G1X11410Y9875D2*
G1X11410Y9080D1*
G1X10420Y9875D2*
G1X10420Y9080D1*
G1X10780Y9875D2*
G1X10780Y9080D1*
G1X11320Y9875D2*
G1X11320Y9080D1*
G1X9610Y9875D2*
G1X9610Y9080D1*
G1X13570Y9875D2*
G1X13570Y9080D1*
G1X13480Y9875D2*
G1X13480Y9080D1*
G1X13660Y9875D2*
G1X13660Y9080D1*
G1X10690Y9875D2*
G1X10690Y9080D1*
G1X9520Y9875D2*
G1X9520Y9080D1*
G1X8980Y8760D2*
G1X8980Y8590D1*
G1X16110Y9130D2*
G1X8846Y9130D1*
G1X7360Y9875D2*
G1X7360Y8920D1*
G1X8800Y9875D2*
G1X8800Y9152D1*
G1X6370Y9875D2*
G1X6370Y9623D1*
G1X5740Y9875D2*
G1X5740Y8546D1*
G1X15034Y8680D2*
G1X8769Y8680D1*
G1X14020Y8760D2*
G1X14020Y6334D1*
G1X13930Y9875D2*
G1X13930Y9080D1*
G1X15100Y9875D2*
G1X15100Y9059D1*
G1X15280Y9875D2*
G1X15280Y8886D1*
G1X16110Y8950D2*
G1X15216Y8950D1*
G1X15124Y8590D2*
G1X13376Y8590D1*
G1X18075Y9220D2*
G1X7167Y9220D1*
G1X18075Y8410D2*
G1X15500Y8410D1*
G1X18075Y8320D2*
G1X15500Y8320D1*
G1X18075Y7690D2*
G1X15500Y7690D1*
G1X18075Y8050D2*
G1X15500Y8050D1*
G1X18075Y7600D2*
G1X15500Y7600D1*
G1X16110Y8590D2*
G1X15500Y8590D1*
G1X16110Y8500D2*
G1X15500Y8500D1*
G1X18075Y8140D2*
G1X15500Y8140D1*
G1X18075Y8230D2*
G1X15500Y8230D1*
G1X18075Y7780D2*
G1X15500Y7780D1*
G1X18075Y6880D2*
G1X15500Y6880D1*
G1X18075Y6790D2*
G1X15500Y6790D1*
G1X18075Y7330D2*
G1X15500Y7330D1*
G1X18075Y7240D2*
G1X15500Y7240D1*
G1X18075Y7150D2*
G1X15500Y7150D1*
G1X18075Y7060D2*
G1X15500Y7060D1*
G1X16110Y6700D2*
G1X15500Y6700D1*
G1X16110Y6610D2*
G1X15500Y6610D1*
G1X16110Y6520D2*
G1X15500Y6520D1*
G1X16110Y6430D2*
G1X15500Y6430D1*
G1X16110Y6340D2*
G1X15500Y6340D1*
G1X18075Y5980D2*
G1X17577Y5980D1*
G1X16110Y6070D2*
G1X15500Y6070D1*
G1X16110Y5980D2*
G1X15500Y5980D1*
G1X18075Y5260D2*
G1X15706Y5260D1*
G1X18075Y5800D2*
G1X15500Y5800D1*
G1X16110Y8770D2*
G1X15396Y8770D1*
G1X16180Y9875D2*
G1X16180Y9180D1*
G1X15460Y9875D2*
G1X15460Y8706D1*
G1X15228Y5285D2*
G1X15547Y4967D1*
G1X18075Y5080D2*
G1X17346Y5080D1*
G1X18070Y9875D2*
G1X18070Y125D1*
G1X16810Y5970D2*
G1X16810Y5240D1*
G1X16720Y5970D2*
G1X16720Y5240D1*
G1X16630Y5970D2*
G1X16630Y5240D1*
G1X16540Y5970D2*
G1X16540Y5240D1*
G1X16450Y5970D2*
G1X16450Y5240D1*
G1X16360Y5970D2*
G1X16360Y5240D1*
G1X12670Y8760D2*
G1X12670Y8229D1*
G1X9070Y8760D2*
G1X9070Y8590D1*
G1X9430Y8760D2*
G1X9430Y8590D1*
G1X9340Y8760D2*
G1X9340Y8590D1*
G1X9250Y8760D2*
G1X9250Y8590D1*
G1X9160Y8760D2*
G1X9160Y8590D1*
G1X9880Y8760D2*
G1X9880Y8590D1*
G1X11230Y8760D2*
G1X11230Y8590D1*
G1X11050Y8760D2*
G1X11050Y8590D1*
G1X10960Y8760D2*
G1X10960Y8590D1*
G1X12040Y8760D2*
G1X12040Y8590D1*
G1X11950Y8760D2*
G1X11950Y8590D1*
G1X11860Y8760D2*
G1X11860Y8590D1*
G1X10330Y8760D2*
G1X10330Y8590D1*
G1X10240Y8760D2*
G1X10240Y8590D1*
G1X10150Y8760D2*
G1X10150Y8590D1*
G1X10060Y8760D2*
G1X10060Y8590D1*
G1X11770Y8760D2*
G1X11770Y8590D1*
G1X10510Y8760D2*
G1X10510Y8590D1*
G1X12490Y8760D2*
G1X12490Y8090D1*
G1X9970Y8760D2*
G1X9970Y8590D1*
G1X12130Y8760D2*
G1X12130Y8648D1*
G1X11500Y8760D2*
G1X11500Y8590D1*
G1X11140Y8760D2*
G1X11140Y8590D1*
G1X9790Y8760D2*
G1X9790Y8590D1*
G1X9700Y8760D2*
G1X9700Y8590D1*
G1X11410Y8760D2*
G1X11410Y8590D1*
G1X10420Y8760D2*
G1X10420Y8590D1*
G1X10780Y8760D2*
G1X10780Y8590D1*
G1X11320Y8760D2*
G1X11320Y8590D1*
G1X12310Y8760D2*
G1X12310Y8648D1*
G1X9520Y8760D2*
G1X9520Y8590D1*
G1X13750Y1640D2*
G1X13750Y1520D1*
G1X15180Y8140D2*
G1X13370Y8140D1*
G1X12826Y8410D2*
G1X12465Y8410D1*
G1X12709Y8320D2*
G1X12444Y8320D1*
G1X12850Y8760D2*
G1X12850Y8417D1*
G1X12580Y8760D2*
G1X12580Y8090D1*
G1X13660Y8760D2*
G1X13660Y7696D1*
G1X7540Y5830D2*
G1X7540Y5336D1*
G1X3940Y8400D2*
G1X3940Y6479D1*
G1X3850Y8400D2*
G1X3850Y6504D1*
G1X3760Y8400D2*
G1X3760Y6495D1*
G1X7590Y6790D2*
G1X6538Y6790D1*
G1X5116Y6430D2*
G1X4006Y6430D1*
G1X5261Y6340D2*
G1X4062Y6340D1*
G1X4210Y5600D2*
G1X4210Y5430D1*
G1X12558Y7150D2*
G1X12518Y7150D1*
G1X12592Y7060D2*
G1X12456Y7060D1*
G1X12220Y6518D2*
G1X12220Y5810D1*
G1X1690Y6551D2*
G1X1690Y6430D1*
G1X2320Y6090D2*
G1X2320Y5242D1*
G1X2230Y6090D2*
G1X2230Y5208D1*
G1X4530Y4990D2*
G1X2605Y4990D1*
G1X4620Y4900D2*
G1X2584Y4900D1*
G1X4710Y4810D2*
G1X2515Y4810D1*
G1X10360Y6360D2*
G1X10360Y6332D1*
G1X13350Y6250D2*
G1X11754Y6250D1*
G1X13350Y6210D2*
G1X13130Y5990D1*
G1X13350Y6932D2*
G1X13350Y6210D1*
G1X10330Y6810D2*
G1X10330Y6770D1*
G1X4480Y7450D2*
G1X4480Y6170D1*
G1X7590Y6610D2*
G1X7438Y6610D1*
G1X10870Y8760D2*
G1X10870Y8590D1*
G1X12682Y8090D2*
G1X9650Y8090D1*
G1X321Y8320D2*
G1X125Y8320D1*
G1X300Y7420D2*
G1X125Y7420D1*
G1X300Y7780D2*
G1X125Y7780D1*
G1X584Y8590D2*
G1X125Y8590D1*
G1X300Y8140D2*
G1X125Y8140D1*
G1X300Y8050D2*
G1X125Y8050D1*
G1X300Y7960D2*
G1X125Y7960D1*
G1X494Y8500D2*
G1X125Y8500D1*
G1X300Y7870D2*
G1X125Y7870D1*
G1X300Y7690D2*
G1X125Y7690D1*
G1X138Y9130D2*
G1X125Y9130D1*
G1X195Y9040D2*
G1X125Y9040D1*
G1X284Y8950D2*
G1X125Y8950D1*
G1X443Y8860D2*
G1X125Y8860D1*
G1X6045Y8770D2*
G1X125Y8770D1*
G1X404Y8410D2*
G1X125Y8410D1*
G1X300Y7600D2*
G1X125Y7600D1*
G1X300Y7510D2*
G1X125Y7510D1*
G1X300Y6070D2*
G1X125Y6070D1*
G1X300Y5170D2*
G1X125Y5170D1*
G1X300Y5080D2*
G1X125Y5080D1*
G1X300Y5440D2*
G1X125Y5440D1*
G1X300Y5350D2*
G1X125Y5350D1*
G1X300Y5980D2*
G1X125Y5980D1*
G1X300Y6160D2*
G1X125Y6160D1*
G1X300Y5890D2*
G1X125Y5890D1*
G1X300Y5710D2*
G1X125Y5710D1*
G1X300Y5800D2*
G1X125Y5800D1*
G1X300Y7330D2*
G1X125Y7330D1*
G1X300Y7240D2*
G1X125Y7240D1*
G1X300Y7150D2*
G1X125Y7150D1*
G1X300Y7060D2*
G1X125Y7060D1*
G1X300Y6340D2*
G1X125Y6340D1*
G1X300Y5620D2*
G1X125Y5620D1*
G1X300Y5530D2*
G1X125Y5530D1*
G1X300Y6970D2*
G1X125Y6970D1*
G1X300Y5260D2*
G1X125Y5260D1*
G1X300Y4990D2*
G1X125Y4990D1*
G1X300Y4900D2*
G1X125Y4900D1*
G1X300Y6250D2*
G1X125Y6250D1*
G1X300Y6880D2*
G1X125Y6880D1*
G1X300Y6790D2*
G1X125Y6790D1*
G1X300Y6700D2*
G1X125Y6700D1*
G1X300Y6610D2*
G1X125Y6610D1*
G1X300Y6520D2*
G1X125Y6520D1*
G1X300Y6430D2*
G1X125Y6430D1*
G1X207Y4270D2*
G1X125Y4270D1*
G1X15550Y9875D2*
G1X15550Y5416D1*
G1X12555Y7190D2*
G75*
G3X12800Y6945I245J0D1*
G3X13025Y7092I0J245D1*
G1X12365Y9780D2*
G3X12610Y9535I245J0D1*
G3X12855Y9780I0J245D1*
G3X12836Y9875I-245J0D1*
G1X12395Y6500D2*
G3X12640Y6255I245J0D1*
G3X12885Y6500I0J245D1*
G3X12640Y6745I-245J0D1*
G3X12395Y6500I0J-245D1*
G1X4620Y5380D2*
G3X4500Y5430I-120J-120D1*
G1X2605Y5000D2*
G3X2604Y5019I-245J-3D1*
G1X2406Y5241D2*
G3X2360Y5245I-44J-241D1*
G1X2650Y5015D2*
G3X2826Y5090I0J245D1*
G1X2650Y5505D2*
G3X2405Y5260I0J-245D1*
G1X5744Y4910D2*
G3X5765Y5010I-224J99D1*
G1X4993Y4572D2*
G3X4980Y4560I109J-131D1*
G1X12255Y6980D2*
G3X12254Y6998I-245J-5D1*
G1X4900Y4480D2*
G3X4850Y4360I120J-120D1*
G1X1195Y4700D2*
G3X1010Y4785I-185J-160D1*
G1X7278Y4191D2*
G3X7300Y4190I19J169D1*
G1X7000Y5070D2*
G3X6880Y5020I0J-170D1*
G1X2604Y5019D2*
G3X2650Y5015I44J241D1*
G1X7125Y5160D2*
G3X7142Y5070I245J0D1*
G1X6920Y7400D2*
G3X7040Y7350I120J120D1*
G1X7780Y5170D2*
G3X7660Y5120I0J-170D1*
G1X8320Y5120D2*
G3X8200Y5170I-120J-120D1*
G1X8325Y5160D2*
G3X8330Y5110I245J-1D1*
G1X7598Y5070D2*
G3X7615Y5160I-228J90D1*
G1X10480Y4730D2*
G3X10560Y4750I0J170D1*
G1X9842Y5182D2*
G3X9900Y5220I-62J158D1*
G1X10500Y5090D2*
G3X10420Y5070I0J-170D1*
G1X7580Y9005D2*
G3X7394Y8920I0J-245D1*
G1X7780Y5170D2*
G3X7660Y5120I0J-170D1*
G1X11260Y4750D2*
G3X11380Y4800I0J170D1*
G1X12940Y4730D2*
G3X13060Y4780I0J170D1*
G1X12020Y4780D2*
G3X12140Y4730I120J120D1*
G1X10664Y4750D2*
G3X10595Y4580I176J-170D1*
G1X13740Y4830D2*
G3X13860Y4880I0J170D1*
G1X9080Y6860D2*
G3X9200Y6810I120J120D1*
G1X14164Y6124D2*
G3X13920Y6354I-244J-14D1*
G1X14300Y5320D2*
G3X14350Y5440I-120J120D1*
G1X14435Y5880D2*
G3X14190Y6125I-245J0D1*
G1X7615Y5160D2*
G3X7370Y5405I-245J0D1*
G3X7125Y5160I0J-245D1*
G1X11100Y5505D2*
G3X10855Y5260I0J-245D1*
G1X12520Y6070D2*
G3X12350Y5900I0J-170D1*
G1X11480Y5810D2*
G3X11360Y5760I0J-170D1*
G1X10920Y1885D2*
G3X10735Y1801I0J-245D1*
G1X9673Y3073D2*
G3X9560Y3120I-113J-113D1*
G1X10533Y3513D2*
G3X10420Y3560I-113J-113D1*
G1X7967Y2847D2*
G3X8080Y2800I113J113D1*
G1X7600Y3382D2*
G3X7520Y3395I-79J-232D1*
G1X7520Y2905D2*
G3X7749Y3064I0J245D1*
G1X7515Y3940D2*
G3X7600Y3754I245J0D1*
G1X7920Y3754D2*
G3X8005Y3937I-160J186D1*
G1X7760Y4185D2*
G3X7515Y3940I0J-245D1*
G1X5540Y7080D2*
G3X5505Y7076I1J-160D1*
G1X11700Y4260D2*
G3X11653Y4373I-160J0D1*
G1X5505Y7076D2*
G3X5510Y7140I-425J65D1*
G1X6060Y7415D2*
G3X5592Y7080I0J-495D1*
G1X5613Y6657D2*
G3X5629Y6676I-114J112D1*
G1X5613Y6657D2*
G3X5629Y6676I-114J112D1*
G1X5065Y6580D2*
G3X5310Y6335I245J0D1*
G3X5555Y6580I0J245D1*
G1X8267Y4272D2*
G3X8386Y4340I-57J238D1*
G1X11912Y6440D2*
G3X12020Y6415I108J220D1*
G1X10515Y5890D2*
G3X10430Y6075I-245J0D1*
G1X10025Y5890D2*
G3X10270Y5645I245J0D1*
G3X10515Y5890I0J245D1*
G1X14975Y2940D2*
G3X15220Y2695I245J0D1*
G3X15465Y2940I0J245D1*
G3X15220Y3185I-245J0D1*
G3X14975Y2940I0J-245D1*
G1X9373Y4613D2*
G3X9260Y4660I-113J-113D1*
G1X5555Y6580D2*
G3X5554Y6598I-245J-5D1*
G1X6060Y6425D2*
G3X6555Y6920I0J495D1*
G3X6060Y7415I-495J0D1*
G1X5629Y6676D2*
G3X6060Y6425I431J244D1*
G1X631Y8827D2*
G3X1184Y9380I0J553D1*
G3X878Y9875I-553J0D1*
G1X2822Y6090D2*
G3X2805Y6000I228J-90D1*
G1X1814Y6900D2*
G3X1261Y7453I-553J0D1*
G3X708Y6900I0J-553D1*
G1X4650Y8140D2*
G3X4830Y7790I430J0D1*
G1X4650Y7140D2*
G3X5080Y6710I430J0D1*
G1X5510Y7140D2*
G3X5378Y7450I-430J0D1*
G1X17110Y6350D2*
G3X17490Y5970I380J0D1*
G3X17870Y6350I0J380D1*
G3X17490Y6730I-380J0D1*
G3X17110Y6350I0J-380D1*
G1X17110Y8800D2*
G3X17490Y8420I380J0D1*
G3X17870Y8800I0J380D1*
G3X17490Y9180I-380J0D1*
G3X17110Y8800I0J-380D1*
G1X9560Y6520D2*
G3X9510Y6400I120J-120D1*
G1X10430Y6200D2*
G3X10360Y6332I-160J0D1*
G1X15620Y2800D2*
G3X16450Y1970I830J0D1*
G1X16450Y3630D2*
G3X15620Y2800I0J-830D1*
G1X5102Y6711D2*
G3X5064Y6580I208J-131D1*
G1X17280Y2800D2*
G3X16450Y3630I-830J0D1*
G1X14350Y5694D2*
G3X14435Y5880I-160J186D1*
G1X14300Y5320D2*
G3X14350Y5440I-120J120D1*
G1X14416Y3480D2*
G3X14395Y3380I224J-99D1*
G1X11953Y2713D2*
G3X11840Y2760I-113J-113D1*
G1X11265Y560D2*
G3X11265Y570I-245J5D1*
G1X10855Y5260D2*
G3X10924Y5090I245J0D1*
G1X7320Y4190D2*
G3X7440Y4240I0J170D1*
G1X10550Y1885D2*
G3X10355Y1788I0J-245D1*
G3X10160Y1885I-195J-148D1*
G1X9673Y3073D2*
G3X9560Y3120I-113J-113D1*
G1X10273Y427D2*
G3X10320Y540I-113J113D1*
G1X10038Y5970D2*
G3X10025Y5890I232J-79D1*
G1X10320Y1454D2*
G3X10355Y1492I-162J184D1*
G1X125Y9158D2*
G3X631Y8827I506J222D1*
G1X11747Y3527D2*
G3X11860Y3480I113J113D1*
G1X1002Y6411D2*
G3X960Y6380I79J-151D1*
G1X11480Y5810D2*
G3X11360Y5760I0J-170D1*
G1X7305Y4080D2*
G3X7278Y4191I-245J-1D1*
G1X4900Y4620D2*
G3X4993Y4572I121J120D1*
G1X9740Y4180D2*
G3X9693Y4293I-160J0D1*
G1X13370Y8244D2*
G3X13445Y8420I-170J176D1*
G1X7243Y3653D2*
G3X7130Y3700I-113J-113D1*
G1X10900Y6310D2*
G3X11020Y6360I0J170D1*
G1X11120Y6360D2*
G3X11240Y6310I120J120D1*
G1X10550Y6836D2*
G3X10597Y6815I92J143D1*
G1X10670Y6370D2*
G3X10800Y6310I130J110D1*
G1X10540Y6310D2*
G3X10660Y6360I0J170D1*
G1X8310Y2265D2*
G3X8124Y2180I0J-245D1*
G1X8560Y6810D2*
G3X8680Y6860I0J170D1*
G1X10500Y6720D2*
G3X10490Y6710I115J-125D1*
G1X10540Y6310D2*
G3X10660Y6360I0J170D1*
G1X10360Y6360D2*
G3X10480Y6310I120J120D1*
G1X10597Y6815D2*
G3X10580Y6800I104J-135D1*
G1X10300Y6770D2*
G3X10180Y6720I0J-170D1*
G1X10480Y6720D2*
G3X10360Y6770I-120J-120D1*
G1X10500Y6720D2*
G3X10490Y6710I115J-125D1*
G1X3460Y6380D2*
G3X3340Y6430I-120J-120D1*
G1X9760Y6650D2*
G3X9640Y6600I0J-170D1*
G1X9560Y6520D2*
G3X9510Y6400I120J-120D1*
G1X9380Y5720D2*
G3X9330Y5600I120J-120D1*
G3X9380Y5480I170J0D1*
G1X9824Y5690D2*
G3X9850Y5780I-144J90D1*
G1X9380Y5720D2*
G3X9330Y5600I120J-120D1*
G3X9380Y5480I170J0D1*
G1X9460Y5400D2*
G3X9539Y5355I121J120D1*
G1X10030Y5520D2*
G3X9860Y5690I-170J0D1*
G1X9800Y5120D2*
G3X9838Y5178I-120J120D1*
G1X9539Y5355D2*
G3X9525Y5330I141J-95D1*
G1X9460Y5400D2*
G3X9539Y5355I121J120D1*
G1X9842Y5182D2*
G3X9900Y5220I-62J158D1*
G1X9980Y5300D2*
G3X10030Y5420I-120J120D1*
G1X9206Y5327D2*
G3X9060Y5410I-146J-87D1*
G1X9240Y5330D2*
G3X9206Y5327I-2J-170D1*
G1X7980Y6860D2*
G3X8100Y6810I120J120D1*
G1X8880Y5410D2*
G3X8740Y5336I0J-170D1*
G1X8400Y6860D2*
G3X8520Y6810I120J120D1*
G1X8570Y5405D2*
G3X8325Y5160I0J-245D1*
G1X9420Y3720D2*
G3X9467Y3607I160J0D1*
G1X7536Y4336D2*
G3X7580Y4330I45J164D1*
G1X7807Y4257D2*
G3X7795Y4182I233J-76D1*
G1X7320Y4190D2*
G3X7440Y4240I0J170D1*
G1X10580Y2920D2*
G3X10627Y2807I160J0D1*
G1X6854Y4213D2*
G3X6815Y4080I206J-133D1*
G1X7300Y4190D2*
G3X7310Y4190I5J170D1*
G1X6600Y4190D2*
G3X6720Y4240I0J170D1*
G1X6580Y4190D2*
G3X6590Y4190I5J170D1*
G1X6460Y4240D2*
G3X6580Y4190I120J120D1*
G1X6240Y4190D2*
G3X6360Y4240I0J170D1*
G1X6220Y4190D2*
G3X6230Y4190I5J170D1*
G1X6100Y4240D2*
G3X6220Y4190I120J120D1*
G1X5880Y4190D2*
G3X6000Y4240I0J170D1*
G1X5860Y4190D2*
G3X5870Y4190I5J170D1*
G1X5740Y4240D2*
G3X5860Y4190I120J120D1*
G1X5520Y4190D2*
G3X5640Y4240I0J170D1*
G1X5340Y4240D2*
G3X5460Y4190I120J120D1*
G1X4993Y4572D2*
G3X4980Y4560I109J-131D1*
G1X12000Y2080D2*
G3X12047Y1967I160J0D1*
G1X4900Y4620D2*
G3X4993Y4572I121J120D1*
G1X4900Y4480D2*
G3X4850Y4360I120J-120D1*
G1X4765Y4080D2*
G3X5010Y3835I245J0D1*
G3X5255Y4080I0J245D1*
G3X5190Y4246I-245J0D1*
G1X7640Y7960D2*
G3X7590Y7840I120J-120D1*
G1X7980Y6860D2*
G3X8100Y6810I120J120D1*
G1X8200Y6810D2*
G3X8320Y6860I0J170D1*
G1X9240Y6245D2*
G3X9064Y6170I0J-245D1*
G1X8400Y6860D2*
G3X8520Y6810I120J120D1*
G1X8740Y5336D2*
G3X8570Y5405I-170J-176D1*
G1X8760Y6860D2*
G3X8880Y6810I120J120D1*
G1X9620Y8120D2*
G3X9500Y8170I-120J-120D1*
G1X8920Y6810D2*
G3X9040Y6860I0J170D1*
G1X9539Y5355D2*
G3X9525Y5330I141J-95D1*
G1X8760Y6860D2*
G3X8880Y6810I120J120D1*
G1X1552Y6430D2*
G3X1814Y6900I-291J470D1*
G1X10597Y6815D2*
G3X10580Y6800I104J-135D1*
G1X9080Y6860D2*
G3X9200Y6810I120J120D1*
G1X10460Y6810D2*
G3X10550Y6836I0J170D1*
G1X3975Y7630D2*
G3X4220Y7385I245J0D1*
G1X4220Y7875D2*
G3X3975Y7630I0J-245D1*
G1X4782Y7450D2*
G3X4650Y7140I298J-310D1*
G1X6920Y7400D2*
G3X7040Y7350I120J120D1*
G1X7052Y8452D2*
G3X7017Y8387I128J-111D1*
G1X7300Y7440D2*
G3X7350Y7560I-120J120D1*
G1X7140Y7350D2*
G3X7260Y7400I0J170D1*
G1X7052Y8452D2*
G3X7017Y8387I128J-111D1*
G1X7800Y8250D2*
G3X7920Y8300I0J170D1*
G3X8040Y8250I120J120D1*
G1X7860Y8690D2*
G3X7813Y8683I1J-170D1*
G1X7860Y8690D2*
G3X7813Y8683I1J-170D1*
G3X7825Y8760I-233J76D1*
G1X8100Y8640D2*
G3X7980Y8690I-120J-120D1*
G1X8150Y8590D2*
G3X8140Y8600I-125J-115D1*
G1X8150Y8590D2*
G3X8140Y8600I-125J-115D1*
G1X12220Y8175D2*
G3X12465Y8420I0J245D1*
G3X12220Y8665I-245J0D1*
G1X12044Y8250D2*
G3X12220Y8175I176J170D1*
G1X4075Y6260D2*
G3X3830Y6505I-245J0D1*
G3X3585Y6260I0J-245D1*
G1X12290Y6995D2*
G3X12534Y7216I0J245D1*
G1X2115Y5000D2*
G3X2360Y4755I245J0D1*
G3X2605Y5000I0J245D1*
G1X2360Y5245D2*
G3X2115Y5000I0J-245D1*
G1X6965Y6520D2*
G3X7210Y6275I245J0D1*
G3X7455Y6520I0J245D1*
G3X7210Y6765I-245J0D1*
G3X6965Y6520I0J-245D1*
G1X12200Y6826D2*
G3X12255Y6980I-190J155D1*
G1X205Y4240D2*
G3X211Y4185I245J-1D1*
G1X10355Y1492D2*
G3X10550Y1395I195J148D1*
G1X10160Y1885D2*
G3X10040Y1854I-1J-245D1*
G1X10273Y427D2*
G3X10320Y540I-113J113D1*
G1X10320Y1454D2*
G3X10355Y1492I-162J184D1*
G1X1025Y5570D2*
G3X1270Y5325I245J0D1*
G3X1515Y5570I0J245D1*
G3X1270Y5815I-245J0D1*
G3X1025Y5570I0J-245D1*
G1X12020Y6415D2*
G3X12265Y6660I0J245D1*
G3X12200Y6826I-245J0D1*
G1X6935Y2800D2*
G3X7180Y2555I245J0D1*
G3X7425Y2800I0J245D1*
G1X7180Y3045D2*
G3X6935Y2800I0J-245D1*
G1X11755Y4160D2*
G3X12000Y3915I245J0D1*
G3X12245Y4160I0J245D1*
G3X12000Y4405I-245J0D1*
G3X11755Y4160I0J-245D1*
G1X6815Y4080D2*
G3X7060Y3835I245J0D1*
G3X7305Y4080I0J245D1*
G1X7275Y3150D2*
G3X7334Y2991I245J0D1*
G1X2555Y5750D2*
G3X2800Y5505I245J0D1*
G1X2800Y5995D2*
G3X2555Y5750I0J-245D1*
G1X5275Y5010D2*
G3X5296Y4910I245J-1D1*
G1X5765Y5010D2*
G3X5680Y5195I-245J0D1*
G1X6145Y3960D2*
G3X6390Y3715I245J0D1*
G3X6635Y3960I0J245D1*
G3X6390Y4205I-245J0D1*
G3X6145Y3960I0J-245D1*
G1X7425Y2800D2*
G3X7366Y2959I-245J0D1*
G1X4625Y3700D2*
G3X4440Y3785I-185J-160D1*
G1X7276Y3168D2*
G3X7275Y3150I244J-23D1*
G1X7243Y3653D2*
G3X7130Y3700I-113J-113D1*
G1X4195Y3540D2*
G3X4440Y3295I245J0D1*
G1X7334Y2991D2*
G3X7180Y3045I-154J-191D1*
G1X4440Y3295D2*
G3X4625Y3380I0J245D1*
G1X4440Y3785D2*
G3X4195Y3540I0J-245D1*
G1X13260Y6915D2*
G3X13350Y6932I0J245D1*
G1X13025Y7092D2*
G3X13260Y6915I235J68D1*
G1X10025Y5890D2*
G3X10270Y5645I245J0D1*
G3X10515Y5890I0J245D1*
G1X10038Y5970D2*
G3X10025Y5890I232J-79D1*
G1X5080Y6710D2*
G3X5103Y6711I-7J430D1*
G1X14640Y1605D2*
G3X14454Y1520I0J-245D1*
G1X7920Y8300D2*
G3X8040Y8250I120J120D1*
G1X7223Y8920D2*
G3X7171Y8929I-53J-151D1*
G1X8905Y9080D2*
G3X8720Y9165I-185J-160D1*
G1X7825Y8760D2*
G3X7580Y9005I-245J0D1*
G1X15133Y9033D2*
G3X15020Y9080I-113J-113D1*
G1X8475Y8920D2*
G3X8720Y8675I245J0D1*
G3X8905Y8760I0J245D1*
G1X8720Y9165D2*
G3X8475Y8920I0J-245D1*
G1X15180Y5400D2*
G3X15227Y5287I160J0D1*
G1X15500Y8600D2*
G3X15453Y8713I-160J0D1*
G1X17233Y5193D2*
G3X17120Y5240I-113J-113D1*
G1X17553Y2007D2*
G3X17600Y2120I-113J113D1*
G1X17600Y4760D2*
G3X17553Y4873I-160J0D1*
G1X17120Y1640D2*
G3X17233Y1687I0J160D1*
G1X15547Y4967D2*
G3X15660Y4920I113J113D1*
G1X17120Y1640D2*
G3X17233Y1687I0J160D1*
G1X12327Y1687D2*
G3X12440Y1640I113J113D1*
G1X12000Y2080D2*
G3X12047Y1967I160J0D1*
G1X12320Y2280D2*
G3X12273Y2393I-160J0D1*
G1X11953Y2713D2*
G3X11840Y2760I-113J-113D1*
G1X10947Y2487D2*
G3X11060Y2440I113J113D1*
G1X10580Y2920D2*
G3X10627Y2807I160J0D1*
G1X10900Y3080D2*
G3X10853Y3193I-160J0D1*
G1X10533Y3513D2*
G3X10420Y3560I-113J-113D1*
G1X9787Y3287D2*
G3X9900Y3240I113J113D1*
G1X9420Y3720D2*
G3X9467Y3607I160J0D1*
G1X9373Y4613D2*
G3X9260Y4660I-113J-113D1*
G1X7366Y2959D2*
G3X7520Y2905I154J191D1*
G1X8285Y4180D2*
G3X8267Y4272I-245J0D1*
G1X10500Y5090D2*
G3X10420Y5070I0J-170D1*
G1X11333Y4693D2*
G3X11220Y4740I-113J-113D1*
G1X10595Y4580D2*
G3X10840Y4335I245J0D1*
G1X11025Y4740D2*
G3X11016Y4750I-186J-159D1*
G1X11380Y3960D2*
G3X11427Y3847I160J0D1*
G1X10840Y4335D2*
G3X11025Y4420I0J245D1*
G1X14628Y3753D2*
G3X14515Y3800I-113J-113D1*
G1X14788Y3575D2*
G3X14753Y3628I-148J-60D1*
G1X14885Y3380D2*
G3X14788Y3575I-245J0D1*
G1X14395Y3380D2*
G3X14640Y3135I245J0D1*
G3X14885Y3380I0J245D1*
G1X6167Y9453D2*
G3X6120Y9340I113J-113D1*
G1X6035Y8700D2*
G3X6280Y8455I245J0D1*
G3X6525Y8700I0J245D1*
G3X6440Y8885I-245J0D1*
G1X6120Y8885D2*
G3X6035Y8700I160J-185D1*
G1X6407Y9627D2*
G3X6294Y9580I0J-160D1*
G1X10775Y560D2*
G3X11020Y315I245J0D1*
G3X11265Y560I0J245D1*
G1X11020Y805D2*
G3X10775Y560I0J-245D1*
G1X13445Y8420D2*
G3X13200Y8665I-245J0D1*
G1X13370Y8244D2*
G3X13445Y8420I-170J176D1*
G1X13200Y8665D2*
G3X12955Y8421I0J-245D1*
G1X14190Y6125D2*
G3X14165Y6124I-3J-245D1*
G1X13690Y7600D2*
G3X13640Y7720I-170J0D1*
G1X12955Y8421D2*
G3X12910Y8425I-44J-241D1*
G1X13920Y6355D2*
G3X13690Y6194I0J-245D1*
G1X12780Y6020D2*
G3X12660Y6070I-120J-120D1*
G1X13445Y8420D2*
G3X13200Y8665I-245J0D1*
G3X12955Y8421I0J-245D1*
G1X13690Y7600D2*
G3X13640Y7720I-170J0D1*
G1X9620Y8120D2*
G3X9500Y8170I-120J-120D1*
G1X7920Y8170D2*
G3X7800Y8120I0J-170D1*
G1X5360Y5195D2*
G3X5275Y5010I160J-185D1*
G1X7640Y7960D2*
G3X7590Y7840I120J-120D1*
G1X4058Y6170D2*
G3X4075Y6260I-228J90D1*
G1X9240Y5755D2*
G3X9485Y6000I0J245D1*
G3X9240Y6245I-245J0D1*
G1X9064Y5830D2*
G3X9240Y5755I176J170D1*
G1X9240Y6245D2*
G3X9064Y6170I0J-245D1*
G1X9240Y5755D2*
G3X9485Y6000I0J245D1*
G3X9240Y6245I-245J0D1*
G1X9064Y5830D2*
G3X9240Y5755I176J170D1*
G1X708Y6900D2*
G3X1002Y6411I553J0D1*
G1X3460Y6380D2*
G3X3340Y6430I-120J-120D1*
G1X1002Y6411D2*
G3X960Y6380I79J-151D1*
G1X1010Y4785D2*
G3X930Y4772I-1J-245D1*
G1X640Y6060D2*
G3X620Y6036I120J-120D1*
G1X211Y4185D2*
G3X200Y4185I-6J-245D1*
G1X300Y4434D2*
G3X205Y4240I150J-194D1*
G1X200Y4185D2*
G3X125Y4173I1J-245D1*
G1X7595Y2490D2*
G3X7840Y2245I245J0D1*
G3X8085Y2490I0J245D1*
G3X7840Y2735I-245J0D1*
G3X7595Y2490I0J-245D1*
G1X12665Y8180D2*
G3X12682Y8090I245J0D1*
G1X12910Y8425D2*
G3X12665Y8180I0J-245D1*
G1X10255Y4180D2*
G3X10500Y3935I245J0D1*
G3X10745Y4180I0J245D1*
G3X10500Y4425I-245J0D1*
G3X10255Y4180I0J-245D1*
G1X8040Y3935D2*
G3X8285Y4180I0J245D1*
G1X8005Y3937D2*
G3X8040Y3934I38J243D1*
G1X7795Y4182D2*
G3X7760Y4185I-38J-242D1*
G1X11670Y6235D2*
G3X11912Y6440I0J245D1*
G1X11494Y6310D2*
G3X11670Y6235I176J170D1*
G1X12220Y8665D2*
G3X12044Y8590I0J-245D1*
G1X4220Y7385D2*
G3X4386Y7450I0J245D1*
G1X2800Y5505D2*
G3X2994Y5600I0J245D1*
G1X2826Y5430D2*
G3X2650Y5505I-176J-170D1*
G1X10515Y5890D2*
G3X10430Y6075I-245J0D1*
G1X12780Y6020D2*
G3X12660Y6070I-120J-120D1*
G1X12020Y4780D2*
G3X12140Y4730I120J120D1*
G1X10900Y6310D2*
G3X11020Y6360I0J170D1*
G1X10160Y1885D2*
G3X10040Y1854I-1J-245D1*
G1X8404Y4660D2*
G3X8318Y4730I-194J-150D1*
G1X12384Y9875D2*
G3X12365Y9780I226J-95D1*
G1X5520Y4190D2*
G3X5640Y4240I0J170D1*
G1X7664Y4330D2*
G3X7807Y4257I177J170D1*
G1X10040Y2640D2*
G3X9993Y2753I-160J0D1*
G1X6407Y9627D2*
G3X6294Y9580I0J-160D1*
G1X5880Y4190D2*
G3X6000Y4240I0J170D1*
G1X4850Y4265D2*
G3X4765Y4080I160J-185D1*
G1X5613Y8673D2*
G3X5500Y8720I-113J-113D1*
G1X9966Y125D2*
G3X9993Y147I-87J134D1*
G1X4405Y7790D2*
G3X4220Y7875I-185J-160D1*
G1X12254Y6998D2*
G3X12290Y6995I38J242D1*
G1X6600Y4190D2*
G3X6720Y4240I0J170D1*
G1X10735Y1801D2*
G3X10550Y1885I-185J-161D1*
G1X6240Y4190D2*
G3X6360Y4240I0J170D1*
G1X7000Y5070D2*
G3X6880Y5020I0J-170D1*
G1X11200Y726D2*
G3X11020Y805I-180J-166D1*
G1X347Y8353D2*
G3X300Y8240I113J-113D1*
G1X16450Y1970D2*
G3X17280Y2800I0J830D1*
G1X11134Y1520D2*
G3X11165Y1640I-214J119D1*
G1X14640Y1115D2*
G3X14885Y1360I0J245D1*
G3X14640Y1605I-245J0D1*
G1X14454Y1200D2*
G3X14640Y1115I186J160D1*
G1X2673Y4653D2*
G3X2560Y4700I-113J-113D1*
G1X640Y6060D2*
G3X620Y6036I120J-120D1*
G1X2673Y4653D2*
G3X2560Y4700I-113J-113D1*
G1X780Y8720D2*
G3X667Y8673I0J-160D1*
G1X5613Y8673D2*
G3X5500Y8720I-113J-113D1*
G1X347Y8353D2*
G3X300Y8240I113J-113D1*
G1X8495Y2180D2*
G3X8310Y2265I-185J-160D1*
G1X10355Y1788D2*
G3X10160Y1885I-195J-148D1*
G1X10717Y1247D2*
G3X10830Y1200I113J113D1*
G1X11165Y1640D2*
G3X10920Y1885I-245J0D1*
G1X10550Y1395D2*
G3X10568Y1396I-5J245D1*
G1X10935Y3220D2*
G3X11180Y2975I245J0D1*
G3X11425Y3220I0J245D1*
G3X11180Y3465I-245J0D1*
G3X10935Y3220I0J-245D1*
G1X5680Y5440D2*
G3X5633Y5553I-160J0D1*
G1X6820Y4240D2*
G3X6854Y4213I122J119D1*
G1X7520Y3395D2*
G3X7502Y3394I5J-245D1*
G1X4737Y8400D2*
G3X4650Y8140I343J-259D1*
G1X2405Y5260D2*
G3X2406Y5241I245J3D1*
G1X10480Y6720D2*
G3X10360Y6770I-120J-120D1*
G1X7300Y7440D2*
G3X7350Y7560I-120J120D1*
G74*
G54D47*
G1X6560Y1550D3*
G1X6140Y1550D3*
G1X11430Y800D3*
G1X11850Y800D3*
G1X10130Y6200D3*
G1X10550Y6200D3*
G1X9300Y2710D3*
G1X8880Y2710D3*
G54D48*
G1X17490Y6350D3*
G1X17490Y8800D3*
G54D49*
G1X16490Y6350D3*
G1X16490Y8800D3*
G54D50*
G1X1261Y6900D3*
G1X631Y9380D3*
G54D51*
G1X5080Y7140D3*
G1X5080Y8140D3*
G1X5080Y9140D3*
G54D52*
G1X7590Y670D3*
G1X6590Y670D3*
G1X5590Y670D3*
G54D53*
G1X8590Y670D3*
G54D54*
G1X6850Y9467D3*
G1X6850Y8769D3*
G1X6850Y8070D3*
G54D55*
G1X10520Y5170D3*
G1X5900Y3910D3*
G1X12570Y2360D3*
G1X8230Y8920D3*
G1X5870Y9530D3*
G54D96*
G1X16450Y2800D3*
G1X1750Y2800D3*
G54D97*
G1X6060Y6920D3*
G54D98*
G1X1750Y2820D3*
G54D99*
G1X15220Y2940D3*
G54D100*
G1X14640Y1360D3*
G1X1010Y4540D3*
G1X450Y4240D3*
G1X8310Y2020D3*
G1X10550Y1640D3*
G1X10920Y1640D3*
G1X11180Y3220D3*
G1X200Y3940D3*
G1X8100Y500D3*
G1X10160Y1640D3*
G1X1270Y5570D3*
G1X1870Y5060D3*
G1X3440Y5510D3*
G1X11620Y8170D3*
G1X12820Y3230D3*
G1X7210Y2420D3*
G1X12950Y6120D3*
G1X12790Y6820D3*
G1X14390Y8170D3*
G1X4320Y9200D3*
G1X5760Y5320D3*
G1X5190Y5130D3*
G1X11040Y1110D3*
G1X12160Y800D3*
G1X12420Y4270D3*
G1X13370Y4060D3*
G1X15480Y3740D3*
G1X14630Y5060D3*
G1X6110Y3220D3*
G1X8410Y6450D3*
G1X5080Y2850D3*
G1X5940Y2260D3*
G1X8350Y3220D3*
G1X10160Y3930D3*
G1X12020Y6660D3*
G1X3240Y1230D3*
G1X13920Y6110D3*
G1X7180Y2800D3*
G1X12000Y4160D3*
G1X5640Y1480D3*
G1X7060Y4080D3*
G1X8570Y2710D3*
G1X2580Y1780D3*
G1X2800Y5750D3*
G1X5520Y5010D3*
G1X6390Y3960D3*
G1X8890Y1320D3*
G1X7520Y3150D3*
G1X4440Y3540D3*
G1X13260Y7160D3*
G1X10270Y5890D3*
G1X7580Y8760D3*
G1X8720Y8920D3*
G1X8210Y4510D3*
G1X10840Y4580D3*
G1X14640Y3380D3*
G1X6280Y8700D3*
G1X11020Y560D3*
G1X9400Y1260D3*
G1X13200Y8420D3*
G1X6450Y8370D3*
G1X9010Y5740D3*
G1X9240Y6000D3*
G1X2060Y4080D3*
G1X7840Y2490D3*
G1X12910Y8180D3*
G1X10500Y4180D3*
G1X8040Y4180D3*
G1X11670Y6480D3*
G1X8570Y5160D3*
G1X7840Y4500D3*
G1X5010Y4080D3*
G1X8020Y7750D3*
G1X12010Y6980D3*
G1X4220Y7630D3*
G1X12220Y8420D3*
G1X3830Y6260D3*
G1X12290Y7240D3*
G1X2360Y5000D3*
G1X12960Y5560D3*
G1X7210Y6520D3*
G1X9690Y7500D3*
G1X12800Y7190D3*
G1X2450Y4050D3*
G1X12610Y9780D3*
G1X3050Y6000D3*
G1X12640Y6500D3*
G1X2650Y5260D3*
G1X14190Y5880D3*
G1X12530Y5320D3*
G1X7370Y5160D3*
G1X11100Y5260D3*
G1X12520Y5640D3*
G1X9880Y600D3*
G1X7760Y3940D3*
G1X5310Y6580D3*
M2*
