*
%LPD*%
%LNRAGOBOT_HEAD.SST*%
%FSLAX24Y24*%
%MOIN*%
%AD*%
%ADD58C,0.008000*%
%ADD59C,0.010000*%
%ADD92C,0.003900*%
%ADD93C,0.006000*%
G54D58*
%SRX1Y1I0.0J0.0*%
G1X8771Y6971D2*
G1X8882Y6971D1*
G1X8882Y6859D1*
G1X8854Y6804D1*
G1X8688Y6804D1*
G1X8660Y6859D1*
G1X8660Y7082D1*
G1X8688Y7137D1*
G1X8854Y7137D1*
G1X8882Y7082D1*
G1X8278Y6804D2*
G1X8250Y6859D1*
G1X8250Y7082D1*
G1X8278Y7137D1*
G1X8444Y7137D1*
G1X8472Y7082D1*
G1X8472Y6859D1*
G1X8444Y6804D1*
G1X8278Y6804D1*
G1X8062Y6804D2*
G1X7868Y6804D1*
G1X7868Y7137D1*
G1X7680Y6915D2*
G1X7458Y6915D1*
G1X7680Y6804D2*
G1X7680Y6971D1*
G1X7597Y7137D1*
G1X7541Y7137D1*
G1X7458Y6971D1*
G1X7458Y6804D1*
G1X7270Y7137D2*
G1X7270Y6804D1*
G1X7214Y6859D1*
G1X7103Y7082D1*
G1X7048Y7137D1*
G1X7048Y6804D1*
G1X6860Y6915D2*
G1X6638Y6915D1*
G1X6860Y6804D2*
G1X6860Y6971D1*
G1X6777Y7137D1*
G1X6721Y7137D1*
G1X6638Y6971D1*
G1X6638Y6804D1*
G1X5638Y8954D2*
G1X5638Y9065D1*
G1X5638Y9010D2*
G1X5971Y9010D1*
G1X5916Y9065D1*
G1X5805Y9392D2*
G1X5638Y9309D1*
G1X5805Y9531D2*
G1X5805Y9364D1*
G1X5860Y9309D1*
G1X5916Y9309D1*
G1X5971Y9364D1*
G1X5971Y9531D1*
G1X5638Y9531D1*
G1X5638Y9719D2*
G1X5638Y9830D1*
G1X5638Y9774D2*
G1X5971Y9774D1*
G1X5971Y9719D2*
G1X5971Y9830D1*
G1X15669Y6208D2*
G1X15447Y6208D1*
G1X15669Y6430D1*
G1X15669Y6485D1*
G1X15642Y6541D1*
G1X15475Y6541D1*
G1X15447Y6485D1*
G1X15065Y6208D2*
G1X15065Y6541D1*
G1X15037Y6208D2*
G1X15204Y6208D1*
G1X15259Y6319D1*
G1X15259Y6430D1*
G1X15204Y6541D1*
G1X15037Y6541D1*
G1X16462Y5649D2*
G1X16462Y5427D1*
G1X16573Y5538D2*
G1X16351Y5538D1*
G1X10197Y2534D2*
G1X10086Y2534D1*
G1X10141Y2534D2*
G1X10141Y2867D1*
G1X10086Y2812D1*
G1X9843Y2589D2*
G1X9815Y2534D1*
G1X9648Y2534D1*
G1X9620Y2589D1*
G1X9620Y2812D1*
G1X9648Y2867D1*
G1X9815Y2867D1*
G1X9843Y2812D1*
G1X5428Y2839D2*
G1X5455Y2895D1*
G1X5455Y2950D1*
G1X5428Y3006D1*
G1X5261Y3006D1*
G1X5233Y2950D1*
G1X5233Y2895D1*
G1X5261Y2839D1*
G1X5428Y2839D1*
G1X5455Y2784D1*
G1X5455Y2728D1*
G1X5428Y2673D1*
G1X5261Y2673D1*
G1X5233Y2728D1*
G1X5233Y2784D1*
G1X5261Y2839D1*
G1X5045Y2728D2*
G1X5018Y2673D1*
G1X4851Y2673D1*
G1X4823Y2728D1*
G1X4823Y2950D1*
G1X4851Y3006D1*
G1X5018Y3006D1*
G1X5045Y2950D1*
G1X2739Y5209D2*
G1X2739Y5542D1*
G1X2850Y5542D2*
G1X2628Y5542D1*
G1X2246Y5209D2*
G1X2218Y5264D1*
G1X2218Y5487D1*
G1X2246Y5542D1*
G1X2412Y5542D1*
G1X2440Y5487D1*
G1X2440Y5264D1*
G1X2412Y5209D1*
G1X2246Y5209D1*
G1X1836Y5209D2*
G1X1836Y5542D1*
G1X1808Y5209D2*
G1X1974Y5209D1*
G1X2030Y5264D1*
G1X2030Y5320D1*
G1X2002Y5376D1*
G1X1836Y5376D2*
G1X2002Y5376D1*
G1X2030Y5431D1*
G1X2030Y5487D1*
G1X1974Y5542D1*
G1X1808Y5542D1*
G1X1426Y5209D2*
G1X1398Y5264D1*
G1X1398Y5487D1*
G1X1426Y5542D1*
G1X1592Y5542D1*
G1X1620Y5487D1*
G1X1620Y5264D1*
G1X1592Y5209D1*
G1X1426Y5209D1*
G1X1099Y5376D2*
G1X1210Y5376D1*
G1X1210Y5264D1*
G1X1182Y5209D1*
G1X1016Y5209D1*
G1X988Y5264D1*
G1X988Y5487D1*
G1X1016Y5542D1*
G1X1182Y5542D1*
G1X1210Y5487D1*
G1X800Y5320D2*
G1X578Y5320D1*
G1X800Y5209D2*
G1X800Y5376D1*
G1X717Y5542D1*
G1X661Y5542D1*
G1X578Y5376D1*
G1X578Y5209D1*
G1X307Y5376D2*
G1X390Y5209D1*
G1X168Y5376D2*
G1X334Y5376D1*
G1X390Y5431D1*
G1X390Y5487D1*
G1X334Y5542D1*
G1X168Y5542D1*
G1X168Y5209D1*
G1X2329Y4760D2*
G1X2107Y4760D1*
G1X2329Y4649D2*
G1X2329Y4816D1*
G1X2246Y4982D1*
G1X2190Y4982D1*
G1X2107Y4816D1*
G1X2107Y4649D1*
G1X1863Y4649D2*
G1X1919Y4649D1*
G1X1919Y4704D1*
G1X1863Y4704D1*
G1X1863Y4649D1*
G1X1426Y4649D2*
G1X1426Y4982D1*
G1X1398Y4649D2*
G1X1564Y4649D1*
G1X1620Y4760D1*
G1X1620Y4871D1*
G1X1564Y4982D1*
G1X1398Y4982D1*
G1X1210Y4760D2*
G1X988Y4760D1*
G1X1210Y4649D2*
G1X1210Y4816D1*
G1X1127Y4982D1*
G1X1071Y4982D1*
G1X988Y4816D1*
G1X988Y4649D1*
G1X744Y4816D2*
G1X578Y4816D1*
G1X800Y4649D2*
G1X578Y4649D1*
G1X578Y4982D1*
G1X800Y4982D1*
G1X390Y4816D2*
G1X168Y4816D1*
G1X390Y4649D2*
G1X390Y4982D1*
G1X168Y4649D2*
G1X168Y4982D1*
G1X8871Y8086D2*
G1X8871Y8197D1*
G1X8871Y8142D2*
G1X9204Y8142D1*
G1X9148Y8197D1*
G1X8926Y8440D2*
G1X8871Y8468D1*
G1X8871Y8635D1*
G1X8926Y8663D1*
G1X9148Y8663D1*
G1X9204Y8635D1*
G1X9204Y8468D1*
G1X9148Y8440D1*
G1X8871Y8850D2*
G1X8871Y8961D1*
G1X8871Y8906D2*
G1X9204Y8906D1*
G1X9204Y8850D2*
G1X9204Y8961D1*
G1X8871Y9205D2*
G1X9204Y9205D1*
G1X9148Y9260D1*
G1X9037Y9316D1*
G1X9148Y9371D1*
G1X9204Y9427D1*
G1X8871Y9427D1*
G1X6972Y6132D2*
G1X6972Y5799D1*
G1X6916Y5854D1*
G1X6805Y6077D1*
G1X6749Y6132D1*
G1X6749Y5799D1*
G1X6562Y5910D2*
G1X6339Y5910D1*
G1X6562Y5799D2*
G1X6562Y5966D1*
G1X6478Y6132D1*
G1X6423Y6132D1*
G1X6339Y5966D1*
G1X6339Y5799D1*
G1X6152Y5799D2*
G1X6152Y6132D1*
G1X6096Y6077D1*
G1X6040Y5966D1*
G1X5985Y6077D1*
G1X5929Y6132D1*
G1X5929Y5799D1*
G1X5547Y5799D2*
G1X5547Y6132D1*
G1X5519Y5799D2*
G1X5686Y5799D1*
G1X5742Y5910D1*
G1X5742Y6021D1*
G1X5686Y6132D1*
G1X5519Y6132D1*
G1X5276Y5966D2*
G1X5109Y5966D1*
G1X5332Y5799D2*
G1X5109Y5799D1*
G1X5109Y6132D1*
G1X5332Y6132D1*
G1X4922Y5799D2*
G1X4811Y5799D1*
G1X4866Y5799D2*
G1X4866Y6132D1*
G1X4922Y6132D2*
G1X4811Y6132D1*
G1X4484Y5966D2*
G1X4567Y5799D1*
G1X4345Y5966D2*
G1X4512Y5966D1*
G1X4567Y6021D1*
G1X4567Y6077D1*
G1X4512Y6132D1*
G1X4345Y6132D1*
G1X4345Y5799D1*
G1X4102Y5966D2*
G1X3935Y5966D1*
G1X3935Y5799D2*
G1X3935Y6132D1*
G1X4157Y6132D1*
G1X3212Y6132D2*
G1X3212Y5799D1*
G1X3157Y5854D1*
G1X3046Y6077D1*
G1X2990Y6132D1*
G1X2990Y5799D1*
G1X2802Y5910D2*
G1X2580Y5910D1*
G1X2802Y5799D2*
G1X2802Y5966D1*
G1X2719Y6132D1*
G1X2663Y6132D1*
G1X2580Y5966D1*
G1X2580Y5799D1*
G1X2392Y5966D2*
G1X2170Y5966D1*
G1X2392Y5799D2*
G1X2392Y6132D1*
G1X2170Y5799D2*
G1X2170Y6132D1*
G1X1871Y5799D2*
G1X1871Y6132D1*
G1X1982Y6132D2*
G1X1760Y6132D1*
G1X1572Y5910D2*
G1X1350Y5910D1*
G1X1572Y5799D2*
G1X1572Y5966D1*
G1X1489Y6132D1*
G1X1433Y6132D1*
G1X1350Y5966D1*
G1X1350Y5799D1*
G1X1162Y6132D2*
G1X1162Y5799D1*
G1X1107Y5854D1*
G1X996Y6077D1*
G1X940Y6132D1*
G1X940Y5799D1*
G1X558Y5799D2*
G1X530Y5854D1*
G1X530Y6077D1*
G1X558Y6132D1*
G1X724Y6132D1*
G1X752Y6077D1*
G1X752Y5854D1*
G1X724Y5799D1*
G1X558Y5799D1*
G1X148Y5910D2*
G1X148Y5854D1*
G1X176Y5799D1*
G1X287Y5799D1*
G1X314Y5854D1*
G1X314Y6132D1*
G1X342Y6132D2*
G1X231Y6132D1*
G1X5298Y1475D2*
G1X5464Y1808D1*
G1X5242Y1808D1*
G1X5054Y1531D2*
G1X5027Y1475D1*
G1X4860Y1475D1*
G1X4832Y1531D1*
G1X4832Y1753D1*
G1X4860Y1808D1*
G1X5027Y1808D1*
G1X5054Y1753D1*
G1X10610Y9331D2*
G1X10610Y9109D1*
G1X10721Y9331D2*
G1X10554Y9331D1*
G1X10388Y9248D1*
G1X10388Y9192D1*
G1X10554Y9109D1*
G1X10721Y9109D1*
G1X10554Y8838D2*
G1X10721Y8921D1*
G1X10554Y8699D2*
G1X10554Y8866D1*
G1X10499Y8921D1*
G1X10443Y8921D1*
G1X10388Y8866D1*
G1X10388Y8699D1*
G1X10721Y8699D1*
G1X10554Y8456D2*
G1X10554Y8289D1*
G1X10721Y8511D2*
G1X10721Y8289D1*
G1X10388Y8289D1*
G1X10388Y8511D1*
G1X10721Y8101D2*
G1X10388Y8101D1*
G1X10443Y8046D1*
G1X10554Y7990D1*
G1X10443Y7934D1*
G1X10388Y7879D1*
G1X10721Y7879D1*
G1X10610Y7691D2*
G1X10610Y7469D1*
G1X10721Y7691D2*
G1X10554Y7691D1*
G1X10388Y7608D1*
G1X10388Y7552D1*
G1X10554Y7469D1*
G1X10721Y7469D1*
G1X10666Y7281D2*
G1X10721Y7253D1*
G1X10721Y7087D1*
G1X10666Y7059D1*
G1X10443Y7059D1*
G1X10388Y7087D1*
G1X10388Y7253D1*
G1X10443Y7281D1*
G1X11323Y6088D2*
G1X11351Y6033D1*
G1X11518Y6033D1*
G1X11545Y6088D1*
G1X11545Y6199D1*
G1X11490Y6255D1*
G1X11323Y6255D1*
G1X11323Y6366D1*
G1X11545Y6366D1*
G1X11135Y6088D2*
G1X11108Y6033D1*
G1X10941Y6033D1*
G1X10913Y6088D1*
G1X10913Y6310D1*
G1X10941Y6366D1*
G1X11108Y6366D1*
G1X11135Y6310D1*
G1X15654Y8548D2*
G1X15543Y8548D1*
G1X15598Y8548D2*
G1X15598Y8881D1*
G1X15543Y8825D1*
G1X15105Y8548D2*
G1X15105Y8881D1*
G1X15077Y8548D2*
G1X15244Y8548D1*
G1X15299Y8659D1*
G1X15299Y8770D1*
G1X15244Y8881D1*
G1X15077Y8881D1*
G1X16462Y8099D2*
G1X16462Y7877D1*
G1X16573Y7988D2*
G1X16351Y7988D1*
G1X12671Y789D2*
G1X12838Y789D1*
G1X12865Y734D1*
G1X12865Y678D1*
G1X12838Y623D1*
G1X12671Y623D1*
G1X12643Y678D1*
G1X12643Y734D1*
G1X12754Y956D1*
G1X12455Y678D2*
G1X12428Y623D1*
G1X12261Y623D1*
G1X12233Y678D1*
G1X12233Y900D1*
G1X12261Y956D1*
G1X12428Y956D1*
G1X12455Y900D1*
G1X5734Y4963D2*
G1X5623Y4963D1*
G1X5679Y4963D2*
G1X5679Y5296D1*
G1X5623Y5240D1*
G1X5297Y5129D2*
G1X5380Y4963D1*
G1X5158Y5129D2*
G1X5324Y5129D1*
G1X5380Y5185D1*
G1X5380Y5240D1*
G1X5324Y5296D1*
G1X5158Y5296D1*
G1X5158Y4963D1*
G1X4970Y5074D2*
G1X4748Y5074D1*
G1X4970Y4963D2*
G1X4970Y5129D1*
G1X4887Y5296D1*
G1X4831Y5296D1*
G1X4748Y5129D1*
G1X4748Y4963D1*
G1X4365Y4963D2*
G1X4365Y5296D1*
G1X4338Y4963D2*
G1X4504Y4963D1*
G1X4560Y5074D1*
G1X4560Y5185D1*
G1X4504Y5296D1*
G1X4338Y5296D1*
G1X4067Y5129D2*
G1X4150Y4963D1*
G1X3928Y5129D2*
G1X4094Y5129D1*
G1X4150Y5185D1*
G1X4150Y5240D1*
G1X4094Y5296D1*
G1X3928Y5296D1*
G1X3928Y4963D1*
G1X3740Y4963D2*
G1X3629Y4963D1*
G1X3684Y4963D2*
G1X3684Y5296D1*
G1X3740Y5296D2*
G1X3629Y5296D1*
G1X4806Y513D2*
G1X4694Y513D1*
G1X4750Y513D2*
G1X4750Y846D1*
G1X4694Y790D1*
G1X9461Y644D2*
G1X9239Y644D1*
G1X9350Y866D1*
G1X9406Y866D1*
G1X9406Y533D1*
G1X9070Y1200D2*
G1X9070Y200D1*
G1X5070Y200D1*
G1X5070Y1200D1*
G1X9070Y1200D1*
G1X15865Y8800D2*
G75*
G3X16990Y7675I1125J0D1*
G3X18115Y8800I0J1125D1*
G3X16990Y9925I-1125J0D1*
G3X15865Y8800I0J-1125D1*
G1X15865Y6350D2*
G3X16990Y5225I1125J0D1*
G3X18115Y6350I0J1125D1*
G3X16990Y7475I-1125J0D1*
G3X15865Y6350I0J-1125D1*
G74*
G1X10920Y6700D2*
G54D59*
G1X14120Y6700D1*
G1X14120Y9900D1*
G1X10920Y9900D1*
G1X10920Y6700D1*
G1X14850Y0D2*
G1X14850Y1200D1*
G1X18050Y1200D1*
G1X18050Y4400D1*
G1X14850Y4400D1*
G1X14850Y5600D1*
G1X3350Y5600D1*
G1X3350Y4400D1*
G1X150Y4400D1*
G1X150Y1200D1*
G1X3350Y1200D1*
G1X3350Y0D1*
G1X14850Y0D1*
G1X7084Y9861D2*
G54D92*
G1X6338Y9861D1*
G1X6338Y7656D1*
G1X7084Y7656D1*
G1X7084Y9861D1*
G1X7084Y9862D2*
G1X7084Y7656D1*
G1X8700Y7656D1*
G1X8700Y9862D1*
G1X7084Y9862D1*
G1X119Y6392D2*
G1X5474Y6392D1*
G1X5474Y9896D1*
G1X119Y9896D1*
G1X119Y6392D1*
G1X6450Y3062D2*
G54D93*
G1X6450Y2580D1*
G1X5540Y2580D1*
G1X5540Y3062D1*
G1X6450Y3062D1*
G1X5530Y1378D2*
G1X5530Y1860D1*
G1X6440Y1860D1*
G1X6440Y1378D1*
G1X5530Y1378D1*
G1X10800Y6442D2*
G1X10800Y5960D1*
G1X9890Y5960D1*
G1X9890Y6442D1*
G1X10800Y6442D1*
G1X12100Y1042D2*
G1X12100Y560D1*
G1X11190Y560D1*
G1X11190Y1042D1*
G1X12100Y1042D1*
G1X8630Y2468D2*
G1X8630Y2950D1*
G1X9540Y2950D1*
G1X9540Y2468D1*
G1X8630Y2468D1*
M2*
