%
T1C0.013F200S100
X001800Y011900
X001840Y009540
X001850Y014000
X002200Y011200
X002600Y010400
X003000Y022400
X003200Y014600
X003550Y012370
X003750Y006450
X003800Y008220
X004360Y007560
X004600Y014000
X005000Y011250
X005200Y010700
X005230Y013630
X005800Y015600
X006180Y009050
X006580Y010630
X006700Y009970
X007000Y006600
X007000Y011050
X007050Y014500
X007150Y019050
X007370Y011630
X007550Y012190
X007630Y011860
X007670Y012500
X007800Y006750
X007850Y012910
X007850Y015400
X008600Y010300
X008800Y007620
X008600Y013400
X008600Y018600
X008900Y010900
X009950Y016500
X010050Y006300
X010600Y007600
X011250Y010650
X011250Y011250
X011250Y013050
X012200Y017600
X012600Y014400
X013100Y008700
X013400Y010200
X014000Y009400
X014200Y020000
X014630Y006400
X015400Y006600
X015660Y010060
X015920Y012080
X016420Y020670
X016800Y006200
X018350Y002250
X018810Y015900
X018900Y004600
X019200Y002700
X019200Y003750
X019400Y020400
X019700Y018800
X019800Y021910
X020450Y015100
X020800Y002700
X020900Y006900
X021550Y003450
X021620Y021500
X021800Y018600
X021950Y007000
X022000Y019150
X022000Y020480
X022150Y003650
X022200Y020900
X022390Y015210
X022400Y016170
X022400Y018440
X022650Y017740
X023000Y019340
X023300Y016200
X023400Y003200
X023410Y018540
X023450Y000600
X023600Y017200
X023650Y017910
X023850Y001200
X024000Y011000
X024170Y003520
X025250Y021550
X025250Y022100
X025450Y002800
X025800Y007800
X025850Y008150
X026000Y019200
X026000Y020200
X026450Y014600
X026550Y003150
X027200Y007000
X027400Y011400
X027550Y008700
X027750Y010850
X027800Y009900
X027850Y009200
X027800Y012540
X027850Y014850
X028200Y020250
X028650Y016950
X028750Y021750
X029050Y007000
X029100Y015830
X029200Y004300
X029250Y012600
X029370Y015030
X029500Y007400
X029600Y010200
X029500Y014700
X029650Y008900
X029760Y012990
X029780Y011150
X029910Y006240
X029960Y006740
X030000Y001400
X029960Y015100
X030000Y017430
X030000Y020600
X030200Y002000
X030400Y016000
X031130Y012950
X031200Y007600
X031200Y013930
X031300Y011000
X031400Y013200
X031400Y018800
X031440Y007000
X031490Y017800
X031600Y010600
X031700Y014600
X031790Y012600
X031800Y009650
X031850Y005860
X031950Y007850
X031850Y016550
X032150Y013650
X032500Y014600
X032550Y012700
X032600Y010600
X032600Y015160
X032600Y019200
X032600Y022700
X032800Y005100
X033000Y006600
X032800Y007400
X032800Y007900
X033000Y016260
X033000Y016850
X033050Y003700
X033100Y007700
X033250Y011150
X033270Y011710
X033350Y016650
X033650Y009400
X033650Y015750
X033700Y001300
X033850Y012100
X033700Y016460
X033900Y008050
X033950Y014400
X034000Y007150
X034050Y001450
X034150Y013650
X034200Y010150
X034240Y019600
X034350Y018850
X034860Y016590
X034900Y003350
X034950Y007650
X035600Y005150
X035600Y015800
X035600Y019900
X035650Y012300
X035680Y018800
X035740Y010490
X035750Y008650
X035790Y009650
X035800Y006000
X035900Y014650
X035950Y005500
X036000Y017750
X036030Y003990
X036190Y008650
X036200Y015150
X036240Y013150
X036850Y016750
X037350Y016600
X037550Y018950
X037560Y003410
X037600Y013150
X037640Y017600
X037700Y015100
X037700Y018500
X037900Y005850
X037950Y013950
X038060Y019710
X038300Y018760
X038350Y010400
X038550Y015950
X038580Y003720
X038600Y003000
X038600Y007750
X038750Y007050
X038900Y008600
X039050Y007200
X039050Y010150
X039100Y010900
X039150Y019700
X039600Y011650
X039690Y001100
X040300Y006300
X040350Y009400
X040500Y016400
X040600Y006150
X040600Y014400
X040700Y016000
X040800Y021350
X040850Y012730
X040900Y015100
X041200Y017390
X041390Y019750
X041600Y015600
X042350Y008700
X042810Y011600
X043030Y011900
X043650Y008550
X044000Y015700
X044100Y000300
X044200Y006800
X044250Y019950
X044550Y012850
X045000Y021600
X045650Y009800
X045880Y007520
X046280Y016200
X046550Y013100
X046690Y020840
X046800Y012200
X046880Y019800
X046950Y015050
X047250Y007100
T8C0.125F200S100
X-002000Y002000
X002900Y018700
X-002000Y021300
X004180Y016810
X013750Y011650
X024800Y007400
X024800Y015900
X028276Y019160
X028790Y001402
X031425Y004200
X039017Y021492
X045760Y000150
X045760Y023150
T2C0.035F200S100
X000750Y004450
X000750Y005450
X001750Y004450
X001750Y005450
X002000Y002000
X002000Y003000
X002750Y004450
X002750Y005450
X002000Y020300
X002000Y021300
X003000Y-002500
X003000Y-001500
X003000Y-000500
X003000Y002000
X003000Y003000
X003750Y004450
X003750Y005450
X003000Y020300
X003000Y021300
X003000Y023800
X003000Y024800
X003000Y025800
X004000Y002000
X004000Y003000
X004900Y004900
X004000Y020300
X004000Y021300
X005000Y002000
X005000Y003000
X005150Y-000600
X005150Y000400
X005000Y020300
X005000Y021300
X005150Y022900
X005150Y023900
X005900Y004900
X006000Y002000
X006000Y003000
X006000Y020300
X006000Y021300
X006900Y004900
X007000Y002000
X007000Y003000
X007900Y004900
X008900Y004900
X009050Y008450
X009900Y004900
X010050Y008450
X010900Y004900
X011900Y004900
X012900Y004900
X014120Y016430
X014120Y017430
X016210Y000780
X016210Y001780
X020520Y010030
X020708Y012758
X020708Y013742
X021520Y010030
X021558Y012758
X021558Y013742
X022300Y011430
X023300Y011430
X023350Y012916
X024308Y012908
X024308Y013892
X023350Y013900
X026750Y000780
X026750Y001780
X033800Y022450
X034730Y000950
X034730Y002300
X034800Y022450
X035730Y000950
X035730Y002300
X036730Y002300
X037180Y000950
X037730Y002300
X038180Y000950
X038800Y004500
X038800Y005500
X038800Y017800
X038800Y018800
X039180Y000950
X039180Y002300
X039600Y007150
X039600Y008150
X039600Y009150
X039600Y010150
X039600Y011150
X039600Y012150
X039600Y013150
X039600Y014150
X039600Y015150
X039600Y016150
X039800Y004500
X039800Y005500
X040180Y000950
X040180Y002300
X039800Y017800
X039800Y018800
X040800Y004500
X040800Y005500
X041180Y000950
X041180Y002300
X040800Y017800
X040800Y018800
X041800Y004500
X041800Y005500
X042180Y000950
X042180Y002300
X041800Y017800
X041800Y018800
X042600Y-001800
X042600Y-000800
X042600Y007150
X042600Y008150
X042600Y009150
X042600Y010150
X042600Y011150
X042600Y012150
X042600Y013150
X042600Y014150
X042600Y015150
X042600Y016150
X042800Y017800
X042800Y018800
X043800Y017800
X043800Y018800
X045500Y-004500
X045500Y-003500
X045500Y-002500
X045500Y025800
X045500Y026800
X045500Y027800
X046200Y020150
X046200Y021150
X046550Y001900
X046550Y002900
X046550Y003900
X046550Y004900
X046550Y005900
X047000Y009650
X047000Y010650
X047000Y011650
X047000Y012650
X047000Y013650
X047550Y001900
X047550Y002900
X047550Y003900
X047550Y004900
X047550Y005900
X048000Y009650
X048000Y010650
X048000Y011650
X048000Y012650
X048000Y013650
X048000Y015400
X048000Y016400
X048000Y017400
X048000Y018400
X048000Y019400
X048000Y020400
X048000Y021400
X048000Y022400
T6C0.067F200S100
X009500Y020300
X011370Y020300
X013240Y020300
T7C0.079F200S100
X011370Y018950
T5C0.052F200S100
X011150Y001800
X012150Y001800
X013150Y001800
X029700Y022150
X030700Y022150
X030840Y001140
X031700Y022150
X031840Y001140
X032840Y001140
X044150Y002550
X044150Y003550
X044150Y004550
T9C0.150F200S100
X005360Y018700
T3C0.040F200S100
X042028Y022250
X043800Y022250
X043800Y024809
X042028Y024809
T4C0.046F200S100
X029534Y005469
X029534Y016492
M30
