*
G04 Mass Parameters ***
*
G04 Image ***
*
%INC:\PROJECTS\RAGOBOTS\ROBOT\HW\DESIGN\RAGOBOT.SST*%
%ICAS*%
%MOIN*%
%IPPOS*%
%ASAXBY*%
G74*%FSLAN2X34Y34*%
*
G04 Aperture Definitions ***
*
%AMTHERMAL68*
1,1,0.1090,0,0,*
1,0,0.0850,0,0,*
21,0,0.1090,0.0500,0,0,45.0*
21,0,0.1090,0.0500,0,0,135.0*%
%AMTHERMAL73*
1,1,0.0875,0,0,*
1,0,0.0635,0,0,*
21,0,0.0875,0.0500,0,0,45.0*
21,0,0.0875,0.0500,0,0,135.0*%
%AMTHERMAL77*
1,1,0.0875,0,0,*
1,0,0.0635,0,0,*
21,0,0.0875,0.0500,0,0,46.2*
21,0,0.0875,0.0500,0,0,136.2*%
%ADD10C,0.1750*%
%ADD11O,0.0940X0.0250*%
%ADD12R,0.0940X0.0250*%
%ADD13R,0.1181X0.1181*%
%ADD14O,0.0118X0.0472*%
%ADD15O,0.0472X0.0118*%
%ADD16R,0.0472X0.0118*%
%ADD17R,0.0780X0.0720*%
%ADD18R,0.0720X0.0780*%
%ADD19C,0.0580*%
%ADD20R,0.0580X0.0580*%
%ADD21R,0.0600X0.0800*%
%ADD22R,0.0800X0.0600*%
%ADD23R,0.1575X0.1181*%
%ADD24R,0.0220X0.0220*%
%ADD25R,0.1200X0.0760*%
%ADD26R,0.1420X0.0720*%
%ADD27R,0.0400X0.0480*%
%ADD28R,0.0480X0.0400*%
%ADD29C,0.0620*%
%ADD30C,0.1700*%
%ADD31C,0.1450*%
%ADD32R,0.0315X0.0315*%
%ADD33C,0.0472*%
%ADD34C,0.1771*%
%ADD35C,0.0750*%
%ADD36R,0.0750X0.0750*%
%ADD37O,0.0860X0.0250*%
%ADD38R,0.0860X0.0250*%
%ADD39O,0.0680X0.0130*%
%ADD40R,0.0680X0.0130*%
%ADD41O,0.1000X0.0250*%
%ADD42R,0.1000X0.0250*%
%ADD43O,0.0250X0.1000*%
%ADD44R,0.0250X0.1000*%
%ADD45C,0.0787*%
%ADD46C,0.1100*%
%ADD47R,0.0480X0.0740*%
%ADD48R,0.3149X0.2362*%
%ADD49R,0.1968X0.2362*%
%ADD50C,0.0250*%
%ADD51C,0.0250*%
%ADD52C,0.0100*%
%ADD53C,0.0250*%
%ADD54C,0.0300*%
%ADD55C,0.0120*%
%ADD56C,0.0200*%
%ADD57C,0.0118*%
%ADD58C,0.0080*%
%ADD59C,0.0150*%
%ADD60R,0.1141X0.0354*%
%ADD61R,0.0708X0.0157*%
%ADD62C,0.0010*%
%ADD63C,0.2100*%
%ADD64C,0.0950*%
%ADD65R,0.0950X0.0950*%
%ADD66C,0.1000*%
%ADD67C,0.1900*%
%ADD68THERMAL68*%
%ADD69C,0.0900*%
%ADD70R,0.0900X0.0900*%
%ADD71C,0.0800*%
%ADD72R,0.1100X0.1100*%
%ADD73THERMAL73*%
%ADD74C,0.0600*%
%ADD75C,0.0500*%
%ADD76C,0.0600*%
%ADD77THERMAL77*%
%ADD78C,0.0780*%
%ADD79R,0.0780X0.0780*%
%ADD80C,0.0700*%
%ADD81C,0.1550*%
%ADD82C,0.0500*%
%ADD83C,0.0500*%
%ADD84C,0.0670*%
%ADD85C,0.1650*%
%ADD86C,0.1200*%
%ADD87R,0.1142X0.0354*%
%ADD88C,0.1260*%
%ADD89C,0.0060*%
%ADD90C,0.0039*%
%ADD91C,0.0070*%
%ADD92C,0.0098*%
%ADD93C,0.0050*%
%ADD94C,0.0130*%
%ADD95C,0.0130*%
*
G04 Plot Data ***
*
G54D52*
G01X0013904Y0006448D02*
Y0006698D01*
X0013862Y0006782D01*
X0013612D01*
Y0006448D01*
X0013121Y0006782D02*
X0013287D01*
X0013329Y0006698D01*
Y0006532D01*
X0013371Y0006448D01*
X0013079D01*
X0013037Y0006532D01*
X0013079Y0006615D01*
X0013329D01*
X0012629Y0006448D02*
Y0006698D01*
X0012796Y0006448D02*
Y0006698D01*
X0012754Y0006782D01*
X0012671D01*
X0012629Y0006698D01*
X0012587Y0006782D01*
X0012504D01*
X0012462Y0006698D01*
Y0006448D01*
X0012221Y0006948D02*
Y0006448D01*
X0011971D01*
X0011929Y0006532D01*
Y0006698D01*
X0011971Y0006782D01*
X0012221D01*
X0011646Y0006448D02*
X0011396D01*
X0011354Y0006532D01*
Y0006698D01*
X0011396Y0006782D01*
X0011646D01*
X0011687Y0006698D01*
Y0006615D01*
X0011354D01*
X0011029Y0006948D02*
Y0006949D01*
Y0006948D01*
X0011112Y0006448D02*
X0010946D01*
X0011029D02*
Y0006782D01*
X0010946D01*
X0010662D02*
X0010496D01*
X0010454Y0006698D01*
X0010371D01*
Y0006782D02*
Y0006448D01*
X0010046Y0006698D02*
X0009796D01*
Y0006448D02*
Y0006948D01*
X0010129D01*
X0008792Y0006448D02*
Y0006698D01*
X0008750Y0006782D01*
X0008500D01*
Y0006448D01*
X0008008Y0006782D02*
X0008175D01*
X0008217Y0006698D01*
Y0006532D01*
X0008258Y0006448D01*
X0007967D01*
X0007925Y0006532D01*
X0007967Y0006615D01*
X0008217D01*
X0007683Y0006448D02*
Y0006698D01*
X0007642Y0006782D01*
X0007392D01*
Y0006448D02*
Y0006948D01*
X0007108Y0006782D02*
X0006858D01*
X0007150Y0006448D02*
X0006983D01*
X0006942Y0006532D01*
Y0006948D01*
X0006367Y0006782D02*
X0006533D01*
X0006575Y0006698D01*
Y0006532D01*
X0006617Y0006448D01*
X0006325D01*
X0006283Y0006532D01*
X0006325Y0006615D01*
X0006575D01*
X0006042Y0006448D02*
Y0006698D01*
X0006000Y0006782D01*
X0005750D01*
Y0006448D01*
X0005217D02*
X0005175Y0006532D01*
Y0006698D01*
X0005217Y0006782D01*
X0005467D01*
X0005508Y0006698D01*
Y0006532D01*
X0005467Y0006448D01*
X0005217D01*
X0004642Y0006615D02*
Y0006532D01*
X0004683Y0006448D01*
X0004850D01*
X0004892Y0006532D01*
Y0006948D01*
X0004933D02*
X0004767D01*
X0012618Y0005785D02*
X0012285D01*
X0012618Y0005618D02*
Y0005868D01*
X0012493Y0006118D01*
X0012410D01*
X0012285Y0005868D01*
Y0005618D01*
X0011197D02*
X0011281D01*
Y0005702D01*
X0011197D01*
Y0005618D01*
X0010872Y0005952D02*
X0010706Y0005618D01*
X0010539Y0005952D01*
X0010256Y0005618D02*
X0010006D01*
X0009964Y0005702D01*
Y0005868D01*
X0010006Y0005952D01*
X0010256D01*
X0010297Y0005868D01*
Y0005785D01*
X0009964D01*
X0009597Y0005868D02*
X0009722Y0005618D01*
X0009389Y0005868D02*
X0009639D01*
X0009722Y0005952D01*
Y0006035D01*
X0009639Y0006118D01*
X0009389D01*
Y0005618D01*
X0008218D02*
Y0006118D01*
X0008385D02*
X0008052D01*
X0007518Y0005618D02*
X0007477Y0005702D01*
Y0006035D01*
X0007518Y0006118D01*
X0007768D01*
X0007810Y0006035D01*
Y0005702D01*
X0007768Y0005618D01*
X0007518D01*
X0006943D02*
Y0006118D01*
X0006902Y0005618D02*
X0007152D01*
X0007235Y0005702D01*
Y0005785D01*
X0007193Y0005868D01*
X0006943D02*
X0007193D01*
X0007235Y0005952D01*
Y0006035D01*
X0007152Y0006118D01*
X0006902D01*
X0006368Y0005618D02*
X0006327Y0005702D01*
Y0006035D01*
X0006368Y0006118D01*
X0006618D01*
X0006660Y0006035D01*
Y0005702D01*
X0006618Y0005618D01*
X0006368D01*
X0005918Y0005868D02*
X0006085D01*
Y0005702D01*
X0006043Y0005618D01*
X0005793D01*
X0005752Y0005702D01*
Y0006035D01*
X0005793Y0006118D01*
X0006043D01*
X0006085Y0006035D01*
X0005510Y0005785D02*
X0005177D01*
X0005510Y0005618D02*
Y0005868D01*
X0005385Y0006118D01*
X0005302D01*
X0005177Y0005868D01*
Y0005618D01*
X0004810Y0005868D02*
X0004935Y0005618D01*
X0004602Y0005868D02*
X0004852D01*
X0004935Y0005952D01*
Y0006035D01*
X0004852Y0006118D01*
X0004602D01*
Y0005618D01*
X0043967Y0026183D02*
X0043883Y0026100D01*
Y0025933D01*
X0043967Y0025850D01*
X0044050D01*
X0044217Y0026017D01*
X0044383Y0025850D01*
Y0026183D01*
X0043883Y0026717D02*
X0044383D01*
X0043883Y0026758D02*
Y0026508D01*
X0044050Y0026425D01*
X0044217D01*
X0044383Y0026508D01*
Y0026758D01*
X0044073Y-0002857D02*
Y-0002690D01*
Y-0002773D02*
X0044573D01*
X0044490Y-0002690D01*
X0044073Y-0002073D02*
X0044573D01*
X0044073Y-0002032D02*
Y-0002282D01*
X0044240Y-0002365D01*
X0044407D01*
X0044573Y-0002282D01*
Y-0002032D01*
G54D58*
G01X0046009Y0008966D02*
Y0009133D01*
X0045842Y0008911D02*
Y0009133D01*
X0046176D01*
Y0008911D01*
X0045898Y0009321D02*
X0045842Y0009349D01*
Y0009515D01*
X0045898Y0009543D01*
X0046120D01*
X0046176Y0009515D01*
Y0009349D01*
X0046120Y0009321D01*
X0045954Y0009731D02*
Y0009953D01*
X0045842Y0009731D02*
X0046009D01*
X0046176Y0009814D01*
Y0009870D01*
X0046009Y0009953D01*
X0045842D01*
X0046009Y0010196D02*
Y0010363D01*
X0045842D02*
X0046176D01*
Y0010141D01*
X0046009Y0010634D02*
X0045842Y0010551D01*
X0046009Y0010773D02*
Y0010606D01*
X0046065Y0010551D01*
X0046120D01*
X0046176Y0010606D01*
Y0010773D01*
X0045842D01*
X0046009Y0011016D02*
Y0011183D01*
X0045842Y0010961D02*
Y0011183D01*
X0046176D01*
Y0010961D01*
X0045842Y0011482D02*
X0046176D01*
Y0011371D02*
Y0011593D01*
Y0011781D02*
X0045842D01*
X0045898Y0011836D01*
X0046120Y0011947D01*
X0046176Y0012003D01*
X0045842D01*
Y0012191D02*
Y0012302D01*
Y0012246D02*
X0046176D01*
Y0012191D02*
Y0012302D01*
X0046009Y0013302D02*
Y0013136D01*
X0046065Y0013080D01*
X0046120D01*
X0046176Y0013136D01*
Y0013302D01*
X0045842D01*
X0046120Y0013490D02*
X0046176Y0013518D01*
Y0013685D01*
X0046120Y0013712D01*
X0046065D01*
X0046009Y0013685D01*
Y0013518D01*
X0045954Y0013490D01*
X0045898D01*
X0045842Y0013518D01*
Y0013685D01*
X0045898Y0013712D01*
X0045842Y0013900D02*
Y0014011D01*
Y0013956D02*
X0046176D01*
Y0013900D02*
Y0014011D01*
Y0014254D02*
X0045898D01*
X0045842Y0014282D01*
Y0014449D01*
X0045898Y0014477D01*
X0046176D01*
X0047833Y0008612D02*
X0047888Y0008668D01*
X0047944Y0008696D01*
X0048055D01*
X0048110Y0008668D01*
X0048166Y0008612D01*
Y0008557D01*
X0048110Y0008501D01*
X0048055Y0008473D01*
X0047944D01*
X0047888Y0008501D01*
X0047833Y0008557D01*
Y0008612D01*
Y0008883D02*
Y0008994D01*
Y0008939D02*
X0048166D01*
X0048110Y0008994D01*
X0046832Y0014374D02*
Y0014485D01*
Y0014430D02*
X0047166D01*
X0047110Y0014485D01*
X0046999Y0008667D02*
Y0008833D01*
X0047055Y0008861D01*
X0047110D01*
X0047166Y0008833D01*
Y0008667D01*
X0047110Y0008639D01*
X0047055D01*
X0046832Y0008750D01*
X0037151Y0002915D02*
X0036973D01*
X0037151Y0003093D01*
Y0003137D01*
X0037129Y0003181D01*
X0036995D01*
X0036973Y0003137D01*
X0036724Y0003048D02*
X0036791Y0002915D01*
X0036613Y0003048D02*
X0036746D01*
X0036791Y0003093D01*
Y0003137D01*
X0036746Y0003181D01*
X0036613D01*
Y0002915D01*
X0036431Y0003004D02*
X0036253D01*
X0036431Y0002915D02*
Y0003048D01*
X0036364Y0003181D01*
X0036320D01*
X0036253Y0003048D01*
Y0002915D01*
X0035915D02*
Y0003181D01*
X0035893Y0002915D02*
X0036026D01*
X0036071Y0003004D01*
Y0003093D01*
X0036026Y0003181D01*
X0035893D01*
X0035644Y0003048D02*
X0035711Y0002915D01*
X0035533Y0003048D02*
X0035666D01*
X0035711Y0003093D01*
Y0003137D01*
X0035666Y0003181D01*
X0035533D01*
Y0002915D01*
X0035351D02*
X0035262D01*
X0035306D02*
Y0003181D01*
X0035351D02*
X0035262D01*
X0034451Y0002912D02*
X0034284Y0003079D01*
X0034451Y0003246D01*
X0034229D02*
Y0002912D01*
X0035046Y0011908D02*
X0035102Y0011852D01*
X0035213D01*
X0035269Y0011908D01*
Y0011963D01*
X0035158Y0012074D01*
X0035269Y0012186D01*
X0035046D01*
X0034859D02*
Y0011908D01*
X0034831Y0011852D01*
X0034664D01*
X0034636Y0011908D01*
Y0012186D01*
X0013487Y0017610D02*
Y0017499D01*
Y0017554D02*
X0013154D01*
X0013209Y0017499D01*
X0013487Y0017061D02*
X0013432Y0017033D01*
X0013209D01*
X0013154Y0017061D01*
Y0017228D01*
X0013209Y0017255D01*
X0013432D01*
X0013487Y0017228D01*
Y0017061D01*
X0013321Y0016651D02*
Y0016818D01*
X0013376Y0016845D01*
X0013432D01*
X0013487Y0016818D01*
Y0016651D01*
X0013432Y0016623D01*
X0013376D01*
X0013154Y0016734D01*
X0013487Y0016241D02*
X0013154D01*
X0013487Y0016213D02*
Y0016380D01*
X0013376Y0016435D01*
X0013265D01*
X0013154Y0016380D01*
Y0016213D01*
X0014267Y0015765D02*
Y0015654D01*
Y0015710D02*
X0013934D01*
X0013990Y0015654D01*
X0006003Y0000940D02*
Y0000851D01*
Y0000895D02*
X0005736D01*
X0005780Y0000851D01*
X0006003Y0000535D02*
X0005869D01*
X0005736Y0000624D02*
X0005869Y0000558D01*
Y0000513D01*
X0005736Y0000447D01*
X0005958Y0000087D02*
X0006003Y0000109D01*
Y0000242D01*
X0005958Y0000264D01*
X0005869D01*
X0005825Y0000220D01*
Y0000087D01*
X0005736D01*
Y0000264D01*
X0006003Y-0000251D02*
X0005736D01*
X0006003Y-0000273D02*
Y-0000140D01*
X0005914Y-0000095D01*
X0005825D01*
X0005736Y-0000140D01*
Y-0000273D01*
X0005295Y0001143D02*
Y0001032D01*
Y0001088D02*
X0004961D01*
X0005017Y0001032D01*
X0045243Y0019996D02*
Y0020107D01*
Y0020051D02*
X0045576D01*
X0045520Y0020107D01*
X0045409Y0020433D02*
X0045243Y0020350D01*
X0045409Y0020572D02*
Y0020406D01*
X0045465Y0020350D01*
X0045520D01*
X0045576Y0020406D01*
Y0020572D01*
X0045243D01*
Y0020760D02*
Y0020871D01*
Y0020816D02*
X0045576D01*
X0045520Y0020871D01*
X0045243Y0021309D02*
X0045576D01*
X0045243Y0021337D02*
Y0021170D01*
X0045354Y0021114D01*
X0045465D01*
X0045576Y0021170D01*
Y0021337D01*
X0046032Y0021864D02*
Y0021975D01*
Y0021920D02*
X0046366D01*
X0046310Y0021975D01*
X0043641Y0005879D02*
X0043530D01*
X0043585D02*
Y0006213D01*
X0043530Y0006157D01*
X0043175Y0005990D02*
X0043286Y0005879D01*
X0043064Y0005935D02*
X0043092Y0005879D01*
X0043203D01*
X0043231Y0005935D01*
X0043286Y0005990D01*
Y0006157D01*
X0043258Y0006213D01*
X0043092D01*
X0043064Y0006157D01*
Y0005935D01*
X0033640Y0021827D02*
X0033751D01*
X0033696D02*
Y0021494D01*
X0033751Y0021549D01*
X0034078Y0021661D02*
X0033994Y0021827D01*
X0034217Y0021661D02*
X0034050D01*
X0033994Y0021605D01*
Y0021549D01*
X0034050Y0021494D01*
X0034217D01*
Y0021827D01*
X0034404Y0021716D02*
X0034627D01*
X0034516Y0021494D01*
X0034460D01*
Y0021827D01*
X0035009D02*
Y0021494D01*
X0035037Y0021827D02*
X0034870D01*
X0034814Y0021716D01*
Y0021605D01*
X0034870Y0021494D01*
X0035037D01*
X0035454Y0022617D02*
X0035565D01*
X0035510D02*
Y0022284D01*
X0035565Y0022340D01*
X0034115Y0000832D02*
X0034004D01*
X0034060D02*
Y0001166D01*
X0034004Y0001110D01*
X0015213Y0000580D02*
Y0000691D01*
Y0000636D02*
X0015546D01*
X0015490Y0000691D01*
X0015379Y0001018D02*
X0015213Y0000934D01*
X0015379Y0001157D02*
Y0000990D01*
X0015435Y0000934D01*
X0015490D01*
X0015546Y0000990D01*
Y0001157D01*
X0015213D01*
X0015268Y0001567D02*
X0015213Y0001511D01*
Y0001400D01*
X0015268Y0001344D01*
X0015324D01*
X0015435Y0001456D01*
X0015546Y0001344D01*
Y0001567D01*
X0015213Y0001949D02*
X0015546D01*
X0015213Y0001977D02*
Y0001810D01*
X0015324Y0001754D01*
X0015435D01*
X0015546Y0001810D01*
Y0001977D01*
X0016042Y0002724D02*
Y0002835D01*
Y0002780D02*
X0016376D01*
X0016320Y0002835D01*
X0046209Y0015295D02*
Y0015517D01*
X0046431Y0015295D01*
X0046487D01*
X0046542Y0015323D01*
Y0015489D01*
X0046487Y0015517D01*
X0046542Y0015705D02*
X0046209D01*
X0046264Y0015761D01*
X0046487Y0015872D01*
X0046542Y0015927D01*
X0046209D01*
X0046375Y0016198D02*
X0046209Y0016115D01*
X0046375Y0016337D02*
Y0016171D01*
X0046431Y0016115D01*
X0046487D01*
X0046542Y0016171D01*
Y0016337D01*
X0046209D01*
X0043223Y-0001700D02*
Y-0001589D01*
Y-0001644D02*
X0043556D01*
X0043500Y-0001589D01*
X0043223Y-0001234D02*
X0043389D01*
X0043556Y-0001345D02*
X0043389Y-0001262D01*
Y-0001206D01*
X0043556Y-0001123D01*
X0043223Y-0000935D02*
Y-0000713D01*
X0043445Y-0000935D01*
X0043500D01*
X0043556Y-0000908D01*
Y-0000741D01*
X0043500Y-0000713D01*
X0043223Y-0000331D02*
X0043556D01*
X0043223Y-0000303D02*
Y-0000470D01*
X0043334Y-0000525D01*
X0043445D01*
X0043556Y-0000470D01*
Y-0000303D01*
X0042432Y-0000165D02*
Y-0000054D01*
Y-0000110D02*
X0042766D01*
X0042710Y-0000054D01*
X0004174Y-0000030D02*
Y-0000208D01*
X0003996Y-0000030D01*
X0003952D01*
X0003907Y-0000052D01*
Y-0000186D01*
X0003952Y-0000208D01*
X0004174Y-0000546D02*
X0003907D01*
X0004174Y-0000568D02*
Y-0000434D01*
X0004085Y-0000390D01*
X0003996D01*
X0003907Y-0000434D01*
Y-0000568D01*
X0035329Y0007342D02*
X0035106D01*
X0035329Y0007564D01*
Y0007620D01*
X0035301Y0007676D01*
X0035134D01*
X0035106Y0007620D01*
X0034919Y0007676D02*
Y0007398D01*
X0034891Y0007342D01*
X0034724D01*
X0034696Y0007398D01*
Y0007676D01*
X0032849Y0015401D02*
Y0015512D01*
Y0015456D02*
X0033182D01*
X0033127Y0015512D01*
X0033182Y0015755D02*
X0032849D01*
X0032904Y0015811D01*
X0033127Y0015922D01*
X0033182Y0015977D01*
X0032849D01*
X0033015Y0016248D02*
X0032849Y0016165D01*
X0033015Y0016387D02*
Y0016221D01*
X0033071Y0016165D01*
X0033127D01*
X0033182Y0016221D01*
Y0016387D01*
X0032849D01*
X0040938Y0008808D02*
Y0008919D01*
Y0008863D02*
X0041271D01*
X0041215Y0008919D01*
X0041104Y0009162D02*
Y0009385D01*
X0040938Y0009162D02*
X0041271D01*
X0040938Y0009385D02*
X0041271D01*
X0041104Y0009795D02*
Y0009628D01*
X0041160Y0009572D01*
X0041215D01*
X0041271Y0009628D01*
Y0009795D01*
X0040938D01*
X0041049Y0009982D02*
Y0010205D01*
X0040938Y0009982D02*
X0041104D01*
X0041271Y0010066D01*
Y0010121D01*
X0041104Y0010205D01*
X0040938D01*
X0041104Y0010476D02*
X0040938Y0010392D01*
X0041104Y0010615D02*
Y0010448D01*
X0041160Y0010392D01*
X0041215D01*
X0041271Y0010448D01*
Y0010615D01*
X0040938D01*
X0041104Y0010913D02*
Y0010802D01*
X0040993D01*
X0040938Y0010830D01*
Y0010997D01*
X0040993Y0011025D01*
X0041215D01*
X0041271Y0010997D01*
Y0010830D01*
X0041215Y0010802D01*
X0041104Y0011831D02*
X0040938Y0011747D01*
X0041104Y0011970D02*
Y0011803D01*
X0041160Y0011747D01*
X0041215D01*
X0041271Y0011803D01*
Y0011970D01*
X0040938D01*
X0041049Y0012157D02*
Y0012380D01*
X0040938Y0012157D02*
X0041104D01*
X0041271Y0012241D01*
Y0012296D01*
X0041104Y0012380D01*
X0040938D01*
Y0012762D02*
X0041271D01*
X0040938Y0012790D02*
Y0012623D01*
X0040993Y0012567D01*
X0041049D01*
X0041104Y0012595D01*
Y0012762D02*
Y0012595D01*
X0041160Y0012567D01*
X0041215D01*
X0041271Y0012623D01*
Y0012790D01*
X0040938Y0013707D02*
X0041271D01*
X0040938Y0013735D02*
Y0013568D01*
X0041049Y0013512D01*
X0041160D01*
X0041271Y0013568D01*
Y0013735D01*
X0041104Y0013978D02*
Y0014145D01*
X0040938Y0013922D02*
Y0014145D01*
X0041271D01*
Y0013922D01*
X0040938Y0014332D02*
Y0014527D01*
X0041271D01*
X0035279Y0016453D02*
X0035056D01*
X0035168Y0016676D01*
X0035223D01*
Y0016342D01*
X0034869Y0016676D02*
Y0016398D01*
X0034841Y0016342D01*
X0034674D01*
X0034646Y0016398D01*
Y0016676D01*
X0044668Y0008859D02*
X0044723Y0008804D01*
X0044834D01*
X0044890Y0008859D01*
Y0008915D01*
X0044779Y0009026D01*
X0044890Y0009137D01*
X0044668D01*
X0044480D02*
Y0008804D01*
X0044424Y0008859D01*
X0044313Y0009082D01*
X0044258Y0009137D01*
Y0008804D01*
X0043987Y0008970D02*
X0044070Y0008804D01*
X0043848Y0008970D02*
X0044014D01*
X0044070Y0009026D01*
Y0009082D01*
X0044014Y0009137D01*
X0043848D01*
Y0008804D01*
X0027520Y0002504D02*
X0027409D01*
X0027465D02*
Y0002838D01*
X0027409Y0002782D01*
X0026972Y0002504D02*
X0026944Y0002560D01*
Y0002782D01*
X0026972Y0002838D01*
X0027138D01*
X0027166Y0002782D01*
Y0002560D01*
X0027138Y0002504D01*
X0026972D01*
X0026728Y0002671D02*
X0026756Y0002726D01*
Y0002782D01*
X0026728Y0002838D01*
X0026562D01*
X0026534Y0002782D01*
Y0002726D01*
X0026562Y0002671D01*
X0026728D01*
X0026756Y0002615D01*
Y0002560D01*
X0026728Y0002504D01*
X0026562D01*
X0026534Y0002560D01*
Y0002615D01*
X0026562Y0002671D01*
X0026152Y0002504D02*
Y0002838D01*
X0026124Y0002504D02*
X0026290D01*
X0026346Y0002615D01*
Y0002726D01*
X0026290Y0002838D01*
X0026124D01*
X0026117Y0000735D02*
Y0000624D01*
Y0000680D02*
X0025784D01*
X0025840Y0000624D01*
X0006103Y0023590D02*
Y0023501D01*
Y0023545D02*
X0005836D01*
X0005880Y0023501D01*
X0005969Y0023208D02*
X0006103Y0023274D01*
X0005969Y0023097D02*
Y0023230D01*
X0005925Y0023274D01*
X0005880D01*
X0005836Y0023230D01*
Y0023097D01*
X0006103D01*
Y0022781D02*
X0005836Y0022914D01*
Y0022737D01*
X0006103Y0022399D02*
X0005836D01*
X0006103Y0022377D02*
Y0022510D01*
X0006014Y0022554D01*
X0005925D01*
X0005836Y0022510D01*
Y0022377D01*
X0004955Y0024693D02*
Y0024582D01*
Y0024638D02*
X0004621D01*
X0004677Y0024582D01*
X0011612Y0003885D02*
X0011417D01*
Y0004218D01*
X0011035Y0003885D02*
X0011007Y0003940D01*
Y0004163D01*
X0011035Y0004218D01*
X0011202D01*
X0011229Y0004163D01*
Y0003940D01*
X0011202Y0003885D01*
X0011035D01*
X0010736Y0004052D02*
X0010819Y0003885D01*
X0010597Y0004052D02*
X0010764D01*
X0010819Y0004107D01*
Y0004163D01*
X0010764Y0004218D01*
X0010597D01*
Y0003885D01*
X0010298D02*
Y0004218D01*
X0010409D02*
X0010187D01*
X0009999D02*
Y0003885D01*
X0009944Y0003940D01*
X0009833Y0004163D01*
X0009777Y0004218D01*
Y0003885D01*
X0009395D02*
X0009367Y0003940D01*
Y0004163D01*
X0009395Y0004218D01*
X0009562D01*
X0009589Y0004163D01*
Y0003940D01*
X0009562Y0003885D01*
X0009395D01*
X0009179Y0003940D02*
X0009152Y0003885D01*
X0008985D01*
X0008957Y0003940D01*
Y0004163D01*
X0008985Y0004218D01*
X0009152D01*
X0009179Y0004163D01*
X0008151Y0004052D02*
X0008234Y0003885D01*
X0008012Y0004052D02*
X0008179D01*
X0008234Y0004107D01*
Y0004163D01*
X0008179Y0004218D01*
X0008012D01*
Y0003885D01*
X0007630D02*
X0007602Y0003940D01*
Y0004163D01*
X0007630Y0004218D01*
X0007797D01*
X0007824Y0004163D01*
Y0003940D01*
X0007797Y0003885D01*
X0007630D01*
X0007303D02*
Y0004218D01*
X0007414D02*
X0007192D01*
X0006810Y0003885D02*
X0006782Y0003940D01*
Y0004163D01*
X0006810Y0004218D01*
X0006977D01*
X0007004Y0004163D01*
Y0003940D01*
X0006977Y0003885D01*
X0006810D01*
X0006594D02*
Y0004218D01*
X0006539Y0004163D01*
X0006483Y0004052D01*
X0006428Y0004163D01*
X0006372Y0004218D01*
Y0003885D01*
X0013753Y0004795D02*
X0013642D01*
X0013698D02*
Y0005128D01*
X0013642Y0005073D01*
X0001875Y0007824D02*
X0001698D01*
X0001786Y0008001D01*
X0001831D01*
Y0007735D01*
X0001449Y0007868D02*
X0001515Y0007735D01*
X0001338Y0007868D02*
X0001471D01*
X0001515Y0007912D01*
Y0007957D01*
X0001471Y0008001D01*
X0001338D01*
Y0007735D01*
X0001155Y0007646D02*
X0000978D01*
X0000795Y0007779D02*
X0000773Y0007735D01*
X0000640D01*
X0000618Y0007779D01*
Y0007957D01*
X0000640Y0008001D01*
X0000773D01*
X0000795Y0007957D01*
X0000280Y0007735D02*
Y0008001D01*
X0000258Y0007735D02*
X0000391D01*
X0000435Y0007779D01*
Y0007824D01*
X0000413Y0007868D01*
X0000280D02*
X0000413D01*
X0000435Y0007912D01*
Y0007957D01*
X0000391Y0008001D01*
X0000258D01*
X0042857Y0000949D02*
X0043023D01*
X0043051Y0000894D01*
Y0000838D01*
X0043023Y0000782D01*
X0042857D01*
X0042829Y0000838D01*
Y0000894D01*
X0042940Y0001116D01*
X0001678Y0014269D02*
X0001700Y0014225D01*
X0001833D01*
X0001855Y0014269D01*
Y0014358D01*
X0001811Y0014402D01*
X0001678D01*
Y0014491D01*
X0001855D01*
X0001495Y0014269D02*
X0001473Y0014225D01*
X0001340D01*
X0001318Y0014269D01*
Y0014447D01*
X0001340Y0014491D01*
X0001473D01*
X0001495Y0014447D01*
X0001135Y0014136D02*
X0000958D01*
X0000775Y0014269D02*
X0000753Y0014225D01*
X0000620D01*
X0000598Y0014269D01*
Y0014447D01*
X0000620Y0014491D01*
X0000753D01*
X0000775Y0014447D01*
X0000260Y0014225D02*
Y0014491D01*
X0000238Y0014225D02*
X0000371D01*
X0000415Y0014269D01*
Y0014314D01*
X0000393Y0014358D01*
X0000260D02*
X0000393D01*
X0000415Y0014402D01*
Y0014447D01*
X0000371Y0014491D01*
X0000238D01*
X0008256Y0002833D02*
X0008034D01*
X0008256Y0003055D01*
Y0003110D01*
X0008229Y0003166D01*
X0008062D01*
X0008034Y0003110D01*
X0007846Y0002833D02*
X0007735D01*
X0007791D02*
Y0003166D01*
X0007735Y0003110D01*
X0011448Y0003288D02*
X0011504Y0003232D01*
X0011615D01*
X0011670Y0003288D01*
Y0003344D01*
X0011559Y0003455D01*
X0011670Y0003566D01*
X0011448D01*
X0011149Y0003344D02*
X0011260Y0003232D01*
X0011038Y0003288D02*
X0011066Y0003232D01*
X0011177D01*
X0011205Y0003288D01*
X0011260Y0003344D01*
Y0003510D01*
X0011233Y0003566D01*
X0011066D01*
X0011038Y0003510D01*
Y0003288D01*
X0019825Y0017358D02*
X0019736D01*
X0019781D02*
Y0017624D01*
X0019736Y0017580D01*
X0019510Y0017358D02*
X0019354D01*
Y0017624D01*
X0019172Y0017269D02*
X0018994D01*
X0018745Y0017491D02*
X0018812Y0017358D01*
X0018634Y0017491D02*
X0018768D01*
X0018812Y0017536D01*
Y0017580D01*
X0018768Y0017624D01*
X0018634D01*
Y0017358D01*
X0018452Y0017624D02*
Y0017536D01*
X0018363Y0017358D01*
X0018274Y0017536D01*
Y0017624D01*
X0004700Y0012229D02*
Y0012118D01*
Y0012174D02*
X0004366D01*
X0004422Y0012118D01*
X0004644Y0011875D02*
X0004700Y0011847D01*
Y0011680D01*
X0004644Y0011653D01*
X0004422D01*
X0004366Y0011680D01*
Y0011847D01*
X0004422Y0011875D01*
X0004700Y0011270D02*
X0004366D01*
X0004700Y0011243D02*
Y0011409D01*
X0004644Y0011465D01*
X0004589D01*
X0004533Y0011437D01*
Y0011270D02*
Y0011437D01*
X0004478Y0011465D01*
X0004422D01*
X0004366Y0011409D01*
Y0011243D01*
X0004551Y0012889D02*
X0004440D01*
X0004495D02*
Y0013222D01*
X0004440Y0013167D01*
X0030583Y0009912D02*
X0030472D01*
X0030528D02*
Y0010246D01*
X0030472Y0010190D01*
X0030229Y0009912D02*
Y0010246D01*
X0030173Y0010190D01*
X0030118Y0010079D01*
X0030062Y0010190D01*
X0030006Y0010246D01*
Y0009912D01*
X0029624D02*
Y0010246D01*
X0029596Y0009912D02*
X0029763D01*
X0029819Y0009968D01*
Y0010023D01*
X0029791Y0010079D01*
X0029624D02*
X0029791D01*
X0029819Y0010134D01*
Y0010190D01*
X0029763Y0010246D01*
X0029596D01*
X0030420Y0002452D02*
X0030198D01*
X0030420Y0002675D01*
Y0002730D01*
X0030393Y0002786D01*
X0030226D01*
X0030198Y0002730D01*
X0029899Y0002564D02*
X0030010Y0002452D01*
X0029788Y0002508D02*
X0029816Y0002452D01*
X0029927D01*
X0029955Y0002508D01*
X0030010Y0002564D01*
Y0002730D01*
X0029983Y0002786D01*
X0029816D01*
X0029788Y0002730D01*
Y0002508D01*
X0001803Y0009099D02*
X0001825Y0009055D01*
X0001959D01*
X0001981Y0009099D01*
Y0009188D01*
X0001936Y0009232D01*
X0001803D01*
Y0009321D01*
X0001981D01*
X0001621Y0009055D02*
X0001532D01*
X0001576D02*
Y0009321D01*
X0001532Y0009277D01*
X0001150Y0009055D02*
Y0009321D01*
X0001128Y0009055D02*
X0001261D01*
X0001305Y0009099D01*
Y0009144D01*
X0001283Y0009188D01*
X0001150D02*
X0001283D01*
X0001305Y0009232D01*
Y0009277D01*
X0001261Y0009321D01*
X0001128D01*
X0000945Y0009099D02*
X0000923Y0009055D01*
X0000790D01*
X0000768Y0009099D01*
Y0009277D01*
X0000790Y0009321D01*
X0000923D01*
X0000945Y0009277D01*
X0021615Y0011317D02*
X0021527D01*
X0021571D02*
Y0011584D01*
X0021527Y0011539D01*
X0021300Y0011584D02*
Y0011317D01*
X0021255Y0011362D01*
X0021167Y0011539D01*
X0021122Y0011584D01*
Y0011317D01*
X0020940D02*
X0020851D01*
X0020895D02*
Y0011584D01*
X0020940D02*
X0020851D01*
X0020624Y0011362D02*
X0020602Y0011317D01*
X0020469D01*
X0020447Y0011362D01*
Y0011539D01*
X0020469Y0011584D01*
X0020602D01*
X0020624Y0011539D01*
X0020264Y0011228D02*
X0020087D01*
X0019838Y0011450D02*
X0019904Y0011317D01*
X0019727Y0011450D02*
X0019860D01*
X0019904Y0011495D01*
Y0011539D01*
X0019860Y0011584D01*
X0019727D01*
Y0011317D01*
X0019544Y0011584D02*
Y0011495D01*
X0019455Y0011317D01*
X0019367Y0011495D01*
Y0011584D01*
X0037781Y0005406D02*
Y0005495D01*
Y0005450D02*
X0038048D01*
X0038003Y0005495D01*
X0037781Y0005721D02*
Y0005877D01*
X0038048D01*
X0018495Y0000289D02*
Y0000467D01*
X0018672Y0000289D01*
X0018717D01*
X0018761Y0000311D01*
Y0000445D01*
X0018717Y0000467D01*
X0018584Y0000649D02*
Y0000827D01*
X0018495Y0000649D02*
X0018628D01*
X0018761Y0000716D01*
Y0000760D01*
X0018628Y0000827D01*
X0018495D01*
Y0001009D02*
Y0001098D01*
Y0001053D02*
X0018761D01*
Y0001009D02*
Y0001098D01*
X0018717Y0001324D02*
X0018761Y0001347D01*
Y0001480D01*
X0018717Y0001502D01*
X0018672D01*
X0018628Y0001480D01*
Y0001347D01*
X0018584Y0001324D01*
X0018539D01*
X0018495Y0001347D01*
Y0001480D01*
X0018539Y0001502D01*
X0018628Y0001751D02*
X0018495Y0001684D01*
X0018628Y0001862D02*
Y0001729D01*
X0018672Y0001684D01*
X0018717D01*
X0018761Y0001729D01*
Y0001862D01*
X0018495D01*
X0018406Y0002044D02*
Y0002222D01*
X0018628Y0002471D02*
X0018495Y0002404D01*
X0018628Y0002582D02*
Y0002449D01*
X0018672Y0002404D01*
X0018717D01*
X0018761Y0002449D01*
Y0002582D01*
X0018495D01*
X0018761Y0002764D02*
X0018672D01*
X0018495Y0002853D01*
X0018672Y0002942D01*
X0018761D01*
X0001618Y0011249D02*
X0001640Y0011205D01*
X0001773D01*
X0001795Y0011249D01*
Y0011338D01*
X0001751Y0011382D01*
X0001618D01*
Y0011471D01*
X0001795D01*
X0001369Y0011338D02*
X0001435Y0011205D01*
X0001258Y0011338D02*
X0001391D01*
X0001435Y0011382D01*
Y0011427D01*
X0001391Y0011471D01*
X0001258D01*
Y0011205D01*
X0001075Y0011116D02*
X0000898D01*
X0000715Y0011249D02*
X0000693Y0011205D01*
X0000560D01*
X0000538Y0011249D01*
Y0011427D01*
X0000560Y0011471D01*
X0000693D01*
X0000715Y0011427D01*
X0000200Y0011205D02*
Y0011471D01*
X0000178Y0011205D02*
X0000311D01*
X0000355Y0011249D01*
Y0011294D01*
X0000333Y0011338D01*
X0000200D02*
X0000333D01*
X0000355Y0011382D01*
Y0011427D01*
X0000311Y0011471D01*
X0000178D01*
X0025065Y0002779D02*
Y0003001D01*
X0025287Y0002779D01*
X0025343D01*
X0025399Y0002807D01*
Y0002973D01*
X0025343Y0003001D01*
X0025232Y0003300D02*
Y0003189D01*
X0025121D01*
X0025065Y0003217D01*
Y0003383D01*
X0025121Y0003411D01*
X0025343D01*
X0025399Y0003383D01*
Y0003217D01*
X0025343Y0003189D01*
X0025232Y0003654D02*
Y0003821D01*
X0025065Y0003599D02*
Y0003821D01*
X0025399D01*
Y0003599D01*
X0025232Y0004092D02*
X0025065Y0004009D01*
X0025232Y0004231D02*
Y0004064D01*
X0025287Y0004009D01*
X0025343D01*
X0025399Y0004064D01*
Y0004231D01*
X0025065D01*
X0025343Y0004419D02*
X0025399Y0004447D01*
Y0004613D01*
X0025343Y0004641D01*
X0025287D01*
X0025232Y0004613D01*
Y0004447D01*
X0025176Y0004419D01*
X0025121D01*
X0025065Y0004447D01*
Y0004613D01*
X0025121Y0004641D01*
X0025261Y0001154D02*
X0025083D01*
X0025172Y0001331D01*
X0025216D01*
Y0001065D01*
X0024901D02*
X0024812D01*
X0024856D02*
Y0001331D01*
X0024812Y0001287D01*
X0024430Y0001065D02*
Y0001331D01*
X0024408Y0001065D02*
X0024541D01*
X0024585Y0001109D01*
Y0001154D01*
X0024563Y0001198D01*
X0024430D02*
X0024563D01*
X0024585Y0001242D01*
Y0001287D01*
X0024541Y0001331D01*
X0024408D01*
X0024225Y0001109D02*
X0024203Y0001065D01*
X0024070D01*
X0024048Y0001109D01*
Y0001287D01*
X0024070Y0001331D01*
X0024203D01*
X0024225Y0001287D01*
X0016818Y0006556D02*
X0016640D01*
X0016818Y0006734D01*
Y0006779D01*
X0016796Y0006823D01*
X0016662D01*
X0016640Y0006779D01*
X0016458Y0006556D02*
X0016303D01*
Y0006823D01*
X0016120Y0006467D02*
X0015943D01*
X0015694Y0006690D02*
X0015760Y0006556D01*
X0015583Y0006690D02*
X0015716D01*
X0015760Y0006734D01*
Y0006779D01*
X0015716Y0006823D01*
X0015583D01*
Y0006556D01*
X0015400Y0006823D02*
Y0006734D01*
X0015311Y0006556D01*
X0015223Y0006734D01*
Y0006823D01*
X0001700Y0013728D02*
X0001833D01*
X0001855Y0013684D01*
Y0013639D01*
X0001833Y0013595D01*
X0001700D01*
X0001678Y0013639D01*
Y0013684D01*
X0001766Y0013861D01*
X0001495Y0013639D02*
X0001473Y0013595D01*
X0001340D01*
X0001318Y0013639D01*
Y0013817D01*
X0001340Y0013861D01*
X0001473D01*
X0001495Y0013817D01*
X0001135Y0013506D02*
X0000958D01*
X0000775Y0013639D02*
X0000753Y0013595D01*
X0000620D01*
X0000598Y0013639D01*
Y0013817D01*
X0000620Y0013861D01*
X0000753D01*
X0000775Y0013817D01*
X0000260Y0013595D02*
Y0013861D01*
X0000238Y0013595D02*
X0000371D01*
X0000415Y0013639D01*
Y0013684D01*
X0000393Y0013728D01*
X0000260D02*
X0000393D01*
X0000415Y0013772D01*
Y0013817D01*
X0000371Y0013861D01*
X0000238D01*
X0032402Y0020812D02*
X0032374Y0020867D01*
X0032207D01*
X0032179Y0020812D01*
Y0020701D01*
X0032235Y0020645D01*
X0032402D01*
Y0020534D01*
X0032179D01*
X0032701Y0020756D02*
X0032589Y0020867D01*
X0032812Y0020812D02*
X0032784Y0020867D01*
X0032673D01*
X0032645Y0020812D01*
X0032589Y0020756D01*
Y0020590D01*
X0032617Y0020534D01*
X0032784D01*
X0032812Y0020590D01*
Y0020812D01*
X0028873Y0008687D02*
X0028784D01*
X0028829D02*
Y0008954D01*
X0028784Y0008910D01*
X0028469Y0008687D02*
Y0008954D01*
X0028558D02*
X0028380D01*
X0028198Y0008687D02*
X0028042D01*
Y0008954D01*
X0027860Y0008687D02*
X0027771D01*
X0027815D02*
Y0008954D01*
X0027860D02*
X0027771D01*
X0027500Y0008821D02*
X0027367D01*
Y0008687D02*
Y0008954D01*
X0027544D01*
X0027118Y0008821D02*
X0027184Y0008687D01*
X0027007Y0008821D02*
X0027140D01*
X0027184Y0008865D01*
Y0008910D01*
X0027140Y0008954D01*
X0027007D01*
Y0008687D01*
X0026824Y0008598D02*
X0026647D01*
X0026464Y0008687D02*
Y0008954D01*
X0026420Y0008910D01*
X0026375Y0008821D01*
X0026331Y0008910D01*
X0026287Y0008954D01*
Y0008687D01*
X0025949D02*
Y0008954D01*
X0025927Y0008687D02*
X0026060D01*
X0026104Y0008732D01*
Y0008776D01*
X0026082Y0008821D01*
X0025949D02*
X0026082D01*
X0026104Y0008865D01*
Y0008910D01*
X0026060Y0008954D01*
X0025927D01*
X0021260Y0010667D02*
X0021082D01*
X0021260Y0010845D01*
Y0010889D01*
X0021238Y0010934D01*
X0021104D01*
X0021082Y0010889D01*
X0020900Y0010934D02*
Y0010667D01*
X0020855Y0010712D01*
X0020767Y0010889D01*
X0020722Y0010934D01*
Y0010667D01*
X0020540D02*
X0020451D01*
X0020495D02*
Y0010934D01*
X0020540D02*
X0020451D01*
X0020224Y0010712D02*
X0020202Y0010667D01*
X0020069D01*
X0020047Y0010712D01*
Y0010889D01*
X0020069Y0010934D01*
X0020202D01*
X0020224Y0010889D01*
X0019864Y0010578D02*
X0019687D01*
X0019438Y0010800D02*
X0019504Y0010667D01*
X0019327Y0010800D02*
X0019460D01*
X0019504Y0010845D01*
Y0010889D01*
X0019460Y0010934D01*
X0019327D01*
Y0010667D01*
X0019144Y0010934D02*
Y0010845D01*
X0019055Y0010667D01*
X0018967Y0010845D01*
Y0010934D01*
X-0000194Y0004282D02*
X-0000305D01*
X-0000250D02*
Y0004616D01*
X-0000305Y0004560D01*
X0021766Y0016845D02*
X0021854D01*
X0021810D02*
Y0016579D01*
X0021854Y0016623D01*
X0022170Y0016712D02*
X0022081D01*
Y0016801D01*
X0022103Y0016845D01*
X0022237D01*
X0022259Y0016801D01*
Y0016623D01*
X0022237Y0016579D01*
X0022103D01*
X0022081Y0016623D01*
X0022486Y0016712D02*
X0022619D01*
X0022441Y0016845D02*
X0022619D01*
Y0016579D01*
X0022441D01*
X0022868Y0016712D02*
X0022801Y0016845D01*
X0022979Y0016712D02*
X0022846D01*
X0022801Y0016668D01*
Y0016623D01*
X0022846Y0016579D01*
X0022979D01*
Y0016845D01*
X0023161Y0016623D02*
X0023183Y0016579D01*
X0023317D01*
X0023339Y0016623D01*
Y0016668D01*
X0023317Y0016712D01*
X0023183D01*
X0023161Y0016756D01*
Y0016801D01*
X0023183Y0016845D01*
X0023317D01*
X0023339Y0016801D01*
X0009679Y0012873D02*
X0009456D01*
X0009568Y0013096D01*
X0009623D01*
Y0012762D01*
X0009158Y0012873D02*
X0009269Y0012762D01*
X0009046Y0012818D02*
X0009074Y0012762D01*
X0009185D01*
X0009213Y0012818D01*
X0009269Y0012873D01*
Y0013040D01*
X0009241Y0013096D01*
X0009074D01*
X0009046Y0013040D01*
Y0012818D01*
X0003957Y0010302D02*
X0004001Y0010257D01*
X0004090D01*
X0004134Y0010302D01*
Y0010346D01*
X0004045Y0010435D01*
X0004134Y0010524D01*
X0003957D01*
X0003708Y0010391D02*
X0003774Y0010257D01*
X0003597Y0010391D02*
X0003730D01*
X0003774Y0010435D01*
Y0010480D01*
X0003730Y0010524D01*
X0003597D01*
Y0010257D01*
X0003414Y0010168D02*
X0003237D01*
X0003054Y0010302D02*
X0003032Y0010257D01*
X0002899D01*
X0002877Y0010302D01*
Y0010480D01*
X0002899Y0010524D01*
X0003032D01*
X0003054Y0010480D01*
X0002539Y0010257D02*
Y0010524D01*
X0002517Y0010257D02*
X0002650D01*
X0002694Y0010302D01*
Y0010346D01*
X0002672Y0010391D01*
X0002539D02*
X0002672D01*
X0002694Y0010435D01*
Y0010480D01*
X0002650Y0010524D01*
X0002517D01*
X0010395Y0009294D02*
X0010173D01*
X0010284Y0009516D01*
X0010340D01*
Y0009183D01*
X0009985Y0009238D02*
X0009958Y0009183D01*
X0009791D01*
X0009763Y0009238D01*
Y0009460D01*
X0009791Y0009516D01*
X0009958D01*
X0009985Y0009460D01*
X0009575Y0009071D02*
X0009353D01*
X0009165Y0009238D02*
X0009138Y0009183D01*
X0008971D01*
X0008943Y0009238D01*
Y0009460D01*
X0008971Y0009516D01*
X0009138D01*
X0009165Y0009460D01*
X0008561Y0009183D02*
Y0009516D01*
X0008533Y0009183D02*
X0008700D01*
X0008755Y0009238D01*
Y0009294D01*
X0008728Y0009349D01*
X0008561D02*
X0008728D01*
X0008755Y0009405D01*
Y0009460D01*
X0008700Y0009516D01*
X0008533D01*
X0041606Y0002915D02*
X0041518D01*
X0041562D02*
Y0003181D01*
X0041518Y0003137D01*
X0041224Y0003048D02*
X0041291Y0002915D01*
X0041113Y0003048D02*
X0041246D01*
X0041291Y0003093D01*
Y0003137D01*
X0041246Y0003181D01*
X0041113D01*
Y0002915D01*
X0040931Y0003004D02*
X0040753D01*
X0040931Y0002915D02*
Y0003048D01*
X0040864Y0003181D01*
X0040820D01*
X0040753Y0003048D01*
Y0002915D01*
X0040415D02*
Y0003181D01*
X0040393Y0002915D02*
X0040526D01*
X0040571Y0003004D01*
Y0003093D01*
X0040526Y0003181D01*
X0040393D01*
X0040144Y0003048D02*
X0040211Y0002915D01*
X0040033Y0003048D02*
X0040166D01*
X0040211Y0003093D01*
Y0003137D01*
X0040166Y0003181D01*
X0040033D01*
Y0002915D01*
X0039851D02*
X0039762D01*
X0039806D02*
Y0003181D01*
X0039851D02*
X0039762D01*
X0004095Y0008385D02*
X0003918D01*
X0004095Y0008562D01*
Y0008607D01*
X0004073Y0008651D01*
X0003940D01*
X0003918Y0008607D01*
X0003669Y0008518D02*
X0003735Y0008385D01*
X0003558Y0008518D02*
X0003691D01*
X0003735Y0008562D01*
Y0008607D01*
X0003691Y0008651D01*
X0003558D01*
Y0008385D01*
X0003375Y0008296D02*
X0003198D01*
X0003015Y0008429D02*
X0002993Y0008385D01*
X0002860D01*
X0002838Y0008429D01*
Y0008607D01*
X0002860Y0008651D01*
X0002993D01*
X0003015Y0008607D01*
X0002500Y0008385D02*
Y0008651D01*
X0002478Y0008385D02*
X0002611D01*
X0002655Y0008429D01*
Y0008474D01*
X0002633Y0008518D01*
X0002500D02*
X0002633D01*
X0002655Y0008562D01*
Y0008607D01*
X0002611Y0008651D01*
X0002478D01*
X0004031Y0014787D02*
X0004164Y0015054D01*
X0003987D01*
X0003738Y0014921D02*
X0003804Y0014787D01*
X0003627Y0014921D02*
X0003760D01*
X0003804Y0014965D01*
Y0015010D01*
X0003760Y0015054D01*
X0003627D01*
Y0014787D01*
X0003444Y0014698D02*
X0003267D01*
X0003084Y0014832D02*
X0003062Y0014787D01*
X0002929D01*
X0002907Y0014832D01*
Y0015010D01*
X0002929Y0015054D01*
X0003062D01*
X0003084Y0015010D01*
X0002569Y0014787D02*
Y0015054D01*
X0002547Y0014787D02*
X0002680D01*
X0002724Y0014832D01*
Y0014876D01*
X0002702Y0014921D01*
X0002569D02*
X0002702D01*
X0002724Y0014965D01*
Y0015010D01*
X0002680Y0015054D01*
X0002547D01*
X0016581Y0014738D02*
X0016492D01*
X0016536D02*
Y0015005D01*
X0016492Y0014961D01*
X0016265Y0014738D02*
X0016110D01*
Y0015005D01*
X0015928Y0014649D02*
X0015750D01*
X0015568Y0014783D02*
X0015545Y0014738D01*
X0015412D01*
X0015390Y0014783D01*
Y0014961D01*
X0015412Y0015005D01*
X0015545D01*
X0015568Y0014961D01*
X0015052Y0014738D02*
Y0015005D01*
X0015030Y0014738D02*
X0015163D01*
X0015208Y0014783D01*
Y0014827D01*
X0015185Y0014872D01*
X0015052D02*
X0015185D01*
X0015208Y0014916D01*
Y0014961D01*
X0015163Y0015005D01*
X0015030D01*
X0047999Y0014577D02*
X0048055Y0014549D01*
X0048110D01*
X0048166Y0014577D01*
Y0014743D01*
X0048110Y0014771D01*
X0048055D01*
X0047999Y0014743D01*
Y0014577D01*
X0047944Y0014549D01*
X0047888D01*
X0047832Y0014577D01*
Y0014743D01*
X0047888Y0014771D01*
X0047944D01*
X0047999Y0014743D01*
X0047189Y0015546D02*
Y0015713D01*
X0047023Y0015491D02*
Y0015713D01*
X0047356D01*
Y0015491D01*
X0047078Y0015901D02*
X0047023Y0015929D01*
Y0016095D01*
X0047078Y0016123D01*
X0047300D01*
X0047356Y0016095D01*
Y0015929D01*
X0047300Y0015901D01*
X0047134Y0016311D02*
Y0016533D01*
X0047023Y0016311D02*
X0047189D01*
X0047356Y0016394D01*
Y0016450D01*
X0047189Y0016533D01*
X0047023D01*
X0047189Y0016776D02*
Y0016943D01*
X0047023D02*
X0047356D01*
Y0016721D01*
X0047189Y0017214D02*
X0047023Y0017131D01*
X0047189Y0017353D02*
Y0017186D01*
X0047245Y0017131D01*
X0047300D01*
X0047356Y0017186D01*
Y0017353D01*
X0047023D01*
X0047189Y0017596D02*
Y0017763D01*
X0047023Y0017541D02*
Y0017763D01*
X0047356D01*
Y0017541D01*
X0047023Y0018062D02*
X0047356D01*
Y0017951D02*
Y0018173D01*
Y0018361D02*
X0047023D01*
X0047078Y0018416D01*
X0047300Y0018527D01*
X0047356Y0018583D01*
X0047023D01*
Y0018771D02*
Y0018882D01*
Y0018826D02*
X0047356D01*
Y0018771D02*
Y0018882D01*
X0047189Y0019743D02*
X0047023Y0019660D01*
X0047189Y0019882D02*
Y0019716D01*
X0047245Y0019660D01*
X0047300D01*
X0047356Y0019716D01*
Y0019882D01*
X0047023D01*
X0047189Y0020126D02*
Y0020292D01*
X0047023Y0020070D02*
Y0020292D01*
X0047356D01*
Y0020070D01*
X0047189Y0020702D02*
Y0020536D01*
X0047245Y0020480D01*
X0047300D01*
X0047356Y0020536D01*
Y0020702D01*
X0047023D01*
X0047189Y0021112D02*
Y0020946D01*
X0047245Y0020890D01*
X0047300D01*
X0047356Y0020946D01*
Y0021112D01*
X0047023D01*
Y0021300D02*
Y0021411D01*
Y0021356D02*
X0047356D01*
Y0021300D02*
Y0021411D01*
X0047189Y0021738D02*
X0047023Y0021654D01*
X0047189Y0021877D02*
Y0021710D01*
X0047245Y0021654D01*
X0047300D01*
X0047356Y0021710D01*
Y0021877D01*
X0047023D01*
X0047189Y0022176D02*
Y0022064D01*
X0047078D01*
X0047023Y0022092D01*
Y0022259D01*
X0047078Y0022287D01*
X0047300D01*
X0047356Y0022259D01*
Y0022092D01*
X0047300Y0022064D01*
X0047832Y0023004D02*
Y0023115D01*
Y0023060D02*
X0048166D01*
X0048110Y0023115D01*
X0042691Y0003044D02*
X0042513D01*
X0042602Y0003221D01*
X0042647D01*
Y0002955D01*
X-0000139Y0005283D02*
X-0000361D01*
X-0000139Y0005505D01*
Y0005560D01*
X-0000167Y0005616D01*
X-0000333D01*
X-0000361Y0005560D01*
X0045662Y0001400D02*
Y0001566D01*
X0045495Y0001344D02*
Y0001566D01*
X0045828D01*
Y0001344D01*
X0045551Y0001754D02*
X0045495Y0001782D01*
Y0001948D01*
X0045551Y0001976D01*
X0045773D01*
X0045828Y0001948D01*
Y0001782D01*
X0045773Y0001754D01*
X0045606Y0002164D02*
Y0002386D01*
X0045495Y0002164D02*
X0045662D01*
X0045828Y0002247D01*
Y0002303D01*
X0045662Y0002386D01*
X0045495D01*
X0045662Y0002630D02*
Y0002796D01*
X0045495D02*
X0045828D01*
Y0002574D01*
X0045662Y0003067D02*
X0045495Y0002984D01*
X0045662Y0003206D02*
Y0003040D01*
X0045717Y0002984D01*
X0045773D01*
X0045828Y0003040D01*
Y0003206D01*
X0045495D01*
X0045662Y0003450D02*
Y0003616D01*
X0045495Y0003394D02*
Y0003616D01*
X0045828D01*
Y0003394D01*
X0045495Y0003915D02*
X0045828D01*
Y0003804D02*
Y0004026D01*
Y0004214D02*
X0045495D01*
X0045551Y0004270D01*
X0045773Y0004381D01*
X0045828Y0004436D01*
X0045495D01*
Y0004624D02*
Y0004735D01*
Y0004679D02*
X0045828D01*
Y0004624D02*
Y0004735D01*
X0045662Y0005624D02*
Y0005513D01*
X0045551D01*
X0045495Y0005541D01*
Y0005708D01*
X0045551Y0005736D01*
X0045773D01*
X0045828Y0005708D01*
Y0005541D01*
X0045773Y0005513D01*
X0045606Y0005923D02*
Y0006146D01*
X0045495Y0005923D02*
X0045662D01*
X0045828Y0006007D01*
Y0006062D01*
X0045662Y0006146D01*
X0045495D01*
Y0006444D02*
X0045828D01*
Y0006333D02*
Y0006556D01*
X0045606Y0006938D02*
X0045551D01*
X0045495Y0006910D01*
Y0006799D01*
X0045551Y0006771D01*
X0045828D01*
Y0006743D02*
Y0006854D01*
X0046717Y0006977D02*
X0046662Y0006922D01*
X0046606Y0006894D01*
X0046495D01*
X0046439Y0006922D01*
X0046384Y0006977D01*
Y0007033D01*
X0046439Y0007089D01*
X0046495Y0007116D01*
X0046606D01*
X0046662Y0007089D01*
X0046717Y0007033D01*
Y0006977D01*
Y0006706D02*
Y0006595D01*
Y0006651D02*
X0046384D01*
X0046439Y0006595D01*
X0047717Y0001225D02*
Y0001114D01*
Y0001170D02*
X0047384D01*
X0047440Y0001114D01*
X0046717Y0001251D02*
Y0001029D01*
X0046495Y0001251D01*
X0046439D01*
X0046384Y0001223D01*
Y0001057D01*
X0046439Y0001029D01*
X0047551Y0006913D02*
Y0006747D01*
X0047495Y0006719D01*
X0047440D01*
X0047384Y0006747D01*
Y0006913D01*
X0047440Y0006941D01*
X0047495D01*
X0047717Y0006830D01*
X0039730Y0019544D02*
X0039507D01*
X0039619Y0019766D01*
X0039674D01*
Y0019432D01*
X0039320D02*
X0039125D01*
Y0019766D01*
X0038938Y0019544D02*
X0038715D01*
X0038938Y0019432D02*
Y0019599D01*
X0038854Y0019766D01*
X0038799D01*
X0038715Y0019599D01*
Y0019432D01*
X0038333Y0019544D02*
Y0019488D01*
X0038361Y0019432D01*
X0038472D01*
X0038500Y0019488D01*
Y0019766D01*
X0038528D02*
X0038416D01*
X0038095Y0017632D02*
X0037984D01*
X0038040D02*
Y0017966D01*
X0037984Y0017910D01*
X0038141Y0018633D02*
X0037919D01*
X0038141Y0018855D01*
Y0018910D01*
X0038113Y0018966D01*
X0037947D01*
X0037919Y0018910D01*
X0045011Y0017632D02*
X0044900D01*
X0044955D02*
Y0017966D01*
X0044900Y0017910D01*
X0044656Y0017632D02*
X0044545D01*
X0044601D02*
Y0017966D01*
X0044545Y0017910D01*
X0045056Y0018633D02*
X0044834D01*
X0045056Y0018855D01*
Y0018910D01*
X0045029Y0018966D01*
X0044862D01*
X0044834Y0018910D01*
X0044646Y0018633D02*
X0044535D01*
X0044591D02*
Y0018966D01*
X0044535Y0018910D01*
X0002777Y0001098D02*
X0002833Y0001042D01*
X0002944D01*
X0003000Y0001098D01*
Y0001154D01*
X0002889Y0001265D01*
X0003000Y0001376D01*
X0002777D01*
X0002590Y0001042D02*
X0002395D01*
Y0001376D01*
X0002208Y0001154D02*
X0001985D01*
X0002208Y0001042D02*
Y0001209D01*
X0002124Y0001376D01*
X0002069D01*
X0001985Y0001209D01*
Y0001042D01*
X0001603Y0001154D02*
Y0001098D01*
X0001631Y0001042D01*
X0001742D01*
X0001770Y0001098D01*
Y0001376D01*
X0001798D02*
X0001686D01*
X0001225Y0001832D02*
X0001114D01*
X0001170D02*
Y0002166D01*
X0001114Y0002110D01*
X0001271Y0002833D02*
X0001049D01*
X0001271Y0003055D01*
Y0003110D01*
X0001243Y0003166D01*
X0001077D01*
X0001049Y0003110D01*
X0031771Y0005936D02*
Y0006025D01*
Y0005980D02*
X0032038D01*
X0031993Y0006025D01*
X0031771Y0006251D02*
X0032038D01*
X0031993Y0006296D01*
X0031904Y0006340D01*
X0031993Y0006385D01*
X0032038Y0006429D01*
X0031771D01*
Y0006611D02*
Y0006767D01*
X0032038D01*
X0004210Y0006122D02*
X0004099D01*
X0004154D02*
Y0006456D01*
X0004099Y0006400D01*
X0003744Y0006289D02*
X0003855D01*
Y0006178D01*
X0003828Y0006122D01*
X0003661D01*
X0003633Y0006178D01*
Y0006400D01*
X0003661Y0006456D01*
X0003828D01*
X0003855Y0006400D01*
X0003445Y0006178D02*
X0003418Y0006122D01*
X0003251D01*
X0003223Y0006178D01*
Y0006400D01*
X0003251Y0006456D01*
X0003418D01*
X0003445Y0006400D01*
X0003035Y0006456D02*
Y0006178D01*
X0003008Y0006122D01*
X0002841D01*
X0002813Y0006178D01*
Y0006456D01*
X0042653Y0005499D02*
X0042681Y0005555D01*
Y0005610D01*
X0042653Y0005666D01*
X0042487D01*
X0042459Y0005610D01*
Y0005555D01*
X0042487Y0005499D01*
X0042653D01*
X0042681Y0005444D01*
Y0005388D01*
X0042653Y0005333D01*
X0042487D01*
X0042459Y0005388D01*
Y0005444D01*
X0042487Y0005499D01*
X0042524Y0004332D02*
X0042691Y0004666D01*
X0042469D01*
X0040990Y0006112D02*
X0040767D01*
X0040990Y0006335D01*
Y0006390D01*
X0040962Y0006446D01*
X0040795D01*
X0040767Y0006390D01*
X0040580Y0006112D02*
X0040385D01*
Y0006446D01*
X0040198Y0006224D02*
X0039975D01*
X0040198Y0006112D02*
Y0006279D01*
X0040114Y0006446D01*
X0040059D01*
X0039975Y0006279D01*
Y0006112D01*
X0039593Y0006224D02*
Y0006168D01*
X0039621Y0006112D01*
X0039732D01*
X0039760Y0006168D01*
Y0006446D01*
X0039788D02*
X0039676D01*
X0002844Y0021942D02*
X0002733D01*
X0002789D02*
Y0022276D01*
X0002733Y0022220D01*
X0002490Y0021942D02*
X0002295D01*
Y0022276D01*
X0002108Y0022054D02*
X0001885D01*
X0002108Y0021942D02*
Y0022109D01*
X0002024Y0022276D01*
X0001969D01*
X0001885Y0022109D01*
Y0021942D01*
X0001503Y0022054D02*
Y0021998D01*
X0001531Y0021942D01*
X0001642D01*
X0001670Y0021998D01*
Y0022276D01*
X0001698D02*
X0001586D01*
X0007107Y0021133D02*
X0007052Y0021188D01*
X0007024Y0021244D01*
Y0021355D01*
X0007052Y0021410D01*
X0007107Y0021466D01*
X0007163D01*
X0007219Y0021410D01*
X0007246Y0021355D01*
Y0021244D01*
X0007219Y0021188D01*
X0007163Y0021133D01*
X0007107D01*
X0006836D02*
X0006725D01*
X0006781D02*
Y0021466D01*
X0006725Y0021410D01*
X0001145Y0020132D02*
X0001034D01*
X0001090D02*
Y0020466D01*
X0001034Y0020410D01*
X0001191Y0021133D02*
X0000969D01*
X0001191Y0021355D01*
Y0021410D01*
X0001163Y0021466D01*
X0000997D01*
X0000969Y0021410D01*
X0007053Y0020299D02*
X0006887D01*
X0006859Y0020355D01*
Y0020410D01*
X0006887Y0020466D01*
X0007053D01*
X0007081Y0020410D01*
Y0020355D01*
X0006970Y0020132D01*
X0035223Y0020812D02*
X0035112D01*
X0035168D02*
Y0021146D01*
X0035112Y0021090D01*
X0034869Y0021146D02*
Y0020868D01*
X0034841Y0020812D01*
X0034674D01*
X0034646Y0020868D01*
Y0021146D01*
X0008221Y0001832D02*
X0008110D01*
X0008165D02*
Y0002166D01*
X0008110Y0002110D01*
X0007866Y0001832D02*
X0007755D01*
X0007811D02*
Y0002166D01*
X0007755Y0002110D01*
X0042680Y0002800D02*
Y0001800D01*
X0038680D01*
Y0002800D01*
X0042680D01*
X0035555Y0020850D02*
Y0016850D01*
X0036305D01*
Y0020850D01*
X0035555D01*
Y0020600D02*
X0036305D01*
X0000250Y0005950D02*
X0004250D01*
Y0003950D01*
X0000250D01*
Y0005950D01*
X0048500Y0014150D02*
Y0009150D01*
X0046500D01*
Y0014150D01*
X0048500D01*
X0038230Y0002800D02*
Y0001800D01*
X0034230D01*
Y0002800D01*
X0038230D01*
X0035505Y0011900D02*
Y0007900D01*
X0036255D01*
Y0011900D01*
X0035505D01*
Y0011650D02*
X0036255D01*
X0013620Y0017930D02*
X0014620D01*
Y0015930D01*
X0013620D01*
Y0017930D01*
X0005650Y-0001100D02*
X0004650D01*
Y0000900D01*
X0005650D01*
Y-0001100D01*
X0046700Y0019650D02*
X0045700D01*
Y0021650D01*
X0046700D01*
Y0019650D01*
X0043000Y0001450D02*
Y0005650D01*
X0045250D01*
Y0001450D01*
X0043000D01*
X0043550Y0005650D02*
Y0001450D01*
X0033300Y0021950D02*
Y0022950D01*
X0035300D01*
Y0021950D01*
X0033300D01*
X0036230Y0001450D02*
Y0000450D01*
X0034230D01*
Y0001450D01*
X0036230D01*
X0016710Y0000280D02*
X0015710D01*
Y0002280D01*
X0016710D01*
Y0000280D01*
X0043100Y-0002300D02*
X0042100D01*
Y-0000300D01*
X0043100D01*
Y-0002300D01*
X0035505Y0007400D02*
Y0003400D01*
X0036255D01*
Y0007400D01*
X0035505D01*
Y0007150D02*
X0036255D01*
X0042100Y0016650D02*
Y0006650D01*
X0040100D01*
Y0016650D01*
X0042100D01*
X0041600D02*
Y0016400D01*
X0040600D01*
Y0016650D01*
X0035555Y0016400D02*
Y0012400D01*
X0036305D01*
Y0016400D01*
X0035555D01*
Y0016150D02*
X0036305D01*
X0026250Y0002280D02*
X0027250D01*
Y0000280D01*
X0026250D01*
Y0002280D01*
X0005650Y0022400D02*
X0004650D01*
Y0024400D01*
X0005650D01*
Y0022400D01*
X0004400Y0004400D02*
Y0005400D01*
X0013400D01*
Y0004400D01*
X0004400D01*
X0042680Y0001450D02*
Y0000450D01*
X0036680D01*
Y0001450D01*
X0042680D01*
X0010050Y0002950D02*
X0014250D01*
Y0000700D01*
X0010050D01*
Y0002950D01*
X0014250Y0002400D02*
X0010050D01*
X0028255Y0011000D02*
Y0009000D01*
X0027505D01*
Y0011000D01*
X0028255D01*
X0027505Y0010750D02*
X0028255D01*
X0029740Y0002290D02*
X0033940D01*
Y0000040D01*
X0029740D01*
Y0002290D01*
X0033940Y0001740D02*
X0029740D01*
X0021800Y0010930D02*
Y0011930D01*
X0023800D01*
Y0011680D01*
X0024050Y0011430D01*
X0023800Y0011180D01*
Y0010930D01*
X0021800D01*
X0023800Y0011330D02*
Y0011530D01*
X0023700Y0011430D02*
X0023900D01*
X0018950Y0004885D02*
X0024950D01*
Y0002635D01*
X0018950D01*
Y0004885D01*
X0019200D02*
Y0002635D01*
X0032800Y0021000D02*
X0028600D01*
Y0023250D01*
X0032800D01*
Y0021000D01*
X0028600Y0021550D02*
X0032800D01*
X0020020Y0009530D02*
Y0010530D01*
X0022020D01*
Y0010280D01*
X0022270Y0010030D01*
X0022020Y0009780D01*
Y0009530D01*
X0020020D01*
X0022020Y0009930D02*
Y0010130D01*
X0021920Y0010030D02*
X0022120D01*
X0021425Y0016990D02*
Y0022990D01*
X0023675D01*
Y0016990D01*
X0021425D01*
Y0017240D02*
X0023675D01*
X0008985Y0012650D02*
Y0010150D01*
X0009735D01*
Y0012650D01*
X0008985D01*
Y0012400D02*
X0009735D01*
X0010550Y0008950D02*
Y0007950D01*
X0008550D01*
Y0008200D01*
X0008300Y0008450D01*
X0008550Y0008700D01*
Y0008950D01*
X0010550D01*
X0008550Y0008550D02*
Y0008350D01*
X0008650Y0008450D02*
X0008450D01*
X0048500Y0014900D02*
X0047500D01*
Y0022900D01*
X0048500D01*
Y0014900D01*
X0038300Y0019300D02*
X0044300D01*
Y0017300D01*
X0038300D01*
Y0019300D01*
X0001500Y0003500D02*
X0007500D01*
Y0001500D01*
X0001500D01*
Y0003500D01*
X0046050Y0001400D02*
Y0006400D01*
X0048050D01*
Y0001400D01*
X0046050D01*
X0038300Y0006000D02*
X0042300D01*
Y0004000D01*
X0038300D01*
Y0006000D01*
X0001500Y0021800D02*
X0006500D01*
Y0019800D01*
X0001500D01*
Y0021800D01*
G54D62*
G01X0003800Y0024800D02*
Y0023300D01*
X0000000D01*
Y0026300D01*
X0003800D01*
Y0024800D01*
X0044700Y0026800D02*
Y0028300D01*
X0048500D01*
Y0025300D01*
X0044700D01*
Y0026800D01*
X0003800Y-0001500D02*
Y-0003000D01*
X0000000D01*
Y0000000D01*
X0003800D01*
Y-0001500D01*
X0044700Y-0003500D02*
Y-0002000D01*
X0048500D01*
Y-0005000D01*
X0044700D01*
Y-0003500D01*
X0019715Y0020900D02*
Y0020113D01*
Y0020900D02*
X0015385D01*
Y0020113D01*
X0019715D02*
X0015385D01*
X0019700Y0020900D02*
Y0020113D01*
X0019691Y0020900D02*
Y0020113D01*
X0019682Y0020900D02*
Y0020113D01*
X0019673Y0020900D02*
Y0020113D01*
X0019664Y0020900D02*
Y0020113D01*
X0019655Y0020900D02*
Y0020113D01*
X0019646Y0020900D02*
Y0020113D01*
X0019637Y0020900D02*
Y0020113D01*
X0019628Y0020900D02*
Y0020113D01*
X0019619Y0020900D02*
Y0020113D01*
X0019610Y0020900D02*
Y0020113D01*
X0019601Y0020900D02*
Y0020113D01*
X0019592Y0020900D02*
Y0020113D01*
X0019583Y0020900D02*
Y0020113D01*
X0019574Y0020900D02*
Y0020113D01*
X0019565Y0020900D02*
Y0020113D01*
X0019556Y0020900D02*
Y0020113D01*
X0019547Y0020900D02*
Y0020113D01*
X0019538Y0020900D02*
Y0020113D01*
X0019529Y0020900D02*
Y0020113D01*
X0019520Y0020900D02*
Y0020113D01*
X0019511Y0020900D02*
Y0020113D01*
X0019502Y0020900D02*
Y0020113D01*
X0019493Y0020900D02*
Y0020113D01*
X0019484Y0020900D02*
Y0020113D01*
X0019475Y0020900D02*
Y0020113D01*
X0019466Y0020900D02*
Y0020113D01*
X0019457Y0020900D02*
Y0020113D01*
X0019448Y0020900D02*
Y0020113D01*
X0019439Y0020900D02*
Y0020113D01*
X0019430Y0020900D02*
Y0020113D01*
X0019421Y0020900D02*
Y0020113D01*
X0019412Y0020900D02*
Y0020113D01*
X0019403Y0020900D02*
Y0020113D01*
X0019394Y0020900D02*
Y0020113D01*
X0019385Y0020900D02*
Y0020113D01*
X0019376Y0020900D02*
Y0020113D01*
X0019367Y0020900D02*
Y0020113D01*
X0019358Y0020900D02*
Y0020113D01*
X0019349Y0020900D02*
Y0020113D01*
X0019340Y0020900D02*
Y0020113D01*
X0019331Y0020900D02*
Y0020113D01*
X0019322Y0020900D02*
Y0020113D01*
X0019313Y0020900D02*
Y0020113D01*
X0019304Y0020900D02*
Y0020113D01*
X0019295Y0020900D02*
Y0020113D01*
X0019286Y0020900D02*
Y0020113D01*
X0019277Y0020900D02*
Y0020113D01*
X0019268Y0020900D02*
Y0020113D01*
X0019259Y0020900D02*
Y0020113D01*
X0019250Y0020900D02*
Y0020113D01*
X0019241Y0020900D02*
Y0020113D01*
X0019232Y0020900D02*
Y0020113D01*
X0019223Y0020900D02*
Y0020113D01*
X0019214Y0020900D02*
Y0020113D01*
X0019205Y0020900D02*
Y0020113D01*
X0019196Y0020900D02*
Y0020113D01*
X0019187Y0020900D02*
Y0020113D01*
X0019178Y0020900D02*
Y0020113D01*
X0019169Y0020900D02*
Y0020113D01*
X0019160Y0020900D02*
Y0020113D01*
X0019151Y0020900D02*
Y0020113D01*
X0019142Y0020900D02*
Y0020113D01*
X0019133Y0020900D02*
Y0020113D01*
X0019124Y0020900D02*
Y0020113D01*
X0019115Y0020900D02*
Y0020113D01*
X0019106Y0020900D02*
Y0020113D01*
X0019097Y0020900D02*
Y0020113D01*
X0019088Y0020900D02*
Y0020113D01*
X0019079Y0020900D02*
Y0020113D01*
X0019070Y0020900D02*
Y0020113D01*
X0019061Y0020900D02*
Y0020113D01*
X0019052Y0020900D02*
Y0020113D01*
X0019043Y0020900D02*
Y0020113D01*
X0019034Y0020900D02*
Y0020113D01*
X0019025Y0020900D02*
Y0020113D01*
X0019016Y0020900D02*
Y0020113D01*
X0019007Y0020900D02*
Y0020113D01*
X0018998Y0020900D02*
Y0020113D01*
X0018989Y0020900D02*
Y0020113D01*
X0018980Y0020900D02*
Y0020113D01*
X0018971Y0020900D02*
Y0020113D01*
X0018962Y0020900D02*
Y0020113D01*
X0018953Y0020900D02*
Y0020113D01*
X0018944Y0020900D02*
Y0020113D01*
X0018935Y0020900D02*
Y0020113D01*
X0018926Y0020900D02*
Y0020113D01*
X0018917Y0020900D02*
Y0020113D01*
X0018908Y0020900D02*
Y0020113D01*
X0018899Y0020900D02*
Y0020113D01*
X0018890Y0020900D02*
Y0020113D01*
X0018881Y0020900D02*
Y0020113D01*
X0018872Y0020900D02*
Y0020113D01*
X0018863Y0020900D02*
Y0020113D01*
X0018854Y0020900D02*
Y0020113D01*
X0018845Y0020900D02*
Y0020113D01*
X0018836Y0020900D02*
Y0020113D01*
X0018827Y0020900D02*
Y0020113D01*
X0018818Y0020900D02*
Y0020113D01*
X0018809Y0020900D02*
Y0020113D01*
X0018800Y0020900D02*
Y0020113D01*
X0018791Y0020900D02*
Y0020113D01*
X0018782Y0020900D02*
Y0020113D01*
X0018773Y0020900D02*
Y0020113D01*
X0018764Y0020900D02*
Y0020113D01*
X0018755Y0020900D02*
Y0020113D01*
X0018746Y0020900D02*
Y0020113D01*
X0018737Y0020900D02*
Y0020113D01*
X0018728Y0020900D02*
Y0020113D01*
X0018719Y0020900D02*
Y0020113D01*
X0018710Y0020900D02*
Y0020113D01*
X0018701Y0020900D02*
Y0020113D01*
X0018692Y0020900D02*
Y0020113D01*
X0018683Y0020900D02*
Y0020113D01*
X0018674Y0020900D02*
Y0020113D01*
X0018665Y0020900D02*
Y0020113D01*
X0018656Y0020900D02*
Y0020113D01*
X0018647Y0020900D02*
Y0020113D01*
X0018638Y0020900D02*
Y0020113D01*
X0018629Y0020900D02*
Y0020113D01*
X0018620Y0020900D02*
Y0020113D01*
X0018611Y0020900D02*
Y0020113D01*
X0018602Y0020900D02*
Y0020113D01*
X0018593Y0020900D02*
Y0020113D01*
X0018584Y0020900D02*
Y0020113D01*
X0018575Y0020900D02*
Y0020113D01*
X0018566Y0020900D02*
Y0020113D01*
X0018557Y0020900D02*
Y0020113D01*
X0018548Y0020900D02*
Y0020113D01*
X0018539Y0020900D02*
Y0020113D01*
X0018530Y0020900D02*
Y0020113D01*
X0018521Y0020900D02*
Y0020113D01*
X0018512Y0020900D02*
Y0020113D01*
X0018503Y0020900D02*
Y0020113D01*
X0018494Y0020900D02*
Y0020113D01*
X0018485Y0020900D02*
Y0020113D01*
X0018476Y0020900D02*
Y0020113D01*
X0018467Y0020900D02*
Y0020113D01*
X0018458Y0020900D02*
Y0020113D01*
X0018449Y0020900D02*
Y0020113D01*
X0018440Y0020900D02*
Y0020113D01*
X0018431Y0020900D02*
Y0020113D01*
X0018422Y0020900D02*
Y0020113D01*
X0018413Y0020900D02*
Y0020113D01*
X0018404Y0020900D02*
Y0020113D01*
X0018395Y0020900D02*
Y0020113D01*
X0018386Y0020900D02*
Y0020113D01*
X0018377Y0020900D02*
Y0020113D01*
X0018368Y0020900D02*
Y0020113D01*
X0018359Y0020900D02*
Y0020113D01*
X0018350Y0020900D02*
Y0020113D01*
X0018341Y0020900D02*
Y0020113D01*
X0018332Y0020900D02*
Y0020113D01*
X0018323Y0020900D02*
Y0020113D01*
X0018314Y0020900D02*
Y0020113D01*
X0018305Y0020900D02*
Y0020113D01*
X0018296Y0020900D02*
Y0020113D01*
X0018287Y0020900D02*
Y0020113D01*
X0018278Y0020900D02*
Y0020113D01*
X0018269Y0020900D02*
Y0020113D01*
X0018260Y0020900D02*
Y0020113D01*
X0018251Y0020900D02*
Y0020113D01*
X0018242Y0020900D02*
Y0020113D01*
X0018233Y0020900D02*
Y0020113D01*
X0018224Y0020900D02*
Y0020113D01*
X0018215Y0020900D02*
Y0020113D01*
X0018206Y0020900D02*
Y0020113D01*
X0018197Y0020900D02*
Y0020113D01*
X0018188Y0020900D02*
Y0020113D01*
X0018179Y0020900D02*
Y0020113D01*
X0018170Y0020900D02*
Y0020113D01*
X0018161Y0020900D02*
Y0020113D01*
X0018152Y0020900D02*
Y0020113D01*
X0018143Y0020900D02*
Y0020113D01*
X0018134Y0020900D02*
Y0020113D01*
X0018125Y0020900D02*
Y0020113D01*
X0018116Y0020900D02*
Y0020113D01*
X0018107Y0020900D02*
Y0020113D01*
X0018098Y0020900D02*
Y0020113D01*
X0018089Y0020900D02*
Y0020113D01*
X0018080Y0020900D02*
Y0020113D01*
X0018071Y0020900D02*
Y0020113D01*
X0018062Y0020900D02*
Y0020113D01*
X0018053Y0020900D02*
Y0020113D01*
X0018044Y0020900D02*
Y0020113D01*
X0018035Y0020900D02*
Y0020113D01*
X0018026Y0020900D02*
Y0020113D01*
X0018017Y0020900D02*
Y0020113D01*
X0018008Y0020900D02*
Y0020113D01*
X0017999Y0020900D02*
Y0020113D01*
X0017990Y0020900D02*
Y0020113D01*
X0017981Y0020900D02*
Y0020113D01*
X0017972Y0020900D02*
Y0020113D01*
X0017963Y0020900D02*
Y0020113D01*
X0017954Y0020900D02*
Y0020113D01*
X0017945Y0020900D02*
Y0020113D01*
X0017936Y0020900D02*
Y0020113D01*
X0017927Y0020900D02*
Y0020113D01*
X0017918Y0020900D02*
Y0020113D01*
X0017909Y0020900D02*
Y0020113D01*
X0017900Y0020900D02*
Y0020113D01*
X0017891Y0020900D02*
Y0020113D01*
X0017882Y0020900D02*
Y0020113D01*
X0017873Y0020900D02*
Y0020113D01*
X0017864Y0020900D02*
Y0020113D01*
X0017855Y0020900D02*
Y0020113D01*
X0017846Y0020900D02*
Y0020113D01*
X0017837Y0020900D02*
Y0020113D01*
X0017828Y0020900D02*
Y0020113D01*
X0017819Y0020900D02*
Y0020113D01*
X0017810Y0020900D02*
Y0020113D01*
X0017801Y0020900D02*
Y0020113D01*
X0017792Y0020900D02*
Y0020113D01*
X0017783Y0020900D02*
Y0020113D01*
X0017774Y0020900D02*
Y0020113D01*
X0017765Y0020900D02*
Y0020113D01*
X0017756Y0020900D02*
Y0020113D01*
X0017747Y0020900D02*
Y0020113D01*
X0017738Y0020900D02*
Y0020113D01*
X0017729Y0020900D02*
Y0020113D01*
X0017720Y0020900D02*
Y0020113D01*
X0017711Y0020900D02*
Y0020113D01*
X0017702Y0020900D02*
Y0020113D01*
X0017693Y0020900D02*
Y0020113D01*
X0017684Y0020900D02*
Y0020113D01*
X0017675Y0020900D02*
Y0020113D01*
X0017666Y0020900D02*
Y0020113D01*
X0017657Y0020900D02*
Y0020113D01*
X0017648Y0020900D02*
Y0020113D01*
X0017639Y0020900D02*
Y0020113D01*
X0017630Y0020900D02*
Y0020113D01*
X0017621Y0020900D02*
Y0020113D01*
X0017612Y0020900D02*
Y0020113D01*
X0017603Y0020900D02*
Y0020113D01*
X0017594Y0020900D02*
Y0020113D01*
X0017585Y0020900D02*
Y0020113D01*
X0017576Y0020900D02*
Y0020113D01*
X0017567Y0020900D02*
Y0020113D01*
X0017558Y0020900D02*
Y0020113D01*
X0017549Y0020900D02*
Y0020113D01*
X0017540Y0020900D02*
Y0020113D01*
X0017531Y0020900D02*
Y0020113D01*
X0017522Y0020900D02*
Y0020113D01*
X0017513Y0020900D02*
Y0020113D01*
X0017504Y0020900D02*
Y0020113D01*
X0017495Y0020900D02*
Y0020113D01*
X0017486Y0020900D02*
Y0020113D01*
X0017477Y0020900D02*
Y0020113D01*
X0017468Y0020900D02*
Y0020113D01*
X0017459Y0020900D02*
Y0020113D01*
X0017450Y0020900D02*
Y0020113D01*
X0017441Y0020900D02*
Y0020113D01*
X0017432Y0020900D02*
Y0020113D01*
X0017423Y0020900D02*
Y0020113D01*
X0017414Y0020900D02*
Y0020113D01*
X0017405Y0020900D02*
Y0020113D01*
X0017396Y0020900D02*
Y0020113D01*
X0017387Y0020900D02*
Y0020113D01*
X0017378Y0020900D02*
Y0020113D01*
X0017369Y0020900D02*
Y0020113D01*
X0017360Y0020900D02*
Y0020113D01*
X0017351Y0020900D02*
Y0020113D01*
X0017342Y0020900D02*
Y0020113D01*
X0017333Y0020900D02*
Y0020113D01*
X0017324Y0020900D02*
Y0020113D01*
X0017315Y0020900D02*
Y0020113D01*
X0017306Y0020900D02*
Y0020113D01*
X0017297Y0020900D02*
Y0020113D01*
X0017288Y0020900D02*
Y0020113D01*
X0017279Y0020900D02*
Y0020113D01*
X0017270Y0020900D02*
Y0020113D01*
X0017261Y0020900D02*
Y0020113D01*
X0017252Y0020900D02*
Y0020113D01*
X0017243Y0020900D02*
Y0020113D01*
X0017234Y0020900D02*
Y0020113D01*
X0017225Y0020900D02*
Y0020113D01*
X0017216Y0020900D02*
Y0020113D01*
X0017207Y0020900D02*
Y0020113D01*
X0017198Y0020900D02*
Y0020113D01*
X0017189Y0020900D02*
Y0020113D01*
X0017180Y0020900D02*
Y0020113D01*
X0017171Y0020900D02*
Y0020113D01*
X0017162Y0020900D02*
Y0020113D01*
X0017153Y0020900D02*
Y0020113D01*
X0017144Y0020900D02*
Y0020113D01*
X0017135Y0020900D02*
Y0020113D01*
X0017126Y0020900D02*
Y0020113D01*
X0017117Y0020900D02*
Y0020113D01*
X0017108Y0020900D02*
Y0020113D01*
X0017099Y0020900D02*
Y0020113D01*
X0017090Y0020900D02*
Y0020113D01*
X0017081Y0020900D02*
Y0020113D01*
X0017072Y0020900D02*
Y0020113D01*
X0017063Y0020900D02*
Y0020113D01*
X0017054Y0020900D02*
Y0020113D01*
X0017045Y0020900D02*
Y0020113D01*
X0017036Y0020900D02*
Y0020113D01*
X0017027Y0020900D02*
Y0020113D01*
X0017018Y0020900D02*
Y0020113D01*
X0017009Y0020900D02*
Y0020113D01*
X0017000Y0020900D02*
Y0020113D01*
X0016991Y0020900D02*
Y0020113D01*
X0016982Y0020900D02*
Y0020113D01*
X0016973Y0020900D02*
Y0020113D01*
X0016964Y0020900D02*
Y0020113D01*
X0016955Y0020900D02*
Y0020113D01*
X0016946Y0020900D02*
Y0020113D01*
X0016937Y0020900D02*
Y0020113D01*
X0016928Y0020900D02*
Y0020113D01*
X0016919Y0020900D02*
Y0020113D01*
X0016910Y0020900D02*
Y0020113D01*
X0016901Y0020900D02*
Y0020113D01*
X0016892Y0020900D02*
Y0020113D01*
X0016883Y0020900D02*
Y0020113D01*
X0016874Y0020900D02*
Y0020113D01*
X0016865Y0020900D02*
Y0020113D01*
X0016856Y0020900D02*
Y0020113D01*
X0016847Y0020900D02*
Y0020113D01*
X0016838Y0020900D02*
Y0020113D01*
X0016829Y0020900D02*
Y0020113D01*
X0016820Y0020900D02*
Y0020113D01*
X0016811Y0020900D02*
Y0020113D01*
X0016802Y0020900D02*
Y0020113D01*
X0016793Y0020900D02*
Y0020113D01*
X0016784Y0020900D02*
Y0020113D01*
X0016775Y0020900D02*
Y0020113D01*
X0016766Y0020900D02*
Y0020113D01*
X0016757Y0020900D02*
Y0020113D01*
X0016748Y0020900D02*
Y0020113D01*
X0016739Y0020900D02*
Y0020113D01*
X0016730Y0020900D02*
Y0020113D01*
X0016721Y0020900D02*
Y0020113D01*
X0016712Y0020900D02*
Y0020113D01*
X0016703Y0020900D02*
Y0020113D01*
X0016694Y0020900D02*
Y0020113D01*
X0016685Y0020900D02*
Y0020113D01*
X0016676Y0020900D02*
Y0020113D01*
X0016667Y0020900D02*
Y0020113D01*
X0016658Y0020900D02*
Y0020113D01*
X0016649Y0020900D02*
Y0020113D01*
X0016640Y0020900D02*
Y0020113D01*
X0016631Y0020900D02*
Y0020113D01*
X0016622Y0020900D02*
Y0020113D01*
X0016613Y0020900D02*
Y0020113D01*
X0016604Y0020900D02*
Y0020113D01*
X0016595Y0020900D02*
Y0020113D01*
X0016586Y0020900D02*
Y0020113D01*
X0016577Y0020900D02*
Y0020113D01*
X0016568Y0020900D02*
Y0020113D01*
X0016559Y0020900D02*
Y0020113D01*
X0016550Y0020900D02*
Y0020113D01*
X0016541Y0020900D02*
Y0020113D01*
X0016532Y0020900D02*
Y0020113D01*
X0016523Y0020900D02*
Y0020113D01*
X0016514Y0020900D02*
Y0020113D01*
X0016505Y0020900D02*
Y0020113D01*
X0016496Y0020900D02*
Y0020113D01*
X0016487Y0020900D02*
Y0020113D01*
X0016478Y0020900D02*
Y0020113D01*
X0016469Y0020900D02*
Y0020113D01*
X0016460Y0020900D02*
Y0020113D01*
X0016451Y0020900D02*
Y0020113D01*
X0016442Y0020900D02*
Y0020113D01*
X0016433Y0020900D02*
Y0020113D01*
X0016424Y0020900D02*
Y0020113D01*
X0016415Y0020900D02*
Y0020113D01*
X0016406Y0020900D02*
Y0020113D01*
X0016397Y0020900D02*
Y0020113D01*
X0016388Y0020900D02*
Y0020113D01*
X0016379Y0020900D02*
Y0020113D01*
X0016370Y0020900D02*
Y0020113D01*
X0016361Y0020900D02*
Y0020113D01*
X0016352Y0020900D02*
Y0020113D01*
X0016343Y0020900D02*
Y0020113D01*
X0016334Y0020900D02*
Y0020113D01*
X0016325Y0020900D02*
Y0020113D01*
X0016316Y0020900D02*
Y0020113D01*
X0016307Y0020900D02*
Y0020113D01*
X0016298Y0020900D02*
Y0020113D01*
X0016289Y0020900D02*
Y0020113D01*
X0016280Y0020900D02*
Y0020113D01*
X0016271Y0020900D02*
Y0020113D01*
X0016262Y0020900D02*
Y0020113D01*
X0016253Y0020900D02*
Y0020113D01*
X0016244Y0020900D02*
Y0020113D01*
X0016235Y0020900D02*
Y0020113D01*
X0016226Y0020900D02*
Y0020113D01*
X0016217Y0020900D02*
Y0020113D01*
X0016208Y0020900D02*
Y0020113D01*
X0016199Y0020900D02*
Y0020113D01*
X0016190Y0020900D02*
Y0020113D01*
X0016181Y0020900D02*
Y0020113D01*
X0016172Y0020900D02*
Y0020113D01*
X0016163Y0020900D02*
Y0020113D01*
X0016154Y0020900D02*
Y0020113D01*
X0016145Y0020900D02*
Y0020113D01*
X0016136Y0020900D02*
Y0020113D01*
X0016127Y0020900D02*
Y0020113D01*
X0016118Y0020900D02*
Y0020113D01*
X0016109Y0020900D02*
Y0020113D01*
X0016100Y0020900D02*
Y0020113D01*
X0016091Y0020900D02*
Y0020113D01*
X0016082Y0020900D02*
Y0020113D01*
X0016073Y0020900D02*
Y0020113D01*
X0016064Y0020900D02*
Y0020113D01*
X0016055Y0020900D02*
Y0020113D01*
X0016046Y0020900D02*
Y0020113D01*
X0016037Y0020900D02*
Y0020113D01*
X0016028Y0020900D02*
Y0020113D01*
X0016019Y0020900D02*
Y0020113D01*
X0016010Y0020900D02*
Y0020113D01*
X0016001Y0020900D02*
Y0020113D01*
X0015992Y0020900D02*
Y0020113D01*
X0015983Y0020900D02*
Y0020113D01*
X0015974Y0020900D02*
Y0020113D01*
X0015965Y0020900D02*
Y0020113D01*
X0015956Y0020900D02*
Y0020113D01*
X0015947Y0020900D02*
Y0020113D01*
X0015938Y0020900D02*
Y0020113D01*
X0015929Y0020900D02*
Y0020113D01*
X0015920Y0020900D02*
Y0020113D01*
X0015911Y0020900D02*
Y0020113D01*
X0015902Y0020900D02*
Y0020113D01*
X0015893Y0020900D02*
Y0020113D01*
X0015884Y0020900D02*
Y0020113D01*
X0015875Y0020900D02*
Y0020113D01*
X0015866Y0020900D02*
Y0020113D01*
X0015857Y0020900D02*
Y0020113D01*
X0015848Y0020900D02*
Y0020113D01*
X0015839Y0020900D02*
Y0020113D01*
X0015830Y0020900D02*
Y0020113D01*
X0015821Y0020900D02*
Y0020113D01*
X0015812Y0020900D02*
Y0020113D01*
X0015803Y0020900D02*
Y0020113D01*
X0015794Y0020900D02*
Y0020113D01*
X0015785Y0020900D02*
Y0020113D01*
X0015776Y0020900D02*
Y0020113D01*
X0015767Y0020900D02*
Y0020113D01*
X0015758Y0020900D02*
Y0020113D01*
X0015749Y0020900D02*
Y0020113D01*
X0015740Y0020900D02*
Y0020113D01*
X0015731Y0020900D02*
Y0020113D01*
X0015722Y0020900D02*
Y0020113D01*
X0015713Y0020900D02*
Y0020113D01*
X0015704Y0020900D02*
Y0020113D01*
X0015695Y0020900D02*
Y0020113D01*
X0015686Y0020900D02*
Y0020113D01*
X0015677Y0020900D02*
Y0020113D01*
X0015668Y0020900D02*
Y0020113D01*
X0015659Y0020900D02*
Y0020113D01*
X0015650Y0020900D02*
Y0020113D01*
X0015641Y0020900D02*
Y0020113D01*
X0015632Y0020900D02*
Y0020113D01*
X0015623Y0020900D02*
Y0020113D01*
X0015614Y0020900D02*
Y0020113D01*
X0015605Y0020900D02*
Y0020113D01*
X0015596Y0020900D02*
Y0020113D01*
X0015587Y0020900D02*
Y0020113D01*
X0015578Y0020900D02*
Y0020113D01*
X0015569Y0020900D02*
Y0020113D01*
X0015560Y0020900D02*
Y0020113D01*
X0015551Y0020900D02*
Y0020113D01*
X0015542Y0020900D02*
Y0020113D01*
X0015533Y0020900D02*
Y0020113D01*
X0015524Y0020900D02*
Y0020113D01*
X0015515Y0020900D02*
Y0020113D01*
X0015506Y0020900D02*
Y0020113D01*
X0015497Y0020900D02*
Y0020113D01*
X0015488Y0020900D02*
Y0020113D01*
X0015479Y0020900D02*
Y0020113D01*
X0015470Y0020900D02*
Y0020113D01*
X0015461Y0020900D02*
Y0020113D01*
X0015452Y0020900D02*
Y0020113D01*
X0015443Y0020900D02*
Y0020113D01*
X0015434Y0020900D02*
Y0020113D01*
X0015425Y0020900D02*
Y0020113D01*
X0015416Y0020900D02*
Y0020113D01*
X0015407Y0020900D02*
Y0020113D01*
X0015398Y0020900D02*
Y0020113D01*
X0019715Y0020891D02*
X0015385D01*
X0019715Y0020882D02*
X0015385D01*
X0019715Y0020873D02*
X0015385D01*
X0019715Y0020864D02*
X0015385D01*
X0019715Y0020855D02*
X0015385D01*
X0019715Y0020846D02*
X0015385D01*
X0019715Y0020837D02*
X0015385D01*
X0019715Y0020828D02*
X0015385D01*
X0019715Y0020819D02*
X0015385D01*
X0019715Y0020810D02*
X0015385D01*
X0019715Y0020801D02*
X0015385D01*
X0019715Y0020792D02*
X0015385D01*
X0019715Y0020783D02*
X0015385D01*
X0019715Y0020774D02*
X0015385D01*
X0019715Y0020765D02*
X0015385D01*
X0019715Y0020756D02*
X0015385D01*
X0019715Y0020747D02*
X0015385D01*
X0019715Y0020738D02*
X0015385D01*
X0019715Y0020729D02*
X0015385D01*
X0019715Y0020720D02*
X0015385D01*
X0019715Y0020711D02*
X0015385D01*
X0019715Y0020702D02*
X0015385D01*
X0019715Y0020693D02*
X0015385D01*
X0019715Y0020684D02*
X0015385D01*
X0019715Y0020675D02*
X0015385D01*
X0019715Y0020666D02*
X0015385D01*
X0019715Y0020657D02*
X0015385D01*
X0019715Y0020648D02*
X0015385D01*
X0019715Y0020639D02*
X0015385D01*
X0019715Y0020630D02*
X0015385D01*
X0019715Y0020621D02*
X0015385D01*
X0019715Y0020612D02*
X0015385D01*
X0019715Y0020603D02*
X0015385D01*
X0019715Y0020594D02*
X0015385D01*
X0019715Y0020585D02*
X0015385D01*
X0019715Y0020576D02*
X0015385D01*
X0019715Y0020567D02*
X0015385D01*
X0019715Y0020558D02*
X0015385D01*
X0019715Y0020549D02*
X0015385D01*
X0019715Y0020540D02*
X0015385D01*
X0019715Y0020531D02*
X0015385D01*
X0019715Y0020522D02*
X0015385D01*
X0019715Y0020513D02*
X0015385D01*
X0019715Y0020504D02*
X0015385D01*
X0019715Y0020495D02*
X0015385D01*
X0019715Y0020486D02*
X0015385D01*
X0019715Y0020477D02*
X0015385D01*
X0019715Y0020468D02*
X0015385D01*
X0019715Y0020459D02*
X0015385D01*
X0019715Y0020450D02*
X0015385D01*
X0019715Y0020441D02*
X0015385D01*
X0019715Y0020432D02*
X0015385D01*
X0019715Y0020423D02*
X0015385D01*
X0019715Y0020414D02*
X0015385D01*
X0019715Y0020405D02*
X0015385D01*
X0019715Y0020396D02*
X0015385D01*
X0019715Y0020387D02*
X0015385D01*
X0019715Y0020378D02*
X0015385D01*
X0019715Y0020369D02*
X0015385D01*
X0019715Y0020360D02*
X0015385D01*
X0019715Y0020351D02*
X0015385D01*
X0019715Y0020342D02*
X0015385D01*
X0019715Y0020333D02*
X0015385D01*
X0019715Y0020324D02*
X0015385D01*
X0019715Y0020315D02*
X0015385D01*
X0019715Y0020306D02*
X0015385D01*
X0019715Y0020297D02*
X0015385D01*
X0019715Y0020288D02*
X0015385D01*
X0019715Y0020279D02*
X0015385D01*
X0019715Y0020270D02*
X0015385D01*
X0019715Y0020261D02*
X0015385D01*
X0019715Y0020252D02*
X0015385D01*
X0019715Y0020243D02*
X0015385D01*
X0019715Y0020234D02*
X0015385D01*
X0019715Y0020225D02*
X0015385D01*
X0019715Y0020216D02*
X0015385D01*
X0019715Y0020207D02*
X0015385D01*
X0019715Y0020198D02*
X0015385D01*
X0019715Y0020189D02*
X0015385D01*
X0019715Y0020180D02*
X0015385D01*
X0019715Y0020171D02*
X0015385D01*
X0019715Y0020162D02*
X0015385D01*
X0019715Y0020153D02*
X0015385D01*
X0019715Y0020144D02*
X0015385D01*
X0019715Y0020135D02*
X0015385D01*
X0019715Y0020126D02*
X0015385D01*
X0016400Y0002828D02*
X0015613D01*
X0016400Y0006371D02*
Y0002828D01*
Y0006371D02*
X0015613D01*
Y0002828D01*
X0016391Y0006371D02*
Y0002828D01*
X0016382Y0006371D02*
Y0002828D01*
X0016373Y0006371D02*
Y0002828D01*
X0016364Y0006371D02*
Y0002828D01*
X0016355Y0006371D02*
Y0002828D01*
X0016346Y0006371D02*
Y0002828D01*
X0016337Y0006371D02*
Y0002828D01*
X0016328Y0006371D02*
Y0002828D01*
X0016319Y0006371D02*
Y0002828D01*
X0016310Y0006371D02*
Y0002828D01*
X0016301Y0006371D02*
Y0002828D01*
X0016292Y0006371D02*
Y0002828D01*
X0016283Y0006371D02*
Y0002828D01*
X0016274Y0006371D02*
Y0002828D01*
X0016265Y0006371D02*
Y0002828D01*
X0016256Y0006371D02*
Y0002828D01*
X0016247Y0006371D02*
Y0002828D01*
X0016238Y0006371D02*
Y0002828D01*
X0016229Y0006371D02*
Y0002828D01*
X0016220Y0006371D02*
Y0002828D01*
X0016211Y0006371D02*
Y0002828D01*
X0016202Y0006371D02*
Y0002828D01*
X0016193Y0006371D02*
Y0002828D01*
X0016184Y0006371D02*
Y0002828D01*
X0016175Y0006371D02*
Y0002828D01*
X0016166Y0006371D02*
Y0002828D01*
X0016157Y0006371D02*
Y0002828D01*
X0016148Y0006371D02*
Y0002828D01*
X0016139Y0006371D02*
Y0002828D01*
X0016130Y0006371D02*
Y0002828D01*
X0016121Y0006371D02*
Y0002828D01*
X0016112Y0006371D02*
Y0002828D01*
X0016103Y0006371D02*
Y0002828D01*
X0016094Y0006371D02*
Y0002828D01*
X0016085Y0006371D02*
Y0002828D01*
X0016076Y0006371D02*
Y0002828D01*
X0016067Y0006371D02*
Y0002828D01*
X0016058Y0006371D02*
Y0002828D01*
X0016049Y0006371D02*
Y0002828D01*
X0016040Y0006371D02*
Y0002828D01*
X0016031Y0006371D02*
Y0002828D01*
X0016022Y0006371D02*
Y0002828D01*
X0016013Y0006371D02*
Y0002828D01*
X0016004Y0006371D02*
Y0002828D01*
X0015995Y0006371D02*
Y0002828D01*
X0015986Y0006371D02*
Y0002828D01*
X0015977Y0006371D02*
Y0002828D01*
X0015968Y0006371D02*
Y0002828D01*
X0015959Y0006371D02*
Y0002828D01*
X0015950Y0006371D02*
Y0002828D01*
X0015941Y0006371D02*
Y0002828D01*
X0015932Y0006371D02*
Y0002828D01*
X0015923Y0006371D02*
Y0002828D01*
X0015914Y0006371D02*
Y0002828D01*
X0015905Y0006371D02*
Y0002828D01*
X0015896Y0006371D02*
Y0002828D01*
X0015887Y0006371D02*
Y0002828D01*
X0015878Y0006371D02*
Y0002828D01*
X0015869Y0006371D02*
Y0002828D01*
X0015860Y0006371D02*
Y0002828D01*
X0015851Y0006371D02*
Y0002828D01*
X0015842Y0006371D02*
Y0002828D01*
X0015833Y0006371D02*
Y0002828D01*
X0015824Y0006371D02*
Y0002828D01*
X0015815Y0006371D02*
Y0002828D01*
X0015806Y0006371D02*
Y0002828D01*
X0015797Y0006371D02*
Y0002828D01*
X0015788Y0006371D02*
Y0002828D01*
X0015779Y0006371D02*
Y0002828D01*
X0015770Y0006371D02*
Y0002828D01*
X0015761Y0006371D02*
Y0002828D01*
X0015752Y0006371D02*
Y0002828D01*
X0015743Y0006371D02*
Y0002828D01*
X0015734Y0006371D02*
Y0002828D01*
X0015725Y0006371D02*
Y0002828D01*
X0015716Y0006371D02*
Y0002828D01*
X0015707Y0006371D02*
Y0002828D01*
X0015698Y0006371D02*
Y0002828D01*
X0015689Y0006371D02*
Y0002828D01*
X0015680Y0006371D02*
Y0002828D01*
X0015671Y0006371D02*
Y0002828D01*
X0015662Y0006371D02*
Y0002828D01*
X0015653Y0006371D02*
Y0002828D01*
X0015644Y0006371D02*
Y0002828D01*
X0015635Y0006371D02*
Y0002828D01*
X0015626Y0006371D02*
Y0002828D01*
X0016400Y0006360D02*
X0015613D01*
X0016400Y0006351D02*
X0015613D01*
X0016400Y0006342D02*
X0015613D01*
X0016400Y0006333D02*
X0015613D01*
X0016400Y0006324D02*
X0015613D01*
X0016400Y0006315D02*
X0015613D01*
X0016400Y0006306D02*
X0015613D01*
X0016400Y0006297D02*
X0015613D01*
X0016400Y0006288D02*
X0015613D01*
X0016400Y0006279D02*
X0015613D01*
X0016400Y0006270D02*
X0015613D01*
X0016400Y0006261D02*
X0015613D01*
X0016400Y0006252D02*
X0015613D01*
X0016400Y0006243D02*
X0015613D01*
X0016400Y0006234D02*
X0015613D01*
X0016400Y0006225D02*
X0015613D01*
X0016400Y0006216D02*
X0015613D01*
X0016400Y0006207D02*
X0015613D01*
X0016400Y0006198D02*
X0015613D01*
X0016400Y0006189D02*
X0015613D01*
X0016400Y0006180D02*
X0015613D01*
X0016400Y0006171D02*
X0015613D01*
X0016400Y0006162D02*
X0015613D01*
X0016400Y0006153D02*
X0015613D01*
X0016400Y0006144D02*
X0015613D01*
X0016400Y0006135D02*
X0015613D01*
X0016400Y0006126D02*
X0015613D01*
X0016400Y0006117D02*
X0015613D01*
X0016400Y0006108D02*
X0015613D01*
X0016400Y0006099D02*
X0015613D01*
X0016400Y0006090D02*
X0015613D01*
X0016400Y0006081D02*
X0015613D01*
X0016400Y0006072D02*
X0015613D01*
X0016400Y0006063D02*
X0015613D01*
X0016400Y0006054D02*
X0015613D01*
X0016400Y0006045D02*
X0015613D01*
X0016400Y0006036D02*
X0015613D01*
X0016400Y0006027D02*
X0015613D01*
X0016400Y0006018D02*
X0015613D01*
X0016400Y0006009D02*
X0015613D01*
X0016400Y0006000D02*
X0015613D01*
X0016400Y0005991D02*
X0015613D01*
X0016400Y0005982D02*
X0015613D01*
X0016400Y0005973D02*
X0015613D01*
X0016400Y0005964D02*
X0015613D01*
X0016400Y0005955D02*
X0015613D01*
X0016400Y0005946D02*
X0015613D01*
X0016400Y0005937D02*
X0015613D01*
X0016400Y0005928D02*
X0015613D01*
X0016400Y0005919D02*
X0015613D01*
X0016400Y0005910D02*
X0015613D01*
X0016400Y0005901D02*
X0015613D01*
X0016400Y0005892D02*
X0015613D01*
X0016400Y0005883D02*
X0015613D01*
X0016400Y0005874D02*
X0015613D01*
X0016400Y0005865D02*
X0015613D01*
X0016400Y0005856D02*
X0015613D01*
X0016400Y0005847D02*
X0015613D01*
X0016400Y0005838D02*
X0015613D01*
X0016400Y0005829D02*
X0015613D01*
X0016400Y0005820D02*
X0015613D01*
X0016400Y0005811D02*
X0015613D01*
X0016400Y0005802D02*
X0015613D01*
X0016400Y0005793D02*
X0015613D01*
X0016400Y0005784D02*
X0015613D01*
X0016400Y0005775D02*
X0015613D01*
X0016400Y0005766D02*
X0015613D01*
X0016400Y0005757D02*
X0015613D01*
X0016400Y0005748D02*
X0015613D01*
X0016400Y0005739D02*
X0015613D01*
X0016400Y0005730D02*
X0015613D01*
X0016400Y0005721D02*
X0015613D01*
X0016400Y0005712D02*
X0015613D01*
X0016400Y0005703D02*
X0015613D01*
X0016400Y0005694D02*
X0015613D01*
X0016400Y0005685D02*
X0015613D01*
X0016400Y0005676D02*
X0015613D01*
X0016400Y0005667D02*
X0015613D01*
X0016400Y0005658D02*
X0015613D01*
X0016400Y0005649D02*
X0015613D01*
X0016400Y0005640D02*
X0015613D01*
X0016400Y0005631D02*
X0015613D01*
X0016400Y0005622D02*
X0015613D01*
X0016400Y0005613D02*
X0015613D01*
X0016400Y0005604D02*
X0015613D01*
X0016400Y0005595D02*
X0015613D01*
X0016400Y0005586D02*
X0015613D01*
X0016400Y0005577D02*
X0015613D01*
X0016400Y0005568D02*
X0015613D01*
X0016400Y0005559D02*
X0015613D01*
X0016400Y0005550D02*
X0015613D01*
X0016400Y0005541D02*
X0015613D01*
X0016400Y0005532D02*
X0015613D01*
X0016400Y0005523D02*
X0015613D01*
X0016400Y0005514D02*
X0015613D01*
X0016400Y0005505D02*
X0015613D01*
X0016400Y0005496D02*
X0015613D01*
X0016400Y0005487D02*
X0015613D01*
X0016400Y0005478D02*
X0015613D01*
X0016400Y0005469D02*
X0015613D01*
X0016400Y0005460D02*
X0015613D01*
X0016400Y0005451D02*
X0015613D01*
X0016400Y0005442D02*
X0015613D01*
X0016400Y0005433D02*
X0015613D01*
X0016400Y0005424D02*
X0015613D01*
X0016400Y0005415D02*
X0015613D01*
X0016400Y0005406D02*
X0015613D01*
X0016400Y0005397D02*
X0015613D01*
X0016400Y0005388D02*
X0015613D01*
X0016400Y0005379D02*
X0015613D01*
X0016400Y0005370D02*
X0015613D01*
X0016400Y0005361D02*
X0015613D01*
X0016400Y0005352D02*
X0015613D01*
X0016400Y0005343D02*
X0015613D01*
X0016400Y0005334D02*
X0015613D01*
X0016400Y0005325D02*
X0015613D01*
X0016400Y0005316D02*
X0015613D01*
X0016400Y0005307D02*
X0015613D01*
X0016400Y0005298D02*
X0015613D01*
X0016400Y0005289D02*
X0015613D01*
X0016400Y0005280D02*
X0015613D01*
X0016400Y0005271D02*
X0015613D01*
X0016400Y0005262D02*
X0015613D01*
X0016400Y0005253D02*
X0015613D01*
X0016400Y0005244D02*
X0015613D01*
X0016400Y0005235D02*
X0015613D01*
X0016400Y0005226D02*
X0015613D01*
X0016400Y0005217D02*
X0015613D01*
X0016400Y0005208D02*
X0015613D01*
X0016400Y0005199D02*
X0015613D01*
X0016400Y0005190D02*
X0015613D01*
X0016400Y0005181D02*
X0015613D01*
X0016400Y0005172D02*
X0015613D01*
X0016400Y0005163D02*
X0015613D01*
X0016400Y0005154D02*
X0015613D01*
X0016400Y0005145D02*
X0015613D01*
X0016400Y0005136D02*
X0015613D01*
X0016400Y0005127D02*
X0015613D01*
X0016400Y0005118D02*
X0015613D01*
X0016400Y0005109D02*
X0015613D01*
X0016400Y0005100D02*
X0015613D01*
X0016400Y0005091D02*
X0015613D01*
X0016400Y0005082D02*
X0015613D01*
X0016400Y0005073D02*
X0015613D01*
X0016400Y0005064D02*
X0015613D01*
X0016400Y0005055D02*
X0015613D01*
X0016400Y0005046D02*
X0015613D01*
X0016400Y0005037D02*
X0015613D01*
X0016400Y0005028D02*
X0015613D01*
X0016400Y0005019D02*
X0015613D01*
X0016400Y0005010D02*
X0015613D01*
X0016400Y0005001D02*
X0015613D01*
X0016400Y0004992D02*
X0015613D01*
X0016400Y0004983D02*
X0015613D01*
X0016400Y0004974D02*
X0015613D01*
X0016400Y0004965D02*
X0015613D01*
X0016400Y0004956D02*
X0015613D01*
X0016400Y0004947D02*
X0015613D01*
X0016400Y0004938D02*
X0015613D01*
X0016400Y0004929D02*
X0015613D01*
X0016400Y0004920D02*
X0015613D01*
X0016400Y0004911D02*
X0015613D01*
X0016400Y0004902D02*
X0015613D01*
X0016400Y0004893D02*
X0015613D01*
X0016400Y0004884D02*
X0015613D01*
X0016400Y0004875D02*
X0015613D01*
X0016400Y0004866D02*
X0015613D01*
X0016400Y0004857D02*
X0015613D01*
X0016400Y0004848D02*
X0015613D01*
X0016400Y0004839D02*
X0015613D01*
X0016400Y0004830D02*
X0015613D01*
X0016400Y0004821D02*
X0015613D01*
X0016400Y0004812D02*
X0015613D01*
X0016400Y0004803D02*
X0015613D01*
X0016400Y0004794D02*
X0015613D01*
X0016400Y0004785D02*
X0015613D01*
X0016400Y0004776D02*
X0015613D01*
X0016400Y0004767D02*
X0015613D01*
X0016400Y0004758D02*
X0015613D01*
X0016400Y0004749D02*
X0015613D01*
X0016400Y0004740D02*
X0015613D01*
X0016400Y0004731D02*
X0015613D01*
X0016400Y0004722D02*
X0015613D01*
X0016400Y0004713D02*
X0015613D01*
X0016400Y0004704D02*
X0015613D01*
X0016400Y0004695D02*
X0015613D01*
X0016400Y0004686D02*
X0015613D01*
X0016400Y0004677D02*
X0015613D01*
X0016400Y0004668D02*
X0015613D01*
X0016400Y0004659D02*
X0015613D01*
X0016400Y0004650D02*
X0015613D01*
X0016400Y0004641D02*
X0015613D01*
X0016400Y0004632D02*
X0015613D01*
X0016400Y0004623D02*
X0015613D01*
X0016400Y0004614D02*
X0015613D01*
X0016400Y0004605D02*
X0015613D01*
X0016400Y0004596D02*
X0015613D01*
X0016400Y0004587D02*
X0015613D01*
X0016400Y0004578D02*
X0015613D01*
X0016400Y0004569D02*
X0015613D01*
X0016400Y0004560D02*
X0015613D01*
X0016400Y0004551D02*
X0015613D01*
X0016400Y0004542D02*
X0015613D01*
X0016400Y0004533D02*
X0015613D01*
X0016400Y0004524D02*
X0015613D01*
X0016400Y0004515D02*
X0015613D01*
X0016400Y0004506D02*
X0015613D01*
X0016400Y0004497D02*
X0015613D01*
X0016400Y0004488D02*
X0015613D01*
X0016400Y0004479D02*
X0015613D01*
X0016400Y0004470D02*
X0015613D01*
X0016400Y0004461D02*
X0015613D01*
X0016400Y0004452D02*
X0015613D01*
X0016400Y0004443D02*
X0015613D01*
X0016400Y0004434D02*
X0015613D01*
X0016400Y0004425D02*
X0015613D01*
X0016400Y0004416D02*
X0015613D01*
X0016400Y0004407D02*
X0015613D01*
X0016400Y0004398D02*
X0015613D01*
X0016400Y0004389D02*
X0015613D01*
X0016400Y0004380D02*
X0015613D01*
X0016400Y0004371D02*
X0015613D01*
X0016400Y0004362D02*
X0015613D01*
X0016400Y0004353D02*
X0015613D01*
X0016400Y0004344D02*
X0015613D01*
X0016400Y0004335D02*
X0015613D01*
X0016400Y0004326D02*
X0015613D01*
X0016400Y0004317D02*
X0015613D01*
X0016400Y0004308D02*
X0015613D01*
X0016400Y0004299D02*
X0015613D01*
X0016400Y0004290D02*
X0015613D01*
X0016400Y0004281D02*
X0015613D01*
X0016400Y0004272D02*
X0015613D01*
X0016400Y0004263D02*
X0015613D01*
X0016400Y0004254D02*
X0015613D01*
X0016400Y0004245D02*
X0015613D01*
X0016400Y0004236D02*
X0015613D01*
X0016400Y0004227D02*
X0015613D01*
X0016400Y0004218D02*
X0015613D01*
X0016400Y0004209D02*
X0015613D01*
X0016400Y0004200D02*
X0015613D01*
X0016400Y0004191D02*
X0015613D01*
X0016400Y0004182D02*
X0015613D01*
X0016400Y0004173D02*
X0015613D01*
X0016400Y0004164D02*
X0015613D01*
X0016400Y0004155D02*
X0015613D01*
X0016400Y0004146D02*
X0015613D01*
X0016400Y0004137D02*
X0015613D01*
X0016400Y0004128D02*
X0015613D01*
X0016400Y0004119D02*
X0015613D01*
X0016400Y0004110D02*
X0015613D01*
X0016400Y0004101D02*
X0015613D01*
X0016400Y0004092D02*
X0015613D01*
X0016400Y0004083D02*
X0015613D01*
X0016400Y0004074D02*
X0015613D01*
X0016400Y0004065D02*
X0015613D01*
X0016400Y0004056D02*
X0015613D01*
X0016400Y0004047D02*
X0015613D01*
X0016400Y0004038D02*
X0015613D01*
X0016400Y0004029D02*
X0015613D01*
X0016400Y0004020D02*
X0015613D01*
X0016400Y0004011D02*
X0015613D01*
X0016400Y0004002D02*
X0015613D01*
X0016400Y0003993D02*
X0015613D01*
X0016400Y0003984D02*
X0015613D01*
X0016400Y0003975D02*
X0015613D01*
X0016400Y0003966D02*
X0015613D01*
X0016400Y0003957D02*
X0015613D01*
X0016400Y0003948D02*
X0015613D01*
X0016400Y0003939D02*
X0015613D01*
X0016400Y0003930D02*
X0015613D01*
X0016400Y0003921D02*
X0015613D01*
X0016400Y0003912D02*
X0015613D01*
X0016400Y0003903D02*
X0015613D01*
X0016400Y0003894D02*
X0015613D01*
X0016400Y0003885D02*
X0015613D01*
X0016400Y0003876D02*
X0015613D01*
X0016400Y0003867D02*
X0015613D01*
X0016400Y0003858D02*
X0015613D01*
X0016400Y0003849D02*
X0015613D01*
X0016400Y0003840D02*
X0015613D01*
X0016400Y0003831D02*
X0015613D01*
X0016400Y0003822D02*
X0015613D01*
X0016400Y0003813D02*
X0015613D01*
X0016400Y0003804D02*
X0015613D01*
X0016400Y0003795D02*
X0015613D01*
X0016400Y0003786D02*
X0015613D01*
X0016400Y0003777D02*
X0015613D01*
X0016400Y0003768D02*
X0015613D01*
X0016400Y0003759D02*
X0015613D01*
X0016400Y0003750D02*
X0015613D01*
X0016400Y0003741D02*
X0015613D01*
X0016400Y0003732D02*
X0015613D01*
X0016400Y0003723D02*
X0015613D01*
X0016400Y0003714D02*
X0015613D01*
X0016400Y0003705D02*
X0015613D01*
X0016400Y0003696D02*
X0015613D01*
X0016400Y0003687D02*
X0015613D01*
X0016400Y0003678D02*
X0015613D01*
X0016400Y0003669D02*
X0015613D01*
X0016400Y0003660D02*
X0015613D01*
X0016400Y0003651D02*
X0015613D01*
X0016400Y0003642D02*
X0015613D01*
X0016400Y0003633D02*
X0015613D01*
X0016400Y0003624D02*
X0015613D01*
X0016400Y0003615D02*
X0015613D01*
X0016400Y0003606D02*
X0015613D01*
X0016400Y0003597D02*
X0015613D01*
X0016400Y0003588D02*
X0015613D01*
X0016400Y0003579D02*
X0015613D01*
X0016400Y0003570D02*
X0015613D01*
X0016400Y0003561D02*
X0015613D01*
X0016400Y0003552D02*
X0015613D01*
X0016400Y0003543D02*
X0015613D01*
X0016400Y0003534D02*
X0015613D01*
X0016400Y0003525D02*
X0015613D01*
X0016400Y0003516D02*
X0015613D01*
X0016400Y0003507D02*
X0015613D01*
X0016400Y0003498D02*
X0015613D01*
X0016400Y0003489D02*
X0015613D01*
X0016400Y0003480D02*
X0015613D01*
X0016400Y0003471D02*
X0015613D01*
X0016400Y0003462D02*
X0015613D01*
X0016400Y0003453D02*
X0015613D01*
X0016400Y0003444D02*
X0015613D01*
X0016400Y0003435D02*
X0015613D01*
X0016400Y0003426D02*
X0015613D01*
X0016400Y0003417D02*
X0015613D01*
X0016400Y0003408D02*
X0015613D01*
X0016400Y0003399D02*
X0015613D01*
X0016400Y0003390D02*
X0015613D01*
X0016400Y0003381D02*
X0015613D01*
X0016400Y0003372D02*
X0015613D01*
X0016400Y0003363D02*
X0015613D01*
X0016400Y0003354D02*
X0015613D01*
X0016400Y0003345D02*
X0015613D01*
X0016400Y0003336D02*
X0015613D01*
X0016400Y0003327D02*
X0015613D01*
X0016400Y0003318D02*
X0015613D01*
X0016400Y0003309D02*
X0015613D01*
X0016400Y0003300D02*
X0015613D01*
X0016400Y0003291D02*
X0015613D01*
X0016400Y0003282D02*
X0015613D01*
X0016400Y0003273D02*
X0015613D01*
X0016400Y0003264D02*
X0015613D01*
X0016400Y0003255D02*
X0015613D01*
X0016400Y0003246D02*
X0015613D01*
X0016400Y0003237D02*
X0015613D01*
X0016400Y0003228D02*
X0015613D01*
X0016400Y0003219D02*
X0015613D01*
X0016400Y0003210D02*
X0015613D01*
X0016400Y0003201D02*
X0015613D01*
X0016400Y0003192D02*
X0015613D01*
X0016400Y0003183D02*
X0015613D01*
X0016400Y0003174D02*
X0015613D01*
X0016400Y0003165D02*
X0015613D01*
X0016400Y0003156D02*
X0015613D01*
X0016400Y0003147D02*
X0015613D01*
X0016400Y0003138D02*
X0015613D01*
X0016400Y0003129D02*
X0015613D01*
X0016400Y0003120D02*
X0015613D01*
X0016400Y0003111D02*
X0015613D01*
X0016400Y0003102D02*
X0015613D01*
X0016400Y0003093D02*
X0015613D01*
X0016400Y0003084D02*
X0015613D01*
X0016400Y0003075D02*
X0015613D01*
X0016400Y0003066D02*
X0015613D01*
X0016400Y0003057D02*
X0015613D01*
X0016400Y0003048D02*
X0015613D01*
X0016400Y0003039D02*
X0015613D01*
X0016400Y0003030D02*
X0015613D01*
X0016400Y0003021D02*
X0015613D01*
X0016400Y0003012D02*
X0015613D01*
X0016400Y0003003D02*
X0015613D01*
X0016400Y0002994D02*
X0015613D01*
X0016400Y0002985D02*
X0015613D01*
X0016400Y0002976D02*
X0015613D01*
X0016400Y0002967D02*
X0015613D01*
X0016400Y0002958D02*
X0015613D01*
X0016400Y0002949D02*
X0015613D01*
X0016400Y0002940D02*
X0015613D01*
X0016400Y0002931D02*
X0015613D01*
X0016400Y0002922D02*
X0015613D01*
X0016400Y0002913D02*
X0015613D01*
X0016400Y0002904D02*
X0015613D01*
X0016400Y0002895D02*
X0015613D01*
X0016400Y0002886D02*
X0015613D01*
X0016400Y0002877D02*
X0015613D01*
X0016400Y0002868D02*
X0015613D01*
X0016400Y0002859D02*
X0015613D01*
X0016400Y0002850D02*
X0015613D01*
X0016400Y0002841D02*
X0015613D01*
X0033394Y0003019D02*
X0026307D01*
Y0020342D01*
X0033394D01*
Y0003019D01*
G54D89*
G01X0037062Y0022141D02*
X0037090Y0022085D01*
X0037257D01*
X0037284Y0022141D01*
Y0022252D01*
X0037229Y0022307D01*
X0037062D01*
Y0022418D01*
X0037284D01*
X0036720Y0022085D02*
Y0022418D01*
X0036692Y0022085D02*
X0036859D01*
X0036914Y0022141D01*
Y0022196D01*
X0036887Y0022252D01*
X0036720D02*
X0036887D01*
X0036914Y0022307D01*
Y0022363D01*
X0036859Y0022418D01*
X0036692D01*
X0036544Y0022141D02*
X0036517Y0022085D01*
X0036350D01*
X0036322Y0022141D01*
Y0022363D01*
X0036350Y0022418D01*
X0036517D01*
X0036544Y0022363D01*
X0047032Y0023714D02*
Y0023937D01*
X0047255Y0023714D01*
X0047310D01*
X0047366Y0023742D01*
Y0023909D01*
X0047310Y0023937D01*
X0047032Y0024279D02*
X0047366D01*
X0047032Y0024307D02*
Y0024140D01*
X0047088Y0024084D01*
X0047144D01*
X0047199Y0024112D01*
Y0024279D02*
Y0024112D01*
X0047255Y0024084D01*
X0047310D01*
X0047366Y0024140D01*
Y0024307D01*
X0047088Y0024454D02*
X0047032Y0024482D01*
Y0024649D01*
X0047088Y0024677D01*
X0047310D01*
X0047366Y0024649D01*
Y0024482D01*
X0047310Y0024454D01*
X0033450Y0003872D02*
X0033339D01*
X0033394D02*
Y0004206D01*
X0033339Y0004150D01*
X0032941Y0003872D02*
Y0004206D01*
X0032913Y0003872D02*
X0033080D01*
X0033135Y0003928D01*
Y0003984D01*
X0033108Y0004039D01*
X0032941D02*
X0033108D01*
X0033135Y0004095D01*
Y0004150D01*
X0033080Y0004206D01*
X0032913D01*
X0032765Y0003928D02*
X0032738Y0003872D01*
X0032571D01*
X0032543Y0003928D01*
Y0004150D01*
X0032571Y0004206D01*
X0032738D01*
X0032765Y0004150D01*
X0029763Y0003988D02*
X0029819Y0003932D01*
X0029930D01*
X0029985Y0003988D01*
Y0004044D01*
X0029874Y0004155D01*
X0029985Y0004266D01*
X0029763D01*
X0029421Y0003932D02*
Y0004266D01*
X0029393Y0003932D02*
X0029560D01*
X0029615Y0003988D01*
Y0004044D01*
X0029588Y0004099D01*
X0029421D02*
X0029588D01*
X0029615Y0004155D01*
Y0004210D01*
X0029560Y0004266D01*
X0029393D01*
X0029245Y0003988D02*
X0029218Y0003932D01*
X0029051D01*
X0029023Y0003988D01*
Y0004210D01*
X0029051Y0004266D01*
X0029218D01*
X0029245Y0004210D01*
X0040255Y0003594D02*
X0040078D01*
X0040166Y0003771D01*
X0040211D01*
Y0003505D01*
X0039780D02*
Y0003771D01*
X0039758Y0003505D02*
X0039891D01*
X0039935Y0003549D01*
Y0003594D01*
X0039913Y0003638D01*
X0039780D02*
X0039913D01*
X0039935Y0003682D01*
Y0003727D01*
X0039891Y0003771D01*
X0039758D01*
X0039615Y0003549D02*
X0039593Y0003505D01*
X0039460D01*
X0039438Y0003549D01*
Y0003727D01*
X0039460Y0003771D01*
X0039593D01*
X0039615Y0003727D01*
X0037817Y0014519D02*
X0037484Y0014685D01*
Y0014463D01*
X0037817Y0014121D02*
X0037484D01*
X0037817Y0014093D02*
Y0014260D01*
X0037762Y0014315D01*
X0037706D01*
X0037651Y0014288D01*
Y0014121D02*
Y0014288D01*
X0037595Y0014315D01*
X0037540D01*
X0037484Y0014260D01*
Y0014093D01*
X0037762Y0013945D02*
X0037817Y0013918D01*
Y0013751D01*
X0037762Y0013723D01*
X0037540D01*
X0037484Y0013751D01*
Y0013918D01*
X0037540Y0013945D01*
X0040855Y0021262D02*
X0040633D01*
X0040855Y0021485D01*
Y0021540D01*
X0040828Y0021596D01*
X0040661D01*
X0040633Y0021540D01*
X0040402Y0021429D02*
X0040485Y0021262D01*
X0040263Y0021429D02*
X0040430D01*
X0040485Y0021485D01*
Y0021540D01*
X0040430Y0021596D01*
X0040263D01*
Y0021262D01*
X0038517Y0008236D02*
X0038683D01*
X0038711Y0008180D01*
Y0008125D01*
X0038683Y0008069D01*
X0038517D01*
X0038489Y0008125D01*
Y0008180D01*
X0038600Y0008403D01*
X0038147Y0008069D02*
Y0008403D01*
X0038119Y0008069D02*
X0038286D01*
X0038341Y0008125D01*
Y0008180D01*
X0038313Y0008236D01*
X0038147D02*
X0038313D01*
X0038341Y0008291D01*
Y0008347D01*
X0038286Y0008403D01*
X0038119D01*
X0037971Y0008125D02*
X0037943Y0008069D01*
X0037777D01*
X0037749Y0008125D01*
Y0008347D01*
X0037777Y0008403D01*
X0037943D01*
X0037971Y0008347D01*
X0037296Y0016413D02*
X0037240Y0016440D01*
X0037185D01*
X0037129Y0016413D01*
Y0016246D01*
X0037185Y0016218D01*
X0037240D01*
X0037296Y0016246D01*
Y0016413D01*
X0037351Y0016440D01*
X0037407D01*
X0037462Y0016413D01*
Y0016246D01*
X0037407Y0016218D01*
X0037351D01*
X0037296Y0016246D01*
X0037462Y0015876D02*
X0037129D01*
X0037462Y0015848D02*
Y0016015D01*
X0037407Y0016070D01*
X0037351D01*
X0037296Y0016043D01*
Y0015876D02*
Y0016043D01*
X0037240Y0016070D01*
X0037185D01*
X0037129Y0016015D01*
Y0015848D01*
X0037407Y0015700D02*
X0037462Y0015673D01*
Y0015506D01*
X0037407Y0015478D01*
X0037185D01*
X0037129Y0015506D01*
Y0015673D01*
X0037185Y0015700D01*
X0043570Y0021382D02*
X0043459D01*
X0043514D02*
Y0021716D01*
X0043459Y0021660D01*
X0043172Y0021549D02*
X0043255Y0021382D01*
X0043033Y0021549D02*
X0043200D01*
X0043255Y0021605D01*
Y0021660D01*
X0043200Y0021716D01*
X0043033D01*
Y0021382D01*
X0025117Y0010433D02*
X0024784Y0010600D01*
Y0010377D01*
X0025117Y0010230D02*
Y0010119D01*
Y0010174D02*
X0024784D01*
X0024840Y0010119D01*
X0025117Y0009721D02*
X0024784D01*
X0025117Y0009693D02*
Y0009860D01*
X0025062Y0009915D01*
X0025006D01*
X0024951Y0009888D01*
Y0009721D02*
Y0009888D01*
X0024895Y0009915D01*
X0024840D01*
X0024784Y0009860D01*
Y0009693D01*
X0025062Y0009545D02*
X0025117Y0009518D01*
Y0009351D01*
X0025062Y0009323D01*
X0024840D01*
X0024784Y0009351D01*
Y0009518D01*
X0024840Y0009545D01*
X0030685Y0006975D02*
X0030508D01*
X0030685Y0007152D01*
Y0007197D01*
X0030663Y0007241D01*
X0030530D01*
X0030508Y0007197D01*
X0030365Y0007019D02*
X0030343Y0006975D01*
X0030210D01*
X0030188Y0007019D01*
Y0007197D01*
X0030210Y0007241D01*
X0030343D01*
X0030365Y0007197D01*
X0030045Y0006886D02*
X0029868D01*
X0029659Y0007108D02*
X0029725Y0006975D01*
X0029548Y0007108D02*
X0029681D01*
X0029725Y0007152D01*
Y0007197D01*
X0029681Y0007241D01*
X0029548D01*
Y0006975D01*
X0029405Y0007241D02*
Y0007152D01*
X0029316Y0006975D01*
X0029228Y0007152D01*
Y0007241D01*
X0018485Y0007475D02*
X0018308D01*
X0018485Y0007652D01*
Y0007697D01*
X0018463Y0007741D01*
X0018330D01*
X0018308Y0007697D01*
X0018165Y0007564D02*
X0017988D01*
X0018165Y0007475D02*
Y0007608D01*
X0018099Y0007741D01*
X0018054D01*
X0017988Y0007608D01*
Y0007475D01*
X0017690D02*
X0017668Y0007519D01*
Y0007697D01*
X0017690Y0007741D01*
X0017823D01*
X0017845Y0007697D01*
Y0007519D01*
X0017823Y0007475D01*
X0017690D01*
X0017525Y0007697D02*
X0017503Y0007741D01*
X0017370D01*
X0017348Y0007697D01*
Y0007652D01*
X0017370Y0007608D01*
X0017503D01*
X0017525Y0007564D01*
Y0007519D01*
X0017503Y0007475D01*
X0017370D01*
X0017348Y0007519D01*
X0017139Y0007608D02*
X0017205Y0007475D01*
X0017028Y0007608D02*
X0017161D01*
X0017205Y0007652D01*
Y0007697D01*
X0017161Y0007741D01*
X0017028D01*
Y0007475D01*
X0016885Y0007386D02*
X0016708D01*
X0016499Y0007608D02*
X0016565Y0007475D01*
X0016388Y0007608D02*
X0016521D01*
X0016565Y0007652D01*
Y0007697D01*
X0016521Y0007741D01*
X0016388D01*
Y0007475D01*
X0016245Y0007741D02*
Y0007652D01*
X0016156Y0007475D01*
X0016068Y0007652D01*
Y0007741D01*
X0027304Y0019037D02*
Y0019204D01*
X0027360Y0019232D01*
X0027415D01*
X0027471Y0019204D01*
Y0019037D01*
X0027415Y0019009D01*
X0027360D01*
X0027137Y0019121D01*
Y0019574D02*
X0027471D01*
X0027137Y0019602D02*
Y0019435D01*
X0027193Y0019379D01*
X0027249D01*
X0027304Y0019407D01*
Y0019574D02*
Y0019407D01*
X0027360Y0019379D01*
X0027415D01*
X0027471Y0019435D01*
Y0019602D01*
X0027193Y0019749D02*
X0027137Y0019777D01*
Y0019944D01*
X0027193Y0019972D01*
X0027415D01*
X0027471Y0019944D01*
Y0019777D01*
X0027415Y0019749D01*
X0028185Y0005195D02*
X0028008D01*
X0028185Y0005372D01*
Y0005417D01*
X0028163Y0005461D01*
X0028030D01*
X0028008Y0005417D01*
X0027865Y0005239D02*
X0027843Y0005195D01*
X0027710D01*
X0027688Y0005239D01*
Y0005417D01*
X0027710Y0005461D01*
X0027843D01*
X0027865Y0005417D01*
X0027545Y0005239D02*
X0027523Y0005195D01*
X0027390D01*
X0027368Y0005239D01*
Y0005417D01*
X0027390Y0005461D01*
X0027523D01*
X0027545Y0005417D01*
X0027225Y0005106D02*
X0027048D01*
X0026839Y0005328D02*
X0026905Y0005195D01*
X0026728Y0005328D02*
X0026861D01*
X0026905Y0005372D01*
Y0005417D01*
X0026861Y0005461D01*
X0026728D01*
Y0005195D01*
X0026585Y0005461D02*
Y0005372D01*
X0026496Y0005195D01*
X0026408Y0005372D01*
Y0005461D01*
X0027877Y0017882D02*
X0027921Y0017837D01*
X0028010D01*
X0028054Y0017882D01*
Y0017926D01*
X0027965Y0018015D01*
X0028054Y0018104D01*
X0027877D01*
X0027668Y0017971D02*
X0027734Y0017837D01*
X0027557Y0017971D02*
X0027690D01*
X0027734Y0018015D01*
Y0018060D01*
X0027690Y0018104D01*
X0027557D01*
Y0017837D01*
X0027414Y0017748D02*
X0027237D01*
X0027028Y0017971D02*
X0027094Y0017837D01*
X0026917Y0017971D02*
X0027050D01*
X0027094Y0018015D01*
Y0018060D01*
X0027050Y0018104D01*
X0026917D01*
Y0017837D01*
X0026774Y0018104D02*
Y0018015D01*
X0026685Y0017837D01*
X0026597Y0018015D01*
Y0018104D01*
X0028515Y0012827D02*
X0028427D01*
X0028471D02*
Y0013094D01*
X0028427Y0013050D01*
X0028240Y0012916D02*
X0028062D01*
X0028240Y0012827D02*
Y0012961D01*
X0028173Y0013094D01*
X0028129D01*
X0028062Y0012961D01*
Y0012827D01*
X0027920D02*
X0027831D01*
X0027875D02*
Y0013094D01*
X0027920D02*
X0027831D01*
X0027644Y0013050D02*
X0027622Y0013094D01*
X0027489D01*
X0027467Y0013050D01*
Y0013005D01*
X0027489Y0012961D01*
X0027622D01*
X0027644Y0012916D01*
Y0012872D01*
X0027622Y0012827D01*
X0027489D01*
X0027467Y0012872D01*
X0027258Y0012961D02*
X0027324Y0012827D01*
X0027147Y0012961D02*
X0027280D01*
X0027324Y0013005D01*
Y0013050D01*
X0027280Y0013094D01*
X0027147D01*
Y0012827D01*
X0027004Y0012738D02*
X0026827D01*
X0026618Y0012961D02*
X0026684Y0012827D01*
X0026507Y0012961D02*
X0026640D01*
X0026684Y0013005D01*
Y0013050D01*
X0026640Y0013094D01*
X0026507D01*
Y0012827D01*
X0026364Y0013094D02*
Y0013005D01*
X0026275Y0012827D01*
X0026187Y0013005D01*
Y0013094D01*
X0011267Y0011485D02*
Y0011263D01*
X0011045Y0011485D01*
X0010990D01*
X0010934Y0011458D01*
Y0011291D01*
X0010990Y0011263D01*
X0011212Y0011115D02*
X0011267Y0011088D01*
Y0010921D01*
X0011212Y0010893D01*
X0010990D01*
X0010934Y0010921D01*
Y0011088D01*
X0010990Y0011115D01*
X0011379Y0010745D02*
Y0010523D01*
X0011212Y0010375D02*
X0011267Y0010348D01*
Y0010181D01*
X0011212Y0010153D01*
X0010990D01*
X0010934Y0010181D01*
Y0010348D01*
X0010990Y0010375D01*
X0011267Y0009811D02*
X0010934D01*
X0011267Y0009783D02*
Y0009950D01*
X0011212Y0010005D01*
X0011156D01*
X0011101Y0009978D01*
Y0009811D02*
Y0009978D01*
X0011045Y0010005D01*
X0010990D01*
X0010934Y0009950D01*
Y0009783D01*
X0006167Y0015652D02*
X0006211Y0015607D01*
X0006300D01*
X0006344Y0015652D01*
Y0015696D01*
X0006255Y0015785D01*
X0006344Y0015874D01*
X0006167D01*
X0006024Y0015652D02*
X0006002Y0015607D01*
X0005869D01*
X0005847Y0015652D01*
Y0015830D01*
X0005869Y0015874D01*
X0006002D01*
X0006024Y0015830D01*
X0005704Y0015518D02*
X0005527D01*
X0005384Y0015652D02*
X0005362Y0015607D01*
X0005229D01*
X0005207Y0015652D01*
Y0015830D01*
X0005229Y0015874D01*
X0005362D01*
X0005384Y0015830D01*
X0004909Y0015607D02*
Y0015874D01*
X0004887Y0015607D02*
X0005020D01*
X0005064Y0015652D01*
Y0015696D01*
X0005042Y0015741D01*
X0004909D02*
X0005042D01*
X0005064Y0015785D01*
Y0015830D01*
X0005020Y0015874D01*
X0004887D01*
X0012682Y0013120D02*
Y0013231D01*
Y0013176D02*
X0013016D01*
X0012960Y0013231D01*
X0012738Y0013434D02*
X0012682Y0013462D01*
Y0013629D01*
X0012738Y0013657D01*
X0012960D01*
X0013016Y0013629D01*
Y0013462D01*
X0012960Y0013434D01*
X0012571Y0013804D02*
Y0014027D01*
X0012738Y0014174D02*
X0012682Y0014202D01*
Y0014369D01*
X0012738Y0014397D01*
X0012960D01*
X0013016Y0014369D01*
Y0014202D01*
X0012960Y0014174D01*
X0012682Y0014739D02*
X0013016D01*
X0012682Y0014767D02*
Y0014600D01*
X0012738Y0014544D01*
X0012794D01*
X0012849Y0014572D01*
Y0014739D02*
Y0014572D01*
X0012905Y0014544D01*
X0012960D01*
X0013016Y0014600D01*
Y0014767D01*
X0008724Y0013432D02*
X0008613D01*
X0008669D02*
Y0013766D01*
X0008613Y0013710D01*
X0008410Y0013432D02*
X0008299D01*
X0008354D02*
Y0013766D01*
X0008299Y0013710D01*
X0007901Y0013432D02*
Y0013766D01*
X0007873Y0013432D02*
X0008040D01*
X0008095Y0013488D01*
Y0013544D01*
X0008068Y0013599D01*
X0007901D02*
X0008068D01*
X0008095Y0013655D01*
Y0013710D01*
X0008040Y0013766D01*
X0007873D01*
X0007725Y0013488D02*
X0007698Y0013432D01*
X0007531D01*
X0007503Y0013488D01*
Y0013710D01*
X0007531Y0013766D01*
X0007698D01*
X0007725Y0013710D01*
X0012297Y0016455D02*
Y0016566D01*
Y0016511D02*
X0012631D01*
X0012575Y0016566D01*
X0012297Y0016964D02*
X0012631D01*
X0012297Y0016992D02*
Y0016825D01*
X0012409Y0016769D01*
X0012520D01*
X0012631Y0016825D01*
Y0016992D01*
X0012186Y0017139D02*
Y0017362D01*
X0012353Y0017509D02*
X0012297Y0017537D01*
Y0017704D01*
X0012353Y0017732D01*
X0012575D01*
X0012631Y0017704D01*
Y0017537D01*
X0012575Y0017509D01*
X0012297Y0018074D02*
X0012631D01*
X0012297Y0018102D02*
Y0017935D01*
X0012353Y0017879D01*
X0012409D01*
X0012464Y0017907D01*
Y0018074D02*
Y0017907D01*
X0012520Y0017879D01*
X0012575D01*
X0012631Y0017935D01*
Y0018102D01*
X0021955Y0006888D02*
X0022089D01*
X0022111Y0006844D01*
Y0006799D01*
X0022089Y0006755D01*
X0021955D01*
X0021933Y0006799D01*
Y0006844D01*
X0022022Y0007021D01*
X0021791Y0006755D02*
X0021702D01*
X0021746D02*
Y0007021D01*
X0021702Y0006977D01*
X0021360Y0006755D02*
Y0007021D01*
X0021338Y0006755D02*
X0021471D01*
X0021515Y0006799D01*
Y0006844D01*
X0021493Y0006888D01*
X0021360D02*
X0021493D01*
X0021515Y0006932D01*
Y0006977D01*
X0021471Y0007021D01*
X0021338D01*
X0021195Y0006799D02*
X0021173Y0006755D01*
X0021040D01*
X0021018Y0006799D01*
Y0006977D01*
X0021040Y0007021D01*
X0021173D01*
X0021195Y0006977D01*
X0020160Y0016662D02*
X0020049D01*
X0020104D02*
Y0016996D01*
X0020049Y0016940D01*
X0019845D02*
X0019818Y0016996D01*
X0019651D01*
X0019623Y0016940D01*
Y0016885D01*
X0019651Y0016829D01*
X0019818D01*
X0019845Y0016774D01*
Y0016718D01*
X0019818Y0016662D01*
X0019651D01*
X0019623Y0016718D01*
X0019475Y0016940D02*
X0019448Y0016996D01*
X0019281D01*
X0019253Y0016940D01*
Y0016885D01*
X0019281Y0016829D01*
X0019448D01*
X0019475Y0016774D01*
Y0016718D01*
X0019448Y0016662D01*
X0019281D01*
X0019253Y0016718D01*
X0019105D02*
X0019078Y0016662D01*
X0018911D01*
X0018883Y0016718D01*
Y0016940D01*
X0018911Y0016996D01*
X0019078D01*
X0019105Y0016940D01*
X0018735Y0016551D02*
X0018513D01*
X0018282Y0016829D02*
X0018365Y0016662D01*
X0018143Y0016829D02*
X0018310D01*
X0018365Y0016885D01*
Y0016940D01*
X0018310Y0016996D01*
X0018143D01*
Y0016662D01*
X0017995Y0016996D02*
Y0016885D01*
X0017884Y0016662D01*
X0017773Y0016885D01*
Y0016996D01*
X0026460Y0020705D02*
X0026505Y0020661D01*
X0026527Y0020616D01*
Y0020527D01*
X0026505Y0020483D01*
X0026460Y0020439D01*
X0026416D01*
X0026371Y0020483D01*
X0026349Y0020527D01*
Y0020616D01*
X0026371Y0020661D01*
X0026416Y0020705D01*
X0026460D01*
X0026669D02*
X0026758D01*
X0026713D02*
Y0020439D01*
X0026758Y0020483D01*
X0027100Y0020705D02*
Y0020439D01*
X0027122Y0020705D02*
X0026989D01*
X0026944Y0020661D01*
Y0020616D01*
X0026967Y0020572D01*
X0027100D02*
X0026967D01*
X0026944Y0020527D01*
Y0020483D01*
X0026989Y0020439D01*
X0027122D01*
X0027264Y0020661D02*
X0027287Y0020705D01*
X0027420D01*
X0027442Y0020661D01*
Y0020483D01*
X0027420Y0020439D01*
X0027287D01*
X0027264Y0020483D01*
X0024892Y0014516D02*
X0024714D01*
X0024892Y0014694D01*
Y0014739D01*
X0024869Y0014783D01*
X0024736D01*
X0024714Y0014739D01*
X0024572Y0014516D02*
X0024483D01*
X0024527D02*
Y0014783D01*
X0024483Y0014739D01*
X0024141Y0014516D02*
Y0014783D01*
X0024118Y0014516D02*
X0024252D01*
X0024296Y0014561D01*
Y0014605D01*
X0024274Y0014650D01*
X0024141D02*
X0024274D01*
X0024296Y0014694D01*
Y0014739D01*
X0024252Y0014783D01*
X0024118D01*
X0023976Y0014561D02*
X0023954Y0014516D01*
X0023821D01*
X0023798Y0014561D01*
Y0014739D01*
X0023821Y0014783D01*
X0023954D01*
X0023976Y0014739D01*
X0028520Y0014527D02*
X0028431D01*
X0028475D02*
Y0014794D01*
X0028431Y0014750D01*
X0028244Y0014616D02*
X0028067D01*
X0028244Y0014527D02*
Y0014661D01*
X0028178Y0014794D01*
X0028133D01*
X0028067Y0014661D01*
Y0014527D01*
X0027769D02*
X0027747Y0014572D01*
Y0014750D01*
X0027769Y0014794D01*
X0027902D01*
X0027924Y0014750D01*
Y0014572D01*
X0027902Y0014527D01*
X0027769D01*
X0027604Y0014750D02*
X0027582Y0014794D01*
X0027449D01*
X0027427Y0014750D01*
Y0014705D01*
X0027449Y0014661D01*
X0027582D01*
X0027604Y0014616D01*
Y0014572D01*
X0027582Y0014527D01*
X0027449D01*
X0027427Y0014572D01*
X0027218Y0014661D02*
X0027284Y0014527D01*
X0027107Y0014661D02*
X0027240D01*
X0027284Y0014705D01*
Y0014750D01*
X0027240Y0014794D01*
X0027107D01*
Y0014527D01*
X0026964Y0014438D02*
X0026787D01*
X0026578Y0014661D02*
X0026644Y0014527D01*
X0026467Y0014661D02*
X0026600D01*
X0026644Y0014705D01*
Y0014750D01*
X0026600Y0014794D01*
X0026467D01*
Y0014527D01*
X0026324Y0014794D02*
Y0014705D01*
X0026235Y0014527D01*
X0026147Y0014705D01*
Y0014794D01*
X0020489Y0014895D02*
X0020578D01*
X0020533D02*
Y0014629D01*
X0020578Y0014673D01*
X0020764Y0014851D02*
X0020787Y0014895D01*
X0020920D01*
X0020942Y0014851D01*
Y0014673D01*
X0020920Y0014629D01*
X0020787D01*
X0020764Y0014673D01*
X0021151Y0014762D02*
X0021084Y0014895D01*
X0021262Y0014762D02*
X0021129D01*
X0021084Y0014717D01*
Y0014673D01*
X0021129Y0014629D01*
X0021262D01*
Y0014895D01*
X0021404Y0014984D02*
X0021582D01*
X0021791Y0014762D02*
X0021724Y0014895D01*
X0021902Y0014762D02*
X0021769D01*
X0021724Y0014717D01*
Y0014673D01*
X0021769Y0014629D01*
X0021902D01*
Y0014895D01*
X0022044Y0014629D02*
Y0014717D01*
X0022133Y0014895D01*
X0022222Y0014717D01*
Y0014629D01*
X0024501Y0011978D02*
Y0012111D01*
X0024545Y0012134D01*
X0024590D01*
X0024634Y0012111D01*
Y0011978D01*
X0024590Y0011956D01*
X0024545D01*
X0024368Y0012045D01*
X0024501Y0011747D02*
X0024634Y0011814D01*
X0024501Y0011636D02*
Y0011769D01*
X0024457Y0011814D01*
X0024412D01*
X0024368Y0011769D01*
Y0011636D01*
X0024634D01*
X0024723Y0011494D02*
Y0011316D01*
X0024501Y0011107D02*
X0024634Y0011174D01*
X0024501Y0010996D02*
Y0011129D01*
X0024457Y0011174D01*
X0024412D01*
X0024368Y0011129D01*
Y0010996D01*
X0024634D01*
X0024368Y0010854D02*
X0024457D01*
X0024634Y0010765D01*
X0024457Y0010676D01*
X0024368D01*
X0014580Y0008932D02*
X0014469D01*
X0014524D02*
Y0009266D01*
X0014469Y0009210D01*
X0014265Y0008932D02*
X0014099Y0009099D01*
X0014265Y0009266D01*
X0014043D02*
Y0008932D01*
X0013701D02*
X0013673Y0008988D01*
Y0009210D01*
X0013701Y0009266D01*
X0013868D01*
X0013895Y0009210D01*
Y0008988D01*
X0013868Y0008932D01*
X0013701D01*
X0013525Y0008988D02*
X0013498Y0008932D01*
X0013331D01*
X0013303Y0008988D01*
Y0009210D01*
X0013331Y0009266D01*
X0013498D01*
X0013525Y0009210D01*
X0013155Y0009044D02*
X0012933D01*
X0013155Y0008932D02*
Y0009099D01*
X0013072Y0009266D01*
X0013016D01*
X0012933Y0009099D01*
Y0008932D01*
X0012702Y0009099D02*
X0012785Y0008932D01*
X0012563Y0009099D02*
X0012730D01*
X0012785Y0009155D01*
Y0009210D01*
X0012730Y0009266D01*
X0012563D01*
Y0008932D01*
X0012415Y0008821D02*
X0012193D01*
X0012045Y0008988D02*
X0012018Y0008932D01*
X0011851D01*
X0011823Y0008988D01*
Y0009210D01*
X0011851Y0009266D01*
X0012018D01*
X0012045Y0009210D01*
X0011481Y0008932D02*
Y0009266D01*
X0011453Y0008932D02*
X0011620D01*
X0011675Y0008988D01*
Y0009044D01*
X0011648Y0009099D01*
X0011481D02*
X0011648D01*
X0011675Y0009155D01*
Y0009210D01*
X0011620Y0009266D01*
X0011453D01*
X0008371Y0018435D02*
X0008282D01*
X0008326D02*
Y0018701D01*
X0008282Y0018657D01*
X0008029Y0018568D02*
X0008095Y0018435D01*
X0007918Y0018568D02*
X0008051D01*
X0008095Y0018612D01*
Y0018657D01*
X0008051Y0018701D01*
X0007918D01*
Y0018435D01*
X0007775Y0018346D02*
X0007598D01*
X0007455Y0018479D02*
X0007433Y0018435D01*
X0007300D01*
X0007278Y0018479D01*
Y0018657D01*
X0007300Y0018701D01*
X0007433D01*
X0007455Y0018657D01*
X0006980Y0018435D02*
Y0018701D01*
X0006958Y0018435D02*
X0007091D01*
X0007135Y0018479D01*
Y0018524D01*
X0007113Y0018568D01*
X0006980D02*
X0007113D01*
X0007135Y0018612D01*
Y0018657D01*
X0007091Y0018701D01*
X0006958D01*
X0017290Y0016862D02*
X0017179D01*
X0017234D02*
Y0017196D01*
X0017179Y0017140D01*
X0016975Y0016918D02*
X0016948Y0016862D01*
X0016781D01*
X0016753Y0016918D01*
Y0017140D01*
X0016781Y0017196D01*
X0016948D01*
X0016975Y0017140D01*
X0016605Y0016918D02*
X0016578Y0016862D01*
X0016411D01*
X0016383Y0016918D01*
Y0017140D01*
X0016411Y0017196D01*
X0016578D01*
X0016605Y0017140D01*
X0016235Y0016751D02*
X0016013D01*
X0015782Y0017029D02*
X0015865Y0016862D01*
X0015643Y0017029D02*
X0015810D01*
X0015865Y0017085D01*
Y0017140D01*
X0015810Y0017196D01*
X0015643D01*
Y0016862D01*
X0015495Y0017196D02*
Y0017085D01*
X0015384Y0016862D01*
X0015273Y0017085D01*
Y0017196D01*
X0028305Y0007035D02*
X0028128D01*
X0028305Y0007212D01*
Y0007257D01*
X0028283Y0007301D01*
X0028150D01*
X0028128Y0007257D01*
X0027985Y0007079D02*
X0027963Y0007035D01*
X0027830D01*
X0027808Y0007079D01*
Y0007257D01*
X0027830Y0007301D01*
X0027963D01*
X0027985Y0007257D01*
X0027599Y0007168D02*
X0027665Y0007035D01*
X0027488Y0007168D02*
X0027621D01*
X0027665Y0007212D01*
Y0007257D01*
X0027621Y0007301D01*
X0027488D01*
Y0007035D01*
X0027345Y0006946D02*
X0027168D01*
X0026959Y0007168D02*
X0027025Y0007035D01*
X0026848Y0007168D02*
X0026981D01*
X0027025Y0007212D01*
Y0007257D01*
X0026981Y0007301D01*
X0026848D01*
Y0007035D01*
X0026705Y0007301D02*
Y0007212D01*
X0026616Y0007035D01*
X0026528Y0007212D01*
Y0007301D01*
X0010895Y0016489D02*
Y0016578D01*
Y0016533D02*
X0011161D01*
X0011117Y0016578D01*
Y0016764D02*
X0011161Y0016787D01*
Y0016920D01*
X0011117Y0016942D01*
X0011073D01*
X0011028Y0016920D01*
Y0016787D01*
X0010984Y0016764D01*
X0010939D01*
X0010895Y0016787D01*
Y0016920D01*
X0010939Y0016942D01*
X0011028Y0017151D02*
X0010895Y0017084D01*
X0011028Y0017262D02*
Y0017129D01*
X0011073Y0017084D01*
X0011117D01*
X0011161Y0017129D01*
Y0017262D01*
X0010895D01*
X0010806Y0017404D02*
Y0017582D01*
X0010939Y0017724D02*
X0010895Y0017747D01*
Y0017880D01*
X0010939Y0017902D01*
X0011117D01*
X0011161Y0017880D01*
Y0017747D01*
X0011117Y0017724D01*
X0010895Y0018200D02*
X0011161D01*
X0010895Y0018222D02*
Y0018089D01*
X0010939Y0018044D01*
X0010984D01*
X0011028Y0018067D01*
Y0018200D02*
Y0018067D01*
X0011073Y0018044D01*
X0011117D01*
X0011161Y0018089D01*
Y0018222D01*
X0025896Y0011238D02*
Y0011327D01*
Y0011283D02*
X0026163D01*
X0026119Y0011327D01*
X0026030Y0011580D02*
X0025896Y0011514D01*
X0026030Y0011691D02*
Y0011558D01*
X0026074Y0011514D01*
X0026119D01*
X0026163Y0011558D01*
Y0011691D01*
X0025896D01*
X0025808Y0011834D02*
Y0012011D01*
X0025896Y0012154D02*
X0026163D01*
X0026119Y0012198D01*
X0026030Y0012243D01*
X0026119Y0012287D01*
X0026163Y0012331D01*
X0025896D01*
Y0012629D02*
X0026163D01*
X0025896Y0012651D02*
Y0012518D01*
X0025941Y0012474D01*
X0025985D01*
X0026030Y0012496D01*
Y0012629D02*
Y0012496D01*
X0026074Y0012474D01*
X0026119D01*
X0026163Y0012518D01*
Y0012651D01*
X0030957Y0010800D02*
Y0010911D01*
Y0010856D02*
X0031291D01*
X0031235Y0010911D01*
Y0011114D02*
X0031291Y0011142D01*
Y0011309D01*
X0031235Y0011337D01*
X0031180D01*
X0031124Y0011309D01*
Y0011142D01*
X0031069Y0011114D01*
X0031013D01*
X0030957Y0011142D01*
Y0011309D01*
X0031013Y0011337D01*
X0031291Y0011484D02*
X0030957D01*
X0031013Y0011540D01*
X0031235Y0011651D01*
X0031291Y0011707D01*
X0030957D01*
X0031124Y0011910D02*
Y0012077D01*
X0030957Y0011854D02*
Y0012077D01*
X0031291D01*
Y0011854D01*
X0031235Y0012224D02*
X0031291Y0012252D01*
Y0012419D01*
X0031235Y0012447D01*
X0031180D01*
X0031124Y0012419D01*
Y0012252D01*
X0031069Y0012224D01*
X0031013D01*
X0030957Y0012252D01*
Y0012419D01*
X0031013Y0012447D01*
X0031124Y0012678D02*
X0030957Y0012594D01*
X0031124Y0012817D02*
Y0012650D01*
X0031180Y0012594D01*
X0031235D01*
X0031291Y0012650D01*
Y0012817D01*
X0030957D01*
X0030846Y0012964D02*
Y0013187D01*
X0030957Y0013334D02*
X0031291D01*
X0031235Y0013390D01*
X0031124Y0013446D01*
X0031235Y0013501D01*
X0031291Y0013557D01*
X0030957D01*
Y0013899D02*
X0031291D01*
X0030957Y0013927D02*
Y0013760D01*
X0031013Y0013704D01*
X0031069D01*
X0031124Y0013732D01*
Y0013899D02*
Y0013732D01*
X0031180Y0013704D01*
X0031235D01*
X0031291Y0013760D01*
Y0013927D01*
X0033329Y0017935D02*
X0033218D01*
X0033273D02*
Y0018268D01*
X0033218Y0018213D01*
X0033014Y0017991D02*
X0032987Y0017935D01*
X0032820D01*
X0032792Y0017991D01*
Y0018213D01*
X0032820Y0018268D01*
X0032987D01*
X0033014Y0018213D01*
X0032644Y0017824D02*
X0032422D01*
X0032191Y0018102D02*
X0032274Y0017935D01*
X0032052Y0018102D02*
X0032219D01*
X0032274Y0018157D01*
Y0018213D01*
X0032219Y0018268D01*
X0032052D01*
Y0017935D01*
X0031904Y0018268D02*
Y0018157D01*
X0031793Y0017935D01*
X0031682Y0018157D01*
Y0018268D01*
X0007533Y0008284D02*
Y0008507D01*
X0007755Y0008284D01*
X0007810D01*
X0007866Y0008312D01*
Y0008479D01*
X0007810Y0008507D01*
Y0008654D02*
X0007866Y0008682D01*
Y0008849D01*
X0007810Y0008877D01*
X0007755D01*
X0007699Y0008849D01*
Y0008682D01*
X0007644Y0008654D01*
X0007588D01*
X0007533Y0008682D01*
Y0008849D01*
X0007588Y0008877D01*
X0007699Y0009108D02*
X0007533Y0009024D01*
X0007699Y0009247D02*
Y0009080D01*
X0007755Y0009024D01*
X0007810D01*
X0007866Y0009080D01*
Y0009247D01*
X0007533D01*
X0007421Y0009394D02*
Y0009617D01*
X0007588Y0009764D02*
X0007533Y0009792D01*
Y0009959D01*
X0007588Y0009987D01*
X0007810D01*
X0007866Y0009959D01*
Y0009792D01*
X0007810Y0009764D01*
X0007533Y0010329D02*
X0007866D01*
X0007533Y0010357D02*
Y0010190D01*
X0007588Y0010134D01*
X0007644D01*
X0007699Y0010162D01*
Y0010329D02*
Y0010162D01*
X0007755Y0010134D01*
X0007810D01*
X0007866Y0010190D01*
Y0010357D01*
X0007115Y0015095D02*
X0006938D01*
X0007115Y0015272D01*
Y0015317D01*
X0007093Y0015361D01*
X0006960D01*
X0006938Y0015317D01*
X0006640Y0015095D02*
Y0015361D01*
X0006618Y0015095D02*
X0006751D01*
X0006795Y0015184D01*
Y0015272D01*
X0006751Y0015361D01*
X0006618D01*
X0006475Y0015006D02*
X0006298D01*
X0006155Y0015139D02*
X0006133Y0015095D01*
X0006000D01*
X0005978Y0015139D01*
Y0015317D01*
X0006000Y0015361D01*
X0006133D01*
X0006155Y0015317D01*
X0005680Y0015095D02*
Y0015361D01*
X0005658Y0015095D02*
X0005791D01*
X0005835Y0015139D01*
Y0015184D01*
X0005813Y0015228D01*
X0005680D02*
X0005813D01*
X0005835Y0015272D01*
Y0015317D01*
X0005791Y0015361D01*
X0005658D01*
X0026584Y0021945D02*
X0026762D01*
X0026584Y0021767D01*
Y0021723D01*
X0026607Y0021679D01*
X0026740D01*
X0026762Y0021723D01*
X0026971Y0021812D02*
X0026904Y0021945D01*
X0027082Y0021812D02*
X0026949D01*
X0026904Y0021767D01*
Y0021723D01*
X0026949Y0021679D01*
X0027082D01*
Y0021945D01*
X0027224Y0022034D02*
X0027402D01*
X0027611Y0021812D02*
X0027544Y0021945D01*
X0027722Y0021812D02*
X0027589D01*
X0027544Y0021767D01*
Y0021723D01*
X0027589Y0021679D01*
X0027722D01*
Y0021945D01*
X0027864Y0021679D02*
Y0021767D01*
X0027953Y0021945D01*
X0028042Y0021767D01*
Y0021679D01*
X0021007Y0000468D02*
X0021063Y0000412D01*
X0021174D01*
X0021230Y0000468D01*
Y0000524D01*
X0021119Y0000635D01*
X0021230Y0000746D01*
X0021007D01*
X0020860Y0000412D02*
X0020749D01*
X0020804D02*
Y0000746D01*
X0020749Y0000690D01*
X0020351Y0000412D02*
Y0000746D01*
X0020323Y0000412D02*
X0020490D01*
X0020545Y0000468D01*
Y0000524D01*
X0020518Y0000579D01*
X0020351D02*
X0020518D01*
X0020545Y0000635D01*
Y0000690D01*
X0020490Y0000746D01*
X0020323D01*
X0020175Y0000468D02*
X0020148Y0000412D01*
X0019981D01*
X0019953Y0000468D01*
Y0000690D01*
X0019981Y0000746D01*
X0020148D01*
X0020175Y0000690D01*
X0020648Y0007519D02*
X0020670Y0007475D01*
X0020803D01*
X0020825Y0007519D01*
Y0007608D01*
X0020781Y0007652D01*
X0020648D01*
Y0007741D01*
X0020825D01*
X0020439Y0007608D02*
X0020505Y0007475D01*
X0020328Y0007608D02*
X0020461D01*
X0020505Y0007652D01*
Y0007697D01*
X0020461Y0007741D01*
X0020328D01*
Y0007475D01*
X0020185Y0007386D02*
X0020008D01*
X0019799Y0007608D02*
X0019865Y0007475D01*
X0019688Y0007608D02*
X0019821D01*
X0019865Y0007652D01*
Y0007697D01*
X0019821Y0007741D01*
X0019688D01*
Y0007475D01*
X0019545Y0007741D02*
Y0007652D01*
X0019456Y0007475D01*
X0019368Y0007652D01*
Y0007741D01*
X0030815Y0008924D02*
X0030638D01*
X0030726Y0009101D01*
X0030771D01*
Y0008835D01*
X0030429Y0008968D02*
X0030495Y0008835D01*
X0030318Y0008968D02*
X0030451D01*
X0030495Y0009012D01*
Y0009057D01*
X0030451Y0009101D01*
X0030318D01*
Y0008835D01*
X0030175Y0008746D02*
X0029998D01*
X0029789Y0008968D02*
X0029855Y0008835D01*
X0029678Y0008968D02*
X0029811D01*
X0029855Y0009012D01*
Y0009057D01*
X0029811Y0009101D01*
X0029678D01*
Y0008835D01*
X0029535Y0009101D02*
Y0009012D01*
X0029446Y0008835D01*
X0029358Y0009012D01*
Y0009101D01*
X0033370Y0019622D02*
X0033259D01*
X0033314D02*
Y0019956D01*
X0033259Y0019900D01*
X0032972Y0019789D02*
X0033055Y0019622D01*
X0032833Y0019789D02*
X0033000D01*
X0033055Y0019845D01*
Y0019900D01*
X0033000Y0019956D01*
X0032833D01*
Y0019622D01*
X0032685Y0019511D02*
X0032463D01*
X0032232Y0019789D02*
X0032315Y0019622D01*
X0032093Y0019789D02*
X0032260D01*
X0032315Y0019845D01*
Y0019900D01*
X0032260Y0019956D01*
X0032093D01*
Y0019622D01*
X0031945Y0019956D02*
Y0019845D01*
X0031834Y0019622D01*
X0031723Y0019845D01*
Y0019956D01*
X0023774Y0007607D02*
X0023597D01*
X0023774Y0007785D01*
Y0007830D01*
X0023752Y0007874D01*
X0023619D01*
X0023597Y0007830D01*
X0023454D02*
X0023432Y0007874D01*
X0023299D01*
X0023277Y0007830D01*
Y0007785D01*
X0023299Y0007741D01*
X0023432D01*
X0023454Y0007696D01*
Y0007652D01*
X0023432Y0007607D01*
X0023299D01*
X0023277Y0007652D01*
X0023134Y0007830D02*
X0023112Y0007874D01*
X0022979D01*
X0022957Y0007830D01*
Y0007785D01*
X0022979Y0007741D01*
X0023112D01*
X0023134Y0007696D01*
Y0007652D01*
X0023112Y0007607D01*
X0022979D01*
X0022957Y0007652D01*
X0022814D02*
X0022792Y0007607D01*
X0022659D01*
X0022637Y0007652D01*
Y0007830D01*
X0022659Y0007874D01*
X0022792D01*
X0022814Y0007830D01*
X0022494Y0007518D02*
X0022317D01*
X0022108Y0007741D02*
X0022174Y0007607D01*
X0021997Y0007741D02*
X0022130D01*
X0022174Y0007785D01*
Y0007830D01*
X0022130Y0007874D01*
X0021997D01*
Y0007607D01*
X0021854Y0007874D02*
Y0007785D01*
X0021765Y0007607D01*
X0021677Y0007785D01*
Y0007874D01*
X0036060Y0021950D02*
Y0021150D01*
X0037560D01*
Y0021950D01*
X0036060D01*
X0047500Y0023260D02*
X0048300D01*
Y0024760D01*
X0047500D01*
Y0023260D01*
X0033960Y0002890D02*
Y0003690D01*
X0032460D01*
Y0002890D01*
X0033960D01*
X0030240Y0004450D02*
Y0005250D01*
X0028740D01*
Y0004450D01*
X0030240D01*
X0039320Y0002980D02*
Y0003780D01*
X0037820D01*
Y0002980D01*
X0039320D01*
X0038800Y0015140D02*
X0038000D01*
Y0013640D01*
X0038800D01*
Y0015140D01*
X0040105Y0019830D02*
X0042255D01*
Y0021030D01*
X0040105D01*
Y0019830D01*
X0038545Y0007945D02*
X0037745D01*
Y0006445D01*
X0038545D01*
Y0007945D01*
X0038445Y0016895D02*
X0037645D01*
Y0015395D01*
X0038445D01*
Y0016895D01*
X0042875Y0019950D02*
X0045025D01*
Y0021150D01*
X0042875D01*
Y0019950D01*
X0026100Y0010740D02*
X0025300D01*
Y0009240D01*
X0026100D01*
Y0010740D01*
X0030980Y0005775D02*
Y0006825D01*
X0029000D01*
Y0005775D01*
X0030980D01*
X0016225Y0007900D02*
X0018375D01*
Y0009100D01*
X0016225D01*
Y0007900D01*
X0026155Y0018555D02*
X0026955D01*
Y0020055D01*
X0026155D01*
Y0018555D01*
X0028290Y0003985D02*
Y0005035D01*
X0026310D01*
Y0003985D01*
X0028290D01*
X0028425Y0017650D02*
X0026275D01*
Y0016450D01*
X0028425D01*
Y0017650D01*
X0002190Y0008100D02*
Y0008900D01*
X0000690D01*
Y0008100D01*
X0002190D01*
X0028425Y0014400D02*
X0026275D01*
Y0013200D01*
X0028425D01*
Y0014400D01*
X0012700Y0009625D02*
Y0011775D01*
X0011500D01*
Y0009625D01*
X0012700D01*
X0008675Y0016650D02*
X0006525D01*
Y0015450D01*
X0008675D01*
Y0016650D01*
X0011250Y0014925D02*
Y0012775D01*
X0012450D01*
Y0014925D01*
X0011250D01*
X0010340Y0013450D02*
Y0014250D01*
X0008840D01*
Y0013450D01*
X0010340D01*
X0012105Y0015405D02*
Y0018085D01*
X0011845D01*
X0011660Y0018270D01*
X0011475Y0018085D01*
X0011255D01*
Y0015405D01*
X0012105D01*
X0017050Y0002425D02*
Y0000275D01*
X0018250D01*
Y0002425D01*
X0017050D01*
X0023740Y0006450D02*
Y0007250D01*
X0022240D01*
Y0006450D01*
X0023740D01*
X0019780Y0015375D02*
Y0016425D01*
X0017800D01*
Y0015375D01*
X0019780D01*
X0026160Y0021600D02*
Y0020800D01*
X0027660D01*
Y0021600D01*
X0026160D01*
X0000025Y0009800D02*
X0002175D01*
Y0011000D01*
X0000025D01*
Y0009800D01*
X0023600Y0016140D02*
X0022800D01*
Y0014640D01*
X0023600D01*
Y0016140D01*
X0028425Y0016050D02*
X0026275D01*
Y0014850D01*
X0028425D01*
Y0016050D01*
X0025540Y0000150D02*
Y0000950D01*
X0024040D01*
Y0000150D01*
X0025540D01*
X0022375Y0016300D02*
X0020225D01*
Y0015100D01*
X0022375D01*
Y0016300D01*
X0022545Y0009370D02*
X0024695D01*
Y0010570D01*
X0022545D01*
Y0009370D01*
X0011475Y0007500D02*
X0013625D01*
Y0008700D01*
X0011475D01*
Y0007500D01*
X0006525Y0017000D02*
X0008675D01*
Y0018200D01*
X0006525D01*
Y0017000D01*
X0000025Y0012200D02*
X0002175D01*
Y0013400D01*
X0000025D01*
Y0012200D01*
X0017280Y0015575D02*
Y0016625D01*
X0015300D01*
Y0015575D01*
X0017280D01*
X0028475Y0008600D02*
X0026325D01*
Y0007400D01*
X0028475D01*
Y0008600D01*
X0026325Y0005650D02*
X0028475D01*
Y0006850D01*
X0026325D01*
Y0005650D01*
X0009200Y0014745D02*
Y0018195D01*
X0010700D01*
Y0014745D01*
X0009200D01*
X0026275Y0011350D02*
X0028425D01*
Y0012550D01*
X0026275D01*
Y0011350D01*
X0029125Y0011380D02*
X0030875D01*
Y0014140D01*
X0029125D01*
Y0011380D01*
X0029470Y0018525D02*
Y0017475D01*
X0031450D01*
Y0018525D01*
X0029470D01*
X0004325Y0010050D02*
X0002175D01*
Y0008850D01*
X0004325D01*
Y0010050D01*
X0005780Y0007075D02*
Y0010525D01*
X0007280D01*
Y0007075D01*
X0005780D01*
X0008320Y0014930D02*
X0005640D01*
Y0014670D01*
X0005455Y0014485D01*
X0005640Y0014300D01*
Y0014080D01*
X0008320D01*
Y0014930D01*
X0028325Y0023300D02*
X0026175D01*
Y0022100D01*
X0028325D01*
Y0023300D01*
X0022840Y0000200D02*
Y0001000D01*
X0021340D01*
Y0000200D01*
X0022840D01*
X0002175Y0007000D02*
X0004325D01*
Y0008200D01*
X0002175D01*
Y0007000D01*
X0018975Y0007900D02*
X0021125D01*
Y0009100D01*
X0018975D01*
Y0007900D01*
X0029025Y0007450D02*
X0031175D01*
Y0008650D01*
X0029025D01*
Y0007450D01*
X0029375Y0019300D02*
X0031525D01*
Y0020500D01*
X0029375D01*
Y0019300D01*
X0021770Y0009075D02*
Y0008025D01*
X0023750D01*
Y0009075D01*
X0021770D01*
X0000025Y0006400D02*
X0002175D01*
Y0007600D01*
X0000025D01*
Y0006400D01*
X0004325Y0014600D02*
X0002175D01*
Y0013400D01*
X0004325D01*
Y0014600D01*
X0000025D02*
X0002175D01*
Y0015800D01*
X0000025D01*
Y0014600D01*
G54D90*
G01X0005147Y0013218D02*
X0004950D01*
Y0013021D01*
X0006918D02*
Y0013218D01*
X0006721D01*
Y0011250D02*
X0006918D01*
Y0011447D01*
X0004950D02*
Y0011250D01*
X0005147D01*
G54D91*
G01X0004115Y0023890D02*
Y0023712D01*
X0003937Y0023801D01*
Y0023845D01*
X0004204D01*
Y0023394D02*
X0003937D01*
X0004204Y0023372D02*
Y0023505D01*
X0004115Y0023550D01*
X0004026D01*
X0003937Y0023505D01*
Y0023372D01*
G54D45*
X0043800Y0022250D03*
X0042028D03*
Y0024809D03*
X0043800D03*
G54D88*
X0031425Y0004200D03*
X0028276Y0019160D03*
M02*
