*
G04 Mass Parameters ***
*
G04 Image ***
*
%INC:\PROJECTS\RAGOBOTS\ROBOT\HW\DESIGN\RAGOBOT.SMT*%
%ICAS*%
%MOIN*%
%IPPOS*%
%ASAXBY*%
G74*%FSLAN2X34Y34*%
*
G04 Aperture Definitions ***
*
%AMTHERMAL68*
1,1,0.1090,0,0,*
1,0,0.0850,0,0,*
21,0,0.1090,0.0500,0,0,45.0*
21,0,0.1090,0.0500,0,0,135.0*%
%AMTHERMAL73*
1,1,0.0875,0,0,*
1,0,0.0635,0,0,*
21,0,0.0875,0.0500,0,0,45.0*
21,0,0.0875,0.0500,0,0,135.0*%
%AMTHERMAL77*
1,1,0.0875,0,0,*
1,0,0.0635,0,0,*
21,0,0.0875,0.0500,0,0,46.2*
21,0,0.0875,0.0500,0,0,136.2*%
%ADD10C,0.1750*%
%ADD11O,0.0940X0.0250*%
%ADD12R,0.0940X0.0250*%
%ADD13R,0.1181X0.1181*%
%ADD14O,0.0118X0.0472*%
%ADD15O,0.0472X0.0118*%
%ADD16R,0.0472X0.0118*%
%ADD17R,0.0780X0.0720*%
%ADD18R,0.0720X0.0780*%
%ADD19C,0.0580*%
%ADD20R,0.0580X0.0580*%
%ADD21R,0.0600X0.0800*%
%ADD22R,0.0800X0.0600*%
%ADD23R,0.1575X0.1181*%
%ADD24R,0.0220X0.0220*%
%ADD25R,0.1200X0.0760*%
%ADD26R,0.1420X0.0720*%
%ADD27R,0.0400X0.0480*%
%ADD28R,0.0480X0.0400*%
%ADD29C,0.0620*%
%ADD30C,0.1700*%
%ADD31C,0.1450*%
%ADD32R,0.0315X0.0315*%
%ADD33C,0.0472*%
%ADD34C,0.1771*%
%ADD35C,0.0750*%
%ADD36R,0.0750X0.0750*%
%ADD37O,0.0860X0.0250*%
%ADD38R,0.0860X0.0250*%
%ADD39O,0.0680X0.0130*%
%ADD40R,0.0680X0.0130*%
%ADD41O,0.1000X0.0250*%
%ADD42R,0.1000X0.0250*%
%ADD43O,0.0250X0.1000*%
%ADD44R,0.0250X0.1000*%
%ADD45C,0.0787*%
%ADD46C,0.1100*%
%ADD47R,0.0480X0.0740*%
%ADD48R,0.3149X0.2362*%
%ADD49R,0.1968X0.2362*%
%ADD50C,0.0250*%
%ADD51C,0.0250*%
%ADD52C,0.0100*%
%ADD53C,0.0250*%
%ADD54C,0.0300*%
%ADD55C,0.0120*%
%ADD56C,0.0200*%
%ADD57C,0.0118*%
%ADD58C,0.0080*%
%ADD59C,0.0150*%
%ADD60R,0.1141X0.0354*%
%ADD61R,0.0708X0.0157*%
%ADD62C,0.0010*%
%ADD63C,0.2100*%
%ADD64C,0.0950*%
%ADD65R,0.0950X0.0950*%
%ADD66C,0.1000*%
%ADD67C,0.1900*%
%ADD68THERMAL68*%
%ADD69C,0.0900*%
%ADD70R,0.0900X0.0900*%
%ADD71C,0.0800*%
%ADD72R,0.1100X0.1100*%
%ADD73THERMAL73*%
%ADD74C,0.0600*%
%ADD75C,0.0500*%
%ADD76C,0.0600*%
%ADD77THERMAL77*%
%ADD78C,0.0780*%
%ADD79R,0.0780X0.0780*%
%ADD80C,0.0700*%
%ADD81C,0.1550*%
%ADD82C,0.0500*%
%ADD83C,0.0500*%
%ADD84C,0.0670*%
%ADD85C,0.1650*%
%ADD86C,0.1200*%
%ADD87R,0.1142X0.0354*%
%ADD88C,0.1260*%
%ADD89C,0.0060*%
%ADD90C,0.0039*%
%ADD91C,0.0070*%
%ADD92C,0.0098*%
%ADD93C,0.0050*%
%ADD94C,0.0130*%
%ADD95C,0.0130*%
*
G04 Plot Data ***
*
G54D10*
X0039017Y0021492D03*
X0028790Y0001402D03*
X0013750Y0011650D03*
X0024800Y0007400D03*
Y0015900D03*
X0045760Y0000150D03*
Y0023150D03*
X-0002000Y0021300D03*
Y0002000D03*
G54D11*
X0034950Y0015650D03*
Y0015150D03*
Y0014650D03*
Y0014150D03*
Y0013650D03*
Y0013150D03*
Y0012650D03*
X0036910D03*
Y0013150D03*
Y0013650D03*
Y0014150D03*
Y0014650D03*
Y0015150D03*
Y0015650D03*
Y0016150D03*
X0034900Y0011150D03*
Y0010650D03*
Y0010150D03*
Y0009650D03*
Y0009150D03*
Y0008650D03*
Y0008150D03*
X0036860D03*
Y0008650D03*
Y0009150D03*
Y0009650D03*
Y0010150D03*
Y0010650D03*
Y0011150D03*
Y0011650D03*
X0034900Y0006650D03*
Y0006150D03*
Y0005650D03*
Y0005150D03*
Y0004650D03*
Y0004150D03*
Y0003650D03*
X0036860D03*
Y0004150D03*
Y0004650D03*
Y0005150D03*
Y0005650D03*
Y0006150D03*
Y0006650D03*
Y0007150D03*
X0034950Y0020100D03*
Y0019600D03*
Y0019100D03*
Y0018600D03*
Y0018100D03*
Y0017600D03*
Y0017100D03*
X0036910D03*
Y0017600D03*
Y0018100D03*
Y0018600D03*
Y0019100D03*
Y0019600D03*
Y0020100D03*
Y0020600D03*
X0026900Y0010250D03*
Y0009750D03*
Y0009250D03*
X0028860D03*
Y0009750D03*
Y0010250D03*
Y0010750D03*
G54D12*
X0034950Y0016150D03*
X0034900Y0011650D03*
Y0007150D03*
X0034950Y0020600D03*
X0026900Y0010750D03*
G54D13*
X0005934Y0012234D03*
G54D14*
X0005344Y0011250D03*
X0005540D03*
X0005737D03*
X0005934D03*
X0006131D03*
X0006328D03*
X0006525D03*
Y0013218D03*
X0006328D03*
X0006131D03*
X0005934D03*
X0005737D03*
X0005540D03*
X0005344D03*
G54D15*
X0004950Y0012628D03*
Y0012431D03*
Y0012234D03*
Y0012037D03*
Y0011840D03*
Y0011644D03*
X0006918D03*
Y0011840D03*
Y0012037D03*
Y0012234D03*
Y0012431D03*
Y0012628D03*
Y0012825D03*
G54D16*
X0004950D03*
G54D17*
X0017650Y0001900D03*
Y0000800D03*
X0012100Y0010150D03*
Y0011250D03*
X0011850Y0014400D03*
Y0013300D03*
G54D18*
X0016750Y0008500D03*
X0017850D03*
X0027900Y0015450D03*
X0026800D03*
X0027900Y0013800D03*
X0026800D03*
X0026850Y0006250D03*
X0027950D03*
X0021850Y0015700D03*
X0020750D03*
X0023070Y0009970D03*
X0024170D03*
X0019500Y0008500D03*
X0020600D03*
X0029550Y0008050D03*
X0030650D03*
X0027900Y0017050D03*
X0026800D03*
X0027800Y0022700D03*
X0026700D03*
X0029900Y0019900D03*
X0031000D03*
X0040630Y0020430D03*
X0041730D03*
X0043400Y0020550D03*
X0044500D03*
X0027950Y0008000D03*
X0026850D03*
X0026800Y0011950D03*
X0027900D03*
X0012000Y0008100D03*
X0013100D03*
X0003800Y0014000D03*
X0002700D03*
X0000550Y0010400D03*
X0001650D03*
X0000550Y0007000D03*
X0001650D03*
X0003800Y0009450D03*
X0002700D03*
Y0007600D03*
X0003800D03*
X0007050Y0017600D03*
X0008150D03*
X0000550Y0012800D03*
X0001650D03*
X0000550Y0015200D03*
X0001650D03*
X0008150Y0016050D03*
X0007050D03*
G54D19*
X0020520Y0010030D03*
X0022300Y0011430D03*
X0000750Y0005450D03*
X0001750Y0004450D03*
Y0005450D03*
X0002750Y0004450D03*
Y0005450D03*
X0003750Y0004450D03*
Y0005450D03*
X0038180Y0000950D03*
X0039180D03*
X0040180D03*
X0041180D03*
X0042180D03*
X0048000Y0021400D03*
Y0020400D03*
Y0019400D03*
Y0018400D03*
Y0017400D03*
Y0016400D03*
Y0015400D03*
X0011900Y0004900D03*
X0010900D03*
X0009900D03*
X0008900D03*
X0007900D03*
X0006900D03*
X0005900D03*
X0004900D03*
X0039600Y0015150D03*
Y0014150D03*
Y0013150D03*
Y0012150D03*
Y0011150D03*
Y0010150D03*
Y0009150D03*
Y0008150D03*
Y0007150D03*
X0042600D03*
Y0008150D03*
Y0009150D03*
Y0010150D03*
Y0011150D03*
Y0012150D03*
Y0013150D03*
Y0014150D03*
Y0015150D03*
Y0016150D03*
X0048000Y0013650D03*
X0047000Y0012650D03*
X0048000D03*
X0047000Y0011650D03*
X0048000D03*
X0047000Y0010650D03*
X0048000D03*
X0047000Y0009650D03*
X0048000D03*
X0038800Y0018800D03*
X0039800Y0017800D03*
Y0018800D03*
X0040800Y0017800D03*
Y0018800D03*
X0041800Y0017800D03*
Y0018800D03*
X0042800Y0017800D03*
X0043800D03*
Y0018800D03*
X0002000Y0003000D03*
X0003000Y0002000D03*
Y0003000D03*
X0004000Y0002000D03*
Y0003000D03*
X0005000Y0002000D03*
Y0003000D03*
X0006000Y0002000D03*
X0007000D03*
Y0003000D03*
X0038800Y0005500D03*
X0039800Y0004500D03*
Y0005500D03*
X0040800Y0004500D03*
Y0005500D03*
X0041800Y0004500D03*
Y0005500D03*
X0002000Y0021300D03*
X0003000Y0020300D03*
Y0021300D03*
X0004000Y0020300D03*
Y0021300D03*
X0005000Y0020300D03*
Y0021300D03*
X0006000Y0020300D03*
Y0021300D03*
X0035730Y0000950D03*
Y0002300D03*
X0036730D03*
X0037730D03*
X0040180D03*
X0041180D03*
X0042180D03*
X0046550Y0001900D03*
X0047550Y0002900D03*
X0046550D03*
X0047550Y0003900D03*
X0046550D03*
X0047550Y0004900D03*
X0046550D03*
X0047550Y0005900D03*
X0046550D03*
X0026750Y0001780D03*
X0005150Y0022900D03*
X0014120Y0017430D03*
X0005150Y-0000600D03*
X0033800Y0022450D03*
X0016210Y0000780D03*
X0042600Y-0001800D03*
X0046200Y0020150D03*
X0010050Y0008450D03*
G54D20*
X0021520Y0010030D03*
X0023300Y0011430D03*
X0000750Y0004450D03*
X0037180Y0000950D03*
X0048000Y0022400D03*
X0012900Y0004900D03*
X0039600Y0016150D03*
X0047000Y0013650D03*
X0038800Y0017800D03*
X0042800Y0018800D03*
X0002000Y0002000D03*
X0006000Y0003000D03*
X0038800Y0004500D03*
X0002000Y0020300D03*
X0034730Y0000950D03*
Y0002300D03*
X0039180D03*
X0047550Y0001900D03*
X0026750Y0000780D03*
X0005150Y0023900D03*
X0014120Y0016430D03*
X0005150Y0000400D03*
X0034800Y0022450D03*
X0016210Y0001780D03*
X0042600Y-0000800D03*
X0046200Y0021150D03*
X0009050Y0008450D03*
G54D21*
X0011675Y0017575D03*
Y0015925D03*
G54D22*
X0006150Y0014500D03*
X0007800D03*
G54D23*
X0017330Y0013997D03*
Y0010060D03*
G54D24*
X0005940Y0012170D03*
X0005860D03*
G54D25*
X0006530Y0009980D03*
Y0007620D03*
X0009950Y0017650D03*
Y0015290D03*
G54D26*
X0030000Y0013550D03*
Y0011970D03*
G54D27*
X0022600Y0006850D03*
X0023390D03*
X0001050Y0008500D03*
X0001840D03*
X0024400Y0000550D03*
X0025190D03*
X0021700Y0000600D03*
X0022490D03*
X0009200Y0013850D03*
X0009990D03*
X0027300Y0021200D03*
X0026510D03*
X0037200Y0021550D03*
X0036410D03*
X0038180Y0003380D03*
X0038970D03*
X0029100Y0004850D03*
X0029890D03*
X0032820Y0003290D03*
X0033610D03*
G54D28*
X0025700Y0009600D03*
Y0010390D03*
X0023200Y0015000D03*
Y0015790D03*
X0026555Y0019695D03*
Y0018905D03*
X0038045Y0015755D03*
Y0016545D03*
X0038400Y0014000D03*
Y0014790D03*
X0038145Y0006805D03*
Y0007595D03*
X0047900Y0024400D03*
Y0023610D03*
G54D32*
X0031435Y0006645D03*
Y0006055D03*
X0037895Y0005095D03*
Y0004505D03*
G54D33*
X0029534Y0005469D03*
Y0016492D03*
G54D34*
X0031425Y0004200D03*
X0028276Y0019160D03*
G54D35*
X0011370Y0018950D03*
X0030700Y0022150D03*
X0029700D03*
X0012150Y0001800D03*
X0013150D03*
X0031840Y0001140D03*
X0032840D03*
X0044150Y0003550D03*
Y0004550D03*
G54D36*
X0031700Y0022150D03*
X0011150Y0001800D03*
X0030840Y0001140D03*
X0044150Y0002550D03*
G54D37*
X0008300Y0011650D03*
Y0011150D03*
Y0010650D03*
X0010420D03*
Y0011150D03*
Y0011650D03*
Y0012150D03*
G54D38*
X0008300D03*
G54D39*
X0044200Y0008303D03*
Y0008106D03*
Y0007909D03*
Y0007712D03*
Y0007515D03*
Y0007318D03*
Y0007121D03*
X0045184D03*
Y0007318D03*
Y0007515D03*
Y0007712D03*
Y0007909D03*
Y0008303D03*
Y0008500D03*
X0044750Y0016303D03*
Y0016106D03*
Y0015909D03*
Y0015712D03*
Y0015515D03*
Y0015318D03*
Y0015121D03*
X0045734D03*
Y0015318D03*
Y0015515D03*
Y0015712D03*
Y0015909D03*
Y0016303D03*
Y0016500D03*
X0031090Y0016203D03*
Y0016006D03*
Y0015809D03*
Y0015612D03*
Y0015415D03*
Y0015218D03*
Y0015021D03*
X0032074D03*
Y0015218D03*
Y0015415D03*
Y0015612D03*
Y0015809D03*
Y0016203D03*
Y0016400D03*
G54D40*
X0044200Y0008500D03*
X0045184Y0008106D03*
X0044750Y0016500D03*
X0045734Y0016106D03*
X0031090Y0016400D03*
X0032074Y0016006D03*
G54D41*
X0024360Y0017740D03*
Y0018240D03*
Y0018740D03*
Y0019240D03*
Y0019740D03*
Y0020240D03*
Y0020740D03*
Y0021240D03*
Y0021740D03*
Y0022240D03*
Y0022740D03*
X0020740D03*
Y0022240D03*
Y0021740D03*
Y0021240D03*
Y0020740D03*
Y0020240D03*
Y0019740D03*
Y0019240D03*
Y0018740D03*
Y0018240D03*
Y0017740D03*
Y0017240D03*
G54D42*
X0024360D03*
G54D43*
X0019700Y0001950D03*
X0020200D03*
X0020700D03*
X0021200D03*
X0021700D03*
X0022200D03*
X0022700D03*
X0023200D03*
X0023700D03*
X0024200D03*
X0024700D03*
Y0005570D03*
X0024200D03*
X0023700D03*
X0023200D03*
X0022700D03*
X0022200D03*
X0021700D03*
X0021200D03*
X0020700D03*
X0020200D03*
X0019700D03*
X0019200D03*
G54D44*
Y0001950D03*
G54D45*
X0043800Y0022250D03*
X0042028D03*
Y0024809D03*
X0043800D03*
G54D46*
X0009500Y0020300D03*
X0011370D03*
X0013240D03*
G54D47*
X0023350Y0008550D03*
X0022170D03*
X0018200Y0015900D03*
X0019380D03*
X0026710Y0004510D03*
X0027890D03*
X0015700Y0016100D03*
X0016880D03*
X0029400Y0006300D03*
X0030580D03*
X0031050Y0018000D03*
X0029870D03*
G54D48*
X0017550Y0022081D03*
Y0018931D03*
G54D49*
X0017384Y0004600D03*
X0014628D03*
G54D84*
X0021558Y0013742D03*
Y0012758D03*
X0020708D03*
Y0013742D03*
X0023350Y0013900D03*
Y0012916D03*
X0024308Y0013892D03*
Y0012908D03*
X0003000Y0023800D03*
Y0024800D03*
Y0025800D03*
X0045500Y0027800D03*
Y0026800D03*
Y0025800D03*
X0003000Y-0002500D03*
Y-0001500D03*
Y-0000500D03*
X0045500Y-0002500D03*
Y-0003500D03*
Y-0004500D03*
G54D85*
X0005360Y0018700D03*
G54D86*
X0002900D03*
X0004180Y0016810D03*
M02*
