*
G04 Mass Parameters ***
*
G04 Image ***
*
%INC:\PROJECTS\RAGOBOTS\ROBOT\HW\DESIGN\RAGOBOT.GND*%
%ICAS*%
%MOIN*%
%IPPOS*%
%ASAXBY*%
G74*%FSLAN2X34Y34*%
*
G04 Aperture Definitions ***
*
%AMTHERMAL68*
1,1,0.1090,0,0,*
1,0,0.0850,0,0,*
21,0,0.1090,0.0500,0,0,45.0*
21,0,0.1090,0.0500,0,0,135.0*%
%AMTHERMAL73*
1,1,0.0875,0,0,*
1,0,0.0635,0,0,*
21,0,0.0875,0.0500,0,0,45.0*
21,0,0.0875,0.0500,0,0,135.0*%
%AMTHERMAL77*
1,1,0.0875,0,0,*
1,0,0.0635,0,0,*
21,0,0.0875,0.0500,0,0,46.2*
21,0,0.0875,0.0500,0,0,136.2*%
%ADD10C,0.1750*%
%ADD11O,0.0940X0.0250*%
%ADD12R,0.0940X0.0250*%
%ADD13R,0.1181X0.1181*%
%ADD14O,0.0118X0.0472*%
%ADD15O,0.0472X0.0118*%
%ADD16R,0.0472X0.0118*%
%ADD17R,0.0780X0.0720*%
%ADD18R,0.0720X0.0780*%
%ADD19C,0.0580*%
%ADD20R,0.0580X0.0580*%
%ADD21R,0.0600X0.0800*%
%ADD22R,0.0800X0.0600*%
%ADD23R,0.1575X0.1181*%
%ADD24R,0.0220X0.0220*%
%ADD25R,0.1200X0.0760*%
%ADD26R,0.1420X0.0720*%
%ADD27R,0.0400X0.0480*%
%ADD28R,0.0480X0.0400*%
%ADD29C,0.0620*%
%ADD30C,0.1700*%
%ADD31C,0.1450*%
%ADD32R,0.0315X0.0315*%
%ADD33C,0.0472*%
%ADD34C,0.1771*%
%ADD35C,0.0750*%
%ADD36R,0.0750X0.0750*%
%ADD37O,0.0860X0.0250*%
%ADD38R,0.0860X0.0250*%
%ADD39O,0.0680X0.0130*%
%ADD40R,0.0680X0.0130*%
%ADD41O,0.1000X0.0250*%
%ADD42R,0.1000X0.0250*%
%ADD43O,0.0250X0.1000*%
%ADD44R,0.0250X0.1000*%
%ADD45C,0.0787*%
%ADD46C,0.1100*%
%ADD47R,0.0480X0.0740*%
%ADD48R,0.3149X0.2362*%
%ADD49R,0.1968X0.2362*%
%ADD50C,0.0250*%
%ADD51C,0.0250*%
%ADD52C,0.0100*%
%ADD53C,0.0250*%
%ADD54C,0.0300*%
%ADD55C,0.0120*%
%ADD56C,0.0200*%
%ADD57C,0.0118*%
%ADD58C,0.0080*%
%ADD59C,0.0150*%
%ADD60R,0.1141X0.0354*%
%ADD61R,0.0708X0.0157*%
%ADD62C,0.0010*%
%ADD63C,0.2100*%
%ADD64C,0.0950*%
%ADD65R,0.0950X0.0950*%
%ADD66C,0.1000*%
%ADD67C,0.1900*%
%ADD68THERMAL68*%
%ADD69C,0.0900*%
%ADD70R,0.0900X0.0900*%
%ADD71C,0.0800*%
%ADD72R,0.1100X0.1100*%
%ADD73THERMAL73*%
%ADD74C,0.0600*%
%ADD75C,0.0500*%
%ADD76C,0.0600*%
%ADD77THERMAL77*%
%ADD78C,0.0780*%
%ADD79R,0.0780X0.0780*%
%ADD80C,0.0700*%
%ADD81C,0.1550*%
%ADD82C,0.0500*%
%ADD83C,0.0500*%
%ADD84C,0.0670*%
%ADD85C,0.1650*%
%ADD86C,0.1200*%
%ADD87R,0.1142X0.0354*%
%ADD88C,0.1260*%
%ADD89C,0.0060*%
%ADD90C,0.0039*%
%ADD91C,0.0070*%
%ADD92C,0.0098*%
%ADD93C,0.0050*%
%ADD94C,0.0130*%
%ADD95C,0.0130*%
*
G04 Plot Data ***
*
G54D52*
G01X0000570Y0019618D02*
Y0019868D01*
X0000528Y0019952D01*
X0000278D01*
Y0019618D01*
X-0000213Y0019952D02*
X-0000047D01*
X-0000005Y0019868D01*
Y0019702D01*
X0000037Y0019618D01*
X-0000255D01*
X-0000297Y0019702D01*
X-0000255Y0019785D01*
X-0000005D01*
X-0000705Y0019618D02*
Y0019868D01*
X-0000538Y0019618D02*
Y0019868D01*
X-0000580Y0019952D01*
X-0000663D01*
X-0000705Y0019868D01*
X-0000747Y0019952D01*
X-0000830D01*
X-0000872Y0019868D01*
Y0019618D01*
X-0001113Y0020118D02*
Y0019618D01*
X-0001363D01*
X-0001405Y0019702D01*
Y0019868D01*
X-0001363Y0019952D01*
X-0001113D01*
X-0001688Y0019618D02*
X-0001938D01*
X-0001980Y0019702D01*
Y0019868D01*
X-0001938Y0019952D01*
X-0001688D01*
X-0001647Y0019868D01*
Y0019785D01*
X-0001980D01*
X-0002305Y0020118D02*
Y0020119D01*
Y0020118D01*
X-0002222Y0019618D02*
X-0002388D01*
X-0002305D02*
Y0019952D01*
X-0002388D01*
X-0002672D02*
X-0002838D01*
X-0002880Y0019868D01*
X-0002963D01*
Y0019952D02*
Y0019618D01*
X-0003288Y0019868D02*
X-0003538D01*
Y0019618D02*
Y0020118D01*
X-0003205D01*
X0000592Y0022538D02*
Y0022788D01*
X0000550Y0022872D01*
X0000300D01*
Y0022538D01*
X-0000192Y0022872D02*
X-0000025D01*
X0000017Y0022788D01*
Y0022622D01*
X0000058Y0022538D01*
X-0000233D01*
X-0000275Y0022622D01*
X-0000233Y0022705D01*
X0000017D01*
X-0000517Y0022538D02*
Y0022788D01*
X-0000558Y0022872D01*
X-0000808D01*
Y0022538D02*
Y0023038D01*
X-0001092Y0022872D02*
X-0001342D01*
X-0001050Y0022538D02*
X-0001217D01*
X-0001258Y0022622D01*
Y0023038D01*
X-0001833Y0022872D02*
X-0001667D01*
X-0001625Y0022788D01*
Y0022622D01*
X-0001583Y0022538D01*
X-0001875D01*
X-0001917Y0022622D01*
X-0001875Y0022705D01*
X-0001625D01*
X-0002158Y0022538D02*
Y0022788D01*
X-0002200Y0022872D01*
X-0002450D01*
Y0022538D01*
X-0002983D02*
X-0003025Y0022622D01*
Y0022788D01*
X-0002983Y0022872D01*
X-0002733D01*
X-0002692Y0022788D01*
Y0022622D01*
X-0002733Y0022538D01*
X-0002983D01*
X-0003558Y0022705D02*
Y0022622D01*
X-0003517Y0022538D01*
X-0003350D01*
X-0003308Y0022622D01*
Y0023038D01*
X-0003267D02*
X-0003433D01*
X0000480Y0000318D02*
Y0000568D01*
X0000438Y0000652D01*
X0000188D01*
Y0000318D01*
X-0000303Y0000652D02*
X-0000137D01*
X-0000095Y0000568D01*
Y0000402D01*
X-0000053Y0000318D01*
X-0000345D01*
X-0000387Y0000402D01*
X-0000345Y0000485D01*
X-0000095D01*
X-0000795Y0000318D02*
Y0000568D01*
X-0000628Y0000318D02*
Y0000568D01*
X-0000670Y0000652D01*
X-0000753D01*
X-0000795Y0000568D01*
X-0000837Y0000652D01*
X-0000920D01*
X-0000962Y0000568D01*
Y0000318D01*
X-0001203Y0000818D02*
Y0000318D01*
X-0001453D01*
X-0001495Y0000402D01*
Y0000568D01*
X-0001453Y0000652D01*
X-0001203D01*
X-0001778Y0000318D02*
X-0002028D01*
X-0002070Y0000402D01*
Y0000568D01*
X-0002028Y0000652D01*
X-0001778D01*
X-0001737Y0000568D01*
Y0000485D01*
X-0002070D01*
X-0002395Y0000818D02*
Y0000819D01*
Y0000818D01*
X-0002312Y0000318D02*
X-0002478D01*
X-0002395D02*
Y0000652D01*
X-0002478D01*
X-0002762D02*
X-0002928D01*
X-0002970Y0000568D01*
X-0003053D01*
Y0000652D02*
Y0000318D01*
X-0003378Y0000568D02*
X-0003628D01*
Y0000318D02*
Y0000818D01*
X-0003295D01*
X0000462Y0003288D02*
Y0003538D01*
X0000420Y0003622D01*
X0000170D01*
Y0003288D01*
X-0000322Y0003622D02*
X-0000155D01*
X-0000113Y0003538D01*
Y0003372D01*
X-0000072Y0003288D01*
X-0000363D01*
X-0000405Y0003372D01*
X-0000363Y0003455D01*
X-0000113D01*
X-0000647Y0003288D02*
Y0003538D01*
X-0000688Y0003622D01*
X-0000938D01*
Y0003288D02*
Y0003788D01*
X-0001222Y0003622D02*
X-0001472D01*
X-0001180Y0003288D02*
X-0001347D01*
X-0001388Y0003372D01*
Y0003788D01*
X-0001963Y0003622D02*
X-0001797D01*
X-0001755Y0003538D01*
Y0003372D01*
X-0001713Y0003288D01*
X-0002005D01*
X-0002047Y0003372D01*
X-0002005Y0003455D01*
X-0001755D01*
X-0002288Y0003288D02*
Y0003538D01*
X-0002330Y0003622D01*
X-0002580D01*
Y0003288D01*
X-0003113D02*
X-0003155Y0003372D01*
Y0003538D01*
X-0003113Y0003622D01*
X-0002863D01*
X-0002822Y0003538D01*
Y0003372D01*
X-0002863Y0003288D01*
X-0003113D01*
X-0003688Y0003455D02*
Y0003372D01*
X-0003647Y0003288D01*
X-0003480D01*
X-0003438Y0003372D01*
Y0003788D01*
X-0003397D02*
X-0003563D01*
G54D75*
G01X0005250Y0006300D02*
X-0000290D01*
Y0015900D02*
Y0006300D01*
X0005250Y0015900D02*
X-0000290D01*
X0005250D02*
Y0006300D01*
G54D68*
X0039800Y0004500D03*
G54D73*
X0001840Y0009540D03*
X0035950Y0005500D03*
X0034900Y0003350D03*
X0033050Y0003700D03*
X0023300Y0016200D03*
X0023600Y0017200D03*
X0021800Y0018600D03*
X0026000Y0019200D03*
X0044200Y0006800D03*
X0037700Y0015100D03*
X0044000Y0015700D03*
G54D77*
X0038550Y0015950D03*
X0046550Y0013100D03*
X0011250Y0010650D03*
X0019200Y0003750D03*
X0020900Y0006900D03*
X0010050Y0006300D03*
X0043650Y0008550D03*
X0011250Y0011250D03*
Y0013050D03*
X0044250Y0019950D03*
X0045650Y0009800D03*
X0036850Y0016750D03*
X0020450Y0015100D03*
X0035650Y0012300D03*
X0031850Y0005860D03*
X0032800Y0005100D03*
X0033700Y0001300D03*
X0023450Y0000600D03*
X0023850Y0001200D03*
X0019200Y0002700D03*
X0018350Y0002250D03*
X0031950Y0007850D03*
X0007850Y0012910D03*
X0025250Y0022100D03*
Y0021550D03*
X0026000Y0020200D03*
X0028200Y0020250D03*
X0028750Y0021750D03*
X0007850Y0015400D03*
X0007150Y0019050D03*
X0029250Y0012600D03*
X0007630Y0011860D03*
X0027550Y0008700D03*
X0027750Y0010850D03*
X0033900Y0008050D03*
X0038900Y0008600D03*
X0028650Y0016950D03*
X0037700Y0018500D03*
X0037950Y0013950D03*
X0039100Y0010900D03*
X0039050Y0010150D03*
X0033850Y0012100D03*
X0032550Y0012700D03*
X0029500Y0014700D03*
X0039150Y0019700D03*
X0038750Y0007050D03*
X0004600Y0014000D03*
G54D30*
X0002900Y0018700D03*
X0004180Y0016810D03*
G54D31*
X0009500Y0020300D03*
X0011370D03*
X0013240D03*
G54D46*
X0011370Y0018950D03*
X0043800Y0022250D03*
X0042028D03*
Y0024809D03*
X0043800D03*
X0030700Y0022150D03*
X0029700D03*
X0012150Y0001800D03*
X0013150D03*
X0031840Y0001140D03*
X0032840D03*
X0044150Y0003550D03*
Y0004550D03*
G54D63*
X0031425Y0004200D03*
X0028276Y0019160D03*
X0039017Y0021492D03*
X0028790Y0001402D03*
X0013750Y0011650D03*
X0024800Y0007400D03*
Y0015900D03*
X0045760Y0000150D03*
Y0023150D03*
X-0002000Y0021300D03*
Y0002000D03*
G54D64*
X0020520Y0010030D03*
X0022300Y0011430D03*
X0000750Y0005450D03*
X0001750Y0004450D03*
Y0005450D03*
X0002750Y0004450D03*
Y0005450D03*
X0003750Y0004450D03*
Y0005450D03*
X0038180Y0000950D03*
X0039180D03*
X0040180D03*
X0041180D03*
X0042180D03*
X0048000Y0021400D03*
Y0020400D03*
Y0019400D03*
Y0018400D03*
Y0017400D03*
Y0016400D03*
Y0015400D03*
X0011900Y0004900D03*
X0010900D03*
X0009900D03*
X0008900D03*
X0007900D03*
X0006900D03*
X0005900D03*
X0004900D03*
X0048000Y0013650D03*
X0047000Y0012650D03*
X0048000D03*
X0047000Y0011650D03*
X0048000D03*
X0047000Y0010650D03*
X0048000D03*
X0047000Y0009650D03*
X0048000D03*
X0038800Y0018800D03*
X0039800Y0017800D03*
Y0018800D03*
X0040800Y0017800D03*
Y0018800D03*
X0041800Y0017800D03*
Y0018800D03*
X0042800Y0017800D03*
X0043800D03*
Y0018800D03*
X0002000Y0003000D03*
X0003000Y0002000D03*
Y0003000D03*
X0004000Y0002000D03*
Y0003000D03*
X0005000Y0002000D03*
Y0003000D03*
X0006000Y0002000D03*
X0007000D03*
Y0003000D03*
X0038800Y0005500D03*
X0039800D03*
X0040800Y0004500D03*
Y0005500D03*
X0041800Y0004500D03*
Y0005500D03*
X0002000Y0021300D03*
X0003000Y0020300D03*
Y0021300D03*
X0004000Y0020300D03*
Y0021300D03*
X0005000Y0020300D03*
Y0021300D03*
X0006000Y0020300D03*
Y0021300D03*
X0035730Y0000950D03*
Y0002300D03*
X0036730D03*
X0037730D03*
X0040180D03*
X0041180D03*
X0042180D03*
X0046550Y0001900D03*
X0047550Y0002900D03*
X0046550D03*
X0047550Y0003900D03*
X0046550D03*
X0047550Y0004900D03*
X0046550D03*
X0047550Y0005900D03*
X0046550D03*
X0026750Y0001780D03*
X0005150Y0022900D03*
X0014120Y0017430D03*
X0005150Y-0000600D03*
X0033800Y0022450D03*
X0016210Y0000780D03*
X0042600Y-0001800D03*
X0046200Y0020150D03*
X0010050Y0008450D03*
G54D65*
X0021520Y0010030D03*
X0023300Y0011430D03*
X0000750Y0004450D03*
X0037180Y0000950D03*
X0048000Y0022400D03*
X0012900Y0004900D03*
X0047000Y0013650D03*
X0038800Y0017800D03*
X0042800Y0018800D03*
X0002000Y0002000D03*
X0006000Y0003000D03*
X0038800Y0004500D03*
X0002000Y0020300D03*
X0034730Y0000950D03*
Y0002300D03*
X0039180D03*
X0047550Y0001900D03*
X0026750Y0000780D03*
X0005150Y0023900D03*
X0014120Y0016430D03*
X0005150Y0000400D03*
X0034800Y0022450D03*
X0016210Y0001780D03*
X0042600Y-0000800D03*
X0046200Y0021150D03*
X0009050Y0008450D03*
G54D66*
X0021558Y0013742D03*
Y0012758D03*
X0020708D03*
Y0013742D03*
X0023350Y0013900D03*
Y0012916D03*
X0024308Y0013892D03*
Y0012908D03*
X0003000Y0023800D03*
Y0024800D03*
Y0025800D03*
X0045500Y0027800D03*
Y0026800D03*
Y0025800D03*
X0003000Y-0002500D03*
Y-0001500D03*
Y-0000500D03*
X0045500Y-0002500D03*
Y-0003500D03*
Y-0004500D03*
G54D67*
X0005360Y0018700D03*
G54D69*
X0039600Y0015150D03*
Y0014150D03*
Y0013150D03*
Y0012150D03*
Y0011150D03*
Y0010150D03*
Y0009150D03*
Y0008150D03*
Y0007150D03*
X0042600D03*
Y0008150D03*
Y0009150D03*
Y0010150D03*
Y0011150D03*
Y0012150D03*
Y0013150D03*
Y0014150D03*
Y0015150D03*
Y0016150D03*
G54D70*
X0039600D03*
G54D71*
X0029534Y0005469D03*
Y0016492D03*
G54D72*
X0031700Y0022150D03*
X0011150Y0001800D03*
X0030840Y0001140D03*
X0044150Y0002550D03*
G54D74*
X0033350Y0016650D03*
X0031850Y0016550D03*
X0006180Y0009050D03*
X0008600Y0010300D03*
X0007050Y0014500D03*
X0007550Y0012190D03*
X0006700Y0009970D03*
X0007370Y0011630D03*
G54D76*
X0031800Y0009650D03*
X0015400Y0006600D03*
X0016800Y0006200D03*
X0038600Y0007750D03*
X0013100Y0008700D03*
X0014630Y0006400D03*
X0040900Y0015100D03*
X0040850Y0012730D03*
X0021950Y0007000D03*
X0022150Y0003650D03*
X0003750Y0006450D03*
X0003000Y0022400D03*
X0031400Y0018800D03*
X0019700D03*
X0037900Y0005850D03*
X0009950Y0016500D03*
X0023000Y0019340D03*
X0021550Y0003450D03*
X0014000Y0009400D03*
X0007000Y0006600D03*
X0031400Y0013200D03*
X0008900Y0010900D03*
X0012600Y0014400D03*
X0046690Y0020840D03*
X0034200Y0010150D03*
X0030000Y0017430D03*
X0029960Y0006740D03*
X0033700Y0016460D03*
X0024000Y0011000D03*
X0040350Y0009400D03*
X0040300Y0006300D03*
X0037550Y0018950D03*
X0043030Y0011900D03*
X0031200Y0007600D03*
X0013400Y0010200D03*
X0007670Y0012500D03*
X0008800Y0007620D03*
X0008600Y0018600D03*
X0036030Y0003990D03*
X0041390Y0019750D03*
X0032600Y0015160D03*
X0003800Y0008220D03*
X0003200Y0014600D03*
X0016420Y0020670D03*
X0040500Y0016400D03*
X0040600Y0014400D03*
X0029100Y0015830D03*
X0005200Y0010700D03*
X0038580Y0003720D03*
X0045000Y0021600D03*
X0046880Y0019800D03*
X0030000Y0001400D03*
X0029050Y0007000D03*
X0039690Y0001100D03*
X0030400Y0016000D03*
X0001850Y0014000D03*
X0001800Y0011900D03*
X0038600Y0003000D03*
X0041200Y0017390D03*
X0025800Y0007800D03*
X0007000Y0011050D03*
X0004360Y0007560D03*
X0033000Y0016260D03*
Y0016850D03*
X0034860Y0016590D03*
X0005800Y0015600D03*
X0042810Y0011600D03*
X0022000Y0020480D03*
Y0019150D03*
X0029200Y0004300D03*
X0029760Y0012990D03*
X0020800Y0002700D03*
X0018900Y0004600D03*
X0037640Y0017600D03*
X0037600Y0013150D03*
X0035750Y0008650D03*
X0033950Y0014400D03*
X0033270Y0011710D03*
X0033650Y0009400D03*
X0041600Y0015600D03*
X0044100Y0000300D03*
X0029650Y0008900D03*
X0037350Y0016600D03*
X0027200Y0007000D03*
X0034050Y0001450D03*
X0033250Y0011150D03*
X0031300Y0011000D03*
X0029910Y0006240D03*
X0027400Y0011400D03*
X0031700Y0014600D03*
X0035600Y0019900D03*
X0014200Y0020000D03*
X0005000Y0011250D03*
X0038060Y0019710D03*
X0033650Y0015750D03*
X0035600Y0015800D03*
X0036200Y0015150D03*
X0025850Y0008150D03*
X0023400Y0003200D03*
X0035900Y0014650D03*
X0032800Y0007400D03*
X0031490Y0017800D03*
X0046950Y0015050D03*
X0032500Y0014600D03*
X0034240Y0019600D03*
X0007800Y0006750D03*
X0006580Y0010630D03*
X0034350Y0018850D03*
X0030000Y0020600D03*
X0032600Y0022700D03*
X0034150Y0013650D03*
X0019400Y0020400D03*
X0023410Y0018540D03*
X0027850Y0009200D03*
X0029370Y0015030D03*
X0027800Y0009900D03*
X0035680Y0018800D03*
X0005230Y0013630D03*
X0015920Y0012080D03*
X0044550Y0012850D03*
X0029960Y0015100D03*
X0038300Y0018760D03*
X0036190Y0008650D03*
X0036240Y0013150D03*
X0032150Y0013650D03*
X0002600Y0010400D03*
X0003550Y0012370D03*
X0031790Y0012600D03*
X0030200Y0002000D03*
X0022400Y0018440D03*
X0032600Y0019200D03*
X0035790Y0009650D03*
X0046280Y0016200D03*
X0027850Y0014850D03*
X0042350Y0008700D03*
X0019800Y0021910D03*
X0022390Y0015210D03*
X0040800Y0021350D03*
X0040600Y0006150D03*
X0039600Y0011650D03*
X0033000Y0006600D03*
X0036000Y0017750D03*
X0031130Y0012950D03*
X0022650Y0017740D03*
X0026450Y0014600D03*
X0008600Y0013400D03*
X0012200Y0017600D03*
X0047250Y0007100D03*
X0045880Y0007520D03*
X0022400Y0016170D03*
X0021620Y0021500D03*
X0039050Y0007200D03*
X0031440Y0007000D03*
X0035600Y0005150D03*
X0025450Y0002800D03*
X0024170Y0003520D03*
X0018810Y0015900D03*
X0022200Y0020900D03*
X0034000Y0007150D03*
X0027800Y0012540D03*
X0029780Y0011150D03*
X0034950Y0007650D03*
X0035800Y0006000D03*
X0031200Y0013930D03*
X0032600Y0010600D03*
X0031600D03*
X0029600Y0010200D03*
X0035740Y0010490D03*
X0040700Y0016000D03*
X0033100Y0007700D03*
X0032800Y0007900D03*
X0037560Y0003410D03*
X0038350Y0010400D03*
X0046800Y0012200D03*
X0023650Y0017910D03*
X0026550Y0003150D03*
X0029500Y0007400D03*
X0002200Y0011200D03*
X0010600Y0007600D03*
X0015660Y0010060D03*
M02*
