*
G04 Mass Parameters ***
*
G04 Image ***
*
%INC:\PROJECTS\RAGOBOTS\ROBOT\HW\DESIGN\RAGOBOT.BOT*%
%ICAS*%
%MOIN*%
%IPPOS*%
%ASAXBY*%
G74*%FSLAN2X34Y34*%
*
G04 Aperture Definitions ***
*
%AMTHERMAL68*
1,1,0.1090,0,0,*
1,0,0.0850,0,0,*
21,0,0.1090,0.0500,0,0,45.0*
21,0,0.1090,0.0500,0,0,135.0*%
%AMTHERMAL73*
1,1,0.0875,0,0,*
1,0,0.0635,0,0,*
21,0,0.0875,0.0500,0,0,45.0*
21,0,0.0875,0.0500,0,0,135.0*%
%AMTHERMAL77*
1,1,0.0875,0,0,*
1,0,0.0635,0,0,*
21,0,0.0875,0.0500,0,0,46.2*
21,0,0.0875,0.0500,0,0,136.2*%
%ADD10C,0.1750*%
%ADD11O,0.0940X0.0250*%
%ADD12R,0.0940X0.0250*%
%ADD13R,0.1181X0.1181*%
%ADD14O,0.0118X0.0472*%
%ADD15O,0.0472X0.0118*%
%ADD16R,0.0472X0.0118*%
%ADD17R,0.0780X0.0720*%
%ADD18R,0.0720X0.0780*%
%ADD19C,0.0580*%
%ADD20R,0.0580X0.0580*%
%ADD21R,0.0600X0.0800*%
%ADD22R,0.0800X0.0600*%
%ADD23R,0.1575X0.1181*%
%ADD24R,0.0220X0.0220*%
%ADD25R,0.1200X0.0760*%
%ADD26R,0.1420X0.0720*%
%ADD27R,0.0400X0.0480*%
%ADD28R,0.0480X0.0400*%
%ADD29C,0.0620*%
%ADD30C,0.1700*%
%ADD31C,0.1450*%
%ADD32R,0.0315X0.0315*%
%ADD33C,0.0472*%
%ADD34C,0.1771*%
%ADD35C,0.0750*%
%ADD36R,0.0750X0.0750*%
%ADD37O,0.0860X0.0250*%
%ADD38R,0.0860X0.0250*%
%ADD39O,0.0680X0.0130*%
%ADD40R,0.0680X0.0130*%
%ADD41O,0.1000X0.0250*%
%ADD42R,0.1000X0.0250*%
%ADD43O,0.0250X0.1000*%
%ADD44R,0.0250X0.1000*%
%ADD45C,0.0787*%
%ADD46C,0.1100*%
%ADD47R,0.0480X0.0740*%
%ADD48R,0.3149X0.2362*%
%ADD49R,0.1968X0.2362*%
%ADD50C,0.0250*%
%ADD51C,0.0250*%
%ADD52C,0.0100*%
%ADD53C,0.0250*%
%ADD54C,0.0300*%
%ADD55C,0.0120*%
%ADD56C,0.0200*%
%ADD57C,0.0118*%
%ADD58C,0.0080*%
%ADD59C,0.0150*%
%ADD60R,0.1141X0.0354*%
%ADD61R,0.0708X0.0157*%
%ADD62C,0.0010*%
%ADD63C,0.2100*%
%ADD64C,0.0950*%
%ADD65R,0.0950X0.0950*%
%ADD66C,0.1000*%
%ADD67C,0.1900*%
%ADD68THERMAL68*%
%ADD69C,0.0900*%
%ADD70R,0.0900X0.0900*%
%ADD71C,0.0800*%
%ADD72R,0.1100X0.1100*%
%ADD73THERMAL73*%
%ADD74C,0.0600*%
%ADD75C,0.0500*%
%ADD76C,0.0600*%
%ADD77THERMAL77*%
%ADD78C,0.0780*%
%ADD79R,0.0780X0.0780*%
%ADD80C,0.0700*%
%ADD81C,0.1550*%
%ADD82C,0.0500*%
%ADD83C,0.0500*%
%ADD84C,0.0670*%
%ADD85C,0.1650*%
%ADD86C,0.1200*%
%ADD87R,0.1142X0.0354*%
%ADD88C,0.1260*%
%ADD89C,0.0060*%
%ADD90C,0.0039*%
%ADD91C,0.0070*%
%ADD92C,0.0098*%
%ADD93C,0.0050*%
%ADD94C,0.0130*%
%ADD95C,0.0130*%
*
G04 Plot Data ***
*
G54D52*
G01X0010900Y0004900D02*
X0013100Y0007100D01*
Y0008700D01*
X0015400Y0006600D02*
X0016800D01*
Y0008000D01*
X0020708Y0011908D01*
Y0012758D01*
Y0011908D01*
X0016800Y0008000D01*
Y0006200D01*
X0013100Y0008700D02*
Y0008900D01*
X0013900Y0009700D01*
X0014400D01*
X0014600Y0009500D01*
Y0006655D01*
X0014630Y0006625D01*
Y0006400D01*
X0021950Y0007000D02*
Y0003850D01*
X0022150Y0003650D01*
X0007000Y0006600D02*
Y0011050D01*
X0030519Y0013343D02*
X0031050D01*
X0031193Y0013200D01*
X0031400D01*
X0008900Y0010900D02*
X0010000Y0009800D01*
X0013400D01*
X0013700Y0010100D01*
Y0010300D01*
X0013400Y0010600D01*
X0013250D01*
X0012600Y0011250D01*
Y0014400D01*
X0021558Y0013742D02*
X0020641Y0012825D01*
X0020708Y0012758D01*
X0034200Y0010150D02*
Y0012250D01*
X0033050Y0013400D01*
X0031600D01*
X0031400Y0013600D01*
X0031136D01*
X0031000Y0013736D01*
X0030519D01*
X0033700Y0016460D02*
Y0017040D01*
X0032340Y0018400D01*
X0029590D01*
X0028790Y0017600D01*
X0026800D01*
X0026000Y0016800D01*
Y0013000D01*
X0024000Y0011000D01*
X0040800Y0017800D02*
Y0016800D01*
X0041200Y0016400D01*
Y0015600D01*
X0041400Y0015400D01*
Y0014600D01*
X0041300Y0014500D01*
Y0004100D01*
X0040600Y0003400D01*
Y0001370D01*
X0040180Y0000950D01*
X0030519Y0012949D02*
X0030905D01*
X0030906Y0012950D01*
X0031130D01*
X0005000Y0002000D02*
X0006000Y0001000D01*
X0015800D01*
X0016000Y0001200D01*
X0022690D01*
X0025290Y0003800D01*
X0028600D01*
X0029400Y0003000D01*
X0033000D01*
X0035750Y0005750D01*
X0036200D01*
Y0004160D01*
X0036030Y0003990D01*
X0040350Y0009400D02*
X0040400Y0009350D01*
Y0006625D01*
X0040300Y0006525D01*
Y0006300D01*
X0031200Y0007600D02*
X0031037Y0007437D01*
X0030519D01*
X0007670Y0012500D02*
X0007700Y0012470D01*
Y0012450D01*
X0007900Y0012250D01*
Y0008700D01*
X0008150Y0008450D01*
Y0008270D01*
X0008800Y0007620D01*
X0028511Y0006847D02*
X0027353D01*
Y0006353D01*
X0023000Y0002000D01*
X0018100D01*
X0017900Y0002200D01*
X0015000D01*
X0014000Y0001200D01*
X0008650D01*
X0008450Y0001400D01*
Y0006650D01*
X0007400Y0007700D01*
Y0011000D01*
X0006900Y0011500D01*
Y0013750D01*
X0007450Y0014300D01*
Y0014700D01*
X0006900Y0015250D01*
Y0019400D01*
X0006000Y0020300D01*
X0036190Y0008650D02*
Y0008425D01*
X0036200Y0008415D01*
Y0004160D01*
X0036030Y0003990D01*
X0042600Y-0001800D02*
X0043550D01*
X0044750Y-0003000D01*
X0045800D01*
X0046000Y-0002800D01*
Y-0002000D01*
X0043600Y0000400D01*
Y0008100D01*
X0043400Y0008300D01*
Y0010400D01*
X0043200Y0010600D01*
X0042050D01*
X0041850Y0010800D01*
Y0017170D01*
X0041390Y0017630D01*
Y0019750D01*
X0040500Y0016400D02*
Y0016175D01*
X0040450Y0016125D01*
Y0014550D01*
X0040600Y0014400D01*
X0028511Y0015114D02*
X0028150D01*
X0028000Y0015264D01*
Y0016000D01*
X0028150Y0016150D01*
X0028950D01*
X0029100Y0016000D01*
Y0015830D01*
X0038580Y0003720D02*
X0039180Y0003120D01*
Y0002300D01*
X0033350Y0016650D02*
X0033250Y0016550D01*
X0031850D01*
X0035730Y0002300D02*
X0035320Y0002710D01*
X0034200D01*
X0033890Y0002400D01*
X0031000D01*
X0030000Y0001400D01*
X0027800Y0009900D02*
X0028000Y0010100D01*
Y0010634D01*
X0028150Y0010784D01*
X0028511D01*
X0043800Y0018800D02*
X0046010D01*
X0046630Y0019420D01*
Y0020400D01*
X0047000Y0020770D01*
Y0021000D01*
X0046800Y0021200D01*
Y0023760D01*
X0045000Y0025560D01*
Y0027100D01*
X0045200Y0027300D01*
X0046100D01*
X0047590Y0025810D01*
Y0017450D01*
X0047440Y0017300D01*
Y0016890D01*
X0047350Y0016800D01*
Y0015450D01*
X0047390Y0015410D01*
Y0015350D01*
X0047590Y0015150D01*
Y0010240D01*
X0047000Y0009650D01*
X0028511Y0007241D02*
X0029000D01*
X0029050Y0007191D01*
Y0007000D01*
X0039690Y0001100D02*
X0040180Y0001590D01*
Y0002300D01*
X0030519Y0015705D02*
Y0015941D01*
X0030459Y0016000D01*
X0030400D01*
X0042800Y0017800D02*
Y0016960D01*
X0042190Y0016350D01*
Y0015950D01*
X0042540Y0015600D01*
X0043050D01*
X0047000Y0011650D01*
X0028511Y0008028D02*
X0027998D01*
X0027800Y0007830D01*
X0025800D01*
Y0007800D01*
X0030519Y0007044D02*
X0031044D01*
X0031500Y0007500D01*
Y0007900D01*
X0031700Y0008100D01*
X0032050D01*
X0032250Y0007900D01*
Y0006500D01*
X0032450Y0006300D01*
X0033200D01*
X0033400Y0006500D01*
Y0007000D01*
X0034000Y0007600D01*
X0034150D01*
X0034650Y0008100D01*
Y0010550D01*
X0034600Y0010600D01*
Y0016000D01*
X0034400Y0016200D01*
Y0017320D01*
X0033000Y0018720D01*
Y0019320D01*
X0032720Y0019600D01*
X0030060D01*
X0028800Y0020860D01*
X0028700D01*
X0028650Y0020910D01*
X0028300D01*
X0026610Y0022600D01*
X0019270D01*
X0015870Y0019200D01*
X0013400D01*
X0013000Y0019600D01*
X0010800D01*
X0010600Y0019800D01*
Y0021200D01*
X0010400Y0021400D01*
X0008500D01*
X0008400Y0021300D01*
X0006000D01*
X0043800Y0017800D02*
X0047000Y0014600D01*
Y0013650D01*
X0034860Y0016590D02*
Y0018660D01*
X0035920Y0019720D01*
Y0019990D01*
X0033800Y0022110D01*
Y0022450D01*
X0042028Y0024809D02*
X0041400Y0024180D01*
Y0022780D01*
X0040200Y0021580D01*
Y0020700D01*
X0039800Y0020300D01*
X0036800D01*
X0036600Y0020100D01*
Y0018730D01*
X0035600Y0017730D01*
Y0016590D01*
X0035210Y0016200D01*
Y0006610D01*
X0034200Y0005600D01*
X0030200D01*
X0029800Y0006000D01*
X0029453D01*
X0029000Y0006453D01*
X0028511D01*
X0030519Y0014918D02*
X0030381Y0014780D01*
X0030080D01*
X0030000Y0014700D01*
Y0013890D01*
X0029760Y0013650D01*
Y0012990D01*
X0038800Y0005500D02*
X0038300Y0005000D01*
Y0004000D01*
X0039180Y0003120D01*
Y0002300D01*
X0029370Y0015030D02*
X0029290Y0014950D01*
X0029279D01*
X0029050Y0014721D01*
X0028511D01*
X0037640Y0017600D02*
X0038000Y0017240D01*
Y0014250D01*
X0038200Y0014050D01*
Y0013750D01*
X0037600Y0013150D01*
X0033650Y0009400D02*
Y0011330D01*
X0033030Y0011950D01*
X0032500D01*
X0032300Y0012150D01*
Y0013000D01*
X0032100Y0013200D01*
X0031193D01*
X0031050Y0013343D01*
X0030519D01*
Y0012949D02*
X0030905D01*
X0030906Y0012950D01*
X0031130D01*
X0033270Y0011710D02*
X0033650Y0011330D01*
Y0009400D01*
X0045500Y-0002500D02*
X0043400Y-0000400D01*
Y0004940D01*
X0041600Y0006740D01*
Y0015600D01*
X0041800Y0018800D02*
Y0018400D01*
X0042300Y0017900D01*
Y0016890D01*
X0042020Y0016610D01*
Y0013970D01*
X0042390Y0013600D01*
X0043800D01*
X0044000Y0013400D01*
Y0011400D01*
X0044800Y0010600D01*
Y0001000D01*
X0044100Y0000300D01*
X0025850Y0008150D02*
X0026100Y0008400D01*
X0028000D01*
X0028022Y0008422D01*
X0028511D01*
X0029650Y0008900D02*
X0029425D01*
X0029340Y0008815D01*
X0028511D01*
X0037350Y0016600D02*
Y0017700D01*
X0038050Y0018400D01*
Y0018900D01*
X0038400Y0019250D01*
X0039950D01*
X0040210Y0018990D01*
Y0018420D01*
X0040000Y0018210D01*
X0039630D01*
X0039390Y0017970D01*
Y0017110D01*
X0040010Y0016490D01*
Y0009950D01*
X0039660Y0009600D01*
X0039350D01*
X0039150Y0009400D01*
Y0008900D01*
X0039350Y0008700D01*
X0039810D01*
X0040010Y0008500D01*
Y0006900D01*
X0039860Y0006750D01*
Y0006170D01*
X0039390Y0005700D01*
Y0004290D01*
X0039770Y0003910D01*
Y0001600D01*
X0039570Y0001400D01*
X0038910D01*
X0038770Y0001260D01*
Y0000600D01*
X0038970Y0000400D01*
X0039480D01*
X0044380Y-0004500D01*
X0045500D01*
X0028511Y0006847D02*
X0027353D01*
X0027200Y0007000D01*
X0033250Y0011150D02*
X0032632Y0011768D01*
X0030519D01*
X0031300Y0011000D02*
X0030925Y0011374D01*
X0030519D01*
X0029910Y0006240D02*
X0029714Y0006436D01*
Y0006844D01*
X0029914Y0007044D01*
X0030519D01*
X0027400Y0011400D02*
X0027625D01*
X0027796Y0011571D01*
X0028511D01*
Y0007634D02*
X0027957D01*
X0027922Y0007600D01*
X0027000D01*
X0025800Y0006400D01*
X0024000D01*
X0023800Y0006600D01*
Y0009130D01*
X0021800Y0011130D01*
Y0011600D01*
X0022200Y0012000D01*
Y0014120D01*
X0021720Y0014600D01*
X0018000D01*
X0014400Y0018200D01*
X0010210D01*
X0010200Y0018210D01*
Y0020550D01*
X0009750Y0021000D01*
X0009250D01*
X0008960Y0020710D01*
X0005520D01*
X0005500Y0020690D01*
Y0020090D01*
X0005210Y0019800D01*
X0004680D01*
X0004500Y0019980D01*
Y0020800D01*
X0005000Y0021300D01*
X0031700Y0014600D02*
X0031050D01*
X0030974Y0014524D01*
X0030519D01*
X0035600Y0019900D02*
Y0019700D01*
X0034500Y0018600D01*
X0034200D01*
X0034000Y0018800D01*
Y0019080D01*
X0033080Y0020000D01*
X0030250D01*
X0028950Y0021300D01*
X0028750D01*
X0027050Y0023000D01*
X0017200D01*
X0014200Y0020000D01*
X0003000Y-0002500D02*
X0002400Y-0001900D01*
Y-0000210D01*
X0002600Y-0000010D01*
X0005820D01*
X0006150Y0000320D01*
X0023750D01*
X0023800Y0000370D01*
X0024200D01*
X0026430Y0002600D01*
X0033800D01*
X0034200Y0003000D01*
X0035420D01*
X0036600Y0004180D01*
Y0013200D01*
X0035400Y0014400D01*
Y0015600D01*
X0035600Y0015800D01*
X0036200Y0015150D02*
X0037000Y0014350D01*
Y0002800D01*
X0037150Y0002650D01*
Y0001800D01*
X0036950Y0001600D01*
X0034600D01*
X0033400Y0000400D01*
X0028200D01*
X0027400Y0001200D01*
X0026400D01*
X0025350Y0000150D01*
X0006740D01*
X0006400Y-0000190D01*
X0003310D01*
X0003000Y-0000500D01*
X0028511Y0008422D02*
X0028022D01*
X0028000Y0008400D01*
X0026100D01*
X0025850Y0008150D01*
X0023400Y0003200D02*
X0021000D01*
X0018850Y0005350D01*
X0011750D01*
X0011450Y0005050D01*
Y0004600D01*
X0011250Y0004400D01*
X0010400D01*
X0009900Y0004900D01*
X0045500Y0027800D02*
X0044600D01*
X0043200Y0026400D01*
Y0020830D01*
X0043300Y0020730D01*
Y0018500D01*
X0043100Y0018300D01*
X0042500D01*
X0042300Y0018500D01*
Y0019910D01*
X0041200Y0021010D01*
Y0021400D01*
X0041000Y0021600D01*
X0040600D01*
X0040400Y0021400D01*
Y0020600D01*
X0039800Y0020000D01*
X0037000D01*
X0036800Y0019800D01*
Y0018550D01*
X0036600Y0018350D01*
Y0016150D01*
X0035900Y0015450D01*
Y0014650D01*
X0030519Y0009800D02*
X0031000D01*
X0031050Y0009750D01*
Y0009550D01*
X0032450Y0008150D01*
Y0007750D01*
X0032800Y0007400D01*
X0030519Y0015311D02*
X0030880D01*
X0031000Y0015431D01*
Y0017310D01*
X0031490Y0017800D01*
X0045500Y0025800D02*
X0047000Y0024300D01*
Y0021460D01*
X0047200Y0021260D01*
Y0019400D01*
X0046950Y0019150D01*
Y0015050D01*
X0007800Y0006750D02*
X0007250Y0006200D01*
X0006900D01*
X0006700Y0006400D01*
Y0009200D01*
X0006400Y0009500D01*
Y0010450D01*
X0006580Y0010630D01*
X0031700Y0022150D02*
X0032550Y0023000D01*
X0032800D01*
X0033000Y0022800D01*
Y0020400D01*
X0034350Y0019050D01*
Y0018850D01*
X0034150Y0013650D02*
Y0013875D01*
X0034200Y0013925D01*
Y0017000D01*
X0032000Y0019200D01*
X0029800D01*
X0028500Y0020500D01*
X0022900D01*
X0022700Y0020300D01*
Y0018200D01*
X0022500Y0018000D01*
X0021800D01*
X0019400Y0020400D01*
X0028511Y0009209D02*
X0028075D01*
X0028066Y0009200D01*
X0027850D01*
X0029370Y0015030D02*
X0029290Y0014950D01*
X0029279D01*
X0029050Y0014721D01*
X0028511D01*
X0039800Y0017800D02*
Y0017050D01*
X0040250Y0016600D01*
Y0009700D01*
X0040100Y0009550D01*
Y0009250D01*
X0040200Y0009150D01*
Y0006700D01*
X0040050Y0006550D01*
Y0005950D01*
X0040300Y0005700D01*
Y0003920D01*
X0040180Y0003800D01*
Y0002300D01*
X0027800Y0009900D02*
X0028000Y0010100D01*
Y0010634D01*
X0028150Y0010784D01*
X0028511D01*
X0007000Y0002000D02*
X0006500Y0002500D01*
X0001900D01*
X0000200Y0004200D01*
Y0021710D01*
X0002800Y0024310D01*
X0005610D01*
X0006750Y0023170D01*
X0033670D01*
X0034300Y0022540D01*
Y0022100D01*
X0036200Y0020200D01*
Y0019320D01*
X0035680Y0018800D01*
X0047550Y0005900D02*
X0048000Y0005450D01*
Y0003600D01*
X0047800Y0003400D01*
X0045600D01*
X0045400Y0003600D01*
Y0012000D01*
X0044550Y0012850D01*
X0029960Y0015100D02*
Y0015000D01*
X0029800Y0014840D01*
Y0014550D01*
X0029500Y0014250D01*
Y0012700D01*
X0030038Y0012162D01*
X0030519D01*
X0038300Y0018760D02*
Y0014300D01*
X0038400Y0014200D01*
Y0013500D01*
X0037200Y0012300D01*
Y0003320D01*
X0037320Y0003200D01*
Y0002080D01*
X0037600Y0001800D01*
Y0000600D01*
X0037500Y0000500D01*
X0035180D01*
X0034730Y0000950D01*
X0036190Y0008650D02*
Y0012875D01*
X0036240Y0012925D01*
Y0013150D01*
X0002600Y0010400D02*
X0003550Y0011350D01*
Y0012370D01*
X0030519Y0012555D02*
X0031000D01*
X0031044Y0012600D01*
X0031790D01*
X0022400Y0018440D02*
Y0020500D01*
X0022600Y0020700D01*
X0028550D01*
X0028600Y0020650D01*
X0028750D01*
X0030000Y0019400D01*
X0032400D01*
X0032600Y0019200D01*
X0046280Y0016200D02*
X0044180Y0018300D01*
X0043600D01*
X0043300Y0018000D01*
Y0016850D01*
X0042600Y0016150D01*
X0028511Y0014327D02*
X0028150D01*
X0028000Y0014477D01*
Y0014700D01*
X0027850Y0014850D01*
X0042350Y0008700D02*
X0042100Y0008950D01*
Y0009650D01*
X0042600Y0010150D01*
X0019800Y0021910D02*
X0018600Y0020710D01*
Y0019000D01*
X0022390Y0015210D01*
X0040800Y0021350D02*
Y0020620D01*
X0040380Y0020200D01*
Y0016920D01*
X0041000Y0016300D01*
Y0015530D01*
X0041200Y0015330D01*
Y0015000D01*
X0041000Y0014800D01*
Y0014400D01*
X0040600Y0014000D01*
Y0006150D01*
X0039600Y0015150D02*
X0039100Y0014650D01*
Y0011950D01*
X0039400Y0011650D01*
X0039600D01*
X0033000Y0006600D02*
Y0007180D01*
X0033600Y0007780D01*
X0034000D01*
X0034150Y0007930D01*
Y0009700D01*
X0034450Y0010000D01*
Y0010350D01*
X0034400Y0010400D01*
Y0012500D01*
X0033000Y0013900D01*
Y0015380D01*
X0032710Y0015670D01*
X0032070D01*
X0031510Y0016230D01*
Y0016830D01*
X0032240Y0017560D01*
Y0017960D01*
X0032000Y0018200D01*
X0030400D01*
X0029600Y0017400D01*
X0027800D01*
X0027600Y0017200D01*
Y0014200D01*
X0027867Y0013933D01*
X0028511D01*
X0030840Y0001140D02*
X0031500Y0001800D01*
X0036000D01*
X0036200Y0002000D01*
Y0003000D01*
X0036800Y0003600D01*
Y0013300D01*
X0035600Y0014500D01*
Y0015450D01*
X0036000Y0015850D01*
Y0017750D01*
X0028511Y0008028D02*
X0027998D01*
X0027800Y0007830D01*
X0025800D01*
X0022720Y0010910D01*
Y0011700D01*
X0022380Y0012040D01*
Y0014420D01*
X0022000Y0014800D01*
X0018800D01*
X0015200Y0018400D01*
X0010950D01*
X0010400Y0018950D01*
Y0020800D01*
X0010000Y0021200D01*
X0009000D01*
X0008680Y0020880D01*
X0005400D01*
X0005290Y0020770D01*
Y0020590D01*
X0005000Y0020300D01*
X0031130Y0012950D02*
X0030906D01*
X0030905Y0012949D01*
X0030519D01*
X0022650Y0017740D02*
Y0014800D01*
X0022560Y0014710D01*
Y0012180D01*
X0022890Y0011850D01*
Y0011000D01*
X0023490Y0010400D01*
X0026000D01*
X0026450Y0010850D01*
Y0014600D01*
X0045500Y0026800D02*
X0047410Y0024890D01*
Y0017800D01*
X0047260Y0017650D01*
Y0017100D01*
X0047160Y0017000D01*
Y0015300D01*
X0047410Y0015050D01*
Y0011400D01*
X0047210Y0011200D01*
X0046820D01*
X0046590Y0010970D01*
Y0008600D01*
X0047250Y0007940D01*
Y0007100D01*
X0022400Y0016170D02*
Y0017000D01*
X0019141Y0020258D01*
Y0020541D01*
X0020100Y0021500D01*
X0021620D01*
X0026750Y0000780D02*
X0027170D01*
X0027750Y0000200D01*
X0038400D01*
X0038600Y0000400D01*
Y0001400D01*
X0039000Y0001800D01*
X0039450D01*
X0039600Y0001950D01*
Y0003800D01*
X0039220Y0004180D01*
Y0006805D01*
X0039050Y0006975D01*
Y0007200D01*
X0035600Y0005150D02*
X0033250Y0002800D01*
X0025450D01*
X0024170Y0003520D02*
X0022200Y0005490D01*
Y0010400D01*
X0021600Y0011000D01*
Y0011800D01*
X0022000Y0012200D01*
Y0014000D01*
X0021600Y0014400D01*
X0016150D01*
X0014120Y0016430D01*
X0018810Y0015900D02*
X0018400Y0016310D01*
Y0020960D01*
X0019640Y0022200D01*
X0021400D01*
X0022200Y0021400D01*
Y0020900D01*
X0005150Y0023900D02*
X0006050Y0023000D01*
X0011600D01*
X0013910Y0020690D01*
Y0019800D01*
X0014110Y0019600D01*
X0015000D01*
X0018200Y0022800D01*
X0026850D01*
X0028540Y0021110D01*
X0028750D01*
X0028800Y0021060D01*
X0028850D01*
X0030110Y0019800D01*
X0032860D01*
X0033400Y0019260D01*
Y0019140D01*
X0034600Y0017940D01*
Y0016340D01*
X0034800Y0016140D01*
Y0010800D01*
X0034850Y0010750D01*
Y0008000D01*
X0034000Y0007150D01*
X0027800Y0012540D02*
Y0012365D01*
X0028000Y0012165D01*
Y0012115D01*
X0028150Y0011965D01*
X0028511D01*
X0029780Y0011150D02*
X0029555D01*
X0029527Y0011178D01*
X0028511D01*
X0042028Y0024809D02*
X0041400Y0024180D01*
Y0021200D01*
X0042800Y0019800D01*
Y0018800D01*
X0034800Y0022450D02*
X0036400Y0020850D01*
Y0018800D01*
X0035200Y0017600D01*
Y0016560D01*
X0035040Y0016400D01*
Y0007740D01*
X0034950Y0007650D01*
X0031200Y0013930D02*
X0031000Y0014130D01*
X0030519D01*
X0029600Y0010200D02*
X0029240D01*
X0029050Y0010390D01*
X0028511D01*
Y0006059D02*
X0029050D01*
X0029279Y0005830D01*
X0029690D01*
X0030120Y0005400D01*
X0035000D01*
X0035400Y0005800D01*
Y0010150D01*
X0035740Y0010490D01*
X0033100Y0007700D02*
Y0010000D01*
X0032900Y0010200D01*
X0031590D01*
X0031203Y0010587D01*
X0030519D01*
X0032800Y0007900D02*
Y0009800D01*
X0032600Y0010000D01*
X0031243D01*
X0031050Y0010193D01*
X0030519D01*
X0037560Y0003410D02*
Y0009610D01*
X0038350Y0010400D01*
X0047000Y0011650D02*
X0046400Y0011050D01*
Y0008400D01*
X0047000Y0007800D01*
Y0004350D01*
X0046550Y0003900D01*
X0029500Y0007400D02*
X0030000Y0007900D01*
Y0010821D01*
X0030160Y0010981D01*
X0030519D01*
G54D53*
G01X0021520Y0010030D02*
Y0005800D01*
X0015000D01*
Y0012420D01*
X0013600Y0013820D01*
Y0016750D01*
X0012400Y0017950D01*
X0011400D01*
X0009950Y0016500D01*
X0023300Y0011430D02*
Y0011900D01*
X0022810Y0012390D01*
Y0014210D01*
X0022900Y0014300D01*
Y0014350D01*
X0022950Y0014400D01*
Y0016850D01*
X0023000Y0016900D01*
Y0019340D01*
X0021550Y0003450D02*
Y0003825D01*
X0021520Y0003855D01*
Y0010030D01*
Y0005800D01*
X0015000D01*
Y0006000D01*
X0014000D01*
Y0009400D01*
X0006150Y0009080D02*
X0006180Y0009050D01*
G54D54*
G01X0009050Y0008450D02*
X0008200Y0009300D01*
Y0019000D01*
X0009500Y0020300D01*
X0038180Y0000950D02*
Y0001580D01*
X0038400Y0001800D01*
Y0002600D01*
X0038000Y0003000D01*
Y0009450D01*
X0038700Y0010150D01*
Y0015600D01*
X0038900Y0015800D01*
Y0016100D01*
X0038800Y0016200D01*
Y0017800D01*
X0003000Y0022400D02*
X0002000D01*
X0001400Y0021800D01*
Y0020900D01*
X0002000Y0020300D01*
X0024308Y0013892D02*
X0023825Y0014375D01*
Y0014525D01*
X0023700Y0014650D01*
Y0016500D01*
X0025200Y0018000D01*
X0028800D01*
X0029600Y0018800D01*
X0031400D01*
X0037900Y0005850D02*
X0038000D01*
Y0003000D01*
X0038400Y0002600D01*
Y0001800D01*
X0038180Y0001580D01*
Y0000950D01*
X0003750Y0004450D02*
X0004400Y0005100D01*
Y0006000D01*
X0005800Y0007400D01*
Y0013800D01*
X0005360Y0014240D01*
Y0018700D01*
X0013400Y0010200D02*
X0012600D01*
X0012200Y0010600D01*
Y0013400D01*
X0008600D01*
X0012200D01*
Y0017600D01*
Y0015800D01*
X0009000D01*
X0008600Y0016200D01*
Y0018600D01*
X0005200Y0010700D02*
Y0010800D01*
X0005800D01*
Y0013800D01*
X0005360Y0014240D01*
Y0018700D01*
Y0015600D01*
X0005800D01*
X0022000Y0020480D02*
Y0019150D01*
X0020800Y0002700D02*
X0018900Y0004600D01*
X0039800Y0018800D02*
X0038800Y0017800D01*
X0008600Y0013400D02*
X0012200D01*
Y0017600D01*
G54D55*
G01X0044200Y0006800D02*
Y0004600D01*
X0044150Y0004550D01*
X0013150Y0001800D02*
Y0003200D01*
X0011900Y0004450D01*
Y0004900D01*
X0034900Y0003350D02*
Y0003950D01*
X0035950Y0005000D01*
Y0005500D01*
X0026000Y0019200D02*
X0025600D01*
X0023600Y0017200D01*
X0048000Y0017400D02*
X0047650Y0017050D01*
Y0016650D01*
X0047550Y0016550D01*
Y0015850D01*
X0048000Y0015400D01*
X0037700Y0015100D02*
Y0014200D01*
X0037950Y0013950D01*
X0021558Y0012758D02*
Y0012300D01*
X0021100Y0011842D01*
Y0011030D01*
X0020520Y0010450D01*
Y0010030D01*
X0033050Y0003700D02*
Y0004850D01*
X0032800Y0005100D01*
X0019200Y0002700D02*
Y0003750D01*
X0020520Y0010030D02*
Y0007280D01*
X0020900Y0006900D01*
X0003750Y0005450D02*
Y0006450D01*
X0010050Y0006300D02*
Y0008450D01*
X0011250Y0011250D02*
Y0013050D01*
X0026000Y0019200D02*
Y0020200D01*
X0044250Y0019950D02*
X0043800Y0020400D01*
Y0022250D01*
X0036850Y0016750D02*
X0036900D01*
Y0015900D01*
X0037700Y0015100D01*
X0011900Y0004900D02*
Y0004450D01*
X0011500Y0004050D01*
X0009690D01*
X0009450Y0004290D01*
Y0006300D01*
X0010050D01*
Y0008450D01*
X0030519Y0006256D02*
X0031610D01*
Y0006100D01*
X0031850Y0005860D01*
X0032800Y0005100D02*
X0033050Y0004850D01*
Y0003700D01*
X0023450Y0000600D02*
X0023850Y0001000D01*
Y0001200D01*
X0019200Y0002700D02*
X0018750Y0002250D01*
X0018350D01*
X0038900Y0008600D02*
Y0007550D01*
X0038750Y0007400D01*
Y0007050D01*
X0030519Y0006256D02*
X0031610D01*
X0031850Y0006496D01*
Y0007500D01*
X0031950Y0007600D01*
Y0007850D01*
X0007850Y0012910D02*
Y0015400D01*
X0028750Y0021750D02*
X0029150Y0022150D01*
X0029700D01*
X0026000Y0019200D02*
Y0020200D01*
X0028750Y0021750D02*
X0029150Y0022150D01*
X0029700D01*
X0007850Y0015400D02*
X0007350Y0015900D01*
Y0018850D01*
X0007150Y0019050D01*
X0029250Y0012600D02*
Y0014450D01*
X0029500Y0014700D01*
X0010050Y0008450D02*
Y0007150D01*
X0008450D01*
X0007650Y0007950D01*
Y0011830D01*
X0007640Y0011840D01*
Y0011850D01*
X0007630Y0011860D01*
X0027550Y0008700D02*
Y0008945D01*
X0027500Y0008995D01*
Y0010600D01*
X0027750Y0010850D01*
X0033850Y0012100D02*
Y0011855D01*
X0033900Y0011805D01*
Y0009500D01*
X0033950Y0009450D01*
Y0008345D01*
X0033900Y0008295D01*
Y0008050D01*
X0038900Y0008600D02*
Y0008845D01*
X0038950Y0008895D01*
Y0009800D01*
X0039050Y0009900D01*
Y0010150D01*
X0028650Y0016950D02*
Y0016750D01*
X0029650Y0015750D01*
Y0014950D01*
X0029600Y0014900D01*
Y0014800D01*
X0029500Y0014700D01*
X0037700Y0015100D02*
X0036900Y0015900D01*
Y0017700D01*
X0037200Y0018000D01*
Y0018050D01*
X0037250Y0018100D01*
Y0018500D01*
X0037700D01*
Y0015100D02*
Y0014200D01*
X0037950Y0013950D01*
X0039100Y0010900D02*
Y0010655D01*
X0039050Y0010605D01*
Y0010150D01*
X0033850Y0012100D02*
X0033650Y0012300D01*
X0032950D01*
X0032550Y0012700D01*
X0048000Y0010650D02*
Y0009650D01*
Y0011650D02*
Y0010650D01*
Y0012650D02*
Y0011650D01*
X0007050Y0014500D02*
X0006500Y0013950D01*
Y0012000D01*
X0006150Y0011650D01*
Y0009080D01*
X0039150Y0019700D02*
X0038500D01*
X0038150Y0019350D01*
X0037450D01*
X0037250Y0019150D01*
Y0018100D01*
X0037200Y0018050D01*
Y0018000D01*
X0036900Y0017700D01*
Y0015900D01*
X0037700Y0015100D01*
G54D56*
G01X0030000Y0020600D02*
X0031200D01*
X0032600Y0022000D01*
Y0022700D01*
G54D58*
G01X0030519Y0006650D02*
X0031090D01*
X0031440Y0007000D01*
G54D59*
G01X0000750Y0004450D02*
X0001200Y0004000D01*
X0005000D01*
X0005900Y0004900D01*
G54D62*
G01X0028688Y0004859D02*
X0030341D01*
Y0017103D01*
X0028688D01*
Y0004859D01*
G54D10*
X0039017Y0021492D03*
X0028790Y0001402D03*
X0013750Y0011650D03*
X0024800Y0007400D03*
Y0015900D03*
X0045760Y0000150D03*
Y0023150D03*
X-0002000Y0021300D03*
Y0002000D03*
G54D19*
X0020520Y0010030D03*
X0022300Y0011430D03*
X0000750Y0005450D03*
X0001750Y0004450D03*
Y0005450D03*
X0002750Y0004450D03*
Y0005450D03*
X0003750Y0004450D03*
Y0005450D03*
X0038180Y0000950D03*
X0039180D03*
X0040180D03*
X0041180D03*
X0042180D03*
X0048000Y0021400D03*
Y0020400D03*
Y0019400D03*
Y0018400D03*
Y0017400D03*
Y0016400D03*
Y0015400D03*
X0011900Y0004900D03*
X0010900D03*
X0009900D03*
X0008900D03*
X0007900D03*
X0006900D03*
X0005900D03*
X0004900D03*
X0039600Y0015150D03*
Y0014150D03*
Y0013150D03*
Y0012150D03*
Y0011150D03*
Y0010150D03*
Y0009150D03*
Y0008150D03*
Y0007150D03*
X0042600D03*
Y0008150D03*
Y0009150D03*
Y0010150D03*
Y0011150D03*
Y0012150D03*
Y0013150D03*
Y0014150D03*
Y0015150D03*
Y0016150D03*
X0048000Y0013650D03*
X0047000Y0012650D03*
X0048000D03*
X0047000Y0011650D03*
X0048000D03*
X0047000Y0010650D03*
X0048000D03*
X0047000Y0009650D03*
X0048000D03*
X0038800Y0018800D03*
X0039800Y0017800D03*
Y0018800D03*
X0040800Y0017800D03*
Y0018800D03*
X0041800Y0017800D03*
Y0018800D03*
X0042800Y0017800D03*
X0043800D03*
Y0018800D03*
X0002000Y0003000D03*
X0003000Y0002000D03*
Y0003000D03*
X0004000Y0002000D03*
Y0003000D03*
X0005000Y0002000D03*
Y0003000D03*
X0006000Y0002000D03*
X0007000D03*
Y0003000D03*
X0038800Y0005500D03*
X0039800Y0004500D03*
Y0005500D03*
X0040800Y0004500D03*
Y0005500D03*
X0041800Y0004500D03*
Y0005500D03*
X0002000Y0021300D03*
X0003000Y0020300D03*
Y0021300D03*
X0004000Y0020300D03*
Y0021300D03*
X0005000Y0020300D03*
Y0021300D03*
X0006000Y0020300D03*
Y0021300D03*
X0035730Y0000950D03*
Y0002300D03*
X0036730D03*
X0037730D03*
X0040180D03*
X0041180D03*
X0042180D03*
X0046550Y0001900D03*
X0047550Y0002900D03*
X0046550D03*
X0047550Y0003900D03*
X0046550D03*
X0047550Y0004900D03*
X0046550D03*
X0047550Y0005900D03*
X0046550D03*
X0026750Y0001780D03*
X0005150Y0022900D03*
X0014120Y0017430D03*
X0005150Y-0000600D03*
X0033800Y0022450D03*
X0016210Y0000780D03*
X0042600Y-0001800D03*
X0046200Y0020150D03*
X0010050Y0008450D03*
G54D20*
X0021520Y0010030D03*
X0023300Y0011430D03*
X0000750Y0004450D03*
X0037180Y0000950D03*
X0048000Y0022400D03*
X0012900Y0004900D03*
X0039600Y0016150D03*
X0047000Y0013650D03*
X0038800Y0017800D03*
X0042800Y0018800D03*
X0002000Y0002000D03*
X0006000Y0003000D03*
X0038800Y0004500D03*
X0002000Y0020300D03*
X0034730Y0000950D03*
Y0002300D03*
X0039180D03*
X0047550Y0001900D03*
X0026750Y0000780D03*
X0005150Y0023900D03*
X0014120Y0016430D03*
X0005150Y0000400D03*
X0034800Y0022450D03*
X0016210Y0001780D03*
X0042600Y-0000800D03*
X0046200Y0021150D03*
X0009050Y0008450D03*
G54D29*
X0021558Y0013742D03*
Y0012758D03*
X0020708D03*
Y0013742D03*
X0023350Y0013900D03*
Y0012916D03*
X0024308Y0013892D03*
Y0012908D03*
X0003000Y0023800D03*
Y0024800D03*
Y0025800D03*
X0045500Y0027800D03*
Y0026800D03*
Y0025800D03*
X0003000Y-0002500D03*
Y-0001500D03*
Y-0000500D03*
X0045500Y-0002500D03*
Y-0003500D03*
Y-0004500D03*
G54D30*
X0005360Y0018700D03*
G54D31*
X0002900D03*
X0004180Y0016810D03*
G54D33*
X0029534Y0005469D03*
Y0016492D03*
G54D34*
X0031425Y0004200D03*
X0028276Y0019160D03*
G54D35*
X0011370Y0018950D03*
X0030700Y0022150D03*
X0029700D03*
X0012150Y0001800D03*
X0013150D03*
X0031840Y0001140D03*
X0032840D03*
X0044150Y0003550D03*
Y0004550D03*
G54D36*
X0031700Y0022150D03*
X0011150Y0001800D03*
X0030840Y0001140D03*
X0044150Y0002550D03*
G54D45*
X0043800Y0022250D03*
X0042028D03*
Y0024809D03*
X0043800D03*
G54D46*
X0009500Y0020300D03*
X0011370D03*
X0013240D03*
G54D50*
X0001840Y0009540D03*
X0033350Y0016650D03*
X0031850Y0016550D03*
X0006180Y0009050D03*
X0008600Y0010300D03*
X0007050Y0014500D03*
X0007550Y0012190D03*
X0006700Y0009970D03*
X0007370Y0011630D03*
X0035950Y0005500D03*
X0034900Y0003350D03*
X0033050Y0003700D03*
X0023300Y0016200D03*
X0023600Y0017200D03*
X0021800Y0018600D03*
X0026000Y0019200D03*
X0044200Y0006800D03*
X0037700Y0015100D03*
X0044000Y0015700D03*
G54D51*
X0031800Y0009650D03*
X0015400Y0006600D03*
X0016800Y0006200D03*
X0038600Y0007750D03*
X0013100Y0008700D03*
X0014630Y0006400D03*
X0040900Y0015100D03*
X0040850Y0012730D03*
X0021950Y0007000D03*
X0022150Y0003650D03*
X0038550Y0015950D03*
X0046550Y0013100D03*
X0011250Y0010650D03*
X0019200Y0003750D03*
X0020900Y0006900D03*
X0003750Y0006450D03*
X0010050Y0006300D03*
X0043650Y0008550D03*
X0011250Y0011250D03*
Y0013050D03*
X0044250Y0019950D03*
X0045650Y0009800D03*
X0036850Y0016750D03*
X0020450Y0015100D03*
X0035650Y0012300D03*
X0031850Y0005860D03*
X0032800Y0005100D03*
X0033700Y0001300D03*
X0023450Y0000600D03*
X0023850Y0001200D03*
X0019200Y0002700D03*
X0018350Y0002250D03*
X0031950Y0007850D03*
X0007850Y0012910D03*
X0025250Y0022100D03*
Y0021550D03*
X0026000Y0020200D03*
X0028200Y0020250D03*
X0028750Y0021750D03*
X0007850Y0015400D03*
X0007150Y0019050D03*
X0029250Y0012600D03*
X0007630Y0011860D03*
X0027550Y0008700D03*
X0027750Y0010850D03*
X0033900Y0008050D03*
X0038900Y0008600D03*
X0028650Y0016950D03*
X0037700Y0018500D03*
X0037950Y0013950D03*
X0039100Y0010900D03*
X0039050Y0010150D03*
X0033850Y0012100D03*
X0032550Y0012700D03*
X0029500Y0014700D03*
X0003000Y0022400D03*
X0031400Y0018800D03*
X0019700D03*
X0037900Y0005850D03*
X0009950Y0016500D03*
X0023000Y0019340D03*
X0021550Y0003450D03*
X0014000Y0009400D03*
X0007000Y0006600D03*
X0031400Y0013200D03*
X0008900Y0010900D03*
X0012600Y0014400D03*
X0046690Y0020840D03*
X0034200Y0010150D03*
X0030000Y0017430D03*
X0029960Y0006740D03*
X0033700Y0016460D03*
X0024000Y0011000D03*
X0040350Y0009400D03*
X0040300Y0006300D03*
X0037550Y0018950D03*
X0043030Y0011900D03*
X0031200Y0007600D03*
X0013400Y0010200D03*
X0007670Y0012500D03*
X0008800Y0007620D03*
X0039150Y0019700D03*
X0008600Y0018600D03*
X0036030Y0003990D03*
X0041390Y0019750D03*
X0032600Y0015160D03*
X0003800Y0008220D03*
X0003200Y0014600D03*
X0016420Y0020670D03*
X0040500Y0016400D03*
X0040600Y0014400D03*
X0029100Y0015830D03*
X0005200Y0010700D03*
X0038580Y0003720D03*
X0045000Y0021600D03*
X0046880Y0019800D03*
X0030000Y0001400D03*
X0038750Y0007050D03*
X0029050Y0007000D03*
X0039690Y0001100D03*
X0030400Y0016000D03*
X0001850Y0014000D03*
X0001800Y0011900D03*
X0038600Y0003000D03*
X0041200Y0017390D03*
X0025800Y0007800D03*
X0004600Y0014000D03*
X0007000Y0011050D03*
X0004360Y0007560D03*
X0033000Y0016260D03*
Y0016850D03*
X0034860Y0016590D03*
X0005800Y0015600D03*
X0042810Y0011600D03*
X0022000Y0020480D03*
Y0019150D03*
X0029200Y0004300D03*
X0029760Y0012990D03*
X0020800Y0002700D03*
X0018900Y0004600D03*
X0037640Y0017600D03*
X0037600Y0013150D03*
X0035750Y0008650D03*
X0033950Y0014400D03*
X0033270Y0011710D03*
X0033650Y0009400D03*
X0041600Y0015600D03*
X0044100Y0000300D03*
X0029650Y0008900D03*
X0037350Y0016600D03*
X0027200Y0007000D03*
X0034050Y0001450D03*
X0033250Y0011150D03*
X0031300Y0011000D03*
X0029910Y0006240D03*
X0027400Y0011400D03*
X0031700Y0014600D03*
X0035600Y0019900D03*
X0014200Y0020000D03*
X0005000Y0011250D03*
X0038060Y0019710D03*
X0033650Y0015750D03*
X0035600Y0015800D03*
X0036200Y0015150D03*
X0025850Y0008150D03*
X0023400Y0003200D03*
X0035900Y0014650D03*
X0032800Y0007400D03*
X0031490Y0017800D03*
X0046950Y0015050D03*
X0032500Y0014600D03*
X0034240Y0019600D03*
X0007800Y0006750D03*
X0006580Y0010630D03*
X0034350Y0018850D03*
X0030000Y0020600D03*
X0032600Y0022700D03*
X0034150Y0013650D03*
X0019400Y0020400D03*
X0023410Y0018540D03*
X0027850Y0009200D03*
X0029370Y0015030D03*
X0027800Y0009900D03*
X0035680Y0018800D03*
X0005230Y0013630D03*
X0015920Y0012080D03*
X0044550Y0012850D03*
X0029960Y0015100D03*
X0038300Y0018760D03*
X0036190Y0008650D03*
X0036240Y0013150D03*
X0032150Y0013650D03*
X0002600Y0010400D03*
X0003550Y0012370D03*
X0031790Y0012600D03*
X0030200Y0002000D03*
X0022400Y0018440D03*
X0032600Y0019200D03*
X0035790Y0009650D03*
X0046280Y0016200D03*
X0027850Y0014850D03*
X0042350Y0008700D03*
X0019800Y0021910D03*
X0022390Y0015210D03*
X0040800Y0021350D03*
X0040600Y0006150D03*
X0039600Y0011650D03*
X0033000Y0006600D03*
X0036000Y0017750D03*
X0031130Y0012950D03*
X0022650Y0017740D03*
X0026450Y0014600D03*
X0008600Y0013400D03*
X0012200Y0017600D03*
X0047250Y0007100D03*
X0045880Y0007520D03*
X0022400Y0016170D03*
X0021620Y0021500D03*
X0039050Y0007200D03*
X0031440Y0007000D03*
X0035600Y0005150D03*
X0025450Y0002800D03*
X0024170Y0003520D03*
X0018810Y0015900D03*
X0022200Y0020900D03*
X0034000Y0007150D03*
X0027800Y0012540D03*
X0029780Y0011150D03*
X0034950Y0007650D03*
X0035800Y0006000D03*
X0031200Y0013930D03*
X0032600Y0010600D03*
X0031600D03*
X0029600Y0010200D03*
X0035740Y0010490D03*
X0040700Y0016000D03*
X0033100Y0007700D03*
X0032800Y0007900D03*
X0037560Y0003410D03*
X0038350Y0010400D03*
X0046800Y0012200D03*
X0023650Y0017910D03*
X0026550Y0003150D03*
X0029500Y0007400D03*
X0002200Y0011200D03*
X0010600Y0007600D03*
X0015660Y0010060D03*
G54D60*
X0029534Y0005036D03*
Y0016925D03*
G54D61*
X0028511Y0015902D03*
Y0015508D03*
Y0015114D03*
Y0014721D03*
Y0014327D03*
Y0013933D03*
Y0013540D03*
Y0013146D03*
Y0012752D03*
Y0012358D03*
Y0011965D03*
Y0011571D03*
Y0011178D03*
Y0010784D03*
Y0010390D03*
Y0009996D03*
Y0009603D03*
Y0009209D03*
Y0008815D03*
Y0008422D03*
Y0008028D03*
Y0007634D03*
Y0007241D03*
Y0006847D03*
Y0006453D03*
Y0006059D03*
X0030519Y0015705D03*
Y0015311D03*
Y0014918D03*
Y0014524D03*
Y0014130D03*
Y0013736D03*
Y0013343D03*
Y0012949D03*
Y0012555D03*
Y0012162D03*
Y0011768D03*
Y0011374D03*
Y0010981D03*
Y0010587D03*
Y0010193D03*
Y0009800D03*
Y0009406D03*
Y0009012D03*
Y0008619D03*
Y0008225D03*
Y0007831D03*
Y0007437D03*
Y0007044D03*
Y0006650D03*
Y0006256D03*
M02*
