*
G04 Mass Parameters ***
*
G04 Image ***
*
%INC:\PROJECTS\RAGOBOTS\ROBOT\HW\DESIGN\RAGOBOT.TOP*%
%ICAS*%
%MOIN*%
%IPPOS*%
%ASAXBY*%
G74*%FSLAN2X34Y34*%
*
G04 Aperture Definitions ***
*
%AMTHERMAL68*
1,1,0.1090,0,0,*
1,0,0.0850,0,0,*
21,0,0.1090,0.0500,0,0,45.0*
21,0,0.1090,0.0500,0,0,135.0*%
%AMTHERMAL73*
1,1,0.0875,0,0,*
1,0,0.0635,0,0,*
21,0,0.0875,0.0500,0,0,45.0*
21,0,0.0875,0.0500,0,0,135.0*%
%AMTHERMAL77*
1,1,0.0875,0,0,*
1,0,0.0635,0,0,*
21,0,0.0875,0.0500,0,0,46.2*
21,0,0.0875,0.0500,0,0,136.2*%
%ADD10C,0.1750*%
%ADD11O,0.0940X0.0250*%
%ADD12R,0.0940X0.0250*%
%ADD13R,0.1181X0.1181*%
%ADD14O,0.0118X0.0472*%
%ADD15O,0.0472X0.0118*%
%ADD16R,0.0472X0.0118*%
%ADD17R,0.0780X0.0720*%
%ADD18R,0.0720X0.0780*%
%ADD19C,0.0580*%
%ADD20R,0.0580X0.0580*%
%ADD21R,0.0600X0.0800*%
%ADD22R,0.0800X0.0600*%
%ADD23R,0.1575X0.1181*%
%ADD24R,0.0220X0.0220*%
%ADD25R,0.1200X0.0760*%
%ADD26R,0.1420X0.0720*%
%ADD27R,0.0400X0.0480*%
%ADD28R,0.0480X0.0400*%
%ADD29C,0.0620*%
%ADD30C,0.1700*%
%ADD31C,0.1450*%
%ADD32R,0.0315X0.0315*%
%ADD33C,0.0472*%
%ADD34C,0.1771*%
%ADD35C,0.0750*%
%ADD36R,0.0750X0.0750*%
%ADD37O,0.0860X0.0250*%
%ADD38R,0.0860X0.0250*%
%ADD39O,0.0680X0.0130*%
%ADD40R,0.0680X0.0130*%
%ADD41O,0.1000X0.0250*%
%ADD42R,0.1000X0.0250*%
%ADD43O,0.0250X0.1000*%
%ADD44R,0.0250X0.1000*%
%ADD45C,0.0787*%
%ADD46C,0.1100*%
%ADD47R,0.0480X0.0740*%
%ADD48R,0.3149X0.2362*%
%ADD49R,0.1968X0.2362*%
%ADD50C,0.0250*%
%ADD51C,0.0250*%
%ADD52C,0.0100*%
%ADD53C,0.0250*%
%ADD54C,0.0300*%
%ADD55C,0.0120*%
%ADD56C,0.0200*%
%ADD57C,0.0118*%
%ADD58C,0.0080*%
%ADD59C,0.0150*%
%ADD60R,0.1141X0.0354*%
%ADD61R,0.0708X0.0157*%
%ADD62C,0.0010*%
%ADD63C,0.2100*%
%ADD64C,0.0950*%
%ADD65R,0.0950X0.0950*%
%ADD66C,0.1000*%
%ADD67C,0.1900*%
%ADD68THERMAL68*%
%ADD69C,0.0900*%
%ADD70R,0.0900X0.0900*%
%ADD71C,0.0800*%
%ADD72R,0.1100X0.1100*%
%ADD73THERMAL73*%
%ADD74C,0.0600*%
%ADD75C,0.0500*%
%ADD76C,0.0600*%
%ADD77THERMAL77*%
%ADD78C,0.0780*%
%ADD79R,0.0780X0.0780*%
%ADD80C,0.0700*%
%ADD81C,0.1550*%
%ADD82C,0.0500*%
%ADD83C,0.0500*%
%ADD84C,0.0670*%
%ADD85C,0.1650*%
%ADD86C,0.1200*%
%ADD87R,0.1142X0.0354*%
%ADD88C,0.1260*%
%ADD89C,0.0060*%
%ADD90C,0.0039*%
%ADD91C,0.0070*%
%ADD92C,0.0098*%
%ADD93C,0.0050*%
%ADD94C,0.0130*%
%ADD95C,0.0130*%
*
G04 Plot Data ***
*
G54D52*
G01X0001840Y0008500D02*
Y0009540D01*
X0002300Y0010000D01*
X0003640D01*
X0003800Y0009840D01*
Y0009450D01*
X0038045Y0016545D02*
X0037700D01*
X0037500Y0016345D01*
Y0016247D01*
X0037402Y0016150D01*
X0036910D01*
X0036410Y0021550D02*
X0037360Y0022500D01*
X0040100D01*
X0041200Y0021400D01*
X0043200D01*
X0043400Y0021200D01*
Y0020550D01*
X0036910Y0016150D02*
X0036400D01*
X0036200Y0015950D01*
Y0015600D01*
X0036400Y0015400D01*
X0037800D01*
X0038100Y0015100D01*
X0038290D01*
X0038400Y0014990D01*
Y0014790D01*
X0038045Y0016545D02*
Y0016905D01*
X0037600Y0017350D01*
X0036400D01*
X0036300Y0017450D01*
Y0017850D01*
X0036000Y0018150D01*
Y0019450D01*
X0036400Y0019850D01*
X0037400D01*
X0037600Y0020050D01*
Y0020600D01*
X0036910D01*
X0013100Y0008700D02*
Y0008100D01*
X0031435Y0006055D02*
Y0005790D01*
X0032871Y0004354D01*
Y0004071D01*
X0033154D01*
X0033610Y0003615D01*
Y0003290D01*
X0030650Y0008050D02*
X0031600D01*
Y0007600D01*
X0032258Y0006941D01*
Y0006658D01*
X0031655Y0006055D01*
X0031435D01*
X0030650Y0008050D02*
X0031600D01*
X0031950Y0008400D01*
X0037945D01*
X0038145Y0008200D01*
Y0007595D01*
X0014628Y0004600D02*
Y0006158D01*
X0014958D01*
X0015400Y0006600D01*
X0016800Y0006200D02*
X0018700D01*
X0020200Y0007700D01*
X0020600D01*
Y0008500D01*
X0038145Y0007595D02*
X0038445D01*
X0038600Y0007750D01*
X0040850Y0012730D02*
X0038800D01*
X0037720Y0011650D01*
X0036860D01*
X0037720D01*
X0038800Y0012730D01*
X0040850D01*
X0041000Y0012580D01*
Y0011400D01*
X0041830Y0010570D01*
X0045170D01*
X0046200Y0011600D01*
Y0013600D01*
X0046800Y0014200D01*
X0047450D01*
X0048000Y0013650D01*
X0013100Y0008100D02*
Y0008700D01*
X0014630Y0006400D02*
Y0006158D01*
X0014628D01*
Y0004600D01*
X0038400Y0014790D02*
X0038640D01*
X0038800Y0014950D01*
Y0015160D01*
X0039200Y0015560D01*
X0040440D01*
X0040900Y0015100D01*
X0040850Y0012730D02*
X0038800D01*
X0037720Y0011650D01*
X0036860D01*
X0020600Y0008500D02*
Y0007700D01*
X0021300Y0007000D01*
X0021950D01*
X0022150Y0003650D02*
X0022850Y0002950D01*
X0024450D01*
X0026030Y0001370D01*
X0026930D01*
X0027200Y0001640D01*
Y0001990D01*
X0026990Y0002200D01*
X0026640D01*
X0026100Y0002740D01*
Y0003400D01*
X0026300Y0003600D01*
X0026810D01*
X0027410Y0003000D01*
X0031800D01*
X0032871Y0004071D01*
X0033154D01*
X0033610Y0003615D01*
Y0003290D01*
X0020340Y0020240D02*
X0020000Y0019900D01*
Y0019600D01*
X0020110Y0019490D01*
X0021410D01*
X0021500Y0019400D01*
Y0019100D01*
X0021140Y0018740D01*
X0026800Y0011950D02*
X0025800D01*
X0025350Y0012400D01*
X0022900D01*
X0021558Y0013742D01*
X0001840Y0008500D02*
Y0008100D01*
X0002200Y0007740D01*
Y0006900D01*
X0002400Y0006700D01*
X0006900D01*
X0007000Y0006600D01*
Y0011050D02*
X0006800Y0011250D01*
X0006525D01*
X0006918Y0011644D02*
X0007177Y0011385D01*
X0007215D01*
X0007700Y0010900D01*
X0008900D01*
X0012600Y0014400D02*
X0011850D01*
X0046690Y0020840D02*
Y0020615D01*
X0046620Y0020545D01*
Y0018530D01*
X0046300Y0018210D01*
X0041210D01*
X0040800Y0017800D01*
X0036910Y0013150D02*
X0036240D01*
X0003800Y0007600D02*
Y0008220D01*
X0007380D01*
X0007600Y0008000D01*
X0009400D01*
X0009600Y0008200D01*
Y0010200D01*
X0008900Y0010900D01*
X0007700D01*
X0007215Y0011385D01*
X0007177D01*
X0006918Y0011644D01*
X0029890Y0004850D02*
X0030090D01*
X0030200Y0004960D01*
Y0006500D01*
X0029960Y0006740D01*
X0032074Y0015415D02*
X0032660D01*
X0033700Y0016460D01*
X0024000Y0011000D02*
X0020000D01*
X0018300Y0009300D01*
X0015950D01*
X0015750Y0009100D01*
Y0001240D01*
X0016210Y0000780D01*
X0036860Y0009150D02*
X0037640D01*
X0039190Y0007600D01*
X0040000D01*
X0040200Y0007400D01*
Y0006800D01*
X0040000Y0006600D01*
X0039000D01*
X0038800Y0006400D01*
X0037650D01*
X0037450Y0006200D01*
Y0006000D01*
X0037350Y0005900D01*
X0036300D01*
X0036150Y0005750D01*
X0035800D01*
X0035650Y0005600D01*
Y0005450D01*
X0035900Y0005200D01*
Y0004850D01*
X0036100Y0004650D01*
X0036860D01*
X0047900Y0024400D02*
X0048140D01*
X0048300Y0024240D01*
Y0023190D01*
X0048000Y0022890D01*
Y0022400D01*
X0036030Y0003990D02*
X0036190Y0004150D01*
X0036860D01*
Y0009650D02*
X0037470D01*
X0037500Y0009620D01*
X0038900D01*
X0038950Y0009570D01*
X0039955D01*
X0040125Y0009400D01*
X0040350D01*
X0040300Y0006300D02*
X0040200Y0006400D01*
X0039050D01*
X0038850Y0006200D01*
X0037800D01*
X0037620Y0006020D01*
Y0005400D01*
X0037370Y0005150D01*
X0036860D01*
X0032074Y0015809D02*
X0031689D01*
X0031600Y0015720D01*
Y0014900D01*
X0031300Y0014600D01*
X0029900D01*
X0029750Y0014450D01*
X0028600D01*
X0028400Y0014250D01*
Y0013200D01*
X0028200Y0013000D01*
X0025400D01*
X0025000Y0013400D01*
X0023200D01*
X0022200Y0014400D01*
X0020600D01*
X0019200Y0013000D01*
X0015000D01*
X0014800Y0012800D01*
Y0008190D01*
X0014180Y0007570D01*
X0011970D01*
X0009400Y0005000D01*
Y0003790D01*
X0008200Y0002590D01*
X0001600D01*
X0001400Y0002390D01*
Y0001000D01*
X0002400Y0000000D01*
X0004550D01*
X0005150Y-0000600D01*
X0036910Y0014150D02*
X0036000D01*
X0035750Y0014400D01*
X0033950D01*
X0037550Y0018950D02*
Y0018725D01*
X0037425Y0018600D01*
X0036910D01*
X0045734Y0015712D02*
X0046258D01*
X0046400Y0015570D01*
Y0014940D01*
X0045000Y0013540D01*
Y0012200D01*
X0044700Y0011900D01*
X0043030D01*
X0038145Y0007595D02*
X0036860D01*
Y0007150D01*
X0042600Y0011150D02*
X0042000Y0011750D01*
Y0012200D01*
X0042400Y0012600D01*
X0043080D01*
X0045600Y0015120D01*
X0045733D01*
X0045734Y0015121D01*
X0006918Y0012431D02*
X0007461D01*
X0007560Y0012530D01*
X0007640D01*
X0007670Y0012500D01*
X0008800Y0007620D02*
X0006530D01*
X0036860Y0008150D02*
X0036390D01*
X0036200Y0007960D01*
Y0006340D01*
X0036390Y0006150D01*
X0036860D01*
X0026710Y0004510D02*
X0027200D01*
X0027400Y0004710D01*
Y0006660D01*
X0027540Y0006800D01*
X0028500D01*
X0029000Y0006300D01*
X0029400D01*
X0036860Y0008650D02*
X0036190D01*
X0036030Y0003990D02*
X0036190Y0004150D01*
X0036860D01*
X0032600Y0015160D02*
X0032610Y0015170D01*
Y0015216D01*
X0032608Y0015218D01*
X0032074D01*
X0003800Y0007600D02*
Y0008220D01*
X0003200Y0014600D02*
Y0013600D01*
X0004172Y0012628D01*
X0036910Y0018100D02*
X0037500D01*
X0039000Y0016600D01*
X0040075D01*
X0040275Y0016400D01*
X0040500D01*
X0040600Y0014400D02*
X0040430Y0014570D01*
X0039170D01*
X0039000Y0014400D01*
Y0013850D01*
X0038800Y0013650D01*
X0036910D01*
X0038180Y0003380D02*
X0038380D01*
X0038580Y0003580D01*
Y0003720D01*
X0033350Y0016650D02*
X0033410Y0016710D01*
X0033890D01*
X0034000Y0016600D01*
Y0015200D01*
X0032800Y0014000D01*
X0031630D01*
X0030880Y0013250D01*
Y0010350D01*
X0031080Y0010150D01*
X0032100D01*
X0032300Y0009950D01*
Y0008800D01*
X0032100Y0008600D01*
X0030270D01*
X0030170Y0008500D01*
Y0007520D01*
X0031000Y0006690D01*
Y0005700D01*
X0030400Y0005100D01*
Y0004200D01*
X0030200Y0004000D01*
X0026000D01*
X0025800Y0003800D01*
Y0002730D01*
X0026750Y0001780D01*
X0045000Y0021600D02*
X0046740D01*
X0046940Y0021400D01*
Y0020085D01*
X0046880Y0020025D01*
Y0019800D01*
X0002000Y0002000D02*
X0002410Y0002410D01*
X0008410D01*
X0010900Y0004900D01*
X0002700Y0014000D02*
X0001850D01*
X0001800Y0011900D02*
X0001050D01*
X0000550Y0011400D01*
Y0010400D01*
X0036860Y0003650D02*
X0037500D01*
X0037560Y0003710D01*
X0037680D01*
X0037860Y0003530D01*
Y0003050D01*
X0037910Y0003000D01*
X0038600D01*
X0041200Y0017390D02*
X0039600D01*
X0039390Y0017600D01*
Y0018050D01*
X0039190Y0018250D01*
X0037600D01*
X0037500Y0018350D01*
X0036400D01*
X0036200Y0018550D01*
Y0019200D01*
X0036600Y0019600D01*
X0036910D01*
X0003800Y0014000D02*
X0004600D01*
X0007000Y0011050D02*
X0006800Y0011250D01*
X0006525D01*
X0005934D02*
Y0010804D01*
X0005530Y0010400D01*
X0003000D01*
X0002200Y0011200D01*
X0004360Y0007560D02*
X0004820Y0007100D01*
X0010600D01*
X0011600Y0008100D01*
X0012000D01*
X0032074Y0015612D02*
X0032086Y0015600D01*
X0032330D01*
X0032350Y0015620D01*
X0032570D01*
X0033000Y0016050D01*
Y0016260D01*
Y0016850D02*
X0033150Y0017000D01*
X0034200D01*
X0034400Y0016800D01*
X0034650D01*
X0034860Y0016590D01*
X0004950Y0012825D02*
Y0014000D01*
X0003200Y0015750D01*
Y0017200D01*
X0003800Y0017800D01*
Y0018800D01*
X0004690Y0019690D01*
X0005880D01*
X0005970Y0019600D01*
X0007800D01*
X0008000Y0019400D01*
X0010050D01*
X0011050Y0018400D01*
X0012800D01*
X0013000Y0018200D01*
Y0014200D01*
X0012600Y0013800D01*
X0011510D01*
X0011300Y0014010D01*
Y0014790D01*
X0011910Y0015400D01*
X0012025D01*
X0012100Y0015475D01*
Y0016400D01*
X0012000Y0016500D01*
X0010970D01*
X0010700Y0016230D01*
Y0014800D01*
X0010600Y0014700D01*
X0008500D01*
X0008300Y0014500D01*
X0007800D01*
X0042810Y0011600D02*
X0044800D01*
X0045400Y0012200D01*
Y0013660D01*
X0046600Y0014860D01*
Y0017000D01*
X0048000Y0018400D01*
X0005940Y0012170D02*
Y0012000D01*
X0006320D01*
Y0011730D01*
X0006600Y0011450D01*
Y0011250D01*
X0006525D01*
X0005150Y0022900D02*
X0002800D01*
X0002500Y0022600D01*
Y0020090D01*
X0002720Y0019870D01*
X0008730D01*
X0009000Y0019600D01*
X0014600D01*
X0014800Y0019400D01*
Y0015800D01*
X0015600Y0015000D01*
X0019700D01*
X0019900Y0014800D01*
X0021100D01*
X0021300Y0015000D01*
Y0016600D01*
X0021100Y0016800D01*
X0020300D01*
X0020100Y0017000D01*
Y0017390D01*
X0020200Y0017490D01*
X0022910D01*
X0023500Y0016900D01*
X0025450D01*
X0026150Y0016200D01*
X0029200D01*
X0029400Y0016000D01*
X0029750D01*
X0030550Y0016800D01*
X0032400D01*
X0032600Y0016600D01*
Y0016200D01*
X0032597Y0016203D01*
X0032074D01*
X0029100Y0004850D02*
Y0004400D01*
X0029200Y0004300D01*
X0036910Y0012650D02*
Y0012400D01*
X0035430Y0010920D01*
X0035400D01*
X0035380Y0010900D01*
X0034400D01*
X0034200Y0010700D01*
Y0010600D01*
X0034400Y0010400D01*
X0035400D01*
X0035560Y0010240D01*
X0035870D01*
X0036280Y0010650D01*
X0036860D01*
X0011850Y0014400D02*
X0012600D01*
Y0016400D01*
X0012000Y0017000D01*
X0008800D01*
X0008710Y0017090D01*
X0007170D01*
X0007050Y0017210D01*
Y0017600D01*
X0036410Y0021550D02*
X0036910Y0021050D01*
Y0020600D01*
X0041180Y0002300D02*
X0040210Y0003270D01*
Y0005700D01*
X0040000Y0005910D01*
X0039610D01*
X0039300Y0005600D01*
Y0005000D01*
X0038800Y0004500D01*
X0000550Y0015200D02*
Y0015600D01*
X0000750Y0015800D01*
X0002600D01*
X0003800Y0014600D01*
Y0014000D01*
X0039600Y0011150D02*
X0039000D01*
X0038650Y0010800D01*
X0038000D01*
X0037600Y0010400D01*
X0036400D01*
X0036070Y0010070D01*
X0035280D01*
X0035200Y0010150D01*
X0034900D01*
X0042600Y0009150D02*
X0045250D01*
X0045800Y0008600D01*
Y0008503D01*
X0045600Y0008303D01*
X0045184D01*
X0034900Y0010650D02*
X0035510D01*
X0035600Y0010740D01*
X0035840D01*
X0036000Y0010900D01*
X0037340D01*
X0037440Y0011000D01*
X0038450D01*
X0039600Y0012150D01*
X0036730Y0002300D02*
X0037170Y0002740D01*
X0038710D01*
X0038970Y0003000D01*
Y0003380D01*
X0034900Y0011150D02*
X0035400D01*
X0036100Y0011850D01*
Y0012700D01*
X0036300Y0012900D01*
X0038200D01*
X0038450Y0013150D01*
X0039600D01*
X0020740Y0021740D02*
X0020200D01*
X0020000Y0021540D01*
Y0020690D01*
X0020200Y0020490D01*
X0021310D01*
X0021700Y0020100D01*
X0022810D01*
X0023200Y0020490D01*
X0027950D01*
X0028000Y0020540D01*
X0029210D01*
X0029400Y0020350D01*
Y0019200D01*
X0029600Y0019000D01*
X0030550D01*
X0031050Y0018500D01*
Y0018000D01*
X0039600Y0014150D02*
X0038850Y0013400D01*
X0036100D01*
X0035900Y0013200D01*
Y0011900D01*
X0035650Y0011650D01*
X0034900D01*
X0036910Y0017600D02*
X0037640D01*
X0037600Y0013150D02*
X0036910D01*
X0035750Y0008650D02*
X0034900D01*
X0036860Y0009650D02*
X0036150D01*
X0035900Y0009400D01*
X0033650D01*
X0031130Y0012950D02*
Y0012200D01*
X0031050D01*
Y0010550D01*
X0031250Y0010350D01*
X0032350D01*
X0033800Y0008900D01*
X0036350D01*
X0036600Y0009150D01*
X0036860D01*
X0036910Y0014150D02*
X0036000D01*
X0035750Y0014400D01*
X0033950D01*
X0033650Y0009400D02*
X0035900D01*
X0036150Y0009650D01*
X0036860D01*
X0041600Y0015600D02*
X0041470Y0015730D01*
X0039120D01*
X0038650Y0016200D01*
X0037800D01*
X0037250Y0015650D01*
X0036910D01*
X0034730Y0002300D02*
X0035430Y0001600D01*
X0038000D01*
X0038700Y0002300D01*
X0039180D01*
X0034950Y0016150D02*
X0035800D01*
X0036150Y0016500D01*
X0037025D01*
X0037125Y0016600D01*
X0037350D01*
X0034050Y0001450D02*
X0034275D01*
X0034325Y0001400D01*
X0038200D01*
X0038690Y0001890D01*
X0041240D01*
X0042180Y0000950D01*
X0004000Y0002000D02*
X0004600Y0001400D01*
X0009600D01*
X0011400Y0003200D01*
Y0006600D01*
X0012200Y0007400D01*
X0014400D01*
X0015200Y0008200D01*
Y0012200D01*
X0015600Y0012600D01*
X0020200D01*
X0020580Y0012220D01*
X0024590D01*
X0025710Y0011100D01*
X0027900D01*
Y0011950D01*
X0037180Y0000950D02*
X0037630Y0000500D01*
X0039730D01*
X0040180Y0000950D01*
X0047550Y0003900D02*
X0048000Y0004350D01*
Y0007200D01*
X0045680Y0009520D01*
X0045450D01*
X0045400Y0009570D01*
X0041430D01*
X0041260Y0009740D01*
X0039200D01*
X0039040Y0009900D01*
X0034000D01*
X0032900Y0011000D01*
X0031300D01*
X0027900Y0011950D02*
X0028400D01*
X0028600Y0012150D01*
Y0014050D01*
X0028800Y0014250D01*
X0029800D01*
X0029950Y0014400D01*
X0031500D01*
X0031700Y0014600D01*
X0034950Y0020600D02*
X0035420D01*
X0035600Y0020420D01*
Y0019900D01*
X0005000Y0011250D02*
X0005344D01*
X0046200Y0020150D02*
X0044440Y0018390D01*
X0039510D01*
X0039300Y0018600D01*
Y0019100D01*
X0038740Y0019660D01*
X0038110D01*
X0038060Y0019710D01*
X0033650Y0015750D02*
X0032800Y0014900D01*
X0032195D01*
X0032074Y0015021D01*
X0035600Y0015800D02*
X0035450Y0015650D01*
X0034950D01*
Y0015150D02*
X0036200D01*
X0031435Y0006055D02*
X0031655D01*
X0032258Y0006658D01*
Y0006941D01*
X0032541D01*
X0032600Y0007000D01*
X0033290D01*
X0033690Y0007400D01*
X0035190D01*
X0036190Y0008400D01*
X0037945D01*
X0038145Y0008200D01*
Y0007595D01*
X0041800Y0005500D02*
X0045500D01*
X0045600Y0005400D01*
X0046800D01*
X0046970Y0005230D01*
Y0003480D01*
X0047550Y0002900D01*
X0035900Y0014650D02*
X0034950D01*
X0031490Y0017800D02*
X0031800Y0018110D01*
Y0019400D01*
X0032200Y0019800D01*
X0033000D01*
X0035880Y0022680D01*
X0040320D01*
X0041400Y0021600D01*
X0044300D01*
X0044500Y0021400D01*
Y0020550D01*
X0026900Y0010250D02*
X0028000D01*
X0028200Y0010050D01*
Y0009700D01*
X0028400Y0009500D01*
X0029850D01*
X0030050Y0009700D01*
Y0011290D01*
X0029850Y0011490D01*
X0029200D01*
X0029100Y0011590D01*
Y0012200D01*
X0029000Y0012300D01*
Y0013400D01*
X0029150Y0013550D01*
X0030000D01*
X0044500Y0020550D02*
Y0019500D01*
X0043800Y0018800D01*
X0046950Y0015050D02*
X0046800Y0014900D01*
Y0014500D01*
X0046000Y0013700D01*
Y0012400D01*
X0044800Y0011200D01*
X0043460D01*
X0043000Y0010740D01*
X0042260D01*
X0041800Y0011200D01*
Y0014140D01*
X0041200Y0014740D01*
X0039040D01*
X0038700Y0014400D01*
X0037900D01*
X0037400Y0013900D01*
X0035950D01*
X0035700Y0014150D01*
X0034950D01*
X0011150Y0001800D02*
X0012400Y0003050D01*
Y0006800D01*
X0012800Y0007200D01*
X0014800D01*
X0015400Y0007800D01*
Y0012000D01*
X0015800Y0012400D01*
X0016000D01*
X0016350Y0012050D01*
X0024240D01*
X0025490Y0010800D01*
X0025900D01*
X0026200Y0010500D01*
X0029400D01*
X0029600Y0010700D01*
Y0010800D01*
X0028800Y0011600D01*
Y0013800D01*
X0029050Y0014050D01*
X0030000D01*
X0030150Y0014200D01*
X0032100D01*
X0032500Y0014600D01*
X0034240Y0019600D02*
X0034950D01*
X0002700Y0007600D02*
Y0007050D01*
X0002850Y0006900D01*
X0007650D01*
X0007800Y0006750D01*
X0006580Y0010630D02*
X0006328Y0010882D01*
Y0011250D01*
X0034350Y0018850D02*
Y0018970D01*
X0034480Y0019100D01*
X0034950D01*
X0045734Y0015515D02*
X0045390D01*
X0045270Y0015395D01*
Y0015070D01*
X0043350Y0013150D01*
X0042600D01*
X0034950Y0013650D02*
X0034150D01*
X0019400Y0020400D02*
X0016000D01*
X0015800Y0020600D01*
Y0022600D01*
X0015600Y0022800D01*
X0007110D01*
X0005510Y0024400D01*
X0003600D01*
X0003000Y0023800D01*
X0038800Y0004500D02*
X0038205D01*
X0038200Y0004505D01*
X0037895D01*
X0023410Y0018540D02*
X0023635D01*
X0023685Y0018490D01*
X0026910D01*
X0027400Y0018000D01*
X0028600D01*
X0029200Y0018600D01*
X0030200D01*
X0030400Y0018400D01*
Y0017800D01*
X0030800Y0017400D01*
X0032300D01*
X0033000Y0018100D01*
X0034950D01*
X0026800Y0013800D02*
X0026240D01*
X0025440Y0014600D01*
X0024200D01*
X0023800Y0015000D01*
Y0016240D01*
X0022800Y0017240D01*
X0020740D01*
X0042600Y0012150D02*
X0043050D01*
X0045810Y0014910D01*
X0046100D01*
X0046200Y0015010D01*
Y0015198D01*
X0046080Y0015318D01*
X0045734D01*
X0035680Y0018800D02*
X0035480Y0018600D01*
X0034950D01*
X0026900Y0009750D02*
X0027400D01*
X0027600Y0009550D01*
Y0009150D01*
X0026850Y0008400D01*
Y0008000D01*
X0004950Y0012037D02*
X0002860D01*
X0002097Y0012800D01*
X0001650D01*
X0005344Y0013218D02*
Y0013486D01*
X0005230Y0013600D01*
Y0013630D01*
X0015920Y0012080D02*
X0016120Y0011880D01*
X0024120D01*
X0025200Y0010800D01*
Y0009450D01*
X0025400Y0009250D01*
X0026900D01*
X0004950Y0011840D02*
X0002559D01*
X0002200Y0012200D01*
X0001270D01*
X0001100Y0012370D01*
Y0014050D01*
X0001650Y0014600D01*
Y0015200D01*
X0045734Y0015909D02*
X0045350D01*
X0045250Y0016009D01*
Y0016600D01*
X0045150Y0016700D01*
X0044150D01*
X0042600Y0015150D01*
X0028860Y0010750D02*
X0028250D01*
X0027900Y0011100D01*
Y0011950D01*
X0000550Y0007000D02*
Y0007400D01*
X0001050Y0007900D01*
Y0008500D01*
X0022170Y0008550D02*
Y0007900D01*
X0023000Y0007070D01*
Y0006500D01*
X0022700Y0006200D01*
Y0005570D01*
X0038970Y0003380D02*
Y0003730D01*
X0038800Y0003900D01*
Y0004500D01*
X0040630Y0020430D02*
X0040370D01*
X0040060Y0020120D01*
X0038010D01*
X0037780Y0019890D01*
Y0019470D01*
X0038300Y0018950D01*
Y0018760D01*
X0036860Y0008650D02*
X0036190D01*
X0036240Y0013150D02*
X0036910D01*
X0034950D02*
X0033350D01*
X0032400Y0012200D01*
X0031600D01*
X0031400Y0012400D01*
Y0012675D01*
X0032150Y0013425D01*
Y0013650D01*
X0045500Y-0003500D02*
X0048000Y-0001000D01*
Y0003090D01*
X0047600Y0003490D01*
X0047250D01*
X0047140Y0003600D01*
Y0006600D01*
X0047600Y0007060D01*
Y0007140D01*
X0046940Y0007800D01*
X0045778D01*
X0045690Y0007712D01*
X0045184D01*
X0026850Y0006250D02*
Y0005560D01*
X0026090Y0004800D01*
X0024150D01*
X0023950Y0005000D01*
Y0006100D01*
X0023850Y0006200D01*
X0023330D01*
X0023200Y0006070D01*
Y0005570D01*
X0001650Y0010400D02*
X0002600D01*
X0003550Y0012370D02*
X0003686Y0012234D01*
X0004950D01*
X0031790Y0012600D02*
X0034090Y0014900D01*
X0036350D01*
X0036600Y0015150D01*
X0036910D01*
X0017850Y0008500D02*
Y0007600D01*
X0016500Y0006250D01*
Y0006050D01*
X0016600Y0005950D01*
X0018750D01*
X0019000Y0006200D01*
X0019570D01*
X0019700Y0006070D01*
Y0005570D01*
X0034900Y0005150D02*
X0034430D01*
X0034300Y0005020D01*
Y0003000D01*
X0033900Y0002600D01*
X0030800D01*
X0030200Y0002000D01*
X0020740Y0018240D02*
X0022200D01*
X0022400Y0018440D01*
X0032600Y0019200D02*
X0032750Y0019350D01*
X0035500D01*
X0036250Y0020100D01*
X0036910D01*
X0026710Y0004510D02*
X0023990D01*
X0023700Y0004800D01*
Y0005570D01*
X0034900Y0009650D02*
X0035790D01*
X0034730Y0002300D02*
X0033000D01*
X0031840Y0001140D01*
X0045734Y0016106D02*
X0046186D01*
X0046280Y0016200D01*
X0045184Y0008500D02*
X0044714Y0008970D01*
X0043030D01*
X0042760Y0008700D01*
X0042350D01*
X0001650Y0007000D02*
Y0007600D01*
X0001400Y0007850D01*
Y0008970D01*
X0001100Y0009270D01*
Y0010900D01*
X0001844Y0011644D01*
X0004950D01*
X0020740Y0022240D02*
X0020130D01*
X0019800Y0021910D01*
X0022390Y0015210D02*
X0022600Y0015000D01*
X0023200D01*
X0002700Y0009450D02*
Y0007600D01*
X0034900Y0009150D02*
X0035600D01*
X0035650Y0009200D01*
X0036200D01*
X0036400Y0009400D01*
X0038860D01*
X0039110Y0009150D01*
X0039600D01*
X0040600Y0006150D02*
X0044750D01*
X0045184Y0006584D01*
Y0007121D01*
X0027890Y0004510D02*
Y0005600D01*
X0027950Y0005660D01*
Y0006250D01*
X0039600Y0011650D02*
X0039800D01*
X0040100Y0011950D01*
Y0012260D01*
X0039800Y0012560D01*
X0039360D01*
X0038200Y0011400D01*
X0037450D01*
X0037200Y0011150D01*
X0036860D01*
X0025700Y0009600D02*
X0026050D01*
X0026200Y0009750D01*
X0026900D01*
X0036000Y0017750D02*
X0035400Y0018350D01*
X0032850D01*
X0032141Y0019058D01*
Y0019341D01*
X0032400Y0019600D01*
X0033300D01*
X0033800Y0020100D01*
X0034950D01*
X0007050Y0016050D02*
Y0015500D01*
X0007250Y0015300D01*
X0007550D01*
X0007800Y0015050D01*
Y0014500D01*
X0036910Y0013650D02*
X0035800D01*
X0035600Y0013450D01*
Y0013100D01*
X0035400Y0012900D01*
X0033800D01*
X0032900Y0012000D01*
X0031330D01*
X0031130Y0012200D01*
Y0012950D01*
X0044150Y0003550D02*
X0043600Y0003000D01*
Y0001400D01*
X0042500Y0000300D01*
X0036380D01*
X0035730Y0000950D01*
X0020740Y0017740D02*
X0022650D01*
X0026450Y0014600D02*
X0026800Y0014950D01*
Y0015450D01*
X0016880Y0016100D02*
X0017500D01*
X0017800Y0016400D01*
X0020550D01*
X0020750Y0016200D01*
Y0015700D01*
X0026900Y0010250D02*
X0026140D01*
X0026000Y0010390D01*
X0025700D01*
X0047250Y0007100D02*
X0045942D01*
X0045724Y0007318D01*
X0045184D01*
Y0007515D02*
X0045650D01*
X0045655Y0007520D01*
X0045880D01*
X0021850Y0015700D02*
X0022210D01*
X0022400Y0015890D01*
Y0016170D01*
X0021620Y0021500D02*
X0021360Y0021240D01*
X0020740D01*
X0023390Y0006850D02*
X0023600D01*
X0023800Y0006650D01*
Y0006600D01*
X0024200Y0006200D01*
Y0005570D01*
X0019200D02*
Y0004150D01*
X0018600Y0003550D01*
Y0001000D01*
X0018400Y0000800D01*
X0017650D01*
X0039050Y0007200D02*
X0038950Y0007300D01*
X0038600D01*
X0038500Y0007200D01*
X0037900D01*
X0037350Y0006650D01*
X0036860D01*
X0015700Y0016100D02*
Y0016600D01*
X0015900Y0016800D01*
X0018720D01*
X0020000Y0018080D01*
Y0019100D01*
X0019700Y0019400D01*
Y0020390D01*
X0020000Y0020690D01*
Y0021540D01*
X0020200Y0021740D01*
X0020740D01*
X0042600Y0008150D02*
X0043250Y0008800D01*
X0044500D01*
X0044720Y0008580D01*
Y0008226D01*
X0044840Y0008106D01*
X0045184D01*
X0003000Y0003000D02*
X0003600Y0003600D01*
X0007600D01*
X0008900Y0004900D01*
X0034900Y0006650D02*
X0034430D01*
X0034300Y0006520D01*
Y0005550D01*
X0034450Y0005400D01*
X0035350D01*
X0035600Y0005150D01*
X0025450Y0002800D02*
X0025200D01*
X0025000Y0003000D01*
X0024690D01*
X0024170Y0003520D01*
X0019380Y0015900D02*
X0018810D01*
X0022200Y0020900D02*
X0021610D01*
X0021450Y0020740D01*
X0020740D01*
X0034000Y0007150D02*
X0034900D01*
Y0006150D02*
X0035400D01*
X0035600Y0006350D01*
Y0006700D01*
X0035400Y0006900D01*
X0034200D01*
X0034000Y0006700D01*
Y0002960D01*
X0033840Y0002800D01*
X0027360D01*
X0026760Y0003400D01*
X0026400D01*
X0026300Y0003300D01*
Y0002920D01*
X0026820Y0002400D01*
X0027160D01*
X0027400Y0002160D01*
Y0000350D01*
X0027200Y0000150D01*
X0013250D01*
X0013000Y0000400D01*
X0005150D01*
X0045184Y0007909D02*
X0044840D01*
X0044700Y0007769D01*
Y0007000D01*
X0044600Y0006900D01*
Y0006600D01*
X0044400Y0006400D01*
X0043800D01*
X0043400Y0006800D01*
X0042950D01*
X0042600Y0007150D01*
X0002700Y0014000D02*
Y0013120D01*
X0003120Y0012700D01*
X0003720D01*
X0003989Y0012431D01*
X0004950D01*
X0031850Y0016550D02*
X0032000Y0016400D01*
X0032074D01*
X0035800Y0006000D02*
X0035450Y0005650D01*
X0034900D01*
X0042600Y-0000800D02*
X0044800Y0001400D01*
Y0003850D01*
X0044600Y0004050D01*
X0041550D01*
X0041350Y0004250D01*
Y0004750D01*
X0041150Y0004950D01*
X0040750D01*
X0040380Y0005320D01*
Y0005800D01*
X0039980Y0006200D01*
X0039400D01*
X0039200Y0006000D01*
X0038400D01*
X0038200Y0005800D01*
Y0004900D01*
X0038100Y0004800D01*
X0037700D01*
X0037600Y0004700D01*
Y0004600D01*
X0037400Y0004400D01*
X0035900D01*
X0035650Y0004650D01*
X0034900D01*
X0032600Y0010600D02*
X0031600D01*
X0040700Y0016000D02*
X0041800D01*
X0042700Y0016900D01*
X0046100D01*
X0047500Y0018300D01*
Y0019900D01*
X0048000Y0020400D01*
X0034900Y0004150D02*
X0035400D01*
X0036150Y0003400D01*
X0037325D01*
X0037335Y0003410D01*
X0037560D01*
X0038350Y0010400D02*
X0038550Y0010600D01*
X0041400D01*
X0042260Y0009740D01*
X0045240D01*
X0046400Y0010900D01*
Y0011800D01*
X0046800Y0012200D01*
X0034950Y0017600D02*
X0033160D01*
X0032560Y0017000D01*
X0029050D01*
X0028750Y0016700D01*
X0028700D01*
X0028370Y0016370D01*
X0026230D01*
X0025110Y0017490D01*
X0023600D01*
X0023100Y0017990D01*
X0020190D01*
X0018800Y0016600D01*
X0016400D01*
X0016200Y0016400D01*
Y0015800D01*
X0016000Y0015600D01*
X0015300D01*
X0015000Y0015900D01*
Y0020800D01*
X0014800Y0021000D01*
X0008800D01*
X0008600Y0020800D01*
X0003500D01*
X0003000Y0020300D01*
X0003800Y0007600D02*
Y0008400D01*
X0006131Y0010731D01*
Y0011250D01*
X0036910Y0017100D02*
X0036150D01*
X0035400Y0017850D01*
X0033050D01*
X0032380Y0017180D01*
X0028780D01*
X0028400Y0017560D01*
X0027450D01*
X0027400Y0017510D01*
Y0016640D01*
X0027300Y0016540D01*
X0026320D01*
X0024870Y0017990D01*
X0023730D01*
X0023650Y0017910D01*
X0000550Y0015200D02*
Y0012800D01*
X0047550Y0001900D02*
Y-0000040D01*
X0046380Y-0001210D01*
X0041090D01*
X0039750Y0000130D01*
X0028000D01*
X0027600Y0000530D01*
Y0002400D01*
X0027400Y0002600D01*
X0027100D01*
X0026550Y0003150D01*
X0002200Y0011200D02*
X0003000Y0010400D01*
X0005530D01*
X0005934Y0010804D01*
Y0011250D01*
X0014120Y0017430D02*
X0014600Y0016950D01*
Y0015000D01*
X0014800Y0014800D01*
X0019450D01*
X0019650Y0014600D01*
X0022400D01*
X0022600Y0014400D01*
X0025000D01*
X0026200Y0013200D01*
X0027200D01*
X0027400Y0013400D01*
Y0015900D01*
X0027500Y0016000D01*
X0028270D01*
X0028770Y0015500D01*
X0029500D01*
X0030600Y0016600D01*
X0031500D01*
X0031600Y0016500D01*
Y0016136D01*
X0031730Y0016006D01*
X0032074D01*
X0006530Y0007620D02*
X0008800D01*
X0008820Y0007600D01*
X0010600D01*
X0015660Y0010060D02*
X0017330D01*
G54D53*
G01X0031400Y0009250D02*
X0028860D01*
X0009950Y0016500D02*
Y0015290D01*
X0023000Y0019340D02*
Y0019740D01*
X0020740D01*
X0005400Y0015805D02*
X0005700Y0016105D01*
X0005705D01*
X0006400Y0016800D01*
X0008650D01*
X0009650Y0015800D01*
X0009850D01*
X0009950Y0015700D01*
Y0015290D01*
X0024360Y0019740D02*
X0020740D01*
X0021700Y0000600D02*
X0019350D01*
X0018850Y0001100D01*
Y0002850D01*
X0019200Y0003200D01*
X0021550D01*
Y0002850D01*
X0021700Y0002700D01*
Y0001950D01*
Y0005570D02*
Y0004200D01*
X0021550Y0004050D01*
Y0003450D01*
X0014000Y0009400D02*
X0010420D01*
Y0010650D01*
X0021700Y0001950D02*
Y0002700D01*
X0021550Y0002850D01*
Y0004050D01*
X0021700Y0004200D01*
Y0005570D01*
X0026555Y0019695D02*
X0025445D01*
X0025400Y0019740D01*
X0024360D01*
X0010420Y0011650D02*
X0009500D01*
X0009150Y0011300D01*
X0008750D01*
X0008600Y0011150D01*
X0008300D01*
X0010420Y0012150D02*
X0012403D01*
X0014250Y0013997D01*
X0017330D01*
X0010420Y0012150D02*
X0009650D01*
X0009200Y0012600D01*
Y0013850D01*
X0022810Y0020740D02*
X0024360D01*
X0022200Y0001950D02*
X0021700D01*
X0024700Y0005570D02*
Y0006000D01*
X0024360Y0020740D02*
X0022810D01*
X0022150Y0019000D02*
X0023600D01*
X0023840Y0019240D02*
X0024360D01*
X0022700Y0001200D02*
Y0001950D01*
X0010420Y0011150D02*
Y0010650D01*
X0024360Y0020240D02*
Y0019740D01*
Y0020740D02*
X0027080D01*
X0027300Y0020960D01*
Y0021200D01*
X0010420Y0012150D02*
Y0011650D01*
X0021200Y0001950D02*
Y0001400D01*
X0022700Y0001200D02*
Y0001950D01*
G54D54*
G01X0031800Y0009650D02*
X0031400Y0009250D01*
X0017550Y0018931D02*
X0015970D01*
X0015400Y0019501D01*
Y0021800D01*
X0015000Y0022200D01*
X0003200D01*
X0003000Y0022400D01*
X0031400Y0018800D02*
X0031000Y0019200D01*
Y0019900D01*
X0017550Y0018931D02*
X0019275D01*
X0019406Y0018800D01*
X0019700D01*
X0037895Y0005095D02*
Y0005425D01*
X0037900Y0005430D01*
Y0005850D01*
X0026700Y0022700D02*
Y0022310D01*
X0026960Y0022050D01*
X0028450D01*
X0028500Y0022100D01*
X0028900D01*
X0029500Y0021500D01*
X0030800D01*
X0031000Y0021300D01*
Y0019900D01*
X0031900D01*
X0033200Y0021200D01*
Y0022600D01*
X0033600Y0023000D01*
X0044200D01*
X0045200Y0022000D01*
X0047400D01*
X0048000Y0021400D01*
X0038800Y0017800D02*
X0039600Y0017000D01*
X0041400D01*
X0041600Y0017200D01*
X0046000D01*
X0047230Y0018430D01*
Y0020630D01*
X0048000Y0021400D01*
X0006700Y0009970D02*
X0006540D01*
Y0009980D01*
X0006530D01*
X0005360Y0018700D02*
Y0016560D01*
X0005000Y0016210D01*
X0048000Y0021400D02*
X0047400Y0022000D01*
Y0023360D01*
X0047650Y0023610D01*
X0047900D01*
X0039800Y0018800D02*
X0039830D01*
X0040430Y0019400D01*
X0041750D01*
X0041980Y0019630D01*
Y0019830D01*
X0041730Y0020080D01*
Y0020430D01*
X0012100Y0010150D02*
X0012925D01*
X0012975Y0010200D01*
X0013400D01*
X0012200Y0017600D02*
Y0017587D01*
X0012187Y0017575D01*
X0011675D01*
X0023350Y0013900D02*
X0024300D01*
X0024308Y0013892D01*
X0011675Y0017575D02*
X0012187D01*
X0012200Y0017587D01*
Y0017600D01*
X0008600Y0018600D02*
X0008150Y0018150D01*
Y0017600D01*
X0017550Y0022081D02*
X0017160Y0022080D01*
Y0022000D01*
X0016420Y0021260D01*
Y0020670D01*
X0022000Y0020480D02*
X0022550D01*
X0022810Y0020740D01*
X0024170Y0009970D02*
Y0009250D01*
X0024820Y0008600D01*
X0026000D01*
X0026200Y0008400D01*
Y0007540D01*
X0026350Y0007390D01*
X0028440D01*
X0029100Y0008050D01*
X0029550D01*
X0024700Y0006000D02*
X0025410D01*
X0026200Y0006790D01*
Y0007390D01*
X0028440D01*
X0029100Y0008050D01*
X0029550D01*
X0005800Y0015600D02*
X0006150Y0015250D01*
Y0014500D01*
X0022810Y0020740D02*
X0022550Y0020480D01*
X0022000D01*
Y0019150D02*
X0022150Y0019000D01*
X0023600D02*
X0023840Y0019240D01*
X0021200Y0001950D02*
Y0002500D01*
X0021000Y0002700D01*
X0020800D01*
X0018900Y0004600D02*
X0017384D01*
X0012150Y0001800D02*
Y0001420D01*
X0011730Y0001000D01*
X0004000D01*
X0003000Y0002000D01*
X0038180Y0000950D02*
X0038830Y0001600D01*
X0040530D01*
X0041180Y0000950D01*
X0024400Y0000550D02*
X0024000D01*
X0023350Y0001200D01*
X0022700D01*
X0009050Y0008450D02*
X0007520Y0009980D01*
X0006530D01*
X0030580Y0006300D02*
Y0006720D01*
X0029850Y0007450D01*
Y0007750D01*
X0029550Y0008050D01*
X0019500Y0008500D02*
Y0008890D01*
X0019960Y0009350D01*
X0024170D01*
Y0009970D01*
X0012200Y0017600D02*
Y0017587D01*
X0012187Y0017575D01*
X0011675D01*
X0005360Y0018700D02*
X0007400D01*
X0007700Y0019000D01*
X0009350D01*
X0009950Y0018400D01*
Y0017650D01*
X0011675Y0015925D02*
X0011370D01*
X0011000Y0015555D01*
Y0014450D01*
X0010400Y0013850D01*
X0009990D01*
X0021200Y0001400D02*
X0021400Y0001200D01*
X0022700D01*
G54D55*
G01X0006918Y0012234D02*
X0007416D01*
X0007480Y0012170D01*
X0007490D01*
X0007510Y0012190D01*
X0007550D01*
X0007370Y0011630D02*
Y0011640D01*
X0007169Y0011840D01*
X0006918D01*
X0044200Y0007909D02*
Y0007712D01*
Y0007515D01*
Y0007318D01*
Y0007121D01*
Y0006800D01*
X0020700Y0005570D02*
X0020200D01*
X0003750Y0005450D02*
X0002750D01*
X0034900Y0003650D02*
Y0003350D01*
X0023700Y0001950D02*
X0023200D01*
X0020700D02*
X0020200D01*
X0033050Y0003700D02*
X0032820Y0003470D01*
Y0003290D01*
X0035950Y0005500D02*
X0036200D01*
X0036350Y0005650D01*
X0036860D01*
X0005934Y0012234D02*
X0005870Y0012170D01*
X0005860D01*
X0005934Y0012234D02*
X0006034D01*
X0006428Y0012628D01*
X0006918D01*
X0023350Y0012916D02*
X0024300D01*
X0024308Y0012908D01*
X0021558Y0012758D02*
X0021150Y0013166D01*
Y0013300D01*
X0020708Y0013742D01*
X0044750Y0015712D02*
Y0015515D01*
X0044000Y0015700D02*
X0044750D01*
Y0015515D01*
X0023300Y0016200D02*
Y0015890D01*
X0023200Y0015790D01*
X0024360Y0017240D02*
X0024320Y0017200D01*
X0023600D01*
X0020740Y0018740D02*
X0020880Y0018600D01*
X0021800D01*
X0026000Y0019200D02*
X0025540Y0018740D01*
X0024360D01*
X0026000Y0019200D02*
X0026295Y0018905D01*
X0026555D01*
X0024360Y0018240D02*
X0023060D01*
X0022600Y0018700D01*
X0021900D01*
X0021800Y0018600D01*
X0038550Y0015950D02*
X0038355Y0015755D01*
X0038045D01*
X0037950Y0013950D02*
X0038000Y0014000D01*
X0038400D01*
X0027900Y0015450D02*
X0028320D01*
Y0014700D01*
X0027900Y0014280D01*
Y0013800D01*
X0046550Y0013100D02*
X0047550D01*
X0048000Y0012650D01*
X0020520Y0010030D02*
X0019780D01*
X0018850Y0009100D01*
X0016800D01*
X0016750Y0009050D01*
Y0008500D01*
X0012100Y0011250D02*
X0011250D01*
Y0010650D01*
X0022200Y0005570D02*
Y0006200D01*
X0020830D01*
X0020700Y0006070D01*
Y0005570D01*
X0046550Y0001900D02*
X0045000Y0003450D01*
Y0004350D01*
X0044800Y0004550D01*
X0044150D01*
X0024700Y0001950D02*
Y0002350D01*
X0024450Y0002600D01*
X0023940D01*
X0023700Y0002360D01*
Y0001950D01*
X0019200D02*
Y0002600D01*
X0020050D01*
X0020200Y0002450D01*
Y0001950D01*
X0013150Y0001800D02*
X0014300D01*
X0015750Y0000350D01*
X0016900D01*
X0017100Y0000550D01*
Y0001740D01*
X0017260Y0001900D01*
X0017650D01*
X0019200Y0001950D02*
Y0002700D01*
Y0003750D02*
X0020200Y0004750D01*
Y0005570D01*
X0023200Y0001950D02*
Y0002600D01*
X0023050Y0002750D01*
X0022050D01*
X0021850Y0002950D01*
Y0003800D01*
X0022200Y0004150D01*
Y0005570D01*
X0020900Y0006900D02*
Y0006200D01*
X0022200D01*
Y0005570D01*
X0022600Y0006850D02*
Y0006610D01*
X0022440Y0006450D01*
X0022360D01*
X0022200Y0006290D01*
Y0005570D01*
X0003750Y0006450D02*
X0003900Y0006300D01*
X0010050D01*
X0043650Y0008550D02*
X0043700Y0008500D01*
X0044200D01*
X0022600Y0006850D02*
Y0007150D01*
X0021800Y0007950D01*
Y0009000D01*
X0021850Y0009050D01*
X0023220D01*
X0023350Y0008920D01*
Y0008550D01*
X0023070Y0009970D02*
X0022550D01*
X0022070Y0010450D01*
X0021150D01*
X0021100Y0010400D01*
Y0010270D01*
X0020860Y0010030D01*
X0020520D01*
X0006918Y0012628D02*
X0007396D01*
X0007618Y0012850D01*
X0007820D01*
Y0012790D01*
X0008300Y0012310D01*
Y0012150D01*
X0006918Y0012037D02*
X0007263D01*
X0007400Y0011900D01*
X0007663D01*
X0007831Y0012069D01*
Y0012150D01*
X0008300D01*
X0020708Y0013742D02*
X0021166Y0014200D01*
X0021900D01*
X0022650Y0013450D01*
Y0013116D01*
X0022850Y0012916D01*
X0023350D01*
X0012100Y0011250D02*
X0011250D01*
Y0013050D02*
Y0013250D01*
X0011300Y0013300D01*
X0011850D01*
X0031090Y0015021D02*
X0030500D01*
X0030071Y0015450D01*
X0029850D01*
X0029700Y0015300D01*
X0028320D01*
Y0015450D01*
X0027900D01*
X0025250Y0021550D02*
X0024940Y0021240D01*
X0024360D01*
X0020740Y0020240D02*
X0020340D01*
X0021140Y0018740D02*
X0020740D01*
X0048000Y0009650D02*
X0047550Y0010100D01*
X0046800D01*
X0046500Y0009800D01*
X0045650D01*
X0034950Y0017100D02*
X0035750D01*
X0036050Y0016800D01*
X0036555D01*
X0036605Y0016750D01*
X0036850D01*
X0018200Y0015900D02*
Y0015400D01*
X0018400Y0015200D01*
X0020050D01*
X0020150Y0015100D01*
X0020450D01*
X0035650Y0012300D02*
Y0012550D01*
X0035550Y0012650D01*
X0034950D01*
X0046550Y0005900D02*
X0044150D01*
X0044100Y0005950D01*
X0041550D01*
X0041350Y0005750D01*
Y0005250D01*
X0041550Y0005050D01*
X0042750D01*
X0043250Y0004550D01*
X0044150D01*
X0031850Y0005860D02*
X0032040D01*
X0032800Y0005100D01*
X0032840Y0001140D02*
X0033295D01*
X0033455Y0001300D01*
X0033700D01*
X0022490Y0000600D02*
X0023450D01*
X0023850Y0001200D02*
Y0001300D01*
X0023700Y0001450D01*
Y0001950D01*
X0019200D02*
Y0002700D01*
X0018350Y0002250D02*
Y0002050D01*
X0018200Y0001900D01*
X0017650D01*
X0044200Y0007712D02*
X0040888D01*
X0040000Y0008600D01*
X0038900D01*
X0038750Y0007050D02*
X0038505Y0006805D01*
X0038145D01*
X0031950Y0007850D02*
X0032300Y0008200D01*
X0033750D01*
X0033800Y0008150D01*
X0034900D01*
X0008300Y0012150D02*
Y0012310D01*
X0007820Y0012790D01*
Y0012850D01*
X0007850Y0012880D01*
Y0012910D01*
Y0015400D02*
X0008050D01*
X0008150Y0015500D01*
Y0016050D01*
X0024360Y0022740D02*
X0024927D01*
X0025000Y0022667D01*
Y0022595D01*
X0025250Y0022345D01*
Y0022100D01*
Y0021550D02*
X0024940Y0021240D01*
X0024360D01*
X0027900Y0017050D02*
X0028305D01*
X0028405Y0016950D01*
X0028650D01*
X0026000Y0020200D02*
X0026245D01*
X0026295Y0020250D01*
X0028200D01*
X0008150Y0016050D02*
Y0015500D01*
X0008050Y0015400D01*
X0007850D01*
X0030000Y0011970D02*
Y0012330D01*
X0029780Y0012550D01*
X0029545D01*
X0029495Y0012600D01*
X0029250D01*
X0029500Y0014700D02*
X0028320D01*
X0027900Y0014280D01*
Y0013800D01*
X0007630Y0011860D02*
Y0011900D01*
X0007400D01*
X0007263Y0012037D01*
X0006918D01*
X0027950Y0008000D02*
Y0008550D01*
X0027800Y0008700D01*
X0027550D01*
X0027750Y0010850D02*
X0027505D01*
X0027405Y0010750D01*
X0026900D01*
X0034950Y0012650D02*
X0034400D01*
X0033850Y0012100D01*
X0033900Y0008050D02*
Y0008150D01*
X0034900D01*
X0030000Y0011970D02*
Y0011850D01*
X0030650Y0011200D01*
Y0010100D01*
X0030800Y0009950D01*
X0031900D01*
X0032100Y0009750D01*
Y0009150D01*
X0031900Y0008950D01*
X0030150D01*
X0029800Y0008600D01*
X0028550D01*
X0028500Y0008550D01*
X0027950D01*
Y0008000D01*
X0044200Y0007712D02*
X0040888D01*
X0040000Y0008600D01*
X0038900D01*
X0039050Y0010150D02*
X0038805D01*
X0038755Y0010100D01*
X0038300D01*
X0038250Y0010150D01*
X0036860D01*
X0027900Y0017050D02*
X0028305D01*
X0028405Y0016950D01*
X0028650D01*
X0029500Y0014700D02*
X0028320D01*
X0027900Y0014280D01*
Y0013800D01*
X0037700Y0018500D02*
X0037850Y0018650D01*
Y0019050D01*
X0037650Y0019250D01*
X0037250D01*
X0037100Y0019100D01*
X0036910D01*
X0039050Y0010150D02*
X0038805D01*
X0038755Y0010100D01*
X0038300D01*
X0038250Y0010150D01*
X0036860D01*
X0034950Y0012650D02*
X0034400D01*
X0033850Y0012100D01*
X0029500Y0014700D02*
X0028320D01*
X0027900Y0014280D01*
Y0013800D01*
X0044200Y0008106D02*
Y0007909D01*
Y0008303D02*
Y0008106D01*
Y0008500D02*
Y0008303D01*
X0031090Y0015218D02*
Y0015021D01*
X0044750Y0015318D02*
Y0015121D01*
X0031090Y0015415D02*
Y0015218D01*
X0044750Y0015515D02*
Y0015318D01*
X0031090Y0015612D02*
Y0015415D01*
Y0015809D02*
Y0015612D01*
X0044750Y0015909D02*
Y0015712D01*
X0031090Y0016006D02*
Y0015809D01*
X0044750Y0016106D02*
Y0015909D01*
X0031090Y0016203D02*
Y0016006D01*
X0044750Y0016303D02*
Y0016106D01*
X0005737Y0013218D02*
Y0013860D01*
X0005400Y0014200D01*
Y0015805D01*
X0031090Y0016400D02*
Y0016203D01*
X0005000Y0016210D02*
Y0014239D01*
X0005540Y0013719D01*
X0009200Y0013850D02*
X0008600D01*
X0008350Y0013600D01*
X0006450D01*
X0006328Y0013478D01*
X0044750Y0016500D02*
Y0016303D01*
X0024360Y0021740D02*
Y0021240D01*
X0006131Y0013218D02*
Y0013560D01*
X0006371Y0013800D01*
X0008200D01*
X0008800Y0014400D01*
X0009750D01*
X0009990Y0014160D01*
Y0013850D01*
X0037200Y0021550D02*
Y0021490D01*
X0038270Y0020420D01*
X0039540D01*
X0040130Y0021010D01*
X0041020D01*
X0041170Y0020860D01*
Y0019950D01*
X0041020Y0019800D01*
X0039250D01*
X0039150Y0019700D01*
X0004172Y0012628D02*
X0004950D01*
X0005440Y0010700D02*
X0005200D01*
X0005934Y0013218D02*
Y0013634D01*
X0006350Y0014050D01*
X0006600D01*
X0007050Y0014500D01*
X0038145Y0006805D02*
X0038505D01*
X0038750Y0007050D01*
X0008300Y0010650D02*
Y0010300D01*
X0008600D01*
X0027900Y0013800D02*
Y0014280D01*
X0028320Y0014700D01*
X0029745D01*
X0029845Y0014800D01*
X0030279D01*
X0030500Y0015021D01*
X0031090D01*
X0008300Y0011650D02*
X0008800D01*
X0009000Y0011850D01*
Y0012350D01*
X0008950D01*
X0008850Y0012450D01*
Y0012800D01*
X0008750Y0012900D01*
X0008450D01*
X0008150Y0013200D01*
X0007270D01*
X0024360Y0022240D02*
X0024650D01*
X0025050Y0021840D01*
X0025500D01*
X0026140Y0021200D01*
X0026510D01*
G54D56*
G01X0036910Y0014650D02*
X0037100D01*
Y0014700D01*
X0037300D01*
X0037700Y0015100D01*
X0029870Y0018000D02*
Y0017495D01*
X0029935Y0017430D01*
X0030000D01*
Y0020600D02*
X0029900Y0020500D01*
Y0019900D01*
X0020740Y0022740D02*
X0023300D01*
X0023660Y0023100D01*
X0024980D01*
X0026400Y0021680D01*
X0027970D01*
X0028600Y0021050D01*
X0029350D01*
X0029900Y0020500D01*
Y0019900D01*
Y0020500D01*
X0030000Y0020600D01*
X0032600Y0022700D02*
X0027800D01*
X0024200Y0001950D02*
Y0001450D01*
X0024450Y0001200D01*
X0024990D01*
X0025190Y0001000D01*
Y0000550D01*
X0029870Y0018000D02*
X0029020D01*
X0028800Y0017780D01*
X0027140D01*
X0026800Y0017440D01*
Y0017050D01*
G54D57*
G01X0005540Y0013719D02*
Y0013218D01*
X0006328Y0013478D02*
Y0013218D01*
X0008600Y0013400D02*
X0006710D01*
X0006528Y0013218D01*
X0006525D01*
X0006528D01*
X0006710Y0013400D01*
X0008600D01*
X0005737Y0011250D02*
Y0011200D01*
X0005740D01*
Y0011000D01*
X0005440Y0010700D01*
X0006525Y0013218D02*
Y0013400D01*
X0008600D01*
X0007270Y0013200D02*
X0006918Y0012825D01*
G54D58*
G01X0031440Y0007000D02*
X0031435Y0006995D01*
Y0006645D01*
G54D59*
G01X0000750Y0005450D02*
X0001300Y0004900D01*
X0004900D01*
X0006900D02*
X0005900Y0005900D01*
X0002200D01*
X0001750Y0005450D01*
Y0004450D02*
X0002200Y0004000D01*
X0007000D01*
X0007900Y0004900D01*
G54D62*
G01X0000000Y0004000D02*
Y0019300D01*
X-0004000D01*
Y0023300D01*
X0000000D01*
Y0026300D01*
X0003800D01*
X0006800Y0023300D01*
X0039700D01*
X0044700Y0028300D01*
X0048500D01*
Y-0005000D01*
X0044700D01*
X0039700Y0000000D01*
X0006800D01*
X0003800Y-0003000D01*
X0000000D01*
Y0000000D01*
X-0004000D01*
Y0004000D01*
X0000000D01*
G54D10*
X0039017Y0021492D03*
X0028790Y0001402D03*
X0013750Y0011650D03*
X0024800Y0007400D03*
Y0015900D03*
X0045760Y0000150D03*
Y0023150D03*
X-0002000Y0021300D03*
Y0002000D03*
G54D11*
X0034950Y0015650D03*
Y0015150D03*
Y0014650D03*
Y0014150D03*
Y0013650D03*
Y0013150D03*
Y0012650D03*
X0036910D03*
Y0013150D03*
Y0013650D03*
Y0014150D03*
Y0014650D03*
Y0015150D03*
Y0015650D03*
Y0016150D03*
X0034900Y0011150D03*
Y0010650D03*
Y0010150D03*
Y0009650D03*
Y0009150D03*
Y0008650D03*
Y0008150D03*
X0036860D03*
Y0008650D03*
Y0009150D03*
Y0009650D03*
Y0010150D03*
Y0010650D03*
Y0011150D03*
Y0011650D03*
X0034900Y0006650D03*
Y0006150D03*
Y0005650D03*
Y0005150D03*
Y0004650D03*
Y0004150D03*
Y0003650D03*
X0036860D03*
Y0004150D03*
Y0004650D03*
Y0005150D03*
Y0005650D03*
Y0006150D03*
Y0006650D03*
Y0007150D03*
X0034950Y0020100D03*
Y0019600D03*
Y0019100D03*
Y0018600D03*
Y0018100D03*
Y0017600D03*
Y0017100D03*
X0036910D03*
Y0017600D03*
Y0018100D03*
Y0018600D03*
Y0019100D03*
Y0019600D03*
Y0020100D03*
Y0020600D03*
X0026900Y0010250D03*
Y0009750D03*
Y0009250D03*
X0028860D03*
Y0009750D03*
Y0010250D03*
Y0010750D03*
G54D12*
X0034950Y0016150D03*
X0034900Y0011650D03*
Y0007150D03*
X0034950Y0020600D03*
X0026900Y0010750D03*
G54D13*
X0005934Y0012234D03*
G54D14*
X0005344Y0011250D03*
X0005540D03*
X0005737D03*
X0005934D03*
X0006131D03*
X0006328D03*
X0006525D03*
Y0013218D03*
X0006328D03*
X0006131D03*
X0005934D03*
X0005737D03*
X0005540D03*
X0005344D03*
G54D15*
X0004950Y0012628D03*
Y0012431D03*
Y0012234D03*
Y0012037D03*
Y0011840D03*
Y0011644D03*
X0006918D03*
Y0011840D03*
Y0012037D03*
Y0012234D03*
Y0012431D03*
Y0012628D03*
Y0012825D03*
G54D16*
X0004950D03*
G54D17*
X0017650Y0001900D03*
Y0000800D03*
X0012100Y0010150D03*
Y0011250D03*
X0011850Y0014400D03*
Y0013300D03*
G54D18*
X0016750Y0008500D03*
X0017850D03*
X0027900Y0015450D03*
X0026800D03*
X0027900Y0013800D03*
X0026800D03*
X0026850Y0006250D03*
X0027950D03*
X0021850Y0015700D03*
X0020750D03*
X0023070Y0009970D03*
X0024170D03*
X0019500Y0008500D03*
X0020600D03*
X0029550Y0008050D03*
X0030650D03*
X0027900Y0017050D03*
X0026800D03*
X0027800Y0022700D03*
X0026700D03*
X0029900Y0019900D03*
X0031000D03*
X0040630Y0020430D03*
X0041730D03*
X0043400Y0020550D03*
X0044500D03*
X0027950Y0008000D03*
X0026850D03*
X0026800Y0011950D03*
X0027900D03*
X0012000Y0008100D03*
X0013100D03*
X0003800Y0014000D03*
X0002700D03*
X0000550Y0010400D03*
X0001650D03*
X0000550Y0007000D03*
X0001650D03*
X0003800Y0009450D03*
X0002700D03*
Y0007600D03*
X0003800D03*
X0007050Y0017600D03*
X0008150D03*
X0000550Y0012800D03*
X0001650D03*
X0000550Y0015200D03*
X0001650D03*
X0008150Y0016050D03*
X0007050D03*
G54D19*
X0020520Y0010030D03*
X0022300Y0011430D03*
X0000750Y0005450D03*
X0001750Y0004450D03*
Y0005450D03*
X0002750Y0004450D03*
Y0005450D03*
X0003750Y0004450D03*
Y0005450D03*
X0038180Y0000950D03*
X0039180D03*
X0040180D03*
X0041180D03*
X0042180D03*
X0048000Y0021400D03*
Y0020400D03*
Y0019400D03*
Y0018400D03*
Y0017400D03*
Y0016400D03*
Y0015400D03*
X0011900Y0004900D03*
X0010900D03*
X0009900D03*
X0008900D03*
X0007900D03*
X0006900D03*
X0005900D03*
X0004900D03*
X0039600Y0015150D03*
Y0014150D03*
Y0013150D03*
Y0012150D03*
Y0011150D03*
Y0010150D03*
Y0009150D03*
Y0008150D03*
Y0007150D03*
X0042600D03*
Y0008150D03*
Y0009150D03*
Y0010150D03*
Y0011150D03*
Y0012150D03*
Y0013150D03*
Y0014150D03*
Y0015150D03*
Y0016150D03*
X0048000Y0013650D03*
X0047000Y0012650D03*
X0048000D03*
X0047000Y0011650D03*
X0048000D03*
X0047000Y0010650D03*
X0048000D03*
X0047000Y0009650D03*
X0048000D03*
X0038800Y0018800D03*
X0039800Y0017800D03*
Y0018800D03*
X0040800Y0017800D03*
Y0018800D03*
X0041800Y0017800D03*
Y0018800D03*
X0042800Y0017800D03*
X0043800D03*
Y0018800D03*
X0002000Y0003000D03*
X0003000Y0002000D03*
Y0003000D03*
X0004000Y0002000D03*
Y0003000D03*
X0005000Y0002000D03*
Y0003000D03*
X0006000Y0002000D03*
X0007000D03*
Y0003000D03*
X0038800Y0005500D03*
X0039800Y0004500D03*
Y0005500D03*
X0040800Y0004500D03*
Y0005500D03*
X0041800Y0004500D03*
Y0005500D03*
X0002000Y0021300D03*
X0003000Y0020300D03*
Y0021300D03*
X0004000Y0020300D03*
Y0021300D03*
X0005000Y0020300D03*
Y0021300D03*
X0006000Y0020300D03*
Y0021300D03*
X0035730Y0000950D03*
Y0002300D03*
X0036730D03*
X0037730D03*
X0040180D03*
X0041180D03*
X0042180D03*
X0046550Y0001900D03*
X0047550Y0002900D03*
X0046550D03*
X0047550Y0003900D03*
X0046550D03*
X0047550Y0004900D03*
X0046550D03*
X0047550Y0005900D03*
X0046550D03*
X0026750Y0001780D03*
X0005150Y0022900D03*
X0014120Y0017430D03*
X0005150Y-0000600D03*
X0033800Y0022450D03*
X0016210Y0000780D03*
X0042600Y-0001800D03*
X0046200Y0020150D03*
X0010050Y0008450D03*
G54D20*
X0021520Y0010030D03*
X0023300Y0011430D03*
X0000750Y0004450D03*
X0037180Y0000950D03*
X0048000Y0022400D03*
X0012900Y0004900D03*
X0039600Y0016150D03*
X0047000Y0013650D03*
X0038800Y0017800D03*
X0042800Y0018800D03*
X0002000Y0002000D03*
X0006000Y0003000D03*
X0038800Y0004500D03*
X0002000Y0020300D03*
X0034730Y0000950D03*
Y0002300D03*
X0039180D03*
X0047550Y0001900D03*
X0026750Y0000780D03*
X0005150Y0023900D03*
X0014120Y0016430D03*
X0005150Y0000400D03*
X0034800Y0022450D03*
X0016210Y0001780D03*
X0042600Y-0000800D03*
X0046200Y0021150D03*
X0009050Y0008450D03*
G54D21*
X0011675Y0017575D03*
Y0015925D03*
G54D22*
X0006150Y0014500D03*
X0007800D03*
G54D23*
X0017330Y0013997D03*
Y0010060D03*
G54D24*
X0005940Y0012170D03*
X0005860D03*
G54D25*
X0006530Y0009980D03*
Y0007620D03*
X0009950Y0017650D03*
Y0015290D03*
G54D26*
X0030000Y0013550D03*
Y0011970D03*
G54D27*
X0022600Y0006850D03*
X0023390D03*
X0001050Y0008500D03*
X0001840D03*
X0024400Y0000550D03*
X0025190D03*
X0021700Y0000600D03*
X0022490D03*
X0009200Y0013850D03*
X0009990D03*
X0027300Y0021200D03*
X0026510D03*
X0037200Y0021550D03*
X0036410D03*
X0038180Y0003380D03*
X0038970D03*
X0029100Y0004850D03*
X0029890D03*
X0032820Y0003290D03*
X0033610D03*
G54D28*
X0025700Y0009600D03*
Y0010390D03*
X0023200Y0015000D03*
Y0015790D03*
X0026555Y0019695D03*
Y0018905D03*
X0038045Y0015755D03*
Y0016545D03*
X0038400Y0014000D03*
Y0014790D03*
X0038145Y0006805D03*
Y0007595D03*
X0047900Y0024400D03*
Y0023610D03*
G54D29*
X0021558Y0013742D03*
Y0012758D03*
X0020708D03*
Y0013742D03*
X0023350Y0013900D03*
Y0012916D03*
X0024308Y0013892D03*
Y0012908D03*
X0003000Y0023800D03*
Y0024800D03*
Y0025800D03*
X0045500Y0027800D03*
Y0026800D03*
Y0025800D03*
X0003000Y-0002500D03*
Y-0001500D03*
Y-0000500D03*
X0045500Y-0002500D03*
Y-0003500D03*
Y-0004500D03*
G54D30*
X0005360Y0018700D03*
G54D31*
X0002900D03*
X0004180Y0016810D03*
G54D32*
X0031435Y0006645D03*
Y0006055D03*
X0037895Y0005095D03*
Y0004505D03*
G54D33*
X0029534Y0005469D03*
Y0016492D03*
G54D34*
X0031425Y0004200D03*
X0028276Y0019160D03*
G54D35*
X0011370Y0018950D03*
X0030700Y0022150D03*
X0029700D03*
X0012150Y0001800D03*
X0013150D03*
X0031840Y0001140D03*
X0032840D03*
X0044150Y0003550D03*
Y0004550D03*
G54D36*
X0031700Y0022150D03*
X0011150Y0001800D03*
X0030840Y0001140D03*
X0044150Y0002550D03*
G54D37*
X0008300Y0011650D03*
Y0011150D03*
Y0010650D03*
X0010420D03*
Y0011150D03*
Y0011650D03*
Y0012150D03*
G54D38*
X0008300D03*
G54D39*
X0044200Y0008303D03*
Y0008106D03*
Y0007909D03*
Y0007712D03*
Y0007515D03*
Y0007318D03*
Y0007121D03*
X0045184D03*
Y0007318D03*
Y0007515D03*
Y0007712D03*
Y0007909D03*
Y0008303D03*
Y0008500D03*
X0044750Y0016303D03*
Y0016106D03*
Y0015909D03*
Y0015712D03*
Y0015515D03*
Y0015318D03*
Y0015121D03*
X0045734D03*
Y0015318D03*
Y0015515D03*
Y0015712D03*
Y0015909D03*
Y0016303D03*
Y0016500D03*
X0031090Y0016203D03*
Y0016006D03*
Y0015809D03*
Y0015612D03*
Y0015415D03*
Y0015218D03*
Y0015021D03*
X0032074D03*
Y0015218D03*
Y0015415D03*
Y0015612D03*
Y0015809D03*
Y0016203D03*
Y0016400D03*
G54D40*
X0044200Y0008500D03*
X0045184Y0008106D03*
X0044750Y0016500D03*
X0045734Y0016106D03*
X0031090Y0016400D03*
X0032074Y0016006D03*
G54D41*
X0024360Y0017740D03*
Y0018240D03*
Y0018740D03*
Y0019240D03*
Y0019740D03*
Y0020240D03*
Y0020740D03*
Y0021240D03*
Y0021740D03*
Y0022240D03*
Y0022740D03*
X0020740D03*
Y0022240D03*
Y0021740D03*
Y0021240D03*
Y0020740D03*
Y0020240D03*
Y0019740D03*
Y0019240D03*
Y0018740D03*
Y0018240D03*
Y0017740D03*
Y0017240D03*
G54D42*
X0024360D03*
G54D43*
X0019700Y0001950D03*
X0020200D03*
X0020700D03*
X0021200D03*
X0021700D03*
X0022200D03*
X0022700D03*
X0023200D03*
X0023700D03*
X0024200D03*
X0024700D03*
Y0005570D03*
X0024200D03*
X0023700D03*
X0023200D03*
X0022700D03*
X0022200D03*
X0021700D03*
X0021200D03*
X0020700D03*
X0020200D03*
X0019700D03*
X0019200D03*
G54D44*
Y0001950D03*
G54D45*
X0043800Y0022250D03*
X0042028D03*
Y0024809D03*
X0043800D03*
G54D46*
X0009500Y0020300D03*
X0011370D03*
X0013240D03*
G54D47*
X0023350Y0008550D03*
X0022170D03*
X0018200Y0015900D03*
X0019380D03*
X0026710Y0004510D03*
X0027890D03*
X0015700Y0016100D03*
X0016880D03*
X0029400Y0006300D03*
X0030580D03*
X0031050Y0018000D03*
X0029870D03*
G54D48*
X0017550Y0022081D03*
Y0018931D03*
G54D49*
X0017384Y0004600D03*
X0014628D03*
G54D50*
X0001840Y0009540D03*
X0033350Y0016650D03*
X0031850Y0016550D03*
X0006180Y0009050D03*
X0008600Y0010300D03*
X0007050Y0014500D03*
X0007550Y0012190D03*
X0006700Y0009970D03*
X0007370Y0011630D03*
X0035950Y0005500D03*
X0034900Y0003350D03*
X0033050Y0003700D03*
X0023300Y0016200D03*
X0023600Y0017200D03*
X0021800Y0018600D03*
X0026000Y0019200D03*
X0044200Y0006800D03*
X0037700Y0015100D03*
X0044000Y0015700D03*
G54D51*
X0031800Y0009650D03*
X0015400Y0006600D03*
X0016800Y0006200D03*
X0038600Y0007750D03*
X0013100Y0008700D03*
X0014630Y0006400D03*
X0040900Y0015100D03*
X0040850Y0012730D03*
X0021950Y0007000D03*
X0022150Y0003650D03*
X0038550Y0015950D03*
X0046550Y0013100D03*
X0011250Y0010650D03*
X0019200Y0003750D03*
X0020900Y0006900D03*
X0003750Y0006450D03*
X0010050Y0006300D03*
X0043650Y0008550D03*
X0011250Y0011250D03*
Y0013050D03*
X0044250Y0019950D03*
X0045650Y0009800D03*
X0036850Y0016750D03*
X0020450Y0015100D03*
X0035650Y0012300D03*
X0031850Y0005860D03*
X0032800Y0005100D03*
X0033700Y0001300D03*
X0023450Y0000600D03*
X0023850Y0001200D03*
X0019200Y0002700D03*
X0018350Y0002250D03*
X0031950Y0007850D03*
X0007850Y0012910D03*
X0025250Y0022100D03*
Y0021550D03*
X0026000Y0020200D03*
X0028200Y0020250D03*
X0028750Y0021750D03*
X0007850Y0015400D03*
X0007150Y0019050D03*
X0029250Y0012600D03*
X0007630Y0011860D03*
X0027550Y0008700D03*
X0027750Y0010850D03*
X0033900Y0008050D03*
X0038900Y0008600D03*
X0028650Y0016950D03*
X0037700Y0018500D03*
X0037950Y0013950D03*
X0039100Y0010900D03*
X0039050Y0010150D03*
X0033850Y0012100D03*
X0032550Y0012700D03*
X0029500Y0014700D03*
X0003000Y0022400D03*
X0031400Y0018800D03*
X0019700D03*
X0037900Y0005850D03*
X0009950Y0016500D03*
X0023000Y0019340D03*
X0021550Y0003450D03*
X0014000Y0009400D03*
X0007000Y0006600D03*
X0031400Y0013200D03*
X0008900Y0010900D03*
X0012600Y0014400D03*
X0046690Y0020840D03*
X0034200Y0010150D03*
X0030000Y0017430D03*
X0029960Y0006740D03*
X0033700Y0016460D03*
X0024000Y0011000D03*
X0040350Y0009400D03*
X0040300Y0006300D03*
X0037550Y0018950D03*
X0043030Y0011900D03*
X0031200Y0007600D03*
X0013400Y0010200D03*
X0007670Y0012500D03*
X0008800Y0007620D03*
X0039150Y0019700D03*
X0008600Y0018600D03*
X0036030Y0003990D03*
X0041390Y0019750D03*
X0032600Y0015160D03*
X0003800Y0008220D03*
X0003200Y0014600D03*
X0016420Y0020670D03*
X0040500Y0016400D03*
X0040600Y0014400D03*
X0029100Y0015830D03*
X0005200Y0010700D03*
X0038580Y0003720D03*
X0045000Y0021600D03*
X0046880Y0019800D03*
X0030000Y0001400D03*
X0038750Y0007050D03*
X0029050Y0007000D03*
X0039690Y0001100D03*
X0030400Y0016000D03*
X0001850Y0014000D03*
X0001800Y0011900D03*
X0038600Y0003000D03*
X0041200Y0017390D03*
X0025800Y0007800D03*
X0004600Y0014000D03*
X0007000Y0011050D03*
X0004360Y0007560D03*
X0033000Y0016260D03*
Y0016850D03*
X0034860Y0016590D03*
X0005800Y0015600D03*
X0042810Y0011600D03*
X0022000Y0020480D03*
Y0019150D03*
X0029200Y0004300D03*
X0029760Y0012990D03*
X0020800Y0002700D03*
X0018900Y0004600D03*
X0037640Y0017600D03*
X0037600Y0013150D03*
X0035750Y0008650D03*
X0033950Y0014400D03*
X0033270Y0011710D03*
X0033650Y0009400D03*
X0041600Y0015600D03*
X0044100Y0000300D03*
X0029650Y0008900D03*
X0037350Y0016600D03*
X0027200Y0007000D03*
X0034050Y0001450D03*
X0033250Y0011150D03*
X0031300Y0011000D03*
X0029910Y0006240D03*
X0027400Y0011400D03*
X0031700Y0014600D03*
X0035600Y0019900D03*
X0014200Y0020000D03*
X0005000Y0011250D03*
X0038060Y0019710D03*
X0033650Y0015750D03*
X0035600Y0015800D03*
X0036200Y0015150D03*
X0025850Y0008150D03*
X0023400Y0003200D03*
X0035900Y0014650D03*
X0032800Y0007400D03*
X0031490Y0017800D03*
X0046950Y0015050D03*
X0032500Y0014600D03*
X0034240Y0019600D03*
X0007800Y0006750D03*
X0006580Y0010630D03*
X0034350Y0018850D03*
X0030000Y0020600D03*
X0032600Y0022700D03*
X0034150Y0013650D03*
X0019400Y0020400D03*
X0023410Y0018540D03*
X0027850Y0009200D03*
X0029370Y0015030D03*
X0027800Y0009900D03*
X0035680Y0018800D03*
X0005230Y0013630D03*
X0015920Y0012080D03*
X0044550Y0012850D03*
X0029960Y0015100D03*
X0038300Y0018760D03*
X0036190Y0008650D03*
X0036240Y0013150D03*
X0032150Y0013650D03*
X0002600Y0010400D03*
X0003550Y0012370D03*
X0031790Y0012600D03*
X0030200Y0002000D03*
X0022400Y0018440D03*
X0032600Y0019200D03*
X0035790Y0009650D03*
X0046280Y0016200D03*
X0027850Y0014850D03*
X0042350Y0008700D03*
X0019800Y0021910D03*
X0022390Y0015210D03*
X0040800Y0021350D03*
X0040600Y0006150D03*
X0039600Y0011650D03*
X0033000Y0006600D03*
X0036000Y0017750D03*
X0031130Y0012950D03*
X0022650Y0017740D03*
X0026450Y0014600D03*
X0008600Y0013400D03*
X0012200Y0017600D03*
X0047250Y0007100D03*
X0045880Y0007520D03*
X0022400Y0016170D03*
X0021620Y0021500D03*
X0039050Y0007200D03*
X0031440Y0007000D03*
X0035600Y0005150D03*
X0025450Y0002800D03*
X0024170Y0003520D03*
X0018810Y0015900D03*
X0022200Y0020900D03*
X0034000Y0007150D03*
X0027800Y0012540D03*
X0029780Y0011150D03*
X0034950Y0007650D03*
X0035800Y0006000D03*
X0031200Y0013930D03*
X0032600Y0010600D03*
X0031600D03*
X0029600Y0010200D03*
X0035740Y0010490D03*
X0040700Y0016000D03*
X0033100Y0007700D03*
X0032800Y0007900D03*
X0037560Y0003410D03*
X0038350Y0010400D03*
X0046800Y0012200D03*
X0023650Y0017910D03*
X0026550Y0003150D03*
X0029500Y0007400D03*
X0002200Y0011200D03*
X0010600Y0007600D03*
X0015660Y0010060D03*
M02*
