*
%LPD*%
%LNANT2-3.TOP*%
%FSLAX24Y24*%
%MOIN*%
%AD*%
%ADD10C,0.039400*%
%ADD11R,0.039400X0.039400*%
%ADD12R,0.100000X0.200000*%
%ADD13R,0.050000X0.050000*%
%ADD14R,0.047000X0.047000*%
%ADD15R,0.086600X0.039400*%
%ADD16R,0.041300X0.039400*%
%ADD17C,0.010000*%
%ADD18C,0.019700*%
%ADD19C,0.030000*%
%ADD20C,0.012000*%
%ADD21C,0.020000*%
G54D17*
%SRX1Y1I0.0J0.0*%
G1X13260Y4040D2*
G1X13260Y3190D1*
G1X14720Y3230D2*
G1X13130Y3230D1*
G1X14720Y3950D2*
G1X13130Y3950D1*
G1X14720Y3860D2*
G1X13130Y3860D1*
G1X14720Y3770D2*
G1X13130Y3770D1*
G1X14720Y3680D2*
G1X13130Y3680D1*
G1X14720Y3590D2*
G1X13130Y3590D1*
G1X14720Y3500D2*
G1X13130Y3500D1*
G1X14720Y3410D2*
G1X13130Y3410D1*
G1X14720Y3320D2*
G1X13130Y3320D1*
G1X14250Y4040D2*
G1X14250Y3190D1*
G1X14160Y4040D2*
G1X14160Y3190D1*
G1X14070Y4040D2*
G1X14070Y3190D1*
G1X13980Y4040D2*
G1X13980Y3190D1*
G1X13890Y4040D2*
G1X13890Y3190D1*
G1X13800Y4040D2*
G1X13800Y3190D1*
G1X13710Y4040D2*
G1X13710Y3190D1*
G1X13620Y4040D2*
G1X13620Y3190D1*
G1X13530Y4040D2*
G1X13530Y3190D1*
G1X13440Y4040D2*
G1X13440Y3190D1*
G1X13350Y4040D2*
G1X13350Y3190D1*
G1X13170Y4040D2*
G1X13170Y3190D1*
G1X13130Y4040D2*
G1X13130Y3190D1*
G1X14720Y3190D2*
G1X13130Y3190D1*
G1X14720Y4040D2*
G1X14720Y3190D1*
G1X14720Y4040D2*
G1X13130Y4040D1*
G1X14700Y4040D2*
G1X14700Y3190D1*
G1X14610Y4040D2*
G1X14610Y3190D1*
G1X14520Y4040D2*
G1X14520Y3190D1*
G1X14430Y4040D2*
G1X14430Y3190D1*
G1X14340Y4040D2*
G1X14340Y3190D1*
G1X14710Y5410D2*
G1X13130Y5410D1*
G1X14710Y5320D2*
G1X13130Y5320D1*
G1X14710Y5230D2*
G1X13130Y5230D1*
G1X14710Y5140D2*
G1X13130Y5140D1*
G1X14710Y5050D2*
G1X13130Y5050D1*
G1X14710Y4960D2*
G1X13130Y4960D1*
G1X14710Y4870D2*
G1X13130Y4870D1*
G1X14710Y4780D2*
G1X13130Y4780D1*
G1X14710Y4690D2*
G1X13130Y4690D1*
G1X14710Y4600D2*
G1X13130Y4600D1*
G1X14710Y4510D2*
G1X13130Y4510D1*
G1X14070Y5440D2*
G1X14070Y4380D1*
G1X13980Y5440D2*
G1X13980Y4380D1*
G1X13890Y5440D2*
G1X13890Y4380D1*
G1X13800Y5440D2*
G1X13800Y4380D1*
G1X13710Y5440D2*
G1X13710Y4380D1*
G1X13620Y5440D2*
G1X13620Y4380D1*
G1X13530Y5440D2*
G1X13530Y4380D1*
G1X13440Y5440D2*
G1X13440Y4380D1*
G1X13350Y5440D2*
G1X13350Y4380D1*
G1X13260Y5440D2*
G1X13260Y4380D1*
G1X13170Y5440D2*
G1X13170Y4380D1*
G1X14710Y5440D2*
G1X14710Y4380D1*
G1X13130Y4380D1*
G1X13130Y5440D2*
G1X13130Y4380D1*
G1X14700Y5440D2*
G1X14700Y4380D1*
G1X14610Y5440D2*
G1X14610Y4380D1*
G1X14520Y5440D2*
G1X14520Y4380D1*
G1X14430Y5440D2*
G1X14430Y4380D1*
G1X14340Y5440D2*
G1X14340Y4380D1*
G1X14250Y5440D2*
G1X14250Y4380D1*
G1X14160Y5440D2*
G1X14160Y4380D1*
G1X14710Y4420D2*
G1X13130Y4420D1*
G1X14710Y5440D2*
G1X13130Y5440D1*
G1X12630Y6680D2*
G1X12630Y5730D1*
G1X12540Y6680D2*
G1X12540Y5730D1*
G1X12450Y6680D2*
G1X12450Y5730D1*
G1X14710Y6670D2*
G1X12410Y6670D1*
G1X14710Y6580D2*
G1X12410Y6580D1*
G1X14710Y6490D2*
G1X12410Y6490D1*
G1X14710Y6400D2*
G1X12410Y6400D1*
G1X14710Y6310D2*
G1X12410Y6310D1*
G1X14710Y6220D2*
G1X12410Y6220D1*
G1X14710Y6130D2*
G1X12410Y6130D1*
G1X14710Y6040D2*
G1X12410Y6040D1*
G1X14710Y5950D2*
G1X12410Y5950D1*
G1X14710Y5860D2*
G1X12410Y5860D1*
G1X13800Y6680D2*
G1X13800Y5730D1*
G1X13710Y6680D2*
G1X13710Y5730D1*
G1X13620Y6680D2*
G1X13620Y5730D1*
G1X13530Y6680D2*
G1X13530Y5730D1*
G1X13440Y6680D2*
G1X13440Y5730D1*
G1X13350Y6680D2*
G1X13350Y5730D1*
G1X13260Y6680D2*
G1X13260Y5730D1*
G1X13170Y6680D2*
G1X13170Y5730D1*
G1X13080Y6680D2*
G1X13080Y5730D1*
G1X12990Y6680D2*
G1X12990Y5730D1*
G1X12900Y6680D2*
G1X12900Y5730D1*
G1X12810Y6680D2*
G1X12810Y5730D1*
G1X12720Y6680D2*
G1X12720Y5730D1*
G1X14710Y5730D2*
G1X12410Y5730D1*
G1X12410Y6680D2*
G1X12410Y5730D1*
G1X14700Y6680D2*
G1X14700Y5730D1*
G1X14610Y6680D2*
G1X14610Y5730D1*
G1X14520Y6680D2*
G1X14520Y5730D1*
G1X14430Y6680D2*
G1X14430Y5730D1*
G1X14340Y6680D2*
G1X14340Y5730D1*
G1X14250Y6680D2*
G1X14250Y5730D1*
G1X14160Y6680D2*
G1X14160Y5730D1*
G1X14070Y6680D2*
G1X14070Y5730D1*
G1X13980Y6680D2*
G1X13980Y5730D1*
G1X13890Y6680D2*
G1X13890Y5730D1*
G1X14710Y5770D2*
G1X12410Y5770D1*
G1X14710Y6680D2*
G1X12410Y6680D1*
G1X14710Y6680D2*
G1X14710Y5730D1*
G1X12630Y8090D2*
G1X12630Y7120D1*
G1X12540Y8090D2*
G1X12540Y7120D1*
G1X12450Y8090D2*
G1X12450Y7120D1*
G1X14710Y8060D2*
G1X12410Y8060D1*
G1X14710Y7970D2*
G1X12410Y7970D1*
G1X14710Y7880D2*
G1X12410Y7880D1*
G1X14710Y7790D2*
G1X12410Y7790D1*
G1X14710Y7700D2*
G1X12410Y7700D1*
G1X14710Y7610D2*
G1X12410Y7610D1*
G1X14710Y7520D2*
G1X12410Y7520D1*
G1X14710Y7430D2*
G1X12410Y7430D1*
G1X14710Y7340D2*
G1X12410Y7340D1*
G1X14710Y7250D2*
G1X12410Y7250D1*
G1X13800Y8090D2*
G1X13800Y7120D1*
G1X13710Y8090D2*
G1X13710Y7120D1*
G1X13620Y8090D2*
G1X13620Y7120D1*
G1X13530Y8090D2*
G1X13530Y7120D1*
G1X13440Y8090D2*
G1X13440Y7120D1*
G1X13350Y8090D2*
G1X13350Y7120D1*
G1X13260Y8090D2*
G1X13260Y7120D1*
G1X13170Y8090D2*
G1X13170Y7120D1*
G1X13080Y8090D2*
G1X13080Y7120D1*
G1X12990Y8090D2*
G1X12990Y7120D1*
G1X12900Y8090D2*
G1X12900Y7120D1*
G1X12810Y8090D2*
G1X12810Y7120D1*
G1X12720Y8090D2*
G1X12720Y7120D1*
G1X14710Y8090D2*
G1X14710Y7120D1*
G1X14710Y8090D2*
G1X12410Y8090D1*
G1X14700Y8090D2*
G1X14700Y7120D1*
G1X14610Y8090D2*
G1X14610Y7120D1*
G1X14520Y8090D2*
G1X14520Y7120D1*
G1X14430Y8090D2*
G1X14430Y7120D1*
G1X14340Y8090D2*
G1X14340Y7120D1*
G1X14250Y8090D2*
G1X14250Y7120D1*
G1X14160Y8090D2*
G1X14160Y7120D1*
G1X14070Y8090D2*
G1X14070Y7120D1*
G1X13980Y8090D2*
G1X13980Y7120D1*
G1X13890Y8090D2*
G1X13890Y7120D1*
G1X14710Y7160D2*
G1X12410Y7160D1*
G1X12410Y8090D2*
G1X12410Y7120D1*
G1X14710Y7120D2*
G1X12410Y7120D1*
G1X12403Y6230D2*
G54D18*
G1X12009Y6230D1*
G1X11911Y6132D1*
G1X11911Y423D1*
G1X297Y423D1*
G1X297Y13612D1*
G1X11517Y13612D1*
G1X11517Y817D1*
G1X691Y817D1*
G1X691Y13218D1*
G1X11124Y13218D1*
G1X11124Y1210D1*
G1X1084Y1210D1*
G1X1084Y12824D1*
G1X10730Y12824D1*
G1X10730Y1604D1*
G1X1478Y1604D1*
G1X1478Y12431D1*
G1X10336Y12431D1*
G1X10336Y1998D1*
G1X1872Y1998D1*
G1X1872Y12037D1*
G1X9943Y12037D1*
G1X9943Y7805D1*
G1X11911Y7805D2*
G1X12600Y7805D1*
G1X15080Y10270D2*
G54D19*
G1X15080Y12730D1*
G1X13080Y12730D2*
G1X13080Y10270D1*
G1X14660Y6330D2*
G54D20*
G1X14510Y6480D1*
G1X14390Y2090D2*
G54D21*
G1X14290Y2190D1*
G1X14290Y3310D1*
G1X14400Y3420D1*
G1X14510Y7320D2*
G1X14660Y7170D1*
G1X15320Y7170D1*
G1X15320Y2720D1*
G1X14990Y2720D1*
G1X14990Y2661D1*
G1X14400Y5190D2*
G1X14660Y5450D1*
G1X14660Y6330D1*
G54D10*
G1X9943Y7805D3*
G1X11911Y7805D3*
G54D11*
G1X12600Y6230D3*
G1X12600Y7805D3*
G54D12*
G1X13080Y12730D3*
G1X15080Y12730D3*
G1X13080Y10270D3*
G1X15080Y10270D3*
G54D13*
G1X14510Y6480D3*
G1X14510Y7320D3*
G1X13690Y6480D3*
G1X13690Y7320D3*
G1X13330Y3790D3*
G1X13330Y4630D3*
G54D14*
G1X12610Y6100D3*
G1X12610Y7870D3*
G1X14400Y3420D3*
G1X14400Y5190D3*
G54D15*
G1X14990Y2661D3*
G1X14990Y1519D3*
G54D16*
G1X14390Y2090D3*
M2*
