*
%LPD*%
%LNANT2-3.SST*%
%FSLAX24Y24*%
%MOIN*%
%AD*%
%ADD10C,0.039400*%
%ADD17C,0.010000*%
%ADD28C,0.006000*%
%ADD29C,0.008000*%
G54D17*
%SRX1Y1I0.0J0.0*%
G1X14505Y10828D2*
G1X14172Y10828D1*
G1X13838Y9795D2*
G1X13838Y9462D1*
G1X14005Y9628D2*
G1X13672Y9628D1*
G1X13838Y10495D2*
G1X13838Y10162D1*
G1X14005Y10328D2*
G1X13672Y10328D1*
G1X14505Y10128D2*
G1X14172Y10128D1*
G1X14505Y9428D2*
G1X14172Y9428D1*
G1X14505Y13288D2*
G1X14172Y13288D1*
G1X13838Y12955D2*
G1X13838Y12622D1*
G1X14005Y12788D2*
G1X13672Y12788D1*
G1X14505Y12588D2*
G1X14172Y12588D1*
G1X14505Y11888D2*
G1X14172Y11888D1*
G1X13838Y13655D2*
G1X13838Y13322D1*
G1X14005Y13488D2*
G1X13672Y13488D1*
G1X13838Y12255D2*
G1X13838Y11922D1*
G1X14005Y12088D2*
G1X13672Y12088D1*
G1X13838Y11195D2*
G1X13838Y10862D1*
G1X14005Y11028D2*
G1X13672Y11028D1*
G1X12480Y13830D2*
G1X15680Y13830D1*
G1X15680Y11630D1*
G1X12480Y11630D1*
G1X12480Y13830D1*
G1X12480Y11370D2*
G1X15680Y11370D1*
G1X15680Y9170D1*
G1X12480Y9170D1*
G1X12480Y11370D1*
G1X14885Y7700D2*
G54D28*
G1X14135Y7700D1*
G1X14135Y6100D1*
G1X14885Y6100D1*
G1X14885Y7700D1*
G1X13705Y5010D2*
G1X12955Y5010D1*
G1X12955Y3410D1*
G1X13705Y3410D1*
G1X13705Y5010D1*
G1X14065Y7700D2*
G1X13315Y7700D1*
G1X13315Y6100D1*
G1X14065Y6100D1*
G1X14065Y7700D1*
G1X15385Y706D2*
G54D29*
G1X15274Y706D1*
G1X15330Y706D2*
G1X15330Y1039D1*
G1X15274Y984D1*
G1X14837Y817D2*
G1X14837Y762D1*
G1X14864Y706D1*
G1X14976Y706D1*
G1X15003Y762D1*
G1X15003Y1039D1*
G1X15031Y1039D2*
G1X14920Y1039D1*
G1X14715Y5529D2*
G1X14493Y5529D1*
G1X14715Y5751D1*
G1X14715Y5807D1*
G1X14687Y5862D1*
G1X14520Y5862D1*
G1X14493Y5807D1*
G1X14305Y5584D2*
G1X14277Y5529D1*
G1X14110Y5529D1*
G1X14083Y5584D1*
G1X14083Y5807D1*
G1X14110Y5862D1*
G1X14277Y5862D1*
G1X14305Y5807D1*
G1X12955Y8300D2*
G1X12733Y8300D1*
G1X12844Y8522D1*
G1X12899Y8522D1*
G1X12899Y8189D1*
G1X12545Y8244D2*
G1X12517Y8189D1*
G1X12350Y8189D1*
G1X12323Y8244D1*
G1X12323Y8467D1*
G1X12350Y8522D1*
G1X12517Y8522D1*
G1X12545Y8467D1*
G1X14790Y7804D2*
G1X14679Y7804D1*
G1X14735Y7804D2*
G1X14735Y8138D1*
G1X14679Y8082D1*
G1X14353Y7971D2*
G1X14436Y7804D1*
G1X14214Y7971D2*
G1X14380Y7971D1*
G1X14436Y8026D1*
G1X14436Y8082D1*
G1X14380Y8138D1*
G1X14214Y8138D1*
G1X14214Y7804D1*
G1X13600Y2974D2*
G1X13489Y2974D1*
G1X13545Y2974D2*
G1X13545Y3308D1*
G1X13489Y3252D1*
G1X13246Y3030D2*
G1X13218Y2974D1*
G1X13052Y2974D1*
G1X13024Y3030D1*
G1X13024Y3252D1*
G1X13052Y3308D1*
G1X13218Y3308D1*
G1X13246Y3252D1*
G1X13774Y7850D2*
G1X13829Y7794D1*
G1X13940Y7794D1*
G1X13996Y7850D1*
G1X13996Y7905D1*
G1X13885Y8016D1*
G1X13996Y8128D1*
G1X13774Y8128D1*
G1X13586Y7850D2*
G1X13558Y7794D1*
G1X13392Y7794D1*
G1X13364Y7850D1*
G1X13364Y8072D1*
G1X13392Y8128D1*
G1X13558Y8128D1*
G1X13586Y8072D1*
G1X3470Y9215D2*
G1X3304Y9215D1*
G1X3470Y9326D2*
G1X3304Y9326D1*
G1X3248Y9299D1*
G1X3248Y9243D1*
G1X3304Y9215D1*
G1X3248Y9187D1*
G1X3248Y9132D1*
G1X3304Y9104D1*
G1X3470Y9104D1*
G1X3248Y8916D2*
G1X3248Y8750D1*
G1X3304Y8722D1*
G1X3415Y8722D1*
G1X3470Y8750D1*
G1X3470Y8916D1*
G1X3415Y8312D2*
G1X3470Y8368D1*
G1X3470Y8479D1*
G1X3415Y8534D1*
G1X3359Y8534D1*
G1X3248Y8423D1*
G1X3137Y8534D1*
G1X3137Y8312D1*
G1X3248Y7589D2*
G1X3304Y7562D1*
G1X3415Y7450D1*
G1X3470Y7423D1*
G1X3470Y7589D2*
G1X3415Y7562D1*
G1X3304Y7450D1*
G1X3248Y7423D1*
G1X3470Y6589D2*
G1X3304Y6589D1*
G1X3470Y6700D2*
G1X3304Y6700D1*
G1X3248Y6672D1*
G1X3248Y6617D1*
G1X3304Y6589D1*
G1X3248Y6561D1*
G1X3248Y6505D1*
G1X3304Y6478D1*
G1X3470Y6478D1*
G1X3248Y6290D2*
G1X3248Y6123D1*
G1X3304Y6095D1*
G1X3415Y6095D1*
G1X3470Y6123D1*
G1X3470Y6290D1*
G1X3359Y5908D2*
G1X3359Y5685D1*
G1X3137Y5797D1*
G1X3137Y5852D1*
G1X3470Y5852D1*
G1X3470Y5442D2*
G1X3470Y5498D1*
G1X3415Y5498D1*
G1X3415Y5442D1*
G1X3470Y5442D1*
G1X3415Y4977D2*
G1X3470Y5032D1*
G1X3470Y5143D1*
G1X3415Y5199D1*
G1X3359Y5199D1*
G1X3248Y5088D1*
G1X3137Y5199D1*
G1X3137Y4977D1*
G1X4258Y9334D2*
G1X4091Y9334D1*
G1X4258Y9445D2*
G1X4091Y9445D1*
G1X4036Y9417D1*
G1X4036Y9361D1*
G1X4091Y9334D1*
G1X4036Y9306D1*
G1X4036Y9250D1*
G1X4091Y9222D1*
G1X4258Y9222D1*
G1X4258Y8924D2*
G1X4091Y8924D1*
G1X4258Y9035D2*
G1X4091Y9035D1*
G1X4036Y9007D1*
G1X4036Y8951D1*
G1X4091Y8924D1*
G1X4036Y8896D1*
G1X4036Y8840D1*
G1X4091Y8812D1*
G1X4258Y8812D1*
G1X4202Y8402D2*
G1X4258Y8430D1*
G1X4258Y8597D1*
G1X4202Y8625D1*
G1X4091Y8625D1*
G1X4036Y8569D1*
G1X4036Y8402D1*
G1X3924Y8402D1*
G1X3924Y8625D1*
G1X4258Y8159D2*
G1X4258Y8215D1*
G1X4202Y8215D1*
G1X4202Y8159D1*
G1X4258Y8159D1*
G1X4258Y7777D2*
G1X4202Y7721D1*
G1X4147Y7694D1*
G1X4036Y7694D1*
G1X3980Y7721D1*
G1X3924Y7777D1*
G1X3924Y7833D1*
G1X3980Y7888D1*
G1X4036Y7916D1*
G1X4147Y7916D1*
G1X4202Y7888D1*
G1X4258Y7833D1*
G1X4258Y7777D1*
G1X4091Y6915D2*
G1X4036Y6915D1*
G1X4036Y6971D1*
G1X4091Y6971D1*
G1X4091Y6915D1*
G1X4258Y6915D2*
G1X4202Y6915D1*
G1X4202Y6971D1*
G1X4258Y6971D1*
G1X4258Y6915D1*
G1X4258Y6672D2*
G1X4091Y6672D1*
G1X4036Y6644D1*
G1X4036Y6478D1*
G1X4258Y6478D2*
G1X3924Y6478D1*
G1X4036Y6262D2*
G1X4036Y6095D1*
G1X4258Y6290D2*
G1X4258Y6179D1*
G1X4202Y6151D1*
G1X3924Y6151D1*
G1X3924Y5908D2*
G1X4258Y5908D1*
G1X4258Y5741D1*
G1X4202Y5713D1*
G1X4091Y5713D1*
G1X4036Y5741D1*
G1X4036Y5908D1*
G1X3925Y5470D2*
G1X3924Y5470D1*
G1X3925Y5470D1*
G1X4258Y5526D2*
G1X4258Y5414D1*
G1X4258Y5470D2*
G1X4036Y5470D1*
G1X4036Y5414D1*
G1X3924Y5199D2*
G1X4202Y5199D1*
G1X4258Y5171D1*
G1X4091Y5088D1*
G1X4036Y5088D2*
G1X4091Y5088D1*
G1X4258Y5004D1*
G1X4202Y4977D1*
G1X3924Y4977D1*
G1X4990Y9195D2*
G1X5045Y9222D1*
G1X5045Y9389D1*
G1X4990Y9417D1*
G1X4878Y9417D1*
G1X4823Y9361D1*
G1X4823Y9195D1*
G1X4712Y9195D1*
G1X4712Y9417D1*
G1X5045Y8951D2*
G1X5045Y9007D1*
G1X4990Y9007D1*
G1X4990Y8951D1*
G1X5045Y8951D1*
G1X5045Y8569D2*
G1X4990Y8514D1*
G1X4934Y8486D1*
G1X4823Y8486D1*
G1X4767Y8514D1*
G1X4712Y8569D1*
G1X4712Y8625D1*
G1X4767Y8680D1*
G1X4823Y8708D1*
G1X4934Y8708D1*
G1X4990Y8680D1*
G1X5045Y8625D1*
G1X5045Y8569D1*
G1X4878Y7708D2*
G1X4823Y7708D1*
G1X4823Y7763D1*
G1X4878Y7763D1*
G1X4878Y7708D1*
G1X5045Y7708D2*
G1X4990Y7708D1*
G1X4990Y7763D1*
G1X5045Y7763D1*
G1X5045Y7708D1*
G1X5156Y7325D2*
G1X5156Y7436D1*
G1X5101Y7464D1*
G1X4823Y7464D1*
G1X4823Y7298D1*
G1X4878Y7270D1*
G1X4990Y7270D1*
G1X5045Y7298D1*
G1X5045Y7464D1*
G1X5045Y7082D2*
G1X4878Y7082D1*
G1X4823Y7054D1*
G1X4823Y6888D1*
G1X5045Y6888D1*
G1X4712Y6644D2*
G1X4711Y6644D1*
G1X4711Y6645D1*
G1X4712Y6645D1*
G1X4712Y6644D1*
G1X5045Y6700D2*
G1X5045Y6589D1*
G1X5045Y6644D2*
G1X4823Y6644D1*
G1X4823Y6589D1*
G1X4823Y6373D2*
G1X4823Y6207D1*
G1X4878Y6179D1*
G1X4990Y6179D1*
G1X5045Y6207D1*
G1X5045Y6373D1*
G1X4823Y5824D2*
G1X4823Y5935D1*
G1X4878Y5963D1*
G1X4990Y5963D1*
G1X5045Y5991D1*
G1X5045Y5797D1*
G1X4990Y5769D1*
G1X4934Y5797D1*
G1X4934Y5963D1*
G1X5156Y5387D2*
G1X4823Y5387D1*
G1X4823Y5553D1*
G1X4878Y5581D1*
G1X4990Y5581D1*
G1X5045Y5553D1*
G1X5045Y5387D1*
G1X4767Y5199D2*
G1X4712Y5171D1*
G1X4712Y5004D1*
G1X4767Y4977D1*
G1X4823Y4977D1*
G1X4878Y5004D1*
G1X4878Y5171D1*
G1X4934Y5199D1*
G1X4990Y5199D1*
G1X5045Y5171D1*
G1X5045Y5004D1*
G1X4990Y4977D1*
G1X5777Y7805D2*
G1X5833Y7833D1*
G1X5833Y7999D1*
G1X5777Y8027D1*
G1X5666Y8027D1*
G1X5610Y7971D1*
G1X5610Y7805D1*
G1X5499Y7805D1*
G1X5499Y8027D1*
G1X5666Y7027D2*
G1X5610Y7027D1*
G1X5610Y7082D1*
G1X5666Y7082D1*
G1X5666Y7027D1*
G1X5833Y7027D2*
G1X5777Y7027D1*
G1X5777Y7082D1*
G1X5833Y7082D1*
G1X5833Y7027D1*
G1X5610Y6755D2*
G1X5610Y6589D1*
G1X5666Y6561D1*
G1X5721Y6589D1*
G1X5721Y6755D1*
G1X5777Y6783D1*
G1X5833Y6755D1*
G1X5833Y6589D1*
G1X5833Y6373D2*
G1X5666Y6373D1*
G1X5610Y6345D1*
G1X5610Y6179D1*
G1X5833Y6179D1*
G1X5610Y5991D2*
G1X5610Y5880D1*
G1X5666Y5852D1*
G1X5666Y5797D1*
G1X5610Y5797D2*
G1X5833Y5797D1*
G1X5610Y5581D2*
G1X5833Y5581D1*
G1X5833Y5609D2*
G1X5833Y5414D1*
G1X5777Y5387D1*
G1X5610Y5387D1*
G1X5833Y5088D2*
G1X5499Y5088D1*
G1X5499Y5199D2*
G1X5499Y4977D1*
G54D10*
G36*
G1X8088Y2299D2*
G1X8088Y2612D1*
G1X8088Y2621D1*
G1X8088Y2629D1*
G1X8088Y2638D1*
G1X8088Y2646D1*
G1X8088Y2655D1*
G1X8088Y2661D1*
G1X8091Y2669D1*
G1X8091Y2675D1*
G1X8091Y2683D1*
G1X8091Y2689D1*
G1X8094Y2698D1*
G1X8094Y2703D1*
G1X8094Y2709D1*
G1X8094Y2715D1*
G1X8096Y2720D1*
G1X8096Y2726D1*
G1X8099Y2732D1*
G1X8099Y2737D1*
G1X8102Y2740D1*
G1X8102Y2746D1*
G1X8105Y2752D1*
G1X8105Y2755D1*
G1X8108Y2760D1*
G1X8111Y2763D1*
G1X8111Y2769D1*
G1X8113Y2772D1*
G1X8116Y2774D1*
G1X8119Y2780D1*
G1X8122Y2783D1*
G1X8125Y2789D1*
G1X8128Y2792D1*
G1X8131Y2794D1*
G1X8133Y2797D1*
G1X8136Y2800D1*
G1X8139Y2806D1*
G1X8145Y2809D1*
G1X8148Y2811D1*
G1X8150Y2814D1*
G1X8156Y2817D1*
G1X8159Y2820D1*
G1X8162Y2823D1*
G1X8168Y2826D1*
G1X8170Y2829D1*
G1X8176Y2831D1*
G1X8179Y2831D1*
G1X8185Y2834D1*
G1X8190Y2837D1*
G1X8193Y2837D1*
G1X8199Y2840D1*
G1X8205Y2843D1*
G1X8210Y2843D1*
G1X8213Y2843D1*
G1X8219Y2846D1*
G1X8225Y2846D1*
G1X8230Y2846D1*
G1X8236Y2848D1*
G1X8242Y2848D1*
G1X8247Y2848D1*
G1X8253Y2848D1*
G1X8259Y2848D1*
G1X8264Y2848D1*
G1X8270Y2848D1*
G1X8273Y2848D1*
G1X8279Y2848D1*
G1X8284Y2848D1*
G1X8287Y2846D1*
G1X8293Y2846D1*
G1X8299Y2846D1*
G1X8301Y2843D1*
G1X8307Y2843D1*
G1X8310Y2843D1*
G1X8316Y2840D1*
G1X8318Y2840D1*
G1X8324Y2837D1*
G1X8327Y2837D1*
G1X8333Y2834D1*
G1X8336Y2831D1*
G1X8338Y2831D1*
G1X8344Y2829D1*
G1X8347Y2826D1*
G1X8350Y2823D1*
G1X8355Y2823D1*
G1X8358Y2820D1*
G1X8361Y2817D1*
G1X8364Y2814D1*
G1X8367Y2811D1*
G1X8370Y2809D1*
G1X8375Y2806D1*
G1X8378Y2803D1*
G1X8381Y2803D1*
G1X8384Y2797D1*
G1X8387Y2794D1*
G1X8390Y2792D1*
G1X8392Y2789D1*
G1X8395Y2786D1*
G1X8398Y2783D1*
G1X8398Y2780D1*
G1X8401Y2777D1*
G1X8404Y2772D1*
G1X8407Y2769D1*
G1X8407Y2766D1*
G1X8410Y2763D1*
G1X8410Y2760D1*
G1X8412Y2757D1*
G1X8412Y2755D1*
G1X8415Y2752D1*
G1X8415Y2749D1*
G1X8418Y2746D1*
G1X8418Y2743D1*
G1X8418Y2740D1*
G1X8421Y2735D1*
G1X8421Y2732D1*
G1X8424Y2729D1*
G1X8424Y2723D1*
G1X8424Y2720D1*
G1X8427Y2718D1*
G1X8427Y2712D1*
G1X8427Y2709D1*
G1X8429Y2703D1*
G1X8429Y2700D1*
G1X8429Y2703D1*
G1X8432Y2706D1*
G1X8432Y2709D1*
G1X8435Y2715D1*
G1X8435Y2718D1*
G1X8435Y2720D1*
G1X8438Y2723D1*
G1X8438Y2723D1*
G1X8441Y2726D1*
G1X8441Y2729D1*
G1X8441Y2732D1*
G1X8444Y2735D1*
G1X8444Y2737D1*
G1X8447Y2737D1*
G1X8447Y2740D1*
G1X8447Y2743D1*
G1X8449Y2743D1*
G1X8449Y2746D1*
G1X8452Y2746D1*
G1X8452Y2749D1*
G1X8452Y2749D1*
G1X8455Y2752D1*
G1X8455Y2752D1*
G1X8455Y2755D1*
G1X8458Y2755D1*
G1X8458Y2757D1*
G1X8461Y2757D1*
G1X8461Y2760D1*
G1X8464Y2760D1*
G1X8464Y2763D1*
G1X8466Y2763D1*
G1X8466Y2766D1*
G1X8469Y2766D1*
G1X8472Y2769D1*
G1X8472Y2772D1*
G1X8475Y2772D1*
G1X8478Y2774D1*
G1X8478Y2777D1*
G1X8481Y2777D1*
G1X8484Y2780D1*
G1X8486Y2783D1*
G1X8489Y2783D1*
G1X8492Y2786D1*
G1X8492Y2789D1*
G1X8495Y2789D1*
G1X8498Y2792D1*
G1X8501Y2792D1*
G1X8504Y2794D1*
G1X8504Y2794D1*
G1X8506Y2797D1*
G1X8509Y2797D1*
G1X8509Y2800D1*
G1X8512Y2800D1*
G1X8515Y2800D1*
G1X8515Y2803D1*
G1X8518Y2803D1*
G1X8518Y2803D1*
G1X8521Y2806D1*
G1X8521Y2806D1*
G1X8523Y2806D1*
G1X8700Y2897D1*
G1X8700Y2683D1*
G1X8512Y2584D1*
G1X8509Y2581D1*
G1X8506Y2581D1*
G1X8504Y2578D1*
G1X8501Y2578D1*
G1X8495Y2575D1*
G1X8495Y2572D1*
G1X8492Y2572D1*
G1X8489Y2569D1*
G1X8486Y2569D1*
G1X8484Y2567D1*
G1X8481Y2567D1*
G1X8478Y2564D1*
G1X8478Y2564D1*
G1X8475Y2561D1*
G1X8472Y2561D1*
G1X8472Y2558D1*
G1X8469Y2558D1*
G1X8469Y2555D1*
G1X8466Y2555D1*
G1X8466Y2552D1*
G1X8466Y2550D1*
G1X8464Y2550D1*
G1X8464Y2547D1*
G1X8461Y2544D1*
G1X8461Y2541D1*
G1X8458Y2541D1*
G1X8458Y2538D1*
G1X8458Y2535D1*
G1X8458Y2532D1*
G1X8455Y2532D1*
G1X8455Y2530D1*
G1X8455Y2527D1*
G1X8455Y2524D1*
G1X8452Y2521D1*
G1X8452Y2518D1*
G1X8452Y2518D1*
G1X8452Y2515D1*
G1X8452Y2513D1*
G1X8452Y2510D1*
G1X8452Y2507D1*
G1X8452Y2490D1*
G1X8700Y2490D1*
G1X8700Y2299D1*
G1X8088Y2299D1*
G37*
%LPC*%
G36*
G1X8336Y2567D2*
G1X8336Y2569D1*
G1X8336Y2569D1*
G1X8336Y2572D1*
G1X8336Y2572D1*
G1X8336Y2575D1*
G1X8336Y2578D1*
G1X8336Y2578D1*
G1X8336Y2581D1*
G1X8333Y2584D1*
G1X8333Y2587D1*
G1X8333Y2589D1*
G1X8333Y2592D1*
G1X8333Y2592D1*
G1X8333Y2595D1*
G1X8330Y2598D1*
G1X8330Y2601D1*
G1X8330Y2606D1*
G1X8330Y2609D1*
G1X8327Y2612D1*
G1X8327Y2615D1*
G1X8327Y2618D1*
G1X8327Y2618D1*
G1X8327Y2621D1*
G1X8324Y2624D1*
G1X8324Y2624D1*
G1X8324Y2626D1*
G1X8324Y2629D1*
G1X8321Y2629D1*
G1X8321Y2632D1*
G1X8321Y2632D1*
G1X8318Y2635D1*
G1X8318Y2635D1*
G1X8318Y2638D1*
G1X8316Y2638D1*
G1X8316Y2641D1*
G1X8313Y2641D1*
G1X8313Y2643D1*
G1X8310Y2643D1*
G1X8310Y2646D1*
G1X8307Y2646D1*
G1X8304Y2646D1*
G1X8304Y2649D1*
G1X8301Y2649D1*
G1X8301Y2649D1*
G1X8299Y2652D1*
G1X8299Y2652D1*
G1X8296Y2652D1*
G1X8296Y2655D1*
G1X8293Y2655D1*
G1X8293Y2655D1*
G1X8290Y2655D1*
G1X8287Y2655D1*
G1X8287Y2658D1*
G1X8284Y2658D1*
G1X8281Y2658D1*
G1X8281Y2658D1*
G1X8279Y2658D1*
G1X8276Y2658D1*
G1X8276Y2658D1*
G1X8273Y2658D1*
G1X8270Y2658D1*
G1X8267Y2658D1*
G1X8264Y2658D1*
G1X8262Y2658D1*
G1X8259Y2658D1*
G1X8256Y2655D1*
G1X8253Y2655D1*
G1X8250Y2655D1*
G1X8247Y2655D1*
G1X8247Y2652D1*
G1X8244Y2652D1*
G1X8242Y2652D1*
G1X8239Y2649D1*
G1X8239Y2649D1*
G1X8236Y2649D1*
G1X8233Y2646D1*
G1X8233Y2646D1*
G1X8230Y2643D1*
G1X8230Y2643D1*
G1X8227Y2641D1*
G1X8225Y2638D1*
G1X8225Y2635D1*
G1X8222Y2635D1*
G1X8222Y2632D1*
G1X8219Y2629D1*
G1X8219Y2626D1*
G1X8219Y2624D1*
G1X8216Y2621D1*
G1X8216Y2615D1*
G1X8216Y2612D1*
G1X8213Y2609D1*
G1X8213Y2606D1*
G1X8213Y2601D1*
G1X8213Y2598D1*
G1X8210Y2592D1*
G1X8210Y2589D1*
G1X8210Y2584D1*
G1X8210Y2578D1*
G1X8210Y2575D1*
G1X8210Y2569D1*
G1X8210Y2490D1*
G1X8336Y2490D1*
G1X8336Y2567D1*
G37*
%LPD*%
G36*
G1X8088Y3313D2*
G1X8088Y3321D1*
G1X8088Y3330D1*
G1X8088Y3338D1*
G1X8091Y3347D1*
G1X8091Y3355D1*
G1X8091Y3361D1*
G1X8094Y3369D1*
G1X8096Y3375D1*
G1X8096Y3384D1*
G1X8099Y3389D1*
G1X8102Y3398D1*
G1X8105Y3404D1*
G1X8108Y3409D1*
G1X8111Y3415D1*
G1X8113Y3421D1*
G1X8116Y3426D1*
G1X8122Y3432D1*
G1X8125Y3438D1*
G1X8128Y3441D1*
G1X8133Y3446D1*
G1X8139Y3452D1*
G1X8142Y3455D1*
G1X8148Y3461D1*
G1X8150Y3463D1*
G1X8156Y3466D1*
G1X8162Y3472D1*
G1X8165Y3475D1*
G1X8170Y3478D1*
G1X8176Y3480D1*
G1X8182Y3483D1*
G1X8187Y3486D1*
G1X8193Y3486D1*
G1X8199Y3489D1*
G1X8205Y3489D1*
G1X8210Y3492D1*
G1X8216Y3492D1*
G1X8222Y3495D1*
G1X8227Y3495D1*
G1X8236Y3495D1*
G1X8242Y3495D1*
G1X8247Y3495D1*
G1X8253Y3495D1*
G1X8259Y3495D1*
G1X8262Y3495D1*
G1X8267Y3492D1*
G1X8273Y3492D1*
G1X8279Y3492D1*
G1X8281Y3489D1*
G1X8287Y3489D1*
G1X8293Y3486D1*
G1X8296Y3483D1*
G1X8301Y3483D1*
G1X8307Y3480D1*
G1X8310Y3478D1*
G1X8316Y3475D1*
G1X8318Y3472D1*
G1X8324Y3469D1*
G1X8327Y3466D1*
G1X8333Y3463D1*
G1X8336Y3461D1*
G1X8338Y3458D1*
G1X8341Y3455D1*
G1X8344Y3452D1*
G1X8344Y3452D1*
G1X8347Y3449D1*
G1X8350Y3446D1*
G1X8353Y3443D1*
G1X8355Y3438D1*
G1X8355Y3435D1*
G1X8358Y3432D1*
G1X8361Y3429D1*
G1X8361Y3426D1*
G1X8364Y3424D1*
G1X8367Y3418D1*
G1X8367Y3415D1*
G1X8370Y3412D1*
G1X8370Y3406D1*
G1X8373Y3404D1*
G1X8373Y3398D1*
G1X8375Y3395D1*
G1X8378Y3401D1*
G1X8378Y3406D1*
G1X8381Y3415D1*
G1X8384Y3421D1*
G1X8384Y3426D1*
G1X8387Y3432D1*
G1X8390Y3438D1*
G1X8392Y3441D1*
G1X8395Y3446D1*
G1X8398Y3452D1*
G1X8401Y3458D1*
G1X8404Y3461D1*
G1X8407Y3466D1*
G1X8410Y3469D1*
G1X8412Y3475D1*
G1X8415Y3478D1*
G1X8418Y3480D1*
G1X8421Y3486D1*
G1X8427Y3489D1*
G1X8429Y3492D1*
G1X8432Y3495D1*
G1X8438Y3498D1*
G1X8441Y3500D1*
G1X8447Y3503D1*
G1X8449Y3506D1*
G1X8455Y3509D1*
G1X8461Y3509D1*
G1X8464Y3512D1*
G1X8469Y3515D1*
G1X8472Y3515D1*
G1X8478Y3518D1*
G1X8484Y3518D1*
G1X8489Y3520D1*
G1X8495Y3520D1*
G1X8498Y3520D1*
G1X8504Y3523D1*
G1X8509Y3523D1*
G1X8515Y3523D1*
G1X8521Y3523D1*
G1X8526Y3523D1*
G1X8532Y3523D1*
G1X8535Y3523D1*
G1X8541Y3523D1*
G1X8546Y3523D1*
G1X8549Y3523D1*
G1X8555Y3520D1*
G1X8558Y3520D1*
G1X8563Y3520D1*
G1X8566Y3518D1*
G1X8572Y3518D1*
G1X8575Y3518D1*
G1X8580Y3515D1*
G1X8583Y3515D1*
G1X8589Y3512D1*
G1X8592Y3512D1*
G1X8597Y3509D1*
G1X8600Y3506D1*
G1X8603Y3506D1*
G1X8609Y3503D1*
G1X8612Y3500D1*
G1X8615Y3498D1*
G1X8620Y3498D1*
G1X8623Y3495D1*
G1X8626Y3492D1*
G1X8629Y3489D1*
G1X8632Y3486D1*
G1X8634Y3483D1*
G1X8640Y3480D1*
G1X8643Y3478D1*
G1X8646Y3475D1*
G1X8649Y3472D1*
G1X8652Y3469D1*
G1X8654Y3466D1*
G1X8657Y3463D1*
G1X8660Y3461D1*
G1X8663Y3455D1*
G1X8663Y3452D1*
G1X8666Y3449D1*
G1X8669Y3443D1*
G1X8671Y3441D1*
G1X8671Y3438D1*
G1X8674Y3435D1*
G1X8674Y3432D1*
G1X8677Y3429D1*
G1X8677Y3426D1*
G1X8680Y3424D1*
G1X8680Y3421D1*
G1X8683Y3418D1*
G1X8683Y3415D1*
G1X8683Y3412D1*
G1X8686Y3406D1*
G1X8686Y3404D1*
G1X8686Y3401D1*
G1X8689Y3395D1*
G1X8689Y3392D1*
G1X8689Y3387D1*
G1X8689Y3384D1*
G1X8691Y3378D1*
G1X8691Y3375D1*
G1X8691Y3369D1*
G1X8691Y3364D1*
G1X8694Y3358D1*
G1X8694Y3352D1*
G1X8694Y3347D1*
G1X8694Y3341D1*
G1X8697Y3335D1*
G1X8697Y3330D1*
G1X8697Y3327D1*
G1X8697Y3321D1*
G1X8697Y3315D1*
G1X8697Y3313D1*
G1X8700Y3310D1*
G1X8700Y3304D1*
G1X8700Y3301D1*
G1X8700Y3298D1*
G1X8700Y3295D1*
G1X8700Y3293D1*
G1X8700Y3290D1*
G1X8700Y3287D1*
G1X8700Y3284D1*
G1X8700Y2960D1*
G1X8088Y2960D1*
G1X8088Y3313D1*
G37*
%LPC*%
G36*
G1X8569Y3244D2*
G1X8569Y3250D1*
G1X8569Y3253D1*
G1X8569Y3258D1*
G1X8569Y3261D1*
G1X8569Y3267D1*
G1X8566Y3270D1*
G1X8566Y3276D1*
G1X8566Y3278D1*
G1X8566Y3281D1*
G1X8563Y3284D1*
G1X8563Y3290D1*
G1X8563Y3293D1*
G1X8560Y3295D1*
G1X8560Y3298D1*
G1X8560Y3301D1*
G1X8558Y3304D1*
G1X8558Y3307D1*
G1X8555Y3310D1*
G1X8555Y3310D1*
G1X8552Y3313D1*
G1X8549Y3315D1*
G1X8549Y3315D1*
G1X8546Y3318D1*
G1X8543Y3321D1*
G1X8543Y3321D1*
G1X8541Y3324D1*
G1X8538Y3324D1*
G1X8538Y3324D1*
G1X8535Y3327D1*
G1X8532Y3327D1*
G1X8529Y3330D1*
G1X8526Y3330D1*
G1X8526Y3330D1*
G1X8523Y3330D1*
G1X8521Y3332D1*
G1X8518Y3332D1*
G1X8515Y3332D1*
G1X8512Y3332D1*
G1X8509Y3332D1*
G1X8506Y3332D1*
G1X8504Y3332D1*
G1X8501Y3332D1*
G1X8498Y3332D1*
G1X8495Y3332D1*
G1X8492Y3332D1*
G1X8489Y3330D1*
G1X8489Y3330D1*
G1X8486Y3330D1*
G1X8484Y3330D1*
G1X8481Y3327D1*
G1X8481Y3327D1*
G1X8478Y3324D1*
G1X8475Y3324D1*
G1X8472Y3324D1*
G1X8472Y3321D1*
G1X8469Y3321D1*
G1X8469Y3318D1*
G1X8466Y3315D1*
G1X8466Y3315D1*
G1X8464Y3313D1*
G1X8461Y3310D1*
G1X8461Y3310D1*
G1X8458Y3307D1*
G1X8458Y3304D1*
G1X8455Y3301D1*
G1X8455Y3298D1*
G1X8455Y3295D1*
G1X8452Y3293D1*
G1X8452Y3290D1*
G1X8449Y3284D1*
G1X8449Y3281D1*
G1X8449Y3278D1*
G1X8449Y3276D1*
G1X8449Y3270D1*
G1X8447Y3267D1*
G1X8447Y3261D1*
G1X8447Y3258D1*
G1X8447Y3253D1*
G1X8447Y3250D1*
G1X8447Y3244D1*
G1X8447Y3150D1*
G1X8569Y3150D1*
G1X8569Y3244D1*
G37*
G36*
G1X8330Y3233D2*
G1X8330Y3236D1*
G1X8330Y3241D1*
G1X8330Y3244D1*
G1X8330Y3250D1*
G1X8330Y3253D1*
G1X8330Y3256D1*
G1X8327Y3258D1*
G1X8327Y3264D1*
G1X8327Y3267D1*
G1X8327Y3270D1*
G1X8324Y3273D1*
G1X8324Y3276D1*
G1X8324Y3278D1*
G1X8324Y3281D1*
G1X8321Y3281D1*
G1X8321Y3284D1*
G1X8318Y3287D1*
G1X8318Y3290D1*
G1X8316Y3290D1*
G1X8316Y3293D1*
G1X8313Y3295D1*
G1X8313Y3295D1*
G1X8310Y3298D1*
G1X8307Y3298D1*
G1X8307Y3301D1*
G1X8304Y3301D1*
G1X8301Y3301D1*
G1X8301Y3304D1*
G1X8299Y3304D1*
G1X8296Y3304D1*
G1X8293Y3307D1*
G1X8290Y3307D1*
G1X8290Y3307D1*
G1X8287Y3307D1*
G1X8284Y3310D1*
G1X8281Y3310D1*
G1X8279Y3310D1*
G1X8276Y3310D1*
G1X8273Y3310D1*
G1X8270Y3310D1*
G1X8267Y3310D1*
G1X8264Y3310D1*
G1X8262Y3310D1*
G1X8262Y3310D1*
G1X8259Y3310D1*
G1X8256Y3307D1*
G1X8253Y3307D1*
G1X8250Y3307D1*
G1X8250Y3307D1*
G1X8247Y3304D1*
G1X8244Y3304D1*
G1X8242Y3304D1*
G1X8242Y3301D1*
G1X8239Y3301D1*
G1X8236Y3301D1*
G1X8236Y3298D1*
G1X8233Y3298D1*
G1X8230Y3295D1*
G1X8230Y3295D1*
G1X8227Y3293D1*
G1X8227Y3290D1*
G1X8225Y3290D1*
G1X8225Y3287D1*
G1X8222Y3284D1*
G1X8222Y3281D1*
G1X8219Y3281D1*
G1X8219Y3278D1*
G1X8219Y3276D1*
G1X8219Y3273D1*
G1X8216Y3270D1*
G1X8216Y3267D1*
G1X8216Y3264D1*
G1X8216Y3258D1*
G1X8213Y3256D1*
G1X8213Y3253D1*
G1X8213Y3250D1*
G1X8213Y3244D1*
G1X8213Y3241D1*
G1X8213Y3236D1*
G1X8213Y3233D1*
G1X8213Y3150D1*
G1X8330Y3150D1*
G1X8330Y3233D1*
G37*
%LPD*%
G36*
G1X8088Y4155D2*
G1X8239Y4155D1*
G1X8239Y3962D1*
G1X8700Y3962D1*
G1X8700Y3774D1*
G1X8239Y3774D1*
G1X8239Y3580D1*
G1X8088Y3580D1*
G1X8088Y4155D1*
G37*
G36*
G1X8600Y4403D2*
G1X8700Y4372D1*
G1X8700Y4178D1*
G1X8088Y4409D1*
G1X8088Y4616D1*
G1X8700Y4844D1*
G1X8700Y4648D1*
G1X8600Y4614D1*
G1X8600Y4403D1*
G37*
%LPC*%
G36*
G1X8247Y4511D2*
G1X8469Y4443D1*
G1X8469Y4574D1*
G1X8247Y4511D1*
G37*
%LPD*%
G36*
G1X8088Y5081D2*
G1X8427Y5311D1*
G1X8088Y5311D1*
G1X8088Y5490D1*
G1X8700Y5490D1*
G1X8700Y5311D1*
G1X8361Y5081D1*
G1X8700Y5081D1*
G1X8700Y4904D1*
G1X8088Y4904D1*
G1X8088Y5081D1*
G37*
G36*
G1X8088Y6148D2*
G1X8239Y6148D1*
G1X8239Y5955D1*
G1X8700Y5955D1*
G1X8700Y5767D1*
G1X8239Y5767D1*
G1X8239Y5573D1*
G1X8088Y5573D1*
G1X8088Y6148D1*
G37*
G36*
G1X8600Y6396D2*
G1X8700Y6364D1*
G1X8700Y6171D1*
G1X8088Y6402D1*
G1X8088Y6609D1*
G1X8700Y6837D1*
G1X8700Y6641D1*
G1X8600Y6606D1*
G1X8600Y6396D1*
G37*
%LPC*%
G36*
G1X8247Y6504D2*
G1X8469Y6436D1*
G1X8469Y6567D1*
G1X8247Y6504D1*
G37*
%LPD*%
G36*
G1X8950Y2504D2*
G1X8950Y2510D1*
G1X8950Y2517D1*
G1X8950Y2521D1*
G1X8950Y2527D1*
G1X8950Y2534D1*
G1X8952Y2538D1*
G1X8952Y2545D1*
G1X8952Y2549D1*
G1X8954Y2555D1*
G1X8954Y2560D1*
G1X8954Y2566D1*
G1X8957Y2570D1*
G1X8957Y2574D1*
G1X8959Y2579D1*
G1X8959Y2583D1*
G1X8961Y2587D1*
G1X8963Y2592D1*
G1X8963Y2596D1*
G1X8965Y2600D1*
G1X8967Y2604D1*
G1X8969Y2609D1*
G1X8971Y2613D1*
G1X8974Y2615D1*
G1X8974Y2619D1*
G1X8976Y2624D1*
G1X8978Y2626D1*
G1X8980Y2630D1*
G1X8984Y2632D1*
G1X8986Y2636D1*
G1X8989Y2641D1*
G1X8991Y2643D1*
G1X8993Y2645D1*
G1X8995Y2649D1*
G1X8999Y2651D1*
G1X9001Y2656D1*
G1X9003Y2658D1*
G1X9008Y2660D1*
G1X9010Y2664D1*
G1X9014Y2666D1*
G1X9016Y2668D1*
G1X9018Y2671D1*
G1X9023Y2673D1*
G1X9025Y2675D1*
G1X9029Y2677D1*
G1X9031Y2679D1*
G1X9036Y2681D1*
G1X9040Y2683D1*
G1X9042Y2686D1*
G1X9046Y2688D1*
G1X9048Y2690D1*
G1X9053Y2692D1*
G1X9057Y2692D1*
G1X9061Y2694D1*
G1X9065Y2696D1*
G1X9068Y2698D1*
G1X9072Y2698D1*
G1X9076Y2700D1*
G1X9080Y2703D1*
G1X9085Y2703D1*
G1X9089Y2705D1*
G1X9093Y2705D1*
G1X9097Y2707D1*
G1X9102Y2707D1*
G1X9106Y2709D1*
G1X9110Y2709D1*
G1X9115Y2711D1*
G1X9119Y2711D1*
G1X9123Y2711D1*
G1X9127Y2711D1*
G1X9134Y2713D1*
G1X9138Y2713D1*
G1X9142Y2713D1*
G1X9147Y2713D1*
G1X9151Y2715D1*
G1X9155Y2715D1*
G1X9159Y2715D1*
G1X9164Y2715D1*
G1X9170Y2715D1*
G1X9174Y2715D1*
G1X9179Y2715D1*
G1X9185Y2715D1*
G1X9194Y2715D1*
G1X9200Y2715D1*
G1X9206Y2715D1*
G1X9213Y2715D1*
G1X9219Y2713D1*
G1X9226Y2713D1*
G1X9232Y2713D1*
G1X9238Y2711D1*
G1X9243Y2711D1*
G1X9249Y2711D1*
G1X9253Y2709D1*
G1X9260Y2709D1*
G1X9264Y2707D1*
G1X9270Y2707D1*
G1X9275Y2705D1*
G1X9279Y2703D1*
G1X9283Y2703D1*
G1X9287Y2700D1*
G1X9292Y2698D1*
G1X9296Y2696D1*
G1X9300Y2694D1*
G1X9305Y2692D1*
G1X9307Y2692D1*
G1X9311Y2690D1*
G1X9315Y2688D1*
G1X9319Y2686D1*
G1X9322Y2683D1*
G1X9326Y2681D1*
G1X9330Y2679D1*
G1X9332Y2677D1*
G1X9337Y2675D1*
G1X9339Y2671D1*
G1X9343Y2668D1*
G1X9345Y2666D1*
G1X9349Y2664D1*
G1X9352Y2662D1*
G1X9354Y2660D1*
G1X9358Y2656D1*
G1X9360Y2653D1*
G1X9362Y2651D1*
G1X9366Y2647D1*
G1X9369Y2645D1*
G1X9371Y2641D1*
G1X9373Y2639D1*
G1X9375Y2634D1*
G1X9377Y2632D1*
G1X9379Y2628D1*
G1X9381Y2626D1*
G1X9384Y2624D1*
G1X9386Y2619D1*
G1X9386Y2615D1*
G1X9388Y2613D1*
G1X9390Y2609D1*
G1X9390Y2607D1*
G1X9392Y2602D1*
G1X9394Y2600D1*
G1X9394Y2596D1*
G1X9396Y2594D1*
G1X9396Y2589D1*
G1X9398Y2585D1*
G1X9398Y2581D1*
G1X9401Y2574D1*
G1X9401Y2570D1*
G1X9403Y2566D1*
G1X9403Y2562D1*
G1X9403Y2557D1*
G1X9405Y2553D1*
G1X9405Y2549D1*
G1X9405Y2545D1*
G1X9407Y2540D1*
G1X9407Y2536D1*
G1X9407Y2532D1*
G1X9407Y2527D1*
G1X9409Y2523D1*
G1X9409Y2519D1*
G1X9409Y2515D1*
G1X9409Y2513D1*
G1X9409Y2508D1*
G1X9409Y2504D1*
G1X9409Y2295D1*
G1X8950Y2295D1*
G1X8950Y2504D1*
G37*
%LPC*%
G36*
G1X9305Y2436D2*
G1X9305Y2470D1*
G1X9305Y2474D1*
G1X9305Y2478D1*
G1X9305Y2483D1*
G1X9305Y2487D1*
G1X9305Y2491D1*
G1X9305Y2493D1*
G1X9302Y2498D1*
G1X9302Y2502D1*
G1X9302Y2504D1*
G1X9302Y2508D1*
G1X9300Y2510D1*
G1X9300Y2515D1*
G1X9300Y2517D1*
G1X9300Y2519D1*
G1X9298Y2521D1*
G1X9298Y2523D1*
G1X9296Y2525D1*
G1X9296Y2527D1*
G1X9294Y2530D1*
G1X9294Y2532D1*
G1X9294Y2534D1*
G1X9292Y2536D1*
G1X9292Y2538D1*
G1X9290Y2538D1*
G1X9287Y2540D1*
G1X9287Y2542D1*
G1X9285Y2545D1*
G1X9285Y2547D1*
G1X9283Y2547D1*
G1X9281Y2549D1*
G1X9279Y2551D1*
G1X9277Y2551D1*
G1X9275Y2553D1*
G1X9273Y2555D1*
G1X9270Y2555D1*
G1X9268Y2557D1*
G1X9266Y2557D1*
G1X9264Y2560D1*
G1X9262Y2560D1*
G1X9260Y2562D1*
G1X9258Y2562D1*
G1X9255Y2564D1*
G1X9251Y2564D1*
G1X9249Y2566D1*
G1X9247Y2566D1*
G1X9243Y2568D1*
G1X9238Y2568D1*
G1X9236Y2568D1*
G1X9232Y2568D1*
G1X9228Y2570D1*
G1X9223Y2570D1*
G1X9219Y2570D1*
G1X9215Y2570D1*
G1X9211Y2572D1*
G1X9206Y2572D1*
G1X9202Y2572D1*
G1X9196Y2572D1*
G1X9191Y2572D1*
G1X9187Y2572D1*
G1X9181Y2572D1*
G1X9174Y2572D1*
G1X9166Y2572D1*
G1X9159Y2572D1*
G1X9153Y2572D1*
G1X9147Y2570D1*
G1X9142Y2570D1*
G1X9136Y2570D1*
G1X9129Y2568D1*
G1X9125Y2568D1*
G1X9121Y2566D1*
G1X9115Y2566D1*
G1X9110Y2564D1*
G1X9106Y2562D1*
G1X9102Y2562D1*
G1X9097Y2560D1*
G1X9095Y2557D1*
G1X9091Y2555D1*
G1X9089Y2553D1*
G1X9085Y2551D1*
G1X9082Y2549D1*
G1X9080Y2547D1*
G1X9078Y2545D1*
G1X9074Y2540D1*
G1X9072Y2538D1*
G1X9070Y2536D1*
G1X9068Y2532D1*
G1X9065Y2527D1*
G1X9065Y2525D1*
G1X9063Y2521D1*
G1X9061Y2517D1*
G1X9061Y2513D1*
G1X9059Y2508D1*
G1X9059Y2504D1*
G1X9057Y2500D1*
G1X9057Y2495D1*
G1X9057Y2491D1*
G1X9055Y2485D1*
G1X9055Y2481D1*
G1X9055Y2476D1*
G1X9055Y2470D1*
G1X9055Y2436D1*
G1X9305Y2436D1*
G37*
%LPD*%
G36*
G1X9170Y2777D2*
G1X9168Y2777D1*
G1X9164Y2779D1*
G1X9161Y2779D1*
G1X9157Y2779D1*
G1X9155Y2782D1*
G1X9153Y2782D1*
G1X9149Y2782D1*
G1X9147Y2784D1*
G1X9144Y2784D1*
G1X9140Y2786D1*
G1X9138Y2786D1*
G1X9136Y2788D1*
G1X9134Y2788D1*
G1X9132Y2790D1*
G1X9129Y2790D1*
G1X9127Y2792D1*
G1X9125Y2792D1*
G1X9123Y2794D1*
G1X9121Y2794D1*
G1X9119Y2797D1*
G1X9117Y2799D1*
G1X9115Y2799D1*
G1X9115Y2801D1*
G1X9112Y2803D1*
G1X9110Y2803D1*
G1X9108Y2805D1*
G1X9108Y2807D1*
G1X9106Y2809D1*
G1X9104Y2811D1*
G1X9104Y2814D1*
G1X9102Y2814D1*
G1X9100Y2816D1*
G1X9097Y2818D1*
G1X9097Y2820D1*
G1X9095Y2822D1*
G1X9093Y2824D1*
G1X9093Y2829D1*
G1X9091Y2831D1*
G1X9091Y2833D1*
G1X9089Y2835D1*
G1X9089Y2837D1*
G1X9087Y2839D1*
G1X9087Y2841D1*
G1X9085Y2841D1*
G1X9085Y2844D1*
G1X9082Y2846D1*
G1X9082Y2848D1*
G1X9080Y2850D1*
G1X9080Y2852D1*
G1X9080Y2856D1*
G1X9078Y2858D1*
G1X9078Y2861D1*
G1X9076Y2863D1*
G1X9076Y2865D1*
G1X9076Y2867D1*
G1X9074Y2871D1*
G1X9074Y2873D1*
G1X9074Y2876D1*
G1X9072Y2880D1*
G1X9072Y2882D1*
G1X9072Y2884D1*
G1X9072Y2888D1*
G1X9070Y2890D1*
G1X9070Y2895D1*
G1X9070Y2897D1*
G1X9070Y2901D1*
G1X9070Y2903D1*
G1X9070Y2908D1*
G1X9070Y2910D1*
G1X9070Y2914D1*
G1X9068Y2916D1*
G1X9068Y2920D1*
G1X9068Y2923D1*
G1X9068Y2927D1*
G1X9068Y2931D1*
G1X9068Y2933D1*
G1X9068Y2937D1*
G1X9068Y2942D1*
G1X9068Y2944D1*
G1X9068Y2948D1*
G1X9068Y2955D1*
G1X9068Y2959D1*
G1X9068Y2965D1*
G1X9068Y2969D1*
G1X9068Y2976D1*
G1X9068Y2980D1*
G1X9068Y2987D1*
G1X9068Y2991D1*
G1X9070Y2995D1*
G1X9070Y2999D1*
G1X9070Y3004D1*
G1X9070Y3008D1*
G1X9070Y3012D1*
G1X9070Y3016D1*
G1X9072Y3021D1*
G1X9072Y3025D1*
G1X9072Y3029D1*
G1X9072Y3034D1*
G1X9074Y3036D1*
G1X9074Y3040D1*
G1X9074Y3044D1*
G1X9076Y3046D1*
G1X9076Y3051D1*
G1X9076Y3053D1*
G1X9078Y3057D1*
G1X9078Y3059D1*
G1X9080Y3063D1*
G1X9082Y3066D1*
G1X9082Y3068D1*
G1X9085Y3072D1*
G1X9085Y3074D1*
G1X9087Y3076D1*
G1X9089Y3081D1*
G1X9091Y3083D1*
G1X9091Y3085D1*
G1X9093Y3087D1*
G1X9095Y3091D1*
G1X9097Y3093D1*
G1X9100Y3095D1*
G1X9102Y3098D1*
G1X9104Y3100D1*
G1X9104Y3100D1*
G1X9106Y3102D1*
G1X9108Y3104D1*
G1X9108Y3104D1*
G1X9110Y3106D1*
G1X9112Y3108D1*
G1X9115Y3108D1*
G1X9117Y3110D1*
G1X9119Y3110D1*
G1X9119Y3113D1*
G1X9121Y3115D1*
G1X9123Y3115D1*
G1X9125Y3117D1*
G1X9127Y3117D1*
G1X9129Y3119D1*
G1X9134Y3119D1*
G1X9136Y3121D1*
G1X9138Y3121D1*
G1X9140Y3123D1*
G1X9142Y3123D1*
G1X9147Y3125D1*
G1X9149Y3125D1*
G1X9151Y3125D1*
G1X9153Y3128D1*
G1X9157Y3128D1*
G1X9159Y3128D1*
G1X9161Y3130D1*
G1X9164Y3130D1*
G1X9166Y3130D1*
G1X9170Y3130D1*
G1X9172Y3130D1*
G1X9174Y3132D1*
G1X9176Y3132D1*
G1X9179Y3132D1*
G1X9183Y3132D1*
G1X9185Y3132D1*
G1X9187Y3132D1*
G1X9189Y3132D1*
G1X9191Y3132D1*
G1X9339Y3132D1*
G1X9341Y3132D1*
G1X9343Y3132D1*
G1X9345Y3132D1*
G1X9347Y3132D1*
G1X9349Y3132D1*
G1X9352Y3132D1*
G1X9354Y3132D1*
G1X9356Y3132D1*
G1X9358Y3132D1*
G1X9360Y3132D1*
G1X9362Y3132D1*
G1X9362Y3132D1*
G1X9364Y3132D1*
G1X9366Y3132D1*
G1X9369Y3134D1*
G1X9369Y3134D1*
G1X9371Y3134D1*
G1X9373Y3134D1*
G1X9373Y3134D1*
G1X9375Y3134D1*
G1X9377Y3134D1*
G1X9377Y3134D1*
G1X9379Y3136D1*
G1X9381Y3136D1*
G1X9381Y3136D1*
G1X9384Y3136D1*
G1X9386Y3138D1*
G1X9386Y3138D1*
G1X9388Y3138D1*
G1X9390Y3140D1*
G1X9392Y3140D1*
G1X9394Y3140D1*
G1X9394Y3140D1*
G1X9396Y3142D1*
G1X9398Y3142D1*
G1X9401Y3142D1*
G1X9403Y3145D1*
G1X9405Y3145D1*
G1X9407Y3147D1*
G1X9409Y3147D1*
G1X9409Y3029D1*
G1X9407Y3029D1*
G1X9407Y3027D1*
G1X9405Y3027D1*
G1X9405Y3027D1*
G1X9403Y3025D1*
G1X9403Y3025D1*
G1X9401Y3025D1*
G1X9401Y3023D1*
G1X9398Y3023D1*
G1X9398Y3023D1*
G1X9396Y3023D1*
G1X9396Y3021D1*
G1X9394Y3021D1*
G1X9394Y3021D1*
G1X9394Y3021D1*
G1X9392Y3021D1*
G1X9392Y3019D1*
G1X9392Y3019D1*
G1X9390Y3019D1*
G1X9390Y3019D1*
G1X9390Y3019D1*
G1X9388Y3019D1*
G1X9388Y3019D1*
G1X9388Y3019D1*
G1X9386Y3019D1*
G1X9386Y3016D1*
G1X9384Y3016D1*
G1X9384Y3016D1*
G1X9381Y3016D1*
G1X9381Y3016D1*
G1X9379Y3016D1*
G1X9379Y3016D1*
G1X9377Y3016D1*
G1X9377Y3016D1*
G1X9375Y3016D1*
G1X9375Y3014D1*
G1X9373Y3014D1*
G1X9371Y3014D1*
G1X9371Y3014D1*
G1X9369Y3014D1*
G1X9371Y3012D1*
G1X9373Y3010D1*
G1X9375Y3008D1*
G1X9379Y3006D1*
G1X9381Y3002D1*
G1X9384Y2999D1*
G1X9386Y2997D1*
G1X9386Y2995D1*
G1X9388Y2993D1*
G1X9390Y2991D1*
G1X9392Y2989D1*
G1X9394Y2984D1*
G1X9396Y2982D1*
G1X9396Y2980D1*
G1X9398Y2978D1*
G1X9401Y2976D1*
G1X9401Y2974D1*
G1X9403Y2969D1*
G1X9403Y2967D1*
G1X9405Y2965D1*
G1X9407Y2961D1*
G1X9407Y2959D1*
G1X9409Y2955D1*
G1X9409Y2950D1*
G1X9409Y2948D1*
G1X9409Y2944D1*
G1X9409Y2940D1*
G1X9411Y2937D1*
G1X9411Y2933D1*
G1X9411Y2929D1*
G1X9413Y2925D1*
G1X9413Y2920D1*
G1X9413Y2918D1*
G1X9413Y2914D1*
G1X9416Y2910D1*
G1X9416Y2905D1*
G1X9416Y2901D1*
G1X9416Y2897D1*
G1X9416Y2893D1*
G1X9416Y2888D1*
G1X9416Y2882D1*
G1X9416Y2878D1*
G1X9416Y2871D1*
G1X9413Y2865D1*
G1X9413Y2861D1*
G1X9413Y2854D1*
G1X9411Y2850D1*
G1X9411Y2846D1*
G1X9409Y2839D1*
G1X9409Y2835D1*
G1X9409Y2831D1*
G1X9407Y2826D1*
G1X9407Y2822D1*
G1X9405Y2818D1*
G1X9403Y2814D1*
G1X9401Y2811D1*
G1X9398Y2807D1*
G1X9394Y2803D1*
G1X9392Y2801D1*
G1X9390Y2797D1*
G1X9388Y2794D1*
G1X9384Y2790D1*
G1X9381Y2788D1*
G1X9379Y2786D1*
G1X9375Y2784D1*
G1X9373Y2782D1*
G1X9369Y2779D1*
G1X9366Y2777D1*
G1X9362Y2775D1*
G1X9360Y2775D1*
G1X9356Y2773D1*
G1X9352Y2771D1*
G1X9349Y2771D1*
G1X9345Y2769D1*
G1X9341Y2769D1*
G1X9337Y2769D1*
G1X9334Y2767D1*
G1X9330Y2767D1*
G1X9326Y2767D1*
G1X9322Y2767D1*
G1X9317Y2767D1*
G1X9313Y2767D1*
G1X9311Y2767D1*
G1X9307Y2767D1*
G1X9302Y2769D1*
G1X9300Y2769D1*
G1X9296Y2769D1*
G1X9294Y2771D1*
G1X9290Y2771D1*
G1X9285Y2773D1*
G1X9283Y2773D1*
G1X9281Y2775D1*
G1X9277Y2775D1*
G1X9275Y2777D1*
G1X9270Y2779D1*
G1X9268Y2779D1*
G1X9266Y2782D1*
G1X9262Y2784D1*
G1X9260Y2786D1*
G1X9258Y2788D1*
G1X9255Y2790D1*
G1X9253Y2792D1*
G1X9251Y2797D1*
G1X9247Y2799D1*
G1X9245Y2803D1*
G1X9243Y2805D1*
G1X9240Y2809D1*
G1X9240Y2814D1*
G1X9238Y2816D1*
G1X9236Y2820D1*
G1X9234Y2824D1*
G1X9232Y2829D1*
G1X9230Y2833D1*
G1X9230Y2839D1*
G1X9228Y2844D1*
G1X9226Y2848D1*
G1X9226Y2854D1*
G1X9223Y2861D1*
G1X9223Y2865D1*
G1X9221Y2871D1*
G1X9219Y2878D1*
G1X9219Y2884D1*
G1X9217Y2890D1*
G1X9215Y2897D1*
G1X9215Y2903D1*
G1X9213Y2910D1*
G1X9213Y2914D1*
G1X9211Y2920D1*
G1X9211Y2925D1*
G1X9208Y2929D1*
G1X9208Y2933D1*
G1X9206Y2937D1*
G1X9206Y2942D1*
G1X9204Y2946D1*
G1X9204Y2950D1*
G1X9202Y2952D1*
G1X9202Y2955D1*
G1X9202Y2959D1*
G1X9200Y2961D1*
G1X9200Y2963D1*
G1X9200Y2965D1*
G1X9198Y2967D1*
G1X9198Y2969D1*
G1X9198Y2972D1*
G1X9196Y2974D1*
G1X9196Y2976D1*
G1X9196Y2978D1*
G1X9194Y2980D1*
G1X9194Y2982D1*
G1X9194Y2984D1*
G1X9191Y2987D1*
G1X9191Y2989D1*
G1X9191Y2991D1*
G1X9189Y2993D1*
G1X9189Y2997D1*
G1X9189Y2999D1*
G1X9187Y3002D1*
G1X9187Y3004D1*
G1X9185Y3006D1*
G1X9185Y3008D1*
G1X9183Y3008D1*
G1X9181Y3008D1*
G1X9179Y3008D1*
G1X9176Y3008D1*
G1X9174Y3008D1*
G1X9172Y3008D1*
G1X9170Y3008D1*
G1X9168Y3006D1*
G1X9166Y3006D1*
G1X9164Y3006D1*
G1X9164Y3006D1*
G1X9161Y3006D1*
G1X9159Y3004D1*
G1X9159Y3004D1*
G1X9157Y3004D1*
G1X9155Y3002D1*
G1X9155Y3002D1*
G1X9153Y3002D1*
G1X9153Y2999D1*
G1X9151Y2999D1*
G1X9151Y2997D1*
G1X9149Y2997D1*
G1X9149Y2995D1*
G1X9149Y2995D1*
G1X9147Y2993D1*
G1X9147Y2991D1*
G1X9147Y2991D1*
G1X9144Y2989D1*
G1X9144Y2987D1*
G1X9144Y2987D1*
G1X9144Y2984D1*
G1X9144Y2982D1*
G1X9142Y2980D1*
G1X9142Y2978D1*
G1X9142Y2976D1*
G1X9142Y2974D1*
G1X9142Y2972D1*
G1X9142Y2969D1*
G1X9142Y2967D1*
G1X9142Y2965D1*
G1X9142Y2963D1*
G1X9142Y2959D1*
G1X9142Y2957D1*
G1X9142Y2952D1*
G1X9142Y2950D1*
G1X9142Y2948D1*
G1X9144Y2944D1*
G1X9144Y2942D1*
G1X9144Y2940D1*
G1X9144Y2937D1*
G1X9147Y2935D1*
G1X9147Y2933D1*
G1X9147Y2931D1*
G1X9147Y2929D1*
G1X9149Y2927D1*
G1X9149Y2925D1*
G1X9151Y2923D1*
G1X9151Y2920D1*
G1X9153Y2920D1*
G1X9153Y2918D1*
G1X9153Y2916D1*
G1X9155Y2916D1*
G1X9155Y2914D1*
G1X9157Y2914D1*
G1X9157Y2912D1*
G1X9159Y2912D1*
G1X9161Y2910D1*
G1X9161Y2910D1*
G1X9164Y2908D1*
G1X9164Y2908D1*
G1X9166Y2905D1*
G1X9168Y2905D1*
G1X9170Y2903D1*
G1X9172Y2903D1*
G1X9172Y2903D1*
G1X9174Y2901D1*
G1X9176Y2901D1*
G1X9179Y2901D1*
G1X9181Y2899D1*
G1X9183Y2899D1*
G1X9183Y2899D1*
G1X9170Y2777D1*
G37*
%LPC*%
G36*
G1X9249Y3006D2*
G1X9251Y3004D1*
G1X9251Y2999D1*
G1X9253Y2997D1*
G1X9253Y2995D1*
G1X9255Y2993D1*
G1X9255Y2989D1*
G1X9258Y2987D1*
G1X9258Y2984D1*
G1X9260Y2982D1*
G1X9260Y2978D1*
G1X9260Y2976D1*
G1X9262Y2974D1*
G1X9262Y2972D1*
G1X9262Y2967D1*
G1X9264Y2965D1*
G1X9264Y2963D1*
G1X9264Y2961D1*
G1X9266Y2957D1*
G1X9266Y2955D1*
G1X9266Y2950D1*
G1X9268Y2948D1*
G1X9270Y2944D1*
G1X9270Y2940D1*
G1X9270Y2937D1*
G1X9273Y2933D1*
G1X9273Y2931D1*
G1X9275Y2929D1*
G1X9277Y2925D1*
G1X9277Y2923D1*
G1X9277Y2920D1*
G1X9279Y2918D1*
G1X9279Y2916D1*
G1X9281Y2914D1*
G1X9281Y2912D1*
G1X9283Y2912D1*
G1X9283Y2910D1*
G1X9285Y2908D1*
G1X9285Y2908D1*
G1X9287Y2905D1*
G1X9290Y2905D1*
G1X9290Y2903D1*
G1X9292Y2903D1*
G1X9292Y2901D1*
G1X9294Y2901D1*
G1X9294Y2899D1*
G1X9296Y2899D1*
G1X9296Y2899D1*
G1X9298Y2899D1*
G1X9298Y2897D1*
G1X9300Y2897D1*
G1X9300Y2897D1*
G1X9302Y2897D1*
G1X9302Y2895D1*
G1X9305Y2895D1*
G1X9307Y2895D1*
G1X9307Y2895D1*
G1X9309Y2895D1*
G1X9309Y2895D1*
G1X9311Y2895D1*
G1X9313Y2895D1*
G1X9315Y2895D1*
G1X9315Y2895D1*
G1X9317Y2895D1*
G1X9319Y2895D1*
G1X9319Y2895D1*
G1X9322Y2897D1*
G1X9324Y2897D1*
G1X9324Y2897D1*
G1X9326Y2897D1*
G1X9328Y2899D1*
G1X9328Y2899D1*
G1X9330Y2899D1*
G1X9330Y2899D1*
G1X9332Y2901D1*
G1X9332Y2901D1*
G1X9334Y2903D1*
G1X9334Y2903D1*
G1X9337Y2905D1*
G1X9337Y2905D1*
G1X9337Y2908D1*
G1X9339Y2908D1*
G1X9339Y2910D1*
G1X9341Y2910D1*
G1X9341Y2912D1*
G1X9343Y2912D1*
G1X9343Y2914D1*
G1X9343Y2916D1*
G1X9343Y2916D1*
G1X9345Y2918D1*
G1X9345Y2920D1*
G1X9345Y2920D1*
G1X9345Y2923D1*
G1X9347Y2925D1*
G1X9347Y2927D1*
G1X9347Y2929D1*
G1X9347Y2929D1*
G1X9347Y2931D1*
G1X9347Y2933D1*
G1X9347Y2935D1*
G1X9347Y2937D1*
G1X9347Y2940D1*
G1X9347Y2942D1*
G1X9347Y2944D1*
G1X9347Y2946D1*
G1X9347Y2948D1*
G1X9345Y2950D1*
G1X9345Y2952D1*
G1X9345Y2955D1*
G1X9345Y2957D1*
G1X9343Y2957D1*
G1X9343Y2959D1*
G1X9343Y2961D1*
G1X9343Y2963D1*
G1X9341Y2965D1*
G1X9341Y2967D1*
G1X9339Y2969D1*
G1X9339Y2969D1*
G1X9337Y2972D1*
G1X9337Y2974D1*
G1X9334Y2976D1*
G1X9334Y2978D1*
G1X9332Y2980D1*
G1X9332Y2980D1*
G1X9330Y2982D1*
G1X9330Y2984D1*
G1X9328Y2987D1*
G1X9328Y2987D1*
G1X9326Y2989D1*
G1X9326Y2991D1*
G1X9324Y2991D1*
G1X9322Y2993D1*
G1X9322Y2993D1*
G1X9319Y2995D1*
G1X9317Y2995D1*
G1X9317Y2997D1*
G1X9315Y2997D1*
G1X9313Y2997D1*
G1X9313Y2999D1*
G1X9311Y2999D1*
G1X9309Y2999D1*
G1X9307Y3002D1*
G1X9307Y3002D1*
G1X9305Y3002D1*
G1X9302Y3004D1*
G1X9300Y3004D1*
G1X9298Y3004D1*
G1X9296Y3006D1*
G1X9294Y3006D1*
G1X9292Y3006D1*
G1X9290Y3006D1*
G1X9287Y3006D1*
G1X9285Y3008D1*
G1X9283Y3008D1*
G1X9281Y3008D1*
G1X9279Y3008D1*
G1X9277Y3008D1*
G1X9275Y3008D1*
G1X9273Y3008D1*
G1X9270Y3008D1*
G1X9249Y3008D1*
G1X9249Y3006D1*
G37*
%LPD*%
G36*
G1X9076Y3303D2*
G1X9287Y3369D1*
G1X9076Y3435D1*
G1X9076Y3563D1*
G1X9409Y3422D1*
G1X9409Y3309D1*
G1X9076Y3170D1*
G1X9076Y3303D1*
G37*
G36*
G1X8950Y3732D2*
G1X9036Y3732D1*
G1X9036Y3604D1*
G1X8950Y3604D1*
G1X8950Y3732D1*
G37*
G36*
G1X9076Y3732D2*
G1X9409Y3732D1*
G1X9409Y3604D1*
G1X9076Y3604D1*
G1X9076Y3732D1*
G37*
G36*
G1X9409Y4163D2*
G1X9409Y4044D1*
G1X9360Y4044D1*
G1X9362Y4041D1*
G1X9366Y4039D1*
G1X9369Y4037D1*
G1X9373Y4035D1*
G1X9375Y4033D1*
G1X9377Y4029D1*
G1X9379Y4026D1*
G1X9381Y4024D1*
G1X9384Y4022D1*
G1X9386Y4020D1*
G1X9388Y4018D1*
G1X9390Y4016D1*
G1X9392Y4014D1*
G1X9394Y4011D1*
G1X9396Y4009D1*
G1X9398Y4007D1*
G1X9398Y4005D1*
G1X9401Y4003D1*
G1X9401Y4001D1*
G1X9403Y3999D1*
G1X9405Y3997D1*
G1X9405Y3992D1*
G1X9407Y3990D1*
G1X9409Y3988D1*
G1X9409Y3984D1*
G1X9409Y3982D1*
G1X9409Y3979D1*
G1X9409Y3975D1*
G1X9411Y3973D1*
G1X9411Y3969D1*
G1X9413Y3967D1*
G1X9413Y3962D1*
G1X9413Y3960D1*
G1X9413Y3956D1*
G1X9416Y3954D1*
G1X9416Y3950D1*
G1X9416Y3947D1*
G1X9416Y3943D1*
G1X9416Y3941D1*
G1X9416Y3937D1*
G1X9416Y3930D1*
G1X9416Y3924D1*
G1X9413Y3918D1*
G1X9413Y3911D1*
G1X9413Y3905D1*
G1X9411Y3900D1*
G1X9409Y3894D1*
G1X9409Y3888D1*
G1X9407Y3883D1*
G1X9405Y3879D1*
G1X9403Y3873D1*
G1X9398Y3868D1*
G1X9396Y3864D1*
G1X9392Y3858D1*
G1X9388Y3853D1*
G1X9386Y3849D1*
G1X9381Y3845D1*
G1X9377Y3843D1*
G1X9371Y3839D1*
G1X9366Y3834D1*
G1X9360Y3830D1*
G1X9356Y3828D1*
G1X9349Y3824D1*
G1X9345Y3821D1*
G1X9339Y3819D1*
G1X9332Y3815D1*
G1X9326Y3813D1*
G1X9319Y3811D1*
G1X9313Y3809D1*
G1X9309Y3807D1*
G1X9300Y3804D1*
G1X9294Y3804D1*
G1X9287Y3802D1*
G1X9281Y3802D1*
G1X9275Y3800D1*
G1X9268Y3800D1*
G1X9260Y3798D1*
G1X9253Y3798D1*
G1X9245Y3798D1*
G1X9238Y3798D1*
G1X9230Y3798D1*
G1X9221Y3798D1*
G1X9215Y3798D1*
G1X9206Y3800D1*
G1X9200Y3800D1*
G1X9191Y3802D1*
G1X9185Y3802D1*
G1X9179Y3804D1*
G1X9172Y3807D1*
G1X9166Y3809D1*
G1X9159Y3811D1*
G1X9153Y3813D1*
G1X9147Y3815D1*
G1X9142Y3817D1*
G1X9136Y3821D1*
G1X9132Y3824D1*
G1X9125Y3828D1*
G1X9121Y3830D1*
G1X9117Y3834D1*
G1X9112Y3839D1*
G1X9108Y3843D1*
G1X9104Y3847D1*
G1X9100Y3851D1*
G1X9095Y3856D1*
G1X9093Y3860D1*
G1X9089Y3864D1*
G1X9087Y3868D1*
G1X9085Y3873D1*
G1X9080Y3877D1*
G1X9078Y3883D1*
G1X9076Y3888D1*
G1X9074Y3894D1*
G1X9074Y3898D1*
G1X9072Y3905D1*
G1X9070Y3909D1*
G1X9070Y3915D1*
G1X9068Y3922D1*
G1X9068Y3926D1*
G1X9068Y3932D1*
G1X9068Y3939D1*
G1X9068Y3941D1*
G1X9068Y3945D1*
G1X9068Y3947D1*
G1X9068Y3950D1*
G1X9068Y3954D1*
G1X9068Y3956D1*
G1X9070Y3958D1*
G1X9070Y3962D1*
G1X9070Y3965D1*
G1X9070Y3967D1*
G1X9072Y3969D1*
G1X9072Y3973D1*
G1X9072Y3975D1*
G1X9072Y3977D1*
G1X9074Y3979D1*
G1X9074Y3982D1*
G1X9076Y3986D1*
G1X9076Y3988D1*
G1X9078Y3990D1*
G1X9078Y3992D1*
G1X9078Y3994D1*
G1X9080Y3997D1*
G1X9080Y3999D1*
G1X9082Y4001D1*
G1X9082Y4003D1*
G1X9085Y4005D1*
G1X9087Y4007D1*
G1X9087Y4009D1*
G1X9089Y4011D1*
G1X9091Y4016D1*
G1X9091Y4016D1*
G1X9093Y4018D1*
G1X9095Y4020D1*
G1X9097Y4022D1*
G1X9097Y4024D1*
G1X9100Y4026D1*
G1X9102Y4029D1*
G1X9104Y4031D1*
G1X9106Y4033D1*
G1X9108Y4035D1*
G1X8950Y4035D1*
G1X8950Y4163D1*
G1X9409Y4163D1*
G37*
%LPC*%
G36*
G1X9238Y4035D2*
G1X9234Y4035D1*
G1X9232Y4035D1*
G1X9228Y4035D1*
G1X9223Y4035D1*
G1X9221Y4033D1*
G1X9217Y4033D1*
G1X9213Y4033D1*
G1X9211Y4033D1*
G1X9206Y4031D1*
G1X9204Y4031D1*
G1X9202Y4029D1*
G1X9200Y4029D1*
G1X9196Y4029D1*
G1X9194Y4026D1*
G1X9191Y4026D1*
G1X9189Y4024D1*
G1X9187Y4022D1*
G1X9185Y4022D1*
G1X9183Y4020D1*
G1X9181Y4018D1*
G1X9179Y4016D1*
G1X9179Y4016D1*
G1X9176Y4014D1*
G1X9174Y4011D1*
G1X9172Y4009D1*
G1X9172Y4007D1*
G1X9170Y4005D1*
G1X9170Y4003D1*
G1X9168Y4001D1*
G1X9168Y3999D1*
G1X9166Y3997D1*
G1X9166Y3994D1*
G1X9166Y3992D1*
G1X9166Y3990D1*
G1X9164Y3988D1*
G1X9164Y3986D1*
G1X9164Y3982D1*
G1X9164Y3979D1*
G1X9164Y3977D1*
G1X9164Y3975D1*
G1X9164Y3973D1*
G1X9164Y3971D1*
G1X9164Y3969D1*
G1X9166Y3967D1*
G1X9166Y3965D1*
G1X9166Y3962D1*
G1X9166Y3960D1*
G1X9168Y3960D1*
G1X9168Y3958D1*
G1X9170Y3956D1*
G1X9170Y3954D1*
G1X9172Y3952D1*
G1X9172Y3950D1*
G1X9174Y3950D1*
G1X9176Y3947D1*
G1X9179Y3945D1*
G1X9179Y3943D1*
G1X9181Y3943D1*
G1X9183Y3941D1*
G1X9185Y3939D1*
G1X9187Y3939D1*
G1X9189Y3937D1*
G1X9191Y3935D1*
G1X9194Y3935D1*
G1X9196Y3932D1*
G1X9198Y3932D1*
G1X9200Y3932D1*
G1X9204Y3930D1*
G1X9206Y3930D1*
G1X9211Y3928D1*
G1X9213Y3928D1*
G1X9217Y3928D1*
G1X9221Y3928D1*
G1X9223Y3926D1*
G1X9228Y3926D1*
G1X9232Y3926D1*
G1X9236Y3926D1*
G1X9240Y3926D1*
G1X9245Y3926D1*
G1X9249Y3926D1*
G1X9253Y3926D1*
G1X9255Y3926D1*
G1X9260Y3926D1*
G1X9264Y3926D1*
G1X9268Y3928D1*
G1X9270Y3928D1*
G1X9275Y3928D1*
G1X9277Y3928D1*
G1X9279Y3930D1*
G1X9283Y3930D1*
G1X9285Y3932D1*
G1X9287Y3932D1*
G1X9292Y3932D1*
G1X9294Y3935D1*
G1X9296Y3935D1*
G1X9298Y3937D1*
G1X9300Y3939D1*
G1X9302Y3939D1*
G1X9305Y3941D1*
G1X9307Y3943D1*
G1X9309Y3943D1*
G1X9309Y3945D1*
G1X9311Y3947D1*
G1X9313Y3950D1*
G1X9315Y3952D1*
G1X9315Y3952D1*
G1X9317Y3954D1*
G1X9317Y3956D1*
G1X9319Y3958D1*
G1X9319Y3960D1*
G1X9322Y3962D1*
G1X9322Y3965D1*
G1X9322Y3967D1*
G1X9322Y3969D1*
G1X9324Y3971D1*
G1X9324Y3973D1*
G1X9324Y3975D1*
G1X9324Y3977D1*
G1X9324Y3979D1*
G1X9324Y3982D1*
G1X9324Y3984D1*
G1X9324Y3986D1*
G1X9324Y3988D1*
G1X9322Y3990D1*
G1X9322Y3992D1*
G1X9322Y3994D1*
G1X9322Y3997D1*
G1X9319Y3999D1*
G1X9319Y4001D1*
G1X9317Y4003D1*
G1X9317Y4005D1*
G1X9315Y4007D1*
G1X9315Y4009D1*
G1X9313Y4011D1*
G1X9311Y4014D1*
G1X9309Y4016D1*
G1X9309Y4016D1*
G1X9307Y4018D1*
G1X9305Y4020D1*
G1X9302Y4022D1*
G1X9300Y4022D1*
G1X9298Y4024D1*
G1X9296Y4026D1*
G1X9294Y4026D1*
G1X9292Y4029D1*
G1X9287Y4029D1*
G1X9285Y4029D1*
G1X9283Y4031D1*
G1X9279Y4031D1*
G1X9277Y4033D1*
G1X9273Y4033D1*
G1X9270Y4033D1*
G1X9266Y4033D1*
G1X9262Y4035D1*
G1X9260Y4035D1*
G1X9255Y4035D1*
G1X9251Y4035D1*
G1X9247Y4035D1*
G1X9243Y4035D1*
G1X9243Y4035D1*
G1X9238Y4035D1*
G37*
%LPD*%
G36*
G1X8950Y4603D2*
G1X9296Y4603D1*
G1X9296Y4825D1*
G1X9409Y4825D1*
G1X9409Y4462D1*
G1X8950Y4462D1*
G1X8950Y4603D1*
G37*
G36*
G1X9275Y4996D2*
G1X9277Y4996D1*
G1X9281Y4996D1*
G1X9283Y4998D1*
G1X9287Y4998D1*
G1X9290Y4998D1*
G1X9292Y5000D1*
G1X9296Y5000D1*
G1X9298Y5000D1*
G1X9300Y5002D1*
G1X9302Y5002D1*
G1X9305Y5002D1*
G1X9307Y5004D1*
G1X9309Y5004D1*
G1X9311Y5007D1*
G1X9313Y5007D1*
G1X9315Y5009D1*
G1X9317Y5009D1*
G1X9319Y5011D1*
G1X9319Y5011D1*
G1X9322Y5013D1*
G1X9324Y5015D1*
G1X9326Y5017D1*
G1X9328Y5019D1*
G1X9330Y5019D1*
G1X9330Y5021D1*
G1X9332Y5024D1*
G1X9334Y5026D1*
G1X9334Y5028D1*
G1X9337Y5030D1*
G1X9337Y5032D1*
G1X9339Y5036D1*
G1X9339Y5039D1*
G1X9341Y5041D1*
G1X9341Y5043D1*
G1X9341Y5045D1*
G1X9343Y5049D1*
G1X9343Y5051D1*
G1X9343Y5053D1*
G1X9343Y5058D1*
G1X9343Y5060D1*
G1X9343Y5062D1*
G1X9343Y5064D1*
G1X9343Y5066D1*
G1X9343Y5068D1*
G1X9343Y5068D1*
G1X9343Y5071D1*
G1X9343Y5073D1*
G1X9341Y5075D1*
G1X9341Y5077D1*
G1X9341Y5079D1*
G1X9341Y5081D1*
G1X9341Y5081D1*
G1X9339Y5083D1*
G1X9339Y5086D1*
G1X9339Y5088D1*
G1X9337Y5090D1*
G1X9337Y5092D1*
G1X9337Y5092D1*
G1X9334Y5094D1*
G1X9334Y5096D1*
G1X9334Y5096D1*
G1X9332Y5098D1*
G1X9332Y5098D1*
G1X9332Y5100D1*
G1X9330Y5100D1*
G1X9330Y5103D1*
G1X9328Y5103D1*
G1X9328Y5105D1*
G1X9326Y5105D1*
G1X9326Y5107D1*
G1X9324Y5107D1*
G1X9324Y5109D1*
G1X9322Y5109D1*
G1X9322Y5111D1*
G1X9319Y5111D1*
G1X9319Y5113D1*
G1X9317Y5113D1*
G1X9315Y5115D1*
G1X9315Y5115D1*
G1X9313Y5118D1*
G1X9324Y5244D1*
G1X9328Y5241D1*
G1X9334Y5237D1*
G1X9339Y5235D1*
G1X9343Y5233D1*
G1X9347Y5229D1*
G1X9352Y5226D1*
G1X9356Y5222D1*
G1X9360Y5218D1*
G1X9364Y5216D1*
G1X9366Y5211D1*
G1X9371Y5209D1*
G1X9375Y5205D1*
G1X9377Y5201D1*
G1X9381Y5197D1*
G1X9384Y5194D1*
G1X9386Y5190D1*
G1X9390Y5186D1*
G1X9392Y5182D1*
G1X9394Y5177D1*
G1X9396Y5173D1*
G1X9398Y5169D1*
G1X9401Y5165D1*
G1X9403Y5160D1*
G1X9405Y5156D1*
G1X9405Y5152D1*
G1X9407Y5145D1*
G1X9409Y5141D1*
G1X9409Y5135D1*
G1X9409Y5130D1*
G1X9409Y5124D1*
G1X9411Y5118D1*
G1X9411Y5111D1*
G1X9413Y5107D1*
G1X9413Y5100D1*
G1X9413Y5094D1*
G1X9416Y5086D1*
G1X9416Y5079D1*
G1X9416Y5073D1*
G1X9416Y5064D1*
G1X9416Y5058D1*
G1X9416Y5051D1*
G1X9416Y5045D1*
G1X9416Y5039D1*
G1X9416Y5032D1*
G1X9413Y5026D1*
G1X9413Y5021D1*
G1X9413Y5015D1*
G1X9413Y5009D1*
G1X9411Y5004D1*
G1X9411Y4998D1*
G1X9409Y4994D1*
G1X9409Y4987D1*
G1X9409Y4983D1*
G1X9409Y4979D1*
G1X9407Y4974D1*
G1X9405Y4970D1*
G1X9403Y4966D1*
G1X9403Y4962D1*
G1X9401Y4957D1*
G1X9398Y4953D1*
G1X9396Y4949D1*
G1X9394Y4945D1*
G1X9392Y4942D1*
G1X9390Y4938D1*
G1X9388Y4934D1*
G1X9386Y4932D1*
G1X9381Y4928D1*
G1X9379Y4925D1*
G1X9377Y4921D1*
G1X9373Y4919D1*
G1X9371Y4915D1*
G1X9369Y4913D1*
G1X9364Y4910D1*
G1X9360Y4906D1*
G1X9358Y4904D1*
G1X9354Y4902D1*
G1X9349Y4898D1*
G1X9347Y4895D1*
G1X9343Y4893D1*
G1X9339Y4891D1*
G1X9334Y4889D1*
G1X9330Y4887D1*
G1X9326Y4885D1*
G1X9322Y4883D1*
G1X9317Y4881D1*
G1X9313Y4878D1*
G1X9309Y4876D1*
G1X9305Y4874D1*
G1X9298Y4874D1*
G1X9294Y4872D1*
G1X9290Y4870D1*
G1X9285Y4870D1*
G1X9279Y4868D1*
G1X9275Y4868D1*
G1X9270Y4868D1*
G1X9264Y4866D1*
G1X9260Y4866D1*
G1X9253Y4866D1*
G1X9249Y4866D1*
G1X9243Y4866D1*
G1X9234Y4866D1*
G1X9228Y4866D1*
G1X9219Y4868D1*
G1X9213Y4868D1*
G1X9204Y4868D1*
G1X9198Y4870D1*
G1X9191Y4872D1*
G1X9185Y4874D1*
G1X9179Y4876D1*
G1X9172Y4878D1*
G1X9166Y4881D1*
G1X9159Y4883D1*
G1X9153Y4887D1*
G1X9149Y4889D1*
G1X9142Y4893D1*
G1X9136Y4898D1*
G1X9132Y4902D1*
G1X9127Y4906D1*
G1X9121Y4910D1*
G1X9117Y4915D1*
G1X9112Y4919D1*
G1X9108Y4925D1*
G1X9104Y4932D1*
G1X9100Y4936D1*
G1X9095Y4942D1*
G1X9091Y4949D1*
G1X9089Y4955D1*
G1X9085Y4962D1*
G1X9082Y4968D1*
G1X9080Y4974D1*
G1X9078Y4983D1*
G1X9076Y4989D1*
G1X9074Y4996D1*
G1X9072Y5004D1*
G1X9070Y5013D1*
G1X9070Y5019D1*
G1X9070Y5028D1*
G1X9068Y5036D1*
G1X9068Y5045D1*
G1X9068Y5053D1*
G1X9068Y5060D1*
G1X9068Y5066D1*
G1X9068Y5075D1*
G1X9068Y5081D1*
G1X9070Y5088D1*
G1X9070Y5094D1*
G1X9070Y5098D1*
G1X9072Y5105D1*
G1X9072Y5111D1*
G1X9074Y5115D1*
G1X9074Y5122D1*
G1X9076Y5128D1*
G1X9076Y5132D1*
G1X9078Y5137D1*
G1X9080Y5143D1*
G1X9080Y5147D1*
G1X9082Y5152D1*
G1X9085Y5156D1*
G1X9087Y5160D1*
G1X9089Y5165D1*
G1X9091Y5169D1*
G1X9093Y5173D1*
G1X9095Y5177D1*
G1X9097Y5182D1*
G1X9102Y5184D1*
G1X9104Y5188D1*
G1X9106Y5192D1*
G1X9110Y5194D1*
G1X9112Y5199D1*
G1X9117Y5201D1*
G1X9119Y5205D1*
G1X9123Y5207D1*
G1X9125Y5211D1*
G1X9129Y5214D1*
G1X9134Y5216D1*
G1X9136Y5220D1*
G1X9140Y5222D1*
G1X9144Y5224D1*
G1X9149Y5226D1*
G1X9153Y5229D1*
G1X9157Y5231D1*
G1X9161Y5233D1*
G1X9166Y5235D1*
G1X9170Y5237D1*
G1X9174Y5237D1*
G1X9179Y5239D1*
G1X9185Y5241D1*
G1X9189Y5241D1*
G1X9196Y5244D1*
G1X9200Y5246D1*
G1X9206Y5246D1*
G1X9211Y5246D1*
G1X9217Y5248D1*
G1X9221Y5248D1*
G1X9228Y5248D1*
G1X9234Y5250D1*
G1X9240Y5250D1*
G1X9247Y5250D1*
G1X9253Y5250D1*
G1X9260Y5250D1*
G1X9275Y5250D1*
G1X9275Y4996D1*
G37*
%LPC*%
G36*
G1X9208Y5120D2*
G1X9206Y5120D1*
G1X9202Y5118D1*
G1X9198Y5118D1*
G1X9196Y5118D1*
G1X9191Y5115D1*
G1X9189Y5115D1*
G1X9185Y5115D1*
G1X9183Y5113D1*
G1X9181Y5113D1*
G1X9179Y5111D1*
G1X9174Y5111D1*
G1X9172Y5109D1*
G1X9170Y5109D1*
G1X9168Y5107D1*
G1X9166Y5107D1*
G1X9164Y5105D1*
G1X9164Y5103D1*
G1X9161Y5103D1*
G1X9159Y5100D1*
G1X9157Y5098D1*
G1X9155Y5096D1*
G1X9155Y5096D1*
G1X9153Y5094D1*
G1X9151Y5092D1*
G1X9151Y5090D1*
G1X9149Y5088D1*
G1X9149Y5086D1*
G1X9147Y5083D1*
G1X9147Y5081D1*
G1X9147Y5079D1*
G1X9144Y5077D1*
G1X9144Y5075D1*
G1X9144Y5073D1*
G1X9142Y5071D1*
G1X9142Y5068D1*
G1X9142Y5066D1*
G1X9142Y5062D1*
G1X9142Y5060D1*
G1X9142Y5058D1*
G1X9142Y5056D1*
G1X9142Y5051D1*
G1X9142Y5049D1*
G1X9142Y5047D1*
G1X9144Y5043D1*
G1X9144Y5041D1*
G1X9144Y5039D1*
G1X9147Y5036D1*
G1X9147Y5034D1*
G1X9149Y5032D1*
G1X9151Y5028D1*
G1X9151Y5026D1*
G1X9153Y5024D1*
G1X9155Y5021D1*
G1X9157Y5019D1*
G1X9159Y5017D1*
G1X9161Y5017D1*
G1X9164Y5015D1*
G1X9166Y5013D1*
G1X9168Y5011D1*
G1X9170Y5011D1*
G1X9170Y5009D1*
G1X9172Y5009D1*
G1X9174Y5007D1*
G1X9176Y5007D1*
G1X9179Y5004D1*
G1X9181Y5004D1*
G1X9183Y5002D1*
G1X9185Y5002D1*
G1X9187Y5002D1*
G1X9189Y5000D1*
G1X9191Y5000D1*
G1X9194Y5000D1*
G1X9196Y4998D1*
G1X9198Y4998D1*
G1X9202Y4998D1*
G1X9204Y4998D1*
G1X9206Y4996D1*
G1X9211Y4996D1*
G1X9213Y4996D1*
G1X9213Y5120D1*
G1X9208Y5120D1*
G37*
%LPD*%
G36*
G1X9275Y5423D2*
G1X9277Y5423D1*
G1X9281Y5423D1*
G1X9283Y5425D1*
G1X9287Y5425D1*
G1X9290Y5425D1*
G1X9292Y5427D1*
G1X9296Y5427D1*
G1X9298Y5427D1*
G1X9300Y5429D1*
G1X9302Y5429D1*
G1X9305Y5429D1*
G1X9307Y5431D1*
G1X9309Y5431D1*
G1X9311Y5434D1*
G1X9313Y5434D1*
G1X9315Y5436D1*
G1X9317Y5436D1*
G1X9319Y5438D1*
G1X9319Y5438D1*
G1X9322Y5440D1*
G1X9324Y5442D1*
G1X9326Y5444D1*
G1X9328Y5446D1*
G1X9330Y5446D1*
G1X9330Y5449D1*
G1X9332Y5451D1*
G1X9334Y5453D1*
G1X9334Y5455D1*
G1X9337Y5457D1*
G1X9337Y5459D1*
G1X9339Y5463D1*
G1X9339Y5466D1*
G1X9341Y5468D1*
G1X9341Y5470D1*
G1X9341Y5472D1*
G1X9343Y5476D1*
G1X9343Y5478D1*
G1X9343Y5481D1*
G1X9343Y5485D1*
G1X9343Y5487D1*
G1X9343Y5489D1*
G1X9343Y5491D1*
G1X9343Y5493D1*
G1X9343Y5495D1*
G1X9343Y5495D1*
G1X9343Y5498D1*
G1X9343Y5500D1*
G1X9341Y5502D1*
G1X9341Y5504D1*
G1X9341Y5506D1*
G1X9341Y5508D1*
G1X9341Y5508D1*
G1X9339Y5510D1*
G1X9339Y5513D1*
G1X9339Y5515D1*
G1X9337Y5517D1*
G1X9337Y5519D1*
G1X9337Y5519D1*
G1X9334Y5521D1*
G1X9334Y5523D1*
G1X9334Y5523D1*
G1X9332Y5525D1*
G1X9332Y5525D1*
G1X9332Y5528D1*
G1X9330Y5528D1*
G1X9330Y5530D1*
G1X9328Y5530D1*
G1X9328Y5532D1*
G1X9326Y5532D1*
G1X9326Y5534D1*
G1X9324Y5534D1*
G1X9324Y5536D1*
G1X9322Y5536D1*
G1X9322Y5538D1*
G1X9319Y5538D1*
G1X9319Y5540D1*
G1X9317Y5540D1*
G1X9315Y5542D1*
G1X9315Y5542D1*
G1X9313Y5545D1*
G1X9324Y5671D1*
G1X9328Y5668D1*
G1X9334Y5664D1*
G1X9339Y5662D1*
G1X9343Y5660D1*
G1X9347Y5656D1*
G1X9352Y5653D1*
G1X9356Y5649D1*
G1X9360Y5645D1*
G1X9364Y5643D1*
G1X9366Y5639D1*
G1X9371Y5636D1*
G1X9375Y5632D1*
G1X9377Y5628D1*
G1X9381Y5624D1*
G1X9384Y5621D1*
G1X9386Y5617D1*
G1X9390Y5613D1*
G1X9392Y5609D1*
G1X9394Y5604D1*
G1X9396Y5600D1*
G1X9398Y5596D1*
G1X9401Y5592D1*
G1X9403Y5587D1*
G1X9405Y5583D1*
G1X9405Y5579D1*
G1X9407Y5572D1*
G1X9409Y5568D1*
G1X9409Y5562D1*
G1X9409Y5557D1*
G1X9409Y5551D1*
G1X9411Y5545D1*
G1X9411Y5538D1*
G1X9413Y5534D1*
G1X9413Y5528D1*
G1X9413Y5521D1*
G1X9416Y5513D1*
G1X9416Y5506D1*
G1X9416Y5500D1*
G1X9416Y5491D1*
G1X9416Y5485D1*
G1X9416Y5478D1*
G1X9416Y5472D1*
G1X9416Y5466D1*
G1X9416Y5459D1*
G1X9413Y5453D1*
G1X9413Y5449D1*
G1X9413Y5442D1*
G1X9413Y5436D1*
G1X9411Y5431D1*
G1X9411Y5425D1*
G1X9409Y5421D1*
G1X9409Y5414D1*
G1X9409Y5410D1*
G1X9409Y5406D1*
G1X9407Y5402D1*
G1X9405Y5397D1*
G1X9403Y5393D1*
G1X9403Y5389D1*
G1X9401Y5384D1*
G1X9398Y5380D1*
G1X9396Y5376D1*
G1X9394Y5372D1*
G1X9392Y5369D1*
G1X9390Y5365D1*
G1X9388Y5361D1*
G1X9386Y5359D1*
G1X9381Y5355D1*
G1X9379Y5352D1*
G1X9377Y5348D1*
G1X9373Y5346D1*
G1X9371Y5342D1*
G1X9369Y5340D1*
G1X9364Y5337D1*
G1X9360Y5333D1*
G1X9358Y5331D1*
G1X9354Y5329D1*
G1X9349Y5325D1*
G1X9347Y5323D1*
G1X9343Y5320D1*
G1X9339Y5318D1*
G1X9334Y5316D1*
G1X9330Y5314D1*
G1X9326Y5312D1*
G1X9322Y5310D1*
G1X9317Y5308D1*
G1X9313Y5305D1*
G1X9309Y5303D1*
G1X9305Y5301D1*
G1X9298Y5301D1*
G1X9294Y5299D1*
G1X9290Y5297D1*
G1X9285Y5297D1*
G1X9279Y5295D1*
G1X9275Y5295D1*
G1X9270Y5295D1*
G1X9264Y5293D1*
G1X9260Y5293D1*
G1X9253Y5293D1*
G1X9249Y5293D1*
G1X9243Y5293D1*
G1X9234Y5293D1*
G1X9228Y5293D1*
G1X9219Y5295D1*
G1X9213Y5295D1*
G1X9204Y5295D1*
G1X9198Y5297D1*
G1X9191Y5299D1*
G1X9185Y5301D1*
G1X9179Y5303D1*
G1X9172Y5305D1*
G1X9166Y5308D1*
G1X9159Y5310D1*
G1X9153Y5314D1*
G1X9149Y5316D1*
G1X9142Y5320D1*
G1X9136Y5325D1*
G1X9132Y5329D1*
G1X9127Y5333D1*
G1X9121Y5337D1*
G1X9117Y5342D1*
G1X9112Y5346D1*
G1X9108Y5352D1*
G1X9104Y5359D1*
G1X9100Y5363D1*
G1X9095Y5369D1*
G1X9091Y5376D1*
G1X9089Y5382D1*
G1X9085Y5389D1*
G1X9082Y5395D1*
G1X9080Y5402D1*
G1X9078Y5410D1*
G1X9076Y5416D1*
G1X9074Y5423D1*
G1X9072Y5431D1*
G1X9070Y5440D1*
G1X9070Y5446D1*
G1X9070Y5455D1*
G1X9068Y5463D1*
G1X9068Y5472D1*
G1X9068Y5481D1*
G1X9068Y5487D1*
G1X9068Y5493D1*
G1X9068Y5502D1*
G1X9068Y5508D1*
G1X9070Y5515D1*
G1X9070Y5521D1*
G1X9070Y5525D1*
G1X9072Y5532D1*
G1X9072Y5538D1*
G1X9074Y5542D1*
G1X9074Y5549D1*
G1X9076Y5555D1*
G1X9076Y5560D1*
G1X9078Y5564D1*
G1X9080Y5570D1*
G1X9080Y5574D1*
G1X9082Y5579D1*
G1X9085Y5583D1*
G1X9087Y5587D1*
G1X9089Y5592D1*
G1X9091Y5596D1*
G1X9093Y5600D1*
G1X9095Y5604D1*
G1X9097Y5609D1*
G1X9102Y5611D1*
G1X9104Y5615D1*
G1X9106Y5619D1*
G1X9110Y5621D1*
G1X9112Y5626D1*
G1X9117Y5628D1*
G1X9119Y5632D1*
G1X9123Y5634D1*
G1X9125Y5639D1*
G1X9129Y5641D1*
G1X9134Y5643D1*
G1X9136Y5647D1*
G1X9140Y5649D1*
G1X9144Y5651D1*
G1X9149Y5653D1*
G1X9153Y5656D1*
G1X9157Y5658D1*
G1X9161Y5660D1*
G1X9166Y5662D1*
G1X9170Y5664D1*
G1X9174Y5664D1*
G1X9179Y5666D1*
G1X9185Y5668D1*
G1X9189Y5668D1*
G1X9196Y5671D1*
G1X9200Y5673D1*
G1X9206Y5673D1*
G1X9211Y5673D1*
G1X9217Y5675D1*
G1X9221Y5675D1*
G1X9228Y5675D1*
G1X9234Y5677D1*
G1X9240Y5677D1*
G1X9247Y5677D1*
G1X9253Y5677D1*
G1X9260Y5677D1*
G1X9275Y5677D1*
G1X9275Y5423D1*
G37*
%LPC*%
G36*
G1X9208Y5547D2*
G1X9206Y5547D1*
G1X9202Y5545D1*
G1X9198Y5545D1*
G1X9196Y5545D1*
G1X9191Y5542D1*
G1X9189Y5542D1*
G1X9185Y5542D1*
G1X9183Y5540D1*
G1X9181Y5540D1*
G1X9179Y5538D1*
G1X9174Y5538D1*
G1X9172Y5536D1*
G1X9170Y5536D1*
G1X9168Y5534D1*
G1X9166Y5534D1*
G1X9164Y5532D1*
G1X9164Y5530D1*
G1X9161Y5530D1*
G1X9159Y5528D1*
G1X9157Y5525D1*
G1X9155Y5523D1*
G1X9155Y5523D1*
G1X9153Y5521D1*
G1X9151Y5519D1*
G1X9151Y5517D1*
G1X9149Y5515D1*
G1X9149Y5513D1*
G1X9147Y5510D1*
G1X9147Y5508D1*
G1X9147Y5506D1*
G1X9144Y5504D1*
G1X9144Y5502D1*
G1X9144Y5500D1*
G1X9142Y5498D1*
G1X9142Y5495D1*
G1X9142Y5493D1*
G1X9142Y5489D1*
G1X9142Y5487D1*
G1X9142Y5485D1*
G1X9142Y5483D1*
G1X9142Y5478D1*
G1X9142Y5476D1*
G1X9142Y5474D1*
G1X9144Y5470D1*
G1X9144Y5468D1*
G1X9144Y5466D1*
G1X9147Y5463D1*
G1X9147Y5461D1*
G1X9149Y5459D1*
G1X9151Y5455D1*
G1X9151Y5453D1*
G1X9153Y5451D1*
G1X9155Y5449D1*
G1X9157Y5446D1*
G1X9159Y5444D1*
G1X9161Y5444D1*
G1X9164Y5442D1*
G1X9166Y5440D1*
G1X9168Y5438D1*
G1X9170Y5438D1*
G1X9170Y5436D1*
G1X9172Y5436D1*
G1X9174Y5434D1*
G1X9176Y5434D1*
G1X9179Y5431D1*
G1X9181Y5431D1*
G1X9183Y5429D1*
G1X9185Y5429D1*
G1X9187Y5429D1*
G1X9189Y5427D1*
G1X9191Y5427D1*
G1X9194Y5427D1*
G1X9196Y5425D1*
G1X9198Y5425D1*
G1X9202Y5425D1*
G1X9204Y5425D1*
G1X9206Y5423D1*
G1X9211Y5423D1*
G1X9213Y5423D1*
G1X9213Y5547D1*
G1X9208Y5547D1*
G37*
%LPD*%
G36*
G1X9409Y6224D2*
G1X9409Y6095D1*
G1X9104Y6095D1*
G1X9106Y6093D1*
G1X9108Y6089D1*
G1X9110Y6087D1*
G1X9112Y6083D1*
G1X9115Y6081D1*
G1X9117Y6076D1*
G1X9119Y6074D1*
G1X9121Y6070D1*
G1X9123Y6068D1*
G1X9125Y6063D1*
G1X9127Y6061D1*
G1X9129Y6059D1*
G1X9132Y6055D1*
G1X9132Y6053D1*
G1X9134Y6051D1*
G1X9136Y6046D1*
G1X9138Y6044D1*
G1X9140Y6042D1*
G1X9140Y6038D1*
G1X9142Y6036D1*
G1X9144Y6034D1*
G1X9144Y6029D1*
G1X9147Y6027D1*
G1X9149Y6023D1*
G1X9149Y6021D1*
G1X9151Y6016D1*
G1X9153Y6012D1*
G1X9153Y6010D1*
G1X9155Y6006D1*
G1X9157Y6002D1*
G1X9157Y5997D1*
G1X9159Y5995D1*
G1X9161Y5991D1*
G1X9161Y5987D1*
G1X9164Y5982D1*
G1X9166Y5978D1*
G1X9166Y5974D1*
G1X9168Y5970D1*
G1X9168Y5965D1*
G1X9170Y5961D1*
G1X9065Y5961D1*
G1X9063Y5967D1*
G1X9061Y5974D1*
G1X9059Y5980D1*
G1X9057Y5987D1*
G1X9055Y5993D1*
G1X9053Y5997D1*
G1X9050Y6004D1*
G1X9046Y6008D1*
G1X9044Y6014D1*
G1X9042Y6019D1*
G1X9040Y6025D1*
G1X9038Y6029D1*
G1X9033Y6034D1*
G1X9031Y6038D1*
G1X9029Y6042D1*
G1X9025Y6046D1*
G1X9023Y6051D1*
G1X9021Y6055D1*
G1X9016Y6057D1*
G1X9014Y6061D1*
G1X9012Y6066D1*
G1X9008Y6068D1*
G1X9006Y6072D1*
G1X9001Y6076D1*
G1X8999Y6078D1*
G1X8995Y6083D1*
G1X8991Y6085D1*
G1X8989Y6087D1*
G1X8984Y6091D1*
G1X8980Y6093D1*
G1X8978Y6098D1*
G1X8974Y6100D1*
G1X8969Y6102D1*
G1X8965Y6104D1*
G1X8963Y6108D1*
G1X8959Y6110D1*
G1X8954Y6113D1*
G1X8950Y6115D1*
G1X8946Y6117D1*
G1X8942Y6119D1*
G1X8942Y6224D1*
G1X9409Y6224D1*
G37*
G36*
G1X9409Y6354D2*
G1X9403Y6354D1*
G1X9398Y6356D1*
G1X9392Y6356D1*
G1X9386Y6358D1*
G1X9381Y6358D1*
G1X9375Y6360D1*
G1X9371Y6362D1*
G1X9364Y6362D1*
G1X9360Y6365D1*
G1X9354Y6367D1*
G1X9349Y6369D1*
G1X9343Y6371D1*
G1X9339Y6373D1*
G1X9332Y6377D1*
G1X9328Y6379D1*
G1X9322Y6382D1*
G1X9317Y6384D1*
G1X9313Y6388D1*
G1X9307Y6390D1*
G1X9302Y6394D1*
G1X9298Y6399D1*
G1X9292Y6401D1*
G1X9287Y6405D1*
G1X9281Y6409D1*
G1X9277Y6414D1*
G1X9270Y6420D1*
G1X9264Y6424D1*
G1X9260Y6429D1*
G1X9253Y6435D1*
G1X9247Y6441D1*
G1X9240Y6448D1*
G1X9236Y6454D1*
G1X9230Y6461D1*
G1X9223Y6469D1*
G1X9217Y6476D1*
G1X9211Y6484D1*
G1X9204Y6493D1*
G1X9198Y6501D1*
G1X9191Y6510D1*
G1X9185Y6518D1*
G1X9181Y6525D1*
G1X9176Y6529D1*
G1X9172Y6533D1*
G1X9168Y6540D1*
G1X9166Y6544D1*
G1X9161Y6548D1*
G1X9157Y6552D1*
G1X9155Y6557D1*
G1X9151Y6561D1*
G1X9147Y6565D1*
G1X9144Y6567D1*
G1X9142Y6572D1*
G1X9138Y6574D1*
G1X9136Y6578D1*
G1X9134Y6580D1*
G1X9129Y6582D1*
G1X9127Y6584D1*
G1X9125Y6587D1*
G1X9123Y6589D1*
G1X9121Y6591D1*
G1X9119Y6593D1*
G1X9117Y6593D1*
G1X9115Y6595D1*
G1X9112Y6597D1*
G1X9110Y6597D1*
G1X9108Y6599D1*
G1X9106Y6599D1*
G1X9104Y6599D1*
G1X9102Y6602D1*
G1X9100Y6602D1*
G1X9097Y6604D1*
G1X9095Y6604D1*
G1X9093Y6604D1*
G1X9091Y6604D1*
G1X9091Y6606D1*
G1X9089Y6606D1*
G1X9087Y6606D1*
G1X9085Y6606D1*
G1X9082Y6606D1*
G1X9080Y6606D1*
G1X9078Y6606D1*
G1X9076Y6606D1*
G1X9074Y6606D1*
G1X9072Y6606D1*
G1X9070Y6606D1*
G1X9068Y6604D1*
G1X9065Y6604D1*
G1X9063Y6604D1*
G1X9063Y6604D1*
G1X9061Y6602D1*
G1X9059Y6602D1*
G1X9057Y6599D1*
G1X9055Y6599D1*
G1X9053Y6599D1*
G1X9053Y6597D1*
G1X9050Y6597D1*
G1X9048Y6595D1*
G1X9046Y6593D1*
G1X9046Y6593D1*
G1X9044Y6591D1*
G1X9042Y6589D1*
G1X9042Y6587D1*
G1X9040Y6587D1*
G1X9038Y6584D1*
G1X9038Y6582D1*
G1X9036Y6580D1*
G1X9036Y6578D1*
G1X9036Y6576D1*
G1X9033Y6574D1*
G1X9033Y6572D1*
G1X9031Y6570D1*
G1X9031Y6567D1*
G1X9031Y6565D1*
G1X9031Y6563D1*
G1X9029Y6561D1*
G1X9029Y6559D1*
G1X9029Y6557D1*
G1X9029Y6555D1*
G1X9029Y6552D1*
G1X9029Y6550D1*
G1X9029Y6548D1*
G1X9029Y6546D1*
G1X9029Y6544D1*
G1X9029Y6542D1*
G1X9029Y6540D1*
G1X9031Y6537D1*
G1X9031Y6535D1*
G1X9031Y6533D1*
G1X9031Y6531D1*
G1X9033Y6529D1*
G1X9033Y6527D1*
G1X9036Y6525D1*
G1X9036Y6523D1*
G1X9036Y6523D1*
G1X9038Y6520D1*
G1X9038Y6518D1*
G1X9040Y6516D1*
G1X9042Y6514D1*
G1X9042Y6514D1*
G1X9044Y6512D1*
G1X9046Y6510D1*
G1X9048Y6510D1*
G1X9048Y6508D1*
G1X9050Y6505D1*
G1X9053Y6505D1*
G1X9055Y6503D1*
G1X9057Y6503D1*
G1X9059Y6501D1*
G1X9063Y6501D1*
G1X9065Y6499D1*
G1X9068Y6499D1*
G1X9070Y6497D1*
G1X9074Y6497D1*
G1X9076Y6495D1*
G1X9080Y6495D1*
G1X9082Y6493D1*
G1X9087Y6493D1*
G1X9091Y6493D1*
G1X9093Y6490D1*
G1X9097Y6490D1*
G1X9087Y6362D1*
G1X9082Y6362D1*
G1X9076Y6365D1*
G1X9072Y6365D1*
G1X9065Y6367D1*
G1X9061Y6367D1*
G1X9057Y6369D1*
G1X9053Y6369D1*
G1X9048Y6371D1*
G1X9044Y6373D1*
G1X9040Y6373D1*
G1X9036Y6375D1*
G1X9031Y6377D1*
G1X9027Y6377D1*
G1X9023Y6379D1*
G1X9021Y6382D1*
G1X9016Y6384D1*
G1X9012Y6384D1*
G1X9010Y6386D1*
G1X9006Y6388D1*
G1X9003Y6390D1*
G1X9001Y6392D1*
G1X8997Y6394D1*
G1X8995Y6397D1*
G1X8993Y6399D1*
G1X8989Y6401D1*
G1X8986Y6403D1*
G1X8984Y6405D1*
G1X8982Y6407D1*
G1X8980Y6411D1*
G1X8978Y6414D1*
G1X8976Y6416D1*
G1X8974Y6420D1*
G1X8971Y6422D1*
G1X8969Y6426D1*
G1X8967Y6429D1*
G1X8965Y6433D1*
G1X8963Y6435D1*
G1X8961Y6439D1*
G1X8961Y6441D1*
G1X8959Y6446D1*
G1X8957Y6450D1*
G1X8954Y6454D1*
G1X8954Y6456D1*
G1X8952Y6461D1*
G1X8950Y6465D1*
G1X8950Y6469D1*
G1X8948Y6476D1*
G1X8948Y6480D1*
G1X8946Y6484D1*
G1X8946Y6488D1*
G1X8946Y6495D1*
G1X8944Y6499D1*
G1X8944Y6505D1*
G1X8944Y6512D1*
G1X8942Y6516D1*
G1X8942Y6523D1*
G1X8942Y6529D1*
G1X8942Y6535D1*
G1X8942Y6542D1*
G1X8942Y6548D1*
G1X8942Y6555D1*
G1X8942Y6561D1*
G1X8942Y6567D1*
G1X8942Y6574D1*
G1X8942Y6580D1*
G1X8944Y6584D1*
G1X8944Y6591D1*
G1X8944Y6597D1*
G1X8944Y6602D1*
G1X8946Y6606D1*
G1X8946Y6612D1*
G1X8948Y6616D1*
G1X8948Y6621D1*
G1X8948Y6627D1*
G1X8950Y6631D1*
G1X8950Y6636D1*
G1X8952Y6640D1*
G1X8954Y6642D1*
G1X8954Y6646D1*
G1X8957Y6651D1*
G1X8959Y6655D1*
G1X8959Y6659D1*
G1X8961Y6661D1*
G1X8963Y6666D1*
G1X8965Y6670D1*
G1X8967Y6672D1*
G1X8969Y6676D1*
G1X8971Y6678D1*
G1X8974Y6683D1*
G1X8976Y6685D1*
G1X8978Y6687D1*
G1X8980Y6691D1*
G1X8982Y6693D1*
G1X8986Y6695D1*
G1X8989Y6700D1*
G1X8991Y6702D1*
G1X8995Y6704D1*
G1X8997Y6706D1*
G1X9001Y6708D1*
G1X9003Y6710D1*
G1X9008Y6713D1*
G1X9010Y6715D1*
G1X9014Y6717D1*
G1X9016Y6719D1*
G1X9021Y6719D1*
G1X9023Y6721D1*
G1X9027Y6723D1*
G1X9031Y6723D1*
G1X9033Y6725D1*
G1X9038Y6728D1*
G1X9042Y6728D1*
G1X9044Y6728D1*
G1X9048Y6730D1*
G1X9053Y6730D1*
G1X9057Y6730D1*
G1X9061Y6732D1*
G1X9063Y6732D1*
G1X9068Y6732D1*
G1X9072Y6732D1*
G1X9076Y6732D1*
G1X9080Y6732D1*
G1X9085Y6732D1*
G1X9089Y6732D1*
G1X9093Y6732D1*
G1X9095Y6730D1*
G1X9100Y6730D1*
G1X9104Y6730D1*
G1X9108Y6728D1*
G1X9112Y6728D1*
G1X9117Y6725D1*
G1X9121Y6725D1*
G1X9123Y6723D1*
G1X9127Y6721D1*
G1X9132Y6721D1*
G1X9136Y6719D1*
G1X9140Y6717D1*
G1X9144Y6715D1*
G1X9147Y6713D1*
G1X9151Y6710D1*
G1X9155Y6708D1*
G1X9159Y6706D1*
G1X9164Y6702D1*
G1X9166Y6700D1*
G1X9170Y6695D1*
G1X9174Y6693D1*
G1X9179Y6689D1*
G1X9183Y6685D1*
G1X9187Y6683D1*
G1X9191Y6678D1*
G1X9196Y6672D1*
G1X9200Y6668D1*
G1X9204Y6663D1*
G1X9208Y6659D1*
G1X9213Y6653D1*
G1X9217Y6649D1*
G1X9221Y6642D1*
G1X9226Y6638D1*
G1X9232Y6631D1*
G1X9236Y6625D1*
G1X9240Y6619D1*
G1X9243Y6614D1*
G1X9245Y6612D1*
G1X9247Y6608D1*
G1X9251Y6604D1*
G1X9253Y6602D1*
G1X9255Y6597D1*
G1X9258Y6595D1*
G1X9258Y6593D1*
G1X9260Y6589D1*
G1X9262Y6587D1*
G1X9264Y6584D1*
G1X9266Y6582D1*
G1X9268Y6580D1*
G1X9268Y6578D1*
G1X9270Y6576D1*
G1X9273Y6574D1*
G1X9273Y6572D1*
G1X9275Y6570D1*
G1X9275Y6570D1*
G1X9277Y6567D1*
G1X9279Y6565D1*
G1X9279Y6565D1*
G1X9281Y6563D1*
G1X9281Y6563D1*
G1X9283Y6561D1*
G1X9283Y6559D1*
G1X9285Y6559D1*
G1X9285Y6557D1*
G1X9287Y6555D1*
G1X9290Y6555D1*
G1X9290Y6552D1*
G1X9292Y6550D1*
G1X9294Y6548D1*
G1X9294Y6548D1*
G1X9296Y6546D1*
G1X9298Y6544D1*
G1X9300Y6542D1*
G1X9300Y6542D1*
G1X9302Y6540D1*
G1X9305Y6537D1*
G1X9305Y6734D1*
G1X9409Y6734D1*
G1X9409Y6354D1*
G37*
G36*
G1X9166Y6789D2*
G1X9153Y6789D1*
G1X9140Y6789D1*
G1X9129Y6792D1*
G1X9117Y6792D1*
G1X9106Y6794D1*
G1X9095Y6796D1*
G1X9085Y6798D1*
G1X9076Y6798D1*
G1X9068Y6802D1*
G1X9057Y6804D1*
G1X9048Y6807D1*
G1X9040Y6809D1*
G1X9033Y6813D1*
G1X9025Y6815D1*
G1X9018Y6819D1*
G1X9012Y6824D1*
G1X9006Y6828D1*
G1X8999Y6832D1*
G1X8995Y6836D1*
G1X8991Y6841D1*
G1X8984Y6847D1*
G1X8980Y6851D1*
G1X8976Y6858D1*
G1X8971Y6862D1*
G1X8967Y6868D1*
G1X8965Y6875D1*
G1X8961Y6881D1*
G1X8959Y6888D1*
G1X8954Y6896D1*
G1X8952Y6903D1*
G1X8950Y6911D1*
G1X8948Y6918D1*
G1X8946Y6926D1*
G1X8946Y6935D1*
G1X8944Y6943D1*
G1X8944Y6952D1*
G1X8942Y6960D1*
G1X8942Y6971D1*
G1X8942Y6979D1*
G1X8942Y6984D1*
G1X8942Y6988D1*
G1X8942Y6992D1*
G1X8942Y6997D1*
G1X8942Y7003D1*
G1X8942Y7005D1*
G1X8944Y7009D1*
G1X8944Y7014D1*
G1X8944Y7018D1*
G1X8944Y7022D1*
G1X8946Y7026D1*
G1X8946Y7031D1*
G1X8946Y7033D1*
G1X8946Y7037D1*
G1X8948Y7041D1*
G1X8948Y7044D1*
G1X8950Y7048D1*
G1X8950Y7050D1*
G1X8952Y7054D1*
G1X8952Y7056D1*
G1X8954Y7058D1*
G1X8954Y7063D1*
G1X8957Y7065D1*
G1X8957Y7067D1*
G1X8959Y7071D1*
G1X8961Y7073D1*
G1X8961Y7076D1*
G1X8963Y7078D1*
G1X8965Y7082D1*
G1X8965Y7084D1*
G1X8967Y7086D1*
G1X8969Y7088D1*
G1X8971Y7090D1*
G1X8971Y7093D1*
G1X8974Y7095D1*
G1X8976Y7097D1*
G1X8978Y7099D1*
G1X8978Y7101D1*
G1X8980Y7103D1*
G1X8982Y7105D1*
G1X8984Y7108D1*
G1X8986Y7110D1*
G1X8989Y7112D1*
G1X8991Y7112D1*
G1X8991Y7114D1*
G1X8993Y7116D1*
G1X8995Y7118D1*
G1X8997Y7120D1*
G1X8999Y7120D1*
G1X9001Y7123D1*
G1X9003Y7125D1*
G1X9006Y7125D1*
G1X9008Y7127D1*
G1X9010Y7129D1*
G1X9010Y7129D1*
G1X9012Y7131D1*
G1X9014Y7131D1*
G1X9016Y7133D1*
G1X9018Y7133D1*
G1X9021Y7135D1*
G1X9023Y7135D1*
G1X9025Y7137D1*
G1X9027Y7137D1*
G1X9029Y7140D1*
G1X9031Y7140D1*
G1X9033Y7142D1*
G1X9036Y7142D1*
G1X9038Y7144D1*
G1X9042Y7144D1*
G1X9044Y7146D1*
G1X9046Y7146D1*
G1X9048Y7146D1*
G1X9050Y7148D1*
G1X9053Y7148D1*
G1X9057Y7148D1*
G1X9059Y7150D1*
G1X9061Y7150D1*
G1X9063Y7150D1*
G1X9068Y7152D1*
G1X9070Y7152D1*
G1X9074Y7155D1*
G1X9080Y7155D1*
G1X9085Y7157D1*
G1X9091Y7157D1*
G1X9095Y7159D1*
G1X9102Y7159D1*
G1X9106Y7159D1*
G1X9112Y7161D1*
G1X9117Y7161D1*
G1X9123Y7163D1*
G1X9127Y7163D1*
G1X9134Y7163D1*
G1X9138Y7163D1*
G1X9144Y7163D1*
G1X9149Y7165D1*
G1X9155Y7165D1*
G1X9159Y7165D1*
G1X9166Y7165D1*
G1X9170Y7165D1*
G1X9176Y7165D1*
G1X9189Y7165D1*
G1X9200Y7165D1*
G1X9213Y7165D1*
G1X9223Y7163D1*
G1X9234Y7163D1*
G1X9247Y7161D1*
G1X9255Y7161D1*
G1X9266Y7159D1*
G1X9277Y7157D1*
G1X9285Y7155D1*
G1X9294Y7152D1*
G1X9302Y7150D1*
G1X9311Y7148D1*
G1X9319Y7144D1*
G1X9328Y7142D1*
G1X9334Y7137D1*
G1X9341Y7135D1*
G1X9347Y7131D1*
G1X9354Y7127D1*
G1X9360Y7123D1*
G1X9366Y7118D1*
G1X9371Y7114D1*
G1X9375Y7108D1*
G1X9381Y7103D1*
G1X9386Y7097D1*
G1X9390Y7090D1*
G1X9394Y7086D1*
G1X9396Y7080D1*
G1X9401Y7071D1*
G1X9403Y7065D1*
G1X9407Y7058D1*
G1X9409Y7050D1*
G1X9409Y7041D1*
G1X9411Y7033D1*
G1X9411Y7024D1*
G1X9413Y7016D1*
G1X9413Y7007D1*
G1X9416Y6997D1*
G1X9416Y6988D1*
G1X9416Y6977D1*
G1X9416Y6971D1*
G1X9416Y6967D1*
G1X9416Y6960D1*
G1X9416Y6956D1*
G1X9413Y6950D1*
G1X9413Y6945D1*
G1X9413Y6939D1*
G1X9413Y6935D1*
G1X9411Y6930D1*
G1X9411Y6924D1*
G1X9409Y6920D1*
G1X9409Y6915D1*
G1X9409Y6911D1*
G1X9409Y6907D1*
G1X9407Y6903D1*
G1X9405Y6898D1*
G1X9403Y6894D1*
G1X9403Y6890D1*
G1X9401Y6888D1*
G1X9398Y6883D1*
G1X9396Y6879D1*
G1X9394Y6877D1*
G1X9392Y6873D1*
G1X9390Y6868D1*
G1X9388Y6866D1*
G1X9386Y6862D1*
G1X9384Y6860D1*
G1X9381Y6856D1*
G1X9379Y6853D1*
G1X9377Y6851D1*
G1X9373Y6847D1*
G1X9371Y6845D1*
G1X9369Y6841D1*
G1X9364Y6839D1*
G1X9362Y6836D1*
G1X9358Y6834D1*
G1X9356Y6830D1*
G1X9352Y6828D1*
G1X9349Y6826D1*
G1X9345Y6824D1*
G1X9343Y6821D1*
G1X9341Y6821D1*
G1X9337Y6819D1*
G1X9334Y6817D1*
G1X9330Y6817D1*
G1X9328Y6815D1*
G1X9324Y6813D1*
G1X9322Y6813D1*
G1X9317Y6811D1*
G1X9315Y6811D1*
G1X9311Y6809D1*
G1X9307Y6807D1*
G1X9305Y6807D1*
G1X9300Y6804D1*
G1X9296Y6804D1*
G1X9292Y6802D1*
G1X9287Y6802D1*
G1X9283Y6800D1*
G1X9279Y6800D1*
G1X9275Y6798D1*
G1X9270Y6798D1*
G1X9266Y6796D1*
G1X9262Y6796D1*
G1X9258Y6796D1*
G1X9253Y6794D1*
G1X9249Y6794D1*
G1X9243Y6794D1*
G1X9238Y6792D1*
G1X9234Y6792D1*
G1X9230Y6792D1*
G1X9223Y6792D1*
G1X9219Y6792D1*
G1X9215Y6789D1*
G1X9211Y6789D1*
G1X9204Y6789D1*
G1X9200Y6789D1*
G1X9194Y6789D1*
G1X9189Y6789D1*
G1X9183Y6789D1*
G1X9179Y6789D1*
G1X9179Y6789D1*
G1X9166Y6789D1*
G37*
%LPC*%
G36*
G1X9187Y6915D2*
G1X9196Y6915D1*
G1X9204Y6915D1*
G1X9211Y6915D1*
G1X9219Y6915D1*
G1X9226Y6918D1*
G1X9234Y6918D1*
G1X9240Y6918D1*
G1X9247Y6918D1*
G1X9253Y6920D1*
G1X9258Y6920D1*
G1X9264Y6922D1*
G1X9268Y6922D1*
G1X9275Y6922D1*
G1X9279Y6924D1*
G1X9283Y6924D1*
G1X9287Y6926D1*
G1X9292Y6928D1*
G1X9294Y6928D1*
G1X9298Y6930D1*
G1X9300Y6932D1*
G1X9305Y6935D1*
G1X9307Y6937D1*
G1X9309Y6937D1*
G1X9313Y6939D1*
G1X9315Y6941D1*
G1X9317Y6943D1*
G1X9319Y6945D1*
G1X9319Y6947D1*
G1X9322Y6950D1*
G1X9324Y6954D1*
G1X9326Y6956D1*
G1X9326Y6958D1*
G1X9328Y6960D1*
G1X9328Y6962D1*
G1X9328Y6967D1*
G1X9330Y6969D1*
G1X9330Y6971D1*
G1X9330Y6975D1*
G1X9330Y6977D1*
G1X9330Y6979D1*
G1X9330Y6982D1*
G1X9330Y6984D1*
G1X9330Y6986D1*
G1X9330Y6986D1*
G1X9328Y6988D1*
G1X9328Y6990D1*
G1X9328Y6992D1*
G1X9328Y6994D1*
G1X9328Y6997D1*
G1X9326Y6997D1*
G1X9326Y6999D1*
G1X9324Y7001D1*
G1X9324Y7003D1*
G1X9324Y7003D1*
G1X9322Y7005D1*
G1X9322Y7007D1*
G1X9319Y7009D1*
G1X9319Y7009D1*
G1X9317Y7011D1*
G1X9315Y7014D1*
G1X9315Y7014D1*
G1X9313Y7016D1*
G1X9311Y7018D1*
G1X9309Y7018D1*
G1X9307Y7020D1*
G1X9305Y7020D1*
G1X9302Y7022D1*
G1X9300Y7022D1*
G1X9298Y7024D1*
G1X9296Y7024D1*
G1X9294Y7026D1*
G1X9292Y7026D1*
G1X9290Y7029D1*
G1X9287Y7029D1*
G1X9283Y7031D1*
G1X9281Y7031D1*
G1X9279Y7031D1*
G1X9275Y7033D1*
G1X9273Y7033D1*
G1X9270Y7033D1*
G1X9266Y7035D1*
G1X9264Y7035D1*
G1X9260Y7035D1*
G1X9255Y7035D1*
G1X9253Y7037D1*
G1X9249Y7037D1*
G1X9245Y7037D1*
G1X9240Y7037D1*
G1X9236Y7037D1*
G1X9232Y7037D1*
G1X9226Y7039D1*
G1X9221Y7039D1*
G1X9215Y7039D1*
G1X9211Y7039D1*
G1X9204Y7039D1*
G1X9200Y7039D1*
G1X9194Y7039D1*
G1X9187Y7039D1*
G1X9181Y7039D1*
G1X9172Y7039D1*
G1X9164Y7039D1*
G1X9155Y7039D1*
G1X9147Y7039D1*
G1X9140Y7039D1*
G1X9132Y7037D1*
G1X9125Y7037D1*
G1X9119Y7037D1*
G1X9112Y7037D1*
G1X9106Y7035D1*
G1X9100Y7035D1*
G1X9093Y7033D1*
G1X9089Y7033D1*
G1X9082Y7033D1*
G1X9078Y7031D1*
G1X9074Y7031D1*
G1X9070Y7029D1*
G1X9065Y7026D1*
G1X9063Y7026D1*
G1X9059Y7024D1*
G1X9057Y7022D1*
G1X9053Y7020D1*
G1X9050Y7018D1*
G1X9048Y7018D1*
G1X9044Y7016D1*
G1X9042Y7014D1*
G1X9040Y7011D1*
G1X9038Y7007D1*
G1X9038Y7005D1*
G1X9036Y7003D1*
G1X9033Y7001D1*
G1X9031Y6999D1*
G1X9031Y6997D1*
G1X9029Y6992D1*
G1X9029Y6990D1*
G1X9029Y6988D1*
G1X9027Y6984D1*
G1X9027Y6982D1*
G1X9027Y6977D1*
G1X9027Y6975D1*
G1X9027Y6973D1*
G1X9027Y6969D1*
G1X9027Y6967D1*
G1X9029Y6962D1*
G1X9029Y6960D1*
G1X9029Y6958D1*
G1X9031Y6956D1*
G1X9031Y6952D1*
G1X9033Y6950D1*
G1X9036Y6947D1*
G1X9038Y6945D1*
G1X9038Y6943D1*
G1X9040Y6941D1*
G1X9042Y6939D1*
G1X9044Y6939D1*
G1X9048Y6937D1*
G1X9050Y6935D1*
G1X9053Y6932D1*
G1X9057Y6932D1*
G1X9059Y6930D1*
G1X9063Y6928D1*
G1X9065Y6928D1*
G1X9070Y6926D1*
G1X9074Y6924D1*
G1X9078Y6924D1*
G1X9082Y6922D1*
G1X9089Y6922D1*
G1X9093Y6922D1*
G1X9100Y6920D1*
G1X9106Y6920D1*
G1X9110Y6918D1*
G1X9117Y6918D1*
G1X9123Y6918D1*
G1X9132Y6918D1*
G1X9138Y6915D1*
G1X9147Y6915D1*
G1X9153Y6915D1*
G1X9161Y6915D1*
G1X9170Y6915D1*
G1X9179Y6915D1*
G1X9179Y6915D1*
G1X9187Y6915D1*
G37*
%LPD*%
G36*
G1X8950Y7571D2*
G1X9055Y7571D1*
G1X9055Y7368D1*
G1X9123Y7355D1*
G1X9123Y7357D1*
G1X9121Y7360D1*
G1X9121Y7362D1*
G1X9119Y7364D1*
G1X9119Y7366D1*
G1X9119Y7368D1*
G1X9117Y7370D1*
G1X9117Y7372D1*
G1X9117Y7374D1*
G1X9115Y7377D1*
G1X9115Y7379D1*
G1X9115Y7381D1*
G1X9112Y7383D1*
G1X9112Y7385D1*
G1X9112Y7387D1*
G1X9110Y7389D1*
G1X9110Y7392D1*
G1X9110Y7394D1*
G1X9108Y7396D1*
G1X9108Y7398D1*
G1X9108Y7400D1*
G1X9108Y7402D1*
G1X9106Y7404D1*
G1X9106Y7407D1*
G1X9106Y7409D1*
G1X9106Y7411D1*
G1X9106Y7413D1*
G1X9106Y7415D1*
G1X9106Y7417D1*
G1X9106Y7419D1*
G1X9104Y7421D1*
G1X9104Y7424D1*
G1X9104Y7426D1*
G1X9104Y7428D1*
G1X9104Y7428D1*
G1X9104Y7430D1*
G1X9104Y7432D1*
G1X9104Y7434D1*
G1X9104Y7436D1*
G1X9104Y7439D1*
G1X9104Y7445D1*
G1X9104Y7451D1*
G1X9104Y7458D1*
G1X9106Y7464D1*
G1X9106Y7471D1*
G1X9108Y7477D1*
G1X9108Y7483D1*
G1X9110Y7490D1*
G1X9112Y7494D1*
G1X9115Y7500D1*
G1X9117Y7507D1*
G1X9119Y7511D1*
G1X9121Y7518D1*
G1X9123Y7522D1*
G1X9127Y7526D1*
G1X9129Y7532D1*
G1X9134Y7537D1*
G1X9136Y7541D1*
G1X9140Y7545D1*
G1X9144Y7550D1*
G1X9149Y7554D1*
G1X9153Y7558D1*
G1X9157Y7562D1*
G1X9161Y7565D1*
G1X9168Y7569D1*
G1X9172Y7571D1*
G1X9176Y7575D1*
G1X9181Y7577D1*
G1X9187Y7579D1*
G1X9191Y7582D1*
G1X9198Y7584D1*
G1X9202Y7586D1*
G1X9208Y7588D1*
G1X9213Y7588D1*
G1X9219Y7590D1*
G1X9226Y7590D1*
G1X9232Y7592D1*
G1X9236Y7592D1*
G1X9243Y7592D1*
G1X9249Y7592D1*
G1X9253Y7592D1*
G1X9258Y7592D1*
G1X9262Y7592D1*
G1X9266Y7592D1*
G1X9270Y7590D1*
G1X9275Y7590D1*
G1X9279Y7590D1*
G1X9283Y7588D1*
G1X9287Y7588D1*
G1X9292Y7588D1*
G1X9296Y7586D1*
G1X9300Y7584D1*
G1X9305Y7584D1*
G1X9309Y7582D1*
G1X9313Y7579D1*
G1X9317Y7579D1*
G1X9322Y7577D1*
G1X9326Y7575D1*
G1X9330Y7573D1*
G1X9334Y7571D1*
G1X9339Y7569D1*
G1X9343Y7567D1*
G1X9345Y7565D1*
G1X9349Y7560D1*
G1X9354Y7558D1*
G1X9358Y7556D1*
G1X9360Y7552D1*
G1X9364Y7550D1*
G1X9366Y7547D1*
G1X9371Y7543D1*
G1X9373Y7541D1*
G1X9377Y7537D1*
G1X9379Y7535D1*
G1X9381Y7530D1*
G1X9384Y7528D1*
G1X9388Y7524D1*
G1X9390Y7520D1*
G1X9392Y7518D1*
G1X9394Y7513D1*
G1X9396Y7509D1*
G1X9398Y7505D1*
G1X9401Y7500D1*
G1X9403Y7496D1*
G1X9405Y7492D1*
G1X9405Y7488D1*
G1X9407Y7483D1*
G1X9409Y7477D1*
G1X9409Y7473D1*
G1X9409Y7468D1*
G1X9409Y7462D1*
G1X9411Y7458D1*
G1X9411Y7451D1*
G1X9413Y7447D1*
G1X9413Y7441D1*
G1X9413Y7434D1*
G1X9416Y7430D1*
G1X9416Y7424D1*
G1X9416Y7417D1*
G1X9416Y7411D1*
G1X9416Y7404D1*
G1X9416Y7400D1*
G1X9416Y7396D1*
G1X9416Y7392D1*
G1X9416Y7387D1*
G1X9416Y7383D1*
G1X9416Y7379D1*
G1X9416Y7374D1*
G1X9413Y7370D1*
G1X9413Y7366D1*
G1X9413Y7364D1*
G1X9413Y7360D1*
G1X9413Y7355D1*
G1X9411Y7351D1*
G1X9411Y7349D1*
G1X9411Y7345D1*
G1X9409Y7340D1*
G1X9409Y7338D1*
G1X9409Y7334D1*
G1X9409Y7332D1*
G1X9409Y7328D1*
G1X9409Y7325D1*
G1X9407Y7321D1*
G1X9407Y7319D1*
G1X9405Y7315D1*
G1X9405Y7313D1*
G1X9403Y7308D1*
G1X9403Y7306D1*
G1X9401Y7304D1*
G1X9401Y7300D1*
G1X9398Y7298D1*
G1X9396Y7295D1*
G1X9396Y7291D1*
G1X9394Y7289D1*
G1X9392Y7287D1*
G1X9392Y7285D1*
G1X9390Y7283D1*
G1X9388Y7278D1*
G1X9388Y7276D1*
G1X9386Y7274D1*
G1X9384Y7272D1*
G1X9381Y7270D1*
G1X9379Y7268D1*
G1X9379Y7266D1*
G1X9377Y7263D1*
G1X9375Y7261D1*
G1X9373Y7259D1*
G1X9371Y7257D1*
G1X9369Y7255D1*
G1X9366Y7255D1*
G1X9366Y7253D1*
G1X9364Y7251D1*
G1X9362Y7249D1*
G1X9360Y7246D1*
G1X9358Y7244D1*
G1X9356Y7244D1*
G1X9354Y7242D1*
G1X9352Y7240D1*
G1X9349Y7238D1*
G1X9347Y7238D1*
G1X9345Y7236D1*
G1X9343Y7234D1*
G1X9341Y7234D1*
G1X9339Y7231D1*
G1X9337Y7229D1*
G1X9334Y7229D1*
G1X9332Y7227D1*
G1X9328Y7225D1*
G1X9326Y7225D1*
G1X9324Y7223D1*
G1X9322Y7223D1*
G1X9317Y7221D1*
G1X9315Y7221D1*
G1X9313Y7219D1*
G1X9311Y7219D1*
G1X9307Y7216D1*
G1X9305Y7216D1*
G1X9300Y7214D1*
G1X9298Y7214D1*
G1X9294Y7212D1*
G1X9292Y7212D1*
G1X9279Y7340D1*
G1X9281Y7340D1*
G1X9285Y7340D1*
G1X9287Y7342D1*
G1X9290Y7342D1*
G1X9294Y7342D1*
G1X9296Y7345D1*
G1X9298Y7345D1*
G1X9300Y7347D1*
G1X9302Y7347D1*
G1X9305Y7347D1*
G1X9309Y7349D1*
G1X9311Y7351D1*
G1X9313Y7351D1*
G1X9315Y7353D1*
G1X9317Y7353D1*
G1X9319Y7355D1*
G1X9319Y7357D1*
G1X9322Y7357D1*
G1X9324Y7360D1*
G1X9326Y7362D1*
G1X9328Y7364D1*
G1X9328Y7366D1*
G1X9330Y7366D1*
G1X9332Y7368D1*
G1X9332Y7370D1*
G1X9334Y7372D1*
G1X9334Y7374D1*
G1X9334Y7377D1*
G1X9337Y7379D1*
G1X9337Y7381D1*
G1X9339Y7383D1*
G1X9339Y7385D1*
G1X9339Y7387D1*
G1X9339Y7389D1*
G1X9341Y7392D1*
G1X9341Y7394D1*
G1X9341Y7396D1*
G1X9341Y7398D1*
G1X9341Y7400D1*
G1X9341Y7402D1*
G1X9341Y7404D1*
G1X9341Y7409D1*
G1X9341Y7411D1*
G1X9341Y7413D1*
G1X9339Y7415D1*
G1X9339Y7417D1*
G1X9339Y7419D1*
G1X9339Y7424D1*
G1X9337Y7426D1*
G1X9337Y7428D1*
G1X9334Y7430D1*
G1X9334Y7432D1*
G1X9332Y7434D1*
G1X9332Y7436D1*
G1X9330Y7439D1*
G1X9328Y7441D1*
G1X9326Y7441D1*
G1X9326Y7443D1*
G1X9324Y7445D1*
G1X9322Y7447D1*
G1X9319Y7449D1*
G1X9317Y7451D1*
G1X9315Y7451D1*
G1X9313Y7453D1*
G1X9309Y7456D1*
G1X9307Y7456D1*
G1X9305Y7458D1*
G1X9302Y7458D1*
G1X9298Y7460D1*
G1X9296Y7460D1*
G1X9294Y7460D1*
G1X9290Y7462D1*
G1X9287Y7462D1*
G1X9283Y7462D1*
G1X9279Y7464D1*
G1X9277Y7464D1*
G1X9273Y7464D1*
G1X9270Y7464D1*
G1X9266Y7464D1*
G1X9262Y7464D1*
G1X9258Y7464D1*
G1X9253Y7464D1*
G1X9251Y7464D1*
G1X9247Y7464D1*
G1X9243Y7464D1*
G1X9240Y7462D1*
G1X9236Y7462D1*
G1X9232Y7462D1*
G1X9230Y7460D1*
G1X9228Y7460D1*
G1X9223Y7460D1*
G1X9221Y7458D1*
G1X9219Y7458D1*
G1X9215Y7456D1*
G1X9213Y7456D1*
G1X9211Y7453D1*
G1X9208Y7451D1*
G1X9206Y7451D1*
G1X9204Y7449D1*
G1X9202Y7447D1*
G1X9200Y7445D1*
G1X9198Y7443D1*
G1X9198Y7441D1*
G1X9196Y7441D1*
G1X9194Y7439D1*
G1X9191Y7436D1*
G1X9191Y7434D1*
G1X9189Y7432D1*
G1X9189Y7430D1*
G1X9187Y7428D1*
G1X9187Y7424D1*
G1X9185Y7421D1*
G1X9185Y7419D1*
G1X9185Y7417D1*
G1X9185Y7415D1*
G1X9183Y7411D1*
G1X9183Y7409D1*
G1X9183Y7407D1*
G1X9183Y7402D1*
G1X9183Y7400D1*
G1X9183Y7398D1*
G1X9183Y7396D1*
G1X9183Y7396D1*
G1X9183Y7394D1*
G1X9183Y7392D1*
G1X9183Y7389D1*
G1X9183Y7387D1*
G1X9185Y7387D1*
G1X9185Y7385D1*
G1X9185Y7383D1*
G1X9185Y7381D1*
G1X9185Y7379D1*
G1X9187Y7379D1*
G1X9187Y7377D1*
G1X9187Y7374D1*
G1X9189Y7372D1*
G1X9189Y7370D1*
G1X9189Y7370D1*
G1X9191Y7368D1*
G1X9191Y7366D1*
G1X9191Y7364D1*
G1X9194Y7364D1*
G1X9194Y7362D1*
G1X9194Y7362D1*
G1X9196Y7360D1*
G1X9196Y7357D1*
G1X9198Y7357D1*
G1X9198Y7355D1*
G1X9200Y7353D1*
G1X9200Y7353D1*
G1X9202Y7351D1*
G1X9202Y7349D1*
G1X9204Y7349D1*
G1X9206Y7347D1*
G1X9206Y7345D1*
G1X9208Y7345D1*
G1X9211Y7342D1*
G1X9211Y7340D1*
G1X9213Y7340D1*
G1X9215Y7338D1*
G1X9200Y7229D1*
G1X8950Y7270D1*
G1X8950Y7571D1*
G37*
M2*
