*
G04 Mass Parameters ***
*
G04 Image ***
*
%INC:\DAVIDLEE\RAGOBOTS_HW\ROBOT\HW\NECK\DESIGN\NECK.IN1*%
%ICAS*%
%MOIN*%
%IPPOS*%
%ASAXBY*%
G74*%FSLAN2X34Y34*%
*
G04 Aperture Definitions ***
*
%AMTHERMAL49*
1,1,0.0839,0,0,*
1,0,0.0640,0,0,*
21,0,0.0840,0.1000,0,0,46.2*
21,0,0.0840,0.1000,0,0,136.2*%
%AMTHERMAL59*
1,1,0.1759,0,0,*
1,0,0.1460,0,0,*
21,0,0.1760,0.0300,0,0,225.0*
21,0,0.1760,0.0300,0,0,315.0*%
%AMTHERMAL62*
1,1,0.0829,0,0,*
1,0,0.0630,0,0,*
21,0,0.0830,0.1000,0,0,45.0*
21,0,0.0830,0.1000,0,0,135.0*%
%AMTHERMAL105*
1,1,0.1699,0,0,*
1,0,0.1400,0,0,*
21,0,0.1700,0.0300,0,0,225.0*
21,0,0.1700,0.0300,0,0,315.0*%
%AMTHERMAL108*
1,1,0.0829,0,0,*
1,0,0.0630,0,0,*
21,0,0.0830,0.1000,0,0,45.3*
21,0,0.0830,0.1000,0,0,135.3*%
%ADD10R,0.0220X0.0220*%
%ADD11R,0.0560X0.0920*%
%ADD12C,0.0580*%
%ADD13R,0.0580X0.0580*%
%ADD14C,0.0560*%
%ADD15R,0.0560X0.0560*%
%ADD16C,0.0787*%
%ADD17O,0.0302X0.0894*%
%ADD18O,0.0894X0.0302*%
%ADD19R,0.0894X0.0302*%
%ADD20O,0.0940X0.0250*%
%ADD21R,0.0940X0.0250*%
%ADD22C,0.0630*%
%ADD23R,0.0472X0.0315*%
%ADD24R,0.0400X0.0560*%
%ADD25R,0.0480X0.0560*%
%ADD26R,0.0866X0.0708*%
%ADD27R,0.0512X0.0118*%
%ADD28R,0.1220X0.1299*%
%ADD29R,0.0157X0.1102*%
%ADD30C,0.0780*%
%ADD31R,0.0780X0.0780*%
%ADD32C,0.0010*%
%ADD33C,0.0660*%
%ADD34R,0.0660X0.0660*%
%ADD35R,0.0512X0.0098*%
%ADD36C,0.0080*%
%ADD37C,0.0060*%
%ADD38C,0.0039*%
%ADD39C,0.0070*%
%ADD40C,0.0100*%
%ADD41C,0.0098*%
%ADD42R,0.0472X0.1260*%
%ADD43C,0.0315*%
%ADD44C,0.0250*%
%ADD45C,0.0120*%
%ADD46R,0.0920X0.0560*%
%ADD47R,0.1260X0.0472*%
%ADD48C,0.0500*%
%ADD49THERMAL49*%
%ADD50C,0.0250*%
%ADD51C,0.0500*%
%ADD52O,0.0302X0.0787*%
%ADD53O,0.0787X0.0302*%
%ADD54R,0.0787X0.0302*%
%ADD55C,0.0770*%
%ADD56C,0.0300*%
%ADD57R,0.0315X0.0472*%
%ADD58C,0.0860*%
%ADD59THERMAL59*%
%ADD60R,0.0860X0.0860*%
%ADD61C,0.0970*%
%ADD62THERMAL62*%
%ADD63C,0.0090*%
%ADD64C,0.0197*%
%ADD65C,0.0250*%
%ADD66R,0.0220X0.0220*%
%ADD67R,0.0920X0.0560*%
%ADD68R,0.0400X0.0560*%
%ADD69R,0.0480X0.0560*%
%ADD70C,0.0580*%
%ADD71R,0.0580X0.0580*%
%ADD72C,0.0660*%
%ADD73R,0.0660X0.0660*%
%ADD74R,0.1260X0.0472*%
%ADD75O,0.0940X0.0250*%
%ADD76R,0.0940X0.0250*%
%ADD77R,0.0315X0.0472*%
%ADD78C,0.0770*%
%ADD79R,0.1220X0.1299*%
%ADD80R,0.0157X0.1102*%
%ADD81C,0.0250*%
%ADD82C,0.0780*%
%ADD83R,0.0780X0.0780*%
%ADD84C,0.0860*%
%ADD85C,0.0860*%
%ADD86R,0.0860X0.0860*%
%ADD87C,0.0970*%
%ADD88C,0.0500*%
%ADD89R,0.0512X0.0098*%
%ADD90R,0.0866X0.0708*%
%ADD91O,0.0302X0.0787*%
%ADD92O,0.0787X0.0302*%
%ADD93R,0.0787X0.0302*%
%ADD94R,0.0500X0.0500*%
%ADD95C,0.0760*%
%ADD96R,0.0760X0.0760*%
%ADD97C,0.0150*%
%ADD98C,0.0400*%
%ADD99C,0.0760*%
%ADD100R,0.0760X0.0760*%
%ADD101R,0.0472X0.0315*%
%ADD102C,0.0780*%
%ADD103R,0.0780X0.0780*%
%ADD104C,0.0960*%
%ADD105THERMAL105*%
%ADD106C,0.0960*%
%ADD107R,0.0960X0.0960*%
%ADD108THERMAL108*%
%ADD109R,0.0500X0.0500*%
%ADD110C,0.0780*%
%ADD111R,0.0780X0.0780*%
%ADD112C,0.0960*%
*
G04 Plot Data ***
*
G54D36*
G01X0006830Y0003265D02*
X0003254D01*
X0003210Y0003309D01*
X0002175Y0004645D02*
X0007360D01*
X0008030Y0005315D01*
X0008439D01*
X0006510Y0010557D02*
X0005385D01*
X0005065Y0010237D01*
Y0006885D01*
X0004745Y0006565D01*
X0002855D01*
X0002635Y0006785D01*
Y0007135D01*
X0010217Y0002700D02*
X0011595D01*
X0011915Y0003020D01*
Y0007935D01*
X0012236Y0008256D01*
X0013255D01*
X0010520Y0007820D02*
Y0006540D01*
X0007105Y0005515D02*
X0006870D01*
X0006660Y0005725D01*
X0005670D01*
X0005595Y0005650D01*
X0002480D01*
X0002400Y0005730D01*
Y0005977D01*
X0009655Y0007670D02*
Y0006365D01*
X0009335Y0006045D01*
X0004090D01*
X0004015Y0005970D01*
X0003065D01*
X0002400Y0006635D01*
Y0007380D01*
X0002720Y0007700D01*
X0003530D01*
X0001035Y0000490D02*
X0012245D01*
X0009580Y0002835D02*
X0009110Y0002365D01*
X0004365D01*
X0004015Y0002715D01*
X0001760D01*
X0012155Y0009256D02*
Y0010145D01*
X0011830Y0010470D01*
X0008465D01*
X0008145Y0010150D01*
Y0008020D01*
X0007825Y0007700D01*
X0006056D01*
X0002175Y0004970D02*
X0002540Y0005335D01*
X0006205D01*
X0006290Y0005250D01*
X0007430D01*
X0007730Y0005550D01*
X0008755D01*
X0009075Y0005230D01*
Y0002994D01*
X0009080Y0002989D01*
X0002570Y0003765D02*
X0008255D01*
X0008575Y0003445D01*
Y0002926D01*
X0008580Y0002921D01*
X0008830Y0002055D02*
X0006285D01*
X0005135Y0000905D01*
X0001845D01*
X0001525Y0001225D01*
Y0003125D01*
X0001845Y0003445D01*
X0002410D01*
G54D40*
G01X0007860Y0010140D02*
Y0010420D01*
X0008130Y0010690D01*
X0014465D01*
X0014635Y0010520D01*
Y0005335D01*
X0011755Y0002455D01*
X0011330D01*
X0004380Y0010535D02*
Y0008420D01*
Y0006800D01*
X0001280Y0005665D02*
Y0000970D01*
X0001600Y0000650D01*
X0007865D01*
X0008185Y0000970D01*
Y0001810D01*
X0005772Y0008400D02*
X0006800D01*
X0007120Y0008720D01*
Y0010470D01*
X0012900Y0009125D02*
X0013605D01*
X0013925Y0008805D01*
Y0005313D01*
X0013605Y0004993D01*
X0012580D01*
X0004380Y0010535D02*
Y0008420D01*
Y0006800D01*
X0003211Y0006205D02*
X0009055D01*
X0009375Y0006525D01*
Y0009990D01*
X0009695Y0010310D01*
X0011035D01*
X0011105Y0010240D01*
Y0009706D01*
X0011605Y0010169D02*
Y0003315D01*
X0011285Y0002995D01*
X0010430D01*
X0010210Y0003215D01*
Y0005035D01*
X0009905Y0009806D02*
X0009900Y0009801D01*
Y0005885D01*
Y0002530D01*
X0010220Y0002210D01*
X0010498D01*
X0010145Y0008910D02*
Y0007930D01*
X0009905Y0009806D02*
X0009900Y0009801D01*
Y0005885D01*
X0004755D01*
X0004680Y0005810D01*
X0002840D01*
X0002740Y0005910D01*
X0010830Y0003500D02*
X0010625Y0003705D01*
Y0004975D01*
X0010145Y0005455D01*
Y0007930D01*
X0011105Y0009706D02*
X0011075Y0009676D01*
Y0003360D01*
X0010955Y0003240D01*
X0010580D01*
X0010455Y0005545D02*
X0010745D01*
X0010765Y0005565D01*
Y0008665D01*
G54D65*
X0004575Y0002895D03*
X0007860Y0010140D03*
X0011330Y0002455D03*
X0006627Y0008155D03*
X0006534Y0005486D03*
X0006799Y0005015D03*
X0006265Y0008155D03*
X0001525Y0005215D03*
X0003211Y0001537D03*
X0009345Y0003215D03*
X0007865Y0002676D03*
X0008095Y0003166D03*
X0006479Y0005015D03*
X0006550Y0003020D03*
X0011320Y0008420D03*
X0008380Y0008175D03*
X0010520D03*
X0003211Y0002970D03*
X0007080Y0003501D03*
X0006830Y0003265D03*
X0003210Y0003309D03*
X0006580Y0003501D03*
X0001280Y0005665D03*
X0008185Y0001810D03*
X0002175Y0004645D03*
X0008439Y0005315D03*
X0012310Y0007915D03*
X0003115Y0008400D03*
X0005772D03*
X0007120Y0010470D03*
X0012900Y0009125D03*
X0012580Y0004993D03*
X0009620Y0009215D03*
X0004380Y0010535D03*
X0006510Y0010557D03*
X0002635Y0007135D03*
X0012330Y0003501D03*
X0011320Y0007669D03*
X0006045Y0007306D03*
X0002870Y0006890D03*
X0003211Y0006205D03*
X0005322Y0002127D03*
X0011605Y0010169D03*
X0010210Y0005035D03*
X0010217Y0002700D03*
X0010498Y0002210D03*
X0010145Y0008910D03*
X0006080Y0000895D03*
X0002740Y0005910D03*
X0010520Y0007820D03*
X0010830Y0003500D03*
X0010145Y0007930D03*
X0004339Y0001306D03*
X0002250Y0001143D03*
X0013300Y0006675D03*
X0010580Y0003240D03*
X0010520Y0006540D03*
X0007105Y0005515D03*
X0002400Y0005977D03*
X0005580Y0002750D03*
X0009655Y0007670D03*
X0003530Y0007700D03*
X0001035Y0000490D03*
X0012245D03*
X0009580Y0002835D03*
X0001760Y0002715D03*
X0010455Y0005545D03*
X0010765Y0008665D03*
X0006056Y0007700D03*
X0005830Y0003015D03*
X0008439Y0004995D03*
X0002805Y0004090D03*
X0004113Y0001685D03*
X0005725Y0007310D03*
X0002805Y0004410D03*
X0005055Y0001882D03*
X0002175Y0004970D03*
X0009080Y0002989D03*
X0002570Y0003765D03*
X0008580Y0002921D03*
G54D70*
X0015223Y0010135D03*
G54D71*
X0014223D03*
G54D78*
X0002758Y0002219D03*
X0013939D03*
G54D81*
X0008830Y0002055D03*
X0002410Y0003445D03*
X0013267Y0009555D03*
X0013310Y0010445D03*
X0015530Y0004065D03*
X0015200Y0003225D03*
Y0001045D03*
X0012680Y0001505D03*
X0004380Y0006800D03*
X0007494Y0009895D03*
X0000420Y0003905D03*
X0000400Y0004845D03*
Y0005665D03*
X0013610Y0001045D03*
X0002162Y0008835D03*
X0006872Y0009290D03*
X0003532Y0009412D03*
X0004830Y0005097D03*
G54D99*
X0013605Y0003206D03*
X0013255Y0008256D03*
X0012155Y0009256D03*
X0011105Y0009706D03*
X0009905Y0009806D03*
X0008705Y0009706D03*
X0007655Y0009256D03*
X0008905Y0001306D03*
X0009905Y0001206D03*
X0010905Y0001306D03*
X0011755Y0001606D03*
G54D100*
X0012805Y0002356D03*
M02*
