*
G04 Mass Parameters ***
*
G04 Image ***
*
%INC:\DAVIDLEE\RAGOBOTS_HW\ROBOT\HW\NECK\DESIGN\NECK.TOP*%
%ICAS*%
%MOIN*%
%IPPOS*%
%ASAXBY*%
G74*%FSLAN2X34Y34*%
*
G04 Aperture Definitions ***
*
%AMTHERMAL49*
1,1,0.0839,0,0,*
1,0,0.0640,0,0,*
21,0,0.0840,0.1000,0,0,46.2*
21,0,0.0840,0.1000,0,0,136.2*%
%AMTHERMAL59*
1,1,0.1759,0,0,*
1,0,0.1460,0,0,*
21,0,0.1760,0.0300,0,0,225.0*
21,0,0.1760,0.0300,0,0,315.0*%
%AMTHERMAL62*
1,1,0.0829,0,0,*
1,0,0.0630,0,0,*
21,0,0.0830,0.1000,0,0,45.0*
21,0,0.0830,0.1000,0,0,135.0*%
%AMTHERMAL105*
1,1,0.1699,0,0,*
1,0,0.1400,0,0,*
21,0,0.1700,0.0300,0,0,225.0*
21,0,0.1700,0.0300,0,0,315.0*%
%AMTHERMAL108*
1,1,0.0829,0,0,*
1,0,0.0630,0,0,*
21,0,0.0830,0.1000,0,0,45.3*
21,0,0.0830,0.1000,0,0,135.3*%
%ADD10R,0.0220X0.0220*%
%ADD11R,0.0560X0.0920*%
%ADD12C,0.0580*%
%ADD13R,0.0580X0.0580*%
%ADD14C,0.0560*%
%ADD15R,0.0560X0.0560*%
%ADD16C,0.0787*%
%ADD17O,0.0302X0.0894*%
%ADD18O,0.0894X0.0302*%
%ADD19R,0.0894X0.0302*%
%ADD20O,0.0940X0.0250*%
%ADD21R,0.0940X0.0250*%
%ADD22C,0.0630*%
%ADD23R,0.0472X0.0315*%
%ADD24R,0.0400X0.0560*%
%ADD25R,0.0480X0.0560*%
%ADD26R,0.0866X0.0708*%
%ADD27R,0.0512X0.0118*%
%ADD28R,0.1220X0.1299*%
%ADD29R,0.0157X0.1102*%
%ADD30C,0.0780*%
%ADD31R,0.0780X0.0780*%
%ADD32C,0.0010*%
%ADD33C,0.0660*%
%ADD34R,0.0660X0.0660*%
%ADD35R,0.0512X0.0098*%
%ADD36C,0.0080*%
%ADD37C,0.0060*%
%ADD38C,0.0039*%
%ADD39C,0.0070*%
%ADD40C,0.0100*%
%ADD41C,0.0098*%
%ADD42R,0.0472X0.1260*%
%ADD43C,0.0315*%
%ADD44C,0.0250*%
%ADD45C,0.0120*%
%ADD46R,0.0920X0.0560*%
%ADD47R,0.1260X0.0472*%
%ADD48C,0.0500*%
%ADD49THERMAL49*%
%ADD50C,0.0250*%
%ADD51C,0.0500*%
%ADD52O,0.0302X0.0787*%
%ADD53O,0.0787X0.0302*%
%ADD54R,0.0787X0.0302*%
%ADD55C,0.0770*%
%ADD56C,0.0300*%
%ADD57R,0.0315X0.0472*%
%ADD58C,0.0860*%
%ADD59THERMAL59*%
%ADD60R,0.0860X0.0860*%
%ADD61C,0.0970*%
%ADD62THERMAL62*%
%ADD63C,0.0090*%
%ADD64C,0.0197*%
%ADD65C,0.0250*%
%ADD66R,0.0220X0.0220*%
%ADD67R,0.0920X0.0560*%
%ADD68R,0.0400X0.0560*%
%ADD69R,0.0480X0.0560*%
%ADD70C,0.0580*%
%ADD71R,0.0580X0.0580*%
%ADD72C,0.0660*%
%ADD73R,0.0660X0.0660*%
%ADD74R,0.1260X0.0472*%
%ADD75O,0.0940X0.0250*%
%ADD76R,0.0940X0.0250*%
%ADD77R,0.0315X0.0472*%
%ADD78C,0.0770*%
%ADD79R,0.1220X0.1299*%
%ADD80R,0.0157X0.1102*%
%ADD81C,0.0250*%
%ADD82C,0.0780*%
%ADD83R,0.0780X0.0780*%
%ADD84C,0.0860*%
%ADD85C,0.0860*%
%ADD86R,0.0860X0.0860*%
%ADD87C,0.0970*%
%ADD88C,0.0500*%
%ADD89R,0.0512X0.0098*%
%ADD90R,0.0866X0.0708*%
%ADD91O,0.0302X0.0787*%
%ADD92O,0.0787X0.0302*%
%ADD93R,0.0787X0.0302*%
%ADD94R,0.0500X0.0500*%
%ADD95C,0.0760*%
%ADD96R,0.0760X0.0760*%
%ADD97C,0.0150*%
%ADD98C,0.0400*%
%ADD99C,0.0760*%
%ADD100R,0.0760X0.0760*%
%ADD101R,0.0472X0.0315*%
%ADD102C,0.0780*%
%ADD103R,0.0780X0.0780*%
%ADD104C,0.0960*%
%ADD105THERMAL105*%
%ADD106C,0.0960*%
%ADD107R,0.0960X0.0960*%
%ADD108THERMAL108*%
%ADD109R,0.0500X0.0500*%
%ADD110C,0.0780*%
%ADD111R,0.0780X0.0780*%
%ADD112C,0.0960*%
*
G04 Plot Data ***
*
G54D32*
G01X0006583Y0010888D02*
Y0010743D01*
X0007438Y0010888D02*
Y0010595D01*
X0005176Y0009194D02*
X0003163D01*
X0005048Y0009050D02*
X0003163D01*
X0007420Y0010888D02*
Y0010595D01*
X0007411Y0010888D02*
Y0010595D01*
X0006538Y0010888D02*
Y0010755D01*
X0006395Y0010220D02*
X0005490D01*
X0006421Y0010888D02*
Y0010736D01*
X0006412Y0010888D02*
Y0010731D01*
X0006403Y0010888D02*
Y0010725D01*
X0006619Y0010888D02*
Y0010725D01*
X0006375Y0010409D02*
X0005490D01*
X0006310Y0010553D02*
X0005468D01*
X0006311Y0010535D02*
X0005476D01*
X0007141Y0010888D02*
Y0010669D01*
X0006770Y0010672D02*
X0006674D01*
X0006319Y0010499D02*
X0005486D01*
X0007258Y0010888D02*
Y0010615D01*
X0006628Y0010395D02*
Y0010067D01*
X0005530Y0008969D02*
X0005490D01*
X0003460Y0010888D02*
Y0010407D01*
X0005084Y0009833D02*
X0003163D01*
X0007494Y0010598D02*
X0007274D01*
X0004990Y0010888D02*
Y0010660D01*
X0005683Y0008764D02*
Y0008750D01*
X0005665Y0008771D02*
Y0008750D01*
X0005656Y0008775D02*
Y0008750D01*
X0004630Y0010888D02*
Y0010660D01*
X0004819Y0010888D02*
Y0010660D01*
X0004837Y0010888D02*
Y0010660D01*
X0004135Y0010888D02*
Y0010660D01*
X0005557Y0008871D02*
Y0008704D01*
X0007202Y0009212D02*
X0003163D01*
X0007042Y0010888D02*
Y0010654D01*
X0003982Y0010888D02*
Y0010660D01*
X0006434Y0010742D02*
X0003163D01*
X0005041Y0009023D02*
X0003163D01*
X0003451Y0010888D02*
Y0010407D01*
X0004972Y0010888D02*
Y0010660D01*
X0006461Y0010751D02*
X0003163D01*
X0005490Y0008986D02*
Y0008638D01*
X0007024Y0010888D02*
Y0010645D01*
X0005638Y0008785D02*
Y0008749D01*
X0007024Y0010295D02*
Y0008750D01*
X0005579Y0008726D02*
X0005490D01*
X0005593Y0008735D02*
X0005490D01*
X0005612Y0008744D02*
X0005490D01*
X0004900Y0010888D02*
Y0010660D01*
X0005674Y0008767D02*
Y0008750D01*
X0004063Y0010410D02*
Y0009502D01*
X0004675Y0010888D02*
Y0010660D01*
X0003723Y0010231D02*
Y0010037D01*
X0005692Y0008761D02*
Y0008750D01*
X0005038Y0008744D02*
X0003424D01*
X0003883Y0010391D02*
Y0008350D01*
X0004018Y0010888D02*
Y0010660D01*
X0003865Y0010373D02*
Y0008350D01*
X0003856Y0010364D02*
Y0008350D01*
X0003847Y0010355D02*
Y0008350D01*
X0003838Y0010346D02*
Y0008350D01*
X0003829Y0010337D02*
Y0008350D01*
X0003820Y0010328D02*
Y0008350D01*
X0003748Y0010888D02*
Y0010609D01*
X0003353Y0010265D02*
X0003163D01*
X0005096Y0008350D02*
X0003818D01*
X0005038Y0008969D02*
X0003199D01*
X0004792Y0010888D02*
Y0010660D01*
X0004738Y0010888D02*
Y0010660D01*
X0004747Y0010888D02*
Y0010660D01*
X0004765Y0010888D02*
Y0010660D01*
X0007494Y0010121D02*
X0006998D01*
X0007494Y0010877D02*
X0003163D01*
X0007494Y0010724D02*
X0006620D01*
X0007494Y0010868D02*
X0003163D01*
X0007494Y0010859D02*
X0003163D01*
X0007494Y0010850D02*
X0003163D01*
X0007494Y0010841D02*
X0003163D01*
X0007494Y0010832D02*
X0003163D01*
X0007494Y0010823D02*
X0003163D01*
X0007494Y0010814D02*
X0003163D01*
X0007494Y0010805D02*
X0003163D01*
X0007494Y0010796D02*
X0003163D01*
X0007494Y0010787D02*
X0003163D01*
X0007494Y0010778D02*
X0003163D01*
X0006339Y0010454D02*
X0005490D01*
X0003433Y0010888D02*
Y0010407D01*
X0007060Y0010888D02*
Y0010661D01*
X0003682Y0010544D02*
X0003163D01*
X0003646Y0010508D02*
X0003163D01*
X0004189Y0010888D02*
Y0010660D01*
X0003361Y0010888D02*
Y0010407D01*
X0003353Y0010220D02*
X0003163D01*
X0005039Y0009959D02*
X0003163D01*
X0004354Y0010337D02*
X0003829D01*
X0004306Y0010349D02*
Y0009703D01*
X0004891Y0010888D02*
Y0010660D01*
X0006313Y0010888D02*
Y0010589D01*
X0003565Y0010427D02*
X0003163D01*
X0003556Y0010418D02*
X0003163D01*
X0003805Y0010652D02*
X0003163D01*
X0003787Y0010643D02*
X0003163D01*
X0003774Y0010634D02*
X0003163D01*
X0003763Y0010625D02*
X0003163D01*
X0003754Y0010616D02*
X0003163D01*
X0003745Y0010607D02*
X0003163D01*
X0003736Y0010598D02*
X0003163D01*
X0004864Y0010888D02*
Y0010660D01*
X0003709Y0010571D02*
X0003163D01*
X0003700Y0010562D02*
X0003163D01*
X0003691Y0010553D02*
X0003163D01*
X0004198Y0010888D02*
Y0010660D01*
X0004189Y0010410D02*
Y0009681D01*
X0003655Y0010517D02*
X0003163D01*
X0003964Y0010888D02*
Y0010660D01*
X0007494Y0010760D02*
X0003163D01*
X0005038Y0009995D02*
X0003163D01*
X0004316Y0010346D02*
X0003838D01*
X0003673Y0010535D02*
X0003163D01*
X0004063Y0010888D02*
Y0010660D01*
X0003353Y0010400D02*
X0003163D01*
X0003353Y0010391D02*
X0003163D01*
X0004349Y0010733D02*
X0003163D01*
X0003353Y0010373D02*
X0003163D01*
X0004297Y0010888D02*
Y0010717D01*
X0007150Y0010888D02*
Y0010668D01*
X0003353Y0010346D02*
X0003163D01*
X0003353Y0010337D02*
X0003163D01*
X0004288Y0010888D02*
Y0010712D01*
X0003353Y0010319D02*
X0003163D01*
X0003353Y0010310D02*
X0003163D01*
X0003353Y0010301D02*
X0003163D01*
X0004279Y0010888D02*
Y0010707D01*
X0006565Y0010888D02*
Y0010749D01*
X0003353Y0010274D02*
X0003163D01*
X0004292Y0010715D02*
X0003163D01*
X0003353Y0010247D02*
X0003163D01*
X0003353Y0010238D02*
X0003163D01*
X0003353Y0010229D02*
X0003163D01*
X0004276Y0010706D02*
X0003163D01*
X0003353Y0010211D02*
X0003163D01*
X0003353Y0010202D02*
X0003163D01*
X0003353Y0010193D02*
X0003163D01*
X0003353Y0010184D02*
X0003163D01*
X0004262Y0010697D02*
X0003163D01*
X0003353Y0010166D02*
X0003163D01*
X0007494Y0010247D02*
X0006998D01*
X0007494Y0010229D02*
X0006998D01*
X0007494Y0010211D02*
X0006998D01*
X0007494Y0010193D02*
X0006998D01*
X0007494Y0010175D02*
X0006998D01*
X0007494Y0010157D02*
X0006998D01*
X0007494Y0010139D02*
X0006998D01*
X0007494Y0010103D02*
X0006998D01*
X0003353Y0010076D02*
X0003163D01*
X0003353Y0010067D02*
X0003163D01*
X0005038Y0010058D02*
X0003723D01*
X0005038Y0010049D02*
X0003723D01*
X0004873Y0010888D02*
Y0010660D01*
X0005038Y0010031D02*
X0003163D01*
X0005038Y0010022D02*
X0003163D01*
X0005038Y0010013D02*
X0003163D01*
X0005038Y0010004D02*
X0003163D01*
X0005038Y0010211D02*
X0003723D01*
X0003601Y0010463D02*
X0003163D01*
X0005038Y0009977D02*
X0003163D01*
X0005038Y0009968D02*
X0003163D01*
X0003739Y0010888D02*
Y0010600D01*
X0003574Y0010436D02*
X0003163D01*
X0005040Y0009941D02*
X0003163D01*
X0005041Y0009932D02*
X0003163D01*
X0005043Y0009923D02*
X0003163D01*
X0005045Y0009914D02*
X0003163D01*
X0005048Y0009905D02*
X0003163D01*
X0005051Y0009896D02*
X0003163D01*
X0005054Y0009887D02*
X0003163D01*
X0005058Y0009878D02*
X0003163D01*
X0005062Y0009869D02*
X0003163D01*
X0005066Y0009860D02*
X0003163D01*
X0007494Y0010184D02*
X0006998D01*
X0007494Y0010112D02*
X0006998D01*
X0003353Y0010049D02*
X0003163D01*
X0005091Y0009824D02*
X0003163D01*
X0005099Y0009815D02*
X0003163D01*
X0005108Y0009806D02*
X0003163D01*
X0005118Y0009797D02*
X0003163D01*
X0005129Y0009788D02*
X0003163D01*
X0005142Y0009779D02*
X0003163D01*
X0007355Y0009752D02*
X0006254D01*
X0005202D02*
X0003163D01*
X0007365Y0009743D02*
X0003163D01*
X0007376Y0009734D02*
X0003163D01*
X0007389Y0009725D02*
X0003163D01*
X0003901Y0010888D02*
Y0010660D01*
X0007294Y0009896D02*
X0006591D01*
X0004237Y0009698D02*
X0003163D01*
X0004207Y0009689D02*
X0003163D01*
X0004187Y0009680D02*
X0003163D01*
X0004170Y0009671D02*
X0003163D01*
X0004157Y0009662D02*
X0003163D01*
X0004145Y0009653D02*
X0003163D01*
X0004134Y0009644D02*
X0003163D01*
X0004125Y0009635D02*
X0003163D01*
X0004117Y0009626D02*
X0003163D01*
X0004109Y0009617D02*
X0003163D01*
X0004103Y0009608D02*
X0003163D01*
X0004097Y0009599D02*
X0003163D01*
X0004091Y0009590D02*
X0003163D01*
X0004086Y0009581D02*
X0003163D01*
X0004082Y0009572D02*
X0003163D01*
X0004078Y0009563D02*
X0003163D01*
X0004075Y0009554D02*
X0003163D01*
X0004072Y0009545D02*
X0003163D01*
X0004069Y0009536D02*
X0003163D01*
X0004067Y0009527D02*
X0003163D01*
X0004065Y0009518D02*
X0003163D01*
X0004063Y0009509D02*
X0003163D01*
X0004062Y0009500D02*
X0003163D01*
X0004062Y0009491D02*
X0003163D01*
X0007427Y0009707D02*
X0003163D01*
X0004061Y0009473D02*
X0003163D01*
X0004062Y0009464D02*
X0003163D01*
X0004062Y0009455D02*
X0003163D01*
X0004064Y0009446D02*
X0003163D01*
X0004065Y0009437D02*
X0003163D01*
X0004067Y0009428D02*
X0003163D01*
X0004069Y0009419D02*
X0003163D01*
X0004072Y0009410D02*
X0003163D01*
X0004075Y0009401D02*
X0003163D01*
X0004078Y0009392D02*
X0003163D01*
X0004082Y0009383D02*
X0003163D01*
X0004086Y0009374D02*
X0003163D01*
X0004091Y0009365D02*
X0003163D01*
X0004097Y0009356D02*
X0003163D01*
X0004103Y0009347D02*
X0003163D01*
X0004110Y0009338D02*
X0003163D01*
X0004117Y0009329D02*
X0003163D01*
X0004125Y0009320D02*
X0003163D01*
X0004135Y0009311D02*
X0003163D01*
X0004145Y0009302D02*
X0003163D01*
X0004157Y0009293D02*
X0003163D01*
X0004171Y0009284D02*
X0003163D01*
X0004187Y0009275D02*
X0003163D01*
X0004238Y0009257D02*
X0003163D01*
X0007200Y0009248D02*
X0003163D01*
X0007200Y0009239D02*
X0003163D01*
X0007200Y0009230D02*
X0003163D01*
X0007201Y0009221D02*
X0003163D01*
X0005039Y0009950D02*
X0003163D01*
X0005201Y0009203D02*
X0003163D01*
X0005157Y0009185D02*
X0003163D01*
X0005142Y0009176D02*
X0003163D01*
X0005129Y0009167D02*
X0003163D01*
X0007429Y0010888D02*
Y0010595D01*
X0005099Y0009140D02*
X0003163D01*
X0005091Y0009131D02*
X0003163D01*
X0005072Y0009104D02*
X0003163D01*
X0005066Y0009095D02*
X0003163D01*
X0005057Y0009077D02*
X0003163D01*
X0005054Y0009068D02*
X0003163D01*
X0005050Y0009059D02*
X0003163D01*
X0005045Y0009041D02*
X0003163D01*
X0005043Y0009032D02*
X0003163D01*
X0005039Y0009005D02*
X0003163D01*
X0005039Y0008996D02*
X0003172D01*
X0005038Y0008987D02*
X0003181D01*
X0003550Y0010037D02*
Y0008618D01*
X0005038Y0008960D02*
X0003208D01*
X0005038Y0008951D02*
X0003217D01*
X0005038Y0008942D02*
X0003226D01*
X0005038Y0008933D02*
X0003235D01*
X0005038Y0008924D02*
X0003244D01*
X0005038Y0008915D02*
X0003253D01*
X0005038Y0008906D02*
X0003262D01*
X0005038Y0008897D02*
X0003271D01*
X0005038Y0008888D02*
X0003280D01*
X0005038Y0008879D02*
X0003289D01*
X0005038Y0008870D02*
X0003298D01*
X0005038Y0008861D02*
X0003307D01*
X0005038Y0008843D02*
X0003325D01*
X0005038Y0008834D02*
X0003334D01*
X0005038Y0008825D02*
X0003343D01*
X0005038Y0008816D02*
X0003352D01*
X0005038Y0008807D02*
X0003361D01*
X0005038Y0008798D02*
X0003370D01*
X0005038Y0008789D02*
X0003379D01*
X0005038Y0008780D02*
X0003388D01*
X0005038Y0008771D02*
X0003397D01*
X0005038Y0008762D02*
X0003406D01*
X0005038Y0008753D02*
X0003415D01*
X0005038Y0008735D02*
X0003433D01*
X0005038Y0008726D02*
X0003442D01*
X0005038Y0008717D02*
X0003451D01*
X0005038Y0008708D02*
X0003460D01*
X0005038Y0008699D02*
X0003469D01*
X0005038Y0008690D02*
X0003478D01*
X0005038Y0008681D02*
X0003487D01*
X0007494Y0008762D02*
X0006309D01*
X0007494Y0008753D02*
X0006266D01*
X0003892Y0010888D02*
Y0010660D01*
X0003874Y0010888D02*
Y0010660D01*
X0003838Y0010888D02*
Y0010659D01*
X0003820Y0010888D02*
Y0010656D01*
X0003802Y0010888D02*
Y0010650D01*
X0003784Y0010888D02*
Y0010641D01*
X0006395Y0010256D02*
X0005490D01*
X0004981Y0010888D02*
Y0010660D01*
X0007330Y0008937D02*
Y0008750D01*
X0003353Y0010157D02*
X0003163D01*
X0005533Y0009014D02*
X0005489D01*
X0005532Y0009005D02*
X0005489D01*
X0005531Y0008996D02*
X0005490D01*
X0005530Y0008987D02*
X0005490D01*
X0005530Y0008978D02*
X0005490D01*
X0005531Y0008960D02*
X0005490D01*
X0005532Y0008951D02*
X0005490D01*
X0005533Y0008942D02*
X0005490D01*
X0005534Y0008933D02*
X0005490D01*
X0005536Y0008924D02*
X0005490D01*
X0005539Y0008915D02*
X0005490D01*
X0005542Y0008906D02*
X0005490D01*
X0005545Y0008897D02*
X0005490D01*
X0005549Y0008888D02*
X0005490D01*
X0005553Y0008879D02*
X0005490D01*
X0005557Y0008870D02*
X0005490D01*
X0005562Y0008861D02*
X0005490D01*
X0005568Y0008852D02*
X0005490D01*
X0005574Y0008843D02*
X0005490D01*
X0005581Y0008834D02*
X0005490D01*
X0005589Y0008825D02*
X0005490D01*
X0005598Y0008816D02*
X0005490D01*
X0005608Y0008807D02*
X0005490D01*
X0005619Y0008798D02*
X0005490D01*
X0005632Y0008789D02*
X0005490D01*
X0005646Y0008780D02*
X0005490D01*
X0005664Y0008771D02*
X0005490D01*
X0005688Y0008762D02*
X0005490D01*
X0005647Y0008779D02*
Y0008750D01*
X0006475Y0009862D02*
Y0008750D01*
X0006484Y0009862D02*
Y0008750D01*
X0006493Y0009862D02*
Y0008750D01*
X0006502Y0009862D02*
Y0008750D01*
X0005560Y0008708D02*
X0005490D01*
X0005551Y0008699D02*
X0005490D01*
X0005542Y0008690D02*
X0005490D01*
X0005533Y0008681D02*
X0005490D01*
X0005524Y0008672D02*
X0005490D01*
X0005515Y0008663D02*
X0005490D01*
X0005506Y0008654D02*
X0005490D01*
X0007231Y0009091D02*
Y0008750D01*
X0007240Y0009069D02*
Y0008750D01*
X0004224Y0010661D02*
X0003163D01*
X0007249Y0009050D02*
Y0008750D01*
X0007258Y0009033D02*
Y0008750D01*
X0007267Y0009018D02*
Y0008750D01*
X0006997Y0010313D02*
Y0008750D01*
X0007276Y0009004D02*
Y0008750D01*
X0007204Y0010288D02*
Y0009316D01*
X0007285Y0008991D02*
Y0008750D01*
X0007294Y0008979D02*
Y0008750D01*
X0007303Y0008967D02*
Y0008750D01*
X0007312Y0008957D02*
Y0008750D01*
X0005503Y0010888D02*
Y0008650D01*
X0006511Y0009862D02*
Y0008750D01*
X0007321Y0008947D02*
Y0008750D01*
X0004909Y0010888D02*
Y0010660D01*
X0004756Y0010888D02*
Y0010660D01*
X0004927Y0010888D02*
Y0010660D01*
X0004945Y0010888D02*
Y0010660D01*
X0004241Y0010679D02*
X0003163D01*
X0005116Y0010625D02*
X0005069D01*
X0005127Y0010634D02*
X0005059D01*
X0005044Y0010888D02*
Y0010644D01*
X0004990Y0010351D02*
Y0009540D01*
X0005004Y0010337D02*
X0004406D01*
X0005013Y0010328D02*
X0003820D01*
X0004963Y0010378D02*
Y0009600D01*
X0004954Y0010387D02*
Y0009613D01*
X0004945Y0010396D02*
Y0009624D01*
X0004927Y0010410D02*
Y0009643D01*
X0004918Y0010410D02*
Y0009651D01*
X0004909Y0010410D02*
Y0009658D01*
X0004900Y0010410D02*
Y0009664D01*
X0004891Y0010410D02*
Y0009670D01*
X0004882Y0010410D02*
Y0009675D01*
X0004873Y0010410D02*
Y0009680D01*
X0004864Y0010410D02*
Y0009684D01*
X0004855Y0010410D02*
Y0009688D01*
X0004846Y0010410D02*
Y0009691D01*
X0004837Y0010410D02*
Y0009694D01*
X0004828Y0010410D02*
Y0009696D01*
X0004819Y0010410D02*
Y0009699D01*
X0004810Y0010410D02*
Y0009700D01*
X0004801Y0010410D02*
Y0009702D01*
X0004792Y0010410D02*
Y0009702D01*
X0004783Y0010410D02*
Y0009703D01*
X0004774Y0010410D02*
Y0009703D01*
X0004765Y0010410D02*
Y0009703D01*
X0004756Y0010410D02*
Y0009703D01*
X0004747Y0010410D02*
Y0009703D01*
X0004738Y0010410D02*
Y0009703D01*
X0004729Y0010410D02*
Y0009703D01*
X0004720Y0010410D02*
Y0009703D01*
X0004711Y0010410D02*
Y0009703D01*
X0004702Y0010410D02*
Y0009703D01*
X0004693Y0010410D02*
Y0009703D01*
X0004684Y0010410D02*
Y0009703D01*
X0004675Y0010410D02*
Y0009703D01*
X0004666Y0010410D02*
Y0009703D01*
X0004657Y0010410D02*
Y0009703D01*
X0004648Y0010410D02*
Y0009703D01*
X0004639Y0010410D02*
Y0009703D01*
X0004630Y0010410D02*
Y0009703D01*
X0004621Y0010410D02*
Y0009703D01*
X0004612Y0010410D02*
Y0009703D01*
X0004603Y0010410D02*
Y0009703D01*
X0004594Y0010410D02*
Y0009703D01*
X0004144Y0010888D02*
Y0010660D01*
X0004576Y0010888D02*
Y0010660D01*
X0004567Y0010888D02*
Y0010660D01*
X0004558Y0010888D02*
Y0010660D01*
X0004549Y0010888D02*
Y0010660D01*
X0004531Y0010403D02*
Y0009703D01*
X0004522Y0010394D02*
Y0009703D01*
X0004513Y0010385D02*
Y0009703D01*
X0004504Y0010378D02*
Y0009703D01*
X0004495Y0010371D02*
Y0009703D01*
X0004486Y0010365D02*
Y0009703D01*
X0004477Y0010360D02*
Y0009703D01*
X0004468Y0010355D02*
Y0009703D01*
X0004459Y0010351D02*
Y0009703D01*
X0004450Y0010347D02*
Y0009703D01*
X0004441Y0010344D02*
Y0009703D01*
X0004432Y0010342D02*
Y0009703D01*
X0004423Y0010340D02*
Y0009703D01*
X0004414Y0010338D02*
Y0009703D01*
X0004405Y0010336D02*
Y0009703D01*
X0004396Y0010336D02*
Y0009703D01*
X0004387Y0010335D02*
Y0009703D01*
X0004378Y0010335D02*
Y0009703D01*
X0004369Y0010335D02*
Y0009703D01*
X0004360Y0010336D02*
Y0009703D01*
X0004351Y0010337D02*
Y0009703D01*
X0004342Y0010339D02*
Y0009703D01*
X0004333Y0010341D02*
Y0009703D01*
X0004324Y0010343D02*
Y0009703D01*
X0004315Y0010346D02*
Y0009703D01*
X0003353Y0010382D02*
X0003163D01*
X0004297Y0010353D02*
Y0009703D01*
X0004288Y0010358D02*
Y0009703D01*
X0004279Y0010363D02*
Y0009703D01*
X0004270Y0010368D02*
Y0009703D01*
X0004261Y0010374D02*
Y0009702D01*
X0004252Y0010382D02*
Y0009700D01*
X0004243Y0010390D02*
Y0009699D01*
X0004234Y0010399D02*
Y0009697D01*
X0004225Y0010409D02*
Y0009694D01*
X0003637Y0010499D02*
X0003163D01*
X0004207Y0010888D02*
Y0010660D01*
X0003628Y0010490D02*
X0003163D01*
X0004180Y0010410D02*
Y0009676D01*
X0004171Y0010410D02*
Y0009671D01*
X0004162Y0010410D02*
Y0009665D01*
X0004153Y0010410D02*
Y0009659D01*
X0004144Y0010410D02*
Y0009652D01*
X0004135Y0010410D02*
Y0009644D01*
X0004126Y0010410D02*
Y0009635D01*
X0004117Y0010410D02*
Y0009625D01*
X0004108Y0010410D02*
Y0009614D01*
X0004099Y0010410D02*
Y0009602D01*
X0004090Y0010410D02*
Y0009587D01*
X0004081Y0010410D02*
Y0009569D01*
X0004072Y0010410D02*
Y0009545D01*
X0005539Y0009415D02*
Y0009039D01*
X0005706Y0009698D02*
X0004823D01*
X0005676Y0009689D02*
X0004853D01*
X0005655Y0009680D02*
X0004873D01*
X0005639Y0009671D02*
X0004890D01*
X0005625Y0009662D02*
X0004903D01*
X0005613Y0009653D02*
X0004915D01*
X0005603Y0009644D02*
X0004926D01*
X0005594Y0009635D02*
X0004935D01*
X0005585Y0009626D02*
X0004943D01*
X0005578Y0009617D02*
X0004951D01*
X0005571Y0009608D02*
X0004957D01*
X0005565Y0009599D02*
X0004963D01*
X0005560Y0009590D02*
X0004969D01*
X0005555Y0009581D02*
X0004974D01*
X0005551Y0009572D02*
X0004978D01*
X0005547Y0009563D02*
X0004982D01*
X0005543Y0009554D02*
X0004985D01*
X0005540Y0009545D02*
X0004988D01*
X0005538Y0009536D02*
X0004991D01*
X0005535Y0009527D02*
X0004993D01*
X0005534Y0009518D02*
X0004995D01*
X0005532Y0009509D02*
X0004996D01*
X0005531Y0009500D02*
X0004998D01*
X0005530Y0009491D02*
X0004998D01*
X0005530Y0009482D02*
X0004999D01*
X0005530Y0009473D02*
X0004999D01*
X0005530Y0009464D02*
X0004998D01*
X0005531Y0009455D02*
X0004997D01*
X0005532Y0009446D02*
X0004996D01*
X0005534Y0009437D02*
X0004995D01*
X0005535Y0009428D02*
X0004993D01*
X0005538Y0009419D02*
X0004991D01*
X0005540Y0009410D02*
X0004988D01*
X0005543Y0009401D02*
X0004985D01*
X0005547Y0009392D02*
X0004982D01*
X0005551Y0009383D02*
X0004978D01*
X0005555Y0009374D02*
X0004973D01*
X0005560Y0009365D02*
X0004969D01*
X0005566Y0009356D02*
X0004963D01*
X0005572Y0009347D02*
X0004957D01*
X0005578Y0009338D02*
X0004950D01*
X0005586Y0009329D02*
X0004943D01*
X0005594Y0009320D02*
X0004935D01*
X0005603Y0009311D02*
X0004925D01*
X0005614Y0009302D02*
X0004915D01*
X0005626Y0009293D02*
X0004903D01*
X0005639Y0009284D02*
X0004889D01*
X0005656Y0009275D02*
X0004873D01*
X0005677Y0009266D02*
X0004852D01*
X0007462Y0009698D02*
X0006292D01*
X0007494Y0009695D02*
Y0009681D01*
Y0010888D02*
Y0010830D01*
Y0010595D02*
X0007276D01*
X0007483Y0009695D02*
Y0009677D01*
X0007474Y0009696D02*
Y0009673D01*
X0007465Y0009697D02*
Y0009669D01*
X0007456Y0009699D02*
Y0009665D01*
X0007447Y0009701D02*
Y0009660D01*
X0007438Y0009703D02*
Y0009656D01*
X0007429Y0009706D02*
Y0009651D01*
X0007420Y0009709D02*
Y0009645D01*
X0007411Y0009713D02*
Y0009640D01*
X0007402Y0009718D02*
Y0009634D01*
X0007393Y0009723D02*
Y0009628D01*
X0007384Y0009728D02*
Y0009621D01*
X0007375Y0009735D02*
Y0009614D01*
X0007366Y0009742D02*
Y0009607D01*
X0007326Y0010004D02*
X0006625D01*
X0007348Y0009759D02*
Y0009591D01*
X0007339Y0009769D02*
Y0009583D01*
X0007330Y0009781D02*
Y0009574D01*
X0007321Y0009796D02*
Y0009565D01*
X0007312Y0009814D02*
Y0009555D01*
X0007114Y0010270D02*
Y0008750D01*
X0007087Y0010888D02*
Y0010667D01*
X0007294Y0010888D02*
Y0010595D01*
X0007276Y0010344D02*
Y0009507D01*
X0007267Y0010334D02*
Y0009493D01*
X0007258Y0010325D02*
Y0009478D01*
X0007249Y0010317D02*
Y0009461D01*
X0007240Y0010310D02*
Y0009442D01*
X0005044Y0009920D02*
Y0009034D01*
X0003721Y0010888D02*
Y0010582D01*
X0003619Y0010481D02*
X0003163D01*
X0004233Y0010400D02*
X0003892D01*
X0004242Y0010391D02*
X0003883D01*
X0004252Y0010382D02*
X0003874D01*
X0004263Y0010373D02*
X0003865D01*
X0004277Y0010364D02*
X0003856D01*
X0004293Y0010355D02*
X0003847D01*
X0004153Y0010888D02*
Y0010660D01*
X0004932Y0010409D02*
X0004535D01*
X0004936Y0010405D02*
Y0009634D01*
X0005022Y0010319D02*
X0003811D01*
X0005038Y0010301D02*
X0003793D01*
X0005038Y0010292D02*
X0003784D01*
X0005038Y0010283D02*
X0003775D01*
X0005038Y0010274D02*
X0003766D01*
X0004224Y0010410D02*
X0003902D01*
X0004603Y0010888D02*
Y0010660D01*
X0003353Y0010256D02*
X0003163D01*
X0003703Y0010888D02*
Y0010564D01*
X0003694Y0010888D02*
Y0010555D01*
X0003685Y0010888D02*
Y0010546D01*
X0003676Y0010888D02*
Y0010537D01*
X0003667Y0010888D02*
Y0010528D01*
X0003658Y0010888D02*
Y0010519D01*
X0003649Y0010888D02*
Y0010510D01*
X0003640Y0010888D02*
Y0010501D01*
X0003631Y0010888D02*
Y0010492D01*
X0003352Y0010888D02*
Y0008816D01*
X0003613Y0010888D02*
Y0010474D01*
X0003343Y0010888D02*
Y0008825D01*
X0003595Y0010888D02*
Y0010456D01*
X0003334Y0010888D02*
Y0008834D01*
X0003577Y0010888D02*
Y0010438D01*
X0003325Y0010888D02*
Y0008843D01*
X0003316Y0010888D02*
Y0008852D01*
X0003307Y0010888D02*
Y0008861D01*
X0003271Y0010888D02*
Y0008897D01*
X0003523Y0010888D02*
Y0010407D01*
X0007494Y0010301D02*
X0007226D01*
X0003253Y0010888D02*
Y0008915D01*
X0007494Y0010283D02*
X0007190D01*
X0003244Y0010888D02*
Y0008924D01*
X0007330Y0010888D02*
Y0010595D01*
X0007321Y0010888D02*
Y0010595D01*
X0007078Y0010888D02*
Y0010665D01*
X0003226Y0010888D02*
Y0008942D01*
X0007494Y0010256D02*
X0006998D01*
X0003592Y0010454D02*
X0003163D01*
X0003424Y0010888D02*
Y0010407D01*
X0003415Y0010888D02*
Y0010407D01*
X0003406Y0010888D02*
Y0010407D01*
X0003397Y0010888D02*
Y0010407D01*
X0003388Y0010888D02*
Y0010407D01*
X0003379Y0010888D02*
Y0010407D01*
X0003370Y0010888D02*
Y0010407D01*
X0003664Y0010526D02*
X0003163D01*
X0005038Y0010256D02*
X0003748D01*
X0005038Y0010247D02*
X0003739D01*
X0005038Y0010229D02*
X0003723D01*
X0005038Y0010220D02*
X0003723D01*
X0007321Y0009995D02*
X0006625D01*
X0007406Y0009716D02*
X0003163D01*
X0005038Y0010202D02*
X0003723D01*
X0005038Y0010193D02*
X0003723D01*
X0005038Y0010184D02*
X0003723D01*
X0005038Y0010175D02*
X0003723D01*
X0005038Y0010166D02*
X0003723D01*
X0005038Y0010157D02*
X0003723D01*
X0005038Y0010148D02*
X0003723D01*
X0005038Y0010139D02*
X0003723D01*
X0005038Y0010130D02*
X0003723D01*
X0005038Y0010121D02*
X0003723D01*
X0005038Y0010112D02*
X0003723D01*
X0005038Y0010103D02*
X0003723D01*
X0005038Y0010094D02*
X0003723D01*
X0005038Y0010085D02*
X0003723D01*
X0005038Y0010076D02*
X0003723D01*
X0006942Y0010562D02*
X0006918D01*
X0006988Y0010888D02*
Y0010620D01*
X0006979Y0010888D02*
Y0010611D01*
X0006970Y0010888D02*
Y0010602D01*
X0006961Y0010888D02*
Y0010591D01*
X0006952Y0010888D02*
Y0010578D01*
X0007494Y0010751D02*
X0006559D01*
X0006938Y0010553D02*
X0006921D01*
X0006925Y0010888D02*
Y0010542D01*
X0006916Y0010888D02*
Y0010566D01*
X0007494Y0010769D02*
X0003163D01*
X0004232Y0010670D02*
X0003163D01*
X0007494Y0009689D02*
X0006321D01*
X0006880Y0010888D02*
Y0010610D01*
X0006871Y0010888D02*
Y0010619D01*
X0006889Y0010888D02*
Y0010601D01*
X0006853Y0010888D02*
Y0010637D01*
X0006844Y0010888D02*
Y0010645D01*
X0006826Y0010888D02*
Y0010657D01*
X0006808Y0010888D02*
Y0010665D01*
X0006340Y0010888D02*
Y0010661D01*
X0006790Y0010888D02*
Y0010670D01*
X0006763Y0010888D02*
Y0010672D01*
X0006745Y0010888D02*
Y0010672D01*
X0006736Y0010888D02*
Y0010672D01*
X0006727Y0010888D02*
Y0010672D01*
X0004270Y0010888D02*
Y0010702D01*
X0006709Y0010888D02*
Y0010672D01*
X0005026Y0010888D02*
Y0010652D01*
X0006312Y0010526D02*
X0005479D01*
X0006625Y0010393D02*
Y0009977D01*
X0006331Y0010888D02*
Y0010645D01*
X0007357Y0010888D02*
Y0010595D01*
X0007494Y0010706D02*
X0006643D01*
X0007087Y0010273D02*
Y0008750D01*
X0007321Y0010345D02*
Y0009994D01*
X0003235Y0010888D02*
Y0008933D01*
X0003478Y0010888D02*
Y0010407D01*
X0007348Y0010888D02*
Y0010595D01*
X0007285Y0010888D02*
Y0010595D01*
X0006682Y0010888D02*
Y0010672D01*
X0007006Y0010888D02*
Y0010634D01*
X0007494Y0010346D02*
X0007277D01*
X0007494Y0010337D02*
X0007269D01*
X0007494Y0010328D02*
X0007260D01*
X0007014Y0010301D02*
X0006998D01*
X0007029Y0010292D02*
X0006998D01*
X0007050Y0010283D02*
X0006998D01*
X0003487Y0010888D02*
Y0010407D01*
X0003442Y0010888D02*
Y0010407D01*
X0007494Y0010688D02*
X0006661D01*
X0005072Y0009851D02*
X0003163D01*
X0003353Y0010148D02*
X0003163D01*
X0007494Y0010238D02*
X0006998D01*
X0003353Y0010139D02*
X0003163D01*
X0007494Y0010220D02*
X0006998D01*
X0003353Y0010130D02*
X0003163D01*
X0007494Y0010202D02*
X0006998D01*
X0003353Y0010121D02*
X0003163D01*
X0005078Y0009842D02*
X0003163D01*
X0003353Y0010112D02*
X0003163D01*
X0007494Y0010166D02*
X0006998D01*
X0003353Y0010103D02*
X0003163D01*
X0007494Y0010148D02*
X0006998D01*
X0003353Y0010094D02*
X0003163D01*
X0007494Y0010130D02*
X0006998D01*
X0003353Y0010085D02*
X0003163D01*
X0007302Y0009950D02*
X0006622D01*
X0007300Y0009941D02*
X0006619D01*
X0007431Y0010085D02*
X0006998D01*
X0006311Y0010580D02*
X0005452D01*
X0004208Y0009266D02*
X0003163D01*
X0007114Y0010888D02*
Y0010670D01*
X0006754Y0010888D02*
Y0010672D01*
X0005038Y0010265D02*
X0003757D01*
X0006395Y0010274D02*
X0005490D01*
X0006395Y0010283D02*
X0005490D01*
X0006395Y0010292D02*
X0005490D01*
X0006395Y0010301D02*
X0005490D01*
X0006395Y0010310D02*
X0005490D01*
X0005035Y0010306D02*
Y0008350D01*
X0004117Y0010888D02*
Y0010660D01*
X0004126Y0010888D02*
Y0010660D01*
X0006439Y0009862D02*
Y0009587D01*
X0005154Y0010652D02*
X0005027D01*
X0006395Y0010319D02*
X0005490D01*
X0006394Y0010888D02*
Y0010719D01*
X0006376Y0010888D02*
Y0010705D01*
X0003727Y0010589D02*
X0003163D01*
X0004099Y0010888D02*
Y0010660D01*
X0004090Y0010888D02*
Y0010660D01*
X0004931Y0010410D02*
X0005038Y0010302D01*
X0005031Y0010310D02*
X0003802D01*
X0003718Y0010580D02*
X0003163D01*
X0004801Y0010888D02*
Y0010660D01*
X0004810Y0010888D02*
Y0010660D01*
X0005118Y0009158D02*
X0003163D01*
X0005084Y0009122D02*
X0003163D01*
X0004828Y0010888D02*
Y0010660D01*
X0006574Y0009882D02*
Y0008750D01*
X0006934Y0010544D02*
X0006924D01*
X0003353Y0010058D02*
X0003163D01*
X0006966Y0010598D02*
X0006892D01*
X0007285Y0010345D02*
Y0009520D01*
X0006781Y0010888D02*
Y0010671D01*
X0005593Y0008821D02*
Y0008735D01*
X0005602Y0008812D02*
Y0008739D01*
X0005040Y0009014D02*
X0003163D01*
X0005731Y0008753D02*
X0005490D01*
X0007494Y0008771D02*
X0006333D01*
X0005098Y0010888D02*
Y0010607D01*
X0006673Y0010067D02*
Y0008750D01*
X0006583Y0009888D02*
Y0008750D01*
X0005569Y0008716D02*
X0005490Y0008638D01*
X0005584Y0008831D02*
Y0008729D01*
X0005629Y0008791D02*
Y0008748D01*
X0007494Y0008780D02*
X0006351D01*
X0004306Y0009251D02*
Y0008350D01*
X0004315Y0009251D02*
Y0008350D01*
X0005566Y0008855D02*
Y0008713D01*
X0007060Y0010279D02*
Y0008750D01*
X0005062Y0009086D02*
X0003163D01*
X0005611Y0008804D02*
Y0008743D01*
X0005038Y0008978D02*
X0003190D01*
X0003541Y0010037D02*
Y0008627D01*
X0007494Y0008789D02*
X0006366D01*
X0006682Y0010067D02*
Y0008750D01*
X0003280Y0010888D02*
Y0008888D01*
X0004324Y0009251D02*
Y0008350D01*
X0004333Y0009251D02*
Y0008350D01*
X0003902Y0010410D02*
X0003723Y0010231D01*
X0005038Y0008852D02*
X0003316D01*
X0003762Y0010623D02*
X0003546Y0010407D01*
X0007213Y0010293D02*
Y0009364D01*
X0007222Y0010298D02*
Y0009395D01*
X0007231Y0010303D02*
Y0009421D01*
X0004251Y0010688D02*
X0003163D01*
X0003559Y0010888D02*
Y0010420D01*
X0004982Y0010660D02*
X0004536D01*
X0004072Y0010888D02*
Y0010660D01*
X0004612Y0010888D02*
Y0010660D01*
X0003730Y0010888D02*
Y0010591D01*
X0003583Y0010445D02*
X0003163D01*
X0005038Y0010238D02*
X0003730D01*
X0004216Y0010888D02*
Y0010660D01*
X0004666Y0010888D02*
Y0010660D01*
X0006601Y0010888D02*
Y0010735D01*
X0006316Y0010508D02*
X0005484D01*
X0005539Y0009915D02*
Y0009539D01*
X0006448Y0009862D02*
Y0009570D01*
X0005548Y0010888D02*
Y0010065D01*
X0005557Y0010888D02*
Y0010084D01*
X0006310Y0010544D02*
X0005472D01*
X0007333Y0010013D02*
X0006625D01*
X0007096Y0010271D02*
Y0008750D01*
X0004252Y0010888D02*
Y0010688D01*
X0006983Y0010616D02*
X0006874D01*
X0006947Y0010571D02*
X0006913D01*
X0007276Y0010888D02*
Y0010596D01*
X0005539Y0010888D02*
Y0010039D01*
X0007494Y0010265D02*
X0006998D01*
X0006953Y0010580D02*
X0006907D01*
X0007438Y0010345D02*
Y0010087D01*
X0005038Y0010067D02*
X0003723D01*
X0004936Y0010888D02*
Y0010660D01*
X0004000Y0010888D02*
Y0010660D01*
X0006310Y0010571D02*
X0005458D01*
X0004954Y0010888D02*
Y0010660D01*
X0007082Y0010274D02*
X0006998D01*
X0006493Y0010888D02*
Y0010756D01*
X0003547Y0010409D02*
X0003163D01*
X0007141Y0010271D02*
Y0008750D01*
X0006313Y0010524D02*
Y0010192D01*
X0005566Y0010888D02*
Y0010099D01*
X0005575Y0010888D02*
Y0010112D01*
X0003353Y0010283D02*
X0003163D01*
X0007312Y0009977D02*
X0006625D01*
X0006852Y0010637D02*
X0006895Y0010595D01*
X0007051Y0010282D02*
Y0008750D01*
X0007231Y0010888D02*
Y0010637D01*
X0006511Y0010888D02*
Y0010757D01*
X0006817Y0010888D02*
Y0010662D01*
X0004999Y0010342D02*
Y0008350D01*
X0005490Y0010454D02*
Y0009969D01*
X0006349Y0010888D02*
Y0010675D01*
X0006241Y0010203D02*
X0005756D01*
X0006241Y0009751D02*
X0005756D01*
X0006241Y0009703D02*
X0005756D01*
X0006241Y0009251D02*
X0005756D01*
X0006241Y0009203D02*
X0005756D01*
X0006241Y0008751D02*
X0005756D01*
X0005038Y0008986D02*
Y0008500D01*
X0004773Y0009703D02*
X0004287D01*
X0004773Y0009251D02*
X0004287D01*
X0007222Y0010888D02*
Y0010642D01*
X0004225Y0010409D02*
X0003901D01*
X0003353Y0010407D02*
Y0010037D01*
X0003723D02*
X0003353D01*
X0003546Y0010407D02*
X0003353D01*
X0006358Y0010888D02*
Y0010686D01*
X0006520Y0010888D02*
Y0010756D01*
X0006998Y0010067D02*
X0006628D01*
X0007357Y0010345D02*
Y0010040D01*
X0007494Y0010888D02*
X0003163D01*
X0006898D02*
Y0010591D01*
X0006799Y0010888D02*
Y0010668D01*
X0006628Y0010888D02*
Y0010718D01*
X0007339Y0010888D02*
Y0010595D01*
X0006313Y0010589D02*
X0005446D01*
X0006592Y0010888D02*
Y0010739D01*
X0006700Y0010888D02*
Y0010672D01*
X0006691Y0010888D02*
Y0010672D01*
X0006547Y0010888D02*
Y0010753D01*
X0004243Y0010888D02*
Y0010680D01*
X0004234Y0010888D02*
Y0010671D01*
X0004216Y0010410D02*
Y0009692D01*
X0004207Y0010410D02*
Y0009688D01*
X0004198Y0010410D02*
Y0009685D01*
X0003163Y0009005D02*
X0003818Y0008350D01*
X0004684Y0010888D02*
Y0010660D01*
X0004693Y0010888D02*
Y0010660D01*
X0006400Y0010724D02*
X0004446D01*
X0004702Y0010888D02*
Y0010660D01*
X0006387Y0010715D02*
X0004468D01*
X0006377Y0010706D02*
X0004484D01*
X0006367Y0010697D02*
X0004498D01*
X0006359Y0010688D02*
X0004509D01*
X0004711Y0010888D02*
Y0010660D01*
X0004720Y0010888D02*
Y0010660D01*
X0004729Y0010888D02*
Y0010660D01*
X0006345Y0010670D02*
X0005333D01*
X0006339Y0010661D02*
X0005357D01*
X0006334Y0010652D02*
X0005374D01*
X0006329Y0010643D02*
X0005389D01*
X0006325Y0010634D02*
X0005402D01*
X0006351Y0010679D02*
X0005292D01*
X0006314Y0010598D02*
X0005439D01*
X0005035Y0010888D02*
Y0010648D01*
X0004774Y0010888D02*
Y0010660D01*
X0004783Y0010888D02*
Y0010660D01*
X0006907Y0010888D02*
Y0010580D01*
X0005701Y0008758D02*
Y0008750D01*
X0006319Y0010616D02*
X0005423D01*
X0006510Y0009862D02*
X0006436D01*
X0006395Y0010211D02*
X0005490D01*
X0007494Y0010345D02*
Y0010095D01*
X0005077Y0009113D02*
X0003163D01*
X0007483Y0010345D02*
Y0010095D01*
X0007474Y0010345D02*
Y0010094D01*
X0007465Y0010345D02*
Y0010093D01*
X0007456Y0010345D02*
Y0010091D01*
X0007447Y0010345D02*
Y0010089D01*
X0007429Y0010345D02*
Y0010084D01*
X0007177Y0010888D02*
Y0010662D01*
X0007411Y0010345D02*
Y0010077D01*
X0007402Y0010345D02*
Y0010072D01*
X0007393Y0010345D02*
Y0010067D01*
X0007384Y0010345D02*
Y0010062D01*
X0007375Y0010345D02*
Y0010055D01*
X0007366Y0010345D02*
Y0010048D01*
X0007348Y0010345D02*
Y0010031D01*
X0007339Y0010345D02*
Y0010021D01*
X0007330Y0010345D02*
Y0010008D01*
X0007123Y0010270D02*
Y0008750D01*
X0007006Y0010306D02*
Y0008750D01*
X0005729Y0010202D02*
X0005490D01*
X0005687Y0010193D02*
X0005490D01*
X0005664Y0010184D02*
X0005490D01*
X0005646Y0010175D02*
X0005490D01*
X0005631Y0010166D02*
X0005490D01*
X0005618Y0010157D02*
X0005490D01*
X0005607Y0010148D02*
X0005490D01*
X0005598Y0010139D02*
X0005490D01*
X0005589Y0010130D02*
X0005490D01*
X0005581Y0010121D02*
X0005490D01*
X0005574Y0010112D02*
X0005490D01*
X0005568Y0010103D02*
X0005490D01*
X0005562Y0010094D02*
X0005490D01*
X0005557Y0010085D02*
X0005490D01*
X0005552Y0010076D02*
X0005490D01*
X0005548Y0010067D02*
X0005490D01*
X0005545Y0010058D02*
X0005490D01*
X0005542Y0010049D02*
X0005490D01*
X0005539Y0010040D02*
X0005490D01*
X0005038D02*
X0003163D01*
X0005485Y0010888D02*
Y0010505D01*
X0005476Y0010888D02*
Y0010534D01*
X0005467Y0010888D02*
Y0010555D01*
X0005458Y0010888D02*
Y0010571D01*
X0005449Y0010888D02*
Y0010585D01*
X0005440Y0010888D02*
Y0010597D01*
X0005431Y0010888D02*
Y0010607D01*
X0005422Y0010888D02*
Y0010617D01*
X0005413Y0010888D02*
Y0010625D01*
X0005404Y0010888D02*
Y0010632D01*
X0005395Y0010888D02*
Y0010639D01*
X0005386Y0010888D02*
Y0010645D01*
X0005377Y0010888D02*
Y0010650D01*
X0005368Y0010888D02*
Y0010655D01*
X0005359Y0010888D02*
Y0010660D01*
X0005350Y0010888D02*
Y0010664D01*
X0005341Y0010888D02*
Y0010667D01*
X0005332Y0010888D02*
Y0010670D01*
X0005323Y0010888D02*
Y0010673D01*
X0005314Y0010888D02*
Y0010675D01*
X0005305Y0010888D02*
Y0010677D01*
X0005296Y0010888D02*
Y0010678D01*
X0005287Y0010888D02*
Y0010679D01*
X0005278Y0010888D02*
Y0010680D01*
X0005269Y0010888D02*
Y0010680D01*
X0005260Y0010888D02*
Y0010680D01*
X0005251Y0010888D02*
Y0010680D01*
X0005242Y0010888D02*
Y0010679D01*
X0005233Y0010888D02*
Y0010678D01*
X0005224Y0010888D02*
Y0010677D01*
X0005215Y0010888D02*
Y0010675D01*
X0005206Y0010888D02*
Y0010673D01*
X0005197Y0010888D02*
Y0010670D01*
X0005188Y0010888D02*
Y0010667D01*
X0005179Y0010888D02*
Y0010663D01*
X0005170Y0010888D02*
Y0010660D01*
X0005161Y0010888D02*
Y0010655D01*
X0005152Y0010888D02*
Y0010650D01*
X0005143Y0010888D02*
Y0010645D01*
X0005134Y0010888D02*
Y0010639D01*
X0005125Y0010888D02*
Y0010632D01*
X0005116Y0010888D02*
Y0010625D01*
X0005107Y0010888D02*
Y0010616D01*
X0004540Y0010410D02*
Y0009703D01*
Y0010888D02*
Y0010660D01*
X0005089Y0010888D02*
Y0010605D01*
X0005080Y0010888D02*
Y0010614D01*
X0005071Y0010888D02*
Y0010623D01*
X0007295Y0009878D02*
X0006567D01*
X0006439Y0010888D02*
Y0010743D01*
X0007347Y0010031D02*
X0006625D01*
X0006395Y0010391D02*
X0005490D01*
X0006395Y0010202D02*
X0006269D01*
X0006395Y0010184D02*
X0006334D01*
X0006395Y0010166D02*
X0006366D01*
X0005536Y0010031D02*
X0005490D01*
X0005534Y0010022D02*
X0005490D01*
X0005533Y0010013D02*
X0005490D01*
X0005531Y0010004D02*
X0005490D01*
X0005531Y0009995D02*
X0005490D01*
X0005530Y0009986D02*
X0005490D01*
X0006395Y0010265D02*
X0005490D01*
X0006395Y0010393D02*
Y0010143D01*
X0006358Y0010427D02*
X0005490D01*
X0006366Y0010418D02*
X0005490D01*
X0006395Y0010393D02*
Y0010143D01*
Y0010247D02*
X0005490D01*
X0006395Y0010238D02*
X0005490D01*
X0006395Y0010229D02*
X0005490D01*
X0005530Y0009977D02*
X0005490D01*
X0005530Y0009968D02*
X0005490D01*
X0005531Y0009959D02*
X0005490D01*
X0005532Y0009950D02*
X0005489D01*
X0006322Y0010625D02*
X0005413D01*
X0006344Y0010445D02*
X0005490D01*
X0007186Y0010281D02*
Y0008750D01*
X0007108Y0010670D02*
X0006791D01*
X0007060Y0010661D02*
X0006819D01*
X0007036Y0010652D02*
X0006835D01*
X0007019Y0010643D02*
X0006846D01*
X0007005Y0010634D02*
X0006856D01*
X0006993Y0010625D02*
X0006865D01*
X0006316Y0010607D02*
X0005431D01*
X0006974D02*
X0006883D01*
X0006351Y0010436D02*
X0005490D01*
X0007096Y0010888D02*
Y0010668D01*
X0006959Y0010589D02*
X0006900D01*
X0007494Y0010697D02*
X0006653D01*
X0007375Y0010888D02*
Y0010595D01*
X0006310Y0010562D02*
X0005463D01*
X0006314Y0010517D02*
X0005482D01*
X0006673Y0010888D02*
Y0010673D01*
X0007267Y0010888D02*
Y0010606D01*
X0006502Y0010888D02*
Y0010756D01*
X0003991Y0010888D02*
Y0010660D01*
X0006322Y0010490D02*
X0005488D01*
X0006333Y0010463D02*
X0005490D01*
X0003353Y0010175D02*
X0003163D01*
X0005533Y0009941D02*
X0005489D01*
X0005535Y0009932D02*
X0005487D01*
X0005537Y0009923D02*
X0005485D01*
X0005539Y0009914D02*
X0005483D01*
X0005542Y0009905D02*
X0005481D01*
X0005545Y0009896D02*
X0005478D01*
X0005549Y0009887D02*
X0005475D01*
X0005553Y0009878D02*
X0005471D01*
X0005558Y0009869D02*
X0005467D01*
X0005563Y0009860D02*
X0005462D01*
X0005569Y0009851D02*
X0005457D01*
X0005575Y0009842D02*
X0005451D01*
X0005582Y0009833D02*
X0005445D01*
X0005590Y0009824D02*
X0005437D01*
X0005599Y0009815D02*
X0005429D01*
X0005609Y0009806D02*
X0005420D01*
X0005620Y0009797D02*
X0005411D01*
X0005633Y0009788D02*
X0005399D01*
X0005648Y0009779D02*
X0005386D01*
X0005667Y0009770D02*
X0005371D01*
X0005692Y0009761D02*
X0005352D01*
X0005744Y0009752D02*
X0005326D01*
X0007366Y0010049D02*
X0006625D01*
X0006466Y0009862D02*
Y0009505D01*
X0006457Y0009862D02*
Y0009546D01*
X0006395Y0010373D02*
X0005490D01*
X0006457Y0010888D02*
Y0010749D01*
X0006448Y0010888D02*
Y0010747D01*
X0006386Y0010400D02*
X0005490D01*
X0006610Y0010888D02*
Y0010730D01*
X0006394Y0010394D02*
Y0010144D01*
X0006385Y0010401D02*
Y0010152D01*
X0006376Y0010408D02*
Y0010159D01*
X0006367Y0010417D02*
Y0010165D01*
X0006358Y0010427D02*
Y0010171D01*
X0006349Y0010438D02*
Y0010176D01*
X0006340Y0010452D02*
Y0010181D01*
X0006331Y0010468D02*
Y0010185D01*
X0006322Y0010489D02*
Y0010189D01*
Y0010888D02*
Y0010624D01*
X0006304Y0010888D02*
Y0010195D01*
X0006295Y0010888D02*
Y0010197D01*
X0006286Y0010888D02*
Y0010199D01*
X0006277Y0010888D02*
Y0010201D01*
X0006268Y0010888D02*
Y0010202D01*
X0006259Y0010888D02*
Y0010203D01*
X0006250Y0010888D02*
Y0010203D01*
X0006241Y0010888D02*
Y0010203D01*
X0006232Y0010888D02*
Y0010203D01*
X0006223Y0010888D02*
Y0010203D01*
X0006214Y0010888D02*
Y0010203D01*
X0006205Y0010888D02*
Y0010203D01*
X0006196Y0010888D02*
Y0010203D01*
X0006187Y0010888D02*
Y0010203D01*
X0006178Y0010888D02*
Y0010203D01*
X0006169Y0010888D02*
Y0010203D01*
X0006160Y0010888D02*
Y0010203D01*
X0006151Y0010888D02*
Y0010203D01*
X0006142Y0010888D02*
Y0010203D01*
X0006133Y0010888D02*
Y0010203D01*
X0006124Y0010888D02*
Y0010203D01*
X0006115Y0010888D02*
Y0010203D01*
X0006106Y0010888D02*
Y0010203D01*
X0006097Y0010888D02*
Y0010203D01*
X0006088Y0010888D02*
Y0010203D01*
X0006079Y0010888D02*
Y0010203D01*
X0006070Y0010888D02*
Y0010203D01*
X0006061Y0010888D02*
Y0010203D01*
X0006052Y0010888D02*
Y0010203D01*
X0006043Y0010888D02*
Y0010203D01*
X0006034Y0010888D02*
Y0010203D01*
X0006025Y0010888D02*
Y0010203D01*
X0006016Y0010888D02*
Y0010203D01*
X0006007Y0010888D02*
Y0010203D01*
X0005998Y0010888D02*
Y0010203D01*
X0005989Y0010888D02*
Y0010203D01*
X0005980Y0010888D02*
Y0010203D01*
X0005971Y0010888D02*
Y0010203D01*
X0005962Y0010888D02*
Y0010203D01*
X0005953Y0010888D02*
Y0010203D01*
X0005944Y0010888D02*
Y0010203D01*
X0005935Y0010888D02*
Y0010203D01*
X0005926Y0010888D02*
Y0010203D01*
X0005917Y0010888D02*
Y0010203D01*
X0005908Y0010888D02*
Y0010203D01*
X0005899Y0010888D02*
Y0010203D01*
X0005890Y0010888D02*
Y0010203D01*
X0005881Y0010888D02*
Y0010203D01*
X0005872Y0010888D02*
Y0010203D01*
X0005863Y0010888D02*
Y0010203D01*
X0005854Y0010888D02*
Y0010203D01*
X0005845Y0010888D02*
Y0010203D01*
X0005836Y0010888D02*
Y0010203D01*
X0005827Y0010888D02*
Y0010203D01*
X0005818Y0010888D02*
Y0010203D01*
X0005809Y0010888D02*
Y0010203D01*
X0005800Y0010888D02*
Y0010203D01*
X0005791Y0010888D02*
Y0010203D01*
X0005782Y0010888D02*
Y0010203D01*
X0005773Y0010888D02*
Y0010203D01*
X0005764Y0010888D02*
Y0010203D01*
X0005755Y0010888D02*
Y0010203D01*
X0005746Y0010888D02*
Y0010203D01*
X0005737Y0010888D02*
Y0010202D01*
X0005728Y0010888D02*
Y0010202D01*
X0005719Y0010888D02*
Y0010200D01*
X0005710Y0010888D02*
Y0010198D01*
X0005701Y0010888D02*
Y0010196D01*
X0005692Y0010888D02*
Y0010194D01*
X0005683Y0010888D02*
Y0010191D01*
X0005674Y0010888D02*
Y0010188D01*
X0005665Y0010888D02*
Y0010184D01*
X0005656Y0010888D02*
Y0010180D01*
X0005647Y0010888D02*
Y0010175D01*
X0005638Y0010888D02*
Y0010170D01*
X0005629Y0010888D02*
Y0010164D01*
X0005620Y0010888D02*
Y0010158D01*
X0005611Y0010888D02*
Y0010150D01*
X0005602Y0010888D02*
Y0010142D01*
X0005593Y0010888D02*
Y0010133D01*
X0005584Y0010888D02*
Y0010124D01*
X0007316Y0009986D02*
X0006625D01*
X0006395Y0010193D02*
X0006310D01*
X0006395Y0010364D02*
X0005490D01*
X0006395Y0010175D02*
X0006351D01*
X0006395Y0010355D02*
X0005490D01*
X0006395Y0010157D02*
X0006379D01*
X0007494Y0010742D02*
X0006586D01*
X0006395Y0010346D02*
X0005490D01*
X0006943Y0010888D02*
Y0010562D01*
X0006395Y0010337D02*
X0005490D01*
X0006385Y0010888D02*
Y0010712D01*
X0006395Y0010328D02*
X0005490D01*
X0007494Y0010616D02*
X0007257D01*
X0006466Y0010888D02*
Y0010752D01*
X0007294Y0009887D02*
X0006581D01*
X0007296Y0009869D02*
X0006548D01*
X0007392Y0010067D02*
X0006625D01*
X0007357Y0009750D02*
Y0009599D01*
X0007384Y0010888D02*
Y0010595D01*
X0007249Y0010888D02*
Y0010623D01*
X0006430Y0010888D02*
Y0010740D01*
X0007340Y0010022D02*
X0006625D01*
X0007494Y0010715D02*
X0006633D01*
X0007303Y0009838D02*
Y0009544D01*
X0007308Y0009968D02*
X0006625D01*
X0006325Y0010481D02*
X0005489D01*
X0006329Y0010472D02*
X0005490D01*
X0007305Y0009959D02*
X0006623D01*
X0007471Y0010094D02*
X0006998D01*
X0007409Y0010076D02*
X0006998D01*
X0007298Y0009932D02*
X0006616D01*
X0007296Y0009923D02*
X0006611D01*
X0007295Y0009914D02*
X0006606D01*
X0007295Y0009905D02*
X0006599D01*
X0007297Y0009860D02*
X0006434D01*
X0007299Y0009851D02*
X0006428D01*
X0007302Y0009842D02*
X0006422D01*
X0007304Y0009833D02*
X0006415D01*
X0007307Y0009824D02*
X0006407D01*
X0007311Y0009815D02*
X0006398D01*
X0007315Y0009806D02*
X0006388D01*
X0007320Y0009797D02*
X0006377D01*
X0007326Y0009788D02*
X0006364D01*
X0007332Y0009779D02*
X0006349D01*
X0007338Y0009770D02*
X0006330D01*
X0007346Y0009761D02*
X0006306D01*
X0005177D02*
X0003163D01*
X0007356Y0010040D02*
X0006625D01*
X0005108Y0009149D02*
X0003163D01*
X0006395Y0010382D02*
X0005490D01*
X0004306Y0010888D02*
Y0010721D01*
X0006430Y0009852D02*
Y0009602D01*
X0006421Y0009840D02*
Y0009615D01*
X0006412Y0009829D02*
Y0009626D01*
X0006403Y0009819D02*
Y0009636D01*
X0006394Y0009810D02*
Y0009644D01*
X0006385Y0009803D02*
Y0009652D01*
X0006376Y0009796D02*
Y0009659D01*
X0006367Y0009789D02*
Y0009665D01*
X0006358Y0009784D02*
Y0009671D01*
X0006349Y0009778D02*
Y0009676D01*
X0006340Y0009774D02*
Y0009681D01*
X0006331Y0009770D02*
Y0009685D01*
X0006322Y0009766D02*
Y0009689D01*
X0006313Y0009763D02*
Y0009692D01*
X0006304Y0009760D02*
Y0009695D01*
X0006295Y0009758D02*
Y0009697D01*
X0006286Y0009756D02*
Y0009699D01*
X0006277Y0009754D02*
Y0009701D01*
X0006268Y0009753D02*
Y0009702D01*
X0006259Y0009752D02*
Y0009703D01*
X0006250Y0009751D02*
Y0009703D01*
X0006241Y0009751D02*
Y0009703D01*
X0006232Y0009751D02*
Y0009703D01*
X0006223Y0009751D02*
Y0009703D01*
X0006214Y0009751D02*
Y0009703D01*
X0006205Y0009751D02*
Y0009703D01*
X0006196Y0009751D02*
Y0009703D01*
X0006187Y0009751D02*
Y0009703D01*
X0006178Y0009751D02*
Y0009703D01*
X0006169Y0009751D02*
Y0009703D01*
X0006160Y0009751D02*
Y0009703D01*
X0006151Y0009751D02*
Y0009703D01*
X0006142Y0009751D02*
Y0009703D01*
X0006133Y0009751D02*
Y0009703D01*
X0006124Y0009751D02*
Y0009703D01*
X0006115Y0009751D02*
Y0009703D01*
X0006106Y0009751D02*
Y0009703D01*
X0006097Y0009751D02*
Y0009703D01*
X0006088Y0009751D02*
Y0009703D01*
X0006079Y0009751D02*
Y0009703D01*
X0006070Y0009751D02*
Y0009703D01*
X0006061Y0009751D02*
Y0009703D01*
X0006052Y0009751D02*
Y0009703D01*
X0006043Y0009751D02*
Y0009703D01*
X0006034Y0009751D02*
Y0009703D01*
X0006025Y0009751D02*
Y0009703D01*
X0006016Y0009751D02*
Y0009703D01*
X0006007Y0009751D02*
Y0009703D01*
X0005998Y0009751D02*
Y0009703D01*
X0005989Y0009751D02*
Y0009703D01*
X0005980Y0009751D02*
Y0009703D01*
X0005971Y0009751D02*
Y0009703D01*
X0005962Y0009751D02*
Y0009703D01*
X0005953Y0009751D02*
Y0009703D01*
X0005944Y0009751D02*
Y0009703D01*
X0005935Y0009751D02*
Y0009703D01*
X0005926Y0009751D02*
Y0009703D01*
X0005917Y0009751D02*
Y0009703D01*
X0005908Y0009751D02*
Y0009703D01*
X0005899Y0009751D02*
Y0009703D01*
X0005890Y0009751D02*
Y0009703D01*
X0005881Y0009751D02*
Y0009703D01*
X0005872Y0009751D02*
Y0009703D01*
X0005863Y0009751D02*
Y0009703D01*
X0005854Y0009751D02*
Y0009703D01*
X0005845Y0009751D02*
Y0009703D01*
X0005836Y0009751D02*
Y0009703D01*
X0005827Y0009751D02*
Y0009703D01*
X0005818Y0009751D02*
Y0009703D01*
X0005809Y0009751D02*
Y0009703D01*
X0005800Y0009751D02*
Y0009703D01*
X0005791Y0009751D02*
Y0009703D01*
X0005782Y0009751D02*
Y0009703D01*
X0005773Y0009751D02*
Y0009703D01*
X0005764Y0009751D02*
Y0009703D01*
X0005755Y0009751D02*
Y0009703D01*
X0005746Y0009752D02*
Y0009703D01*
X0005737Y0009752D02*
Y0009702D01*
X0005728Y0009753D02*
Y0009702D01*
X0005719Y0009754D02*
Y0009700D01*
X0005710Y0009756D02*
Y0009698D01*
X0005701Y0009758D02*
Y0009696D01*
X0005692Y0009761D02*
Y0009694D01*
X0005683Y0009764D02*
Y0009691D01*
X0005674Y0009767D02*
Y0009688D01*
X0005665Y0009771D02*
Y0009684D01*
X0005656Y0009775D02*
Y0009680D01*
X0005647Y0009779D02*
Y0009675D01*
X0005638Y0009785D02*
Y0009670D01*
X0005629Y0009791D02*
Y0009664D01*
X0005620Y0009797D02*
Y0009658D01*
X0005611Y0009804D02*
Y0009650D01*
X0005602Y0009812D02*
Y0009642D01*
X0005593Y0009821D02*
Y0009633D01*
X0005584Y0009831D02*
Y0009624D01*
X0005575Y0009842D02*
Y0009612D01*
X0005566Y0009855D02*
Y0009599D01*
X0005557Y0009871D02*
Y0009584D01*
X0005548Y0009890D02*
Y0009565D01*
X0007378Y0010058D02*
X0006625D01*
X0007494Y0010679D02*
X0006668D01*
X0007490Y0009680D02*
X0006342D01*
X0007468Y0009671D02*
X0006358D01*
X0007449Y0009662D02*
X0006372D01*
X0007432Y0009653D02*
X0006384D01*
X0007417Y0009644D02*
X0006394D01*
X0007403Y0009635D02*
X0006404D01*
X0007390Y0009626D02*
X0006412D01*
X0007378Y0009617D02*
X0006419D01*
X0007366Y0009608D02*
X0006426D01*
X0007356Y0009599D02*
X0006432D01*
X0007346Y0009590D02*
X0006437D01*
X0007336Y0009581D02*
X0006442D01*
X0007327Y0009572D02*
X0006447D01*
X0007319Y0009563D02*
X0006451D01*
X0007311Y0009554D02*
X0006454D01*
X0007303Y0009545D02*
X0006457D01*
X0007296Y0009536D02*
X0006460D01*
X0007289Y0009527D02*
X0006462D01*
X0007283Y0009518D02*
X0006464D01*
X0007276Y0009509D02*
X0006465D01*
X0007271Y0009500D02*
X0006466D01*
X0007265Y0009491D02*
X0006467D01*
X0007260Y0009482D02*
X0006467D01*
X0007255Y0009473D02*
X0006467D01*
X0007250Y0009464D02*
X0006467D01*
X0007245Y0009455D02*
X0006466D01*
X0007241Y0009446D02*
X0006465D01*
X0007237Y0009437D02*
X0006464D01*
X0007233Y0009428D02*
X0006462D01*
X0007230Y0009419D02*
X0006460D01*
X0007226Y0009410D02*
X0006457D01*
X0007223Y0009401D02*
X0006454D01*
X0007220Y0009392D02*
X0006450D01*
X0007218Y0009383D02*
X0006447D01*
X0007215Y0009374D02*
X0006442D01*
X0007213Y0009365D02*
X0006437D01*
X0007211Y0009356D02*
X0006432D01*
X0007209Y0009347D02*
X0006426D01*
X0007207Y0009338D02*
X0006419D01*
X0007206Y0009329D02*
X0006412D01*
X0007204Y0009320D02*
X0006403D01*
X0007203Y0009311D02*
X0006394D01*
X0007202Y0009302D02*
X0006383D01*
X0007201Y0009293D02*
X0006372D01*
X0007200Y0009284D02*
X0006358D01*
X0007200Y0009275D02*
X0006341D01*
X0007200Y0009266D02*
X0006320D01*
X0007200Y0009257D02*
X0006290D01*
X0007203Y0009203D02*
X0006259D01*
X0007204Y0009194D02*
X0006307D01*
X0007205Y0009185D02*
X0006331D01*
X0007207Y0009176D02*
X0006350D01*
X0007208Y0009167D02*
X0006365D01*
X0007210Y0009158D02*
X0006378D01*
X0007212Y0009149D02*
X0006389D01*
X0007215Y0009140D02*
X0006399D01*
X0007217Y0009131D02*
X0006407D01*
X0007220Y0009122D02*
X0006415D01*
X0007223Y0009113D02*
X0006422D01*
X0007226Y0009104D02*
X0006429D01*
X0007229Y0009095D02*
X0006434D01*
X0007233Y0009086D02*
X0006440D01*
X0007236Y0009077D02*
X0006444D01*
X0007240Y0009068D02*
X0006448D01*
X0007244Y0009059D02*
X0006452D01*
X0007249Y0009050D02*
X0006455D01*
X0007254Y0009041D02*
X0006458D01*
X0007259Y0009032D02*
X0006461D01*
X0007264Y0009023D02*
X0006463D01*
X0007269Y0009014D02*
X0006464D01*
X0007275Y0009005D02*
X0006466D01*
X0007281Y0008996D02*
X0006467D01*
X0007288Y0008987D02*
X0006467D01*
X0007294Y0008978D02*
X0006467D01*
X0007302Y0008969D02*
X0006467D01*
X0005158Y0009770D02*
X0003163D01*
X0006466Y0009450D02*
Y0009005D01*
X0006457Y0009409D02*
Y0009046D01*
X0006448Y0009385D02*
Y0009070D01*
X0006439Y0009367D02*
Y0009087D01*
X0006430Y0009352D02*
Y0009102D01*
X0006421Y0009340D02*
Y0009115D01*
X0006412Y0009329D02*
Y0009126D01*
X0006403Y0009319D02*
Y0009136D01*
X0006394Y0009310D02*
Y0009144D01*
X0006385Y0009303D02*
Y0009152D01*
X0006376Y0009296D02*
Y0009159D01*
X0006367Y0009289D02*
Y0009165D01*
X0006358Y0009284D02*
Y0009171D01*
X0006349Y0009278D02*
Y0009176D01*
X0006340Y0009274D02*
Y0009181D01*
X0006331Y0009270D02*
Y0009185D01*
X0006322Y0009266D02*
Y0009189D01*
X0006313Y0009263D02*
Y0009192D01*
X0006304Y0009260D02*
Y0009195D01*
X0006295Y0009258D02*
Y0009197D01*
X0006286Y0009256D02*
Y0009199D01*
X0006277Y0009254D02*
Y0009201D01*
X0006268Y0009253D02*
Y0009202D01*
X0006259Y0009252D02*
Y0009203D01*
X0006250Y0009251D02*
Y0009203D01*
X0006241Y0009251D02*
Y0009203D01*
X0006232Y0009251D02*
Y0009203D01*
X0006223Y0009251D02*
Y0009203D01*
X0006214Y0009251D02*
Y0009203D01*
X0006205Y0009251D02*
Y0009203D01*
X0006196Y0009251D02*
Y0009203D01*
X0006187Y0009251D02*
Y0009203D01*
X0006178Y0009251D02*
Y0009203D01*
X0006169Y0009251D02*
Y0009203D01*
X0006160Y0009251D02*
Y0009203D01*
X0006151Y0009251D02*
Y0009203D01*
X0006142Y0009251D02*
Y0009203D01*
X0006133Y0009251D02*
Y0009203D01*
X0006124Y0009251D02*
Y0009203D01*
X0006115Y0009251D02*
Y0009203D01*
X0006106Y0009251D02*
Y0009203D01*
X0006097Y0009251D02*
Y0009203D01*
X0006088Y0009251D02*
Y0009203D01*
X0006079Y0009251D02*
Y0009203D01*
X0006070Y0009251D02*
Y0009203D01*
X0006061Y0009251D02*
Y0009203D01*
X0006052Y0009251D02*
Y0009203D01*
X0006043Y0009251D02*
Y0009203D01*
X0006034Y0009251D02*
Y0009203D01*
X0006025Y0009251D02*
Y0009203D01*
X0006016Y0009251D02*
Y0009203D01*
X0006007Y0009251D02*
Y0009203D01*
X0005998Y0009251D02*
Y0009203D01*
X0005989Y0009251D02*
Y0009203D01*
X0005980Y0009251D02*
Y0009203D01*
X0005971Y0009251D02*
Y0009203D01*
X0005962Y0009251D02*
Y0009203D01*
X0005953Y0009251D02*
Y0009203D01*
X0005944Y0009251D02*
Y0009203D01*
X0005935Y0009251D02*
Y0009203D01*
X0005926Y0009251D02*
Y0009203D01*
X0005917Y0009251D02*
Y0009203D01*
X0005908Y0009251D02*
Y0009203D01*
X0005899Y0009251D02*
Y0009203D01*
X0005890Y0009251D02*
Y0009203D01*
X0005881Y0009251D02*
Y0009203D01*
X0005872Y0009251D02*
Y0009203D01*
X0005863Y0009251D02*
Y0009203D01*
X0005854Y0009251D02*
Y0009203D01*
X0005845Y0009251D02*
Y0009203D01*
X0005836Y0009251D02*
Y0009203D01*
X0005827Y0009251D02*
Y0009203D01*
X0005818Y0009251D02*
Y0009203D01*
X0005809Y0009251D02*
Y0009203D01*
X0005800Y0009251D02*
Y0009203D01*
X0005791Y0009251D02*
Y0009203D01*
X0005782Y0009251D02*
Y0009203D01*
X0005773Y0009251D02*
Y0009203D01*
X0005764Y0009251D02*
Y0009203D01*
X0005755Y0009251D02*
Y0009203D01*
X0005746Y0009252D02*
Y0009203D01*
X0005737Y0009252D02*
Y0009202D01*
X0005728Y0009253D02*
Y0009202D01*
X0005719Y0009254D02*
Y0009200D01*
X0005710Y0009256D02*
Y0009198D01*
X0005701Y0009258D02*
Y0009196D01*
X0005692Y0009261D02*
Y0009194D01*
X0005683Y0009264D02*
Y0009191D01*
X0005674Y0009267D02*
Y0009188D01*
X0005665Y0009271D02*
Y0009184D01*
X0005656Y0009275D02*
Y0009180D01*
X0005647Y0009279D02*
Y0009175D01*
X0005638Y0009285D02*
Y0009170D01*
X0005629Y0009291D02*
Y0009164D01*
X0005620Y0009297D02*
Y0009158D01*
X0005611Y0009304D02*
Y0009150D01*
X0005602Y0009312D02*
Y0009142D01*
X0005593Y0009321D02*
Y0009133D01*
X0005584Y0009331D02*
Y0009124D01*
X0005575Y0009342D02*
Y0009112D01*
X0005566Y0009355D02*
Y0009099D01*
X0005557Y0009371D02*
Y0009084D01*
X0005548Y0009390D02*
Y0009065D01*
X0007309Y0008960D02*
X0006467D01*
X0007317Y0008951D02*
X0006466D01*
X0007325Y0008942D02*
X0006464D01*
X0007334Y0008933D02*
X0006463D01*
X0007343Y0008924D02*
X0006461D01*
X0007353Y0008915D02*
X0006458D01*
X0007364Y0008906D02*
X0006456D01*
X0007375Y0008897D02*
X0006452D01*
X0007387Y0008888D02*
X0006449D01*
X0007400Y0008879D02*
X0006445D01*
X0007414Y0008870D02*
X0006440D01*
X0007429Y0008861D02*
X0006435D01*
X0007445Y0008852D02*
X0006429D01*
X0007464Y0008843D02*
X0006423D01*
X0007485Y0008834D02*
X0006416D01*
X0005494Y0010888D02*
Y0008641D01*
X0003199Y0010888D02*
Y0008969D01*
X0003190Y0010888D02*
Y0008978D01*
X0003181Y0010888D02*
Y0008987D01*
X0003172Y0010888D02*
Y0008996D01*
X0007494Y0008798D02*
X0006378D01*
X0007456Y0010888D02*
Y0010595D01*
X0005485Y0009919D02*
Y0009036D01*
X0005476Y0009889D02*
Y0009066D01*
X0005467Y0009868D02*
Y0009086D01*
X0005458Y0009852D02*
Y0009103D01*
X0005449Y0009838D02*
Y0009116D01*
X0005440Y0009826D02*
Y0009128D01*
X0005431Y0009816D02*
Y0009139D01*
X0005422Y0009807D02*
Y0009148D01*
X0005413Y0009798D02*
Y0009156D01*
X0005404Y0009791D02*
Y0009164D01*
X0005395Y0009784D02*
Y0009170D01*
X0005386Y0009778D02*
Y0009176D01*
X0005377Y0009773D02*
Y0009182D01*
X0005368Y0009768D02*
Y0009187D01*
X0005359Y0009764D02*
Y0009191D01*
X0005350Y0009760D02*
Y0009195D01*
X0005341Y0009756D02*
Y0009198D01*
X0005332Y0009753D02*
Y0009201D01*
X0005323Y0009751D02*
Y0009204D01*
X0005314Y0009748D02*
Y0009206D01*
X0005305Y0009747D02*
Y0009208D01*
X0005296Y0009745D02*
Y0009209D01*
X0005287Y0009744D02*
Y0009211D01*
X0005278Y0009743D02*
Y0009211D01*
X0005269Y0009743D02*
Y0009212D01*
X0005260Y0009743D02*
Y0009212D01*
X0005251Y0009743D02*
Y0009211D01*
X0005242Y0009744D02*
Y0009210D01*
X0005233Y0009745D02*
Y0009209D01*
X0005224Y0009747D02*
Y0009208D01*
X0005215Y0009748D02*
Y0009206D01*
X0005206Y0009751D02*
Y0009204D01*
X0005197Y0009753D02*
Y0009201D01*
X0005188Y0009756D02*
Y0009198D01*
X0005179Y0009760D02*
Y0009195D01*
X0005170Y0009764D02*
Y0009191D01*
X0005161Y0009768D02*
Y0009186D01*
X0005152Y0009773D02*
Y0009182D01*
X0005143Y0009779D02*
Y0009176D01*
X0005134Y0009785D02*
Y0009170D01*
X0005125Y0009791D02*
Y0009163D01*
X0005116Y0009799D02*
Y0009156D01*
X0005107Y0009807D02*
Y0009148D01*
X0005098Y0009816D02*
Y0009138D01*
X0005089Y0009827D02*
Y0009128D01*
X0005080Y0009839D02*
Y0009116D01*
X0005071Y0009852D02*
Y0009102D01*
X0005062Y0009869D02*
Y0009086D01*
X0005053Y0009890D02*
Y0009065D01*
X0005707Y0009257D02*
X0004821D01*
X0005739Y0009203D02*
X0005327D01*
X0005691Y0009194D02*
X0005353D01*
X0005666Y0009185D02*
X0005371D01*
X0005648Y0009176D02*
X0005387D01*
X0005633Y0009167D02*
X0005400D01*
X0005620Y0009158D02*
X0005411D01*
X0005609Y0009149D02*
X0005421D01*
X0005599Y0009140D02*
X0005430D01*
X0005590Y0009131D02*
X0005438D01*
X0005582Y0009122D02*
X0005445D01*
X0005575Y0009113D02*
X0005451D01*
X0005569Y0009104D02*
X0005457D01*
X0005563Y0009095D02*
X0005462D01*
X0005558Y0009086D02*
X0005467D01*
X0005553Y0009077D02*
X0005471D01*
X0005549Y0009068D02*
X0005475D01*
X0005545Y0009059D02*
X0005478D01*
X0005542Y0009050D02*
X0005481D01*
X0005539Y0009041D02*
X0005483D01*
X0005537Y0009032D02*
X0005486D01*
X0005535Y0009023D02*
X0005487D01*
X0007393Y0010888D02*
Y0010595D01*
X0007015Y0010888D02*
Y0010640D01*
X0004225Y0010888D02*
Y0010661D01*
X0006664Y0010888D02*
Y0010685D01*
X0003298Y0010888D02*
Y0008870D01*
X0007494Y0010733D02*
X0006605D01*
X0007033Y0010888D02*
Y0010650D01*
X0007123Y0010888D02*
Y0010670D01*
X0006835Y0010888D02*
Y0010652D01*
X0006772Y0010888D02*
Y0010672D01*
X0006718Y0010888D02*
Y0010672D01*
X0006934Y0010888D02*
Y0010543D01*
X0004882Y0010888D02*
Y0010660D01*
X0007494Y0010674D02*
Y0010595D01*
X0006367Y0010888D02*
Y0010696D01*
X0007105Y0010888D02*
Y0010669D01*
X0007195Y0010888D02*
Y0010655D01*
X0007494Y0010670D02*
X0007132D01*
X0007494Y0010661D02*
X0007180D01*
X0007494Y0010652D02*
X0007204D01*
X0007494Y0010643D02*
X0007221D01*
X0007494Y0010625D02*
X0007247D01*
X0007494Y0010607D02*
X0007266D01*
X0007186Y0010888D02*
Y0010659D01*
X0006574Y0010888D02*
Y0010746D01*
X0007168Y0010888D02*
Y0010664D01*
X0003353Y0010355D02*
X0003163D01*
X0003532Y0010888D02*
Y0010407D01*
X0006556Y0010888D02*
Y0010751D01*
X0007132Y0010888D02*
Y0010670D01*
X0007366Y0010888D02*
Y0010595D01*
X0007312Y0010345D02*
Y0009976D01*
X0006862Y0010888D02*
Y0010628D01*
X0007303Y0010345D02*
Y0009952D01*
X0007294Y0010345D02*
Y0009533D01*
X0005017Y0010888D02*
Y0010655D01*
X0006646Y0010888D02*
Y0010704D01*
X0006637Y0010888D02*
Y0010711D01*
X0006529Y0010888D02*
Y0010756D01*
X0006475Y0010888D02*
Y0010753D01*
X0007240Y0010888D02*
Y0010630D01*
X0005008Y0010888D02*
Y0010657D01*
X0007213Y0010888D02*
Y0010647D01*
X0007204Y0010888D02*
Y0010652D01*
X0006997Y0010888D02*
Y0010627D01*
X0007494Y0010319D02*
X0007251D01*
X0007494Y0010310D02*
X0007240D01*
X0003505Y0010888D02*
Y0010407D01*
X0003496Y0010888D02*
Y0010407D01*
X0006466Y0008950D02*
Y0008750D01*
X0006457Y0008909D02*
Y0008750D01*
X0006448Y0008885D02*
Y0008750D01*
X0006439Y0008867D02*
Y0008750D01*
X0006430Y0008852D02*
Y0008750D01*
X0006421Y0008840D02*
Y0008750D01*
X0006412Y0008829D02*
Y0008750D01*
X0006403Y0008819D02*
Y0008750D01*
X0006394Y0008810D02*
Y0008750D01*
X0006385Y0008803D02*
Y0008750D01*
X0006376Y0008796D02*
Y0008750D01*
X0006367Y0008789D02*
Y0008750D01*
X0006358Y0008784D02*
Y0008750D01*
X0006349Y0008778D02*
Y0008750D01*
X0006340Y0008774D02*
Y0008750D01*
X0006331Y0008770D02*
Y0008750D01*
X0006322Y0008766D02*
Y0008750D01*
X0006313Y0008763D02*
Y0008750D01*
X0006304Y0008760D02*
Y0008750D01*
X0006295Y0008758D02*
Y0008750D01*
X0006619Y0009940D02*
Y0008750D01*
X0006610Y0009920D02*
Y0008750D01*
X0006601Y0009907D02*
Y0008750D01*
X0006592Y0009896D02*
Y0008750D01*
X0006988Y0010067D02*
Y0008750D01*
X0006979Y0010067D02*
Y0008750D01*
X0006970Y0010067D02*
Y0008750D01*
X0006961Y0010067D02*
Y0008750D01*
X0006952Y0010067D02*
Y0008750D01*
X0006943Y0010067D02*
Y0008750D01*
X0006934Y0010067D02*
Y0008750D01*
X0007474Y0010888D02*
Y0010595D01*
X0007222Y0009116D02*
Y0008750D01*
X0007213Y0009148D02*
Y0008750D01*
X0007204Y0009195D02*
Y0008750D01*
X0007105Y0010271D02*
Y0008750D01*
X0007195Y0010284D02*
Y0008750D01*
X0007447Y0010888D02*
Y0010595D01*
X0007494Y0008830D02*
Y0008750D01*
Y0010345D02*
X0007276D01*
X0007483Y0008834D02*
Y0008750D01*
X0006925Y0010067D02*
Y0008750D01*
X0006916Y0010067D02*
Y0008750D01*
X0006907Y0010067D02*
Y0008750D01*
X0006898Y0010067D02*
Y0008750D01*
X0006889Y0010067D02*
Y0008750D01*
X0006880Y0010067D02*
Y0008750D01*
X0006871Y0010067D02*
Y0008750D01*
X0006862Y0010067D02*
Y0008750D01*
X0006853Y0010067D02*
Y0008750D01*
X0006844Y0010067D02*
Y0008750D01*
X0006835Y0010067D02*
Y0008750D01*
X0006826Y0010067D02*
Y0008750D01*
X0006817Y0010067D02*
Y0008750D01*
X0006808Y0010067D02*
Y0008750D01*
X0006799Y0010067D02*
Y0008750D01*
X0006790Y0010067D02*
Y0008750D01*
X0006781Y0010067D02*
Y0008750D01*
X0006772Y0010067D02*
Y0008750D01*
X0006763Y0010067D02*
Y0008750D01*
X0006754Y0010067D02*
Y0008750D01*
X0006745Y0010067D02*
Y0008750D01*
X0006736Y0010067D02*
Y0008750D01*
X0006727Y0010067D02*
Y0008750D01*
X0006718Y0010067D02*
Y0008750D01*
X0006709Y0010067D02*
Y0008750D01*
X0006700Y0010067D02*
Y0008750D01*
X0006691Y0010067D02*
Y0008750D01*
X0006565Y0009876D02*
Y0008750D01*
X0006556Y0009872D02*
Y0008750D01*
X0006664Y0010067D02*
Y0008750D01*
X0006655Y0010067D02*
Y0008750D01*
X0006646Y0010067D02*
Y0008750D01*
X0006637Y0010067D02*
Y0008750D01*
X0006628Y0010395D02*
Y0008750D01*
X0006547Y0009868D02*
Y0008750D01*
X0006538Y0009866D02*
Y0008750D01*
X0007474Y0008838D02*
Y0008750D01*
X0007465Y0008842D02*
Y0008750D01*
X0007456Y0008846D02*
Y0008750D01*
X0007447Y0008851D02*
Y0008750D01*
X0007438Y0008856D02*
Y0008750D01*
X0007483Y0010888D02*
Y0010595D01*
X0007429Y0008861D02*
Y0008750D01*
X0006529Y0009864D02*
Y0008750D01*
X0007420Y0008866D02*
Y0008750D01*
X0007411Y0008872D02*
Y0008750D01*
X0007402Y0008877D02*
Y0008750D01*
X0007393Y0008884D02*
Y0008750D01*
X0007384Y0008890D02*
Y0008750D01*
X0007375Y0008897D02*
Y0008750D01*
X0007366Y0008904D02*
Y0008750D01*
X0007420Y0010345D02*
Y0010080D01*
X0007177Y0010278D02*
Y0008750D01*
X0007168Y0010276D02*
Y0008750D01*
X0007159Y0010274D02*
Y0008750D01*
X0007150Y0010272D02*
Y0008750D01*
X0006998Y0010311D02*
Y0010067D01*
X0007132Y0010270D02*
Y0008750D01*
X0006655Y0010888D02*
Y0010695D01*
X0006484Y0010888D02*
Y0010755D01*
X0007357Y0008912D02*
Y0008750D01*
X0007348Y0008920D02*
Y0008750D01*
X0007339Y0008928D02*
Y0008750D01*
X0007465Y0010888D02*
Y0010595D01*
X0007042Y0010286D02*
Y0008750D01*
X0005575Y0008842D02*
Y0008722D01*
X0004846Y0010888D02*
Y0010660D01*
X0004855Y0010888D02*
Y0010660D01*
X0007015Y0010300D02*
Y0008750D01*
X0005620Y0008797D02*
Y0008746D01*
X0007078Y0010274D02*
Y0008750D01*
X0007494Y0010634D02*
X0007235D01*
X0007069Y0010277D02*
Y0008750D01*
X0007033Y0010290D02*
Y0008750D01*
X0006520Y0009863D02*
Y0008750D01*
X0005548Y0008890D02*
Y0008695D01*
X0005539Y0008915D02*
Y0008686D01*
X0005530Y0010888D02*
Y0008677D01*
X0005521Y0010888D02*
Y0008668D01*
X0005512Y0010888D02*
Y0008659D01*
X0005569Y0008717D02*
X0005490D01*
X0005089Y0008358D02*
Y0008350D01*
X0005080Y0008370D02*
Y0008350D01*
X0005071Y0008384D02*
Y0008350D01*
X0005062Y0008400D02*
Y0008350D01*
X0005053Y0008421D02*
Y0008350D01*
X0005044Y0008451D02*
Y0008350D01*
X0004990Y0009414D02*
Y0008350D01*
X0004981Y0009389D02*
Y0008350D01*
X0004972Y0009370D02*
Y0008350D01*
X0004963Y0009355D02*
Y0008350D01*
X0004954Y0009342D02*
Y0008350D01*
X0004945Y0009331D02*
Y0008350D01*
X0004936Y0009321D02*
Y0008350D01*
X0004927Y0009312D02*
Y0008350D01*
X0004918Y0009304D02*
Y0008350D01*
X0004909Y0009297D02*
Y0008350D01*
X0004900Y0009290D02*
Y0008350D01*
X0004891Y0009285D02*
Y0008350D01*
X0004882Y0009279D02*
Y0008350D01*
X0004873Y0009275D02*
Y0008350D01*
X0004864Y0009270D02*
Y0008350D01*
X0004855Y0009267D02*
Y0008350D01*
X0004846Y0009263D02*
Y0008350D01*
X0004837Y0009261D02*
Y0008350D01*
X0004828Y0009258D02*
Y0008350D01*
X0004819Y0009256D02*
Y0008350D01*
X0004810Y0009254D02*
Y0008350D01*
X0004801Y0009253D02*
Y0008350D01*
X0004792Y0009252D02*
Y0008350D01*
X0004783Y0009252D02*
Y0008350D01*
X0004774Y0009251D02*
Y0008350D01*
X0004765Y0009251D02*
Y0008350D01*
X0004756Y0009251D02*
Y0008350D01*
X0004747Y0009251D02*
Y0008350D01*
X0004738Y0009251D02*
Y0008350D01*
X0004729Y0009251D02*
Y0008350D01*
X0004720Y0009251D02*
Y0008350D01*
X0004711Y0009251D02*
Y0008350D01*
X0004702Y0009251D02*
Y0008350D01*
X0004693Y0009251D02*
Y0008350D01*
X0004684Y0009251D02*
Y0008350D01*
X0004675Y0009251D02*
Y0008350D01*
X0004666Y0009251D02*
Y0008350D01*
X0004657Y0009251D02*
Y0008350D01*
X0004648Y0009251D02*
Y0008350D01*
X0004639Y0009251D02*
Y0008350D01*
X0004630Y0009251D02*
Y0008350D01*
X0004621Y0009251D02*
Y0008350D01*
X0004612Y0009251D02*
Y0008350D01*
X0004603Y0009251D02*
Y0008350D01*
X0004594Y0009251D02*
Y0008350D01*
X0004585Y0009251D02*
Y0008350D01*
X0004576Y0009251D02*
Y0008350D01*
X0004567Y0009251D02*
Y0008350D01*
X0004558Y0009251D02*
Y0008350D01*
X0004549Y0009251D02*
Y0008350D01*
X0004540Y0009251D02*
Y0008350D01*
X0004531Y0009251D02*
Y0008350D01*
X0004522Y0009251D02*
Y0008350D01*
X0004513Y0009251D02*
Y0008350D01*
X0004504Y0009251D02*
Y0008350D01*
X0004495Y0009251D02*
Y0008350D01*
X0004486Y0009251D02*
Y0008350D01*
X0004477Y0009251D02*
Y0008350D01*
X0004468Y0009251D02*
Y0008350D01*
X0004459Y0009251D02*
Y0008350D01*
X0004450Y0009251D02*
Y0008350D01*
X0004441Y0009251D02*
Y0008350D01*
X0004432Y0009251D02*
Y0008350D01*
X0004423Y0009251D02*
Y0008350D01*
X0004414Y0009251D02*
Y0008350D01*
X0004405Y0009251D02*
Y0008350D01*
X0004396Y0009251D02*
Y0008350D01*
X0004387Y0009251D02*
Y0008350D01*
X0004378Y0009251D02*
Y0008350D01*
X0004369Y0009251D02*
Y0008350D01*
X0004360Y0009251D02*
Y0008350D01*
X0004351Y0009251D02*
Y0008350D01*
X0004342Y0009251D02*
Y0008350D01*
X0004054Y0010410D02*
Y0008350D01*
X0004045Y0010410D02*
Y0008350D01*
X0004036Y0010410D02*
Y0008350D01*
X0004027Y0010410D02*
Y0008350D01*
X0004018Y0010410D02*
Y0008350D01*
X0004009Y0010410D02*
Y0008350D01*
X0004000Y0010410D02*
Y0008350D01*
X0003901Y0010409D02*
Y0008350D01*
X0003892Y0010400D02*
Y0008350D01*
X0003991Y0010410D02*
Y0008350D01*
X0004108Y0010888D02*
Y0010660D01*
X0005097Y0010607D02*
X0005087D01*
X0004261Y0010888D02*
Y0010695D01*
X0005026Y0010315D02*
Y0008350D01*
X0005017Y0010324D02*
Y0008350D01*
X0004297Y0009251D02*
Y0008350D01*
X0003982Y0010410D02*
Y0008350D01*
X0004288Y0009251D02*
Y0008350D01*
X0004279Y0009251D02*
Y0008350D01*
X0004270Y0009252D02*
Y0008350D01*
X0004261Y0009253D02*
Y0008350D01*
X0003973Y0010410D02*
Y0008350D01*
X0004252Y0009254D02*
Y0008350D01*
X0004243Y0009256D02*
Y0008350D01*
X0004234Y0009258D02*
Y0008350D01*
X0004225Y0009260D02*
Y0008350D01*
X0004216Y0009263D02*
Y0008350D01*
X0004207Y0009266D02*
Y0008350D01*
X0003964Y0010410D02*
Y0008350D01*
X0004198Y0009270D02*
Y0008350D01*
X0004189Y0009274D02*
Y0008350D01*
X0004180Y0009279D02*
Y0008350D01*
X0003955Y0010410D02*
Y0008350D01*
X0004171Y0009284D02*
Y0008350D01*
X0004162Y0009289D02*
Y0008350D01*
X0003946Y0010410D02*
Y0008350D01*
X0004153Y0009296D02*
Y0008350D01*
X0004144Y0009303D02*
Y0008350D01*
X0003937Y0010410D02*
Y0008350D01*
X0004135Y0009311D02*
Y0008350D01*
X0004126Y0009319D02*
Y0008350D01*
X0003928Y0010410D02*
Y0008350D01*
X0004117Y0009329D02*
Y0008350D01*
X0003712Y0010037D02*
Y0008456D01*
X0003703Y0010037D02*
Y0008465D01*
X0003694Y0010037D02*
Y0008474D01*
X0003685Y0010037D02*
Y0008483D01*
X0003676Y0010037D02*
Y0008492D01*
X0003667Y0010037D02*
Y0008501D01*
X0003658Y0010037D02*
Y0008510D01*
X0003649Y0010037D02*
Y0008519D01*
X0003640Y0010037D02*
Y0008528D01*
X0003631Y0010037D02*
Y0008537D01*
X0003622Y0010037D02*
Y0008546D01*
X0003613Y0010037D02*
Y0008555D01*
X0003604Y0010037D02*
Y0008564D01*
X0003595Y0010037D02*
Y0008573D01*
X0003586Y0010037D02*
Y0008582D01*
X0003577Y0010037D02*
Y0008591D01*
X0003568Y0010037D02*
Y0008600D01*
X0003559Y0010037D02*
Y0008609D01*
X0003532Y0010037D02*
Y0008636D01*
X0003523Y0010037D02*
Y0008645D01*
X0003514Y0010037D02*
Y0008654D01*
X0003163Y0010888D02*
Y0009005D01*
X0003505Y0010037D02*
Y0008663D01*
X0003496Y0010037D02*
Y0008672D01*
X0003487Y0010037D02*
Y0008681D01*
X0003478Y0010037D02*
Y0008690D01*
X0003469Y0010037D02*
Y0008699D01*
X0003460Y0010037D02*
Y0008708D01*
X0003451Y0010037D02*
Y0008717D01*
X0003442Y0010037D02*
Y0008726D01*
X0003811Y0010319D02*
Y0008357D01*
X0003802Y0010310D02*
Y0008366D01*
X0003793Y0010301D02*
Y0008375D01*
X0003784Y0010292D02*
Y0008384D01*
X0003775Y0010283D02*
Y0008393D01*
X0003766Y0010274D02*
Y0008402D01*
X0003757Y0010265D02*
Y0008411D01*
X0003748Y0010256D02*
Y0008420D01*
X0003739Y0010247D02*
Y0008429D01*
X0003730Y0010238D02*
Y0008438D01*
X0003721Y0010229D02*
Y0008447D01*
X0003433Y0010037D02*
Y0008735D01*
X0003424Y0010037D02*
Y0008744D01*
X0003415Y0010037D02*
Y0008753D01*
X0003406Y0010037D02*
Y0008762D01*
X0003397Y0010037D02*
Y0008771D01*
X0003388Y0010037D02*
Y0008780D01*
X0003379Y0010037D02*
Y0008789D01*
X0003370Y0010037D02*
Y0008798D01*
X0003361Y0010037D02*
Y0008807D01*
X0003622Y0010888D02*
Y0010483D01*
X0003604Y0010888D02*
Y0010465D01*
X0003586Y0010888D02*
Y0010447D01*
X0003568Y0010888D02*
Y0010429D01*
X0003550Y0010888D02*
Y0010411D01*
X0003541Y0010888D02*
Y0010407D01*
X0007494Y0008750D02*
X0005650D01*
X0003289Y0010888D02*
Y0008879D01*
X0004054Y0010888D02*
Y0010660D01*
X0003514Y0010888D02*
Y0010407D01*
X0007494Y0010292D02*
X0007210D01*
X0007494Y0010274D02*
X0007158D01*
X0003469Y0010888D02*
Y0010407D01*
X0007069Y0010888D02*
Y0010663D01*
X0003217Y0010888D02*
Y0008951D01*
X0003208Y0010888D02*
Y0008960D01*
X0007494Y0008825D02*
X0006408D01*
X0007494Y0008816D02*
X0006399D01*
X0007494Y0008807D02*
X0006389D01*
X0005038Y0008672D02*
X0003496D01*
X0005038Y0008663D02*
X0003505D01*
X0005038Y0008654D02*
X0003514D01*
X0005038Y0008645D02*
X0003523D01*
X0005038Y0008636D02*
X0003532D01*
X0005038Y0008627D02*
X0003541D01*
X0005038Y0008618D02*
X0003550D01*
X0005038Y0008609D02*
X0003559D01*
X0005038Y0008600D02*
X0003568D01*
X0005038Y0008591D02*
X0003577D01*
X0005038Y0008582D02*
X0003586D01*
X0005038Y0008573D02*
X0003595D01*
X0005038Y0008564D02*
X0003604D01*
X0005038Y0008555D02*
X0003613D01*
X0005038Y0008546D02*
X0003622D01*
X0005038Y0008537D02*
X0003631D01*
X0005038Y0008528D02*
X0003640D01*
X0005038Y0008519D02*
X0003649D01*
X0005038Y0008510D02*
X0003658D01*
X0005038Y0008501D02*
X0003667D01*
X0005038Y0008492D02*
X0003676D01*
X0005039Y0008483D02*
X0003685D01*
X0005040Y0008474D02*
X0003694D01*
X0005041Y0008465D02*
X0003703D01*
X0005043Y0008456D02*
X0003712D01*
X0005045Y0008447D02*
X0003721D01*
X0005047Y0008438D02*
X0003730D01*
X0005050Y0008429D02*
X0003739D01*
X0005053Y0008420D02*
X0003748D01*
X0005057Y0008411D02*
X0003757D01*
X0005061Y0008402D02*
X0003766D01*
X0005066Y0008393D02*
X0003775D01*
X0005071Y0008384D02*
X0003784D01*
X0005076Y0008375D02*
X0003793D01*
X0005083Y0008366D02*
X0003802D01*
X0005090Y0008357D02*
X0003811D01*
X0005098Y0008348D02*
X0003820D01*
X0004063Y0009453D02*
Y0008350D01*
X0004072Y0009410D02*
Y0008350D01*
X0004081Y0009386D02*
Y0008350D01*
X0003910Y0010410D02*
Y0008350D01*
X0004090Y0009368D02*
Y0008350D01*
X0004099Y0009353D02*
Y0008350D01*
X0003919Y0010410D02*
Y0008350D01*
X0004108Y0009340D02*
Y0008350D01*
X0007402Y0010888D02*
Y0010595D01*
X0003610Y0010472D02*
X0003163D01*
X0004180Y0010888D02*
Y0010660D01*
X0004171Y0010888D02*
Y0010660D01*
X0004162Y0010888D02*
Y0010660D01*
X0004963Y0010888D02*
Y0010660D01*
X0005038Y0009986D02*
X0003163D01*
X0004657Y0010888D02*
Y0010660D01*
X0004648Y0010888D02*
Y0010660D01*
X0004639Y0010888D02*
Y0010660D01*
X0004621Y0010888D02*
Y0010660D01*
X0004594Y0010888D02*
Y0010660D01*
X0004585Y0010888D02*
Y0010660D01*
X0007159Y0010888D02*
Y0010666D01*
X0003262Y0010888D02*
Y0008906D01*
X0004045Y0010888D02*
Y0010660D01*
X0004036Y0010888D02*
Y0010660D01*
X0004027Y0010888D02*
Y0010660D01*
X0003856Y0010888D02*
Y0010660D01*
X0007312Y0010888D02*
Y0010595D01*
X0007303Y0010888D02*
Y0010595D01*
X0007051Y0010888D02*
Y0010658D01*
X0004999Y0010888D02*
Y0010659D01*
X0003973Y0010888D02*
Y0010660D01*
X0004314Y0010724D02*
X0003163D01*
X0003955Y0010888D02*
Y0010660D01*
X0003946Y0010888D02*
Y0010660D01*
X0003937Y0010888D02*
Y0010660D01*
X0003928Y0010888D02*
Y0010660D01*
X0003919Y0010888D02*
Y0010660D01*
X0003910Y0010888D02*
Y0010660D01*
X0004061Y0009482D02*
X0003163D01*
X0003883Y0010888D02*
Y0010660D01*
X0004224D02*
X0003855D01*
X0003874Y0010382D02*
Y0008350D01*
X0003865Y0010888D02*
Y0010660D01*
X0003847Y0010888D02*
Y0010660D01*
X0003829Y0010888D02*
Y0010658D01*
X0003811Y0010888D02*
Y0010653D01*
X0003793Y0010888D02*
Y0010646D01*
X0003775Y0010888D02*
Y0010634D01*
X0003766Y0010888D02*
Y0010627D01*
X0003757Y0010888D02*
Y0010618D01*
X0004981Y0010360D02*
Y0009566D01*
X0004941Y0010400D02*
X0004527D01*
X0004950Y0010391D02*
X0004518D01*
X0004959Y0010382D02*
X0004508D01*
X0004968Y0010373D02*
X0004497D01*
X0004977Y0010364D02*
X0004483D01*
X0004986Y0010355D02*
X0004466D01*
X0004995Y0010346D02*
X0004444D01*
X0005038Y0010302D02*
Y0009969D01*
X0004972Y0010369D02*
Y0009584D01*
X0005237Y0010679D02*
X0004519D01*
X0004576Y0010410D02*
Y0009703D01*
X0004567Y0010410D02*
Y0009703D01*
X0004558Y0010410D02*
Y0009703D01*
X0004549Y0010410D02*
Y0009703D01*
X0004918Y0010888D02*
Y0010660D01*
X0004531Y0010888D02*
Y0010666D01*
X0004522Y0010888D02*
Y0010676D01*
X0004513Y0010888D02*
Y0010685D01*
X0004504Y0010888D02*
Y0010692D01*
X0004495Y0010888D02*
Y0010699D01*
X0004486Y0010888D02*
Y0010705D01*
X0004477Y0010888D02*
Y0010710D01*
X0004468Y0010888D02*
Y0010715D01*
X0004459Y0010888D02*
Y0010719D01*
X0004450Y0010888D02*
Y0010722D01*
X0004441Y0010888D02*
Y0010726D01*
X0004432Y0010888D02*
Y0010728D01*
X0004423Y0010888D02*
Y0010730D01*
X0004414Y0010888D02*
Y0010732D01*
X0004405Y0010888D02*
Y0010733D01*
X0004396Y0010888D02*
Y0010734D01*
X0004387Y0010888D02*
Y0010735D01*
X0004378Y0010888D02*
Y0010735D01*
X0004369Y0010888D02*
Y0010735D01*
X0004360Y0010888D02*
Y0010734D01*
X0004351Y0010888D02*
Y0010733D01*
X0004342Y0010888D02*
Y0010731D01*
X0004333Y0010888D02*
Y0010729D01*
X0004324Y0010888D02*
Y0010727D01*
X0004315Y0010888D02*
Y0010724D01*
X0005196Y0010670D02*
X0004528D01*
X0005172Y0010661D02*
X0004536D01*
X0005062Y0010888D02*
Y0010632D01*
X0005053Y0010888D02*
Y0010638D01*
X0005139Y0010643D02*
X0005046D01*
X0004585Y0010410D02*
Y0009703D01*
X0004931Y0010410D02*
X0004536D01*
X0005106Y0010616D02*
X0005078D01*
X0004081Y0010888D02*
Y0010660D01*
X0003712Y0010888D02*
Y0010573D01*
X0004009Y0010888D02*
Y0010660D01*
X0005008Y0010333D02*
Y0008350D01*
X0006415Y0010733D02*
X0004410D01*
X0003353Y0010364D02*
X0003163D01*
X0003353Y0010328D02*
X0003163D01*
X0003353Y0010292D02*
X0003163D01*
G01X0003850Y0010660D02*
G03X0003762Y0010623I0000000J0000125D01*
G01X0005071D02*
G03X0004982Y0010660I0000089J0000088D01*
G01X0004380Y0010735D02*
G03X0004224Y0010660I0000000J0000200D01*
G01X0007200Y0009256D02*
G03X0007494Y0008830I0000455J0000000D01*
G01X0007120Y0010270D02*
G03X0007276Y0010345I0000000J0000200D01*
G01X0005650Y0008750D02*
G03X0005569Y0008716I0000000J0000115D01*
G01X0003850Y0010660D02*
G03X0003762Y0010623I0000000J0000125D01*
G01X0004380Y0010335D02*
G03X0004536Y0010410I0000000J0000200D01*
G01X0004224D02*
G03X0004380Y0010335I0000156J0000125D01*
G01X0006851Y0010638D02*
G03X0006770Y0010672I0000081J0000081D01*
G01X0006928Y0010525D02*
G03X0006895Y0010595I0000115J0000012D01*
G01X0006998Y0010311D02*
G03X0007120Y0010270I0000122J0000159D01*
G01X0006510Y0010757D02*
G03X0006310Y0010557I0000000J0000200D01*
G01X0006674Y0010672D02*
G03X0006510Y0010757I0000164J0000115D01*
G01X0007120Y0010670D02*
G03X0006928Y0010525I0000000J0000200D01*
G01X0006851Y0010638D02*
G03X0006770Y0010672I0000081J0000081D01*
G01X0006510Y0009862D02*
G03X0006625Y0009977I0000000J0000115D01*
G01X0006310Y0010557D02*
G03X0006395Y0010393I0000200J0000000D01*
G01X0005490Y0010454D02*
G03X0005264Y0010680I0000226J0000000D01*
G01X0004536Y0010660D02*
G03X0004380Y0010735I0000156J0000125D01*
G01X0005038Y0009969D02*
G03X0005264Y0009743I0000226J0000000D01*
G03X0005490Y0009969I0000000J0000226D01*
G01X0005756Y0010203D02*
G03X0005530Y0009977I0000000J0000226D01*
G03X0005756Y0009751I0000226J0000000D01*
G01X0006241Y0009251D02*
G03X0006467Y0009477I0000000J0000226D01*
G03X0006241Y0009703I0000226J0000000D01*
G01X0005756D02*
G03X0005530Y0009477I0000000J0000226D01*
G03X0005756Y0009251I0000226J0000000D01*
G01X0006241Y0008751D02*
G03X0006467Y0008977I0000000J0000226D01*
G03X0006241Y0009203I0000226J0000000D01*
G01X0005756D02*
G03X0005530Y0008977I0000000J0000226D01*
G03X0005756Y0008751I0000226J0000000D01*
G01X0005490Y0008986D02*
G03X0005264Y0009212I0000226J0000000D01*
G03X0005038Y0008986I0000000J0000226D01*
Y0008500D02*
G03X0005096Y0008350I0000226J0000000D01*
G01X0004773Y0009251D02*
G03X0004999Y0009477I0000000J0000226D01*
G03X0004773Y0009703I0000226J0000000D01*
G01X0004287D02*
G03X0004061Y0009477I0000000J0000226D01*
G03X0004287Y0009251I0000226J0000000D01*
G01X0007294Y0009895D02*
G03X0007494Y0009695I0000200J0000000D01*
G01X0005264Y0010680D02*
G03X0005093Y0010601I0000000J0000226D01*
G01X0006241Y0009751D02*
G03X0006436Y0009862I0000000J0000226D01*
G01X0006395Y0010143D02*
G03X0006241Y0010203I0000154J0000166D01*
G01X0007276Y0010595D02*
G03X0007120Y0010670I0000156J0000125D01*
G01X0007494Y0009681D02*
G03X0007201Y0009256I0000161J0000425D01*
G01X0005071Y0010623D02*
G03X0004982Y0010660I0000089J0000088D01*
G01X0007494Y0010095D02*
G03X0007294Y0009895I0000000J0000200D01*
G54D36*
G01X0003662Y0002915D02*
X0004320D01*
X0004340Y0002895D01*
X0004575D01*
X0003662Y0003702D02*
X0003197D01*
X0002975Y0003480D01*
Y0003206D01*
X0003211Y0002970D01*
X0007080Y0003501D02*
X0006356Y0004225D01*
X0004840D01*
X0004120Y0003505D01*
X0003662D01*
X0003210Y0003309D02*
X0003662D01*
Y0003112D02*
X0004317D01*
X0004930Y0003725D01*
X0006575D01*
Y0003506D01*
X0006580Y0003501D01*
X0003662Y0003899D02*
X0003019D01*
X0002805Y0003685D01*
Y0003480D01*
X0002535Y0003210D01*
X0002295D01*
X0002175Y0003330D01*
Y0004645D01*
X0009620Y0009215D02*
Y0008955D01*
X0009300Y0008635D01*
X0005650D01*
X0005530Y0008515D01*
Y0008395D01*
X0005370Y0008235D01*
X0003770D01*
X0002935Y0009070D01*
X0002005D01*
X0001685Y0008750D01*
Y0006975D01*
X0002005Y0006655D01*
X0003662D01*
X0005999Y0009977D02*
X0006510D01*
Y0010557D01*
X0006813Y0010252D02*
Y0010513D01*
X0006770Y0010557D01*
X0006510D01*
Y0009977D01*
X0005999D01*
X0005814Y0005986D02*
X0006766D01*
X0007005Y0006225D01*
X0008195D01*
X0008355Y0006385D01*
Y0006605D01*
X0008235Y0006725D01*
X0007210D01*
X0007040Y0006895D01*
Y0007105D01*
X0007210Y0007275D01*
X0010250D01*
X0010520Y0007545D01*
Y0007820D01*
Y0006540D02*
X0010285D01*
X0010280Y0006535D01*
X0009544D01*
X0010280D01*
X0010285Y0006540D01*
X0010520D01*
X0007774Y0005986D02*
X0007176D01*
X0007105Y0005915D01*
Y0005515D01*
X0005580Y0002750D02*
X0005300D01*
X0004874Y0002324D01*
X0003662D01*
X0003530Y0007700D02*
X0003910D01*
X0004030Y0007580D01*
Y0006261D01*
X0003662D01*
Y0006458D02*
X0001358D01*
X0001035Y0006135D01*
Y0000490D01*
X0001760Y0002715D02*
Y0005150D01*
X0002084Y0005474D01*
X0003662D01*
Y0004293D02*
X0004118D01*
X0004550Y0004725D01*
X0008415D01*
X0008435Y0004745D01*
Y0004991D01*
X0008439Y0004995D01*
X0002805Y0004090D02*
X0003290D01*
X0003296Y0004096D01*
X0003662D01*
X0004113Y0001685D02*
X0004110Y0001688D01*
Y0001734D01*
X0003662D01*
Y0005277D02*
X0004057D01*
X0004330Y0005550D01*
Y0006340D01*
X0005300Y0007310D01*
X0005725D01*
X0002805Y0004410D02*
X0003040D01*
X0003120Y0004490D01*
X0003662D01*
Y0005080D02*
X0002285D01*
X0002175Y0004970D01*
X0003662Y0004686D02*
X0002741D01*
X0002570Y0004515D01*
Y0003765D01*
X0002410Y0003445D02*
X0002335Y0003520D01*
Y0004110D01*
X0002410Y0004185D01*
Y0004610D01*
X0002683Y0004883D01*
X0003662D01*
G54D40*
G01X0007774Y0006986D02*
X0008584D01*
X0008780Y0006790D01*
Y0004636D01*
X0008630Y0004486D01*
X0007774D01*
X0011504Y0007035D02*
X0012070D01*
Y0006860D01*
X0012000Y0006790D01*
X0008780D01*
X0008584Y0006986D01*
X0007774D01*
X0011330Y0002455D02*
X0009145D01*
X0008825Y0002775D01*
Y0003365D01*
X0008630Y0003560D01*
Y0004486D01*
X0007774D01*
X0005814Y0005486D02*
X0006534D01*
X0006045Y0007306D02*
Y0006986D01*
X0005814D01*
Y0004986D02*
Y0005235D01*
X0006259D01*
X0006479Y0005015D01*
X0006534Y0005486D02*
X0005814D01*
X0002870Y0006890D02*
X0002908Y0006852D01*
X0003662D01*
X0009544Y0003535D02*
X0010135D01*
Y0003340D01*
X0010010Y0003215D01*
X0009345D01*
X0007774Y0006486D02*
X0006696D01*
X0006445Y0006235D01*
X0005340D01*
X0005220Y0006115D01*
Y0005855D01*
X0005340Y0005735D01*
X0006635D01*
X0006799Y0005571D01*
Y0005015D01*
X0006479D02*
X0006259Y0005235D01*
X0005814D01*
Y0004986D01*
X0007774Y0003486D02*
X0007429D01*
Y0003112D01*
X0007865Y0002676D01*
X0006550Y0003020D02*
X0006239D01*
X0006159Y0003100D01*
Y0003486D01*
X0005814D01*
X0011320Y0007669D02*
X0011044D01*
X0010410Y0007035D01*
X0009544D01*
X0002870Y0006890D02*
X0002908Y0006852D01*
X0003662D01*
X0006045Y0007306D02*
Y0006986D01*
X0005814D01*
Y0003486D02*
X0006159D01*
Y0003100D01*
X0006239Y0003020D01*
X0006550D01*
X0003211Y0001537D02*
X0003662D01*
X0007774Y0003986D02*
X0008365D01*
Y0003291D01*
X0008240Y0003166D01*
X0008095D01*
X0009345Y0003215D02*
X0010010D01*
X0010135Y0003340D01*
Y0003535D01*
X0009544D01*
X0006872Y0009290D02*
X0006825Y0009337D01*
Y0009820D01*
X0006813Y0009832D01*
X0003538Y0009802D02*
Y0009418D01*
X0003532Y0009412D01*
X0007774Y0003486D02*
X0007429D01*
Y0003112D01*
X0007865Y0002676D01*
X0008095Y0003166D02*
X0008240D01*
X0008365Y0003291D01*
Y0003986D01*
X0007774D01*
X0005814Y0004986D02*
Y0005235D01*
X0006259D01*
X0006479Y0005015D01*
X0006550Y0003020D02*
X0006239D01*
X0006159Y0003100D01*
Y0003486D01*
X0005814D01*
X0004530Y0009977D02*
X0003532D01*
Y0009412D01*
X0011320Y0008420D02*
X0012235D01*
X0012555Y0008100D01*
Y0006605D01*
X0012235Y0006285D01*
X0009070D01*
X0008950Y0006165D01*
Y0005535D01*
X0009544D01*
X0003532Y0009412D02*
X0003968Y0008977D01*
X0004530D01*
X0005264Y0010212D02*
Y0010253D01*
X0004982Y0010535D01*
X0004380D01*
X0008380Y0008175D02*
X0010520D01*
X0003662Y0005671D02*
X0003286D01*
X0003280Y0005665D01*
X0001280D01*
X0003662Y0007246D02*
X0003285D01*
Y0007825D01*
X0003405Y0007945D01*
X0005665D01*
X0006140Y0008420D01*
X0010685D01*
X0011190Y0007915D01*
X0012310D01*
X0003662Y0007049D02*
X0003236D01*
X0003115Y0007170D01*
Y0008400D01*
X0007120Y0010470D02*
X0012580D01*
X0012900Y0010150D01*
Y0009125D01*
X0003538Y0010222D02*
X0003850Y0010535D01*
X0003855D01*
X0004380D01*
X0011320Y0007669D02*
X0011044D01*
X0010410Y0007035D01*
X0009544D01*
X0005814Y0006986D02*
X0006045D01*
Y0007306D01*
X0002870Y0006890D02*
X0002908Y0006852D01*
X0003662D01*
Y0006064D02*
X0003215D01*
Y0006201D01*
X0003211Y0006205D01*
X0005322Y0002127D02*
X0003662D01*
X0010210Y0005035D02*
X0009544D01*
Y0006035D02*
X0010760D01*
X0011005Y0005790D01*
X0012410D01*
X0012730Y0006110D01*
Y0008345D01*
X0012410Y0008665D01*
X0011470D01*
X0011225Y0008910D01*
X0010145D01*
Y0007930D02*
X0007100D01*
X0006405Y0007235D01*
Y0006486D01*
X0005814D01*
X0006080Y0000895D02*
X0002125D01*
X0002005Y0001015D01*
Y0002405D01*
X0002325Y0002725D01*
X0003278D01*
X0003285Y0002718D01*
X0003662D01*
X0002740Y0005910D02*
X0002985D01*
X0003027Y0005868D01*
X0003662D01*
X0010145Y0007930D02*
X0007100D01*
X0006405Y0007235D01*
Y0006486D01*
X0005814D01*
X0008905Y0001306D02*
X0004339D01*
X0002250Y0001143D02*
X0003662D01*
X0009544Y0004035D02*
X0010470D01*
X0010795Y0004360D01*
Y0005065D01*
X0011015Y0005285D01*
X0012980D01*
X0013300Y0005605D01*
Y0006675D01*
X0008905Y0001306D02*
X0004339D01*
X0004305Y0001340D01*
X0003662D01*
X0009544Y0004535D02*
X0010180D01*
X0010455Y0004810D01*
Y0005545D01*
X0005830Y0003015D02*
X0005140D01*
X0004646Y0002521D01*
X0003662D01*
X0005055Y0001882D02*
X0005007Y0001931D01*
X0003662D01*
G54D45*
G01X0015228Y0006835D02*
Y0007023D01*
X0014388Y0006835D02*
Y0007023D01*
G54D56*
G01X0009586Y0000887D02*
X0009905Y0001206D01*
X0010223Y0000887D02*
X0009905Y0001206D01*
X0009586Y0001524D02*
X0009905Y0001206D01*
X0010223Y0001524D02*
X0009905Y0001206D01*
G54D97*
G01X0009445Y0000953D02*
X0009293D01*
X0006916Y0006758D02*
X0006600D01*
X0009855Y0003765D02*
Y0002650D01*
X0013105Y0006218D02*
X0012925D01*
X0012825Y0008866D02*
Y0008557D01*
X0013097Y0005678D02*
X0012573D01*
X0015760Y0003248D02*
X0014135D01*
X0013544Y0002573D02*
X0013330D01*
X0012555Y0004724D02*
Y0003886D01*
X0015760Y0008648D02*
X0015573D01*
X0014747Y0004836D02*
X0013641Y0003729D01*
X0012280Y0002881D02*
Y0001831D01*
X0013330D02*
X0012280D01*
X0014747Y0004836D02*
X0014479D01*
X0012860Y0004193D02*
X0012068D01*
X0015760Y0006218D02*
X0015573D01*
X0014783Y0005626D02*
Y0004872D01*
X0014833Y0005626D02*
Y0004922D01*
X0015623Y0005626D02*
Y0004836D01*
X0015760Y0006758D02*
X0015623D01*
X0014883Y0008918D02*
X0014733D01*
X0014658Y0010570D02*
X0013788D01*
Y0009700D01*
X0015760Y0009323D02*
X0015573D01*
X0014883D02*
X0014733D01*
X0012360Y0007568D02*
X0010705D01*
X0014883Y0008243D02*
X0014733D01*
X0015573Y0009876D02*
Y0007418D01*
X0002835Y0006954D02*
Y0006840D01*
X0014883Y0009593D02*
X0014733D01*
X0001755Y0006643D02*
X0001358D01*
X0001500Y0007973D02*
X0000005D01*
X0009720Y0010820D02*
Y0010665D01*
X0002419Y0007298D02*
X0001870D01*
X0014883Y0005626D02*
X0014833D01*
X0014883Y0009728D02*
X0014733D01*
X0014580Y0010820D02*
Y0010570D01*
X0010992Y0007838D02*
X0010789D01*
X0002565Y0006874D02*
Y0006840D01*
X0001756Y0005408D02*
X0001362D01*
X0002252Y0002376D02*
X0002200Y0002324D01*
X0000850Y0006083D02*
X0000009D01*
X0014883Y0009188D02*
X0014733D01*
X0003261Y0001493D02*
X0002200D01*
X0000850Y0005813D02*
X0000009D01*
X0002366Y0007163D02*
X0001870D01*
X0002920Y0007691D02*
X0001870D01*
X0001874Y0009201D02*
X0001555Y0008882D01*
X0002295Y0001961D02*
Y0001410D01*
X0006075Y0007431D02*
Y0006756D01*
X0004455Y0005413D02*
Y0004884D01*
X0015760Y0000143D02*
X0002960D01*
X0005377Y0007125D02*
X0004515Y0006263D01*
X0000850Y0005408D02*
X0000010D01*
X0011986Y0000413D02*
X0002960D01*
X0011981Y0000548D02*
X0002960D01*
X0001575Y0005003D02*
X0001524D01*
X0008610Y0001898D02*
X0008440D01*
X0009947Y0002708D02*
X0009818D01*
X0001575Y0004868D02*
X0001524D01*
X0013788Y0010403D02*
X0012923D01*
X0006313Y0003540D02*
X0005007D01*
X0010665Y0001998D02*
Y0001773D01*
X0001575Y0004193D02*
X0001524D01*
X0013993Y0005626D02*
Y0005326D01*
X0001575Y0002978D02*
X0001524D01*
X0015760Y0004193D02*
X0015080D01*
X0012472Y0003383D02*
X0012072D01*
X0014715Y0004836D02*
Y0004804D01*
X0000799Y0004058D02*
X0000013D01*
X0010310Y0003248D02*
X0009156D01*
X0008417Y0001501D02*
X0004526D01*
X0002262Y0002033D02*
X0002200D01*
X0015760Y0001763D02*
X0014208D01*
X0003261Y0001727D02*
Y0001544D01*
X0002998Y0009323D02*
X0000003D01*
X0003780Y0000700D02*
Y0000008D01*
X0000799Y0003923D02*
X0000013D01*
X0003105Y0000700D02*
Y0000008D01*
X0002565Y0007691D02*
Y0007396D01*
X0002430Y0007691D02*
Y0007311D01*
X0013993Y0007418D02*
Y0006628D01*
X0014783Y0005626D02*
X0014733D01*
X0014783Y0007418D02*
Y0006628D01*
X0014883Y0007433D02*
X0014733D01*
X0014833Y0007418D02*
Y0006628D01*
X0015623Y0005626D02*
X0015573D01*
X0015623Y0007418D02*
Y0006628D01*
X0014883Y0007838D02*
X0014733D01*
X0000799Y0002765D02*
X0000015D01*
X0000799Y0005069D02*
Y0002765D01*
Y0004328D02*
X0000012D01*
X0001220Y0005402D02*
Y0005069D01*
X0015760Y0010820D02*
Y0000008D01*
X0009180Y0007735D02*
Y0007460D01*
X0002998Y0010820D02*
X0000000D01*
X0000015Y0002765D01*
X0014175Y0001745D02*
Y0000008D01*
X0015760Y0005273D02*
X0015623D01*
X0015760Y0002573D02*
X0014334D01*
X0015623Y0004836D02*
X0015573D01*
X0013788Y0009863D02*
X0013095D01*
X0014445Y0002062D02*
Y0000008D01*
X0014310Y0001841D02*
Y0000008D01*
X0014833Y0005003D02*
X0014783D01*
X0014479Y0004836D02*
X0013162Y0003519D01*
X0014985Y0004098D02*
Y0000008D01*
X0014850Y0003963D02*
Y0000008D01*
X0015525Y0004653D02*
Y0000008D01*
X0014043Y0009700D02*
Y0007418D01*
X0014580Y0003693D02*
Y0000008D01*
X0014040Y0001699D02*
Y0000008D01*
X0013905Y0001690D02*
Y0000008D01*
X0013770Y0001717D02*
Y0000008D01*
X0013365Y0002739D02*
Y0000008D01*
X0013230Y0001831D02*
Y0000008D01*
X0013095Y0001831D02*
Y0000008D01*
X0012960Y0001831D02*
Y0000008D01*
X0012825Y0001831D02*
Y0000008D01*
X0012690Y0001831D02*
Y0000008D01*
X0012150Y0000237D02*
Y0000008D01*
X0012825Y0004880D02*
Y0004158D01*
X0012078Y0000278D02*
X0002960D01*
X0011205Y0000875D02*
Y0000008D01*
X0009990Y0000688D02*
Y0000008D01*
X0015760Y0000953D02*
X0011293D01*
X0009180Y0000859D02*
Y0000008D01*
X0009045Y0000800D02*
Y0000008D01*
X0011475Y0001161D02*
Y0000008D01*
X0010800Y0000791D02*
Y0000008D01*
X0001575Y0005138D02*
X0001220D01*
X0011340Y0001012D02*
Y0000008D01*
X0010395Y0001018D02*
Y0000008D01*
X0011745Y0001081D02*
Y0000008D01*
X0008235Y0001111D02*
Y0000008D01*
X0010530Y0000938D02*
Y0000008D01*
X0009855Y0000683D02*
Y0000008D01*
X0010260Y0000819D02*
Y0000008D01*
X0009315Y0000978D02*
Y0000008D01*
X0010125Y0000729D02*
Y0000008D01*
X0009450Y0000943D02*
Y0000008D01*
X0008910Y0000781D02*
Y0000008D01*
X0008775Y0000797D02*
Y0000008D01*
X0000799Y0003383D02*
X0000014D01*
X0008640Y0000852D02*
Y0000008D01*
X0007930Y0001898D02*
X0005464D01*
X0006345Y0007706D02*
Y0007451D01*
X0004995Y0000700D02*
Y0000008D01*
X0007830Y0004216D02*
Y0001501D01*
X0007695Y0004216D02*
Y0001501D01*
X0007560Y0004216D02*
Y0001501D01*
X0004725Y0001736D02*
Y0001501D01*
X0006615Y0004540D02*
Y0004227D01*
X0004432Y0004868D02*
X0004063D01*
X0007020Y0004540D02*
Y0003822D01*
X0005400Y0001869D02*
Y0001501D01*
X0006075Y0002902D02*
Y0001501D01*
X0005377Y0002565D02*
X0005134Y0002322D01*
X0006210Y0006893D02*
X0005144D01*
X0000799Y0005003D02*
X0000011D01*
X0007020Y0003073D02*
Y0001501D01*
X0007560Y0001111D02*
Y0000008D01*
X0003375Y0000700D02*
Y0000008D01*
X0002960Y0000700D02*
Y0000008D01*
X0003915Y0000700D02*
Y0000008D01*
X0001503Y0008783D02*
X0000004D01*
X0003261Y0001338D02*
X0002437D01*
X0015760Y0005408D02*
X0015623D01*
X0003261Y0001628D02*
X0002200D01*
X0001755Y0005470D02*
Y0005407D01*
X0000675Y0010820D02*
Y0002765D01*
X0000540Y0010820D02*
Y0002765D01*
X0000405Y0010820D02*
Y0002765D01*
X0000270Y0010820D02*
Y0002765D01*
X0000135Y0010820D02*
Y0002765D01*
X0006750Y0005801D02*
Y0004910D01*
X0015255Y0004368D02*
Y0000008D01*
X0005130Y0001623D02*
Y0001501D01*
X0002998Y0010538D02*
X0000000D01*
X0002998Y0009728D02*
X0000002D01*
X0001591Y0008918D02*
X0000004D01*
X0002295Y0010820D02*
Y0009255D01*
X0001500Y0007433D02*
X0000006D01*
X0001350Y0010820D02*
Y0006643D01*
X0015660Y0010820D02*
Y0000008D01*
X0015390Y0004503D02*
Y0000008D01*
X0001500Y0007838D02*
X0000006D01*
X0015255Y0010820D02*
Y0010568D01*
X0001500Y0007703D02*
X0000006D01*
X0014883Y0005813D02*
X0014733D01*
X0001575Y0004463D02*
X0001524D01*
X0011610Y0010820D02*
Y0010665D01*
X0001227Y0006589D02*
X0000905Y0006267D01*
X0015760Y0010133D02*
X0015658D01*
X0015760Y0002843D02*
X0013984D01*
X0008640Y0010820D02*
Y0010665D01*
X0006766Y0005801D02*
X0006356D01*
X0005217Y0006083D02*
X0004515D01*
X0001350Y0005404D02*
Y0005069D01*
X0012056Y0000683D02*
X0009950D01*
X0001575Y0003923D02*
X0001524D01*
X0009393Y0007735D02*
X0007651D01*
X0005643Y0003210D02*
X0005140D01*
X0003261Y0002053D02*
Y0001938D01*
X0001215Y0010820D02*
Y0006577D01*
X0002489Y0001763D02*
X0002200D01*
X0000810Y0010820D02*
Y0005069D01*
X0006855Y0006893D02*
X0006600D01*
X0001575Y0003518D02*
X0001524D01*
X0008417Y0001111D02*
X0006242D01*
X0012015Y0001150D02*
Y0000631D01*
X0008370Y0002751D02*
Y0002007D01*
X0012328Y0005090D02*
X0012113D01*
X0008417Y0001111D02*
X0006242D01*
X0001818Y0005470D02*
X0001467D01*
X0001641Y0006758D02*
X0000008D01*
X0007965Y0001111D02*
Y0000008D01*
X0002337Y0001898D02*
X0002200D01*
X0007425Y0001111D02*
Y0000008D01*
X0014883Y0009458D02*
X0014733D01*
X0003261Y0002053D02*
Y0001938D01*
X0000799Y0002978D02*
X0000015D01*
X0000799Y0004733D02*
X0000012D01*
X0004828Y0001736D02*
X0004378D01*
X0001575Y0003113D02*
X0001524D01*
X0003261Y0001938D02*
Y0001923D01*
Y0001727D01*
X0015760Y0004733D02*
X0015559D01*
X0004725Y0000700D02*
Y0000008D01*
X0004063Y0004876D02*
Y0004694D01*
X0001500Y0007298D02*
X0000007D01*
X0013330Y0002758D02*
Y0001831D01*
X0002700Y0006873D02*
Y0006840D01*
X0004063Y0004890D02*
Y0004876D01*
X0014239Y0004328D02*
X0013971D01*
X0005202Y0005948D02*
X0004515D01*
X0004063Y0005073D02*
Y0004890D01*
Y0004876D02*
Y0004694D01*
X0007986Y0001628D02*
X0005145D01*
X0004063Y0005073D02*
Y0004890D01*
X0004563Y0005138D02*
X0004179D01*
X0005234Y0006353D02*
X0004604D01*
X0000799Y0003518D02*
X0000014D01*
X0005236Y0006623D02*
X0004874D01*
X0006836Y0005543D02*
X0004515D01*
X0004461Y0005419D02*
X0004189Y0005147D01*
X0008722Y0002303D02*
X0005528D01*
X0001890Y0010820D02*
Y0009215D01*
X0006750Y0007304D02*
Y0006232D01*
X0015760Y0000548D02*
X0012509D01*
X0012285Y0001831D02*
Y0000757D01*
X0009180Y0003766D02*
Y0003239D01*
X0009315Y0003765D02*
Y0003121D01*
X0008490Y0001628D02*
X0008384D01*
X0013788Y0010538D02*
X0012788D01*
X0004063Y0004679D02*
Y0004499D01*
X0013500Y0006494D02*
Y0004833D01*
X0006750Y0003007D02*
Y0001501D01*
X0001500Y0007163D02*
X0000007D01*
X0001621Y0005273D02*
X0001220D01*
X0006480Y0001111D02*
Y0000008D01*
X0007919Y0001763D02*
X0005297D01*
X0008032Y0002033D02*
X0005575D01*
X0007965Y0004216D02*
Y0001966D01*
X0010665Y0000839D02*
Y0000008D01*
X0004995Y0001619D02*
Y0001501D01*
X0004624Y0005273D02*
X0004314D01*
X0001555Y0006843D02*
X0001755Y0006643D01*
X0001575Y0004733D02*
X0001524D01*
X0001575Y0004598D02*
X0001524D01*
X0014783Y0006628D02*
X0014733D01*
X0009720Y0003765D02*
Y0003066D01*
X0008435Y0004291D02*
X0008306D01*
X0015760Y0000413D02*
X0012504D01*
X0009045Y0003813D02*
Y0003256D01*
X0004320Y0005278D02*
Y0004757D01*
X0004185Y0005143D02*
Y0004622D01*
X0008561Y0002033D02*
X0008338D01*
X0011318Y0001898D02*
X0009049D01*
X0012555Y0001831D02*
Y0000008D01*
X0010294Y0002033D02*
X0009099D01*
X0000850Y0005069D02*
X0000799D01*
X0009465Y0001493D02*
X0009395D01*
X0008752Y0002573D02*
X0005783D01*
X0009988Y0002843D02*
X0009850D01*
X0008640Y0001863D02*
Y0001759D01*
X0001575Y0003653D02*
X0001524D01*
X0006689Y0006171D02*
X0006356D01*
X0001818Y0005470D02*
X0001630Y0005282D01*
X0005199Y0006488D02*
X0004739D01*
X0007210Y0004328D02*
X0006515D01*
X0008630Y0003248D02*
X0007174D01*
X0004590Y0006338D02*
Y0005222D01*
X0004063Y0004679D02*
Y0004499D01*
X0012472Y0003653D02*
X0012092D01*
X0001524Y0005069D02*
X0001220D01*
X0005529Y0007125D02*
X0005377D01*
X0002858Y0008885D02*
X0002998Y0008745D01*
X0013438Y0002708D02*
X0013330D01*
X0000799Y0004598D02*
X0000012D01*
X0014104Y0004193D02*
X0013836D01*
X0012360Y0006758D02*
X0012236D01*
X0011849Y0007305D02*
X0011159D01*
X0012360Y0006686D02*
X0012154Y0006480D01*
X0012360Y0007163D02*
X0012217D01*
X0011340Y0007720D02*
Y0007305D01*
X0013495Y0006488D02*
Y0005605D01*
X0012868Y0005972D02*
X0012550Y0005654D01*
X0012150Y0006664D02*
Y0006480D01*
X0012690Y0005794D02*
Y0005480D01*
X0012143Y0007703D02*
X0010763D01*
X0012015Y0004822D02*
Y0004748D01*
Y0004322D02*
Y0004248D01*
X0013105Y0006488D02*
Y0005686D01*
X0011880Y0003267D02*
Y0002115D01*
X0014040Y0004397D02*
Y0004129D01*
X0014175Y0004532D02*
Y0004264D01*
X0013805Y0005138D02*
X0013108D01*
X0012727Y0008918D02*
X0012556D01*
X0011051Y0003788D02*
X0009997D01*
X0012496D02*
X0011957D01*
X0011849Y0003265D02*
X0011159D01*
X0009889Y0003765D02*
X0009199D01*
X0010470Y0003840D02*
X0010076D01*
X0010935Y0003884D02*
Y0003749D01*
X0015760Y0010808D02*
X0007644D01*
X0008939Y0004463D02*
X0008883D01*
X0010800Y0002260D02*
Y0001820D01*
X0008630Y0003284D02*
Y0003186D01*
X0003645Y0000700D02*
Y0000008D01*
X0006600Y0007706D02*
X0006269Y0007375D01*
X0006220Y0007298D02*
X0005995D01*
X0014883Y0008648D02*
X0014733D01*
X0006857Y0005408D02*
X0004449D01*
X0004635Y0004910D02*
X0004550D01*
X0007164Y0004540D02*
X0006423D01*
X0001524Y0005069D02*
Y0002846D01*
X0008119Y0004216D02*
X0007429D01*
X0012472Y0003248D02*
X0010926D01*
X0004161Y0004598D02*
X0004063D01*
X0007020Y0005259D02*
Y0004910D01*
X0006159Y0005716D02*
X0005469D01*
X0008158Y0006540D02*
X0007210D01*
X0006159Y0006756D02*
X0005469D01*
X0002835Y0007691D02*
Y0007316D01*
X0013788Y0009998D02*
X0013095D01*
X0015760Y0009458D02*
X0015573D01*
X0008910Y0009222D02*
Y0008820D01*
X0009180Y0009483D02*
Y0008820D01*
X0011475Y0002227D02*
Y0002050D01*
X0008370Y0009301D02*
Y0008820D01*
X0006462Y0007568D02*
X0006291D01*
X0011745Y0007720D02*
Y0007305D01*
X0010921Y0007163D02*
X0010399D01*
X0008910Y0007735D02*
Y0007460D01*
X0011096Y0007298D02*
X0010534D01*
X0008235Y0007735D02*
Y0007460D01*
X0009045Y0007090D02*
Y0006985D01*
X0010250Y0007090D02*
X0008755D01*
X0013230Y0007731D02*
Y0006936D01*
X0013993Y0005408D02*
X0013378D01*
X0013993Y0006758D02*
X0013557D01*
X0009585Y0007090D02*
Y0006985D01*
X0013095Y0006499D02*
Y0005676D01*
X0012285Y0005090D02*
Y0002881D01*
X0010516Y0002978D02*
X0009809D01*
X0012472Y0003113D02*
X0010818D01*
X0009485Y0007460D02*
X0007210D01*
X0008100Y0007735D02*
Y0007460D01*
X0006327Y0007433D02*
X0006093D01*
X0007560Y0007706D02*
Y0007460D01*
X0008505Y0007735D02*
Y0007460D01*
X0010766Y0008063D02*
X0011052Y0007777D01*
X0006855Y0007028D02*
X0006600D01*
X0006210Y0006758D02*
X0005009D01*
X0009315Y0007735D02*
Y0007460D01*
X0000799Y0003248D02*
X0000014D01*
X0005670Y0007046D02*
Y0006756D01*
X0006615Y0007169D02*
Y0006171D01*
X0007051Y0006623D02*
X0006600D01*
X0004320Y0000700D02*
Y0000008D01*
X0009585Y0000789D02*
Y0000008D01*
X0006075Y0000625D02*
Y0000008D01*
X0009551Y0000818D02*
X0009098D01*
X0008100Y0001554D02*
Y0001501D01*
X0005940Y0000664D02*
Y0000008D01*
X0006345Y0000845D02*
Y0000008D01*
X0004590Y0000700D02*
Y0000008D01*
X0002835Y0001695D02*
Y0001338D01*
X0006885Y0003001D02*
Y0001501D01*
X0002230Y0002168D02*
X0002200D01*
X0008100Y0010275D02*
Y0010264D01*
X0004185Y0000700D02*
Y0000008D01*
X0010530Y0003849D02*
Y0003505D01*
X0010890Y0004058D02*
X0010768D01*
X0010940Y0004193D02*
X0010903D01*
X0010913Y0003923D02*
X0010633D01*
X0010395Y0003840D02*
Y0003437D01*
X0002970Y0001734D02*
Y0001338D01*
X0003261Y0001347D02*
Y0001338D01*
X0007151Y0007706D02*
X0006600Y0007154D01*
X0012410Y0005595D02*
X0012112D01*
X0013265Y0004598D02*
X0012112D01*
X0012960Y0007821D02*
Y0005541D01*
X0013993Y0007298D02*
X0012925D01*
X0015760Y0006488D02*
X0015573D01*
X0015760Y0007973D02*
X0015573D01*
X0013105Y0005686D02*
X0012899Y0005480D01*
X0012280Y0002168D02*
X0010765D01*
X0012962Y0005543D02*
X0012119D01*
X0015760Y0007433D02*
X0015573D01*
X0013500Y0003857D02*
Y0003720D01*
X0012899Y0005480D02*
X0012113D01*
X0015760Y0007568D02*
X0015573D01*
X0010800Y0004089D02*
Y0003768D01*
Y0008029D02*
Y0006985D01*
X0013365Y0007742D02*
Y0006937D01*
X0015760Y0005543D02*
X0015623D01*
X0010530Y0001942D02*
Y0001673D01*
X0013993Y0006893D02*
X0013460D01*
X0013500Y0007791D02*
Y0006856D01*
X0004860Y0000700D02*
Y0000008D01*
X0006210Y0000658D02*
Y0000008D01*
X0009393Y0001088D02*
X0009382D01*
X0010414Y0001493D02*
X0010344D01*
X0004455Y0001736D02*
Y0001549D01*
X0005805Y0000700D02*
Y0000008D01*
X0006750Y0001111D02*
Y0000008D01*
X0000799Y0003113D02*
X0000015D01*
X0011070Y0000807D02*
Y0000008D01*
X0015760Y0001358D02*
X0012217D01*
X0010705Y0007623D02*
Y0007545D01*
X0004965Y0001628D02*
X0004376D01*
X0007290Y0001111D02*
Y0000008D01*
X0003261Y0001530D02*
Y0001347D01*
X0005130Y0000700D02*
Y0000008D01*
X0006889Y0005678D02*
X0004515D01*
X0007020Y0007574D02*
Y0007347D01*
X0008910Y0007090D02*
Y0006985D01*
X0011070Y0003280D02*
Y0002650D01*
X0007020Y0001111D02*
Y0000008D01*
X0006986Y0005273D02*
X0005035D01*
X0007155Y0006548D02*
Y0006410D01*
X0006615Y0001111D02*
Y0000008D01*
X0007263Y0005273D02*
X0007224D01*
X0007830Y0001111D02*
Y0000008D01*
X0011070Y0010820D02*
Y0010665D01*
X0006210Y0003540D02*
Y0001501D01*
X0015760Y0008918D02*
X0015573D01*
X0005940Y0002769D02*
Y0001501D01*
X0008414Y0002708D02*
X0005846D01*
X0004995Y0003528D02*
Y0003146D01*
X0005805Y0002601D02*
Y0001501D01*
Y0003540D02*
Y0003284D01*
X0010125Y0002260D02*
Y0001682D01*
X0004455Y0000700D02*
Y0000008D01*
X0008711Y0000818D02*
X0006338D01*
X0008887Y0002438D02*
X0005249D01*
X0005535Y0003540D02*
Y0003210D01*
X0000799Y0002843D02*
X0000015D01*
X0015760Y0004058D02*
X0014945D01*
X0000799Y0003788D02*
X0000013D01*
X0013635Y0007894D02*
Y0004968D01*
X0003240Y0006854D02*
Y0006840D01*
X0010889Y0007028D02*
X0008818D01*
X0008640Y0007735D02*
Y0007460D01*
X0013095Y0010820D02*
Y0010150D01*
X0009585Y0010820D02*
Y0010665D01*
X0015060Y0010538D02*
X0014658D01*
X0012980Y0005090D02*
X0012832D01*
X0004725Y0006473D02*
Y0005346D01*
X0002387Y0007028D02*
X0001894D01*
X0000850Y0005543D02*
X0000010D01*
X0000869Y0006218D02*
X0000009D01*
X0000850Y0005678D02*
X0000010D01*
X0003261Y0006840D02*
X0002082D01*
X0002160Y0010820D02*
Y0009255D01*
X0002025Y0007691D02*
Y0006897D01*
X0001485Y0010820D02*
Y0006643D01*
X0003510Y0000700D02*
Y0000008D01*
X0000991Y0006353D02*
X0000008D01*
X0005265Y0000700D02*
Y0000008D01*
X0009990Y0002260D02*
Y0001724D01*
X0009045Y0002288D02*
Y0002218D01*
X0001575Y0005150D02*
Y0002912D01*
X0012960Y0005090D02*
Y0004293D01*
X0002235Y0002303D02*
X0002200D01*
X0001575Y0003248D02*
X0001524D01*
X0008235Y0010820D02*
Y0010665D01*
X0009450Y0003765D02*
Y0003072D01*
X0009585Y0003765D02*
Y0003105D01*
X0000850Y0006135D02*
Y0005069D01*
X0004063Y0005087D02*
Y0005073D01*
X0010935Y0004224D02*
Y0004186D01*
X0012995Y0004328D02*
X0012022D01*
X0001519Y0006893D02*
X0000007D01*
X0007644Y0010820D02*
Y0010665D01*
X0009990Y0003785D02*
Y0002846D01*
X0013105Y0006083D02*
X0012923D01*
X0008435Y0003923D02*
X0006919D01*
X0005940Y0003540D02*
Y0003261D01*
X0008316Y0002978D02*
X0006097D01*
X0008321Y0002843D02*
X0006037D01*
X0012690Y0004747D02*
Y0004023D01*
X0011205Y0007720D02*
Y0007305D01*
X0006075Y0003540D02*
Y0003128D01*
X0006600Y0007706D02*
X0006326D01*
X0007155D02*
Y0007452D01*
X0005535Y0001961D02*
Y0001501D01*
X0013365Y0005394D02*
Y0004698D01*
X0013095Y0005127D02*
Y0004428D01*
X0005130Y0003540D02*
Y0003210D01*
X0008440Y0003518D02*
X0007349D01*
X0010342Y0003113D02*
X0009319D01*
X0004419Y0004856D02*
X0004063Y0004499D01*
X0004590Y0004973D02*
Y0004910D01*
X0005130Y0006878D02*
Y0004910D01*
X0004063Y0004694D02*
Y0004679D01*
X0005002Y0003153D02*
X0004831Y0002981D01*
X0006871Y0006353D02*
X0006548D01*
X0008435Y0004291D02*
Y0003560D01*
X0008235Y0001545D02*
Y0001501D01*
X0010260Y0007090D02*
Y0006985D01*
X0008494Y0003420D02*
X0008630Y0003284D01*
X0015760Y0005948D02*
X0015573D01*
X0014883Y0009863D02*
Y0007418D01*
X0015760Y0005813D02*
X0015573D01*
X0015760Y0004328D02*
X0015215D01*
X0014883Y0006628D02*
Y0005626D01*
X0015760Y0005003D02*
X0015623D01*
X0015573Y0006628D02*
Y0005626D01*
X0014883Y0008108D02*
X0014733D01*
X0015760Y0006623D02*
X0015573D01*
X0014883Y0005678D02*
X0014733D01*
X0002430Y0008885D02*
Y0008689D01*
X0008505Y0009220D02*
Y0008820D01*
X0002700Y0008885D02*
Y0008689D01*
X0002835Y0008885D02*
Y0008689D01*
X0002082Y0008885D02*
X0001886Y0008689D01*
X0002970Y0007040D02*
Y0006840D01*
X0001620Y0010820D02*
Y0008947D01*
X0015760Y0010820D02*
X0007644D01*
X0001870Y0007691D02*
Y0007052D01*
X0014833Y0006758D02*
X0014783D01*
X0014043Y0006628D02*
Y0005626D01*
X0014833Y0005408D02*
X0014783D01*
X0014833Y0006893D02*
X0014783D01*
X0014833Y0007028D02*
X0014783D01*
X0014833Y0007163D02*
X0014783D01*
X0014833Y0007298D02*
X0014783D01*
X0012690Y0008955D02*
Y0008661D01*
X0012825Y0010820D02*
Y0010501D01*
X0014883Y0007568D02*
X0014733D01*
X0014040Y0009700D02*
Y0007418D01*
X0013365Y0010820D02*
Y0008769D01*
X0014883Y0007973D02*
X0014733D01*
X0014788Y0010133D02*
X0014692D01*
X0015760Y0008243D02*
X0015573D01*
X0014883Y0007703D02*
X0014733D01*
X0014809Y0010268D02*
X0014658D01*
X0015760Y0006353D02*
X0015573D01*
X0014883Y0009863D02*
X0014733D01*
X0014883Y0008378D02*
X0014733D01*
X0014883Y0008513D02*
X0014733D01*
Y0009970D02*
Y0007418D01*
X0014043Y0007838D02*
X0013572D01*
X0012472Y0003518D02*
X0012118D01*
X0014043Y0006628D02*
Y0005626D01*
X0014833Y0005138D02*
X0014783D01*
X0014733Y0006628D02*
Y0005626D01*
X0014043Y0009700D02*
X0013788D01*
X0014043Y0007418D02*
X0013993D01*
X0015623Y0006628D02*
X0015573D01*
X0004590Y0001736D02*
Y0001501D01*
X0003240Y0000700D02*
Y0000008D01*
X0007644Y0010820D02*
Y0010665D01*
X0014883Y0008783D02*
X0014733D01*
X0001890Y0007691D02*
Y0007032D01*
X0014043Y0005626D02*
X0013993D01*
X0008370Y0010820D02*
Y0010665D01*
X0014783Y0007418D02*
X0014733D01*
X0014043Y0005813D02*
X0013495D01*
X0014043Y0006083D02*
X0013495D01*
X0008775Y0010820D02*
Y0010665D01*
X0002430Y0006959D02*
Y0006840D01*
X0009045Y0010820D02*
Y0010665D01*
X0002295Y0007691D02*
Y0006840D01*
X0013518Y0001898D02*
X0013330D01*
X0013411Y0002168D02*
X0013330D01*
X0013443Y0002033D02*
X0013330D01*
X0013416Y0002303D02*
X0013330D01*
X0013456Y0002438D02*
X0013330D01*
X0012015Y0000349D02*
Y0000008D01*
X0013130Y0004463D02*
X0012109D01*
X0006615Y0003101D02*
Y0001501D01*
X0012472Y0003662D02*
Y0002881D01*
X0012150Y0005090D02*
Y0001951D01*
X0013905Y0004262D02*
Y0003994D01*
X0014733Y0006628D02*
Y0005626D01*
X0014833Y0005273D02*
X0014783D01*
X0014040Y0006628D02*
Y0005626D01*
X0015760Y0009998D02*
X0015636D01*
X0012015Y0010820D02*
Y0010665D01*
X0014715Y0010820D02*
Y0010081D01*
X0013993Y0005326D02*
X0012576Y0003909D01*
X0014043Y0005678D02*
X0013495D01*
X0014833Y0005543D02*
X0014783D01*
X0014043Y0006488D02*
X0013495D01*
X0014043Y0006623D02*
X0013565D01*
X0014043Y0006353D02*
X0013495D01*
X0006885Y0001111D02*
Y0000008D01*
X0007155Y0001111D02*
Y0000008D01*
X0013905Y0009700D02*
Y0005238D01*
X0013230Y0005259D02*
Y0004563D01*
X0000799Y0004193D02*
X0000013D01*
X0000850Y0005138D02*
X0000011D01*
X0014509Y0004598D02*
X0014241D01*
X0002998Y0009998D02*
X0000002D01*
X0012580Y0010665D02*
X0007644D01*
X0015760Y0009593D02*
X0015573D01*
X0012285Y0010820D02*
Y0010665D01*
X0005400Y0002548D02*
Y0002386D01*
X0002920Y0007433D02*
X0001870D01*
X0013788Y0010268D02*
X0013055D01*
X0003261Y0001544D02*
Y0001530D01*
X0005535Y0002484D02*
Y0002294D01*
X0013329Y0003653D02*
X0013296D01*
X0014644Y0004733D02*
X0014376D01*
X0014043Y0009593D02*
X0013095D01*
X0008170Y0006488D02*
X0006600D01*
X0015760Y0004598D02*
X0015484D01*
X0015573Y0006628D02*
Y0005626D01*
X0015760Y0003923D02*
X0014810D01*
X0014850Y0006628D02*
Y0005626D01*
X0014883Y0006488D02*
X0014733D01*
X0015760Y0008108D02*
X0015573D01*
X0013770Y0004127D02*
Y0003859D01*
X0015760Y0003518D02*
X0014405D01*
X0015470Y0004583D02*
X0014128Y0003242D01*
X0014883Y0006623D02*
X0014733D01*
X0014883Y0006353D02*
X0014733D01*
X0014883Y0005948D02*
X0014733D01*
X0002998Y0009863D02*
X0000002D01*
X0011340Y0010820D02*
Y0010665D01*
X0011475Y0010820D02*
Y0010665D01*
X0013993Y0005543D02*
X0013485D01*
X0009023Y0002303D02*
X0008937D01*
X0011234Y0002708D02*
X0010487D01*
X0012420Y0005595D02*
Y0005480D01*
X0011475Y0007720D02*
Y0007305D01*
X0012937Y0007838D02*
X0012925D01*
X0014043Y0007703D02*
X0012925D01*
X0014043Y0007433D02*
X0012925D01*
X0011449Y0002033D02*
X0010702D01*
X0012280Y0002438D02*
X0011599D01*
X0012280Y0002573D02*
X0011573D01*
X0014043Y0009053D02*
X0013160D01*
X0011340Y0002185D02*
Y0001928D01*
X0013105Y0006488D02*
X0012925D01*
X0012154Y0006480D02*
X0012113D01*
X0009952Y0002650D02*
X0009777D01*
X0012925Y0007847D02*
Y0006110D01*
X0012555Y0008916D02*
Y0008796D01*
X0014043Y0008378D02*
X0013765D01*
X0009669Y0010275D02*
X0008094D01*
X0012905Y0008648D02*
X0012703D01*
X0001755Y0010820D02*
Y0009082D01*
X0010395Y0003043D02*
Y0002903D01*
X0009655Y0010268D02*
X0008098D01*
X0008399Y0010133D02*
X0008130D01*
X0011610Y0007720D02*
Y0007305D01*
X0007151Y0007706D02*
X0006600Y0007154D01*
X0009387Y0007703D02*
X0007148D01*
X0012360Y0007433D02*
X0010667D01*
X0006210Y0007235D02*
Y0006751D01*
X0006600Y0007154D02*
Y0006486D01*
X0007830Y0007735D02*
Y0007460D01*
X0007695Y0007735D02*
Y0007460D01*
X0008417Y0001501D02*
X0004526D01*
X0009393Y0007735D02*
X0007651D01*
X0009405Y0007568D02*
X0007013D01*
X0008775Y0002549D02*
Y0002319D01*
X0009990Y0007090D02*
Y0006985D01*
X0003105Y0001819D02*
Y0001338D01*
X0001274Y0006623D02*
X0000008D01*
X0005913Y0000683D02*
X0002960D01*
X0009859D02*
X0006246D01*
X0008505Y0000965D02*
Y0000008D01*
X0008100Y0001111D02*
Y0000008D01*
X0005670Y0000700D02*
Y0000008D01*
X0003240Y0001999D02*
Y0001338D01*
X0002565Y0001726D02*
Y0001338D01*
X0001575Y0004058D02*
X0001524D01*
X0013438Y0005467D02*
X0013120Y0005149D01*
X0002700Y0001692D02*
Y0001338D01*
X0013670Y0001763D02*
X0012256D01*
X0008516Y0000953D02*
X0006343D01*
X0006345Y0001111D02*
Y0000945D01*
X0014310Y0004667D02*
Y0004399D01*
X0014883Y0009053D02*
X0014733D01*
X0002200Y0002324D02*
Y0001409D01*
X0014580Y0004836D02*
Y0004669D01*
X0012420Y0000284D02*
Y0000008D01*
X0005400Y0003540D02*
Y0003210D01*
X0012280Y0002843D02*
X0010447D01*
X0013969Y0004058D02*
X0013701D01*
X0002430Y0001803D02*
Y0001345D01*
X0014445Y0004802D02*
Y0004534D01*
X0013834Y0003923D02*
X0013566D01*
X0000799Y0004463D02*
X0000012D01*
X0009180Y0010820D02*
Y0010665D01*
X0014883Y0006628D02*
X0014833D01*
X0014043Y0005948D02*
X0013495D01*
X0014043Y0006218D02*
X0013495D01*
X0007155Y0004540D02*
Y0003760D01*
X0010530Y0010820D02*
Y0010665D01*
X0007965Y0010820D02*
Y0010665D01*
X0008100Y0010820D02*
Y0010665D01*
X0009315Y0010820D02*
Y0010665D01*
X0010800Y0010820D02*
Y0010665D01*
X0010935Y0010820D02*
Y0010665D01*
X0005535Y0000700D02*
Y0000008D01*
X0013699Y0003788D02*
X0013431D01*
X0006920Y0005878D02*
Y0005712D01*
X0005265Y0006309D02*
Y0006162D01*
X0006345Y0006290D02*
Y0006181D01*
X0007695Y0006540D02*
Y0006410D01*
X0008170Y0006462D02*
X0008118Y0006410D01*
X0006480Y0005801D02*
Y0004910D01*
X0006874Y0006356D02*
X0006689Y0006171D01*
X0006405Y0006291D02*
X0006346D01*
X0007830Y0006540D02*
Y0006410D01*
X0007290Y0006540D02*
Y0006410D01*
X0006920Y0005878D02*
X0006896Y0005855D01*
X0005400Y0000700D02*
Y0000008D01*
X0006920Y0005813D02*
X0006831D01*
X0007965Y0006540D02*
Y0006410D01*
X0009180Y0007090D02*
Y0006985D01*
X0008170Y0006528D02*
Y0006462D01*
X0008118Y0006410D02*
X0007005D01*
X0010651Y0007414D02*
X0010382Y0007145D01*
X0008158Y0006540D02*
X0008170Y0006528D01*
X0008100Y0006540D02*
Y0006410D01*
X0008370Y0007735D02*
Y0007460D01*
X0006736Y0006218D02*
X0006297D01*
X0008755Y0007090D02*
X0008861Y0006985D01*
X0006910Y0006763D02*
X0007079Y0006594D01*
X0006210Y0007028D02*
X0005279D01*
X0008775Y0007735D02*
Y0007460D01*
X0006855Y0007105D02*
Y0006895D01*
X0009855Y0007090D02*
Y0006985D01*
X0006864Y0007163D02*
X0006608D01*
X0007079Y0007406D02*
X0006910Y0007237D01*
X0012123Y0007720D02*
X0011190D01*
X0007651Y0007706D02*
X0007151D01*
X0006345Y0003367D02*
Y0001501D01*
X0000799Y0004868D02*
X0000011D01*
X0006885Y0004540D02*
Y0003957D01*
X0008435Y0003788D02*
X0007054D01*
X0004860Y0003393D02*
Y0003011D01*
X0005693Y0003248D02*
X0004714D01*
X0006750Y0004540D02*
Y0004092D01*
X0006310Y0003518D02*
X0004984D01*
X0006480Y0004540D02*
Y0004362D01*
X0005265Y0003540D02*
Y0003210D01*
X0008435Y0003653D02*
X0007303D01*
X0006486Y0004356D02*
X0007071Y0003771D01*
X0008505Y0010820D02*
Y0010665D01*
X0001575Y0004328D02*
X0001524D01*
X0014310Y0010820D02*
Y0010570D01*
X0008910Y0010820D02*
Y0010665D01*
X0007290Y0005254D02*
Y0005217D01*
X0015760Y0009188D02*
X0015573D01*
X0010395Y0010820D02*
Y0010665D01*
X0001080Y0010820D02*
Y0006442D01*
X0011205Y0010820D02*
Y0010665D01*
X0001126Y0006488D02*
X0000008D01*
X0001485Y0005470D02*
Y0005069D01*
X0006485Y0003248D02*
X0005967D01*
X0001620Y0005470D02*
Y0005271D01*
X0015760Y0005138D02*
X0015623D01*
X0012420Y0001831D02*
Y0000696D01*
X0007965Y0001653D02*
Y0001501D01*
X0008427Y0001088D02*
X0006269D01*
X0012150Y0001260D02*
Y0000743D01*
X0008100Y0004216D02*
Y0002066D01*
X0008235Y0004242D02*
Y0002075D01*
X0000799Y0003653D02*
X0000014D01*
X0005535Y0007118D02*
Y0006756D01*
X0007020Y0006653D02*
Y0006410D01*
X0006018Y0007433D02*
X0005966D01*
X0009450Y0009543D02*
Y0009425D01*
X0009223Y0008820D02*
X0007948D01*
X0010935Y0002260D02*
Y0001830D01*
X0011880Y0007720D02*
Y0007303D01*
X0012360Y0006893D02*
X0012265D01*
X0010857Y0007973D02*
X0010743D01*
X0011070Y0007761D02*
Y0007290D01*
X0012015Y0007720D02*
Y0007248D01*
X0014040Y0010820D02*
Y0010570D01*
X0002977Y0007032D02*
X0003096Y0006913D01*
X0003261Y0006854D02*
X0003236D01*
X0014175Y0010820D02*
Y0010570D01*
X0002858Y0008885D02*
X0002082D01*
X0008435Y0004058D02*
X0006784D01*
X0003119Y0006893D02*
X0002754D01*
X0002920Y0007691D02*
Y0007170D01*
X0001500Y0008243D02*
X0000005D01*
X0009720Y0000714D02*
Y0000008D01*
X0013788Y0010133D02*
X0013095D01*
X0012720Y0010606D02*
X0013038Y0010288D01*
X0015760Y0009863D02*
X0015573D01*
X0012150Y0010820D02*
Y0010665D01*
X0013788Y0009728D02*
X0013095D01*
Y0008938D02*
Y0008756D01*
X0014043Y0009458D02*
X0013095D01*
X0012690Y0010820D02*
Y0010631D01*
X0013095Y0010150D02*
Y0009312D01*
X0015760Y0000278D02*
X0012412D01*
X0014374Y0004463D02*
X0014106D01*
X0009351Y0009188D02*
X0008790D01*
X0008910Y0004490D02*
Y0003556D01*
X0009428Y0009025D02*
X0009223Y0008820D01*
X0009404Y0009053D02*
X0008139D01*
X0014043Y0008918D02*
X0013073D01*
X0012960Y0010820D02*
Y0010366D01*
X0007965Y0008832D02*
Y0008820D01*
X0008100Y0008978D02*
Y0008820D01*
X0013535Y0004868D02*
X0012819D01*
X0002970Y0008773D02*
Y0008628D01*
X0002960Y0008689D02*
Y0008621D01*
X0008775Y0009185D02*
Y0008820D01*
X0009045Y0009306D02*
Y0008820D01*
X0002998Y0008745D02*
Y0008643D01*
X0008268Y0009998D02*
X0008089D01*
X0012340Y0004868D02*
X0012061D01*
X0007290Y0007706D02*
Y0007460D01*
X0008235Y0009471D02*
Y0008820D01*
X0013400Y0004733D02*
X0012651D01*
X0002565Y0008885D02*
Y0008689D01*
X0002700Y0010820D02*
Y0009255D01*
X0002835Y0010820D02*
Y0009255D01*
X0002970Y0010820D02*
Y0009252D01*
X0002025Y0010820D02*
Y0009255D01*
X0002998Y0010820D02*
Y0009244D01*
X0002935Y0009255D02*
X0002005D01*
X0001500Y0008378D02*
X0000005D01*
X0001726Y0009053D02*
X0000003D01*
X0002160Y0008885D02*
Y0008689D01*
X0002295Y0008885D02*
Y0008689D01*
X0002430Y0010820D02*
Y0009255D01*
X0001500Y0008648D02*
X0000004D01*
X0002961Y0008783D02*
X0001979D01*
X0001620Y0006778D02*
Y0006643D01*
X0003105Y0006904D02*
Y0006840D01*
X0001500Y0008750D02*
Y0006975D01*
X0002160Y0007691D02*
Y0006840D01*
X0002516Y0006893D02*
X0002029D01*
X0001500Y0008108D02*
X0000005D01*
X0002565Y0010820D02*
Y0009255D01*
X0002960Y0008689D02*
X0001886D01*
X0014445Y0010820D02*
Y0010570D01*
X0001500Y0008513D02*
X0000004D01*
X0002920Y0007568D02*
X0001870D01*
X0001500D02*
X0000006D01*
X0002998Y0010403D02*
X0000001D01*
X0002998Y0009458D02*
X0000003D01*
X0002998Y0010808D02*
X0000000D01*
X0007160Y0004463D02*
X0006428D01*
X0008204Y0009863D02*
X0007646D01*
X0005265Y0002453D02*
Y0002391D01*
X0001500Y0007028D02*
X0000007D01*
X0015760Y0006893D02*
X0015623D01*
X0001861Y0009188D02*
X0000003D01*
X0014883Y0006628D02*
Y0005626D01*
X0015760Y0004868D02*
X0015623D01*
X0004577Y0005003D02*
X0004063D01*
X0015760Y0007028D02*
X0015623D01*
X0015760Y0007163D02*
X0015623D01*
X0015760Y0007298D02*
X0015623D01*
X0015760Y0006083D02*
X0015573D01*
X0001870Y0007052D02*
X0002082Y0006840D01*
X0015623Y0007418D02*
X0015573D01*
X0014881Y0010403D02*
X0014658D01*
X0015760Y0010538D02*
X0015387D01*
X0011745Y0010820D02*
Y0010665D01*
X0014850Y0009911D02*
Y0007418D01*
X0015760Y0005678D02*
X0015573D01*
X0015760Y0007703D02*
X0015573D01*
X0014850Y0010820D02*
Y0010358D01*
X0015760Y0009728D02*
X0015573D01*
X0015120Y0010820D02*
Y0010557D01*
X0013905Y0010820D02*
Y0010570D01*
X0015390Y0010820D02*
Y0010536D01*
X0015525Y0010820D02*
Y0010448D01*
X0013500Y0010820D02*
Y0008720D01*
X0009450Y0010820D02*
Y0010665D01*
X0010665Y0010820D02*
Y0010665D01*
X0014043Y0009323D02*
X0013095D01*
X0012555Y0010820D02*
Y0010665D01*
X0014810Y0009998D02*
X0014732D01*
X0012420Y0010820D02*
Y0010665D01*
X0014043Y0008243D02*
X0013779D01*
X0014043Y0008783D02*
X0012568D01*
X0014043Y0009188D02*
X0013163D01*
X0012280Y0002303D02*
X0011553D01*
X0014043Y0008648D02*
X0013604D01*
X0014043Y0008513D02*
X0013712D01*
X0011880Y0010820D02*
Y0010665D01*
X0014985Y0010820D02*
Y0010499D01*
X0013230Y0010820D02*
Y0008780D01*
X0013770Y0010820D02*
Y0008356D01*
X0013635Y0010820D02*
Y0008618D01*
X0015760Y0009053D02*
X0015573D01*
X0012960Y0008862D02*
Y0008690D01*
X0014043Y0007568D02*
X0012925D01*
X0014043Y0008108D02*
X0013758D01*
X0014043Y0007973D02*
X0013697D01*
X0012555Y0005659D02*
Y0005480D01*
X0013182Y0003518D02*
X0013162D01*
X0015760Y0003788D02*
X0014675D01*
X0015760Y0003653D02*
X0014540D01*
X0015760Y0003383D02*
X0014270D01*
X0015760Y0003113D02*
X0014121D01*
X0007155Y0005250D02*
Y0004910D01*
X0000945Y0010820D02*
Y0006307D01*
X0013230Y0003587D02*
Y0003573D01*
X0015760Y0002978D02*
X0014078D01*
X0015760Y0008783D02*
X0015573D01*
X0012590Y0003923D02*
X0012094D01*
X0013162Y0003519D02*
Y0003488D01*
X0013365Y0003722D02*
Y0003673D01*
X0012472Y0002881D02*
X0012280D01*
X0014833Y0004922D02*
X0014783Y0004872D01*
X0015760Y0010403D02*
X0015566D01*
X0015760Y0010268D02*
X0015637D01*
X0000850Y0005948D02*
X0000009D01*
X0015120Y0004233D02*
Y0000008D01*
X0013140Y0006893D02*
X0012925D01*
X0011880Y0001096D02*
Y0000008D01*
X0002920Y0007163D02*
X0002904D01*
X0007651Y0007735D02*
Y0007706D01*
X0008370Y0001613D02*
Y0001501D01*
X0002982Y0007028D02*
X0002883D01*
X0002998Y0008648D02*
X0002960D01*
X0015760Y0007838D02*
X0015573D01*
X0013940Y0005273D02*
X0013243D01*
X0001575Y0003383D02*
X0001524D01*
X0004962Y0003113D02*
X0004735D01*
X0010665Y0007430D02*
Y0006985D01*
X0004515Y0006263D02*
Y0005550D01*
X0005400Y0007125D02*
Y0006747D01*
X0009045Y0007735D02*
Y0007460D01*
X0009720Y0007090D02*
Y0006985D01*
X0007560Y0006540D02*
Y0006410D01*
X0008930Y0004058D02*
X0008825D01*
X0010530Y0007293D02*
Y0006985D01*
X0008953Y0003923D02*
X0008825D01*
X0010350Y0003383D02*
X0009019D01*
X0008100Y0010016D02*
Y0009534D01*
X0010530Y0002975D02*
Y0002650D01*
X0006885Y0006794D02*
Y0006366D01*
X0008918Y0004498D02*
X0008825Y0004405D01*
X0009091Y0003788D02*
X0008825D01*
X0012070Y0007230D02*
X0012036D01*
X0013105Y0006353D02*
X0012925D01*
X0012150Y0007697D02*
Y0007213D01*
X0010935Y0007894D02*
Y0007186D01*
X0012265Y0007035D02*
Y0006860D01*
X0008825Y0004405D02*
Y0003641D01*
X0012825Y0005929D02*
Y0005480D01*
X0003261Y0001763D02*
X0003027D01*
X0003261Y0001898D02*
X0003179D01*
X0006480Y0006306D02*
Y0006171D01*
X0012208Y0006722D02*
X0012140Y0006654D01*
X0010125Y0007090D02*
Y0006985D01*
X0010395Y0007158D02*
Y0006985D01*
X0008755Y0007090D02*
X0008861Y0006985D01*
X0009450Y0007494D02*
Y0007460D01*
X0008755Y0007090D02*
X0008861Y0006985D01*
X0009315Y0007090D02*
Y0006985D01*
X0009450Y0007090D02*
Y0006985D01*
X0008910Y0002414D02*
Y0002313D01*
X0010260Y0002082D02*
Y0001592D01*
X0011340Y0003265D02*
Y0002725D01*
X0011143Y0002260D02*
X0010763D01*
X0010665Y0002984D02*
Y0002650D01*
X0004725Y0003258D02*
Y0003119D01*
X0010935Y0003251D02*
Y0002650D01*
X0013770Y0008155D02*
Y0005103D01*
X0008435Y0004291D02*
X0008306D01*
X0008980Y0004193D02*
X0008825D01*
X0010560Y0003518D02*
X0008948D01*
X0010607Y0003653D02*
X0008825D01*
X0009020Y0003365D02*
Y0003252D01*
X0009450Y0002260D02*
Y0001468D01*
X0006885Y0005844D02*
Y0005671D01*
X0009026Y0004328D02*
X0008825D01*
Y0003641D02*
X0008963Y0003503D01*
X0008435Y0004193D02*
X0006650D01*
X0007965Y0009891D02*
Y0009679D01*
X0011205Y0002215D02*
Y0001736D01*
X0009720Y0002260D02*
Y0001697D01*
X0007695Y0010820D02*
Y0010665D01*
X0005331Y0006218D02*
X0004515D01*
X0005265Y0007013D02*
Y0006662D01*
X0007695Y0009926D02*
Y0009779D01*
X0008505Y0002661D02*
Y0001646D01*
X0010935Y0000782D02*
Y0000008D01*
X0002998Y0010268D02*
X0000001D01*
X0002920Y0007298D02*
X0002850D01*
X0002970Y0000700D02*
Y0000008D01*
X0005893Y0000700D02*
X0002960D01*
X0005265Y0001713D02*
Y0001501D01*
X0002998Y0010133D02*
X0000001D01*
X0002025Y0008828D02*
Y0008689D01*
X0005670Y0002496D02*
Y0001501D01*
X0012150Y0005595D02*
Y0005480D01*
X0012550Y0008801D02*
X0012812Y0008538D01*
X0013105Y0005813D02*
X0012708D01*
X0009180Y0002260D02*
Y0001753D01*
X0012360Y0007028D02*
X0012265D01*
X0013043Y0006758D02*
X0012925D01*
X0012280Y0002708D02*
X0011425D01*
X0012297Y0006623D02*
X0012104D01*
X0013993Y0007028D02*
X0012925D01*
X0012360Y0007650D02*
Y0006686D01*
X0013993Y0007163D02*
X0012925D01*
X0010260Y0003840D02*
Y0002967D01*
X0012285Y0005595D02*
Y0005480D01*
X0012162Y0006488D02*
X0012115D01*
X0013105Y0005948D02*
X0012843D01*
X0013035Y0006623D02*
X0012925D01*
X0008775Y0007090D02*
Y0007070D01*
X0009855Y0002260D02*
Y0001728D01*
X0014043Y0006628D02*
X0013993D01*
X0013095Y0007755D02*
Y0006851D01*
X0007425Y0007706D02*
Y0007460D01*
X0015760Y0000008D02*
X0002960D01*
X0006480Y0003250D02*
Y0001501D01*
X0008584Y0002168D02*
X0005589D01*
X0005805Y0007052D02*
Y0006756D01*
X0005940Y0007146D02*
Y0006756D01*
X0006615Y0005801D02*
Y0004910D01*
X0007113Y0007433D02*
X0006878D01*
X0007425Y0006540D02*
Y0006410D01*
X0007965Y0007735D02*
Y0007460D01*
X0008646Y0001763D02*
X0008451D01*
X0009585Y0002260D02*
Y0001622D01*
X0010800Y0003084D02*
Y0002650D01*
X0015760Y0001223D02*
X0012114D01*
X0000850Y0005273D02*
X0000011D01*
X0015760Y0004463D02*
X0015350D01*
X0005265Y0005809D02*
Y0004910D01*
X0007425Y0004216D02*
Y0001501D01*
X0005670Y0003540D02*
Y0003233D01*
X0006607Y0003113D02*
X0006081D01*
X0008390D02*
X0007053D01*
X0007290Y0003331D02*
Y0001501D01*
Y0004254D02*
Y0003670D01*
X0006337Y0003383D02*
X0004849D01*
X0002998Y0009593D02*
X0000002D01*
X0007155Y0003241D02*
Y0001501D01*
X0004995Y0006743D02*
Y0005311D01*
X0004860Y0006608D02*
Y0005366D01*
X0007170Y0004910D02*
X0005024D01*
X0006885Y0005358D02*
Y0004910D01*
X0007159Y0005003D02*
X0005082D01*
X0007206Y0005138D02*
X0005097D01*
X0015760Y0002708D02*
X0014145D01*
X0015760Y0002438D02*
X0014422D01*
X0015760Y0002303D02*
X0014462D01*
X0015760Y0002033D02*
X0014435D01*
X0015760Y0002168D02*
X0014466D01*
X0015760Y0001898D02*
X0014360D01*
X0014715Y0003828D02*
Y0000008D01*
X0014445Y0003558D02*
Y0002377D01*
X0014310Y0003423D02*
Y0002598D01*
X0014040Y0002912D02*
Y0002740D01*
X0013905Y0002775D02*
Y0002748D01*
X0013635Y0002682D02*
Y0002653D01*
X0013500Y0002691D02*
Y0002516D01*
Y0001922D02*
Y0000008D01*
X0015760Y0000683D02*
X0012434D01*
X0011070Y0002260D02*
Y0001804D01*
X0012360Y0007298D02*
X0011911D01*
X0014883Y0007418D02*
X0014833D01*
X0012285Y0007646D02*
Y0006611D01*
X0012420Y0004775D02*
Y0002881D01*
X0015760Y0008513D02*
X0015573D01*
X0014175Y0003288D02*
Y0002694D01*
X0009450Y0010275D02*
Y0010068D01*
X0012725Y0004058D02*
X0012118D01*
X0013635Y0003992D02*
Y0003730D01*
X0012015Y0003822D02*
Y0003748D01*
X0014658Y0010570D02*
Y0010184D01*
X0010933Y0004222D02*
X0010610Y0003899D01*
X0012310Y0005003D02*
X0012117D01*
X0012472Y0002978D02*
X0010644D01*
X0014883Y0006218D02*
X0014733D01*
X0010233Y0002260D02*
X0009145D01*
X0009045Y0004313D02*
Y0004257D01*
X0010125Y0003840D02*
Y0002954D01*
X0006210Y0007478D02*
Y0007235D01*
X0010894Y0006985D02*
X0008861D01*
X0009321Y0008918D02*
X0008056D01*
X0006971Y0007298D02*
X0006743D01*
X0006210Y0007163D02*
X0005952D01*
X0006885Y0007439D02*
Y0007206D01*
X0007695Y0001111D02*
Y0000008D01*
X0005262Y0005813D02*
X0004515D01*
X0004296Y0004733D02*
X0004063D01*
X0004050Y0000700D02*
Y0000008D01*
X0012508Y0004733D02*
X0012033D01*
X0008532Y0003383D02*
X0007322D01*
X0005007Y0003540D02*
X0004627Y0003160D01*
X0006345Y0005790D02*
Y0004910D01*
X0006210Y0005720D02*
Y0004910D01*
X0006075Y0005716D02*
Y0004910D01*
X0005940Y0005716D02*
Y0004910D01*
X0005805Y0005716D02*
Y0004910D01*
X0005670Y0005716D02*
Y0004910D01*
X0005535Y0005716D02*
Y0004910D01*
X0005400Y0005725D02*
Y0004910D01*
X0015760Y0010673D02*
X0007644D01*
X0004860Y0001696D02*
Y0001501D01*
X0002700Y0007691D02*
Y0007397D01*
X0002998Y0010673D02*
X0000000D01*
X0010665Y0003954D02*
Y0003714D01*
X0012015Y0003322D02*
Y0002062D01*
X0012280Y0002033D02*
X0012060D01*
X0012280Y0001898D02*
X0012191D01*
X0008370Y0001111D02*
Y0000008D01*
X0013635Y0001785D02*
Y0000008D01*
X0011143Y0002650D02*
X0010483D01*
X0011745Y0003265D02*
Y0002131D01*
X0011610Y0003265D02*
Y0002110D01*
X0015760Y0008378D02*
X0015573D01*
X0015760Y0001628D02*
X0012279D01*
X0015760Y0001493D02*
X0012267D01*
X0015760Y0001088D02*
X0011840D01*
X0015760Y0000818D02*
X0011098D01*
X0011669Y0001088D02*
X0011382D01*
X0011254Y0001763D02*
X0011163D01*
X0011475Y0003265D02*
Y0002683D01*
X0011205Y0003265D02*
Y0002694D01*
X0010231Y0002168D02*
X0009075D01*
X0011610Y0001101D02*
Y0000008D01*
X0012285Y0000223D02*
Y0000008D01*
X0010427Y0001088D02*
X0010416D01*
X0010711Y0000818D02*
X0010258D01*
X0010646Y0001763D02*
X0009163D01*
X0003261Y0001358D02*
X0002414D01*
X0009315Y0002260D02*
Y0001633D01*
X0001575Y0003788D02*
X0001524D01*
X0008505Y0003409D02*
Y0003180D01*
X0014883Y0006083D02*
X0014733D01*
X0010516Y0000953D02*
X0010365D01*
X0009592Y0001628D02*
X0009319D01*
X0010490D02*
X0010217D01*
X0010395Y0001960D02*
Y0001432D01*
X0009045Y0001892D02*
Y0001812D01*
X0008689Y0002635D02*
X0009007Y0002317D01*
X0008640Y0002657D02*
Y0002247D01*
X0009315Y0010275D02*
Y0008912D01*
X0008370Y0004291D02*
Y0003091D01*
X0007830Y0010820D02*
Y0010665D01*
X0007645Y0009976D02*
X0007648Y0009781D01*
X0007830Y0009872D02*
Y0009750D01*
X0008242Y0009458D02*
X0008139D01*
X0008346Y0009323D02*
X0008175D01*
X0008619Y0009188D02*
X0008175D01*
X0008640Y0009185D02*
Y0008820D01*
X0006480Y0007706D02*
Y0007586D01*
X0008180Y0009728D02*
X0007884D01*
X0013670Y0005003D02*
X0012849D01*
X0008192Y0009593D02*
X0008057D01*
X0009180Y0010275D02*
Y0009929D01*
X0009045Y0010275D02*
Y0010105D01*
X0008910Y0010275D02*
Y0010189D01*
X0008775Y0010275D02*
Y0010226D01*
X0008640Y0010275D02*
Y0010227D01*
X0008505Y0010275D02*
Y0010191D01*
X0008370Y0010275D02*
Y0010110D01*
X0009494Y0010133D02*
X0009010D01*
X0009416Y0009998D02*
X0009141D01*
X0009383Y0009863D02*
X0009206D01*
X0009385Y0009728D02*
X0009229D01*
X0009425Y0009593D02*
X0009217D01*
X0009502Y0009458D02*
X0009167D01*
X0009372Y0009323D02*
X0009064D01*
X0008235Y0010275D02*
Y0009940D01*
X0010260Y0010820D02*
Y0010665D01*
X0010125Y0010820D02*
Y0010665D01*
X0009990Y0010820D02*
Y0010665D01*
X0009855Y0010820D02*
Y0010665D01*
X0009585Y0010275D02*
Y0010222D01*
G01X0011755Y0001081D02*
G03X0012280Y0001606I0000000J0000525D01*
G03X0011755Y0002131I0000525J0000000D01*
G01X0011419Y0001202D02*
G03X0011755Y0001081I0000336J0000404D01*
G01X0011951Y0003785D02*
G03X0012119Y0004035I0000102J0000250D01*
G01X0010905Y0000781D02*
G03X0011419Y0001202I0000000J0000525D01*
G01X0010420Y0001104D02*
G03X0010905Y0000781I0000485J0000202D01*
G01X0008973Y0001826D02*
G03X0009100Y0002055I0000143J0000229D01*
G01X0011755Y0002131D02*
G03X0011240Y0001710I0000000J0000525D01*
G01X0009905Y0000681D02*
G03X0010420Y0001104I0000000J0000525D01*
G01X0009389D02*
G03X0009905Y0000680I0000516J0000102D01*
G01X0010905Y0001831D02*
G03X0010389Y0001407I0000000J0000525D01*
G01X0008905Y0000781D02*
G03X0009389Y0001104I0000000J0000525D01*
G01X0008180Y0009256D02*
G03X0007655Y0009781I0000525J0000000D01*
G01X0008180Y0009706D02*
G03X0008705Y0009181I0000525J0000000D01*
G03X0009230Y0009706I0000000J0000525D01*
G03X0008705Y0010231I0000525J0000000D01*
G03X0008180Y0009706I0000000J0000525D01*
G01X0013255Y0007731D02*
G03X0013780Y0008256I0000000J0000525D01*
G03X0013255Y0008781I0000525J0000000D01*
G01X0013691Y0002688D02*
G03X0013408Y0002219I0000248J0000469D01*
G01X0014130Y0003206D02*
G03X0014128Y0003242I0000525J0000000D01*
G01X0014788Y0010135D02*
G03X0014883Y0009863I0000435J0000000D01*
G01X0015658Y0010135D02*
G03X0015223Y0010570I0000435J0000000D01*
G03X0014788Y0010135I0000000J0000435D01*
G01X0005322Y0002397D02*
G03X0005136Y0002322I0000000J0000270D01*
G01X0006855Y0006895D02*
G03X0006909Y0006764I0000185J0000000D01*
G01X0007248Y0005286D02*
G03X0007327Y0005236I0000181J0000200D01*
G01X0004063Y0005092D02*
G03X0004188Y0005146I0000006J0000185D01*
G01X0004063Y0005092D02*
G03X0004188Y0005146I0000006J0000185D01*
G01X0007159Y0004986D02*
G03X0007170Y0004910I0000270J0000000D01*
G01X0001220Y0005402D02*
G03X0001280Y0005395I0000060J0000263D01*
G01X0007948Y0008820D02*
G03X0008180Y0009256I0000293J0000436D01*
G01X0002758Y0001689D02*
G03X0003261Y0002053I0000000J0000530D01*
G01X0004526Y0001501D02*
G03X0004359Y0001575I0000187J0000195D01*
G01X0002998Y0008643D02*
G03X0002960Y0008621I0000117J0000243D01*
G01X0010651Y0007414D02*
G03X0010705Y0007545I0000131J0000131D01*
G01X0013605Y0002681D02*
G03X0013691Y0002688I0000000J0000525D01*
G01X0013330Y0002758D02*
G03X0013605Y0002680I0000275J0000448D01*
G01X0012548Y0008803D02*
G03X0012483Y0008846I0000138J0000138D01*
G01X0009509Y0009461D02*
G03X0009350Y0009215I0000111J0000246D01*
G01X0010389Y0001407D02*
G03X0009905Y0001730I0000484J0000201D01*
Y0001731D02*
G03X0009420Y0001407I0000000J0000525D01*
G01X0005580Y0002480D02*
G03X0005849Y0002746I0000000J0000270D01*
G01X0002250Y0001413D02*
G03X0002200Y0001409I0000000J0000270D01*
G01X0002437Y0001338D02*
G03X0002250Y0001413I0000187J0000195D01*
G01X0006415Y0004400D02*
G03X0006429Y0004486I0000256J0000086D01*
G01X0004383Y0001685D02*
G03X0004378Y0001736I0000270J0000000D01*
G01X0004461Y0005419D02*
G03X0004515Y0005550I0000131J0000131D01*
G01X0005957Y0007449D02*
G03X0006056Y0007430I0000099J0000251D01*
G01X0005725Y0007040D02*
G03X0005995Y0007310I0000000J0000270D01*
G01X0005529Y0007125D02*
G03X0005725Y0007040I0000196J0000185D01*
G01X0009580Y0003105D02*
G03X0009349Y0002975I0000000J0000270D01*
G01X0004550Y0004910D02*
G03X0004419Y0004856I0000000J0000185D01*
G01X0005055Y0001612D02*
G03X0005322Y0001857I0000000J0000270D01*
G01X0004828Y0001736D02*
G03X0005055Y0001612I0000227J0000146D01*
G01X0008664Y0002664D02*
G03X0008687Y0002637I0000161J0000111D01*
G01X0009350Y0002989D02*
G03X0009080Y0003259I0000270J0000000D01*
G01X0011017Y0003305D02*
G03X0011159Y0003265I0000142J0000230D01*
G01X0005383Y0002565D02*
G03X0005580Y0002480I0000197J0000185D01*
G01X0008310Y0002921D02*
G03X0008580Y0002651I0000270J0000000D01*
G03X0008664Y0002664I0000000J0000270D01*
G01X0008580Y0003191D02*
G03X0008310Y0002921I0000000J0000270D01*
G01X0008560Y0002055D02*
G03X0008734Y0001802I0000270J0000000D01*
G01X0009100Y0002055D02*
G03X0008830Y0002325I0000270J0000000D01*
G03X0008560Y0002055I0000000J0000270D01*
G01X0004560Y0005097D02*
G03X0004635Y0004910I0000270J0000000D01*
G01X0005100Y0005097D02*
G03X0004830Y0005367I0000270J0000000D01*
G03X0004560Y0005097I0000000J0000270D01*
G01X0013409Y0002219D02*
G03X0013939Y0001689I0000530J0000000D01*
G03X0014469Y0002219I0000000J0000530D01*
G03X0013939Y0002749I0000530J0000000D01*
G01X0002228Y0002219D02*
G03X0002758Y0001689I0000530J0000000D01*
G01X0012113Y0006480D02*
G03X0012119Y0006535I0000264J0000055D01*
G01X0011159Y0007305D02*
G03X0010889Y0007035I0000000J0000270D01*
G03X0010894Y0006985I0000270J0000000D01*
G01X0012119Y0005035D02*
G03X0012113Y0005090I0000270J0000000D01*
G01X0011951Y0004785D02*
G03X0012119Y0005035I0000102J0000250D01*
G01X0010889Y0004035D02*
G03X0011057Y0003785I0000270J0000000D01*
G01X0011849Y0003265D02*
G03X0012119Y0003535I0000000J0000270D01*
G01X0011057Y0003785D02*
G03X0010972Y0003730I0000102J0000250D01*
G01X0009889Y0003765D02*
G03X0010076Y0003840I0000000J0000270D01*
G01X0008929Y0004035D02*
G03X0009199Y0003765I0000270J0000000D01*
G01X0009097Y0004285D02*
G03X0008929Y0004035I0000102J0000250D01*
G01X0012119Y0005535D02*
G03X0012112Y0005595I0000270J0000000D01*
G01X0007210Y0007460D02*
G03X0007079Y0007406I0000000J0000185D01*
G01X0006920Y0005712D02*
G03X0006835Y0005515I0000185J0000197D01*
G01X0006159Y0005716D02*
G03X0006356Y0005801I0000000J0000270D01*
G01X0007105Y0005245D02*
G03X0007248Y0005286I0000000J0000270D01*
G01X0007159Y0004486D02*
G03X0007429Y0004216I0000270J0000000D01*
G01X0006429Y0004486D02*
G03X0006423Y0004540I0000270J0000000D01*
G01X0005199Y0005986D02*
G03X0005469Y0005716I0000270J0000000D01*
Y0006756D02*
G03X0005199Y0006486I0000000J0000270D01*
G03X0005367Y0006236I0000270J0000000D01*
G01X0007164Y0004540D02*
G03X0007159Y0004486I0000265J0000054D01*
G01X0013170Y0009125D02*
G03X0013095Y0009312I0000270J0000000D01*
G01X0010651Y0007414D02*
G03X0010705Y0007545I0000131J0000131D01*
G01X0013605Y0003731D02*
G03X0013162Y0003488I0000000J0000525D01*
G01X0007098Y0003231D02*
G03X0007351Y0003501I0000018J0000270D01*
G01X0010849Y0003231D02*
G03X0011017Y0003305I0000019J0000269D01*
G01X0006405Y0006291D02*
G03X0006600Y0006486I0000000J0000195D01*
G01X0006350Y0000895D02*
G03X0006242Y0001111I0000270J0000000D01*
G01X0008417D02*
G03X0008905Y0000780I0000488J0000195D01*
G01X0010470Y0003840D02*
G03X0010608Y0003897I0000000J0000195D01*
G01X0010972Y0003730D02*
G03X0010830Y0003770I0000142J0000230D01*
G01X0010933Y0004222D02*
G03X0010987Y0004327I0000138J0000138D01*
G01X0010933Y0004222D02*
G03X0010987Y0004327I0000138J0000138D01*
G01X0012980Y0005090D02*
G03X0013118Y0005147I0000000J0000195D01*
G01X0012328Y0005090D02*
G03X0012310Y0004993I0000252J0000097D01*
G01X0013255Y0008781D02*
G03X0012812Y0008538I0000000J0000525D01*
G01X0012119Y0006535D02*
G03X0012104Y0006625I0000270J0000000D01*
G01X0013438Y0005467D02*
G03X0013495Y0005605I0000138J0000138D01*
G01X0013030Y0006675D02*
G03X0013105Y0006488I0000270J0000000D01*
G01X0013570Y0006675D02*
G03X0013300Y0006945I0000270J0000000D01*
G03X0013030Y0006675I0000000J0000270D01*
G01X0010310Y0003240D02*
G03X0010580Y0002970I0000270J0000000D01*
G03X0010849Y0003231I0000000J0000270D01*
G01X0010705Y0007623D02*
G03X0010790Y0007820I0000185J0000197D01*
G01X0004359Y0001575D02*
G03X0004382Y0001685I0000246J0000110D01*
G01X0006210Y0006751D02*
G03X0006159Y0006756I0000051J0000265D01*
G01X0006835Y0005515D02*
G03X0007105Y0005245I0000270J0000000D01*
G01X0005850Y0002746D02*
G03X0006100Y0003015I0000020J0000269D01*
G01X0009385Y0007670D02*
G03X0009485Y0007460I0000270J0000000D01*
G01X0001358Y0006643D02*
G03X0001227Y0006589I0000000J0000185D01*
G01X0000904Y0006266D02*
G03X0000850Y0006135I0000131J0000131D01*
G01X0011975Y0000490D02*
G03X0012245Y0000220I0000270J0000000D01*
G03X0012515Y0000490I0000000J0000270D01*
G03X0012245Y0000760I0000270J0000000D01*
G03X0011975Y0000490I0000000J0000270D01*
G01X0009850Y0002835D02*
G03X0009580Y0003105I0000270J0000000D01*
G01X0001629Y0005281D02*
G03X0001575Y0005150I0000131J0000131D01*
G01X0009349Y0002975D02*
G03X0009349Y0002989I0000269J0000014D01*
G01X0001280Y0005395D02*
G03X0001467Y0005470I0000000J0000270D01*
G01X0002998Y0009244D02*
G03X0002935Y0009255I0000063J0000174D01*
G01X0010987Y0004327D02*
G03X0011057Y0004285I0000172J0000208D01*
G01X0006056Y0007430D02*
G03X0006326Y0007700I0000000J0000270D01*
G01X0005140Y0003210D02*
G03X0005002Y0003153I0000000J0000195D01*
G01X0006267Y0007373D02*
G03X0006210Y0007235I0000138J0000138D01*
G01X0006100Y0003015D02*
G03X0005830Y0003285I0000270J0000000D01*
G01X0009393Y0007735D02*
G03X0009385Y0007670I0000262J0000065D01*
G01X0005830Y0003285D02*
G03X0005643Y0003210I0000000J0000270D01*
G01X0005995Y0007310D02*
G03X0005957Y0007449I0000270J0000000D01*
G01X0005024Y0004910D02*
G03X0005099Y0005097I0000194J0000187D01*
G01X0004550Y0004910D02*
G03X0004419Y0004856I0000000J0000185D01*
G01X0008918Y0004498D02*
G03X0008930Y0004511I0000138J0000138D01*
G03X0009097Y0004285I0000269J0000024D01*
G01X0001554Y0008881D02*
G03X0001500Y0008750I0000131J0000131D01*
G01X0007327Y0005236D02*
G03X0007159Y0004986I0000102J0000250D01*
G01X0011240Y0001710D02*
G03X0010905Y0001831I0000335J0000404D01*
G01X0014733Y0009970D02*
G03X0014658Y0010184I0000345J0000000D01*
G01X0015573Y0009876D02*
G03X0015658Y0010135I0000350J0000259D01*
G01X0012573Y0003906D02*
G03X0012472Y0003662I0000244J0000244D01*
G01X0004461Y0005419D02*
G03X0004515Y0005550I0000131J0000131D01*
G01X0008734Y0001802D02*
G03X0008417Y0001501I0000171J0000496D01*
G01X0005592Y0002127D02*
G03X0005322Y0002397I0000270J0000000D01*
G01X0005324Y0001857D02*
G03X0005592Y0002127I0000002J0000270D01*
G01X0002920Y0007170D02*
G03X0002977Y0007032I0000195J0000000D01*
G01X0015472Y0004585D02*
G03X0015573Y0004829I0000244J0000244D01*
G01X0011330Y0002725D02*
G03X0011143Y0002650I0000000J0000270D01*
G01X0009947Y0002700D02*
G03X0009952Y0002650I0000270J0000000D01*
G01X0010487Y0002700D02*
G03X0010217Y0002970I0000270J0000000D01*
G03X0009947Y0002700I0000000J0000270D01*
G01X0010228Y0002210D02*
G03X0010498Y0001940I0000270J0000000D01*
G03X0010768Y0002210I0000000J0000270D01*
G01X0010483Y0002650D02*
G03X0010488Y0002700I0000266J0000050D01*
G01X0010768Y0002210D02*
G03X0010763Y0002260I0000270J0000000D01*
G01X0012410Y0005595D02*
G03X0012548Y0005652I0000000J0000195D01*
G01X0012310Y0007645D02*
G03X0012360Y0007650I0000000J0000270D01*
G01X0012868Y0005972D02*
G03X0012925Y0006110I0000138J0000138D01*
G01X0012548Y0008803D02*
G03X0012483Y0008846I0000138J0000138D01*
G01X0012925Y0007847D02*
G03X0013255Y0007730I0000330J0000409D01*
G01X0010723Y0007997D02*
G03X0010766Y0008063I0000203J0000178D01*
G01X0006267Y0007373D02*
G03X0006210Y0007235I0000138J0000138D01*
G01X0006080Y0000625D02*
G03X0006350Y0000895I0000000J0000270D01*
G01X0001575Y0002912D02*
G03X0001524Y0002846I0000185J0000197D01*
G01X0002252Y0002376D02*
G03X0002228Y0002219I0000506J0000157D01*
G01X0013641Y0003729D02*
G03X0013605Y0003730I0000036J0000523D01*
G01X0006766Y0005801D02*
G03X0006896Y0005855I0000000J0000185D01*
G01X0006356Y0006171D02*
G03X0006261Y0006236I0000197J0000185D01*
G01X0007005Y0006410D02*
G03X0006874Y0006356I0000000J0000185D01*
G01X0006261Y0006236D02*
G03X0006346Y0006291I0000102J0000250D01*
G01X0007005Y0006410D02*
G03X0006874Y0006356I0000000J0000185D01*
G01X0007079Y0006594D02*
G03X0007210Y0006540I0000131J0000131D01*
G01X0006855Y0006895D02*
G03X0006909Y0006764I0000185J0000000D01*
Y0007236D02*
G03X0006855Y0007105I0000131J0000131D01*
G01X0010250Y0007090D02*
G03X0010381Y0007144I0000000J0000185D01*
G01X0007210Y0007460D02*
G03X0007079Y0007406I0000000J0000185D01*
G01X0006486Y0004356D02*
G03X0006415Y0004400I0000130J0000131D01*
G01X0006562Y0003231D02*
G03X0006830Y0002995I0000268J0000034D01*
G01X0008435Y0003560D02*
G03X0008492Y0003422I0000195J0000000D01*
G01X0007080Y0003771D02*
G03X0007071Y0003771I0000000J0000270D01*
G01X0006313Y0003540D02*
G03X0006310Y0003501I0000267J0000039D01*
G03X0006562Y0003231I0000270J0000000D01*
G01X0000904Y0006266D02*
G03X0000850Y0006135I0000131J0000131D01*
G01X0007915Y0001810D02*
G03X0008185Y0001540I0000270J0000000D01*
G03X0008455Y0001810I0000000J0000270D01*
G03X0008185Y0002080I0000270J0000000D01*
G03X0007915Y0001810I0000000J0000270D01*
G01X0009777Y0002650D02*
G03X0009850Y0002835I0000197J0000185D01*
G01X0012265Y0007035D02*
G03X0012070Y0007230I0000195J0000000D01*
G01X0012123Y0007720D02*
G03X0012310Y0007645I0000187J0000195D01*
G01X0005367Y0006236D02*
G03X0005199Y0005986I0000102J0000250D01*
G01X0003098Y0006911D02*
G03X0003236Y0006854I0000138J0000138D01*
G01X0002920Y0007170D02*
G03X0002977Y0007032I0000195J0000000D01*
G01X0012718Y0010608D02*
G03X0012580Y0010665I0000138J0000138D01*
G01X0012900Y0008855D02*
G03X0013170Y0009125I0000000J0000270D01*
G01X0012639Y0009054D02*
G03X0012900Y0008855I0000261J0000071D01*
G01X0012310Y0004993D02*
G03X0012580Y0004723I0000270J0000000D01*
G03X0012850Y0004993I0000000J0000270D01*
G03X0012832Y0005090I0000270J0000000D01*
G01X0009350Y0009215D02*
G03X0009428Y0009025I0000270J0000000D01*
G01X0013095Y0010150D02*
G03X0013038Y0010288I0000195J0000000D01*
G01X0007645Y0009976D02*
G03X0007860Y0009870I0000215J0000164D01*
G01X0009380Y0009806D02*
G03X0009509Y0009461I0000525J0000000D01*
G01X0002005Y0009255D02*
G03X0001874Y0009201I0000000J0000185D01*
G01X0001500Y0006975D02*
G03X0001554Y0006844I0000185J0000000D01*
Y0008881D02*
G03X0001500Y0008750I0000131J0000131D01*
G01X0002365Y0007135D02*
G03X0002635Y0006865I0000270J0000000D01*
G03X0002905Y0007135I0000000J0000270D01*
G03X0002635Y0007405I0000270J0000000D01*
G03X0002365Y0007135I0000000J0000270D01*
G01X0012483Y0008846D02*
G03X0012639Y0009054I0000328J0000410D01*
G01X0013939Y0002749D02*
G03X0013851Y0002742I0000000J0000530D01*
G01X0012868Y0005972D02*
G03X0012925Y0006110I0000138J0000138D01*
G01X0005893Y0000700D02*
G03X0006080Y0000625I0000187J0000195D01*
G01X0004831Y0002981D02*
G03X0004627Y0003160I0000256J0000086D01*
G01X0008918Y0004498D02*
G03X0008930Y0004511I0000138J0000138D01*
G01X0008119Y0004216D02*
G03X0008306Y0004291I0000000J0000270D01*
G01X0012036Y0007230D02*
G03X0011849Y0007305I0000187J0000195D01*
G01X0012104Y0006625D02*
G03X0012138Y0006652I0000104J0000165D01*
G01X0011330Y0002185D02*
G03X0011600Y0002455I0000000J0000270D01*
G03X0011330Y0002725I0000270J0000000D01*
G01X0011143Y0002260D02*
G03X0011330Y0002185I0000187J0000195D01*
Y0002725D02*
G03X0011143Y0002650I0000000J0000270D01*
G01X0009007Y0002317D02*
G03X0009145Y0002260I0000138J0000138D01*
G01X0009080Y0003259D02*
G03X0009020Y0003252I0000000J0000270D01*
G01X0008664Y0002664D02*
G03X0008687Y0002637I0000161J0000111D01*
G01X0008630Y0003186D02*
G03X0008580Y0003191I0000050J0000265D01*
G01X0008435Y0003560D02*
G03X0008492Y0003422I0000195J0000000D01*
G01X0009020Y0003365D02*
G03X0008963Y0003503I0000195J0000000D01*
G01X0007860Y0009870D02*
G03X0008130Y0010140I0000000J0000270D01*
G03X0008094Y0010275I0000270J0000000D01*
G01X0011330Y0002185D02*
G03X0011600Y0002455I0000000J0000270D01*
G03X0011330Y0002725I0000270J0000000D01*
G01X0011143Y0002260D02*
G03X0011330Y0002185I0000187J0000195D01*
G01X0012104Y0006625D02*
G03X0012138Y0006652I0000104J0000165D01*
G01X0010790Y0007820D02*
G03X0010723Y0007997I0000270J0000000D01*
G01X0006486Y0004356D02*
G03X0006415Y0004400I0000130J0000131D01*
G01X0007350Y0003501D02*
G03X0007080Y0003771I0000270J0000000D01*
G01X0006830Y0002995D02*
G03X0007097Y0003231I0000000J0000270D01*
G01X0002998Y0009244D02*
G03X0002935Y0009255I0000063J0000174D01*
G01X0013851Y0002742D02*
G03X0014130Y0003206I0000246J0000464D01*
G01X0012113Y0005480D02*
G03X0012119Y0005535I0000264J0000055D01*
G01X0013495Y0006488D02*
G03X0013570Y0006675I0000195J0000187D01*
G01X0013438Y0005467D02*
G03X0013495Y0005605I0000138J0000138D01*
G01X0010560Y0003509D02*
G03X0010310Y0003240I0000020J0000269D01*
G01X0012119Y0003535D02*
G03X0011951Y0003785I0000270J0000000D01*
G01X0012119Y0004035D02*
G03X0011951Y0004285I0000270J0000000D01*
G01X0012119Y0004535D02*
G03X0011951Y0004785I0000270J0000000D01*
G01X0012208Y0006722D02*
G03X0012265Y0006860I0000138J0000138D01*
G01X0011057Y0004285D02*
G03X0010889Y0004035I0000102J0000250D01*
G01X0010830Y0003770D02*
G03X0010560Y0003509I0000000J0000270D01*
G01X0011052Y0007777D02*
G03X0011190Y0007720I0000138J0000138D01*
G01X0011951Y0004285D02*
G03X0012119Y0004535I0000102J0000250D01*
G01X0010233Y0002260D02*
G03X0010228Y0002210I0000265J0000050D01*
G01X0009420Y0001407D02*
G03X0008973Y0001826I0000515J0000101D01*
G01X0009669Y0010275D02*
G03X0009380Y0009806I0000236J0000469D01*
G54D98*
G01X0015228Y0005231D02*
Y0006835D01*
Y0007022D01*
Y0010130D01*
X0015223Y0010135D01*
X0015228Y0005231D02*
Y0006835D01*
X0014388Y0005231D02*
Y0006835D01*
Y0007023D01*
Y0009970D01*
X0014223Y0010135D01*
X0014388Y0005231D02*
Y0006835D01*
X0012805Y0002356D02*
X0012817Y0002368D01*
Y0003662D01*
X0014386Y0005231D01*
X0014388D01*
X0015228D02*
Y0004829D01*
X0013605Y0003206D01*
G54D10*
X0003538Y0010222D03*
Y0009802D03*
X0006813Y0010252D03*
Y0009832D03*
G54D12*
X0015223Y0010135D03*
G54D13*
X0014223D03*
G54D20*
X0009544Y0006535D03*
Y0006035D03*
Y0005535D03*
Y0005035D03*
Y0004535D03*
Y0004035D03*
Y0003535D03*
X0011504D03*
Y0004035D03*
Y0004535D03*
Y0005035D03*
Y0005535D03*
Y0006035D03*
Y0006535D03*
Y0007035D03*
X0005814Y0006486D03*
Y0005986D03*
Y0005486D03*
Y0004986D03*
Y0004486D03*
Y0003986D03*
Y0003486D03*
X0007774D03*
Y0003986D03*
Y0004486D03*
Y0004986D03*
Y0005486D03*
Y0005986D03*
Y0006486D03*
Y0006986D03*
G54D21*
X0009544Y0007035D03*
X0005814Y0006986D03*
G54D26*
X0002382Y0000395D03*
Y0008190D03*
G54D27*
X0003662Y0001143D03*
Y0001340D03*
Y0001537D03*
Y0001734D03*
Y0001931D03*
Y0002127D03*
Y0002324D03*
Y0002521D03*
Y0002718D03*
Y0002915D03*
Y0003112D03*
Y0003309D03*
Y0003505D03*
Y0003702D03*
Y0003899D03*
Y0004096D03*
Y0004293D03*
Y0004490D03*
Y0004686D03*
Y0004883D03*
Y0005080D03*
Y0005277D03*
Y0005474D03*
Y0005671D03*
Y0005868D03*
Y0006064D03*
Y0006261D03*
Y0006458D03*
Y0006655D03*
Y0006852D03*
Y0007049D03*
Y0007246D03*
Y0007442D03*
G54D50*
X0013267Y0009555D03*
X0013310Y0010445D03*
X0015530Y0004065D03*
X0015200Y0003225D03*
Y0001045D03*
X0012680Y0001505D03*
X0004380Y0006800D03*
X0007494Y0009895D03*
X0000420Y0003905D03*
X0000400Y0004845D03*
Y0005665D03*
X0013610Y0001045D03*
X0002162Y0008835D03*
X0006872Y0009290D03*
X0003532Y0009412D03*
X0004830Y0005097D03*
G54D52*
X0005264Y0008743D03*
Y0010212D03*
G54D53*
X0004530Y0009477D03*
Y0008977D03*
X0005999D03*
Y0009477D03*
Y0009977D03*
G54D54*
X0004530D03*
G54D55*
X0002758Y0002219D03*
X0013939D03*
G54D65*
X0004575Y0002895D03*
X0007860Y0010140D03*
X0011330Y0002455D03*
X0006627Y0008155D03*
X0006534Y0005486D03*
X0006799Y0005015D03*
X0006265Y0008155D03*
X0001525Y0005215D03*
X0003211Y0001537D03*
X0009345Y0003215D03*
X0007865Y0002676D03*
X0008095Y0003166D03*
X0006479Y0005015D03*
X0006550Y0003020D03*
X0011320Y0008420D03*
X0008380Y0008175D03*
X0010520D03*
X0003211Y0002970D03*
X0007080Y0003501D03*
X0006830Y0003265D03*
X0003210Y0003309D03*
X0006580Y0003501D03*
X0001280Y0005665D03*
X0008185Y0001810D03*
X0002175Y0004645D03*
X0008439Y0005315D03*
X0012310Y0007915D03*
X0003115Y0008400D03*
X0005772D03*
X0007120Y0010470D03*
X0012900Y0009125D03*
X0012580Y0004993D03*
X0009620Y0009215D03*
X0004380Y0010535D03*
X0006510Y0010557D03*
X0002635Y0007135D03*
X0012330Y0003501D03*
X0011320Y0007669D03*
X0006045Y0007306D03*
X0002870Y0006890D03*
X0003211Y0006205D03*
X0005322Y0002127D03*
X0011605Y0010169D03*
X0010210Y0005035D03*
X0010217Y0002700D03*
X0010498Y0002210D03*
X0010145Y0008910D03*
X0006080Y0000895D03*
X0002740Y0005910D03*
X0010520Y0007820D03*
X0010830Y0003500D03*
X0010145Y0007930D03*
X0004339Y0001306D03*
X0002250Y0001143D03*
X0013300Y0006675D03*
X0010580Y0003240D03*
X0010520Y0006540D03*
X0007105Y0005515D03*
X0002400Y0005977D03*
X0005580Y0002750D03*
X0009655Y0007670D03*
X0003530Y0007700D03*
X0001035Y0000490D03*
X0012245D03*
X0009580Y0002835D03*
X0001760Y0002715D03*
X0010455Y0005545D03*
X0010765Y0008665D03*
X0006056Y0007700D03*
X0005830Y0003015D03*
X0008439Y0004995D03*
X0002805Y0004090D03*
X0004113Y0001685D03*
X0005725Y0007310D03*
X0002805Y0004410D03*
X0005055Y0001882D03*
X0002175Y0004970D03*
X0009080Y0002989D03*
X0002570Y0003765D03*
X0008580Y0002921D03*
G54D81*
X0008830Y0002055D03*
X0002410Y0003445D03*
G54D94*
X0015228Y0005231D03*
X0014388D03*
X0015228Y0007023D03*
X0014388D03*
G54D95*
X0013605Y0003206D03*
X0013255Y0008256D03*
X0012155Y0009256D03*
X0011105Y0009706D03*
X0009905Y0009806D03*
X0008705Y0009706D03*
X0007655Y0009256D03*
X0008905Y0001306D03*
X0009905Y0001206D03*
X0010905Y0001306D03*
X0011755Y0001606D03*
G54D96*
X0012805Y0002356D03*
M02*
