*
%LPD*%
%LNNECK_DISPLAY-5.IN2*%
%FSLAX24Y24*%
%MOIN*%
%AD*%
%ADD28C,0.012000*%
%ADD64C,0.010000*%
%ADD65C,0.008000*%
%ADD74C,0.007000*%
%ADD105C,0.042000*%
%ADD106R,0.042000X0.042000*%
%ADD107R,0.040000X0.051200*%
%ADD108C,0.040000*%
%ADD109C,0.094500*%
%ADD114C,0.025000*%
%ADD115C,0.025000*%
%ADD116C,0.025000*%
%ADD155C,0.025000*%
G54D28*
%SRX1Y1I0.0J0.0*%
G1X14090Y2510D2*
G1X14090Y1890D1*
G1X11890Y7250D2*
G1X12700Y6440D1*
G1X13460Y6440D1*
G1X13840Y6820D1*
G1X14470Y6820D1*
G1X14800Y6490D1*
G1X15670Y6490D1*
G1X16840Y5320D1*
G1X16840Y2090D1*
G1X16680Y1930D1*
G1X16020Y1930D1*
G1X15990Y1900D1*
G1X15990Y750D1*
G1X16217Y523D1*
G1X16650Y523D1*
G1X14850Y4690D2*
G1X14410Y4690D1*
G1X14090Y4370D1*
G1X14090Y2510D1*
G1X14090Y1890D2*
G1X14090Y2510D1*
G1X11890Y7250D2*
G1X11860Y7250D1*
G1X11540Y6930D1*
G1X20540Y13490D2*
G1X20250Y13490D1*
G1X20250Y13380D1*
G1X20100Y13230D1*
G1X19880Y13230D1*
G1X19715Y13395D1*
G1X18556Y13395D1*
G1X18120Y13831D1*
G1X18120Y16470D1*
G1X18200Y16550D1*
G1X18570Y16550D1*
G1X11540Y7250D2*
G1X11540Y6930D1*
G1X18570Y16230D2*
G1X18310Y15970D1*
G1X18310Y13909D1*
G1X18634Y13585D1*
G1X19895Y13585D1*
G1X19990Y13490D1*
G1X11870Y7896D2*
G54D64*
G1X11870Y6030D1*
G1X17970Y2070D2*
G1X15980Y2070D1*
G1X13195Y7290D2*
G1X12826Y7290D1*
G1X17970Y5332D2*
G1X17970Y4516D1*
G1X15091Y8010D2*
G1X14505Y8010D1*
G1X17940Y5940D2*
G1X15570Y5940D1*
G1X15470Y7714D2*
G1X15470Y7517D1*
G1X13130Y8240D2*
G1X13130Y7588D1*
G1X13490Y6932D2*
G1X13490Y6030D1*
G1X13338Y7200D2*
G1X10970Y7200D1*
G1X17900Y463D2*
G1X17900Y270D1*
G1X17970Y3060D2*
G1X16330Y3060D1*
G1X13310Y8240D2*
G1X13310Y7722D1*
G1X13400Y8240D2*
G1X13400Y7720D1*
G1X15995Y7885D2*
G1X15995Y7580D1*
G1X15640Y8240D2*
G1X15995Y7885D1*
G1X15560Y8240D2*
G1X15560Y7474D1*
G1X17970Y5130D2*
G1X16330Y5130D1*
G1X12410Y7411D2*
G1X12410Y6030D1*
G1X12418Y7380D2*
G1X10970Y7380D1*
G1X14083Y7830D2*
G1X10970Y7830D1*
G1X14660Y8066D2*
G1X14660Y6030D1*
G1X14300Y6108D2*
G1X14300Y6030D1*
G1X16100Y7150D2*
G1X16100Y5410D1*
G1X16980Y1640D2*
G1X16320Y1640D1*
G1X16320Y980D1*
G1X16980Y980D2*
G1X16320Y980D1*
G1X16980Y1640D2*
G1X16980Y980D1*
G1X11040Y8240D2*
G1X10981Y8240D1*
G1X11258Y6390D2*
G1X10970Y6390D1*
G1X15480Y6030D2*
G1X16330Y5180D1*
G1X16330Y2540D2*
G1X15980Y2540D1*
G1X15980Y270D1*
G1X17540Y996D2*
G1X17540Y836D1*
G1X17970Y1620D2*
G1X17550Y1620D1*
G1X17937Y360D2*
G1X17724Y360D1*
G1X17970Y313D2*
G1X17970Y270D1*
G1X17357Y990D2*
G1X16980Y990D1*
G1X16320Y540D2*
G1X15980Y540D1*
G1X17630Y1042D2*
G1X17630Y790D1*
G1X16328Y450D2*
G1X15980Y450D1*
G1X17450Y980D2*
G1X17450Y852D1*
G1X17360Y989D2*
G1X17360Y843D1*
G1X17270Y6610D2*
G1X17270Y1594D1*
G1X17090Y6790D2*
G1X17090Y270D1*
G1X16438Y270D2*
G1X15980Y270D1*
G1X17970Y3870D2*
G1X17644Y3870D1*
G1X16820Y980D2*
G1X16820Y805D1*
G1X16730Y980D2*
G1X16730Y843D1*
G1X16640Y980D2*
G1X16640Y852D1*
G1X16550Y980D2*
G1X16550Y837D1*
G1X16370Y3106D2*
G1X16370Y1640D1*
G1X16280Y7182D2*
G1X16280Y5230D1*
G1X16190Y2540D2*
G1X16190Y270D1*
G1X16100Y2540D2*
G1X16100Y270D1*
G1X16010Y2540D2*
G1X16010Y270D1*
G1X17970Y4950D2*
G1X16330Y4950D1*
G1X17970Y3780D2*
G1X16330Y3780D1*
G1X15995Y7740D2*
G1X15495Y7740D1*
G1X11415Y6120D2*
G1X10970Y6120D1*
G1X10970Y8232D2*
G1X10970Y6040D1*
G1X13220Y8240D2*
G1X13220Y7687D1*
G1X15780Y8100D2*
G1X15451Y8100D1*
G1X11330Y8240D2*
G1X11330Y6526D1*
G1X11556Y8240D2*
G1X11040Y8240D1*
G1X17970Y5850D2*
G1X15660Y5850D1*
G1X15066Y7920D2*
G1X14491Y7920D1*
G1X12410Y8240D2*
G1X12410Y7509D1*
G1X12495Y7650D2*
G1X10970Y7650D1*
G1X16550Y3208D2*
G1X16550Y1640D1*
G1X12590Y8240D2*
G1X12590Y7697D1*
G1X11299Y6210D2*
G1X10970Y6210D1*
G1X12500Y6775D2*
G1X12500Y6030D1*
G1X13850Y7314D2*
G1X13850Y6030D1*
G1X11420Y8240D2*
G1X11420Y6581D1*
G1X13670Y8240D2*
G1X13670Y8169D1*
G1X14052Y6480D2*
G1X11707Y6480D1*
G1X14018Y6390D2*
G1X11742Y6390D1*
G1X16883Y756D2*
G1X16650Y523D1*
G1X15480Y6030D2*
G1X11396Y6030D1*
G1X11292Y6480D2*
G1X10970Y6480D1*
G1X17452Y4320D2*
G1X16330Y4320D1*
G1X12140Y8240D2*
G1X12140Y6030D1*
G1X11150Y8240D2*
G1X11150Y6040D1*
G1X11526Y8100D2*
G1X10970Y8100D1*
G1X17918Y5760D2*
G1X15750Y5760D1*
G1X17970Y2520D2*
G1X15980Y2520D1*
G1X17970Y2790D2*
G1X16330Y2790D1*
G1X17270Y1025D2*
G1X17270Y807D1*
G1X17970Y2970D2*
G1X16330Y2970D1*
G1X17310Y6570D2*
G1X14368Y6570D1*
G1X16385Y720D2*
G1X15980Y720D1*
G1X16338Y630D2*
G1X15980Y630D1*
G1X15973Y7560D2*
G1X15424Y7560D1*
G1X15920Y7960D2*
G1X15920Y7474D1*
G1X12486Y6840D2*
G1X10970Y6840D1*
G1X14840Y8240D2*
G1X14840Y6030D1*
G1X15470Y8240D2*
G1X15470Y8085D1*
G1X15380Y8240D2*
G1X15380Y8135D1*
G1X15290Y8240D2*
G1X15290Y8144D1*
G1X15200Y8240D2*
G1X15200Y8119D1*
G1X15110Y8240D2*
G1X15110Y8041D1*
G1X15995Y7830D2*
G1X15545Y7830D1*
G1X17970Y3600D2*
G1X16330Y3600D1*
G1X17318Y4140D2*
G1X16330Y4140D1*
G1X17970Y1080D2*
G1X17674Y1080D1*
G1X17970Y2880D2*
G1X16330Y2880D1*
G1X17580Y6300D2*
G1X14500Y6300D1*
G1X14030Y7906D2*
G1X14030Y6434D1*
G1X13666Y8100D2*
G1X12014Y8100D1*
G1X15020Y8240D2*
G1X15020Y7725D1*
G1X15640Y8240D2*
G1X14782Y8240D1*
G1X13379Y7020D2*
G1X12915Y7020D1*
G1X17275Y810D2*
G1X16812Y810D1*
G1X17173Y720D2*
G1X16914Y720D1*
G1X17125Y630D2*
G1X16962Y630D1*
G1X17108Y540D2*
G1X16979Y540D1*
G1X17115Y450D2*
G1X16972Y450D1*
G1X17150Y360D2*
G1X16937Y360D1*
G1X17225Y270D2*
G1X16862Y270D1*
G1X16910Y980D2*
G1X16910Y726D1*
G1X16370Y980D2*
G1X16370Y697D1*
G1X17970Y1100D2*
G1X17970Y732D1*
G1X17970Y810D2*
G1X17599Y810D1*
G1X17900Y1251D2*
G1X17900Y582D1*
G1X17900Y5374D2*
G1X17900Y4563D1*
G1X17970Y1530D2*
G1X17683Y1530D1*
G1X16280Y2540D2*
G1X16280Y270D1*
G1X17960Y720D2*
G1X17702Y720D1*
G1X17912Y630D2*
G1X17749Y630D1*
G1X17895Y540D2*
G1X17767Y540D1*
G1X17903Y450D2*
G1X17759Y450D1*
G1X17720Y1140D2*
G1X17720Y693D1*
G1X17970Y270D2*
G1X17649Y270D1*
G1X17180Y1103D2*
G1X17180Y729D1*
G1X17720Y352D2*
G1X17720Y270D1*
G1X17970Y3960D2*
G1X17761Y3960D1*
G1X17921Y1440D2*
G1X17740Y1440D1*
G1X17897Y1350D2*
G1X17765Y1350D1*
G1X17898Y1260D2*
G1X17763Y1260D1*
G1X17926Y1170D2*
G1X17736Y1170D1*
G1X17970Y4140D2*
G1X17941Y4140D1*
G1X16919Y6961D2*
G1X17970Y5910D1*
G1X17970Y3690D2*
G1X16330Y3690D1*
G1X17970Y990D2*
G1X17518Y990D1*
G1X17720Y3914D2*
G1X17720Y1480D1*
G1X17360Y6520D2*
G1X17360Y4241D1*
G1X17180Y6700D2*
G1X17180Y1516D1*
G1X17324Y1620D2*
G1X16980Y1620D1*
G1X17191Y1530D2*
G1X16980Y1530D1*
G1X17134Y1440D2*
G1X16980Y1440D1*
G1X17110Y1350D2*
G1X16980Y1350D1*
G1X17111Y1260D2*
G1X16980Y1260D1*
G1X17138Y1170D2*
G1X16980Y1170D1*
G1X17201Y1080D2*
G1X16980Y1080D1*
G1X17360Y3958D2*
G1X17360Y1631D1*
G1X16910Y6944D2*
G1X16910Y1640D1*
G1X16820Y6856D2*
G1X16820Y1640D1*
G1X16730Y6827D2*
G1X16730Y1640D1*
G1X16640Y6832D2*
G1X16640Y1640D1*
G1X16330Y3106D2*
G1X16330Y2540D1*
G1X16460Y980D2*
G1X16460Y792D1*
G1X16417Y756D2*
G1X16650Y523D1*
G1X16910Y319D2*
G1X16910Y270D1*
G1X16363Y360D2*
G1X15980Y360D1*
G1X17970Y2430D2*
G1X15980Y2430D1*
G1X17970Y3420D2*
G1X16585Y3420D1*
G1X17841Y5670D2*
G1X15840Y5670D1*
G1X17970Y1800D2*
G1X15980Y1800D1*
G1X17970Y1710D2*
G1X15980Y1710D1*
G1X14175Y6120D2*
G1X11584Y6120D1*
G1X12050Y8240D2*
G1X12050Y6030D1*
G1X17352Y4230D2*
G1X16330Y4230D1*
G1X17850Y6030D2*
G1X15480Y6030D1*
G1X17970Y4590D2*
G1X16330Y4590D1*
G1X15290Y7066D2*
G1X15290Y6030D1*
G1X11628Y7920D2*
G1X10970Y7920D1*
G1X15380Y7037D2*
G1X15380Y6030D1*
G1X15168Y8100D2*
G1X14706Y8100D1*
G1X15110Y7305D2*
G1X15110Y6030D1*
G1X15918Y7470D2*
G1X15565Y7470D1*
G1X15233Y7110D2*
G1X13820Y7110D1*
G1X17900Y4116D2*
G1X17900Y1369D1*
G1X17970Y4860D2*
G1X16330Y4860D1*
G1X15560Y7086D2*
G1X15560Y5950D1*
G1X15470Y7042D2*
G1X15470Y6030D1*
G1X17970Y2610D2*
G1X16330Y2610D1*
G1X15038Y7740D2*
G1X10970Y7740D1*
G1X13940Y7877D2*
G1X13940Y6030D1*
G1X15200Y7154D2*
G1X15200Y6030D1*
G1X17540Y3856D2*
G1X17540Y1623D1*
G1X15650Y8230D2*
G1X15650Y7329D1*
G1X17816Y5580D2*
G1X15930Y5580D1*
G1X17970Y2250D2*
G1X15980Y2250D1*
G1X17450Y3881D2*
G1X17450Y1640D1*
G1X17450Y6430D2*
G1X17450Y4319D1*
G1X11392Y6570D2*
G1X10970Y6570D1*
G1X12230Y8240D2*
G1X12230Y6030D1*
G1X13400Y6994D2*
G1X13400Y6030D1*
G1X17400Y6480D2*
G1X14467Y6480D1*
G1X16320Y1440D2*
G1X15980Y1440D1*
G1X15075Y7830D2*
G1X14436Y7830D1*
G1X14750Y8154D2*
G1X14750Y6030D1*
G1X14120Y6149D2*
G1X14120Y6030D1*
G1X14030Y6265D2*
G1X14030Y6030D1*
G1X12405Y7470D2*
G1X10970Y7470D1*
G1X14152Y6570D2*
G1X11608Y6570D1*
G1X14480Y6242D2*
G1X14480Y6030D1*
G1X14020Y6300D2*
G1X11740Y6300D1*
G1X14059Y6210D2*
G1X11701Y6210D1*
G1X11260Y6300D2*
G1X10970Y6300D1*
G1X14210Y6110D2*
G1X14210Y6030D1*
G1X12860Y6652D2*
G1X12860Y6030D1*
G1X12770Y6618D2*
G1X12770Y6030D1*
G1X12680Y6620D2*
G1X12680Y6030D1*
G1X12590Y6659D2*
G1X12590Y6030D1*
G1X12860Y8240D2*
G1X12860Y7586D1*
G1X12680Y8240D2*
G1X12680Y7703D1*
G1X11600Y6126D2*
G1X11600Y6030D1*
G1X12473Y7290D2*
G1X10970Y7290D1*
G1X17490Y6390D2*
G1X14502Y6390D1*
G1X17720Y6160D2*
G1X17720Y4571D1*
G1X17630Y6250D2*
G1X17630Y4516D1*
G1X17810Y6070D2*
G1X17810Y4585D1*
G1X17540Y6340D2*
G1X17540Y4344D1*
G1X16615Y6840D2*
G1X12974Y6840D1*
G1X11510Y8240D2*
G1X11510Y6595D1*
G1X11510Y6105D2*
G1X11510Y6030D1*
G1X12500Y8240D2*
G1X12500Y7654D1*
G1X11330Y6173D2*
G1X11330Y6040D1*
G1X12770Y8240D2*
G1X12770Y7673D1*
G1X11240Y8240D2*
G1X11240Y6040D1*
G1X12544Y7020D2*
G1X10970Y7020D1*
G1X17670Y6210D2*
G1X14461Y6210D1*
G1X17760Y6120D2*
G1X14344Y6120D1*
G1X16488Y810D2*
G1X15980Y810D1*
G1X14930Y8240D2*
G1X14930Y6030D1*
G1X15926Y7290D2*
G1X15655Y7290D1*
G1X15995Y7200D2*
G1X15641Y7200D1*
G1X16458Y7110D2*
G1X15586Y7110D1*
G1X15165Y7290D2*
G1X13825Y7290D1*
G1X15178Y7200D2*
G1X13822Y7200D1*
G1X16460Y7020D2*
G1X13781Y7020D1*
G1X16499Y6930D2*
G1X13664Y6930D1*
G1X17565Y4410D2*
G1X16330Y4410D1*
G1X15920Y7305D2*
G1X15920Y5590D1*
G1X11690Y6195D2*
G1X11690Y6030D1*
G1X12950Y6752D2*
G1X12950Y6030D1*
G1X17130Y6750D2*
G1X12949Y6750D1*
G1X12511Y6750D2*
G1X10970Y6750D1*
G1X17220Y6660D2*
G1X12871Y6660D1*
G1X13040Y8240D2*
G1X13040Y6030D1*
G1X13173Y7650D2*
G1X12805Y7650D1*
G1X13118Y7560D2*
G1X12873Y7560D1*
G1X13105Y7470D2*
G1X12895Y7470D1*
G1X13126Y7380D2*
G1X12881Y7380D1*
G1X17359Y3960D2*
G1X16330Y3960D1*
G1X11600Y7943D2*
G1X11600Y6573D1*
G1X11060Y8240D2*
G1X11060Y6040D1*
G1X12588Y6660D2*
G1X10970Y6660D1*
G1X12950Y8240D2*
G1X12950Y6968D1*
G1X11690Y7888D2*
G1X11690Y6505D1*
G1X11340Y6040D2*
G1X10970Y6040D1*
G1X11420Y6118D2*
G1X11420Y6030D1*
G1X13760Y6994D2*
G1X13760Y6030D1*
G1X13670Y6932D2*
G1X13670Y6030D1*
G1X13580Y8240D2*
G1X13580Y7708D1*
G1X13580Y6915D2*
G1X13580Y6030D1*
G1X13310Y7238D2*
G1X13310Y6030D1*
G1X13220Y7272D2*
G1X13220Y6030D1*
G1X13130Y7372D2*
G1X13130Y6030D1*
G1X12500Y7266D2*
G1X12500Y6944D1*
G1X16370Y348D2*
G1X16370Y270D1*
G1X12495Y6930D2*
G1X10970Y6930D1*
G1X12860Y7334D2*
G1X12860Y7067D1*
G1X12770Y7246D2*
G1X12770Y7102D1*
G1X12680Y7217D2*
G1X12680Y7100D1*
G1X12590Y7222D2*
G1X12590Y7061D1*
G1X12426Y7560D2*
G1X10970Y7560D1*
G1X16460Y3131D2*
G1X16460Y1640D1*
G1X17900Y5980D2*
G1X17900Y5745D1*
G1X17825Y5490D2*
G1X16020Y5490D1*
G1X16950Y6930D2*
G1X16901Y6930D1*
G1X17040Y6840D2*
G1X16784Y6840D1*
G1X14390Y6142D2*
G1X14390Y6030D1*
G1X17320Y4050D2*
G1X16330Y4050D1*
G1X17970Y5310D2*
G1X16200Y5310D1*
G1X17970Y2700D2*
G1X16330Y2700D1*
G1X17970Y4050D2*
G1X17800Y4050D1*
G1X17970Y4163D2*
G1X17970Y1520D1*
G1X17630Y3865D2*
G1X17630Y1578D1*
G1X12320Y8240D2*
G1X12320Y6030D1*
G1X14210Y7760D2*
G1X14210Y6590D1*
G1X14390Y7792D2*
G1X14390Y6557D1*
G1X14300Y7758D2*
G1X14300Y6592D1*
G1X13490Y8240D2*
G1X13490Y7681D1*
G1X14120Y7799D2*
G1X14120Y6551D1*
G1X14480Y7892D2*
G1X14480Y6458D1*
G1X11551Y8010D2*
G1X10970Y8010D1*
G1X17970Y1980D2*
G1X15980Y1980D1*
G1X17475Y3870D2*
G1X16330Y3870D1*
G1X17970Y1890D2*
G1X15980Y1890D1*
G1X17970Y2160D2*
G1X15980Y2160D1*
G1X13340Y7110D2*
G1X10970Y7110D1*
G1X17180Y316D2*
G1X17180Y270D1*
G1X15960Y7920D2*
G1X15554Y7920D1*
G1X13495Y6930D2*
G1X12965Y6930D1*
G1X15870Y8010D2*
G1X15529Y8010D1*
G1X14994Y7380D2*
G1X13893Y7380D1*
G1X17614Y4500D2*
G1X16330Y4500D1*
G1X15020Y7354D2*
G1X15020Y6030D1*
G1X14570Y8037D2*
G1X14570Y6030D1*
G1X13850Y7882D2*
G1X13850Y7646D1*
G1X13760Y7926D2*
G1X13760Y7708D1*
G1X16320Y1530D2*
G1X15980Y1530D1*
G1X15690Y8190D2*
G1X14768Y8190D1*
G1X14961Y7650D2*
G1X13846Y7650D1*
G1X14936Y7560D2*
G1X13901Y7560D1*
G1X14945Y7470D2*
G1X13915Y7470D1*
G1X13670Y8071D2*
G1X13670Y7725D1*
G1X13696Y8240D2*
G1X11983Y8240D1*
G1X13675Y8190D2*
G1X12005Y8190D1*
G1X13691Y8010D2*
G1X11989Y8010D1*
G1X13768Y7920D2*
G1X11911Y7920D1*
G1X11960Y7965D2*
G1X11960Y6030D1*
G1X11535Y8190D2*
G1X10970Y8190D1*
G1X11780Y7875D2*
G1X11780Y6030D1*
G1X15995Y7650D2*
G1X15399Y7650D1*
G1X17970Y5910D2*
G1X17970Y5788D1*
G1X17874Y5400D2*
G1X16110Y5400D1*
G1X17810Y4095D2*
G1X17810Y270D1*
G1X17970Y5220D2*
G1X16290Y5220D1*
G1X16010Y7189D2*
G1X16010Y5500D1*
G1X15905Y7380D2*
G1X15633Y7380D1*
G1X15740Y8140D2*
G1X15740Y5770D1*
G1X15830Y8050D2*
G1X15830Y5680D1*
G1X15650Y7231D2*
G1X15650Y5860D1*
G1X17970Y4770D2*
G1X16330Y4770D1*
G1X17970Y4680D2*
G1X16330Y4680D1*
G1X17970Y2340D2*
G1X15980Y2340D1*
G1X16320Y1350D2*
G1X15980Y1350D1*
G1X16320Y1260D2*
G1X15980Y1260D1*
G1X16320Y1170D2*
G1X15980Y1170D1*
G1X16320Y1080D2*
G1X15980Y1080D1*
G1X16320Y990D2*
G1X15980Y990D1*
G1X17970Y900D2*
G1X15980Y900D1*
G1X16320Y1620D2*
G1X15980Y1620D1*
G1X17970Y3330D2*
G1X16594Y3330D1*
G1X17970Y3240D2*
G1X16569Y3240D1*
G1X17970Y3150D2*
G1X16491Y3150D1*
G1X17970Y3510D2*
G1X16535Y3510D1*
G1X16330Y5180D2*
G1X16330Y3594D1*
G1X16550Y6876D2*
G1X16550Y3491D1*
G1X16460Y7021D2*
G1X16460Y3569D1*
G1X17970Y5040D2*
G1X16330Y5040D1*
G1X17000Y6880D2*
G1X17000Y270D1*
G1X16370Y7136D2*
G1X16370Y3594D1*
G1X16190Y7148D2*
G1X16190Y5320D1*
G1X14900Y5160D2*
G1X14900Y3190D1*
G1X14396Y5160D2*
G1X14373Y5160D1*
G1X16090Y3570D2*
G1X13460Y3570D1*
G1X13730Y5120D2*
G1X13730Y2936D1*
G1X13640Y1464D2*
G1X13640Y960D1*
G1X14540Y5070D2*
G1X14540Y1861D1*
G1X14600Y1950D2*
G1X13946Y1950D1*
G1X14180Y5036D2*
G1X14180Y960D1*
G1X13730Y1932D2*
G1X13730Y960D1*
G1X14600Y1140D2*
G1X13460Y1140D1*
G1X14000Y1994D2*
G1X14000Y960D1*
G1X14360Y1406D2*
G1X14360Y960D1*
G1X13640Y5120D2*
G1X13640Y2998D1*
G1X14600Y2310D2*
G1X14014Y2310D1*
G1X14600Y2220D2*
G1X14057Y2220D1*
G1X16090Y5010D2*
G1X13460Y5010D1*
G1X16090Y4920D2*
G1X13460Y4920D1*
G1X16090Y4830D2*
G1X13460Y4830D1*
G1X16090Y4740D2*
G1X13460Y4740D1*
G1X16090Y4650D2*
G1X13460Y4650D1*
G1X16090Y4560D2*
G1X13460Y4560D1*
G1X16090Y4470D2*
G1X13460Y4470D1*
G1X16090Y4380D2*
G1X13460Y4380D1*
G1X16090Y4290D2*
G1X13460Y4290D1*
G1X16090Y4200D2*
G1X13460Y4200D1*
G1X16090Y4110D2*
G1X13460Y4110D1*
G1X16090Y4020D2*
G1X13460Y4020D1*
G1X16090Y3930D2*
G1X13460Y3930D1*
G1X16090Y3840D2*
G1X13460Y3840D1*
G1X16090Y3210D2*
G1X13575Y3210D1*
G1X13550Y3112D2*
G1X13550Y3015D1*
G1X16090Y3750D2*
G1X13460Y3750D1*
G1X16090Y3480D2*
G1X13460Y3480D1*
G1X16090Y3390D2*
G1X13506Y3390D1*
G1X16090Y3660D2*
G1X13460Y3660D1*
G1X14220Y1680D2*
G1X13700Y1680D1*
G1X14600Y3120D2*
G1X13553Y3120D1*
G1X14600Y3030D2*
G1X13485Y3030D1*
G1X14600Y2940D2*
G1X13726Y2940D1*
G1X14600Y2850D2*
G1X13781Y2850D1*
G1X14600Y2670D2*
G1X13773Y2670D1*
G1X13910Y1932D2*
G1X13910Y960D1*
G1X16090Y5100D2*
G1X14716Y5100D1*
G1X14600Y2580D2*
G1X13705Y2580D1*
G1X14600Y2490D2*
G1X13460Y2490D1*
G1X14450Y5109D2*
G1X14450Y1875D1*
G1X15980Y5160D2*
G1X15980Y3190D1*
G1X13694Y1950D2*
G1X13460Y1950D1*
G1X14600Y1410D2*
G1X14568Y1410D1*
G1X14600Y1320D2*
G1X13460Y1320D1*
G1X13460Y3012D2*
G1X13460Y2998D1*
G1X14600Y2760D2*
G1X13795Y2760D1*
G1X13974Y5120D2*
G1X13460Y5120D1*
G1X14600Y2400D2*
G1X13869Y2400D1*
G1X13606Y2040D2*
G1X13460Y2040D1*
G1X14810Y5160D2*
G1X14810Y3190D1*
G1X14259Y1770D2*
G1X13661Y1770D1*
G1X14375Y1860D2*
G1X13544Y1860D1*
G1X13460Y1385D2*
G1X13460Y960D1*
G1X14600Y1429D2*
G1X14600Y960D1*
G1X16070Y5160D2*
G1X16070Y3190D1*
G1X14600Y1860D2*
G1X14544Y1860D1*
G1X14090Y5045D2*
G1X14090Y960D1*
G1X14600Y1050D2*
G1X13460Y1050D1*
G1X13550Y1402D2*
G1X13550Y960D1*
G1X16090Y3300D2*
G1X13561Y3300D1*
G1X13771Y2400D2*
G1X13460Y2400D1*
G1X13582Y2220D2*
G1X13460Y2220D1*
G1X16090Y5160D2*
G1X14784Y5160D1*
G1X16090Y5160D2*
G1X16090Y3190D1*
G1X14600Y3190D1*
G1X14270Y5061D2*
G1X14270Y1785D1*
G1X14600Y960D2*
G1X13460Y960D1*
G1X13577Y2130D2*
G1X13460Y2130D1*
G1X14218Y1590D2*
G1X13702Y1590D1*
G1X15890Y5160D2*
G1X15890Y3190D1*
G1X15800Y5160D2*
G1X15800Y3190D1*
G1X15710Y5160D2*
G1X15710Y3190D1*
G1X15620Y5160D2*
G1X15620Y3190D1*
G1X15530Y5160D2*
G1X15530Y3190D1*
G1X15440Y5160D2*
G1X15440Y3190D1*
G1X15350Y5160D2*
G1X15350Y3190D1*
G1X15260Y5160D2*
G1X15260Y3190D1*
G1X15170Y5160D2*
G1X15170Y3190D1*
G1X15080Y5160D2*
G1X15080Y3190D1*
G1X14990Y5160D2*
G1X14990Y3190D1*
G1X14450Y1385D2*
G1X14450Y960D1*
G1X13640Y1994D2*
G1X13640Y1796D1*
G1X13460Y2542D2*
G1X13460Y1875D1*
G1X13550Y2525D2*
G1X13550Y1858D1*
G1X13460Y5120D2*
G1X13460Y3427D1*
G1X13550Y5120D2*
G1X13550Y3328D1*
G1X14352Y1410D2*
G1X13568Y1410D1*
G1X14630Y5068D2*
G1X14630Y3190D1*
G1X13820Y1915D2*
G1X13820Y960D1*
G1X13730Y2604D2*
G1X13730Y2388D1*
G1X14000Y5094D2*
G1X14000Y2326D1*
G1X13910Y5120D2*
G1X13910Y2388D1*
G1X13640Y2542D2*
G1X13640Y2326D1*
G1X13820Y5120D2*
G1X13820Y2405D1*
G1X13626Y2310D2*
G1X13460Y2310D1*
G1X13994Y5100D2*
G1X13460Y5100D1*
G1X14600Y2130D2*
G1X14063Y2130D1*
G1X14252Y1500D2*
G1X13667Y1500D1*
G1X14464Y5100D2*
G1X14326Y5100D1*
G1X14360Y5138D2*
G1X14360Y1853D1*
G1X14600Y3190D2*
G1X14600Y1831D1*
G1X14600Y1230D2*
G1X13460Y1230D1*
G1X14540Y1398D2*
G1X14540Y960D1*
G1X14600Y2040D2*
G1X14033Y2040D1*
G1X14270Y1475D2*
G1X14270Y960D1*
G1X14720Y5102D2*
G1X14720Y3190D1*
G1X17315Y4100D2*
G75*
G3X17560Y3855I245J0D1*
G1X16455Y7070D2*
G3X16700Y6825I245J0D1*
G1X17970Y4516D2*
G3X17800Y4585I-170J-176D1*
G1X16700Y6825D2*
G3X16919Y6961I0J245D1*
G1X17315Y4100D2*
G3X17560Y3855I245J0D1*
G3X17804Y4095I0J245D1*
G1X17560Y4345D2*
G3X17315Y4100I0J-245D1*
G1X13665Y8120D2*
G3X13910Y7875I245J0D1*
G1X13350Y7725D2*
G3X13105Y7480I0J-245D1*
G1X15905Y7390D2*
G3X16150Y7145I245J0D1*
G1X16459Y7115D2*
G3X16455Y7070I241J-44D1*
G1X16150Y7145D2*
G3X16293Y7191I0J245D1*
G1X13915Y7480D2*
G3X13670Y7725I-245J0D1*
G1X13105Y7480D2*
G3X13347Y7235I245J0D1*
G1X11525Y8120D2*
G3X11770Y7875I245J0D1*
G3X12015Y8120I0J245D1*
G3X11983Y8240I-245J-1D1*
G1X11556Y8240D2*
G3X11525Y8120I214J-119D1*
G1X17815Y5560D2*
G3X17970Y5332I245J0D1*
G1X15166Y7295D2*
G3X15166Y7280I245J-7D1*
G1X15065Y7900D2*
G3X15101Y7772I245J0D1*
G1X15555Y7900D2*
G3X15310Y8145I-245J0D1*
G3X15065Y7900I0J-245D1*
G1X13910Y7875D2*
G3X14033Y7908I0J245D1*
G1X17805Y4095D2*
G3X17970Y4163I-5J245D1*
G1X16320Y523D2*
G3X16438Y270I330J0D1*
G1X16980Y523D2*
G3X16650Y853I-330J0D1*
G3X16320Y523I0J-330D1*
G1X16862Y270D2*
G3X16980Y523I-212J253D1*
G1X17895Y523D2*
G3X17970Y313I330J0D1*
G1X17970Y732D2*
G3X17895Y523I255J-209D1*
G1X17895Y1310D2*
G3X17970Y1100I330J0D1*
G1X17970Y1520D2*
G3X17895Y1310I255J-210D1*
G1X17107Y523D2*
G3X17225Y270I330J0D1*
G1X17767Y523D2*
G3X17437Y853I-330J0D1*
G3X17107Y523I0J-330D1*
G1X17107Y1310D2*
G3X17437Y980I330J0D1*
G3X17767Y1310I0J330D1*
G3X17437Y1640I-330J0D1*
G3X17107Y1310I0J-330D1*
G1X15101Y7772D2*
G3X14935Y7540I79J-232D1*
G1X14505Y8000D2*
G3X14502Y8038I-245J0D1*
G1X16293Y7191D2*
G3X16459Y7115I178J169D1*
G1X13510Y7665D2*
G3X13350Y7725I-161J-185D1*
G1X13347Y7235D2*
G3X13335Y7160I233J-76D1*
G1X13670Y7725D2*
G3X13510Y7665I1J-245D1*
G1X13696Y8240D2*
G3X13665Y8120I214J-119D1*
G1X17560Y3855D2*
G3X17804Y4095I0J245D1*
G1X10970Y8232D2*
G3X10981Y8240I-139J202D1*
G1X17970Y4516D2*
G3X17800Y4585I-170J-176D1*
G3X17555Y4345I0J-245D1*
G1X14502Y8038D2*
G3X14540Y8035I38J242D1*
G1X17800Y4585D2*
G3X17555Y4345I0J-245D1*
G1X17805Y4095D2*
G3X17970Y4163I-5J245D1*
G1X17649Y270D2*
G3X17767Y523I-212J253D1*
G1X15995Y7580D2*
G3X15905Y7390I155J-190D1*
G1X16350Y3105D2*
G3X16595Y3350I0J245D1*
G3X16350Y3595I-245J0D1*
G1X14260Y7755D2*
G3X14505Y8000I0J245D1*
G1X14033Y7908D2*
G3X14260Y7755I227J92D1*
G3X14505Y8000I0J245D1*
G3X14502Y8038I-245J0D1*
G1X14033Y7908D2*
G3X14260Y7755I227J92D1*
G1X14015Y6350D2*
G3X14260Y6105I245J0D1*
G3X14505Y6350I0J245D1*
G3X14260Y6595I-245J0D1*
G3X14015Y6350I0J-245D1*
G3X14260Y6105I245J0D1*
G3X14505Y6350I0J245D1*
G3X14260Y6595I-245J0D1*
G3X14015Y6350I0J-245D1*
G1X12485Y6860D2*
G3X12730Y6615I245J0D1*
G3X12975Y6860I0J245D1*
G3X12730Y7105I-245J0D1*
G3X12485Y6860I0J-245D1*
G3X12730Y6615I245J0D1*
G3X12975Y6860I0J245D1*
G3X12730Y7105I-245J0D1*
G3X12485Y6860I0J-245D1*
G1X11255Y6350D2*
G3X11500Y6105I245J0D1*
G3X11745Y6350I0J245D1*
G3X11500Y6595I-245J0D1*
G3X11255Y6350I0J-245D1*
G3X11500Y6105I245J0D1*
G3X11745Y6350I0J245D1*
G3X11500Y6595I-245J0D1*
G3X11255Y6350I0J-245D1*
G1X15165Y7280D2*
G3X15410Y7035I245J0D1*
G3X15655Y7280I0J245D1*
G3X15424Y7524I-245J0D1*
G1X13335Y7160D2*
G3X13580Y6915I245J0D1*
G3X13825Y7160I0J245D1*
G3X13798Y7271I-245J-1D1*
G1X14935Y7540D2*
G3X15165Y7295I245J0D1*
G1X15425Y7540D2*
G3X15389Y7668I-245J0D1*
G1X17970Y5788D2*
G3X17815Y5560I90J-228D1*
G1X11396Y6030D2*
G3X11340Y6040I-56J-150D1*
G1X15389Y7668D2*
G3X15555Y7900I-79J232D1*
G1X12405Y7460D2*
G3X12650Y7215I245J0D1*
G3X12895Y7460I0J245D1*
G3X12650Y7705I-245J0D1*
G3X12405Y7460I0J-245D1*
G1X14540Y8035D2*
G3X14782Y8240I0J245D1*
G1X15424Y7524D2*
G3X15425Y7540I-244J23D1*
G1X13798Y7271D2*
G3X13915Y7480I-128J209D1*
G1X17560Y4345D2*
G3X17315Y4100I0J-245D1*
G1X16350Y3595D2*
G3X16330Y3594I2J-245D1*
G1X16330Y3106D2*
G3X16350Y3105I22J244D1*
G1X14160Y5035D2*
G3X14373Y5160I0J245D1*
G1X14396Y5160D2*
G3X14590Y5065I194J150D1*
G1X14396Y5160D2*
G3X14590Y5065I194J150D1*
G1X13460Y1385D2*
G3X13705Y1630I0J245D1*
G1X14215Y1630D2*
G3X14460Y1385I245J0D1*
G1X13705Y1630D2*
G3X13460Y1875I-245J0D1*
G1X14460Y1385D2*
G3X14600Y1429I0J245D1*
G1X14460Y1875D2*
G3X14215Y1630I0J-245D1*
G1X14600Y1831D2*
G3X14460Y1875I-140J-201D1*
G1X13460Y3012D2*
G3X13575Y3220I-130J208D1*
G1X14215Y1630D2*
G3X14460Y1385I245J0D1*
G1X13575Y3220D2*
G3X13460Y3427I-245J-1D1*
G1X14460Y1385D2*
G3X14600Y1429I0J245D1*
G1X14460Y1875D2*
G3X14215Y1630I0J-245D1*
G1X14590Y5065D2*
G3X14784Y5160I0J245D1*
G1X14590Y5065D2*
G3X14784Y5160I0J245D1*
G1X13575Y2160D2*
G3X13820Y1915I245J0D1*
G3X14065Y2160I0J245D1*
G3X13820Y2405I-245J0D1*
G3X13575Y2160I0J-245D1*
G1X13550Y2525D2*
G3X13795Y2770I0J245D1*
G3X13550Y3015I-245J0D1*
G1X13460Y2542D2*
G3X13550Y2525I90J228D1*
G1X14600Y1831D2*
G3X14460Y1875I-140J-201D1*
G1X13550Y3015D2*
G3X13460Y2998I0J-245D1*
G1X13974Y5120D2*
G3X14160Y5035I186J160D1*
G74*
G1X7880Y8680D2*
G54D65*
G1X7960Y8600D1*
G1X8360Y8600D1*
G1X8580Y8380D1*
G1X8580Y7760D1*
G1X9840Y6500D1*
G1X9840Y6000D1*
G1X9960Y5880D1*
G1X11340Y5880D1*
G1X11940Y5280D1*
G1X14160Y5280D1*
G1X2050Y7910D2*
G1X2050Y7675D1*
G1X2175Y7550D1*
G1X2175Y6849D1*
G1X2584Y6440D1*
G1X4219Y6440D1*
G1X4540Y6119D1*
G1X4540Y5820D1*
G1X4320Y5600D1*
G1X3680Y5600D1*
G1X3680Y5580D1*
G1X14550Y10390D2*
G1X14490Y10390D1*
G1X14300Y10200D1*
G1X14300Y10080D1*
G1X13770Y9550D1*
G1X13620Y9550D1*
G1X2450Y7910D2*
G1X2450Y7675D1*
G1X2325Y7550D1*
G1X2325Y6911D1*
G1X2646Y6590D1*
G1X4281Y6590D1*
G1X4690Y6181D1*
G1X4690Y5100D1*
G1X5010Y4780D1*
G1X5550Y4780D1*
G1X6480Y9400D2*
G1X6890Y8990D1*
G1X6890Y6580D1*
G1X9160Y4310D1*
G1X4930Y4280D2*
G1X5975Y4280D1*
G1X6295Y3960D1*
G1X6295Y1950D1*
G1X6210Y1865D1*
G1X6210Y1630D1*
G1X6890Y4280D2*
G1X6445Y3835D1*
G1X6445Y1950D1*
G1X6530Y1865D1*
G1X6530Y1630D1*
G1X12570Y16500D2*
G54D74*
G1X13290Y16500D1*
G1X13640Y16150D1*
G1X13640Y15900D1*
G1X14910Y14630D1*
G1X14910Y13330D1*
G1X14590Y13010D1*
G1X11410Y13010D1*
G1X11090Y12690D1*
G1X11090Y10070D1*
G1X10490Y9470D1*
G1X10490Y6570D1*
G1X10160Y6240D1*
G1X14980Y16520D2*
G1X15420Y16080D1*
G1X15420Y11910D1*
G1X15830Y11500D1*
G1X15830Y10760D1*
G1X16010Y10580D1*
G1X16010Y9930D1*
G1X16080Y9860D1*
G1X16080Y8720D1*
G1X16010Y8650D1*
G1X16010Y8440D1*
G1X17730Y8440D1*
G1X6630Y14340D2*
G1X5950Y14340D1*
G1X5830Y14460D1*
G1X5830Y17130D1*
G1X5510Y17450D1*
G1X4820Y17450D1*
G1X16450Y11000D2*
G1X16450Y11230D1*
G1X16310Y11370D1*
G1X16310Y12530D1*
G1X6100Y7930D2*
G1X6090Y7930D1*
G1X5890Y8130D1*
G1X5890Y9640D1*
G1X6790Y10540D1*
G1X7040Y10540D1*
G1X7350Y9400D2*
G1X7350Y8580D1*
G1X9640Y6290D1*
G1X9640Y4580D1*
G1X9910Y4310D1*
G1X10160Y4310D1*
G1X13880Y10140D2*
G1X14320Y10580D1*
G1X14320Y12310D1*
G1X11500Y1630D2*
G1X11500Y3530D1*
G1X11180Y3850D1*
G1X9730Y3850D1*
G1X9410Y4170D1*
G1X9410Y5340D1*
G1X4340Y13990D2*
G1X4340Y14220D1*
G1X4270Y14290D1*
G1X4270Y15820D1*
G1X9700Y16390D2*
G1X10610Y16390D1*
G1X11230Y17010D1*
G1X20050Y17010D1*
G1X21130Y15930D1*
G1X21130Y7670D1*
G1X20810Y7350D1*
G1X19840Y7350D1*
G1X19520Y7670D1*
G1X19520Y7930D1*
G1X20620Y7720D2*
G1X20070Y7720D1*
G1X19750Y8040D1*
G1X19750Y9600D1*
G1X16270Y13080D1*
G1X16270Y16430D1*
G1X15950Y16750D1*
G1X12310Y16750D1*
G1X12310Y15640D1*
G1X10050Y15640D1*
G1X9940Y15750D1*
G1X9710Y15750D1*
G1X15680Y13990D2*
G1X16030Y13640D1*
G1X16030Y10960D1*
G1X16510Y10480D1*
G1X17060Y10480D1*
G1X4870Y12950D2*
G1X4870Y16420D1*
G1X5100Y12600D2*
G1X3740Y12600D1*
G1X3570Y12770D1*
G1X3570Y16380D1*
G1X3250Y16700D1*
G1X930Y16700D1*
G1X610Y17020D1*
G1X610Y17950D1*
G1X17730Y8440D2*
G1X16010Y8440D1*
G1X16010Y8320D1*
G1X16150Y8180D1*
G1X16150Y7390D1*
G1X12030Y16200D2*
G1X11710Y15880D1*
G1X10410Y15880D1*
G1X10310Y15980D1*
G1X9600Y15980D1*
G1X9480Y15860D1*
G1X9480Y15170D1*
G1X9800Y14850D1*
G1X10460Y14850D1*
G1X10600Y14710D1*
G1X14410Y14710D1*
G1X14440Y14680D1*
G1X14440Y13750D1*
G1X14120Y13430D1*
G1X11270Y13430D1*
G1X10950Y13110D1*
G1X10950Y10520D1*
G1X10010Y9580D1*
G1X10010Y7510D1*
G1X9910Y7410D1*
G1X9910Y7020D1*
G1X9840Y6950D1*
G1X9830Y6950D1*
G1X14130Y14340D2*
G1X14130Y13910D1*
G1X13120Y13910D1*
G1X13040Y13830D1*
G1X5550Y13830D1*
G1X5500Y13780D1*
G1X5500Y11130D1*
G1X5450Y11080D1*
G1X4550Y11080D1*
G1X4500Y11030D1*
G1X4500Y10760D1*
G1X4450Y10710D1*
G1X340Y10710D1*
G1X6520Y13470D2*
G1X6520Y11710D1*
G1X6690Y11540D1*
G1X7040Y11540D1*
G1X10130Y14340D2*
G1X10130Y14710D1*
G1X9380Y14710D1*
G1X9330Y14760D1*
G1X9330Y16340D1*
G1X9280Y16390D1*
G1X8570Y16390D1*
G1X8520Y16440D1*
G1X8520Y16830D1*
G1X8500Y16850D1*
G1X8430Y16850D1*
G1X8380Y16800D1*
G1X8380Y16410D1*
G1X8360Y16390D1*
G1X8290Y16390D1*
G1X8240Y16440D1*
G1X8240Y16830D1*
G1X8220Y16850D1*
G1X8150Y16850D1*
G1X8100Y16800D1*
G1X8100Y16410D1*
G1X8080Y16390D1*
G1X8010Y16390D1*
G1X7960Y16440D1*
G1X7960Y16780D1*
G1X7940Y16800D1*
G1X7870Y16800D1*
G1X7820Y16750D1*
G1X7820Y16410D1*
G1X7800Y16390D1*
G1X7730Y16390D1*
G1X7680Y16440D1*
G1X7680Y16690D1*
G1X7660Y16710D1*
G1X7590Y16710D1*
G1X7540Y16660D1*
G1X7540Y16410D1*
G1X7520Y16390D1*
G1X7450Y16390D1*
G1X7400Y16440D1*
G1X7400Y16690D1*
G1X7380Y16710D1*
G1X7310Y16710D1*
G1X7260Y16660D1*
G1X7260Y16410D1*
G1X7240Y16390D1*
G1X7170Y16390D1*
G1X7120Y16440D1*
G1X7120Y16690D1*
G1X7100Y16710D1*
G1X7030Y16710D1*
G1X6980Y16660D1*
G1X6980Y16410D1*
G1X6960Y16390D1*
G1X6890Y16390D1*
G1X6840Y16440D1*
G1X6840Y16720D1*
G1X6820Y16740D1*
G1X6750Y16740D1*
G1X6700Y16690D1*
G1X6700Y15820D1*
G1X7260Y15880D2*
G1X7260Y15985D1*
G1X7385Y16110D1*
G1X7470Y16110D1*
G1X7490Y16090D1*
G1X7490Y15740D1*
G1X7510Y15720D1*
G1X7580Y15720D1*
G1X7630Y15770D1*
G1X7630Y16060D1*
G1X7680Y16110D1*
G1X8810Y16110D1*
G1X8860Y16060D1*
G1X8860Y14850D1*
G1X13130Y14340D2*
G1X13130Y14290D1*
G1X13040Y14200D1*
G1X12940Y14200D1*
G1X12940Y13970D1*
G1X6370Y13970D1*
G1X6320Y14020D1*
G1X6320Y14150D1*
G1X6270Y14200D1*
G1X6070Y14200D1*
G1X6020Y14150D1*
G1X6020Y14050D1*
G1X6000Y14030D1*
G1X5930Y14030D1*
G1X5880Y14080D1*
G1X5880Y14180D1*
G1X5860Y14200D1*
G1X5790Y14200D1*
G1X5740Y14150D1*
G1X5740Y14040D1*
G1X5720Y14020D1*
G1X5650Y14020D1*
G1X5600Y14070D1*
G1X5600Y14490D1*
G1X6060Y14570D2*
G1X6060Y15240D1*
G1X6380Y15560D1*
G1X6810Y15560D1*
G1X6980Y15730D1*
G1X6980Y15930D1*
G1X7300Y16250D1*
G1X8880Y16250D1*
G1X9100Y16030D1*
G1X9100Y15190D1*
G1X8130Y14340D2*
G1X8130Y15580D1*
G1X8430Y15880D1*
G1X9910Y2740D2*
G1X8830Y2740D1*
G1X5100Y6470D1*
G1X5100Y10400D1*
G1X3880Y12830D2*
G1X3880Y17640D1*
G1X4200Y17960D1*
G1X4820Y17960D1*
G1X3200Y15910D2*
G1X3200Y11410D1*
G1X3150Y11360D1*
G1X1340Y11360D1*
G1X5990Y18270D2*
G1X5990Y18000D1*
G1X5670Y17680D1*
G1X4710Y17680D1*
G1X4590Y17560D1*
G1X4590Y17300D1*
G1X5330Y16560D1*
G1X5330Y12460D1*
G1X5160Y12290D1*
G1X4640Y12290D1*
G1X12760Y10640D2*
G1X12830Y10710D1*
G1X12830Y10870D1*
G1X13000Y11040D1*
G1X13000Y12140D1*
G54D105*
G1X17437Y1310D3*
G1X17437Y523D3*
G1X18225Y1310D3*
G1X18225Y523D3*
G1X19012Y1310D3*
G1X19012Y523D3*
G1X16650Y523D3*
G54D106*
G1X16650Y1310D3*
G54D107*
G1X6630Y14340D3*
G1X7130Y14340D3*
G1X7630Y14340D3*
G1X8130Y14340D3*
G1X8630Y14340D3*
G1X9130Y14340D3*
G1X9630Y14340D3*
G1X10130Y14340D3*
G1X10630Y14340D3*
G1X11130Y14340D3*
G1X11630Y14340D3*
G1X12130Y14340D3*
G1X12630Y14340D3*
G1X13130Y14340D3*
G1X13630Y14340D3*
G1X14130Y14340D3*
G54D108*
G1X7040Y12540D3*
G1X7040Y12040D3*
G1X7040Y11540D3*
G1X7040Y11040D3*
G1X7040Y10540D3*
G1X7040Y10040D3*
G1X11450Y12550D3*
G1X11950Y12550D3*
G1X12450Y12550D3*
G1X12950Y12550D3*
G1X13450Y12550D3*
G1X13950Y12550D3*
G54D109*
G1X10230Y12600D3*
G1X8261Y11616D3*
G1X10230Y10631D3*
G54D114*
G1X12760Y10640D3*
G1X13000Y12140D3*
G1X7910Y5110D3*
G54D115*
G1X15410Y7280D3*
G1X13580Y7160D3*
G1X15180Y7540D3*
G1X3710Y9200D3*
G1X10990Y1630D3*
G1X1680Y18270D3*
G1X2720Y18270D3*
G1X2440Y3740D3*
G1X2210Y4300D3*
G1X2210Y4920D3*
G1X10660Y5340D3*
G1X14090Y1890D3*
G1X12650Y7460D3*
G1X11190Y5540D3*
G1X-980Y9450D3*
G1X12570Y16500D3*
G1X10160Y6240D3*
G1X3690Y7500D3*
G1X14550Y9880D3*
G1X16470Y7360D3*
G1X6020Y2370D3*
G1X13820Y2160D3*
G1X17800Y4340D3*
G1X19850Y16240D3*
G1X4340Y9070D3*
G1X1820Y13760D3*
G1X16700Y7070D3*
G1X14830Y10110D3*
G1X14980Y16520D3*
G1X6410Y6960D3*
G1X260Y12290D3*
G1X17560Y4100D3*
G1X7560Y13470D3*
G1X12250Y17390D3*
G1X9160Y6240D3*
G1X2050Y7910D3*
G1X4690Y9000D3*
G1X17290Y16520D3*
G1X16680Y11300D3*
G1X1820Y9230D3*
G1X12060Y3110D3*
G1X18400Y9870D3*
G1X4820Y17450D3*
G1X14670Y9000D3*
G1X6280Y12270D3*
G1X16450Y11000D3*
G1X16310Y12530D3*
G1X3480Y3780D3*
G1X13910Y8120D3*
G1X380Y17070D3*
G1X21040Y16520D3*
G1X14680Y13990D3*
G1X15680Y12310D3*
G1X2450Y7910D3*
G1X6100Y7930D3*
G1X19390Y13070D3*
G1X19990Y12450D3*
G1X16860Y11900D3*
G1X9710Y17190D3*
G1X18510Y8180D3*
G1X7350Y9400D3*
G1X10160Y4310D3*
G1X17730Y9490D3*
G1X16250Y10140D3*
G1X5100Y13200D3*
G1X13880Y10140D3*
G1X14320Y12310D3*
G1X10660Y4280D3*
G1X13350Y7480D3*
G1X20540Y12450D3*
G1X18630Y9610D3*
G1X8770Y2370D3*
G1X9360Y1630D3*
G1X11500Y1630D3*
G1X9410Y5340D3*
G1X14550Y12640D3*
G1X13480Y10790D3*
G1X9660Y2970D3*
G1X10960Y2690D3*
G1X8410Y4310D3*
G1X4340Y13990D3*
G1X4270Y15820D3*
G1X9700Y16390D3*
G1X19520Y7930D3*
G1X20540Y13490D3*
G1X18570Y16550D3*
G1X10410Y3340D3*
G1X20620Y7720D3*
G1X9710Y15750D3*
G1X250Y10360D3*
G1X9470Y12620D3*
G1X7900Y15820D3*
G1X17270Y8110D3*
G1X15680Y13990D3*
G1X17060Y10480D3*
G1X4870Y12950D3*
G1X4870Y16420D3*
G1X18940Y16780D3*
G1X1110Y10080D3*
G1X5100Y12600D3*
G1X610Y17950D3*
G1X17730Y8440D3*
G1X16150Y7390D3*
G1X12030Y16200D3*
G1X9830Y6950D3*
G1X8160Y6240D3*
G1X250Y7910D3*
G1X7240Y17620D3*
G1X110Y11050D3*
G1X340Y10710D3*
G1X10620Y2880D3*
G1X12000Y10540D3*
G1X6520Y13470D3*
G1X6700Y15820D3*
G1X7260Y15880D3*
G1X8860Y14850D3*
G1X270Y15820D3*
G1X6290Y14850D3*
G1X7820Y13240D3*
G1X260Y13860D3*
G1X800Y13990D3*
G1X10990Y16110D3*
G1X800Y13230D3*
G1X5600Y14490D3*
G1X340Y13000D3*
G1X2480Y11940D3*
G1X6060Y14570D3*
G1X9100Y15190D3*
G1X4110Y13300D3*
G1X14900Y12510D3*
G1X14850Y4690D3*
G1X5300Y5350D3*
G1X8430Y15880D3*
G1X6400Y10710D3*
G1X15190Y12310D3*
G1X4500Y15090D3*
G1X5100Y13520D3*
G1X15350Y11050D3*
G1X3430Y11710D3*
G1X9910Y2740D3*
G1X5100Y10400D3*
G1X3080Y9910D3*
G1X15350Y10580D3*
G1X6480Y9400D3*
G1X9160Y4310D3*
G1X18570Y16230D3*
G1X19990Y13490D3*
G1X9780Y7980D3*
G1X13670Y7480D3*
G1X10780Y9260D3*
G1X11770Y8120D3*
G1X3880Y12830D3*
G1X4820Y17960D3*
G1X9370Y17960D3*
G1X6890Y5280D3*
G1X11030Y8930D3*
G1X4930Y4280D3*
G1X6210Y1630D3*
G1X6890Y4280D3*
G1X6530Y1630D3*
G1X11830Y4740D3*
G1X11220Y8530D3*
G1X5550Y4780D3*
G1X3490Y4300D3*
G1X3200Y15910D3*
G1X1340Y11360D3*
G1X5990Y18270D3*
G1X4640Y12290D3*
G54D116*
G1X1510Y13990D3*
G1X4640Y13300D3*
G1X-670Y5910D3*
G1X3400Y9070D3*
G1X9200Y17640D3*
G1X16350Y3350D3*
G1X11880Y1630D3*
G1X15850Y18040D3*
G1X16880Y17950D3*
G1X7020Y15190D3*
G1X13250Y11880D3*
G1X13110Y10650D3*
G1X12200Y1630D3*
G1X13460Y1630D3*
G1X12460Y2410D3*
G1X14260Y8000D3*
G1X12830Y2370D3*
G1X13330Y3220D3*
G1X4130Y16450D3*
G1X6190Y15820D3*
G1X6250Y16520D3*
G1X2840Y15340D3*
G1X2750Y17950D3*
G1X2840Y16950D3*
G1X980Y15270D3*
G1X1180Y16320D3*
G1X-1330Y17600D3*
G1X20900Y12000D3*
G1X20050Y11340D3*
G1X12030Y17690D3*
G1X15210Y10040D3*
G1X17270Y9720D3*
G1X18280Y12490D3*
G1X18510Y11560D3*
G1X14680Y14520D3*
G1X14260Y6350D3*
G1X12730Y6860D3*
G1X17700Y6580D3*
G1X19480Y6570D3*
G1X11500Y6350D3*
G1X10170Y6950D3*
G1X17500Y9230D3*
G1X18890Y9350D3*
G1X20900Y8770D3*
G1X20620Y8540D3*
G1X7020Y16950D3*
G1X7070Y3020D3*
G1X7910Y4310D3*
G1X16500Y15380D3*
G1X16930Y15600D3*
G1X20140Y17570D3*
G1X19390Y15380D3*
G1X12770Y11880D3*
G1X8950Y17170D3*
G1X8310Y8890D3*
G1X8250Y8330D3*
G1X6100Y5800D3*
G1X5580Y1860D3*
G1X13090Y1630D3*
G1X7570Y18270D3*
G1X7640Y17620D3*
G1X14460Y1630D3*
G1X7110Y18260D3*
G1X2720Y17540D3*
G1X1500Y16330D3*
G1X1190Y13760D3*
G1X870Y15590D3*
G1X13810Y10780D3*
G1X14260Y16120D3*
G1X14030Y15840D3*
G1X11640Y10770D3*
G1X12200Y11890D3*
G1X14590Y5310D3*
G54D155*
G1X15750Y10370D3*
G1X15680Y14360D3*
G1X10460Y15270D3*
G1X10880Y14940D3*
G1X3680Y5580D3*
G1X16910Y16520D3*
G1X13400Y15210D3*
G1X13040Y16230D3*
G1X16290Y18090D3*
G1X12600Y15850D3*
G1X12590Y17450D3*
G1X12590Y17800D3*
G1X19220Y7660D3*
G1X19220Y9700D3*
G1X18060Y5560D3*
G1X18300Y6320D3*
G1X19940Y5580D3*
G1X20570Y10350D3*
G1X5300Y5720D3*
G1X15840Y4680D3*
G1X15340Y4670D3*
G1X14090Y2510D3*
G1X4100Y5860D3*
G1X11160Y18260D3*
G1X11580Y18420D3*
G1X10840Y18380D3*
G1X20780Y9960D3*
G1X15310Y7900D3*
G1X10840Y8440D3*
G1X9080Y10810D3*
G1X9080Y11670D3*
G1X7960Y17620D3*
G1X11540Y6930D3*
G1X11890Y7250D3*
G1X11540Y7250D3*
G1X5770Y2630D3*
G1X13550Y2770D3*
G1X6280Y8320D3*
G1X14550Y10390D3*
G1X13620Y9550D3*
G1X7880Y8680D3*
G1X14160Y5280D3*
G1X14540Y8280D3*
G1X14740Y8560D3*
G1X15809Y8869D3*
G1X15090Y8869D3*
G1X3350Y7500D3*
G1X12842Y8960D3*
G1X13200Y8810D3*
G1X13160Y9277D3*
G1X12690Y9310D3*
G1X14030Y16370D3*
M2*
