%
T1C0.0080F200S100
X-001330Y017600
X-000980Y009450
X-000670Y005910
X000110Y011050
X000250Y007910
X000250Y010360
X000260Y012290
X000260Y013860
X000270Y015820
X000340Y010710
X000340Y013000
X000380Y017070
X000610Y017950
X000800Y013230
X000800Y013990
X000870Y015590
X000980Y015270
X001110Y010080
X001180Y016320
X001190Y013760
X001340Y011360
X001500Y016330
X001510Y013990
X001680Y018270
X001820Y009230
X002050Y007910
X001820Y013760
X002210Y004300
X002440Y003740
X002210Y004920
X002450Y007910
X002480Y011940
X002720Y017540
X002750Y017950
X002720Y018270
X002840Y015340
X002840Y016950
X003080Y009910
X003200Y015910
X003350Y007500
X003400Y009070
X003430Y011710
X003480Y003780
X003490Y004300
X003680Y005580
X003690Y007500
X003710Y009200
X003880Y012830
X004100Y005860
X004110Y013300
X004130Y016450
X004270Y015820
X004340Y009070
X004340Y013990
X004500Y015090
X004640Y012290
X004640Y013300
X004690Y009000
X004820Y017450
X004820Y017960
X004870Y012950
X004870Y016420
X004930Y004280
X005100Y010400
X005100Y012600
X005100Y013200
X005100Y013520
X005300Y005350
X005300Y005720
X005550Y004780
X005580Y001860
X005600Y014490
X005770Y002630
X005990Y018270
X006020Y002370
X006060Y014570
X006100Y005800
X006100Y007930
X006190Y015820
X006210Y001630
X006250Y016520
X006280Y008320
X006280Y012270
X006290Y014850
X006400Y010710
X006410Y006960
X006480Y009400
X006520Y013470
X006530Y001630
X006700Y015820
X006890Y004280
X006890Y005280
X007020Y015190
X007020Y016950
X007070Y003020
X007110Y018260
X007240Y017620
X007260Y015880
X007350Y009400
X007560Y013470
X007570Y018270
X007640Y017620
X007820Y013240
X007880Y008680
X007900Y015820
X007910Y004310
X007910Y005110
X007960Y017620
X008160Y006240
X008250Y008330
X008310Y008890
X008410Y004310
X008430Y015880
X008770Y002370
X008860Y014850
X008950Y017170
X009080Y010810
X009080Y011670
X009100Y015190
X009160Y004310
X009160Y006240
X009200Y017640
X009360Y001630
X009370Y017960
X009410Y005340
X009470Y012620
X009660Y002970
X009700Y016390
X009710Y015750
X009710Y017190
X009780Y007980
X009830Y006950
X009910Y002740
X010160Y004310
X010160Y006240
X010170Y006950
X010410Y003340
X010460Y015270
X010620Y002880
X010660Y004280
X010660Y005340
X010780Y009260
X010840Y008440
X010880Y014940
X010840Y018380
X010960Y002690
X010990Y001630
X010990Y016110
X011030Y008930
X011160Y018260
X011190Y005540
X011220Y008530
X011500Y001630
X011500Y006350
X011540Y006930
X011540Y007250
X011580Y018420
X011640Y010770
X011770Y008120
X011830Y004740
X011880Y001630
X011890Y007250
X012000Y010540
X012030Y016200
X012030Y017690
X012060Y003110
X012200Y001630
X012200Y011890
X012250Y017390
X012460Y002410
X012570Y016500
X012590Y017450
X012590Y017800
X012600Y015850
X012650Y007460
X012690Y009310
X012730Y006860
X012760Y010640
X012770Y011880
X012830Y002370
X012842Y008960
X013000Y012140
X013040Y016230
X013090Y001630
X013110Y010650
X013160Y009277
X013200Y008810
X013250Y011880
X013330Y003220
X013350Y007480
X013400Y015210
X013460Y001630
X013480Y010790
X013550Y002770
X013580Y007160
X013620Y009550
X013670Y007480
X013810Y010780
X013820Y002160
X013880Y010140
X013910Y008120
X014030Y015840
X014030Y016370
X014090Y001890
X014090Y002510
X014160Y005280
X014260Y006350
X014260Y008000
X014260Y016120
X014320Y012310
X014460Y001630
X014540Y008280
X014550Y009880
X014550Y010390
X014550Y012640
X014590Y005310
X014670Y009000
X014680Y013990
X014680Y014520
X014740Y008560
X014830Y010110
X014850Y004690
X014900Y012510
X014980Y016520
X015090Y008869
X015180Y007540
X015190Y012310
X015210Y010040
X015310Y007900
X015340Y004670
X015350Y010580
X015350Y011050
X015410Y007280
X015680Y012310
X015680Y013990
X015680Y014360
X015750Y010370
X015809Y008869
X015840Y004680
X015850Y018040
X016150Y007390
X016250Y010140
X016290Y018090
X016310Y012530
X016350Y003350
X016450Y011000
X016470Y007360
X016500Y015380
X016680Y011300
X016700Y007070
X016860Y011900
X016880Y017950
X016910Y016520
X016930Y015600
X017060Y010480
X017270Y008110
X017270Y009720
X017290Y016520
X017500Y009230
X017560Y004100
X017700Y006580
X017730Y008440
X017730Y009490
X017800Y004340
X018060Y005560
X018280Y012490
X018300Y006320
X018400Y009870
X018510Y008180
X018510Y011560
X018570Y016230
X018570Y016550
X018630Y009610
X018890Y009350
X018940Y016780
X019220Y007660
X019220Y009700
X019390Y013070
X019390Y015380
X019480Y006570
X019520Y007930
X019850Y016240
X019940Y005580
X019990Y012450
X019990Y013490
X020050Y011340
X020140Y017570
X020540Y012450
X020540Y013490
X020570Y010350
X020620Y007720
X020620Y008540
X020780Y009960
X020900Y008770
X020900Y012000
X021040Y016520
T4C0.0291F200S100
X006630Y014340
X007130Y014340
X007630Y014340
X008130Y014340
X008630Y014340
X009130Y014340
X009630Y014340
X010130Y014340
X010630Y014340
X011130Y014340
X011630Y014340
X012130Y014340
X012630Y014340
X013130Y014340
X013630Y014340
X014130Y014340
T3C0.0220F200S100
X016650Y000523
X016650Y001310
X017437Y000523
X017437Y001310
X018225Y000523
X018225Y001310
X019012Y000523
X019012Y001310
T5C0.0433F200S100
X008261Y011616
X010230Y010631
X010230Y012600
T2C0.0200F200S100
X007040Y010040
X007040Y010540
X007040Y011040
X007040Y011540
X007040Y012040
X007040Y012540
X011450Y012550
X011950Y012550
X012450Y012550
X012950Y012550
X013450Y012550
X013950Y012550
M30
