*
%LPD*%
%LNNECK_DISPLAY-5.SMB*%
%FSLAX24Y24*%
%MOIN*%
%AD*%
%ADD64C,0.010000*%
%ADD105C,0.042000*%
%ADD106R,0.042000X0.042000*%
%ADD109C,0.094500*%
%ADD117R,0.050000X0.050000*%
%ADD118R,0.022000X0.022000*%
%ADD119R,0.032000X0.038000*%
%ADD120R,0.038000X0.032000*%
%ADD124R,0.056000X0.092000*%
%ADD125R,0.078700X0.078700*%
%ADD126O,0.059000X0.011000*%
%ADD127R,0.059000X0.011000*%
%ADD128O,0.011000X0.059000*%
%ADD129R,0.011000X0.059000*%
%ADD130O,0.018000X0.070000*%
%ADD131R,0.018000X0.070000*%
%ADD132O,0.070000X0.018000*%
%ADD133R,0.070000X0.018000*%
%ADD138O,0.025000X0.094000*%
%ADD139R,0.025000X0.094000*%
%ADD141O,0.086000X0.025000*%
%ADD142R,0.086000X0.025000*%
%ADD143O,0.094000X0.025000*%
%ADD144R,0.094000X0.025000*%
%ADD145O,0.014000X0.050000*%
%ADD146R,0.014000X0.050000*%
%ADD147O,0.050000X0.014000*%
%ADD148R,0.050000X0.014000*%
%ADD149O,0.070000X0.011000*%
%ADD150R,0.070000X0.011000*%
%ADD151O,0.011000X0.070000*%
%ADD152R,0.011000X0.070000*%
%ADD154R,0.216500X0.078700*%
%ADD182R,0.029500X0.141700*%
%ADD183R,0.029500X0.122000*%
%ADD184R,0.029500X0.110200*%
%ADD185R,0.043300X0.066900*%
%ADD187R,0.143700X0.086600*%
%ADD188R,0.163400X0.086600*%
%ADD189R,0.094500X0.025600*%
%ADD190R,0.104300X0.037400*%
G54D64*
%SRX1Y1I0.0J0.0*%
G1X12940Y1430D2*
G1X12940Y-400D1*
G1X12850Y1430D2*
G1X12850Y-400D1*
G1X12760Y1430D2*
G1X12760Y-400D1*
G1X12670Y1430D2*
G1X12670Y-400D1*
G1X12580Y1430D2*
G1X12580Y-400D1*
G1X12490Y1430D2*
G1X12490Y-400D1*
G1X12400Y1430D2*
G1X12400Y-400D1*
G1X12310Y1430D2*
G1X12310Y-400D1*
G1X12220Y1430D2*
G1X12220Y-400D1*
G1X12130Y1430D2*
G1X12130Y-400D1*
G1X12040Y1430D2*
G1X12040Y-400D1*
G1X11950Y1430D2*
G1X11950Y-400D1*
G1X11860Y1430D2*
G1X11860Y-400D1*
G1X11770Y1430D2*
G1X11770Y-400D1*
G1X11680Y1430D2*
G1X11680Y-400D1*
G1X11590Y1430D2*
G1X11590Y-400D1*
G1X11500Y1430D2*
G1X11500Y-400D1*
G1X11410Y1430D2*
G1X11410Y-400D1*
G1X11320Y1430D2*
G1X11320Y-400D1*
G1X11230Y1430D2*
G1X11230Y-400D1*
G1X11140Y1430D2*
G1X11140Y-400D1*
G1X11050Y1430D2*
G1X11050Y-400D1*
G1X10960Y1430D2*
G1X10960Y-400D1*
G1X10870Y1430D2*
G1X10870Y-400D1*
G1X10780Y1430D2*
G1X10780Y-400D1*
G1X10690Y1430D2*
G1X10690Y-400D1*
G1X10600Y1430D2*
G1X10600Y-400D1*
G1X10510Y1430D2*
G1X10510Y-400D1*
G1X10420Y1430D2*
G1X10420Y-400D1*
G1X10330Y1430D2*
G1X10330Y-400D1*
G1X10240Y1430D2*
G1X10240Y-400D1*
G1X10150Y1430D2*
G1X10150Y-400D1*
G1X10060Y1430D2*
G1X10060Y-400D1*
G1X9970Y1430D2*
G1X9970Y-400D1*
G1X9880Y1430D2*
G1X9880Y-400D1*
G1X9790Y1430D2*
G1X9790Y-400D1*
G1X9700Y1430D2*
G1X9700Y-400D1*
G1X9610Y1430D2*
G1X9610Y-400D1*
G1X9520Y1430D2*
G1X9520Y-400D1*
G1X9430Y1430D2*
G1X9430Y-400D1*
G1X9340Y1430D2*
G1X9340Y-400D1*
G1X9250Y1430D2*
G1X9250Y-400D1*
G1X9160Y1430D2*
G1X9160Y-400D1*
G1X9070Y1430D2*
G1X9070Y-400D1*
G1X8980Y1430D2*
G1X8980Y-400D1*
G1X8890Y1430D2*
G1X8890Y-400D1*
G1X8800Y1430D2*
G1X8800Y-400D1*
G1X8710Y1430D2*
G1X8710Y-400D1*
G1X8620Y1430D2*
G1X8620Y-400D1*
G1X8530Y1430D2*
G1X8530Y-400D1*
G1X8440Y1430D2*
G1X8440Y-400D1*
G1X8350Y1430D2*
G1X8350Y-400D1*
G1X8260Y1430D2*
G1X8260Y-400D1*
G1X8170Y1430D2*
G1X8170Y-400D1*
G1X8080Y1430D2*
G1X8080Y-400D1*
G1X7990Y1430D2*
G1X7990Y-400D1*
G1X7900Y1430D2*
G1X7900Y-400D1*
G1X7810Y1430D2*
G1X7810Y-400D1*
G1X7720Y1430D2*
G1X7720Y-400D1*
G1X7630Y1430D2*
G1X7630Y-400D1*
G1X7540Y1430D2*
G1X7540Y-400D1*
G1X7450Y1430D2*
G1X7450Y-400D1*
G1X7360Y1430D2*
G1X7360Y-400D1*
G1X7270Y1430D2*
G1X7270Y-400D1*
G1X7180Y1430D2*
G1X7180Y-400D1*
G1X7090Y1430D2*
G1X7090Y-400D1*
G1X7000Y1430D2*
G1X7000Y-400D1*
G1X6910Y1430D2*
G1X6910Y-400D1*
G1X6820Y1430D2*
G1X6820Y-400D1*
G1X6730Y1430D2*
G1X6730Y-400D1*
G1X6640Y1430D2*
G1X6640Y-400D1*
G1X6550Y1430D2*
G1X6550Y-400D1*
G1X6460Y1430D2*
G1X6460Y-400D1*
G1X6370Y1430D2*
G1X6370Y-400D1*
G1X6280Y1430D2*
G1X6280Y-400D1*
G1X6190Y1430D2*
G1X6190Y-400D1*
G1X6100Y1430D2*
G1X6100Y-400D1*
G1X6010Y1430D2*
G1X6010Y-400D1*
G1X5920Y1430D2*
G1X5920Y-400D1*
G1X5830Y1430D2*
G1X5830Y-400D1*
G1X5740Y1430D2*
G1X5740Y-400D1*
G1X5650Y1430D2*
G1X5650Y-400D1*
G1X5560Y1430D2*
G1X5560Y-400D1*
G1X5470Y1430D2*
G1X5470Y-400D1*
G1X5380Y1430D2*
G1X5380Y-400D1*
G1X5290Y1430D2*
G1X5290Y-400D1*
G1X5200Y1430D2*
G1X5200Y-400D1*
G1X5110Y1430D2*
G1X5110Y-400D1*
G1X5020Y1430D2*
G1X5020Y-400D1*
G1X4930Y1430D2*
G1X4930Y-400D1*
G1X15100Y1350D2*
G1X4800Y1350D1*
G1X15100Y1260D2*
G1X4800Y1260D1*
G1X15100Y1170D2*
G1X4800Y1170D1*
G1X15100Y1080D2*
G1X4800Y1080D1*
G1X15100Y990D2*
G1X4800Y990D1*
G1X15100Y900D2*
G1X4800Y900D1*
G1X15100Y810D2*
G1X4800Y810D1*
G1X15100Y720D2*
G1X4800Y720D1*
G1X4840Y1430D2*
G1X4840Y-400D1*
G1X15100Y540D2*
G1X4800Y540D1*
G1X15100Y450D2*
G1X4800Y450D1*
G1X15100Y360D2*
G1X4800Y360D1*
G1X15100Y270D2*
G1X4800Y270D1*
G1X15100Y180D2*
G1X4800Y180D1*
G1X15100Y90D2*
G1X4800Y90D1*
G1X15100Y0D2*
G1X4800Y0D1*
G1X15100Y-90D2*
G1X4800Y-90D1*
G1X15100Y-180D2*
G1X4800Y-180D1*
G1X15100Y-270D2*
G1X4800Y-270D1*
G1X4800Y1430D2*
G1X4800Y-400D1*
G1X15100Y-400D2*
G1X4800Y-400D1*
G1X15100Y1430D2*
G1X15100Y-400D1*
G1X15100Y1430D2*
G1X4800Y1430D1*
G1X15100Y-360D2*
G1X4800Y-360D1*
G1X15100Y630D2*
G1X4800Y630D1*
G1X15010Y1430D2*
G1X15010Y-400D1*
G1X14920Y1430D2*
G1X14920Y-400D1*
G1X14830Y1430D2*
G1X14830Y-400D1*
G1X14740Y1430D2*
G1X14740Y-400D1*
G1X14650Y1430D2*
G1X14650Y-400D1*
G1X14560Y1430D2*
G1X14560Y-400D1*
G1X14470Y1430D2*
G1X14470Y-400D1*
G1X14380Y1430D2*
G1X14380Y-400D1*
G1X14290Y1430D2*
G1X14290Y-400D1*
G1X14200Y1430D2*
G1X14200Y-400D1*
G1X14110Y1430D2*
G1X14110Y-400D1*
G1X14020Y1430D2*
G1X14020Y-400D1*
G1X13930Y1430D2*
G1X13930Y-400D1*
G1X13840Y1430D2*
G1X13840Y-400D1*
G1X13750Y1430D2*
G1X13750Y-400D1*
G1X13660Y1430D2*
G1X13660Y-400D1*
G1X13570Y1430D2*
G1X13570Y-400D1*
G1X13480Y1430D2*
G1X13480Y-400D1*
G1X13390Y1430D2*
G1X13390Y-400D1*
G1X13300Y1430D2*
G1X13300Y-400D1*
G1X13210Y1430D2*
G1X13210Y-400D1*
G1X13120Y1430D2*
G1X13120Y-400D1*
G1X13030Y1430D2*
G1X13030Y-400D1*
G54D105*
G1X7040Y12040D3*
G1X7040Y11540D3*
G1X7040Y11040D3*
G1X7040Y10540D3*
G1X7040Y10040D3*
G1X11950Y12550D3*
G1X12450Y12550D3*
G1X12950Y12550D3*
G1X13450Y12550D3*
G1X13950Y12550D3*
G1X17437Y1310D3*
G1X17437Y523D3*
G1X18225Y1310D3*
G1X18225Y523D3*
G1X19012Y1310D3*
G1X19012Y523D3*
G1X16650Y523D3*
G54D106*
G1X7040Y12540D3*
G1X11450Y12550D3*
G1X16650Y1310D3*
G54D109*
G1X10230Y12600D3*
G1X8261Y11616D3*
G1X10230Y10631D3*
G54D117*
G1X19120Y12040D3*
G1X18280Y12040D3*
G1X7620Y16330D3*
G1X7620Y17170D3*
G1X8430Y16330D3*
G1X8430Y17170D3*
G54D118*
G1X15530Y12000D3*
G1X15530Y11580D3*
G1X16510Y12000D3*
G1X16090Y12000D3*
G1X20150Y4640D3*
G1X20570Y4640D3*
G1X8300Y9200D3*
G1X8300Y9620D3*
G1X8300Y8000D3*
G1X8300Y7580D3*
G1X18980Y12760D3*
G1X19400Y12760D3*
G1X16180Y8780D3*
G1X16180Y9200D3*
G1X17790Y4650D3*
G1X17370Y4650D3*
G1X20900Y10350D3*
G1X20900Y10770D3*
G1X15510Y7700D3*
G1X15930Y7700D3*
G1X20900Y11270D3*
G1X20900Y11690D3*
G1X17640Y11900D3*
G1X17220Y11900D3*
G1X19990Y13180D3*
G1X19990Y12760D3*
G1X20540Y13180D3*
G1X20540Y12760D3*
G1X13750Y11510D3*
G1X13750Y11090D3*
G1X14970Y10580D3*
G1X14550Y10580D3*
G1X2750Y3740D3*
G1X3170Y3740D3*
G1X14970Y11050D3*
G1X14550Y11050D3*
G1X14970Y11520D3*
G1X14550Y11520D3*
G1X14970Y12000D3*
G1X14550Y12000D3*
G1X11640Y11080D3*
G1X11640Y11500D3*
G1X6100Y7200D3*
G1X6100Y7620D3*
G1X7250Y13470D3*
G1X6830Y13470D3*
G1X6930Y17470D3*
G1X6510Y17470D3*
G1X6930Y17950D3*
G1X6510Y17950D3*
G1X10680Y18240D3*
G1X10260Y18240D3*
G1X15940Y10040D3*
G1X15520Y10040D3*
G1X11190Y5940D3*
G1X11190Y6360D3*
G1X18150Y11250D3*
G1X18570Y11250D3*
G1X13250Y11080D3*
G1X13250Y11500D3*
G1X13040Y7280D3*
G1X13040Y6860D3*
G1X12770Y11080D3*
G1X12770Y11500D3*
G1X6100Y6220D3*
G1X6100Y6640D3*
G1X-670Y6220D3*
G1X-670Y6640D3*
G1X4350Y15400D3*
G1X3930Y15400D3*
G1X4950Y15400D3*
G1X5370Y15400D3*
G1X1180Y15590D3*
G1X1180Y16010D3*
G54D119*
G1X10070Y17670D3*
G1X10630Y17670D3*
G1X10070Y17030D3*
G1X10630Y17030D3*
G1X10070Y15750D3*
G1X10630Y15750D3*
G1X10070Y16390D3*
G1X10630Y16390D3*
G1X2570Y4920D3*
G1X3130Y4920D3*
G1X2570Y4300D3*
G1X3130Y4300D3*
G1X17040Y11300D3*
G1X17600Y11300D3*
G1X15410Y6890D3*
G1X15970Y6890D3*
G1X11770Y6950D3*
G1X12330Y6950D3*
G1X1730Y15940D3*
G1X2290Y15940D3*
G1X19690Y11340D3*
G1X19130Y11340D3*
G1X14820Y7540D3*
G1X14260Y7540D3*
G1X14820Y6890D3*
G1X14260Y6890D3*
G1X11180Y6950D3*
G1X10620Y6950D3*
G54D120*
G1X12200Y11460D3*
G1X12200Y10900D3*
G1X20900Y9690D3*
G1X20900Y9130D3*
G1X11150Y7570D3*
G1X11150Y8130D3*
G54D124*
G1X19400Y5590D3*
G1X20570Y5590D3*
G1X10300Y7980D3*
G1X9130Y7980D3*
G1X10300Y9260D3*
G1X9130Y9260D3*
G1X18540Y5570D3*
G1X17370Y5570D3*
G54D125*
G1X12940Y9058D3*
G54D126*
G1X11858Y8370D3*
G1X11858Y8764D3*
G1X11858Y8961D3*
G1X11858Y9158D3*
G1X11858Y9355D3*
G1X11858Y9552D3*
G1X11858Y9749D3*
G1X14024Y9749D3*
G1X14024Y9552D3*
G1X14024Y9355D3*
G1X14024Y9158D3*
G1X14024Y8961D3*
G1X14024Y8567D3*
G1X14024Y8370D3*
G54D127*
G1X11858Y8567D3*
G1X14024Y8764D3*
G54D128*
G1X13433Y7977D3*
G1X13236Y7977D3*
G1X13039Y7977D3*
G1X12842Y7977D3*
G1X12645Y7977D3*
G1X12448Y7977D3*
G1X12251Y7977D3*
G1X12251Y10142D3*
G1X12448Y10142D3*
G1X12645Y10142D3*
G1X13039Y10142D3*
G1X13236Y10142D3*
G1X13433Y10142D3*
G1X13630Y10142D3*
G54D129*
G1X13630Y7977D3*
G1X12842Y10142D3*
G54D130*
G1X4970Y8455D3*
G1X4655Y8455D3*
G1X4340Y8455D3*
G1X3710Y8455D3*
G1X3395Y8455D3*
G1X3080Y8455D3*
G1X2765Y8455D3*
G1X2450Y8455D3*
G1X2135Y8455D3*
G1X1820Y8455D3*
G1X1505Y8455D3*
G1X1190Y8455D3*
G1X560Y8455D3*
G1X245Y8455D3*
G1X245Y14540D3*
G1X875Y14540D3*
G1X1190Y14540D3*
G1X1505Y14540D3*
G1X1820Y14540D3*
G1X2135Y14540D3*
G1X2450Y14540D3*
G1X2765Y14540D3*
G1X3080Y14540D3*
G1X3395Y14540D3*
G1X4025Y14540D3*
G1X4340Y14540D3*
G1X4655Y14540D3*
G1X4970Y14540D3*
G54D131*
G1X4025Y8455D3*
G1X875Y8455D3*
G1X560Y14540D3*
G1X3710Y14540D3*
G54D132*
G1X5650Y13545D3*
G1X5650Y13230D3*
G1X5650Y12915D3*
G1X5650Y12600D3*
G1X5650Y12285D3*
G1X5650Y11970D3*
G1X5650Y11655D3*
G1X5650Y11340D3*
G1X5650Y10710D3*
G1X5650Y10395D3*
G1X5650Y10080D3*
G1X5650Y9765D3*
G1X5650Y9450D3*
G1X5650Y9135D3*
G1X-435Y9135D3*
G1X-435Y9450D3*
G1X-435Y9765D3*
G1X-435Y10080D3*
G1X-435Y10395D3*
G1X-435Y10710D3*
G1X-435Y11025D3*
G1X-435Y11655D3*
G1X-435Y11970D3*
G1X-435Y12285D3*
G1X-435Y12600D3*
G1X-435Y12915D3*
G1X-435Y13230D3*
G1X-435Y13545D3*
G1X-435Y13860D3*
G54D133*
G1X5650Y13860D3*
G1X5650Y11025D3*
G1X-435Y11340D3*
G54D138*
G1X15680Y13320D3*
G1X15180Y13320D3*
G1X14680Y13320D3*
G1X14680Y15280D3*
G1X15180Y15280D3*
G1X15680Y15280D3*
G1X16180Y15280D3*
G1X15850Y4020D3*
G1X15350Y4020D3*
G1X14850Y4020D3*
G1X14850Y5980D3*
G1X15350Y5980D3*
G1X15850Y5980D3*
G1X16350Y5980D3*
G1X12830Y4000D3*
G1X12330Y4000D3*
G1X11830Y4000D3*
G1X11830Y5960D3*
G1X12330Y5960D3*
G1X12830Y5960D3*
G1X13330Y5960D3*
G54D139*
G1X16180Y13320D3*
G1X16350Y4020D3*
G1X13330Y4000D3*
G54D141*
G1X5620Y17450D3*
G1X5620Y16950D3*
G1X5620Y16450D3*
G1X3500Y16450D3*
G1X3500Y16950D3*
G1X3500Y17450D3*
G1X3500Y17950D3*
G54D142*
G1X5620Y17950D3*
G54D143*
G1X6220Y4780D3*
G1X6220Y4280D3*
G1X6220Y3780D3*
G1X4260Y3780D3*
G1X4260Y4280D3*
G1X4260Y4780D3*
G1X4260Y5280D3*
G54D144*
G1X6220Y5280D3*
G54D145*
G1X10410Y3790D3*
G1X10160Y3790D3*
G1X9910Y3790D3*
G1X9660Y3790D3*
G1X9410Y3790D3*
G1X9160Y3790D3*
G1X8910Y3790D3*
G1X8660Y3790D3*
G1X8410Y3790D3*
G1X8160Y3790D3*
G1X7910Y3790D3*
G1X7910Y5790D3*
G1X8160Y5790D3*
G1X8410Y5790D3*
G1X8660Y5790D3*
G1X8910Y5790D3*
G1X9160Y5790D3*
G1X9410Y5790D3*
G1X9660Y5790D3*
G1X9910Y5790D3*
G1X10160Y5790D3*
G1X10410Y5790D3*
G1X10660Y5790D3*
G54D146*
G1X10660Y3790D3*
G54D147*
G1X13580Y17870D3*
G1X13580Y17620D3*
G1X13580Y17370D3*
G1X13580Y17120D3*
G1X13580Y16870D3*
G1X13580Y16620D3*
G1X13580Y16370D3*
G1X13580Y16120D3*
G1X13580Y15870D3*
G1X13580Y15620D3*
G1X13580Y15370D3*
G1X11580Y15370D3*
G1X11580Y15620D3*
G1X11580Y15870D3*
G1X11580Y16120D3*
G1X11580Y16370D3*
G1X11580Y16620D3*
G1X11580Y16870D3*
G1X11580Y17120D3*
G1X11580Y17370D3*
G1X11580Y17620D3*
G1X11580Y17870D3*
G1X11580Y18120D3*
G54D148*
G1X13580Y18120D3*
G54D149*
G1X20070Y9887D3*
G1X20070Y9690D3*
G1X20070Y9493D3*
G1X20070Y9296D3*
G1X20070Y9099D3*
G1X20070Y8902D3*
G1X20070Y8705D3*
G1X20070Y8311D3*
G1X20070Y8114D3*
G1X20070Y7917D3*
G1X20070Y7720D3*
G1X16723Y7720D3*
G1X16723Y7917D3*
G1X16723Y8114D3*
G1X16723Y8508D3*
G1X16723Y8705D3*
G1X16723Y8902D3*
G1X16723Y9099D3*
G1X16723Y9296D3*
G1X16723Y9493D3*
G1X16723Y9690D3*
G1X16723Y9887D3*
G54D150*
G1X20070Y8508D3*
G1X16723Y8311D3*
G54D151*
G1X17510Y10477D3*
G1X17707Y10477D3*
G1X17904Y10477D3*
G1X18101Y10477D3*
G1X18298Y10477D3*
G1X18495Y10477D3*
G1X18692Y10477D3*
G1X18889Y10477D3*
G1X19283Y10477D3*
G1X19480Y10477D3*
G1X19480Y7130D3*
G1X19283Y7130D3*
G1X19086Y7130D3*
G1X18889Y7130D3*
G1X18692Y7130D3*
G1X18298Y7130D3*
G1X18101Y7130D3*
G1X17904Y7130D3*
G1X17707Y7130D3*
G1X17510Y7130D3*
G1X17313Y7130D3*
G54D152*
G1X17313Y10477D3*
G1X19086Y10477D3*
G1X18495Y7130D3*
G54D154*
G1X4590Y6640D3*
G1X850Y6640D3*
G54D182*
G1X5580Y723D3*
G1X13139Y723D3*
G1X14399Y723D3*
G54D183*
G1X5895Y821D3*
G1X14084Y821D3*
G54D184*
G1X6210Y920D3*
G1X6525Y920D3*
G1X6840Y920D3*
G1X7155Y920D3*
G1X8729Y920D3*
G1X9044Y920D3*
G1X9359Y920D3*
G1X9674Y920D3*
G1X9989Y920D3*
G1X10304Y920D3*
G1X10619Y920D3*
G1X10934Y920D3*
G1X11249Y920D3*
G1X11564Y920D3*
G1X11879Y920D3*
G1X12194Y920D3*
G1X12509Y920D3*
G1X12824Y920D3*
G1X13454Y920D3*
G1X13769Y920D3*
G54D185*
G1X6630Y14340D3*
G1X7130Y14340D3*
G1X7630Y14340D3*
G1X8130Y14340D3*
G1X8630Y14340D3*
G1X9130Y14340D3*
G1X9630Y14340D3*
G1X10130Y14340D3*
G1X10630Y14340D3*
G1X11130Y14340D3*
G1X11630Y14340D3*
G1X12130Y14340D3*
G1X12630Y14340D3*
G1X13130Y14340D3*
G1X13630Y14340D3*
G1X14130Y14340D3*
G54D187*
G1X17920Y18169D3*
G1X17920Y14291D3*
G54D188*
G1X19593Y18169D3*
G1X19593Y14291D3*
G54D189*
G1X17930Y16860D3*
G1X17930Y16545D3*
G1X17930Y16230D3*
G1X17930Y15915D3*
G1X17930Y15600D3*
G54D190*
G1X15460Y9460D3*
G1X15460Y8869D3*
G1X15460Y8279D3*
M2*
