*
G04 Mass Parameters ***
*
G04 Image ***
*
%INC:\PROJECTS\RAGOBOTS_HW\ROBOT\HW\HEAD\DESIGN\RAGOBOT_HEAD.IN1*%
%ICAS*%
%MOIN*%
%IPPOS*%
%ASAXBY*%
G74*%FSLAN2X34Y34*%
*
G04 Aperture Definitions ***
*
%AMTHERMAL85*
1,1,0.0879,0,0,*
1,0,0.0640,0,0,*
21,0,0.0880,0.1000,0,0,45.0*
21,0,0.0880,0.1000,0,0,135.0*%
%AMTHERMAL88*
1,1,0.0879,0,0,*
1,0,0.0640,0,0,*
21,0,0.0880,0.1000,0,0,46.2*
21,0,0.0880,0.1000,0,0,136.2*%
%AMTHERMAL130*
1,1,0.1119,0,0,*
1,0,0.0880,0,0,*
21,0,0.1120,0.1000,0,0,135.0*
21,0,0.1120,0.1000,0,0,225.0*%
%AMTHERMAL135*
1,1,0.1739,0,0,*
1,0,0.1500,0,0,*
21,0,0.1740,0.1000,0,0,45.0*
21,0,0.1740,0.1000,0,0,135.0*%
%AMTHERMAL137*
1,1,0.0879,0,0,*
1,0,0.0640,0,0,*
21,0,0.0880,0.1000,0,0,45.3*
21,0,0.0880,0.1000,0,0,135.3*%
%ADD10R,0.0055X0.0055*%
%ADD11C,0.0130*%
%ADD12R,0.0130X0.0130*%
%ADD13C,0.0145*%
%ADD14R,0.0145X0.0145*%
%ADD15R,0.0098X0.0098*%
%ADD16O,0.0040X0.0079*%
%ADD17R,0.0040X0.0079*%
%ADD18R,0.0177X0.0216*%
%ADD19R,0.0029X0.0128*%
%ADD20R,0.0029X0.0079*%
%ADD21R,0.0216X0.0177*%
%ADD22R,0.0128X0.0029*%
%ADD23O,0.0062X0.0215*%
%ADD24R,0.0062X0.0215*%
%ADD25R,0.0180X0.0255*%
%ADD26R,0.0150X0.0150*%
%ADD27O,0.0044X0.0162*%
%ADD28R,0.0044X0.0162*%
%ADD29R,0.0138X0.0197*%
%ADD30C,0.0180*%
%ADD31R,0.0180X0.0180*%
%ADD32C,0.0195*%
%ADD33R,0.0195X0.0195*%
%ADD34C,0.0002*%
%ADD35R,0.0024X0.0128*%
%ADD36R,0.0128X0.0024*%
%ADD37C,0.0015*%
%ADD38C,0.0020*%
%ADD39C,0.0010*%
%ADD40C,0.0024*%
%ADD41C,0.0200*%
%ADD42C,0.0375*%
%ADD43C,0.0400*%
%ADD44C,0.0025*%
%ADD45C,0.0012*%
%ADD46C,0.0800*%
%ADD47R,0.0220X0.0220*%
%ADD48C,0.0520*%
%ADD49R,0.0520X0.0520*%
%ADD50C,0.0866*%
%ADD51C,0.0620*%
%ADD52C,0.0580*%
%ADD53R,0.0580X0.0580*%
%ADD54R,0.0394X0.0394*%
%ADD55C,0.0250*%
%ADD56C,0.0010*%
%ADD57C,0.0250*%
%ADD58C,0.0080*%
%ADD59C,0.0100*%
%ADD60C,0.0120*%
%ADD61C,0.0150*%
%ADD62O,0.0160X0.0315*%
%ADD63R,0.0160X0.0315*%
%ADD64R,0.0860X0.0860*%
%ADD65R,0.0708X0.0866*%
%ADD66R,0.0118X0.0512*%
%ADD67R,0.0118X0.0315*%
%ADD68R,0.0866X0.0708*%
%ADD69R,0.0512X0.0118*%
%ADD70O,0.0250X0.0860*%
%ADD71R,0.0250X0.0860*%
%ADD72R,0.0720X0.1020*%
%ADD73R,0.0600X0.0600*%
%ADD74O,0.0649X0.0177*%
%ADD75R,0.0649X0.0177*%
%ADD76R,0.0551X0.0787*%
%ADD77C,0.1600*%
%ADD78C,0.0720*%
%ADD79R,0.0720X0.0720*%
%ADD80C,0.0984*%
%ADD81C,0.0700*%
%ADD82C,0.0780*%
%ADD83R,0.0780X0.0780*%
%ADD84C,0.1500*%
%ADD85THERMAL85*%
%ADD86C,0.0500*%
%ADD87C,0.0500*%
%ADD88THERMAL88*%
%ADD89C,0.0670*%
%ADD90R,0.0098X0.0512*%
%ADD91R,0.0512X0.0098*%
%ADD92C,0.0039*%
%ADD93C,0.0060*%
%ADD94C,0.0098*%
%ADD95C,0.0079*%
%ADD96C,0.1420*%
%ADD97C,0.0750*%
%ADD98C,0.1260*%
%ADD99C,0.0250*%
%ADD100C,0.0250*%
%ADD101C,0.0200*%
%ADD102C,0.1420*%
%ADD103O,0.0160X0.0315*%
%ADD104R,0.0160X0.0315*%
%ADD105R,0.0220X0.0220*%
%ADD106R,0.0860X0.0860*%
%ADD107R,0.0708X0.0866*%
%ADD108R,0.0118X0.0512*%
%ADD109C,0.0520*%
%ADD110R,0.0520X0.0520*%
%ADD111R,0.0118X0.0315*%
%ADD112C,0.0866*%
%ADD113C,0.0620*%
%ADD114C,0.0580*%
%ADD115R,0.0580X0.0580*%
%ADD116C,0.0750*%
%ADD117C,0.1260*%
%ADD118O,0.0860X0.0250*%
%ADD119R,0.0860X0.0250*%
%ADD120R,0.0720X0.1020*%
%ADD121R,0.0600X0.0600*%
%ADD122O,0.0649X0.0177*%
%ADD123R,0.0649X0.0177*%
%ADD124R,0.0551X0.0787*%
%ADD125C,0.0118*%
%ADD126C,0.1650*%
%ADD127C,0.0720*%
%ADD128R,0.0720X0.0720*%
%ADD129C,0.1150*%
%ADD130THERMAL130*%
%ADD131C,0.0750*%
%ADD132C,0.0780*%
%ADD133R,0.0780X0.0780*%
%ADD134C,0.0850*%
%ADD135THERMAL135*%
%ADD136C,0.0500*%
%ADD137THERMAL137*%
*
G04 Plot Data ***
*
G54D58*
G01X0005520Y0005230D02*
Y0004920D01*
X0005360Y0004760D01*
X0003300D01*
X0003080Y0004980D01*
Y0008100D01*
X0015120Y0003100D02*
X0011320D01*
Y0003090D01*
X0008570Y0000700D02*
Y0001130D01*
X0008440Y0001260D01*
X0003200D01*
X0002880Y0001580D01*
Y0004010D01*
X0007840Y0004650D02*
X0007850Y0004640D01*
X0012220D01*
X0012300Y0004560D01*
X0012540D01*
X0011010Y0000840D02*
X0009980D01*
X0009240Y0001580D01*
X0003960D01*
X0003640Y0001900D01*
Y0004040D01*
X0003630Y0004050D01*
G54D59*
G01X0010720Y0001660D02*
X0011160D01*
X0011280Y0001540D01*
X0012250D01*
X0011630Y0001660D02*
X0011160D01*
X0010720D01*
X0009680Y0001870D02*
X0008455D01*
X0008450Y0001865D01*
X0007640D01*
X0007420Y0002085D01*
X0006305D01*
X0007570Y0002720D02*
Y0002475D01*
X0007720D01*
X0007895Y0002300D01*
Y0002280D01*
X0007920Y0002255D01*
X0008020D01*
X0008240Y0002475D01*
X0008645D01*
X0011680Y0004900D02*
Y0005180D01*
X0012820D01*
X0013140Y0005500D01*
X0013720D01*
X0014040Y0005820D01*
Y0006380D01*
X0013800Y0006620D01*
Y0008170D01*
X0005960Y0003760D02*
X0006600D01*
X0007740Y0004900D01*
X0008600D01*
X0008680Y0004820D01*
X0010800D01*
Y0005080D01*
X0011680Y0004900D02*
Y0005180D01*
X0011420D01*
X0011060Y0004820D01*
X0010800D01*
Y0005080D01*
X0004020Y0003280D02*
X0008580D01*
X0009040Y0002820D01*
X0011940D01*
X0005350Y0006420D02*
X0009840D01*
Y0006520D01*
X0009760Y0006600D01*
X0008740D01*
X0008660Y0006680D01*
Y0006820D01*
X0008740Y0006900D01*
X0009940D01*
X0010020Y0006820D01*
Y0006500D01*
X0010100Y0006420D01*
X0011740D01*
X0012320Y0008180D02*
X0011660Y0007520D01*
X0011200D01*
X0011120Y0007600D01*
Y0007760D01*
X0011020D01*
X0010940Y0007680D01*
Y0007660D01*
X0010860Y0007580D01*
X0008560D01*
Y0007660D01*
X0008380D01*
Y0007580D01*
X0008200D01*
Y0007660D01*
X0008020D01*
Y0007580D01*
X0004100D01*
X0004020Y0007500D01*
Y0006900D01*
X0013020Y0008350D02*
Y0007600D01*
X0012700Y0007280D01*
X0007460D01*
X0007180Y0007000D01*
Y0006720D01*
X0002520Y0004080D02*
Y0006250D01*
X0002290Y0006480D01*
X0001820Y0005680D02*
Y0008260D01*
X0002140Y0008580D01*
X0009600D01*
X0010080Y0008100D01*
X0003600Y0005320D02*
X0004100Y0005820D01*
X0009500D01*
X0009740Y0006060D01*
X0009960D01*
X0010120Y0006220D01*
X0010840D01*
X0011000Y0006060D01*
X0013600D01*
X0013190Y0008174D02*
Y0007600D01*
X0013630Y0007680D02*
X0013190D01*
X0018270Y0007320D02*
X0014282D01*
X0010200Y0007886D02*
Y0007750D01*
X0010470Y0010070D02*
Y0007750D01*
X0010560Y0010070D02*
Y0007750D01*
X0012850Y0007670D02*
X0012630Y0007450D01*
X0018270Y0007410D02*
X0014226D01*
X0013140Y0007480D02*
X0012822Y0007162D01*
X0005790Y0008410D02*
Y0007750D01*
X0013630Y0007230D02*
X0012890D01*
X0015690Y0010070D02*
Y0003920D01*
X0013599Y0008310D02*
X0013262D01*
X0013350Y0006632D02*
Y0006230D01*
X0007410Y0006636D02*
Y0006590D01*
X0003090Y0003884D02*
Y0001596D01*
X0004530Y0007410D02*
Y0005990D01*
X0003480Y0002370D02*
X0003040D01*
X0009840Y0007110D02*
Y0007070D01*
X0007350Y0006930D02*
Y0006896D01*
X0007860Y0007110D02*
Y0006590D01*
X0008850Y0008410D02*
Y0007750D01*
X0008652Y0005990D02*
X0004100D01*
X0002820Y0007464D02*
Y0004247D01*
X0002920Y0005340D02*
X0002690D01*
X0002100Y0005974D02*
Y0004322D01*
X0003040Y0003824D02*
Y0001646D01*
X0002100Y0008300D02*
Y0006635D01*
X0002190Y0008390D02*
Y0006704D01*
X0002280Y0008410D02*
Y0006725D01*
X0002370Y0008410D02*
Y0006712D01*
X0002535Y0006475D02*
X0002638Y0006372D01*
X0002920Y0005520D02*
X0002690D01*
X0002920Y0005880D02*
X0002690D01*
X0014160Y0005700D02*
Y0003920D01*
X0000959Y0002550D02*
X-0000060D01*
X0002100Y0010070D02*
Y0008745D01*
X0001020Y0004295D02*
Y0003195D01*
X0001650Y0006507D02*
Y0005856D01*
Y0006507D02*
Y0005856D01*
X0002350Y0005250D02*
X-0000060D01*
X0002920Y0007590D02*
X0002890D01*
X0002820Y0008410D02*
Y0007816D01*
X0001810Y0008490D02*
X-0000060D01*
X0001830Y0010070D02*
Y0008510D01*
X0001720Y0008400D02*
X-0000060D01*
X0002020Y0008700D02*
X0001702Y0008382D01*
X0002410Y0007590D02*
X0001990D01*
X0002408Y0007680D02*
X0001990D01*
X0001832Y0004170D02*
X-0000060D01*
X0010020Y0010070D02*
Y0008400D01*
X0009600Y0008750D02*
X0002140D01*
X0001900Y0008580D02*
X-0000060D01*
X0004899Y0007750D02*
X0004100D01*
X0010031Y0007860D02*
X0005406D01*
X0011760D02*
X0011257D01*
X0012180Y0006437D02*
Y0006230D01*
X0018270Y0005880D02*
X0016670D01*
X0009480Y0010070D02*
Y0008750D01*
X0009120Y0010070D02*
Y0008750D01*
X0009210Y0010070D02*
Y0008750D01*
X0009720Y0008700D02*
X0010075Y0008345D01*
X0012819Y0008490D02*
X0009930D01*
X0003630Y0008410D02*
Y0005590D01*
X0002920Y0005790D02*
X0002690D01*
X0003124Y0004710D02*
X0002690D01*
X0003980Y0005940D02*
X0003605Y0005565D01*
X0003360Y0008410D02*
Y0005369D01*
X0003540Y0008410D02*
Y0005557D01*
X0004440Y0007410D02*
Y0005990D01*
X0004110Y0005430D02*
X0003950D01*
X0012982Y0006780D02*
X0012434D01*
X0009660Y0005740D02*
Y0004990D01*
X0012112Y0008310D02*
X0010206D01*
X0011550Y0007110D02*
Y0006590D01*
X0011574Y0006600D02*
X0010636D01*
X0012548Y0005880D02*
X0009800D01*
X0010290Y0007110D02*
Y0006946D01*
X0009960Y0005890D02*
X0009810D01*
X0002920Y0006780D02*
X0001990D01*
X0010770Y0006050D02*
X0010190D01*
X0010650Y0007110D02*
Y0006925D01*
X0002920Y0005070D02*
X0002690D01*
X0002460Y0008410D02*
Y0007795D01*
X0012360Y0006486D02*
Y0006230D01*
X0012090Y0006466D02*
Y0006230D01*
X0009480Y0007110D02*
Y0007070D01*
X0009120Y0007110D02*
Y0007070D01*
X0003664Y0001650D02*
X0003040D01*
X0011190Y0007110D02*
Y0006590D01*
X0011370Y0007110D02*
Y0006590D01*
X0002920Y0005700D02*
X0002690D01*
X0011010Y0007110D02*
Y0006590D01*
X0000869Y0006510D02*
X-0000060D01*
X0003270Y0001100D02*
Y-0000060D01*
X0003810Y0006774D02*
Y0005770D01*
X0013970Y0006690D02*
X0014158Y0006502D01*
X0002920Y0005160D02*
X0002690D01*
X0009660Y0007110D02*
Y0007070D01*
X0013800Y0010070D02*
Y0008415D01*
X0008850Y0005650D02*
Y0004990D01*
X0008940Y0005650D02*
Y0004990D01*
X0009030Y0005650D02*
Y0004990D01*
X0008400Y0005650D02*
Y0005070D01*
X0008130Y0005650D02*
Y0005070D01*
X0011188Y0004440D02*
X0007966D01*
X0012220Y0004800D02*
X0011904D01*
X0007580Y0004980D02*
X0005680D01*
X0007050Y0005650D02*
Y0004450D01*
X0012414Y0004350D02*
X0011670D01*
X0001830Y0003676D02*
Y0003626D01*
X0006960Y0005650D02*
Y0004360D01*
X0011550Y0005890D02*
Y0005350D01*
X0018270Y0008040D02*
X0014408D01*
X0010650Y0002650D02*
Y0001895D01*
X0012154Y0004480D02*
X0012187Y0004447D01*
X0012180Y0005010D02*
Y0004800D01*
X0016310Y0004440D02*
X0012754D01*
X0009570Y0005665D02*
Y0004990D01*
X0009390Y0005650D02*
Y0004990D01*
X0009750Y0005830D02*
Y0004990D01*
X0001650Y0006060D02*
X-0000060D01*
X0009930Y0005890D02*
Y0004990D01*
X0016310Y0004530D02*
X0012783D01*
X0016310Y0004620D02*
X0012777D01*
X0011190Y0004480D02*
Y0004449D01*
X0012194Y0004440D02*
X0011672D01*
X0008310Y0005650D02*
Y0005070D01*
X0006530Y0003930D02*
X0006136D01*
X0013170Y0002940D02*
Y-0000060D01*
X0018270Y0000840D02*
X0011255D01*
X0010824Y0001000D02*
X0010046D01*
X0010824Y0000680D02*
X0009980D01*
X0010110D02*
Y-0000060D01*
X0018270Y0001110D02*
X0009936D01*
X0009355Y0001691D02*
X0010046Y0001000D01*
X0018270Y0001830D02*
X0011806D01*
X0008850Y0002038D02*
Y0001740D01*
X0009120Y0002196D02*
Y0001740D01*
X0002190Y0005925D02*
Y0004288D01*
X0009174Y0001420D02*
X0009867Y0000727D01*
X0003720Y0001100D02*
Y-0000060D01*
X0004440Y0003110D02*
Y0001740D01*
X0011010Y0000595D02*
Y-0000060D01*
X0007770Y0003110D02*
Y0003015D01*
X0001832Y0003990D02*
X-0000060D01*
X0005288Y0003720D02*
X0003800D01*
X0005290Y0003810D02*
X0003800D01*
X0005818Y0002550D02*
X0003800D01*
X0008440Y0001420D02*
X0003960D01*
X0002721Y0001560D02*
X-0000060D01*
X0004710Y0003110D02*
Y0001740D01*
X0003528Y0001785D02*
X0003847Y0001467D01*
X0001304Y0002100D02*
X-0000060D01*
X0012450Y0001398D02*
Y-0000060D01*
X0000032Y0000120D02*
X-0000060D01*
X0003480Y0003856D02*
Y0001900D01*
X0003720Y0004600D02*
Y0004278D01*
X0003810Y0004600D02*
Y0004216D01*
X0004440Y0004600D02*
Y0003450D01*
X0001601Y0005790D02*
X-0000060D01*
X0006296Y0001740D02*
X0004026D01*
X0006288Y0001920D02*
X0003846D01*
X0005985Y0002100D02*
X0003800D01*
X0003180Y0004654D02*
Y0004317D01*
X0010200Y0006050D02*
Y0004990D01*
X0005610Y0004784D02*
Y0004288D01*
X0018270Y0004980D02*
X0016670D01*
X0016870Y0005970D02*
X0016670D01*
X0003865Y0003090D02*
X0003800D01*
X0008760Y0001420D02*
Y0001063D01*
X0009030Y0004480D02*
Y0003070D01*
X0008580Y0001420D02*
Y0001346D01*
X0015803Y0002280D02*
X0009135D01*
X0008040Y0002638D02*
Y0002255D01*
X0016085Y0003920D02*
X0011320D01*
X0016310Y0004170D02*
X0011514D01*
X0006680Y0004080D02*
X0005725D01*
X0011180Y0003345D02*
Y0003291D01*
X0008374Y0001100D02*
X0007660D01*
X0018270Y0005070D02*
X0016670D01*
X0008580Y0003040D02*
Y0002475D01*
X0008400Y0003110D02*
Y0002475D01*
X0016004Y0002100D02*
X0009056D01*
X0015740Y0002370D02*
X0009118D01*
X0005970Y0000290D02*
Y-0000060D01*
X0007950Y0002561D02*
Y0002255D01*
X0008082Y0002280D02*
X0007854D01*
X0015693Y0002460D02*
X0009056D01*
X0008265D02*
X0007655D01*
X0005520Y0005650D02*
Y0005475D01*
X0008398Y0002042D02*
X0008280Y0001924D01*
X0007860Y0002536D02*
Y0002271D01*
X0008140Y0001865D02*
X0007780D01*
X0006060Y0001100D02*
Y-0000060D01*
X0007564Y0002000D02*
X0007642Y0001922D01*
X0005301Y0005340D02*
X0004551D01*
X0008202Y0002418D02*
X0008124Y0002340D01*
X0006510Y0003110D02*
Y0002475D01*
X0007770Y0001100D02*
Y0001058D01*
X0008670Y0002950D02*
Y0002475D01*
X0015887Y0002190D02*
X0009118D01*
X0006600Y0003110D02*
Y0002475D01*
X0006690Y0003110D02*
Y0002475D01*
X0005322Y0003630D02*
X0003800D01*
X0005360Y0005044D02*
Y0004986D01*
X0006780Y0003110D02*
Y0002475D01*
X0006870Y0003110D02*
Y0002475D01*
X0006960Y0003110D02*
Y0002475D01*
X0007499Y0002085D02*
X0007521Y0002064D01*
X0000344Y0004710D02*
X-0000060D01*
X0008742Y0002085D02*
X0008430D01*
X0007950Y0001100D02*
Y0000854D01*
X0008220Y0003110D02*
Y0002434D01*
X0007499Y0002085D02*
X0006060D01*
X0012540Y0003560D02*
Y0003260D01*
X0008374Y0001100D02*
X0008400Y0001073D01*
X0008154Y0002370D02*
X0007766D01*
X0018270Y0004440D02*
X0016670D01*
X0005880Y0003110D02*
Y0002582D01*
X0007590Y0003110D02*
Y0002475D01*
X0007230Y0001100D02*
Y0000929D01*
X0006420Y0003110D02*
Y0002475D01*
X0002720Y0002730D02*
X0002577D01*
X0007320Y0003110D02*
Y0002475D01*
X0007580D02*
X0006210D01*
X0000936Y0002640D02*
X-0000060D01*
X0002720Y0002820D02*
X0002580D01*
X0017112Y0008760D02*
X0016870D01*
X0008490Y0001420D02*
Y0001412D01*
X0018270Y0005430D02*
X0016670D01*
X0018270Y0005520D02*
X0016670D01*
X0005980Y0000290D02*
X0005160D01*
Y0001100D02*
Y0000290D01*
X0000763Y0007140D02*
X-0000060D01*
X0011640Y0004274D02*
Y0003920D01*
X0004710Y0010070D02*
Y0008750D01*
X0016870Y0006730D02*
X0016110D01*
Y0005970D01*
X0013870Y0006060D02*
X0013845D01*
X0016870Y0006730D02*
Y0005970D01*
Y0009180D02*
X0016110D01*
Y0008420D01*
X0016870D02*
X0016110D01*
X0016870Y0009180D02*
Y0008420D01*
X0002460Y0003842D02*
Y0003230D01*
X0016140Y0005970D02*
Y0003975D01*
X-0000060Y0010070D02*
Y-0000060D01*
X0018270D02*
X-0000060D01*
X0018270Y0010070D02*
Y-0000060D01*
Y0010070D02*
X-0000060D01*
X0018210D02*
Y-0000060D01*
X0018120Y0010070D02*
Y-0000060D01*
X0018030Y0010070D02*
Y-0000060D01*
X0017126Y0006240D02*
X0016870D01*
X0001576Y0005700D02*
X-0000060D01*
X0017940Y0010070D02*
Y-0000060D01*
X0017850Y0006228D02*
Y-0000060D01*
X0017760Y0006083D02*
Y-0000060D01*
X0017670Y0006015D02*
Y-0000060D01*
X0017580Y0005981D02*
Y-0000060D01*
X0002854Y0001380D02*
X-0000060D01*
X0017310Y0006015D02*
Y-0000060D01*
X0017220Y0002490D02*
Y-0000060D01*
X0017130Y0002324D02*
Y-0000060D01*
X0017040Y0002216D02*
Y-0000060D01*
X0016950Y0002137D02*
Y-0000060D01*
X0016860Y0002078D02*
Y-0000060D01*
X0016770Y0002034D02*
Y-0000060D01*
X0016680Y0002002D02*
Y-0000060D01*
X0016590Y0001982D02*
Y-0000060D01*
X0016500Y0001971D02*
Y-0000060D01*
X0016410Y0001971D02*
Y-0000060D01*
X0016320Y0001980D02*
Y-0000060D01*
X0016230Y0002000D02*
Y-0000060D01*
X0016140Y0002030D02*
Y-0000060D01*
X0016050Y0002073D02*
Y-0000060D01*
X0015960Y0002130D02*
Y-0000060D01*
X0015870Y0002206D02*
Y-0000060D01*
X0016116Y0003560D02*
X0011395D01*
X0015690Y0002466D02*
Y-0000060D01*
X0015600Y0003560D02*
Y-0000060D01*
X0015510Y0003560D02*
Y-0000060D01*
X0012810Y0003560D02*
Y0003260D01*
X0015420Y0003560D02*
Y-0000060D01*
X0015330Y0002974D02*
Y-0000060D01*
X0015240Y0002886D02*
Y-0000060D01*
X0015150Y0002857D02*
Y-0000060D01*
X0015060Y0002862D02*
Y-0000060D01*
X0014970Y0002906D02*
Y-0000060D01*
X0014880Y0002940D02*
Y-0000060D01*
X0014790Y0002940D02*
Y-0000060D01*
X0014700Y0002940D02*
Y-0000060D01*
X0014610Y0002940D02*
Y-0000060D01*
X0002920Y0006150D02*
X0002690D01*
X0014520Y0002940D02*
Y-0000060D01*
X0014430Y0002940D02*
Y-0000060D01*
X0001495Y0002010D02*
X-0000060D01*
X0014160Y0000171D02*
Y-0000060D01*
X0014070Y0000026D02*
Y-0000060D01*
X0011730Y0005890D02*
Y0005350D01*
X0018270Y0000660D02*
X0011176D01*
X0011190Y0000674D02*
Y-0000060D01*
X0011100Y0000612D02*
Y-0000060D01*
X0013350Y0002940D02*
Y-0000060D01*
X0009390Y0001204D02*
Y-0000060D01*
X0009480Y0001114D02*
Y-0000060D01*
X0008220Y0005650D02*
Y0005070D01*
X0012990Y0002940D02*
Y-0000060D01*
X0012900Y0002940D02*
Y-0000060D01*
X0012810Y0002940D02*
Y-0000060D01*
X0012720Y0002940D02*
Y-0000060D01*
X0007500Y0005650D02*
Y0004900D01*
X0011640Y0001370D02*
Y-0000060D01*
X0008890Y0002730D02*
X0008080D01*
X0011280Y0001370D02*
Y-0000060D01*
X0012540Y0002940D02*
Y-0000060D01*
X0013688Y0000300D02*
X0008660D01*
X0005422Y0003540D02*
X0003800D01*
X0012180Y0002771D02*
Y0001775D01*
X0009750Y0000844D02*
Y-0000060D01*
X0018270Y0001560D02*
X0012494D01*
X0008130Y0003575D02*
Y0003450D01*
X0013530Y0002940D02*
Y-0000060D01*
X0013440Y0002940D02*
Y-0000060D01*
X0009300Y0001294D02*
Y-0000060D01*
X0009660Y0000934D02*
Y-0000060D01*
X0003504Y0004260D02*
X0003406D01*
X0012000Y0001370D02*
Y-0000060D01*
X0010740Y0000680D02*
Y-0000060D01*
X0018270Y0000930D02*
X0011238D01*
X0010560Y0000680D02*
Y-0000060D01*
X0010470Y0000680D02*
Y-0000060D01*
X0010380Y0000680D02*
Y-0000060D01*
X0011010Y0001490D02*
Y0001085D01*
X0013620Y0002940D02*
Y-0000060D01*
X0009210Y0001384D02*
Y-0000060D01*
X0009120Y0001420D02*
Y-0000060D01*
X0018270Y0001740D02*
X0012391D01*
X0011820Y0001370D02*
Y-0000060D01*
X0010920Y0000612D02*
Y-0000060D01*
X0010020Y0000680D02*
Y-0000060D01*
X0010380Y0002650D02*
Y0001000D01*
X0010290Y0002650D02*
Y0001000D01*
X0015060Y0003560D02*
Y0003337D01*
X0015960Y0003560D02*
Y0003470D01*
X0018270Y0000480D02*
X0008916D01*
X0005700Y0000290D02*
Y-0000060D01*
X0008850Y0000400D02*
Y-0000060D01*
X0008760Y0000337D02*
Y-0000060D01*
X0004980Y0001100D02*
Y-0000060D01*
X0008580Y0000290D02*
Y-0000060D01*
X0008490Y0000298D02*
Y-0000060D01*
X0008400Y0000327D02*
Y-0000060D01*
X0005700Y0005064D02*
Y0004188D01*
X0018270Y0005160D02*
X0016670D01*
X0007480Y0000300D02*
X0006660D01*
X0008940Y0000523D02*
Y-0000060D01*
X0007950Y0000546D02*
Y-0000060D01*
X0007860Y0000410D02*
Y-0000060D01*
X0007770Y0000342D02*
Y-0000060D01*
X0004890Y0001100D02*
Y-0000060D01*
X0007590Y0000290D02*
Y-0000060D01*
X0007500Y0000296D02*
Y-0000060D01*
X0007410Y0000322D02*
Y-0000060D01*
X0018270Y0001920D02*
X0008276D01*
X0007320Y0001100D02*
Y0001025D01*
X0006480Y0000300D02*
X0005980D01*
X0007680Y0000305D02*
Y-0000060D01*
X0006960Y0000573D02*
Y-0000060D01*
X0006870Y0000420D02*
Y-0000060D01*
X0006780Y0000348D02*
Y-0000060D01*
X0007230Y0000471D02*
Y-0000060D01*
X0006600Y0000291D02*
Y-0000060D01*
X0004710Y0001100D02*
Y-0000060D01*
X0006420Y0000318D02*
Y-0000060D01*
X0010822Y0003450D02*
X0008580D01*
X0002720Y0002370D02*
X0002460D01*
X0000030Y0000126D02*
Y-0000060D01*
X0006690Y0000308D02*
Y-0000060D01*
X0008040Y0001100D02*
Y-0000060D01*
X0005880Y0000290D02*
Y-0000060D01*
X0005790Y0000290D02*
Y-0000060D01*
X0004530Y0001100D02*
Y-0000060D01*
X0012450Y0010070D02*
Y0008388D01*
X0005610Y0000290D02*
Y-0000060D01*
X0005520Y0000290D02*
Y-0000060D01*
X0005430Y0000290D02*
Y-0000060D01*
X0009660Y0010070D02*
Y0008739D01*
X0015690Y0003560D02*
Y0003134D01*
X0007050Y0001100D02*
Y-0000060D01*
X0005160Y0001100D02*
Y-0000060D01*
X0005070Y0001100D02*
Y-0000060D01*
X0007320Y0000375D02*
Y-0000060D01*
X0006510Y0000294D02*
Y-0000060D01*
X0004800Y0003110D02*
Y0001740D01*
X0002280Y0002161D02*
Y-0000060D01*
X0002720Y0001740D02*
X-0000060D01*
X0004350Y0003110D02*
Y0001740D01*
X0003800Y0001966D02*
X0004026Y0001740D01*
X0003360Y0003866D02*
Y0001420D01*
X0004620Y0003110D02*
Y0001740D01*
X0002820Y0001414D02*
Y-0000060D01*
X0010740Y0001416D02*
Y0001000D01*
X0003040Y0001646D02*
X0003266Y0001420D01*
X0003450Y0004600D02*
Y0004216D01*
Y0008410D02*
Y0005514D01*
X0003960Y0001420D02*
X0003266D01*
X0002720Y0001830D02*
X-0000060D01*
X0002720Y0003824D02*
Y0001580D01*
X0003630Y0001684D02*
Y0001420D01*
X0002820Y0010070D02*
Y0008750D01*
X0003450Y0003884D02*
Y0001420D01*
X0003000Y0001234D02*
Y-0000060D01*
X0002720Y0002910D02*
X0002573D01*
X0003630Y0001100D02*
Y-0000060D01*
X0002550Y0002579D02*
Y-0000060D01*
X0003900Y0001100D02*
Y-0000060D01*
X0002370Y0002248D02*
Y-0000060D01*
X0002640Y0003866D02*
Y-0000060D01*
X0002190Y0002096D02*
Y-0000060D01*
X0002100Y0002047D02*
Y-0000060D01*
X0002010Y0002012D02*
Y-0000060D01*
X0001920Y0001988D02*
Y-0000060D01*
X0001830Y0001974D02*
Y-0000060D01*
X0001740Y0001970D02*
Y-0000060D01*
X0001650Y0001976D02*
Y-0000060D01*
X0001560Y0001992D02*
Y-0000060D01*
X0001470Y0002019D02*
Y-0000060D01*
X0001380Y0002057D02*
Y-0000060D01*
X0001290Y0002109D02*
Y-0000060D01*
X0001200Y0002178D02*
Y-0000060D01*
X0001110Y0002271D02*
Y-0000060D01*
Y0004316D02*
Y0003328D01*
X0002350Y0004800D02*
X-0000060D01*
X0000930Y0008915D02*
Y0007343D01*
X0005250Y0000290D02*
Y-0000060D01*
X0000480Y0000102D02*
Y-0000060D01*
X0000930Y0004308D02*
Y0002928D01*
X0000750Y0004456D02*
Y-0000060D01*
X0000660Y0004339D02*
Y-0000060D01*
X0000570Y0004300D02*
Y-0000060D01*
X0000210Y-0000030D02*
Y-0000060D01*
X0017180Y0008580D02*
X0016870D01*
X0002730Y0010070D02*
Y0008750D01*
X0000300Y-0000032D02*
Y-0000060D01*
X0018270Y0009930D02*
X0000689D01*
X0018270Y0009840D02*
X0000938D01*
X0018270Y0009750D02*
X0001042D01*
X0018270Y0009660D02*
X0001108D01*
X0018270Y0009570D02*
X0001151D01*
X0018270Y0009480D02*
X0001175D01*
X0018270Y0010020D02*
X-0000060D01*
X0018270Y0009300D02*
X0001178D01*
X0016320Y0003645D02*
Y0003620D01*
X0018270Y0009210D02*
X0001158D01*
X0000105D02*
X-0000060D01*
X0000143Y0009120D02*
X-0000060D01*
X0000203Y0009030D02*
X-0000060D01*
X0000473Y0008850D02*
X-0000060D01*
X0009530Y0008410D02*
X0005415D01*
X0001650Y0007680D02*
X-0000060D01*
X0002010Y0010070D02*
Y0008690D01*
X0004745Y0008410D02*
X0002210D01*
X0001990Y0008190D01*
X0002442Y0007770D02*
X0001990D01*
X0001650Y0008220D02*
X-0000060D01*
X0002550Y0010070D02*
Y0008750D01*
X0012456Y0005790D02*
X0009710D01*
X0005070Y0010070D02*
Y0008750D01*
X0001650Y0007860D02*
X-0000060D01*
X0004350Y0007410D02*
Y0005990D01*
X0002542Y0007860D02*
X0001990D01*
Y0008190D02*
Y0005856D01*
X0001650Y0005880D02*
X-0000060D01*
X0001047Y0007410D02*
X-0000060D01*
X0000901Y0007320D02*
X-0000060D01*
X0000817Y0007230D02*
X-0000060D01*
X0001650Y0005970D02*
X-0000060D01*
X0002350Y0005430D02*
X-0000060D01*
X0000709Y0006870D02*
X-0000060D01*
X0002350Y0005340D02*
X-0000060D01*
X0001650Y0006330D02*
X-0000060D01*
X0000796Y0006600D02*
X-0000060D01*
X0010190Y0006050D02*
X0010082Y0005942D01*
X0018270Y0001650D02*
X0012469D01*
X0007320Y0005650D02*
Y0004720D01*
X0010020Y0005901D02*
Y0004990D01*
X0001650Y0006420D02*
X0001536D01*
X0004149Y0005340D02*
X0003860D01*
X0004170Y0005650D02*
X0003845Y0005325D01*
X0002866Y0008220D02*
X0002020D01*
X0002350Y0005790D02*
X0002039D01*
X0002350Y0005610D02*
X0002055D01*
X0000721Y0006780D02*
X-0000060D01*
X0001585Y0005610D02*
X-0000060D01*
X0000296Y0004440D02*
X-0000060D01*
X0012630Y0002940D02*
Y-0000060D01*
X0001894Y0004260D02*
X-0000060D01*
X0010200Y0000680D02*
Y-0000060D01*
X0001820Y0003810D02*
X-0000060D01*
X0001859Y0003900D02*
X-0000060D01*
X0000300Y0004432D02*
Y0000452D01*
X0018270Y0005790D02*
X0016670D01*
X0005774Y0002190D02*
X0003800D01*
X0002690Y0006250D02*
Y0004256D01*
X0003090Y0004744D02*
Y0004274D01*
X0002280Y0003652D02*
Y0003439D01*
X0002354Y0003900D02*
X0002261D01*
X0011190Y0004351D02*
Y0003865D01*
X0017113Y0008850D02*
X0016870D01*
X0002350Y0004890D02*
X-0000060D01*
X0001374Y0003540D02*
X-0000060D01*
X0001234Y0003450D02*
X-0000060D01*
X0001137Y0003360D02*
X-0000060D01*
X0001066Y0003270D02*
X-0000060D01*
X0001012Y0003180D02*
X-0000060D01*
X0000972Y0003090D02*
X-0000060D01*
X0000944Y0003000D02*
X-0000060D01*
X0000927Y0002910D02*
X-0000060D01*
X0000920Y0002820D02*
X-0000060D01*
X0012810Y0005010D02*
Y0003920D01*
X0013765Y0000030D02*
X0000426D01*
X0000930Y0002672D02*
Y-0000060D01*
X0002720Y0001650D02*
X-0000060D01*
X0000032Y0000300D02*
X-0000060D01*
X0001103Y0002280D02*
X-0000060D01*
X0008670Y0000302D02*
Y-0000060D01*
X0002764Y0001470D02*
X-0000060D01*
X0002720Y0002100D02*
X0002196D01*
X0002720Y0002010D02*
X0002005D01*
X0000993Y0002460D02*
X-0000060D01*
X0003090Y0001144D02*
Y-0000060D01*
X0001187Y0002190D02*
X-0000060D01*
X0003450Y0001100D02*
Y-0000060D01*
X0005160Y0001100D02*
X0003200D01*
X0003144Y0001110D02*
X-0000060D01*
X0005160Y0001020D02*
X-0000060D01*
X0005160Y0000930D02*
X-0000060D01*
X0005160Y0000840D02*
X-0000060D01*
X0005160Y0000750D02*
X-0000060D01*
X0005160Y0000660D02*
X-0000060D01*
X0005160Y0000570D02*
X-0000060D01*
X0000840Y0004364D02*
Y-0000060D01*
X0000094Y0000390D02*
X-0000060D01*
X0005160Y0000480D02*
X-0000060D01*
X0000015Y0000210D02*
X-0000060D01*
X0018270Y0009390D02*
X0001184D01*
X0016320Y0010070D02*
Y0009180D01*
X0016230Y0010070D02*
Y0009180D01*
X0017220Y0006083D02*
Y0003110D01*
X0017285Y0009120D02*
X0016870D01*
X0017187Y0009030D02*
X0016870D01*
X0017137Y0008940D02*
X0016870D01*
X0003754Y0001560D02*
X0003126D01*
X0002720Y0003450D02*
X0002266D01*
X0002720Y0003360D02*
X0002363D01*
X0002720Y0003270D02*
X0002434D01*
X0018270Y0005970D02*
X0016670D01*
X0002720Y0003180D02*
X0002488D01*
X0002720Y0003090D02*
X0002528D01*
X0003480Y0003810D02*
X0003040D01*
X0002720Y0003540D02*
X0002168D01*
X0000030Y0010070D02*
Y0000294D01*
X0002920Y0006690D02*
X0002416D01*
X0002720Y0001920D02*
X-0000060D01*
X0002280Y0003972D02*
Y0003868D01*
X0002190Y0003552D02*
Y0003504D01*
X0001200Y0010070D02*
Y0007450D01*
X0002720Y0003630D02*
X0002268D01*
X0001650Y0006150D02*
X-0000060D01*
X0000296Y0008940D02*
X-0000060D01*
X0001920Y0005456D02*
Y0004281D01*
X0001740Y0005448D02*
Y0003630D01*
X0001560Y0006435D02*
Y0003608D01*
X0001470Y0006388D02*
Y0003581D01*
X0001380Y0006360D02*
Y0003543D01*
X0001290Y0006348D02*
Y0003491D01*
X0001200Y0004385D02*
Y0003422D01*
X0007756Y0002550D02*
X0006101D01*
X0002730Y0001524D02*
Y-0000060D01*
X0006240Y0000457D02*
Y-0000060D01*
X0002720Y0002460D02*
X0002507D01*
X0018270Y0004170D02*
X0016670D01*
X0018270Y0003540D02*
X0016826D01*
X0018270Y0003450D02*
X0016966D01*
X0018270Y0003360D02*
X0017063D01*
X0018270Y0003270D02*
X0017134D01*
X0018270Y0003180D02*
X0017188D01*
X0018270Y0003090D02*
X0017228D01*
X0018270Y0003000D02*
X0017256D01*
X0018270Y0002910D02*
X0017273D01*
X0018270Y0002820D02*
X0017280D01*
X0018270Y0002730D02*
X0017277D01*
X0013800Y0000006D02*
Y-0000060D01*
X0018270Y0002460D02*
X0017207D01*
X0018270Y0002370D02*
X0017160D01*
X0018270Y0002280D02*
X0017097D01*
X0018270Y0002190D02*
X0017013D01*
X0018270Y0002100D02*
X0016896D01*
X0017490Y0005970D02*
Y-0000060D01*
X0017400Y0005981D02*
Y-0000060D01*
X0015960Y0010070D02*
Y0003920D01*
X0017040Y0010070D02*
Y0003384D01*
X0017270Y0008490D02*
X0016870D01*
X0016670Y0005970D02*
Y0004070D01*
X0016860Y0005970D02*
Y0003522D01*
X0016770Y0005970D02*
Y0003566D01*
X0016680Y0005970D02*
Y0003597D01*
X0008760Y0002860D02*
Y0002488D01*
X0018270Y0004080D02*
X0016670D01*
X0016617Y0003943D02*
X0016289Y0003614D01*
X0016500Y0003825D02*
Y0003628D01*
X0016590Y0003915D02*
Y0003618D01*
X0016050Y0003560D02*
Y0003527D01*
X0018270Y0002550D02*
X0017241D01*
X0015870Y0003560D02*
Y0003394D01*
X0015780Y0003560D02*
Y0003290D01*
Y0002310D02*
Y-0000060D01*
X0001740Y0010070D02*
Y0008420D01*
X0001020Y0002405D02*
Y-0000060D01*
X0000094Y0000030D02*
X-0000060D01*
X0018270Y0002010D02*
X0016705D01*
X0001040Y0002370D02*
X-0000060D01*
X0000275Y0004530D02*
X-0000060D01*
X0009394Y0001200D02*
X0008714D01*
X0009484Y0001110D02*
X0008730D01*
X0011280Y0002650D02*
Y0001830D01*
X0012360Y0002940D02*
Y0001759D01*
X0006344Y0002010D02*
X0003800D01*
X0011910Y0001370D02*
Y-0000060D01*
X0011223Y0001380D02*
X0009666D01*
X0011820Y0002606D02*
Y0001815D01*
X0010920Y0002650D02*
Y0001830D01*
X0011160D02*
X0010896D01*
X0010565Y0001470D02*
X0009576D01*
X0011370Y0002650D02*
Y0001830D01*
X0010488Y0001740D02*
X0009240D01*
X0011460Y0002650D02*
Y0001836D01*
X0011550Y0002650D02*
Y0001892D01*
X0011640Y0002650D02*
Y0001905D01*
X0012074Y0001710D02*
X0011870D01*
X0018270Y0000030D02*
X0014075D01*
X0007644Y0001920D02*
X0006752D01*
X0012270Y0001296D02*
Y-0000060D01*
X0011730Y0002650D02*
Y0001884D01*
X0012108Y0001740D02*
X0011862D01*
X0006330Y0002085D02*
Y0001995D01*
X0009840Y0000754D02*
Y-0000060D01*
X0012000Y0002582D02*
Y0001710D01*
X0012090Y0002626D02*
Y0001725D01*
X0011910Y0002577D02*
Y0001710D01*
X0018270Y0001470D02*
X0012485D01*
X0011190Y0002650D02*
Y0001830D01*
X0009240Y0001740D02*
X0006744D01*
X0013696Y0000120D02*
X0000488D01*
X0010475Y0001650D02*
X0009396D01*
X0012074Y0001370D02*
X0011280D01*
X0011100Y0002650D02*
Y0001830D01*
X0011370Y0001370D02*
Y-0000060D01*
X0012450Y0002940D02*
Y0001681D01*
X0012090Y0001354D02*
Y-0000060D01*
X0011090Y0001490D02*
X0011158Y0001422D01*
X0011070Y0005070D02*
X0011045D01*
X0006590Y0003990D02*
X0006044D01*
X0005970Y0005650D02*
Y0004005D01*
X0011910Y0005010D02*
Y0004984D01*
X0011010Y0002650D02*
Y0001830D01*
X0012450Y0005890D02*
Y0005788D01*
X0013080Y0005890D02*
Y0005659D01*
X0013970Y0007008D02*
Y0006690D01*
X0011820Y0005890D02*
Y0005350D01*
X0012830Y0005430D02*
X0012748D01*
X0016310Y0005160D02*
X0013040D01*
X0010496Y0001560D02*
X0009486D01*
X0011090Y0001490D02*
X0010896D01*
X0013020Y0005620D02*
X0012750Y0005350D01*
X0012720Y0005010D02*
Y0004726D01*
X0012000Y0005890D02*
Y0005350D01*
X0013170Y0005890D02*
Y0005670D01*
X0013870Y0006310D02*
Y0005890D01*
X0012920Y0005520D02*
X0012782D01*
X0010920Y0001490D02*
Y0001068D01*
X0016310Y0005250D02*
X0013130D01*
X0013800Y0005918D02*
Y0005820D01*
X0016310Y0005880D02*
X0014210D01*
X0016110Y0006060D02*
X0014210D01*
X0013980Y0005520D02*
Y0003920D01*
X0013870Y0005890D02*
X0013650Y0005670D01*
X0013260Y0005890D02*
Y0005670D01*
X0016310Y0005340D02*
X0013777D01*
X0013800Y0006380D02*
Y0006201D01*
X0013870Y0005970D02*
X0013828D01*
X0013710Y0005841D02*
Y0005730D01*
X0014210Y0006380D02*
Y0005820D01*
X0013980Y0007005D02*
Y0006680D01*
X0013850Y0006330D02*
X0011968D01*
X0016310Y0005700D02*
X0014160D01*
X0011454Y0001830D02*
X0011160D01*
X0016110Y0006150D02*
X0014210D01*
X0016310Y0005970D02*
X0014210D01*
X0016310Y0005790D02*
X0014207D01*
X0013710Y0006470D02*
Y0006279D01*
X0009842Y0008040D02*
X0005498D01*
X0013558Y0008130D02*
X0013190D01*
X0016110Y0006600D02*
X0014060D01*
X0013630Y0007590D02*
X0013190D01*
X0013710Y0010070D02*
Y0008398D01*
X0017133Y0008670D02*
X0016870D01*
X0002010Y0005525D02*
Y0004320D01*
X0005752Y0003630D02*
X0005738D01*
X0007888Y0003900D02*
X0006980D01*
X0006510Y0003590D02*
Y0003450D01*
X0005790Y0005650D02*
Y0003936D01*
X0005880Y0005650D02*
Y0003992D01*
X0006600Y0003590D02*
X0006136D01*
X0006330Y0005650D02*
Y0003930D01*
X0007950Y0005650D02*
Y0005070D01*
X0007770Y0005650D02*
Y0005070D01*
X0005759Y0003900D02*
X0005731D01*
X0007620Y0005020D02*
X0006530Y0003930D01*
X0006420Y0005650D02*
Y0003930D01*
X0012990Y0010070D02*
Y0008593D01*
X0007860Y0003110D02*
Y0003024D01*
X0007410Y0005650D02*
Y0004810D01*
X0008760Y0005650D02*
Y0004990D01*
X0008600Y0005070D02*
X0007740D01*
X0008720Y0005020D02*
X0008750Y0004990D01*
X0018270Y0007680D02*
X0013970D01*
X0007680Y0003110D02*
Y0002965D01*
X0006690Y0005650D02*
Y0004090D01*
X0011346Y0004170D02*
X0007250D01*
X0011229Y0004260D02*
X0007340D01*
X0007304Y0003720D02*
X0006800D01*
X0007400Y0004800D02*
X0005626D01*
X0007235Y0003540D02*
X0006068D01*
X0013800Y0005350D02*
Y0003920D01*
X0008580Y0005650D02*
Y0005070D01*
X0006860Y0004260D02*
X0005646D01*
X0007490Y0004890D02*
X0005677D01*
X0010555Y0005070D02*
X0005705D01*
X0011160Y0005160D02*
X0011032D01*
X0012990Y0005674D02*
Y0005590D01*
X0012720Y0005394D02*
Y0005350D01*
X0011363Y0005340D02*
X0005739D01*
X0002720Y0003000D02*
X0002556D01*
X0004440Y0001100D02*
Y-0000060D01*
X0013210Y0005330D02*
X0012942Y0005062D01*
X0012298Y0005520D02*
X0004592D01*
X0013650Y0005670D02*
X0013140D01*
X0016310Y0004890D02*
X0011925D01*
X0016310Y0004980D02*
X0011912D01*
X0011280Y0005890D02*
Y0005280D01*
X0018270Y0007770D02*
X0013970D01*
X0007714Y0004440D02*
X0007520D01*
X0013080Y0005200D02*
Y0003920D01*
X0007626Y0004530D02*
X0007610D01*
X0003270Y0004603D02*
Y0004323D01*
X0006060Y0005650D02*
Y0003984D01*
X0011910Y0004816D02*
Y0004800D01*
X0013620Y0005816D02*
Y0005670D01*
X0012270Y0002940D02*
Y0001784D01*
X0011640Y0005890D02*
Y0005350D01*
X0011190Y0004350D02*
X0007430D01*
X0012180Y0001305D02*
Y-0000060D01*
X0018270Y0006060D02*
X0017736D01*
X0018270Y0007500D02*
X0013970D01*
X0014070Y0006996D02*
Y0006590D01*
X0011300Y0005300D02*
X0011042Y0005042D01*
X0007248Y0003630D02*
X0006710D01*
X0013670Y0006510D02*
X0012386D01*
X0009480Y0005650D02*
Y0004990D01*
X0011190Y0005890D02*
Y0005190D01*
X0018270Y0008490D02*
X0017710D01*
X0011250Y0005250D02*
X0010976D01*
X0011370Y0005890D02*
Y0005342D01*
X0006870Y0005650D02*
Y0004270D01*
X0009120Y0005650D02*
Y0004990D01*
X0004530Y0004600D02*
Y0003450D01*
Y0005314D02*
Y0004920D01*
X0007230Y0005650D02*
Y0004630D01*
X0005430Y0005650D02*
Y0005458D01*
X0010624Y0005250D02*
X0005764D01*
X0005430Y0004616D02*
Y0004320D01*
X0005360Y0004986D02*
X0005294Y0004920D01*
X0003366D01*
X0004620Y0005650D02*
Y0004920D01*
X0004710Y0005650D02*
Y0004920D01*
X0004800Y0005650D02*
Y0004920D01*
X0007875Y0003810D02*
X0006890D01*
X0005340Y0005064D02*
Y0004966D01*
X0016110Y0006420D02*
X0014205D01*
X0005633Y0004807D02*
X0005475Y0004648D01*
X0003900Y0004600D02*
Y0003494D01*
X0002948Y0004890D02*
X0002690D01*
X0005360Y0004600D02*
X0003300D01*
X0007590Y0004510D02*
Y0003769D01*
X0003360Y0005271D02*
Y0004926D01*
X0002920Y0007320D02*
X0001990D01*
X0003270Y0007945D02*
Y0005016D01*
X0005354Y0004980D02*
X0003306D01*
X0002920D02*
X0002690D01*
X0003630Y0005077D02*
Y0004920D01*
X0002968Y0004865D02*
X0003187Y0004647D01*
X0004754Y0007860D02*
X0003240D01*
X0007590Y0005650D02*
Y0004990D01*
X0003540Y0005082D02*
Y0004920D01*
X0002920Y0007914D02*
Y0004980D01*
Y0007770D02*
X0002858D01*
X0010830Y0007110D02*
Y0006590D01*
X0012414Y0005350D02*
X0011680D01*
X0000749Y0006690D02*
X-0000060D01*
X0005880Y0003528D02*
Y0003450D01*
X0015766Y0003270D02*
X0015296D01*
X0012270Y0003560D02*
Y0003260D01*
X0014965Y0002910D02*
X0012168D01*
X0015627D02*
X0015275D01*
X0011730Y0003560D02*
Y0003260D01*
X0014880Y0003560D02*
Y0003260D01*
X0015712Y0003180D02*
X0015352D01*
X0012720Y0003560D02*
Y0003260D01*
X0011820Y0003560D02*
Y0003260D01*
X0009120Y0004480D02*
Y0002990D01*
X0015672Y0003090D02*
X0015365D01*
X0009480Y0004480D02*
Y0002990D01*
X0009210Y0004480D02*
Y0002990D01*
X0012360Y0003560D02*
Y0003260D01*
X0012630Y0003560D02*
Y0003260D01*
X0008940Y0002682D02*
Y0002520D01*
X0007410Y0003110D02*
Y0002475D01*
X0005680Y0005044D02*
Y0004920D01*
X0007256Y0003450D02*
X0004196D01*
X0008130Y0003110D02*
Y0002346D01*
X0002720Y0002640D02*
X0002564D01*
X0007770Y0004415D02*
Y0003450D01*
X0008800Y0002820D02*
X0008082D01*
X0008620Y0003000D02*
X0007948D01*
X0008490Y0004480D02*
Y0003450D01*
X0007950Y0003110D02*
Y0002999D01*
X0006600Y0003590D02*
Y0003450D01*
X0007320Y0004240D02*
Y0003735D01*
X0008700Y0003400D02*
X0009110Y0002990D01*
X0009660Y0004480D02*
Y0002990D01*
X0014934Y0002940D02*
X0012154D01*
X0011100Y0001480D02*
Y0001068D01*
X0008710Y0002910D02*
X0008048D01*
X0009570Y0004480D02*
Y0002990D01*
X0012450Y0003560D02*
Y0003260D01*
X0008510Y0003110D02*
X0008918Y0002702D01*
X0008040Y0003588D02*
Y0003450D01*
X0013890Y-0000023D02*
Y-0000060D01*
X0010820Y0003420D02*
Y0003236D01*
X0012180Y0003560D02*
Y0003260D01*
X0010830Y0004480D02*
Y0003479D01*
X0009750Y0004480D02*
Y0002990D01*
X0014970Y0003560D02*
Y0003294D01*
X0005790Y0003584D02*
Y0003450D01*
X0011280Y0004206D02*
Y0003915D01*
X0014934Y0003260D02*
X0011496D01*
X0011193Y0003867D02*
X0010874Y0003549D01*
X0007950Y0003644D02*
Y0003450D01*
X0007896Y0003720D02*
X0007656D01*
X0011370Y0004162D02*
Y0003920D01*
X0000923Y0002730D02*
X-0000060D01*
X0014520Y0010070D02*
Y0003920D01*
X0010866Y0003540D02*
X0007725D01*
X0016410Y0003735D02*
Y0003629D01*
X0016950Y0010070D02*
Y0003462D01*
X0016310Y0005970D02*
Y0004145D01*
X0018270Y0003990D02*
X0016651D01*
X0016310Y0004145D02*
X0016085Y0003920D01*
X0005876Y0003990D02*
X0005708D01*
X0013980Y-0000017D02*
Y-0000060D01*
X0018270Y0002640D02*
X0017264D01*
X0012270Y0005010D02*
Y0004792D01*
X0017167Y0006150D02*
X0016870D01*
X0017244Y0006060D02*
X0016870D01*
X0016230Y0005970D02*
Y0004065D01*
X0018270Y0003720D02*
X0016395D01*
X0008220Y0001100D02*
Y0000913D01*
X0018270Y0004620D02*
X0016670D01*
X0008480Y0000300D02*
X0007660D01*
X0008310Y0001100D02*
Y0001017D01*
X0013744Y0000390D02*
X0008838D01*
X0014250Y0002940D02*
Y-0000060D01*
X0008940Y0001420D02*
Y0000877D01*
X0006420Y0001100D02*
Y0001082D01*
X0018270Y0004710D02*
X0016670D01*
X0008730Y0001130D02*
Y0001077D01*
X0018270Y0004350D02*
X0016670D01*
X0018270Y0000570D02*
X0008959D01*
X0018270Y0004260D02*
X0016670D01*
X0009030Y0001420D02*
Y-0000060D01*
X0004170Y0001100D02*
Y-0000060D01*
X0003270Y0003837D02*
Y0001420D01*
X0004620Y0001100D02*
Y-0000060D01*
X0018270Y0004530D02*
X0016670D01*
X0008850Y0001420D02*
Y0000999D01*
X0003180Y0001101D02*
Y-0000060D01*
X0000365Y0004350D02*
X-0000060D01*
X0003480Y0003630D02*
X0003040D01*
X0003480Y0003720D02*
X0003040D01*
X0003480Y0002550D02*
X0003040D01*
X0004080Y0001100D02*
Y-0000060D01*
X0003540Y0001774D02*
Y0001420D01*
X0002768Y0001465D02*
X0003087Y0001147D01*
X0002370Y0003886D02*
Y0003352D01*
X0000288Y0004620D02*
X-0000060D01*
X0002910Y0001324D02*
Y-0000060D01*
X0003844Y0001470D02*
X0003216D01*
X0003436Y0003900D02*
X0003406D01*
X0002720Y0002550D02*
X0002541D01*
X0006600Y0006250D02*
Y0005990D01*
X0002720Y0003720D02*
X0002302D01*
X0010650Y0006615D02*
Y0006590D01*
X0005585Y0006780D02*
X0005315D01*
X0005691Y0006590D02*
X0005526D01*
X0005520Y0007410D02*
Y0006596D01*
X0005160Y0006717D02*
Y0006575D01*
X0009300Y0007110D02*
Y0007070D01*
X0010215Y0006780D02*
X0010190D01*
X0005682Y0006600D02*
X0005516D01*
X0010284D02*
X0010190D01*
X0011280Y0007110D02*
Y0006590D01*
X0011986Y0006780D02*
X0010705D01*
X0005340Y0006797D02*
Y0006665D01*
X0008580Y0006250D02*
Y0005990D01*
X0005610Y0006714D02*
Y0006590D01*
X0002920Y0006240D02*
X0002690D01*
X0011460Y0007110D02*
Y0006590D01*
X0003360Y0004600D02*
Y0004294D01*
X0010380Y0007110D02*
Y0007002D01*
X0010305Y0006960D02*
X0010120D01*
X0010470Y0007110D02*
Y0007015D01*
X0008760Y0007110D02*
Y0007070D01*
X0008850Y0007110D02*
Y0007070D01*
X0007770Y0006250D02*
Y0005990D01*
X0011564Y0006590D02*
X0010626D01*
X0007680Y0007110D02*
Y0006590D01*
X0008400Y0007110D02*
Y0006590D01*
X0008220Y0007110D02*
Y0006590D01*
X0008510Y0006600D02*
X0007394D01*
X0008940Y0007110D02*
Y0007070D01*
X0008490Y0006820D02*
Y0006680D01*
X0007770Y0007110D02*
Y0006590D01*
X0007500Y0007080D02*
Y0006590D01*
X0009030Y0007110D02*
Y0007070D01*
X0008670Y0006250D02*
Y0006206D01*
X0010236Y0006870D02*
X0010182D01*
X0008620Y0007020D02*
X0008542Y0006942D01*
X0008516Y0006590D02*
X0007388D01*
X0001830Y0005435D02*
Y0004164D01*
X0007590Y0007110D02*
Y0006590D01*
X0008497Y0006870D02*
X0007374D01*
X0011965Y0006690D02*
X0010692D01*
X0009940Y0007070D02*
X0008740D01*
X0008040Y0007110D02*
Y0006590D01*
X0005250Y0004600D02*
Y0004164D01*
X0005430Y0006890D02*
Y0006652D01*
X0012055Y0006870D02*
X0010684D01*
X0009930Y0007110D02*
Y0007070D01*
X0009570Y0007110D02*
Y0007070D01*
X0009750Y0007110D02*
Y0007070D01*
X0010060Y0007020D02*
X0010138Y0006942D01*
X0008694Y0006240D02*
X0005516D01*
X0002460Y0010070D02*
Y0008750D01*
X0002886Y0007950D02*
X0001990D01*
X0010228Y0006690D02*
X0010190D01*
Y0006820D02*
Y0006590D01*
X0011100Y0007110D02*
Y0006590D01*
X0010020Y0007110D02*
Y0007050D01*
X0009210Y0007110D02*
Y0007070D01*
X0013434Y0006240D02*
X0011906D01*
X0013760Y0006420D02*
X0011985D01*
X0009390Y0007110D02*
Y0007070D01*
X0010920Y0007110D02*
Y0006590D01*
X0010110Y0007110D02*
Y0006970D01*
X0012339Y0005700D02*
X0009620D01*
X0003990Y0001100D02*
Y-0000060D01*
X0008490Y0007110D02*
Y0006590D01*
X0004080Y0003042D02*
Y0001740D01*
X0012850Y0008040D02*
X0012521D01*
X0012270Y0006442D02*
Y0006230D01*
X0011460Y0010070D02*
Y0007690D01*
X0012090Y0007710D02*
Y0007450D01*
X0012078Y0008220D02*
X0010294D01*
X0012812D02*
X0012562D01*
X0012778Y0008310D02*
X0012528D01*
X0011940Y0008040D02*
X0010317D01*
X0012030Y0008130D02*
X0010323D01*
X0012270Y0007890D02*
Y0007450D01*
X0012180Y0007110D02*
Y0006923D01*
X0011100Y0010070D02*
Y0007930D01*
X0009840Y0010070D02*
Y0008580D01*
X0011640Y0010070D02*
Y0007740D01*
X0010740Y0010070D02*
Y0007750D01*
X0011910Y0007530D02*
Y0007450D01*
X0012850Y0007770D02*
X0012150D01*
X0010110Y0007857D02*
Y0007750D01*
X0012850Y0008130D02*
X0012560D01*
X0012540Y0010070D02*
Y0008288D01*
X0011670Y0007770D02*
X0011290D01*
X0013094Y0007050D02*
X0010020D01*
X0013630Y0006780D02*
X0013457D01*
X0012850Y0007680D02*
X0012060D01*
X0012850Y0007860D02*
X0012240D01*
X0012630Y0007450D02*
X0011830D01*
X0013171Y0006600D02*
X0012442D01*
X0010796Y0007770D02*
X0008690D01*
X0010785Y0007750D02*
X0008704D01*
X0011730Y0010070D02*
Y0007830D01*
X0018270Y0007860D02*
X0013970D01*
X0011120Y0007930D02*
X0011020D01*
X0009480Y0008410D02*
Y0007750D01*
X0012034Y0006510D02*
X0011968D01*
X0010650Y0006050D02*
Y0005274D01*
X0011290Y0007760D02*
Y0007690D01*
X0012450Y0007110D02*
Y0006729D01*
X0012000Y0007110D02*
Y0006806D01*
X0011550Y0010070D02*
Y0007690D01*
X0012360Y0010070D02*
Y0008422D01*
X0011978Y0006600D02*
X0011906D01*
X0012360Y0007110D02*
Y0006874D01*
X0012990Y0006756D02*
Y0006230D01*
X0010560Y0007110D02*
Y0006994D01*
X0012850Y0007950D02*
X0012404D01*
X0012270Y0007110D02*
Y0006917D01*
X0009120Y0008410D02*
Y0007750D01*
X0010880Y0007860D02*
X0010129D01*
X0012977Y0006870D02*
X0012365D01*
X0005378Y0005430D02*
X0004590D01*
X0011910Y0007110D02*
Y0006596D01*
X0012090Y0005010D02*
Y0004800D01*
X0013630Y0007410D02*
X0013070D01*
X0003480Y0003090D02*
X0003040D01*
X0010900Y0007880D02*
X0010822Y0007802D01*
X0012090Y0007110D02*
Y0006894D01*
X0009660Y0008280D02*
Y0007750D01*
X0003480Y0002460D02*
X0003040D01*
X0003480Y0001920D02*
X0003040D01*
X0004710Y0007410D02*
Y0007359D01*
X0003480Y0003360D02*
X0003040D01*
X0007950Y0008410D02*
Y0007815D01*
X0003034Y0001200D02*
X-0000060D01*
X0008670Y0008410D02*
Y0007790D01*
X0012450Y0005010D02*
Y0004788D01*
X0008560Y0007830D02*
X0008380D01*
X0008760Y0008410D02*
Y0007750D01*
X0003360Y0001100D02*
Y-0000060D01*
X0003480Y0002730D02*
X0003040D01*
X0003480Y0002820D02*
X0003040D01*
X0003480Y0002910D02*
X0003040D01*
X0008400Y0008410D02*
Y0007830D01*
X0003480Y0002190D02*
X0003040D01*
X0007770Y0008410D02*
Y0007750D01*
X0007680Y0008410D02*
Y0007750D01*
X0003480Y0003000D02*
X0003040D01*
X0009174Y0001420D02*
X0008440D01*
X0003480Y0003270D02*
X0003040D01*
X0003222Y0004620D02*
X0002690D01*
X0003480Y0002280D02*
X0003040D01*
X0008490Y0008410D02*
Y0007830D01*
X0004350Y0001100D02*
Y-0000060D01*
X0003480Y0003180D02*
X0003040D01*
X0011550Y0004186D02*
Y0003920D01*
X0004710Y0007921D02*
Y0007750D01*
X0005610Y0008410D02*
Y0007750D01*
X0003480Y0003540D02*
X0003040D01*
X0008200Y0007830D02*
X0008020D01*
X0003480Y0003450D02*
X0003040D01*
X0009304Y0001290D02*
X0008636D01*
X0003720Y0001594D02*
Y0001420D01*
X0018270Y0003810D02*
X0016485D01*
X0016050Y0010070D02*
Y0003920D01*
X0004190Y0007410D02*
Y0007076D01*
X0008220Y0000486D02*
Y-0000060D01*
X0002944Y0001290D02*
X-0000060D01*
X0007890Y0007770D02*
X0005299D01*
X0004800Y0007814D02*
Y0007750D01*
X0004745Y0007410D02*
X0004190D01*
X0004745D02*
X0004190D01*
X0004659Y0007230D02*
X0004190D01*
X0004689Y0007320D02*
X0004190D01*
X0004350Y0008410D02*
Y0007750D01*
X0004260Y0008410D02*
Y0007750D01*
X0011730Y0004480D02*
Y0003920D01*
X0004170Y0006706D02*
Y0005990D01*
X0002920Y0007230D02*
X0001990D01*
X0004170Y0008410D02*
Y0007750D01*
X0002920Y0007410D02*
X0002734D01*
X0004440Y0008410D02*
Y0007750D01*
X0016110Y0006240D02*
X0014210D01*
X0002550Y0007416D02*
Y0006460D01*
X0002350Y0004260D02*
X0002226D01*
X0012900Y0007240D02*
Y0006230D01*
X0013560Y0008220D02*
X0013228D01*
X0012810Y0007150D02*
Y0006230D01*
X0012720Y0007111D02*
Y0006230D01*
X0012680Y0007500D02*
X0011880D01*
X0012540Y0008072D02*
Y0007450D01*
X0012000Y0007620D02*
Y0007450D01*
X0012450Y0007972D02*
Y0007450D01*
X0012770Y0007590D02*
X0011970D01*
X0012180Y0007800D02*
Y0007450D01*
X0013424Y0006230D02*
X0011895D01*
X0012315Y0007935D02*
X0011830Y0007450D01*
X0009930Y0010070D02*
Y0008490D01*
X0011820Y0010070D02*
Y0007920D01*
X0011010Y0010070D02*
Y0007930D01*
X0010920Y0010070D02*
Y0007897D01*
X0011590Y0007690D02*
X0011290D01*
X0012360Y0007938D02*
Y0007450D01*
X0010830Y0010070D02*
Y0007810D01*
X0010650Y0010070D02*
Y0007750D01*
X0016110Y0006510D02*
X0014150D01*
X0010020Y0007862D02*
Y0007750D01*
X0009210Y0008410D02*
Y0007750D01*
X0012090Y0010070D02*
Y0008264D01*
X0012270Y0010070D02*
Y0008420D01*
X0009390Y0008410D02*
Y0007750D01*
X0009840Y0008051D02*
Y0007750D01*
X0011190Y0010070D02*
Y0007915D01*
X0012180Y0010070D02*
Y0008381D01*
X0008310Y0008410D02*
Y0007815D01*
X0003480Y0002100D02*
X0003040D01*
X0011460Y0004157D02*
Y0003920D01*
X0008220Y0008410D02*
Y0007829D01*
X0003480Y0002640D02*
X0003040D01*
X0008580Y0008410D02*
Y0007829D01*
X0009030Y0008410D02*
Y0007750D01*
X0008940Y0008410D02*
Y0007750D01*
X0011820Y0004480D02*
Y0003920D01*
X0007860Y0006250D02*
Y0005990D01*
X0007530Y0007110D02*
X0007350Y0006930D01*
X0007410Y0006990D02*
Y0006804D01*
X0007500Y0008410D02*
Y0007750D01*
X0004266Y0005250D02*
X0003835D01*
X0008490Y0006690D02*
X0007423D01*
X0003480Y0002010D02*
X0003040D01*
X0007410Y0008410D02*
Y0007750D01*
X0002920Y0007140D02*
X0001990D01*
X0002920Y0006870D02*
X0001990D01*
X0002920Y0006510D02*
X0002533D01*
X0002920Y0006330D02*
X0002670D01*
X0002920Y0006060D02*
X0002690D01*
X0016310Y0005970D02*
X0016110D01*
X0005285Y0005160D02*
X0003785D01*
X0003000Y0004834D02*
Y0004224D01*
X0003034Y0004800D02*
X0002690D01*
X0003450Y0005126D02*
Y0004920D01*
X0007680Y0005650D02*
Y0005059D01*
X0007130Y0004530D02*
X0002690D01*
X0007040Y0004440D02*
X0002690D01*
X0002730Y0007408D02*
Y0004206D01*
X0002350Y0005160D02*
X-0000060D01*
X0005276Y0005250D02*
X0004434D01*
X0002920D02*
X0002690D01*
X0002350Y0005932D02*
Y0004256D01*
X0002920Y0005610D02*
X0002690D01*
X0002920Y0005430D02*
X0002690D01*
X0002460Y0007485D02*
Y0006656D01*
X0003850Y0007500D02*
Y0007076D01*
X0002920Y0006960D02*
X0001990D01*
X0007950Y0007110D02*
Y0006590D01*
X0002566Y0007410D02*
X0001990D01*
X0002350Y0005520D02*
X0002005D01*
X0002449Y0007500D02*
X0001990D01*
X0002047Y0006510D02*
X0001990D01*
X0002052Y0006420D02*
X0001990D01*
X0002036Y0006060D02*
X0001990D01*
X0002350Y0005700D02*
X0002064D01*
X0002010Y0008210D02*
Y0005835D01*
X0001650Y0008040D02*
X-0000060D01*
X0002842D02*
X0001990D01*
X0002350Y0005880D02*
X0001990D01*
X0001650Y0007950D02*
X-0000060D01*
X0008490Y0006780D02*
X0007417D01*
X0000729Y0007050D02*
X-0000060D01*
X0002015Y0006150D02*
X0001990D01*
X0001650Y0007770D02*
X-0000060D01*
X0004737Y0008400D02*
X0002200D01*
X0002910Y0008410D02*
Y0008276D01*
X0002837Y0008130D02*
X0001990D01*
X0001657Y0008310D02*
X-0000060D01*
X0002954D02*
X0002110D01*
X0013620Y0010070D02*
Y0008336D01*
X0013530Y0010070D02*
Y0006295D01*
X0008580Y0010070D02*
Y0008750D01*
X0008670Y0010070D02*
Y0008750D01*
X0009030Y0010070D02*
Y0008750D01*
X0008310Y0010070D02*
Y0008750D01*
X0008220Y0010070D02*
Y0008750D01*
X0008400Y0010070D02*
Y0008750D01*
X0008130Y0010070D02*
Y0008750D01*
X0008490Y0010070D02*
Y0008750D01*
X0008940Y0010070D02*
Y0008750D01*
X0008850Y0010070D02*
Y0008750D01*
X0008760Y0010070D02*
Y0008750D01*
X0008040Y0010070D02*
Y0008750D01*
X0007680Y0010070D02*
Y0008750D01*
X0007950Y0010070D02*
Y0008750D01*
X0007860Y0010070D02*
Y0008750D01*
X0007770Y0010070D02*
Y0008750D01*
X0007590Y0010070D02*
Y0008750D01*
X0006960Y0010070D02*
Y0008750D01*
X0006870Y0010070D02*
Y0008750D01*
X0006780Y0010070D02*
Y0008750D01*
X0006690Y0010070D02*
Y0008750D01*
X0006600Y0010070D02*
Y0008750D01*
X0007500Y0010070D02*
Y0008750D01*
X0007410Y0010070D02*
Y0008750D01*
X0007320Y0010070D02*
Y0008750D01*
X0007230Y0010070D02*
Y0008750D01*
X0007140Y0010070D02*
Y0008750D01*
X0007050Y0010070D02*
Y0008750D01*
X0006510Y0010070D02*
Y0008750D01*
X0006420Y0010070D02*
Y0008750D01*
X0006330Y0010070D02*
Y0008750D01*
X0006240Y0010070D02*
Y0008750D01*
X0006150Y0010070D02*
Y0008750D01*
X0006060Y0010070D02*
Y0008750D01*
X0005970Y0010070D02*
Y0008750D01*
X0005880Y0010070D02*
Y0008750D01*
X0005790Y0010070D02*
Y0008750D01*
X0005700Y0010070D02*
Y0008750D01*
X0005610Y0010070D02*
Y0008750D01*
X0005520Y0010070D02*
Y0008750D01*
X0004620Y0010070D02*
Y0008750D01*
X0004530Y0010070D02*
Y0008750D01*
X0001990Y0008670D02*
X-0000060D01*
X0003900Y0010070D02*
Y0008750D01*
X0003810Y0010070D02*
Y0008750D01*
X0003720Y0010070D02*
Y0008750D01*
X0003630Y0010070D02*
Y0008750D01*
X0004080Y0010070D02*
Y0008750D01*
X0003540Y0010070D02*
Y0008750D01*
X0003360Y0010070D02*
Y0008750D01*
X0003450Y0010070D02*
Y0008750D01*
X0003270Y0010070D02*
Y0008750D01*
X0003180Y0010070D02*
Y0008750D01*
X0003090Y0010070D02*
Y0008750D01*
X0003000Y0010070D02*
Y0008750D01*
X0002910Y0010070D02*
Y0008750D01*
X0004440Y0010070D02*
Y0008750D01*
X0004350Y0010070D02*
Y0008750D01*
X0004260Y0010070D02*
Y0008750D01*
X0004170Y0010070D02*
Y0008750D01*
X0003990Y0010070D02*
Y0008750D01*
X0002370Y0010070D02*
Y0008750D01*
X0002280Y0010070D02*
Y0008750D01*
X0001650Y0008130D02*
X-0000060D01*
X0016110Y0008760D02*
X-0000060D01*
X0002640Y0010070D02*
Y0008750D01*
X0001650Y0010070D02*
Y0008260D01*
X0009300Y0010070D02*
Y0008750D01*
X0011910Y0010070D02*
Y0008010D01*
X0009570Y0010070D02*
Y0008750D01*
X0016110Y0008670D02*
X0009750D01*
X0018270Y0007140D02*
X0014274D01*
X0009810Y0008130D02*
X0005510D01*
X0009390Y0010070D02*
Y0008750D01*
X0010290Y0010070D02*
Y0008226D01*
X0010200Y0010070D02*
Y0008314D01*
X0010110Y0010070D02*
Y0008343D01*
X0012900Y0010070D02*
Y0008564D01*
X0012075Y0008175D02*
X0011590Y0007690D01*
X0012212Y0008400D02*
X0010020D01*
X0001650Y0007500D02*
X-0000060D01*
X0009500Y0005650D02*
X0004526D01*
X0003990Y0003037D02*
Y0001776D01*
X0004650Y0007140D02*
X0004190D01*
X0003900Y0006686D02*
Y0005860D01*
X0004260Y0006851D02*
Y0005990D01*
X0003800Y0003172D02*
Y0001966D01*
X0004108Y0005520D02*
X0004040D01*
X0004142Y0005610D02*
X0004130D01*
X0010560Y0006050D02*
Y0005129D01*
X0009530Y0008410D02*
X0009835Y0008105D01*
X0007590Y0008410D02*
Y0007750D01*
X0008130Y0007110D02*
Y0006590D01*
X0008580Y0007110D02*
Y0006980D01*
X0008670Y0007110D02*
Y0007055D01*
X0007140Y0006250D02*
Y0005990D01*
X0008310Y0006250D02*
Y0005990D01*
X0008220Y0006250D02*
Y0005990D01*
X0008400Y0006250D02*
Y0005990D01*
X0008130Y0006250D02*
Y0005990D01*
X0008310Y0007110D02*
Y0006590D01*
X0008704Y0006250D02*
X0005526D01*
X0013026Y0006690D02*
X0012455D01*
X0006240Y0006250D02*
Y0005990D01*
X0006780Y0006250D02*
Y0005990D01*
X0006690Y0006250D02*
Y0005990D01*
X0003496Y0001830D02*
X0003040D01*
X0005610Y0006250D02*
Y0005990D01*
X0008490Y0006250D02*
Y0005990D01*
X0006510Y0006250D02*
Y0005990D01*
X0006420Y0006250D02*
Y0005990D01*
X0006330Y0006250D02*
Y0005990D01*
X0007680Y0006250D02*
Y0005990D01*
X0007590Y0006250D02*
Y0005990D01*
X0006960Y0006250D02*
Y0005990D01*
X0007410Y0006250D02*
Y0005990D01*
X0007050Y0006250D02*
Y0005990D01*
X0007320Y0006250D02*
Y0005990D01*
X0006150Y0006250D02*
Y0005990D01*
X0006060Y0006250D02*
Y0005990D01*
X0005970Y0006250D02*
Y0005990D01*
X0005880Y0006250D02*
Y0005990D01*
X0005790Y0006250D02*
Y0005990D01*
X0005700Y0006250D02*
Y0005990D01*
Y0007410D02*
Y0007260D01*
X0002920Y0006420D02*
X0002590D01*
X0005430Y0006188D02*
Y0005990D01*
X0005340Y0006175D02*
Y0005990D01*
X0005250Y0006196D02*
Y0005990D01*
X0005070Y0006710D02*
Y0005990D01*
X0004980Y0006722D02*
Y0005990D01*
X0004890Y0006754D02*
Y0005990D01*
X0004800Y0006814D02*
Y0005990D01*
X0004710Y0006921D02*
Y0005990D01*
X0005610Y0007410D02*
Y0007126D01*
X0005160Y0006265D02*
Y0005990D01*
X0003720Y0008410D02*
Y0005680D01*
X0002720Y0002190D02*
X0002313D01*
X0004260Y0007410D02*
Y0006949D01*
X0009210Y0005650D02*
Y0004990D01*
X0012936Y0008580D02*
X0009840D01*
X0000986Y0006420D02*
X-0000060D01*
X0010850Y0005970D02*
X0010110D01*
X0009840Y0005890D02*
Y0004990D01*
X0010200Y0007110D02*
Y0006590D01*
X0005250Y0006745D02*
Y0006644D01*
X0001815Y0004080D02*
X-0000060D01*
X0010294Y0006590D02*
X0010190D01*
X0013630Y0007950D02*
X0013190D01*
X0013350Y0010070D02*
Y0007048D01*
X0013630Y0007050D02*
X0013346D01*
X0013260Y0006598D02*
Y0006230D01*
X0013080Y0006639D02*
Y0006230D01*
X0012850Y0008174D02*
Y0007670D01*
X0018270Y0006780D02*
X0013970D01*
X0012630Y0007110D02*
Y0006230D01*
X0012540Y0007110D02*
Y0006230D01*
X0012000Y0006554D02*
Y0006230D01*
X0008660Y0007050D02*
X0007470D01*
X0012450Y0006631D02*
Y0006230D01*
X0011910Y0006244D02*
Y0006230D01*
X0011820Y0007110D02*
Y0006652D01*
X0003720Y0005106D02*
Y0004920D01*
X0011730Y0007110D02*
Y0006665D01*
X0011640Y0007110D02*
Y0006644D01*
X0013006Y0006960D02*
X0010615D01*
X0013970Y0007994D02*
Y0007472D01*
X0018270Y0007590D02*
X0013970D01*
X0013630Y0007994D02*
Y0006620D01*
X0013440Y0010070D02*
Y0006948D01*
X0013170Y0006600D02*
Y0006230D01*
X0016110Y0006690D02*
X0013970D01*
X0013870Y0006240D02*
X0013766D01*
X0013870Y0006150D02*
X0013828D01*
X0002910Y0007924D02*
Y0004253D01*
X0002920Y0007680D02*
X0002892D01*
X0012780Y0008400D02*
X0012428D01*
X0008040Y0008410D02*
Y0007830D01*
X0002190Y0010070D02*
Y0008750D01*
X0002730Y0008410D02*
Y0007872D01*
X0002640Y0008410D02*
Y0007885D01*
X0002550Y0008410D02*
Y0007864D01*
X0003850Y0007320D02*
X0003240D01*
X0003900Y0001432D02*
Y0001420D01*
X0013980Y0010070D02*
Y0008336D01*
X0014430Y0010070D02*
Y0008254D01*
X0014340Y0010070D02*
Y0008371D01*
X0014250Y0010070D02*
Y0008410D01*
X0014160Y0010070D02*
Y0008412D01*
X0014070Y0005610D02*
Y0003920D01*
Y0010070D02*
Y0008378D01*
X0018270Y0008400D02*
X0014284D01*
X0018270Y0008310D02*
X0014401D01*
X0018270Y0008220D02*
X0014440D01*
X0012630Y0005010D02*
Y0004788D01*
X0012540Y0005010D02*
Y0004805D01*
X0018270Y0007050D02*
X0014205D01*
X0006240Y0005650D02*
Y0003930D01*
X0010290Y0006050D02*
Y0004990D01*
X0016245Y0004080D02*
X0007160D01*
X0012820Y0005010D02*
X0011899D01*
X0013675Y0000210D02*
X0000505D01*
X0011100Y0005890D02*
Y0005100D01*
X0012332Y0005430D02*
X0005661D01*
X0010110Y0005970D02*
Y0004990D01*
X0010470Y0006050D02*
Y0004990D01*
X0002920Y0005970D02*
X0002690D01*
X0010380Y0006050D02*
Y0004990D01*
X0009300Y0005650D02*
Y0004990D01*
X0010560Y0005031D02*
Y0004990D01*
X0009810Y0005890D02*
X0009622Y0005702D01*
X0006600Y0005650D02*
Y0004000D01*
X0006770Y0004170D02*
X0005708D01*
X0008490Y0005650D02*
Y0005070D01*
X0007220Y0004620D02*
X0005437D01*
X0013080Y0002940D02*
Y-0000060D01*
X0012000Y0005010D02*
Y0004800D01*
X0012990Y0005110D02*
Y0003920D01*
X0009030Y0002650D02*
Y0002481D01*
X0007140Y0005650D02*
Y0004540D01*
X0016310Y0004800D02*
X0012589D01*
X0016310Y0004710D02*
X0012734D01*
X0005700Y0003972D02*
Y0003936D01*
X0011190Y0001396D02*
Y0001006D01*
X0007965Y0003630D02*
X0007712D01*
X0010830Y0001441D02*
Y0001006D01*
X0008040Y0003110D02*
Y0002921D01*
X0014160Y0007021D02*
Y0006500D01*
X0002550Y0003837D02*
Y0003021D01*
X0003074Y0004260D02*
X0002690D01*
X0002350Y0004980D02*
X-0000060D01*
X0002280Y0005916D02*
Y0004188D01*
X0011090Y0001490D02*
X0010896D01*
X0010110Y0002650D02*
Y0001000D01*
X0010830Y0002650D02*
Y0001879D01*
X0011110Y0001470D02*
X0010875D01*
X0011730Y0001370D02*
Y-0000060D01*
X0009570Y0001024D02*
Y-0000060D01*
X0011395Y0003560D02*
X0011180Y0003345D01*
X0009930Y0000688D02*
Y-0000060D01*
X0010830Y0000674D02*
Y-0000060D01*
X0001830Y0003996D02*
Y0003844D01*
X0009300Y0002650D02*
Y0001728D01*
X0010200Y0002650D02*
Y0001000D01*
X0010020Y0002650D02*
Y0001026D01*
X0009930Y0002650D02*
Y0001116D01*
X0009840Y0002650D02*
Y0001206D01*
X0009750Y0002650D02*
Y0001296D01*
X0009660Y0002650D02*
Y0001386D01*
X0010560Y0002650D02*
Y0001845D01*
X0012360Y0001321D02*
Y-0000060D01*
X0010290Y0000680D02*
Y-0000060D01*
X0018270Y0001290D02*
X0009756D01*
X0018270Y0001200D02*
X0009846D01*
X0018270Y0001380D02*
X0012435D01*
X0010844Y0001020D02*
X0010026D01*
X0002720Y0003810D02*
X0002300D01*
X0018270Y0000750D02*
X0011238D01*
X0009390Y0002650D02*
Y0001656D01*
X0013260Y0002940D02*
Y-0000060D01*
X0009570Y0002650D02*
Y0001476D01*
X0006960Y0002085D02*
Y0001740D01*
X0006870Y0002085D02*
Y0001740D01*
X0006780Y0002085D02*
Y0001740D01*
X0006275Y0001830D02*
X0003936D01*
X0006690Y0002085D02*
Y0002016D01*
X0006600Y0002085D02*
Y0002072D01*
X0010544Y0001830D02*
X0006765D01*
X0008760Y0002072D02*
Y0001740D01*
X0008580Y0002085D02*
Y0001740D01*
X0008040Y0001865D02*
Y0001740D01*
X0008670Y0002085D02*
Y0001740D01*
X0006420Y0002085D02*
Y0002064D01*
X0007950Y0001865D02*
Y0001740D01*
X0008310Y0001954D02*
Y0001740D01*
X0007770Y0001865D02*
Y0001740D01*
X0007860Y0001865D02*
Y0001740D01*
X0007590Y0001974D02*
Y0001740D01*
X0007680Y0001893D02*
Y0001740D01*
X0008400Y0002044D02*
Y0001740D01*
X0008220Y0001882D02*
Y0001740D01*
X0006240Y0002085D02*
Y0001740D01*
X0008490Y0002085D02*
Y0001740D01*
X0006150Y0002085D02*
Y0001740D01*
X0006060Y0002085D02*
Y0001740D01*
X0007500Y0002084D02*
Y0001740D01*
X0007410Y0002085D02*
Y0001740D01*
X0009030Y0002079D02*
Y0001740D01*
X0008130Y0001865D02*
Y0001740D01*
X0007320Y0002085D02*
Y0001740D01*
X0007230Y0002085D02*
Y0001740D01*
X0007140Y0002085D02*
Y0001740D01*
X0007050Y0002085D02*
Y0001740D01*
X0005970Y0002105D02*
Y0001740D01*
X0005880Y0002118D02*
Y0001740D01*
X0005790Y0002174D02*
Y0001740D01*
X0012354Y0004400D02*
X0012300D01*
X0007050Y0003110D02*
Y0002475D01*
X0005700Y0003110D02*
Y0001740D01*
X0005610Y0003110D02*
Y0001740D01*
X0005520Y0003110D02*
Y0001740D01*
X0005340Y0003110D02*
Y0001740D01*
Y0004600D02*
Y0004281D01*
X0005250Y0003110D02*
Y0001740D01*
X0005160Y0003110D02*
Y0001740D01*
X0005070Y0003110D02*
Y0001740D01*
X0004980Y0003110D02*
Y0001740D01*
X0004890Y0003110D02*
Y0001740D01*
X0009750Y0010070D02*
Y0008670D01*
X0006330Y0000368D02*
Y-0000060D01*
X0004170Y0003086D02*
Y0001740D01*
X0003900Y0003066D02*
Y0001866D01*
X0002720Y0002280D02*
X0002397D01*
X0009214Y0001380D02*
X0008546D01*
X0010740Y0002650D02*
Y0001904D01*
X0018270Y0001020D02*
X0011176D01*
X0010650Y0000680D02*
Y-0000060D01*
X0005430Y0003110D02*
Y0001740D01*
X0006950Y0004350D02*
X0002690D01*
X0005610Y0005650D02*
Y0005458D01*
X0003810Y0003154D02*
Y0001956D01*
X0007256Y0003450D02*
X0004196D01*
X0008510Y0003110D02*
X0004196D01*
X0007732Y0003000D02*
X0003800D01*
X0007632Y0002910D02*
X0003800D01*
X0007598Y0002820D02*
X0003800D01*
X0007600Y0002730D02*
X0003800D01*
X0007639Y0002640D02*
X0003800D01*
X0005741Y0002460D02*
X0003800D01*
X0005716Y0002370D02*
X0003800D01*
X0005725Y0002280D02*
X0003800D01*
X0005314Y0004260D02*
X0003756D01*
X0005252Y0004170D02*
X0003844D01*
X0005235Y0004080D02*
X0003873D01*
X0005252Y0003990D02*
X0003867D01*
X0005314Y0003900D02*
X0003824D01*
X0009210Y0002650D02*
Y0001740D01*
X0010770Y0006050D02*
X0010878Y0005942D01*
X0012360Y0005890D02*
Y0005726D01*
Y0005010D02*
Y0004726D01*
X0010650Y0001425D02*
Y0001000D01*
X0007944Y0003990D02*
X0007070D01*
X0018270Y0008130D02*
X0014442D01*
X0011550Y0001370D02*
Y-0000060D01*
X0011680Y0005350D02*
X0011420D01*
X0012154Y0004480D02*
X0011662D01*
X0010560Y0001474D02*
Y0001000D01*
X0016310Y0004350D02*
X0012666D01*
X0016310Y0004260D02*
X0011631D01*
X0008555Y0001371D02*
X0008683Y0001243D01*
X0008059Y0002255D02*
X0007870D01*
X0008081Y0002276D02*
X0008059Y0002255D01*
X0006330Y0001100D02*
Y0001032D01*
Y0003110D02*
Y0002475D01*
X0008490Y0003110D02*
Y0002475D01*
X0006240Y0003110D02*
Y0002475D01*
X0007500Y0003110D02*
Y0002475D01*
X0007140Y0003110D02*
Y0002475D01*
X0006150Y0003110D02*
Y0002523D01*
X0006060Y0003110D02*
Y0002574D01*
X0005970Y0003110D02*
Y0002595D01*
X0008850Y0002770D02*
Y0002522D01*
X0005790Y0003110D02*
Y0002526D01*
X0008040Y0005650D02*
Y0005070D01*
X0011198Y0004480D02*
X0008016D01*
X0004350Y0004600D02*
Y0003450D01*
X0010768Y0002990D02*
X0009110D01*
X0011764Y0002650D02*
X0009040D01*
X0008940Y0004480D02*
Y0003160D01*
X0010765Y0003000D02*
X0009100D01*
X0015659Y0002550D02*
X0007924D01*
X0007500Y0006250D02*
Y0005990D01*
X0007950Y0006250D02*
Y0005990D01*
X0006150Y0008410D02*
Y0007750D01*
X0006060Y0008410D02*
Y0007750D01*
X0005970Y0008410D02*
Y0007750D01*
X0005880Y0007410D02*
Y0007381D01*
X0005790Y0007410D02*
Y0007335D01*
X0008040Y0006250D02*
Y0005990D01*
X0008560Y0006960D02*
X0007380D01*
X0007876Y0007750D02*
X0005261D01*
X0014092Y0007950D02*
X0013970D01*
X0007230Y0006250D02*
Y0005990D01*
X0013631Y0006600D02*
X0013269D01*
X0006870Y0006250D02*
Y0005990D01*
X0012700Y0007110D02*
X0007530D01*
X0004260Y0001100D02*
Y-0000060D01*
X0009574Y0001020D02*
X0008826D01*
X0009664Y0000930D02*
X0008909D01*
X0009754Y0000840D02*
X0008955D01*
X0010470Y0002650D02*
Y0001000D01*
X0001852Y0003630D02*
X-0000060D01*
X0009844Y0000750D02*
X0008977D01*
X0018270Y0004800D02*
X0016670D01*
X0018270Y0004890D02*
X0016670D01*
X0008940Y0002040D02*
Y0001740D01*
X0008310Y0003110D02*
Y0002473D01*
X0018270Y0003630D02*
X0016305D01*
X0007860Y0001100D02*
Y0000990D01*
X0008742Y0002475D02*
X0008340D01*
X0008670Y0001420D02*
Y0001256D01*
X0005520Y0006244D02*
Y0005990D01*
X0008314Y0001020D02*
X0007826D01*
X0008231Y0000930D02*
X0007909D01*
X0008185Y0000840D02*
X0007955D01*
X0008163Y0000750D02*
X0007977D01*
X0008162Y0000660D02*
X0007978D01*
X0008181Y0000570D02*
X0007959D01*
X0008224Y0000480D02*
X0007916D01*
X0008302Y0000390D02*
X0007838D01*
X0003810Y0001504D02*
Y0001420D01*
Y0001100D02*
Y-0000060D01*
X0009480Y0002650D02*
Y0001566D01*
X0003540Y0001100D02*
Y-0000060D01*
X0007770Y0002545D02*
Y0002366D01*
X0007680Y0002594D02*
Y0002447D01*
X0016195Y0002010D02*
X0008366D01*
X0006150Y0001100D02*
Y-0000060D01*
X0007410Y0001100D02*
Y0001077D01*
X0008310Y0000383D02*
Y-0000060D01*
X0007480Y0001100D02*
X0006660D01*
X0007314Y0001020D02*
X0006826D01*
X0007231Y0000930D02*
X0006909D01*
X0007185Y0000840D02*
X0006955D01*
X0007163Y0000750D02*
X0006977D01*
X0007162Y0000660D02*
X0006978D01*
X0007181Y0000570D02*
X0006959D01*
X0007224Y0000480D02*
X0006916D01*
X0007302Y0000390D02*
X0006838D01*
X0007860Y0005650D02*
Y0005070D01*
X0010844Y0000660D02*
X0008978D01*
X0006960Y0001100D02*
Y0000826D01*
X0006870Y0001100D02*
Y0000979D01*
X0007230Y0003110D02*
Y0002475D01*
X0006780Y0001100D02*
Y0001052D01*
X0006690Y0001100D02*
Y0001092D01*
X0004800Y0001100D02*
Y-0000060D01*
X0006480Y0001100D02*
X0005980D01*
X0006314Y0001020D02*
X0005980D01*
X0006231Y0000930D02*
X0005980D01*
X0006185Y0000840D02*
X0005980D01*
X0006163Y0000750D02*
X0005980D01*
X0006162Y0000660D02*
X0005980D01*
X0006181Y0000570D02*
X0005980D01*
X0006224Y0000480D02*
X0005980D01*
X0006302Y0000390D02*
X0005980D01*
X0007720Y0002416D02*
X0007838Y0002298D01*
X0006240Y0001100D02*
Y0000943D01*
X0008130Y0001100D02*
Y-0000060D01*
X0007140Y0001100D02*
Y-0000060D01*
X0013890Y0010070D02*
Y0008398D01*
X0018270Y0005610D02*
X0016670D01*
X0018270Y0005340D02*
X0016670D01*
X0005980Y0001100D02*
Y0000290D01*
X0018270Y0005700D02*
X0016670D01*
X0001650Y0007590D02*
X-0000060D01*
X0001110Y0010070D02*
Y0009657D01*
X0001020Y0010070D02*
Y0009773D01*
X0000840Y0010070D02*
Y0009892D01*
X0000750Y0010070D02*
Y0009920D01*
X0000930Y0010070D02*
Y0009845D01*
X0000660Y0010070D02*
Y0009932D01*
X0000570Y0010070D02*
Y0009930D01*
X0000480Y0010070D02*
Y0009912D01*
X0000390Y0010070D02*
Y0009878D01*
X0000300Y0010070D02*
Y0009823D01*
X0000210Y0010070D02*
Y0009738D01*
X0000120Y0010070D02*
Y0009591D01*
X0000574Y0009930D02*
X-0000060D01*
X0000324Y0009840D02*
X-0000060D01*
X0000220Y0009750D02*
X-0000060D01*
X0000154Y0009660D02*
X-0000060D01*
X0000112Y0009570D02*
X-0000060D01*
X0000087Y0009480D02*
X-0000060D01*
X0000078Y0009390D02*
X-0000060D01*
X0000084Y0009300D02*
X-0000060D01*
X0016110Y0009120D02*
X0001119D01*
X0016110Y0009030D02*
X0001059D01*
X0016110Y0008940D02*
X0000966D01*
X0016110Y0008850D02*
X0000789D01*
X0001650Y0005504D02*
Y0003624D01*
Y0007410D02*
X0001475D01*
X0001634Y0005520D02*
X-0000060D01*
X0001560Y0010070D02*
Y0007365D01*
X0001470Y0010070D02*
Y0007412D01*
X0001380Y0010070D02*
Y0007440D01*
X0001290Y0010070D02*
Y0007452D01*
X0005340Y0000290D02*
Y-0000060D01*
X0001110Y0009103D02*
Y0007432D01*
X0001020Y0008987D02*
Y0007398D01*
X0000840Y0008868D02*
Y0007259D01*
X0000750Y0008840D02*
Y0007111D01*
X0001650Y0008260D02*
Y0007293D01*
X0001818Y0003720D02*
X-0000060D01*
X0002640Y0007395D02*
Y0006370D01*
X0001650Y0007320D02*
X0001621D01*
X0002920Y0006600D02*
X0002504D01*
X0004080Y0008410D02*
Y0007749D01*
Y0006662D02*
Y0005989D01*
X0000711Y0006960D02*
X-0000060D01*
X0002920Y0007500D02*
X0002851D01*
X0018270Y0005250D02*
X0016670D01*
X0003990Y0006657D02*
Y0005950D01*
X0002105Y0005970D02*
X0001990D01*
X0002076Y0006600D02*
X0001990D01*
X0004620Y0007410D02*
Y0005990D01*
X0005430Y0008410D02*
Y0008390D01*
Y0010070D02*
Y0008750D01*
X0005340Y0010070D02*
Y0008750D01*
X0005250Y0010070D02*
Y0008750D01*
X0005160Y0010070D02*
Y0008750D01*
X0004980Y0010070D02*
Y0008750D01*
X0004890Y0010070D02*
Y0008750D01*
X0008130Y0008410D02*
Y0007830D01*
X0010740Y0007110D02*
Y0006590D01*
X0001920Y0010070D02*
Y0008600D01*
X0014340Y0002940D02*
Y-0000060D01*
X0004710Y0008410D02*
Y0008359D01*
X0009540Y0008400D02*
X0005422D01*
X0009630Y0008310D02*
X0005475D01*
X0009720Y0008220D02*
X0005502D01*
X0009886Y0007950D02*
X0005466D01*
X0002028Y0006240D02*
X0001990D01*
X0004800Y0010070D02*
Y0008750D01*
X0001650Y0006240D02*
X-0000060D01*
X0003574Y0001740D02*
X0003040D01*
X0005430Y0007410D02*
Y0007390D01*
X0005340Y0007797D02*
Y0007750D01*
X0002084Y0006330D02*
X0001990D01*
X0005430Y0007890D02*
Y0007750D01*
X0004530Y0008410D02*
Y0007750D01*
X0004620Y0008410D02*
Y0007750D01*
X0005520Y0008410D02*
Y0007750D01*
X0002164Y0006690D02*
X0001990D01*
X0007860Y0008410D02*
Y0007750D01*
X0005990Y0007410D02*
X0005415D01*
X0005990D02*
X0005415D01*
X0005768Y0007320D02*
X0005470D01*
X0005674Y0007230D02*
X0005500D01*
X0005617Y0007140D02*
X0005510D01*
X0005582Y0007050D02*
X0005500D01*
X0005567Y0006960D02*
X0005470D01*
X0005567Y0006870D02*
X0005415D01*
X0017850Y0008678D02*
Y0006472D01*
X0017760Y0008533D02*
Y0006617D01*
X0017670Y0008465D02*
Y0006685D01*
X0017580Y0008431D02*
Y0006719D01*
X0017490Y0008420D02*
Y0006730D01*
X0017400Y0008431D02*
Y0006719D01*
X0017310Y0008465D02*
Y0006685D01*
X0017220Y0008533D02*
Y0006617D01*
X0017130Y0008678D02*
Y0006472D01*
X0018270Y0006960D02*
X0013970D01*
X0018270Y0006690D02*
X0017660D01*
X0018270Y0006600D02*
X0017776D01*
X0018270Y0006510D02*
X0017835D01*
X0018270Y0006420D02*
X0017863D01*
X0018270Y0006330D02*
X0017869D01*
X0018270Y0006240D02*
X0017854D01*
X0018270Y0006870D02*
X0013970D01*
X0016860Y0008420D02*
Y0006730D01*
X0016770Y0008420D02*
Y0006730D01*
X0016680Y0008420D02*
Y0006730D01*
X0016590Y0008420D02*
Y0006730D01*
X0016500Y0008420D02*
Y0006730D01*
X0016410Y0008420D02*
Y0006730D01*
X0016320Y0008420D02*
Y0006730D01*
X0016230Y0008420D02*
Y0006730D01*
X0016140Y0008420D02*
Y0006730D01*
X0017130Y0006228D02*
Y0003276D01*
X0017320Y0006690D02*
X0016870D01*
X0017204Y0006600D02*
X0016870D01*
X0017145Y0006510D02*
X0016870D01*
X0017116Y0006420D02*
X0016870D01*
X0017110Y0006330D02*
X0016870D01*
X0018270Y0007950D02*
X0014308D01*
X0017850Y0010070D02*
Y0008922D01*
X0017760Y0010070D02*
Y0009067D01*
X0017670Y0010070D02*
Y0009135D01*
X0017580Y0010070D02*
Y0009169D01*
X0017490Y0010070D02*
Y0009180D01*
X0017400Y0010070D02*
Y0009169D01*
X0017310Y0010070D02*
Y0009135D01*
X0017220Y0010070D02*
Y0009067D01*
X0017130Y0010070D02*
Y0008922D01*
X0018270Y0009120D02*
X0017695D01*
X0018270Y0009030D02*
X0017792D01*
X0018270Y0008940D02*
X0017843D01*
X0016140Y0010070D02*
Y0009180D01*
X0018270Y0008760D02*
X0017868D01*
X0018270Y0008670D02*
X0017847D01*
X0018270Y0008580D02*
X0017800D01*
X0018270Y0008850D02*
X0017867D01*
X0016860Y0010070D02*
Y0009180D01*
X0016770Y0010070D02*
Y0009180D01*
X0016680Y0010070D02*
Y0009180D01*
X0016590Y0010070D02*
Y0009180D01*
X0016500Y0010070D02*
Y0009180D01*
X0016410Y0010070D02*
Y0009180D01*
X0014160Y0002940D02*
Y0000269D01*
X0014070Y0002940D02*
Y0000414D01*
X0013980Y0002940D02*
Y0000457D01*
X0013890Y0002940D02*
Y0000463D01*
X0013800Y0002940D02*
Y0000434D01*
X0013710Y0002940D02*
Y0000346D01*
Y0000094D02*
Y-0000060D01*
X0018270Y0000390D02*
X0014096D01*
X0018270Y0000300D02*
X0014152D01*
X0018270Y0000210D02*
X0014165D01*
X0018270Y0000120D02*
X0014144D01*
X0000750Y0006689D02*
Y0004624D01*
X0000660Y0008828D02*
Y0004741D01*
X0000570Y0008830D02*
Y0004780D01*
X0000480Y0008848D02*
Y0004782D01*
X0000390Y0008882D02*
Y0004748D01*
X0000300Y0008937D02*
Y0004648D01*
X0000834Y0004710D02*
X0000696D01*
X0000778Y0004620D02*
X0000752D01*
X0000786Y0004440D02*
X0000744D01*
X0000855Y0004350D02*
X0000675D01*
X0000840Y0006541D02*
Y0004716D01*
X0002350Y0004710D02*
X0001186D01*
X0002350Y0004620D02*
X0001242D01*
X0002350Y0004530D02*
X0001255D01*
X0002350Y0004440D02*
X0001234D01*
X0002350Y0004350D02*
X0001165D01*
X0001200Y0006350D02*
Y0004695D01*
X0001110Y0006368D02*
Y0004764D01*
X0001020Y0006402D02*
Y0004785D01*
X0000930Y0006457D02*
Y0004772D01*
X0000390Y0000002D02*
Y-0000060D01*
X0000480Y0004298D02*
Y0000318D01*
X0000390Y0004332D02*
Y0000418D01*
X0000210Y0009022D02*
Y0000450D01*
X0000120Y0009169D02*
Y0000411D01*
Y0000009D02*
Y-0000060D01*
X0005160Y0000390D02*
X0000426D01*
X0005160Y0000300D02*
X0000488D01*
X0007555Y0002010D02*
X0006696D01*
X0012090Y0005890D02*
Y0005350D01*
X0012360Y0005394D02*
Y0005350D01*
X0011910Y0005890D02*
Y0005350D01*
X0012270Y0005890D02*
Y0005350D01*
X0012180Y0005890D02*
Y0005350D01*
X0016310Y0005070D02*
X0012950D01*
X0013010Y0005610D02*
X0012935D01*
X0012900Y0005586D02*
Y0005500D01*
X0012810Y0005557D02*
Y0005410D01*
X0013530Y0005825D02*
Y0005670D01*
X0013440Y0005874D02*
Y0005670D01*
X0013860Y0005880D02*
X0013766D01*
X0013620Y0005330D02*
Y0003920D01*
X0016310Y0005520D02*
X0013980D01*
X0016310Y0005430D02*
X0013890D01*
X0013710Y0005330D02*
Y0003920D01*
X0016310Y0005610D02*
X0014070D01*
X0013770Y0005790D02*
X0013025D01*
X0010572Y0004990D02*
X0008750D01*
X0006780Y0005650D02*
Y0004180D01*
X0010920Y0005910D02*
Y0005294D01*
X0010830Y0005990D02*
Y0005323D01*
X0010740Y0006050D02*
Y0005317D01*
X0012300Y0005610D02*
X0004558D01*
X0012491Y0004800D02*
X0011904D01*
X0005700Y0005650D02*
Y0005396D01*
X0005340Y0005650D02*
Y0005396D01*
X0005334Y0005070D02*
X0003240D01*
X0011460Y0005890D02*
Y0005350D01*
X0010568Y0005160D02*
X0005755D01*
X0007310Y0004710D02*
X0005536D01*
X0005160Y0005650D02*
Y0004920D01*
X0005070Y0005650D02*
Y0004920D01*
X0004980Y0005650D02*
Y0004920D01*
X0004890Y0005650D02*
Y0004920D01*
X0005520Y0004694D02*
Y0004322D01*
X0005250Y0005650D02*
Y0004920D01*
X0004080Y0005560D02*
Y0004920D01*
X0004170Y0005314D02*
Y0004920D01*
X0003990Y0005470D02*
Y0004920D01*
X0003900Y0005380D02*
Y0004920D01*
X0004440Y0005252D02*
Y0004920D01*
X0003810Y0005194D02*
Y0004920D01*
X0004350Y0005235D02*
Y0004920D01*
X0004260Y0005252D02*
Y0004920D01*
X0003630Y0004600D02*
Y0004295D01*
X0003240Y0005046D02*
X0003366Y0004920D01*
X0004260Y0004600D02*
Y0003450D01*
X0003540Y0004600D02*
Y0004278D01*
X0003876Y0007590D02*
X0003240D01*
X0003960Y0007680D02*
X0003240D01*
X0004861Y0007770D02*
X0003240D01*
X0003920Y0005880D02*
X0003240D01*
X0003458Y0005520D02*
X0003240D01*
X0004020Y0005970D02*
X0003240D01*
X0003826Y0007050D02*
X0003240D01*
X0003850Y0007140D02*
X0003240D01*
X0003830Y0005790D02*
X0003240D01*
X0003782Y0006960D02*
X0003240D01*
X0005184Y0006600D02*
X0003240D01*
X0003850Y0007230D02*
X0003240D01*
X0003850Y0007410D02*
X0003240D01*
X0003850Y0007500D02*
X0003240D01*
X0003894Y0006690D02*
X0003240D01*
X0003777Y0006870D02*
X0003240D01*
X0003381Y0005430D02*
X0003240D01*
X0005122Y0006510D02*
X0003240D01*
X0003740Y0005700D02*
X0003240D01*
X0005184Y0006240D02*
X0003240D01*
X0005105Y0006420D02*
X0003240D01*
X0005122Y0006330D02*
X0003240D01*
X0008645Y0006150D02*
X0003240D01*
X0003806Y0006780D02*
X0003240D01*
X0008636Y0006060D02*
X0003240D01*
X0003650Y0005610D02*
X0003240D01*
X0003356Y0005340D02*
X0003240D01*
X0003365Y0005250D02*
X0003240D01*
X0003414Y0005160D02*
X0003240D01*
X0011010Y0005890D02*
Y0005206D01*
X0003240Y0007914D02*
Y0005046D01*
X0003270Y0008410D02*
Y0008255D01*
X0003180Y0008410D02*
Y0008324D01*
X0003090Y0008410D02*
Y0008345D01*
X0003000Y0008410D02*
Y0008332D01*
X0004685Y0008310D02*
X0003206D01*
X0004650Y0008130D02*
X0003323D01*
X0004657Y0008220D02*
X0003294D01*
X0004662Y0008040D02*
X0003317D01*
X0004694Y0007950D02*
X0003274D01*
X0012720Y0010070D02*
Y0007540D01*
X0013260Y0008301D02*
Y0007082D01*
X0013080Y0007420D02*
Y0007041D01*
X0012990Y0007330D02*
Y0006924D01*
X0013630Y0006690D02*
X0013414D01*
X0013630Y0006960D02*
X0013434D01*
X0013630Y0007500D02*
X0013157D01*
X0018270Y0006150D02*
X0017813D01*
X0013630Y0006870D02*
X0013463D01*
X0013170Y0007520D02*
Y0007080D01*
X0012630Y0010070D02*
Y0007450D01*
X0012540Y0005890D02*
Y0005849D01*
X0013434Y0005880D02*
X0013012D01*
X0013680Y0006500D02*
X0013870Y0006310D01*
X0013350Y0005890D02*
Y0005670D01*
X0013424Y0005890D02*
X0013008D01*
X0008310Y0004480D02*
Y0003975D01*
X0008220Y0004480D02*
Y0004044D01*
X0008130Y0004480D02*
Y0004065D01*
X0011045Y0003720D02*
X0008344D01*
X0010955Y0003630D02*
X0008275D01*
X0016155Y0003990D02*
X0008296D01*
X0011135Y0003810D02*
X0008365D01*
X0008040Y0004480D02*
Y0004052D01*
X0011237Y0003900D02*
X0008352D01*
X0007950Y0004431D02*
Y0003996D01*
X0014790Y0003560D02*
Y0003260D01*
X0014700Y0003560D02*
Y0003260D01*
X0014610Y0003560D02*
Y0003260D01*
X0014520Y0003560D02*
Y0003260D01*
X0014430Y0003560D02*
Y0003260D01*
X0014340Y0003560D02*
Y0003260D01*
X0014250Y0003560D02*
Y0003260D01*
X0014160Y0003560D02*
Y0003260D01*
X0014070Y0003560D02*
Y0003260D01*
X0013980Y0003560D02*
Y0003260D01*
X0013890Y0003560D02*
Y0003260D01*
X0013800Y0003560D02*
Y0003260D01*
X0013710Y0003560D02*
Y0003260D01*
X0013620Y0003560D02*
Y0003260D01*
X0013530Y0003560D02*
Y0003260D01*
X0013440Y0003560D02*
Y0003260D01*
X0013350Y0003560D02*
Y0003260D01*
X0013260Y0003560D02*
Y0003260D01*
X0013170Y0003560D02*
Y0003260D01*
X0013080Y0003560D02*
Y0003260D01*
X0012990Y0003560D02*
Y0003260D01*
X0012900Y0003560D02*
Y0003260D01*
X0015330Y0003560D02*
Y0003226D01*
X0015240Y0003560D02*
Y0003314D01*
X0015150Y0003560D02*
Y0003343D01*
X0012552Y0005890D02*
X0011000D01*
X0008310Y0003665D02*
Y0003450D01*
X0008400Y0004480D02*
Y0003450D01*
X0008220Y0003596D02*
Y0003450D01*
X0005970Y0003515D02*
Y0003450D01*
X0006960Y0003880D02*
Y0003450D01*
X0006870Y0003790D02*
Y0003450D01*
X0006780Y0003700D02*
Y0003450D01*
X0006240Y0003590D02*
Y0003450D01*
X0006690Y0003616D02*
Y0003450D01*
X0006150Y0003590D02*
Y0003450D01*
X0006420Y0003590D02*
Y0003450D01*
X0006330Y0003590D02*
Y0003450D01*
X0006510Y0005650D02*
Y0003930D01*
X0007230Y0004150D02*
Y0003450D01*
X0007140Y0004060D02*
Y0003450D01*
X0005700Y0003584D02*
Y0003450D01*
X0005610Y0003528D02*
Y0003450D01*
X0005520Y0003515D02*
Y0003450D01*
X0005430Y0003536D02*
Y0003450D01*
X0005340Y0003605D02*
Y0003450D01*
X0005250Y0003996D02*
Y0003450D01*
X0005160Y0004600D02*
Y0003450D01*
X0005070Y0004600D02*
Y0003450D01*
X0004980Y0004600D02*
Y0003450D01*
X0004890Y0004600D02*
Y0003450D01*
X0004800Y0004600D02*
Y0003450D01*
X0004710Y0004600D02*
Y0003450D01*
X0007621Y0004540D02*
X0006722Y0003642D01*
X0006150Y0005650D02*
Y0003930D01*
X0006060Y0003536D02*
Y0003450D01*
X0005852Y0003540D02*
X0005638D01*
X0007860Y0004406D02*
Y0003450D01*
X0003180Y0003842D02*
Y0001506D01*
X0004260Y0003110D02*
Y0001740D01*
X0003800Y0003874D02*
Y0003388D01*
X0004080Y0004600D02*
Y0003517D01*
X0004170Y0004600D02*
Y0003474D01*
X0003990Y0004600D02*
Y0003523D01*
X0008530Y0003090D02*
X0004175D01*
X0004530Y0003110D02*
Y0001740D01*
X0008580Y0004480D02*
Y0003450D01*
X0008670Y0004480D02*
Y0003424D01*
X0010820Y0003270D02*
X0008830D01*
X0010781Y0003180D02*
X0008920D01*
X0010756Y0003090D02*
X0009010D01*
X0010820Y0003360D02*
X0008740D01*
X0008850Y0004480D02*
Y0003250D01*
X0008760Y0004480D02*
Y0003340D01*
X0011460Y0001370D02*
Y-0000060D01*
X0015644Y0003000D02*
X0015344D01*
X0011550Y0003560D02*
Y0003260D01*
X0011460Y0003560D02*
Y0003291D01*
X0011370Y0003535D02*
Y0003330D01*
X0010110Y0004480D02*
Y0002990D01*
X0010740Y0004480D02*
Y0002990D01*
X0010650Y0004480D02*
Y0002990D01*
X0010560Y0004480D02*
Y0002990D01*
X0010470Y0004480D02*
Y0002990D01*
X0010380Y0004480D02*
Y0002990D01*
X0010290Y0004480D02*
Y0002990D01*
X0009390Y0004480D02*
Y0002990D01*
X0009300Y0004480D02*
Y0002990D01*
X0010200Y0004480D02*
Y0002990D01*
X0010020Y0004480D02*
Y0002990D01*
X0009930Y0004480D02*
Y0002990D01*
X0009840Y0004480D02*
Y0002990D01*
X0011640Y0003560D02*
Y0003260D01*
X0012180Y0002940D02*
Y0002869D01*
X0012090Y0003560D02*
Y0003260D01*
X0012000Y0003560D02*
Y0003260D01*
X0011910Y0003560D02*
Y0003260D01*
X0009120Y0002650D02*
Y0002364D01*
X0015620Y0002820D02*
X0012185D01*
X0015623Y0002730D02*
X0012168D01*
X0015636Y0002640D02*
X0012106D01*
X0014944Y0003270D02*
X0011486D01*
X0008670Y0005650D02*
Y0005055D01*
X0007050Y0003970D02*
Y0003450D01*
X0007500Y0004420D02*
Y0003794D01*
X0007410Y0004330D02*
Y0003785D01*
X0008580Y0003450D02*
X0007704D01*
X0004620Y0004600D02*
Y0003450D01*
X0003810Y0003884D02*
Y0003406D01*
X0011280Y0003445D02*
Y0003332D01*
X0003844Y0003450D02*
X0003800D01*
X0011774Y0002640D02*
X0008041D01*
X0011190Y0003355D02*
Y0003298D01*
X0011100Y0004480D02*
Y0003775D01*
X0011010Y0004480D02*
Y0003685D01*
X0010920Y0004480D02*
Y0003595D01*
X0007680Y0004464D02*
Y0003691D01*
X0016074Y0003540D02*
X0011375D01*
X0015934Y0003450D02*
X0011285D01*
X0015837Y0003360D02*
X0011195D01*
X0002350Y0005070D02*
X-0000060D01*
X0015600Y0010070D02*
Y0003920D01*
X0015510Y0010070D02*
Y0003920D01*
X0015420Y0010070D02*
Y0003920D01*
X0015330Y0010070D02*
Y0003920D01*
X0015240Y0010070D02*
Y0003920D01*
X0015150Y0010070D02*
Y0003920D01*
X0015060Y0010070D02*
Y0003920D01*
X0014970Y0010070D02*
Y0003920D01*
X0014880Y0010070D02*
Y0003920D01*
X0014790Y0010070D02*
Y0003920D01*
X0014700Y0010070D02*
Y0003920D01*
X0014610Y0010070D02*
Y0003920D01*
X0014430Y0008086D02*
Y0003920D01*
X0014340Y0007969D02*
Y0003920D01*
X0014250Y0007098D02*
Y0003920D01*
X0016110Y0006330D02*
X0014210D01*
X0013680Y0005700D02*
X0013004D01*
X0013720Y0005330D02*
X0013210D01*
X0013630Y0007860D02*
X0013190D01*
X0013890Y0005430D02*
Y0003920D01*
X0018270Y0003900D02*
X0016575D01*
X0015870Y0010070D02*
Y0003920D01*
X0015780Y0010070D02*
Y0003920D01*
X0014160Y0005700D02*
X0013842Y0005382D01*
X0013530Y0005330D02*
Y0003920D01*
X0013440Y0005330D02*
Y0003920D01*
X0013350Y0005330D02*
Y0003920D01*
X0013260Y0005330D02*
Y0003920D01*
X0012900Y0005030D02*
Y0003920D01*
X0013440Y0006732D02*
Y0006245D01*
X0013170Y0005290D02*
Y0003920D01*
X0012750Y0005350D02*
X0012666D01*
X0012720Y0004394D02*
Y0003920D01*
X0012630Y0004332D02*
Y0003920D01*
X0012540Y0004315D02*
Y0003920D01*
X0012450Y0004332D02*
Y0003920D01*
X0012360Y0004394D02*
Y0003920D01*
X0012270Y0004403D02*
Y0003920D01*
X0012180Y0004454D02*
Y0003920D01*
X0012090Y0004480D02*
Y0003920D01*
X0012000Y0004480D02*
Y0003920D01*
X0011910Y0004480D02*
Y0003920D01*
X0007320Y0008410D02*
Y0007750D01*
X0007230Y0008410D02*
Y0007750D01*
X0007140Y0008410D02*
Y0007750D01*
X0006960Y0008410D02*
Y0007750D01*
X0007050Y0008410D02*
Y0007750D01*
X0006870Y0008410D02*
Y0007750D01*
X0006780Y0008410D02*
Y0007750D01*
X0006690Y0008410D02*
Y0007750D01*
X0006600Y0008410D02*
Y0007750D01*
X0006510Y0008410D02*
Y0007750D01*
X0006420Y0008410D02*
Y0007750D01*
X0006330Y0008410D02*
Y0007750D01*
X0006240Y0008410D02*
Y0007750D01*
X0002460Y0002370D02*
Y-0000060D01*
X0003990Y0008410D02*
Y0007710D01*
X0005880Y0008410D02*
Y0007750D01*
X0003980Y0007700D02*
X0003902Y0007622D01*
X0002920Y0007050D02*
X0001990D01*
X0003810Y0008410D02*
Y0007026D01*
X0002920Y0007860D02*
X0002758D01*
X0004659Y0007050D02*
X0004214D01*
X0004689Y0006960D02*
X0004257D01*
X0005622Y0006690D02*
X0004146D01*
X0004745Y0006870D02*
X0004263D01*
X0004845Y0006780D02*
X0004234D01*
X0014250Y0007930D02*
Y0007381D01*
X0014160Y0007928D02*
Y0007459D01*
X0014070Y0007962D02*
Y0007484D01*
X0013630Y0007140D02*
X0012796D01*
X0013980Y0008004D02*
Y0007475D01*
X0014116Y0008400D02*
X0013884D01*
X0013592Y0008040D02*
X0013190D01*
X0010380Y0010070D02*
Y0007750D01*
X0013260Y0010070D02*
Y0008399D01*
X0012810Y0010070D02*
Y0008476D01*
X0013170Y0010070D02*
Y0008544D01*
X0013080Y0010070D02*
Y0008587D01*
X0016110Y0008580D02*
X0013104D01*
X0016110Y0008490D02*
X0013221D01*
X0013620Y0008004D02*
Y0006304D01*
X0013716Y0008400D02*
X0013260D01*
X0012000Y0010070D02*
Y0008100D01*
X0018270Y0007230D02*
X0014295D01*
X0013630Y0007770D02*
X0013190D01*
X0011370Y0010070D02*
Y0007690D01*
X0012810Y0008224D02*
Y0007630D01*
X0003900Y0008410D02*
Y0007620D01*
X0013630Y0007320D02*
X0012980D01*
X0011280Y0010070D02*
Y0007817D01*
X0009300Y0008410D02*
Y0007750D01*
X0009750Y0008190D02*
Y0007750D01*
X0009930Y0007906D02*
Y0007750D01*
X0009570Y0008370D02*
Y0007750D01*
X0010290Y0007974D02*
Y0007750D01*
X0011850Y0007950D02*
X0010274D01*
X0005700Y0008410D02*
Y0007750D01*
X0012100Y0003530D02*
Y0003260D01*
X0011920Y0003530D02*
Y0003260D01*
X0013180Y0002940D02*
Y0002680D01*
X0011560Y0003530D02*
Y0003260D01*
X0012010Y0003530D02*
Y0003260D01*
X0015470Y0003530D02*
X0011365D01*
X0012280Y0002940D02*
Y0002680D01*
X0014170Y0003530D02*
Y0003260D01*
X0015470Y0002860D02*
X0015169D01*
X0013990Y0002940D02*
Y0002680D01*
X0012190Y0002940D02*
Y0002680D01*
X0014980Y0002899D02*
Y0002680D01*
X0015470Y0003130D02*
X0015363D01*
X0015470Y0003490D02*
X0011325D01*
X0013360Y0002940D02*
Y0002680D01*
X0011212Y0003310D02*
X0011180D01*
X0014994D02*
X0011428D01*
X0013090Y0002940D02*
Y0002680D01*
X0013900Y0002940D02*
Y0002680D01*
X0013450Y0002940D02*
Y0002680D01*
X0013270Y0002940D02*
Y0002680D01*
X0014080Y0003530D02*
Y0003260D01*
X0013990Y0003530D02*
Y0003260D01*
X0015470Y0003040D02*
X0015357D01*
X0015470Y0003310D02*
X0015246D01*
X0013720Y0003530D02*
Y0003260D01*
X0013630Y0003530D02*
Y0003260D01*
X0013540Y0003530D02*
Y0003260D01*
X0013450Y0003530D02*
Y0003260D01*
X0013360Y0003530D02*
Y0003260D01*
X0013270Y0003530D02*
Y0003260D01*
X0013180Y0003530D02*
Y0003260D01*
X0013090Y0003530D02*
Y0003260D01*
X0013000Y0003530D02*
Y0003260D01*
X0012910Y0003530D02*
Y0003260D01*
X0012820Y0003530D02*
Y0003260D01*
X0012730Y0003530D02*
Y0003260D01*
X0012640Y0003530D02*
Y0003260D01*
X0012550Y0003530D02*
Y0003260D01*
X0012460Y0003530D02*
Y0003260D01*
X0012370Y0003530D02*
Y0003260D01*
X0012280Y0003530D02*
Y0003260D01*
X0015470Y0003220D02*
X0015334D01*
X0013810Y0002940D02*
Y0002680D01*
X0015470Y0002950D02*
X0015314D01*
X0011470Y0003530D02*
Y0003284D01*
X0013900Y0003530D02*
Y0003260D01*
X0013810Y0003530D02*
Y0003260D01*
X0015470Y0003530D02*
Y0002680D01*
X0011380Y0003530D02*
Y0003327D01*
X0014934Y0003260D02*
X0011496D01*
X0014170Y0002940D02*
Y0002680D01*
X0015250Y0003530D02*
Y0003308D01*
X0015160Y0003530D02*
Y0003342D01*
X0015070Y0003530D02*
Y0003340D01*
X0011365Y0003530D02*
X0011180Y0003345D01*
X0014800Y0003530D02*
Y0003260D01*
X0014710Y0003530D02*
Y0003260D01*
X0014620Y0003530D02*
Y0003260D01*
X0014530Y0003530D02*
Y0003260D01*
X0014440Y0003530D02*
Y0003260D01*
X0014350Y0003530D02*
Y0003260D01*
X0014260Y0003530D02*
Y0003260D01*
X0012460Y0002940D02*
Y0002680D01*
X0015470Y0003400D02*
X0011235D01*
X0011200Y0003365D02*
Y0003304D01*
X0012370Y0002940D02*
Y0002680D01*
X0013000Y0002940D02*
Y0002680D01*
X0013540Y0002940D02*
Y0002680D01*
X0012640Y0002940D02*
Y0002680D01*
X0015340Y0003530D02*
Y0003208D01*
X0015070Y0002860D02*
Y0002680D01*
X0012730Y0002940D02*
Y0002680D01*
X0013720Y0002940D02*
Y0002680D01*
X0011830Y0003530D02*
Y0003260D01*
X0015430Y0003530D02*
Y0002680D01*
X0015250Y0002892D02*
Y0002680D01*
X0015340Y0002992D02*
Y0002680D01*
X0014080Y0002940D02*
Y0002680D01*
X0014890Y0003530D02*
Y0003260D01*
X0015470Y0002680D02*
X0012141D01*
X0011180Y0003345D02*
Y0003291D01*
X0014710Y0002940D02*
Y0002680D01*
X0014620Y0002940D02*
Y0002680D01*
X0014530Y0002940D02*
Y0002680D01*
X0014440Y0002940D02*
Y0002680D01*
X0014350Y0002940D02*
Y0002680D01*
X0014260Y0002940D02*
Y0002680D01*
X0014980Y0003530D02*
Y0003301D01*
X0015470Y0002770D02*
X0012180D01*
X0011740Y0003530D02*
Y0003260D01*
X0012190Y0003530D02*
Y0003260D01*
X0013630Y0002940D02*
Y0002680D01*
X0012820Y0002940D02*
Y0002680D01*
X0012910Y0002940D02*
Y0002680D01*
X0015071Y0002860D02*
X0012182D01*
X0012550Y0002940D02*
Y0002680D01*
X0011290Y0003455D02*
Y0003333D01*
X0014934Y0002940D02*
X0012154D01*
X0011650Y0003530D02*
Y0003260D01*
X0015160Y0002858D02*
Y0002680D01*
X0014890Y0002940D02*
Y0002680D01*
X0014800Y0002940D02*
Y0002680D01*
G01X0003900Y0007620D02*
G03X0003850Y0007500I0000120J0000120D01*
G01X0012775Y0008350D02*
G03X0012850Y0008174I0000245J0000000D01*
G01X0013265Y0008350D02*
G03X0013020Y0008595I0000245J0000000D01*
G03X0012775Y0008350I0000000J0000245D01*
G01X0013190Y0008174D02*
G03X0013265Y0008350I0000170J0000176D01*
G01X0012700Y0007110D02*
G03X0012820Y0007160I0000000J0000170D01*
G01X0007425Y0006720D02*
G03X0007350Y0006896I0000245J0000000D01*
G01X0002091Y0006337D02*
G03X0002015Y0006160I0000169J0000177D01*
G01X0002690Y0006250D02*
G03X0002640Y0006370I0000170J0000000D01*
G01X0002290Y0004164D02*
G03X0002060Y0004325I0000230J0000084D01*
G01X0003029Y0004204D02*
G03X0002880Y0004255I0000149J0000194D01*
G01X0002260Y0005915D02*
G03X0002350Y0005932I0000000J0000245D01*
G01X0002535Y0006480D02*
G03X0002290Y0006725I0000245J0000000D01*
G03X0002045Y0006480I0000000J0000245D01*
G01X0001700Y0008380D02*
G03X0001650Y0008260I0000120J0000120D01*
G01X0001575Y0005680D02*
G03X0001820Y0005435I0000245J0000000D01*
G03X0002065Y0005680I0000000J0000245D01*
G03X0001990Y0005856I0000245J0000000D01*
G01X0009720Y0008700D02*
G03X0009600Y0008750I0000120J0000120D01*
G01X0002140D02*
G03X0002020Y0008700I0000000J0000170D01*
G01X0009835Y0008100D02*
G03X0010080Y0007855I0000245J0000000D01*
G03X0010325Y0008100I0000000J0000245D01*
G03X0010080Y0008345I0000245J0000000D01*
G01X0004174Y0005650D02*
G03X0004105Y0005480I0000176J0000170D01*
G01X0003355Y0005320D02*
G03X0003600Y0005075I0000245J0000000D01*
G03X0003845Y0005320I0000000J0000245D01*
G01X0003600Y0005565D02*
G03X0003355Y0005320I0000000J0000245D01*
G01X0009500Y0005650D02*
G03X0009620Y0005700I0000000J0000170D01*
G01X0004100Y0005990D02*
G03X0003980Y0005940I0000000J0000170D01*
G01X0001650Y0005856D02*
G03X0001575Y0005680I0000170J0000176D01*
G01X0011740Y0006665D02*
G03X0011564Y0006590I0000000J0000245D01*
G01X0012700Y0007110D02*
G03X0012820Y0007160I0000000J0000170D01*
G01X0009960Y0005890D02*
G03X0010080Y0005940I0000000J0000170D01*
G01X0008704Y0006250D02*
G03X0008635Y0006080I0000176J0000170D01*
G01X0016450Y0003630D02*
G03X0016289Y0003614I0000000J0000830D01*
G01X0002140Y0008750D02*
G03X0002020Y0008700I0000000J0000170D01*
G01X0012540Y0005805D02*
G03X0012295Y0005560I0000000J0000245D01*
G01X0011895Y0006230D02*
G03X0011985Y0006420I0000155J0000190D01*
G01X0010880Y0005940D02*
G03X0011000Y0005890I0000120J0000120D01*
G01X0013600Y0005815D02*
G03X0013845Y0006060I0000000J0000245D01*
G03X0013600Y0006305I0000245J0000000D01*
G01X0013424Y0005890D02*
G03X0013600Y0005815I0000176J0000170D01*
G01X0002405Y0007640D02*
G03X0002650Y0007395I0000245J0000000D01*
G03X0002895Y0007640I0000000J0000245D01*
G03X0002650Y0007885I0000245J0000000D01*
G03X0002405Y0007640I0000000J0000245D01*
G01X0014200Y0007925D02*
G03X0014445Y0008170I0000000J0000245D01*
G03X0014200Y0008415I0000245J0000000D01*
G01X0014000Y0008028D02*
G03X0014200Y0007925I0000200J0000142D01*
G01X0007621Y0004540D02*
G03X0007840Y0004405I0000219J0000110D01*
G01X0007740Y0005070D02*
G03X0007620Y0005020I0000000J0000170D01*
G01X0007840Y0004405D02*
G03X0008016Y0004480I0000000J0000245D01*
G01X0012333Y0004753D02*
G03X0012220Y0004800I0000113J0000113D01*
G01X0012540Y0004805D02*
G03X0012360Y0004726I0000000J0000245D01*
G01X0012540Y0004315D02*
G03X0012785Y0004560I0000000J0000245D01*
G03X0012540Y0004805I0000245J0000000D01*
G01X0012354Y0004400D02*
G03X0012540Y0004315I0000186J0000160D01*
G01X0005285Y0003760D02*
G03X0005530Y0003515I0000245J0000000D01*
G01X0001857Y0003623D02*
G03X0001750Y0003630I0000107J0000823D01*
G01X0005530Y0003515D02*
G03X0005745Y0003642I0000000J0000245D01*
G01X0002145Y0003530D02*
G03X0002305Y0003760I0000085J0000230D01*
G01X0001815D02*
G03X0001857Y0003623I0000245J0000000D01*
G01X0002290Y0003996D02*
G03X0002520Y0003835I0000230J0000084D01*
G01X0002305Y0003760D02*
G03X0002245Y0003920I0000245J0000000D01*
G01X0011010Y0000595D02*
G03X0011255Y0000840I0000000J0000245D01*
G03X0011010Y0001085I0000245J0000000D01*
G01X0010824Y0000680D02*
G03X0011010Y0000595I0000186J0000160D01*
G01X0008553Y0001373D02*
G03X0008440Y0001420I0000113J0000113D01*
G01X0011010Y0001085D02*
G03X0010824Y0001000I0000000J0000245D01*
G01X0009867Y0000727D02*
G03X0009980Y0000680I0000113J0000113D01*
G01X0009353Y0001693D02*
G03X0009240Y0001740I0000113J0000113D01*
G01X0009353Y0001693D02*
G03X0009240Y0001740I0000113J0000113D01*
G01X0003446Y0004212D02*
G03X0003240Y0004325I0000206J0000132D01*
G01X0003480Y0001900D02*
G03X0003527Y0001787I0000160J0000000D01*
G01X0003847Y0001467D02*
G03X0003960Y0001420I0000113J0000113D01*
G01X0004020Y0003525D02*
G03X0003800Y0003388I0000000J0000245D01*
G01X0003040Y0003824D02*
G03X0003091Y0003885I0000160J0000186D01*
G01X0003875Y0004050D02*
G03X0003630Y0004295I0000245J0000000D01*
G01X0011185Y0004400D02*
G03X0011430Y0004155I0000245J0000000D01*
G03X0011675Y0004400I0000000J0000245D01*
G03X0011662Y0004480I0000245J0000000D01*
G01X0005960Y0004005D02*
G03X0005745Y0003877I0000000J0000245D01*
G01X0005235Y0004080D02*
G03X0005323Y0003892I0000245J0000000D01*
G01X0005725Y0004080D02*
G03X0005480Y0004325I0000245J0000000D01*
G03X0005235Y0004080I0000000J0000245D01*
G01X0011198Y0004480D02*
G03X0011185Y0004400I0000232J0000080D01*
G01X0008890Y0002035D02*
G03X0009135Y0002280I0000000J0000245D01*
G03X0008890Y0002525I0000245J0000000D01*
G01X0008742Y0002085D02*
G03X0008890Y0002035I0000148J0000195D01*
G01X0008340Y0002475D02*
G03X0008202Y0002418I0000000J0000195D01*
G01X0008122Y0002338D02*
G03X0008081Y0002276I0000138J0000138D01*
G01X0006520Y0002085D02*
G03X0006275Y0001840I0000000J0000245D01*
G01X0008140Y0001865D02*
G03X0008278Y0001922I0000000J0000195D01*
G01X0007642D02*
G03X0007780Y0001865I0000138J0000138D01*
G01X0000765Y0004540D02*
G03X0000520Y0004785I0000245J0000000D01*
G01X0008140Y0001865D02*
G03X0008278Y0001922I0000000J0000195D01*
G01X0007521Y0002064D02*
G03X0007562Y0002002I0000179J0000076D01*
G01X0008122Y0002338D02*
G03X0008081Y0002276I0000138J0000138D01*
G01X0005960Y0002105D02*
G03X0005973Y0002105I0000000J0000245D01*
G01X0008890Y0002525D02*
G03X0008742Y0002475I0000000J0000245D01*
G01X0007718Y0002418D02*
G03X0007580Y0002475I0000138J0000138D01*
G01X0005973Y0002105D02*
G03X0006060Y0002085I0000087J0000175D01*
G01X0007521Y0002064D02*
G03X0007562Y0002002I0000179J0000076D01*
G01X0007718Y0002418D02*
G03X0007580Y0002475I0000138J0000138D01*
G01X0006210D02*
G03X0006120Y0002535I0000150J0000125D01*
G01X0005715Y0002350D02*
G03X0005960Y0002105I0000245J0000000D01*
Y0002595D02*
G03X0005715Y0002350I0000000J0000245D01*
G01X0007595Y0002780D02*
G03X0007840Y0002535I0000245J0000000D01*
G03X0008085Y0002780I0000000J0000245D01*
G03X0007840Y0003025I0000245J0000000D01*
G03X0007595Y0002780I0000000J0000245D01*
G01X0002145Y0003530D02*
G03X0002305Y0003760I0000085J0000230D01*
G01X0007388Y0006590D02*
G03X0007425Y0006720I0000208J0000130D01*
G01X0005565Y0006920D02*
G03X0005691Y0006590I0000495J0000000D01*
G01X0008160Y0000700D02*
G03X0008570Y0000290I0000410J0000000D01*
G03X0008980Y0000700I0000000J0000410D01*
G01X0008730Y0001130D02*
G03X0008683Y0001243I0000160J0000000D01*
G01X0007160Y0000700D02*
G03X0007570Y0000290I0000410J0000000D01*
G03X0007980Y0000700I0000000J0000410D01*
G03X0007660Y0001100I0000410J0000000D01*
G01X0006160Y0000700D02*
G03X0006570Y0000290I0000410J0000000D01*
G03X0006980Y0000700I0000000J0000410D01*
G01X0007480Y0001100D02*
G03X0007160Y0000700I0000090J0000400D01*
G01X0006980D02*
G03X0006660Y0001100I0000410J0000000D01*
G01X0006480D02*
G03X0006160Y0000700I0000090J0000400D01*
G01X0000078Y0009380D02*
G03X0000631Y0008827I0000553J0000000D01*
G03X0001184Y0009380I0000000J0000553D01*
G03X0000631Y0009933I0000553J0000000D01*
G03X0000078Y0009380I0000000J0000553D01*
G01X0000708Y0006900D02*
G03X0001261Y0006347I0000553J0000000D01*
G03X0001650Y0006507I0000000J0000553D01*
G01X0001261Y0007453D02*
G03X0000708Y0006900I0000000J0000553D01*
G01X0004650Y0008140D02*
G03X0004899Y0007750I0000430J0000000D01*
G01X0005510Y0008140D02*
G03X0005415Y0008410I0000430J0000000D01*
G01X0004650Y0007140D02*
G03X0005080Y0006710I0000430J0000000D01*
G03X0005510Y0007140I0000000J0000430D01*
G01X0005990Y0007410D02*
G03X0005565Y0006920I0000070J0000490D01*
G01X0005510Y0007140D02*
G03X0005415Y0007410I0000430J0000000D01*
G01X0017110Y0006350D02*
G03X0017490Y0005970I0000380J0000000D01*
G03X0017870Y0006350I0000000J0000380D01*
G03X0017490Y0006730I0000380J0000000D01*
G03X0017110Y0006350I0000000J0000380D01*
Y0008800D02*
G03X0017490Y0008420I0000380J0000000D01*
G03X0017870Y0008800I0000000J0000380D01*
G03X0017490Y0009180I0000380J0000000D01*
G03X0017110Y0008800I0000000J0000380D01*
G01X0000920Y0002800D02*
G03X0001750Y0001970I0000830J0000000D01*
G03X0002580Y0002800I0000000J0000830D01*
G01X0001750Y0003630D02*
G03X0000920Y0002800I0000000J0000830D01*
G01X0015620D02*
G03X0016450Y0001970I0000830J0000000D01*
G03X0017280Y0002800I0000000J0000830D01*
G03X0016450Y0003630I0000830J0000000D01*
G01X0013600Y0006305D02*
G03X0013424Y0006230I0000000J0000245D01*
G01X0016116Y0003560D02*
G03X0015620Y0002800I0000334J0000760D01*
G01X0015120Y0003345D02*
G03X0014934Y0003260I0000000J0000245D01*
G01X0012187Y0004447D02*
G03X0012300Y0004400I0000113J0000113D01*
G01X0011160Y0001420D02*
G03X0011280Y0001370I0000120J0000120D01*
G01X0011630Y0001905D02*
G03X0011454Y0001830I0000000J0000245D01*
G01X0008398Y0002042D02*
G03X0008430Y0002085I0000138J0000138D01*
G01X0008400Y0001073D02*
G03X0008160Y0000700I0000170J0000373D01*
G01X0016617Y0003943D02*
G03X0016670Y0004070I0000127J0000127D01*
G01X0004745Y0008410D02*
G03X0004650Y0008140I0000335J0000270D01*
G01X0004100Y0005990D02*
G03X0003980Y0005940I0000000J0000170D01*
G01X0014000Y0008311D02*
G03X0013800Y0008415I0000200J0000141D01*
G01X0001874Y0003920D02*
G03X0001815Y0003760I0000186J0000160D01*
G01X0001874Y0003920D02*
G03X0001815Y0003760I0000186J0000160D01*
G01X0003480Y0001900D02*
G03X0003527Y0001787I0000160J0000000D01*
G01X0002720Y0001580D02*
G03X0002767Y0001467I0000160J0000000D01*
G01X0005687Y0003948D02*
G03X0005726Y0004080I0000207J0000132D01*
G01X0013555Y0008170D02*
G03X0013630Y0007994I0000245J0000000D01*
G01X0001010Y0004785D02*
G03X0000765Y0004540I0000000J0000245D01*
G01X0006120Y0002535D02*
G03X0005960Y0002595I0000160J0000185D01*
G01X0013675Y0000220D02*
G03X0013920Y-0000025I0000245J0000000D01*
G03X0014165Y0000220I0000000J0000245D01*
G03X0013920Y0000465I0000245J0000000D01*
G03X0013675Y0000220I0000000J0000245D01*
G01X0000275Y0004540D02*
G03X0000520Y0004295I0000245J0000000D01*
G03X0000765Y0004540I0000000J0000245D01*
G01X0000520Y0004785D02*
G03X0000275Y0004540I0000000J0000245D01*
G01X0001010Y0004295D02*
G03X0001255Y0004540I0000000J0000245D01*
G03X0001010Y0004785I0000245J0000000D01*
G01X0000765Y0004540D02*
G03X0001010Y0004295I0000245J0000000D01*
G01X0000015Y0000210D02*
G03X0000260Y-0000035I0000245J0000000D01*
G03X0000505Y0000210I0000000J0000245D01*
G03X0000260Y0000455I0000245J0000000D01*
G03X0000015Y0000210I0000000J0000245D01*
G01X0006275Y0001840D02*
G03X0006296Y0001740I0000245J0000000D01*
G01X0006765Y0001840D02*
G03X0006520Y0002085I0000245J0000000D01*
G01X0010475Y0001660D02*
G03X0010720Y0001415I0000245J0000000D01*
Y0001905D02*
G03X0010475Y0001660I0000000J0000245D01*
G01X0012250Y0001785D02*
G03X0012074Y0001710I0000000J0000245D01*
G01X0010720Y0001415D02*
G03X0010896Y0001490I0000000J0000245D01*
G01X0012250Y0001295D02*
G03X0012495Y0001540I0000000J0000245D01*
G03X0012250Y0001785I0000245J0000000D01*
G01X0012074Y0001370D02*
G03X0012250Y0001295I0000176J0000170D01*
G01X0011160Y0001420D02*
G03X0011280Y0001370I0000120J0000120D01*
G01X0010896Y0001830D02*
G03X0010720Y0001905I0000176J0000170D01*
G01X0010475Y0001660D02*
G03X0010720Y0001415I0000245J0000000D01*
G01X0010896Y0001830D02*
G03X0010720Y0001905I0000176J0000170D01*
G03X0010475Y0001660I0000000J0000245D01*
G01X0013970Y0007994D02*
G03X0014000Y0008028I0000170J0000176D01*
G01X0011925Y0004900D02*
G03X0011899Y0005010I0000245J0000000D01*
G01X0012820D02*
G03X0012940Y0005060I0000000J0000170D01*
G01X0011925Y0004900D02*
G03X0011899Y0005010I0000245J0000000D01*
G01X0013720Y0005330D02*
G03X0013840Y0005380I0000000J0000170D01*
G01X0013140Y0005670D02*
G03X0013020Y0005620I0000000J0000170D01*
G01X0012666Y0005350D02*
G03X0012784Y0005555I0000126J0000210D01*
G01X0014210Y0006380D02*
G03X0014160Y0006500I0000170J0000000D01*
Y0005700D02*
G03X0014210Y0005820I0000120J0000120D01*
G01X0014200Y0008415D02*
G03X0014000Y0008311I0000000J0000245D01*
G01X0013630Y0006620D02*
G03X0013680Y0006500I0000170J0000000D01*
G01X0001650Y0007293D02*
G03X0001261Y0007453I0000389J0000393D01*
G01X0013630Y0006620D02*
G03X0013680Y0006500I0000170J0000000D01*
G01X0013800Y0008415D02*
G03X0013555Y0008170I0000000J0000245D01*
G01X0001815Y0003760D02*
G03X0001857Y0003623I0000245J0000000D01*
G01X0002305Y0003760D02*
G03X0002245Y0003920I0000245J0000000D01*
G01X0006600Y0003590D02*
G03X0006720Y0003640I0000000J0000170D01*
G01X0005960Y0003515D02*
G03X0006136Y0003590I0000000J0000245D01*
G01X0005745Y0003642D02*
G03X0005960Y0003515I0000215J0000118D01*
G01X0006136Y0003930D02*
G03X0005960Y0004005I0000176J0000170D01*
G01X0007740Y0005070D02*
G03X0007620Y0005020I0000000J0000170D01*
G01X0007704Y0003450D02*
G03X0007725Y0003550I0000224J0000100D01*
G01X0008720Y0005020D02*
G03X0008600Y0005070I0000120J0000120D01*
G01X0011904Y0004800D02*
G03X0011925Y0004900I0000224J0000100D01*
G01X0003240Y0003835D02*
G03X0003424Y0003918I0000000J0000245D01*
G01X0003091Y0003885D02*
G03X0003240Y0003835I0000149J0000195D01*
G01X0012295Y0005560D02*
G03X0012414Y0005350I0000245J0000000D01*
G01X0011420D02*
G03X0011300Y0005300I0000000J0000170D01*
G01X0011904Y0004800D02*
G03X0011925Y0004900I0000224J0000100D01*
G01X0011042Y0005042D02*
G03X0011045Y0005080I0000242J0000038D01*
G01X0010555D02*
G03X0010572Y0004990I0000245J0000000D01*
G01X0011045Y0005080D02*
G03X0010800Y0005325I0000245J0000000D01*
G03X0010555Y0005080I0000000J0000245D01*
G01X0005633Y0004807D02*
G03X0005680Y0004920I0000113J0000113D01*
G01X0005765Y0005230D02*
G03X0005520Y0005475I0000245J0000000D01*
G03X0005275Y0005230I0000000J0000245D01*
G01X0005360Y0004600D02*
G03X0005473Y0004647I0000000J0000160D01*
G01X0005680Y0005044D02*
G03X0005765Y0005230I0000160J0000186D01*
G01X0003187Y0004647D02*
G03X0003300Y0004600I0000113J0000113D01*
G01X0002920Y0004980D02*
G03X0002967Y0004867I0000160J0000000D01*
G01X0002920Y0004980D02*
G03X0002967Y0004867I0000160J0000000D01*
G01X0002835Y0008100D02*
G03X0002920Y0007914I0000245J0000000D01*
G01X0003325Y0008100D02*
G03X0003080Y0008345I0000245J0000000D01*
G03X0002835Y0008100I0000000J0000245D01*
G01X0010215Y0006770D02*
G03X0010294Y0006590I0000245J0000000D01*
G01X0010705Y0006770D02*
G03X0010460Y0007015I0000245J0000000D01*
G03X0010215Y0006770I0000000J0000245D01*
G01X0012975Y0006840D02*
G03X0013220Y0006595I0000245J0000000D01*
G03X0013465Y0006840I0000000J0000245D01*
G03X0013220Y0007085I0000245J0000000D01*
G03X0012975Y0006840I0000000J0000245D01*
G01X0013140Y0005670D02*
G03X0013020Y0005620I0000000J0000170D01*
G01X0013025Y0005800D02*
G03X0013008Y0005890I0000245J0000000D01*
G01X0007875Y0003820D02*
G03X0008120Y0003575I0000245J0000000D01*
G03X0008365Y0003820I0000000J0000245D01*
G03X0008120Y0004065I0000245J0000000D01*
G03X0007875Y0003820I0000000J0000245D01*
G01X0015120Y0002855D02*
G03X0015365Y0003100I0000000J0000245D01*
G03X0015120Y0003345I0000245J0000000D01*
G01X0014934Y0002940D02*
G03X0015120Y0002855I0000186J0000160D01*
G01X0011496Y0003260D02*
G03X0011320Y0003335I0000176J0000170D01*
G01X0008700Y0003400D02*
G03X0008580Y0003450I0000120J0000120D01*
G01X0004020Y0003035D02*
G03X0004196Y0003110I0000000J0000245D01*
G01X0003800Y0003172D02*
G03X0004020Y0003035I0000220J0000108D01*
G01X0012185Y0002820D02*
G03X0012154Y0002940I0000245J0000000D01*
G01X0008920Y0002700D02*
G03X0009040Y0002650I0000120J0000120D01*
G01X0008920Y0002700D02*
G03X0009040Y0002650I0000120J0000120D01*
G01X0011940Y0002575D02*
G03X0012185Y0002820I0000000J0000245D01*
G01X0011764Y0002650D02*
G03X0011940Y0002575I0000176J0000170D01*
G01X0007235Y0003550D02*
G03X0007256Y0003450I0000245J0000000D01*
G01X0007725Y0003550D02*
G03X0007480Y0003795I0000245J0000000D01*
G03X0007235Y0003550I0000000J0000245D01*
G01X0010873Y0003547D02*
G03X0010820Y0003420I0000127J0000127D01*
G01X0010755Y0003070D02*
G03X0010768Y0002990I0000245J0000000D01*
G01X0011320Y0003335D02*
G03X0011180Y0003291I0000000J0000245D01*
G01X0010820Y0003236D02*
G03X0010755Y0003070I0000180J0000166D01*
G01X0011320Y0003920D02*
G03X0011193Y0003867I0000000J0000180D01*
G01X0011320Y0003920D02*
G03X0011193Y0003867I0000000J0000180D01*
G01X0007870Y0002255D02*
G03X0007838Y0002298I0000170J0000095D01*
G01X0016617Y0003943D02*
G03X0016670Y0004070I0000127J0000127D01*
G01X0003087Y0001147D02*
G03X0003200Y0001100I0000113J0000113D01*
G01X0003240Y0004325D02*
G03X0003029Y0004204I0000000J0000245D01*
G01X0002720Y0001580D02*
G03X0002767Y0001467I0000160J0000000D01*
G01X0002669Y0003885D02*
G03X0002720Y0003824I0000211J0000125D01*
G01X0002580Y0002800D02*
G03X0002145Y0003530I0000830J0000000D01*
G01X0008635Y0006080D02*
G03X0008652Y0005990I0000245J0000000D01*
G01X0008980Y0000700D02*
G03X0008730Y0001077I0000410J0000000D01*
G01X0002245Y0003920D02*
G03X0002290Y0003996I0000185J0000160D01*
G01X0002060Y0004325D02*
G03X0001815Y0004080I0000000J0000245D01*
G01X0010626Y0006590D02*
G03X0010705Y0006770I0000166J0000180D01*
G01X0010215D02*
G03X0010294Y0006590I0000245J0000000D01*
G01X0010705Y0006770D02*
G03X0010460Y0007015I0000245J0000000D01*
G03X0010215Y0006770I0000000J0000245D01*
G01X0010626Y0006590D02*
G03X0010705Y0006770I0000166J0000180D01*
G01X0005105Y0006420D02*
G03X0005350Y0006175I0000245J0000000D01*
G03X0005526Y0006250I0000000J0000245D01*
G01X0005350Y0006665D02*
G03X0005105Y0006420I0000000J0000245D01*
G01X0008490Y0006680D02*
G03X0008516Y0006590I0000170J0000000D01*
G01X0005526D02*
G03X0005350Y0006665I0000176J0000170D01*
G01X0010060Y0007020D02*
G03X0009940Y0007070I0000120J0000120D01*
G01X0008540Y0006940D02*
G03X0008490Y0006820I0000120J0000120D01*
G01X0008740Y0007070D02*
G03X0008620Y0007020I0000000J0000170D01*
G01X0010190Y0006820D02*
G03X0010140Y0006940I0000170J0000000D01*
G01X0010190Y0006820D02*
G03X0010140Y0006940I0000170J0000000D01*
G01X0008490Y0006680D02*
G03X0008516Y0006590I0000170J0000000D01*
G01X0011985Y0006420D02*
G03X0011740Y0006665I0000245J0000000D01*
G01X0004105Y0005480D02*
G03X0004350Y0005235I0000245J0000000D01*
G03X0004595Y0005480I0000000J0000245D01*
G03X0004526Y0005650I0000245J0000000D01*
G01X0011965Y0006680D02*
G03X0012210Y0006435I0000245J0000000D01*
G03X0012455Y0006680I0000000J0000245D01*
G03X0012210Y0006925I0000245J0000000D01*
G03X0011965Y0006680I0000000J0000245D01*
G01X0012320Y0007935D02*
G03X0012565Y0008180I0000000J0000245D01*
G03X0012320Y0008425I0000245J0000000D01*
G03X0012075Y0008180I0000000J0000245D01*
G01X0012785Y0005555D02*
G03X0013025Y0005800I0000005J0000245D01*
G01X0010820Y0007800D02*
G03X0010785Y0007750I0000120J0000120D01*
G01X0010820Y0007800D02*
G03X0010785Y0007750I0000120J0000120D01*
G01X0011020Y0007930D02*
G03X0010900Y0007880I0000000J0000170D01*
G01X0008704Y0007750D02*
G03X0008560Y0007830I0000144J0000090D01*
G01X0008380D02*
G03X0008290Y0007804I0000000J0000170D01*
G03X0008200Y0007830I0000090J0000144D01*
G01X0008020D02*
G03X0007876Y0007750I0000000J0000170D01*
G01X0005261D02*
G03X0005510Y0008140I0000181J0000390D01*
G01X0004100Y0007750D02*
G03X0003980Y0007700I0000000J0000170D01*
G01X0003900Y0007620D02*
G03X0003850Y0007500I0000120J0000120D01*
G01X0004745Y0007410D02*
G03X0004650Y0007140I0000335J0000270D01*
G01X0003775Y0006900D02*
G03X0004020Y0006655I0000245J0000000D01*
G03X0004265Y0006900I0000000J0000245D01*
G03X0004190Y0007076I0000245J0000000D01*
G01X0014050Y0006995D02*
G03X0014295Y0007240I0000000J0000245D01*
G03X0014050Y0007485I0000245J0000000D01*
G01X0013970Y0007008D02*
G03X0014050Y0006995I0000080J0000232D01*
G01X0002015Y0006160D02*
G03X0002260Y0005915I0000245J0000000D01*
G01X0001815Y0004080D02*
G03X0001874Y0003920I0000245J0000000D01*
G01X0013140Y0007480D02*
G03X0013190Y0007600I0000120J0000120D01*
G01X0011290Y0007760D02*
G03X0011120Y0007930I0000170J0000000D01*
G01X0002731Y0004204D02*
G03X0002690Y0004256I0000211J0000124D01*
G01X0003424Y0003918D02*
G03X0003480Y0003856I0000206J0000132D01*
G01X0002520Y0003835D02*
G03X0002669Y0003885I0000000J0000245D01*
G01X0003240Y0007914D02*
G03X0003325Y0008100I0000160J0000186D01*
G01X0002045Y0006480D02*
G03X0002091Y0006337I0000245J0000000D01*
G01X0008740Y0007070D02*
G03X0008620Y0007020I0000000J0000170D01*
G01X0002350Y0004256D02*
G03X0002290Y0004164I0000170J0000176D01*
G01X0010880Y0005940D02*
G03X0011000Y0005890I0000120J0000120D01*
G01X0012552D02*
G03X0012534Y0005805I0000228J0000090D01*
G01X0003630Y0004295D02*
G03X0003446Y0004212I0000000J0000245D01*
G01X0002880Y0004255D02*
G03X0002731Y0004204I0000000J0000245D01*
G01X0010720Y0001415D02*
G03X0010896Y0001490I0000000J0000245D01*
G01X0004196Y0003450D02*
G03X0004020Y0003525I0000176J0000170D01*
G01X0003800Y0003874D02*
G03X0003875Y0004050I0000170J0000176D01*
G01X0005745Y0003877D02*
G03X0005687Y0003948I0000215J0000117D01*
G01X0005323Y0003892D02*
G03X0005284Y0003760I0000207J0000132D01*
G01X0008553Y0001373D02*
G03X0008440Y0001420I0000113J0000113D01*
G01X0006744Y0001740D02*
G03X0006765Y0001840I0000224J0000100D01*
G01X0011870Y0001710D02*
G03X0011630Y0001905I0000240J0000050D01*
G01X0005275Y0005230D02*
G03X0005360Y0005044I0000245J0000000D01*
G01X0014050Y0007485D02*
G03X0013970Y0007472I0000000J0000245D01*
G01X0005360Y0004600D02*
G03X0005473Y0004647I0000000J0000160D01*
G01X0014160Y0005700D02*
G03X0014210Y0005820I0000120J0000120D01*
G01X0003850Y0007076D02*
G03X0003775Y0006900I0000170J0000176D01*
G01X0011496Y0003260D02*
G03X0011320Y0003335I0000176J0000170D01*
G01X0012185Y0002820D02*
G03X0012154Y0002940I0000245J0000000D01*
G01X0012141Y0002680D02*
G03X0012185Y0002820I0000201J0000140D01*
G01X0015120Y0003345D02*
G03X0014934Y0003260I0000000J0000245D01*
G01X0011320Y0003335D02*
G03X0011180Y0003291I0000000J0000245D01*
G01X0015120Y0002855D02*
G03X0015365Y0003100I0000000J0000245D01*
G03X0015120Y0003345I0000245J0000000D01*
G01X0014934Y0002940D02*
G03X0015120Y0002855I0000186J0000160D01*
G54D60*
G01X0011000Y0003070D02*
Y0003420D01*
X0011320Y0003740D01*
X0016160D01*
X0016490Y0004070D01*
Y0006350D01*
G54D61*
G01X0008890Y0002280D02*
X0008340D01*
X0008260Y0002200D01*
Y0002180D01*
X0008140Y0002060D01*
X0007780D01*
X0007700Y0002140D01*
Y0002160D01*
X0007580Y0002280D01*
X0006060D01*
Y0002350D01*
X0005960D01*
G54D99*
X0008890Y0002280D03*
X0005960Y0002350D03*
X0007840Y0002780D03*
X0014210D03*
X0009680Y0001870D03*
X0014710Y0007650D03*
X0011640Y0004070D03*
X0008320Y0009310D03*
X0006180Y0009390D03*
X0012400Y0000800D03*
X0007580Y0008320D03*
X0008810Y0009200D03*
X0008210Y0003020D03*
X0009580Y0008170D03*
X0003340Y0002870D03*
G54D100*
X0013920Y0000220D03*
X0000520Y0004540D03*
X0001010D03*
X0000260Y0000210D03*
X0006520Y0001840D03*
X0012250Y0001540D03*
X0011630Y0001660D03*
X0010720D03*
X0012130Y0006330D03*
X0011620Y0008170D03*
X0005810Y0004080D03*
X0005260Y0005000D03*
X0001870D03*
X0003440Y0005010D03*
X0013370Y0005060D03*
X0014390Y0007240D03*
X0010320Y0005910D03*
X0005380Y0002820D03*
X0004320Y0009200D03*
X0010780Y0006670D03*
X0008570Y0002710D03*
X0009130Y0003150D03*
X0007000Y0002550D03*
X0013800Y0008170D03*
X0012090Y0001110D03*
X0011040Y0001160D03*
X0010270Y0005080D03*
X0013370Y0004060D03*
X0005960Y0003760D03*
X0003240Y0004080D03*
X0012540Y0005560D03*
X0011680Y0004900D03*
X0010800Y0005080D03*
X0005520Y0005230D03*
X0003080Y0008100D03*
X0013220Y0006840D03*
X0012780Y0005800D03*
X0008120Y0003820D03*
X0015120Y0003100D03*
X0011320Y0003090D03*
X0004020Y0003280D03*
X0011940Y0002820D03*
X0007480Y0003550D03*
X0011000Y0003070D03*
X0002880Y0004010D03*
X0008880Y0006080D03*
X0002060Y0004080D03*
X0010460Y0006770D03*
X0005350Y0006420D03*
X0011740D03*
X0004350Y0005480D03*
X0012210Y0006680D03*
X0012320Y0008180D03*
X0004020Y0006900D03*
X0014050Y0007240D03*
X0002260Y0006160D03*
X0013020Y0008350D03*
X0007180Y0006720D03*
X0002520Y0004080D03*
X0002290Y0006480D03*
X0001820Y0005680D03*
X0010080Y0008100D03*
X0003600Y0005320D03*
X0013600Y0006060D03*
X0002650Y0007640D03*
X0014200Y0008170D03*
X0007840Y0004650D03*
X0012540Y0004560D03*
X0005530Y0003760D03*
X0002060D03*
X0011010Y0000840D03*
X0003630Y0004050D03*
X0011430Y0004400D03*
X0005480Y0004080D03*
G54D102*
X0016450Y0002800D03*
X0001750D03*
G54D109*
X0017490Y0006350D03*
Y0008800D03*
G54D110*
X0016490Y0006350D03*
Y0008800D03*
G54D112*
X0001261Y0006900D03*
X0000631Y0009380D03*
G54D113*
X0005080Y0007140D03*
Y0008140D03*
Y0009140D03*
G54D114*
X0006570Y0000700D03*
X0007570D03*
X0008570D03*
G54D115*
X0005570D03*
G54D116*
X0006060Y0006920D03*
G54D117*
X0001750Y0002820D03*
M02*
