*
G04 Mass Parameters ***
*
G04 Image ***
*
%INC:\PROJECTS\RAGOBOTS_HW\ROBOT\HW\HEAD\DESIGN\RAGOBOT_HEAD.GND*%
%ICAS*%
%MOIN*%
%IPPOS*%
%ASAXBY*%
G74*%FSLAN2X34Y34*%
*
G04 Aperture Definitions ***
*
%AMTHERMAL85*
1,1,0.0879,0,0,*
1,0,0.0640,0,0,*
21,0,0.0880,0.1000,0,0,45.0*
21,0,0.0880,0.1000,0,0,135.0*%
%AMTHERMAL88*
1,1,0.0879,0,0,*
1,0,0.0640,0,0,*
21,0,0.0880,0.1000,0,0,46.2*
21,0,0.0880,0.1000,0,0,136.2*%
%AMTHERMAL130*
1,1,0.1119,0,0,*
1,0,0.0880,0,0,*
21,0,0.1120,0.1000,0,0,135.0*
21,0,0.1120,0.1000,0,0,225.0*%
%AMTHERMAL135*
1,1,0.1739,0,0,*
1,0,0.1500,0,0,*
21,0,0.1740,0.1000,0,0,45.0*
21,0,0.1740,0.1000,0,0,135.0*%
%AMTHERMAL137*
1,1,0.0879,0,0,*
1,0,0.0640,0,0,*
21,0,0.0880,0.1000,0,0,45.3*
21,0,0.0880,0.1000,0,0,135.3*%
%ADD10R,0.0055X0.0055*%
%ADD11C,0.0130*%
%ADD12R,0.0130X0.0130*%
%ADD13C,0.0145*%
%ADD14R,0.0145X0.0145*%
%ADD15R,0.0098X0.0098*%
%ADD16O,0.0040X0.0079*%
%ADD17R,0.0040X0.0079*%
%ADD18R,0.0177X0.0216*%
%ADD19R,0.0029X0.0128*%
%ADD20R,0.0029X0.0079*%
%ADD21R,0.0216X0.0177*%
%ADD22R,0.0128X0.0029*%
%ADD23O,0.0062X0.0215*%
%ADD24R,0.0062X0.0215*%
%ADD25R,0.0180X0.0255*%
%ADD26R,0.0150X0.0150*%
%ADD27O,0.0044X0.0162*%
%ADD28R,0.0044X0.0162*%
%ADD29R,0.0138X0.0197*%
%ADD30C,0.0180*%
%ADD31R,0.0180X0.0180*%
%ADD32C,0.0195*%
%ADD33R,0.0195X0.0195*%
%ADD34C,0.0002*%
%ADD35R,0.0024X0.0128*%
%ADD36R,0.0128X0.0024*%
%ADD37C,0.0015*%
%ADD38C,0.0020*%
%ADD39C,0.0010*%
%ADD40C,0.0024*%
%ADD41C,0.0200*%
%ADD42C,0.0375*%
%ADD43C,0.0400*%
%ADD44C,0.0025*%
%ADD45C,0.0012*%
%ADD46C,0.0800*%
%ADD47R,0.0220X0.0220*%
%ADD48C,0.0520*%
%ADD49R,0.0520X0.0520*%
%ADD50C,0.0866*%
%ADD51C,0.0620*%
%ADD52C,0.0580*%
%ADD53R,0.0580X0.0580*%
%ADD54R,0.0394X0.0394*%
%ADD55C,0.0250*%
%ADD56C,0.0010*%
%ADD57C,0.0250*%
%ADD58C,0.0080*%
%ADD59C,0.0100*%
%ADD60C,0.0120*%
%ADD61C,0.0150*%
%ADD62O,0.0160X0.0315*%
%ADD63R,0.0160X0.0315*%
%ADD64R,0.0860X0.0860*%
%ADD65R,0.0708X0.0866*%
%ADD66R,0.0118X0.0512*%
%ADD67R,0.0118X0.0315*%
%ADD68R,0.0866X0.0708*%
%ADD69R,0.0512X0.0118*%
%ADD70O,0.0250X0.0860*%
%ADD71R,0.0250X0.0860*%
%ADD72R,0.0720X0.1020*%
%ADD73R,0.0600X0.0600*%
%ADD74O,0.0649X0.0177*%
%ADD75R,0.0649X0.0177*%
%ADD76R,0.0551X0.0787*%
%ADD77C,0.1600*%
%ADD78C,0.0720*%
%ADD79R,0.0720X0.0720*%
%ADD80C,0.0984*%
%ADD81C,0.0700*%
%ADD82C,0.0780*%
%ADD83R,0.0780X0.0780*%
%ADD84C,0.1500*%
%ADD85THERMAL85*%
%ADD86C,0.0500*%
%ADD87C,0.0500*%
%ADD88THERMAL88*%
%ADD89C,0.0670*%
%ADD90R,0.0098X0.0512*%
%ADD91R,0.0512X0.0098*%
%ADD92C,0.0039*%
%ADD93C,0.0060*%
%ADD94C,0.0098*%
%ADD95C,0.0079*%
%ADD96C,0.1420*%
%ADD97C,0.0750*%
%ADD98C,0.1260*%
%ADD99C,0.0250*%
%ADD100C,0.0250*%
%ADD101C,0.0200*%
%ADD102C,0.1420*%
%ADD103O,0.0160X0.0315*%
%ADD104R,0.0160X0.0315*%
%ADD105R,0.0220X0.0220*%
%ADD106R,0.0860X0.0860*%
%ADD107R,0.0708X0.0866*%
%ADD108R,0.0118X0.0512*%
%ADD109C,0.0520*%
%ADD110R,0.0520X0.0520*%
%ADD111R,0.0118X0.0315*%
%ADD112C,0.0866*%
%ADD113C,0.0620*%
%ADD114C,0.0580*%
%ADD115R,0.0580X0.0580*%
%ADD116C,0.0750*%
%ADD117C,0.1260*%
%ADD118O,0.0860X0.0250*%
%ADD119R,0.0860X0.0250*%
%ADD120R,0.0720X0.1020*%
%ADD121R,0.0600X0.0600*%
%ADD122O,0.0649X0.0177*%
%ADD123R,0.0649X0.0177*%
%ADD124R,0.0551X0.0787*%
%ADD125C,0.0118*%
%ADD126C,0.1650*%
%ADD127C,0.0720*%
%ADD128R,0.0720X0.0720*%
%ADD129C,0.1150*%
%ADD130THERMAL130*%
%ADD131C,0.0750*%
%ADD132C,0.0780*%
%ADD133R,0.0780X0.0780*%
%ADD134C,0.0850*%
%ADD135THERMAL135*%
%ADD136C,0.0500*%
%ADD137THERMAL137*%
*
G04 Plot Data ***
*
G54D85*
X0014210Y0002780D03*
X0009680Y0001870D03*
X0014710Y0007650D03*
X0011640Y0004070D03*
X0008320Y0009310D03*
X0006180Y0009390D03*
X0012400Y0000800D03*
X0007580Y0008320D03*
X0008810Y0009200D03*
X0008210Y0003020D03*
X0009580Y0008170D03*
X0003340Y0002870D03*
G54D130*
X0005080Y0009140D03*
G54D135*
X0001750Y0002820D03*
G54D137*
X0012130Y0006330D03*
X0011620Y0008170D03*
X0005810Y0004080D03*
X0005260Y0005000D03*
X0001870D03*
X0003440Y0005010D03*
X0013370Y0005060D03*
X0014390Y0007240D03*
X0010320Y0005910D03*
X0005380Y0002820D03*
X0004320Y0009200D03*
X0010780Y0006670D03*
X0008570Y0002710D03*
X0009130Y0003150D03*
X0007000Y0002550D03*
X0012090Y0001110D03*
X0011040Y0001160D03*
X0010270Y0005080D03*
X0013370Y0004060D03*
G54D56*
G01X0000000Y0000000D02*
Y0010000D01*
X0018200D01*
Y0000000D01*
X0000000D01*
G54D58*
G01X0002097Y0001374D02*
X0002124Y0001319D01*
X0002291D01*
X0002319Y0001374D01*
Y0001486D01*
X0002263Y0001541D01*
X0002097D01*
Y0001652D01*
X0002319D01*
X0001770Y0001319D02*
X0001714Y0001374D01*
X0001687Y0001430D01*
Y0001541D01*
X0001714Y0001597D01*
X0001770Y0001652D01*
X0001826D01*
X0001881Y0001597D01*
X0001909Y0001541D01*
Y0001430D01*
X0001881Y0001374D01*
X0001826Y0001319D01*
X0001770D01*
X0001471Y0001597D02*
X0001499Y0001652D01*
X0001117Y0001486D02*
X0000950D01*
Y0001319D02*
Y0001652D01*
X0001172D01*
X0000568Y0001430D02*
Y0001374D01*
X0000596Y0001319D01*
X0000707D01*
X0000734Y0001374D01*
Y0001652D01*
X0000762D02*
X0000651D01*
G54D86*
X0007840Y0002780D03*
G54D126*
X0016450Y0002800D03*
X0001750D03*
G54D127*
X0017490Y0006350D03*
Y0008800D03*
G54D128*
X0016490Y0006350D03*
Y0008800D03*
G54D129*
X0001261Y0006900D03*
X0000631Y0009380D03*
G54D131*
X0005080Y0007140D03*
Y0008140D03*
G54D132*
X0006570Y0000700D03*
X0007570D03*
X0008570D03*
G54D133*
X0005570D03*
G54D134*
X0006060Y0006920D03*
G54D136*
X0013920Y0000220D03*
X0000520Y0004540D03*
X0001010D03*
X0000260Y0000210D03*
X0006520Y0001840D03*
X0012250Y0001540D03*
X0011630Y0001660D03*
X0010720D03*
X0013800Y0008170D03*
X0005960Y0003760D03*
X0003240Y0004080D03*
X0012540Y0005560D03*
X0011680Y0004900D03*
X0010800Y0005080D03*
X0005520Y0005230D03*
X0003080Y0008100D03*
X0013220Y0006840D03*
X0012780Y0005800D03*
X0008120Y0003820D03*
X0015120Y0003100D03*
X0011320Y0003090D03*
X0004020Y0003280D03*
X0011940Y0002820D03*
X0007480Y0003550D03*
X0011000Y0003070D03*
X0002880Y0004010D03*
X0008880Y0006080D03*
X0002060Y0004080D03*
X0010460Y0006770D03*
X0005350Y0006420D03*
X0011740D03*
X0004350Y0005480D03*
X0012210Y0006680D03*
X0012320Y0008180D03*
X0004020Y0006900D03*
X0014050Y0007240D03*
X0002260Y0006160D03*
X0013020Y0008350D03*
X0007180Y0006720D03*
X0002520Y0004080D03*
X0002290Y0006480D03*
X0001820Y0005680D03*
X0010080Y0008100D03*
X0003600Y0005320D03*
X0013600Y0006060D03*
X0002650Y0007640D03*
X0014200Y0008170D03*
X0007840Y0004650D03*
X0012540Y0004560D03*
X0005530Y0003760D03*
X0002060D03*
X0011010Y0000840D03*
X0003630Y0004050D03*
X0011430Y0004400D03*
X0005480Y0004080D03*
X0008890Y0002280D03*
X0005960Y0002350D03*
M02*
