*
%LPD*%
%LNNECK.SPT*%
%FSLAX24Y24*%
%MOIN*%
%AD*%
%ADD66R,0.022000X0.022000*%
%ADD75O,0.094000X0.025000*%
%ADD76R,0.094000X0.025000*%
%ADD89R,0.051200X0.009800*%
%ADD90R,0.086600X0.070800*%
%ADD91O,0.030200X0.078700*%
%ADD92O,0.078700X0.030200*%
%ADD93R,0.078700X0.030200*%
%ADD109R,0.050000X0.050000*%
G54D66*
%SRX1Y1I0.0J0.0*%
G1X3538Y10222D3*
G1X3538Y9802D3*
G1X6813Y10252D3*
G1X6813Y9832D3*
G54D75*
G1X9544Y6535D3*
G1X9544Y6035D3*
G1X9544Y5535D3*
G1X9544Y5035D3*
G1X9544Y4535D3*
G1X9544Y4035D3*
G1X9544Y3535D3*
G1X11504Y3535D3*
G1X11504Y4035D3*
G1X11504Y4535D3*
G1X11504Y5035D3*
G1X11504Y5535D3*
G1X11504Y6035D3*
G1X11504Y6535D3*
G1X11504Y7035D3*
G1X5814Y6486D3*
G1X5814Y5986D3*
G1X5814Y5486D3*
G1X5814Y4986D3*
G1X5814Y4486D3*
G1X5814Y3986D3*
G1X5814Y3486D3*
G1X7774Y3486D3*
G1X7774Y3986D3*
G1X7774Y4486D3*
G1X7774Y4986D3*
G1X7774Y5486D3*
G1X7774Y5986D3*
G1X7774Y6486D3*
G1X7774Y6986D3*
G54D76*
G1X9544Y7035D3*
G1X5814Y6986D3*
G54D89*
G1X3662Y1143D3*
G1X3662Y1340D3*
G1X3662Y1537D3*
G1X3662Y1734D3*
G1X3662Y1931D3*
G1X3662Y2127D3*
G1X3662Y2324D3*
G1X3662Y2521D3*
G1X3662Y2718D3*
G1X3662Y2915D3*
G1X3662Y3112D3*
G1X3662Y3309D3*
G1X3662Y3505D3*
G1X3662Y3702D3*
G1X3662Y3899D3*
G1X3662Y4096D3*
G1X3662Y4293D3*
G1X3662Y4490D3*
G1X3662Y4686D3*
G1X3662Y4883D3*
G1X3662Y5080D3*
G1X3662Y5277D3*
G1X3662Y5474D3*
G1X3662Y5671D3*
G1X3662Y5868D3*
G1X3662Y6064D3*
G1X3662Y6261D3*
G1X3662Y6458D3*
G1X3662Y6655D3*
G1X3662Y6852D3*
G1X3662Y7049D3*
G1X3662Y7246D3*
G1X3662Y7442D3*
G54D90*
G1X2382Y395D3*
G1X2382Y8190D3*
G54D91*
G1X5264Y8743D3*
G1X5264Y10212D3*
G54D92*
G1X4530Y9477D3*
G1X4530Y8977D3*
G1X5999Y8977D3*
G1X5999Y9477D3*
G1X5999Y9977D3*
G54D93*
G1X4530Y9977D3*
G54D109*
G1X15228Y5231D3*
G1X14388Y5231D3*
G1X15228Y7023D3*
G1X14388Y7023D3*
M2*
