*
G04 Mass Parameters ***
*
G04 Image ***
*
%INC:\DAVIDLEE\RAGOBOTS_HW\ROBOT\HW\NECK\DESIGN\NECK.SMT*%
%ICAS*%
%MOIN*%
%IPPOS*%
%ASAXBY*%
G74*%FSLAN2X34Y34*%
*
G04 Aperture Definitions ***
*
%AMTHERMAL49*
1,1,0.0839,0,0,*
1,0,0.0640,0,0,*
21,0,0.0840,0.1000,0,0,46.2*
21,0,0.0840,0.1000,0,0,136.2*%
%AMTHERMAL59*
1,1,0.1759,0,0,*
1,0,0.1460,0,0,*
21,0,0.1760,0.0300,0,0,225.0*
21,0,0.1760,0.0300,0,0,315.0*%
%AMTHERMAL62*
1,1,0.0829,0,0,*
1,0,0.0630,0,0,*
21,0,0.0830,0.1000,0,0,45.0*
21,0,0.0830,0.1000,0,0,135.0*%
%AMTHERMAL105*
1,1,0.1699,0,0,*
1,0,0.1400,0,0,*
21,0,0.1700,0.0300,0,0,225.0*
21,0,0.1700,0.0300,0,0,315.0*%
%AMTHERMAL108*
1,1,0.0829,0,0,*
1,0,0.0630,0,0,*
21,0,0.0830,0.1000,0,0,45.3*
21,0,0.0830,0.1000,0,0,135.3*%
%ADD10R,0.0220X0.0220*%
%ADD11R,0.0560X0.0920*%
%ADD12C,0.0580*%
%ADD13R,0.0580X0.0580*%
%ADD14C,0.0560*%
%ADD15R,0.0560X0.0560*%
%ADD16C,0.0787*%
%ADD17O,0.0302X0.0894*%
%ADD18O,0.0894X0.0302*%
%ADD19R,0.0894X0.0302*%
%ADD20O,0.0940X0.0250*%
%ADD21R,0.0940X0.0250*%
%ADD22C,0.0630*%
%ADD23R,0.0472X0.0315*%
%ADD24R,0.0400X0.0560*%
%ADD25R,0.0480X0.0560*%
%ADD26R,0.0866X0.0708*%
%ADD27R,0.0512X0.0118*%
%ADD28R,0.1220X0.1299*%
%ADD29R,0.0157X0.1102*%
%ADD30C,0.0780*%
%ADD31R,0.0780X0.0780*%
%ADD32C,0.0010*%
%ADD33C,0.0660*%
%ADD34R,0.0660X0.0660*%
%ADD35R,0.0512X0.0098*%
%ADD36C,0.0080*%
%ADD37C,0.0060*%
%ADD38C,0.0039*%
%ADD39C,0.0070*%
%ADD40C,0.0100*%
%ADD41C,0.0098*%
%ADD42R,0.0472X0.1260*%
%ADD43C,0.0315*%
%ADD44C,0.0250*%
%ADD45C,0.0120*%
%ADD46R,0.0920X0.0560*%
%ADD47R,0.1260X0.0472*%
%ADD48C,0.0500*%
%ADD49THERMAL49*%
%ADD50C,0.0250*%
%ADD51C,0.0500*%
%ADD52O,0.0302X0.0787*%
%ADD53O,0.0787X0.0302*%
%ADD54R,0.0787X0.0302*%
%ADD55C,0.0770*%
%ADD56C,0.0300*%
%ADD57R,0.0315X0.0472*%
%ADD58C,0.0860*%
%ADD59THERMAL59*%
%ADD60R,0.0860X0.0860*%
%ADD61C,0.0970*%
%ADD62THERMAL62*%
%ADD63C,0.0090*%
%ADD64C,0.0197*%
%ADD65C,0.0250*%
%ADD66R,0.0220X0.0220*%
%ADD67R,0.0920X0.0560*%
%ADD68R,0.0400X0.0560*%
%ADD69R,0.0480X0.0560*%
%ADD70C,0.0580*%
%ADD71R,0.0580X0.0580*%
%ADD72C,0.0660*%
%ADD73R,0.0660X0.0660*%
%ADD74R,0.1260X0.0472*%
%ADD75O,0.0940X0.0250*%
%ADD76R,0.0940X0.0250*%
%ADD77R,0.0315X0.0472*%
%ADD78C,0.0770*%
%ADD79R,0.1220X0.1299*%
%ADD80R,0.0157X0.1102*%
%ADD81C,0.0250*%
%ADD82C,0.0780*%
%ADD83R,0.0780X0.0780*%
%ADD84C,0.0860*%
%ADD85C,0.0860*%
%ADD86R,0.0860X0.0860*%
%ADD87C,0.0970*%
%ADD88C,0.0500*%
%ADD89R,0.0512X0.0098*%
%ADD90R,0.0866X0.0708*%
%ADD91O,0.0302X0.0787*%
%ADD92O,0.0787X0.0302*%
%ADD93R,0.0787X0.0302*%
%ADD94R,0.0500X0.0500*%
%ADD95C,0.0760*%
%ADD96R,0.0760X0.0760*%
%ADD97C,0.0150*%
%ADD98C,0.0400*%
%ADD99C,0.0760*%
%ADD100R,0.0760X0.0760*%
%ADD101R,0.0472X0.0315*%
%ADD102C,0.0780*%
%ADD103R,0.0780X0.0780*%
%ADD104C,0.0960*%
%ADD105THERMAL105*%
%ADD106C,0.0960*%
%ADD107R,0.0960X0.0960*%
%ADD108THERMAL108*%
%ADD109R,0.0500X0.0500*%
%ADD110C,0.0780*%
%ADD111R,0.0780X0.0780*%
%ADD112C,0.0960*%
*
G04 Plot Data ***
*
G54D66*
X0003538Y0010222D03*
Y0009802D03*
X0006813Y0010252D03*
Y0009832D03*
G54D70*
X0015223Y0010135D03*
G54D71*
X0014223D03*
G54D75*
X0009544Y0006535D03*
Y0006035D03*
Y0005535D03*
Y0005035D03*
Y0004535D03*
Y0004035D03*
Y0003535D03*
X0011504D03*
Y0004035D03*
Y0004535D03*
Y0005035D03*
Y0005535D03*
Y0006035D03*
Y0006535D03*
Y0007035D03*
X0005814Y0006486D03*
Y0005986D03*
Y0005486D03*
Y0004986D03*
Y0004486D03*
Y0003986D03*
Y0003486D03*
X0007774D03*
Y0003986D03*
Y0004486D03*
Y0004986D03*
Y0005486D03*
Y0005986D03*
Y0006486D03*
Y0006986D03*
G54D76*
X0009544Y0007035D03*
X0005814Y0006986D03*
G54D78*
X0002758Y0002219D03*
X0013939D03*
G54D89*
X0003662Y0001143D03*
Y0001340D03*
Y0001537D03*
Y0001734D03*
Y0001931D03*
Y0002127D03*
Y0002324D03*
Y0002521D03*
Y0002718D03*
Y0002915D03*
Y0003112D03*
Y0003309D03*
Y0003505D03*
Y0003702D03*
Y0003899D03*
Y0004096D03*
Y0004293D03*
Y0004490D03*
Y0004686D03*
Y0004883D03*
Y0005080D03*
Y0005277D03*
Y0005474D03*
Y0005671D03*
Y0005868D03*
Y0006064D03*
Y0006261D03*
Y0006458D03*
Y0006655D03*
Y0006852D03*
Y0007049D03*
Y0007246D03*
Y0007442D03*
G54D90*
X0002382Y0000395D03*
Y0008190D03*
G54D91*
X0005264Y0008743D03*
Y0010212D03*
G54D92*
X0004530Y0009477D03*
Y0008977D03*
X0005999D03*
Y0009477D03*
Y0009977D03*
G54D93*
X0004530D03*
G54D99*
X0013605Y0003206D03*
X0013255Y0008256D03*
X0012155Y0009256D03*
X0011105Y0009706D03*
X0009905Y0009806D03*
X0008705Y0009706D03*
X0007655Y0009256D03*
X0008905Y0001306D03*
X0009905Y0001206D03*
X0010905Y0001306D03*
X0011755Y0001606D03*
G54D100*
X0012805Y0002356D03*
G54D109*
X0015228Y0005231D03*
X0014388D03*
X0015228Y0007023D03*
X0014388D03*
M02*
