*
G04 Mass Parameters ***
*
G04 Image ***
*
%INC:\DAVIDLEE\RAGOBOTS_HW\ROBOT\HW\NECK\DESIGN\NECK.SSB*%
%ICAS*%
%MOIN*%
%IPPOS*%
%ASAXBY*%
G74*%FSLAN2X34Y34*%
*
G04 Aperture Definitions ***
*
%AMTHERMAL49*
1,1,0.0839,0,0,*
1,0,0.0640,0,0,*
21,0,0.0840,0.1000,0,0,46.2*
21,0,0.0840,0.1000,0,0,136.2*%
%AMTHERMAL59*
1,1,0.1759,0,0,*
1,0,0.1460,0,0,*
21,0,0.1760,0.0300,0,0,225.0*
21,0,0.1760,0.0300,0,0,315.0*%
%AMTHERMAL62*
1,1,0.0829,0,0,*
1,0,0.0630,0,0,*
21,0,0.0830,0.1000,0,0,45.0*
21,0,0.0830,0.1000,0,0,135.0*%
%AMTHERMAL105*
1,1,0.1699,0,0,*
1,0,0.1400,0,0,*
21,0,0.1700,0.0300,0,0,225.0*
21,0,0.1700,0.0300,0,0,315.0*%
%AMTHERMAL108*
1,1,0.0829,0,0,*
1,0,0.0630,0,0,*
21,0,0.0830,0.1000,0,0,45.3*
21,0,0.0830,0.1000,0,0,135.3*%
%ADD10R,0.0220X0.0220*%
%ADD11R,0.0560X0.0920*%
%ADD12C,0.0580*%
%ADD13R,0.0580X0.0580*%
%ADD14C,0.0560*%
%ADD15R,0.0560X0.0560*%
%ADD16C,0.0787*%
%ADD17O,0.0302X0.0894*%
%ADD18O,0.0894X0.0302*%
%ADD19R,0.0894X0.0302*%
%ADD20O,0.0940X0.0250*%
%ADD21R,0.0940X0.0250*%
%ADD22C,0.0630*%
%ADD23R,0.0472X0.0315*%
%ADD24R,0.0400X0.0560*%
%ADD25R,0.0480X0.0560*%
%ADD26R,0.0866X0.0708*%
%ADD27R,0.0512X0.0118*%
%ADD28R,0.1220X0.1299*%
%ADD29R,0.0157X0.1102*%
%ADD30C,0.0780*%
%ADD31R,0.0780X0.0780*%
%ADD32C,0.0010*%
%ADD33C,0.0660*%
%ADD34R,0.0660X0.0660*%
%ADD35R,0.0512X0.0098*%
%ADD36C,0.0080*%
%ADD37C,0.0060*%
%ADD38C,0.0039*%
%ADD39C,0.0070*%
%ADD40C,0.0100*%
%ADD41C,0.0098*%
%ADD42R,0.0472X0.1260*%
%ADD43C,0.0315*%
%ADD44C,0.0250*%
%ADD45C,0.0120*%
%ADD46R,0.0920X0.0560*%
%ADD47R,0.1260X0.0472*%
%ADD48C,0.0500*%
%ADD49THERMAL49*%
%ADD50C,0.0250*%
%ADD51C,0.0500*%
%ADD52O,0.0302X0.0787*%
%ADD53O,0.0787X0.0302*%
%ADD54R,0.0787X0.0302*%
%ADD55C,0.0770*%
%ADD56C,0.0300*%
%ADD57R,0.0315X0.0472*%
%ADD58C,0.0860*%
%ADD59THERMAL59*%
%ADD60R,0.0860X0.0860*%
%ADD61C,0.0970*%
%ADD62THERMAL62*%
%ADD63C,0.0090*%
%ADD64C,0.0197*%
%ADD65C,0.0250*%
%ADD66R,0.0220X0.0220*%
%ADD67R,0.0920X0.0560*%
%ADD68R,0.0400X0.0560*%
%ADD69R,0.0480X0.0560*%
%ADD70C,0.0580*%
%ADD71R,0.0580X0.0580*%
%ADD72C,0.0660*%
%ADD73R,0.0660X0.0660*%
%ADD74R,0.1260X0.0472*%
%ADD75O,0.0940X0.0250*%
%ADD76R,0.0940X0.0250*%
%ADD77R,0.0315X0.0472*%
%ADD78C,0.0770*%
%ADD79R,0.1220X0.1299*%
%ADD80R,0.0157X0.1102*%
%ADD81C,0.0250*%
%ADD82C,0.0780*%
%ADD83R,0.0780X0.0780*%
%ADD84C,0.0860*%
%ADD85C,0.0860*%
%ADD86R,0.0860X0.0860*%
%ADD87C,0.0970*%
%ADD88C,0.0500*%
%ADD89R,0.0512X0.0098*%
%ADD90R,0.0866X0.0708*%
%ADD91O,0.0302X0.0787*%
%ADD92O,0.0787X0.0302*%
%ADD93R,0.0787X0.0302*%
%ADD94R,0.0500X0.0500*%
%ADD95C,0.0760*%
%ADD96R,0.0760X0.0760*%
%ADD97C,0.0150*%
%ADD98C,0.0400*%
%ADD99C,0.0760*%
%ADD100R,0.0760X0.0760*%
%ADD101R,0.0472X0.0315*%
%ADD102C,0.0780*%
%ADD103R,0.0780X0.0780*%
%ADD104C,0.0960*%
%ADD105THERMAL105*%
%ADD106C,0.0960*%
%ADD107R,0.0960X0.0960*%
%ADD108THERMAL108*%
%ADD109R,0.0500X0.0500*%
%ADD110C,0.0780*%
%ADD111R,0.0780X0.0780*%
%ADD112C,0.0960*%
*
G04 Plot Data ***
*
G54D36*
G01X0015229Y0009345D02*
X0015340D01*
X0015284Y0009457D01*
X0015257D01*
Y0009290D01*
X0015611Y0009345D02*
Y0009318D01*
X0015597Y0009290D01*
X0015542D01*
X0015528Y0009318D01*
Y0009457D01*
X0015514D02*
X0015569D01*
X0013534Y0009993D02*
X0013589D01*
X0013562D02*
Y0010159D01*
X0013589Y0010132D01*
X0000394Y0000277D02*
X0000494D01*
X0000377Y0000144D02*
X0000444D01*
X0000461Y0000177D01*
Y0000344D01*
X0000787Y0000144D02*
X0000804Y0000177D01*
Y0000244D01*
X0000787Y0000277D01*
X0000687D01*
X0000671Y0000244D01*
Y0000177D01*
X0000687Y0000144D01*
X0000787D01*
X0001097Y0000277D02*
X0000997D01*
X0000981Y0000244D01*
Y0000177D01*
X0000997Y0000144D01*
X0001097D01*
Y0000344D01*
X0001391Y0000144D02*
X0001407Y0000177D01*
Y0000244D01*
X0001391Y0000277D01*
X0001291D01*
X0001274Y0000244D01*
Y0000177D01*
X0001291Y0000144D01*
X0001391D01*
X0001667Y0000077D02*
X0001601D01*
X0001584Y0000110D01*
Y0000277D01*
X0001684D01*
X0001701Y0000244D01*
Y0000177D01*
X0001684Y0000144D01*
X0001584D01*
X0001977Y0000277D02*
X0001911D01*
X0001894Y0000244D01*
Y0000177D01*
X0001877Y0000144D01*
X0001994D01*
X0002011Y0000177D01*
X0001994Y0000210D01*
X0001894D01*
X0002237Y0000244D02*
X0002187Y0000144D01*
X0002321Y0000244D02*
X0002221D01*
X0002187Y0000277D01*
Y0000310D01*
X0002221Y0000344D01*
X0002321D01*
Y0000144D01*
X0015374Y0004717D02*
X0015174D01*
X0015374Y0004734D02*
Y0004634D01*
X0015341Y0004600D01*
X0015308D01*
X0015274Y0004617D01*
Y0004717D02*
Y0004617D01*
X0015241Y0004600D01*
X0015208D01*
X0015174Y0004634D01*
Y0004734D01*
X0015374Y0004910D02*
X0015274Y0005010D01*
X0015174Y0004910D01*
Y0005044D02*
X0015374D01*
X0015341Y0005220D02*
X0015374Y0005237D01*
Y0005337D01*
X0015341Y0005354D01*
X0015208D01*
X0015174Y0005337D01*
Y0005237D01*
X0015208Y0005220D01*
X0015174Y0005530D02*
X0015374D01*
X0015341Y0005564D01*
X0015208Y0005630D01*
X0015174Y0005664D01*
X0015374D01*
Y0005907D02*
X0015174D01*
Y0005840D02*
Y0005974D01*
X0015374Y0006267D02*
X0015174D01*
X0015374Y0006284D02*
Y0006184D01*
X0015341Y0006150D01*
X0015308D01*
X0015274Y0006167D01*
Y0006267D02*
Y0006167D01*
X0015241Y0006150D01*
X0015208D01*
X0015174Y0006184D01*
Y0006284D01*
X0015274Y0006510D02*
X0015374Y0006460D01*
X0015274Y0006594D02*
Y0006494D01*
X0015241Y0006460D01*
X0015208D01*
X0015174Y0006494D01*
Y0006594D01*
X0015374D01*
X0014799Y0004644D02*
Y0004744D01*
X0014932Y0004628D02*
Y0004694D01*
X0014899Y0004711D01*
X0014732D01*
X0014932Y0005038D02*
X0014899Y0005054D01*
X0014832D01*
X0014799Y0005038D01*
Y0004938D01*
X0014832Y0004921D01*
X0014899D01*
X0014932Y0004938D01*
Y0005038D01*
X0014799Y0005348D02*
Y0005248D01*
X0014832Y0005231D01*
X0014899D01*
X0014932Y0005248D01*
Y0005348D01*
X0014732D01*
X0014932Y0005641D02*
X0014899Y0005658D01*
X0014832D01*
X0014799Y0005641D01*
Y0005541D01*
X0014832Y0005524D01*
X0014899D01*
X0014932Y0005541D01*
Y0005641D01*
X0014999Y0005918D02*
Y0005851D01*
X0014966Y0005834D01*
X0014799D01*
Y0005934D01*
X0014832Y0005951D01*
X0014899D01*
X0014932Y0005934D01*
Y0005834D01*
X0014799Y0006228D02*
Y0006161D01*
X0014832Y0006144D01*
X0014899D01*
X0014932Y0006128D01*
Y0006244D01*
X0014899Y0006261D01*
X0014866Y0006244D01*
Y0006144D01*
X0014832Y0006488D02*
X0014932Y0006438D01*
X0014832Y0006571D02*
Y0006471D01*
X0014799Y0006438D01*
X0014766D01*
X0014732Y0006471D01*
Y0006571D01*
X0014932D01*
X0015723Y0009635D02*
Y0010635D01*
X0013723D01*
Y0009635D01*
X0015723D01*
G54D37*
G01X0006169Y0008872D02*
X0004644D01*
Y0010572D01*
X0006244D01*
Y0008947D01*
X0006169Y0008872D01*
X0012947Y0007634D02*
X0013537D01*
Y0005604D01*
X0012262D01*
Y0007634D01*
X0012777D01*
X0012862Y0007719D01*
X0012947Y0007634D01*
X0011559Y0007629D02*
X0012149D01*
Y0005599D01*
X0010874D01*
Y0007629D01*
X0011389D01*
X0011474Y0007714D01*
X0011559Y0007629D01*
X0008780D02*
X0009370D01*
Y0005599D01*
X0008095D01*
Y0007629D01*
X0008610D01*
X0008695Y0007714D01*
X0008780Y0007629D01*
X0006744Y0009493D02*
X0007226D01*
Y0010403D01*
X0006744D01*
Y0009493D01*
X0010175Y0007630D02*
X0010765D01*
Y0005600D01*
X0009490D01*
Y0007630D01*
X0010005D01*
X0010090Y0007715D01*
X0010175Y0007630D01*
G54D38*
G01X0001588Y0010645D02*
X0002690D01*
Y0008597D01*
X0001588D01*
Y0010645D01*
G01X0002139Y0009148D02*
G03X0002612Y0009621I0000000J0000473D01*
G01X0001666D02*
G03X0002139Y0009148I0000473J0000000D01*
Y0010094D02*
G03X0001666Y0009621I0000000J0000473D01*
G01X0002612D02*
G03X0002139Y0010094I0000473J0000000D01*
G54D63*
G01X0006508Y0005734D02*
Y0005634D01*
X0006541Y0005618D01*
X0006575D01*
X0006608Y0005634D01*
Y0005734D01*
X0006575Y0005751D01*
X0006541D01*
X0006408Y0005684D01*
X0006608Y0005421D02*
X0006441D01*
X0006408Y0005404D01*
Y0005304D01*
X0006441Y0005288D01*
X0006608D01*
X0001756Y0009542D02*
X0001823D01*
X0001789D02*
Y0009742D01*
X0001823Y0009709D01*
X0002053Y0009742D02*
Y0009575D01*
X0002069Y0009542D01*
X0002119Y0009642D01*
Y0009675D02*
Y0009642D01*
X0002169Y0009542D01*
X0002186Y0009575D01*
Y0009742D01*
X0002383Y0009709D02*
X0002399Y0009742D01*
X0002499D01*
X0002516Y0009709D01*
Y0009675D01*
X0002499Y0009642D01*
X0002399D01*
X0002383Y0009609D01*
Y0009575D01*
X0002399Y0009542D01*
X0002499D01*
X0002516Y0009575D01*
X0004527Y0008562D02*
X0004594D01*
X0004560D02*
Y0008762D01*
X0004594Y0008728D01*
X0004857Y0008662D02*
X0004957D01*
X0004824Y0008562D02*
X0004957D01*
Y0008762D01*
X0004824D01*
X0005154Y0008595D02*
X0005170Y0008562D01*
X0005270D01*
X0005287Y0008595D01*
Y0008728D01*
X0005270Y0008762D01*
X0005170D01*
X0005154Y0008728D01*
X0005484Y0008762D02*
Y0008562D01*
X0005517Y0008595D01*
X0005584Y0008728D01*
X0005617Y0008762D01*
Y0008562D01*
X0005930D02*
Y0008762D01*
X0005947Y0008562D02*
X0005847D01*
X0005814Y0008595D01*
Y0008628D01*
X0005830Y0008662D01*
X0005930D02*
X0005830D01*
X0005814Y0008695D01*
Y0008728D01*
X0005847Y0008762D01*
X0005947D01*
X0006260Y0008562D02*
Y0008762D01*
X0006277Y0008562D02*
X0006177D01*
X0006144Y0008628D01*
Y0008695D01*
X0006177Y0008762D01*
X0006277D01*
X0012499Y0006519D02*
X0012566D01*
X0012533D02*
Y0006719D01*
X0012566Y0006686D01*
X0012796Y0006519D02*
X0012863D01*
X0012829D02*
Y0006719D01*
X0012863Y0006686D01*
X0013209Y0006519D02*
Y0006719D01*
X0013226Y0006519D02*
X0013126D01*
X0013093Y0006586D01*
Y0006653D01*
X0013126Y0006719D01*
X0013226D01*
X0011132Y0006510D02*
X0011165Y0006543D01*
X0011182Y0006576D01*
Y0006643D01*
X0011165Y0006676D01*
X0011132Y0006710D01*
X0011099D01*
X0011065Y0006676D01*
X0011049Y0006643D01*
Y0006576D01*
X0011065Y0006543D01*
X0011099Y0006510D01*
X0011132D01*
X0011379D02*
X0011445D01*
X0011412D02*
Y0006710D01*
X0011445Y0006676D01*
X0011792Y0006510D02*
Y0006710D01*
X0011809Y0006510D02*
X0011709D01*
X0011675Y0006576D01*
Y0006643D01*
X0011709Y0006710D01*
X0011809D01*
X0008485Y0006631D02*
X0008469Y0006665D01*
Y0006698D01*
X0008485Y0006731D01*
X0008585D01*
X0008602Y0006698D01*
Y0006665D01*
X0008585Y0006631D01*
X0008485D01*
X0008469Y0006598D01*
Y0006565D01*
X0008485Y0006531D01*
X0008585D01*
X0008602Y0006565D01*
Y0006598D01*
X0008585Y0006631D01*
X0008915Y0006531D02*
Y0006731D01*
X0008932Y0006531D02*
X0008832D01*
X0008799Y0006598D01*
Y0006665D01*
X0008832Y0006731D01*
X0008932D01*
X0006890Y0010562D02*
X0006874Y0010529D01*
X0006774D01*
X0006757Y0010562D01*
Y0010629D01*
X0006790Y0010662D01*
X0006890D01*
Y0010729D01*
X0006757D01*
X0007087Y0010562D02*
X0007104Y0010529D01*
X0007204D01*
X0007220Y0010562D01*
Y0010695D01*
X0007204Y0010729D01*
X0007104D01*
X0007087Y0010695D01*
X0009957Y0006619D02*
X0010057D01*
X0010074Y0006652D01*
Y0006685D01*
X0010057Y0006719D01*
X0009957D01*
X0009941Y0006685D01*
Y0006652D01*
X0010007Y0006519D01*
X0010387D02*
Y0006719D01*
X0010404Y0006519D02*
X0010304D01*
X0010271Y0006585D01*
Y0006652D01*
X0010304Y0006719D01*
X0010404D01*
X0000536Y0004976D02*
X0000569Y0005009D01*
X0000586Y0005043D01*
Y0005109D01*
X0000569Y0005143D01*
X0000536Y0005176D01*
X0000503D01*
X0000469Y0005143D01*
X0000453Y0005109D01*
Y0005043D01*
X0000469Y0005009D01*
X0000503Y0004976D01*
X0000536D01*
X0000783D02*
X0000849D01*
X0000816D02*
Y0005176D01*
X0000849Y0005143D01*
X0001079Y0005176D02*
Y0005009D01*
X0001096Y0004976D01*
X0001196D01*
X0001213Y0005009D01*
Y0005176D01*
G54D97*
G01X0001002Y0007855D02*
X0001252D01*
X0000918Y0007605D02*
X0001252D01*
Y0008105D01*
X0000918D01*
X0001885Y0007605D02*
Y0008105D01*
X0001927Y0007605D02*
X0001677D01*
X0001593Y0007771D01*
Y0007938D01*
X0001677Y0008105D01*
X0001927D01*
X0002560Y0007605D02*
X0002602Y0007688D01*
Y0008021D01*
X0002560Y0008105D01*
X0002310D01*
X0002268Y0008021D01*
Y0007688D01*
X0002310Y0007605D01*
X0002560D01*
X0002943D02*
Y0008105D01*
X0003027Y0008021D01*
X0003110Y0007855D01*
X0003193Y0008021D01*
X0003277Y0008105D01*
Y0007605D01*
X0013042Y0004983D02*
Y0005483D01*
X0013083Y0004983D02*
X0012833D01*
X0012750Y0005150D01*
Y0005317D01*
X0012833Y0005483D01*
X0013083D01*
X0011373Y0005056D02*
X0011415Y0004973D01*
X0011665D01*
X0011707Y0005056D01*
Y0005389D01*
X0011665Y0005473D01*
X0011415D01*
X0011373Y0005389D01*
X0010269Y0004967D02*
Y0005467D01*
X0010310Y0004967D02*
X0010060D01*
X0009977Y0005050D01*
Y0005134D01*
X0010019Y0005217D01*
X0010269D02*
X0010019D01*
X0009977Y0005300D01*
Y0005384D01*
X0010060Y0005467D01*
X0010310D01*
X0008502Y0005151D02*
X0008835D01*
X0008502Y0004984D02*
Y0005234D01*
X0008627Y0005484D01*
X0008710D01*
X0008835Y0005234D01*
Y0004984D01*
M02*
