%
T1C0.0130F200S100
X000400Y004845
X000400Y005665
X000420Y003905
X001035Y000490
X001280Y005665
X001525Y005215
X001760Y002715
X002162Y008835
X002175Y004645
X002175Y004970
X002250Y001143
X002400Y005977
X002410Y003445
X002570Y003765
X002635Y007135
X002740Y005910
X002805Y004090
X002805Y004410
X002870Y006890
X003115Y008400
X003210Y003309
X003211Y001537
X003211Y002970
X003211Y006205
X003530Y007700
X003532Y009412
X004113Y001685
X004339Y001306
X004380Y006800
X004380Y010535
X004575Y002895
X004830Y005097
X005055Y001882
X005322Y002127
X005580Y002750
X005725Y007310
X005772Y008400
X005830Y003015
X006045Y007306
X006056Y007700
X006080Y000895
X006265Y008155
X006479Y005015
X006510Y010557
X006534Y005486
X006550Y003020
X006580Y003501
X006627Y008155
X006799Y005015
X006830Y003265
X006872Y009290
X007080Y003501
X007105Y005515
X007120Y010470
X007494Y009895
X007860Y010140
X007865Y002676
X008095Y003166
X008185Y001810
X008380Y008175
X008439Y004995
X008439Y005315
X008580Y002921
X008830Y002055
X009080Y002989
X009345Y003215
X009580Y002835
X009620Y009215
X009655Y007670
X010145Y007930
X010145Y008910
X010210Y005035
X010217Y002700
X010455Y005545
X010498Y002210
X010520Y006540
X010520Y007820
X010520Y008175
X010580Y003240
X010765Y008665
X010830Y003500
X011320Y007669
X011320Y008420
X011330Y002455
X011605Y010169
X012245Y000490
X012310Y007915
X012330Y003501
X012580Y004993
X012680Y001505
X012900Y009125
X013267Y009555
X013300Y006675
X013310Y010445
X013610Y001045
X015200Y001045
X015200Y003225
X015530Y004065
T2C0.0400F200S100
X007655Y009256
X008705Y009706
X008905Y001306
X009905Y001206
X009905Y009806
X010905Y001306
X011105Y009706
X011755Y001606
X012155Y009256
X012805Y002356
X013255Y008256
X013605Y003206
X014223Y010135
X015223Y010135
T3C0.0630F200S100
X002758Y002219
X013939Y002219
M30
