*
G04 Mass Parameters ***
*
G04 Image ***
*
%INC:\PROJECTS\RAGOBOTS_HW\ROBOT\HW\EXPANSION\PORTEXP\DESIGN\PORTEXP.SST*%
%ICAS*%
%MOIN*%
%IPPOS*%
%ASAXBY*%
G74*%FSLAN2X34Y34*%
*
G04 Aperture Definitions ***
*
%ADD10R,0.0380X0.0320*%
%ADD11C,0.0580*%
%ADD12R,0.0580X0.0580*%
%ADD13C,0.1650*%
%ADD14R,0.0118X0.0512*%
%ADD15R,0.0708X0.0866*%
%ADD16C,0.1450*%
%ADD17C,0.0570*%
%ADD18R,0.0500X0.0500*%
%ADD19C,0.0650*%
%ADD20C,0.0550*%
%ADD21C,0.0250*%
%ADD22C,0.0100*%
%ADD23C,0.0250*%
%ADD24C,0.0250*%
%ADD25R,0.0118X0.0512*%
%ADD26R,0.0708X0.0866*%
%ADD27R,0.0380X0.0320*%
%ADD28C,0.0580*%
%ADD29R,0.0580X0.0580*%
%ADD30C,0.1650*%
%ADD31C,0.1450*%
%ADD32C,0.0570*%
%ADD33C,0.0650*%
%ADD34C,0.0550*%
%ADD35O,0.1000X0.0250*%
%ADD36R,0.1000X0.0250*%
%ADD37C,0.1250*%
%ADD38R,0.0098X0.0512*%
%ADD39R,0.0500X0.0500*%
%ADD40C,0.0060*%
%ADD41C,0.0080*%
*
G04 Plot Data ***
*
G54D22*
G01X0002525Y0004675D02*
X0002192D01*
X0002525Y0004508D02*
Y0004758D01*
X0002400Y0005008D01*
X0002317D01*
X0002192Y0004758D01*
Y0004508D01*
X0001658D02*
Y0005008D01*
X0001617Y0004508D02*
X0001867D01*
X0001950Y0004592D01*
Y0004675D01*
X0001908Y0004758D01*
X0001658D02*
X0001908D01*
X0001950Y0004842D01*
Y0004925D01*
X0001867Y0005008D01*
X0001617D01*
X0001042Y0004758D02*
X0001292D01*
X0001375Y0004842D01*
Y0004925D01*
X0001292Y0005008D01*
X0001042D01*
Y0004508D01*
X0000717Y0004758D02*
X0000467D01*
X0000800Y0004508D02*
X0000467D01*
Y0005008D01*
X0000800D01*
X0000058Y0004508D02*
Y0005008D01*
X0000225D02*
X-0000108D01*
X-0000642Y0004508D02*
Y0005008D01*
X-0000683Y0004508D02*
X-0000433D01*
X-0000350Y0004592D01*
Y0004675D01*
X-0000392Y0004758D01*
X-0000642D02*
X-0000392D01*
X-0000350Y0004842D01*
Y0004925D01*
X-0000433Y0005008D01*
X-0000683D01*
X-0001050Y0004758D02*
X-0000925Y0004508D01*
X-0001258Y0004758D02*
X-0001008D01*
X-0000925Y0004842D01*
Y0004925D01*
X-0001008Y0005008D01*
X-0001258D01*
Y0004508D01*
X0001379Y0002255D02*
X0006310D01*
Y-0000107D01*
X0001379D01*
Y0002255D01*
G54D40*
G01X0011800Y0019300D02*
X0010200D01*
Y0019500D01*
X0010000Y0019300D02*
Y0019500D01*
X0006300D02*
Y0019300D01*
X0002200Y0019500D02*
Y0019300D01*
X0006100D02*
Y0019500D01*
X0010000Y0019300D02*
X0006300D01*
X0006100D02*
X0002200D01*
X0006345Y0006385D02*
Y0005235D01*
X0006990D01*
Y0006385D01*
X0006345D01*
X0002975Y0008260D02*
X0002225D01*
Y0006660D01*
X0002975D01*
Y0008260D01*
X0003985D02*
X0003235D01*
Y0006660D01*
X0003985D01*
Y0008260D01*
X0004985D02*
X0004235D01*
Y0006660D01*
X0004985D01*
Y0008260D01*
X0007005D02*
X0006255D01*
Y0006660D01*
X0007005D01*
Y0008260D01*
G54D41*
G01X0000334Y0000872D02*
Y0000539D01*
X0000279Y0000594D01*
X0000168Y0000817D01*
X0000112Y0000872D01*
Y0000539D01*
X-0000076D02*
X-0000187D01*
X-0000131D02*
Y0000872D01*
X-0000076D02*
X-0000187D01*
X-0000430Y0000650D02*
X-0000652D01*
X-0000430Y0000539D02*
Y0000705D01*
X-0000513Y0000872D01*
X-0000569D01*
X-0000652Y0000705D01*
Y0000539D01*
X-0000923Y0000705D02*
X-0000840Y0000539D01*
X-0001062Y0000705D02*
X-0000896D01*
X-0000840Y0000761D01*
Y0000817D01*
X-0000896Y0000872D01*
X-0001062D01*
Y0000539D01*
X-0001444D02*
Y0000872D01*
X-0001472Y0000539D02*
X-0001306D01*
X-0001250Y0000594D01*
Y0000650D01*
X-0001278Y0000705D01*
X-0001444D02*
X-0001278D01*
X-0001250Y0000761D01*
Y0000817D01*
X-0001306Y0000872D01*
X-0001472D01*
X0009160Y0001405D02*
Y0001461D01*
X0009215D01*
Y0001405D01*
X0009160D01*
Y0001239D02*
Y0001294D01*
X0009215D01*
Y0001239D01*
X0009160D01*
X0008917D02*
X0008722D01*
Y0001572D01*
X0008534Y0001350D02*
X0008312D01*
X0008534Y0001239D02*
Y0001405D01*
X0008451Y0001572D01*
X0008395D01*
X0008312Y0001405D01*
Y0001239D01*
X0008124D02*
X0008013D01*
X0008069D02*
Y0001572D01*
X0008124D02*
X0008013D01*
X0007687Y0001405D02*
X0007770Y0001239D01*
X0007548Y0001405D02*
X0007714D01*
X0007770Y0001461D01*
Y0001517D01*
X0007714Y0001572D01*
X0007548D01*
Y0001239D01*
X0007304Y0001405D02*
X0007138D01*
X0007360Y0001239D02*
X0007138D01*
Y0001572D01*
X0007360D01*
X0006950Y0001517D02*
X0006922Y0001572D01*
X0006755D01*
X0006728Y0001517D01*
Y0001461D01*
X0006755Y0001405D01*
X0006922D01*
X0006950Y0001350D01*
Y0001294D01*
X0006922Y0001239D01*
X0006755D01*
X0006728Y0001294D01*
X0008534Y0000872D02*
Y0000539D01*
X0008479Y0000594D01*
X0008368Y0000817D01*
X0008312Y0000872D01*
Y0000539D01*
X0008124Y0000650D02*
X0007902D01*
X0008124Y0000539D02*
Y0000705D01*
X0008041Y0000872D01*
X0007985D01*
X0007902Y0000705D01*
Y0000539D01*
X0007714D02*
Y0000872D01*
X0007659Y0000817D01*
X0007603Y0000705D01*
X0007548Y0000817D01*
X0007492Y0000872D01*
Y0000539D01*
X0007221Y0000705D02*
X0007304Y0000539D01*
X0007082Y0000705D02*
X0007249D01*
X0007304Y0000761D01*
Y0000817D01*
X0007249Y0000872D01*
X0007082D01*
Y0000539D01*
X0006894D02*
X0006783D01*
X0006839D02*
Y0000872D01*
X0006894D02*
X0006783D01*
X0005986Y0014572D02*
X0005874D01*
X0005930D02*
Y0014906D01*
X0005874Y0014850D01*
X0000960Y0001405D02*
Y0001461D01*
X0001015D01*
Y0001405D01*
X0000960D01*
Y0001239D02*
Y0001294D01*
X0001015D01*
Y0001239D01*
X0000960D01*
X0000717D02*
X0000522D01*
Y0001572D01*
X0000334Y0001350D02*
X0000112D01*
X0000334Y0001239D02*
Y0001405D01*
X0000251Y0001572D01*
X0000195D01*
X0000112Y0001405D01*
Y0001239D01*
X-0000076D02*
X-0000187D01*
X-0000131D02*
Y0001572D01*
X-0000076D02*
X-0000187D01*
X-0000513Y0001405D02*
X-0000430Y0001239D01*
X-0000652Y0001405D02*
X-0000486D01*
X-0000430Y0001461D01*
Y0001517D01*
X-0000486Y0001572D01*
X-0000652D01*
Y0001239D01*
X-0000896Y0001405D02*
X-0001062D01*
X-0000840Y0001239D02*
X-0001062D01*
Y0001572D01*
X-0000840D01*
X-0001250Y0001517D02*
X-0001278Y0001572D01*
X-0001444D01*
X-0001472Y0001517D01*
Y0001461D01*
X-0001444Y0001405D01*
X-0001278D01*
X-0001250Y0001350D01*
Y0001294D01*
X-0001278Y0001239D01*
X-0001444D01*
X-0001472Y0001294D01*
X0006041Y0015773D02*
X0005819D01*
X0006041Y0015995D01*
Y0016050D01*
X0006013Y0016106D01*
X0005847D01*
X0005819Y0016050D01*
X0001886Y0014582D02*
X0001774D01*
X0001830D02*
Y0014916D01*
X0001774Y0014860D01*
X0005526Y0011309D02*
X0005638D01*
Y0011198D01*
X0005610Y0011142D01*
X0005443D01*
X0005415Y0011198D01*
Y0011420D01*
X0005443Y0011476D01*
X0005610D01*
X0005638Y0011420D01*
X0005228Y0011254D02*
X0005005D01*
X0005228Y0011142D02*
Y0011309D01*
X0005144Y0011476D01*
X0005089D01*
X0005005Y0011309D01*
Y0011142D01*
X0004706D02*
Y0011476D01*
X0004818D02*
X0004595D01*
X0004213Y0011254D02*
Y0011198D01*
X0004241Y0011142D01*
X0004352D01*
X0004380Y0011198D01*
Y0011476D01*
X0004408D02*
X0004297D01*
X0007941Y0007453D02*
X0007719D01*
X0007941Y0007675D01*
Y0007730D01*
X0007913Y0007786D01*
X0007747D01*
X0007719Y0007730D01*
X0011347Y0007719D02*
X0011513D01*
X0011541Y0007664D01*
Y0007608D01*
X0011513Y0007553D01*
X0011347D01*
X0011319Y0007608D01*
Y0007664D01*
X0011430Y0007886D01*
X0011829Y0018749D02*
X0011857Y0018805D01*
Y0018860D01*
X0011829Y0018916D01*
X0011662D01*
X0011634Y0018860D01*
Y0018805D01*
X0011662Y0018749D01*
X0011829D01*
X0011857Y0018694D01*
Y0018638D01*
X0011829Y0018583D01*
X0011662D01*
X0011634Y0018638D01*
Y0018694D01*
X0011662Y0018749D01*
X0011447Y0018583D02*
X0011335D01*
X0011391D02*
Y0018916D01*
X0011335Y0018860D01*
X0004120Y0019766D02*
Y0019432D01*
X0004064Y0019488D01*
X0003953Y0019710D01*
X0003898Y0019766D01*
Y0019432D01*
X0003710Y0019544D02*
X0003488D01*
X0003710Y0019432D02*
Y0019599D01*
X0003627Y0019766D01*
X0003571D01*
X0003488Y0019599D01*
Y0019432D01*
X0003300D02*
Y0019766D01*
X0003244Y0019710D01*
X0003189Y0019599D01*
X0003133Y0019710D01*
X0003078Y0019766D01*
Y0019432D01*
X0002807Y0019599D02*
X0002890Y0019432D01*
X0002668Y0019599D02*
X0002834D01*
X0002890Y0019655D01*
Y0019710D01*
X0002834Y0019766D01*
X0002668D01*
Y0019432D01*
X0002480D02*
X0002369D01*
X0002424D02*
Y0019766D01*
X0002480D02*
X0002369D01*
X0011668Y0015773D02*
X0011612Y0015828D01*
X0011584Y0015884D01*
Y0015995D01*
X0011612Y0016050D01*
X0011668Y0016106D01*
X0011723D01*
X0011779Y0016050D01*
X0011807Y0015995D01*
Y0015884D01*
X0011779Y0015828D01*
X0011723Y0015773D01*
X0011668D01*
X0011397D02*
X0011285D01*
X0011341D02*
Y0016106D01*
X0011285Y0016050D01*
X0010992Y0005799D02*
X0011075Y0005632D01*
X0010853Y0005799D02*
X0011020D01*
X0011075Y0005855D01*
Y0005910D01*
X0011020Y0005966D01*
X0010853D01*
Y0005632D01*
X0010471D02*
X0010443Y0005688D01*
Y0005910D01*
X0010471Y0005966D01*
X0010638D01*
X0010665Y0005910D01*
Y0005688D01*
X0010638Y0005632D01*
X0010471D01*
X0010144D02*
Y0005966D01*
X0010255D02*
X0010033D01*
X0009651Y0005632D02*
X0009623Y0005688D01*
Y0005910D01*
X0009651Y0005966D01*
X0009818D01*
X0009845Y0005910D01*
Y0005688D01*
X0009818Y0005632D01*
X0009651D01*
X0009435D02*
Y0005966D01*
X0009380Y0005910D01*
X0009324Y0005799D01*
X0009269Y0005910D01*
X0009213Y0005966D01*
Y0005632D01*
X0007041Y0013113D02*
X0006819D01*
X0007041Y0013335D01*
Y0013390D01*
X0007013Y0013446D01*
X0006847D01*
X0006819Y0013390D01*
X0011613Y0013279D02*
X0011641Y0013335D01*
Y0013390D01*
X0011613Y0013446D01*
X0011447D01*
X0011419Y0013390D01*
Y0013335D01*
X0011447Y0013279D01*
X0011613D01*
X0011641Y0013224D01*
Y0013168D01*
X0011613Y0013113D01*
X0011447D01*
X0011419Y0013168D01*
Y0013224D01*
X0011447Y0013279D01*
X0009668Y0010493D02*
X0009612Y0010548D01*
X0009584Y0010604D01*
Y0010715D01*
X0009612Y0010770D01*
X0009668Y0010826D01*
X0009723D01*
X0009779Y0010770D01*
X0009807Y0010715D01*
Y0010604D01*
X0009779Y0010548D01*
X0009723Y0010493D01*
X0009668D01*
X0009397D02*
X0009285D01*
X0009341D02*
Y0010826D01*
X0009285Y0010770D01*
X0011563Y0014739D02*
X0011397D01*
X0011369Y0014795D01*
Y0014850D01*
X0011397Y0014906D01*
X0011563D01*
X0011591Y0014850D01*
Y0014795D01*
X0011480Y0014572D01*
X0001941Y0015783D02*
X0001719D01*
X0001941Y0016005D01*
Y0016060D01*
X0001913Y0016116D01*
X0001747D01*
X0001719Y0016060D01*
X0005347Y0015949D02*
X0005513D01*
X0005541Y0015894D01*
Y0015838D01*
X0005513Y0015783D01*
X0005347D01*
X0005319Y0015838D01*
Y0015894D01*
X0005430Y0016116D01*
X0001886Y0011882D02*
X0001774D01*
X0001830D02*
Y0012216D01*
X0001774Y0012160D01*
X0001941Y0012983D02*
X0001719D01*
X0001941Y0013205D01*
Y0013260D01*
X0001913Y0013316D01*
X0001747D01*
X0001719Y0013260D01*
X0011319Y0006508D02*
X0011347Y0006452D01*
X0011513D01*
X0011541Y0006508D01*
Y0006619D01*
X0011486Y0006675D01*
X0011319D01*
Y0006786D01*
X0011541D01*
X0010435Y0008480D02*
X0010408Y0008536D01*
X0010241D01*
X0010213Y0008480D01*
Y0008425D01*
X0010241Y0008369D01*
X0010408D01*
X0010435Y0008314D01*
Y0008258D01*
X0010408Y0008202D01*
X0010241D01*
X0010213Y0008258D01*
X0009831Y0008202D02*
X0009803Y0008258D01*
Y0008480D01*
X0009831Y0008536D01*
X0009998D01*
X0010025Y0008480D01*
Y0008258D01*
X0009998Y0008202D01*
X0009831D01*
X0009615Y0008536D02*
Y0008425D01*
X0009504Y0008202D01*
X0009393Y0008425D01*
Y0008536D01*
X0009122Y0008369D02*
X0009205Y0008202D01*
X0008983Y0008369D02*
X0009150D01*
X0009205Y0008425D01*
Y0008480D01*
X0009150Y0008536D01*
X0008983D01*
Y0008202D01*
X0008740Y0008369D02*
X0008573D01*
X0008795Y0008202D02*
X0008573D01*
Y0008536D01*
X0008795D01*
X0008385Y0008480D02*
X0008358Y0008536D01*
X0008191D01*
X0008163Y0008480D01*
Y0008425D01*
X0008191Y0008369D01*
X0008358D01*
X0008385Y0008314D01*
Y0008258D01*
X0008358Y0008202D01*
X0008191D01*
X0008163Y0008258D01*
X0008730Y0020878D02*
X0008785Y0020989D01*
Y0021100D01*
X0008730Y0021211D01*
X0008487Y0020878D02*
Y0021211D01*
X0008431Y0021156D01*
X0008375Y0021044D01*
X0008320Y0021156D01*
X0008264Y0021211D01*
Y0020878D01*
X0007882D02*
X0007854Y0020933D01*
Y0021156D01*
X0007882Y0021211D01*
X0008049D01*
X0008077Y0021156D01*
Y0020933D01*
X0008049Y0020878D01*
X0007882D01*
X0007555D02*
Y0021211D01*
X0007667D02*
X0007444D01*
X0007145Y0020878D02*
Y0021211D01*
X0007257D02*
X0007034D01*
X0006652Y0020878D02*
X0006624Y0020933D01*
Y0021156D01*
X0006652Y0021211D01*
X0006819D01*
X0006847Y0021156D01*
Y0020933D01*
X0006819Y0020878D01*
X0006652D01*
X0006242D02*
Y0021211D01*
X0006214Y0020878D02*
X0006381D01*
X0006437Y0020933D01*
Y0020989D01*
X0006409Y0021044D01*
X0006242D02*
X0006409D01*
X0006437Y0021100D01*
Y0021156D01*
X0006381Y0021211D01*
X0006214D01*
X0006027Y0020878D02*
X0005971Y0020989D01*
Y0021100D01*
X0006027Y0021211D01*
X0005561Y0020878D02*
Y0021044D01*
X0005672Y0021211D02*
X0005589Y0021044D01*
X0005533D01*
X0005450Y0021211D01*
X0005068Y0020878D02*
Y0021211D01*
X0005040Y0020878D02*
X0005207D01*
X0005262Y0020989D01*
Y0021100D01*
X0005207Y0021211D01*
X0005040D01*
X0004658Y0020878D02*
X0004630Y0020933D01*
Y0021156D01*
X0004658Y0021211D01*
X0004824D01*
X0004852Y0021156D01*
Y0020933D01*
X0004824Y0020878D01*
X0004658D01*
X0004248D02*
Y0021211D01*
X0004220Y0020878D02*
X0004387D01*
X0004442Y0020933D01*
Y0020989D01*
X0004414Y0021044D01*
X0004248D02*
X0004414D01*
X0004442Y0021100D01*
Y0021156D01*
X0004387Y0021211D01*
X0004220D01*
X0002907Y0020878D02*
X0002962Y0020989D01*
Y0021100D01*
X0002907Y0021211D01*
X0002441Y0021044D02*
X0002608D01*
X0002663Y0021100D01*
Y0021156D01*
X0002608Y0021211D01*
X0002441D01*
Y0020878D01*
X0002059D02*
X0002031Y0020933D01*
Y0021156D01*
X0002059Y0021211D01*
X0002226D01*
X0002253Y0021156D01*
Y0020933D01*
X0002226Y0020878D01*
X0002059D01*
X0001732D02*
Y0021211D01*
X0001843D02*
X0001621D01*
X0001433Y0020878D02*
X0001378Y0020989D01*
Y0021100D01*
X0001433Y0021211D01*
X0001079Y0020878D02*
X0000912Y0021044D01*
X0001079Y0021211D01*
X0000857D02*
Y0020878D01*
X0000669Y0020933D02*
X0000641Y0020878D01*
X0000474D01*
X0000447Y0020933D01*
Y0021156D01*
X0000474Y0021211D01*
X0000641D01*
X0000669Y0021156D01*
X0000203Y0021044D02*
X0000037D01*
X0000259Y0020878D02*
X0000037D01*
Y0021211D01*
X0000259D01*
X-0000151D02*
Y0020878D01*
X-0000207Y0020933D01*
X-0000318Y0021156D01*
X-0000373Y0021211D01*
Y0020878D01*
X0008053Y0004005D02*
X0008137Y0003839D01*
X0007914Y0004005D02*
X0008081D01*
X0008137Y0004061D01*
Y0004117D01*
X0008081Y0004172D01*
X0007914D01*
Y0003839D01*
X0007532D02*
X0007504Y0003894D01*
Y0004117D01*
X0007532Y0004172D01*
X0007699D01*
X0007727Y0004117D01*
Y0003894D01*
X0007699Y0003839D01*
X0007532D01*
X0007205D02*
Y0004172D01*
X0007317D02*
X0007094D01*
X0006907Y0003950D02*
X0006684D01*
X0006907Y0003839D02*
Y0004005D01*
X0006823Y0004172D01*
X0006768D01*
X0006684Y0004005D01*
Y0003839D01*
X0006497Y0003894D02*
X0006469Y0003839D01*
X0006302D01*
X0006274Y0003894D01*
Y0004117D01*
X0006302Y0004172D01*
X0006469D01*
X0006497Y0004117D01*
X0006087Y0003839D02*
X0005975D01*
X0006031D02*
Y0004172D01*
X0006087D02*
X0005975D01*
X0005732Y0003839D02*
X0005538D01*
Y0004172D01*
X0005128Y0004005D02*
X0005294D01*
X0005350Y0004061D01*
Y0004117D01*
X0005294Y0004172D01*
X0005128D01*
Y0003839D01*
X0004884Y0004005D02*
X0004718D01*
X0004940Y0003839D02*
X0004718D01*
Y0004172D01*
X0004940D01*
X0004447Y0004005D02*
X0004530Y0003839D01*
X0004308Y0004005D02*
X0004474D01*
X0004530Y0004061D01*
Y0004117D01*
X0004474Y0004172D01*
X0004308D01*
Y0003839D01*
X0003474D02*
Y0004172D01*
X0003585D02*
X0003363D01*
X0003092Y0004005D02*
X0003175Y0003839D01*
X0002953Y0004005D02*
X0003119D01*
X0003175Y0004061D01*
Y0004117D01*
X0003119Y0004172D01*
X0002953D01*
Y0003839D01*
X0002570D02*
X0002543Y0003894D01*
Y0004117D01*
X0002570Y0004172D01*
X0002737D01*
X0002765Y0004117D01*
Y0003894D01*
X0002737Y0003839D01*
X0002570D01*
X0002133Y0004005D02*
X0002299D01*
X0002355Y0004061D01*
Y0004117D01*
X0002299Y0004172D01*
X0002133D01*
Y0003839D01*
X0001299D02*
Y0004172D01*
X0001410D02*
X0001188D01*
X0000805Y0003839D02*
X0000778Y0003894D01*
Y0004117D01*
X0000805Y0004172D01*
X0000972D01*
X0001000Y0004117D01*
Y0003894D01*
X0000972Y0003839D01*
X0000805D01*
X0000395D02*
Y0004172D01*
X0000368Y0003839D02*
X0000534D01*
X0000590Y0003894D01*
Y0003950D01*
X0000562Y0004005D01*
X0000395D02*
X0000562D01*
X0000590Y0004061D01*
Y0004117D01*
X0000534Y0004172D01*
X0000368D01*
X-0000014Y0003839D02*
X-0000042Y0003894D01*
Y0004117D01*
X-0000014Y0004172D01*
X0000152D01*
X0000180Y0004117D01*
Y0003894D01*
X0000152Y0003839D01*
X-0000014D01*
X-0000341Y0004005D02*
X-0000230D01*
Y0003894D01*
X-0000258Y0003839D01*
X-0000424D01*
X-0000452Y0003894D01*
Y0004117D01*
X-0000424Y0004172D01*
X-0000258D01*
X-0000230Y0004117D01*
X-0000640Y0003950D02*
X-0000862D01*
X-0000640Y0003839D02*
Y0004005D01*
X-0000723Y0004172D01*
X-0000779D01*
X-0000862Y0004005D01*
Y0003839D01*
X-0001133Y0004005D02*
X-0001050Y0003839D01*
X-0001272Y0004005D02*
X-0001106D01*
X-0001050Y0004061D01*
Y0004117D01*
X-0001106Y0004172D01*
X-0001272D01*
Y0003839D01*
X0010735Y0011429D02*
X0010513D01*
X0008886Y0003882D02*
X0008774D01*
X0008830D02*
Y0004216D01*
X0008774Y0004160D01*
X0005552Y0003472D02*
Y0003139D01*
X0005496Y0003194D01*
X0005385Y0003417D01*
X0005329Y0003472D01*
Y0003139D01*
X0005142Y0003250D02*
X0004919D01*
X0005142Y0003139D02*
Y0003305D01*
X0005058Y0003472D01*
X0005003D01*
X0004919Y0003305D01*
Y0003139D01*
X0004732D02*
Y0003472D01*
X0004676Y0003417D01*
X0004620Y0003305D01*
X0004565Y0003417D01*
X0004509Y0003472D01*
Y0003139D01*
X0004127D02*
Y0003472D01*
X0004099Y0003139D02*
X0004266D01*
X0004322Y0003250D01*
Y0003361D01*
X0004266Y0003472D01*
X0004099D01*
X0003856Y0003305D02*
X0003689D01*
X0003912Y0003139D02*
X0003689D01*
Y0003472D01*
X0003912D01*
X0003502Y0003139D02*
X0003390D01*
X0003446D02*
Y0003472D01*
X0003502D02*
X0003390D01*
X0003064Y0003305D02*
X0003147Y0003139D01*
X0002925Y0003305D02*
X0003092D01*
X0003147Y0003361D01*
Y0003417D01*
X0003092Y0003472D01*
X0002925D01*
Y0003139D01*
X0002682Y0003305D02*
X0002515D01*
Y0003139D02*
Y0003472D01*
X0002737D01*
X0001792D02*
Y0003139D01*
X0001737Y0003194D01*
X0001625Y0003417D01*
X0001570Y0003472D01*
Y0003139D01*
X0001382Y0003250D02*
X0001160D01*
X0001382Y0003139D02*
Y0003305D01*
X0001299Y0003472D01*
X0001243D01*
X0001160Y0003305D01*
Y0003139D01*
X0000972Y0003305D02*
X0000750D01*
X0000972Y0003139D02*
Y0003472D01*
X0000750Y0003139D02*
Y0003472D01*
X0000451Y0003139D02*
Y0003472D01*
X0000562D02*
X0000340D01*
X0000152Y0003250D02*
X-0000070D01*
X0000152Y0003139D02*
Y0003305D01*
X0000069Y0003472D01*
X0000013D01*
X-0000070Y0003305D01*
Y0003139D01*
X-0000258Y0003472D02*
Y0003139D01*
X-0000313Y0003194D01*
X-0000424Y0003417D01*
X-0000480Y0003472D01*
Y0003139D01*
X-0000862D02*
X-0000890Y0003194D01*
Y0003417D01*
X-0000862Y0003472D01*
X-0000696D01*
X-0000668Y0003417D01*
Y0003194D01*
X-0000696Y0003139D01*
X-0000862D01*
X-0001272Y0003250D02*
Y0003194D01*
X-0001244Y0003139D01*
X-0001133D01*
X-0001106Y0003194D01*
Y0003472D01*
X-0001078D02*
X-0001189D01*
X0006513Y0013249D02*
X0006541Y0013305D01*
Y0013360D01*
X0006513Y0013416D01*
X0006347D01*
X0006319Y0013360D01*
Y0013305D01*
X0006347Y0013249D01*
X0006513D01*
X0006541Y0013194D01*
Y0013138D01*
X0006513Y0013083D01*
X0006347D01*
X0006319Y0013138D01*
Y0013194D01*
X0006347Y0013249D01*
X0003941Y0010493D02*
X0003719D01*
X0003941Y0010715D01*
Y0010770D01*
X0003913Y0010826D01*
X0003747D01*
X0003719Y0010770D01*
X0009563Y0009459D02*
X0009397D01*
X0009369Y0009515D01*
Y0009570D01*
X0009397Y0009626D01*
X0009563D01*
X0009591Y0009570D01*
Y0009515D01*
X0009480Y0009292D01*
X0011314Y0019494D02*
X0011287Y0019439D01*
X0011120D01*
X0011092Y0019494D01*
Y0019717D01*
X0011120Y0019772D01*
X0011287D01*
X0011314Y0019717D01*
X0010904Y0019439D02*
X0010682D01*
X0010904Y0019661D01*
Y0019717D01*
X0010877Y0019772D01*
X0010710D01*
X0010682Y0019717D01*
X0010494Y0019439D02*
X0010383D01*
X0010439D02*
Y0019772D01*
X0010494D02*
X0010383D01*
X0003886Y0009292D02*
X0003774D01*
X0003830D02*
Y0009626D01*
X0003774Y0009570D01*
X0006374Y0011882D02*
X0006541Y0012216D01*
X0006319D01*
X0007886Y0006482D02*
X0007774D01*
X0007830D02*
Y0006816D01*
X0007774Y0006760D01*
X0008941Y0004883D02*
X0008719D01*
X0008941Y0005105D01*
Y0005160D01*
X0008913Y0005216D01*
X0008747D01*
X0008719Y0005160D01*
X0011474Y0012012D02*
X0011641Y0012346D01*
X0011419D01*
X0001886Y0017382D02*
X0001774D01*
X0001830D02*
Y0017716D01*
X0001774Y0017660D01*
X0003200Y0013955D02*
X0003172Y0013899D01*
X0003061Y0013788D01*
X0003033Y0013732D01*
X0003200D02*
X0003172Y0013788D01*
X0003061Y0013899D01*
X0003033Y0013955D01*
X0002651Y0013732D02*
Y0014066D01*
X0002623Y0013732D02*
X0002790D01*
X0002845Y0013788D01*
Y0013844D01*
X0002818Y0013899D01*
X0002651D02*
X0002818D01*
X0002845Y0013955D01*
Y0014010D01*
X0002790Y0014066D01*
X0002623D01*
X0002435Y0013788D02*
X0002408Y0013732D01*
X0002241D01*
X0002213Y0013788D01*
Y0014010D01*
X0002241Y0014066D01*
X0002408D01*
X0002435Y0014010D01*
X0011319Y0003938D02*
X0011374Y0003882D01*
X0011486D01*
X0011541Y0003938D01*
Y0003994D01*
X0011430Y0004105D01*
X0011541Y0004216D01*
X0011319D01*
X0009909Y0013818D02*
X0009881Y0013762D01*
X0009715D01*
X0009687Y0013818D01*
Y0014040D01*
X0009715Y0014096D01*
X0009881D01*
X0009909Y0014040D01*
X0009499Y0013818D02*
X0009471Y0013762D01*
X0009305D01*
X0009277Y0013818D01*
Y0014040D01*
X0009305Y0014096D01*
X0009471D01*
X0009499Y0014040D01*
X0009089Y0014096D02*
Y0013985D01*
X0008978Y0013762D01*
X0008867Y0013985D01*
Y0014096D01*
X0007922Y0013818D02*
X0007978Y0013762D01*
X0008089D01*
X0008144Y0013818D01*
Y0013874D01*
X0008033Y0013985D01*
X0008144Y0014096D01*
X0007922D01*
X0007679Y0013762D02*
X0007734D01*
Y0013818D01*
X0007679D01*
Y0013762D01*
X0007213Y0013818D02*
X0007269Y0013762D01*
X0007380D01*
X0007435Y0013818D01*
Y0013874D01*
X0007324Y0013985D01*
X0007435Y0014096D01*
X0007213D01*
X0001941Y0018583D02*
X0001719D01*
X0001941Y0018805D01*
Y0018860D01*
X0001913Y0018916D01*
X0001747D01*
X0001719Y0018860D01*
X0011690Y0017482D02*
X0011857Y0017816D01*
X0011634D01*
X0011447Y0017482D02*
X0011335D01*
X0011391D02*
Y0017816D01*
X0011335Y0017760D01*
X0008346Y0016589D02*
X0008458D01*
Y0016478D01*
X0008430Y0016422D01*
X0008263D01*
X0008235Y0016478D01*
Y0016700D01*
X0008263Y0016756D01*
X0008430D01*
X0008458Y0016700D01*
X0007853Y0016422D02*
X0007825Y0016478D01*
Y0016700D01*
X0007853Y0016756D01*
X0008020D01*
X0008048Y0016700D01*
Y0016478D01*
X0008020Y0016422D01*
X0007853D01*
X0007638D02*
X0007443D01*
Y0016756D01*
X0007255Y0016534D02*
X0007033D01*
X0007255Y0016422D02*
Y0016589D01*
X0007172Y0016756D01*
X0007117D01*
X0007033Y0016589D01*
Y0016422D01*
X0006845Y0016756D02*
Y0016422D01*
X0006790Y0016478D01*
X0006679Y0016700D01*
X0006623Y0016756D01*
Y0016422D01*
X0006435Y0016534D02*
X0006213D01*
X0006435Y0016422D02*
Y0016589D01*
X0006352Y0016756D01*
X0006297D01*
X0006213Y0016589D01*
Y0016422D01*
X0008320Y0019766D02*
Y0019432D01*
X0008264Y0019488D01*
X0008153Y0019710D01*
X0008098Y0019766D01*
Y0019432D01*
X0007910D02*
X0007799D01*
X0007854D02*
Y0019766D01*
X0007910D02*
X0007799D01*
X0007555Y0019544D02*
X0007333D01*
X0007555Y0019432D02*
Y0019599D01*
X0007472Y0019766D01*
X0007417D01*
X0007333Y0019599D01*
Y0019432D01*
X0007062Y0019599D02*
X0007145Y0019432D01*
X0006923Y0019599D02*
X0007090D01*
X0007145Y0019655D01*
Y0019710D01*
X0007090Y0019766D01*
X0006923D01*
Y0019432D01*
X0006541D02*
Y0019766D01*
X0006513Y0019432D02*
X0006680D01*
X0006735Y0019488D01*
Y0019544D01*
X0006708Y0019599D01*
X0006541D02*
X0006708D01*
X0006735Y0019655D01*
Y0019710D01*
X0006680Y0019766D01*
X0006513D01*
X0010624Y0014040D02*
Y0013818D01*
X0010735Y0013929D02*
X0010513D01*
X0011541Y0004994D02*
X0011319D01*
X0011430Y0005216D01*
X0011486D01*
Y0004883D01*
X0004075Y0016710D02*
X0004048Y0016766D01*
X0003881D01*
X0003853Y0016710D01*
Y0016655D01*
X0003881Y0016599D01*
X0004048D01*
X0004075Y0016544D01*
Y0016488D01*
X0004048Y0016432D01*
X0003881D01*
X0003853Y0016488D01*
X0003554Y0016432D02*
Y0016766D01*
X0003665D02*
X0003443D01*
X0003172Y0016599D02*
X0003255Y0016432D01*
X0003033Y0016599D02*
X0003200D01*
X0003255Y0016655D01*
Y0016710D01*
X0003200Y0016766D01*
X0003033D01*
Y0016432D01*
X0002845Y0016544D02*
X0002623D01*
X0002845Y0016432D02*
Y0016599D01*
X0002762Y0016766D01*
X0002707D01*
X0002623Y0016599D01*
Y0016432D01*
X0002435Y0016766D02*
Y0016488D01*
X0002408Y0016432D01*
X0002241D01*
X0002213Y0016488D01*
Y0016766D01*
X0005319Y0014638D02*
X0005347Y0014582D01*
X0005513D01*
X0005541Y0014638D01*
Y0014749D01*
X0005486Y0014805D01*
X0005319D01*
Y0014916D01*
X0005541D01*
X0006986Y0011912D02*
X0006874D01*
X0006930D02*
Y0012246D01*
X0006874Y0012190D01*
X0009130Y0005550D02*
X0011130D01*
Y0003550D01*
X0009130D01*
Y0005550D01*
X0006130Y0016340D02*
X0011130D01*
Y0014340D01*
X0006130D01*
Y0016340D01*
X0008130Y0008120D02*
X0011130D01*
Y0006120D01*
X0008130D01*
Y0008120D01*
X0007130Y0013680D02*
X0011130D01*
Y0011680D01*
X0007130D01*
Y0013680D01*
X0002130Y0019150D02*
X0011130D01*
Y0017150D01*
X0002130D01*
Y0019150D01*
Y0013650D02*
X0006130D01*
Y0011650D01*
X0002130D01*
Y0013650D01*
Y0016350D02*
X0005130D01*
Y0014350D01*
X0002130D01*
Y0016350D01*
X0004130Y0011060D02*
X0009130D01*
Y0009060D01*
X0004130D01*
Y0011060D01*
M02*
