*
G04 Mass Parameters ***
*
G04 Image ***
*
%INC:\PROJECTS\RAGOBOTS_HW\ROBOT\HW\EXPANSION\PORTEXP\DESIGN\PORTEXP.BOT*%
%ICAS*%
%MOIN*%
%IPPOS*%
%ASAXBY*%
G74*%FSLAN2X34Y34*%
*
G04 Aperture Definitions ***
*
%ADD10R,0.0380X0.0320*%
%ADD11C,0.0580*%
%ADD12R,0.0580X0.0580*%
%ADD13C,0.1650*%
%ADD14R,0.0118X0.0512*%
%ADD15R,0.0708X0.0866*%
%ADD16C,0.1450*%
%ADD17C,0.0570*%
%ADD18R,0.0500X0.0500*%
%ADD19C,0.0650*%
%ADD20C,0.0550*%
%ADD21C,0.0250*%
%ADD22C,0.0100*%
%ADD23C,0.0250*%
%ADD24C,0.0250*%
%ADD25R,0.0118X0.0512*%
%ADD26R,0.0708X0.0866*%
%ADD27R,0.0380X0.0320*%
%ADD28C,0.0580*%
%ADD29R,0.0580X0.0580*%
%ADD30C,0.1650*%
%ADD31C,0.1450*%
%ADD32C,0.0570*%
%ADD33C,0.0650*%
%ADD34C,0.0550*%
%ADD35O,0.1000X0.0250*%
%ADD36R,0.1000X0.0250*%
*
G04 Plot Data ***
*
G54D22*
G01X0001511Y0021700D02*
Y0021304D01*
X0001507Y0021300D01*
Y0013687D01*
X0001420Y0013600D01*
Y0013340D01*
X0009040Y0002480D02*
X0008475D01*
X0009040D01*
X-0002500Y0020770D02*
X-0001160D01*
Y0020720D01*
X-0000195D01*
X-0002500Y0020770D02*
X-0001160D01*
Y0020720D01*
X-0000195D01*
X0008475Y0002480D02*
X0009040D01*
X0008630Y0012180D02*
Y0010560D01*
X0010630Y0012180D02*
X0010220Y0012590D01*
Y0019440D01*
X0010600Y0019820D01*
Y0020770D01*
X0000260Y0013820D02*
X-0001160Y0015240D01*
Y0020720D01*
Y0020770D01*
X-0002500D01*
X0008630Y0010560D02*
X0009040Y0010150D01*
Y0007240D01*
X0008960Y0007160D01*
Y0007040D01*
X0006650D01*
X0008475Y0002480D02*
X0009040D01*
Y0006960D01*
X0008960Y0007040D01*
X0006650D01*
X0008475Y0002480D02*
X0009040D01*
X0001270Y0006030D02*
Y0005675D01*
X0003030Y0006040D02*
X0002305D01*
X0001270Y0005675D02*
Y0006030D01*
X-0002500Y0020770D02*
X-0001160D01*
Y0020720D01*
X-0000195D01*
X0007023Y0021700D02*
Y0021378D01*
X0006950Y0021305D01*
Y0021080D01*
X0008030Y0020920D02*
X0009020D01*
X0009040D01*
Y0021760D01*
X0008720Y0022080D01*
X0006906D01*
X0006826Y0022000D01*
Y0021700D01*
X0008030Y0020920D02*
X0009020D01*
X0009040D01*
Y0013590D01*
X0008935Y0013485D01*
Y0013180D01*
X0008630D01*
X0005630Y0010560D02*
X0006050Y0010140D01*
X0007080D01*
Y0007963D01*
X0006236Y0021700D02*
Y0022320D01*
X0006240Y0022324D01*
Y0022545D01*
X0007480Y0021440D02*
Y0019540D01*
X0007220Y0019280D01*
Y0014460D01*
X0007540Y0014140D01*
X0007825D01*
X0001270Y0006670D02*
Y0007420D01*
X0003610Y0006540D02*
X0003740D01*
Y0006840D01*
X0003540Y0007040D01*
X0003030D01*
X0008040Y0011150D02*
Y0010360D01*
X0007820Y0010140D01*
X0007080D01*
X0006050D01*
X0005630Y0010560D01*
X0008040Y0011150D02*
Y0012280D01*
X0008360Y0012600D01*
X0008870D01*
X0009040Y0012770D01*
X0008935Y0012875D01*
Y0013180D01*
X0008630D01*
X0002005Y0009560D02*
Y0009785D01*
X0002000Y0009790D01*
Y0010780D01*
X0001680Y0011100D01*
Y0021232D01*
X0001708Y0021260D01*
Y0021700D01*
X0003215Y0006540D02*
X0003030D01*
X0003610D02*
X0003215D01*
X0001270Y0006670D02*
Y0006590D01*
X0008210Y0013180D02*
X0007630D01*
X0008630D02*
X0008210D01*
X-0001600Y0021790D02*
X-0001310Y0022080D01*
X0001038D01*
X0001118Y0022000D01*
Y0021700D01*
X0003610Y0006540D02*
X0003740D01*
X0003980D01*
X0001314Y0021700D02*
Y0020394D01*
X0001260Y0020340D01*
Y0020095D01*
X0002643Y0020440D02*
X0003480Y0021277D01*
Y0021700D01*
X0006629D02*
Y0020150D01*
X0006940Y0019840D01*
X0005842Y0021700D02*
Y0022060D01*
X0005840Y0022062D01*
Y0022285D01*
X0002102Y0021700D02*
Y0022340D01*
X0004995Y0003800D02*
X0005060Y0003865D01*
Y0008080D01*
X0003940Y0009200D01*
Y0010700D01*
X0004240Y0011000D01*
X0004740D01*
X0005060Y0011320D01*
Y0013340D01*
X0004860Y0013540D01*
Y0013965D01*
X0005480Y0014585D01*
X0005645Y0021700D02*
Y0019645D01*
X0005685Y0019605D01*
Y0019380D01*
X0003940Y0020985D02*
Y0020320D01*
X0003620Y0020000D01*
X0002800D01*
X0002580Y0019780D01*
Y0019220D01*
X0002740Y0019060D01*
X0002820D01*
X0003040Y0018840D01*
Y0016260D01*
X0002630Y0015850D01*
X0006433Y0021700D02*
Y0019887D01*
X0007040Y0019280D01*
Y0014180D01*
X0006720Y0013860D01*
X0006650Y0004040D02*
X0007300D01*
X0007460Y0003880D01*
Y0003360D01*
X0007780Y0003040D01*
X0008475D01*
Y0004700D02*
X0008100D01*
X0007760Y0005040D01*
X0006650D01*
X0001260Y0019760D02*
X0001040D01*
X0000921Y0019879D01*
Y0021700D01*
X0004180Y0019640D02*
Y0020580D01*
X0004200Y0020600D01*
Y0021160D01*
X0004070Y0021289D01*
Y0021700D01*
X0007810Y0006340D02*
X0007500D01*
X0007300Y0006540D01*
X0006650D01*
X0004241Y0003540D02*
X0006650D01*
X0003620Y0022340D02*
X0003874Y0022086D01*
Y0021700D01*
X0001905D02*
Y0022000D01*
X0001825Y0022080D01*
X0001560D01*
X0001380Y0022260D01*
X-0003140D01*
X-0003660Y0021740D01*
Y0008500D01*
X0008475Y0004140D02*
X0008020D01*
X0007620Y0004540D01*
X0006650D01*
Y0005540D02*
X0007260D01*
X0007500Y0005780D01*
X0007810D01*
X0010630Y0005050D02*
X0010040Y0005640D01*
Y0017995D01*
X0009975Y0018060D01*
X0008465Y0014340D02*
X0008080Y0014725D01*
Y0020280D01*
X0007760Y0020600D01*
Y0021700D01*
X0007220D01*
X0004220Y0017307D02*
Y0011660D01*
X0000260D02*
X-0000960D01*
X-0001280Y0011340D01*
Y0005360D01*
X-0000960Y0005040D01*
X0003030D01*
X0004680Y0019135D02*
Y0020360D01*
X0004560Y0020480D01*
Y0021219D01*
X0004661Y0021320D01*
Y0021700D01*
X0004320Y0022325D02*
X0004267Y0022272D01*
Y0021700D01*
X0003677D02*
Y0020517D01*
X0003340Y0020180D01*
X0002540D01*
X0002220Y0019860D01*
Y0018430D01*
X0002285Y0018365D01*
Y0018140D01*
X0002380Y0022845D02*
Y0022161D01*
X0002299Y0022080D01*
Y0021700D01*
X0002496D02*
Y0021320D01*
X0001860Y0020684D01*
Y0013060D01*
X0002180Y0012740D01*
X0003040D01*
X0003630Y0012150D01*
X0005955Y0006040D02*
X0006650D01*
X0005260Y0023080D02*
Y0022100D01*
X0005251Y0022091D01*
Y0021700D01*
X0005055D02*
Y0019235D01*
X0005040Y0019220D01*
Y0014540D01*
X0004630Y0014130D01*
Y0013150D01*
Y0018650D02*
X0004220D01*
X0003550Y0019320D01*
X0002835D01*
X0003285Y0013560D02*
X0002360D01*
X0002040Y0013880D01*
Y0020520D01*
X0002220Y0020700D01*
X0002660D01*
X0002889Y0020929D01*
Y0021700D01*
X0003030Y0003540D02*
X0001640D01*
X0001320Y0003220D01*
Y0000600D01*
X0001640Y0000280D01*
X0003447D01*
X0003847Y0000680D01*
X0003020Y0022151D02*
X0003086Y0022085D01*
Y0021700D01*
X0004464D02*
Y0022080D01*
X0004852Y0022468D01*
X0005000D01*
X0006039Y0021700D02*
Y0021260D01*
X0005880Y0021101D01*
Y0019980D01*
X0006220Y0019640D01*
Y0010970D01*
X0006630Y0010560D01*
X0003030Y0005540D02*
X0002080D01*
X0001760Y0005860D01*
Y0009080D01*
X0000260Y0010580D01*
X0005580Y0016375D02*
Y0016550D01*
X0005630Y0016600D01*
Y0017650D01*
X0006650Y0003040D02*
X0004241D01*
X0002692Y0021700D02*
Y0022927D01*
X0002520Y0023100D01*
X0001880D01*
X0001300Y0022520D01*
X0003283Y0021700D02*
Y0022097D01*
X0003280Y0022100D01*
Y0022385D01*
X0003847Y0001467D02*
Y0004380D01*
X0003687Y0004540D01*
X0003030D01*
X0010630Y0015840D02*
X0011760Y0016970D01*
Y0021780D01*
X0011240Y0022300D01*
X0006581D01*
X0004808Y0020680D02*
Y0020905D01*
X0004858Y0020955D01*
Y0021700D01*
X0005448D02*
Y0021308D01*
X0005440Y0021300D01*
Y0019160D01*
X0005220Y0018940D01*
Y0014845D01*
X0005480Y0014585D01*
X0006870Y0014380D02*
X0006390D01*
X0006050Y0018070D02*
X0005390D01*
X0004050Y0017080D02*
X0003210D01*
X0006050Y0016450D02*
X0005813D01*
X0006050Y0015640D02*
X0005390D01*
X0005906Y0006280D02*
X0005230D01*
X0005362Y0010870D02*
X0004849D01*
X0008870Y0014290D02*
X0008705D01*
X0004730Y0010830D02*
Y0009970D01*
X0001590Y0007900D02*
X-0001110D01*
X0006051Y0006640D02*
X0005230D01*
X0002870Y0016330D02*
X0002774Y0016234D01*
X0002870Y0017240D02*
X0002220D01*
X0010210Y0017991D02*
Y0005710D01*
X0010040Y0004460D02*
X0009220D01*
Y0003640D01*
X0010040D02*
X0009220D01*
X0010040Y0004460D02*
Y0003640D01*
X0004010Y0011085D02*
Y0011010D01*
X0004050Y0017130D02*
Y0011836D01*
Y0014110D02*
X0002210D01*
X0002970Y0012570D02*
X0002180D01*
X0002220Y0017904D02*
Y0017240D01*
Y0012560D02*
Y0011740D01*
X0003040D02*
X0002220D01*
X0002980Y0012560D02*
X0002220D01*
X0008870Y0014200D02*
X0008666D01*
X0008240Y0014243D02*
Y0013423D01*
X0006870Y0014430D02*
X0006390D01*
X0001590Y0006910D02*
X0001440D01*
X0000960Y0006870D02*
Y0006310D01*
X0001580D02*
X0000960D01*
X0001580Y0006870D02*
Y0006310D01*
X0007420Y0006660D02*
X0007500Y0006580D01*
X0008120Y0005500D02*
X0007500D01*
X0008120Y0006060D02*
Y0005500D01*
Y0006620D02*
X0007500D01*
X0001440Y0009160D02*
X0000480D01*
X0012100Y0004480D02*
X0008785D01*
X0008240Y0003860D02*
Y0003320D01*
X0008785Y0003860D02*
X0008165D01*
X0008785Y0004420D02*
Y0003860D01*
Y0004980D02*
X0008165D01*
X0007790Y0009182D02*
Y0006620D01*
X0007880Y0009235D02*
Y0006620D01*
X0008785Y0003320D02*
X0008165D01*
X0012100Y0005740D02*
X0010210D01*
X0008785Y0002760D02*
X0008165D01*
X0008785Y0003320D02*
Y0002760D01*
X0000230Y0021910D02*
Y0021380D01*
X0000751Y0021220D02*
X0000665D01*
X0007610Y0005500D02*
Y0005210D01*
X-0001300Y0021850D02*
Y0011560D01*
X0009680Y0003640D02*
Y-0000200D01*
X0000742Y0021910D02*
Y0021324D01*
X0002478Y0004210D02*
X-0004000D01*
X0007430Y0003150D02*
Y-0000200D01*
X0008060Y0005500D02*
Y0004980D01*
X0002412Y0004570D02*
X-0004000D01*
X0009770Y0003640D02*
Y-0000200D01*
X0000499Y0016180D02*
X0000444D01*
X0008510Y0006210D02*
Y0004980D01*
X0007430Y0005470D02*
Y0005210D01*
X0001310Y0018325D02*
Y0015085D01*
X0000500Y0015849D02*
Y0013066D01*
X0012100Y0004570D02*
X0008785D01*
X0004890Y0005560D02*
X0003649D01*
X0009350Y0004750D02*
X0008785D01*
X-0001120Y0023500D02*
Y0022430D01*
X0001590Y0008620D02*
X-0001110D01*
X0000320Y0021910D02*
Y0021449D01*
X0009680Y0004643D02*
Y0004460D01*
X0001590Y0008440D02*
X-0001110D01*
X0006109Y0003220D02*
X0004407D01*
X0001678Y0001420D02*
X0001490D01*
X0009220Y0004210D02*
X0008785D01*
X0001594Y0001330D02*
X0001490D01*
X0007250Y0005943D02*
Y0005770D01*
X0001400Y0013096D02*
Y0012789D01*
X-0003520Y0022120D02*
X-0004000D01*
X-0000670Y0023500D02*
Y0022430D01*
X0007070Y0019632D02*
Y0019490D01*
X0010580Y0022130D02*
Y0022044D01*
X0011590Y0018250D02*
X0010720D01*
X0005717Y0006100D02*
X0005230D01*
X0005810Y0005842D02*
Y0003710D01*
X0007540Y0003040D02*
X0007270D01*
X0003830Y0000285D02*
Y-0000200D01*
X0005540Y0009160D02*
Y0003710D01*
X0002390Y0005370D02*
Y0005210D01*
X0005630Y0009150D02*
Y0003710D01*
X0012100Y0022750D02*
X0008442D01*
X0002030Y0005377D02*
Y0005210D01*
X0003677Y0002140D02*
X0001490D01*
X0003677Y0001960D02*
X0001490D01*
X0012100Y0022840D02*
X0008442D01*
X0003677Y0002050D02*
X0001490D01*
X0003677Y0002230D02*
X0001490D01*
X0012100Y0023380D02*
X0008442D01*
X0012100Y0013840D02*
X0011384D01*
X0012100Y0023500D02*
X0008442D01*
X-0000490Y0005917D02*
Y0005210D01*
X0001040Y0006310D02*
Y0005210D01*
X0000950Y0009650D02*
Y0005210D01*
X0007310Y0020770D02*
X0006799D01*
X0001130Y0006310D02*
Y0005210D01*
X0008690Y0023500D02*
Y0022470D01*
X0007305Y0010310D02*
X0007080D01*
X0004910Y0009150D02*
Y0008470D01*
X0009870Y0008710D02*
X0007250D01*
X0008453Y0007990D02*
X0007323D01*
X0009870Y0016990D02*
X0009210D01*
X0011180Y0022120D02*
X0008920D01*
X0007005Y0021910D02*
Y0021324D01*
X0007272Y0021310D02*
X0006799D01*
X-0004000Y0023500D02*
Y-0000200D01*
X0012100D02*
X-0004000D01*
X0012100Y0023500D02*
Y-0000200D01*
X0004100Y0000376D02*
Y-0000200D01*
X0010130Y0005310D02*
Y-0000200D01*
X0012020Y0023500D02*
Y-0000200D01*
X0012100Y0016990D02*
X0011930D01*
X0011360Y0022420D02*
X0011878Y0021902D01*
X0011930Y0023500D02*
Y-0000200D01*
X0011750Y0016720D02*
Y-0000200D01*
X0011660Y0016630D02*
Y-0000200D01*
X0011570Y0013531D02*
Y-0000200D01*
X0011880Y0016850D02*
X0011014Y0015984D01*
X0010235Y0003940D02*
X0010040D01*
X0012100Y0005560D02*
X0010360D01*
X0011030Y0003960D02*
Y-0000200D01*
X0010940Y0003782D02*
Y-0000200D01*
X0012100Y0004660D02*
X0010756D01*
X0011120Y0013482D02*
Y-0000200D01*
X0010670Y0003642D02*
Y-0000200D01*
X0010580Y0003643D02*
Y-0000200D01*
X0011390Y0013361D02*
Y-0000200D01*
X0010310Y0006364D02*
Y0005610D01*
X0010490Y0003665D02*
Y-0000200D01*
X0010298Y0012940D02*
X0010210D01*
X0009220Y0003940D02*
X0008785D01*
X0010760Y0003661D02*
Y-0000200D01*
X0009950Y0003640D02*
Y-0000200D01*
X0009860Y0003640D02*
Y-0000200D01*
X0008960Y0006210D02*
Y-0000200D01*
X0010040Y0005400D02*
Y-0000200D01*
X0009590Y0003640D02*
Y-0000200D01*
X0009500Y0003640D02*
Y-0000200D01*
X0009230Y0012615D02*
Y0007710D01*
Y0003640D02*
Y-0000200D01*
X0010387Y0012850D02*
X0010210D01*
X0008240Y0007493D02*
Y0007030D01*
X0012100Y0002950D02*
X0008785D01*
X0008870Y0006210D02*
Y-0000200D01*
X0008690Y0002760D02*
Y-0000200D01*
X-0000301Y0022570D02*
X-0004000D01*
X0008780Y0006210D02*
Y-0000200D01*
X0009050Y0012525D02*
Y-0000200D01*
X0008420Y0002760D02*
Y-0000200D01*
X0008165Y0004420D02*
Y0004310D01*
X0008120Y0006060D02*
X0007500D01*
X0006710Y0002295D02*
Y-0000200D01*
X0007740Y0004660D02*
X0008090Y0004310D01*
X0008060Y0002870D02*
Y-0000200D01*
X0007700Y0009156D02*
Y0006620D01*
X0000410Y0006282D02*
Y0005210D01*
X0007610Y0009150D02*
Y0006620D01*
X0012100Y0003400D02*
X0007660D01*
X0006540Y0010960D02*
X0006470D01*
X0006100Y0010850D02*
X0006246Y0010704D01*
X0009387Y0005380D02*
X0007317D01*
X0002410Y0004030D02*
X-0004000D01*
X0001440Y0003580D02*
X-0004000D01*
X0001150Y0003130D02*
X-0004000D01*
X0002415Y0002590D02*
X0001490D01*
X0012100Y0002320D02*
X0007133D01*
X0012100Y0001600D02*
X0005007D01*
X0006089Y0005200D02*
X0005230D01*
X0002489Y0002860D02*
X0001490D01*
X0006080Y0000790D02*
Y-0000200D01*
X0012100Y0000340D02*
X0004836D01*
X0005900Y0000660D02*
Y-0000200D01*
X0004640Y0000285D02*
Y-0000200D01*
X0005720Y0000629D02*
Y-0000200D01*
X0005630Y0000642D02*
Y-0000200D01*
X-0000400Y0005901D02*
Y0005210D01*
X0005540Y0000675D02*
Y-0000200D01*
Y0009160D02*
X0005040D01*
X0000590Y0009265D02*
Y0005210D01*
X0012100Y0000610D02*
X0005023D01*
X0005000Y0000530D02*
Y-0000200D01*
X0007340Y0003240D02*
Y-0000200D01*
X0007790Y0002870D02*
Y-0000200D01*
X0004730Y0000297D02*
Y-0000200D01*
X0005090Y0002870D02*
Y-0000200D01*
X0006061Y0004660D02*
X0005230D01*
X0008220Y0006910D02*
X0005230D01*
X0002570Y0000110D02*
Y-0000200D01*
X0002480Y0000110D02*
Y-0000200D01*
X0002840Y0000110D02*
Y-0000200D01*
X0004010Y0006297D02*
Y0004429D01*
X0001340Y0000340D02*
X-0004000D01*
X0000751Y0021130D02*
X0000646D01*
X0001580Y0000121D02*
Y-0000200D01*
X0002750Y0002295D02*
Y0001712D01*
X0000950Y0004870D02*
Y-0000200D01*
X0002660Y0000110D02*
Y-0000200D01*
X0002210Y0004870D02*
Y0003710D01*
X0012100Y0000160D02*
X0003568D01*
X0002390Y0000110D02*
Y-0000200D01*
X0001337Y0017620D02*
X0000586D01*
X0002210Y0000110D02*
Y-0000200D01*
X0002220Y0012130D02*
X0001850D01*
X0003740Y0000300D02*
Y-0000200D01*
X0001850Y0000110D02*
Y-0000200D01*
X0001580Y0000838D02*
Y0000580D01*
X0001670Y0000110D02*
Y-0000200D01*
X0001400Y0000280D02*
Y-0000200D01*
X0008330Y0002760D02*
Y-0000200D01*
X0001590Y0007090D02*
X0001440D01*
X0000950Y0019129D02*
Y0012866D01*
X0002750Y0000110D02*
Y-0000200D01*
X0012100Y0000430D02*
X0004940D01*
X0000770Y0004870D02*
Y-0000200D01*
X0001220Y0000460D02*
Y-0000200D01*
X0000590Y0004870D02*
Y-0000200D01*
X0000500Y0004870D02*
Y-0000200D01*
X0000320Y0004870D02*
Y-0000200D01*
X0002478Y0005210D02*
X-0000890D01*
X0000050Y0015811D02*
Y0013086D01*
X-0001030Y0004885D02*
Y-0000200D01*
X-0003830Y0012220D02*
X-0004000D01*
X-0000400Y0015741D02*
Y0011830D01*
X-0000130Y0015752D02*
Y0012849D01*
X0000230Y0004870D02*
Y-0000200D01*
X-0000130Y0004870D02*
Y-0000200D01*
X-0001120Y0004960D02*
Y-0000200D01*
X-0000400Y0004870D02*
Y-0000200D01*
X-0000490Y0004870D02*
Y-0000200D01*
X-0001360Y0005200D02*
X-0004000D01*
X-0000670Y0004870D02*
Y-0000200D01*
X-0000940Y0004870D02*
Y-0000200D01*
X-0001390Y0021664D02*
Y0011470D01*
X-0001450Y0005650D02*
X-0004000D01*
X-0001480Y0021576D02*
Y-0000200D01*
X-0001570Y0021547D02*
Y-0000200D01*
X-0001660Y0021552D02*
Y-0000200D01*
X-0001840Y0021741D02*
Y-0000200D01*
X-0001930Y0022090D02*
Y-0000200D01*
X-0002020Y0022090D02*
Y-0000200D01*
X-0002110Y0022090D02*
Y-0000200D01*
X-0002200Y0022090D02*
Y-0000200D01*
X-0002290Y0022090D02*
Y-0000200D01*
X-0002380Y0022090D02*
Y-0000200D01*
X-0002470Y0022090D02*
Y-0000200D01*
X-0002560Y0022090D02*
Y-0000200D01*
X-0002650Y0022090D02*
Y-0000200D01*
X-0002740Y0022090D02*
Y-0000200D01*
X-0003460Y0021700D02*
Y0008641D01*
X-0002830Y0022090D02*
Y-0000200D01*
X-0003010Y0022090D02*
Y-0000200D01*
X-0003100Y0022060D02*
Y-0000200D01*
X-0003190Y0021970D02*
Y-0000200D01*
X-0001450Y0007630D02*
X-0004000D01*
X-0003370Y0021790D02*
Y-0000200D01*
X-0003460Y0008358D02*
Y-0000200D01*
X-0003550Y0008281D02*
Y-0000200D01*
X-0003640Y0008256D02*
Y-0000200D01*
X-0003820Y0008314D02*
Y-0000200D01*
X-0000301Y0023500D02*
Y0022430D01*
X-0000040Y0004870D02*
Y-0000200D01*
X-0000301Y0023500D02*
X-0004000D01*
X-0000301Y0023470D02*
X-0004000D01*
X-0000301Y0023380D02*
X-0004000D01*
X-0000301Y0023290D02*
X-0004000D01*
X-0000301Y0023200D02*
X-0004000D01*
X-0000301Y0023110D02*
X-0004000D01*
X-0000301Y0023020D02*
X-0004000D01*
X-0000301Y0022930D02*
X-0004000D01*
X-0000301Y0022840D02*
X-0004000D01*
X-0000301Y0022750D02*
X-0004000D01*
X0001170Y0000520D02*
X-0004000D01*
X0000496Y0022426D02*
X-0000301D01*
X-0002920Y0023500D02*
Y0022430D01*
X-0001390Y0005230D02*
Y-0000200D01*
X0007760Y0005210D02*
X0007201D01*
X0001150Y0002500D02*
X-0004000D01*
X0005495Y0000700D02*
X0005029D01*
X0005230Y0012060D02*
Y0011320D01*
X0006170Y0000971D02*
Y-0000200D01*
X0008780Y0023500D02*
Y0022470D01*
X-0003340Y0022300D02*
X-0004000D01*
X0000190Y0021310D02*
X-0000735D01*
X-0003830Y0021400D02*
X-0004000D01*
X-0003830Y0021310D02*
X-0004000D01*
X-0000139Y0009430D02*
X-0001110D01*
X0001850Y0012830D02*
Y0011170D01*
X-0003830Y0021130D02*
X-0004000D01*
X-0003830Y0020950D02*
X-0004000D01*
X-0003830Y0020680D02*
X-0004000D01*
X-0003830Y0020590D02*
X-0004000D01*
X-0003830Y0020500D02*
X-0004000D01*
X-0003830Y0020410D02*
X-0004000D01*
X-0003830Y0020320D02*
X-0004000D01*
X-0003830Y0020230D02*
X-0004000D01*
X-0003830Y0020140D02*
X-0004000D01*
X-0003830Y0020050D02*
X-0004000D01*
X0003470Y0000111D02*
Y-0000200D01*
X-0003430Y0022210D02*
X-0004000D01*
X-0003830Y0019690D02*
X-0004000D01*
X-0003830Y0019600D02*
X-0004000D01*
X0011210Y0016180D02*
Y0013811D01*
X0003470Y0014472D02*
Y0013721D01*
X-0000850Y0023500D02*
Y0022430D01*
X-0000040Y0018742D02*
Y0017384D01*
X-0003830Y0019240D02*
X-0004000D01*
X-0003830Y0019150D02*
X-0004000D01*
X0001337Y0018332D02*
Y0015077D01*
X-0003830Y0019060D02*
X-0004000D01*
X-0003830Y0018970D02*
X-0004000D01*
X-0003830Y0018790D02*
X-0004000D01*
X-0003830Y0019960D02*
X-0004000D01*
X-0003830Y0018610D02*
X-0004000D01*
X-0003830Y0018160D02*
X-0004000D01*
X-0003830Y0018070D02*
X-0004000D01*
X-0003830Y0017980D02*
X-0004000D01*
X0001670Y0010870D02*
Y0009410D01*
X0003770Y0010240D02*
X0002170D01*
X-0001120Y0016376D02*
Y0013590D01*
X-0003830Y0012580D02*
X-0004000D01*
X-0003830Y0015550D02*
X-0004000D01*
X-0003830Y0015460D02*
X-0004000D01*
X-0003830Y0017170D02*
X-0004000D01*
X-0003830Y0017080D02*
X-0004000D01*
X-0003830Y0016990D02*
X-0004000D01*
X-0003830Y0016900D02*
X-0004000D01*
X-0003830Y0016810D02*
X-0004000D01*
X-0003830Y0016720D02*
X-0004000D01*
X-0003830Y0016630D02*
X-0004000D01*
X-0003830Y0016540D02*
X-0004000D01*
X0008005Y0014560D02*
X0007929D01*
X0003380Y0014525D02*
Y0013786D01*
X-0003830Y0016450D02*
X-0004000D01*
X-0003830Y0016360D02*
X-0004000D01*
X-0003830Y0016270D02*
X-0004000D01*
X-0003830Y0016180D02*
X-0004000D01*
X-0003830Y0016090D02*
X-0004000D01*
X-0003830Y0013120D02*
X-0004000D01*
X-0003830Y0017530D02*
X-0004000D01*
X0001337Y0016630D02*
X0000543D01*
X-0003830Y0014110D02*
X-0004000D01*
X0007250Y0002443D02*
Y-0000200D01*
X0004050Y0016810D02*
X0003210D01*
X-0003830Y0012400D02*
X-0004000D01*
X-0003830Y0011680D02*
X-0004000D01*
X-0003830Y0015910D02*
X-0004000D01*
X-0003830Y0015820D02*
X-0004000D01*
X0001510Y0013112D02*
Y0011100D01*
X-0003830Y0015190D02*
X-0004000D01*
X-0003830Y0015100D02*
X-0004000D01*
X0004010Y0017496D02*
Y0017433D01*
X-0003830Y0014740D02*
X-0004000D01*
X-0003830Y0014650D02*
X-0004000D01*
X-0003830Y0014560D02*
X-0004000D01*
X-0003830Y0014470D02*
X-0004000D01*
X-0003830Y0014290D02*
X-0004000D01*
X-0003830Y0014200D02*
X-0004000D01*
X-0003830Y0017260D02*
X-0004000D01*
X0007500Y0005540D02*
Y0005500D01*
X0003040Y0012500D02*
X0003246Y0012294D01*
X-0003830Y0013660D02*
X-0004000D01*
X-0003830Y0013570D02*
X-0004000D01*
X-0003830Y0015280D02*
X-0004000D01*
X-0003830Y0014380D02*
X-0004000D01*
X0000050Y0012394D02*
Y0012006D01*
X-0001210Y0005050D02*
Y-0000200D01*
X-0003830Y0017350D02*
X-0004000D01*
X-0003830Y0013390D02*
X-0004000D01*
X-0003830Y0012940D02*
X-0004000D01*
X-0003830Y0012850D02*
X-0004000D01*
X-0001450Y0005740D02*
X-0004000D01*
X-0003830Y0012040D02*
X-0004000D01*
X-0003830Y0015640D02*
X-0004000D01*
X-0003830Y0012760D02*
X-0004000D01*
X-0003830Y0012670D02*
X-0004000D01*
X-0000760Y0004870D02*
Y-0000200D01*
X-0000108Y0011830D02*
X-0000695D01*
X-0003820Y0023500D02*
Y0021797D01*
X-0001120Y0011889D02*
Y0011740D01*
X-0000580Y0011907D02*
Y0011830D01*
X0001040Y0018457D02*
Y0014953D01*
X-0001000Y0010420D02*
X-0001110D01*
X-0003830Y0009250D02*
X-0004000D01*
X-0000130Y0011490D02*
Y0010689D01*
X-0003830Y0008710D02*
X-0004000D01*
X0006540Y0009160D02*
X0005720D01*
X-0000130Y0010471D02*
Y0009609D01*
X-0003830Y0011320D02*
X-0004000D01*
X-0003830Y0011230D02*
X-0004000D01*
X-0003830Y0011140D02*
X-0004000D01*
X-0003830Y0010960D02*
X-0004000D01*
X-0003830Y0010870D02*
X-0004000D01*
X-0001450Y0007540D02*
X-0004000D01*
X-0000580Y0004870D02*
Y-0000200D01*
X-0003830Y0008890D02*
X-0004000D01*
X-0003830Y0010420D02*
X-0004000D01*
X-0003830Y0010690D02*
X-0004000D01*
X0004460Y0000326D02*
Y-0000200D01*
X-0001400Y0005240D02*
X-0001082Y0004922D01*
X-0003830Y0010600D02*
X-0004000D01*
X-0003830Y0010510D02*
X-0004000D01*
X-0003830Y0010060D02*
X-0004000D01*
X-0003830Y0009880D02*
X-0004000D01*
X-0003610Y0022030D02*
X-0004000D01*
X-0003700Y0021940D02*
X-0004000D01*
X-0003830Y0009610D02*
X-0004000D01*
X0000630Y0009970D02*
X-0000461D01*
X-0003830Y0011500D02*
X-0004000D01*
X-0001210Y0021910D02*
Y0013484D01*
X-0003830Y0011410D02*
X-0004000D01*
X-0003830Y0021740D02*
Y0008676D01*
X-0001450Y0008710D02*
X-0003490D01*
X-0003830Y0009070D02*
X-0004000D01*
X-0003874Y0008620D02*
X-0004000D01*
X-0003830Y0011590D02*
X-0004000D01*
X-0003897Y0008440D02*
X-0004000D01*
X0009401Y0006280D02*
X0009040D01*
X-0003709Y0008260D02*
X-0004000D01*
X-0001450Y0008170D02*
X-0004000D01*
X-0001450Y0008080D02*
X-0004000D01*
X-0001450Y0007990D02*
X-0004000D01*
X-0001450Y0007900D02*
X-0004000D01*
X-0001435Y0005290D02*
X-0004000D01*
X-0003830Y0012130D02*
X-0004000D01*
X-0003830Y0008800D02*
X-0004000D01*
X-0001450Y0007450D02*
X-0004000D01*
X-0001450Y0007360D02*
X-0004000D01*
X0008240Y0006210D02*
Y0004980D01*
X-0001450Y0007270D02*
X-0004000D01*
X0003110Y0000110D02*
Y-0000200D01*
X-0001450Y0007090D02*
X-0004000D01*
X-0001450Y0007000D02*
X-0004000D01*
X0009221Y0005020D02*
X0008020D01*
X-0001450Y0006910D02*
X-0004000D01*
X-0001450Y0006820D02*
X-0004000D01*
X-0001450Y0006730D02*
X-0004000D01*
X-0001450Y0006550D02*
X-0004000D01*
X-0001450Y0006460D02*
X-0004000D01*
X-0001450Y0006280D02*
X-0004000D01*
X-0001450Y0006190D02*
X-0004000D01*
X0001144Y0007630D02*
X-0001110D01*
X0007870Y0012220D02*
X0006390D01*
X0004032Y0006910D02*
X0003895D01*
X0010400Y0003711D02*
Y-0000200D01*
X0001930Y0009080D02*
Y0005930D01*
X-0001300Y0005140D02*
Y-0000200D01*
X0006530Y0002295D02*
Y-0000200D01*
X0002478Y0004870D02*
X-0000960D01*
X0007880Y0005160D02*
X0008165Y0004875D01*
X-0000310Y0004870D02*
Y-0000200D01*
X-0001450Y0005470D02*
X-0004000D01*
X0007700Y0002890D02*
Y-0000200D01*
X0002480Y0004868D02*
Y0004711D01*
X0002513Y0004840D02*
X-0004000D01*
X0002529Y0004750D02*
X-0004000D01*
X0002441Y0004660D02*
X-0004000D01*
X0006098Y0002870D02*
X0004417D01*
X0003687Y0004710D02*
X0003581D01*
X0002417Y0004480D02*
X-0004000D01*
X0009230Y0004960D02*
Y0004460D01*
X0002423Y0004120D02*
X-0004000D01*
X0006170Y0002319D02*
Y0001176D01*
X0002500Y0003850D02*
X-0004000D01*
X-0003830Y0021220D02*
X-0004000D01*
X0008165Y0002870D02*
X0007780D01*
X0001530Y0003670D02*
X-0004000D01*
X0006080Y0002392D02*
Y0001357D01*
X0002480Y0003368D02*
Y0003211D01*
X0001350Y0003490D02*
X-0004000D01*
X0001260Y0003400D02*
X-0004000D01*
X0001150Y0003220D02*
X-0004000D01*
X0000680Y0004870D02*
Y-0000200D01*
X0002480Y0002868D02*
Y0002711D01*
X0001150Y0002950D02*
X-0004000D01*
X0001150Y0002860D02*
X-0004000D01*
X0001150Y0002680D02*
X-0004000D01*
X-0003830Y0021490D02*
X-0004000D01*
X0001150Y0002410D02*
X-0004000D01*
X0001150Y0002320D02*
X-0004000D01*
X0001150Y0002230D02*
X-0004000D01*
X0001150Y0002140D02*
X-0004000D01*
X0004280Y0001293D02*
Y0000854D01*
X0001150Y0001960D02*
X-0004000D01*
X0001150Y0001870D02*
X-0004000D01*
X0001150Y0001780D02*
X-0004000D01*
X0005450Y0000734D02*
Y-0000200D01*
X0001150Y0001690D02*
X-0004000D01*
X0001150Y0001600D02*
X-0004000D01*
X0001150Y0001510D02*
X-0004000D01*
X0004190Y0000483D02*
Y-0000200D01*
X0001760Y0000110D02*
Y-0000200D01*
X0001150Y0001330D02*
X-0004000D01*
X0001150Y0001240D02*
X-0004000D01*
X0001150Y0001150D02*
X-0004000D01*
X0001150Y0001060D02*
X-0004000D01*
X0001150Y0000970D02*
X-0004000D01*
X0001150Y0000880D02*
X-0004000D01*
X0001150Y0000790D02*
X-0004000D01*
X0001520Y0003660D02*
X0001202Y0003342D01*
X0001150Y0002770D02*
X-0004000D01*
X0001520Y0000160D02*
X-0004000D01*
X0012100Y0000070D02*
X-0004000D01*
X0012100Y-0000020D02*
X-0004000D01*
X-0000130Y0010690D02*
X-0001110D01*
X0000751Y0021324D02*
X0000742D01*
X-0000059Y0009250D02*
X-0001110D01*
X0002671Y0000610D02*
X0001550D01*
X0001490Y0003150D02*
Y0000670D01*
X0002660Y0003295D02*
Y0003285D01*
X0002750Y0003795D02*
Y0003785D01*
X0002840Y0003795D02*
Y0003785D01*
X0001490Y0000670D02*
X0001710Y0000450D01*
X0002571Y0002770D02*
X0001490D01*
X0001615Y0000790D02*
X0001490D01*
X0001557Y0000880D02*
X0001490D01*
X0001760Y0003370D02*
Y0001472D01*
X0000742Y0021400D02*
X0000591D01*
X0001490Y0004870D02*
Y0003630D01*
X0002739Y0000450D02*
X0001710D01*
X0002699Y0000520D02*
X0001640D01*
X0002478Y0003370D02*
X0001710D01*
X0001150Y0003220D02*
Y0000600D01*
X0003715Y0000308D02*
X0003570Y0000162D01*
X0002390Y0000968D02*
Y0000450D01*
X0001670Y0003330D02*
Y0001413D01*
X0001760Y0004870D02*
Y0003710D01*
X0001525Y0000970D02*
X0001490D01*
X0001513Y0001060D02*
X0001490D01*
X0001716Y0000700D02*
X0001490D01*
X0003380Y0000110D02*
Y-0000200D01*
X0003475Y0000548D02*
X0003390Y0000463D01*
X0002489Y0003220D02*
X0001560D01*
X0003447Y0000110D02*
X0001640D01*
X0001310Y0000370D02*
Y-0000200D01*
X0004527Y0001060D02*
X0003955D01*
X0004273Y0000520D02*
X0004208D01*
X0004370Y0000387D02*
Y-0000200D01*
X0002210Y0000707D02*
Y0000450D01*
X0003200Y0000110D02*
Y-0000200D01*
X0001519Y0001150D02*
X0001490D01*
X0002030Y0000635D02*
Y0000450D01*
X0009238Y0004930D02*
X0008785D01*
X0001590Y0008350D02*
X-0001110D01*
X0001670Y0000734D02*
Y0000490D01*
X0003470Y0000563D02*
Y0000543D01*
X0003020Y0000110D02*
Y-0000200D01*
X-0001080Y0009700D02*
X-0001110D01*
X0001212Y0013210D02*
X-0000461D01*
X0008120Y0006620D02*
Y0006060D01*
X0001219Y0013480D02*
X-0000508D01*
X0002660Y0002295D02*
Y0000450D01*
X0002300Y0005370D02*
Y0005210D01*
X0001220Y0006310D02*
Y0005210D01*
X0012100Y0023110D02*
X0008442D01*
X0009870Y0008890D02*
X0007250D01*
X0012100Y0013660D02*
X0011572D01*
X0002120Y0005370D02*
Y0005210D01*
X0012100Y0023200D02*
X0008442D01*
X0003677Y0001870D02*
X0001490D01*
X0012100Y0015280D02*
X0010210D01*
X0006910Y0008440D02*
X0004940D01*
X0007310Y0019780D02*
X0007177D01*
X0006031Y0005020D02*
X0005230D01*
X0006050Y0019420D02*
X0005927D01*
X0005000Y0009150D02*
Y0008380D01*
X0004820Y0009150D02*
Y0008560D01*
X0006050Y0019510D02*
X0005893D01*
X0004730Y0009150D02*
Y0008650D01*
X0006170Y0010780D02*
X0005976D01*
X0002447Y0002410D02*
X0001490D01*
X0005810Y0010140D02*
Y0009928D01*
X0007520Y0009970D02*
Y0009955D01*
X0007291Y0010330D02*
X0006969D01*
X0006390Y0011040D02*
X0006486Y0010944D01*
X0007863Y0011320D02*
X0006390D01*
X0007870Y0011590D02*
X0006390D01*
X0006082Y0010870D02*
X0005898D01*
X0002210Y0003370D02*
Y0001440D01*
X0002480Y0005368D02*
Y0005211D01*
X0002478Y0005370D02*
X0002080D01*
X0003740Y0006332D02*
Y0004702D01*
X0002660Y0006295D02*
Y0005785D01*
X0001590Y0006370D02*
X0001580D01*
X0002478D02*
X0001930D01*
X0002500Y0006730D02*
X0001930D01*
X0002120Y0003370D02*
Y0001488D01*
X0001640Y0005740D02*
X0001958Y0005422D01*
X0002390Y0011740D02*
Y0005710D01*
X0007820Y0009970D02*
X0007250D01*
X0002547Y0006820D02*
X0001930D01*
X0008060Y0014505D02*
Y0014209D01*
X0001040Y0012526D02*
Y0010040D01*
X0002300Y0003370D02*
Y0001358D01*
X0002513Y0005740D02*
X0002120D01*
X0000050Y0010234D02*
Y0009846D01*
X0000140Y0011273D02*
Y0010967D01*
X0000230Y0011256D02*
Y0010984D01*
X0000320Y0011259D02*
Y0010980D01*
X0002423Y0006460D02*
X0001930D01*
X0002410Y0006550D02*
X0001930D01*
X0002431Y0006640D02*
X0001930D01*
X0001830Y0010060D02*
X0001020D01*
X0001040Y0004870D02*
Y-0000200D01*
X0000500Y0020993D02*
Y0019761D01*
X0007970Y0004590D02*
Y0004430D01*
X0005720Y0016174D02*
Y0014634D01*
X0005810Y0016291D02*
Y0013518D01*
Y0017282D02*
Y0016459D01*
X0006050Y0016270D02*
X0005801D01*
X0000508Y0019420D02*
X-0003490D01*
X0006050Y0016900D02*
X0005800D01*
X0005630Y0016135D02*
Y0014779D01*
X0005540Y0016133D02*
Y0014822D01*
X0006050Y0016720D02*
X0005800D01*
X0006050Y0016810D02*
X0005800D01*
X0001337Y0018970D02*
X0000394D01*
X0011570Y0016540D02*
Y0013669D01*
X0006050Y0017800D02*
X0006011D01*
X0005450Y0014315D02*
Y0013518D01*
X0005390Y0016220D02*
Y0014915D01*
X0004370Y0002832D02*
Y0001760D01*
X0004460Y0006932D02*
Y0003710D01*
X0006350Y0002295D02*
Y-0000200D01*
X0006170Y0003319D02*
Y0003261D01*
X0006260Y0003295D02*
Y0003284D01*
X0006191Y0002770D02*
X0004017D01*
X0004550Y0003370D02*
Y0003210D01*
X0012100Y0001870D02*
X0004017D01*
X0002570Y0002310D02*
Y0000450D01*
X0004157Y0003310D02*
X0004017D01*
X0006109Y0002860D02*
X0004407D01*
X0001590Y0008530D02*
X-0001110D01*
X0001130Y0014637D02*
Y0012983D01*
X0001760Y0000675D02*
Y0000450D01*
X-0003830Y0020770D02*
X-0004000D01*
X0001310Y0013121D02*
Y0012934D01*
X-0003830Y0014830D02*
X-0004000D01*
X0001870Y0001510D02*
X0001490D01*
X0003110Y0012430D02*
Y0007285D01*
X0000974Y0012580D02*
X0000632D01*
X0001940Y0000629D02*
Y0000450D01*
X0001545Y0001240D02*
X0001490D01*
X0001850Y0000642D02*
Y0000450D01*
X0005291Y0010330D02*
X0004110D01*
X0003920Y0001079D02*
Y0001068D01*
X0004075Y0002860D02*
X0004017D01*
X0004190Y0002800D02*
Y0001664D01*
X0004280Y0002798D02*
Y0001641D01*
X0002480Y0004368D02*
Y0004211D01*
X0003650Y0006298D02*
Y0004710D01*
X0002570Y0004810D02*
Y0004770D01*
X0006167Y0002320D02*
X0004017D01*
X0006067Y0002410D02*
X0004017D01*
X0006033Y0002500D02*
X0004017D01*
X0006035Y0002590D02*
X0004017D01*
X0003677Y0004310D02*
Y0001824D01*
X0002840Y0005295D02*
Y0005285D01*
X0002750Y0004795D02*
Y0004785D01*
X0003617Y0004370D02*
X0003581D01*
X0003650Y0004337D02*
Y0001809D01*
X0002413Y0002500D02*
X0001490D01*
X0011590Y0017260D02*
X0010756D01*
X0012100Y0012580D02*
X0010210D01*
X0012100Y0012670D02*
X0010210D01*
X0010340Y0015550D02*
X0010210D01*
X0012100Y0017530D02*
X0011930D01*
X0012100Y0017260D02*
X0011930D01*
X0012100Y0015640D02*
X0010988D01*
X0012100Y0014650D02*
X0010993D01*
X0009230Y0023500D02*
Y0022470D01*
X0011590Y0017040D02*
X0010774Y0016224D01*
X0011590Y0021710D02*
Y0017040D01*
X0011930Y0021780D02*
Y0016970D01*
X0009230Y0022130D02*
Y0018740D01*
X0012100Y0022480D02*
X0008442D01*
X0008510Y0023500D02*
Y0022470D01*
X0008600Y0023500D02*
Y0022470D01*
X0011170Y0022130D02*
X0011590Y0021710D01*
X0012100Y0022210D02*
X0011570D01*
X0012100Y0018430D02*
X0011930D01*
X0012100Y0018520D02*
X0011930D01*
X0008442Y0023500D02*
Y0022470D01*
X-0000301Y0022660D02*
X-0004000D01*
X-0000760Y0006031D02*
Y0005210D01*
X-0000940Y0006188D02*
Y0005260D01*
X-0000670Y0005980D02*
Y0005210D01*
X-0000850Y0006098D02*
Y0005210D01*
X0001250Y0013570D02*
X-0000577D01*
X0002210Y0013950D02*
X0002430Y0013730D01*
X0005761Y0006190D02*
X0005230D01*
X0000320Y0006166D02*
Y0005210D01*
X0012100Y0018970D02*
X0011930D01*
X0012100Y0023290D02*
X0008442D01*
X0005815Y0019804D02*
X0006050Y0019570D01*
X0006910Y0008710D02*
X0004670D01*
X0006910Y0008890D02*
X0004490D01*
X0006910Y0008350D02*
X0005030D01*
X0012100Y0023470D02*
X0008442D01*
X0005390Y0018318D02*
Y0017982D01*
X0005855Y0019605D02*
Y0019556D01*
X0012100Y0018250D02*
X0011930D01*
X0006051Y0003940D02*
X0005230D01*
X0004550Y0009150D02*
Y0008830D01*
X0006030Y0004030D02*
X0005230D01*
X0006050Y0019330D02*
X0005925D01*
X0003976Y0011680D02*
X0001850D01*
X0006910Y0008530D02*
X0004850D01*
X0006050Y0011590D02*
X0005230D01*
X0005800Y0017277D02*
Y0016600D01*
X0006050Y0014650D02*
X0005716D01*
X0001337Y0019420D02*
X0001240D01*
X0005450Y0016167D02*
Y0014855D01*
X0005390Y0014915D02*
X0005475Y0014830D01*
X0006050Y0015460D02*
X0005390D01*
X0006050Y0015550D02*
X0005390D01*
X0006050Y0014740D02*
X0005670D01*
X0010040Y0022130D02*
Y0019636D01*
X0001590Y0007630D02*
X0001396D01*
X0007210Y0014230D02*
Y0014180D01*
X0009870Y0011590D02*
X0008210D01*
X0009756Y0019510D02*
X0009739D01*
X0003803Y0006370D02*
X0003786D01*
X0008100Y0012580D02*
X0006390D01*
X0012100Y0022390D02*
X0011390D01*
X0008298Y0012940D02*
X0008259D01*
X0001490Y0007312D02*
Y0006870D01*
X0001590Y0007450D02*
X0001513D01*
X0008185Y0014380D02*
X0007874D01*
X0004132Y0006820D02*
X0003910D01*
X0004890Y0006550D02*
X0004225D01*
X0009590Y0022130D02*
Y0019635D01*
X0003830Y0008814D02*
Y0006990D01*
X0001400Y0009200D02*
Y0007628D01*
X0001490Y0009110D02*
Y0007528D01*
X0003405Y0007285D02*
X0002655D01*
X0003405Y0006795D02*
X0002655D01*
X0009833Y0019600D02*
X0009661D01*
X0003405Y0006785D02*
X0002655D01*
X0003405Y0006295D02*
X0002655D01*
X0003405Y0005785D02*
X0002655D01*
X0001930Y0005930D02*
X0002150Y0005710D01*
X0003405Y0005295D02*
X0002655D01*
X0003405Y0005285D02*
X0002655D01*
X0001220Y0004870D02*
Y0003360D01*
X0003405Y0004795D02*
X0002655D01*
X0003807Y0004660D02*
X0003965Y0004502D01*
X0003405Y0004785D02*
X0002655D01*
X0003405Y0004295D02*
X0002655D01*
X0003405Y0004285D02*
X0002655D01*
X0003405Y0003795D02*
X0002655D01*
X0003405Y0003785D02*
X0002655D01*
X0001940Y0003370D02*
Y0001518D01*
X0003405Y0003295D02*
X0002655D01*
X0003405Y0003285D02*
X0002655D01*
X0003405Y0002795D02*
X0002655D01*
X0003405Y0002785D02*
X0002655D01*
X0003405Y0002295D02*
X0002655D01*
X0007025Y0002785D02*
X0006275D01*
X0007025Y0002295D02*
X0006275D01*
X0007025Y0003285D02*
X0006275D01*
X0007025Y0002795D02*
X0006275D01*
X0007025Y0003785D02*
X0006275D01*
X0005540Y0003370D02*
Y0003210D01*
X0007025Y0003295D02*
X0006275D01*
X0006800Y0014430D02*
Y0014180D01*
X0007340Y0004370D02*
Y0004205D01*
X0007025Y0004285D02*
X0006275D01*
X0007025Y0003795D02*
X0006275D01*
X0007340Y0003240D02*
X0007658Y0002922D01*
X0007025Y0004785D02*
X0006275D01*
X0007025Y0004295D02*
X0006275D01*
X0007610Y0004870D02*
Y0004710D01*
X0007025Y0005285D02*
X0006275D01*
X0007025Y0004795D02*
X0006275D01*
X0007500Y0005540D02*
X0007382Y0005422D01*
X0007025Y0005785D02*
X0006275D01*
X0007025Y0005295D02*
X0006275D01*
X0007025Y0006285D02*
X0006275D01*
X0005810Y0009192D02*
Y0006237D01*
X0007025Y0005795D02*
X0006275D01*
X0007025Y0006785D02*
X0006275D01*
X0007025Y0006295D02*
X0006275D01*
X0003650Y0000242D02*
Y-0000200D01*
X0002300Y0000789D02*
Y0000450D01*
X0002030Y0000110D02*
Y-0000200D01*
X0001150Y0001420D02*
X-0004000D01*
X0003470Y0001350D02*
Y0000797D01*
X0004255Y0000790D02*
X0004227D01*
X0004010Y0000320D02*
Y-0000200D01*
X0004100Y0001164D02*
Y0000984D01*
X0001200Y0000480D02*
X0001518Y0000162D01*
X0003740Y0001087D02*
Y0001060D01*
X0003290Y0000110D02*
Y-0000200D01*
X0004329Y0000430D02*
X0004153D01*
X0005810Y0002870D02*
Y0001513D01*
X0002930Y0000110D02*
Y-0000200D01*
X-0001080Y0011780D02*
X-0001398Y0011462D01*
X0001130Y0018357D02*
Y0015053D01*
X-0000310Y0015735D02*
Y0011830D01*
X0001830Y0010330D02*
X0000750D01*
X0008870Y0014380D02*
X0008707D01*
X0004100Y0018530D02*
Y0017521D01*
X0002870Y0017240D02*
Y0016330D01*
X0003040Y0015260D02*
X0002220D01*
Y0014440D01*
X0003040D02*
X0002220D01*
X0003040Y0015260D02*
Y0014440D01*
X0008870Y0013750D02*
X0006939D01*
X0006910Y0009070D02*
X0004310D01*
X0008060Y0010140D02*
Y0006620D01*
X0006014Y0010416D02*
X0006120Y0010310D01*
X0006390Y0014430D02*
Y0011040D01*
X0005990Y0009981D02*
Y0009756D01*
X0005040Y0009970D02*
X0004220D01*
X0004280Y0009150D02*
Y0009100D01*
X0004220Y0009970D02*
Y0009160D01*
X0005040Y0009970D02*
Y0009150D01*
X0012100Y0011050D02*
X0010210D01*
X0009040Y0007030D02*
X0008220D01*
Y0006210D01*
X0009040D02*
X0008220D01*
X0009040Y0007030D02*
Y0006210D01*
X0009870Y0015460D02*
X0009784D01*
X0010130Y0022130D02*
Y0019590D01*
X0008870Y0014508D02*
Y0013660D01*
X0009870Y0012400D02*
X0008400D01*
X0006050Y0013480D02*
X0005873D01*
X0010401Y0006280D02*
X0010210D01*
X0007870Y0011860D02*
X0006390D01*
X0011590Y0020050D02*
X0009210D01*
X0007310Y0019610D02*
X0007130Y0019430D01*
X-0003830Y0015010D02*
X-0004000D01*
X0006578Y0013660D02*
X0006390D01*
X0008870Y0013840D02*
X0006964D01*
X0007160Y0014060D02*
X0006965Y0013864D01*
X0006870Y0014430D02*
Y0014250D01*
X0007630Y0003430D02*
X0007850Y0003210D01*
X0007250Y0003850D02*
X0007180D01*
X0007070Y0002299D02*
Y-0000200D01*
X0007300Y0004210D02*
X0007201D01*
X0006710Y0004295D02*
Y0004285D01*
X0006800Y0004295D02*
Y0004285D01*
X0009220Y0003850D02*
X0007630D01*
X0007800Y0004120D02*
X0007460D01*
X0006260Y0002295D02*
Y-0000200D01*
X0007230Y0003870D02*
X0007290Y0003810D01*
X0007890Y0004030D02*
X0007550D01*
X0007710Y0004210D02*
X0007300D01*
X0006890Y0004295D02*
Y0004285D01*
X0006440Y0002295D02*
Y-0000200D01*
X0008165Y0003310D02*
X0007750D01*
X0007610Y0004310D02*
Y0003960D01*
X0006710Y0014430D02*
Y0014105D01*
X0007290Y0003400D02*
X0007226D01*
X0007630Y0002950D02*
X0007253D01*
X0008165Y0003320D02*
Y0003210D01*
X0008150Y0003970D02*
Y0003210D01*
X0007290Y0003810D02*
Y0003360D01*
X0009220Y0003670D02*
X0007630D01*
X0009220Y0003760D02*
X0007630D01*
X0007250Y0004370D02*
Y0004210D01*
X0001150Y0002590D02*
X-0004000D01*
X0012100Y0002860D02*
X0008785D01*
X0008330Y0003860D02*
Y0003320D01*
X0008165Y0003210D02*
X0007850D01*
X0007630Y0003880D02*
Y0003430D01*
X0010760Y0022130D02*
Y0021941D01*
X0007690Y0004870D02*
X0007978Y0004582D01*
X0008600Y0003860D02*
Y0003320D01*
X0008165Y0004530D02*
X0008100D01*
X0012100Y0002770D02*
X0008785D01*
X0007250Y0004870D02*
Y0004710D01*
X0007700Y0005500D02*
Y0005210D01*
X0007790Y0004770D02*
Y0004610D01*
X0007970Y0005500D02*
Y0005070D01*
X0008060Y0004535D02*
Y0004340D01*
X0008150Y0004530D02*
Y0004310D01*
X0008420Y0003860D02*
Y0003320D01*
X-0001450Y0005380D02*
X-0004000D01*
X0007700Y0004860D02*
Y0004690D01*
X0009224Y0005110D02*
X0007930D01*
X0007880Y0004680D02*
Y0004520D01*
X0007720Y0004840D02*
X0007166D01*
X0001337Y0019330D02*
X0001242D01*
X0008165Y0004980D02*
Y0004875D01*
X0007340Y0005390D02*
Y0005210D01*
X0011360Y0021940D02*
X0010761D01*
X0007340Y0004870D02*
Y0004710D01*
X0000500Y0019429D02*
Y0018031D01*
X0011540Y0021760D02*
X0010802D01*
X0010305Y0006370D02*
X0010210D01*
X-0000130Y0021910D02*
Y0017408D01*
X0007970Y0009331D02*
Y0006620D01*
X0000459Y0015910D02*
X0000215D01*
X0000751Y0021324D02*
Y0019879D01*
X0006037Y0004480D02*
X0005230D01*
X0008220Y0007630D02*
X0005230D01*
X0010400Y0021614D02*
Y0018989D01*
X0006098Y0004210D02*
X0005230D01*
X0006149Y0004750D02*
X0005230D01*
X0003560Y0000153D02*
Y-0000200D01*
X0004910Y0001184D02*
Y0000963D01*
X0006910Y0008980D02*
X0004400D01*
X0010670Y0022130D02*
Y0022019D01*
X0005270Y0009364D02*
Y0003710D01*
X-0001450Y0006370D02*
X-0004000D01*
X0009870Y0006190D02*
X0008120D01*
X0009870Y0006280D02*
X0009859D01*
X0008220Y0006370D02*
X0008120D01*
X0007430Y0006185D02*
Y0005935D01*
X0001590Y0006550D02*
X0001580D01*
X0003834Y0011230D02*
X0001850D01*
X0008220Y0006460D02*
X0008120D01*
X0007420Y0006190D02*
X0007219D01*
X0008220Y0006550D02*
X0008120D01*
X0004890Y0007180D02*
X0004441D01*
X0008220Y0006640D02*
X0007440D01*
X0007500Y0006170D02*
Y0006060D01*
X0007230Y0006370D02*
X0007201D01*
X0007340Y0009270D02*
Y0006705D01*
X0006620Y0002295D02*
Y-0000200D01*
X0006350Y0003795D02*
Y0003785D01*
X0006440Y0003795D02*
Y0003785D01*
X0006098Y0003370D02*
X0004417D01*
X0004190Y0006414D02*
Y0003780D01*
Y0003300D02*
Y0003280D01*
X0005900Y0005801D02*
Y0003710D01*
X-0001080Y0010780D02*
X-0001110D01*
X0006133Y0005740D02*
X0005230D01*
X0006031Y0005560D02*
X0005230D01*
X0005720Y0005971D02*
Y0003710D01*
X-0003830Y0015370D02*
X-0004000D01*
X0012100Y0022570D02*
X0008442D01*
X0008690Y0006210D02*
Y0004980D01*
X0000532Y0015820D02*
X0000069D01*
X0007500Y0006620D02*
Y0006580D01*
X0001337Y0018880D02*
X0000419D01*
X0008785Y0004980D02*
Y0004420D01*
X0007340Y0006260D02*
Y0005860D01*
X0008785Y0004420D02*
X0008165D01*
X0000410Y0021910D02*
Y0021470D01*
X-0003790Y0021850D02*
X-0004000D01*
X-0003280Y0023500D02*
Y0022360D01*
X-0003830Y0021670D02*
X-0004000D01*
X-0001843Y0021760D02*
X-0003400D01*
X-0003490Y0021670D02*
Y0008676D01*
X-0003730Y0023500D02*
Y0021910D01*
X-0000760Y0023500D02*
Y0022430D01*
X-0003100Y0023500D02*
Y0022430D01*
X-0003730Y0008265D02*
Y-0000200D01*
X-0003550Y0023500D02*
Y0022090D01*
X-0003830Y0009340D02*
X-0004000D01*
X-0003280Y0021880D02*
Y-0000200D01*
X-0003830Y0009160D02*
X-0004000D01*
X0001590Y0008170D02*
X-0001110D01*
X0008165Y0004480D02*
X0007920D01*
X0006910Y0008170D02*
X0005204D01*
X0008510Y0003860D02*
Y0003320D01*
X0009220Y0004030D02*
X0008785D01*
X0008165Y0003970D02*
X0008020D01*
X0007900Y0004660D02*
X0007740D01*
X0007970Y0002870D02*
Y-0000200D01*
X0007520Y0004870D02*
Y0004710D01*
X0007430Y0004870D02*
Y0004710D01*
X0007550Y0004370D02*
X0007898Y0004022D01*
X0009220Y0004120D02*
X0008785D01*
X0007160Y0002335D02*
Y-0000200D01*
X0006710Y0004795D02*
Y0004785D01*
X0006800Y0004795D02*
Y0004785D01*
X0008165Y0004310D02*
X0008090D01*
X0007620Y0004300D02*
X0007074D01*
X0002461Y0004390D02*
X-0004000D01*
X0008165Y0004530D02*
Y0004420D01*
X0007160Y0005835D02*
Y0005744D01*
X0007520Y0004370D02*
Y0004060D01*
X-0001270Y0005110D02*
X-0004000D01*
X0003775Y0009160D02*
X0003728D01*
X0007260Y0005370D02*
X0007201D01*
X0007380Y0005900D02*
X0007195Y0005716D01*
X0007880Y0005500D02*
Y0005160D01*
X0007790Y0005500D02*
Y0005207D01*
X0009870Y0005650D02*
X0008120D01*
X0009870Y0005920D02*
X0008120D01*
X0009870Y0006010D02*
X0008120D01*
X0010240Y0005200D02*
X0010011D01*
X0007990Y0004570D02*
X0007830D01*
X0007880Y0014515D02*
Y0014379D01*
X0012100Y0003940D02*
X0011025D01*
X0012100Y0005200D02*
X0011011D01*
X0010503Y0004660D02*
X0009756D01*
X0009920Y0005520D02*
X0010246Y0005194D01*
X0010850Y0003704D02*
Y-0000200D01*
Y0006274D02*
Y0005396D01*
X0010940Y0006352D02*
Y0005318D01*
X0011590Y0019150D02*
X0010202D01*
X0010221Y0017620D02*
X0010210D01*
X0009340Y0015550D02*
X0009210D01*
X0008510Y0002760D02*
Y-0000200D01*
X0010387Y0017980D02*
X0010210D01*
X0012100Y0010960D02*
X0010210D01*
X0012100Y0006100D02*
X0010210D01*
X0009224Y0017710D02*
X0009210D01*
X0009820Y0018250D02*
X0009720D01*
X0010248Y0017800D02*
X0010210D01*
X0012100Y0006190D02*
X0010210D01*
X0010298Y0017890D02*
X0010210D01*
X0012100Y0006280D02*
X0010859D01*
X0010540Y0018250D02*
X0010130D01*
X0012100Y0006550D02*
X0011034D01*
X0008330Y0014135D02*
Y0013459D01*
X0011590Y0018160D02*
X0010199D01*
X0008150Y0014415D02*
Y0013417D01*
X0010416Y0007270D02*
X0010210D01*
X0007310Y0020320D02*
X0006799D01*
X0012100Y0007450D02*
X0011003D01*
X0007310Y0020860D02*
X0006799D01*
X0008870Y0013930D02*
X0007951D01*
X0007310Y0020680D02*
X0006799D01*
X0009540Y0018250D02*
X0009210D01*
X0009870Y0017170D02*
X0009210D01*
X0009770Y0022130D02*
Y0019534D01*
X0007310Y0019870D02*
X0007183D01*
X0007310Y0020500D02*
X0006799D01*
X0003378Y0008980D02*
X0001930D01*
X0003979Y0017260D02*
X0003756D01*
X0006050Y0011140D02*
X0005120D01*
X0004050Y0011950D02*
X0003988D01*
X0001830Y0010710D02*
Y0009790D01*
X0004460Y0010830D02*
Y0009970D01*
X0006050Y0011230D02*
X0005204D01*
X0001337Y0013758D02*
X0001302Y0013722D01*
X-0003830Y0011050D02*
X-0004000D01*
X-0000850Y0004870D02*
Y-0000200D01*
X-0000490Y0012035D02*
Y0011830D01*
X0000050Y0011314D02*
Y0010926D01*
X0000140Y0012353D02*
Y0012047D01*
X-0001030Y0011832D02*
Y0011815D01*
X-0003830Y0010240D02*
X-0004000D01*
X-0001210Y0011996D02*
Y0011650D01*
X-0000108Y0011490D02*
X-0000695D01*
X-0003830Y0012490D02*
X-0004000D01*
X-0000220Y0015739D02*
Y0011830D01*
X-0003830Y0011770D02*
X-0004000D01*
X-0003830Y0010150D02*
X-0004000D01*
X-0001180Y0005020D02*
X-0004000D01*
X-0003830Y0009970D02*
X-0004000D01*
X-0000670Y0011842D02*
Y0011830D01*
X-0001450Y0011340D02*
Y0005360D01*
X0000140Y0004870D02*
Y-0000200D01*
X0000050Y0005971D02*
Y0005210D01*
X0000140Y0006019D02*
Y0005210D01*
X0000230Y0006082D02*
Y0005210D01*
X0001640Y0005740D02*
X-0001110D01*
X0001593Y0005830D02*
X-0001110D01*
X-0000504Y0005920D02*
X-0001110D01*
X-0001450Y0005830D02*
X-0004000D01*
X0002660Y0004795D02*
Y0004785D01*
X0002750Y0005295D02*
Y0005285D01*
X0001820Y0005560D02*
X-0001110D01*
X0001730Y0005650D02*
X-0001110D01*
X0004870Y0018318D02*
Y0017982D01*
X-0001110Y0006499D02*
Y0005430D01*
X0002120Y0000110D02*
Y-0000200D01*
X-0000220Y0005899D02*
Y0005210D01*
X0012100Y0022930D02*
X0008442D01*
X0002688Y0001600D02*
X0001490D01*
X0002819Y0001780D02*
X0001490D01*
X-0000040Y0005936D02*
Y0005210D01*
X0001850Y0005530D02*
Y0005210D01*
X-0000580Y0005943D02*
Y0005210D01*
X-0001090Y0004930D02*
X-0004000D01*
X0012100Y0023020D02*
X0008442D01*
X0000680Y0009920D02*
Y0005210D01*
X0007070Y0021324D02*
Y0020048D01*
X0011120Y0016090D02*
Y0013717D01*
X0001940Y0005440D02*
Y0005210D01*
X0001580Y0009020D02*
Y0005210D01*
X0002210Y0005370D02*
Y0005210D01*
X0002734Y0001690D02*
X0001490D01*
X0012100Y0022660D02*
X0008442D01*
X-0000310Y0005895D02*
Y0005210D01*
X-0003830Y0021040D02*
X-0004000D01*
X0001760Y0005620D02*
Y0005210D01*
X0011270Y0022030D02*
X0010644D01*
X0004017Y0004380D02*
Y0003640D01*
X0008220Y0007000D02*
X0005230D01*
X0006043Y0004120D02*
X0005230D01*
X0002220Y0017800D02*
X0002210D01*
X-0001009Y0006280D02*
X-0001110D01*
X-0001060Y0006370D02*
X-0001110D01*
X-0000580Y0021910D02*
Y0017377D01*
X0002220Y0017620D02*
X0002210D01*
X0005990Y0005797D02*
Y0003710D01*
X0003560Y0011746D02*
Y0009177D01*
X-0003903Y0008530D02*
X-0004000D01*
X0003020Y0019150D02*
Y0019100D01*
X-0000958Y0007270D02*
X-0001110D01*
X-0000130Y0005912D02*
Y0005210D01*
X0002220Y0017710D02*
X0002210D01*
X-0000874Y0007360D02*
X-0001110D01*
X0003284Y0018430D02*
X0003210D01*
X0003241Y0018520D02*
X0003210D01*
X0001590Y0007810D02*
X-0001110D01*
X0004100Y0006326D02*
Y0003740D01*
X-0003830Y0017890D02*
X-0004000D01*
X0001590Y0008980D02*
X-0001110D01*
X0001100Y0006870D02*
X0000960D01*
X0006843Y0007900D02*
X0005230D01*
X0008416Y0007270D02*
X0005230D01*
X-0001021Y0007180D02*
X-0001110D01*
X0001130Y0004870D02*
Y-0000200D01*
X0001590Y0008260D02*
X-0001110D01*
X0000500Y0006468D02*
Y0005210D01*
X-0000112Y0009340D02*
X-0001110D01*
X0000040Y0009160D02*
X-0001110D01*
X0009278Y0004840D02*
X0008785D01*
X0001670Y0005710D02*
Y0005210D01*
X0004794Y0003940D02*
X0004017D01*
X0009220Y0004390D02*
X0008785D01*
X0001590Y0007990D02*
X-0001110D01*
X0001337Y0019150D02*
X0001110D01*
X-0003830Y0020860D02*
X-0004000D01*
X0002480Y0003868D02*
Y0003711D01*
X0005450Y0009192D02*
Y0003710D01*
X0009220Y0004300D02*
X0008785D01*
X0001850Y0012830D02*
X0002058Y0012622D01*
X0003770Y0010510D02*
X0002170D01*
X0002970Y0012570D02*
X0002980Y0012560D01*
X0001337Y0016270D02*
X0000486D01*
X0003020Y0013023D02*
Y0012910D01*
X0002390Y0012570D02*
Y0012560D01*
X0003503Y0012760D02*
X0003260D01*
X0003476Y0011770D02*
X0003040D01*
X0001337Y0016180D02*
X0000861D01*
X0004050Y0012040D02*
X0004025D01*
X0004050Y0012130D02*
X0004039D01*
X0001250Y0013600D02*
Y0013516D01*
X0001220Y0018323D02*
Y0015087D01*
X-0003830Y0012310D02*
X-0004000D01*
X0001590Y0005920D02*
X-0000096D01*
X0007220Y0005740D02*
X0007166D01*
X0008165Y0003970D02*
Y0003860D01*
X0006226Y0006280D02*
X0006004D01*
X0006149Y0005830D02*
X0006081D01*
X0006080Y0006392D02*
Y0006251D01*
X0005720Y0009160D02*
Y0006109D01*
X0003920Y0000292D02*
Y-0000200D01*
X0004370Y0009150D02*
Y0009010D01*
X0000860Y0009740D02*
Y0005210D01*
X0007310Y0021130D02*
X0006799D01*
X0012100Y0013570D02*
X0011578D01*
X0008267Y0007810D02*
X0007271D01*
X0009870Y0016900D02*
X0009210D01*
X0012100Y0016360D02*
X0011390D01*
X0005540Y0018250D02*
X0005390D01*
X0004910Y0000397D02*
Y-0000200D01*
X0001180Y0013390D02*
X-0000470D01*
X0005930Y0019690D02*
X0005832D01*
X0005180Y0011200D02*
Y0008200D01*
X0004010Y0008890D02*
Y0007124D01*
X0000050Y0004870D02*
Y-0000200D01*
X0003920Y0011124D02*
Y0010920D01*
X0006050Y0013930D02*
X0005065D01*
X0005090Y0013955D02*
Y0013550D01*
X0005248Y0013300D02*
X0005230D01*
X0004190Y0018483D02*
Y0017550D01*
X0005030Y0013895D02*
Y0013610D01*
X0004050Y0014470D02*
X0003784D01*
X0006050Y0013570D02*
X0005070D01*
X0005270Y0014135D02*
Y0013346D01*
X0005180Y0011200D02*
X0004862Y0010882D01*
X0004257Y0018480D02*
X0004220D01*
X0003290Y0018421D02*
Y0017879D01*
X0004220Y0009880D02*
X0004110D01*
X-0001097Y0006460D02*
X-0001110D01*
X0003480Y0019150D02*
X0003011D01*
X0002570Y0014440D02*
Y0013730D01*
X0003350Y0012850D02*
X0003170D01*
X0004050Y0014020D02*
X0002210D01*
X0002300Y0014440D02*
Y0013860D01*
X0003108Y0013390D02*
X0002962D01*
X0004050Y0013930D02*
X0002230D01*
X0002221Y0015820D02*
X0002210D01*
X0002224Y0015910D02*
X0002210D01*
X0003108Y0013730D02*
X0002430D01*
X0002248Y0016000D02*
X0002210D01*
X0001337Y0017710D02*
X0000648D01*
X-0000144Y0010600D02*
X-0001110D01*
X0001337Y0016090D02*
X0000913D01*
X0001337Y0017350D02*
X0000048D01*
X0001490Y0006310D02*
Y0005210D01*
X-0001450Y0005560D02*
X-0004000D01*
X-0000130Y0009610D02*
X-0001110D01*
X0002298Y0016090D02*
X0002210D01*
X0002220Y0012040D02*
X0001850D01*
X0010040Y0018824D02*
Y0018296D01*
X0009276Y0019420D02*
X0009210D01*
X0011590Y0019240D02*
X0010160D01*
X0011590Y0020950D02*
X0009210D01*
X0009301Y0019510D02*
X0009210D01*
X0011590Y0020770D02*
X0009210D01*
X0011590Y0020860D02*
X0009210D01*
X0011590Y0021400D02*
X0009210D01*
X0009320Y0022130D02*
Y0019541D01*
X0009410Y0023500D02*
Y0022470D01*
X0009050Y0022130D02*
Y0021990D01*
X0009140Y0022130D02*
Y0021900D01*
X0008910Y0022130D02*
X0009158Y0021882D01*
X0011590Y0021310D02*
X0009210D01*
X0011590Y0021220D02*
X0009210D01*
X0008960Y0022130D02*
Y0022080D01*
X0010452Y0021580D02*
X0009210D01*
X0012100Y0021850D02*
X0011915D01*
X0007041Y0021400D02*
X0007005D01*
X0009870Y0009070D02*
X0007250D01*
X0007041Y0021490D02*
X0007005D01*
X0007041Y0021580D02*
X0007005D01*
X0009950Y0022130D02*
Y0019644D01*
X0007041Y0021670D02*
X0007005D01*
X0007041Y0021760D02*
X0007005D01*
X0007041Y0021850D02*
X0007005D01*
X0009210Y0021760D02*
Y0020920D01*
X0006050Y0018520D02*
X0006019D01*
X0009378Y0019600D02*
X0009210D01*
X0010352Y0021670D02*
X0009210D01*
X0008870Y0014470D02*
X0008807D01*
X0008870Y0013660D02*
X0006861D01*
X0009210Y0020920D02*
Y0013590D01*
X0006820Y0014200D02*
X0006390D01*
X0008387Y0012850D02*
X0007873D01*
X0000925Y0012670D02*
X0000659D01*
X0009140Y0013450D02*
Y0012994D01*
X0009453Y0014470D02*
X0009210D01*
X0009401Y0016180D02*
X0009210D01*
X0009503Y0017260D02*
X0009210D01*
X0009160Y0013470D02*
X0009105Y0013415D01*
X0011590Y0021490D02*
X0009210D01*
X0008060Y0012986D02*
Y0012540D01*
X0009278Y0013390D02*
X0009105D01*
X0008870Y0014508D02*
Y0013660D01*
X0008240Y0012937D02*
Y0012720D01*
X0008870Y0013660D02*
X0008817Y0013607D01*
X0009870Y0012310D02*
X0008310D01*
X0008788Y0013570D02*
X0008756D01*
X0009870Y0011950D02*
X0008210D01*
X0009870Y0016450D02*
X0009210D01*
X0006080Y0010873D02*
Y0010350D01*
X0006350Y0009970D02*
Y0009859D01*
X0006170Y0010780D02*
Y0010310D01*
X0005270Y0010364D02*
Y0009756D01*
X0006440Y0009970D02*
Y0009923D01*
X0005270Y0011954D02*
Y0010756D01*
X0005360Y0011841D02*
Y0010868D01*
X0005450Y0011782D02*
Y0010928D01*
X0007250Y0009970D02*
Y0009714D01*
X0005900Y0010050D02*
Y0009868D01*
X0007080Y0010310D02*
X0006955D01*
X0007790Y0009970D02*
Y0009937D01*
X0007070Y0007718D02*
Y0006781D01*
X0007284Y0009340D02*
X0007250D01*
X0006362Y0009250D02*
X0005898D01*
X0007362D02*
X0007250D01*
X0009870Y0016630D02*
X0009210D01*
X0008232Y0007720D02*
X0007111D01*
X0009870Y0016720D02*
X0009210D01*
X0009870Y0008980D02*
X0007250D01*
X0006865Y0008080D02*
X0005230D01*
X0009870D02*
X0007295D01*
X0009870Y0015280D02*
X0009210D01*
X0009870Y0015370D02*
X0009210D01*
X0009870Y0009970D02*
X0007250D01*
X0009870Y0008530D02*
X0007250D01*
Y0009406D02*
Y0008139D01*
X0011590Y0019510D02*
X0010194D01*
X0009870Y0014110D02*
X0009210D01*
X0007310Y0020410D02*
X0006799D01*
X0007310Y0021040D02*
X0006799D01*
X0009746Y0019150D02*
X0009210D01*
X0011590Y0019870D02*
X0009210D01*
X0006730Y0014110D02*
X0006390D01*
X0007610Y0014430D02*
Y0014310D01*
X0007310Y0020230D02*
X0006799D01*
X0007240Y0014200D02*
X0007210D01*
X0007970Y0013942D02*
Y0013409D01*
X0007250Y0014190D02*
Y0013334D01*
X0007330Y0014110D02*
X0007195D01*
X0007970Y0014595D02*
Y0014337D01*
X0008381Y0014110D02*
X0008068D01*
X0008264Y0014200D02*
X0008062D01*
X0007648Y0014310D02*
X0007610D01*
X0007447Y0014473D02*
X0007610Y0014310D01*
X0001032Y0007360D02*
X0000274D01*
X0001590D02*
X0001507D01*
X-0001450Y0006640D02*
X-0004000D01*
X0001040Y0007336D02*
Y0006870D01*
X0001590Y0006640D02*
X0001580D01*
X0001590Y0006730D02*
X0001580D01*
X0001100Y0006910D02*
X0000528D01*
X0001130Y0009470D02*
Y0007621D01*
X0005222Y0010600D02*
X0004110D01*
X0004010Y0006956D02*
Y0006783D01*
X0002570Y0006310D02*
Y0005770D01*
X0003517Y0006822D02*
X0003560Y0006780D01*
X0002750Y0006795D02*
Y0006785D01*
X0009870Y0011410D02*
X0008210D01*
X0009870Y0007270D02*
X0009843D01*
X0003412Y0009070D02*
X0001930D01*
X0003830Y0006346D02*
Y0004638D01*
X0002660Y0006795D02*
Y0006785D01*
Y0011740D02*
Y0007285D01*
X0001310Y0009290D02*
Y0007662D01*
X0001830Y0010240D02*
X0000840D01*
X0003910Y0006840D02*
Y0006775D01*
X0001440Y0007243D02*
Y0006870D01*
X0001040Y0009560D02*
Y0007504D01*
X0004100Y0006839D02*
Y0006754D01*
X0002750Y0011740D02*
Y0007285D01*
X0004039Y0007180D02*
X0003636D01*
X0003740Y0008726D02*
Y0007080D01*
X0001220Y0009380D02*
Y0007660D01*
X0006890Y0009243D02*
Y0008118D01*
X0008240Y0011008D02*
Y0009686D01*
X0007870Y0010973D02*
Y0010892D01*
Y0011410D02*
X0006390D01*
X0008870Y0014020D02*
X0008039D01*
X0009870Y0008620D02*
X0007250D01*
X0009870Y0010420D02*
X0008210D01*
X0007250Y0010406D02*
Y0010310D01*
X0009870Y0010240D02*
X0008160D01*
X0008225Y0014290D02*
X0008019D01*
X0007880Y0009981D02*
Y0009885D01*
X0007790Y0012802D02*
Y0010937D01*
X0006910Y0009970D02*
Y0009859D01*
X0007870Y0010960D02*
X0007720D01*
X0009870Y0010330D02*
X0008207D01*
X0007970Y0010050D02*
Y0009789D01*
X0006910Y0009970D02*
X0006050D01*
X0006080D02*
Y0006688D01*
X0005540Y0011750D02*
Y0010960D01*
X0005630Y0011740D02*
Y0010970D01*
X0005720Y0011750D02*
Y0010960D01*
X0005774Y0010176D02*
X0005928Y0010022D01*
X0006014Y0010416D02*
X0006120Y0010310D01*
X0007870Y0012040D02*
X0006390D01*
X0007870Y0012280D02*
Y0011326D01*
X0009870Y0011050D02*
X0008264D01*
X0008210Y0010973D02*
Y0010360D01*
X0008010Y0012490D02*
X0006390D01*
X0008330Y0012900D02*
Y0012767D01*
X0008870Y0012430D02*
X0008430D01*
X0007870Y0012130D02*
X0006390D01*
X0008240Y0012720D02*
X0007922Y0012402D01*
X0009870Y0012040D02*
X0008210D01*
X0009870Y0011680D02*
X0008210D01*
X0008420Y0012828D02*
Y0012770D01*
X0009298Y0012940D02*
X0009216D01*
X0009870Y0012670D02*
X0009264D01*
X0008210Y0012210D02*
Y0011326D01*
X0008150Y0012942D02*
Y0012630D01*
X0008795Y0012770D02*
X0008360D01*
X0009870Y0012760D02*
X0009285D01*
X0009870Y0013660D02*
X0009210D01*
X0009870Y0012130D02*
X0008210D01*
X0008510Y0012788D02*
Y0012770D01*
X0008870Y0012430D02*
Y0009892D01*
X0009387Y0012850D02*
X0009271D01*
X0008780Y0012798D02*
Y0012770D01*
X0009870Y0013750D02*
X0009210D01*
X0008150Y0002870D02*
Y-0000200D01*
X0009230Y0013090D02*
Y0012925D01*
X0009221Y0013210D02*
X0009105D01*
X0009035Y0012525D02*
X0008992Y0012482D01*
X0009870Y0016360D02*
X0009210D01*
X0001312Y0013120D02*
X0000400D01*
X0011590Y0021040D02*
X0009210D01*
X0007970Y0012951D02*
Y0012450D01*
X0009105Y0013180D02*
Y0013006D01*
X0009320Y0006352D02*
Y0005318D01*
X0003803Y0006370D02*
X0003786D01*
X0010318Y0021760D02*
X0009210D01*
X0012100D02*
X0011930D01*
X0008420Y0014099D02*
Y0013532D01*
X0008510Y0014099D02*
Y0013572D01*
X0008600Y0014135D02*
Y0013589D01*
X0009870Y0011860D02*
X0008210D01*
X0002175Y0009785D02*
Y0009736D01*
X0001830Y0009790D02*
X0001290D01*
X0001765Y0009610D02*
X0001470D01*
X0002120Y0009344D02*
Y0005740D01*
X0003770Y0009610D02*
X0002245D01*
X0002210Y0012570D02*
Y0009694D01*
X0003770Y0009700D02*
X0002206D01*
X0001804D02*
X0001380D01*
X0009248Y0013030D02*
X0009105D01*
X0003770Y0009880D02*
X0002170D01*
X0003770Y0009970D02*
X0002170D01*
X0001835Y0009785D02*
Y0009736D01*
X0003770Y0010060D02*
X0002170D01*
X0003770Y0010150D02*
X0002170D01*
X0003770Y0009430D02*
X0002213D01*
X0001830Y0009970D02*
X0001110D01*
X0003770Y0009790D02*
X0002170D01*
X0003770Y0009340D02*
X0002113D01*
X0003960Y0010960D02*
X0002060D01*
X0001580D02*
Y0009500D01*
X0003888Y0011500D02*
X0001850D01*
Y0011170D02*
X0002118Y0010902D01*
X0001560Y0010980D02*
X0001830Y0010710D01*
X0003770Y0009520D02*
X0002247D01*
X0003899Y0011140D02*
X0001880D01*
X-0003260Y0022380D02*
X-0003778Y0021862D01*
X0012100Y0003220D02*
X0008785D01*
X0001830Y0010690D02*
X0000650D01*
X0003985Y0011590D02*
X0001850D01*
X0012100Y0003310D02*
X0008785D01*
X0012100Y0003040D02*
X0008785D01*
X0001337Y0019510D02*
X0001200D01*
X0001760Y0010780D02*
Y0009320D01*
X0002030Y0009316D02*
Y0005830D01*
X0008600Y0006210D02*
Y0004980D01*
X0001590Y0008710D02*
X-0001110D01*
X0004050Y0011050D02*
X0001970D01*
X0003830Y0011410D02*
X0001850D01*
X0001100Y0007000D02*
X0000504D01*
X0003650Y0008697D02*
Y0007170D01*
X0001580Y0006870D02*
X0001440D01*
X0002930Y0006795D02*
Y0006785D01*
X0003020Y0006795D02*
Y0006785D01*
X0003470Y0006804D02*
Y0006776D01*
X0003110Y0006795D02*
Y0006785D01*
X0003200Y0006795D02*
Y0006785D01*
X0008420Y0012420D02*
Y0009912D01*
X0009870Y0011320D02*
X0008216D01*
X0001100Y0007243D02*
Y0006870D01*
X0001590Y0006820D02*
X0001580D01*
X0006890Y0002295D02*
Y-0000200D01*
X0002570Y0006810D02*
Y0006770D01*
X-0001450Y0007180D02*
X-0004000D01*
X0001590Y0007000D02*
X0001440D01*
X0007873Y0012310D02*
X0006390D01*
X0006050Y0016540D02*
X0005789D01*
X0006050Y0016180D02*
X0005728D01*
X0008690Y0014243D02*
Y0013586D01*
X0008161Y0012940D02*
X0007962D01*
X0008033Y0013010D02*
X0008003D01*
X0008033Y0013350D02*
X0008003D01*
X0011590Y0018070D02*
X0010220D01*
X0008780Y0014458D02*
Y0013561D01*
X-0000760Y0021910D02*
Y0021708D01*
X-0001030Y0021910D02*
Y0021701D01*
X-0001120Y0021910D02*
Y0021584D01*
X-0001030Y0023500D02*
Y0022430D01*
X-0001726Y0021580D02*
X-0003490D01*
X-0001121D02*
X-0001474D01*
X0000742Y0021760D02*
X-0001357D01*
X-0000940Y0021910D02*
Y0021740D01*
X-0001570Y0022090D02*
Y0022060D01*
X0000494Y0022430D02*
X-0003140D01*
X0003770Y0010420D02*
X0002170D01*
X-0000940Y0023500D02*
Y0022430D01*
X-0001240Y0021910D02*
X-0001355Y0021794D01*
X0001580Y0004870D02*
Y0003699D01*
X-0003829Y0021760D02*
X-0004000D01*
X-0001649Y0022030D02*
X-0003130D01*
X0000590Y0015787D02*
Y0012975D01*
X-0001837Y0021850D02*
X-0003310D01*
X-0001540Y0022090D02*
X-0003070D01*
X0002220Y0012310D02*
X0001850D01*
X-0001660Y0022090D02*
Y0022027D01*
X0000050Y0021910D02*
Y0019071D01*
X0003560Y0019070D02*
Y0019054D01*
X0004190Y0006800D02*
Y0006666D01*
X0004890Y0006640D02*
X0004204D01*
X0001590Y0006460D02*
X0001580D01*
X0004890Y0006730D02*
X0004135D01*
X0007049Y0007720D02*
X0005230D01*
X0009680Y0022130D02*
Y0019585D01*
X0011590Y0019420D02*
X0010219D01*
X0001590Y0007540D02*
X0001484D01*
X0008690Y0003860D02*
Y0003320D01*
X0000450Y0019510D02*
X-0003490D01*
X0011590Y0021670D02*
X0010768D01*
X0010400Y0022130D02*
Y0021985D01*
X0010490Y0022130D02*
Y0022035D01*
X0001337Y0019527D02*
Y0018797D01*
X0011590Y0021580D02*
X0010668D01*
X0011450Y0021850D02*
X0010800D01*
X0008220Y0006820D02*
X0005230D01*
X0003480Y0019150D02*
X0003573Y0019056D01*
X0003540Y0018250D02*
X0003210D01*
X0012100Y0000250D02*
X0003658D01*
X0001940Y0000110D02*
Y-0000200D01*
X0011240Y0022470D02*
X0008442D01*
X0004017Y0002940D02*
Y0001824D01*
X-0000852Y0006100D02*
X-0001110D01*
X0006980Y0019598D02*
Y0019580D01*
X0007041Y0021910D02*
X0007005D01*
X0004246Y0000610D02*
X0004236D01*
X0007310Y0020050D02*
X0007066D01*
X0006980Y0021324D02*
Y0020082D01*
X0004050Y0016990D02*
X0003210D01*
X0006890Y0021324D02*
Y0020130D01*
X0002870Y0016360D02*
X0002210D01*
X0002870Y0016450D02*
X0002210D01*
X0000410Y0004870D02*
Y-0000200D01*
X0000742Y0021910D02*
X-0001240D01*
X0000140D02*
Y0019102D01*
X0006910Y0009250D02*
X0006898D01*
X0007160Y0021324D02*
Y0019948D01*
X0012100Y0013750D02*
X0011529D01*
X0009870Y0008800D02*
X0007250D01*
X0006910Y0009160D02*
X0006720D01*
X0000770Y0009830D02*
Y0005210D01*
X-0003830Y0019330D02*
X-0004000D01*
X-0003830Y0018880D02*
X-0004000D01*
X-0000301Y0022480D02*
X-0004000D01*
X-0003830Y0019510D02*
X-0004000D01*
X0004280Y0006798D02*
Y0003782D01*
X-0003190Y0023500D02*
Y0022422D01*
X0003770Y0009250D02*
X0001830D01*
X0006098Y0003710D02*
X0005223D01*
X0003650Y0011740D02*
Y0009183D01*
X0006089Y0005380D02*
X0005230D01*
X0006040Y0005470D02*
X0005230D01*
X0003740Y0011755D02*
Y0009154D01*
X0006080Y0003370D02*
Y0003210D01*
X0004890Y0008010D02*
Y0004021D01*
X0004640Y0008260D02*
Y0003710D01*
X0004820Y0008080D02*
Y0003971D01*
X0004767Y0003710D02*
X0004417D01*
X0004110Y0010630D02*
Y0009270D01*
X0003380Y0011825D02*
Y0008989D01*
X0003470Y0011772D02*
Y0009134D01*
X0006167Y0003760D02*
X0005237D01*
X0003998Y0007000D02*
X0003820D01*
X0005090Y0011110D02*
Y0008290D01*
X0004190Y0008710D02*
X0003704D01*
X0007160Y0007731D02*
Y0006744D01*
X0009870Y0007090D02*
X0005230D01*
X0009870Y0007180D02*
X0005230D01*
X-0003830Y0009520D02*
X-0004000D01*
X0004220Y0009340D02*
X0004110D01*
X0003770Y0010700D02*
Y0009200D01*
X0004280Y0010800D02*
Y0009970D01*
X0004370Y0010830D02*
Y0009970D01*
X0004220Y0009250D02*
X0004130D01*
X0005374Y0010240D02*
X0004110D01*
X0001670Y0010870D02*
X0000543D01*
X0004080Y0011081D02*
X0003822Y0010822D01*
X0004220Y0009430D02*
X0004110D01*
X0004100Y0008800D02*
Y0007241D01*
X0002120Y0012581D02*
Y0010900D01*
X0004280Y0008620D02*
Y0007282D01*
X0005223Y0010510D02*
X0004110D01*
X0006050Y0011500D02*
X0005230D01*
X0004910Y0010930D02*
Y0009970D01*
X0005540Y0010960D02*
X0004940D01*
X0004110Y0009270D02*
X0004220Y0009160D01*
X0005241Y0010690D02*
X0004170D01*
X0006050Y0011320D02*
X0005230D01*
X0005350Y0012850D02*
X0005230D01*
X0005387Y0013480D02*
X0005160D01*
X0006050Y0013750D02*
X0005030D01*
X0004050Y0016900D02*
X0003210D01*
X0005476Y0011770D02*
X0005230D01*
X0004753Y0003760D02*
X0004349D01*
X0004220Y0009700D02*
X0004110D01*
X0005360Y0014225D02*
Y0013458D01*
X0006050Y0013840D02*
X0005030D01*
X0004220Y0009610D02*
X0004110D01*
X0005284Y0010780D02*
X0004260D01*
X0006050Y0011050D02*
X0005030D01*
X0006050Y0011410D02*
X0005230D01*
X0005030Y0013610D02*
X0005178Y0013462D01*
X0004640Y0009150D02*
Y0008740D01*
X0005630Y0019141D02*
Y0019060D01*
X0002547Y0002320D02*
X0001490D01*
Y0000190D02*
Y-0000200D01*
X0006050Y0019240D02*
X0005886D01*
X0005815Y0019804D02*
Y0019714D01*
X0005840Y0019780D02*
X0005815D01*
X0006910Y0008620D02*
X0004760D01*
X0005810Y0019810D02*
Y0019720D01*
X0006056Y0005650D02*
X0005230D01*
X0006050Y0019060D02*
X0005577D01*
X0004755Y0003850D02*
X0004017D01*
X0006133Y0004840D02*
X0005230D01*
X0006040Y0005110D02*
X0005230D01*
X0006050Y0018250D02*
X0005720D01*
X0006020Y0019600D02*
X0005855D01*
X0006910Y0008800D02*
X0004580D01*
X0004890Y0005740D02*
X0003546D01*
X-0000726Y0006010D02*
X-0001110D01*
X0006030Y0006550D02*
X0005230D01*
X0006120Y0006730D02*
X0005230D01*
X0006043Y0006460D02*
X0005230D01*
X0006081Y0004390D02*
X0005230D01*
X0008228Y0007540D02*
X0005230D01*
X0005829Y0005830D02*
X0005230D01*
X0008313Y0007360D02*
X0005230D01*
X-0000941Y0006190D02*
X-0001110D01*
X0004010Y0004331D02*
Y0003622D01*
X0006889Y0007810D02*
X0005230D01*
X0002990Y0019130D02*
X0003158Y0018962D01*
X0004017Y0003440D02*
Y0003140D01*
X0001400Y0006310D02*
Y0005210D01*
X0003110Y0019150D02*
Y0019010D01*
X0003570Y0019060D02*
X0003060D01*
X0004100Y0008800D02*
X0003821D01*
X0003110Y0016090D02*
Y0013731D01*
X0003210Y0018840D02*
Y0016260D01*
X0002300Y0015607D02*
Y0015260D01*
Y0017240D02*
Y0016093D01*
X0002390Y0017240D02*
Y0016182D01*
X0002480Y0017240D02*
Y0016231D01*
X0003503Y0017260D02*
X0003210D01*
X0004050Y0016630D02*
X0003210D01*
X0004050Y0016720D02*
X0003210D01*
X0003160Y0016140D02*
X0003014Y0015994D01*
X0005810Y0019169D02*
Y0019018D01*
X0005360Y0009251D02*
Y0003710D01*
X0009870Y0016810D02*
X0009210D01*
X0007250Y0021324D02*
Y0019550D01*
X0006964Y0019596D02*
X0007130Y0019430D01*
X0004017Y0017170D02*
X0003210D01*
X0007776Y0014380D02*
X0007540D01*
X0009590Y0018242D02*
Y0018058D01*
X0009500Y0018261D02*
Y0018039D01*
X0009410Y0018304D02*
Y0017996D01*
X0009320Y0018382D02*
Y0017918D01*
X0010310Y0017394D02*
Y0016096D01*
X0009374Y0018970D02*
X0009210D01*
X0009291Y0018880D02*
X0009210D01*
X0009245Y0018790D02*
X0009210D01*
X0009223Y0018700D02*
X0009210D01*
X0009222Y0018610D02*
X0009210D01*
X0009284Y0018430D02*
X0009210D01*
X0011590Y0019060D02*
X0010219D01*
X0009241Y0018520D02*
X0009210D01*
X0009387Y0017980D02*
X0009210D01*
X0009410Y0022130D02*
Y0019619D01*
X0010320Y0021850D02*
X0009184D01*
X0009230Y0018560D02*
Y0017740D01*
X0009298Y0017890D02*
X0009210D01*
X0009248Y0017800D02*
X0009210D01*
X0010210Y0005710D02*
X0010486Y0005434D01*
X0009350Y0013480D02*
X0009170D01*
X0009238Y0017530D02*
X0009210D01*
X0009278Y0017440D02*
X0009210D01*
X0009221Y0017620D02*
X0009210D01*
X0007310Y0020590D02*
X0006799D01*
X0011590Y0021130D02*
X0009210D01*
X0009230Y0017560D02*
Y0015930D01*
X0007160Y0019732D02*
Y0019460D01*
X0009870Y0014380D02*
X0009210D01*
X0012100Y0009340D02*
X0010210D01*
X0012100Y0009430D02*
X0010210D01*
X0012100Y0009520D02*
X0010210D01*
X0012100Y0009250D02*
X0010210D01*
X0012100Y0006640D02*
X0011039D01*
X0007310Y0020140D02*
X0006880D01*
X0009870Y0014290D02*
X0009210D01*
X0007310Y0021263D02*
Y0019610D01*
X0009730Y0018070D02*
X0009210D01*
X0006808Y0021324D02*
X0006799D01*
X0005990Y0019630D02*
Y0018846D01*
X0009334Y0019240D02*
X0009210D01*
X0009751Y0018160D02*
X0009210D01*
X0011590Y0020410D02*
X0009210D01*
X0007310Y0019690D02*
X0007134D01*
X0009870Y0013930D02*
X0009210D01*
X0009870Y0014020D02*
X0009210D01*
X0009870Y0013840D02*
X0009210D01*
X0007210Y0014230D02*
X0007418Y0014022D01*
X0012100Y-0000110D02*
X-0004000D01*
X0006870Y0014290D02*
X0006390D01*
X0006800Y0021324D02*
Y0020220D01*
X0006050Y0018610D02*
X0006038D01*
X0009298Y0005290D02*
X0005230D01*
X0009105Y0013415D02*
Y0013180D01*
X0006056Y0004930D02*
X0005230D01*
X0006050Y0019570D02*
Y0010970D01*
Y0018970D02*
X0005886D01*
X0006050Y0018880D02*
X0005969D01*
X0006050Y0018790D02*
X0006015D01*
X0006050Y0017620D02*
X0006039D01*
X0006050Y0018430D02*
X0005976D01*
X0009285Y0019330D02*
X0009210D01*
X0005720Y0019137D02*
Y0019050D01*
X0004870Y0018250D02*
X0004720D01*
X0009870Y0014200D02*
X0009210D01*
X0004050Y0011860D02*
X0003920D01*
X0006050Y0018340D02*
X0005898D01*
X0006050Y0018700D02*
X0006037D01*
X0006050Y0017980D02*
X0005873D01*
X0006050Y0017710D02*
X0006036D01*
X0006050Y0013300D02*
X0006011D01*
X0006050Y0017530D02*
X0006022D01*
X0006050Y0017440D02*
X0005982D01*
X0005990Y0018454D02*
Y0017846D01*
X0005900Y0018341D02*
Y0017958D01*
X0004050Y0012670D02*
X0003350D01*
X0005720Y0018250D02*
Y0018050D01*
X0005630Y0018240D02*
Y0018060D01*
X0005540Y0018250D02*
Y0018050D01*
X0005450Y0018282D02*
Y0018018D01*
X0004460Y0009150D02*
Y0008920D01*
X0005810Y0018282D02*
Y0018018D01*
X-0003830Y0018430D02*
X-0004000D01*
X0005900Y0009251D02*
Y0006279D01*
X0005990Y0009364D02*
Y0006282D01*
X0010359Y0021940D02*
X0009100D01*
X0008257Y0007450D02*
X0005230D01*
X0001510Y0011680D02*
X0000664D01*
X0011300Y0016270D02*
Y0013842D01*
X0011390Y0016360D02*
Y0013839D01*
X0011480Y0016450D02*
Y0013797D01*
X0006050Y0017890D02*
X0005962D01*
X0004220Y0009790D02*
X0004110D01*
X0004540Y0018250D02*
X0003720D01*
X0001897Y0009340D02*
X0001740D01*
X0003200Y0013330D02*
Y0012820D01*
X0004820Y0018287D02*
Y0018013D01*
X0004730Y0018252D02*
Y0018048D01*
X0004640Y0018240D02*
Y0018060D01*
X0004550Y0018248D02*
Y0018052D01*
X0004460Y0018277D02*
Y0018023D01*
X0004370Y0018333D02*
Y0017967D01*
X0004280Y0018436D02*
Y0017863D01*
X0003920Y0011860D02*
Y0011526D01*
X0004284Y0018430D02*
X0003976D01*
X0004362Y0018340D02*
X0003898D01*
X0003830Y0011792D02*
Y0011409D01*
X0006032Y0004570D02*
X0005230D01*
X0003470Y0019150D02*
Y0019027D01*
X0003380Y0019150D02*
Y0018975D01*
X0003290Y0019150D02*
Y0018879D01*
X0000751Y0021040D02*
X0000581D01*
X0004387Y0017980D02*
X0003873D01*
X0004298Y0017890D02*
X0003962D01*
X0004248Y0017800D02*
X0004011D01*
X0004224Y0017710D02*
X0004036D01*
X0004221Y0017620D02*
X0004039D01*
X0004010Y0017181D02*
Y0016004D01*
X0004118Y0017530D02*
X0004022D01*
X0004014Y0017440D02*
X0003982D01*
X0004010Y0018496D02*
Y0017804D01*
X0003920Y0018360D02*
Y0017940D01*
X0003830Y0018292D02*
Y0018008D01*
X0003362Y0018340D02*
X0003210D01*
X0003650Y0018240D02*
Y0018059D01*
X0003560Y0018246D02*
Y0018054D01*
X0003470Y0018272D02*
Y0018027D01*
X0003380Y0018325D02*
Y0017975D01*
X0003740Y0018255D02*
Y0018045D01*
X0003374Y0018970D02*
X0003150D01*
X0003245Y0018790D02*
X0003210D01*
X0003223Y0018700D02*
X0003210D01*
X-0000139Y0010510D02*
X-0001110D01*
X0004110Y0018520D02*
X0004019D01*
X0003222Y0018610D02*
X0003210D01*
X0003387Y0017980D02*
X0003210D01*
X0003298Y0017890D02*
X0003210D01*
X0003248Y0017800D02*
X0003210D01*
X0003224Y0017710D02*
X0003210D01*
X0003200Y0019150D02*
Y0018897D01*
X0003238Y0017530D02*
X0003210D01*
X0003278Y0017440D02*
X0003210D01*
X-0003830Y0018700D02*
X-0004000D01*
X0003291Y0018880D02*
X0003205D01*
X0003221Y0017620D02*
X0003210D01*
X-0000758Y0007450D02*
X-0001110D01*
X0001590Y0007720D02*
X-0001110D01*
X0012100Y0005470D02*
X0010450D01*
X0012100Y0005380D02*
X0010873D01*
X0012100Y0005290D02*
X0010962D01*
X0012100Y0005650D02*
X0010270D01*
X0012100Y0005110D02*
X0011036D01*
X0012100Y0005020D02*
X0011039D01*
X0012100Y0004930D02*
X0011022D01*
X0012100Y0004840D02*
X0010982D01*
X0008220Y0006280D02*
X0008120D01*
X0010313Y0007360D02*
X0010210D01*
X0011030Y0006530D02*
Y0005140D01*
X0010760Y0006231D02*
Y0005439D01*
X0010670Y0006212D02*
Y0005458D01*
X0010580Y0006213D02*
Y0005457D01*
X0010490Y0006235D02*
Y0005435D01*
X0012100Y0004750D02*
X0010909D01*
X0012100Y0003850D02*
X0010988D01*
X0012100Y0003760D02*
X0010920D01*
X0012100Y0003670D02*
X0010784D01*
X0012100Y0004390D02*
X0010859D01*
X0012100Y0004300D02*
X0010955D01*
X0012100Y0004210D02*
X0011007D01*
X0012100Y0004120D02*
X0011034D01*
X0012100Y0004030D02*
X0011039D01*
X0010350Y0004750D02*
X0009909D01*
X0011030Y0004960D02*
Y0004140D01*
X0010940Y0004782D02*
Y0004318D01*
X0010850Y0004704D02*
Y0004396D01*
X0010760Y0004661D02*
Y0004439D01*
X0009950Y0005490D02*
Y0005306D01*
X0010580Y0004643D02*
Y0004457D01*
X0010490Y0004665D02*
Y0004435D01*
X0010400Y0004711D02*
Y0004389D01*
X0003200Y0016202D02*
Y0013790D01*
X0007250Y0005370D02*
Y0005210D01*
X0010060Y0005380D02*
X0009873D01*
X0010150Y0005290D02*
X0009962D01*
X0010224Y0005110D02*
X0010036D01*
X0009416Y0007270D02*
X0008843D01*
X0009870Y0006288D02*
Y0005640D01*
Y0005740D02*
X0008120D01*
X0009860Y0006281D02*
Y0005389D01*
X0010221Y0005020D02*
X0010039D01*
X0010238Y0004930D02*
X0010022D01*
X0010278Y0004840D02*
X0009982D01*
X0010670Y0004642D02*
Y0004458D01*
X0009770Y0006235D02*
Y0005435D01*
X0009680Y0006213D02*
Y0005457D01*
X0009590Y0006212D02*
Y0005458D01*
X0009500Y0006231D02*
Y0005439D01*
X0009410Y0006274D02*
Y0005396D01*
X0010310Y0004794D02*
Y0004306D01*
X0010272Y0003850D02*
X0010040D01*
X0010340Y0003760D02*
X0010040D01*
X0010476Y0003670D02*
X0010040D01*
X0010401Y0004390D02*
X0010040D01*
X0010305Y0004300D02*
X0010040D01*
X0010252Y0004210D02*
X0010040D01*
X0010226Y0004120D02*
X0010040D01*
X0010220Y0004030D02*
X0010040D01*
X-0001110Y0005430D02*
X-0000890Y0005210D01*
X0009950Y0004794D02*
Y0004460D01*
X0009860Y0004711D02*
Y0004460D01*
X0009770Y0004665D02*
Y0004460D01*
X0009503Y0004660D02*
X0008785D01*
X0009590Y0004642D02*
Y0004460D01*
X0009500Y0004661D02*
Y0004460D01*
X0009410Y0004704D02*
Y0004460D01*
X0009320Y0004782D02*
Y0004460D01*
X0005230Y0013340D02*
Y0013240D01*
X0005990Y0017454D02*
Y0013346D01*
X0005900Y0017341D02*
Y0013458D01*
X0005432Y0016180D02*
X0005390D01*
X0005720Y0014536D02*
Y0013550D01*
X0005630Y0014391D02*
Y0013560D01*
X0005540Y0014347D02*
Y0013550D01*
X-0003830Y0013030D02*
X-0004000D01*
X0006050Y0015100D02*
X0005390D01*
X0006050Y0014560D02*
X0005724D01*
X0006050Y0013390D02*
X0005962D01*
X0006050Y0016360D02*
X0005824D01*
X0006050Y0013210D02*
X0006036D01*
X0006050Y0012130D02*
X0006039D01*
X0006050Y0013030D02*
X0006022D01*
X0009870Y0012220D02*
X0008220D01*
X0009320Y0003640D02*
Y-0000200D01*
X0005230Y0013060D02*
Y0012240D01*
X0005990Y0012954D02*
Y0012346D01*
X0005900Y0012841D02*
Y0012458D01*
X0005810Y0012782D02*
Y0012518D01*
X0005720Y0012750D02*
Y0012550D01*
X0005630Y0012740D02*
Y0012560D01*
X0005540Y0012750D02*
Y0012550D01*
X0005450Y0012782D02*
Y0012518D01*
X0005360Y0012841D02*
Y0012458D01*
X0006050Y0013120D02*
X0006039D01*
X0006050Y0012490D02*
X0005859D01*
X0006050Y0012400D02*
X0005955D01*
X0006050Y0012310D02*
X0006007D01*
X0006050Y0012220D02*
X0006034D01*
X0006050Y0012760D02*
X0005756D01*
X0006050Y0012040D02*
X0006025D01*
X0006050Y0011950D02*
X0005988D01*
X0006050Y0011860D02*
X0005920D01*
X0005270Y0012954D02*
Y0012346D01*
X0006050Y0013660D02*
X0005030D01*
X0004740Y0010830D02*
X0004310D01*
X0005180Y0014045D02*
Y0013460D01*
X0006050Y0011680D02*
X0005230D01*
X0005401Y0012490D02*
X0005230D01*
X0006050Y0012580D02*
X0005230D01*
X0005238Y0013030D02*
X0005230D01*
X0005278Y0012940D02*
X0005230D01*
X0006050Y0014200D02*
X0005335D01*
X0003979Y0017350D02*
X0003909D01*
X0004050Y0014560D02*
X0003920D01*
X0006050Y0014110D02*
X0005245D01*
X0004050Y0012850D02*
X0003909D01*
X0005503Y0012760D02*
X0005230D01*
X0005270Y0002870D02*
Y-0000200D01*
X0005305Y0012400D02*
X0005230D01*
X0005252Y0012310D02*
X0005230D01*
X0006050Y0012670D02*
X0005230D01*
X0005272Y0011950D02*
X0005230D01*
X0003350Y0017350D02*
X0003210D01*
X0003476Y0014470D02*
X0003040D01*
X0004010Y0014696D02*
Y0013304D01*
X0003920Y0014560D02*
Y0013440D01*
X0003830Y0014492D02*
Y0013508D01*
X0003740Y0014455D02*
Y0013545D01*
X0003650Y0014440D02*
Y0013559D01*
X0003560Y0014446D02*
Y0013554D01*
X0003130Y0013750D02*
X0002410D01*
X0005340Y0011860D02*
X0005230D01*
X0004050Y0013750D02*
X0003440D01*
X0004050Y0013480D02*
X0003873D01*
X0004050Y0013390D02*
X0003962D01*
X0004050Y0013300D02*
X0004011D01*
X0004050Y0013210D02*
X0004036D01*
X0004050Y0012310D02*
X0004007D01*
X0004050Y0013030D02*
X0004022D01*
X0004050Y0012940D02*
X0003982D01*
X0003108Y0013390D02*
X0002962D01*
X0004010Y0012996D02*
Y0012304D01*
X0003920Y0012860D02*
Y0012440D01*
X0003830Y0012792D02*
Y0012508D01*
X0003740Y0012755D02*
Y0012545D01*
X0003650Y0012740D02*
Y0012559D01*
X0003560Y0012746D02*
Y0012554D01*
X0001510Y0012670D02*
X0001395D01*
X0003470Y0012772D02*
Y0012550D01*
X0004550Y0000294D02*
Y-0000200D01*
X0004050Y0013120D02*
X0004039D01*
X0004050Y0012490D02*
X0003859D01*
X0004050Y0012400D02*
X0003955D01*
X0004050Y0012760D02*
X0003756D01*
X0004050Y0012220D02*
X0004034D01*
X0003380Y0012825D02*
Y0012640D01*
X0003290Y0014621D02*
Y0013805D01*
X0002750Y0014440D02*
Y0013730D01*
X0003248Y0013300D02*
X0003011D01*
X0003224Y0013210D02*
X0003036D01*
X0003221Y0013120D02*
X0003039D01*
X0003238Y0013030D02*
X0003022D01*
X0003278Y0012940D02*
X0002982D01*
X0003230Y0012310D02*
X0003040D01*
X-0003830Y0011950D02*
X-0004000D01*
X-0003830Y0014920D02*
X-0004000D01*
X0002480Y0014440D02*
Y0013730D01*
X0003020Y0013390D02*
Y0013276D01*
X0002930Y0014440D02*
Y0013730D01*
X0002840Y0014440D02*
Y0013730D01*
X0003020Y0014440D02*
Y0013730D01*
X0002660Y0014440D02*
Y0013730D01*
X0003040Y0012910D02*
X0002962D01*
X-0003830Y0013210D02*
X-0004000D01*
X0001510Y0012850D02*
X0001379D01*
X0002930Y0012570D02*
Y0012560D01*
X0002840Y0012570D02*
Y0012560D01*
X0002750Y0012570D02*
Y0012560D01*
X0002660Y0012570D02*
Y0012560D01*
X0002570Y0012570D02*
Y0012560D01*
X0002480Y0012570D02*
Y0012560D01*
X0001150Y0000700D02*
X-0004000D01*
X0003290Y0012921D02*
Y0012730D01*
X0003050Y0012490D02*
X0003040D01*
X0003140Y0012400D02*
X0003040D01*
X0003226Y0012220D02*
X0003040D01*
X0003220Y0012130D02*
X0003040D01*
X0003235Y0012040D02*
X0003040D01*
X0003272Y0011950D02*
X0003040D01*
X0003340Y0011860D02*
X0003040D01*
X0002300Y0012570D02*
Y0012560D01*
X0010350Y0017350D02*
X0010210D01*
X0006050Y0014470D02*
X0005696D01*
X0011030Y0016000D02*
Y0015930D01*
X0010940Y0017382D02*
Y0016390D01*
X0010760Y0017261D02*
Y0016229D01*
X0010670Y0017242D02*
Y0016248D01*
X0010580Y0017243D02*
Y0016247D01*
X0010490Y0017265D02*
Y0016225D01*
X0010400Y0017311D02*
Y0016179D01*
X0010850Y0017304D02*
Y0016300D01*
X0012100Y0017170D02*
X0011930D01*
X0012100Y0016180D02*
X0011210D01*
X0012100Y0014830D02*
X0011040D01*
X0012100Y0015910D02*
X0011034D01*
X0012100Y0015820D02*
X0011039D01*
X0003160Y0012860D02*
X0003486Y0012534D01*
X0011030Y0015750D02*
Y0014930D01*
X0010940Y0015572D02*
Y0015108D01*
X0010850Y0015494D02*
Y0015186D01*
X0010760Y0015451D02*
Y0015229D01*
X0010670Y0015432D02*
Y0015248D01*
X0010580Y0015433D02*
Y0015247D01*
X0010490Y0015455D02*
Y0015225D01*
X0010400Y0015501D02*
Y0015179D01*
X0012100Y0016900D02*
X0011915D01*
X0012100Y0015190D02*
X0010843D01*
X0012100Y0015100D02*
X0010947D01*
X0012100Y0015010D02*
X0011003D01*
X0012100Y0014920D02*
X0011032D01*
X0012100Y0015730D02*
X0011025D01*
X0012100Y0014740D02*
X0011028D01*
X0012100Y0015550D02*
X0010920D01*
X0012100Y0014560D02*
X0010929D01*
X0009350Y0017350D02*
X0009210D01*
X0009870Y0017318D02*
Y0016172D01*
X0010228Y0014920D02*
X0010210D01*
X0009860Y0017311D02*
Y0016179D01*
X0009770Y0017265D02*
Y0016225D01*
X0009680Y0017243D02*
Y0016247D01*
X0009590Y0017242D02*
Y0016248D01*
X0009500Y0017261D02*
Y0016229D01*
X0009410Y0017304D02*
Y0016186D01*
X0009320Y0017382D02*
Y0016108D01*
X0010310Y0015584D02*
Y0015096D01*
X0009870Y0017260D02*
X0009756D01*
X0009870Y0016180D02*
X0009859D01*
X0010305Y0016090D02*
X0010210D01*
X0010401Y0016180D02*
X0010210D01*
X0010226Y0015910D02*
X0010210D01*
X0010267Y0014650D02*
X0010210D01*
X0010235Y0015730D02*
X0010210D01*
X0009870Y0012580D02*
X0009195D01*
X0010330Y0014560D02*
X0010210D01*
X0009870Y0015508D02*
Y0015172D01*
X0010416Y0015190D02*
X0010210D01*
X0009860Y0015501D02*
Y0015179D01*
X0009770Y0015455D02*
Y0015225D01*
X0009680Y0015433D02*
Y0015247D01*
X0009590Y0015432D02*
Y0015248D01*
X0009500Y0015451D02*
Y0015229D01*
X0009410Y0015494D02*
Y0015186D01*
X0009320Y0015572D02*
Y0015108D01*
X0010220Y0005220D02*
Y-0000200D01*
X0010252Y0016000D02*
X0010210D01*
X0009870Y0015190D02*
X0009843D01*
X0010313Y0015100D02*
X0010210D01*
X0010257Y0015010D02*
X0010210D01*
X0010220Y0015820D02*
X0010210D01*
X0010220Y0014830D02*
X0010210D01*
X0010232Y0014740D02*
X0010210D01*
X0010272Y0015640D02*
X0010210D01*
X0009230Y0015750D02*
Y0014930D01*
X0009305Y0016090D02*
X0009210D01*
X0009252Y0016000D02*
X0009210D01*
X0009228Y0014920D02*
X0009210D01*
X0009220Y0015820D02*
X0009210D01*
X0009235Y0015730D02*
X0009210D01*
X0009272Y0015640D02*
X0009210D01*
X0009476Y0015460D02*
X0009210D01*
X0009410Y0003640D02*
Y-0000200D01*
X0009226Y0015910D02*
X0009210D01*
X0009313Y0015100D02*
X0009210D01*
X0009257Y0015010D02*
X0009210D01*
X0009416Y0015190D02*
X0009210D01*
X0009220Y0014830D02*
X0009210D01*
X0009232Y0014740D02*
X0009210D01*
X0009267Y0014650D02*
X0009210D01*
X0011590Y0019780D02*
X0009210D01*
X0011590Y0020140D02*
X0009210D01*
X0009330Y0014560D02*
X0009210D01*
X0011590Y0020680D02*
X0009210D01*
X0011590Y0020590D02*
X0009210D01*
X0008420Y0006210D02*
Y0004980D01*
X0008095Y0014470D02*
X0007807D01*
X0006870Y0014250D02*
X0006724Y0014105D01*
X0012100Y0007360D02*
X0010947D01*
X0007610Y0013970D02*
Y0013589D01*
X0006050Y0017260D02*
X0005800D01*
X0006050Y0011770D02*
X0005784D01*
X-0003830Y0017440D02*
X-0004000D01*
X0007870Y0011950D02*
X0006390D01*
X-0003830Y0019780D02*
X-0004000D01*
X-0002830Y0023500D02*
Y0022430D01*
X-0000144Y0009520D02*
X-0001110D01*
X0002480Y0002368D02*
Y0000450D01*
X0009320Y0023500D02*
Y0022470D01*
X0007005Y0021324D02*
X0006808D01*
X0007300Y0019600D02*
X0006989D01*
X0007041Y0021910D02*
Y0021324D01*
X0011300Y0023500D02*
Y0022459D01*
X0009860Y0022130D02*
Y0019616D01*
X0011480Y0013402D02*
Y-0000200D01*
X0002220Y0012220D02*
X0001850D01*
X0011590Y0019600D02*
X0010116D01*
X0008600Y0002760D02*
Y-0000200D01*
X0009680Y0018243D02*
Y0018057D01*
X0010291Y0018880D02*
X0010140D01*
X0007790Y0014462D02*
Y0014382D01*
X0001510Y0011500D02*
X0000632D01*
X-0001814Y0021670D02*
X-0003490D01*
X-0001120Y0021416D02*
Y0016784D01*
X0000590Y0021910D02*
Y0021401D01*
X0001940Y0012740D02*
Y0011080D01*
X0003815Y0011320D02*
X0001850D01*
X0001517Y0011050D02*
X-0000461D01*
X0001220Y0013198D02*
Y0012977D01*
X0001510Y0012760D02*
X0001404D01*
X0012100Y0003130D02*
X0008785D01*
X0001040Y0014737D02*
Y0012954D01*
X0001310Y0014605D02*
Y0013730D01*
X0002010Y0012670D02*
X0001850D01*
X0001220Y0014603D02*
Y0013481D01*
X0002220Y0012400D02*
X0001850D01*
X0002220Y0012490D02*
X0001850D01*
X0001261Y0013660D02*
X-0000720D01*
X0002220Y0011770D02*
X0001850D01*
X0002220Y0011860D02*
X0001850D01*
X0001337Y0016360D02*
X0000516D01*
X0001337Y0014612D02*
Y0013758D01*
X0009410Y0019181D02*
Y0018996D01*
X0005090Y0003370D02*
Y0003210D01*
X0003677Y0002770D02*
X0003489D01*
X0003606Y0001780D02*
X0003301D01*
X0003521Y0001690D02*
X0003386D01*
X0003475Y0001600D02*
X0003432D01*
X0004263D02*
X0004219D01*
X0004308Y0001690D02*
X0004174D01*
X0003477Y0001330D02*
X0003430D01*
X0001150Y0000610D02*
X-0004000D01*
X0003380Y0002295D02*
Y0001699D01*
X0003290Y0002295D02*
Y0001788D01*
X0003200Y0002295D02*
Y0001837D01*
X0003470Y0002304D02*
Y0001584D01*
X0003020Y0002295D02*
Y0001860D01*
X0002930Y0002295D02*
Y0001840D01*
X0002840Y0002295D02*
Y0001795D01*
X0005299Y0001150D02*
X0004870D01*
X0005990Y0000708D02*
Y-0000200D01*
X0005292Y0001060D02*
X0004742D01*
X0005304Y0000970D02*
X0004903D01*
X0005336Y0000880D02*
X0004975D01*
X0005810Y0000635D02*
Y-0000200D01*
X0005000Y0001317D02*
Y0000830D01*
X0004820Y0001118D02*
Y0001029D01*
X0004730Y0001084D02*
Y0001063D01*
X0004550Y0001081D02*
Y0001066D01*
X0004460Y0001113D02*
Y0001034D01*
X0004370Y0001174D02*
Y0000973D01*
X0004280Y0000506D02*
Y-0000200D01*
X0012100Y0000520D02*
X0004996D01*
X0004190Y0001271D02*
Y0000876D01*
X0003524Y0001240D02*
X0003383D01*
X0004434Y0000340D02*
X0004048D01*
X0004366Y0000970D02*
X0004115D01*
X0004294Y0000880D02*
X0004188D01*
X0005394Y0000790D02*
X0005014D01*
X0003612Y0001150D02*
X0003295D01*
X0004010Y0001107D02*
Y0001040D01*
Y0002958D02*
Y0001827D01*
X0003650Y0001125D02*
Y0001022D01*
X0003560Y0001196D02*
Y0000951D01*
X0000500Y0009174D02*
Y0007012D01*
X0000410Y0009124D02*
Y0007198D01*
X0000320Y0009099D02*
Y0007314D01*
X0000230Y0009096D02*
Y0007398D01*
X0000140Y0009113D02*
Y0007461D01*
X0000050Y0009154D02*
Y0007509D01*
X-0001110Y0009721D02*
Y0006981D01*
X-0000040Y0009228D02*
Y0007544D01*
X-0000130Y0009391D02*
Y0007568D01*
Y0012631D02*
Y0011830D01*
X-0000310Y0011490D02*
Y0007585D01*
X-0000490Y0009875D02*
Y0007563D01*
X-0000580Y0009747D02*
Y0007537D01*
X-0000670Y0009682D02*
Y0007500D01*
X-0000760Y0009647D02*
Y0007449D01*
X-0000850Y0009635D02*
Y0007381D01*
X-0000940Y0009643D02*
Y0007292D01*
X-0001030Y0009672D02*
Y0007166D01*
X-0000400Y0011490D02*
Y0007579D01*
X-0001450Y0007720D02*
X-0004000D01*
X0001076Y0007270D02*
X0000358D01*
X0001590Y0007180D02*
X0001440D01*
X0002840Y0006795D02*
Y0006785D01*
X-0001450Y0006010D02*
X-0004000D01*
X0001056Y0007540D02*
X-0000028D01*
X0001027Y0007450D02*
X0000158D01*
X0008060Y0014071D02*
Y0013374D01*
X0000960Y0006820D02*
X0000541D01*
X0000960Y0006730D02*
X0000545D01*
X0000960Y0006640D02*
X0000539D01*
X0000960Y0006550D02*
X0000523D01*
X0000960Y0006460D02*
X0000497D01*
X0000960Y0006370D02*
X0000460D01*
X0006800Y0002295D02*
Y-0000200D01*
X0001100Y0007090D02*
X0000469D01*
X0001590Y0006280D02*
X0000409D01*
X0001590Y0006190D02*
X0000341D01*
X0001590Y0006100D02*
X0000252D01*
X-0003830Y0017800D02*
X-0004000D01*
X0000770Y0015787D02*
Y0010310D01*
X0000500Y0017568D02*
Y0016852D01*
X0000410Y0017555D02*
Y0017038D01*
X-0003854Y0008350D02*
X-0004000D01*
X0000140Y0018617D02*
Y0017301D01*
X-0001840Y0022090D02*
Y0021839D01*
X-0000310Y0021910D02*
Y0017425D01*
X-0000400Y0021910D02*
Y0017419D01*
X-0000220Y0021910D02*
Y0017421D01*
X0001510Y0012400D02*
X0000480D01*
X-0000670Y0021392D02*
Y0017340D01*
X-0000760Y0021292D02*
Y0017289D01*
X-0000850Y0021258D02*
Y0017221D01*
X-0000940Y0021260D02*
Y0017132D01*
X-0001030Y0021299D02*
Y0017006D01*
X-0003830Y0013750D02*
X-0004000D01*
X0005360Y0000837D02*
Y-0000200D01*
X0001337Y0017260D02*
X0000202D01*
X0001337Y0016000D02*
X0000924D01*
X0001337Y0017170D02*
X0000305D01*
X0001337Y0017080D02*
X0000381D01*
X0001337Y0016900D02*
X0000482D01*
X0001510Y0012940D02*
X0001301D01*
X0001337Y0016810D02*
X0000513D01*
X0001337Y0016720D02*
X0000533D01*
X0001510Y0011770D02*
X0000650D01*
X0001510Y0012580D02*
X0001345D01*
X0000500Y0016308D02*
Y0016181D01*
X0001510Y0012130D02*
X-0000461D01*
X0002220Y0011950D02*
X0001850D01*
X0000230Y0018621D02*
Y0017955D01*
X-0002920Y0022090D02*
Y-0000200D01*
X-0001110Y0010801D02*
Y0010359D01*
X-0000490Y0010955D02*
Y0010205D01*
X-0000580Y0010827D02*
Y0010333D01*
X-0000670Y0010762D02*
Y0010398D01*
X-0000760Y0010727D02*
Y0010432D01*
X-0000850Y0010715D02*
Y0010445D01*
X-0000940Y0010723D02*
Y0010437D01*
X-0001030Y0010752D02*
Y0010408D01*
X-0003830Y0010780D02*
X-0004000D01*
X-0000572Y0007540D02*
X-0001110D01*
X-0000112Y0010420D02*
X-0000720D01*
X-0000059Y0010330D02*
X-0000577D01*
X0000040Y0010240D02*
X-0000508D01*
X0000860Y0004870D02*
Y-0000200D01*
X0000450Y0010150D02*
X-0000470D01*
X0000540Y0010060D02*
X-0000455D01*
X0000120Y0009880D02*
X-0000488D01*
X-0000023Y0009790D02*
X-0000541D01*
X-0000092Y0009700D02*
X-0000640D01*
X-0000220Y0011490D02*
Y0007581D01*
X-0000490Y0011490D02*
Y0011285D01*
X-0000580Y0011490D02*
Y0011413D01*
X-0000670Y0011490D02*
Y0011478D01*
X-0003830Y0010330D02*
X-0004000D01*
X-0000059Y0011410D02*
X-0000577D01*
X0000040Y0011320D02*
X-0000508D01*
X0001510Y0011590D02*
X0000659D01*
X0000120Y0010960D02*
X-0000488D01*
X-0000023Y0010870D02*
X-0000541D01*
X-0000092Y0010780D02*
X-0000640D01*
X-0000490Y0013115D02*
Y0012365D01*
X-0000580Y0012987D02*
Y0012493D01*
X-0000670Y0012922D02*
Y0012558D01*
X-0000760Y0012887D02*
Y0012592D01*
X-0000850Y0012875D02*
Y0012605D01*
X-0000940Y0012883D02*
Y0012597D01*
X-0001030Y0012912D02*
Y0012568D01*
X-0001120Y0012969D02*
Y0012510D01*
X-0001210Y0013076D02*
Y0012404D01*
X0000120Y0012040D02*
X-0000488D01*
X-0000023Y0011950D02*
X-0000541D01*
X-0000112Y0012580D02*
X-0000720D01*
X-0000059Y0012490D02*
X-0000577D01*
X0000040Y0012400D02*
X-0000508D01*
X0001330Y0013750D02*
X-0003490D01*
X0001178Y0013300D02*
X-0000455D01*
X0001510Y0012220D02*
X-0000455D01*
X-0000092Y0011860D02*
X-0000640D01*
X-0001030Y0006314D02*
Y0005350D01*
X-0000490Y0015757D02*
Y0013445D01*
X-0000580Y0015783D02*
Y0013573D01*
X-0000670Y0015820D02*
Y0013638D01*
X-0000760Y0015871D02*
Y0013672D01*
X-0000850Y0015938D02*
Y0013685D01*
X-0000940Y0016028D02*
Y0013677D01*
X-0001030Y0016154D02*
Y0013648D01*
X-0000490Y0021910D02*
Y0017403D01*
X0000120Y0013120D02*
X-0000488D01*
X-0000023Y0013030D02*
X-0000541D01*
X-0003830Y0014020D02*
X-0004000D01*
X0001337Y0015280D02*
X-0003490D01*
X0001490Y0013105D02*
Y0009590D01*
X0001510Y0012310D02*
X-0000470D01*
X0001510Y0011320D02*
X0000480D01*
X-0000092Y0012940D02*
X-0000640D01*
X0000230Y0017645D02*
Y0017238D01*
X-0001450Y0006100D02*
X-0004000D01*
X0000590Y0017623D02*
Y0016243D01*
X0000410Y0016122D02*
Y0013116D01*
X0000320Y0016006D02*
Y0013140D01*
X0000230Y0015922D02*
Y0013144D01*
X0000140Y0015859D02*
Y0013127D01*
X0001337Y0016990D02*
X0000439D01*
X0001337Y0014380D02*
X-0003490D01*
X0001940Y0004870D02*
Y0003710D01*
X0001018Y0012940D02*
X0000612D01*
X0000941Y0012850D02*
X0000650D01*
X0006050Y0012940D02*
X0005982D01*
X0000916Y0012760D02*
X0000664D01*
X0001337Y0016450D02*
X0000535D01*
X0001510Y0012490D02*
X0000579D01*
X-0003830Y0016000D02*
X-0004000D01*
X-0000040Y0015776D02*
Y0013012D01*
X0001337Y0016540D02*
X0000544D01*
X0001510Y0012040D02*
X0000400D01*
X0001510Y0011950D02*
X0000543D01*
X0001510Y0011860D02*
X0000612D01*
X0003110Y0013388D02*
Y0012895D01*
X-0003830Y0013300D02*
X-0004000D01*
X0000590Y0012505D02*
Y0011895D01*
X0000500Y0012414D02*
Y0011986D01*
X0000410Y0012364D02*
Y0012036D01*
X0000320Y0012339D02*
Y0012060D01*
X-0003830Y0013480D02*
X-0004000D01*
X-0000040Y0012468D02*
Y0011932D01*
X0004010Y0011996D02*
Y0011786D01*
X0001510Y0011140D02*
X-0000455D01*
X0008240Y0012240D02*
Y0011291D01*
X-0003830Y0017710D02*
X-0004000D01*
X0000590Y0011425D02*
Y0010815D01*
X0000500Y0011334D02*
Y0010906D01*
X0000410Y0011284D02*
Y0010956D01*
X0000230Y0012336D02*
Y0012064D01*
X-0000040Y0011388D02*
Y0010852D01*
X0004890Y0007090D02*
X0004480D01*
X0001580Y0010960D02*
X0000400D01*
X0003470Y0008746D02*
Y0007276D01*
X0003830Y0011241D02*
Y0010830D01*
X0001830Y0010420D02*
X0000660D01*
X0001590Y0009010D02*
Y0005860D01*
X0004220Y0009520D02*
X0004110D01*
X0001830Y0010600D02*
X0000664D01*
X-0001450Y0007810D02*
X-0004000D01*
X0000590Y0010010D02*
Y0009735D01*
X0000500Y0010100D02*
Y0009826D01*
X0000320Y0010179D02*
Y0009900D01*
X0000230Y0010176D02*
Y0009904D01*
X0000140Y0010193D02*
Y0009887D01*
X0000400Y0010200D02*
X0001590Y0009010D01*
X-0000040Y0010308D02*
Y0009772D01*
X0000410Y0010190D02*
Y0009876D01*
X0000720Y0009880D02*
X0000400D01*
X0000810Y0009790D02*
X0000543D01*
X0000900Y0009700D02*
X0000612D01*
X0000990Y0009610D02*
X0000650D01*
X0001080Y0009520D02*
X0000664D01*
X0001170Y0009430D02*
X0000659D01*
X0001260Y0009340D02*
X0000632D01*
X0001350Y0009250D02*
X0000579D01*
X0006050Y0015280D02*
X0005390D01*
X0002210Y0009426D02*
Y0005710D01*
X0001337Y0017800D02*
X0000665D01*
X0001310Y0019520D02*
Y0018805D01*
X0001040Y0019127D02*
Y0018673D01*
X0001130Y0019161D02*
Y0018773D01*
X0005298Y0013390D02*
X0005222D01*
X0001220Y0019261D02*
Y0018807D01*
X0001337Y0018070D02*
X-0003490D01*
X0007264Y0021324D02*
X0007041D01*
X0010476Y0022030D02*
X0009010D01*
X0006050Y0017350D02*
X0005909D01*
X-0003830Y0013840D02*
X-0004000D01*
X0004050Y0015550D02*
X0003909D01*
X0001220Y0019518D02*
Y0019477D01*
X-0003830Y0009430D02*
X-0004000D01*
X0004050Y0016360D02*
X0003210D01*
X0004050Y0016180D02*
X0003873D01*
X0004050Y0016090D02*
X0003962D01*
X0004050Y0016000D02*
X0004011D01*
X0004050Y0015910D02*
X0004036D01*
X0004050Y0015820D02*
X0004039D01*
X0004050Y0015730D02*
X0004022D01*
X0004050Y0015640D02*
X0003982D01*
X0004050Y0014380D02*
X0002210D01*
X0003920Y0017360D02*
Y0016140D01*
X0003830Y0017292D02*
Y0016208D01*
X0003740Y0017255D02*
Y0016245D01*
X0003650Y0017240D02*
Y0016259D01*
X0003560Y0017246D02*
Y0016254D01*
X0003470Y0017272D02*
Y0016227D01*
X0003380Y0017325D02*
Y0016175D01*
X0003290Y0017421D02*
Y0016079D01*
X0004050Y0015460D02*
X0003756D01*
X0004050Y0015190D02*
X0003859D01*
X0004050Y0015100D02*
X0003955D01*
X0004050Y0015010D02*
X0004007D01*
X0004050Y0014920D02*
X0004034D01*
X0004050Y0014830D02*
X0004039D01*
X0004050Y0014740D02*
X0004025D01*
X0004050Y0014650D02*
X0003988D01*
X0003503Y0015460D02*
X0002756D01*
X0004010Y0015696D02*
Y0015004D01*
X0003920Y0015560D02*
Y0015140D01*
X0003830Y0015492D02*
Y0015208D01*
X0003740Y0015455D02*
Y0015245D01*
X0003650Y0015440D02*
Y0015259D01*
X0003560Y0015446D02*
Y0015254D01*
X0003470Y0015472D02*
Y0015227D01*
X0003380Y0015525D02*
Y0015175D01*
X0005475Y0014340D02*
X0005030Y0013895D01*
X0002810Y0016270D02*
X0002210D01*
X0004050D02*
X0003210D01*
X0003298Y0016090D02*
X0003110D01*
X0003224Y0015910D02*
X0003036D01*
X0003221Y0015820D02*
X0003039D01*
X0003238Y0015730D02*
X0003022D01*
X0003278Y0015640D02*
X0002982D01*
X0003350Y0015550D02*
X0002909D01*
X0003248Y0016000D02*
X0003020D01*
Y0015976D01*
X0004050Y0016450D02*
X0003210D01*
X0002750Y0017240D02*
Y0016242D01*
X0002660Y0017240D02*
Y0016259D01*
X0002570Y0017240D02*
Y0016256D01*
X0003290Y0015621D02*
Y0015079D01*
X0003401Y0015190D02*
X0003040D01*
X0003305Y0015100D02*
X0003040D01*
X0003252Y0015010D02*
X0003040D01*
X0003226Y0014920D02*
X0003040D01*
X0003220Y0014830D02*
X0003040D01*
X0003235Y0014740D02*
X0003040D01*
X0003272Y0014650D02*
X0003040D01*
X0003340Y0014560D02*
X0003040D01*
X-0003830Y0015730D02*
X-0004000D01*
X0003020Y0015723D02*
Y0015260D01*
X0002930Y0015570D02*
Y0015260D01*
X0002840Y0015498D02*
Y0015260D01*
X0002750Y0015458D02*
Y0015260D01*
X0002660Y0015441D02*
Y0015260D01*
X0002570Y0015444D02*
Y0015260D01*
X0002480Y0015468D02*
Y0015260D01*
X0002390Y0015518D02*
Y0015260D01*
X0009870Y0011230D02*
X0008271D01*
X0009870Y0009880D02*
X0008886D01*
X0009870Y0009790D02*
X0008969D01*
X0009870Y0009700D02*
X0009015D01*
X0009870Y0009610D02*
X0009037D01*
X0009870Y0009520D02*
X0009038D01*
X0009870Y0009430D02*
X0009019D01*
X0009870Y0009340D02*
X0008976D01*
X0009870Y0009250D02*
X0008898D01*
X0009140Y0012546D02*
Y-0000200D01*
X0008960Y0012456D02*
Y0009803D01*
X0008780Y0012430D02*
Y0009941D01*
X0008690Y0012430D02*
Y0009966D01*
X0008600Y0012430D02*
Y0009969D01*
X0008510Y0012430D02*
Y0009952D01*
X0007870Y0011770D02*
X0006390D01*
X0009870Y0012490D02*
X0009000D01*
X0007430Y0012822D02*
Y0010918D01*
X0007340Y0012890D02*
Y0010850D01*
X0007250Y0013026D02*
Y0010714D01*
X0009870Y0011770D02*
X0008210D01*
X0003790Y0010780D02*
X0002170D01*
X0009870Y0010960D02*
X0008210D01*
X0009870Y0010870D02*
X0008210D01*
X0009870Y0010600D02*
X0008210D01*
X0009870Y0010780D02*
X0008210D01*
X0009870Y0010690D02*
X0008210D01*
X0008150Y0010230D02*
Y0004890D01*
X0003660Y0007160D02*
X0003858Y0006962D01*
X0009870Y0010510D02*
X0008210D01*
X0007700Y0012776D02*
Y0010964D01*
X0007610Y0012770D02*
Y0010969D01*
X0007520Y0012785D02*
Y0010955D01*
X0008240Y0009433D02*
Y0007746D01*
X0007430Y0009970D02*
Y0009918D01*
X0002390Y0014440D02*
Y0013770D01*
X0008374Y0009880D02*
X0007886D01*
X0008291Y0009790D02*
X0007969D01*
X0008245Y0009700D02*
X0008015D01*
X0008223Y0009610D02*
X0008037D01*
X0008222Y0009520D02*
X0008038D01*
X0008241Y0009430D02*
X0008019D01*
X0008284Y0009340D02*
X0007976D01*
X0009870Y0010060D02*
X0007980D01*
X0008362Y0009250D02*
X0007898D01*
X0007241Y0010690D02*
X0007019D01*
X0006260Y0010383D02*
Y0010310D01*
X0007160Y0014060D02*
Y0010310D01*
X0007430Y0014010D02*
Y0013538D01*
X0006890Y0013683D02*
Y0010877D01*
X0006800Y0013628D02*
Y0010933D01*
X0006710Y0013615D02*
Y0010962D01*
X0006620Y0013636D02*
Y0010970D01*
X0006440Y0014430D02*
Y0010990D01*
X0006305Y0010310D02*
X0006120D01*
X0007340Y0009970D02*
Y0009850D01*
X0007540Y0010960D02*
X0006720D01*
X0007362Y0010870D02*
X0006898D01*
X0007284Y0010780D02*
X0006976D01*
X0007250Y0009970D02*
Y0009714D01*
X0007222Y0010600D02*
X0007038D01*
X0007223Y0010510D02*
X0007037D01*
X0007245Y0010420D02*
X0007015D01*
X0007520Y0009165D02*
Y0006620D01*
X0006910Y0009260D02*
Y0008139D01*
X0007540Y0009160D02*
X0007250D01*
X0006980Y0010346D02*
Y0010310D01*
X0006890Y0009970D02*
Y0009877D01*
X0006800Y0009970D02*
Y0009933D01*
X0007070Y0013970D02*
Y0010310D01*
X0009870Y0016270D02*
X0009210D01*
X0006530Y0009970D02*
Y0009958D01*
X0006910Y0008260D02*
X0005120D01*
X0006910Y0009880D02*
X0006886D01*
X0007291Y0009790D02*
X0007250D01*
X0007374Y0009880D02*
X0007250D01*
X0009870Y0008260D02*
X0007250D01*
X0009870Y0008350D02*
X0007250D01*
X0009870Y0008440D02*
X0007250D01*
X0006170Y0009970D02*
Y0006761D01*
X0006890Y0007808D02*
Y0006785D01*
X0009870Y0016540D02*
X0009210D01*
X0007795Y0011140D02*
X0006390D01*
X0007808Y0011230D02*
X0006390D01*
X0006050Y0010960D02*
X0005720D01*
X0006241Y0010690D02*
X0006019D01*
X0006222Y0010600D02*
X0006038D01*
X0006223Y0010510D02*
X0006037D01*
X0006245Y0010420D02*
X0006015D01*
X0008160Y0010240D02*
X0007942Y0010022D01*
X0005990Y0011954D02*
Y0010756D01*
X0005900Y0011841D02*
Y0010868D01*
X0005810Y0011782D02*
Y0010928D01*
X0001590Y0008890D02*
X-0001110D01*
X0005890Y0010060D02*
X0004110D01*
X0006260Y0009970D02*
Y0009737D01*
X0006291Y0010330D02*
X0006100D01*
X0005720Y0010160D02*
Y0009960D01*
X0005630Y0010150D02*
Y0009970D01*
X0005540Y0010160D02*
Y0009960D01*
X0005450Y0010192D02*
Y0009928D01*
X0005360Y0010251D02*
Y0009868D01*
X0007620Y0004710D02*
X0007201D01*
X0006374Y0009880D02*
X0005886D01*
X0006291Y0009790D02*
X0005969D01*
X0006245Y0009700D02*
X0006015D01*
X0006223Y0009610D02*
X0006037D01*
X0006222Y0009520D02*
X0006038D01*
X0006241Y0009430D02*
X0006019D01*
X0006284Y0009340D02*
X0005976D01*
X0007250Y0009406D02*
Y0008139D01*
X0004550Y0008350D02*
Y0003710D01*
X0004820Y0010850D02*
Y0009970D01*
X0004640Y0010830D02*
Y0009970D01*
X0004550Y0010830D02*
Y0009970D01*
X0001830Y0010510D02*
X0000659D01*
X0005360Y0002870D02*
Y0001310D01*
X0005374Y0009880D02*
X0005040D01*
X0005291Y0009790D02*
X0005040D01*
X0005245Y0009700D02*
X0005040D01*
X0005223Y0009610D02*
X0005040D01*
X0005222Y0009520D02*
X0005040D01*
X0005241Y0009430D02*
X0005040D01*
X0005284Y0009340D02*
X0005040D01*
X0005362Y0009250D02*
X0005040D01*
X0004310Y0010830D02*
X0004110Y0010630D01*
X0011030Y0013090D02*
Y0007710D01*
X0010940Y0012912D02*
Y0007888D01*
X0010850Y0012834D02*
Y0007966D01*
X0010760Y0012791D02*
Y0008009D01*
X0010670Y0012772D02*
Y0008028D01*
X0010580Y0012773D02*
Y0008027D01*
X0010490Y0012795D02*
Y0008005D01*
X0010400Y0012841D02*
Y0007959D01*
X0010310Y0012924D02*
Y0007876D01*
X0012100Y0009160D02*
X0010210D01*
X0012100Y0007990D02*
X0010807D01*
X0012100Y0007900D02*
X0010929D01*
X0012100Y0007810D02*
X0010993D01*
X0012100Y0007720D02*
X0011028D01*
X0012100Y0011140D02*
X0010210D01*
X0012100Y0007540D02*
X0011032D01*
X0012100Y0006460D02*
X0011007D01*
X0012100Y0005830D02*
X0010210D01*
X0006098Y0006370D02*
X0005230D01*
X0011030Y0007530D02*
Y0006710D01*
X0010940Y0007352D02*
Y0006888D01*
X0010850Y0007274D02*
Y0006966D01*
X0010760Y0007231D02*
Y0007009D01*
X0010670Y0007212D02*
Y0007028D01*
X0010580Y0007213D02*
Y0007027D01*
X0010490Y0007235D02*
Y0007005D01*
X0010400Y0007281D02*
Y0006959D01*
X0012100Y0007630D02*
X0011040D01*
X0012100Y0007000D02*
X0010784D01*
X0012100Y0006910D02*
X0010920D01*
X0012100Y0006820D02*
X0010988D01*
X0012100Y0006730D02*
X0011025D01*
X0012100Y0006010D02*
X0010210D01*
X0012100Y0005920D02*
X0010210D01*
X0012100Y0007270D02*
X0010843D01*
X0012100Y0006370D02*
X0010955D01*
X0009870Y0012848D02*
Y0007952D01*
X0010235Y0006730D02*
X0010210D01*
X0009860Y0012841D02*
Y0007959D01*
X0009770Y0012795D02*
Y0008005D01*
X0009680Y0012773D02*
Y0008027D01*
X0009590Y0012772D02*
Y0008028D01*
X0009500Y0012791D02*
Y0008009D01*
X0009410Y0012834D02*
Y0007966D01*
X0009320Y0012912D02*
Y0007888D01*
X0010310Y0007364D02*
Y0006876D01*
X0009870Y0009160D02*
X0008720D01*
X0009870Y0007990D02*
X0009807D01*
X0010330Y0007900D02*
X0010210D01*
X0010267Y0007810D02*
X0010210D01*
X0010453Y0007990D02*
X0010210D01*
X0010220Y0007630D02*
X0010210D01*
X0010228Y0007540D02*
X0010210D01*
X0010252Y0006460D02*
X0010210D01*
X0009870Y0005830D02*
X0008120D01*
X0009870Y0007288D02*
Y0006952D01*
X0010476Y0007000D02*
X0010210D01*
X0009860Y0007281D02*
Y0006959D01*
X0009770Y0007235D02*
Y0007005D01*
X0009680Y0007213D02*
Y0007027D01*
X0009590Y0007212D02*
Y0007028D01*
X0009500Y0007231D02*
Y0007009D01*
X0009410Y0007274D02*
Y0006966D01*
X0009320Y0007352D02*
Y0006888D01*
X0010400Y0006281D02*
Y0005520D01*
X0010232Y0007720D02*
X0010210D01*
X0009870Y0007000D02*
X0009784D01*
X0010340Y0006910D02*
X0010210D01*
X0010272Y0006820D02*
X0010210D01*
X0010257Y0007450D02*
X0010210D01*
X0010220Y0006640D02*
X0010210D01*
X0010226Y0006550D02*
X0010210D01*
X0009870Y0011140D02*
X0008285D01*
X0009230Y0007530D02*
Y0006710D01*
X0009453Y0007990D02*
X0008807D01*
X0009330Y0007900D02*
X0008929D01*
X0009267Y0007810D02*
X0008993D01*
X0009232Y0007720D02*
X0009028D01*
X0009220Y0007630D02*
X0009040D01*
X0009228Y0007540D02*
X0009032D01*
X0009257Y0007450D02*
X0009003D01*
X0009313Y0007360D02*
X0008947D01*
X0008540Y0009160D02*
X0007720D01*
X0008960Y0009317D02*
Y0007863D01*
X0008870Y0009228D02*
Y0007952D01*
X0008780Y0009178D02*
Y0008001D01*
X0008690Y0009154D02*
Y0008026D01*
X0008600Y0009151D02*
Y0008029D01*
X0008510Y0009168D02*
Y0008012D01*
X0008420Y0009208D02*
Y0007972D01*
X0008330Y0009280D02*
Y0007899D01*
X-0003830Y0008980D02*
X-0004000D01*
X0008960Y0007377D02*
Y0007030D01*
X0008870Y0007288D02*
Y0007030D01*
X0008780Y0007238D02*
Y0007030D01*
X0008690Y0007214D02*
Y0007030D01*
X0008600Y0007211D02*
Y0007030D01*
X0008510Y0007228D02*
Y0007030D01*
X0008420Y0007268D02*
Y0007030D01*
X0008330Y0007340D02*
Y0007030D01*
X0009230Y0006530D02*
Y0005140D01*
X0009476Y0007000D02*
X0009040D01*
X0009340Y0006910D02*
X0009040D01*
X0009272Y0006820D02*
X0009040D01*
X0009235Y0006730D02*
X0009040D01*
X0009220Y0006640D02*
X0009040D01*
X0009226Y0006550D02*
X0009040D01*
X0009252Y0006460D02*
X0009040D01*
X0009305Y0006370D02*
X0009040D01*
X0011030Y0014750D02*
Y0013270D01*
X0010940Y0014572D02*
Y0013448D01*
X0010850Y0014494D02*
Y0013526D01*
X0010760Y0014451D02*
Y0013569D01*
X0010670Y0014432D02*
Y0013588D01*
X0010580Y0014433D02*
Y0013587D01*
X0010490Y0014455D02*
Y0013565D01*
X0010400Y0014501D02*
Y0013519D01*
X0010310Y0014584D02*
Y0013436D01*
X0006476Y0013840D02*
X0006390D01*
X0011092Y0013570D02*
X0010756D01*
X0011121Y0013480D02*
X0010909D01*
X0012100Y0013390D02*
X0011461D01*
X0012100Y0013300D02*
X0011022D01*
X0012100Y0013210D02*
X0011039D01*
X0012100Y0013120D02*
X0011036D01*
X0012100Y0017080D02*
X0011930D01*
X0012100Y0012940D02*
X0010962D01*
X0009870Y0014508D02*
Y0013512D01*
X0010238Y0013300D02*
X0010210D01*
X0009860Y0014501D02*
Y0013519D01*
X0009770Y0014455D02*
Y0013565D01*
X0009680Y0014433D02*
Y0013587D01*
X0009590Y0014432D02*
Y0013588D01*
X0009500Y0014451D02*
Y0013569D01*
X0009410Y0014494D02*
Y0013526D01*
X0009320Y0014572D02*
Y0013448D01*
X0009230Y0014750D02*
Y0013270D01*
X0009870Y0013570D02*
X0009756D01*
X0010350Y0013480D02*
X0010210D01*
X0010278Y0013390D02*
X0010210D01*
X0010503Y0013570D02*
X0010210D01*
X0010221Y0013210D02*
X0010210D01*
X0010224Y0013120D02*
X0010210D01*
X0009870Y0014470D02*
X0009807D01*
X0009238Y0013300D02*
X0009105D01*
X0009503Y0013570D02*
X0009209D01*
X0006305Y0010310D02*
X0006120D01*
X0007699Y0013930D02*
X0007030D01*
X0007880Y0013901D02*
Y0013505D01*
X0007790Y0013897D02*
Y0013557D01*
X0007700Y0013929D02*
Y0013584D01*
X0007420Y0014020D02*
X0007120D01*
X0007520Y0014445D02*
Y0014400D01*
Y0013971D02*
Y0013575D01*
X0007340Y0014100D02*
Y0013470D01*
X0008330Y0006210D02*
Y0004980D01*
X0008503Y0013570D02*
X0007756D01*
X0008350Y0013480D02*
X0007909D01*
X0009870Y0006100D02*
X0008120D01*
X0008084Y0013390D02*
X0007982D01*
X0010220Y0022130D02*
Y0005700D01*
X0009224Y0013120D02*
X0009105D01*
X0009500Y0022130D02*
Y0019644D01*
X0011030Y0022130D02*
Y0018740D01*
X0010940Y0022130D02*
Y0018918D01*
X0010850Y0022130D02*
Y0018996D01*
X0011590Y0019330D02*
X0010210D01*
X0011590Y0018970D02*
X0010886D01*
X0011590Y0018880D02*
X0010969D01*
X0011590Y0018790D02*
X0011015D01*
X0011590Y0018700D02*
X0011037D01*
X0011590Y0017620D02*
X0011039D01*
X0011590Y0018520D02*
X0011019D01*
X0011590Y0018430D02*
X0010976D01*
X0011590Y0018340D02*
X0010898D01*
X0010760Y0021658D02*
Y0019039D01*
X0010670Y0021581D02*
Y0019058D01*
X0010580Y0021556D02*
Y0019057D01*
X0010490Y0021565D02*
Y0019035D01*
X0011590Y0018610D02*
X0011038D01*
X0011590Y0017980D02*
X0010873D01*
X0011590Y0017890D02*
X0010962D01*
X0011590Y0017800D02*
X0011011D01*
X0011590Y0017710D02*
X0011036D01*
X0011590Y0017530D02*
X0011022D01*
X0011590Y0017440D02*
X0010982D01*
X0011590Y0017350D02*
X0010909D01*
X0011030Y0018560D02*
Y0017740D01*
X0010940Y0018382D02*
Y0017918D01*
X0010850Y0018304D02*
Y0017996D01*
X0010310Y0003794D02*
Y-0000200D01*
X0010670Y0018242D02*
Y0018058D01*
X0010580Y0018243D02*
Y0018057D01*
X0010490Y0018265D02*
Y0018035D01*
X0010400Y0018311D02*
Y0017989D01*
X0010760Y0018261D02*
Y0018039D01*
X0010130Y0018871D02*
Y0018250D01*
X0010374Y0018970D02*
X0010202D01*
X0010245Y0018790D02*
X0010015D01*
X0010223Y0018700D02*
X0010037D01*
X0010222Y0018610D02*
X0010038D01*
X0010241Y0018520D02*
X0010019D01*
X0010284Y0018430D02*
X0009976D01*
X0010362Y0018340D02*
X0009898D01*
X0010310Y0022130D02*
Y0018906D01*
X0009789Y0019240D02*
X0009705D01*
X0009729Y0019060D02*
X0009210D01*
X0008870Y0023500D02*
Y0022470D01*
X0009680Y0019214D02*
Y0019057D01*
X0009590Y0019165D02*
Y0019058D01*
X0009500Y0019156D02*
Y0019039D01*
X0011170Y0022130D02*
X0008910D01*
X0010310Y0018394D02*
Y0017906D01*
X0009890Y0005560D02*
X0008120D01*
X0010224Y0017710D02*
X0010210D01*
X0010248Y0013030D02*
X0010210D01*
X0010238Y0017530D02*
X0010210D01*
X0010278Y0017440D02*
X0010210D01*
X0009770Y0018265D02*
Y0018194D01*
X0009362Y0018340D02*
X0009210D01*
X0009770Y0019266D02*
Y0019196D01*
X0009950Y0018394D02*
Y0018304D01*
X0009860Y0018311D02*
Y0018276D01*
X0004890Y0006460D02*
X0004211D01*
X0002454Y0002680D02*
X0001490D01*
X0006050Y0019150D02*
X0005769D01*
X0004190Y0010710D02*
Y0009190D01*
X0005900Y0019262D02*
Y0018958D01*
X0011590Y0019960D02*
X0009210D01*
X0011590Y0019690D02*
X0009210D01*
X0006530Y0013705D02*
Y0010958D01*
X0011210Y0013389D02*
Y-0000200D01*
X0006534Y0014020D02*
X0006390D01*
X0006485Y0013930D02*
X0006390D01*
X0007503Y0013570D02*
X0006390D01*
X0008330Y0012330D02*
Y0009839D01*
X0006501Y0013750D02*
X0006390D01*
X0011590Y0020320D02*
X0009210D01*
X0007963Y0014601D02*
X0008220Y0014345D01*
X0007350Y0013480D02*
X0006390D01*
X0007278Y0013390D02*
X0006390D01*
X0007238Y0013300D02*
X0006390D01*
X0007221Y0013210D02*
X0006390D01*
X0007224Y0013120D02*
X0006390D01*
X0008430Y0012430D02*
X0008210Y0012210D01*
X0009870Y0011500D02*
X0008210D01*
X0008302Y0012760D02*
X0006390D01*
X0007880Y0012855D02*
Y0012337D01*
X0007920Y0012400D02*
X0006390D01*
X0007248Y0013030D02*
X0006390D01*
X0007298Y0012940D02*
X0006390D01*
X0008190Y0012670D02*
X0006390D01*
X0007387Y0012850D02*
X0006390D01*
X0001910Y0005470D02*
X-0001110D01*
X0004050Y0016540D02*
X0003210D01*
X0001710Y0003370D02*
X0001490Y0003150D01*
X0002300Y0011740D02*
Y0005710D01*
X0002390Y0004870D02*
Y0003710D01*
X0009870Y0010150D02*
X0008070D01*
X0005040Y0009150D02*
X0004230D01*
X0003824Y0009075D02*
X0004890Y0008010D01*
X0003380Y0008890D02*
X0001930D01*
X0003419Y0008800D02*
X0001930D01*
X0004280Y0008620D02*
X0001930D01*
X0004890Y0005830D02*
X0002030D01*
X0004460Y0008440D02*
X0001930D01*
X0004550Y0008350D02*
X0001930D01*
X0004640Y0008260D02*
X0001930D01*
X0004370Y0008530D02*
X0001930D01*
X0004890Y0007900D02*
X0001930D01*
X0004890Y0007810D02*
X0001930D01*
X0004890Y0007720D02*
X0001930D01*
X0004890Y0007630D02*
X0001930D01*
X-0001450Y0005920D02*
X-0004000D01*
X0006080Y0003892D02*
Y0003710D01*
X0004890Y0007540D02*
X0001930D01*
X0002571Y0007270D02*
X0001930D01*
X0002454Y0007180D02*
X0001930D01*
X0004890Y0005920D02*
X0001940D01*
X0004890Y0007450D02*
X0001930D01*
X0002415Y0007090D02*
X0001930D01*
X0002413Y0007000D02*
X0001930D01*
X0004890Y0007360D02*
X0001930D01*
X0004890Y0007990D02*
X0001930D01*
X0004890Y0006280D02*
X0001930D01*
X0004890Y0006190D02*
X0001930D01*
X0002447Y0006910D02*
X0001930D01*
X0002170Y0010780D02*
Y0009790D01*
X0001830Y0010150D02*
X0000930D01*
X0001920Y0012760D02*
X0001850D01*
X0000950Y0012614D02*
Y0010130D01*
X0004820Y0000331D02*
Y-0000200D01*
X0007870Y0011500D02*
X0006390D01*
X0004820Y0008080D02*
X0001930D01*
X0003870Y0010870D02*
X0002144D01*
X0001590Y0006010D02*
X0000126D01*
X0004730Y0008170D02*
X0001930D01*
X0001760Y0010780D02*
X0000612D01*
X0003770Y0010690D02*
X0002170D01*
X0001830Y0009880D02*
X0001200D01*
X0007870Y0011680D02*
X0006390D01*
X0001940Y0009324D02*
Y0005920D01*
X0003920Y0008980D02*
Y0006777D01*
X0001763Y0009520D02*
X0001560D01*
X0001797Y0009430D02*
X0001650D01*
X0001100Y0007180D02*
X0000421D01*
X-0003830Y0018520D02*
X-0004000D01*
X0001400Y0012691D02*
Y0009680D01*
X0001310Y0012546D02*
Y0009770D01*
X0001220Y0012502D02*
Y0009860D01*
X0001130Y0012497D02*
Y0009950D01*
X0011209Y0013390D02*
X0010982D01*
X0001310Y0006310D02*
Y0005210D01*
X0000435Y0016000D02*
X0000314D01*
X0000680Y0019350D02*
Y0016260D01*
X0000751Y0019870D02*
X-0003490D01*
X0002030Y0012650D02*
Y0010990D01*
X0001337Y0017980D02*
X0000586D01*
X0006050Y0017170D02*
X0005800D01*
X0006050Y0017080D02*
X0005800D01*
X0006050Y0016990D02*
X0005800D01*
X0006080Y0005829D02*
Y0005688D01*
X0004460Y0003370D02*
Y0003210D01*
X0005000Y0003370D02*
Y0003210D01*
X0004910Y0003370D02*
Y0003210D01*
X0004820Y0003370D02*
Y0003210D01*
X0004730Y0003370D02*
Y0003210D01*
X0003920Y0008980D02*
X0003862D01*
X0005810Y0003370D02*
Y0003210D01*
X0005630Y0003370D02*
Y0003210D01*
X0005720Y0003370D02*
Y0003210D01*
X0005360Y0003370D02*
Y0003210D01*
X0004370Y0003332D02*
Y0003248D01*
X0004280Y0003298D02*
Y0003282D01*
X0012100Y0015460D02*
X0010784D01*
X0001530Y0009070D02*
X-0001110D01*
X0001590Y0008800D02*
X-0001110D01*
X0001590Y0008080D02*
X-0001110D01*
X0008330Y0007900D02*
X0007317D01*
X0000742Y0021850D02*
X-0001300D01*
X-0000040Y0021910D02*
Y0018977D01*
X-0000670Y0021910D02*
Y0021608D01*
X-0001750Y0022090D02*
Y0021984D01*
X-0000850Y0021910D02*
Y0021742D01*
X0000742Y0021670D02*
X-0000713D01*
X0000742Y0021580D02*
X-0000658D01*
X0000742Y0021490D02*
X-0000645D01*
X0000320Y0017576D02*
Y0017154D01*
X0000248Y0021400D02*
X-0000666D01*
X0002300Y0000110D02*
Y-0000200D01*
X0012100Y0002230D02*
X0004017D01*
X0012100Y0002140D02*
X0004017D01*
X0012100Y0002050D02*
X0004017D01*
X0004890Y0004480D02*
X0003985D01*
X0004890Y0004210D02*
X0004017D01*
X0004890Y0004120D02*
X0004017D01*
X0004890Y0004030D02*
X0004017D01*
X0005230Y0008080D02*
Y0003869D01*
X0004100Y0003340D02*
Y0003240D01*
X0004133Y0003760D02*
X0004017D01*
X0004033Y0003670D02*
X0004017D01*
X0004730Y0008170D02*
Y0003710D01*
X0004040Y0003400D02*
X0004017D01*
X0004100Y0002840D02*
Y0001771D01*
X0004075Y0003220D02*
X0004017D01*
X0006080Y0002870D02*
Y0002688D01*
X0005900Y0003370D02*
Y0003210D01*
X0006074Y0002680D02*
X0004017D01*
X0003920Y0006302D02*
Y0004548D01*
X0004890Y0004570D02*
X0003898D01*
X0001590Y0007270D02*
X0001464D01*
X0007310Y0021220D02*
X0006799D01*
Y0020221D02*
X0006935Y0020085D01*
X0011570Y0021730D02*
Y0017020D01*
X0011480Y0021820D02*
Y0016930D01*
X0011390Y0021910D02*
Y0016840D01*
X0011300Y0022000D02*
Y0016750D01*
X0011210Y0022090D02*
Y0016660D01*
X0011120Y0022130D02*
Y0016570D01*
X0012100Y0013480D02*
X0011549D01*
X0012100Y0016720D02*
X0011750D01*
X0012100Y0016630D02*
X0011660D01*
X0012100Y0016540D02*
X0011570D01*
X0012100Y0016450D02*
X0011480D01*
X0012100Y0013030D02*
X0011011D01*
X0011030Y0017560D02*
Y0016480D01*
X0012100Y0021580D02*
X0011930D01*
X0012100Y0021490D02*
X0011930D01*
X0012100Y0021400D02*
X0011930D01*
X0012100Y0021310D02*
X0011930D01*
X0012100Y0021220D02*
X0011930D01*
X0012100Y0020680D02*
X0011930D01*
X0012100Y0020590D02*
X0011930D01*
X0012100Y0020500D02*
X0011930D01*
X0012100Y0020410D02*
X0011930D01*
X0012100Y0020320D02*
X0011930D01*
X0012100Y0020230D02*
X0011930D01*
X0012100Y0020140D02*
X0011930D01*
X0012100Y0020050D02*
X0011930D01*
X0012100Y0019960D02*
X0011930D01*
X0012100Y0019870D02*
X0011930D01*
X0012100Y0019780D02*
X0011930D01*
X0012100Y0019690D02*
X0011930D01*
X0012100Y0019150D02*
X0011930D01*
X0012100Y0019060D02*
X0011930D01*
X0012100Y0018160D02*
X0011930D01*
X0012100Y0021670D02*
X0011930D01*
X0012100Y0021130D02*
X0011930D01*
X0012100Y0021040D02*
X0011930D01*
X0012100Y0020950D02*
X0011930D01*
X0012100Y0020860D02*
X0011930D01*
X0012100Y0020770D02*
X0011930D01*
X0012100Y0019600D02*
X0011930D01*
X0012100Y0019510D02*
X0011930D01*
X0012100Y0019420D02*
X0011930D01*
X0012100Y0021940D02*
X0011840D01*
X0012100Y0019240D02*
X0011930D01*
X0010310Y0023500D02*
Y0022470D01*
X0012100Y0018880D02*
X0011930D01*
X0012100Y0018790D02*
X0011930D01*
X0012100Y0018700D02*
X0011930D01*
X0012100Y0018610D02*
X0011930D01*
X0009770Y0023500D02*
Y0022470D01*
X0012100Y0017890D02*
X0011930D01*
X0012100Y0017800D02*
X0011930D01*
X0012100Y0017710D02*
X0011930D01*
X0012100Y0017620D02*
X0011930D01*
X0012100Y0016270D02*
X0011300D01*
X0012100Y0012760D02*
X0010210D01*
X0012100Y0012850D02*
X0010873D01*
X0012100Y0016090D02*
X0011120D01*
X0012100Y0016000D02*
X0011030D01*
X0012100Y0016810D02*
X0011840D01*
X0012100Y0019330D02*
X0011930D01*
X0011840Y0023500D02*
Y0021940D01*
X0011750Y0023500D02*
Y0022030D01*
X0011660Y0023500D02*
Y0022120D01*
X0011570Y0023500D02*
Y0022210D01*
X0011480Y0023500D02*
Y0022300D01*
X0012100Y0022030D02*
X0011750D01*
X0006050Y0018160D02*
X0005390D01*
X0012100Y0018070D02*
X0011930D01*
X0012100Y0022300D02*
X0011480D01*
X0012100Y0022120D02*
X0011660D01*
X0011390Y0023500D02*
Y0022390D01*
X0011210Y0023500D02*
Y0022470D01*
X0011120Y0023500D02*
Y0022470D01*
X0010220Y0023500D02*
Y0022470D01*
X0010130Y0023500D02*
Y0022470D01*
X0010040Y0023500D02*
Y0022470D01*
X0009140Y0023500D02*
Y0022470D01*
X0009050Y0023500D02*
Y0022470D01*
X0009680Y0023500D02*
Y0022470D01*
X0009590Y0023500D02*
Y0022470D01*
X0009500Y0023500D02*
Y0022470D01*
X0011030Y0023500D02*
Y0022470D01*
X0010940Y0023500D02*
Y0022470D01*
X0010850Y0023500D02*
Y0022470D01*
X0010760Y0023500D02*
Y0022470D01*
X0010670Y0023500D02*
Y0022470D01*
X0010580Y0023500D02*
Y0022470D01*
X0010490Y0023500D02*
Y0022470D01*
X0010400Y0023500D02*
Y0022470D01*
X0012100Y0017980D02*
X0011930D01*
X0009950Y0023500D02*
Y0022470D01*
X0009860Y0023500D02*
Y0022470D01*
X0012100Y0018340D02*
X0011930D01*
X0008960Y0023500D02*
Y0022470D01*
X0005900Y0019720D02*
Y0019497D01*
X0005800Y0010150D02*
X0004110D01*
X-0003830Y0019420D02*
X-0004000D01*
X0011840Y0016810D02*
Y-0000200D01*
X0001337Y0019060D02*
X0000316D01*
X0011300Y0013357D02*
Y-0000200D01*
X0006050Y0014920D02*
X0005390D01*
X0006050Y0016630D02*
X0005800D01*
X0006050Y0015370D02*
X0005390D01*
X0006050Y0012850D02*
X0005909D01*
X0006050Y0015010D02*
X0005390D01*
X0006050Y0016090D02*
X0005390D01*
X0006050Y0014380D02*
X0005614D01*
X0006050Y0015910D02*
X0005390D01*
X0006050Y0015820D02*
X0005390D01*
X0006050Y0015730D02*
X0005390D01*
X-0003830Y0013930D02*
X-0004000D01*
X-0003640Y0023500D02*
Y0022000D01*
X0006050Y0016000D02*
X0005390D01*
X0006050Y0015190D02*
X0005390D01*
X0006050Y0014830D02*
X0005475D01*
X0004190Y0008710D02*
Y0007280D01*
X0004460Y0008440D02*
Y0007148D01*
X0004370Y0008530D02*
Y0007248D01*
X0004036Y0018593D02*
X0004098Y0018532D01*
X0001510Y0011410D02*
X0000579D01*
X0001510Y0011230D02*
X-0000470D01*
X0006836Y0007990D02*
X0005230D01*
X0003512Y0009160D02*
X0001910D01*
X0004890Y0006370D02*
X0004156D01*
X0004890Y0007270D02*
X0004324D01*
X0004890Y0007000D02*
X0004482D01*
X0004890Y0006910D02*
X0004448D01*
X0000640Y0010440D02*
X0001878Y0009202D01*
X0003536Y0008710D02*
X0001930D01*
X0002480Y0011740D02*
Y0007211D01*
X0003560Y0008702D02*
Y0007230D01*
X0003290Y0011921D02*
Y0007285D01*
X0003380Y0008891D02*
Y0007285D01*
X0003020Y0011740D02*
Y0007285D01*
X0002930Y0011740D02*
Y0007285D01*
X0002840Y0011740D02*
Y0007285D01*
X0004890Y0004390D02*
X0004017D01*
X0004156Y0007270D02*
X0003489D01*
X0002570Y0011740D02*
Y0007270D01*
X0004000Y0007090D02*
X0003730D01*
X0007700Y0014436D02*
Y0014351D01*
X0003560Y0006300D02*
Y0005730D01*
X0002480Y0006868D02*
Y0006711D01*
X0003380Y0006795D02*
Y0006785D01*
X0003290Y0006795D02*
Y0006785D01*
X0004890Y0006820D02*
X0004348D01*
X0004890Y0006010D02*
X0001930D01*
X0004890Y0004840D02*
X0003546D01*
X0004890Y0005650D02*
X0003624D01*
X0004890Y0005470D02*
X0003640D01*
X0004890Y0005380D02*
X0003590D01*
X0002480Y0006368D02*
Y0005711D01*
X0003380Y0006295D02*
Y0005785D01*
X0003290Y0006295D02*
Y0005785D01*
X0003200Y0006295D02*
Y0005785D01*
X0001850Y0009370D02*
Y0009230D01*
X0003110Y0006295D02*
Y0005785D01*
X0003470Y0006304D02*
Y0005776D01*
X0003020Y0006295D02*
Y0005785D01*
X0002930Y0006295D02*
Y0005785D01*
X0002840Y0006295D02*
Y0005785D01*
X0002750Y0006295D02*
Y0005785D01*
X0004890Y0005290D02*
X-0000970D01*
X0004890Y0005200D02*
X0003590D01*
X0004890Y0005110D02*
X0003640D01*
X0004890Y0005020D02*
X0003649D01*
X0004890Y0004930D02*
X0003624D01*
X0003380Y0005295D02*
Y0005285D01*
X0003290Y0005295D02*
Y0005285D01*
X0003200Y0005295D02*
Y0005285D01*
X0003110Y0005295D02*
Y0005285D01*
X0003560Y0005350D02*
Y0005230D01*
X0003470Y0005304D02*
Y0005276D01*
X0003020Y0005295D02*
Y0005285D01*
X0002930Y0005295D02*
Y0005285D01*
X0002660Y0005295D02*
Y0005285D01*
X0002570Y0005310D02*
Y0005270D01*
X0004230Y0009150D02*
X0005178Y0008202D01*
X0001150Y0002050D02*
X-0004000D01*
X0004890Y0004750D02*
X0003531D01*
X0012100Y0001960D02*
X0004017D01*
X0004890Y0004660D02*
X0003808D01*
X-0000220Y0004870D02*
Y-0000200D01*
X0003380Y0004795D02*
Y0004785D01*
X0003290Y0004795D02*
Y0004785D01*
X0003200Y0004795D02*
Y0004785D01*
X0003110Y0004795D02*
Y0004785D01*
X0003560Y0004850D02*
Y0004730D01*
X0003470Y0004804D02*
Y0004776D01*
X0003020Y0004795D02*
Y0004785D01*
X0002930Y0004795D02*
Y0004785D01*
X0002840Y0004795D02*
Y0004785D01*
X0004890Y0004300D02*
X0004017D01*
X0003677Y0004210D02*
X0003581D01*
X0003677Y0004120D02*
X0003636D01*
X0003677Y0004030D02*
X0003650D01*
X0003677Y0003940D02*
X0003629D01*
X0002606Y0004300D02*
X-0004000D01*
X0003380Y0004295D02*
Y0004285D01*
X0003290Y0004295D02*
Y0004285D01*
X0003200Y0004295D02*
Y0004285D01*
X0003110Y0004295D02*
Y0004285D01*
X0003560Y0004350D02*
Y0004230D01*
X0003470Y0004304D02*
Y0004276D01*
X0003020Y0004295D02*
Y0004285D01*
X0002930Y0004295D02*
Y0004285D01*
X0002840Y0004295D02*
Y0004285D01*
X0002750Y0004295D02*
Y0004285D01*
X0002660Y0004295D02*
Y0004285D01*
X0002570Y0004310D02*
Y0004270D01*
X0003677Y0003850D02*
X0003560D01*
X0003677Y0003760D02*
X0003513D01*
X0003677Y0003670D02*
X0003613D01*
X0003677Y0003580D02*
X0003647D01*
X0003677Y0003490D02*
X0003645D01*
X0003677Y0003400D02*
X0003606D01*
X0002431Y0003940D02*
X-0004000D01*
X0003380Y0003795D02*
Y0003785D01*
X0003290Y0003795D02*
Y0003785D01*
X0003200Y0003795D02*
Y0003785D01*
X0003110Y0003795D02*
Y0003785D01*
X0003560Y0003850D02*
Y0003730D01*
X0003470Y0003804D02*
Y0003776D01*
X0003020Y0003795D02*
Y0003785D01*
X0002930Y0003795D02*
Y0003785D01*
X0002660Y0003795D02*
Y0003785D01*
X0002570Y0003810D02*
Y0003770D01*
X0003677Y0003310D02*
X0003489D01*
X0003677Y0003220D02*
X0003571D01*
X0003677Y0003130D02*
X0003633D01*
X0003677Y0003040D02*
X0003650D01*
X0003677Y0002950D02*
X0003633D01*
X0003380Y0003295D02*
Y0003285D01*
X0003290Y0003295D02*
Y0003285D01*
X0003200Y0003295D02*
Y0003285D01*
X0003110Y0003295D02*
Y0003285D01*
X0003560Y0003350D02*
Y0003230D01*
X0003470Y0003304D02*
Y0003276D01*
X0003020Y0003295D02*
Y0003285D01*
X0002930Y0003295D02*
Y0003285D01*
X0002840Y0003295D02*
Y0003285D01*
X0002750Y0003295D02*
Y0003285D01*
X0002478Y0003710D02*
X0001640D01*
X0002570Y0003310D02*
Y0003270D01*
X0003677Y0002860D02*
X0003571D01*
X0003677Y0002680D02*
X0003606D01*
X0003677Y0002590D02*
X0003645D01*
X0003677Y0002500D02*
X0003647D01*
X0003677Y0002410D02*
X0003613D01*
X0003677Y0002320D02*
X0003513D01*
X0001150Y0003040D02*
X-0004000D01*
X0003380Y0002795D02*
Y0002785D01*
X0003290Y0002795D02*
Y0002785D01*
X0003200Y0002795D02*
Y0002785D01*
X0003110Y0002795D02*
Y0002785D01*
X0003560Y0002850D02*
Y0002730D01*
X0003470Y0002804D02*
Y0002776D01*
X0003020Y0002795D02*
Y0002785D01*
X0002930Y0002795D02*
Y0002785D01*
X0002840Y0002795D02*
Y0002785D01*
X0002750Y0002795D02*
Y0002785D01*
X0002660Y0002795D02*
Y0002785D01*
X0002570Y0002810D02*
Y0002770D01*
X0012100Y0003490D02*
X0007630D01*
X0012100Y0002680D02*
X0007226D01*
X0012100Y0002590D02*
X0007265D01*
X0012100Y0002500D02*
X0007267D01*
X0012100Y0002410D02*
X0007233D01*
X0008165Y0002770D02*
X0007109D01*
X0007250Y0002943D02*
Y0002637D01*
X0007160Y0002835D02*
Y0002744D01*
X0007070Y0002799D02*
Y0002781D01*
X0006980Y0002795D02*
Y0002785D01*
X0006890Y0002795D02*
Y0002785D01*
X0006800Y0002795D02*
Y0002785D01*
X0006710Y0002795D02*
Y0002785D01*
X0006620Y0002795D02*
Y0002785D01*
X0006530Y0002795D02*
Y0002785D01*
X0006440Y0002795D02*
Y0002785D01*
X0006350Y0002795D02*
Y0002785D01*
X0006260Y0002795D02*
Y0002784D01*
X0006170Y0002819D02*
Y0002761D01*
X0004550Y0002870D02*
Y0001853D01*
X0007450Y0003130D02*
X0007253D01*
X0008165Y0002870D02*
Y0002760D01*
X0007520Y0003060D02*
Y-0000200D01*
X0007360Y0003220D02*
X0007191D01*
X0008165Y0002860D02*
X0007191D01*
X0007250Y0003443D02*
Y0003137D01*
X0007160Y0003335D02*
Y0003244D01*
X0007070Y0003299D02*
Y0003281D01*
X0006980Y0003295D02*
Y0003285D01*
X0006890Y0003295D02*
Y0003285D01*
X0006800Y0003295D02*
Y0003285D01*
X0006710Y0003295D02*
Y0003285D01*
X0006620Y0003295D02*
Y0003285D01*
X0006530Y0003295D02*
Y0003285D01*
X0006440Y0003295D02*
Y0003285D01*
X0006350Y0003295D02*
Y0003285D01*
X0004640Y0003370D02*
Y0003210D01*
X0007297Y0003310D02*
X0007109D01*
X0007290Y0003760D02*
X0007133D01*
X0007290Y0003670D02*
X0007233D01*
X0007700Y0004220D02*
Y0003360D01*
X0008240Y0002760D02*
Y-0000200D01*
X0007290Y0003490D02*
X0007265D01*
X0007160Y0003835D02*
Y0003744D01*
X0007070Y0003799D02*
Y0003781D01*
X0006980Y0003795D02*
Y0003785D01*
X0006890Y0003795D02*
Y0003785D01*
X0006800Y0003795D02*
Y0003785D01*
X0006710Y0003795D02*
Y0003785D01*
X0006620Y0003795D02*
Y0003785D01*
X0006530Y0003795D02*
Y0003785D01*
X0006260Y0003795D02*
Y0003784D01*
X0006170Y0003819D02*
Y0003761D01*
X0005450Y0003370D02*
Y0003210D01*
X0000447Y0016090D02*
X0000388D01*
X0007250Y0003850D02*
Y0003637D01*
X0007290Y0003580D02*
X0007267D01*
X0007160Y0004335D02*
Y0004244D01*
X0007070Y0004299D02*
Y0004281D01*
X0006980Y0004295D02*
Y0004285D01*
X0006620Y0004295D02*
Y0004285D01*
X0006530Y0004295D02*
Y0004285D01*
X0006440Y0004295D02*
Y0004285D01*
X0006350Y0004295D02*
Y0004285D01*
X0006260Y0004295D02*
Y0004284D01*
X0006170Y0004319D02*
Y0004261D01*
X0006080Y0004392D02*
Y0004188D01*
X0008165Y0004930D02*
X0008110D01*
X0008165Y0003940D02*
X0007619D01*
X0007550Y0004370D02*
X0007201D01*
X0007810Y0004750D02*
X0007151D01*
X0006530Y0014430D02*
Y0014015D01*
X0007690Y0004870D02*
X0007201D01*
X0008165Y0004390D02*
X0008010D01*
X0007160Y0004835D02*
Y0004744D01*
X0007070Y0004799D02*
Y0004781D01*
X0006980Y0004795D02*
Y0004785D01*
X0006890Y0004795D02*
Y0004785D01*
X0006620Y0004795D02*
Y0004785D01*
X0006530Y0004795D02*
Y0004785D01*
X0006440Y0004795D02*
Y0004785D01*
X0006350Y0004795D02*
Y0004785D01*
X0006260Y0004795D02*
Y0004784D01*
X0006170Y0004819D02*
Y0004761D01*
X0006080Y0004892D02*
Y0004688D01*
X0000590Y0019367D02*
Y0017976D01*
X0009248Y0005200D02*
X0007817D01*
X0007160Y0005335D02*
Y0005244D01*
X0007070Y0005299D02*
Y0005281D01*
X0006980Y0005295D02*
Y0005285D01*
X0006890Y0005295D02*
Y0005285D01*
X0006800Y0005295D02*
Y0005285D01*
X0006710Y0005295D02*
Y0005285D01*
X0006620Y0005295D02*
Y0005285D01*
X0006530Y0005295D02*
Y0005285D01*
X0006440Y0005295D02*
Y0005285D01*
X0006350Y0005295D02*
Y0005285D01*
X0006260Y0005295D02*
Y0005284D01*
X0006170Y0005319D02*
Y0005261D01*
X0006080Y0005392D02*
Y0005188D01*
X0007403Y0005920D02*
X0007239D01*
X0009970Y0005470D02*
X0007430D01*
X0007070Y0005799D02*
Y0005781D01*
X0006980Y0005795D02*
Y0005785D01*
X0006890Y0005795D02*
Y0005785D01*
X0006800Y0005795D02*
Y0005785D01*
X0006710Y0005795D02*
Y0005785D01*
X0006620Y0005795D02*
Y0005785D01*
X0006530Y0005795D02*
Y0005785D01*
X0006440Y0005795D02*
Y0005785D01*
X0006350Y0005795D02*
Y0005785D01*
X0006260Y0005795D02*
Y0005784D01*
X0006170Y0005819D02*
Y0005761D01*
X0003040Y0012500D02*
Y0011740D01*
X0007430Y0009202D02*
Y0006650D01*
X0007160Y0006335D02*
Y0006244D01*
X0007070Y0006299D02*
Y0006281D01*
X0006980Y0006295D02*
Y0006285D01*
X0006890Y0006295D02*
Y0006285D01*
X0006800Y0006295D02*
Y0006285D01*
X0006710Y0006295D02*
Y0006285D01*
X0006620Y0006295D02*
Y0006285D01*
X0006530Y0006295D02*
Y0006285D01*
X0006440Y0006295D02*
Y0006285D01*
X0006350Y0006295D02*
Y0006285D01*
X0006260Y0006295D02*
Y0006284D01*
X0006170Y0006319D02*
Y0006261D01*
X0004890Y0006100D02*
X0001930D01*
X0007250Y0006350D02*
Y0006137D01*
X0007320Y0006280D02*
X0007074D01*
X0007500Y0006100D02*
X0007262D01*
X0007500Y0006010D02*
X0007268D01*
X0007250Y0007786D02*
Y0006710D01*
X0006980Y0007739D02*
Y0006785D01*
X0006800Y0009187D02*
Y0006785D01*
X0006710Y0009158D02*
Y0006785D01*
X0006620Y0009150D02*
Y0006785D01*
X0006530Y0009162D02*
Y0006785D01*
X0006440Y0009197D02*
Y0006785D01*
X0006350Y0009260D02*
Y0006785D01*
X0006260Y0009383D02*
Y0006784D01*
X0001337Y0015910D02*
X0000901D01*
X0008220Y0006730D02*
X0007180D01*
X0009870Y0008170D02*
X0007250D01*
X0012100Y0003580D02*
X0007630D01*
X0012100Y0001510D02*
X0005824D01*
X0012100Y0001420D02*
X0006016D01*
X0012100Y0001330D02*
X0006101D01*
X0012100Y0001240D02*
X0006150D01*
X0012100Y0001150D02*
X0006175D01*
X0012100Y0001060D02*
X0006182D01*
X0012100Y0000970D02*
X0006170D01*
X0012100Y0000880D02*
X0006138D01*
X0012100Y0000790D02*
X0006080D01*
X0007230Y0003870D02*
X0007201D01*
X0006980Y0002295D02*
Y-0000200D01*
X0004460Y0002870D02*
Y0001822D01*
X0004730Y0002870D02*
Y0001851D01*
X0005900Y0002870D02*
Y0001488D01*
X0005990Y0003370D02*
Y0003210D01*
X0005720Y0002870D02*
Y0001518D01*
X0005630Y0002870D02*
Y0001506D01*
X0005540Y0002870D02*
Y0001473D01*
X0005450Y0002870D02*
Y0001414D01*
X0002667Y0001510D02*
X0002045D01*
X0002668Y0001420D02*
X0002237D01*
X0002690Y0001330D02*
X0002321D01*
X0002737Y0001240D02*
X0002370D01*
X0002825Y0001150D02*
X0002396D01*
X0002952Y0001060D02*
X0002402D01*
X0002792Y0000970D02*
X0002390D01*
X0002719Y0000880D02*
X0002358D01*
X0002681Y0000790D02*
X0002300D01*
X0002665Y0000700D02*
X0002199D01*
X0007816Y0011050D02*
X0006390D01*
X-0003910Y0023500D02*
Y-0000200D01*
X0001850Y0003370D02*
Y0001505D01*
X0001670Y0004870D02*
Y0003710D01*
X0002478Y0005710D02*
X0002150D01*
X0002030Y0003370D02*
Y0001513D01*
X0003739Y0001060D02*
X0003168D01*
X0003579Y0000970D02*
X0003328D01*
X0003507Y0000880D02*
X0003401D01*
X0003468Y0000790D02*
X0003439D01*
X0003459Y0000610D02*
X0003449D01*
X0001250Y0000430D02*
X-0004000D01*
X0003447Y0000520D02*
X0003421D01*
X0001430Y0000250D02*
X-0004000D01*
X0003380Y0001236D02*
Y0000911D01*
X0003290Y0001146D02*
Y0001001D01*
X0002120Y0000659D02*
Y0000450D01*
X0003200Y0001098D02*
Y0001049D01*
X0002930Y0001094D02*
Y0001053D01*
X0002840Y0001139D02*
Y0001008D01*
X0002750Y0001222D02*
Y0000925D01*
X0006098Y0003210D02*
X0004417D01*
X0009320Y0019258D02*
Y0018918D01*
X0004393Y0001780D02*
X0004089D01*
X0004264Y0001330D02*
X0004218D01*
X0004312Y0001240D02*
X0004170D01*
X0004399Y0001150D02*
X0004082D01*
X0003617Y0004370D02*
X0003677Y0004310D01*
Y0004300D02*
X0003454D01*
X0003110Y0002295D02*
Y0001859D01*
X0003560Y0002350D02*
Y0001738D01*
X0012100Y0000700D02*
X0005979D01*
X0012100Y0001780D02*
X0004876D01*
X0012100Y0001690D02*
X0004961D01*
X0007300Y0006710D02*
X0007201D01*
X0005650Y0001510D02*
X0005027D01*
X0005457Y0001420D02*
X0005027D01*
X0005373Y0001330D02*
X0005005D01*
X0005324Y0001240D02*
X0004958D01*
X0005990Y0002870D02*
Y0001440D01*
X0005000Y0002870D02*
Y0001617D01*
X0004910Y0002870D02*
Y0001750D01*
X0004820Y0002870D02*
Y0001816D01*
X0004640Y0002870D02*
Y0001862D01*
X0005180Y0002870D02*
Y-0000200D01*
X0004870Y0018160D02*
X0003210D01*
X0007310Y0020950D02*
X0006799D01*
X0009870Y0017080D02*
X0009210D01*
X0007310Y0019960D02*
X0007154D01*
X0006799Y0021324D02*
Y0020221D01*
X0007210Y0019510D02*
X0007050D01*
X0011590Y0020230D02*
X0009210D01*
X0007648Y0013970D02*
X0007540D01*
X0006050Y0009970D02*
X0004110D01*
X0004870Y0018070D02*
X0003210D01*
X0006980Y0013880D02*
Y0010773D01*
X0008165Y0003220D02*
X0007840D01*
X0006620Y0014430D02*
Y0014084D01*
X0007420Y0004160D02*
X0007578Y0004002D01*
X0007790Y0004130D02*
Y0003270D01*
X0007430Y0004370D02*
Y0004150D01*
X0008060Y0003970D02*
Y0003210D01*
X0007970Y0003977D02*
Y0003210D01*
X0007880Y0004040D02*
Y0003210D01*
X0007610Y0002970D02*
Y-0000200D01*
X0000680Y0015770D02*
Y0010400D01*
X0000860Y0019168D02*
Y0016181D01*
X0000770Y0019285D02*
Y0016243D01*
X-0000310Y0023500D02*
Y0022430D01*
X-0000400Y0023500D02*
Y0022430D01*
X-0000490Y0023500D02*
Y0022430D01*
X-0000580Y0023500D02*
Y0022430D01*
X-0001210Y0023500D02*
Y0022430D01*
X-0001300Y0023500D02*
Y0022430D01*
X-0001390Y0023500D02*
Y0022430D01*
X-0001480Y0023500D02*
Y0022430D01*
X-0001570Y0023500D02*
Y0022430D01*
X-0001660Y0023500D02*
Y0022430D01*
X-0001750Y0023500D02*
Y0022430D01*
X-0001840Y0023500D02*
Y0022430D01*
X-0001930Y0023500D02*
Y0022430D01*
X-0002020Y0023500D02*
Y0022430D01*
X-0002110Y0023500D02*
Y0022430D01*
X-0002200Y0023500D02*
Y0022430D01*
X-0002290Y0023500D02*
Y0022430D01*
X-0002380Y0023500D02*
Y0022430D01*
X-0002470Y0023500D02*
Y0022430D01*
X-0002560Y0023500D02*
Y0022430D01*
X-0003460Y0023500D02*
Y0022180D01*
X-0003249Y0022390D02*
X-0004000D01*
X-0002650Y0023500D02*
Y0022430D01*
X-0003830Y0021580D02*
X-0004000D01*
X-0003010Y0023500D02*
Y0022430D01*
X-0003070Y0022090D02*
X-0003490Y0021670D01*
X-0003830Y0019870D02*
X-0004000D01*
X0006120Y0003850D02*
X0005235D01*
X0003770Y0010600D02*
X0002170D01*
X-0001540Y0022090D02*
X-0001595Y0022035D01*
X-0001750Y0021596D02*
Y-0000200D01*
X-0003370Y0023500D02*
Y0022270D01*
X-0001135Y0021490D02*
X-0003490D01*
X-0001114Y0021400D02*
X-0003490D01*
X-0001045Y0021310D02*
X-0003490D01*
X0000175Y0021220D02*
X-0003490D01*
X0000194Y0021130D02*
X-0003490D01*
X0000259Y0021040D02*
X-0003490D01*
X-0001066Y0021670D02*
X-0001386D01*
X0000751Y0020950D02*
X-0003490D01*
X0000751Y0020860D02*
X-0003490D01*
X0000751Y0020770D02*
X-0003490D01*
X0000751Y0020680D02*
X-0003490D01*
X0000751Y0020590D02*
X-0003490D01*
X0000751Y0020500D02*
X-0003490D01*
X0000751Y0020410D02*
X-0003490D01*
X0000751Y0020320D02*
X-0003490D01*
X0000751Y0020230D02*
X-0003490D01*
X0000751Y0020140D02*
X-0003490D01*
X0000751Y0020050D02*
X-0003490D01*
X0000751Y0019960D02*
X-0003490D01*
X0007520Y0005500D02*
Y0005210D01*
X0000860Y0015849D02*
Y0010220D01*
X0000519Y0019780D02*
X-0003490D01*
X0000454Y0019690D02*
X-0003490D01*
X0000435Y0019600D02*
X-0003490D01*
X0000758Y0019330D02*
X-0003490D01*
X0000792Y0019240D02*
X-0003490D01*
X0000890Y0019150D02*
X-0003490D01*
X0000033Y0019060D02*
X-0003490D01*
X-0000044Y0018970D02*
X-0003490D01*
X-0000069Y0018880D02*
X-0003490D01*
X-0000060Y0018790D02*
X-0003490D01*
X-0000010Y0018700D02*
X-0003490D01*
X0001019Y0018610D02*
X-0003490D01*
X0001019Y0018520D02*
X-0003490D01*
X0001055Y0018430D02*
X-0003490D01*
X0001163Y0018340D02*
X-0003490D01*
X0001337Y0018250D02*
X-0003490D01*
X0000254Y0017980D02*
X-0003490D01*
X0000192Y0017890D02*
X-0003490D01*
X0000175Y0017800D02*
X-0003490D01*
X0000192Y0017710D02*
X-0003490D01*
X0000254Y0017620D02*
X-0003490D01*
X-0001090Y0011770D02*
X-0003490D01*
X-0001232Y0012040D02*
X-0003490D01*
X-0001179Y0011950D02*
X-0003490D01*
X-0001000Y0012580D02*
X-0003490D01*
X-0000648Y0017350D02*
X-0003490D01*
X-0000802Y0017260D02*
X-0003490D01*
X-0001232Y0013120D02*
X-0003490D01*
X-0001179Y0013030D02*
X-0003490D01*
X-0001000Y0013660D02*
X-0003490D01*
X-0001143Y0013570D02*
X-0003490D01*
X0001337Y0017530D02*
X-0003490D01*
X-0001212Y0013480D02*
X-0003490D01*
X0001337Y0017440D02*
X-0003490D01*
X-0001143Y0012490D02*
X-0003490D01*
X-0001212Y0012400D02*
X-0003490D01*
X-0001180Y0011680D02*
X-0003490D01*
X0001337Y0015730D02*
X-0003490D01*
X0001337Y0015640D02*
X-0003490D01*
X-0000905Y0017170D02*
X-0003490D01*
X-0000981Y0017080D02*
X-0003490D01*
X-0001039Y0016990D02*
X-0003490D01*
X-0001082Y0016900D02*
X-0003490D01*
X-0001113Y0016810D02*
X-0003490D01*
X-0001133Y0016720D02*
X-0003490D01*
X-0001143Y0016630D02*
X-0003490D01*
X-0001144Y0016540D02*
X-0003490D01*
X-0001135Y0016450D02*
X-0003490D01*
X-0001116Y0016360D02*
X-0003490D01*
X-0001086Y0016270D02*
X-0003490D01*
X-0001044Y0016180D02*
X-0003490D01*
X-0000988Y0016090D02*
X-0003490D01*
X-0000914Y0016000D02*
X-0003490D01*
X-0000815Y0015910D02*
X-0003490D01*
X-0000669Y0015820D02*
X-0003490D01*
X0001337Y0015550D02*
X-0003490D01*
X0001337Y0015460D02*
X-0003490D01*
X0001079Y0015010D02*
X-0003490D01*
X0001027Y0014920D02*
X-0003490D01*
X0001015Y0014830D02*
X-0003490D01*
X0001039Y0014740D02*
X-0003490D01*
X0001112Y0014650D02*
X-0003490D01*
X0001337Y0015190D02*
X-0003490D01*
X0001337Y0015100D02*
X-0003490D01*
X0001337Y0014560D02*
X-0003490D01*
X0001337Y0014470D02*
X-0003490D01*
X0001337Y0014290D02*
X-0003490D01*
X0001337Y0014200D02*
X-0003490D01*
X0001337Y0014110D02*
X-0003490D01*
X0001337Y0014020D02*
X-0003490D01*
X0001337Y0015820D02*
X0000828D01*
X0001337Y0013840D02*
X-0003490D01*
X0001337Y0015370D02*
X-0003490D01*
X-0001250Y0013390D02*
X-0003490D01*
X-0001264Y0013300D02*
X-0003490D01*
X-0001259Y0013210D02*
X-0003490D01*
X-0001080Y0012940D02*
X-0003490D01*
X-0000130Y0012850D02*
X-0003490D01*
X-0000144Y0012760D02*
X-0003490D01*
X-0000139Y0012670D02*
X-0003490D01*
X-0001250Y0012310D02*
X-0003490D01*
X-0001264Y0012220D02*
X-0003490D01*
X-0001259Y0012130D02*
X-0003490D01*
X-0001080Y0011860D02*
X-0003490D01*
X-0001450Y0008890D02*
X-0003490D01*
X-0001450Y0010420D02*
X-0003490D01*
X-0001450Y0010330D02*
X-0003490D01*
X-0001450Y0010240D02*
X-0003490D01*
X-0001450Y0010150D02*
X-0003490D01*
X-0001450Y0011320D02*
X-0003490D01*
X-0001450Y0011230D02*
X-0003490D01*
X-0001450Y0011140D02*
X-0003490D01*
X-0001450Y0011050D02*
X-0003490D01*
X-0001450Y0010960D02*
X-0003490D01*
X-0001450Y0010870D02*
X-0003490D01*
X-0001450Y0010780D02*
X-0003490D01*
X-0001450Y0010690D02*
X-0003490D01*
X-0001450Y0010600D02*
X-0003490D01*
X-0001450Y0010510D02*
X-0003490D01*
X-0001450Y0010060D02*
X-0003490D01*
X-0001450Y0009970D02*
X-0003490D01*
X-0001450Y0009880D02*
X-0003490D01*
X-0001450Y0009790D02*
X-0003490D01*
X-0001450Y0009700D02*
X-0003490D01*
X-0001450Y0009610D02*
X-0003490D01*
X-0001450Y0009520D02*
X-0003490D01*
X-0001450Y0009430D02*
X-0003490D01*
X-0001450Y0009340D02*
X-0003490D01*
X-0001450Y0009250D02*
X-0003490D01*
X-0001360Y0011500D02*
X-0003490D01*
X-0001435Y0011410D02*
X-0003490D01*
X-0001450Y0009160D02*
X-0003490D01*
X-0001450Y0009070D02*
X-0003490D01*
X-0001450Y0008800D02*
X-0003490D01*
X-0001270Y0011590D02*
X-0003490D01*
X-0001450Y0008980D02*
X-0003490D01*
X-0003830Y0009790D02*
X-0004000D01*
X-0003830Y0009700D02*
X-0004000D01*
X-0003830Y0017620D02*
X-0004000D01*
X-0001450Y0008620D02*
X-0003446D01*
X-0001450Y0008530D02*
X-0003417D01*
X-0001450Y0008440D02*
X-0003422D01*
X-0001450Y0008350D02*
X-0003466D01*
X-0001450Y0008260D02*
X-0003611D01*
X0001510Y0013030D02*
X0000543D01*
X-0001794Y0021940D02*
X-0003220D01*
X0000410Y0020980D02*
Y0018929D01*
X0000320Y0021001D02*
Y0019057D01*
X0000230Y0021070D02*
Y0019099D01*
X-0002740Y0023500D02*
Y0022430D01*
X0001337Y0017890D02*
X0000648D01*
X0003770Y0010330D02*
X0002170D01*
X0001163Y0018790D02*
X0000410D01*
X0001055Y0018700D02*
X0000360D01*
X0007880Y0002870D02*
Y-0000200D01*
X0007310Y0005830D02*
X0007151D01*
X0007500Y0006060D02*
Y0005950D01*
X0007230Y0006370D02*
X0007378Y0006222D01*
X0012100Y0014020D02*
X0010210D01*
X0011286Y0013840D02*
X0010210D01*
X0011141Y0013750D02*
X0010210D01*
X0011097Y0013660D02*
X0010210D01*
X0012100Y0013930D02*
X0010210D01*
X0012100Y0011680D02*
X0010210D01*
X0012100Y0012490D02*
X0010210D01*
X0012100Y0012400D02*
X0010210D01*
X0012100Y0012310D02*
X0010210D01*
X0012100Y0012220D02*
X0010210D01*
X0012100Y0012130D02*
X0010210D01*
X0012100Y0012040D02*
X0010210D01*
X0012100Y0011950D02*
X0010210D01*
X0012100Y0011860D02*
X0010210D01*
X0012100Y0011770D02*
X0010210D01*
X0012100Y0014290D02*
X0010210D01*
X0012100Y0014200D02*
X0010210D01*
X0012100Y0014110D02*
X0010210D01*
X0011590Y0017170D02*
X0010210D01*
X0011590Y0017080D02*
X0010210D01*
X0011540Y0016990D02*
X0010210D01*
X0011450Y0016900D02*
X0010210D01*
X0011360Y0016810D02*
X0010210D01*
X0011270Y0016720D02*
X0010210D01*
X0011180Y0016630D02*
X0010210D01*
X0012100Y0014380D02*
X0010210D01*
X0012100Y0015370D02*
X0010210D01*
X0011090Y0016540D02*
X0010210D01*
X0010910Y0016360D02*
X0010210D01*
X0010503Y0017260D02*
X0010210D01*
X0010453Y0014470D02*
X0010210D01*
X0012100D02*
X0010807D01*
X0012100Y0017440D02*
X0011930D01*
X0012100Y0017350D02*
X0011930D01*
X0010476Y0015460D02*
X0010210D01*
X0010820Y0016270D02*
X0010210D01*
X0011000Y0016450D02*
X0010210D01*
X-0003830Y0011860D02*
X-0004000D01*
X0012100Y0011590D02*
X0010210D01*
X0012100Y0011500D02*
X0010210D01*
X0012100Y0011410D02*
X0010210D01*
X0012100Y0010150D02*
X0010210D01*
X0012100Y0010060D02*
X0010210D01*
X0012100Y0009970D02*
X0010210D01*
X0012100Y0010870D02*
X0010210D01*
X0012100Y0010780D02*
X0010210D01*
X0012100Y0010690D02*
X0010210D01*
X0012100Y0010600D02*
X0010210D01*
X0012100Y0010510D02*
X0010210D01*
X0012100Y0010420D02*
X0010210D01*
X0012100Y0010330D02*
X0010210D01*
X0012100Y0010240D02*
X0010210D01*
X0012100Y0008890D02*
X0010210D01*
X0012100Y0008800D02*
X0010210D01*
X0012100Y0008710D02*
X0010210D01*
X0012100Y0008620D02*
X0010210D01*
X0012100Y0008530D02*
X0010210D01*
X0012100Y0008440D02*
X0010210D01*
X0012100Y0008350D02*
X0010210D01*
X0012100Y0008260D02*
X0010210D01*
X0012100Y0008170D02*
X0010210D01*
X0012100Y0008080D02*
X0010210D01*
X0012100Y0009070D02*
X0010210D01*
X0012100Y0008980D02*
X0010210D01*
X0012100Y0007180D02*
X0010210D01*
X0012100Y0007090D02*
X0010210D01*
X0012100Y0011320D02*
X0010210D01*
X0012100Y0011230D02*
X0010210D01*
X0012100Y0009880D02*
X0010210D01*
X0012100Y0009790D02*
X0010210D01*
X0012100Y0009700D02*
X0010210D01*
X0012100Y0009610D02*
X0010210D01*
X0011590Y0020500D02*
X0009210D01*
X0008870Y0014110D02*
X0008549D01*
X0004050Y0015280D02*
X0002210D01*
X0006050Y0014020D02*
X0005155D01*
X0006050Y0014290D02*
X0005425D01*
X0005245Y0010420D02*
X0004110D01*
X0004001Y0011770D02*
X0003784D01*
X0005000Y0011020D02*
Y0009970D01*
X0002840Y0017240D02*
Y0016300D01*
X0003200Y0012340D02*
Y0007285D01*
X0002122Y0012580D02*
X0001850D01*
X0004010Y0008890D02*
X0003860D01*
X0005741Y0005920D02*
X0005230D01*
X0005712Y0006010D02*
X0005230D01*
X0006226Y0004300D02*
X0005230D01*
X0006191Y0003310D02*
X0004325D01*
X0004370Y0006832D02*
Y0003748D01*
X0002210Y0017907D02*
Y0013950D01*
X-0001069Y0007090D02*
X-0001110D01*
X0002220Y0017890D02*
X0002210D01*
X0002220Y0017530D02*
X0002210D01*
X0002220Y0017440D02*
X0002210D01*
X0002238Y0015730D02*
X0002210D01*
X0002278Y0015640D02*
X0002210D01*
X0002350Y0015550D02*
X0002210D01*
X0002503Y0015460D02*
X0002210D01*
X0002220Y0015190D02*
X0002210D01*
X0002220Y0015100D02*
X0002210D01*
X0002220Y0015010D02*
X0002210D01*
X0002220Y0014920D02*
X0002210D01*
X0002220Y0014830D02*
X0002210D01*
X0002220Y0014740D02*
X0002210D01*
X0002220Y0014650D02*
X0002210D01*
X0002220Y0014560D02*
X0002210D01*
X0002220Y0014470D02*
X0002210D01*
X0005180Y0003370D02*
Y0003210D01*
X0004050Y0012580D02*
X0003440D01*
X0004050Y0014200D02*
X0002210D01*
X0001337Y0013930D02*
X-0003490D01*
X0004050Y0013660D02*
X0003509D01*
X0004050Y0013570D02*
X0003530D01*
X0005270Y0003370D02*
Y0003210D01*
X0004050Y0013840D02*
X0002320D01*
X0004050Y0014290D02*
X0002210D01*
X0002220Y0017350D02*
X0002210D01*
X0002220Y0017260D02*
X0002210D01*
X0004050Y0015370D02*
X0002210D01*
X0003387Y0016180D02*
X0003190D01*
X0002870Y0017170D02*
X0002210D01*
X0002870Y0017080D02*
X0002210D01*
X0002870Y0016990D02*
X0002210D01*
X0002870Y0016900D02*
X0002210D01*
X0002870Y0016810D02*
X0002210D01*
X0002870Y0016720D02*
X0002210D01*
X0002870Y0016630D02*
X0002210D01*
X0002870Y0016540D02*
X0002210D01*
X0002387Y0016180D02*
X0002210D01*
X0002022Y0005380D02*
X-0001060D01*
X-0003830Y0018340D02*
X-0004000D01*
X-0003830Y0018250D02*
X-0004000D01*
X0001337Y0018160D02*
X-0003490D01*
X0001337Y0019240D02*
X0001208D01*
X0000590Y0021048D02*
Y0019823D01*
X0000050Y0018649D02*
Y0017349D01*
X0000410Y0018791D02*
Y0018045D01*
X0000320Y0018662D02*
Y0018024D01*
X0000680Y0021910D02*
Y0019840D01*
X0000500Y0021910D02*
Y0021456D01*
X0001400Y0004870D02*
Y0003540D01*
X0002300Y0004870D02*
Y0003710D01*
X0001850Y0004870D02*
Y0003710D01*
X0001310Y0004870D02*
Y0003450D01*
X0002120Y0004870D02*
Y0003710D01*
X0002030Y0004870D02*
Y0003710D01*
X0002547Y0003760D02*
X-0004000D01*
X0000751Y0021310D02*
X0000650D01*
X0002390Y0003370D02*
Y0001179D01*
X0001580Y0003240D02*
Y0001309D01*
X0001176Y0003310D02*
X-0004000D01*
X0002571D02*
X0001650D01*
X0002427Y0003130D02*
X0001490D01*
X0002410Y0003040D02*
X0001490D01*
X0002427Y0002950D02*
X0001490D01*
G01X0005630Y0018240D02*
G03X0006040Y0018650I0000000J0000410D01*
G03X0005630Y0019060I0000410J0000000D01*
G01X0005390Y0018318D02*
G03X0005630Y0018240I0000240J0000332D01*
G01X0006040Y0017650D02*
G03X0005630Y0018060I0000410J0000000D01*
G01X0004630Y0018240D02*
G03X0004870Y0018318I0000000J0000410D01*
G01X0004630Y0018060D02*
G03X0004220Y0017650I0000000J0000410D01*
G01X0003220Y0018650D02*
G03X0003630Y0018240I0000410J0000000D01*
G03X0004036Y0018593I0000000J0000410D01*
G01X0003220Y0017650D02*
G03X0003630Y0017240I0000410J0000000D01*
G03X0004040Y0017650I0000000J0000410D01*
G03X0003630Y0018060I0000410J0000000D01*
G03X0003220Y0017650I0000000J0000410D01*
G01X0010220Y0005050D02*
G03X0010630Y0004640I0000410J0000000D01*
G03X0011040Y0005050I0000000J0000410D01*
G03X0010630Y0005460I0000410J0000000D01*
G01X0010220Y0004050D02*
G03X0010630Y0003640I0000410J0000000D01*
G03X0011040Y0004050I0000000J0000410D01*
G03X0010630Y0004460I0000410J0000000D01*
G03X0010220Y0004050I0000000J0000410D01*
G01X0009220Y0005050D02*
G03X0009630Y0004640I0000410J0000000D01*
G03X0010040Y0005050I0000000J0000410D01*
G03X0009630Y0005460I0000410J0000000D01*
G03X0009220Y0005050I0000000J0000410D01*
G01X0004060Y0011080D02*
G03X0004080Y0011081I0000000J0000245D01*
G01X0005630Y0012740D02*
G03X0006040Y0013150I0000000J0000410D01*
G03X0005630Y0013560I0000410J0000000D01*
G01X0005230Y0013060D02*
G03X0005630Y0012740I0000400J0000090D01*
Y0013560D02*
G03X0005230Y0013240I0000000J0000410D01*
G01X0005630Y0011740D02*
G03X0006040Y0012150I0000000J0000410D01*
G03X0005630Y0012560I0000410J0000000D01*
G01X0005230Y0012060D02*
G03X0005630Y0011740I0000400J0000090D01*
Y0012560D02*
G03X0005230Y0012240I0000000J0000410D01*
G01X0003220Y0013150D02*
G03X0003630Y0012740I0000410J0000000D01*
G03X0004040Y0013150I0000000J0000410D01*
G03X0003630Y0013560I0000410J0000000D01*
G01X0003220Y0012150D02*
G03X0003630Y0011740I0000410J0000000D01*
G03X0004040Y0012150I0000000J0000410D01*
G03X0003630Y0012560I0000410J0000000D01*
G01X0003246Y0012294D02*
G03X0003220Y0012150I0000384J0000144D01*
G01X0010220Y0015840D02*
G03X0010630Y0015430I0000410J0000000D01*
G03X0011040Y0015840I0000000J0000410D01*
G01X0011880Y0016850D02*
G03X0011930Y0016970I0000120J0000120D01*
G01X0010630Y0016250D02*
G03X0010220Y0015840I0000000J0000410D01*
Y0014840D02*
G03X0010630Y0014430I0000410J0000000D01*
G03X0011040Y0014840I0000000J0000410D01*
G03X0010630Y0015250I0000410J0000000D01*
G03X0010220Y0014840I0000000J0000410D01*
G01X0009220Y0015840D02*
G03X0009630Y0015430I0000410J0000000D01*
Y0017240D02*
G03X0009870Y0017318I0000000J0000410D01*
G01X0009630Y0015430D02*
G03X0009870Y0015508I0000000J0000410D01*
G01X0009630Y0016250D02*
G03X0009220Y0015840I0000000J0000410D01*
Y0014840D02*
G03X0009630Y0014430I0000410J0000000D01*
G01X0009870Y0016172D02*
G03X0009630Y0016250I0000240J0000332D01*
Y0014430D02*
G03X0009870Y0014508I0000000J0000410D01*
G01X0009630Y0015250D02*
G03X0009220Y0014840I0000000J0000410D01*
G01X0008691Y0014434D02*
G03X0008870Y0014508I0000061J0000406D01*
G01X0007420Y0014020D02*
G03X0007540Y0013970I0000120J0000120D01*
G01X0003405Y0006795D02*
G03X0003517Y0006822I0000000J0000245D01*
G01X0007420Y0006660D02*
G03X0007300Y0006710I0000120J0000120D01*
G01X0008630Y0013590D02*
G03X0008291Y0013411I0000000J0000410D01*
G01X0006955Y0010310D02*
G03X0007040Y0010560I0000325J0000250D01*
G01X0011360Y0022420D02*
G03X0011240Y0022470I0000120J0000120D01*
G01X0006115Y0005854D02*
G03X0006275Y0005795I0000160J0000186D01*
G01X0007500Y0005950D02*
G03X0007380Y0005900I0000000J0000170D01*
G01X0004242Y0000680D02*
G03X0003880Y0001074I0000395J0000000D01*
G01X0003715Y0000308D02*
G03X0003847Y0000285I0000132J0000372D01*
G01X0003815Y0001074D02*
G03X0003452Y0000680I0000032J0000394D01*
G01X0001520Y0000160D02*
G03X0001640Y0000110I0000120J0000120D01*
G01X0002665Y0000680D02*
G03X0002739Y0000450I0000395J0000000D01*
G01X0008003Y0013350D02*
G03X0007630Y0013590I0000373J0000170D01*
G01X-0001008Y0011823D02*
G03X-0001080Y0011780I0000048J0000163D01*
G01X-0001265Y0012200D02*
G03X-0001008Y0011823I0000405J0000000D01*
G01X0001590Y0005860D02*
G03X0001640Y0005740I0000170J0000000D01*
G01X-0003830Y0008676D02*
G03X-0003905Y0008500I0000170J0000176D01*
G01X0002478Y0005370D02*
G03X0002655Y0005295I0000177J0000170D01*
G01X0002478Y0004870D02*
G03X0002655Y0004795I0000177J0000170D01*
G01X0000175Y0017800D02*
G03X0000420Y0017555I0000245J0000000D01*
G03X0000665Y0017800I0000000J0000245D01*
G03X0000420Y0018045I0000245J0000000D01*
G03X0000175Y0017800I0000000J0000245D01*
Y0021225D02*
G03X0000420Y0020980I0000245J0000000D01*
G03X0000665Y0021225I0000000J0000245D01*
G03X0000420Y0021470I0000245J0000000D01*
G03X0000175Y0021225I0000000J0000245D01*
G01X0001640Y0003710D02*
G03X0001520Y0003660I0000000J0000170D01*
G01X-0001080Y0004920D02*
G03X-0000960Y0004870I0000120J0000120D01*
G01X0001150Y0000600D02*
G03X0001200Y0000480I0000170J0000000D01*
Y0003340D02*
G03X0001150Y0003220I0000120J0000120D01*
G01X0003447Y0000110D02*
G03X0003567Y0000160I0000000J0000170D01*
G01X0001520D02*
G03X0001640Y0000110I0000120J0000120D01*
G01X0006050Y0010970D02*
G03X0006100Y0010850I0000170J0000000D01*
G01X0005930Y0010020D02*
G03X0006050Y0009970I0000120J0000120D01*
G01X0001960Y0005420D02*
G03X0002080Y0005370I0000120J0000120D01*
G01X0001930Y0009080D02*
G03X0001880Y0009200I0000170J0000000D01*
G01X0001590Y0005860D02*
G03X0001640Y0005740I0000170J0000000D01*
G01X0001000Y0019124D02*
G03X0001245Y0019369I0000000J0000245D01*
G01X0005779Y0016518D02*
G03X0005800Y0016600I0000149J0000082D01*
G01X0005580Y0016130D02*
G03X0005825Y0016375I0000000J0000245D01*
G01X0005390Y0016220D02*
G03X0005580Y0016130I0000190J0000155D01*
G01X0005825Y0016375D02*
G03X0005779Y0016518I0000245J0000000D01*
G01X0005800Y0017277D02*
G03X0006040Y0017650I0000170J0000373D01*
G01X0004241Y0002795D02*
G03X0004417Y0002870I0000000J0000245D01*
G01X0004017Y0002940D02*
G03X0004241Y0002795I0000224J0000100D01*
G01X0008291Y0013411D02*
G03X0008210Y0013425I0000081J0000231D01*
G01X0000915Y0012740D02*
G03X0001160Y0012495I0000245J0000000D01*
G03X0001405Y0012740I0000000J0000245D01*
G03X0001160Y0012985I0000245J0000000D01*
G03X0000915Y0012740I0000000J0000245D01*
G01X-0001135Y0021500D02*
G03X-0000890Y0021255I0000245J0000000D01*
G03X-0000645Y0021500I0000000J0000245D01*
G03X-0000890Y0021745I0000245J0000000D01*
G03X-0001135Y0021500I0000000J0000245D01*
G01X0004241Y0003785D02*
G03X0004017Y0003640I0000000J0000245D01*
Y0004380D02*
G03X0003967Y0004500I0000170J0000000D01*
G01X0004241Y0003285D02*
G03X0004017Y0003140I0000000J0000245D01*
G01X0003807Y0004660D02*
G03X0003687Y0004710I0000120J0000120D01*
G01X0011930Y0021780D02*
G03X0011880Y0021900I0000170J0000000D01*
Y0016850D02*
G03X0011930Y0016970I0000120J0000120D01*
G01X0011360Y0022420D02*
G03X0011240Y0022470I0000120J0000120D01*
G01X0005930Y0010020D02*
G03X0006050Y0009970I0000120J0000120D01*
G01X0005609Y0019147D02*
G03X0005685Y0019135I0000076J0000233D01*
G01X0005855Y0019605D02*
G03X0005815Y0019714I0000170J0000000D01*
G01X0005855Y0019605D02*
G03X0005815Y0019714I0000170J0000000D01*
G01X0005630Y0010150D02*
G03X0005774Y0010176I0000000J0000410D01*
G01X0009747Y0019491D02*
G03X0009520Y0019645I0000227J0000091D01*
G01X0005630Y0019060D02*
G03X0005575Y0019056I0000000J0000410D01*
G01X0005480Y0014340D02*
G03X0005725Y0014585I0000000J0000245D01*
G03X0005480Y0014830I0000245J0000000D01*
G01X0009275Y0019400D02*
G03X0009520Y0019155I0000245J0000000D01*
G01X0009798Y0019230D02*
G03X0009729Y0019060I0000176J0000170D01*
G01X0009520Y0019155D02*
G03X0009747Y0019309I0000000J0000245D01*
G01X0009520Y0019645D02*
G03X0009275Y0019400I0000000J0000245D01*
G01X0003610Y0006295D02*
G03X0003786Y0006370I0000000J0000245D01*
G01X0003980Y0006295D02*
G03X0004225Y0006540I0000000J0000245D01*
G03X0003980Y0006785I0000245J0000000D01*
G01X0007795Y0011150D02*
G03X0007870Y0010973I0000245J0000000D01*
G01X0008285Y0011150D02*
G03X0008210Y0011326I0000245J0000000D01*
G01X0003507Y0006317D02*
G03X0003610Y0006294I0000103J0000223D01*
G01X0009040Y0012525D02*
G03X0009285Y0012770I0000000J0000245D01*
G03X0009105Y0013006I0000245J0000000D01*
G01X0008210Y0012935D02*
G03X0008291Y0012949I0000000J0000245D01*
G01X0003995Y0007040D02*
G03X0004240Y0006795I0000245J0000000D01*
G03X0004485Y0007040I0000000J0000245D01*
G03X0004240Y0007285I0000245J0000000D01*
G03X0003995Y0007040I0000000J0000245D01*
G01X0002655Y0007285D02*
G03X0002410Y0007040I0000000J0000245D01*
G03X0002655Y0006795I0000245J0000000D01*
G01X0003405Y0006295D02*
G03X0003507Y0006317I0000000J0000245D01*
G01X0002655Y0006785D02*
G03X0002410Y0006540I0000000J0000245D01*
G03X0002655Y0006295I0000245J0000000D01*
G01X0003405Y0005295D02*
G03X0003650Y0005540I0000000J0000245D01*
G03X0003405Y0005785I0000245J0000000D01*
G01X0002655D02*
G03X0002478Y0005710I0000000J0000245D01*
G01X0003405Y0004795D02*
G03X0003650Y0005040I0000000J0000245D01*
G03X0003405Y0005285I0000245J0000000D01*
G01X0002655D02*
G03X0002478Y0005210I0000000J0000245D01*
G01X0003405Y0004295D02*
G03X0003581Y0004370I0000000J0000245D01*
G01X0002655Y0004785D02*
G03X0002410Y0004540I0000000J0000245D01*
G03X0002655Y0004295I0000245J0000000D01*
G01X0003405Y0003795D02*
G03X0003650Y0004040I0000000J0000245D01*
G03X0003405Y0004285I0000245J0000000D01*
G01X0002655D02*
G03X0002410Y0004040I0000000J0000245D01*
G03X0002655Y0003795I0000245J0000000D01*
G01X0003405Y0003295D02*
G03X0003650Y0003540I0000000J0000245D01*
G03X0003405Y0003785I0000245J0000000D01*
G01X0002655D02*
G03X0002478Y0003710I0000000J0000245D01*
G01X0003405Y0002795D02*
G03X0003650Y0003040I0000000J0000245D01*
G03X0003405Y0003285I0000245J0000000D01*
G01X0002655D02*
G03X0002410Y0003040I0000000J0000245D01*
G03X0002655Y0002795I0000245J0000000D01*
G01X0003405Y0002295D02*
G03X0003650Y0002540I0000000J0000245D01*
G03X0003405Y0002785I0000245J0000000D01*
G01X0002655D02*
G03X0002410Y0002540I0000000J0000245D01*
G03X0002655Y0002295I0000245J0000000D01*
G01X0007025D02*
G03X0007270Y0002540I0000000J0000245D01*
G03X0007025Y0002785I0000245J0000000D01*
G01X0006275D02*
G03X0006030Y0002540I0000000J0000245D01*
G03X0006275Y0002295I0000245J0000000D01*
G01X0007025Y0002795D02*
G03X0007270Y0003040I0000000J0000245D01*
G03X0007025Y0003285I0000245J0000000D01*
G01X0004417Y0003210D02*
G03X0004241Y0003285I0000176J0000170D01*
G01X0006275D02*
G03X0006098Y0003210I0000000J0000245D01*
G01X0007025Y0003295D02*
G03X0007270Y0003540I0000000J0000245D01*
G03X0007025Y0003785I0000245J0000000D01*
G01X0006275D02*
G03X0006098Y0003710I0000000J0000245D01*
G01X0006275Y0004285D02*
G03X0006030Y0004040I0000000J0000245D01*
G03X0006275Y0003795I0000245J0000000D01*
G01X0007025Y0004295D02*
G03X0007201Y0004370I0000000J0000245D01*
G01X0006275Y0004785D02*
G03X0006030Y0004540I0000000J0000245D01*
G03X0006275Y0004295I0000245J0000000D01*
G01X0007025Y0004795D02*
G03X0007201Y0004870I0000000J0000245D01*
G01X0006275Y0005285D02*
G03X0006030Y0005040I0000000J0000245D01*
G03X0006275Y0004795I0000245J0000000D01*
G01X0007870Y0010892D02*
G03X0007630Y0010970I0000240J0000332D01*
G01X0006275Y0005785D02*
G03X0006030Y0005540I0000000J0000245D01*
G03X0006275Y0005295I0000245J0000000D01*
G01X0007025Y0005795D02*
G03X0007270Y0006040I0000000J0000245D01*
G03X0007025Y0006285I0000245J0000000D01*
G01X0006275D02*
G03X0006115Y0006225I0000000J0000245D01*
G01X0007025Y0006295D02*
G03X0007201Y0006370I0000000J0000245D01*
G01X0006275Y0006785D02*
G03X0006030Y0006540I0000000J0000245D01*
G03X0006275Y0006295I0000245J0000000D01*
G01X0005292Y0001074D02*
G03X0005737Y0000629I0000445J0000000D01*
G03X0006182Y0001074I0000000J0000445D01*
G03X0005737Y0001519I0000445J0000000D01*
G03X0005292Y0001074I0000000J0000445D01*
G01X0001513D02*
G03X0001958Y0000629I0000445J0000000D01*
G03X0002403Y0001074I0000000J0000445D01*
G03X0001958Y0001519I0000445J0000000D01*
G03X0001513Y0001074I0000000J0000445D01*
G01X0003452Y0001467D02*
G03X0003815Y0001074I0000395J0000000D01*
G01X0003455Y0000680D02*
G03X0003092Y0001074I0000395J0000000D01*
G01X0003027D02*
G03X0002665Y0000680I0000033J0000394D01*
G01X0005030Y0001467D02*
G03X0004635Y0001862I0000395J0000000D01*
G01X0003060D02*
G03X0002665Y0001467I0000000J0000395D01*
G01X0004635Y0000285D02*
G03X0005030Y0000680I0000000J0000395D01*
G01X0004240D02*
G03X0004635Y0000285I0000395J0000000D01*
G01X0002665Y0001467D02*
G03X0003027Y0001074I0000395J0000000D01*
G01X0003847Y0000285D02*
G03X0004242Y0000680I0000000J0000395D01*
G01X0003455Y0001467D02*
G03X0003060Y0001862I0000395J0000000D01*
G01X-0000300Y0005895D02*
G03X0000545Y0006740I0000000J0000845D01*
G03X-0000300Y0007585I0000845J0000000D01*
G01X-0001110Y0006499D02*
G03X-0000300Y0005895I0000810J0000241D01*
G01X-0001145Y0016580D02*
G03X-0000300Y0015735I0000845J0000000D01*
G03X0000545Y0016580I0000000J0000845D01*
G03X-0000300Y0017425I0000845J0000000D01*
G03X-0001145Y0016580I0000000J0000845D01*
G01X-0000300Y0007585D02*
G03X-0001110Y0006981I0000000J0000845D01*
G01X-0000860Y0009635D02*
G03X-0000455Y0010040I0000000J0000405D01*
G03X-0000860Y0010445I0000405J0000000D01*
G01X-0001110Y0009721D02*
G03X-0000860Y0009635I0000250J0000319D01*
Y0010445D02*
G03X-0001110Y0010359I0000000J0000405D01*
G01X-0000860Y0010715D02*
G03X-0000455Y0011120I0000000J0000405D01*
G01X-0001110Y0010801D02*
G03X-0000860Y0010715I0000250J0000319D01*
G01X0000260Y0012065D02*
G03X-0000108Y0011830I0000000J0000405D01*
G01X-0000455Y0012200D02*
G03X-0000860Y0012605I0000405J0000000D01*
G03X-0001265Y0012200I0000000J0000405D01*
Y0013280D02*
G03X-0000860Y0012875I0000405J0000000D01*
G03X-0000455Y0013280I0000000J0000405D01*
G03X-0000860Y0013685I0000405J0000000D01*
G03X-0001265Y0013280I0000000J0000405D01*
G01X-0000145Y0012740D02*
G03X0000260Y0012335I0000405J0000000D01*
G03X0000665Y0012740I0000000J0000405D01*
G03X0000260Y0013145I0000405J0000000D01*
G03X-0000145Y0012740I0000000J0000405D01*
G01X0000260Y0011255D02*
G03X0000665Y0011660I0000000J0000405D01*
G03X0000260Y0012065I0000405J0000000D01*
G01X-0000108Y0011490D02*
G03X0000260Y0011255I0000368J0000170D01*
G01X-0000145Y0010580D02*
G03X0000260Y0010175I0000405J0000000D01*
G01X0000665Y0010580D02*
G03X0000260Y0010985I0000405J0000000D01*
G03X-0000145Y0010580I0000000J0000405D01*
Y0009500D02*
G03X0000260Y0009095I0000405J0000000D01*
G03X0000665Y0009500I0000000J0000405D01*
G03X0000260Y0009905I0000405J0000000D01*
G03X-0000145Y0009500I0000000J0000405D01*
G01X0003220Y0015850D02*
G03X0003630Y0015440I0000410J0000000D01*
G03X0004040Y0015850I0000000J0000410D01*
G03X0003630Y0016260I0000410J0000000D01*
G03X0003220Y0015850I0000000J0000410D01*
Y0014850D02*
G03X0003630Y0014440I0000410J0000000D01*
G03X0004040Y0014850I0000000J0000410D01*
G03X0003630Y0015260I0000410J0000000D01*
G03X0003220Y0014850I0000000J0000410D01*
G01X0002220Y0015850D02*
G03X0002630Y0015440I0000410J0000000D01*
G03X0003040Y0015850I0000000J0000410D01*
G01X0002630Y0016260D02*
G03X0002220Y0015850I0000000J0000410D01*
G01X0008220Y0009560D02*
G03X0008630Y0009150I0000410J0000000D01*
G03X0009040Y0009560I0000000J0000410D01*
G03X0008630Y0009970I0000410J0000000D01*
G03X0008220Y0009560I0000000J0000410D01*
G01X0007220Y0010560D02*
G03X0007305Y0010310I0000410J0000000D01*
G01X0008210Y0010973D02*
G03X0008285Y0011150I0000170J0000177D01*
G01X0007630Y0010970D02*
G03X0007220Y0010560I0000000J0000410D01*
G01X0007630Y0009150D02*
G03X0008040Y0009560I0000000J0000410D01*
G03X0007630Y0009970I0000410J0000000D01*
G01X0007040Y0010560D02*
G03X0006630Y0010970I0000410J0000000D01*
G01X0006220Y0009560D02*
G03X0006630Y0009150I0000410J0000000D01*
G01X0007630Y0009970D02*
G03X0007250Y0009714I0000000J0000410D01*
G01X0006220Y0010560D02*
G03X0006305Y0010310I0000410J0000000D01*
G01X0006630Y0009150D02*
G03X0006910Y0009260I0000000J0000410D01*
G01X0005220Y0010560D02*
G03X0005630Y0010150I0000410J0000000D01*
G01X0006040Y0010560D02*
G03X0005630Y0010970I0000410J0000000D01*
G03X0005220Y0010560I0000000J0000410D01*
Y0009560D02*
G03X0005630Y0009150I0000410J0000000D01*
G03X0006040Y0009560I0000000J0000410D01*
G03X0005630Y0009970I0000410J0000000D01*
G03X0005220Y0009560I0000000J0000410D01*
G01X0010220Y0007620D02*
G03X0010630Y0007210I0000410J0000000D01*
G03X0011040Y0007620I0000000J0000410D01*
G03X0010630Y0008030I0000410J0000000D01*
G03X0010220Y0007620I0000000J0000410D01*
Y0006620D02*
G03X0010630Y0006210I0000410J0000000D01*
G03X0011040Y0006620I0000000J0000410D01*
G03X0010630Y0007030I0000410J0000000D01*
G03X0010220Y0006620I0000000J0000410D01*
G01X0009220Y0007620D02*
G03X0009630Y0007210I0000410J0000000D01*
G03X0009870Y0007288I0000000J0000410D01*
G01X0009630Y0008030D02*
G03X0009220Y0007620I0000000J0000410D01*
Y0006620D02*
G03X0009630Y0006210I0000410J0000000D01*
G01X0009870Y0007952D02*
G03X0009630Y0008030I0000240J0000332D01*
Y0006210D02*
G03X0009870Y0006288I0000000J0000410D01*
G01X0009630Y0007030D02*
G03X0009220Y0006620I0000000J0000410D01*
G01X0008220Y0007620D02*
G03X0008630Y0007210I0000410J0000000D01*
G03X0009040Y0007620I0000000J0000410D01*
G03X0008630Y0008030I0000410J0000000D01*
G03X0008220Y0007620I0000000J0000410D01*
G01X0010220Y0013180D02*
G03X0010630Y0012770I0000410J0000000D01*
G03X0011040Y0013180I0000000J0000410D01*
G03X0010630Y0013590I0000410J0000000D01*
G03X0010220Y0013180I0000000J0000410D01*
G01X0009220D02*
G03X0009630Y0012770I0000410J0000000D01*
G03X0009870Y0012848I0000000J0000410D01*
G01X0009630Y0013590D02*
G03X0009220Y0013180I0000000J0000410D01*
G01X0008783Y0012799D02*
G03X0008795Y0012778I0000152J0000076D01*
G01X0007220Y0013180D02*
G03X0007630Y0012770I0000410J0000000D01*
G01X0008210Y0013425D02*
G03X0008033Y0013350I0000000J0000245D01*
G01X0007630Y0013590D02*
G03X0007220Y0013180I0000000J0000410D01*
G01X0010220Y0018650D02*
G03X0010630Y0018240I0000410J0000000D01*
G03X0011040Y0018650I0000000J0000410D01*
G03X0010630Y0019060I0000410J0000000D01*
G03X0010220Y0018650I0000000J0000410D01*
Y0017650D02*
G03X0010630Y0017240I0000410J0000000D01*
G03X0011040Y0017650I0000000J0000410D01*
G03X0010630Y0018060I0000410J0000000D01*
G03X0010220Y0017650I0000000J0000410D01*
G01X0009220Y0018650D02*
G03X0009630Y0018240I0000410J0000000D01*
G03X0010040Y0018650I0000000J0000410D01*
G01X0010150Y0019230D02*
G03X0010219Y0019400I0000175J0000170D01*
G01X0009630Y0019060D02*
G03X0009220Y0018650I0000000J0000410D01*
Y0017650D02*
G03X0009630Y0017240I0000410J0000000D01*
G01X0009870Y0013512D02*
G03X0009630Y0013590I0000240J0000332D01*
Y0018060D02*
G03X0009220Y0017650I0000000J0000410D01*
G01X0007825Y0014385D02*
G03X0007648Y0014310I0000000J0000245D01*
G01X0006475Y0013860D02*
G03X0006720Y0013615I0000245J0000000D01*
G03X0006965Y0013860I0000000J0000245D01*
G01X0006720Y0014105D02*
G03X0006475Y0013860I0000000J0000245D01*
G01X0007420Y0004160D02*
G03X0007300Y0004210I0000120J0000120D01*
G01X0007290Y0003360D02*
G03X0007340Y0003240I0000170J0000000D01*
G01X0007630Y0003880D02*
G03X0007580Y0004000I0000170J0000000D01*
G01X0007660Y0002920D02*
G03X0007780Y0002870I0000120J0000120D01*
G01X0000435Y0016015D02*
G03X0000680Y0015770I0000245J0000000D01*
G03X0000925Y0016015I0000000J0000245D01*
G03X0000680Y0016260I0000245J0000000D01*
G03X0000435Y0016015I0000000J0000245D01*
Y0019595D02*
G03X0000680Y0019350I0000245J0000000D01*
G03X0000755Y0019362I0000000J0000245D01*
G01X0000680Y0019840D02*
G03X0000435Y0019595I0000000J0000245D01*
G01X0007980Y0004580D02*
G03X0008100Y0004530I0000120J0000120D01*
G01X0000751Y0019879D02*
G03X0000759Y0019827I0000170J0000000D01*
G01X0007880Y0005160D02*
G03X0007760Y0005210I0000120J0000120D01*
G01X0000755Y0019362D02*
G03X0001000Y0019124I0000245J0000007D01*
G01X0000759Y0019827D02*
G03X0000680Y0019840I0000079J0000232D01*
G01X0000759Y0019827D02*
G03X0000680Y0019840I0000079J0000232D01*
G01X0001188Y0019526D02*
G03X0001260Y0019515I0000072J0000234D01*
G01X0001337Y0018797D02*
G03X0001260Y0018809I0000077J0000232D01*
G01X0007380Y0006220D02*
G03X0007500Y0006170I0000120J0000120D01*
G01X0007420Y0006660D02*
G03X0007300Y0006710I0000120J0000120D01*
G01X0003677Y0001824D02*
G03X0003452Y0001467I0000170J0000357D01*
G01X0004241Y0003295D02*
G03X0004417Y0003370I0000000J0000245D01*
G01X0004017Y0003440D02*
G03X0004241Y0003295I0000224J0000100D01*
G01X-0003140Y0022430D02*
G03X-0003260Y0022380I0000000J0000170D01*
G01X-0003780Y0021860D02*
G03X-0003830Y0021740I0000120J0000120D01*
G01X-0003905Y0008500D02*
G03X-0003660Y0008255I0000245J0000000D01*
G03X-0003415Y0008500I0000000J0000245D01*
G03X-0003490Y0008676I0000245J0000000D01*
G01X-0000070Y0018860D02*
G03X0000175Y0018615I0000245J0000000D01*
G03X0000420Y0018860I0000000J0000245D01*
G03X0000175Y0019105I0000245J0000000D01*
G03X-0000070Y0018860I0000000J0000245D01*
G01X0007900Y0004020D02*
G03X0008020Y0003970I0000120J0000120D01*
G01X0007740Y0004660D02*
G03X0007620Y0004710I0000120J0000120D01*
G01X0007260Y0005370D02*
G03X0007380Y0005420I0000000J0000170D01*
G01X0007500Y0005950D02*
G03X0007380Y0005900I0000000J0000170D01*
G01X0009870Y0006952D02*
G03X0009630Y0007030I0000240J0000332D01*
G01X0007201Y0005210D02*
G03X0007025Y0005285I0000176J0000170D01*
G01X0007660Y0002920D02*
G03X0007780Y0002870I0000120J0000120D01*
G01X0009870Y0005640D02*
G03X0009920Y0005520I0000170J0000000D01*
G01X0009730Y0018060D02*
G03X0009730Y0018047I0000245J0000000D01*
G01X0010220Y0018060D02*
G03X0009975Y0018305I0000245J0000000D01*
G03X0009730Y0018060I0000000J0000245D01*
G01X0009160Y0013470D02*
G03X0009210Y0013590I0000120J0000120D01*
G01X0008220Y0014340D02*
G03X0008465Y0014095I0000245J0000000D01*
G03X0008710Y0014340I0000000J0000245D01*
G03X0008691Y0014434I0000245J0000000D01*
G01X0009730Y0018047D02*
G03X0009630Y0018059I0000100J0000397D01*
G01X0004220Y0017552D02*
G03X0003975Y0017307I0000000J0000245D01*
G03X0004050Y0017130I0000245J0000000D01*
G01X0001015Y0018565D02*
G03X0001260Y0018320I0000245J0000000D01*
G03X0001337Y0018332I0000000J0000245D01*
G01X0001260Y0018810D02*
G03X0001015Y0018565I0000000J0000245D01*
Y0014845D02*
G03X0001260Y0014600I0000245J0000000D01*
G03X0001337Y0014612I0000000J0000245D01*
G01X0001260Y0015090D02*
G03X0001015Y0014845I0000000J0000245D01*
G01X-0001008Y0011823D02*
G03X-0001080Y0011780I0000048J0000163D01*
G01X-0001450Y0005360D02*
G03X-0001400Y0005240I0000170J0000000D01*
Y0011460D02*
G03X-0001450Y0011340I0000120J0000120D01*
G01X-0001080Y0004920D02*
G03X-0000960Y0004870I0000120J0000120D01*
G01X0003390Y0000463D02*
G03X0003455Y0000680I0000330J0000217D01*
G01X0004890Y0004021D02*
G03X0004750Y0003800I0000105J0000221D01*
G01X0003452Y0000680D02*
G03X0003475Y0000548I0000395J0000000D01*
G01X0001250Y0013516D02*
G03X0001175Y0013340I0000170J0000176D01*
G01X0001337Y0015077D02*
G03X0001260Y0015089I0000077J0000232D01*
G01X0003160Y0012860D02*
G03X0003040Y0012910I0000120J0000120D01*
G01X0002060Y0012620D02*
G03X0002180Y0012570I0000120J0000120D01*
G01X0005710Y0006040D02*
G03X0005955Y0005795I0000245J0000000D01*
G03X0006115Y0005854I0000000J0000245D01*
G01X0005955Y0006285D02*
G03X0005710Y0006040I0000000J0000245D01*
G01X0011090Y0013600D02*
G03X0011335Y0013355I0000245J0000000D01*
G03X0011580Y0013600I0000000J0000245D01*
G03X0011335Y0013845I0000245J0000000D01*
G03X0011090Y0013600I0000000J0000245D01*
G01X0004232Y0017552D02*
G03X0004220Y0017552I0000012J0000245D01*
G01X0003815Y0011325D02*
G03X0004060Y0011080I0000245J0000000D01*
G01X0004100Y0018530D02*
G03X0004220Y0018480I0000120J0000120D01*
G01X0004257D02*
G03X0004630Y0018240I0000373J0000170D01*
G01X0002990Y0019130D02*
G03X0003011Y0019150I0000155J0000190D01*
G01X0003530Y0013560D02*
G03X0003285Y0013805I0000245J0000000D01*
G01X0003108Y0013390D02*
G03X0003255Y0013317I0000177J0000170D01*
G01X0003285Y0013805D02*
G03X0003108Y0013730I0000000J0000245D01*
G01X0007201Y0006710D02*
G03X0007025Y0006785I0000176J0000170D01*
G01X0001245Y0019369D02*
G03X0001188Y0019526I0000245J0000000D01*
G01X0009747Y0019309D02*
G03X0009798Y0019230I0000228J0000091D01*
G01X0010220Y0019400D02*
G03X0009975Y0019645I0000245J0000000D01*
G01X0009210Y0021760D02*
G03X0009160Y0021880I0000170J0000000D01*
G01X0008815Y0013605D02*
G03X0008783Y0013560I0000120J0000120D01*
G01X0008815Y0013605D02*
G03X0008783Y0013560I0000120J0000120D01*
G01X0006910Y0008139D02*
G03X0006835Y0007963I0000170J0000176D01*
G03X0007080Y0007718I0000245J0000000D01*
G03X0007325Y0007963I0000000J0000245D01*
G03X0007250Y0008139I0000245J0000000D01*
G01X0007420Y0014020D02*
G03X0007540Y0013970I0000120J0000120D01*
G01X0007825Y0013895D02*
G03X0008070Y0014140I0000000J0000245D01*
G03X0007825Y0014385I0000245J0000000D01*
G01X0007648Y0013970D02*
G03X0007825Y0013895I0000177J0000170D01*
G01X0001025Y0007420D02*
G03X0001100Y0007243I0000245J0000000D01*
G01X0001515Y0007420D02*
G03X0001270Y0007665I0000245J0000000D01*
G03X0001025Y0007420I0000000J0000245D01*
G01X0003980Y0006785D02*
G03X0003910Y0006775I0000000J0000245D01*
Y0006840D02*
G03X0003860Y0006960I0000170J0000000D01*
G01X0003660Y0007160D02*
G03X0003588Y0007203I0000120J0000120D01*
G01X0003660Y0007160D02*
G03X0003588Y0007203I0000120J0000120D01*
G01X0008160Y0010240D02*
G03X0008210Y0010360I0000120J0000120D01*
G01X0007820Y0009970D02*
G03X0007940Y0010020I0000000J0000170D01*
G01X0007250Y0009406D02*
G03X0007630Y0009150I0000380J0000154D01*
G01X0007820Y0009970D02*
G03X0007940Y0010020I0000000J0000170D01*
G01X0006630Y0009970D02*
G03X0006220Y0009560I0000000J0000410D01*
G01X0003560Y0006780D02*
G03X0003507Y0006762I0000050J0000240D01*
G01X0007920Y0012400D02*
G03X0007870Y0012280I0000120J0000120D01*
G01X0008360Y0012770D02*
G03X0008240Y0012720I0000000J0000170D01*
G01X0008870Y0012430D02*
G03X0008990Y0012480I0000000J0000170D01*
G01X0008360Y0012770D02*
G03X0008240Y0012720I0000000J0000170D01*
G01X0008783Y0012799D02*
G03X0008795Y0012778I0000152J0000076D01*
G01X0008291Y0012949D02*
G03X0008630Y0012770I0000339J0000231D01*
G01X0001760Y0009560D02*
G03X0002005Y0009315I0000245J0000000D01*
G03X0002250Y0009560I0000000J0000245D01*
G01X0002170Y0010780D02*
G03X0002120Y0010900I0000170J0000000D01*
G01X0001835Y0009736D02*
G03X0001760Y0009560I0000170J0000176D01*
G01X0001510Y0011100D02*
G03X0001560Y0010980I0000170J0000000D01*
G01X0003588Y0007203D02*
G03X0003405Y0007285I0000183J0000163D01*
G01X0007870Y0011326D02*
G03X0007795Y0011150I0000170J0000176D01*
G01X0008783Y0013560D02*
G03X0008630Y0013590I0000153J0000380D01*
G01X-0001845Y0021790D02*
G03X-0001600Y0021545I0000245J0000000D01*
G03X-0001355Y0021790I0000000J0000245D01*
G01X-0001600Y0022035D02*
G03X-0001845Y0021790I0000000J0000245D01*
G01X-0003780Y0021860D02*
G03X-0003830Y0021740I0000120J0000120D01*
G01X0010315Y0021800D02*
G03X0010560Y0021555I0000245J0000000D01*
G03X0010805Y0021800I0000000J0000245D01*
G03X0010560Y0022045I0000245J0000000D01*
G03X0010315Y0021800I0000000J0000245D01*
G01X0003803Y0006370D02*
G03X0003980Y0006295I0000177J0000170D01*
G01X0007185Y0019840D02*
G03X0006940Y0020085I0000245J0000000D01*
G01X0006964Y0019596D02*
G03X0007185Y0019840I0000024J0000244D01*
G01X0003530Y0013547D02*
G03X0003530Y0013560I0000245J0000013D01*
G01X0000435Y0019595D02*
G03X0000680Y0019350I0000245J0000000D01*
G03X0000755Y0019362I0000000J0000245D01*
G01X0000680Y0019840D02*
G03X0000435Y0019595I0000000J0000245D01*
Y0016015D02*
G03X0000680Y0015770I0000245J0000000D01*
G03X0000925Y0016015I0000000J0000245D01*
G03X0000680Y0016260I0000245J0000000D01*
G03X0000435Y0016015I0000000J0000245D01*
G01X0003375Y0008940D02*
G03X0003620Y0008695I0000245J0000000D01*
G03X0003865Y0008940I0000000J0000245D01*
G01X0003620Y0009185D02*
G03X0003375Y0008940I0000000J0000245D01*
G01X0004750Y0003800D02*
G03X0004767Y0003710I0000245J0000000D01*
G01X0005240Y0003800D02*
G03X0005230Y0003869I0000245J0000000D01*
Y0008080D02*
G03X0005180Y0008200I0000170J0000000D01*
G01X0005223Y0003710D02*
G03X0005240Y0003800I0000228J0000090D01*
G01X0003795Y0009112D02*
G03X0003620Y0009185I0000175J0000172D01*
G01X0003820Y0010820D02*
G03X0003770Y0010700I0000120J0000120D01*
Y0009200D02*
G03X0003795Y0009112I0000170J0000000D01*
G01X0003865Y0008940D02*
G03X0003824Y0009076I0000245J0000000D01*
G01X0004740Y0010830D02*
G03X0004860Y0010880I0000000J0000170D01*
G01X0005230Y0013340D02*
G03X0005180Y0013460I0000170J0000000D01*
Y0011200D02*
G03X0005230Y0011320I0000120J0000120D01*
G01X0005930Y0019380D02*
G03X0005855Y0019556I0000245J0000000D01*
G01X0005685Y0019135D02*
G03X0005930Y0019380I0000000J0000245D01*
G01X0005575Y0019056D02*
G03X0005609Y0019147I0000135J0000104D01*
G01X0003160Y0016140D02*
G03X0003210Y0016260I0000120J0000120D01*
Y0018840D02*
G03X0003160Y0018960I0000170J0000000D01*
G01X0002060Y0012620D02*
G03X0002180Y0012570I0000120J0000120D01*
G01X0007160Y0014060D02*
G03X0007210Y0014180I0000120J0000120D01*
G01X0010004Y0018817D02*
G03X0010219Y0019060I0000030J0000243D01*
G01X0002774Y0016234D02*
G03X0002630Y0016260I0000144J0000384D01*
G01X0007264Y0021324D02*
G03X0007310Y0021263I0000216J0000116D01*
G01X0003630Y0012560D02*
G03X0003486Y0012534I0000000J0000410D01*
G01X0003996Y0011561D02*
G03X0003815Y0011325I0000064J0000236D01*
G01X0003210Y0018840D02*
G03X0003160Y0018960I0000170J0000000D01*
G01X0004220Y0017650D02*
G03X0004232Y0017552I0000410J0000000D01*
G01X0009870Y0015172D02*
G03X0009630Y0015250I0000240J0000332D01*
G01X0007195Y0005716D02*
G03X0007025Y0005785I0000170J0000176D01*
G01X0011040Y0015840D02*
G03X0011014Y0015984I0000410J0000000D01*
G01X0009729Y0019060D02*
G03X0009729Y0019048I0000245J0000000D01*
G01X0010219Y0019060D02*
G03X0010152Y0019230I0000245J0000000D01*
G01X0001300Y0013720D02*
G03X0001250Y0013600I0000120J0000120D01*
G01X0001175Y0013340D02*
G03X0001420Y0013095I0000245J0000000D01*
G03X0001510Y0013112I0000000J0000245D01*
G01X0004635Y0001862D02*
G03X0004240Y0001467I0000000J0000395D01*
G01X0003880Y0001074D02*
G03X0004241Y0001467I0000033J0000393D01*
G01X0004602Y0001074D02*
G03X0004240Y0000680I0000033J0000394D01*
G01X0005030D02*
G03X0004667Y0001074I0000395J0000000D01*
G01X0004240Y0001467D02*
G03X0004602Y0001074I0000395J0000000D01*
G01X0004667D02*
G03X0005029Y0001467I0000032J0000393D01*
G01X0003092Y0001074D02*
G03X0003454Y0001467I0000032J0000393D01*
G01X-0001400Y0011460D02*
G03X-0001450Y0011340I0000120J0000120D01*
G01X-0000695Y0011830D02*
G03X-0000455Y0012200I0000165J0000370D01*
Y0011120D02*
G03X-0000695Y0011490I0000405J0000000D01*
G01X0003975Y0011660D02*
G03X0003996Y0011561I0000245J0000000D01*
G01X0003770Y0009200D02*
G03X0003795Y0009112I0000170J0000000D01*
G01X0004050Y0011836D02*
G03X0003975Y0011660I0000170J0000176D01*
G01X0005630Y0018060D02*
G03X0005390Y0017982I0000000J0000410D01*
G01X0009729Y0019048D02*
G03X0009630Y0019060I0000099J0000398D01*
G01X0008630Y0012770D02*
G03X0008783Y0012799I0000000J0000410D01*
G01X0006115Y0006225D02*
G03X0005955Y0006285I0000160J0000185D01*
G01X0003507Y0006762D02*
G03X0003405Y0006784I0000102J0000222D01*
G01X0010246Y0005194D02*
G03X0010220Y0005050I0000384J0000144D01*
G01X0008033Y0013010D02*
G03X0008210Y0012935I0000177J0000170D01*
G01X0009975Y0019645D02*
G03X0009747Y0019491I0000000J0000245D01*
G01X0010210Y0017991D02*
G03X0010220Y0018060I0000235J0000069D01*
G01X0009870Y0005640D02*
G03X0009920Y0005520I0000170J0000000D01*
G01X0007630Y0014430D02*
G03X0007963Y0014601I0000000J0000410D01*
G01X0010630Y0005460D02*
G03X0010486Y0005434I0000000J0000410D01*
G01X0006014Y0010416D02*
G03X0006040Y0010560I0000384J0000144D01*
G01X0006630Y0010970D02*
G03X0006486Y0010944I0000000J0000410D01*
G01X0002250Y0009560D02*
G03X0002175Y0009736I0000245J0000000D01*
G01X0000751Y0019879D02*
G03X0000759Y0019827I0000170J0000000D01*
G01X0000640Y0010440D02*
G03X0000665Y0010580I0000380J0000140D01*
G01X0006098Y0003370D02*
G03X0006275Y0003295I0000177J0000170D01*
G01X0004870Y0017982D02*
G03X0004630Y0018060I0000240J0000332D01*
G01X0000260Y0010175D02*
G03X0000400Y0010200I0000000J0000405D01*
G01X0004417Y0003710D02*
G03X0004241Y0003785I0000176J0000170D01*
G01X0006098Y0002870D02*
G03X0006275Y0002795I0000177J0000170D01*
G01X0004242Y0001467D02*
G03X0004017Y0001824I0000395J0000000D01*
G01X0006910Y0009859D02*
G03X0006630Y0009970I0000280J0000299D01*
G01X0003040Y0015850D02*
G03X0003014Y0015994I0000410J0000000D01*
G01X0010774Y0016224D02*
G03X0010630Y0016250I0000144J0000384D01*
G01X0005779Y0016518D02*
G03X0005800Y0016600I0000149J0000082D01*
G01X0001440Y0007243D02*
G03X0001515Y0007420I0000170J0000177D01*
G01X0003040Y0013150D02*
G03X0002962Y0013390I0000410J0000000D01*
Y0012910D02*
G03X0003040Y0013150I0000332J0000240D01*
G01X0006246Y0010704D02*
G03X0006220Y0010560I0000384J0000144D01*
G01X0003807Y0004660D02*
G03X0003687Y0004710I0000120J0000120D01*
G01X0001200Y0003340D02*
G03X0001150Y0003220I0000120J0000120D01*
G01X0007201Y0004210D02*
G03X0007025Y0004285I0000176J0000170D01*
G01X0007447Y0014473D02*
G03X0007630Y0014430I0000183J0000367D01*
G01X0007740Y0004660D02*
G03X0007620Y0004710I0000120J0000120D01*
G01X0007880Y0005160D02*
G03X0007760Y0005210I0000120J0000120D01*
G01X0007025Y0005295D02*
G03X0007201Y0005370I0000000J0000245D01*
Y0004710D02*
G03X0007025Y0004785I0000176J0000170D01*
G01X0003581Y0004710D02*
G03X0003405Y0004785I0000176J0000170D01*
G01X0003256Y0013317D02*
G03X0003220Y0013150I0000374J0000167D01*
G01X0007630Y0012770D02*
G03X0008003Y0013010I0000000J0000410D01*
G01X0007630Y0003880D02*
G03X0007580Y0004000I0000170J0000000D01*
G01X0007025Y0003795D02*
G03X0007201Y0003870I0000000J0000245D01*
G01X0001510Y0011100D02*
G03X0001560Y0010980I0000170J0000000D01*
G01X0010040Y0018650D02*
G03X0010004Y0018817I0000410J0000000D01*
G01X0001300Y0013720D02*
G03X0001250Y0013600I0000120J0000120D01*
G01X0001260Y0019515D02*
G03X0001337Y0019527I0000000J0000245D01*
G01X0005180Y0011200D02*
G03X0005230Y0011320I0000120J0000120D01*
G01X0003573Y0019056D02*
G03X0003220Y0018650I0000057J0000406D01*
G01X0003630Y0013560D02*
G03X0003530Y0013547I0000000J0000410D01*
G01X0002210Y0017907D02*
G03X0002220Y0017904I0000075J0000233D01*
G01X0002478Y0003370D02*
G03X0002655Y0003295I0000177J0000170D01*
G54D23*
X0008030Y0020920D03*
X0009520Y0019400D03*
X0003980Y0006540D03*
X-0002060Y0022820D03*
X-0003060D03*
X-0002060Y0018820D03*
X-0003060D03*
X-0000560Y0017820D03*
X-0002560D03*
X-0002060Y0016820D03*
X-0003060D03*
X-0002060Y0014820D03*
X-0003060D03*
X-0001560Y0013820D03*
X-0002560D03*
X-0002060Y0012820D03*
X-0003060D03*
X-0002560Y0011820D03*
X0010940Y0010820D03*
X-0002060D03*
X-0003060D03*
X-0002560Y0009820D03*
X0010940Y0008820D03*
X-0000060D03*
X-0002060D03*
X-0003060D03*
X0000440Y0007820D03*
X-0000560D03*
X-0002560D03*
X-0003560D03*
X0007940Y0006820D03*
X-0002060D03*
X-0003060D03*
X0009440Y0005820D03*
X0008440D03*
X-0003560D03*
X0008940Y0004820D03*
X-0002060D03*
X-0003060D03*
X0000440Y0003820D03*
X-0000560D03*
X-0001560D03*
X-0002560D03*
X-0003560D03*
X0008940Y0002820D03*
X-0000060D03*
X-0001060D03*
X0009440Y0001820D03*
X0008440D03*
X0007440D03*
X0000440D03*
X-0000560D03*
X0010940Y0000820D03*
X0008940D03*
X0007940D03*
X0006940D03*
X0000940D03*
X-0001060D03*
X-0002060D03*
X-0003060D03*
X0000040Y0020660D03*
X-0002460Y0015660D03*
Y0005660D03*
X0010040Y0000660D03*
X0000040D03*
X0008040Y0011150D03*
X0003610Y0006540D03*
X0009040Y0012770D03*
X0008210Y0013180D03*
X0004240Y0007040D03*
X0001270Y0006670D03*
X0003215Y0006540D03*
G54D24*
X0009974Y0019060D03*
X0001420Y0013340D03*
X0009975Y0019400D03*
X0009040Y0002480D03*
X0002305Y0006040D03*
X0001270Y0005675D03*
X-0000195Y0020720D03*
X0006950Y0021080D03*
X0007080Y0007963D03*
X0006240Y0022545D03*
X0007480Y0021440D03*
X0007825Y0014140D03*
X0001270Y0007420D03*
X0002005Y0009560D03*
X-0001600Y0021790D03*
X0010560Y0021800D03*
X0003975Y0019320D03*
X0001260Y0020095D03*
X0002643Y0020440D03*
X0006940Y0019840D03*
X0000722Y0022520D03*
X0005840Y0022285D03*
X0002102Y0022340D03*
X0003620Y0008940D03*
X0004995Y0003800D03*
X0005480Y0014585D03*
X0005685Y0019380D03*
X0003940Y0020985D03*
X0006720Y0013860D03*
X0000680Y0016015D03*
Y0019595D03*
X0001260Y0019760D03*
X0004180Y0019640D03*
X0004241Y0003540D03*
X0002307Y0020440D03*
X0003620Y0022340D03*
X-0003660Y0008500D03*
X0000175Y0018860D03*
X0001780Y0022600D03*
X0009975Y0018060D03*
X0008465Y0014340D03*
X0004220Y0017307D03*
Y0011660D03*
X0001260Y0018565D03*
Y0014845D03*
X0004430Y0020160D03*
X0002830Y0019640D03*
X0004680Y0019135D03*
X0005520Y0022151D03*
X0004320Y0022325D03*
X0002640Y0021075D03*
X0002285Y0018140D03*
X0002380Y0022845D03*
X0005955Y0006040D03*
X0011335Y0013600D03*
X0005260Y0023080D03*
X0004060Y0011325D03*
X0002835Y0019320D03*
X0003285Y0013560D03*
X0000420Y0017800D03*
Y0021225D03*
X0003020Y0022151D03*
X0005000Y0022468D03*
X0003120Y0022780D03*
X0001000Y0019369D03*
X0005580Y0016375D03*
X0004241Y0003040D03*
X0001300Y0022520D03*
X0001160Y0012740D03*
X0003280Y0022385D03*
X-0000890Y0021500D03*
X0006140Y0021005D03*
X0006581Y0022300D03*
X0004808Y0020680D03*
G54D25*
X0007220Y0021700D03*
X0007023D03*
X0006826D03*
X0006629D03*
X0006433D03*
X0006236D03*
X0006039D03*
X0005842D03*
X0005645D03*
X0005448D03*
X0005251D03*
X0005055D03*
X0004858D03*
X0004661D03*
X0004464D03*
X0004267D03*
X0004070D03*
X0003874D03*
X0003677D03*
X0003480D03*
X0003283D03*
X0003086D03*
X0002889D03*
X0002692D03*
X0002496D03*
X0002299D03*
X0002102D03*
X0001905D03*
X0001708D03*
X0001511D03*
X0001314D03*
X0001118D03*
X0000921D03*
G54D26*
X0007968Y0022979D03*
X0000173D03*
G54D27*
X0001270Y0006590D03*
Y0006030D03*
X0007810Y0006340D03*
Y0005780D03*
X0008475Y0004700D03*
Y0004140D03*
Y0003040D03*
Y0002480D03*
G54D28*
X0002630Y0015850D03*
X0003630Y0014850D03*
Y0015850D03*
X0004630Y0014850D03*
Y0015850D03*
Y0010560D03*
X0005630Y0009560D03*
Y0010560D03*
X0006630Y0009560D03*
Y0010560D03*
X0007630Y0009560D03*
Y0010560D03*
X0008630Y0009560D03*
Y0010560D03*
Y0007620D03*
X0009630Y0006620D03*
Y0007620D03*
X0010630Y0006620D03*
Y0007620D03*
X0007630Y0013180D03*
X0008630Y0012180D03*
Y0013180D03*
X0009630Y0012180D03*
Y0013180D03*
X0010630Y0012180D03*
Y0013180D03*
X0002630Y0018650D03*
X0003630Y0017650D03*
Y0018650D03*
X0004630Y0017650D03*
Y0018650D03*
X0005630Y0017650D03*
Y0018650D03*
X0006630Y0017650D03*
X0007630D03*
Y0018650D03*
X0008630Y0017650D03*
Y0018650D03*
X0009630Y0017650D03*
Y0018650D03*
X0010630Y0017650D03*
Y0018650D03*
X0009630Y0005050D03*
X0010630Y0004050D03*
Y0005050D03*
X0002630Y0013150D03*
X0003630Y0012150D03*
Y0013150D03*
X0004630Y0012150D03*
Y0013150D03*
X0005630Y0012150D03*
Y0013150D03*
X0006630Y0015840D03*
X0007630Y0014840D03*
Y0015840D03*
X0008630Y0014840D03*
Y0015840D03*
X0009630Y0014840D03*
Y0015840D03*
X0010630Y0014840D03*
Y0015840D03*
G54D29*
X0002630Y0014850D03*
X0004630Y0009560D03*
X0008630Y0006620D03*
X0007630Y0012180D03*
X0002630Y0017650D03*
X0006630Y0018650D03*
X0009630Y0004050D03*
X0002630Y0012150D03*
X0006630Y0014840D03*
G54D30*
X0010600Y0002530D03*
Y0020770D03*
X-0002500Y0002530D03*
Y0020770D03*
G54D31*
X-0000300Y0016580D03*
Y0006740D03*
G54D32*
X0000260Y0009500D03*
Y0010580D03*
Y0011660D03*
Y0012740D03*
Y0013820D03*
X-0000860Y0013280D03*
Y0012200D03*
Y0011120D03*
Y0010040D03*
G54D33*
X0001958Y0001074D03*
X0005737D03*
G54D34*
X0003847Y0000680D03*
X0004635D03*
X0003060Y0001467D03*
X0004635D03*
X0003847D03*
X0003060Y0000680D03*
G54D35*
X0006650Y0006540D03*
Y0006040D03*
Y0005540D03*
Y0005040D03*
Y0004540D03*
Y0004040D03*
Y0003540D03*
Y0003040D03*
Y0002540D03*
X0003030D03*
Y0003040D03*
Y0003540D03*
Y0004040D03*
Y0004540D03*
Y0005040D03*
Y0005540D03*
Y0006040D03*
Y0006540D03*
Y0007040D03*
G54D36*
X0006650D03*
M02*
