*
G04 Mass Parameters ***
*
G04 Image ***
*
%INC:\PROJECTS\RAGOBOTS_HW\ROBOT\HW\EXPANSION\PORTEXP\DESIGN\PORTEXP.SMB*%
%ICAS*%
%MOIN*%
%IPPOS*%
%ASAXBY*%
G74*%FSLAN2X34Y34*%
*
G04 Aperture Definitions ***
*
%ADD10R,0.0380X0.0320*%
%ADD11C,0.0580*%
%ADD12R,0.0580X0.0580*%
%ADD13C,0.1650*%
%ADD14R,0.0118X0.0512*%
%ADD15R,0.0708X0.0866*%
%ADD16C,0.1450*%
%ADD17C,0.0570*%
%ADD18R,0.0500X0.0500*%
%ADD19C,0.0650*%
%ADD20C,0.0550*%
%ADD21C,0.0250*%
%ADD22C,0.0100*%
%ADD23C,0.0250*%
%ADD24C,0.0250*%
%ADD25R,0.0118X0.0512*%
%ADD26R,0.0708X0.0866*%
%ADD27R,0.0380X0.0320*%
%ADD28C,0.0580*%
%ADD29R,0.0580X0.0580*%
%ADD30C,0.1650*%
%ADD31C,0.1450*%
%ADD32C,0.0570*%
%ADD33C,0.0650*%
%ADD34C,0.0550*%
%ADD35O,0.1000X0.0250*%
%ADD36R,0.1000X0.0250*%
%ADD37C,0.1250*%
%ADD38R,0.0098X0.0512*%
%ADD39R,0.0500X0.0500*%
*
G04 Plot Data ***
*
G54D26*
X0007968Y0022979D03*
X0000173D03*
G54D27*
X0001270Y0006590D03*
Y0006030D03*
X0007810Y0006340D03*
Y0005780D03*
X0008475Y0004700D03*
Y0004140D03*
Y0003040D03*
Y0002480D03*
G54D28*
X0002630Y0015850D03*
X0003630Y0014850D03*
Y0015850D03*
X0004630Y0014850D03*
Y0015850D03*
Y0010560D03*
X0005630Y0009560D03*
Y0010560D03*
X0006630Y0009560D03*
Y0010560D03*
X0007630Y0009560D03*
Y0010560D03*
X0008630Y0009560D03*
Y0010560D03*
Y0007620D03*
X0009630Y0006620D03*
Y0007620D03*
X0010630Y0006620D03*
Y0007620D03*
X0007630Y0013180D03*
X0008630Y0012180D03*
Y0013180D03*
X0009630Y0012180D03*
Y0013180D03*
X0010630Y0012180D03*
Y0013180D03*
X0002630Y0018650D03*
X0003630Y0017650D03*
Y0018650D03*
X0004630Y0017650D03*
Y0018650D03*
X0005630Y0017650D03*
Y0018650D03*
X0006630Y0017650D03*
X0007630D03*
Y0018650D03*
X0008630Y0017650D03*
Y0018650D03*
X0009630Y0017650D03*
Y0018650D03*
X0010630Y0017650D03*
Y0018650D03*
X0009630Y0005050D03*
X0010630Y0004050D03*
Y0005050D03*
X0002630Y0013150D03*
X0003630Y0012150D03*
Y0013150D03*
X0004630Y0012150D03*
Y0013150D03*
X0005630Y0012150D03*
Y0013150D03*
X0006630Y0015840D03*
X0007630Y0014840D03*
Y0015840D03*
X0008630Y0014840D03*
Y0015840D03*
X0009630Y0014840D03*
Y0015840D03*
X0010630Y0014840D03*
Y0015840D03*
G54D29*
X0002630Y0014850D03*
X0004630Y0009560D03*
X0008630Y0006620D03*
X0007630Y0012180D03*
X0002630Y0017650D03*
X0006630Y0018650D03*
X0009630Y0004050D03*
X0002630Y0012150D03*
X0006630Y0014840D03*
G54D30*
X0010600Y0002530D03*
Y0020770D03*
X-0002500Y0002530D03*
Y0020770D03*
G54D31*
X-0000300Y0016580D03*
Y0006740D03*
G54D32*
X0000260Y0009500D03*
Y0010580D03*
Y0011660D03*
Y0012740D03*
Y0013820D03*
X-0000860Y0013280D03*
Y0012200D03*
Y0011120D03*
Y0010040D03*
G54D33*
X0001958Y0001074D03*
X0005737D03*
G54D34*
X0003847Y0000680D03*
X0004635D03*
X0003060Y0001467D03*
X0004635D03*
X0003847D03*
X0003060Y0000680D03*
G54D35*
X0006650Y0006540D03*
Y0006040D03*
Y0005540D03*
Y0005040D03*
Y0004540D03*
Y0004040D03*
Y0003540D03*
Y0003040D03*
Y0002540D03*
X0003030D03*
Y0003040D03*
Y0003540D03*
Y0004040D03*
Y0004540D03*
Y0005040D03*
Y0005540D03*
Y0006040D03*
Y0006540D03*
Y0007040D03*
G54D36*
X0006650D03*
G54D38*
X0007220Y0021700D03*
X0007023D03*
X0006826D03*
X0006629D03*
X0006433D03*
X0006236D03*
X0006039D03*
X0005842D03*
X0005645D03*
X0005448D03*
X0005251D03*
X0005055D03*
X0004858D03*
X0004661D03*
X0004464D03*
X0004267D03*
X0004070D03*
X0003874D03*
X0003677D03*
X0003480D03*
X0003283D03*
X0003086D03*
X0002889D03*
X0002692D03*
X0002496D03*
X0002299D03*
X0002102D03*
X0001905D03*
X0001708D03*
X0001511D03*
X0001314D03*
X0001118D03*
X0000921D03*
M02*
